ISO-10303-21;
HEADER;
FILE_DESCRIPTION (( 'STEP AP203' ),
    '1' );
FILE_NAME ('228-2500-114.step',
    '2022-06-06T19:00:06',
    ( '' ),
    ( '' ),
    'SwSTEP 2.0',
    'SolidWorks 2021',
    '' );
FILE_SCHEMA (( 'CONFIG_CONTROL_DESIGN' ));
ENDSEC;

DATA;
#1 = APPROVAL_ROLE ( '' ) ;
#2 = EDGE_CURVE ( 'NONE', #110, #12, #8, .T. ) ;
#3 = FACE_OUTER_BOUND ( 'NONE', #72, .T. ) ;
#4 = APPLICATION_PROTOCOL_DEFINITION ( 'international standard', 'config_control_design', 1994, #138 ) ;
#5 = PLANE ( 'NONE',  #78 ) ;
#6 = ADVANCED_FACE ( 'NONE', ( #199 ), #163, .T. ) ;
#7 = EDGE_LOOP ( 'NONE', ( #67, #49, #131, #59 ) ) ;
#8 = CIRCLE ( 'NONE', #54, 2.100000000000000089 ) ;
#9 = DIRECTION ( 'NONE',  ( -0.000000000000000000, -0.000000000000000000, -1.000000000000000000 ) ) ;
#10 = EDGE_CURVE ( 'NONE', #41, #38, #31, .T. ) ;
#11 = AXIS2_PLACEMENT_3D ( 'NONE', #191, #169, #240 ) ;
#12 = VERTEX_POINT ( 'NONE', #149 ) ;
#13 = CYLINDRICAL_SURFACE ( 'NONE', #124, 4.000000000000000000 ) ;
#14 = FACE_BOUND ( 'NONE', #43, .T. ) ;
#15 = DIRECTION ( 'NONE',  ( 1.000000000000000000, 0.000000000000000000, 0.000000000000000000 ) ) ;
#16 = LINE ( 'NONE', #210, #70 ) ;
#17 = ORIENTED_EDGE ( 'NONE', *, *, #95, .F. ) ;
#18 = PERSON_AND_ORGANIZATION_ROLE ( 'classification_officer' ) ;
#19 = CARTESIAN_POINT ( 'NONE',  ( 0.000000000000000000, 0.000000000000000000, 0.000000000000000000 ) ) ;
#20 = APPLICATION_PROTOCOL_DEFINITION ( 'international standard', 'config_control_design', 1994, #121 ) ;
#21 = DIRECTION ( 'NONE',  ( 0.000000000000000000, 0.000000000000000000, 1.000000000000000000 ) ) ;
#22 = DIRECTION ( 'NONE',  ( 0.000000000000000000, 0.000000000000000000, 1.000000000000000000 ) ) ;
#23 = PERSON_AND_ORGANIZATION_ROLE ( 'design_owner' ) ;
#24 = ADVANCED_FACE ( 'NONE', ( #106, #144 ), #5, .T. ) ;
#25 = PRODUCT_DEFINITION_SHAPE ( 'NONE', 'NONE',  #111 ) ;
#26 = DIRECTION ( 'NONE',  ( 1.000000000000000000, 0.000000000000000000, 0.000000000000000000 ) ) ;
#27 = LINE ( 'NONE', #148, #90 ) ;
#28 = AXIS2_PLACEMENT_3D ( 'NONE', #177, #208, #33 ) ;
#29 = APPROVAL ( #143, 'UNSPECIFIED' ) ;
#30 = CARTESIAN_POINT ( 'NONE',  ( 0.000000000000000000, 0.000000000000000000, -1.587499999999999911 ) ) ;
#31 = CIRCLE ( 'NONE', #189, 4.000000000000000000 ) ;
#32 = LINE ( 'NONE', #205, #153 ) ;
#33 = DIRECTION ( 'NONE',  ( 1.000000000000000000, 0.000000000000000000, 0.000000000000000000 ) ) ;
#34 = PRODUCT_DEFINITION_FORMATION_WITH_SPECIFIED_SOURCE ( 'ANY', '', #243, .NOT_KNOWN. ) ;
#35 = CARTESIAN_POINT ( 'NONE',  ( 4.000000000000000000, 4.898587196589412829E-16, -1.587499999999999911 ) ) ;
#36 = EDGE_CURVE ( 'NONE', #12, #110, #193, .T. ) ;
#37 = DIRECTION ( 'NONE',  ( -0.000000000000000000, -0.000000000000000000, -1.000000000000000000 ) ) ;
#38 = VERTEX_POINT ( 'NONE', #71 ) ;
#39 = SECURITY_CLASSIFICATION_LEVEL ( 'unclassified' ) ;
#40 = APPROVAL_PERSON_ORGANIZATION ( #157, #29, #1 ) ;
#41 = VERTEX_POINT ( 'NONE', #239 ) ;
#42 = VECTOR ( 'NONE', #45, 1000.000000000000000 ) ;
#43 = EDGE_LOOP ( 'NONE', ( #244, #98 ) ) ;
#44 = CALENDAR_DATE ( 2022, 6, 6 ) ;
#45 = DIRECTION ( 'NONE',  ( -0.000000000000000000, -0.000000000000000000, -1.000000000000000000 ) ) ;
#46 = PRODUCT_RELATED_PRODUCT_CATEGORY ( 'detail', '', ( #243 ) ) ;
#47 = DIRECTION ( 'NONE',  ( 1.000000000000000000, 0.000000000000000000, 0.000000000000000000 ) ) ;
#48 = APPROVAL_ROLE ( '' ) ;
#49 = ORIENTED_EDGE ( 'NONE', *, *, #10, .F. ) ;
#50 = DIRECTION ( 'NONE',  ( -0.000000000000000000, -0.000000000000000000, -1.000000000000000000 ) ) ;
#51 = DIRECTION ( 'NONE',  ( -1.000000000000000000, 0.000000000000000000, 0.000000000000000000 ) ) ;
#52 = ORGANIZATION ( 'UNSPECIFIED', 'UNSPECIFIED', '' ) ;
#53 = CARTESIAN_POINT ( 'NONE',  ( 0.000000000000000000, 0.000000000000000000, 1.587499999999999911 ) ) ;
#54 = AXIS2_PLACEMENT_3D ( 'NONE', #190, #184, #146 ) ;
#55 = CARTESIAN_POINT ( 'NONE',  ( 0.000000000000000000, 0.000000000000000000, -1.587499999999999911 ) ) ;
#56 = MANIFOLD_SOLID_BREP ( '228-2500-114', #162 ) ;
#57 = CYLINDRICAL_SURFACE ( 'NONE', #171, 2.100000000000000089 ) ;
#58 = SECURITY_CLASSIFICATION ( '', '', #39 ) ;
#59 = ORIENTED_EDGE ( 'NONE', *, *, #129, .T. ) ;
#60 = CC_DESIGN_DATE_AND_TIME_ASSIGNMENT ( #218, #214, ( #111 ) ) ;
#61 = VERTEX_POINT ( 'NONE', #202 ) ;
#62 = APPROVAL_STATUS ( 'not_yet_approved' ) ;
#63 = COORDINATED_UNIVERSAL_TIME_OFFSET ( 6, 0, .BEHIND. ) ;
#64 = MECHANICAL_CONTEXT ( 'NONE', #138, 'mechanical' ) ;
#65 = CC_DESIGN_PERSON_AND_ORGANIZATION_ASSIGNMENT ( #194, #18, ( #58 ) ) ;
#66 = DATE_AND_TIME ( #44, #182 ) ;
#67 = ORIENTED_EDGE ( 'NONE', *, *, #147, .F. ) ;
#68 = DIRECTION ( 'NONE',  ( 0.000000000000000000, 0.000000000000000000, 1.000000000000000000 ) ) ;
#69 = DIRECTION ( 'NONE',  ( -0.000000000000000000, -0.000000000000000000, -1.000000000000000000 ) ) ;
#70 = VECTOR ( 'NONE', #132, 1000.000000000000000 ) ;
#71 = CARTESIAN_POINT ( 'NONE',  ( 4.000000000000000000, 4.898587196589412829E-16, 1.587499999999999911 ) ) ;
#72 = EDGE_LOOP ( 'NONE', ( #229, #93, #79, #17 ) ) ;
#73 = DIRECTION ( 'NONE',  ( 1.000000000000000000, 0.000000000000000000, -0.000000000000000000 ) ) ;
#74 = CARTESIAN_POINT ( 'NONE',  ( -2.100000000000000089, 0.000000000000000000, -1.587499999999999911 ) ) ;
#75 = EDGE_CURVE ( 'NONE', #12, #236, #27, .T. ) ;
#76 = ORIENTED_EDGE ( 'NONE', *, *, #36, .T. ) ;
#77 = CC_DESIGN_APPROVAL ( #233, ( #34 ) ) ;
#78 = AXIS2_PLACEMENT_3D ( 'NONE', #130, #216, #73 ) ;
#79 = ORIENTED_EDGE ( 'NONE', *, *, #75, .T. ) ;
#80 = COORDINATED_UNIVERSAL_TIME_OFFSET ( 6, 0, .BEHIND. ) ;
#81 = ADVANCED_FACE ( 'NONE', ( #3 ), #165, .F. ) ;
#82 = PERSON_AND_ORGANIZATION ( #241, #52 ) ;
#83 = PERSON_AND_ORGANIZATION ( #241, #52 ) ;
#84 = LOCAL_TIME ( 14, 0, 6.000000000000000000, #104 ) ;
#85 = EDGE_LOOP ( 'NONE', ( #220, #209 ) ) ;
#86 = APPROVAL_DATE_TIME ( #232, #29 ) ;
#87 = EDGE_CURVE ( 'NONE', #110, #61, #215, .T. ) ;
#88 = CARTESIAN_POINT ( 'NONE',  ( 0.000000000000000000, 0.000000000000000000, 1.587499999999999911 ) ) ;
#89 = DIRECTION ( 'NONE',  ( 0.000000000000000000, 0.000000000000000000, 1.000000000000000000 ) ) ;
#90 = VECTOR ( 'NONE', #69, 1000.000000000000000 ) ;
#91 = CARTESIAN_POINT ( 'NONE',  ( 0.000000000000000000, 0.000000000000000000, 1.587499999999999911 ) ) ;
#92 = AXIS2_PLACEMENT_3D ( 'NONE', #19, #68, #119 ) ;
#93 = ORIENTED_EDGE ( 'NONE', *, *, #2, .T. ) ;
#94 = EDGE_CURVE ( 'NONE', #38, #41, #212, .T. ) ;
#95 = EDGE_CURVE ( 'NONE', #61, #236, #219, .T. ) ;
#96 = DIRECTION ( 'NONE',  ( -1.000000000000000000, 0.000000000000000000, 0.000000000000000000 ) ) ;
#97 = CIRCLE ( 'NONE', #28, 4.000000000000000000 ) ;
#98 = ORIENTED_EDGE ( 'NONE', *, *, #95, .T. ) ;
#99 = APPROVAL_ROLE ( '' ) ;
#100 = COORDINATED_UNIVERSAL_TIME_OFFSET ( 6, 0, .BEHIND. ) ;
#101 = ORIENTED_EDGE ( 'NONE', *, *, #75, .F. ) ;
#102 = DIRECTION ( 'NONE',  ( 1.000000000000000000, 0.000000000000000000, 0.000000000000000000 ) ) ;
#103 = CARTESIAN_POINT ( 'NONE',  ( 0.000000000000000000, 0.000000000000000000, 1.587499999999999911 ) ) ;
#104 = COORDINATED_UNIVERSAL_TIME_OFFSET ( 6, 0, .BEHIND. ) ;
#105 = DIRECTION ( 'NONE',  ( 0.000000000000000000, 0.000000000000000000, 1.000000000000000000 ) ) ;
#106 = FACE_OUTER_BOUND ( 'NONE', #234, .T. ) ;
#107 = CC_DESIGN_APPROVAL ( #29, ( #111 ) ) ;
#108 = CC_DESIGN_PERSON_AND_ORGANIZATION_ASSIGNMENT ( #120, #23, ( #243 ) ) ;
#109 = AXIS2_PLACEMENT_3D ( 'NONE', #103, #9, #51 ) ;
#110 = VERTEX_POINT ( 'NONE', #222 ) ;
#111 = PRODUCT_DEFINITION ( 'UNKNOWN', '', #34, #113 ) ;
#112 = PLANE ( 'NONE',  #11 ) ;
#113 = DESIGN_CONTEXT ( 'detailed design', #121, 'design' ) ;
#114 = DIRECTION ( 'NONE',  ( -0.000000000000000000, -0.000000000000000000, -1.000000000000000000 ) ) ;
#115 = APPROVAL_PERSON_ORGANIZATION ( #83, #133, #99 ) ;
#116 = FACE_OUTER_BOUND ( 'NONE', #221, .T. ) ;
#117 = DIRECTION ( 'NONE',  ( -1.000000000000000000, 0.000000000000000000, 0.000000000000000000 ) ) ;
#118 = ORIENTED_EDGE ( 'NONE', *, *, #227, .T. ) ;
#119 = DIRECTION ( 'NONE',  ( 1.000000000000000000, 0.000000000000000000, 0.000000000000000000 ) ) ;
#120 = PERSON_AND_ORGANIZATION ( #241, #52 ) ;
#121 = APPLICATION_CONTEXT ( 'configuration controlled 3d designs of mechanical parts and assemblies' ) ;
#122 = CALENDAR_DATE ( 2022, 6, 6 ) ;
#123 = DIRECTION ( 'NONE',  ( 0.000000000000000000, 0.000000000000000000, 1.000000000000000000 ) ) ;
#124 = AXIS2_PLACEMENT_3D ( 'NONE', #150, #37, #96 ) ;
#125 = ORIENTED_EDGE ( 'NONE', *, *, #147, .T. ) ;
#126 = DATE_AND_TIME ( #122, #198 ) ;
#127 = DIRECTION ( 'NONE',  ( -1.000000000000000000, 0.000000000000000000, 0.000000000000000000 ) ) ;
#128 = ADVANCED_BREP_SHAPE_REPRESENTATION ( '228-2500-114', ( #56, #92 ), #231 ) ;
#129 = EDGE_CURVE ( 'NONE', #141, #213, #145, .T. ) ;
#130 = CARTESIAN_POINT ( 'NONE',  ( 0.000000000000000000, 0.000000000000000000, 1.587499999999999911 ) ) ;
#131 = ORIENTED_EDGE ( 'NONE', *, *, #166, .T. ) ;
#132 = DIRECTION ( 'NONE',  ( -0.000000000000000000, -0.000000000000000000, -1.000000000000000000 ) ) ;
#133 = APPROVAL ( #181, 'UNSPECIFIED' ) ;
#134 = APPROVAL_PERSON_ORGANIZATION ( #155, #233, #48 ) ;
#135 = ORIENTED_EDGE ( 'NONE', *, *, #238, .F. ) ;
#136 = ORIENTED_EDGE ( 'NONE', *, *, #36, .F. ) ;
#137 = PERSON_AND_ORGANIZATION_ROLE ( 'design_supplier' ) ;
#138 = APPLICATION_CONTEXT ( 'configuration controlled 3d designs of mechanical parts and assemblies' ) ;
#139 = PERSON_AND_ORGANIZATION_ROLE ( 'creator' ) ;
#140 = CC_DESIGN_APPROVAL ( #133, ( #58 ) ) ;
#141 = VERTEX_POINT ( 'NONE', #226 ) ;
#142 = SHAPE_DEFINITION_REPRESENTATION ( #25, #128 ) ;
#143 = APPROVAL_STATUS ( 'not_yet_approved' ) ;
#144 = FACE_BOUND ( 'NONE', #174, .T. ) ;
#145 = CIRCLE ( 'NONE', #176, 4.000000000000000000 ) ;
#146 = DIRECTION ( 'NONE',  ( 1.000000000000000000, 0.000000000000000000, 0.000000000000000000 ) ) ;
#147 = EDGE_CURVE ( 'NONE', #38, #213, #32, .T. ) ;
#148 = CARTESIAN_POINT ( 'NONE',  ( -2.100000000000000089, 0.000000000000000000, 1.587499999999999911 ) ) ;
#149 = CARTESIAN_POINT ( 'NONE',  ( -2.100000000000000089, 0.000000000000000000, 1.587499999999999911 ) ) ;
#150 = CARTESIAN_POINT ( 'NONE',  ( 0.000000000000000000, 0.000000000000000000, 1.587499999999999911 ) ) ;
#151 = AXIS2_PLACEMENT_3D ( 'NONE', #235, #89, #47 ) ;
#152 = ADVANCED_FACE ( 'NONE', ( #116 ), #57, .F. ) ;
#153 = VECTOR ( 'NONE', #223, 1000.000000000000000 ) ;
#154 = PERSON_AND_ORGANIZATION ( #241, #52 ) ;
#155 = PERSON_AND_ORGANIZATION ( #241, #52 ) ;
#156 = COORDINATED_UNIVERSAL_TIME_OFFSET ( 6, 0, .BEHIND. ) ;
#157 = PERSON_AND_ORGANIZATION ( #241, #52 ) ;
#158 = CC_DESIGN_DATE_AND_TIME_ASSIGNMENT ( #247, #248, ( #58 ) ) ;
#159 = ORIENTED_EDGE ( 'NONE', *, *, #2, .F. ) ;
#160 = DIRECTION ( 'NONE',  ( 1.000000000000000000, 0.000000000000000000, 0.000000000000000000 ) ) ;
#161 = CIRCLE ( 'NONE', #167, 2.100000000000000089 ) ;
#162 = CLOSED_SHELL ( 'NONE', ( #152, #207, #24, #230, #6, #81 ) ) ;
#163 = CYLINDRICAL_SURFACE ( 'NONE', #109, 4.000000000000000000 ) ;
#164 = CC_DESIGN_PERSON_AND_ORGANIZATION_ASSIGNMENT ( #82, #195, ( #111 ) ) ;
#165 = CYLINDRICAL_SURFACE ( 'NONE', #224, 2.100000000000000089 ) ;
#166 = EDGE_CURVE ( 'NONE', #41, #141, #16, .T. ) ;
#167 = AXIS2_PLACEMENT_3D ( 'NONE', #55, #225, #15 ) ;
#168 = ORIENTED_EDGE ( 'NONE', *, *, #87, .T. ) ;
#169 = DIRECTION ( 'NONE',  ( 0.000000000000000000, 0.000000000000000000, 1.000000000000000000 ) ) ;
#170 = CC_DESIGN_SECURITY_CLASSIFICATION ( #58, ( #34 ) ) ;
#171 = AXIS2_PLACEMENT_3D ( 'NONE', #53, #114, #117 ) ;
#172 =( LENGTH_UNIT ( ) NAMED_UNIT ( * ) SI_UNIT ( .MILLI., .METRE. ) );
#173 =( NAMED_UNIT ( * ) SI_UNIT ( $, .STERADIAN. ) SOLID_ANGLE_UNIT ( ) );
#174 = EDGE_LOOP ( 'NONE', ( #136, #159 ) ) ;
#175 = CC_DESIGN_PERSON_AND_ORGANIZATION_ASSIGNMENT ( #154, #137, ( #34 ) ) ;
#176 = AXIS2_PLACEMENT_3D ( 'NONE', #30, #21, #102 ) ;
#177 = CARTESIAN_POINT ( 'NONE',  ( 0.000000000000000000, 0.000000000000000000, -1.587499999999999911 ) ) ;
#178 = APPROVAL_DATE_TIME ( #66, #133 ) ;
#179 = CALENDAR_DATE ( 2022, 6, 6 ) ;
#180 = ORIENTED_EDGE ( 'NONE', *, *, #94, .T. ) ;
#181 = APPROVAL_STATUS ( 'not_yet_approved' ) ;
#182 = LOCAL_TIME ( 14, 0, 6.000000000000000000, #156 ) ;
#183 = EDGE_LOOP ( 'NONE', ( #186, #125, #118, #188 ) ) ;
#184 = DIRECTION ( 'NONE',  ( 0.000000000000000000, 0.000000000000000000, 1.000000000000000000 ) ) ;
#185 = CALENDAR_DATE ( 2022, 6, 6 ) ;
#186 = ORIENTED_EDGE ( 'NONE', *, *, #94, .F. ) ;
#187 = LOCAL_TIME ( 14, 0, 6.000000000000000000, #80 ) ;
#188 = ORIENTED_EDGE ( 'NONE', *, *, #166, .F. ) ;
#189 = AXIS2_PLACEMENT_3D ( 'NONE', #88, #22, #160 ) ;
#190 = CARTESIAN_POINT ( 'NONE',  ( 0.000000000000000000, 0.000000000000000000, 1.587499999999999911 ) ) ;
#191 = CARTESIAN_POINT ( 'NONE',  ( 0.000000000000000000, 0.000000000000000000, -1.587499999999999911 ) ) ;
#192 = CC_DESIGN_PERSON_AND_ORGANIZATION_ASSIGNMENT ( #197, #139, ( #34 ) ) ;
#193 = CIRCLE ( 'NONE', #151, 2.100000000000000089 ) ;
#194 = PERSON_AND_ORGANIZATION ( #241, #52 ) ;
#195 = PERSON_AND_ORGANIZATION_ROLE ( 'creator' ) ;
#196 = DIRECTION ( 'NONE',  ( 1.000000000000000000, 0.000000000000000000, 0.000000000000000000 ) ) ;
#197 = PERSON_AND_ORGANIZATION ( #241, #52 ) ;
#198 = LOCAL_TIME ( 14, 0, 6.000000000000000000, #63 ) ;
#199 = FACE_OUTER_BOUND ( 'NONE', #7, .T. ) ;
#200 = APPROVAL_DATE_TIME ( #126, #233 ) ;
#201 = CARTESIAN_POINT ( 'NONE',  ( 2.100000000000000089, 2.571758278209441957E-16, 1.587499999999999911 ) ) ;
#202 = CARTESIAN_POINT ( 'NONE',  ( 2.100000000000000089, 2.571758278209441957E-16, -1.587499999999999911 ) ) ;
#203 = CARTESIAN_POINT ( 'NONE',  ( 0.000000000000000000, 0.000000000000000000, 1.587499999999999911 ) ) ;
#204 = FACE_OUTER_BOUND ( 'NONE', #85, .T. ) ;
#205 = CARTESIAN_POINT ( 'NONE',  ( 4.000000000000000000, 4.898587196589412829E-16, 1.587499999999999911 ) ) ;
#206 =( NAMED_UNIT ( * ) PLANE_ANGLE_UNIT ( ) SI_UNIT ( $, .RADIAN. ) );
#207 = ADVANCED_FACE ( 'NONE', ( #246 ), #13, .T. ) ;
#208 = DIRECTION ( 'NONE',  ( 0.000000000000000000, 0.000000000000000000, 1.000000000000000000 ) ) ;
#209 = ORIENTED_EDGE ( 'NONE', *, *, #227, .F. ) ;
#210 = CARTESIAN_POINT ( 'NONE',  ( -4.000000000000000000, 0.000000000000000000, 1.587499999999999911 ) ) ;
#211 = CALENDAR_DATE ( 2022, 6, 6 ) ;
#212 = CIRCLE ( 'NONE', #245, 4.000000000000000000 ) ;
#213 = VERTEX_POINT ( 'NONE', #35 ) ;
#214 = DATE_TIME_ROLE ( 'creation_date' ) ;
#215 = LINE ( 'NONE', #201, #42 ) ;
#216 = DIRECTION ( 'NONE',  ( 0.000000000000000000, 0.000000000000000000, 1.000000000000000000 ) ) ;
#217 = LOCAL_TIME ( 14, 0, 6.000000000000000000, #100 ) ;
#218 = DATE_AND_TIME ( #211, #187 ) ;
#219 = CIRCLE ( 'NONE', #242, 2.100000000000000089 ) ;
#220 = ORIENTED_EDGE ( 'NONE', *, *, #129, .F. ) ;
#221 = EDGE_LOOP ( 'NONE', ( #76, #168, #135, #101 ) ) ;
#222 = CARTESIAN_POINT ( 'NONE',  ( 2.100000000000000089, 2.571758278209441957E-16, 1.587499999999999911 ) ) ;
#223 = DIRECTION ( 'NONE',  ( -0.000000000000000000, -0.000000000000000000, -1.000000000000000000 ) ) ;
#224 = AXIS2_PLACEMENT_3D ( 'NONE', #203, #50, #127 ) ;
#225 = DIRECTION ( 'NONE',  ( 0.000000000000000000, 0.000000000000000000, 1.000000000000000000 ) ) ;
#226 = CARTESIAN_POINT ( 'NONE',  ( -4.000000000000000000, 0.000000000000000000, -1.587499999999999911 ) ) ;
#227 = EDGE_CURVE ( 'NONE', #213, #141, #97, .T. ) ;
#228 = ORIENTED_EDGE ( 'NONE', *, *, #10, .T. ) ;
#229 = ORIENTED_EDGE ( 'NONE', *, *, #87, .F. ) ;
#230 = ADVANCED_FACE ( 'NONE', ( #204, #14 ), #112, .F. ) ;
#231 =( GEOMETRIC_REPRESENTATION_CONTEXT ( 3 ) GLOBAL_UNCERTAINTY_ASSIGNED_CONTEXT ( ( #249 ) ) GLOBAL_UNIT_ASSIGNED_CONTEXT ( ( #172, #206, #173 ) ) REPRESENTATION_CONTEXT ( 'NONE', 'WORKASPACE' ) );
#232 = DATE_AND_TIME ( #185, #84 ) ;
#233 = APPROVAL ( #62, 'UNSPECIFIED' ) ;
#234 = EDGE_LOOP ( 'NONE', ( #228, #180 ) ) ;
#235 = CARTESIAN_POINT ( 'NONE',  ( 0.000000000000000000, 0.000000000000000000, 1.587499999999999911 ) ) ;
#236 = VERTEX_POINT ( 'NONE', #74 ) ;
#237 = CARTESIAN_POINT ( 'NONE',  ( 0.000000000000000000, 0.000000000000000000, -1.587499999999999911 ) ) ;
#238 = EDGE_CURVE ( 'NONE', #236, #61, #161, .T. ) ;
#239 = CARTESIAN_POINT ( 'NONE',  ( -4.000000000000000000, 0.000000000000000000, 1.587499999999999911 ) ) ;
#240 = DIRECTION ( 'NONE',  ( 1.000000000000000000, 0.000000000000000000, -0.000000000000000000 ) ) ;
#241 = PERSON ( 'UNSPECIFIED', 'UNSPECIFIED', 'UNSPECIFIED', ('UNSPECIFIED'), ('UNSPECIFIED'), ('UNSPECIFIED') ) ;
#242 = AXIS2_PLACEMENT_3D ( 'NONE', #237, #105, #196 ) ;
#243 = PRODUCT ( '228-2500-114', '228-2500-114', '', ( #64 ) ) ;
#244 = ORIENTED_EDGE ( 'NONE', *, *, #238, .T. ) ;
#245 = AXIS2_PLACEMENT_3D ( 'NONE', #91, #123, #26 ) ;
#246 = FACE_OUTER_BOUND ( 'NONE', #183, .T. ) ;
#247 = DATE_AND_TIME ( #179, #217 ) ;
#248 = DATE_TIME_ROLE ( 'classification_date' ) ;
#249 = UNCERTAINTY_MEASURE_WITH_UNIT (LENGTH_MEASURE( 1.000000000000000082E-05 ), #172, 'distance_accuracy_value', 'NONE');
ENDSEC;
END-ISO-10303-21;
