ISO-10303-21;
HEADER;
FILE_DESCRIPTION (( 'STEP AP203' ),
    '1' );
FILE_NAME ('228-2500-109.step',
    '2022-06-06T18:59:17',
    ( '' ),
    ( '' ),
    'SwSTEP 2.0',
    'SolidWorks 2021',
    '' );
FILE_SCHEMA (( 'CONFIG_CONTROL_DESIGN' ));
ENDSEC;

DATA;
#1 = EDGE_LOOP ( 'NONE', ( #1020, #727, #187, #11 ) ) ;
#2 = CARTESIAN_POINT ( 'NONE',  ( -1.100570560400992548, -3.125000000000000000, 0.7064483885248421524 ) ) ;
#3 = ORIENTED_EDGE ( 'NONE', *, *, #937, .F. ) ;
#4 = B_SPLINE_CURVE_WITH_KNOTS ( 'NONE', 3,
 ( #524, #1212, #901, #326, #2, #449, #939, #142 ),
 .UNSPECIFIED., .F., .F.,
 ( 4, 2, 2, 4 ),
 ( 0.01702320309180243435, 0.01768942344446688616, 0.01835564379713133798, 0.01968808450246023814 ),
 .UNSPECIFIED. ) ;
#5 = DIRECTION ( 'NONE',  ( -1.000000000000000000, 0.000000000000000000, 0.000000000000000000 ) ) ;
#6 = ADVANCED_FACE ( 'NONE', ( #748 ), #1141, .F. ) ;
#7 = CARTESIAN_POINT ( 'NONE',  ( 0.000000000000000000, 0.000000000000000000, -5.460999999999998522 ) ) ;
#8 = ORIENTED_EDGE ( 'NONE', *, *, #447, .T. ) ;
#9 = LINE ( 'NONE', #405, #199 ) ;
#10 = AXIS2_PLACEMENT_3D ( 'NONE', #1067, #1266, #407 ) ;
#11 = ORIENTED_EDGE ( 'NONE', *, *, #507, .F. ) ;
#12 = CIRCLE ( 'NONE', #1235, 2.279484136000458516 ) ;
#13 = CARTESIAN_POINT ( 'NONE',  ( -4.000000000000000000, 4.898587196589412829E-16, -500000.0000000000582 ) ) ;
#14 = AXIS2_PLACEMENT_3D ( 'NONE', #554, #367, #168 ) ;
#15 = EDGE_CURVE ( 'NONE', #289, #947, #1028, .T. ) ;
#16 = DIRECTION ( 'NONE',  ( -0.000000000000000000, -0.000000000000000000, 1.000000000000000000 ) ) ;
#17 = ORIENTED_EDGE ( 'NONE', *, *, #1118, .F. ) ;
#18 = DIRECTION ( 'NONE',  ( -1.000000000000000000, 0.000000000000000000, 0.000000000000000000 ) ) ;
#19 = ORIENTED_EDGE ( 'NONE', *, *, #993, .F. ) ;
#20 = CARTESIAN_POINT ( 'NONE',  ( -0.4000000000000010214, 2.244114062671002774, 5.586213595499954110 ) ) ;
#21 = AXIS2_PLACEMENT_3D ( 'NONE', #935, #51, #71 ) ;
#22 =( BOUNDED_CURVE ( )  B_SPLINE_CURVE ( 3, ( #446, #560, #1039, #1257 ),
 .UNSPECIFIED., .F., .F. ) 
 B_SPLINE_CURVE_WITH_KNOTS ( ( 4, 4 ),
 ( 4.362112093716119077, 4.472917508490046323 ),
 .UNSPECIFIED. ) 
 CURVE ( )  GEOMETRIC_REPRESENTATION_ITEM ( )  RATIONAL_B_SPLINE_CURVE ( ( 1.000000000000000000, 0.9989771083553060649, 0.9989771083553060649, 1.000000000000000000 ) ) 
 REPRESENTATION_ITEM ( '' )  );
#23 = CARTESIAN_POINT ( 'NONE',  ( 2.496873044429773092, 3.124999999999998668, -500000.0000000000582 ) ) ;
#24 = B_SPLINE_CURVE_WITH_KNOTS ( 'NONE', 3,
 ( #609, #225, #627, #64, #948, #1127 ),
 .UNSPECIFIED., .F., .F.,
 ( 4, 2, 4 ),
 ( 0.000000000000000000, 0.0005075899518848834375, 0.001015179903769766875 ),
 .UNSPECIFIED. ) ;
#25 = EDGE_CURVE ( 'NONE', #922, #1229, #347, .T. ) ;
#26 = VERTEX_POINT ( 'NONE', #441 ) ;
#27 = CARTESIAN_POINT ( 'NONE',  ( 1.731653161245898742, -3.124999999999999556, 0.4623320149147174818 ) ) ;
#28 = ORIENTED_EDGE ( 'NONE', *, *, #1019, .T. ) ;
#29 = DIRECTION ( 'NONE',  ( -0.000000000000000000, -0.000000000000000000, 1.000000000000000000 ) ) ;
#30 = ORIENTED_EDGE ( 'NONE', *, *, #1228, .F. ) ;
#31 = DIRECTION ( 'NONE',  ( 8.115498896123167176E-15, 0.000000000000000000, 1.000000000000000000 ) ) ;
#32 = EDGE_CURVE ( 'NONE', #618, #717, #1177, .T. ) ;
#33 = CONICAL_SURFACE ( 'NONE', #755, 3.124999999966571185, 0.7853981634121329769 ) ;
#34 = EDGE_LOOP ( 'NONE', ( #1099, #129, #818, #704 ) ) ;
#35 = DIRECTION ( 'NONE',  ( 0.000000000000000000, 0.000000000000000000, 1.000000000000000000 ) ) ;
#36 = VERTEX_POINT ( 'NONE', #375 ) ;
#37 = CARTESIAN_POINT ( 'NONE',  ( 0.4980973490458749930, -3.174999999999999822, 2.595422128626172054 ) ) ;
#38 = EDGE_LOOP ( 'NONE', ( #253, #448, #925, #757, #1255, #462, #833, #231, #215, #152, #734, #530 ) ) ;
#39 = CARTESIAN_POINT ( 'NONE',  ( -0.4000000000000010214, -2.190295370993047719, 5.749280358628697130 ) ) ;
#40 = ADVANCED_FACE ( 'NONE', ( #687 ), #468, .T. ) ;
#41 = COORDINATED_UNIVERSAL_TIME_OFFSET ( 6, 0, .BEHIND. ) ;
#42 = ORIENTED_EDGE ( 'NONE', *, *, #993, .T. ) ;
#43 = ORIENTED_EDGE ( 'NONE', *, *, #1057, .F. ) ;
#44 = CARTESIAN_POINT ( 'NONE',  ( 0.000000000000000000, 0.000000000000000000, -0.8889999999999991243 ) ) ;
#45 = CARTESIAN_POINT ( 'NONE',  ( -2.496873044429773536, 3.124999999999999556, 0.01399999996465368240 ) ) ;
#46 = ADVANCED_FACE ( 'NONE', ( #564 ), #286, .F. ) ;
#47 = AXIS2_PLACEMENT_3D ( 'NONE', #1038, #154, #553 ) ;
#48 = ORIENTED_EDGE ( 'NONE', *, *, #239, .F. ) ;
#49 = PLANE ( 'NONE',  #982 ) ;
#50 = VERTEX_POINT ( 'NONE', #575 ) ;
#51 = DIRECTION ( 'NONE',  ( 0.000000000000000000, 0.000000000000000000, -1.000000000000000000 ) ) ;
#52 = CARTESIAN_POINT ( 'NONE',  ( 0.000000000000000000, 0.000000000000000000, -0.8889999999999991243 ) ) ;
#53 = APPLICATION_PROTOCOL_DEFINITION ( 'international standard', 'config_control_design', 1994, #891 ) ;
#54 = ORIENTED_EDGE ( 'NONE', *, *, #32, .F. ) ;
#55 = DIRECTION ( 'NONE',  ( -1.000000000000000000, 0.000000000000000000, 9.756599977372368637E-16 ) ) ;
#56 = VERTEX_POINT ( 'NONE', #1254 ) ;
#57 = CARTESIAN_POINT ( 'NONE',  ( 0.000000000000000000, 3.124999999999999556, 0.000000000000000000 ) ) ;
#58 = CIRCLE ( 'NONE', #761, 3.124999999938954609 ) ;
#59 = DIRECTION ( 'NONE',  ( 1.000000000000000000, 0.000000000000000000, 9.756599977372358777E-16 ) ) ;
#60 = EDGE_LOOP ( 'NONE', ( #246, #961, #147, #179 ) ) ;
#61 = CARTESIAN_POINT ( 'NONE',  ( 0.4000000000000010214, -2.190314098834288181, 5.749223614617237743 ) ) ;
#62 = ADVANCED_FACE ( 'NONE', ( #275 ), #670, .F. ) ;
#63 = ORIENTED_EDGE ( 'NONE', *, *, #1267, .F. ) ;
#64 = CARTESIAN_POINT ( 'NONE',  ( -0.4000000000000010214, 1.805457092722226209, 6.086801903958011017 ) ) ;
#65 = EDGE_CURVE ( 'NONE', #307, #132, #58, .T. ) ;
#66 = PLANE ( 'NONE',  #202 ) ;
#67 = APPROVAL_STATUS ( 'not_yet_approved' ) ;
#68 = DIRECTION ( 'NONE',  ( 0.000000000000000000, 0.000000000000000000, -1.000000000000000000 ) ) ;
#69 = EDGE_CURVE ( 'NONE', #913, #166, #974, .T. ) ;
#70 = ORIENTED_EDGE ( 'NONE', *, *, #701, .F. ) ;
#71 = DIRECTION ( 'NONE',  ( -1.000000000000000000, 0.000000000000000000, 0.000000000000000000 ) ) ;
#72 = DIRECTION ( 'NONE',  ( -0.000000000000000000, 1.000000000000000000, -0.000000000000000000 ) ) ;
#73 = AXIS2_PLACEMENT_3D ( 'NONE', #117, #887, #518 ) ;
#74 = AXIS2_PLACEMENT_3D ( 'NONE', #361, #272, #255 ) ;
#75 = CARTESIAN_POINT ( 'NONE',  ( 0.4000000000000010214, -3.174999999999999822, 5.139000000000001123 ) ) ;
#76 = DIRECTION ( 'NONE',  ( 1.000000000000000000, 0.000000000000000000, 0.000000000000000000 ) ) ;
#77 = ORIENTED_EDGE ( 'NONE', *, *, #127, .T. ) ;
#78 = CARTESIAN_POINT ( 'NONE',  ( 0.4871798639138845699, -2.042738866564660416, 2.470634702552896300 ) ) ;
#79 = CARTESIAN_POINT ( 'NONE',  ( -2.299999999999999822, 0.000000000000000000, 5.523072258617638397 ) ) ;
#80 = EDGE_CURVE ( 'NONE', #535, #108, #762, .T. ) ;
#81 = AXIS2_PLACEMENT_3D ( 'NONE', #732, #1125, #1128 ) ;
#82 = COORDINATED_UNIVERSAL_TIME_OFFSET ( 6, 0, .BEHIND. ) ;
#83 = FACE_OUTER_BOUND ( 'NONE', #710, .T. ) ;
#84 = DIRECTION ( 'NONE',  ( 1.000000000000000000, 0.000000000000000000, 0.000000000000000000 ) ) ;
#85 = VERTEX_POINT ( 'NONE', #951 ) ;
#86 = CARTESIAN_POINT ( 'NONE',  ( 0.000000000000000000, 0.000000000000000000, 5.139000000000004675 ) ) ;
#87 = ORGANIZATION ( 'UNSPECIFIED', 'UNSPECIFIED', '' ) ;
#88 = CARTESIAN_POINT ( 'NONE',  ( 0.000000000000000000, 0.000000000000000000, 5.523072258617638397 ) ) ;
#89 = ADVANCED_FACE ( 'NONE', ( #1049 ), #170, .F. ) ;
#90 = CYLINDRICAL_SURFACE ( 'NONE', #621, 2.100000000000000533 ) ;
#91 = ORIENTED_EDGE ( 'NONE', *, *, #181, .T. ) ;
#92 = CARTESIAN_POINT ( 'NONE',  ( 2.496873044429771760, -3.125000000000000444, 0.01399999996465350373 ) ) ;
#93 = CARTESIAN_POINT ( 'NONE',  ( 2.500000000000000888, -3.122498998808622694, -0.8889999999999991243 ) ) ;
#94 = DATE_AND_TIME ( #294, #542 ) ;
#95 = CARTESIAN_POINT ( 'NONE',  ( 2.100000000000000533, 2.571758278209442943E-16, -0.8889999999999991243 ) ) ;
#96 = EDGE_CURVE ( 'NONE', #339, #243, #1156, .T. ) ;
#97 = EDGE_LOOP ( 'NONE', ( #249, #3, #1151, #122, #203 ) ) ;
#98 = CARTESIAN_POINT ( 'NONE',  ( 0.000000000000000000, 0.000000000000000000, 0.8890000000000009006 ) ) ;
#99 = CIRCLE ( 'NONE', #14, 2.100000000000000089 ) ;
#100 = CARTESIAN_POINT ( 'NONE',  ( -2.500000000487829777, 3.122498998808622694, -500000.0000000000582 ) ) ;
#101 = B_SPLINE_CURVE_WITH_KNOTS ( 'NONE', 3,
 ( #130, #624, #27, #308, #529, #427, #918, #711 ),
 .UNSPECIFIED., .F., .F.,
 ( 4, 2, 2, 4 ),
 ( 0.01435775990953334739, 0.01569048150066789174, 0.01635684229623516131, 0.01702320309180243435 ),
 .UNSPECIFIED. ) ;
#102 = DIRECTION ( 'NONE',  ( -1.000000000000000000, 0.000000000000000000, 0.000000000000000000 ) ) ;
#103 = B_SPLINE_CURVE_WITH_KNOTS ( 'NONE', 3,
 ( #1209, #232, #633, #1109, #39, #237 ),
 .UNSPECIFIED., .F., .F.,
 ( 4, 2, 4 ),
 ( 0.000000000000000000, 0.0005076236618905673268, 0.001015247323781134003 ),
 .UNSPECIFIED. ) ;
#104 = AXIS2_PLACEMENT_3D ( 'NONE', #819, #422, #1008 ) ;
#105 = ORIENTED_EDGE ( 'NONE', *, *, #1190, .F. ) ;
#106 = CARTESIAN_POINT ( 'NONE',  ( 2.100000000000000089, 0.000000000000000000, 5.438999999999999169 ) ) ;
#107 = ADVANCED_FACE ( 'NONE', ( #83 ), #90, .F. ) ;
#108 = VERTEX_POINT ( 'NONE', #382 ) ;
#109 = CARTESIAN_POINT ( 'NONE',  ( 2.496873044429772204, -3.124999999999999556, -500000.0000000000582 ) ) ;
#110 = CARTESIAN_POINT ( 'NONE',  ( 0.4000000000000010214, 2.061552812808831181, 5.139000000000001123 ) ) ;
#111 = ORIENTED_EDGE ( 'NONE', *, *, #267, .F. ) ;
#112 = CARTESIAN_POINT ( 'NONE',  ( 3.999999999999999112, 0.000000000000000000, -5.460999999999998522 ) ) ;
#113 = EDGE_LOOP ( 'NONE', ( #264, #210, #707, #1138 ) ) ;
#114 = FACE_OUTER_BOUND ( 'NONE', #430, .T. ) ;
#115 = CARTESIAN_POINT ( 'NONE',  ( 0.7206315775864675643, -3.174999999999999822, 5.138999999999997570 ) ) ;
#116 = ORIENTED_EDGE ( 'NONE', *, *, #507, .T. ) ;
#117 = CARTESIAN_POINT ( 'NONE',  ( 0.000000000000000000, 0.000000000000000000, 5.523072258617638397 ) ) ;
#118 = ORIENTED_EDGE ( 'NONE', *, *, #293, .F. ) ;
#119 = CARTESIAN_POINT ( 'NONE',  ( -0.4000000000000010214, 2.264950330581225302, 5.523072258617638397 ) ) ;
#120 = EDGE_CURVE ( 'NONE', #737, #947, #570, .T. ) ;
#121 = LINE ( 'NONE', #785, #1113 ) ;
#122 = ORIENTED_EDGE ( 'NONE', *, *, #541, .F. ) ;
#123 = DIRECTION ( 'NONE',  ( 0.000000000000000000, 0.000000000000000000, -1.000000000000000000 ) ) ;
#124 = ORIENTED_EDGE ( 'NONE', *, *, #775, .F. ) ;
#125 = CARTESIAN_POINT ( 'NONE',  ( 0.4000000000000010214, 1.465013371386852947, 6.138999999999998458 ) ) ;
#126 = LOCAL_TIME ( 13, 59, 17.00000000000000000, #41 ) ;
#127 = EDGE_CURVE ( 'NONE', #1239, #903, #401, .T. ) ;
#128 = CARTESIAN_POINT ( 'NONE',  ( 0.4980973490458749930, 2.040073290564206943, 2.595422128626172054 ) ) ;
#129 = ORIENTED_EDGE ( 'NONE', *, *, #555, .F. ) ;
#130 = CARTESIAN_POINT ( 'NONE',  ( 2.496873044429771760, -3.125000000000000444, 0.01399999996465350373 ) ) ;
#131 = DESIGN_CONTEXT ( 'detailed design', #891, 'design' ) ;
#132 = VERTEX_POINT ( 'NONE', #773 ) ;
#133 = CARTESIAN_POINT ( 'NONE',  ( 0.4000000000000012434, 1.804720025119730398, 6.086959004245602323 ) ) ;
#134 = CIRCLE ( 'NONE', #1187, 2.100000000000000089 ) ;
#135 = ADVANCED_FACE ( 'NONE', ( #1247 ), #980, .T. ) ;
#136 = EDGE_LOOP ( 'NONE', ( #1026, #636, #28, #1231, #319, #314, #525, #917, #19, #124, #639, #794 ) ) ;
#137 = DIRECTION ( 'NONE',  ( -1.000000000000000000, 0.000000000000000000, 0.000000000000000000 ) ) ;
#138 = EDGE_CURVE ( 'NONE', #132, #252, #1259, .T. ) ;
#139 = ORIENTED_EDGE ( 'NONE', *, *, #1223, .F. ) ;
#140 = CARTESIAN_POINT ( 'NONE',  ( 0.4000000000000010214, 1.636596142952232213, 6.138999999999998458 ) ) ;
#141 = CARTESIAN_POINT ( 'NONE',  ( -2.100000000000000533, 0.000000000000000000, -0.8889999999999991243 ) ) ;
#142 = CARTESIAN_POINT ( 'NONE',  ( -2.496873044429772648, -3.125000000000000444, 0.01399999996465363904 ) ) ;
#143 = AXIS2_PLACEMENT_3D ( 'NONE', #862, #1178, #262 ) ;
#144 = EDGE_CURVE ( 'NONE', #412, #145, #584, .T. ) ;
#145 = VERTEX_POINT ( 'NONE', #849 ) ;
#146 = CARTESIAN_POINT ( 'NONE',  ( 0.4000000000000010214, 1.465013371386852947, 6.138999999999998458 ) ) ;
#147 = ORIENTED_EDGE ( 'NONE', *, *, #966, .T. ) ;
#148 = ORIENTED_EDGE ( 'NONE', *, *, #515, .F. ) ;
#149 = DIRECTION ( 'NONE',  ( 0.000000000000000000, 0.000000000000000000, 1.000000000000000000 ) ) ;
#150 = EDGE_CURVE ( 'NONE', #157, #1208, #804, .T. ) ;
#151 = CARTESIAN_POINT ( 'NONE',  ( 0.6477403412507657388, 1.999113491775012852, 4.305849356269923156 ) ) ;
#152 = ORIENTED_EDGE ( 'NONE', *, *, #534, .F. ) ;
#153 = ORIENTED_EDGE ( 'NONE', *, *, #239, .T. ) ;
#154 = DIRECTION ( 'NONE',  ( 0.000000000000000000, 0.000000000000000000, 1.000000000000000000 ) ) ;
#155 = CARTESIAN_POINT ( 'NONE',  ( 0.4000000000000010769, 2.251060372992385261, 5.565166775064911420 ) ) ;
#156 = ADVANCED_FACE ( 'NONE', ( #312 ), #1154, .T. ) ;
#157 = VERTEX_POINT ( 'NONE', #1004 ) ;
#158 = CIRCLE ( 'NONE', #1233, 2.299999999999999822 ) ;
#159 = ORIENTED_EDGE ( 'NONE', *, *, #349, .F. ) ;
#160 = CARTESIAN_POINT ( 'NONE',  ( -0.4000000000000010214, -2.129368206736822700, 5.466985055880803301 ) ) ;
#161 = CARTESIAN_POINT ( 'NONE',  ( 0.4980973490458749930, 2.040073290564206943, 2.595422128626172054 ) ) ;
#162 = AXIS2_PLACEMENT_3D ( 'NONE', #831, #220, #434 ) ;
#163 = EDGE_CURVE ( 'NONE', #533, #770, #371, .T. ) ;
#164 = CARTESIAN_POINT ( 'NONE',  ( 0.000000000000000000, 0.000000000000000000, -0.8889999999999991243 ) ) ;
#165 = CARTESIAN_POINT ( 'NONE',  ( 0.2247089984053946832, 3.124999999999999556, 0.8889999999384002871 ) ) ;
#166 = VERTEX_POINT ( 'NONE', #110 ) ;
#167 = DIRECTION ( 'NONE',  ( -1.000000000000000000, 0.000000000000000000, 0.000000000000000000 ) ) ;
#168 = DIRECTION ( 'NONE',  ( -1.000000000000000000, 0.000000000000000000, 0.000000000000000000 ) ) ;
#169 = CALENDAR_DATE ( 2022, 6, 6 ) ;
#170 = PLANE ( 'NONE',  #1114 ) ;
#171 = ORIENTED_EDGE ( 'NONE', *, *, #417, .F. ) ;
#172 = CARTESIAN_POINT ( 'NONE',  ( 0.7206315775864675643, 1.972483239316684234, 5.138999999999997570 ) ) ;
#173 = EDGE_CURVE ( 'NONE', #414, #327, #121, .T. ) ;
#174 = CARTESIAN_POINT ( 'NONE',  ( -0.7206315775864675643, -3.174999999999999822, 5.138999999999997570 ) ) ;
#175 = APPROVAL_STATUS ( 'not_yet_approved' ) ;
#176 = AXIS2_PLACEMENT_3D ( 'NONE', #772, #509, #1167 ) ;
#177 = DIRECTION ( 'NONE',  ( -0.000000000000000000, -0.000000000000000000, 1.000000000000000000 ) ) ;
#178 = DIRECTION ( 'NONE',  ( 1.000000000000000000, 0.000000000000000000, 0.000000000000000000 ) ) ;
#179 = ORIENTED_EDGE ( 'NONE', *, *, #851, .T. ) ;
#180 = CARTESIAN_POINT ( 'NONE',  ( -0.1233449203368013197, -2.100009524403047223, 2.138959997505216926 ) ) ;
#181 = EDGE_CURVE ( 'NONE', #166, #451, #510, .T. ) ;
#182 = FACE_BOUND ( 'NONE', #363, .T. ) ;
#183 = AXIS2_PLACEMENT_3D ( 'NONE', #885, #418, #324 ) ;
#184 = CALENDAR_DATE ( 2022, 6, 6 ) ;
#185 = VECTOR ( 'NONE', #526, 1000.000000000000000 ) ;
#186 = DIRECTION ( 'NONE',  ( -1.000000000000000000, 0.000000000000000000, 0.000000000000000000 ) ) ;
#187 = ORIENTED_EDGE ( 'NONE', *, *, #674, .F. ) ;
#188 = DIRECTION ( 'NONE',  ( 1.000000000000000000, 1.791455872535152594E-12, 1.734723475976807094E-16 ) ) ;
#189 = AXIS2_PLACEMENT_3D ( 'NONE', #1171, #1063, #178 ) ;
#190 = DIRECTION ( 'NONE',  ( 1.000000000000000000, 0.000000000000000000, 0.000000000000000000 ) ) ;
#191 = APPROVAL_DATE_TIME ( #669, #1048 ) ;
#192 = DIRECTION ( 'NONE',  ( -1.000000000000000000, 0.000000000000000000, 0.000000000000000000 ) ) ;
#193 = CARTESIAN_POINT ( 'NONE',  ( 0.4000000000000010214, -2.264950330581225746, 5.523072258617638397 ) ) ;
#194 = AXIS2_PLACEMENT_3D ( 'NONE', #1256, #989, #698 ) ;
#195 = ORIENTED_EDGE ( 'NONE', *, *, #928, .F. ) ;
#196 = LINE ( 'NONE', #385, #592 ) ;
#197 = DIRECTION ( 'NONE',  ( -0.9961946980917461003, 0.000000000000000000, -0.08715574274765176821 ) ) ;
#198 = B_SPLINE_CURVE_WITH_KNOTS ( 'NONE', 3,
 ( #702, #615, #1091, #424 ),
 .UNSPECIFIED., .F., .F.,
 ( 4, 4 ),
 ( 0.003692359630608450533, 0.003758849537120531516 ),
 .UNSPECIFIED. ) ;
#199 = VECTOR ( 'NONE', #431, 1000.000000000000000 ) ;
#200 = EDGE_CURVE ( 'NONE', #1030, #1192, #968, .T. ) ;
#201 = CARTESIAN_POINT ( 'NONE',  ( -2.117187479602840927, 3.125000000000000444, 0.2510066630015600486 ) ) ;
#202 = AXIS2_PLACEMENT_3D ( 'NONE', #843, #543, #655 ) ;
#203 = ORIENTED_EDGE ( 'NONE', *, *, #809, .F. ) ;
#204 = LINE ( 'NONE', #106, #694 ) ;
#205 = DIRECTION ( 'NONE',  ( 0.000000000000000000, 0.000000000000000000, 1.000000000000000000 ) ) ;
#206 = AXIS2_PLACEMENT_3D ( 'NONE', #878, #1282, #227 ) ;
#207 = CARTESIAN_POINT ( 'NONE',  ( 0.000000000000000000, 0.000000000000000000, 0.8889999999723841029 ) ) ;
#208 = CC_DESIGN_DATE_AND_TIME_ASSIGNMENT ( #94, #790, ( #563 ) ) ;
#209 = CIRCLE ( 'NONE', #539, 2.100000000000000533 ) ;
#210 = ORIENTED_EDGE ( 'NONE', *, *, #924, .T. ) ;
#211 = FACE_OUTER_BOUND ( 'NONE', #797, .T. ) ;
#212 = ORIENTED_EDGE ( 'NONE', *, *, #809, .T. ) ;
#213 = PLANE ( 'NONE',  #1051 ) ;
#214 = CARTESIAN_POINT ( 'NONE',  ( 0.000000000000000000, -3.125000000000000444, 0.8890000000000009006 ) ) ;
#215 = ORIENTED_EDGE ( 'NONE', *, *, #1236, .T. ) ;
#216 = DIRECTION ( 'NONE',  ( -1.000000000000000000, 0.000000000000000000, 0.000000000000000000 ) ) ;
#217 = VECTOR ( 'NONE', #858, 1000.000000000000000 ) ;
#218 = EDGE_CURVE ( 'NONE', #484, #523, #537, .T. ) ;
#219 = ORIENTED_EDGE ( 'NONE', *, *, #447, .F. ) ;
#220 = DIRECTION ( 'NONE',  ( 1.734723475976807094E-16, -0.000000000000000000, -1.000000000000000000 ) ) ;
#221 = FACE_OUTER_BOUND ( 'NONE', #1111, .T. ) ;
#222 = EDGE_LOOP ( 'NONE', ( #1165, #369 ) ) ;
#223 = CARTESIAN_POINT ( 'NONE',  ( 0.000000000000000000, 0.000000000000000000, -5.460999999999998522 ) ) ;
#224 = ORIENTED_EDGE ( 'NONE', *, *, #638, .F. ) ;
#225 = CARTESIAN_POINT ( 'NONE',  ( -0.4000000000000010214, 2.190314098834288181, 5.749223614617238631 ) ) ;
#226 = EDGE_CURVE ( 'NONE', #327, #307, #495, .T. ) ;
#227 = DIRECTION ( 'NONE',  ( 1.000000000000000000, 1.776356839400250465E-15, 0.000000000000000000 ) ) ;
#228 = AXIS2_PLACEMENT_3D ( 'NONE', #986, #898, #1012 ) ;
#229 = ORIENTED_EDGE ( 'NONE', *, *, #591, .F. ) ;
#230 = FACE_OUTER_BOUND ( 'NONE', #34, .T. ) ;
#231 = ORIENTED_EDGE ( 'NONE', *, *, #979, .T. ) ;
#232 = CARTESIAN_POINT ( 'NONE',  ( -0.4000000000000010214, -1.636596142952231991, 6.138999999999999346 ) ) ;
#233 = ADVANCED_FACE ( 'NONE', ( #1098 ), #744, .T. ) ;
#234 = ORIENTED_EDGE ( 'NONE', *, *, #150, .T. ) ;
#235 = DIRECTION ( 'NONE',  ( 0.000000000000000000, 0.000000000000000000, 1.000000000000000000 ) ) ;
#236 = ORIENTED_EDGE ( 'NONE', *, *, #882, .F. ) ;
#237 = CARTESIAN_POINT ( 'NONE',  ( -0.4000000000000010214, -2.244114062671030752, 5.586213595499871509 ) ) ;
#238 = VECTOR ( 'NONE', #284, 1000.000000000000000 ) ;
#239 = EDGE_CURVE ( 'NONE', #298, #1013, #622, .T. ) ;
#240 = ORIENTED_EDGE ( 'NONE', *, *, #25, .F. ) ;
#241 = CARTESIAN_POINT ( 'NONE',  ( -0.4000000000000010214, 2.197165961088450192, 5.495012551953919022 ) ) ;
#242 = VECTOR ( 'NONE', #716, 1000.000000000000000 ) ;
#243 = VERTEX_POINT ( 'NONE', #814 ) ;
#244 = DIRECTION ( 'NONE',  ( 1.000000000000000000, 0.000000000000000000, 0.000000000000000000 ) ) ;
#245 = B_SPLINE_CURVE_WITH_KNOTS ( 'NONE', 3,
 ( #854, #155, #345, #1035 ),
 .UNSPECIFIED., .F., .F.,
 ( 4, 4 ),
 ( 0.003692359630608450533, 0.003758849537120531516 ),
 .UNSPECIFIED. ) ;
#246 = ORIENTED_EDGE ( 'NONE', *, *, #96, .T. ) ;
#247 = CARTESIAN_POINT ( 'NONE',  ( 0.4000000000000010214, -2.244114062671002330, 5.586213595499954110 ) ) ;
#248 = AXIS2_PLACEMENT_3D ( 'NONE', #207, #808, #102 ) ;
#249 = ORIENTED_EDGE ( 'NONE', *, *, #1250, .F. ) ;
#250 = CARTESIAN_POINT ( 'NONE',  ( -0.4000000000000010214, -2.197165962000668937, 5.495012552331536959 ) ) ;
#251 = DIRECTION ( 'NONE',  ( -0.000000000000000000, -0.000000000000000000, -1.000000000000000000 ) ) ;
#252 = VERTEX_POINT ( 'NONE', #214 ) ;
#253 = ORIENTED_EDGE ( 'NONE', *, *, #760, .F. ) ;
#254 = CARTESIAN_POINT ( 'NONE',  ( -0.4000000000000010214, -2.264950330581225746, 5.523072258617638397 ) ) ;
#255 = DIRECTION ( 'NONE',  ( -1.000000000000000000, 0.000000000000000000, -0.000000000000000000 ) ) ;
#256 = DIRECTION ( 'NONE',  ( -8.115498896123205041E-15, 0.000000000000000000, 1.000000000000000000 ) ) ;
#257 = CARTESIAN_POINT ( 'NONE',  ( 0.000000000000000000, 0.000000000000000000, 5.139000000000004675 ) ) ;
#258 = ORIENTED_EDGE ( 'NONE', *, *, #695, .F. ) ;
#259 = CARTESIAN_POINT ( 'NONE',  ( 0.4000000000000010769, -2.197165961088450192, 5.495012551953919022 ) ) ;
#260 = CARTESIAN_POINT ( 'NONE',  ( 0.4000000000000010214, -2.061552812808830293, 5.438999999999999169 ) ) ;
#261 = EDGE_CURVE ( 'NONE', #1200, #895, #996, .T. ) ;
#262 = DIRECTION ( 'NONE',  ( 1.000000000000000000, 0.000000000000000000, -0.000000000000000000 ) ) ;
#263 = CARTESIAN_POINT ( 'NONE',  ( 0.4000000000000010214, -1.465013371386852947, 6.138999999999998458 ) ) ;
#264 = ORIENTED_EDGE ( 'NONE', *, *, #789, .T. ) ;
#265 = CARTESIAN_POINT ( 'NONE',  ( 2.500000000000000000, -4.000000000000000000, 1.734723475976807094E-15 ) ) ;
#266 = DIRECTION ( 'NONE',  ( 1.000000000000000000, 0.000000000000000000, 0.000000000000000000 ) ) ;
#267 = EDGE_CURVE ( 'NONE', #36, #587, #844, .T. ) ;
#268 = CARTESIAN_POINT ( 'NONE',  ( 0.000000000000000000, -3.174999999999999822, 2.638999999999998902 ) ) ;
#269 = CARTESIAN_POINT ( 'NONE',  ( 0.000000000000000000, 0.000000000000000000, 5.339000000000000412 ) ) ;
#270 = ORIENTED_EDGE ( 'NONE', *, *, #1082, .F. ) ;
#271 = CARTESIAN_POINT ( 'NONE',  ( -0.4000000000000010214, 1.465013371386852947, 6.138999999999998458 ) ) ;
#272 = DIRECTION ( 'NONE',  ( 0.000000000000000000, 0.000000000000000000, -1.000000000000000000 ) ) ;
#273 = SECURITY_CLASSIFICATION_LEVEL ( 'unclassified' ) ;
#274 = CONICAL_SURFACE ( 'NONE', #445, 2.100000000000000089, 1.172861257340199304 ) ;
#275 = FACE_OUTER_BOUND ( 'NONE', #649, .T. ) ;
#276 = CARTESIAN_POINT ( 'NONE',  ( 1.731653161245900074, 3.124999999999999556, 0.4623320149147178149 ) ) ;
#277 = ADVANCED_FACE ( 'NONE', ( #1191 ), #714, .F. ) ;
#278 = LINE ( 'NONE', #976, #916 ) ;
#279 = CARTESIAN_POINT ( 'NONE',  ( 0.000000000000000000, 0.000000000000000000, 5.523072258617638397 ) ) ;
#280 = CARTESIAN_POINT ( 'NONE',  ( 0.000000000000000000, 0.000000000000000000, -500000.0000000000582 ) ) ;
#281 = CARTESIAN_POINT ( 'NONE',  ( 2.120702870165219522, 3.125000000000000000, 0.2488122920176606412 ) ) ;
#282 = PRODUCT_DEFINITION ( 'UNKNOWN', '', #585, #131 ) ;
#283 = ORIENTED_EDGE ( 'NONE', *, *, #731, .T. ) ;
#284 = DIRECTION ( 'NONE',  ( -0.000000000000000000, -0.000000000000000000, -1.000000000000000000 ) ) ;
#285 = PLANE ( 'NONE',  #740 ) ;
#286 = PLANE ( 'NONE',  #332 ) ;
#287 = DIRECTION ( 'NONE',  ( 0.000000000000000000, 0.000000000000000000, 1.000000000000000000 ) ) ;
#288 = AXIS2_PLACEMENT_3D ( 'NONE', #1269, #952, #84 ) ;
#289 = VERTEX_POINT ( 'NONE', #1210 ) ;
#290 = CARTESIAN_POINT ( 'NONE',  ( -0.4871800118523808565, -2.042738830444500220, 2.470636393497687155 ) ) ;
#291 = FACE_OUTER_BOUND ( 'NONE', #38, .T. ) ;
#292 = CIRCLE ( 'NONE', #1168, 1.518638922964334226 ) ;
#293 = EDGE_CURVE ( 'NONE', #646, #715, #198, .T. ) ;
#294 = CALENDAR_DATE ( 2022, 6, 6 ) ;
#295 = ADVANCED_FACE ( 'NONE', ( #221 ), #908, .F. ) ;
#296 = CARTESIAN_POINT ( 'NONE',  ( 0.000000000000000000, 0.000000000000000000, 0.000000000000000000 ) ) ;
#297 = AXIS2_PLACEMENT_3D ( 'NONE', #98, #397, #787 ) ;
#298 = VERTEX_POINT ( 'NONE', #793 ) ;
#299 = LINE ( 'NONE', #1086, #752 ) ;
#300 = CARTESIAN_POINT ( 'NONE',  ( -0.6477403412507650726, 1.999113491775012852, 4.305849356269930261 ) ) ;
#301 = COORDINATED_UNIVERSAL_TIME_OFFSET ( 6, 0, .BEHIND. ) ;
#302 = EDGE_CURVE ( 'NONE', #1200, #1226, #22, .T. ) ;
#303 = AXIS2_PLACEMENT_3D ( 'NONE', #223, #1018, #137 ) ;
#304 = ADVANCED_BREP_SHAPE_REPRESENTATION ( '228-2500-109', ( #680, #686 ), #1136 ) ;
#305 = ADVANCED_FACE ( 'NONE', ( #1153 ), #949, .F. ) ;
#306 = CARTESIAN_POINT ( 'NONE',  ( 0.4000000000000010214, 2.061552812808830737, 5.438999999999999169 ) ) ;
#307 = VERTEX_POINT ( 'NONE', #1241 ) ;
#308 = CARTESIAN_POINT ( 'NONE',  ( 1.101805125138282326, -3.125000000000000444, 0.7061118541553046413 ) ) ;
#309 = VERTEX_POINT ( 'NONE', #260 ) ;
#310 = CARTESIAN_POINT ( 'NONE',  ( 0.000000000000000000, 0.000000000000000000, 5.438999999999999169 ) ) ;
#311 = VECTOR ( 'NONE', #482, 1000.000000000000000 ) ;
#312 = FACE_OUTER_BOUND ( 'NONE', #97, .T. ) ;
#313 = EDGE_CURVE ( 'NONE', #523, #243, #1160, .T. ) ;
#314 = ORIENTED_EDGE ( 'NONE', *, *, #150, .F. ) ;
#315 = DIRECTION ( 'NONE',  ( 1.000000000000000000, 0.000000000000000000, 0.000000000000000000 ) ) ;
#316 = ORIENTED_EDGE ( 'NONE', *, *, #534, .T. ) ;
#317 = DIRECTION ( 'NONE',  ( -1.000000000000000000, 0.000000000000000000, 0.000000000000000000 ) ) ;
#318 = CARTESIAN_POINT ( 'NONE',  ( -0.4461219378392287105, 3.125000000000000444, 0.8645727323579411872 ) ) ;
#319 = ORIENTED_EDGE ( 'NONE', *, *, #566, .F. ) ;
#320 = DIRECTION ( 'NONE',  ( -0.000000000000000000, -0.000000000000000000, -1.000000000000000000 ) ) ;
#321 = ADVANCED_FACE ( 'NONE', ( #372 ), #66, .T. ) ;
#322 = ORIENTED_EDGE ( 'NONE', *, *, #144, .F. ) ;
#323 = CARTESIAN_POINT ( 'NONE',  ( -0.4000000000000010214, -2.061552812808830293, 5.438999999999999169 ) ) ;
#324 = DIRECTION ( 'NONE',  ( -1.000000000000000000, 0.000000000000000000, 0.000000000000000000 ) ) ;
#325 = VERTEX_POINT ( 'NONE', #765 ) ;
#326 = CARTESIAN_POINT ( 'NONE',  ( -0.8835170818150458460, -3.124999999999999556, 0.7735571653555533000 ) ) ;
#327 = VERTEX_POINT ( 'NONE', #45 ) ;
#328 = AXIS2_PLACEMENT_3D ( 'NONE', #52, #1140, #1251 ) ;
#329 = CARTESIAN_POINT ( 'NONE',  ( -0.4000000000000010214, -2.244114062671030752, 5.586213595499871509 ) ) ;
#330 = AXIS2_PLACEMENT_3D ( 'NONE', #88, #877, #5 ) ;
#331 = EDGE_CURVE ( 'NONE', #404, #26, #1123, .T. ) ;
#332 = AXIS2_PLACEMENT_3D ( 'NONE', #855, #658, #1162 ) ;
#333 = ORIENTED_EDGE ( 'NONE', *, *, #374, .F. ) ;
#334 = PLANE ( 'NONE',  #1084 ) ;
#335 = ORIENTED_EDGE ( 'NONE', *, *, #1124, .F. ) ;
#336 = DIRECTION ( 'NONE',  ( -1.084202172485504434E-16, 0.000000000000000000, -1.000000000000000000 ) ) ;
#337 = CIRCLE ( 'NONE', #504, 4.000000000000000000 ) ;
#338 = ADVANCED_FACE ( 'NONE', ( #936, #467 ), #453, .F. ) ;
#339 = VERTEX_POINT ( 'NONE', #569 ) ;
#340 = FACE_OUTER_BOUND ( 'NONE', #623, .T. ) ;
#341 = DIRECTION ( 'NONE',  ( 0.000000000000000000, 0.000000000000000000, 1.000000000000000000 ) ) ;
#342 = VECTOR ( 'NONE', #728, 1000.000000000000000 ) ;
#343 = ORIENTED_EDGE ( 'NONE', *, *, #15, .T. ) ;
#344 = CARTESIAN_POINT ( 'NONE',  ( -0.7206315775864675643, -1.972483239316685122, 5.138999999999997570 ) ) ;
#345 = CARTESIAN_POINT ( 'NONE',  ( 0.4000000000000010769, 2.258005787487199267, 5.544119660093877577 ) ) ;
#346 = AXIS2_PLACEMENT_3D ( 'NONE', #848, #754, #957 ) ;
#347 = LINE ( 'NONE', #141, #579 ) ;
#348 = DIRECTION ( 'NONE',  ( 1.000000000000000000, 0.000000000000000000, -8.260587980841937794E-15 ) ) ;
#349 = EDGE_CURVE ( 'NONE', #770, #903, #12, .T. ) ;
#350 = AXIS2_PLACEMENT_3D ( 'NONE', #719, #1288, #1105 ) ;
#351 = ORIENTED_EDGE ( 'NONE', *, *, #144, .T. ) ;
#352 = CARTESIAN_POINT ( 'NONE',  ( 0.000000000000000000, 0.000000000000000000, 5.438999999999999169 ) ) ;
#353 = CARTESIAN_POINT ( 'NONE',  ( 0.4871800118523844092, 2.042738830444499332, 2.470636393497685823 ) ) ;
#354 = CC_DESIGN_APPROVAL ( #1048, ( #585 ) ) ;
#355 = ORIENTED_EDGE ( 'NONE', *, *, #736, .F. ) ;
#356 = DIRECTION ( 'NONE',  ( 8.115498896123167176E-15, 0.000000000000000000, 1.000000000000000000 ) ) ;
#357 = CIRCLE ( 'NONE', #690, 4.000000000000000000 ) ;
#358 = EDGE_CURVE ( 'NONE', #533, #940, #245, .T. ) ;
#359 = ORIENTED_EDGE ( 'NONE', *, *, #527, .F. ) ;
#360 = DIRECTION ( 'NONE',  ( 1.000000000000000000, 0.000000000000000000, -8.115498896123167176E-15 ) ) ;
#361 = CARTESIAN_POINT ( 'NONE',  ( 0.000000000000000000, 0.000000000000000000, 0.8890000000000009006 ) ) ;
#362 = CARTESIAN_POINT ( 'NONE',  ( 0.000000000000000000, 0.000000000000000000, 0.000000000000000000 ) ) ;
#363 = EDGE_LOOP ( 'NONE', ( #335, #171 ) ) ;
#364 = CIRCLE ( 'NONE', #532, 2.100000000000000089 ) ;
#365 = DIRECTION ( 'NONE',  ( 0.000000000000000000, 0.000000000000000000, -1.000000000000000000 ) ) ;
#366 = CC_DESIGN_PERSON_AND_ORGANIZATION_ASSIGNMENT ( #1081, #1287, ( #585 ) ) ;
#367 = DIRECTION ( 'NONE',  ( -0.000000000000000000, -0.000000000000000000, 1.000000000000000000 ) ) ;
#368 = CARTESIAN_POINT ( 'NONE',  ( 0.000000000000000000, 0.000000000000000000, 0.8890000000000009006 ) ) ;
#369 = ORIENTED_EDGE ( 'NONE', *, *, #527, .T. ) ;
#370 = CARTESIAN_POINT ( 'NONE',  ( 0.000000000000000000, 0.000000000000000000, 5.586213595499954110 ) ) ;
#371 = CIRCLE ( 'NONE', #206, 2.279484136000458516 ) ;
#372 = FACE_OUTER_BOUND ( 'NONE', #852, .T. ) ;
#373 = COORDINATED_UNIVERSAL_TIME_OFFSET ( 6, 0, .BEHIND. ) ;
#374 = EDGE_CURVE ( 'NONE', #26, #895, #1003, .T. ) ;
#375 = CARTESIAN_POINT ( 'NONE',  ( -2.496873044429772648, -3.125000000000000444, 0.01399999996465363904 ) ) ;
#376 = LOCAL_TIME ( 13, 59, 17.00000000000000000, #1089 ) ;
#377 =( NAMED_UNIT ( * ) PLANE_ANGLE_UNIT ( ) SI_UNIT ( $, .RADIAN. ) );
#378 = ORIENTED_EDGE ( 'NONE', *, *, #410, .T. ) ;
#379 = CARTESIAN_POINT ( 'NONE',  ( 0.000000000000000000, 0.000000000000000000, 6.138999999999998458 ) ) ;
#380 = PLANE ( 'NONE',  #1197 ) ;
#381 = CC_DESIGN_PERSON_AND_ORGANIZATION_ASSIGNMENT ( #1161, #693, ( #585 ) ) ;
#382 = CARTESIAN_POINT ( 'NONE',  ( -2.100000000000000089, 0.000000000000000000, 0.8890000000000009006 ) ) ;
#383 = CARTESIAN_POINT ( 'NONE',  ( 0.8871054398237909755, 3.124999999999999112, 0.7725591177360078277 ) ) ;
#384 = ORIENTED_EDGE ( 'NONE', *, *, #1267, .T. ) ;
#385 = CARTESIAN_POINT ( 'NONE',  ( -0.4000000000000010214, 0.000000000000000000, 6.138999999999998458 ) ) ;
#386 = CARTESIAN_POINT ( 'NONE',  ( 0.000000000000000000, 0.000000000000000000, 5.523072258617638397 ) ) ;
#387 = CARTESIAN_POINT ( 'NONE',  ( 0.4000000000000010214, -2.264950330581225746, 5.523072258617638397 ) ) ;
#388 = CARTESIAN_POINT ( 'NONE',  ( 0.000000000000000000, 0.000000000000000000, 0.000000000000000000 ) ) ;
#389 = ORIENTED_EDGE ( 'NONE', *, *, #1181, .F. ) ;
#390 = CARTESIAN_POINT ( 'NONE',  ( 0.4980973490458749930, -2.040073290564207831, 2.595422128626172054 ) ) ;
#391 = CLOSED_SHELL ( 'NONE', ( #753, #135, #1277, #817, #582, #466, #826, #1129, #1076, #295, #1040, #1147, #321, #338, #550, #600, #233, #40, #46, #432, #62, #1213, #792, #89, #657, #724, #1285, #1101, #490, #107, #305, #1174, #156, #277, #6 ) ) ;
#392 = APPROVAL_DATE_TIME ( #494, #408 ) ;
#393 = DIRECTION ( 'NONE',  ( -1.000000000000000000, 0.000000000000000000, 0.000000000000000000 ) ) ;
#394 = AXIS2_PLACEMENT_3D ( 'NONE', #452, #735, #1027 ) ;
#395 = B_SPLINE_CURVE_WITH_KNOTS ( 'NONE', 3,
 ( #733, #1043, #241, #637 ),
 .UNSPECIFIED., .F., .F.,
 ( 4, 4 ),
 ( 0.007647354141962973799, 0.007869202712918558010 ),
 .UNSPECIFIED. ) ;
#396 = VERTEX_POINT ( 'NONE', #759 ) ;
#397 = DIRECTION ( 'NONE',  ( -0.000000000000000000, -0.000000000000000000, 1.000000000000000000 ) ) ;
#398 = EDGE_CURVE ( 'NONE', #922, #412, #799, .T. ) ;
#399 = CARTESIAN_POINT ( 'NONE',  ( 0.000000000000000000, 0.000000000000000000, 5.438999999999999169 ) ) ;
#400 = APPROVAL_STATUS ( 'not_yet_approved' ) ;
#401 = B_SPLINE_CURVE_WITH_KNOTS ( 'NONE', 3,
 ( #387, #867, #1268, #593 ),
 .UNSPECIFIED., .F., .F.,
 ( 4, 4 ),
 ( 0.002832913685900425270, 0.002899404085514993047 ),
 .UNSPECIFIED. ) ;
#402 = CARTESIAN_POINT ( 'NONE',  ( -0.2246616384843228009, 3.125000000000000000, 0.8889999999395504782 ) ) ;
#403 = CIRCLE ( 'NONE', #890, 4.000000000000000000 ) ;
#404 = VERTEX_POINT ( 'NONE', #475 ) ;
#405 = CARTESIAN_POINT ( 'NONE',  ( 0.4000000000000010214, 0.000000000000000000, 6.138999999999998458 ) ) ;
#406 = ORIENTED_EDGE ( 'NONE', *, *, #1137, .T. ) ;
#407 = DIRECTION ( 'NONE',  ( -1.000000000000000000, 0.000000000000000000, 0.000000000000000000 ) ) ;
#408 = APPROVAL ( #175, 'UNSPECIFIED' ) ;
#409 = CIRCLE ( 'NONE', #303, 2.100000000000000533 ) ;
#410 = EDGE_CURVE ( 'NONE', #697, #108, #99, .T. ) ;
#411 = DIRECTION ( 'NONE',  ( -1.000000000000000000, 0.000000000000000000, 0.000000000000000000 ) ) ;
#412 = VERTEX_POINT ( 'NONE', #663 ) ;
#413 = FACE_OUTER_BOUND ( 'NONE', #136, .T. ) ;
#414 = VERTEX_POINT ( 'NONE', #942 ) ;
#415 = CARTESIAN_POINT ( 'NONE',  ( 0.4980973490458749930, -3.174999999999999822, 2.595422128626172054 ) ) ;
#416 = AXIS2_PLACEMENT_3D ( 'NONE', #280, #1169, #678 ) ;
#417 = EDGE_CURVE ( 'NONE', #145, #1229, #821, .T. ) ;
#418 = DIRECTION ( 'NONE',  ( -0.000000000000000000, -0.000000000000000000, -1.000000000000000000 ) ) ;
#419 = VERTEX_POINT ( 'NONE', #859 ) ;
#420 = DIRECTION ( 'NONE',  ( -0.000000000000000000, -0.000000000000000000, 1.000000000000000000 ) ) ;
#421 = VERTEX_POINT ( 'NONE', #79 ) ;
#422 = DIRECTION ( 'NONE',  ( 0.000000000000000000, 0.000000000000000000, 1.000000000000000000 ) ) ;
#423 = TOROIDAL_SURFACE ( 'NONE', #189, 1.518638922964334226, 0.8000000000000000444 ) ;
#424 = CARTESIAN_POINT ( 'NONE',  ( -0.4000000000000010214, -2.264950330581225746, 5.523072258617638397 ) ) ;
#425 = ORIENTED_EDGE ( 'NONE', *, *, #944, .T. ) ;
#426 =( BOUNDED_CURVE ( )  B_SPLINE_CURVE ( 3, ( #1016, #713, #718, #1021 ),
 .UNSPECIFIED., .F., .F. ) 
 B_SPLINE_CURVE_WITH_KNOTS ( ( 4, 4 ),
 ( 1.810267798689539021, 1.921073213463466933 ),
 .UNSPECIFIED. ) 
 CURVE ( )  GEOMETRIC_REPRESENTATION_ITEM ( )  RATIONAL_B_SPLINE_CURVE ( ( 1.000000000000000000, 0.9989771083553060649, 0.9989771083553060649, 1.000000000000000000 ) ) 
 REPRESENTATION_ITEM ( '' )  );
#427 = CARTESIAN_POINT ( 'NONE',  ( 0.4501544481723545599, -3.125000000000000444, 0.8639806414780289989 ) ) ;
#428 = ORIENTED_EDGE ( 'NONE', *, *, #783, .F. ) ;
#429 = DIRECTION ( 'NONE',  ( -0.000000000000000000, -0.000000000000000000, -1.000000000000000000 ) ) ;
#430 = EDGE_LOOP ( 'NONE', ( #567, #384, #258, #661 ) ) ;
#431 = DIRECTION ( 'NONE',  ( -0.000000000000000000, 1.000000000000000000, 0.000000000000000000 ) ) ;
#432 = ADVANCED_FACE ( 'NONE', ( #889 ), #285, .F. ) ;
#433 = ORIENTED_EDGE ( 'NONE', *, *, #832, .T. ) ;
#434 = DIRECTION ( 'NONE',  ( 1.000000000000000000, -2.987832203871221282E-12, 1.734723475976807094E-16 ) ) ;
#435 = ORIENTED_EDGE ( 'NONE', *, *, #163, .F. ) ;
#436 = AXIS2_PLACEMENT_3D ( 'NONE', #1045, #341, #662 ) ;
#437 = CONICAL_SURFACE ( 'NONE', #583, 2.100000000000000089, 1.172861257340199304 ) ;
#438 = ORIENTED_EDGE ( 'NONE', *, *, #302, .F. ) ;
#439 = CARTESIAN_POINT ( 'NONE',  ( 2.100000000000000089, 2.571758278209441957E-16, 0.8890000000000009006 ) ) ;
#440 = DATE_AND_TIME ( #169, #126 ) ;
#441 = CARTESIAN_POINT ( 'NONE',  ( 0.4980973490458749930, 2.040073290564206943, 2.595422128626172054 ) ) ;
#442 = FACE_OUTER_BOUND ( 'NONE', #1172, .T. ) ;
#443 = CIRCLE ( 'NONE', #194, 2.279484136000458516 ) ;
#444 = CARTESIAN_POINT ( 'NONE',  ( -2.500000000000000000, 3.122498999199199154, -4.336808689942017736E-16 ) ) ;
#445 = AXIS2_PLACEMENT_3D ( 'NONE', #706, #235, #631 ) ;
#446 = CARTESIAN_POINT ( 'NONE',  ( 0.7206315775864675643, -1.972483239316684234, 5.138999999999997570 ) ) ;
#447 = EDGE_CURVE ( 'NONE', #1085, #786, #480, .T. ) ;
#448 = ORIENTED_EDGE ( 'NONE', *, *, #789, .F. ) ;
#449 = CARTESIAN_POINT ( 'NONE',  ( -1.726073372454827393, -3.125000000000000444, 0.4647715341821526125 ) ) ;
#450 = AXIS2_PLACEMENT_3D ( 'NONE', #310, #501, #972 ) ;
#451 = VERTEX_POINT ( 'NONE', #676 ) ;
#452 = CARTESIAN_POINT ( 'NONE',  ( 0.000000000000000000, 0.000000000000000000, 0.000000000000000000 ) ) ;
#453 = PLANE ( 'NONE',  #74 ) ;
#454 = EDGE_CURVE ( 'NONE', #940, #1202, #1150, .T. ) ;
#455 = VERTEX_POINT ( 'NONE', #985 ) ;
#456 = DIRECTION ( 'NONE',  ( 0.9961946980917461003, 0.000000000000000000, -0.08715574274765176821 ) ) ;
#457 = AXIS2_PLACEMENT_3D ( 'NONE', #268, #1077, #1062 ) ;
#458 = ORIENTED_EDGE ( 'NONE', *, *, #65, .T. ) ;
#459 = CARTESIAN_POINT ( 'NONE',  ( 2.100000000000000089, 2.571758278209441957E-16, 5.438999999999999169 ) ) ;
#460 = CIRCLE ( 'NONE', #1224, 0.8000000000000003775 ) ;
#461 = CARTESIAN_POINT ( 'NONE',  ( -0.4286119346557867305, 2.057850353472996385, 2.353605336466519482 ) ) ;
#462 = ORIENTED_EDGE ( 'NONE', *, *, #956, .T. ) ;
#463 = CC_DESIGN_PERSON_AND_ORGANIZATION_ASSIGNMENT ( #967, #1061, ( #563 ) ) ;
#464 = ORIENTED_EDGE ( 'NONE', *, *, #331, .T. ) ;
#465 = FACE_OUTER_BOUND ( 'NONE', #594, .T. ) ;
#466 = ADVANCED_FACE ( 'NONE', ( #977 ), #801, .T. ) ;
#467 = FACE_BOUND ( 'NONE', #1106, .T. ) ;
#468 = PLANE ( 'NONE',  #143 ) ;
#469 = APPLICATION_PROTOCOL_DEFINITION ( 'international standard', 'config_control_design', 1994, #1214 ) ;
#470 = ORIENTED_EDGE ( 'NONE', *, *, #497, .F. ) ;
#471 = AXIS2_PLACEMENT_3D ( 'NONE', #992, #420, #1120 ) ;
#472 = DIRECTION ( 'NONE',  ( -1.000000000000000000, 0.000000000000000000, 0.000000000000000000 ) ) ;
#473 = EDGE_CURVE ( 'NONE', #947, #404, #953, .T. ) ;
#474 = PRODUCT ( '228-2500-109', '228-2500-109', '', ( #1163 ) ) ;
#475 = CARTESIAN_POINT ( 'NONE',  ( -0.4980973490458714958, 2.040073290564207831, 2.595422128626172054 ) ) ;
#476 = DIRECTION ( 'NONE',  ( 1.000000000000000000, 0.000000000000000000, 0.000000000000000000 ) ) ;
#477 = CARTESIAN_POINT ( 'NONE',  ( -0.4000000000000010214, 2.244114062671002774, 5.586213595499954110 ) ) ;
#478 = ORIENTED_EDGE ( 'NONE', *, *, #69, .T. ) ;
#479 = CARTESIAN_POINT ( 'NONE',  ( 0.4000000000000010214, -2.061552812808830293, 5.139000000000001123 ) ) ;
#480 = LINE ( 'NONE', #788, #677 ) ;
#481 = PERSON_AND_ORGANIZATION ( #644, #87 ) ;
#482 = DIRECTION ( 'NONE',  ( -0.000000000000000000, 1.000000000000000000, -0.000000000000000000 ) ) ;
#483 = FACE_OUTER_BOUND ( 'NONE', #498, .T. ) ;
#484 = VERTEX_POINT ( 'NONE', #798 ) ;
#485 = DIRECTION ( 'NONE',  ( 1.000000000000000000, 0.000000000000000000, 8.260587980841937794E-15 ) ) ;
#486 = DIRECTION ( 'NONE',  ( -0.000000000000000000, -0.000000000000000000, -1.000000000000000000 ) ) ;
#487 = AXIS2_PLACEMENT_3D ( 'NONE', #370, #962, #1079 ) ;
#488 = DIRECTION ( 'NONE',  ( -1.000000000000000000, 0.000000000000000000, -0.000000000000000000 ) ) ;
#489 =( NAMED_UNIT ( * ) SI_UNIT ( $, .STERADIAN. ) SOLID_ANGLE_UNIT ( ) );
#490 = ADVANCED_FACE ( 'NONE', ( #182, #700 ), #380, .T. ) ;
#491 = ORIENTED_EDGE ( 'NONE', *, *, #987, .T. ) ;
#492 = CARTESIAN_POINT ( 'NONE',  ( -2.299999999999999822, 0.000000000000000000, 5.523072258617638397 ) ) ;
#493 = CYLINDRICAL_SURFACE ( 'NONE', #450, 2.100000000000000089 ) ;
#494 = DATE_AND_TIME ( #184, #1183 ) ;
#495 = B_SPLINE_CURVE_WITH_KNOTS ( 'NONE', 3,
 ( #696, #201, #1083, #708, #800, #318, #402, #1184 ),
 .UNSPECIFIED., .F., .F.,
 ( 4, 2, 2, 4 ),
 ( 0.004979927744953508914, 0.006317340411795183304, 0.006986046745216020065, 0.007654753078636856826 ),
 .UNSPECIFIED. ) ;
#496 = DIRECTION ( 'NONE',  ( 1.000000000000000000, 0.000000000000000000, 1.734723475976807094E-16 ) ) ;
#497 = EDGE_CURVE ( 'NONE', #715, #421, #742, .T. ) ;
#498 = EDGE_LOOP ( 'NONE', ( #763, #435, #822, #519 ) ) ;
#499 = CARTESIAN_POINT ( 'NONE',  ( 0.4000000000000010214, 2.264950330581225302, 5.523072258617638397 ) ) ;
#500 = VECTOR ( 'NONE', #1149, 1000.000000000000000 ) ;
#501 = DIRECTION ( 'NONE',  ( -0.000000000000000000, -0.000000000000000000, -1.000000000000000000 ) ) ;
#502 = CIRCLE ( 'NONE', #905, 2.100000000000000089 ) ;
#503 = DIRECTION ( 'NONE',  ( 0.000000000000000000, 0.000000000000000000, 1.000000000000000000 ) ) ;
#504 = AXIS2_PLACEMENT_3D ( 'NONE', #1131, #1240, #1144 ) ;
#505 = ORIENTED_EDGE ( 'NONE', *, *, #628, .T. ) ;
#506 = DIRECTION ( 'NONE',  ( 0.000000000000000000, 0.000000000000000000, 1.000000000000000000 ) ) ;
#507 = EDGE_CURVE ( 'NONE', #421, #56, #158, .T. ) ;
#508 = ORIENTED_EDGE ( 'NONE', *, *, #173, .F. ) ;
#509 = DIRECTION ( 'NONE',  ( 0.000000000000000000, 0.000000000000000000, -1.000000000000000000 ) ) ;
#510 = LINE ( 'NONE', #306, #725 ) ;
#511 = EDGE_LOOP ( 'NONE', ( #544, #1119, #1143, #652 ) ) ;
#512 = FACE_BOUND ( 'NONE', #572, .T. ) ;
#513 = EDGE_LOOP ( 'NONE', ( #359, #750, #538, #508, #845, #148, #810, #1263, #1278, #48, #212, #1078 ) ) ;
#514 = CARTESIAN_POINT ( 'NONE',  ( 0.4000000000000010214, 2.083054853492928515, 5.891603799368007266 ) ) ;
#515 = EDGE_CURVE ( 'NONE', #325, #786, #684, .T. ) ;
#516 = DIRECTION ( 'NONE',  ( -0.000000000000000000, 1.000000000000000000, -0.000000000000000000 ) ) ;
#517 = ORIENTED_EDGE ( 'NONE', *, *, #1137, .F. ) ;
#518 = DIRECTION ( 'NONE',  ( -1.000000000000000000, 0.000000000000000000, 0.000000000000000000 ) ) ;
#519 = ORIENTED_EDGE ( 'NONE', *, *, #963, .F. ) ;
#520 = DIRECTION ( 'NONE',  ( 0.000000000000000000, -1.000000000000000000, 0.000000000000000000 ) ) ;
#521 = VECTOR ( 'NONE', #516, 1000.000000000000000 ) ;
#522 = CARTESIAN_POINT ( 'NONE',  ( 0.000000000000000000, 0.000000000000000000, -0.8889999999723841029 ) ) ;
#523 = VERTEX_POINT ( 'NONE', #93 ) ;
#524 = CARTESIAN_POINT ( 'NONE',  ( 0.000000000000000000, -3.125000000000000444, 0.8890000000000009006 ) ) ;
#525 = ORIENTED_EDGE ( 'NONE', *, *, #966, .F. ) ;
#526 = DIRECTION ( 'NONE',  ( -0.000000000000000000, 1.000000000000000000, -0.000000000000000000 ) ) ;
#527 = EDGE_CURVE ( 'NONE', #1192, #1030, #960, .T. ) ;
#528 = ORIENTED_EDGE ( 'NONE', *, *, #69, .F. ) ;
#529 = CARTESIAN_POINT ( 'NONE',  ( 0.8871054398237874228, -3.125000000000000444, 0.7725591177360079387 ) ) ;
#530 = ORIENTED_EDGE ( 'NONE', *, *, #683, .T. ) ;
#531 = CARTESIAN_POINT ( 'NONE',  ( 0.4000000000000010214, -1.465013371386852947, 6.138999999999998458 ) ) ;
#532 = AXIS2_PLACEMENT_3D ( 'NONE', #257, #356, #348 ) ;
#533 = VERTEX_POINT ( 'NONE', #1073 ) ;
#534 = EDGE_CURVE ( 'NONE', #535, #632, #598, .T. ) ;
#535 = VERTEX_POINT ( 'NONE', #581 ) ;
#536 = LINE ( 'NONE', #13, #660 ) ;
#537 = CIRCLE ( 'NONE', #1132, 4.000000000000000000 ) ;
#538 = ORIENTED_EDGE ( 'NONE', *, *, #1223, .T. ) ;
#539 = AXIS2_PLACEMENT_3D ( 'NONE', #44, #1139, #167 ) ;
#540 = ORIENTED_EDGE ( 'NONE', *, *, #163, .T. ) ;
#541 = EDGE_CURVE ( 'NONE', #970, #934, #1087, .T. ) ;
#542 = LOCAL_TIME ( 13, 59, 17.00000000000000000, #82 ) ;
#543 = DIRECTION ( 'NONE',  ( 0.000000000000000000, 0.000000000000000000, 1.000000000000000000 ) ) ;
#544 = ORIENTED_EDGE ( 'NONE', *, *, #1092, .F. ) ;
#545 = CARTESIAN_POINT ( 'NONE',  ( -2.500000000000000888, -4.000000000000000000, -0.8889999999999991243 ) ) ;
#546 = ORIENTED_EDGE ( 'NONE', *, *, #181, .F. ) ;
#547 = DIRECTION ( 'NONE',  ( 1.000000000000000000, 0.000000000000000000, 0.000000000000000000 ) ) ;
#548 = CIRCLE ( 'NONE', #487, 2.279484136000458516 ) ;
#549 = CARTESIAN_POINT ( 'NONE',  ( 2.500000000000000888, -4.000000000000000000, -0.8889999999999991243 ) ) ;
#550 = ADVANCED_FACE ( 'NONE', ( #291 ), #493, .T. ) ;
#551 = ORIENTED_EDGE ( 'NONE', *, *, #1001, .T. ) ;
#552 = ORIENTED_EDGE ( 'NONE', *, *, #731, .F. ) ;
#553 = DIRECTION ( 'NONE',  ( 1.000000000000000000, 0.000000000000000000, 0.000000000000000000 ) ) ;
#554 = CARTESIAN_POINT ( 'NONE',  ( 0.000000000000000000, 0.000000000000000000, 0.8890000000000009006 ) ) ;
#555 = EDGE_CURVE ( 'NONE', #484, #325, #1060, .T. ) ;
#556 = EDGE_LOOP ( 'NONE', ( #720, #491, #111, #722 ) ) ;
#557 = CARTESIAN_POINT ( 'NONE',  ( 0.000000000000000000, 0.000000000000000000, 0.01399999996465339791 ) ) ;
#558 = EDGE_LOOP ( 'NONE', ( #270, #869, #945 ) ) ;
#559 = PLANE ( 'NONE',  #884 ) ;
#560 = CARTESIAN_POINT ( 'NONE',  ( 0.6477403412507656277, -1.999113491775012408, 4.305849356269923156 ) ) ;
#561 = AXIS2_PLACEMENT_3D ( 'NONE', #847, #837, #751 ) ;
#562 = PERSON_AND_ORGANIZATION_ROLE ( 'design_owner' ) ;
#563 = SECURITY_CLASSIFICATION ( '', '', #273 ) ;
#564 = FACE_OUTER_BOUND ( 'NONE', #511, .T. ) ;
#565 = CARTESIAN_POINT ( 'NONE',  ( -2.100000000000000533, 0.000000000000000000, -5.460999999999998522 ) ) ;
#566 = EDGE_CURVE ( 'NONE', #1208, #934, #1080, .T. ) ;
#567 = ORIENTED_EDGE ( 'NONE', *, *, #924, .F. ) ;
#568 = DIRECTION ( 'NONE',  ( 8.115498896123167176E-15, 0.000000000000000000, 1.000000000000000000 ) ) ;
#569 = CARTESIAN_POINT ( 'NONE',  ( 2.500000000000000000, 3.122498999199199154, 4.336808689942017736E-16 ) ) ;
#570 = LINE ( 'NONE', #958, #311 ) ;
#571 = DIRECTION ( 'NONE',  ( 1.000000000000000000, 0.000000000000000000, 0.000000000000000000 ) ) ;
#572 = EDGE_LOOP ( 'NONE', ( #1115, #283 ) ) ;
#573 = DIRECTION ( 'NONE',  ( -0.3090169943749442316, 0.000000000000000000, -0.9510565162951545304 ) ) ;
#574 = DIRECTION ( 'NONE',  ( 0.000000000000000000, 0.000000000000000000, 1.000000000000000000 ) ) ;
#575 = CARTESIAN_POINT ( 'NONE',  ( 2.100000000000000089, 2.571758278209441957E-16, 5.438999999999999169 ) ) ;
#576 = DIRECTION ( 'NONE',  ( 1.000000000000000000, 0.000000000000000000, 0.000000000000000000 ) ) ;
#577 = VERTEX_POINT ( 'NONE', #965 ) ;
#578 = CARTESIAN_POINT ( 'NONE',  ( 2.500000000487829777, -3.122498998808622694, -500000.0000000000582 ) ) ;
#579 = VECTOR ( 'NONE', #840, 1000.000000000000000 ) ;
#580 = ORIENTED_EDGE ( 'NONE', *, *, #226, .F. ) ;
#581 = CARTESIAN_POINT ( 'NONE',  ( -2.100000000000000089, 0.000000000000000000, 5.438999999999999169 ) ) ;
#582 = ADVANCED_FACE ( 'NONE', ( #589 ), #1103, .T. ) ;
#583 = AXIS2_PLACEMENT_3D ( 'NONE', #352, #149, #547 ) ;
#584 = LINE ( 'NONE', #95, #827 ) ;
#585 = PRODUCT_DEFINITION_FORMATION_WITH_SPECIFIED_SOURCE ( 'ANY', '', #474, .NOT_KNOWN. ) ;
#586 = CARTESIAN_POINT ( 'NONE',  ( -0.4000000000000010214, -2.061552812808830293, 5.438999999999999169 ) ) ;
#587 = VERTEX_POINT ( 'NONE', #1227 ) ;
#588 = LINE ( 'NONE', #870, #791 ) ;
#589 = FACE_OUTER_BOUND ( 'NONE', #900, .T. ) ;
#590 = PERSON_AND_ORGANIZATION ( #644, #87 ) ;
#591 = EDGE_CURVE ( 'NONE', #455, #737, #426, .T. ) ;
#592 = VECTOR ( 'NONE', #1284, 1000.000000000000000 ) ;
#593 = CARTESIAN_POINT ( 'NONE',  ( 0.4000000000000010214, -2.244114062671002330, 5.586213595499954110 ) ) ;
#594 = EDGE_LOOP ( 'NONE', ( #70, #30, #739, #236, #1007 ) ) ;
#595 = CARTESIAN_POINT ( 'NONE',  ( 0.4000000000000010214, -2.244114062671002330, 5.586213595499954110 ) ) ;
#596 = CIRCLE ( 'NONE', #796, 2.299999999999999822 ) ;
#597 = DIRECTION ( 'NONE',  ( -0.000000000000000000, 1.000000000000000000, -0.000000000000000000 ) ) ;
#598 = CIRCLE ( 'NONE', #820, 2.100000000000000089 ) ;
#599 = DIRECTION ( 'NONE',  ( 0.000000000000000000, -0.000000000000000000, 1.000000000000000000 ) ) ;
#600 = ADVANCED_FACE ( 'NONE', ( #114 ), #1011, .T. ) ;
#601 = ORIENTED_EDGE ( 'NONE', *, *, #760, .T. ) ;
#602 = CARTESIAN_POINT ( 'NONE',  ( -0.7206315775864675643, 1.972483239316684234, 5.138999999999997570 ) ) ;
#603 = CARTESIAN_POINT ( 'NONE',  ( -0.4980973490458714958, 2.040073290564207831, 2.595422128626172054 ) ) ;
#604 = AXIS2_PLACEMENT_3D ( 'NONE', #269, #856, #576 ) ;
#605 = ORIENTED_EDGE ( 'NONE', *, *, #1181, .T. ) ;
#606 = CARTESIAN_POINT ( 'NONE',  ( 0.000000000000000000, 0.000000000000000000, 5.139000000000004675 ) ) ;
#607 = EDGE_CURVE ( 'NONE', #781, #533, #964, .T. ) ;
#608 = ORIENTED_EDGE ( 'NONE', *, *, #261, .F. ) ;
#609 = CARTESIAN_POINT ( 'NONE',  ( -0.4000000000000010214, 2.244114062671002774, 5.586213595499954110 ) ) ;
#610 = DIRECTION ( 'NONE',  ( -0.000000000000000000, -0.000000000000000000, -1.000000000000000000 ) ) ;
#611 = ORIENTED_EDGE ( 'NONE', *, *, #937, .T. ) ;
#612 = LINE ( 'NONE', #1219, #242 ) ;
#613 = EDGE_LOOP ( 'NONE', ( #1248, #642, #580, #139 ) ) ;
#614 = CARTESIAN_POINT ( 'NONE',  ( 0.4000000000000010214, 2.190295370993047275, 5.749280358628697130 ) ) ;
#615 = CARTESIAN_POINT ( 'NONE',  ( -0.4000000000000010214, -2.251060372992385261, 5.565166775064911420 ) ) ;
#616 = ORIENTED_EDGE ( 'NONE', *, *, #454, .F. ) ;
#617 = LINE ( 'NONE', #1014, #342 ) ;
#618 = VERTEX_POINT ( 'NONE', #531 ) ;
#619 = CARTESIAN_POINT ( 'NONE',  ( 0.000000000000000000, 0.000000000000000000, 5.438999999999999169 ) ) ;
#620 = EDGE_CURVE ( 'NONE', #770, #717, #460, .T. ) ;
#621 = AXIS2_PLACEMENT_3D ( 'NONE', #164, #68, #664 ) ;
#622 = LINE ( 'NONE', #23, #902 ) ;
#623 = EDGE_LOOP ( 'NONE', ( #42, #1271, #920, #219 ) ) ;
#624 = CARTESIAN_POINT ( 'NONE',  ( 2.120702870165218634, -3.125000000000000000, 0.2488122920176601138 ) ) ;
#625 = UNCERTAINTY_MEASURE_WITH_UNIT (LENGTH_MEASURE( 1.000000000000000082E-05 ), #1069, 'distance_accuracy_value', 'NONE');
#626 = ORIENTED_EDGE ( 'NONE', *, *, #1198, .F. ) ;
#627 = CARTESIAN_POINT ( 'NONE',  ( -0.4000000000000010769, 2.084619459966333910, 5.890142440417392322 ) ) ;
#628 = EDGE_CURVE ( 'NONE', #1226, #26, #1216, .T. ) ;
#629 = B_SPLINE_CURVE_WITH_KNOTS ( 'NONE', 3,
 ( #730, #1122, #1116, #813 ),
 .UNSPECIFIED., .F., .F.,
 ( 4, 4 ),
 ( 0.003029541235337106318, 0.003249628748158706060 ),
 .UNSPECIFIED. ) ;
#630 = EDGE_LOOP ( 'NONE', ( #888, #540, #746, #1206, #17, #616 ) ) ;
#631 = DIRECTION ( 'NONE',  ( 1.000000000000000000, 0.000000000000000000, 0.000000000000000000 ) ) ;
#632 = VERTEX_POINT ( 'NONE', #323 ) ;
#633 = CARTESIAN_POINT ( 'NONE',  ( -0.4000000000000010214, -1.804720025119729954, 6.086959004245601434 ) ) ;
#634 = CONICAL_SURFACE ( 'NONE', #73, 2.299999999999999822, 0.3141592653589760364 ) ;
#635 = APPROVAL ( #67, 'UNSPECIFIED' ) ;
#636 = ORIENTED_EDGE ( 'NONE', *, *, #200, .F. ) ;
#637 = CARTESIAN_POINT ( 'NONE',  ( -0.4000000000000010214, 2.264950330581225302, 5.523072258617638397 ) ) ;
#638 = EDGE_CURVE ( 'NONE', #396, #289, #806, .T. ) ;
#639 = ORIENTED_EDGE ( 'NONE', *, *, #907, .F. ) ;
#640 = DIRECTION ( 'NONE',  ( -0.000000000000000000, -0.000000000000000000, -1.000000000000000000 ) ) ;
#641 = AXIS2_PLACEMENT_3D ( 'NONE', #1275, #1068, #186 ) ;
#642 = ORIENTED_EDGE ( 'NONE', *, *, #65, .F. ) ;
#643 = DIRECTION ( 'NONE',  ( -0.08715574274765176821, 0.000000000000000000, -0.9961946980917461003 ) ) ;
#644 = PERSON ( 'UNSPECIFIED', 'UNSPECIFIED', 'UNSPECIFIED', ('UNSPECIFIED'), ('UNSPECIFIED'), ('UNSPECIFIED') ) ;
#645 = EDGE_CURVE ( 'NONE', #1013, #339, #726, .T. ) ;
#646 = VERTEX_POINT ( 'NONE', #329 ) ;
#647 = LINE ( 'NONE', #459, #1029 ) ;
#648 = CARTESIAN_POINT ( 'NONE',  ( 0.2470723783330717738, 2.087434397081524118, 2.187282604411544096 ) ) ;
#649 = EDGE_LOOP ( 'NONE', ( #517, #1237, #505, #999 ) ) ;
#650 = CARTESIAN_POINT ( 'NONE',  ( 0.4000000000000010769, -2.129368205736811070, 5.466985055468133403 ) ) ;
#651 = CARTESIAN_POINT ( 'NONE',  ( -0.2470917478819850965, 2.087439085565598429, 2.187221323398957029 ) ) ;
#652 = ORIENTED_EDGE ( 'NONE', *, *, #15, .F. ) ;
#653 = ORIENTED_EDGE ( 'NONE', *, *, #851, .F. ) ;
#654 = LINE ( 'NONE', #57, #1261 ) ;
#655 = DIRECTION ( 'NONE',  ( 1.000000000000000000, 0.000000000000000000, -0.000000000000000000 ) ) ;
#656 = EDGE_CURVE ( 'NONE', #1192, #587, #536, .T. ) ;
#657 = ADVANCED_FACE ( 'NONE', ( #1096 ), #213, .F. ) ;
#658 = DIRECTION ( 'NONE',  ( -8.115498896123205041E-15, 0.000000000000000000, 1.000000000000000000 ) ) ;
#659 = CARTESIAN_POINT ( 'NONE',  ( 0.7206315775864675643, -1.972483239316684234, 5.138999999999997570 ) ) ;
#660 = VECTOR ( 'NONE', #35, 1000.000000000000000 ) ;
#661 = ORIENTED_EDGE ( 'NONE', *, *, #454, .T. ) ;
#662 = DIRECTION ( 'NONE',  ( 1.000000000000000000, 0.000000000000000000, 0.000000000000000000 ) ) ;
#663 = CARTESIAN_POINT ( 'NONE',  ( 2.100000000000000533, 2.571758278209442943E-16, -0.8889999999999991243 ) ) ;
#664 = DIRECTION ( 'NONE',  ( -1.000000000000000000, 0.000000000000000000, 0.000000000000000000 ) ) ;
#665 = FACE_OUTER_BOUND ( 'NONE', #1185, .T. ) ;
#666 = ORIENTED_EDGE ( 'NONE', *, *, #473, .F. ) ;
#667 = DIRECTION ( 'NONE',  ( -0.000000000000000000, -0.000000000000000000, -1.000000000000000000 ) ) ;
#668 = CARTESIAN_POINT ( 'NONE',  ( 0.1233449203368014863, 2.100009524403048111, 2.138959997505217370 ) ) ;
#669 = DATE_AND_TIME ( #872, #1097 ) ;
#670 = CYLINDRICAL_SURFACE ( 'NONE', #457, 0.5000000000000000000 ) ;
#671 = CARTESIAN_POINT ( 'NONE',  ( 1.101805125138283659, 3.124999999999999556, 0.7061118541553048633 ) ) ;
#672 = ORIENTED_EDGE ( 'NONE', *, *, #703, .T. ) ;
#673 = LINE ( 'NONE', #492, #1270 ) ;
#674 = EDGE_CURVE ( 'NONE', #56, #1283, #981, .T. ) ;
#675 = ORIENTED_EDGE ( 'NONE', *, *, #683, .F. ) ;
#676 = CARTESIAN_POINT ( 'NONE',  ( 0.4000000000000010214, 2.061552812808830293, 5.438999999999999169 ) ) ;
#677 = VECTOR ( 'NONE', #597, 1000.000000000000000 ) ;
#678 = DIRECTION ( 'NONE',  ( 1.000000000000000000, 0.000000000000000000, 0.000000000000000000 ) ) ;
#679 = CARTESIAN_POINT ( 'NONE',  ( 0.000000000000000000, 3.124999999999999556, 0.8890000000000009006 ) ) ;
#680 = MANIFOLD_SOLID_BREP ( '228-2500-109', #391 ) ;
#681 = EDGE_LOOP ( 'NONE', ( #77, #824, #983, #841, #938, #874, #546, #528, #195, #433 ) ) ;
#682 = DIRECTION ( 'NONE',  ( 0.9218631515885042926, 0.000000000000000000, 0.3875155864520939408 ) ) ;
#683 = EDGE_CURVE ( 'NONE', #108, #697, #502, .T. ) ;
#684 = LINE ( 'NONE', #100, #839 ) ;
#685 = AXIS2_PLACEMENT_3D ( 'NONE', #619, #429, #317 ) ;
#686 = AXIS2_PLACEMENT_3D ( 'NONE', #388, #959, #76 ) ;
#687 = FACE_OUTER_BOUND ( 'NONE', #558, .T. ) ;
#688 = CARTESIAN_POINT ( 'NONE',  ( 0.4501544481723588897, 3.125000000000000000, 0.8639806414780289989 ) ) ;
#689 = ORIENTED_EDGE ( 'NONE', *, *, #1155, .T. ) ;
#690 = AXIS2_PLACEMENT_3D ( 'NONE', #557, #835, #1230 ) ;
#691 = DIRECTION ( 'NONE',  ( 1.734723475976807094E-16, -0.000000000000000000, -1.000000000000000000 ) ) ;
#692 = CARTESIAN_POINT ( 'NONE',  ( -2.500000000000000888, -4.000000000000000000, -0.8889999999999991243 ) ) ;
#693 = PERSON_AND_ORGANIZATION_ROLE ( 'creator' ) ;
#694 = VECTOR ( 'NONE', #682, 1000.000000000000227 ) ;
#695 = EDGE_CURVE ( 'NONE', #940, #451, #629, .T. ) ;
#696 = CARTESIAN_POINT ( 'NONE',  ( -2.496873044429773536, 3.124999999999999556, 0.01399999996465368240 ) ) ;
#697 = VERTEX_POINT ( 'NONE', #439 ) ;
#698 = DIRECTION ( 'NONE',  ( 1.000000000000000000, 8.881784197001252323E-16, 0.000000000000000000 ) ) ;
#699 = VECTOR ( 'NONE', #823, 1000.000000000000000 ) ;
#700 = FACE_OUTER_BOUND ( 'NONE', #222, .T. ) ;
#701 = EDGE_CURVE ( 'NONE', #419, #646, #103, .T. ) ;
#702 = CARTESIAN_POINT ( 'NONE',  ( -0.4000000000000010214, -2.244114062671030752, 5.586213595499871509 ) ) ;
#703 = EDGE_CURVE ( 'NONE', #1283, #857, #24, .T. ) ;
#704 = ORIENTED_EDGE ( 'NONE', *, *, #313, .T. ) ;
#705 = AXIS2_PLACEMENT_3D ( 'NONE', #279, #1182, #1196 ) ;
#706 = CARTESIAN_POINT ( 'NONE',  ( 0.000000000000000000, 0.000000000000000000, 5.438999999999999169 ) ) ;
#707 = ORIENTED_EDGE ( 'NONE', *, *, #1118, .T. ) ;
#708 = CARTESIAN_POINT ( 'NONE',  ( -1.100570560400988773, 3.124999999999998668, 0.7064483885248439288 ) ) ;
#709 = APPROVAL_PERSON_ORGANIZATION ( #950, #635, #1253 ) ;
#710 = EDGE_LOOP ( 'NONE', ( #322, #729, #1071, #776 ) ) ;
#711 = CARTESIAN_POINT ( 'NONE',  ( 0.000000000000000000, -3.125000000000000444, 0.8890000000000009006 ) ) ;
#712 = ORIENTED_EDGE ( 'NONE', *, *, #226, .T. ) ;
#713 = CARTESIAN_POINT ( 'NONE',  ( -0.5734863112436872079, -2.021666578221208432, 3.457121909598156240 ) ) ;
#714 = PLANE ( 'NONE',  #350 ) ;
#715 = VERTEX_POINT ( 'NONE', #254 ) ;
#716 = DIRECTION ( 'NONE',  ( -0.000000000000000000, 1.000000000000000000, -0.000000000000000000 ) ) ;
#717 = VERTEX_POINT ( 'NONE', #1033 ) ;
#718 = CARTESIAN_POINT ( 'NONE',  ( -0.6477403412507644065, -1.999113491775013296, 4.305849356269921380 ) ) ;
#719 = CARTESIAN_POINT ( 'NONE',  ( -4.000000000000000000, -3.125000000000000444, 6.187731123682798540 ) ) ;
#720 = ORIENTED_EDGE ( 'NONE', *, *, #138, .F. ) ;
#721 = CARTESIAN_POINT ( 'NONE',  ( -0.4000000000000010214, -2.061552812808830293, 5.139000000000001123 ) ) ;
#722 = ORIENTED_EDGE ( 'NONE', *, *, #1155, .F. ) ;
#723 = CARTESIAN_POINT ( 'NONE',  ( -0.4000000000000010214, 2.251060372992367054, 5.565166775064966487 ) ) ;
#724 = ADVANCED_FACE ( 'NONE', ( #465 ), #1070, .T. ) ;
#725 = VECTOR ( 'NONE', #892, 1000.000000000000000 ) ;
#726 = CIRCLE ( 'NONE', #162, 4.000000000000000000 ) ;
#727 = ORIENTED_EDGE ( 'NONE', *, *, #882, .T. ) ;
#728 = DIRECTION ( 'NONE',  ( 0.000000000000000000, 0.000000000000000000, 1.000000000000000000 ) ) ;
#729 = ORIENTED_EDGE ( 'NONE', *, *, #398, .F. ) ;
#730 = CARTESIAN_POINT ( 'NONE',  ( 0.4000000000000010214, 2.264950330581225302, 5.523072258617638397 ) ) ;
#731 = EDGE_CURVE ( 'NONE', #412, #922, #209, .T. ) ;
#732 = CARTESIAN_POINT ( 'NONE',  ( -4.000000000000000000, 3.124999999999999556, 6.187731123682798540 ) ) ;
#733 = CARTESIAN_POINT ( 'NONE',  ( -0.4000000000000010214, 2.061552812808830293, 5.438999999999999169 ) ) ;
#734 = ORIENTED_EDGE ( 'NONE', *, *, #80, .T. ) ;
#735 = DIRECTION ( 'NONE',  ( 1.734723475976807094E-16, -0.000000000000000000, -1.000000000000000000 ) ) ;
#736 = EDGE_CURVE ( 'NONE', #414, #1013, #654, .T. ) ;
#737 = VERTEX_POINT ( 'NONE', #344 ) ;
#738 = DIRECTION ( 'NONE',  ( 9.756599977372368637E-16, 0.000000000000000000, 1.000000000000000000 ) ) ;
#739 = ORIENTED_EDGE ( 'NONE', *, *, #703, .F. ) ;
#740 = AXIS2_PLACEMENT_3D ( 'NONE', #174, #197, #866 ) ;
#741 = CARTESIAN_POINT ( 'NONE',  ( 0.7206315775864675643, -3.174999999999999822, 5.138999999999997570 ) ) ;
#742 = CIRCLE ( 'NONE', #705, 2.299999999999999822 ) ;
#743 = CARTESIAN_POINT ( 'NONE',  ( 0.5734863112436885402, 2.021666578221208432, 3.457121909598158016 ) ) ;
#744 = CONICAL_SURFACE ( 'NONE', #183, 2.299999999999999822, 0.3141592653589760364 ) ;
#745 = CARTESIAN_POINT ( 'NONE',  ( 0.000000000000000000, 0.000000000000000000, 6.138999999999998458 ) ) ;
#746 = ORIENTED_EDGE ( 'NONE', *, *, #349, .T. ) ;
#747 = CARTESIAN_POINT ( 'NONE',  ( 0.4000000000000010214, -2.061552812808830293, 5.438999999999999169 ) ) ;
#748 = FACE_OUTER_BOUND ( 'NONE', #879, .T. ) ;
#749 = CARTESIAN_POINT ( 'NONE',  ( -3.999999999999999112, 4.898587196589411843E-16, -5.460999999999998522 ) ) ;
#750 = ORIENTED_EDGE ( 'NONE', *, *, #656, .T. ) ;
#751 = DIRECTION ( 'NONE',  ( 1.000000000000000000, 0.000000000000000000, 0.000000000000000000 ) ) ;
#752 = VECTOR ( 'NONE', #1159, 1000.000000000000000 ) ;
#753 = ADVANCED_FACE ( 'NONE', ( #1053 ), #842, .F. ) ;
#754 = DIRECTION ( 'NONE',  ( 0.000000000000000000, 0.000000000000000000, -1.000000000000000000 ) ) ;
#755 = AXIS2_PLACEMENT_3D ( 'NONE', #1193, #1207, #216 ) ;
#756 = CARTESIAN_POINT ( 'NONE',  ( -2.100000000000000089, 0.000000000000000000, 5.438999999999999169 ) ) ;
#757 = ORIENTED_EDGE ( 'NONE', *, *, #1198, .T. ) ;
#758 = FACE_OUTER_BOUND ( 'NONE', #113, .T. ) ;
#759 = CARTESIAN_POINT ( 'NONE',  ( -0.4000000000000010214, 2.061552812808830293, 5.438999999999999169 ) ) ;
#760 = EDGE_CURVE ( 'NONE', #50, #697, #647, .T. ) ;
#761 = AXIS2_PLACEMENT_3D ( 'NONE', #368, #177, #192 ) ;
#762 = LINE ( 'NONE', #756, #861 ) ;
#763 = ORIENTED_EDGE ( 'NONE', *, *, #620, .F. ) ;
#764 = DIRECTION ( 'NONE',  ( 1.000000000000000000, 0.000000000000000000, 0.000000000000000000 ) ) ;
#765 = CARTESIAN_POINT ( 'NONE',  ( -2.500000000000000888, 3.122498999199198266, -0.8889999999723841029 ) ) ;
#766 = CIRCLE ( 'NONE', #47, 2.100000000000000089 ) ;
#767 = DATE_AND_TIME ( #978, #376 ) ;
#768 = CIRCLE ( 'NONE', #288, 2.100000000000000089 ) ;
#769 = DIRECTION ( 'NONE',  ( -0.000000000000000000, -0.000000000000000000, -1.000000000000000000 ) ) ;
#770 = VERTEX_POINT ( 'NONE', #853 ) ;
#771 = LINE ( 'NONE', #578, #850 ) ;
#772 = CARTESIAN_POINT ( 'NONE',  ( 0.000000000000000000, 0.000000000000000000, 0.01399999996465339791 ) ) ;
#773 = CARTESIAN_POINT ( 'NONE',  ( -3.124999999938954609, 0.000000000000000000, 0.8890000000000009006 ) ) ;
#774 = LINE ( 'NONE', #586, #1276 ) ;
#775 = EDGE_CURVE ( 'NONE', #577, #1085, #1242, .T. ) ;
#776 = ORIENTED_EDGE ( 'NONE', *, *, #1124, .T. ) ;
#777 = LINE ( 'NONE', #1173, #238 ) ;
#778 = DIRECTION ( 'NONE',  ( 0.000000000000000000, 0.000000000000000000, -1.000000000000000000 ) ) ;
#779 = B_SPLINE_CURVE_WITH_KNOTS ( 'NONE', 3,
 ( #931, #250, #160, #1245 ),
 .UNSPECIFIED., .F., .F.,
 ( 4, 4 ),
 ( 0.003029541235337106318, 0.003249628748158705626 ),
 .UNSPECIFIED. ) ;
#780 = DIRECTION ( 'NONE',  ( 0.000000000000000000, 0.000000000000000000, -1.000000000000000000 ) ) ;
#781 = VERTEX_POINT ( 'NONE', #146 ) ;
#782 = CARTESIAN_POINT ( 'NONE',  ( 0.2470917478819851243, -2.087439085565598429, 2.187221323398956585 ) ) ;
#783 = EDGE_CURVE ( 'NONE', #715, #632, #779, .T. ) ;
#784 = DIRECTION ( 'NONE',  ( -0.000000000000000000, -0.000000000000000000, -1.000000000000000000 ) ) ;
#785 = CARTESIAN_POINT ( 'NONE',  ( -2.496873044429773092, 3.124999999999998668, -500000.0000000000582 ) ) ;
#786 = VERTEX_POINT ( 'NONE', #444 ) ;
#787 = DIRECTION ( 'NONE',  ( -1.000000000000000000, 0.000000000000000000, 0.000000000000000000 ) ) ;
#788 = CARTESIAN_POINT ( 'NONE',  ( -2.500000000000000000, -4.000000000000000000, 8.673617379884035472E-16 ) ) ;
#789 = EDGE_CURVE ( 'NONE', #309, #50, #1117, .T. ) ;
#790 = DATE_TIME_ROLE ( 'classification_date' ) ;
#791 = VECTOR ( 'NONE', #1272, 999.9999999999998863 ) ;
#792 = ADVANCED_FACE ( 'NONE', ( #1232 ), #559, .F. ) ;
#793 = CARTESIAN_POINT ( 'NONE',  ( 2.496873044429772648, 3.124999999999999556, 0.01399999996465358526 ) ) ;
#794 = ORIENTED_EDGE ( 'NONE', *, *, #267, .T. ) ;
#795 = FACE_OUTER_BOUND ( 'NONE', #613, .T. ) ;
#796 = AXIS2_PLACEMENT_3D ( 'NONE', #1100, #320, #18 ) ;
#797 = EDGE_LOOP ( 'NONE', ( #428, #991, #116, #389, #1218, #316 ) ) ;
#798 = CARTESIAN_POINT ( 'NONE',  ( -2.500000000000000888, -3.122498999199198266, -0.8889999999723841029 ) ) ;
#799 = CIRCLE ( 'NONE', #328, 2.100000000000000533 ) ;
#800 = CARTESIAN_POINT ( 'NONE',  ( -0.8835170818150430705, 3.125000000000000000, 0.7735571653555550764 ) ) ;
#801 = CONICAL_SURFACE ( 'NONE', #1217, 2.299999999999999822, 0.3141592653589760364 ) ;
#802 = ORIENTED_EDGE ( 'NONE', *, *, #173, .T. ) ;
#803 = CARTESIAN_POINT ( 'NONE',  ( -2.500000000000000000, -3.122498999199199154, -4.336808689942017736E-16 ) ) ;
#804 = CIRCLE ( 'NONE', #1220, 4.000000000000000000 ) ;
#805 = EDGE_LOOP ( 'NONE', ( #608, #626, #478, #43 ) ) ;
#806 = LINE ( 'NONE', #1203, #807 ) ;
#807 = VECTOR ( 'NONE', #921, 1000.000000000000000 ) ;
#808 = DIRECTION ( 'NONE',  ( 0.000000000000000000, 0.000000000000000000, -1.000000000000000000 ) ) ;
#809 = EDGE_CURVE ( 'NONE', #298, #970, #337, .T. ) ;
#810 = ORIENTED_EDGE ( 'NONE', *, *, #1074, .F. ) ;
#811 = CARTESIAN_POINT ( 'NONE',  ( 0.000000000000000000, 0.000000000000000000, -500000.0000000000582 ) ) ;
#812 = ORIENTED_EDGE ( 'NONE', *, *, #897, .F. ) ;
#813 = CARTESIAN_POINT ( 'NONE',  ( 0.4000000000000010214, 2.061552812808830293, 5.438999999999999169 ) ) ;
#814 = CARTESIAN_POINT ( 'NONE',  ( 2.500000000000000888, 3.122498998808622250, -0.8889999999999991243 ) ) ;
#815 = ORIENTED_EDGE ( 'NONE', *, *, #907, .T. ) ;
#816 = LINE ( 'NONE', #912, #699 ) ;
#817 = ADVANCED_FACE ( 'NONE', ( #758 ), #437, .T. ) ;
#818 = ORIENTED_EDGE ( 'NONE', *, *, #218, .T. ) ;
#819 = CARTESIAN_POINT ( 'NONE',  ( 0.000000000000000000, 0.000000000000000000, 5.438999999999999169 ) ) ;
#820 = AXIS2_PLACEMENT_3D ( 'NONE', #399, #1286, #190 ) ;
#821 = CIRCLE ( 'NONE', #346, 2.100000000000000533 ) ;
#822 = ORIENTED_EDGE ( 'NONE', *, *, #607, .F. ) ;
#823 = DIRECTION ( 'NONE',  ( -0.000000000000000000, 1.000000000000000000, -0.000000000000000000 ) ) ;
#824 = ORIENTED_EDGE ( 'NONE', *, *, #1190, .T. ) ;
#825 = CARTESIAN_POINT ( 'NONE',  ( 1.518638922964334226, 0.000000000000000000, 5.339000000000000412 ) ) ;
#826 = ADVANCED_FACE ( 'NONE', ( #1152 ), #1244, .T. ) ;
#827 = VECTOR ( 'NONE', #780, 1000.000000000000000 ) ;
#828 = B_SPLINE_CURVE_WITH_KNOTS ( 'NONE', 3,
 ( #247, #61, #1050, #1024, #1238, #263 ),
 .UNSPECIFIED., .F., .F.,
 ( 4, 2, 4 ),
 ( 0.000000000000000000, 0.0005075899518848835459, 0.001015179903769767092 ),
 .UNSPECIFIED. ) ;
#829 = ORIENTED_EDGE ( 'NONE', *, *, #138, .T. ) ;
#830 = ORIENTED_EDGE ( 'NONE', *, *, #860, .T. ) ;
#831 = CARTESIAN_POINT ( 'NONE',  ( 0.000000000000000000, 0.000000000000000000, 0.000000000000000000 ) ) ;
#832 = EDGE_CURVE ( 'NONE', #309, #1239, #899, .T. ) ;
#833 = ORIENTED_EDGE ( 'NONE', *, *, #591, .T. ) ;
#834 = AXIS2_PLACEMENT_3D ( 'NONE', #606, #31, #1112 ) ;
#835 = DIRECTION ( 'NONE',  ( 0.000000000000000000, 0.000000000000000000, -1.000000000000000000 ) ) ;
#836 = ORIENTED_EDGE ( 'NONE', *, *, #701, .T. ) ;
#837 = DIRECTION ( 'NONE',  ( 0.000000000000000000, 0.000000000000000000, 1.000000000000000000 ) ) ;
#838 = CARTESIAN_POINT ( 'NONE',  ( 0.4282819678817715858, 2.057911970479199493, 2.353224001008316968 ) ) ;
#839 = VECTOR ( 'NONE', #205, 1000.000000000000000 ) ;
#840 = DIRECTION ( 'NONE',  ( 0.000000000000000000, 0.000000000000000000, -1.000000000000000000 ) ) ;
#841 = ORIENTED_EDGE ( 'NONE', *, *, #607, .T. ) ;
#842 = CYLINDRICAL_SURFACE ( 'NONE', #906, 2.100000000000000533 ) ;
#843 = CARTESIAN_POINT ( 'NONE',  ( -2.099872945368626453, 0.000000000000000000, 6.138999999999998458 ) ) ;
#844 = CIRCLE ( 'NONE', #228, 4.000000000000000000 ) ;
#845 = ORIENTED_EDGE ( 'NONE', *, *, #1001, .F. ) ;
#846 = EDGE_CURVE ( 'NONE', #396, #535, #766, .T. ) ;
#847 = CARTESIAN_POINT ( 'NONE',  ( 0.000000000000000000, 0.000000000000000000, 5.438999999999999169 ) ) ;
#848 = CARTESIAN_POINT ( 'NONE',  ( 0.000000000000000000, 0.000000000000000000, -5.460999999999998522 ) ) ;
#849 = CARTESIAN_POINT ( 'NONE',  ( 2.100000000000000533, 2.571758278209442943E-16, -5.460999999999998522 ) ) ;
#850 = VECTOR ( 'NONE', #1279, 1000.000000000000000 ) ;
#851 = EDGE_CURVE ( 'NONE', #157, #339, #941, .T. ) ;
#852 = EDGE_LOOP ( 'NONE', ( #812, #911 ) ) ;
#853 = CARTESIAN_POINT ( 'NONE',  ( 2.279484136000458516, 0.000000000000000000, 5.586213595499954110 ) ) ;
#854 = CARTESIAN_POINT ( 'NONE',  ( 0.4000000000000010214, 2.244114062671030752, 5.586213595499871509 ) ) ;
#855 = CARTESIAN_POINT ( 'NONE',  ( -0.4000000000000010214, -3.174999999999999822, 5.139000000000001123 ) ) ;
#856 = DIRECTION ( 'NONE',  ( 0.000000000000000000, 0.000000000000000000, 1.000000000000000000 ) ) ;
#857 = VERTEX_POINT ( 'NONE', #271 ) ;
#858 = DIRECTION ( 'NONE',  ( -0.000000000000000000, 1.000000000000000000, -0.000000000000000000 ) ) ;
#859 = CARTESIAN_POINT ( 'NONE',  ( -0.4000000000000010214, -1.465013371386852947, 6.138999999999998458 ) ) ;
#860 = EDGE_CURVE ( 'NONE', #1208, #577, #299, .T. ) ;
#861 = VECTOR ( 'NONE', #769, 1000.000000000000000 ) ;
#862 = CARTESIAN_POINT ( 'NONE',  ( -2.099872945368626453, 0.000000000000000000, 6.138999999999998458 ) ) ;
#863 = CARTESIAN_POINT ( 'NONE',  ( 2.496873044429772648, 3.124999999999999556, 0.01399999996465358526 ) ) ;
#864 = ORIENTED_EDGE ( 'NONE', *, *, #1057, .T. ) ;
#865 = CARTESIAN_POINT ( 'NONE',  ( -2.100000000000000533, 0.000000000000000000, -0.8889999999999991243 ) ) ;
#866 = DIRECTION ( 'NONE',  ( -0.08715574274765176821, 0.000000000000000000, 0.9961946980917461003 ) ) ;
#867 = CARTESIAN_POINT ( 'NONE',  ( 0.4000000000000010769, -2.258005787487189497, 5.544119660093905999 ) ) ;
#868 = DIRECTION ( 'NONE',  ( 0.000000000000000000, 0.000000000000000000, 1.000000000000000000 ) ) ;
#869 = ORIENTED_EDGE ( 'NONE', *, *, #32, .T. ) ;
#870 = CARTESIAN_POINT ( 'NONE',  ( -3.124999999966571185, 0.000000000000000000, 0.8889999999723841029 ) ) ;
#871 = CARTESIAN_POINT ( 'NONE',  ( -0.7206315775864675643, 1.972483239316684234, 5.138999999999997570 ) ) ;
#872 = CALENDAR_DATE ( 2022, 6, 6 ) ;
#873 = DIRECTION ( 'NONE',  ( -0.000000000000000000, 0.000000000000000000, 1.000000000000000000 ) ) ;
#874 = ORIENTED_EDGE ( 'NONE', *, *, #695, .T. ) ;
#875 = CARTESIAN_POINT ( 'NONE',  ( -0.4980973490458714958, -2.040073290564207831, 2.595422128626172054 ) ) ;
#876 = PRODUCT_DEFINITION_SHAPE ( 'NONE', 'NONE',  #282 ) ;
#877 = DIRECTION ( 'NONE',  ( -0.000000000000000000, -0.000000000000000000, -1.000000000000000000 ) ) ;
#878 = CARTESIAN_POINT ( 'NONE',  ( 0.000000000000000000, 0.000000000000000000, 5.586213595499954110 ) ) ;
#879 = EDGE_LOOP ( 'NONE', ( #802, #712, #1130, #153, #355 ) ) ;
#880 = CARTESIAN_POINT ( 'NONE',  ( 0.4286119346557875631, -2.057850353472996385, 2.353605336466521258 ) ) ;
#881 = CARTESIAN_POINT ( 'NONE',  ( 0.000000000000000000, 0.000000000000000000, 5.523072258617638397 ) ) ;
#882 = EDGE_CURVE ( 'NONE', #85, #1283, #548, .T. ) ;
#883 = APPROVAL_DATE_TIME ( #440, #635 ) ;
#884 = AXIS2_PLACEMENT_3D ( 'NONE', #741, #568, #360 ) ;
#885 = CARTESIAN_POINT ( 'NONE',  ( 0.000000000000000000, 0.000000000000000000, 5.523072258617638397 ) ) ;
#886 = ORIENTED_EDGE ( 'NONE', *, *, #1236, .F. ) ;
#887 = DIRECTION ( 'NONE',  ( -0.000000000000000000, -0.000000000000000000, -1.000000000000000000 ) ) ;
#888 = ORIENTED_EDGE ( 'NONE', *, *, #358, .F. ) ;
#889 = FACE_OUTER_BOUND ( 'NONE', #1065, .T. ) ;
#890 = AXIS2_PLACEMENT_3D ( 'NONE', #1072, #691, #188 ) ;
#891 = APPLICATION_CONTEXT ( 'configuration controlled 3d designs of mechanical parts and assemblies' ) ;
#892 = DIRECTION ( 'NONE',  ( 0.000000000000000000, 0.000000000000000000, 1.000000000000000000 ) ) ;
#893 = ORIENTED_EDGE ( 'NONE', *, *, #1092, .T. ) ;
#894 = CARTESIAN_POINT ( 'NONE',  ( 0.000000000000000000, 0.000000000000000000, -0.8889999999999991243 ) ) ;
#895 = VERTEX_POINT ( 'NONE', #172 ) ;
#896 = DIRECTION ( 'NONE',  ( 0.000000000000000000, 0.000000000000000000, -1.000000000000000000 ) ) ;
#897 = EDGE_CURVE ( 'NONE', #857, #419, #196, .T. ) ;
#898 = DIRECTION ( 'NONE',  ( 0.000000000000000000, 0.000000000000000000, -1.000000000000000000 ) ) ;
#899 = B_SPLINE_CURVE_WITH_KNOTS ( 'NONE', 3,
 ( #747, #650, #259, #955 ),
 .UNSPECIFIED., .F., .F.,
 ( 4, 4 ),
 ( 0.007647354141962972064, 0.007869202712918556275 ),
 .UNSPECIFIED. ) ;
#900 = EDGE_LOOP ( 'NONE', ( #63, #601, #378, #1005, #1179, #1102, #343, #1158, #464, #1221, #864, #91 ) ) ;
#901 = CARTESIAN_POINT ( 'NONE',  ( -0.4461219378392319856, -3.125000000000000888, 0.8645727323579394108 ) ) ;
#902 = VECTOR ( 'NONE', #610, 1000.000000000000000 ) ;
#903 = VERTEX_POINT ( 'NONE', #595 ) ;
#904 = CARTESIAN_POINT ( 'NONE',  ( 0.000000000000000000, 0.000000000000000000, 0.8890000000000009006 ) ) ;
#905 = AXIS2_PLACEMENT_3D ( 'NONE', #904, #29, #926 ) ;
#906 = AXIS2_PLACEMENT_3D ( 'NONE', #1249, #365, #472 ) ;
#907 = EDGE_CURVE ( 'NONE', #36, #577, #278, .T. ) ;
#908 = PLANE ( 'NONE',  #1064 ) ;
#909 = CC_DESIGN_APPROVAL ( #408, ( #563 ) ) ;
#910 = APPROVAL_PERSON_ORGANIZATION ( #590, #1048, #1260 ) ;
#911 = ORIENTED_EDGE ( 'NONE', *, *, #1228, .T. ) ;
#912 = CARTESIAN_POINT ( 'NONE',  ( -0.4000000000000010214, -3.174999999999999822, 5.139000000000001123 ) ) ;
#913 = VERTEX_POINT ( 'NONE', #479 ) ;
#914 = CARTESIAN_POINT ( 'NONE',  ( -0.4000000000000010214, 2.258005787487189941, 5.544119660093905111 ) ) ;
#915 = AXIS2_PLACEMENT_3D ( 'NONE', #379, #506, #764 ) ;
#916 = VECTOR ( 'NONE', #667, 1000.000000000000000 ) ;
#917 = ORIENTED_EDGE ( 'NONE', *, *, #218, .F. ) ;
#918 = CARTESIAN_POINT ( 'NONE',  ( 0.2247089984053910749, -3.125000000000000444, 0.8889999999383998430 ) ) ;
#919 = EDGE_CURVE ( 'NONE', #646, #85, #443, .T. ) ;
#920 = ORIENTED_EDGE ( 'NONE', *, *, #515, .T. ) ;
#921 = DIRECTION ( 'NONE',  ( -0.000000000000000000, -0.000000000000000000, -1.000000000000000000 ) ) ;
#922 = VERTEX_POINT ( 'NONE', #865 ) ;
#923 = CARTESIAN_POINT ( 'NONE',  ( 2.496873044429772204, -3.124999999999999556, 0.000000000000000000 ) ) ;
#924 = EDGE_CURVE ( 'NONE', #50, #1202, #204, .T. ) ;
#925 = ORIENTED_EDGE ( 'NONE', *, *, #928, .T. ) ;
#926 = DIRECTION ( 'NONE',  ( -1.000000000000000000, 0.000000000000000000, 0.000000000000000000 ) ) ;
#927 = AXIS2_PLACEMENT_3D ( 'NONE', #7, #1199, #411 ) ;
#928 = EDGE_CURVE ( 'NONE', #309, #913, #984, .T. ) ;
#929 = ORIENTED_EDGE ( 'NONE', *, *, #120, .F. ) ;
#930 = ORIENTED_EDGE ( 'NONE', *, *, #775, .T. ) ;
#931 = CARTESIAN_POINT ( 'NONE',  ( -0.4000000000000010214, -2.264950330581225746, 5.523072258617638397 ) ) ;
#932 = CARTESIAN_POINT ( 'NONE',  ( -0.1236690215010803479, 2.099990463092004767, 2.139040055015565489 ) ) ;
#933 = CARTESIAN_POINT ( 'NONE',  ( 0.000000000000000000, 0.000000000000000000, 5.139000000000004675 ) ) ;
#934 = VERTEX_POINT ( 'NONE', #92 ) ;
#935 = CARTESIAN_POINT ( 'NONE',  ( 0.000000000000000000, 0.000000000000000000, 0.8889999999723841029 ) ) ;
#936 = FACE_OUTER_BOUND ( 'NONE', #1015, .T. ) ;
#937 = EDGE_CURVE ( 'NONE', #252, #307, #995, .T. ) ;
#938 = ORIENTED_EDGE ( 'NONE', *, *, #358, .T. ) ;
#939 = CARTESIAN_POINT ( 'NONE',  ( -2.117187479602840927, -3.125000000000000444, 0.2510066630015586608 ) ) ;
#940 = VERTEX_POINT ( 'NONE', #499 ) ;
#941 = LINE ( 'NONE', #265, #217 ) ;
#942 = CARTESIAN_POINT ( 'NONE',  ( -2.496873044429773092, 3.124999999999998668, 0.000000000000000000 ) ) ;
#943 = AXIS2_PLACEMENT_3D ( 'NONE', #745, #1134, #476 ) ;
#944 = EDGE_CURVE ( 'NONE', #85, #421, #673, .T. ) ;
#945 = ORIENTED_EDGE ( 'NONE', *, *, #963, .T. ) ;
#946 = CARTESIAN_POINT ( 'NONE',  ( 0.4980973490458749930, -2.040073290564207831, 2.595422128626172054 ) ) ;
#947 = VERTEX_POINT ( 'NONE', #602 ) ;
#948 = CARTESIAN_POINT ( 'NONE',  ( -0.4000000000000010214, 1.636557294430224685, 6.138999999999999346 ) ) ;
#949 = PLANE ( 'NONE',  #1041 ) ;
#950 = PERSON_AND_ORGANIZATION ( #644, #87 ) ;
#951 = CARTESIAN_POINT ( 'NONE',  ( -2.279484136000458516, 0.000000000000000000, 5.586213595499954110 ) ) ;
#952 = DIRECTION ( 'NONE',  ( 0.000000000000000000, 0.000000000000000000, 1.000000000000000000 ) ) ;
#953 =( BOUNDED_CURVE ( )  B_SPLINE_CURVE ( 3, ( #871, #300, #1273, #603 ),
 .UNSPECIFIED., .F., .F. ) 
 B_SPLINE_CURVE_WITH_KNOTS ( ( 4, 4 ),
 ( 4.362112093716119077, 4.472917508490047211 ),
 .UNSPECIFIED. ) 
 CURVE ( )  GEOMETRIC_REPRESENTATION_ITEM ( )  RATIONAL_B_SPLINE_CURVE ( ( 1.000000000000000000, 0.9989771083553060649, 0.9989771083553060649, 1.000000000000000000 ) ) 
 REPRESENTATION_ITEM ( '' )  );
#954 = ORIENTED_EDGE ( 'NONE', *, *, #261, .T. ) ;
#955 = CARTESIAN_POINT ( 'NONE',  ( 0.4000000000000010214, -2.264950330581225746, 5.523072258617638397 ) ) ;
#956 = EDGE_CURVE ( 'NONE', #1226, #455, #1009, .T. ) ;
#957 = DIRECTION ( 'NONE',  ( -1.000000000000000000, 0.000000000000000000, 0.000000000000000000 ) ) ;
#958 = CARTESIAN_POINT ( 'NONE',  ( -0.7206315775864675643, -3.174999999999999822, 5.138999999999997570 ) ) ;
#959 = DIRECTION ( 'NONE',  ( 0.000000000000000000, 0.000000000000000000, 1.000000000000000000 ) ) ;
#960 = CIRCLE ( 'NONE', #10, 3.999999999999999112 ) ;
#961 = ORIENTED_EDGE ( 'NONE', *, *, #313, .F. ) ;
#962 = DIRECTION ( 'NONE',  ( -0.000000000000000000, -0.000000000000000000, -1.000000000000000000 ) ) ;
#963 = EDGE_CURVE ( 'NONE', #717, #781, #1036, .T. ) ;
#964 = B_SPLINE_CURVE_WITH_KNOTS ( 'NONE', 3,
 ( #125, #140, #133, #514, #614, #994 ),
 .UNSPECIFIED., .F., .F.,
 ( 4, 2, 4 ),
 ( 0.000000000000000000, 0.0005076236618905668931, 0.001015247323781133786 ),
 .UNSPECIFIED. ) ;
#965 = CARTESIAN_POINT ( 'NONE',  ( -2.496873044429772204, -3.124999999999999556, 0.000000000000000000 ) ) ;
#966 = EDGE_CURVE ( 'NONE', #523, #157, #771, .T. ) ;
#967 = PERSON_AND_ORGANIZATION ( #644, #87 ) ;
#968 = CIRCLE ( 'NONE', #927, 3.999999999999999112 ) ;
#969 = CARTESIAN_POINT ( 'NONE',  ( 2.500000000487829777, 3.122498998808622694, -500000.0000000000582 ) ) ;
#970 = VERTEX_POINT ( 'NONE', #971 ) ;
#971 = CARTESIAN_POINT ( 'NONE',  ( 4.000000000000000000, 0.000000000000000000, 0.01399999996465339791 ) ) ;
#972 = DIRECTION ( 'NONE',  ( -1.000000000000000000, 0.000000000000000000, 0.000000000000000000 ) ) ;
#973 = SHAPE_DEFINITION_REPRESENTATION ( #876, #304 ) ;
#974 = LINE ( 'NONE', #75, #1281 ) ;
#975 = ORIENTED_EDGE ( 'NONE', *, *, #566, .T. ) ;
#976 = CARTESIAN_POINT ( 'NONE',  ( -2.496873044429772204, -3.124999999999999556, -500000.0000000000582 ) ) ;
#977 = FACE_OUTER_BOUND ( 'NONE', #1058, .T. ) ;
#978 = CALENDAR_DATE ( 2022, 6, 6 ) ;
#979 = EDGE_CURVE ( 'NONE', #737, #1017, #134, .T. ) ;
#980 = CYLINDRICAL_SURFACE ( 'NONE', #416, 4.000000000000000000 ) ;
#981 = B_SPLINE_CURVE_WITH_KNOTS ( 'NONE', 3,
 ( #119, #914, #723, #20 ),
 .UNSPECIFIED., .F., .F.,
 ( 4, 4 ),
 ( 0.002832913685900425270, 0.002899404085514992180 ),
 .UNSPECIFIED. ) ;
#982 = AXIS2_PLACEMENT_3D ( 'NONE', #545, #55, #738 ) ;
#983 = ORIENTED_EDGE ( 'NONE', *, *, #1082, .T. ) ;
#984 = LINE ( 'NONE', #1066, #1104 ) ;
#985 = CARTESIAN_POINT ( 'NONE',  ( -0.4980973490458714958, -2.040073290564207831, 2.595422128626172054 ) ) ;
#986 = CARTESIAN_POINT ( 'NONE',  ( 0.000000000000000000, 0.000000000000000000, 0.01399999996465339791 ) ) ;
#987 = EDGE_CURVE ( 'NONE', #132, #587, #588, .T. ) ;
#988 = ORIENTED_EDGE ( 'NONE', *, *, #919, .T. ) ;
#989 = DIRECTION ( 'NONE',  ( -0.000000000000000000, -0.000000000000000000, -1.000000000000000000 ) ) ;
#990 = DIRECTION ( 'NONE',  ( -0.000000000000000000, 1.000000000000000000, -0.000000000000000000 ) ) ;
#991 = ORIENTED_EDGE ( 'NONE', *, *, #497, .T. ) ;
#992 = CARTESIAN_POINT ( 'NONE',  ( 0.000000000000000000, 0.000000000000000000, -0.8889999999723841029 ) ) ;
#993 = EDGE_CURVE ( 'NONE', #1085, #484, #777, .T. ) ;
#994 = CARTESIAN_POINT ( 'NONE',  ( 0.4000000000000010214, 2.244114062671030752, 5.586213595499871509 ) ) ;
#995 = CIRCLE ( 'NONE', #297, 3.124999999938954609 ) ;
#996 = LINE ( 'NONE', #115, #521 ) ;
#997 = ORIENTED_EDGE ( 'NONE', *, *, #293, .T. ) ;
#998 = FACE_OUTER_BOUND ( 'NONE', #1, .T. ) ;
#999 = ORIENTED_EDGE ( 'NONE', *, *, #331, .F. ) ;
#1000 = CARTESIAN_POINT ( 'NONE',  ( 0.4000000000000010214, -3.174999999999999822, 5.139000000000001123 ) ) ;
#1001 = EDGE_CURVE ( 'NONE', #786, #414, #403, .T. ) ;
#1002 = VECTOR ( 'NONE', #72, 1000.000000000000000 ) ;
#1003 =( BOUNDED_CURVE ( )  B_SPLINE_CURVE ( 3, ( #161, #743, #151, #1055 ),
 .UNSPECIFIED., .F., .F. ) 
 B_SPLINE_CURVE_WITH_KNOTS ( ( 4, 4 ),
 ( 1.810267798689539687, 1.921073213463467599 ),
 .UNSPECIFIED. ) 
 CURVE ( )  GEOMETRIC_REPRESENTATION_ITEM ( )  RATIONAL_B_SPLINE_CURVE ( ( 1.000000000000000000, 0.9989771083553060649, 0.9989771083553060649, 1.000000000000000000 ) ) 
 REPRESENTATION_ITEM ( '' )  );
#1004 = CARTESIAN_POINT ( 'NONE',  ( 2.500000000000000000, -3.122498999199199154, 4.336808689942017736E-16 ) ) ;
#1005 = ORIENTED_EDGE ( 'NONE', *, *, #80, .F. ) ;
#1006 = DIRECTION ( 'NONE',  ( 0.000000000000000000, 0.000000000000000000, 1.000000000000000000 ) ) ;
#1007 = ORIENTED_EDGE ( 'NONE', *, *, #919, .F. ) ;
#1008 = DIRECTION ( 'NONE',  ( 1.000000000000000000, 0.000000000000000000, 0.000000000000000000 ) ) ;
#1009 = B_SPLINE_CURVE_WITH_KNOTS ( 'NONE', 3,
 ( #390, #78, #880, #782, #1186, #180, #1264, #1166, #290, #875 ),
 .UNSPECIFIED., .F., .F.,
 ( 4, 2, 2, 2, 4 ),
 ( 0.000000000000000000, 0.0003704147845104416976, 0.0007408295690208833951, 0.001111244353531325038, 0.001481659138041766790 ),
 .UNSPECIFIED. ) ;
#1010 = CC_DESIGN_PERSON_AND_ORGANIZATION_ASSIGNMENT ( #1274, #1176, ( #282 ) ) ;
#1011 = CONICAL_SURFACE ( 'NONE', #104, 2.100000000000000089, 1.172861257340199304 ) ;
#1012 = DIRECTION ( 'NONE',  ( -1.000000000000000000, 0.000000000000000000, 0.000000000000000000 ) ) ;
#1013 = VERTEX_POINT ( 'NONE', #1107 ) ;
#1014 = CARTESIAN_POINT ( 'NONE',  ( 4.000000000000000000, 0.000000000000000000, -500000.0000000000582 ) ) ;
#1015 = EDGE_LOOP ( 'NONE', ( #611, #458, #829 ) ) ;
#1016 = CARTESIAN_POINT ( 'NONE',  ( -0.4980973490458714958, -2.040073290564207831, 2.595422128626172054 ) ) ;
#1017 = VERTEX_POINT ( 'NONE', #721 ) ;
#1018 = DIRECTION ( 'NONE',  ( 0.000000000000000000, 0.000000000000000000, -1.000000000000000000 ) ) ;
#1019 = EDGE_CURVE ( 'NONE', #1030, #970, #617, .T. ) ;
#1020 = ORIENTED_EDGE ( 'NONE', *, *, #944, .F. ) ;
#1021 = CARTESIAN_POINT ( 'NONE',  ( -0.7206315775864675643, -1.972483239316685122, 5.138999999999997570 ) ) ;
#1022 = AXIS2_PLACEMENT_3D ( 'NONE', #811, #1006, #315 ) ;
#1023 = DIRECTION ( 'NONE',  ( 1.000000000000000000, 0.000000000000000000, 8.260587980841937794E-15 ) ) ;
#1024 = CARTESIAN_POINT ( 'NONE',  ( 0.4000000000000010214, -1.805457092722225543, 6.086801903958011017 ) ) ;
#1025 = PRODUCT_RELATED_PRODUCT_CATEGORY ( 'detail', '', ( #474 ) ) ;
#1026 = ORIENTED_EDGE ( 'NONE', *, *, #656, .F. ) ;
#1027 = DIRECTION ( 'NONE',  ( 1.000000000000000000, -9.965361869035405107E-13, 1.734723475976807094E-16 ) ) ;
#1028 = CIRCLE ( 'NONE', #1047, 2.100000000000000089 ) ;
#1029 = VECTOR ( 'NONE', #640, 1000.000000000000000 ) ;
#1030 = VERTEX_POINT ( 'NONE', #112 ) ;
#1031 = CARTESIAN_POINT ( 'NONE',  ( 0.000000000000000000, 0.000000000000000000, 6.138999999999998458 ) ) ;
#1032 = ORIENTED_EDGE ( 'NONE', *, *, #783, .T. ) ;
#1033 = CARTESIAN_POINT ( 'NONE',  ( 1.518638922964334448, 0.000000000000000000, 6.138999999999998458 ) ) ;
#1034 = EDGE_CURVE ( 'NONE', #934, #252, #101, .T. ) ;
#1035 = CARTESIAN_POINT ( 'NONE',  ( 0.4000000000000010214, 2.264950330581225302, 5.523072258617638397 ) ) ;
#1036 = CIRCLE ( 'NONE', #915, 1.518638922964334226 ) ;
#1037 = EDGE_LOOP ( 'NONE', ( #1126, #672, #1211, #836, #997, #1032, #886, #893, #224, #605 ) ) ;
#1038 = CARTESIAN_POINT ( 'NONE',  ( 0.000000000000000000, 0.000000000000000000, 5.438999999999999169 ) ) ;
#1039 = CARTESIAN_POINT ( 'NONE',  ( 0.5734863112436890953, -2.021666578221207988, 3.457121909598164233 ) ) ;
#1040 = ADVANCED_FACE ( 'NONE', ( #211 ), #274, .T. ) ;
#1041 = AXIS2_PLACEMENT_3D ( 'NONE', #549, #59, #1145 ) ;
#1042 = ORIENTED_EDGE ( 'NONE', *, *, #620, .T. ) ;
#1043 = CARTESIAN_POINT ( 'NONE',  ( -0.4000000000000010214, 2.129368205736811070, 5.466985055468133403 ) ) ;
#1044 = ORIENTED_EDGE ( 'NONE', *, *, #1034, .T. ) ;
#1045 = CARTESIAN_POINT ( 'NONE',  ( 0.000000000000000000, 0.000000000000000000, 5.339000000000000412 ) ) ;
#1046 = CARTESIAN_POINT ( 'NONE',  ( -0.4980973490458714958, 2.040073290564207831, 2.595422128626172054 ) ) ;
#1047 = AXIS2_PLACEMENT_3D ( 'NONE', #933, #256, #1023 ) ;
#1048 = APPROVAL ( #400, 'UNSPECIFIED' ) ;
#1049 = FACE_OUTER_BOUND ( 'NONE', #1037, .T. ) ;
#1050 = CARTESIAN_POINT ( 'NONE',  ( 0.4000000000000012434, -2.084619459966333466, 5.890142440417392322 ) ) ;
#1051 = AXIS2_PLACEMENT_3D ( 'NONE', #1000, #1222, #336 ) ;
#1052 = ORIENTED_EDGE ( 'NONE', *, *, #410, .F. ) ;
#1053 = FACE_OUTER_BOUND ( 'NONE', #1121, .T. ) ;
#1054 = CC_DESIGN_SECURITY_CLASSIFICATION ( #563, ( #585 ) ) ;
#1055 = CARTESIAN_POINT ( 'NONE',  ( 0.7206315775864675643, 1.972483239316684234, 5.138999999999997570 ) ) ;
#1056 = DIRECTION ( 'NONE',  ( -0.000000000000000000, 1.000000000000000000, -0.000000000000000000 ) ) ;
#1057 = EDGE_CURVE ( 'NONE', #895, #166, #1164, .T. ) ;
#1058 = EDGE_LOOP ( 'NONE', ( #988, #425, #470, #118 ) ) ;
#1059 = DIRECTION ( 'NONE',  ( -0.000000000000000000, -0.000000000000000000, -1.000000000000000000 ) ) ;
#1060 = LINE ( 'NONE', #692, #1194 ) ;
#1061 = PERSON_AND_ORGANIZATION_ROLE ( 'classification_officer' ) ;
#1062 = DIRECTION ( 'NONE',  ( 0.000000000000000000, 0.000000000000000000, 1.000000000000000000 ) ) ;
#1063 = DIRECTION ( 'NONE',  ( 0.000000000000000000, 0.000000000000000000, 1.000000000000000000 ) ) ;
#1064 = AXIS2_PLACEMENT_3D ( 'NONE', #296, #599, #1110 ) ;
#1065 = EDGE_LOOP ( 'NONE', ( #406, #666, #929, #229 ) ) ;
#1066 = CARTESIAN_POINT ( 'NONE',  ( 0.4000000000000010214, -2.061552812808830293, 5.438999999999999169 ) ) ;
#1067 = CARTESIAN_POINT ( 'NONE',  ( 0.000000000000000000, 0.000000000000000000, -5.460999999999998522 ) ) ;
#1068 = DIRECTION ( 'NONE',  ( -0.000000000000000000, -0.000000000000000000, 1.000000000000000000 ) ) ;
#1069 =( LENGTH_UNIT ( ) NAMED_UNIT ( * ) SI_UNIT ( .MILLI., .METRE. ) );
#1070 = TOROIDAL_SURFACE ( 'NONE', #436, 1.518638922964334226, 0.8000000000000000444 ) ;
#1071 = ORIENTED_EDGE ( 'NONE', *, *, #25, .T. ) ;
#1072 = CARTESIAN_POINT ( 'NONE',  ( 0.000000000000000000, 0.000000000000000000, 0.000000000000000000 ) ) ;
#1073 = CARTESIAN_POINT ( 'NONE',  ( 0.4000000000000010214, 2.244114062671030752, 5.586213595499871509 ) ) ;
#1074 = EDGE_CURVE ( 'NONE', #243, #325, #1252, .T. ) ;
#1075 = DATE_TIME_ROLE ( 'creation_date' ) ;
#1076 = ADVANCED_FACE ( 'NONE', ( #512, #230 ), #334, .F. ) ;
#1077 = DIRECTION ( 'NONE',  ( -0.000000000000000000, 1.000000000000000000, -0.000000000000000000 ) ) ;
#1078 = ORIENTED_EDGE ( 'NONE', *, *, #1019, .F. ) ;
#1079 = DIRECTION ( 'NONE',  ( 1.000000000000000000, 0.000000000000000000, 0.000000000000000000 ) ) ;
#1080 = LINE ( 'NONE', #109, #1170 ) ;
#1081 = PERSON_AND_ORGANIZATION ( #644, #87 ) ;
#1082 = EDGE_CURVE ( 'NONE', #618, #781, #9, .T. ) ;
#1083 = CARTESIAN_POINT ( 'NONE',  ( -1.726073372454825172, 3.125000000000000000, 0.4647715341821543333 ) ) ;
#1084 = AXIS2_PLACEMENT_3D ( 'NONE', #894, #123, #1094 ) ;
#1085 = VERTEX_POINT ( 'NONE', #803 ) ;
#1086 = CARTESIAN_POINT ( 'NONE',  ( 0.000000000000000000, -3.125000000000000444, 0.000000000000000000 ) ) ;
#1087 = CIRCLE ( 'NONE', #176, 4.000000000000000000 ) ;
#1088 = DIRECTION ( 'NONE',  ( -1.000000000000000000, 0.000000000000000000, 0.000000000000000000 ) ) ;
#1089 = COORDINATED_UNIVERSAL_TIME_OFFSET ( 6, 0, .BEHIND. ) ;
#1090 = CC_DESIGN_DATE_AND_TIME_ASSIGNMENT ( #767, #1075, ( #282 ) ) ;
#1091 = CARTESIAN_POINT ( 'NONE',  ( -0.4000000000000010214, -2.258005787487199267, 5.544119660093877577 ) ) ;
#1092 = EDGE_CURVE ( 'NONE', #1017, #289, #816, .T. ) ;
#1093 = ORIENTED_EDGE ( 'NONE', *, *, #417, .T. ) ;
#1094 = DIRECTION ( 'NONE',  ( -1.000000000000000000, 0.000000000000000000, -0.000000000000000000 ) ) ;
#1095 = ORIENTED_EDGE ( 'NONE', *, *, #645, .T. ) ;
#1096 = FACE_OUTER_BOUND ( 'NONE', #681, .T. ) ;
#1097 = LOCAL_TIME ( 13, 59, 17.00000000000000000, #373 ) ;
#1098 = FACE_OUTER_BOUND ( 'NONE', #630, .T. ) ;
#1099 = ORIENTED_EDGE ( 'NONE', *, *, #1074, .T. ) ;
#1100 = CARTESIAN_POINT ( 'NONE',  ( 0.000000000000000000, 0.000000000000000000, 5.523072258617638397 ) ) ;
#1101 = ADVANCED_FACE ( 'NONE', ( #413 ), #1201, .T. ) ;
#1102 = ORIENTED_EDGE ( 'NONE', *, *, #638, .T. ) ;
#1103 = CYLINDRICAL_SURFACE ( 'NONE', #685, 2.100000000000000089 ) ;
#1104 = VECTOR ( 'NONE', #1059, 1000.000000000000000 ) ;
#1105 = DIRECTION ( 'NONE',  ( 0.000000000000000000, -0.000000000000000000, 1.000000000000000000 ) ) ;
#1106 = EDGE_LOOP ( 'NONE', ( #675, #1052 ) ) ;
#1107 = CARTESIAN_POINT ( 'NONE',  ( 2.496873044429773092, 3.124999999999998668, 0.000000000000000000 ) ) ;
#1108 = EDGE_LOOP ( 'NONE', ( #975, #1044, #689, #815, #1225 ) ) ;
#1109 = CARTESIAN_POINT ( 'NONE',  ( -0.4000000000000010214, -2.083054853492928071, 5.891603799368007266 ) ) ;
#1110 = DIRECTION ( 'NONE',  ( 1.000000000000000000, 0.000000000000000000, 0.000000000000000000 ) ) ;
#1111 = EDGE_LOOP ( 'NONE', ( #551, #1215, #1095, #653, #234, #830, #930, #8 ) ) ;
#1112 = DIRECTION ( 'NONE',  ( 1.000000000000000000, 0.000000000000000000, -8.260587980841937794E-15 ) ) ;
#1113 = VECTOR ( 'NONE', #503, 1000.000000000000000 ) ;
#1114 = AXIS2_PLACEMENT_3D ( 'NONE', #1262, #488, #873 ) ;
#1115 = ORIENTED_EDGE ( 'NONE', *, *, #398, .T. ) ;
#1116 = CARTESIAN_POINT ( 'NONE',  ( 0.4000000000000010769, 2.129368206736822255, 5.466985055880803301 ) ) ;
#1117 = CIRCLE ( 'NONE', #561, 2.100000000000000089 ) ;
#1118 = EDGE_CURVE ( 'NONE', #1202, #1239, #596, .T. ) ;
#1119 = ORIENTED_EDGE ( 'NONE', *, *, #979, .F. ) ;
#1120 = DIRECTION ( 'NONE',  ( -1.000000000000000000, 0.000000000000000000, 0.000000000000000000 ) ) ;
#1121 = EDGE_LOOP ( 'NONE', ( #552, #351, #1093, #240 ) ) ;
#1122 = CARTESIAN_POINT ( 'NONE',  ( 0.4000000000000010769, 2.197165962000668493, 5.495012552331536959 ) ) ;
#1123 = B_SPLINE_CURVE_WITH_KNOTS ( 'NONE', 3,
 ( #1046, #1246, #461, #651, #932, #668, #648, #838, #353, #128 ),
 .UNSPECIFIED., .F., .F.,
 ( 4, 2, 2, 2, 4 ),
 ( 0.000000000000000000, 0.0003704147845104402881, 0.0007408295690208805762, 0.001111244353531320918, 0.001481659138041761586 ),
 .UNSPECIFIED. ) ;
#1124 = EDGE_CURVE ( 'NONE', #1229, #145, #409, .T. ) ;
#1125 = DIRECTION ( 'NONE',  ( 0.000000000000000000, -1.000000000000000000, 0.000000000000000000 ) ) ;
#1126 = ORIENTED_EDGE ( 'NONE', *, *, #674, .T. ) ;
#1127 = CARTESIAN_POINT ( 'NONE',  ( -0.4000000000000010214, 1.465013371386852947, 6.138999999999998458 ) ) ;
#1128 = DIRECTION ( 'NONE',  ( 0.000000000000000000, -0.000000000000000000, -1.000000000000000000 ) ) ;
#1129 = ADVANCED_FACE ( 'NONE', ( #795 ), #33, .T. ) ;
#1130 = ORIENTED_EDGE ( 'NONE', *, *, #1250, .T. ) ;
#1131 = CARTESIAN_POINT ( 'NONE',  ( 0.000000000000000000, 0.000000000000000000, 0.01399999996465339791 ) ) ;
#1132 = AXIS2_PLACEMENT_3D ( 'NONE', #522, #16, #393 ) ;
#1133 = CARTESIAN_POINT ( 'NONE',  ( 2.500000000000000888, -4.000000000000000000, -0.8889999999999991243 ) ) ;
#1134 = DIRECTION ( 'NONE',  ( 0.000000000000000000, 0.000000000000000000, 1.000000000000000000 ) ) ;
#1135 = CARTESIAN_POINT ( 'NONE',  ( 2.300000000000003819, 0.000000000000000000, 5.523072258617638397 ) ) ;
#1136 =( GEOMETRIC_REPRESENTATION_CONTEXT ( 3 ) GLOBAL_UNCERTAINTY_ASSIGNED_CONTEXT ( ( #625 ) ) GLOBAL_UNIT_ASSIGNED_CONTEXT ( ( #1069, #377, #489 ) ) REPRESENTATION_CONTEXT ( 'NONE', 'WORKASPACE' ) );
#1137 = EDGE_CURVE ( 'NONE', #455, #404, #612, .T. ) ;
#1138 = ORIENTED_EDGE ( 'NONE', *, *, #832, .F. ) ;
#1139 = DIRECTION ( 'NONE',  ( 0.000000000000000000, 0.000000000000000000, -1.000000000000000000 ) ) ;
#1140 = DIRECTION ( 'NONE',  ( 0.000000000000000000, 0.000000000000000000, -1.000000000000000000 ) ) ;
#1141 = PLANE ( 'NONE',  #81 ) ;
#1142 = PLANE ( 'NONE',  #1146 ) ;
#1143 = ORIENTED_EDGE ( 'NONE', *, *, #120, .T. ) ;
#1144 = DIRECTION ( 'NONE',  ( -1.000000000000000000, 0.000000000000000000, 0.000000000000000000 ) ) ;
#1145 = DIRECTION ( 'NONE',  ( 9.756599977372358777E-16, 0.000000000000000000, -1.000000000000000000 ) ) ;
#1146 = AXIS2_PLACEMENT_3D ( 'NONE', #37, #456, #643 ) ;
#1147 = ADVANCED_FACE ( 'NONE', ( #998 ), #634, .T. ) ;
#1148 = B_SPLINE_CURVE_WITH_KNOTS ( 'NONE', 3,
 ( #679, #165, #688, #383, #671, #276, #281, #863 ),
 .UNSPECIFIED., .F., .F.,
 ( 4, 2, 2, 4 ),
 ( 0.007654753078636856826, 0.008323600379018884429, 0.008992447679400912899, 0.01033014228016496984 ),
 .UNSPECIFIED. ) ;
#1149 = DIRECTION ( 'NONE',  ( -0.000000000000000000, -0.000000000000000000, -1.000000000000000000 ) ) ;
#1150 = CIRCLE ( 'NONE', #330, 2.299999999999999822 ) ;
#1151 = ORIENTED_EDGE ( 'NONE', *, *, #1034, .F. ) ;
#1152 = FACE_OUTER_BOUND ( 'NONE', #556, .T. ) ;
#1153 = FACE_OUTER_BOUND ( 'NONE', #60, .T. ) ;
#1154 = CONICAL_SURFACE ( 'NONE', #248, 3.124999999966571185, 0.7853981634121329769 ) ;
#1155 = EDGE_CURVE ( 'NONE', #252, #36, #4, .T. ) ;
#1156 = LINE ( 'NONE', #969, #500 ) ;
#1157 = PERSON_AND_ORGANIZATION ( #644, #87 ) ;
#1158 = ORIENTED_EDGE ( 'NONE', *, *, #473, .T. ) ;
#1159 = DIRECTION ( 'NONE',  ( -1.000000000000000000, 0.000000000000000000, -0.000000000000000000 ) ) ;
#1160 = LINE ( 'NONE', #1133, #1002 ) ;
#1161 = PERSON_AND_ORGANIZATION ( #644, #87 ) ;
#1162 = DIRECTION ( 'NONE',  ( 1.000000000000000000, 0.000000000000000000, 8.115498896123205041E-15 ) ) ;
#1163 = MECHANICAL_CONTEXT ( 'NONE', #1214, 'mechanical' ) ;
#1164 = CIRCLE ( 'NONE', #834, 2.100000000000000089 ) ;
#1165 = ORIENTED_EDGE ( 'NONE', *, *, #200, .T. ) ;
#1166 = CARTESIAN_POINT ( 'NONE',  ( -0.4282819678817712528, -2.057911970479199493, 2.353224001008315636 ) ) ;
#1167 = DIRECTION ( 'NONE',  ( -1.000000000000000000, 0.000000000000000000, 0.000000000000000000 ) ) ;
#1168 = AXIS2_PLACEMENT_3D ( 'NONE', #1031, #868, #571 ) ;
#1169 = DIRECTION ( 'NONE',  ( 0.000000000000000000, 0.000000000000000000, 1.000000000000000000 ) ) ;
#1170 = VECTOR ( 'NONE', #574, 1000.000000000000000 ) ;
#1171 = CARTESIAN_POINT ( 'NONE',  ( 0.000000000000000000, 0.000000000000000000, 5.339000000000000412 ) ) ;
#1172 = EDGE_LOOP ( 'NONE', ( #1195, #438, #954, #333 ) ) ;
#1173 = CARTESIAN_POINT ( 'NONE',  ( -2.500000000487829777, -3.122498998808622694, -500000.0000000000582 ) ) ;
#1174 = ADVANCED_FACE ( 'NONE', ( #340 ), #49, .F. ) ;
#1175 = DIRECTION ( 'NONE',  ( -1.000000000000000000, 0.000000000000000000, -0.000000000000000000 ) ) ;
#1176 = PERSON_AND_ORGANIZATION_ROLE ( 'creator' ) ;
#1177 = CIRCLE ( 'NONE', #943, 1.518638922964334226 ) ;
#1178 = DIRECTION ( 'NONE',  ( 0.000000000000000000, 0.000000000000000000, 1.000000000000000000 ) ) ;
#1179 = ORIENTED_EDGE ( 'NONE', *, *, #846, .F. ) ;
#1180 = DIRECTION ( 'NONE',  ( -8.115498896123205041E-15, 0.000000000000000000, 1.000000000000000000 ) ) ;
#1181 = EDGE_CURVE ( 'NONE', #396, #56, #395, .T. ) ;
#1182 = DIRECTION ( 'NONE',  ( -0.000000000000000000, -0.000000000000000000, -1.000000000000000000 ) ) ;
#1183 = LOCAL_TIME ( 13, 59, 17.00000000000000000, #301 ) ;
#1184 = CARTESIAN_POINT ( 'NONE',  ( 0.000000000000000000, 3.124999999999999556, 0.8890000000000009006 ) ) ;
#1185 = EDGE_LOOP ( 'NONE', ( #159, #1042, #54, #105 ) ) ;
#1186 = CARTESIAN_POINT ( 'NONE',  ( 0.1236690215010805144, -2.099990463092004322, 2.139040055015564601 ) ) ;
#1187 = AXIS2_PLACEMENT_3D ( 'NONE', #86, #1180, #485 ) ;
#1188 = DIRECTION ( 'NONE',  ( -1.000000000000000000, 0.000000000000000000, 0.000000000000000000 ) ) ;
#1189 = APPROVAL_ROLE ( '' ) ;
#1190 = EDGE_CURVE ( 'NONE', #903, #618, #828, .T. ) ;
#1191 = FACE_OUTER_BOUND ( 'NONE', #1108, .T. ) ;
#1192 = VERTEX_POINT ( 'NONE', #749 ) ;
#1193 = CARTESIAN_POINT ( 'NONE',  ( 0.000000000000000000, 0.000000000000000000, 0.8889999999723841029 ) ) ;
#1194 = VECTOR ( 'NONE', #990, 1000.000000000000000 ) ;
#1195 = ORIENTED_EDGE ( 'NONE', *, *, #628, .F. ) ;
#1196 = DIRECTION ( 'NONE',  ( -1.000000000000000000, 0.000000000000000000, 0.000000000000000000 ) ) ;
#1197 = AXIS2_PLACEMENT_3D ( 'NONE', #1280, #778, #1175 ) ;
#1198 = EDGE_CURVE ( 'NONE', #913, #1200, #364, .T. ) ;
#1199 = DIRECTION ( 'NONE',  ( 0.000000000000000000, 0.000000000000000000, -1.000000000000000000 ) ) ;
#1200 = VERTEX_POINT ( 'NONE', #659 ) ;
#1201 = CYLINDRICAL_SURFACE ( 'NONE', #1022, 4.000000000000000000 ) ;
#1202 = VERTEX_POINT ( 'NONE', #1135 ) ;
#1203 = CARTESIAN_POINT ( 'NONE',  ( -0.4000000000000010214, 2.061552812808830737, 5.438999999999999169 ) ) ;
#1204 = APPROVAL_PERSON_ORGANIZATION ( #481, #408, #1189 ) ;
#1205 = DIRECTION ( 'NONE',  ( 1.734723475976807094E-16, -0.000000000000000000, -1.000000000000000000 ) ) ;
#1206 = ORIENTED_EDGE ( 'NONE', *, *, #127, .F. ) ;
#1207 = DIRECTION ( 'NONE',  ( 0.000000000000000000, 0.000000000000000000, -1.000000000000000000 ) ) ;
#1208 = VERTEX_POINT ( 'NONE', #923 ) ;
#1209 = CARTESIAN_POINT ( 'NONE',  ( -0.4000000000000010214, -1.465013371386852947, 6.138999999999998458 ) ) ;
#1210 = CARTESIAN_POINT ( 'NONE',  ( -0.4000000000000010214, 2.061552812808830737, 5.139000000000001123 ) ) ;
#1211 = ORIENTED_EDGE ( 'NONE', *, *, #897, .T. ) ;
#1212 = CARTESIAN_POINT ( 'NONE',  ( -0.2246616384843262704, -3.125000000000000444, 0.8889999999395493679 ) ) ;
#1213 = ADVANCED_FACE ( 'NONE', ( #442 ), #1142, .F. ) ;
#1214 = APPLICATION_CONTEXT ( 'configuration controlled 3d designs of mechanical parts and assemblies' ) ;
#1215 = ORIENTED_EDGE ( 'NONE', *, *, #736, .T. ) ;
#1216 = LINE ( 'NONE', #415, #185 ) ;
#1217 = AXIS2_PLACEMENT_3D ( 'NONE', #386, #486, #1188 ) ;
#1218 = ORIENTED_EDGE ( 'NONE', *, *, #846, .T. ) ;
#1219 = CARTESIAN_POINT ( 'NONE',  ( -0.4980973490458714958, -3.174999999999999822, 2.595422128626172054 ) ) ;
#1220 = AXIS2_PLACEMENT_3D ( 'NONE', #362, #1205, #496 ) ;
#1221 = ORIENTED_EDGE ( 'NONE', *, *, #374, .T. ) ;
#1222 = DIRECTION ( 'NONE',  ( 1.000000000000000000, 0.000000000000000000, -1.084202172485504434E-16 ) ) ;
#1223 = EDGE_CURVE ( 'NONE', #587, #327, #357, .T. ) ;
#1224 = AXIS2_PLACEMENT_3D ( 'NONE', #825, #520, #896 ) ;
#1225 = ORIENTED_EDGE ( 'NONE', *, *, #860, .F. ) ;
#1226 = VERTEX_POINT ( 'NONE', #946 ) ;
#1227 = CARTESIAN_POINT ( 'NONE',  ( -4.000000000000000000, 0.000000000000000000, 0.01399999996465339791 ) ) ;
#1228 = EDGE_CURVE ( 'NONE', #857, #419, #292, .T. ) ;
#1229 = VERTEX_POINT ( 'NONE', #565 ) ;
#1230 = DIRECTION ( 'NONE',  ( -1.000000000000000000, 0.000000000000000000, 0.000000000000000000 ) ) ;
#1231 = ORIENTED_EDGE ( 'NONE', *, *, #541, .T. ) ;
#1232 = FACE_OUTER_BOUND ( 'NONE', #805, .T. ) ;
#1233 = AXIS2_PLACEMENT_3D ( 'NONE', #881, #784, #1088 ) ;
#1234 = CARTESIAN_POINT ( 'NONE',  ( 0.000000000000000000, 0.000000000000000000, 5.586213595499954110 ) ) ;
#1235 = AXIS2_PLACEMENT_3D ( 'NONE', #1234, #251, #266 ) ;
#1236 = EDGE_CURVE ( 'NONE', #1017, #632, #774, .T. ) ;
#1237 = ORIENTED_EDGE ( 'NONE', *, *, #956, .F. ) ;
#1238 = CARTESIAN_POINT ( 'NONE',  ( 0.4000000000000010214, -1.636557294430224907, 6.138999999999999346 ) ) ;
#1239 = VERTEX_POINT ( 'NONE', #193 ) ;
#1240 = DIRECTION ( 'NONE',  ( 0.000000000000000000, 0.000000000000000000, -1.000000000000000000 ) ) ;
#1241 = CARTESIAN_POINT ( 'NONE',  ( 0.000000000000000000, 3.124999999999999556, 0.8890000000000009006 ) ) ;
#1242 = CIRCLE ( 'NONE', #394, 4.000000000000000000 ) ;
#1243 = CC_DESIGN_APPROVAL ( #635, ( #282 ) ) ;
#1244 = CONICAL_SURFACE ( 'NONE', #21, 3.124999999966571185, 0.7853981634121329769 ) ;
#1245 = CARTESIAN_POINT ( 'NONE',  ( -0.4000000000000010214, -2.061552812808830293, 5.438999999999999169 ) ) ;
#1246 = CARTESIAN_POINT ( 'NONE',  ( -0.4871798639138812392, 2.042738866564660416, 2.470634702552897632 ) ) ;
#1247 = FACE_OUTER_BOUND ( 'NONE', #513, .T. ) ;
#1248 = ORIENTED_EDGE ( 'NONE', *, *, #987, .F. ) ;
#1249 = CARTESIAN_POINT ( 'NONE',  ( 0.000000000000000000, 0.000000000000000000, -0.8889999999999991243 ) ) ;
#1250 = EDGE_CURVE ( 'NONE', #307, #298, #1148, .T. ) ;
#1251 = DIRECTION ( 'NONE',  ( -1.000000000000000000, 0.000000000000000000, 0.000000000000000000 ) ) ;
#1252 = CIRCLE ( 'NONE', #471, 4.000000000000000000 ) ;
#1253 = APPROVAL_ROLE ( '' ) ;
#1254 = CARTESIAN_POINT ( 'NONE',  ( -0.4000000000000010214, 2.264950330581225302, 5.523072258617638397 ) ) ;
#1255 = ORIENTED_EDGE ( 'NONE', *, *, #302, .T. ) ;
#1256 = CARTESIAN_POINT ( 'NONE',  ( 0.000000000000000000, 0.000000000000000000, 5.586213595499954110 ) ) ;
#1257 = CARTESIAN_POINT ( 'NONE',  ( 0.4980973490458749930, -2.040073290564207831, 2.595422128626172054 ) ) ;
#1258 = CC_DESIGN_PERSON_AND_ORGANIZATION_ASSIGNMENT ( #1157, #562, ( #474 ) ) ;
#1259 = CIRCLE ( 'NONE', #641, 3.124999999938954609 ) ;
#1260 = APPROVAL_ROLE ( '' ) ;
#1261 = VECTOR ( 'NONE', #244, 1000.000000000000000 ) ;
#1262 = CARTESIAN_POINT ( 'NONE',  ( -0.4000000000000010214, -3.174999999999999822, 6.138999999999998458 ) ) ;
#1263 = ORIENTED_EDGE ( 'NONE', *, *, #96, .F. ) ;
#1264 = CARTESIAN_POINT ( 'NONE',  ( -0.2470723783330718848, -2.087434397081524118, 2.187282604411544984 ) ) ;
#1265 = TOROIDAL_SURFACE ( 'NONE', #604, 1.518638922964334226, 0.8000000000000000444 ) ;
#1266 = DIRECTION ( 'NONE',  ( 0.000000000000000000, 0.000000000000000000, -1.000000000000000000 ) ) ;
#1267 = EDGE_CURVE ( 'NONE', #50, #451, #768, .T. ) ;
#1268 = CARTESIAN_POINT ( 'NONE',  ( 0.4000000000000010769, -2.251060372992367054, 5.565166775064967375 ) ) ;
#1269 = CARTESIAN_POINT ( 'NONE',  ( 0.000000000000000000, 0.000000000000000000, 5.438999999999999169 ) ) ;
#1270 = VECTOR ( 'NONE', #573, 1000.000000000000114 ) ;
#1271 = ORIENTED_EDGE ( 'NONE', *, *, #555, .T. ) ;
#1272 = DIRECTION ( 'NONE',  ( -0.7071067811969312666, 0.000000000000000000, -0.7071067811761638788 ) ) ;
#1273 = CARTESIAN_POINT ( 'NONE',  ( -0.5734863112436878740, 2.021666578221208432, 3.457121909598164233 ) ) ;
#1274 = PERSON_AND_ORGANIZATION ( #644, #87 ) ;
#1275 = CARTESIAN_POINT ( 'NONE',  ( 0.000000000000000000, 0.000000000000000000, 0.8890000000000009006 ) ) ;
#1276 = VECTOR ( 'NONE', #287, 1000.000000000000000 ) ;
#1277 = ADVANCED_FACE ( 'NONE', ( #665 ), #1265, .T. ) ;
#1278 = ORIENTED_EDGE ( 'NONE', *, *, #645, .F. ) ;
#1279 = DIRECTION ( 'NONE',  ( 0.000000000000000000, 0.000000000000000000, 1.000000000000000000 ) ) ;
#1280 = CARTESIAN_POINT ( 'NONE',  ( 0.000000000000000000, 0.000000000000000000, -5.460999999999998522 ) ) ;
#1281 = VECTOR ( 'NONE', #1056, 1000.000000000000000 ) ;
#1282 = DIRECTION ( 'NONE',  ( -0.000000000000000000, -0.000000000000000000, -1.000000000000000000 ) ) ;
#1283 = VERTEX_POINT ( 'NONE', #477 ) ;
#1284 = DIRECTION ( 'NONE',  ( 0.000000000000000000, -1.000000000000000000, 0.000000000000000000 ) ) ;
#1285 = ADVANCED_FACE ( 'NONE', ( #483 ), #423, .T. ) ;
#1286 = DIRECTION ( 'NONE',  ( 0.000000000000000000, 0.000000000000000000, 1.000000000000000000 ) ) ;
#1287 = PERSON_AND_ORGANIZATION_ROLE ( 'design_supplier' ) ;
#1288 = DIRECTION ( 'NONE',  ( -0.000000000000000000, 1.000000000000000000, 0.000000000000000000 ) ) ;
ENDSEC;
END-ISO-10303-21;
