ISO-10303-21;
HEADER;
FILE_DESCRIPTION (( 'STEP AP203' ),
    '1' );
FILE_NAME ('228-2500-099.step',
    '2022-06-06T18:59:04',
    ( '' ),
    ( '' ),
    'SwSTEP 2.0',
    'SolidWorks 2021',
    '' );
FILE_SCHEMA (( 'CONFIG_CONTROL_DESIGN' ));
ENDSEC;

DATA;
#1 = CARTESIAN_POINT ( 'NONE',  ( -3.174999999999999822, 3.888253587292846081E-16, 0.000000000000000000 ) ) ;
#2 = EDGE_LOOP ( 'NONE', ( #261, #242, #640, #658, #392, #380, #996, #783, #655, #934 ) ) ;
#3 = EDGE_CURVE ( 'NONE', #469, #677, #563, .T. ) ;
#4 = VECTOR ( 'NONE', #227, 1000.000000000000000 ) ;
#5 = CIRCLE ( 'NONE', #906, 2.100000000000000089 ) ;
#6 = CARTESIAN_POINT ( 'NONE',  ( 0.000000000000000000, 0.000000000000000000, 5.439000000000000057 ) ) ;
#7 = CARTESIAN_POINT ( 'NONE',  ( 0.000000000000000000, 0.000000000000000000, 6.139000000000000234 ) ) ;
#8 = ORIENTED_EDGE ( 'NONE', *, *, #539, .T. ) ;
#9 = PERSON_AND_ORGANIZATION_ROLE ( 'design_owner' ) ;
#10 = EDGE_CURVE ( 'NONE', #113, #1045, #491, .T. ) ;
#11 = FACE_OUTER_BOUND ( 'NONE', #431, .T. ) ;
#12 = CARTESIAN_POINT ( 'NONE',  ( 0.4000000000000000777, -2.264950330581225302, 5.523072258617638397 ) ) ;
#13 = DIRECTION ( 'NONE',  ( -1.000000000000000000, 0.000000000000000000, 0.000000000000000000 ) ) ;
#14 = DIRECTION ( 'NONE',  ( -0.000000000000000000, -0.000000000000000000, 1.000000000000000000 ) ) ;
#15 = DIRECTION ( 'NONE',  ( 0.000000000000000000, 0.000000000000000000, -1.000000000000000000 ) ) ;
#16 = FACE_OUTER_BOUND ( 'NONE', #681, .T. ) ;
#17 = EDGE_LOOP ( 'NONE', ( #136, #384, #414, #1061 ) ) ;
#18 = AXIS2_PLACEMENT_3D ( 'NONE', #260, #340, #420 ) ;
#19 = ORIENTED_EDGE ( 'NONE', *, *, #239, .T. ) ;
#20 = DIRECTION ( 'NONE',  ( 0.000000000000000000, 0.000000000000000000, 1.000000000000000000 ) ) ;
#21 = EDGE_CURVE ( 'NONE', #928, #1035, #686, .T. ) ;
#22 = CARTESIAN_POINT ( 'NONE',  ( 0.4000000000000000777, -2.244114062671002774, 5.586213595499954998 ) ) ;
#23 = ORIENTED_EDGE ( 'NONE', *, *, #625, .F. ) ;
#24 = VERTEX_POINT ( 'NONE', #439 ) ;
#25 = DIRECTION ( 'NONE',  ( 0.000000000000000000, 0.000000000000000000, -1.000000000000000000 ) ) ;
#26 = CARTESIAN_POINT ( 'NONE',  ( 0.000000000000000000, 0.000000000000000000, -12.20270849898475873 ) ) ;
#27 = ORIENTED_EDGE ( 'NONE', *, *, #336, .F. ) ;
#28 = VERTEX_POINT ( 'NONE', #269 ) ;
#29 = CARTESIAN_POINT ( 'NONE',  ( -0.4000000000000000222, -2.061552812808830293, 5.439000000000000945 ) ) ;
#30 = DIRECTION ( 'NONE',  ( 0.000000000000000000, 0.000000000000000000, 1.000000000000000000 ) ) ;
#31 = EDGE_CURVE ( 'NONE', #319, #481, #943, .T. ) ;
#32 = VERTEX_POINT ( 'NONE', #759 ) ;
#33 = CIRCLE ( 'NONE', #443, 4.000000000000000000 ) ;
#34 = AXIS2_PLACEMENT_3D ( 'NONE', #137, #630, #365 ) ;
#35 = DIRECTION ( 'NONE',  ( -0.000000000000000000, -0.000000000000000000, -1.000000000000000000 ) ) ;
#36 = CC_DESIGN_SECURITY_CLASSIFICATION ( #289, ( #326 ) ) ;
#37 = CARTESIAN_POINT ( 'NONE',  ( 2.100000000000000089, 2.571758278209441957E-16, 5.439000000000000057 ) ) ;
#38 = EDGE_LOOP ( 'NONE', ( #244, #1016, #816, #100, #965, #969, #280, #1049, #798, #1003, #42, #208 ) ) ;
#39 = ADVANCED_FACE ( 'NONE', ( #188 ), #901, .T. ) ;
#40 = CARTESIAN_POINT ( 'NONE',  ( 0.000000000000000000, 0.000000000000000000, -0.1250000000000000000 ) ) ;
#41 = CARTESIAN_POINT ( 'NONE',  ( -0.5734863112436878740, 2.021666578221208432, 3.457121909598165121 ) ) ;
#42 = ORIENTED_EDGE ( 'NONE', *, *, #964, .T. ) ;
#43 = DIRECTION ( 'NONE',  ( 1.000000000000000000, 0.000000000000000000, 0.000000000000000000 ) ) ;
#44 = CARTESIAN_POINT ( 'NONE',  ( 0.4000000000000000777, -2.061552812808830293, 5.439000000000000945 ) ) ;
#45 = FACE_OUTER_BOUND ( 'NONE', #774, .T. ) ;
#46 = ORIENTED_EDGE ( 'NONE', *, *, #177, .T. ) ;
#47 = DIRECTION ( 'NONE',  ( 0.000000000000000000, 0.000000000000000000, 1.000000000000000000 ) ) ;
#48 = FACE_OUTER_BOUND ( 'NONE', #308, .T. ) ;
#49 = VECTOR ( 'NONE', #1033, 1000.000000000000000 ) ;
#50 = CIRCLE ( 'NONE', #594, 2.100000000000000089 ) ;
#51 = CARTESIAN_POINT ( 'NONE',  ( 0.4000000000000000777, 2.244114062671030752, 5.586213595499870621 ) ) ;
#52 = LOCAL_TIME ( 13, 59, 4.000000000000000000, #556 ) ;
#53 = ORIENTED_EDGE ( 'NONE', *, *, #1065, .F. ) ;
#54 = LINE ( 'NONE', #1046, #306 ) ;
#55 = CARTESIAN_POINT ( 'NONE',  ( 0.000000000000000000, 0.000000000000000000, 6.139000000000000234 ) ) ;
#56 = CARTESIAN_POINT ( 'NONE',  ( 0.4000000000000000777, 2.197165962000668937, 5.495012552331538735 ) ) ;
#57 = ORIENTED_EDGE ( 'NONE', *, *, #1055, .T. ) ;
#58 = CARTESIAN_POINT ( 'NONE',  ( -0.4000000000000000222, -2.251060372992385705, 5.565166775064911420 ) ) ;
#59 = CARTESIAN_POINT ( 'NONE',  ( -4.000000000000000000, 4.898587196589412829E-16, -0.1250000000000000000 ) ) ;
#60 = CARTESIAN_POINT ( 'NONE',  ( -0.1236690215010794736, 2.099990463092004767, 2.139040055015564601 ) ) ;
#61 = CC_DESIGN_PERSON_AND_ORGANIZATION_ASSIGNMENT ( #161, #489, ( #289 ) ) ;
#62 = VERTEX_POINT ( 'NONE', #1030 ) ;
#63 = DIRECTION ( 'NONE',  ( 0.000000000000000000, -1.000000000000000000, 0.000000000000000000 ) ) ;
#64 = ADVANCED_FACE ( 'NONE', ( #838 ), #285, .T. ) ;
#65 = CYLINDRICAL_SURFACE ( 'NONE', #85, 2.100000000000000089 ) ;
#66 = CARTESIAN_POINT ( 'NONE',  ( -0.4980973490458723840, 2.040073290564207831, 2.595422128626172054 ) ) ;
#67 = CIRCLE ( 'NONE', #674, 3.500000000000000000 ) ;
#68 = ORIENTED_EDGE ( 'NONE', *, *, #604, .F. ) ;
#69 = CALENDAR_DATE ( 2022, 6, 6 ) ;
#70 = EDGE_CURVE ( 'NONE', #504, #266, #335, .T. ) ;
#71 = CARTESIAN_POINT ( 'NONE',  ( 0.1236690215010808613, -2.099990463092003878, 2.139040055015563713 ) ) ;
#72 = CARTESIAN_POINT ( 'NONE',  ( -2.299999999999999822, 0.000000000000000000, 5.523072258617638397 ) ) ;
#73 = ORIENTED_EDGE ( 'NONE', *, *, #249, .T. ) ;
#74 = ORIENTED_EDGE ( 'NONE', *, *, #632, .T. ) ;
#75 = CARTESIAN_POINT ( 'NONE',  ( -0.4000000000000000222, -2.197165962000667605, 5.495012552331537847 ) ) ;
#76 = DIRECTION ( 'NONE',  ( 0.000000000000000000, 0.000000000000000000, 1.000000000000000000 ) ) ;
#77 = ORIENTED_EDGE ( 'NONE', *, *, #912, .T. ) ;
#78 = APPROVAL_DATE_TIME ( #994, #215 ) ;
#79 = CARTESIAN_POINT ( 'NONE',  ( -0.4980973490458723840, -2.040073290564207831, 2.595422128626172054 ) ) ;
#80 = CARTESIAN_POINT ( 'NONE',  ( 0.4980973490458738828, 2.040073290564206943, 2.595422128626172054 ) ) ;
#81 = EDGE_CURVE ( 'NONE', #893, #832, #98, .T. ) ;
#82 = ORIENTED_EDGE ( 'NONE', *, *, #366, .F. ) ;
#83 = COORDINATED_UNIVERSAL_TIME_OFFSET ( 6, 0, .BEHIND. ) ;
#84 = AXIS2_PLACEMENT_3D ( 'NONE', #779, #35, #357 ) ;
#85 = AXIS2_PLACEMENT_3D ( 'NONE', #739, #393, #718 ) ;
#86 = DIRECTION ( 'NONE',  ( -1.000000000000000000, 0.000000000000000000, -0.000000000000000000 ) ) ;
#87 = UNCERTAINTY_MEASURE_WITH_UNIT (LENGTH_MEASURE( 1.000000000000000082E-05 ), #238, 'distance_accuracy_value', 'NONE');
#88 = CARTESIAN_POINT ( 'NONE',  ( 0.4000000000000000777, -1.805457092722224877, 6.086801903958009241 ) ) ;
#89 = CARTESIAN_POINT ( 'NONE',  ( -0.4000000000000000222, -2.061552812808830737, 5.439000000000000057 ) ) ;
#90 =( NAMED_UNIT ( * ) SI_UNIT ( $, .STERADIAN. ) SOLID_ANGLE_UNIT ( ) );
#91 = CARTESIAN_POINT ( 'NONE',  ( 0.000000000000000000, 0.000000000000000000, 5.523072258617638397 ) ) ;
#92 = CARTESIAN_POINT ( 'NONE',  ( 0.4000000000000000777, -2.251060372992367498, 5.565166775064967375 ) ) ;
#93 = EDGE_LOOP ( 'NONE', ( #847, #183, #603, #1010 ) ) ;
#94 = ORIENTED_EDGE ( 'NONE', *, *, #958, .F. ) ;
#95 = EDGE_CURVE ( 'NONE', #560, #319, #386, .T. ) ;
#96 = PLANE ( 'NONE',  #956 ) ;
#97 = DIRECTION ( 'NONE',  ( -0.000000000000000000, -0.000000000000000000, 1.000000000000000000 ) ) ;
#98 = LINE ( 'NONE', #973, #577 ) ;
#99 = AXIS2_PLACEMENT_3D ( 'NONE', #7, #159, #315 ) ;
#100 = ORIENTED_EDGE ( 'NONE', *, *, #948, .T. ) ;
#101 = AXIS2_PLACEMENT_3D ( 'NONE', #321, #1066, #158 ) ;
#102 = ADVANCED_FACE ( 'NONE', ( #45 ), #368, .T. ) ;
#103 = DIRECTION ( 'NONE',  ( -0.000000000000000000, -0.000000000000000000, 1.000000000000000000 ) ) ;
#104 = CARTESIAN_POINT ( 'NONE',  ( 0.000000000000000000, 0.000000000000000000, 5.523072258617638397 ) ) ;
#105 = ORIENTED_EDGE ( 'NONE', *, *, #618, .F. ) ;
#106 = ORIENTED_EDGE ( 'NONE', *, *, #722, .T. ) ;
#107 = CYLINDRICAL_SURFACE ( 'NONE', #689, 4.000000000000000000 ) ;
#108 = CARTESIAN_POINT ( 'NONE',  ( 0.000000000000000000, 0.000000000000000000, 0.8890000000000000124 ) ) ;
#109 = ORIENTED_EDGE ( 'NONE', *, *, #748, .F. ) ;
#110 = DIRECTION ( 'NONE',  ( 0.000000000000000000, 0.000000000000000000, 1.000000000000000000 ) ) ;
#111 = CARTESIAN_POINT ( 'NONE',  ( 0.000000000000000000, 0.000000000000000000, -0.03900000000000008321 ) ) ;
#112 = ADVANCED_FACE ( 'NONE', ( #951 ), #363, .F. ) ;
#113 = VERTEX_POINT ( 'NONE', #785 ) ;
#114 = AXIS2_PLACEMENT_3D ( 'NONE', #622, #358, #1034 ) ;
#115 = CIRCLE ( 'NONE', #447, 2.100000000000000089 ) ;
#116 = DIRECTION ( 'NONE',  ( 1.000000000000000000, 0.000000000000000000, 0.000000000000000000 ) ) ;
#117 = ORGANIZATION ( 'UNSPECIFIED', 'UNSPECIFIED', '' ) ;
#118 = CARTESIAN_POINT ( 'NONE',  ( 0.7206315775864680084, -3.174999999999999822, 5.138999999999997570 ) ) ;
#119 = ORIENTED_EDGE ( 'NONE', *, *, #714, .T. ) ;
#120 = DIRECTION ( 'NONE',  ( -1.000000000000000000, 0.000000000000000000, -0.000000000000000000 ) ) ;
#121 = DIRECTION ( 'NONE',  ( 0.000000000000000000, 0.000000000000000000, -1.000000000000000000 ) ) ;
#122 = DIRECTION ( 'NONE',  ( -1.000000000000000000, 0.000000000000000000, 0.000000000000000000 ) ) ;
#123 = ORIENTED_EDGE ( 'NONE', *, *, #452, .F. ) ;
#124 = DIRECTION ( 'NONE',  ( -0.000000000000000000, -0.000000000000000000, -1.000000000000000000 ) ) ;
#125 = EDGE_CURVE ( 'NONE', #768, #832, #33, .T. ) ;
#126 = DIRECTION ( 'NONE',  ( -1.000000000000000000, 0.000000000000000000, 0.000000000000000000 ) ) ;
#127 = CARTESIAN_POINT ( 'NONE',  ( 0.4000000000000000777, 2.083054853492929404, 5.891603799368007266 ) ) ;
#128 = EDGE_LOOP ( 'NONE', ( #1068, #1015, #702, #27 ) ) ;
#129 = DIRECTION ( 'NONE',  ( 1.000000000000000000, 0.000000000000000000, -8.260587980841937794E-15 ) ) ;
#130 = AXIS2_PLACEMENT_3D ( 'NONE', #747, #999, #1059 ) ;
#131 = EDGE_CURVE ( 'NONE', #910, #391, #212, .T. ) ;
#132 = CARTESIAN_POINT ( 'NONE',  ( -0.4000000000000000222, 2.264950330581225302, 5.523072258617638397 ) ) ;
#133 = AXIS2_PLACEMENT_3D ( 'NONE', #55, #110, #458 ) ;
#134 = VECTOR ( 'NONE', #730, 1000.000000000000000 ) ;
#135 = DIRECTION ( 'NONE',  ( 1.000000000000000000, 0.000000000000000000, 0.000000000000000000 ) ) ;
#136 = ORIENTED_EDGE ( 'NONE', *, *, #303, .F. ) ;
#137 = CARTESIAN_POINT ( 'NONE',  ( 0.000000000000000000, 0.000000000000000000, 5.139000000000003787 ) ) ;
#138 = CARTESIAN_POINT ( 'NONE',  ( -0.3999999999999999667, -1.465013371386852947, 6.139000000000000234 ) ) ;
#139 = CARTESIAN_POINT ( 'NONE',  ( -0.7206315775864664541, -1.972483239316684678, 5.138999999999997570 ) ) ;
#140 = ADVANCED_FACE ( 'NONE', ( #375 ), #196, .F. ) ;
#141 = ORIENTED_EDGE ( 'NONE', *, *, #190, .F. ) ;
#142 = CARTESIAN_POINT ( 'NONE',  ( -0.4000000000000000222, -2.244114062671030752, 5.586213595499870621 ) ) ;
#143 = PLANE ( 'NONE',  #651 ) ;
#144 = CARTESIAN_POINT ( 'NONE',  ( 0.7206315775864680084, -1.972483239316684234, 5.138999999999997570 ) ) ;
#145 = EDGE_CURVE ( 'NONE', #271, #859, #666, .T. ) ;
#146 = VERTEX_POINT ( 'NONE', #885 ) ;
#147 = DATE_TIME_ROLE ( 'creation_date' ) ;
#148 = TOROIDAL_SURFACE ( 'NONE', #561, 1.518638922964334226, 0.8000000000000000444 ) ;
#149 = CARTESIAN_POINT ( 'NONE',  ( -0.4000000000000000222, -3.174999999999999822, 5.139000000000000234 ) ) ;
#150 = VECTOR ( 'NONE', #1024, 1000.000000000000000 ) ;
#151 = AXIS2_PLACEMENT_3D ( 'NONE', #413, #926, #752 ) ;
#152 = AXIS2_PLACEMENT_3D ( 'NONE', #337, #25, #267 ) ;
#153 = VERTEX_POINT ( 'NONE', #701 ) ;
#154 = COORDINATED_UNIVERSAL_TIME_OFFSET ( 6, 0, .BEHIND. ) ;
#155 = LINE ( 'NONE', #398, #849 ) ;
#156 = DIRECTION ( 'NONE',  ( -0.3090169943749442316, 0.000000000000000000, -0.9510565162951545304 ) ) ;
#157 = ORIENTED_EDGE ( 'NONE', *, *, #547, .T. ) ;
#158 = DIRECTION ( 'NONE',  ( -0.08715574274765176821, 0.000000000000000000, -0.9961946980917461003 ) ) ;
#159 = DIRECTION ( 'NONE',  ( 0.000000000000000000, 0.000000000000000000, 1.000000000000000000 ) ) ;
#160 = ORIENTED_EDGE ( 'NONE', *, *, #172, .F. ) ;
#161 = PERSON_AND_ORGANIZATION ( #219, #117 ) ;
#162 = DIRECTION ( 'NONE',  ( 1.000000000000000000, 0.000000000000000000, 8.115498896123205041E-15 ) ) ;
#163 = ADVANCED_FACE ( 'NONE', ( #874 ), #165, .T. ) ;
#164 = DIRECTION ( 'NONE',  ( -1.000000000000000000, 0.000000000000000000, 0.000000000000000000 ) ) ;
#165 = TOROIDAL_SURFACE ( 'NONE', #304, 3.500000000000000000, 0.5000000000000000000 ) ;
#166 = ORIENTED_EDGE ( 'NONE', *, *, #559, .T. ) ;
#167 = APPLICATION_PROTOCOL_DEFINITION ( 'international standard', 'config_control_design', 1994, #652 ) ;
#168 = DIRECTION ( 'NONE',  ( -0.9961946980917461003, 0.000000000000000000, -0.08715574274765176821 ) ) ;
#169 = CARTESIAN_POINT ( 'NONE',  ( 2.424999999999999822, 2.969768487932330991E-16, -0.8890000000000000124 ) ) ;
#170 = EDGE_CURVE ( 'NONE', #893, #32, #923, .T. ) ;
#171 = ORIENTED_EDGE ( 'NONE', *, *, #468, .F. ) ;
#172 = EDGE_CURVE ( 'NONE', #915, #841, #869, .T. ) ;
#173 = ORIENTED_EDGE ( 'NONE', *, *, #804, .T. ) ;
#174 = FACE_OUTER_BOUND ( 'NONE', #348, .T. ) ;
#175 = DIRECTION ( 'NONE',  ( 1.000000000000000000, 0.000000000000000000, 0.000000000000000000 ) ) ;
#176 = CARTESIAN_POINT ( 'NONE',  ( 0.000000000000000000, 0.000000000000000000, 5.523072258617638397 ) ) ;
#177 = EDGE_CURVE ( 'NONE', #619, #587, #726, .T. ) ;
#178 = EDGE_LOOP ( 'NONE', ( #709, #591, #738, #537 ) ) ;
#179 = PLANE ( 'NONE',  #924 ) ;
#180 = CARTESIAN_POINT ( 'NONE',  ( -4.000000000000000000, 4.898587196589412829E-16, -12.20270849898475873 ) ) ;
#181 = ORIENTED_EDGE ( 'NONE', *, *, #599, .T. ) ;
#182 = AXIS2_PLACEMENT_3D ( 'NONE', #808, #813, #553 ) ;
#183 = ORIENTED_EDGE ( 'NONE', *, *, #366, .T. ) ;
#184 = CONICAL_SURFACE ( 'NONE', #708, 2.299999999999999822, 0.3141592653589760364 ) ;
#185 = AXIS2_PLACEMENT_3D ( 'NONE', #757, #751, #15 ) ;
#186 = LOCAL_TIME ( 13, 59, 4.000000000000000000, #83 ) ;
#187 = DIRECTION ( 'NONE',  ( 1.000000000000000000, 0.000000000000000000, -0.000000000000000000 ) ) ;
#188 = FACE_OUTER_BOUND ( 'NONE', #607, .T. ) ;
#189 = ORIENTED_EDGE ( 'NONE', *, *, #131, .T. ) ;
#190 = EDGE_CURVE ( 'NONE', #28, #146, #201, .T. ) ;
#191 = FACE_OUTER_BOUND ( 'NONE', #688, .T. ) ;
#192 = ORIENTED_EDGE ( 'NONE', *, *, #316, .T. ) ;
#193 = DATE_AND_TIME ( #411, #186 ) ;
#194 = VERTEX_POINT ( 'NONE', #963 ) ;
#195 = LINE ( 'NONE', #884, #407 ) ;
#196 = PLANE ( 'NONE',  #815 ) ;
#197 = ORIENTED_EDGE ( 'NONE', *, *, #1064, .F. ) ;
#198 = CARTESIAN_POINT ( 'NONE',  ( 0.000000000000000000, 0.000000000000000000, -0.03900000000000008321 ) ) ;
#199 = CONICAL_SURFACE ( 'NONE', #218, 2.100000000000000089, 1.172861257340199304 ) ;
#200 = DIRECTION ( 'NONE',  ( 0.000000000000000000, 0.000000000000000000, -1.000000000000000000 ) ) ;
#201 = LINE ( 'NONE', #532, #864 ) ;
#202 = EDGE_CURVE ( 'NONE', #1008, #391, #743, .T. ) ;
#203 = VERTEX_POINT ( 'NONE', #697 ) ;
#204 = CARTESIAN_POINT ( 'NONE',  ( -0.4000000000000000222, 2.258005787487189497, 5.544119660093905999 ) ) ;
#205 = CARTESIAN_POINT ( 'NONE',  ( 0.000000000000000000, 0.000000000000000000, 5.139000000000003787 ) ) ;
#206 = CARTESIAN_POINT ( 'NONE',  ( 0.4000000000000001332, 1.804720025119730842, 6.086959004245601434 ) ) ;
#207 = B_SPLINE_CURVE_WITH_KNOTS ( 'NONE', 3,
 ( #66, #641, #390, #990, #60, #483, #1067, #235, #328, #80 ),
 .UNSPECIFIED., .F., .F.,
 ( 4, 2, 2, 2, 4 ),
 ( 0.000000000000000000, 0.0003704147845104415349, 0.0007408295690208830699, 0.001111244353531324822, 0.001481659138041766573 ),
 .UNSPECIFIED. ) ;
#208 = ORIENTED_EDGE ( 'NONE', *, *, #202, .T. ) ;
#209 = CARTESIAN_POINT ( 'NONE',  ( 3.174999999999999822, 0.000000000000000000, 0.8890000000000000124 ) ) ;
#210 = EDGE_CURVE ( 'NONE', #1035, #469, #419, .T. ) ;
#211 = DIRECTION ( 'NONE',  ( -1.000000000000000000, 0.000000000000000000, -0.000000000000000000 ) ) ;
#212 = LINE ( 'NONE', #37, #475 ) ;
#213 = ORIENTED_EDGE ( 'NONE', *, *, #804, .F. ) ;
#214 = DIRECTION ( 'NONE',  ( -0.000000000000000000, -0.000000000000000000, -1.000000000000000000 ) ) ;
#215 = APPROVAL ( #898, 'UNSPECIFIED' ) ;
#216 = AXIS2_PLACEMENT_3D ( 'NONE', #503, #347, #343 ) ;
#217 = DIRECTION ( 'NONE',  ( -0.000000000000000000, -0.000000000000000000, -1.000000000000000000 ) ) ;
#218 = AXIS2_PLACEMENT_3D ( 'NONE', #839, #930, #763 ) ;
#219 = PERSON ( 'UNSPECIFIED', 'UNSPECIFIED', 'UNSPECIFIED', ('UNSPECIFIED'), ('UNSPECIFIED'), ('UNSPECIFIED') ) ;
#220 = AXIS2_PLACEMENT_3D ( 'NONE', #313, #14, #576 ) ;
#221 = DIRECTION ( 'NONE',  ( -0.000000000000000000, -0.000000000000000000, -1.000000000000000000 ) ) ;
#222 = EDGE_LOOP ( 'NONE', ( #810, #256, #1026, #82, #741 ) ) ;
#223 = CARTESIAN_POINT ( 'NONE',  ( -0.4282819678817708087, -2.057911970479199937, 2.353224001008315636 ) ) ;
#224 = CARTESIAN_POINT ( 'NONE',  ( 0.4000000000000000222, -3.174999999999999822, 5.139000000000000234 ) ) ;
#225 = ORIENTED_EDGE ( 'NONE', *, *, #95, .F. ) ;
#226 = CARTESIAN_POINT ( 'NONE',  ( -0.4000000000000000222, -2.264950330581225302, 5.523072258617638397 ) ) ;
#227 = DIRECTION ( 'NONE',  ( -0.000000000000000000, -0.000000000000000000, 1.000000000000000000 ) ) ;
#228 = DIRECTION ( 'NONE',  ( 1.000000000000000000, 0.000000000000000000, 0.000000000000000000 ) ) ;
#229 = CC_DESIGN_PERSON_AND_ORGANIZATION_ASSIGNMENT ( #231, #9, ( #988 ) ) ;
#230 = ORIENTED_EDGE ( 'NONE', *, *, #416, .T. ) ;
#231 = PERSON_AND_ORGANIZATION ( #219, #117 ) ;
#232 = ORIENTED_EDGE ( 'NONE', *, *, #883, .F. ) ;
#233 = AXIS2_PLACEMENT_3D ( 'NONE', #322, #654, #570 ) ;
#234 = CARTESIAN_POINT ( 'NONE',  ( -0.3999999999999999667, 1.465013371386852947, 6.139000000000000234 ) ) ;
#235 = CARTESIAN_POINT ( 'NONE',  ( 0.4282819678817720299, 2.057911970479199049, 2.353224001008315192 ) ) ;
#236 = AXIS2_PLACEMENT_3D ( 'NONE', #294, #600, #116 ) ;
#237 = ORIENTED_EDGE ( 'NONE', *, *, #31, .F. ) ;
#238 =( LENGTH_UNIT ( ) NAMED_UNIT ( * ) SI_UNIT ( .MILLI., .METRE. ) );
#239 = EDGE_CURVE ( 'NONE', #512, #1053, #670, .T. ) ;
#240 = CARTESIAN_POINT ( 'NONE',  ( -0.4000000000000000222, -2.264950330581225302, 5.523072258617638397 ) ) ;
#241 = DIRECTION ( 'NONE',  ( 1.000000000000000000, 0.000000000000000000, -1.084202172485504434E-16 ) ) ;
#242 = ORIENTED_EDGE ( 'NONE', *, *, #438, .T. ) ;
#243 = PERSON_AND_ORGANIZATION_ROLE ( 'design_supplier' ) ;
#244 = ORIENTED_EDGE ( 'NONE', *, *, #131, .F. ) ;
#245 = DIRECTION ( 'NONE',  ( 0.000000000000000000, 0.000000000000000000, 1.000000000000000000 ) ) ;
#246 = CARTESIAN_POINT ( 'NONE',  ( -0.3999999999999999667, 1.465013371386852947, 6.139000000000000234 ) ) ;
#247 = ORIENTED_EDGE ( 'NONE', *, *, #353, .T. ) ;
#248 = CYLINDRICAL_SURFACE ( 'NONE', #220, 4.000000000000000000 ) ;
#249 = EDGE_CURVE ( 'NONE', #1053, #619, #831, .T. ) ;
#250 = DIRECTION ( 'NONE',  ( -8.115498896123205041E-15, 0.000000000000000000, 1.000000000000000000 ) ) ;
#251 = ADVANCED_FACE ( 'NONE', ( #394 ), #307, .F. ) ;
#252 = CARTESIAN_POINT ( 'NONE',  ( -0.4000000000000001332, 1.636557294430225573, 6.139000000000002899 ) ) ;
#253 = AXIS2_PLACEMENT_3D ( 'NONE', #627, #617, #279 ) ;
#254 = VERTEX_POINT ( 'NONE', #144 ) ;
#255 = AXIS2_PLACEMENT_3D ( 'NONE', #327, #103, #935 ) ;
#256 = ORIENTED_EDGE ( 'NONE', *, *, #547, .F. ) ;
#257 = CARTESIAN_POINT ( 'NONE',  ( 0.4000000000000000777, 2.061552812808830293, 5.439000000000000945 ) ) ;
#258 = LINE ( 'NONE', #180, #351 ) ;
#259 = EDGE_CURVE ( 'NONE', #254, #473, #892, .T. ) ;
#260 = CARTESIAN_POINT ( 'NONE',  ( 0.000000000000000000, 0.000000000000000000, 5.586213595499954110 ) ) ;
#261 = ORIENTED_EDGE ( 'NONE', *, *, #520, .T. ) ;
#262 = FACE_OUTER_BOUND ( 'NONE', #93, .T. ) ;
#263 = CARTESIAN_POINT ( 'NONE',  ( -0.4000000000000000222, 2.264950330581225302, 5.523072258617638397 ) ) ;
#264 = ADVANCED_FACE ( 'NONE', ( #980 ), #352, .T. ) ;
#265 = EDGE_LOOP ( 'NONE', ( #181, #401, #488, #528 ) ) ;
#266 = VERTEX_POINT ( 'NONE', #985 ) ;
#267 = DIRECTION ( 'NONE',  ( -1.000000000000000000, 0.000000000000000000, 0.000000000000000000 ) ) ;
#268 = DIRECTION ( 'NONE',  ( -0.000000000000000000, -0.000000000000000000, 1.000000000000000000 ) ) ;
#269 = CARTESIAN_POINT ( 'NONE',  ( -2.424999999999999822, 0.000000000000000000, -0.03900000000000008321 ) ) ;
#270 = CIRCLE ( 'NONE', #233, 2.279484136000458516 ) ;
#271 = VERTEX_POINT ( 'NONE', #477 ) ;
#272 = AXIS2_PLACEMENT_3D ( 'NONE', #40, #121, #794 ) ;
#273 = CIRCLE ( 'NONE', #185, 0.5000000000000000000 ) ;
#274 = DIRECTION ( 'NONE',  ( -0.000000000000000000, -0.000000000000000000, -1.000000000000000000 ) ) ;
#275 = EDGE_LOOP ( 'NONE', ( #766, #555, #661, #23 ) ) ;
#276 = EDGE_LOOP ( 'NONE', ( #590, #863, #46, #171, #947, #533 ) ) ;
#277 = EDGE_CURVE ( 'NONE', #902, #370, #460, .T. ) ;
#278 = CARTESIAN_POINT ( 'NONE',  ( -0.4000000000000000222, -2.264950330581225302, 5.523072258617638397 ) ) ;
#279 = DIRECTION ( 'NONE',  ( -1.000000000000000000, 0.000000000000000000, 0.000000000000000000 ) ) ;
#280 = ORIENTED_EDGE ( 'NONE', *, *, #282, .T. ) ;
#281 = DIRECTION ( 'NONE',  ( 0.000000000000000000, 0.000000000000000000, -1.000000000000000000 ) ) ;
#282 = EDGE_CURVE ( 'NONE', #852, #560, #698, .T. ) ;
#283 = ORIENTED_EDGE ( 'NONE', *, *, #714, .F. ) ;
#284 = LINE ( 'NONE', #970, #940 ) ;
#285 = CONICAL_SURFACE ( 'NONE', #954, 2.299999999999999822, 0.3141592653589760364 ) ;
#286 = VECTOR ( 'NONE', #865, 1000.000000000000000 ) ;
#287 = AXIS2_PLACEMENT_3D ( 'NONE', #507, #1022, #836 ) ;
#288 = DIRECTION ( 'NONE',  ( 8.115498896123167176E-15, 0.000000000000000000, 1.000000000000000000 ) ) ;
#289 = SECURITY_CLASSIFICATION ( '', '', #916 ) ;
#290 = DIRECTION ( 'NONE',  ( -1.224646799147353207E-16, 1.000000000000000000, 0.000000000000000000 ) ) ;
#291 = ADVANCED_FACE ( 'NONE', ( #735 ), #148, .T. ) ;
#292 = EDGE_LOOP ( 'NONE', ( #68, #77, #160, #74 ) ) ;
#293 = CARTESIAN_POINT ( 'NONE',  ( -0.4000000000000000222, 2.264950330581225302, 5.523072258617638397 ) ) ;
#294 = CARTESIAN_POINT ( 'NONE',  ( 0.000000000000000000, 0.000000000000000000, 5.439000000000000057 ) ) ;
#295 = CARTESIAN_POINT ( 'NONE',  ( 0.4000000000000001332, 1.636596142952232658, 6.138999999999999346 ) ) ;
#296 = ORIENTED_EDGE ( 'NONE', *, *, #3, .F. ) ;
#297 = CARTESIAN_POINT ( 'NONE',  ( 0.000000000000000000, 0.000000000000000000, 0.8890000000000000124 ) ) ;
#298 = CARTESIAN_POINT ( 'NONE',  ( -0.2470723783330712742, -2.087434397081524118, 2.187282604411543652 ) ) ;
#299 = DIRECTION ( 'NONE',  ( -0.000000000000000000, -0.000000000000000000, 1.000000000000000000 ) ) ;
#300 = ORIENTED_EDGE ( 'NONE', *, *, #190, .T. ) ;
#301 = CARTESIAN_POINT ( 'NONE',  ( -0.3999999999999999667, -1.465013371386852947, 6.139000000000000234 ) ) ;
#302 = VECTOR ( 'NONE', #156, 1000.000000000000114 ) ;
#303 = EDGE_CURVE ( 'NONE', #677, #24, #922, .T. ) ;
#304 = AXIS2_PLACEMENT_3D ( 'NONE', #790, #957, #713 ) ;
#305 = LINE ( 'NONE', #734, #711 ) ;
#306 = VECTOR ( 'NONE', #966, 1000.000000000000000 ) ;
#307 = PLANE ( 'NONE',  #320 ) ;
#308 = EDGE_LOOP ( 'NONE', ( #760, #732, #8, #450, #344, #880, #237, #478, #675, #500 ) ) ;
#309 = CARTESIAN_POINT ( 'NONE',  ( -0.4000000000000000222, -1.636596142952232658, 6.138999999999999346 ) ) ;
#310 = DIRECTION ( 'NONE',  ( -0.000000000000000000, -0.000000000000000000, -1.000000000000000000 ) ) ;
#311 = CARTESIAN_POINT ( 'NONE',  ( -0.4980973490458723840, -2.040073290564207831, 2.595422128626172054 ) ) ;
#312 = EDGE_LOOP ( 'NONE', ( #595, #993, #354, #1005, #1073, #543 ) ) ;
#313 = CARTESIAN_POINT ( 'NONE',  ( 0.000000000000000000, 0.000000000000000000, -12.20270849898475873 ) ) ;
#314 = LINE ( 'NONE', #1, #4 ) ;
#315 = DIRECTION ( 'NONE',  ( 1.000000000000000000, 0.000000000000000000, 0.000000000000000000 ) ) ;
#316 = EDGE_CURVE ( 'NONE', #928, #203, #761, .T. ) ;
#317 = ORIENTED_EDGE ( 'NONE', *, *, #905, .F. ) ;
#318 = FACE_OUTER_BOUND ( 'NONE', #265, .T. ) ;
#319 = VERTEX_POINT ( 'NONE', #740 ) ;
#320 = AXIS2_PLACEMENT_3D ( 'NONE', #224, #241, #909 ) ;
#321 = CARTESIAN_POINT ( 'NONE',  ( 0.4980973490458738828, -3.174999999999999822, 2.595422128626172054 ) ) ;
#322 = CARTESIAN_POINT ( 'NONE',  ( 0.000000000000000000, 0.000000000000000000, 5.586213595499954110 ) ) ;
#323 = CIRCLE ( 'NONE', #649, 2.299999999999999822 ) ;
#324 = EDGE_LOOP ( 'NONE', ( #944, #189, #937, #855, #1031, #575, #464, #329, #635, #1038, #938, #247 ) ) ;
#325 = DIRECTION ( 'NONE',  ( -1.000000000000000000, 0.000000000000000000, 0.000000000000000000 ) ) ;
#326 = PRODUCT_DEFINITION_FORMATION_WITH_SPECIFIED_SOURCE ( 'ANY', '', #988, .NOT_KNOWN. ) ;
#327 = CARTESIAN_POINT ( 'NONE',  ( 0.000000000000000000, 0.000000000000000000, 0.8890000000000000124 ) ) ;
#328 = CARTESIAN_POINT ( 'NONE',  ( 0.4871800118523839096, 2.042738830444499776, 2.470636393497686711 ) ) ;
#329 = ORIENTED_EDGE ( 'NONE', *, *, #145, .T. ) ;
#330 = APPROVAL_STATUS ( 'not_yet_approved' ) ;
#331 = APPROVAL ( #359, 'UNSPECIFIED' ) ;
#332 = EDGE_CURVE ( 'NONE', #888, #571, #706, .T. ) ;
#333 = PLANE ( 'NONE',  #866 ) ;
#334 = DIRECTION ( 'NONE',  ( 1.000000000000000000, 0.000000000000000000, 0.000000000000000000 ) ) ;
#335 = LINE ( 'NONE', #667, #427 ) ;
#336 = EDGE_CURVE ( 'NONE', #859, #1021, #207, .T. ) ;
#337 = CARTESIAN_POINT ( 'NONE',  ( 0.000000000000000000, 0.000000000000000000, -0.03900000000000008321 ) ) ;
#338 = CARTESIAN_POINT ( 'NONE',  ( 0.4000000000000000777, -2.244114062671002774, 5.586213595499954998 ) ) ;
#339 = AXIS2_PLACEMENT_3D ( 'NONE', #932, #601, #946 ) ;
#340 = DIRECTION ( 'NONE',  ( -0.000000000000000000, -0.000000000000000000, -1.000000000000000000 ) ) ;
#341 = EDGE_LOOP ( 'NONE', ( #173, #843 ) ) ;
#342 = DIRECTION ( 'NONE',  ( 0.000000000000000000, 0.000000000000000000, -1.000000000000000000 ) ) ;
#343 = DIRECTION ( 'NONE',  ( -1.000000000000000000, 0.000000000000000000, 0.000000000000000000 ) ) ;
#344 = ORIENTED_EDGE ( 'NONE', *, *, #919, .T. ) ;
#345 = ORIENTED_EDGE ( 'NONE', *, *, #877, .F. ) ;
#346 = DIRECTION ( 'NONE',  ( 1.000000000000000000, 0.000000000000000000, -0.000000000000000000 ) ) ;
#347 = DIRECTION ( 'NONE',  ( 0.000000000000000000, 0.000000000000000000, -1.000000000000000000 ) ) ;
#348 = EDGE_LOOP ( 'NONE', ( #436, #192, #827 ) ) ;
#349 = ORIENTED_EDGE ( 'NONE', *, *, #170, .F. ) ;
#350 = CARTESIAN_POINT ( 'NONE',  ( 0.4000000000000000777, -2.084619459966333022, 5.890142440417392322 ) ) ;
#351 = VECTOR ( 'NONE', #920, 1000.000000000000000 ) ;
#352 = TOROIDAL_SURFACE ( 'NONE', #646, 1.518638922964334226, 0.8000000000000000444 ) ;
#353 = EDGE_CURVE ( 'NONE', #266, #841, #566, .T. ) ;
#354 = ORIENTED_EDGE ( 'NONE', *, *, #303, .T. ) ;
#355 = AXIS2_PLACEMENT_3D ( 'NONE', #967, #200, #784 ) ;
#356 = CIRCLE ( 'NONE', #819, 2.424999999999999822 ) ;
#357 = DIRECTION ( 'NONE',  ( -1.000000000000000000, 0.000000000000000000, 0.000000000000000000 ) ) ;
#358 = DIRECTION ( 'NONE',  ( -8.115498896123205041E-15, 0.000000000000000000, 1.000000000000000000 ) ) ;
#359 = APPROVAL_STATUS ( 'not_yet_approved' ) ;
#360 = ORIENTED_EDGE ( 'NONE', *, *, #210, .F. ) ;
#361 = CARTESIAN_POINT ( 'NONE',  ( 0.4000000000000000777, 2.258005787487199267, 5.544119660093877577 ) ) ;
#362 = B_SPLINE_CURVE_WITH_KNOTS ( 'NONE', 3,
 ( #860, #704, #361, #1036 ),
 .UNSPECIFIED., .F., .F.,
 ( 4, 4 ),
 ( 0.003692359630608450100, 0.003758849537120530215 ),
 .UNSPECIFIED. ) ;
#363 = CYLINDRICAL_SURFACE ( 'NONE', #628, 2.424999999999999822 ) ;
#364 = ORIENTED_EDGE ( 'NONE', *, *, #722, .F. ) ;
#365 = DIRECTION ( 'NONE',  ( 1.000000000000000000, 0.000000000000000000, 8.260587980841937794E-15 ) ) ;
#366 = EDGE_CURVE ( 'NONE', #1053, #582, #270, .T. ) ;
#367 = CARTESIAN_POINT ( 'NONE',  ( 0.4000000000000000777, -2.197165961088450192, 5.495012551953920799 ) ) ;
#368 = CYLINDRICAL_SURFACE ( 'NONE', #1040, 3.174999999999999822 ) ;
#369 = AXIS2_PLACEMENT_3D ( 'NONE', #771, #97, #584 ) ;
#370 = VERTEX_POINT ( 'NONE', #914 ) ;
#371 = FACE_OUTER_BOUND ( 'NONE', #455, .T. ) ;
#372 = AXIS2_PLACEMENT_3D ( 'NONE', #205, #288, #962 ) ;
#373 = AXIS2_PLACEMENT_3D ( 'NONE', #417, #608, #583 ) ;
#374 = DIRECTION ( 'NONE',  ( -0.000000000000000000, 0.000000000000000000, 1.000000000000000000 ) ) ;
#375 = FACE_OUTER_BOUND ( 'NONE', #275, .T. ) ;
#376 = ORIENTED_EDGE ( 'NONE', *, *, #599, .F. ) ;
#377 = CARTESIAN_POINT ( 'NONE',  ( -0.4980973490458723840, -3.174999999999999822, 2.595422128626172054 ) ) ;
#378 = CARTESIAN_POINT ( 'NONE',  ( 0.000000000000000000, 0.000000000000000000, -0.03900000000000008321 ) ) ;
#379 = CARTESIAN_POINT ( 'NONE',  ( 0.4000000000000000777, 2.061552812808830293, 5.439000000000000945 ) ) ;
#380 = ORIENTED_EDGE ( 'NONE', *, *, #172, .T. ) ;
#381 = CARTESIAN_POINT ( 'NONE',  ( 7.159537313604871156E-16, -3.174999999999999822, 2.638999999999998014 ) ) ;
#382 = CARTESIAN_POINT ( 'NONE',  ( 0.000000000000000000, 0.000000000000000000, 5.439000000000000945 ) ) ;
#383 = DIRECTION ( 'NONE',  ( 1.000000000000000000, 0.000000000000000000, 0.000000000000000000 ) ) ;
#384 = ORIENTED_EDGE ( 'NONE', *, *, #958, .T. ) ;
#385 = CARTESIAN_POINT ( 'NONE',  ( 0.000000000000000000, 0.000000000000000000, -0.1250000000000000000 ) ) ;
#386 = CIRCLE ( 'NONE', #114, 2.100000000000000089 ) ;
#387 = DIRECTION ( 'NONE',  ( 0.000000000000000000, 0.000000000000000000, -1.000000000000000000 ) ) ;
#388 = CIRCLE ( 'NONE', #975, 2.100000000000000089 ) ;
#389 = APPROVAL_PERSON_ORGANIZATION ( #1074, #215, #474 ) ;
#390 = CARTESIAN_POINT ( 'NONE',  ( -0.4286119346557864529, 2.057850353472996385, 2.353605336466519926 ) ) ;
#391 = VERTEX_POINT ( 'NONE', #487 ) ;
#392 = ORIENTED_EDGE ( 'NONE', *, *, #526, .T. ) ;
#393 = DIRECTION ( 'NONE',  ( -0.000000000000000000, -0.000000000000000000, -1.000000000000000000 ) ) ;
#394 = FACE_OUTER_BOUND ( 'NONE', #2, .T. ) ;
#395 = ORIENTED_EDGE ( 'NONE', *, *, #170, .T. ) ;
#396 = DATE_AND_TIME ( #911, #765 ) ;
#397 = B_SPLINE_CURVE_WITH_KNOTS ( 'NONE', 3,
 ( #240, #75, #569, #486 ),
 .UNSPECIFIED., .F., .F.,
 ( 4, 4 ),
 ( 0.003029541235337107185, 0.003249628748158705626 ),
 .UNSPECIFIED. ) ;
#398 = CARTESIAN_POINT ( 'NONE',  ( 0.4980973490458738828, -3.174999999999999822, 2.595422128626172054 ) ) ;
#399 = ADVANCED_FACE ( 'NONE', ( #405 ), #724, .T. ) ;
#400 = DIRECTION ( 'NONE',  ( 1.000000000000000000, 0.000000000000000000, 0.000000000000000000 ) ) ;
#401 = ORIENTED_EDGE ( 'NONE', *, *, #452, .T. ) ;
#402 = PERSON_AND_ORGANIZATION_ROLE ( 'creator' ) ;
#403 = TOROIDAL_SURFACE ( 'NONE', #991, 1.518638922964334226, 0.8000000000000000444 ) ;
#404 = CARTESIAN_POINT ( 'NONE',  ( -0.4000000000000000222, -3.174999999999999822, 5.139000000000000234 ) ) ;
#405 = FACE_OUTER_BOUND ( 'NONE', #786, .T. ) ;
#406 = ADVANCED_FACE ( 'NONE', ( #931 ), #403, .T. ) ;
#407 = VECTOR ( 'NONE', #878, 1000.000000000000227 ) ;
#408 = AXIS2_PLACEMENT_3D ( 'NONE', #971, #217, #548 ) ;
#409 = ORIENTED_EDGE ( 'NONE', *, *, #559, .F. ) ;
#410 = ADVANCED_FACE ( 'NONE', ( #1007 ), #107, .T. ) ;
#411 = CALENDAR_DATE ( 2022, 6, 6 ) ;
#412 = B_SPLINE_CURVE_WITH_KNOTS ( 'NONE', 3,
 ( #636, #58, #1062, #226 ),
 .UNSPECIFIED., .F., .F.,
 ( 4, 4 ),
 ( 0.003692359630608450100, 0.003758849537120530215 ),
 .UNSPECIFIED. ) ;
#413 = CARTESIAN_POINT ( 'NONE',  ( 0.000000000000000000, 0.000000000000000000, -0.8890000000000000124 ) ) ;
#414 = ORIENTED_EDGE ( 'NONE', *, *, #316, .F. ) ;
#415 = CARTESIAN_POINT ( 'NONE',  ( 0.000000000000000000, 0.000000000000000000, 0.000000000000000000 ) ) ;
#416 = EDGE_CURVE ( 'NONE', #623, #32, #542, .T. ) ;
#417 = CARTESIAN_POINT ( 'NONE',  ( 0.000000000000000000, 0.000000000000000000, -0.1250000000000001110 ) ) ;
#418 = CARTESIAN_POINT ( 'NONE',  ( -4.000000000000000000, 4.898587196589412829E-16, -0.3890000000000004565 ) ) ;
#419 = B_SPLINE_CURVE_WITH_KNOTS ( 'NONE', 3,
 ( #606, #295, #206, #127, #795, #51 ),
 .UNSPECIFIED., .F., .F.,
 ( 4, 2, 4 ),
 ( 0.000000000000000000, 0.0005076236618905687363, 0.001015247323781136822 ),
 .UNSPECIFIED. ) ;
#420 = DIRECTION ( 'NONE',  ( 1.000000000000000000, 0.000000000000000000, 0.000000000000000000 ) ) ;
#421 = CALENDAR_DATE ( 2022, 6, 6 ) ;
#422 = ORIENTED_EDGE ( 'NONE', *, *, #877, .T. ) ;
#423 = EDGE_CURVE ( 'NONE', #582, #736, #907, .T. ) ;
#424 = CARTESIAN_POINT ( 'NONE',  ( 0.6477403412507656277, -1.999113491775012408, 4.305849356269922268 ) ) ;
#425 = VECTOR ( 'NONE', #472, 1000.000000000000000 ) ;
#426 = DIRECTION ( 'NONE',  ( 1.000000000000000000, 0.000000000000000000, 0.000000000000000000 ) ) ;
#427 = VECTOR ( 'NONE', #846, 1000.000000000000000 ) ;
#428 = CIRCLE ( 'NONE', #1042, 2.299999999999999822 ) ;
#429 = ORIENTED_EDGE ( 'NONE', *, *, #809, .F. ) ;
#430 = CIRCLE ( 'NONE', #797, 2.299999999999999822 ) ;
#431 = EDGE_LOOP ( 'NONE', ( #778, #834, #550, #105 ) ) ;
#432 = APPROVAL_PERSON_ORGANIZATION ( #444, #331, #767 ) ;
#433 = CARTESIAN_POINT ( 'NONE',  ( 0.4980973490458738828, -2.040073290564207387, 2.595422128626172054 ) ) ;
#434 = FACE_BOUND ( 'NONE', #562, .T. ) ;
#435 = ORIENTED_EDGE ( 'NONE', *, *, #793, .T. ) ;
#436 = ORIENTED_EDGE ( 'NONE', *, *, #21, .F. ) ;
#437 = CARTESIAN_POINT ( 'NONE',  ( 0.4000000000000000777, 2.244114062671030752, 5.586213595499870621 ) ) ;
#438 = EDGE_CURVE ( 'NONE', #24, #928, #959, .T. ) ;
#439 = CARTESIAN_POINT ( 'NONE',  ( 0.4000000000000000777, -2.244114062671002774, 5.586213595499954998 ) ) ;
#440 = EDGE_LOOP ( 'NONE', ( #94, #296, #360, #929 ) ) ;
#441 = DIRECTION ( 'NONE',  ( -0.000000000000000000, -0.000000000000000000, -1.000000000000000000 ) ) ;
#442 = DIRECTION ( 'NONE',  ( -1.000000000000000000, -1.224646799147353454E-16, 0.000000000000000000 ) ) ;
#443 = AXIS2_PLACEMENT_3D ( 'NONE', #525, #867, #968 ) ;
#444 = PERSON_AND_ORGANIZATION ( #219, #117 ) ;
#445 = ADVANCED_FACE ( 'NONE', ( #1018 ), #574, .T. ) ;
#446 = EDGE_LOOP ( 'NONE', ( #109, #225, #166, #1075 ) ) ;
#447 = AXIS2_PLACEMENT_3D ( 'NONE', #297, #624, #806 ) ;
#448 = DIRECTION ( 'NONE',  ( -1.000000000000000000, 0.000000000000000000, 0.000000000000000000 ) ) ;
#449 = DIRECTION ( 'NONE',  ( 8.115498896123167176E-15, 0.000000000000000000, 1.000000000000000000 ) ) ;
#450 = ORIENTED_EDGE ( 'NONE', *, *, #927, .T. ) ;
#451 = CYLINDRICAL_SURFACE ( 'NONE', #1060, 0.5000000000000000000 ) ;
#452 = EDGE_CURVE ( 'NONE', #461, #768, #258, .T. ) ;
#453 = DIRECTION ( 'NONE',  ( -0.000000000000000000, -0.000000000000000000, 1.000000000000000000 ) ) ;
#454 = DIRECTION ( 'NONE',  ( -0.000000000000000000, -0.000000000000000000, 1.000000000000000000 ) ) ;
#455 = EDGE_LOOP ( 'NONE', ( #501, #960 ) ) ;
#456 = CARTESIAN_POINT ( 'NONE',  ( 0.4000000000000001887, -1.465013371386852947, 6.139000000000000234 ) ) ;
#457 = CC_DESIGN_DATE_AND_TIME_ASSIGNMENT ( #396, #147, ( #882 ) ) ;
#458 = DIRECTION ( 'NONE',  ( 1.000000000000000000, 0.000000000000000000, 0.000000000000000000 ) ) ;
#459 = DIRECTION ( 'NONE',  ( -1.000000000000000000, 0.000000000000000000, 0.000000000000000000 ) ) ;
#460 = CIRCLE ( 'NONE', #130, 3.174999999999999822 ) ;
#461 = VERTEX_POINT ( 'NONE', #418 ) ;
#462 = DIRECTION ( 'NONE',  ( 0.000000000000000000, 0.000000000000000000, 1.000000000000000000 ) ) ;
#463 = DIRECTION ( 'NONE',  ( -1.000000000000000000, 0.000000000000000000, 0.000000000000000000 ) ) ;
#464 = ORIENTED_EDGE ( 'NONE', *, *, #1025, .T. ) ;
#465 = DIRECTION ( 'NONE',  ( 1.000000000000000000, 0.000000000000000000, 0.000000000000000000 ) ) ;
#466 = CARTESIAN_POINT ( 'NONE',  ( -0.4871800118523819667, -2.042738830444500664, 2.470636393497685823 ) ) ;
#467 = DIRECTION ( 'NONE',  ( 1.000000000000000000, 0.000000000000000000, 0.000000000000000000 ) ) ;
#468 = EDGE_CURVE ( 'NONE', #888, #587, #647, .T. ) ;
#469 = VERTEX_POINT ( 'NONE', #437 ) ;
#470 = FACE_BOUND ( 'NONE', #805, .T. ) ;
#471 = CARTESIAN_POINT ( 'NONE',  ( 0.000000000000000000, -9.092978597543523083E-17, 0.8890000000000000124 ) ) ;
#472 = DIRECTION ( 'NONE',  ( -0.000000000000000000, 1.000000000000000000, -0.000000000000000000 ) ) ;
#473 = VERTEX_POINT ( 'NONE', #579 ) ;
#474 = APPROVAL_ROLE ( '' ) ;
#475 = VECTOR ( 'NONE', #541, 1000.000000000000000 ) ;
#476 = CARTESIAN_POINT ( 'NONE',  ( 2.299999999999999822, 0.000000000000000000, 5.523072258617638397 ) ) ;
#477 = CARTESIAN_POINT ( 'NONE',  ( -0.7206315775864664541, 1.972483239316684234, 5.138999999999997570 ) ) ;
#478 = ORIENTED_EDGE ( 'NONE', *, *, #748, .T. ) ;
#479 = APPROVAL_DATE_TIME ( #485, #782 ) ;
#480 = PRODUCT_DEFINITION_SHAPE ( 'NONE', 'NONE',  #882 ) ;
#481 = VERTEX_POINT ( 'NONE', #29 ) ;
#482 = FACE_OUTER_BOUND ( 'NONE', #720, .T. ) ;
#483 = CARTESIAN_POINT ( 'NONE',  ( 0.1233449203368022357, 2.100009524403048555, 2.138959997505216926 ) ) ;
#484 = ORIENTED_EDGE ( 'NONE', *, *, #539, .F. ) ;
#485 = DATE_AND_TIME ( #737, #52 ) ;
#486 = CARTESIAN_POINT ( 'NONE',  ( -0.4000000000000000222, -2.061552812808830293, 5.439000000000000945 ) ) ;
#487 = CARTESIAN_POINT ( 'NONE',  ( 2.100000000000000089, 2.571758278209441957E-16, 0.8890000000000000124 ) ) ;
#488 = ORIENTED_EDGE ( 'NONE', *, *, #125, .T. ) ;
#489 = PERSON_AND_ORGANIZATION_ROLE ( 'classification_officer' ) ;
#490 = ORIENTED_EDGE ( 'NONE', *, *, #825, .T. ) ;
#491 = CIRCLE ( 'NONE', #612, 3.174999999999999822 ) ;
#492 = LINE ( 'NONE', #678, #693 ) ;
#493 = CARTESIAN_POINT ( 'NONE',  ( -0.4000000000000000222, -2.244114062671030752, 5.586213595499870621 ) ) ;
#494 = AXIS2_PLACEMENT_3D ( 'NONE', #799, #63, #538 ) ;
#495 = EDGE_CURVE ( 'NONE', #203, #1035, #974, .T. ) ;
#496 = CARTESIAN_POINT ( 'NONE',  ( 0.000000000000000000, 0.000000000000000000, -0.8890000000000000124 ) ) ;
#497 = DIRECTION ( 'NONE',  ( -0.08715574274765176821, 0.000000000000000000, 0.9961946980917461003 ) ) ;
#498 = CARTESIAN_POINT ( 'NONE',  ( 0.4000000000000000222, -2.061552812808830737, 5.139000000000000234 ) ) ;
#499 = CC_DESIGN_PERSON_AND_ORGANIZATION_ASSIGNMENT ( #823, #1069, ( #882 ) ) ;
#500 = ORIENTED_EDGE ( 'NONE', *, *, #468, .T. ) ;
#501 = ORIENTED_EDGE ( 'NONE', *, *, #598, .F. ) ;
#502 = CARTESIAN_POINT ( 'NONE',  ( -0.4000000000000000222, 2.061552812808830737, 5.439000000000000057 ) ) ;
#503 = CARTESIAN_POINT ( 'NONE',  ( 0.000000000000000000, 0.000000000000000000, -0.8890000000000000124 ) ) ;
#504 = VERTEX_POINT ( 'NONE', #498 ) ;
#505 = ORIENTED_EDGE ( 'NONE', *, *, #586, .T. ) ;
#506 = ADVANCED_FACE ( 'NONE', ( #850 ), #184, .T. ) ;
#507 = CARTESIAN_POINT ( 'NONE',  ( 0.000000000000000000, 0.000000000000000000, -0.3890000000000004565 ) ) ;
#508 = DIRECTION ( 'NONE',  ( -0.000000000000000000, -0.000000000000000000, -1.000000000000000000 ) ) ;
#509 = AXIS2_PLACEMENT_3D ( 'NONE', #378, #387, #1070 ) ;
#510 = ORIENTED_EDGE ( 'NONE', *, *, #883, .T. ) ;
#511 = CIRCLE ( 'NONE', #34, 2.100000000000000089 ) ;
#512 = VERTEX_POINT ( 'NONE', #493 ) ;
#513 =( GEOMETRIC_REPRESENTATION_CONTEXT ( 3 ) GLOBAL_UNCERTAINTY_ASSIGNED_CONTEXT ( ( #87 ) ) GLOBAL_UNIT_ASSIGNED_CONTEXT ( ( #238, #662, #90 ) ) REPRESENTATION_CONTEXT ( 'NONE', 'WORKASPACE' ) );
#514 = ADVANCED_FACE ( 'NONE', ( #434, #16 ), #837, .T. ) ;
#515 = CARTESIAN_POINT ( 'NONE',  ( -0.4000000000000000222, 2.061552812808830293, 5.439000000000000945 ) ) ;
#516 = CARTESIAN_POINT ( 'NONE',  ( 0.4000000000000001887, 0.000000000000000000, 6.139000000000000234 ) ) ;
#517 = ORIENTED_EDGE ( 'NONE', *, *, #282, .F. ) ;
#518 = CC_DESIGN_DATE_AND_TIME_ASSIGNMENT ( #193, #773, ( #289 ) ) ;
#519 = CYLINDRICAL_SURFACE ( 'NONE', #84, 2.424999999999999822 ) ;
#520 = EDGE_CURVE ( 'NONE', #567, #24, #933, .T. ) ;
#521 = CARTESIAN_POINT ( 'NONE',  ( -0.6477403412507650726, 1.999113491775012852, 4.305849356269931150 ) ) ;
#522 = APPROVAL_DATE_TIME ( #596, #331 ) ;
#523 = VERTEX_POINT ( 'NONE', #169 ) ;
#524 = CARTESIAN_POINT ( 'NONE',  ( 0.000000000000000000, 0.000000000000000000, 5.523072258617638397 ) ) ;
#525 = CARTESIAN_POINT ( 'NONE',  ( 0.000000000000000000, 0.000000000000000000, -0.1250000000000000000 ) ) ;
#526 = EDGE_CURVE ( 'NONE', #469, #915, #362, .T. ) ;
#527 = VECTOR ( 'NONE', #30, 1000.000000000000000 ) ;
#528 = ORIENTED_EDGE ( 'NONE', *, *, #81, .F. ) ;
#529 = LINE ( 'NONE', #502, #580 ) ;
#530 = CIRCLE ( 'NONE', #287, 4.000000000000000000 ) ;
#531 = CARTESIAN_POINT ( 'NONE',  ( -2.100000000000000089, 0.000000000000000000, 5.439000000000000057 ) ) ;
#532 = CARTESIAN_POINT ( 'NONE',  ( -2.424999999999999822, 0.000000000000000000, -0.03900000000000008321 ) ) ;
#533 = ORIENTED_EDGE ( 'NONE', *, *, #638, .T. ) ;
#534 = FACE_OUTER_BOUND ( 'NONE', #128, .T. ) ;
#535 = PLANE ( 'NONE',  #796 ) ;
#536 = CARTESIAN_POINT ( 'NONE',  ( -0.7206315775864664541, 1.972483239316684234, 5.138999999999997570 ) ) ;
#537 = ORIENTED_EDGE ( 'NONE', *, *, #687, .F. ) ;
#538 = DIRECTION ( 'NONE',  ( 0.000000000000000000, 0.000000000000000000, -1.000000000000000000 ) ) ;
#539 = EDGE_CURVE ( 'NONE', #736, #699, #873, .T. ) ;
#540 = CARTESIAN_POINT ( 'NONE',  ( 0.000000000000000000, 0.000000000000000000, -0.3890000000000004565 ) ) ;
#541 = DIRECTION ( 'NONE',  ( -0.000000000000000000, -0.000000000000000000, -1.000000000000000000 ) ) ;
#542 = CIRCLE ( 'NONE', #216, 3.500000000000000000 ) ;
#543 = ORIENTED_EDGE ( 'NONE', *, *, #632, .F. ) ;
#544 = DIRECTION ( 'NONE',  ( 0.000000000000000000, 0.000000000000000000, 1.000000000000000000 ) ) ;
#545 = CIRCLE ( 'NONE', #272, 4.000000000000000000 ) ;
#546 = CIRCLE ( 'NONE', #152, 2.424999999999999822 ) ;
#547 = EDGE_CURVE ( 'NONE', #736, #699, #904, .T. ) ;
#548 = DIRECTION ( 'NONE',  ( -1.000000000000000000, 0.000000000000000000, 0.000000000000000000 ) ) ;
#549 = CARTESIAN_POINT ( 'NONE',  ( -0.6477403412507644065, -1.999113491775013296, 4.305849356269922268 ) ) ;
#550 = ORIENTED_EDGE ( 'NONE', *, *, #610, .T. ) ;
#551 = CARTESIAN_POINT ( 'NONE',  ( 0.4000000000000000777, 2.264950330581225302, 5.523072258617638397 ) ) ;
#552 = FACE_OUTER_BOUND ( 'NONE', #341, .T. ) ;
#553 = DIRECTION ( 'NONE',  ( 1.000000000000000000, 0.000000000000000000, 0.000000000000000000 ) ) ;
#554 = EDGE_CURVE ( 'NONE', #523, #146, #593, .T. ) ;
#555 = ORIENTED_EDGE ( 'NONE', *, *, #948, .F. ) ;
#556 = COORDINATED_UNIVERSAL_TIME_OFFSET ( 6, 0, .BEHIND. ) ;
#557 = CARTESIAN_POINT ( 'NONE',  ( 0.4980973490458738828, 2.040073290564206943, 2.595422128626172054 ) ) ;
#558 = CARTESIAN_POINT ( 'NONE',  ( 0.7206315775864680084, -3.174999999999999822, 5.138999999999997570 ) ) ;
#559 = EDGE_CURVE ( 'NONE', #560, #271, #616, .T. ) ;
#560 = VERTEX_POINT ( 'NONE', #609 ) ;
#561 = AXIS2_PLACEMENT_3D ( 'NONE', #1072, #900, #467 ) ;
#562 = EDGE_LOOP ( 'NONE', ( #1019, #694 ) ) ;
#563 = CIRCLE ( 'NONE', #18, 2.279484136000458516 ) ;
#564 = CARTESIAN_POINT ( 'NONE',  ( -0.1233449203368005009, -2.100009524403047223, 2.138959997505215593 ) ) ;
#565 = AXIS2_PLACEMENT_3D ( 'NONE', #382, #723, #633 ) ;
#566 = LINE ( 'NONE', #660, #972 ) ;
#567 = VERTEX_POINT ( 'NONE', #605 ) ;
#568 = ADVANCED_BREP_SHAPE_REPRESENTATION ( '228-2500-099', ( #854, #868 ), #513 ) ;
#569 = CARTESIAN_POINT ( 'NONE',  ( -0.4000000000000000222, -2.129368206736821811, 5.466985055880805078 ) ) ;
#570 = DIRECTION ( 'NONE',  ( 1.000000000000000000, 1.776356839400250465E-15, 0.000000000000000000 ) ) ;
#571 = VERTEX_POINT ( 'NONE', #531 ) ;
#572 = ADVANCED_FACE ( 'NONE', ( #48 ), #535, .F. ) ;
#573 = DIRECTION ( 'NONE',  ( 1.000000000000000000, 0.000000000000000000, 0.000000000000000000 ) ) ;
#574 = PLANE ( 'NONE',  #833 ) ;
#575 = ORIENTED_EDGE ( 'NONE', *, *, #830, .T. ) ;
#576 = DIRECTION ( 'NONE',  ( 1.000000000000000000, 0.000000000000000000, 0.000000000000000000 ) ) ;
#577 = VECTOR ( 'NONE', #454, 1000.000000000000000 ) ;
#578 = FACE_OUTER_BOUND ( 'NONE', #1001, .T. ) ;
#579 = CARTESIAN_POINT ( 'NONE',  ( 0.7206315775864680084, 1.972483239316684234, 5.138999999999997570 ) ) ;
#580 = VECTOR ( 'NONE', #671, 1000.000000000000000 ) ;
#581 = DIRECTION ( 'NONE',  ( -0.000000000000000000, -0.000000000000000000, 1.000000000000000000 ) ) ;
#582 = VERTEX_POINT ( 'NONE', #955 ) ;
#583 = DIRECTION ( 'NONE',  ( -1.000000000000000000, 0.000000000000000000, 0.000000000000000000 ) ) ;
#584 = DIRECTION ( 'NONE',  ( 1.000000000000000000, 0.000000000000000000, 0.000000000000000000 ) ) ;
#585 = VERTEX_POINT ( 'NONE', #278 ) ;
#586 = EDGE_CURVE ( 'NONE', #146, #523, #744, .T. ) ;
#587 = VERTEX_POINT ( 'NONE', #132 ) ;
#588 = CARTESIAN_POINT ( 'NONE',  ( -0.4000000000000000222, 2.061552812808830293, 5.439000000000000945 ) ) ;
#589 = CARTESIAN_POINT ( 'NONE',  ( 0.000000000000000000, 0.000000000000000000, 6.139000000000000234 ) ) ;
#590 = ORIENTED_EDGE ( 'NONE', *, *, #756, .F. ) ;
#591 = ORIENTED_EDGE ( 'NONE', *, *, #818, .F. ) ;
#592 = CARTESIAN_POINT ( 'NONE',  ( -0.4000000000000000222, 2.244114062671002774, 5.586213595499954998 ) ) ;
#593 = CIRCLE ( 'NONE', #835, 2.424999999999999822 ) ;
#594 = AXIS2_PLACEMENT_3D ( 'NONE', #787, #462, #43 ) ;
#595 = ORIENTED_EDGE ( 'NONE', *, *, #526, .F. ) ;
#596 = DATE_AND_TIME ( #421, #801 ) ;
#597 = ORIENTED_EDGE ( 'NONE', *, *, #825, .F. ) ;
#598 = EDGE_CURVE ( 'NONE', #832, #768, #545, .T. ) ;
#599 = EDGE_CURVE ( 'NONE', #893, #461, #995, .T. ) ;
#600 = DIRECTION ( 'NONE',  ( 0.000000000000000000, 0.000000000000000000, 1.000000000000000000 ) ) ;
#601 = DIRECTION ( 'NONE',  ( 0.000000000000000000, 0.000000000000000000, -1.000000000000000000 ) ) ;
#602 = SHAPE_DEFINITION_REPRESENTATION ( #480, #568 ) ;
#603 = ORIENTED_EDGE ( 'NONE', *, *, #917, .F. ) ;
#604 = EDGE_CURVE ( 'NONE', #910, #749, #195, .T. ) ;
#605 = CARTESIAN_POINT ( 'NONE',  ( 0.4000000000000000777, -2.264950330581225302, 5.523072258617638397 ) ) ;
#606 = CARTESIAN_POINT ( 'NONE',  ( 0.4000000000000001887, 1.465013371386852947, 6.139000000000000234 ) ) ;
#607 = EDGE_LOOP ( 'NONE', ( #376, #395, #875, #429 ) ) ;
#608 = DIRECTION ( 'NONE',  ( 0.000000000000000000, 0.000000000000000000, -1.000000000000000000 ) ) ;
#609 = CARTESIAN_POINT ( 'NONE',  ( -0.7206315775864664541, -1.972483239316684678, 5.138999999999997570 ) ) ;
#610 = EDGE_CURVE ( 'NONE', #749, #567, #323, .T. ) ;
#611 = DIRECTION ( 'NONE',  ( -0.000000000000000000, -0.000000000000000000, -1.000000000000000000 ) ) ;
#612 = AXIS2_PLACEMENT_3D ( 'NONE', #108, #581, #772 ) ;
#613 = ORIENTED_EDGE ( 'NONE', *, *, #809, .T. ) ;
#614 = CARTESIAN_POINT ( 'NONE',  ( -0.4000000000000000222, -2.083054853492929404, 5.891603799368007266 ) ) ;
#615 = CIRCLE ( 'NONE', #255, 3.174999999999999822 ) ;
#616 = LINE ( 'NONE', #1029, #49 ) ;
#617 = DIRECTION ( 'NONE',  ( -0.000000000000000000, -0.000000000000000000, -1.000000000000000000 ) ) ;
#618 = EDGE_CURVE ( 'NONE', #648, #567, #692, .T. ) ;
#619 = VERTEX_POINT ( 'NONE', #1047 ) ;
#620 = CARTESIAN_POINT ( 'NONE',  ( 0.4980973490458738828, 2.040073290564206943, 2.595422128626172054 ) ) ;
#621 = CARTESIAN_POINT ( 'NONE',  ( 0.000000000000000000, 0.000000000000000000, -0.8890000000000000124 ) ) ;
#622 = CARTESIAN_POINT ( 'NONE',  ( 0.000000000000000000, 0.000000000000000000, 5.139000000000003787 ) ) ;
#623 = VERTEX_POINT ( 'NONE', #690 ) ;
#624 = DIRECTION ( 'NONE',  ( -0.000000000000000000, -0.000000000000000000, 1.000000000000000000 ) ) ;
#625 = EDGE_CURVE ( 'NONE', #473, #266, #691, .T. ) ;
#626 = CYLINDRICAL_SURFACE ( 'NONE', #408, 2.100000000000000089 ) ;
#627 = CARTESIAN_POINT ( 'NONE',  ( 0.000000000000000000, 0.000000000000000000, 5.523072258617638397 ) ) ;
#628 = AXIS2_PLACEMENT_3D ( 'NONE', #111, #611, #122 ) ;
#629 = ORIENTED_EDGE ( 'NONE', *, *, #919, .F. ) ;
#630 = DIRECTION ( 'NONE',  ( -8.115498896123205041E-15, 0.000000000000000000, 1.000000000000000000 ) ) ;
#631 = CC_DESIGN_APPROVAL ( #215, ( #326 ) ) ;
#632 = EDGE_CURVE ( 'NONE', #915, #749, #428, .T. ) ;
#633 = DIRECTION ( 'NONE',  ( 1.000000000000000000, 0.000000000000000000, 0.000000000000000000 ) ) ;
#634 = DIRECTION ( 'NONE',  ( 0.000000000000000000, 0.000000000000000000, 1.000000000000000000 ) ) ;
#635 = ORIENTED_EDGE ( 'NONE', *, *, #336, .T. ) ;
#636 = CARTESIAN_POINT ( 'NONE',  ( -0.4000000000000000222, -2.244114062671030752, 5.586213595499870621 ) ) ;
#637 = CARTESIAN_POINT ( 'NONE',  ( 2.279484136000458516, 0.000000000000000000, 5.586213595499954110 ) ) ;
#638 = EDGE_CURVE ( 'NONE', #571, #481, #1027, .T. ) ;
#639 = CARTESIAN_POINT ( 'NONE',  ( 0.000000000000000000, 0.000000000000000000, 5.586213595499954110 ) ) ;
#640 = ORIENTED_EDGE ( 'NONE', *, *, #21, .T. ) ;
#641 = CARTESIAN_POINT ( 'NONE',  ( -0.4871798639138823495, 2.042738866564660416, 2.470634702552896744 ) ) ;
#642 = PRODUCT_RELATED_PRODUCT_CATEGORY ( 'detail', '', ( #988 ) ) ;
#643 = B_SPLINE_CURVE_WITH_KNOTS ( 'NONE', 3,
 ( #998, #1051, #820, #989, #71, #564, #298, #223, #466, #826 ),
 .UNSPECIFIED., .F., .F.,
 ( 4, 2, 2, 2, 4 ),
 ( 0.000000000000000000, 0.0003704147845104416433, 0.0007408295690208832867, 0.001111244353531324605, 0.001481659138041766140 ),
 .UNSPECIFIED. ) ;
#644 = ORIENTED_EDGE ( 'NONE', *, *, #554, .T. ) ;
#645 = APPLICATION_PROTOCOL_DEFINITION ( 'international standard', 'config_control_design', 1994, #1000 ) ;
#646 = AXIS2_PLACEMENT_3D ( 'NONE', #731, #634, #383 ) ;
#647 = B_SPLINE_CURVE_WITH_KNOTS ( 'NONE', 3,
 ( #515, #857, #936, #263 ),
 .UNSPECIFIED., .F., .F.,
 ( 4, 4 ),
 ( 0.007647354141962974666, 0.007869202712918556275 ),
 .UNSPECIFIED. ) ;
#648 = VERTEX_POINT ( 'NONE', #945 ) ;
#649 = AXIS2_PLACEMENT_3D ( 'NONE', #949, #441, #789 ) ;
#650 = PLANE ( 'NONE',  #509 ) ;
#651 = AXIS2_PLACEMENT_3D ( 'NONE', #471, #812, #86 ) ;
#652 = APPLICATION_CONTEXT ( 'configuration controlled 3d designs of mechanical parts and assemblies' ) ;
#653 = CC_DESIGN_APPROVAL ( #782, ( #882 ) ) ;
#654 = DIRECTION ( 'NONE',  ( -0.000000000000000000, -0.000000000000000000, -1.000000000000000000 ) ) ;
#655 = ORIENTED_EDGE ( 'NONE', *, *, #1032, .F. ) ;
#656 = APPROVAL_ROLE ( '' ) ;
#657 = ADVANCED_FACE ( 'NONE', ( #191 ), #519, .F. ) ;
#658 = ORIENTED_EDGE ( 'NONE', *, *, #210, .T. ) ;
#659 = CARTESIAN_POINT ( 'NONE',  ( 3.174999999999999822, 0.000000000000000000, -0.1250000000000001110 ) ) ;
#660 = CARTESIAN_POINT ( 'NONE',  ( 0.4000000000000000777, 2.061552812808830737, 5.439000000000000057 ) ) ;
#661 = ORIENTED_EDGE ( 'NONE', *, *, #70, .T. ) ;
#662 =( NAMED_UNIT ( * ) PLANE_ANGLE_UNIT ( ) SI_UNIT ( $, .RADIAN. ) );
#663 = ADVANCED_FACE ( 'NONE', ( #696 ), #913, .F. ) ;
#664 = CARTESIAN_POINT ( 'NONE',  ( -0.4980973490458723840, 2.040073290564207831, 2.595422128626172054 ) ) ;
#665 = CARTESIAN_POINT ( 'NONE',  ( 0.000000000000000000, 0.000000000000000000, 5.339000000000000412 ) ) ;
#666 =( BOUNDED_CURVE ( )  B_SPLINE_CURVE ( 3, ( #536, #521, #41, #1043 ),
 .UNSPECIFIED., .F., .T. ) 
 B_SPLINE_CURVE_WITH_KNOTS ( ( 4, 4 ),
 ( 4.362112093716119077, 4.472917508490047211 ),
 .UNSPECIFIED. ) 
 CURVE ( )  GEOMETRIC_REPRESENTATION_ITEM ( )  RATIONAL_B_SPLINE_CURVE ( ( 1.000000000000000000, 0.9989771083553060649, 0.9989771083553060649, 1.000000000000000000 ) ) 
 REPRESENTATION_ITEM ( '' )  );
#667 = CARTESIAN_POINT ( 'NONE',  ( 0.4000000000000000222, -3.174999999999999822, 5.139000000000000234 ) ) ;
#668 = DIRECTION ( 'NONE',  ( 1.000000000000000000, 0.000000000000000000, 0.000000000000000000 ) ) ;
#669 = EDGE_LOOP ( 'NONE', ( #123, #987, #695, #822 ) ) ;
#670 = CIRCLE ( 'NONE', #1056, 2.279484136000458516 ) ;
#671 = DIRECTION ( 'NONE',  ( -0.000000000000000000, -0.000000000000000000, -1.000000000000000000 ) ) ;
#672 = EDGE_CURVE ( 'NONE', #194, #1021, #155, .T. ) ;
#673 = DIRECTION ( 'NONE',  ( 0.000000000000000000, 0.000000000000000000, 1.000000000000000000 ) ) ;
#674 = AXIS2_PLACEMENT_3D ( 'NONE', #496, #750, #325 ) ;
#675 = ORIENTED_EDGE ( 'NONE', *, *, #830, .F. ) ;
#676 = COORDINATED_UNIVERSAL_TIME_OFFSET ( 6, 0, .BEHIND. ) ;
#677 = VERTEX_POINT ( 'NONE', #637 ) ;
#678 = CARTESIAN_POINT ( 'NONE',  ( 3.174999999999999822, 0.000000000000000000, 0.000000000000000000 ) ) ;
#679 = CARTESIAN_POINT ( 'NONE',  ( 0.4000000000000001887, -1.465013371386852947, 6.139000000000000234 ) ) ;
#680 = ADVANCED_FACE ( 'NONE', ( #482 ), #650, .T. ) ;
#681 = EDGE_LOOP ( 'NONE', ( #230, #897 ) ) ;
#682 = ORIENTED_EDGE ( 'NONE', *, *, #277, .F. ) ;
#683 = CARTESIAN_POINT ( 'NONE',  ( -0.7206315775864664541, -3.174999999999999822, 5.138999999999997570 ) ) ;
#684 = CARTESIAN_POINT ( 'NONE',  ( -0.4000000000000000222, 2.084619459966333022, 5.890142440417392322 ) ) ;
#685 = CC_DESIGN_PERSON_AND_ORGANIZATION_ASSIGNMENT ( #733, #402, ( #326 ) ) ;
#686 = LINE ( 'NONE', #516, #150 ) ;
#687 = EDGE_CURVE ( 'NONE', #1021, #473, #777, .T. ) ;
#688 = EDGE_LOOP ( 'NONE', ( #345, #106, #644, #141 ) ) ;
#689 = AXIS2_PLACEMENT_3D ( 'NONE', #26, #268, #426 ) ;
#690 = CARTESIAN_POINT ( 'NONE',  ( -3.500000000000000000, 0.000000000000000000, -0.8890000000000000124 ) ) ;
#691 = CIRCLE ( 'NONE', #372, 2.100000000000000089 ) ;
#692 = B_SPLINE_CURVE_WITH_KNOTS ( 'NONE', 3,
 ( #44, #802, #367, #1041 ),
 .UNSPECIFIED., .F., .F.,
 ( 4, 4 ),
 ( 0.007647354141962973799, 0.007869202712918556275 ),
 .UNSPECIFIED. ) ;
#693 = VECTOR ( 'NONE', #1017, 1000.000000000000000 ) ;
#694 = ORIENTED_EDGE ( 'NONE', *, *, #554, .F. ) ;
#695 = ORIENTED_EDGE ( 'NONE', *, *, #81, .T. ) ;
#696 = FACE_OUTER_BOUND ( 'NONE', #178, .T. ) ;
#697 = CARTESIAN_POINT ( 'NONE',  ( 1.518638922964334448, 0.000000000000000000, 6.139000000000000234 ) ) ;
#698 =( BOUNDED_CURVE ( )  B_SPLINE_CURVE ( 3, ( #311, #896, #549, #139 ),
 .UNSPECIFIED., .F., .T. ) 
 B_SPLINE_CURVE_WITH_KNOTS ( ( 4, 4 ),
 ( 1.810267798689539021, 1.921073213463466933 ),
 .UNSPECIFIED. ) 
 CURVE ( )  GEOMETRIC_REPRESENTATION_ITEM ( )  RATIONAL_B_SPLINE_CURVE ( ( 1.000000000000000000, 0.9989771083553060649, 0.9989771083553060649, 1.000000000000000000 ) ) 
 REPRESENTATION_ITEM ( '' )  );
#699 = VERTEX_POINT ( 'NONE', #138 ) ;
#700 = CARTESIAN_POINT ( 'NONE',  ( -0.3999999999999999667, 0.000000000000000000, 6.139000000000000234 ) ) ;
#701 = CARTESIAN_POINT ( 'NONE',  ( -0.4000000000000000222, 2.061552812808830737, 5.139000000000000234 ) ) ;
#702 = ORIENTED_EDGE ( 'NONE', *, *, #672, .T. ) ;
#703 = DIRECTION ( 'NONE',  ( -1.000000000000000000, 0.000000000000000000, 0.000000000000000000 ) ) ;
#704 = CARTESIAN_POINT ( 'NONE',  ( 0.4000000000000000777, 2.251060372992385705, 5.565166775064911420 ) ) ;
#705 = ADVANCED_FACE ( 'NONE', ( #1057 ), #65, .T. ) ;
#706 = CIRCLE ( 'NONE', #182, 2.100000000000000089 ) ;
#707 = DIRECTION ( 'NONE',  ( -0.000000000000000000, -0.000000000000000000, 1.000000000000000000 ) ) ;
#708 = AXIS2_PLACEMENT_3D ( 'NONE', #104, #508, #164 ) ;
#709 = ORIENTED_EDGE ( 'NONE', *, *, #672, .F. ) ;
#710 = CARTESIAN_POINT ( 'NONE',  ( -2.100000000000000089, 0.000000000000000000, 0.8890000000000000124 ) ) ;
#711 = VECTOR ( 'NONE', #310, 1000.000000000000000 ) ;
#712 = CARTESIAN_POINT ( 'NONE',  ( -0.4000000000000000222, -3.174999999999999822, 6.139000000000000234 ) ) ;
#713 = DIRECTION ( 'NONE',  ( -1.000000000000000000, 0.000000000000000000, 0.000000000000000000 ) ) ;
#714 = EDGE_CURVE ( 'NONE', #370, #113, #314, .T. ) ;
#715 = EDGE_LOOP ( 'NONE', ( #727, #197 ) ) ;
#716 = DIRECTION ( 'NONE',  ( -0.000000000000000000, 1.000000000000000000, -0.000000000000000000 ) ) ;
#717 = B_SPLINE_CURVE_WITH_KNOTS ( 'NONE', 3,
 ( #301, #309, #894, #614, #982, #142 ),
 .UNSPECIFIED., .F., .F.,
 ( 4, 2, 4 ),
 ( 0.000000000000000000, 0.0005076236618905687363, 0.001015247323781136822 ),
 .UNSPECIFIED. ) ;
#718 = DIRECTION ( 'NONE',  ( -1.000000000000000000, 0.000000000000000000, 0.000000000000000000 ) ) ;
#719 = CARTESIAN_POINT ( 'NONE',  ( 0.000000000000000000, 0.000000000000000000, 0.8890000000000000124 ) ) ;
#720 = EDGE_LOOP ( 'NONE', ( #490, #422 ) ) ;
#721 = PLANE ( 'NONE',  #780 ) ;
#722 = EDGE_CURVE ( 'NONE', #62, #523, #305, .T. ) ;
#723 = DIRECTION ( 'NONE',  ( 0.000000000000000000, 0.000000000000000000, 1.000000000000000000 ) ) ;
#724 = CYLINDRICAL_SURFACE ( 'NONE', #369, 3.174999999999999822 ) ;
#725 = AXIS2_PLACEMENT_3D ( 'NONE', #719, #299, #459 ) ;
#726 = CIRCLE ( 'NONE', #253, 2.299999999999999822 ) ;
#727 = ORIENTED_EDGE ( 'NONE', *, *, #202, .F. ) ;
#728 = DIRECTION ( 'NONE',  ( 0.000000000000000000, 0.000000000000000000, -1.000000000000000000 ) ) ;
#729 = CIRCLE ( 'NONE', #373, 3.174999999999999822 ) ;
#730 = DIRECTION ( 'NONE',  ( -0.000000000000000000, 1.000000000000000000, -0.000000000000000000 ) ) ;
#731 = CARTESIAN_POINT ( 'NONE',  ( 0.000000000000000000, 0.000000000000000000, 5.339000000000000412 ) ) ;
#732 = ORIENTED_EDGE ( 'NONE', *, *, #423, .T. ) ;
#733 = PERSON_AND_ORGANIZATION ( #219, #117 ) ;
#734 = CARTESIAN_POINT ( 'NONE',  ( 2.424999999999999822, 2.969768487932330991E-16, -0.03900000000000008321 ) ) ;
#735 = FACE_OUTER_BOUND ( 'NONE', #222, .T. ) ;
#736 = VERTEX_POINT ( 'NONE', #234 ) ;
#737 = CALENDAR_DATE ( 2022, 6, 6 ) ;
#738 = ORIENTED_EDGE ( 'NONE', *, *, #259, .T. ) ;
#739 = CARTESIAN_POINT ( 'NONE',  ( 0.000000000000000000, 0.000000000000000000, 5.439000000000000057 ) ) ;
#740 = CARTESIAN_POINT ( 'NONE',  ( -0.4000000000000000222, -2.061552812808830737, 5.139000000000000234 ) ) ;
#741 = ORIENTED_EDGE ( 'NONE', *, *, #239, .F. ) ;
#742 = DIRECTION ( 'NONE',  ( 0.000000000000000000, 0.000000000000000000, 1.000000000000000000 ) ) ;
#743 = CIRCLE ( 'NONE', #725, 2.100000000000000089 ) ;
#744 = CIRCLE ( 'NONE', #355, 2.424999999999999822 ) ;
#745 = CONICAL_SURFACE ( 'NONE', #887, 2.100000000000000089, 1.172861257340199304 ) ;
#746 = CARTESIAN_POINT ( 'NONE',  ( 4.000000000000000000, 0.000000000000000000, -0.3890000000000004565 ) ) ;
#747 = CARTESIAN_POINT ( 'NONE',  ( 0.000000000000000000, 0.000000000000000000, -0.1250000000000001110 ) ) ;
#748 = EDGE_CURVE ( 'NONE', #319, #153, #984, .T. ) ;
#749 = VERTEX_POINT ( 'NONE', #476 ) ;
#750 = DIRECTION ( 'NONE',  ( 0.000000000000000000, 0.000000000000000000, -1.000000000000000000 ) ) ;
#751 = DIRECTION ( 'NONE',  ( -0.000000000000000000, -1.000000000000000000, -0.000000000000000000 ) ) ;
#752 = DIRECTION ( 'NONE',  ( -1.000000000000000000, 0.000000000000000000, -0.000000000000000000 ) ) ;
#753 = DIRECTION ( 'NONE',  ( -0.000000000000000000, -0.000000000000000000, -1.000000000000000000 ) ) ;
#754 = MECHANICAL_CONTEXT ( 'NONE', #652, 'mechanical' ) ;
#755 = EDGE_CURVE ( 'NONE', #194, #852, #643, .T. ) ;
#756 = EDGE_CURVE ( 'NONE', #585, #481, #397, .T. ) ;
#757 = CARTESIAN_POINT ( 'NONE',  ( -3.500000000000000000, 0.000000000000000000, -0.3890000000000004565 ) ) ;
#758 = DIRECTION ( 'NONE',  ( 0.000000000000000000, 0.000000000000000000, 1.000000000000000000 ) ) ;
#759 = CARTESIAN_POINT ( 'NONE',  ( 3.500000000000000000, 4.592425496802573972E-16, -0.8890000000000000124 ) ) ;
#760 = ORIENTED_EDGE ( 'NONE', *, *, #917, .T. ) ;
#761 = CIRCLE ( 'NONE', #99, 1.518638922964334226 ) ;
#762 = ADVANCED_FACE ( 'NONE', ( #908 ), #626, .T. ) ;
#763 = DIRECTION ( 'NONE',  ( 1.000000000000000000, 0.000000000000000000, 0.000000000000000000 ) ) ;
#764 = CARTESIAN_POINT ( 'NONE',  ( -0.3999999999999999667, 1.805457092722224877, 6.086801903958009241 ) ) ;
#765 = LOCAL_TIME ( 13, 59, 4.000000000000000000, #154 ) ;
#766 = ORIENTED_EDGE ( 'NONE', *, *, #259, .F. ) ;
#767 = APPROVAL_ROLE ( '' ) ;
#768 = VERTEX_POINT ( 'NONE', #59 ) ;
#769 = CARTESIAN_POINT ( 'NONE',  ( 0.5734863112436890953, -2.021666578221207988, 3.457121909598163345 ) ) ;
#770 = ADVANCED_FACE ( 'NONE', ( #890 ), #1028, .T. ) ;
#771 = CARTESIAN_POINT ( 'NONE',  ( 0.000000000000000000, 0.000000000000000000, 0.000000000000000000 ) ) ;
#772 = DIRECTION ( 'NONE',  ( 1.000000000000000000, 0.000000000000000000, 0.000000000000000000 ) ) ;
#773 = DATE_TIME_ROLE ( 'classification_date' ) ;
#774 = EDGE_LOOP ( 'NONE', ( #283, #682, #510, #858 ) ) ;
#775 = CARTESIAN_POINT ( 'NONE',  ( 0.4000000000000000777, -2.190314098834288625, 5.749223614617237743 ) ) ;
#776 = ORIENTED_EDGE ( 'NONE', *, *, #950, .F. ) ;
#777 =( BOUNDED_CURVE ( )  B_SPLINE_CURVE ( 3, ( #557, #807, #979, #828 ),
 .UNSPECIFIED., .F., .T. ) 
 B_SPLINE_CURVE_WITH_KNOTS ( ( 4, 4 ),
 ( 1.810267798689539687, 1.921073213463467599 ),
 .UNSPECIFIED. ) 
 CURVE ( )  GEOMETRIC_REPRESENTATION_ITEM ( )  RATIONAL_B_SPLINE_CURVE ( ( 1.000000000000000000, 0.9989771083553060649, 0.9989771083553060649, 1.000000000000000000 ) ) 
 REPRESENTATION_ITEM ( '' )  );
#778 = ORIENTED_EDGE ( 'NONE', *, *, #1020, .T. ) ;
#779 = CARTESIAN_POINT ( 'NONE',  ( 0.000000000000000000, 0.000000000000000000, -0.03900000000000008321 ) ) ;
#780 = AXIS2_PLACEMENT_3D ( 'NONE', #385, #728, #120 ) ;
#781 = CARTESIAN_POINT ( 'NONE',  ( 0.000000000000000000, 0.000000000000000000, 0.000000000000000000 ) ) ;
#782 = APPROVAL ( #330, 'UNSPECIFIED' ) ;
#783 = ORIENTED_EDGE ( 'NONE', *, *, #70, .F. ) ;
#784 = DIRECTION ( 'NONE',  ( -1.000000000000000000, 0.000000000000000000, 0.000000000000000000 ) ) ;
#785 = CARTESIAN_POINT ( 'NONE',  ( -3.174999999999999822, 3.888253587292846081E-16, 0.8890000000000000124 ) ) ;
#786 = EDGE_LOOP ( 'NONE', ( #824, #119, #213, #232 ) ) ;
#787 = CARTESIAN_POINT ( 'NONE',  ( 0.000000000000000000, 0.000000000000000000, 5.439000000000000057 ) ) ;
#788 = ADVANCED_FACE ( 'NONE', ( #552, #895 ), #143, .F. ) ;
#789 = DIRECTION ( 'NONE',  ( -1.000000000000000000, 0.000000000000000000, 0.000000000000000000 ) ) ;
#790 = CARTESIAN_POINT ( 'NONE',  ( 0.000000000000000000, 0.000000000000000000, -0.3890000000000004565 ) ) ;
#791 = EDGE_LOOP ( 'NONE', ( #484, #157 ) ) ;
#792 = DIRECTION ( 'NONE',  ( -0.000000000000000000, 1.000000000000000000, -0.000000000000000000 ) ) ;
#793 = EDGE_CURVE ( 'NONE', #370, #902, #729, .T. ) ;
#794 = DIRECTION ( 'NONE',  ( -1.000000000000000000, 0.000000000000000000, 0.000000000000000000 ) ) ;
#795 = CARTESIAN_POINT ( 'NONE',  ( 0.4000000000000000777, 2.190295370993048163, 5.749280358628696241 ) ) ;
#796 = AXIS2_PLACEMENT_3D ( 'NONE', #712, #211, #374 ) ;
#797 = AXIS2_PLACEMENT_3D ( 'NONE', #977, #124, #703 ) ;
#798 = ORIENTED_EDGE ( 'NONE', *, *, #31, .T. ) ;
#799 = CARTESIAN_POINT ( 'NONE',  ( 1.518638922964334226, 0.000000000000000000, 5.339000000000000412 ) ) ;
#800 = AXIS2_PLACEMENT_3D ( 'NONE', #91, #925, #1006 ) ;
#801 = LOCAL_TIME ( 13, 59, 4.000000000000000000, #676 ) ;
#802 = CARTESIAN_POINT ( 'NONE',  ( 0.4000000000000000777, -2.129368205736811070, 5.466985055468135180 ) ) ;
#803 = DIRECTION ( 'NONE',  ( -0.000000000000000000, -0.000000000000000000, -1.000000000000000000 ) ) ;
#804 = EDGE_CURVE ( 'NONE', #1045, #113, #615, .T. ) ;
#805 = EDGE_LOOP ( 'NONE', ( #981, #435 ) ) ;
#806 = DIRECTION ( 'NONE',  ( -1.000000000000000000, 0.000000000000000000, 0.000000000000000000 ) ) ;
#807 = CARTESIAN_POINT ( 'NONE',  ( 0.5734863112436885402, 2.021666578221208432, 3.457121909598157128 ) ) ;
#808 = CARTESIAN_POINT ( 'NONE',  ( 0.000000000000000000, 0.000000000000000000, 5.439000000000000057 ) ) ;
#809 = EDGE_CURVE ( 'NONE', #461, #623, #273, .T. ) ;
#810 = ORIENTED_EDGE ( 'NONE', *, *, #927, .F. ) ;
#811 = CARTESIAN_POINT ( 'NONE',  ( -0.4000000000000000222, 2.244114062671002774, 5.586213595499954998 ) ) ;
#812 = DIRECTION ( 'NONE',  ( 0.000000000000000000, 0.000000000000000000, -1.000000000000000000 ) ) ;
#813 = DIRECTION ( 'NONE',  ( 0.000000000000000000, 0.000000000000000000, 1.000000000000000000 ) ) ;
#814 = AXIS2_PLACEMENT_3D ( 'NONE', #639, #821, #400 ) ;
#815 = AXIS2_PLACEMENT_3D ( 'NONE', #118, #449, #862 ) ;
#816 = ORIENTED_EDGE ( 'NONE', *, *, #1032, .T. ) ;
#817 = COORDINATED_UNIVERSAL_TIME_OFFSET ( 6, 0, .BEHIND. ) ;
#818 = EDGE_CURVE ( 'NONE', #254, #194, #853, .T. ) ;
#819 = AXIS2_PLACEMENT_3D ( 'NONE', #198, #342, #918 ) ;
#820 = CARTESIAN_POINT ( 'NONE',  ( 0.4286119346557878407, -2.057850353472996385, 2.353605336466520370 ) ) ;
#821 = DIRECTION ( 'NONE',  ( -0.000000000000000000, -0.000000000000000000, -1.000000000000000000 ) ) ;
#822 = ORIENTED_EDGE ( 'NONE', *, *, #598, .T. ) ;
#823 = PERSON_AND_ORGANIZATION ( #219, #117 ) ;
#824 = ORIENTED_EDGE ( 'NONE', *, *, #793, .F. ) ;
#825 = EDGE_CURVE ( 'NONE', #28, #62, #546, .T. ) ;
#826 = CARTESIAN_POINT ( 'NONE',  ( -0.4980973490458723840, -2.040073290564207831, 2.595422128626172054 ) ) ;
#827 = ORIENTED_EDGE ( 'NONE', *, *, #495, .T. ) ;
#828 = CARTESIAN_POINT ( 'NONE',  ( 0.7206315775864680084, 1.972483239316684234, 5.138999999999997570 ) ) ;
#829 = DESIGN_CONTEXT ( 'detailed design', #1000, 'design' ) ;
#830 = EDGE_CURVE ( 'NONE', #888, #153, #529, .T. ) ;
#831 = LINE ( 'NONE', #72, #302 ) ;
#832 = VERTEX_POINT ( 'NONE', #1012 ) ;
#833 = AXIS2_PLACEMENT_3D ( 'NONE', #941, #673, #187 ) ;
#834 = ORIENTED_EDGE ( 'NONE', *, *, #604, .T. ) ;
#835 = AXIS2_PLACEMENT_3D ( 'NONE', #621, #281, #448 ) ;
#836 = DIRECTION ( 'NONE',  ( -1.000000000000000000, 0.000000000000000000, 0.000000000000000000 ) ) ;
#837 = PLANE ( 'NONE',  #151 ) ;
#838 = FACE_OUTER_BOUND ( 'NONE', #312, .T. ) ;
#839 = CARTESIAN_POINT ( 'NONE',  ( 0.000000000000000000, 0.000000000000000000, 5.439000000000000945 ) ) ;
#840 = CARTESIAN_POINT ( 'NONE',  ( 0.4000000000000000777, -2.258005787487189497, 5.544119660093905999 ) ) ;
#841 = VERTEX_POINT ( 'NONE', #257 ) ;
#842 = ADVANCED_FACE ( 'NONE', ( #11 ), #199, .T. ) ;
#843 = ORIENTED_EDGE ( 'NONE', *, *, #10, .T. ) ;
#844 = FACE_OUTER_BOUND ( 'NONE', #446, .T. ) ;
#845 = CARTESIAN_POINT ( 'NONE',  ( -0.3999999999999999112, 2.190314098834288625, 5.749223614617237743 ) ) ;
#846 = DIRECTION ( 'NONE',  ( -0.000000000000000000, 1.000000000000000000, -0.000000000000000000 ) ) ;
#847 = ORIENTED_EDGE ( 'NONE', *, *, #249, .F. ) ;
#848 = CARTESIAN_POINT ( 'NONE',  ( 0.7206315775864680084, -1.972483239316684234, 5.138999999999997570 ) ) ;
#849 = VECTOR ( 'NONE', #899, 1000.000000000000000 ) ;
#850 = FACE_OUTER_BOUND ( 'NONE', #976, .T. ) ;
#851 = CONICAL_SURFACE ( 'NONE', #800, 2.299999999999999822, 0.3141592653589760364 ) ;
#852 = VERTEX_POINT ( 'NONE', #79 ) ;
#853 =( BOUNDED_CURVE ( )  B_SPLINE_CURVE ( 3, ( #848, #424, #769, #433 ),
 .UNSPECIFIED., .F., .T. ) 
 B_SPLINE_CURVE_WITH_KNOTS ( ( 4, 4 ),
 ( 4.362112093716119077, 4.472917508490046323 ),
 .UNSPECIFIED. ) 
 CURVE ( )  GEOMETRIC_REPRESENTATION_ITEM ( )  RATIONAL_B_SPLINE_CURVE ( ( 1.000000000000000000, 0.9989771083553060649, 0.9989771083553060649, 1.000000000000000000 ) ) 
 REPRESENTATION_ITEM ( '' )  );
#854 = MANIFOLD_SOLID_BREP ( '228-2500-099', #1009 ) ;
#855 = ORIENTED_EDGE ( 'NONE', *, *, #964, .F. ) ;
#856 = ADVANCED_FACE ( 'NONE', ( #174 ), #333, .T. ) ;
#857 = CARTESIAN_POINT ( 'NONE',  ( -0.4000000000000000222, 2.129368205736810626, 5.466985055468135180 ) ) ;
#858 = ORIENTED_EDGE ( 'NONE', *, *, #10, .F. ) ;
#859 = VERTEX_POINT ( 'NONE', #664 ) ;
#860 = CARTESIAN_POINT ( 'NONE',  ( 0.4000000000000000777, 2.244114062671030752, 5.586213595499870621 ) ) ;
#861 = ADVANCED_FACE ( 'NONE', ( #262 ), #851, .T. ) ;
#862 = DIRECTION ( 'NONE',  ( 1.000000000000000000, 0.000000000000000000, -8.115498896123167176E-15 ) ) ;
#863 = ORIENTED_EDGE ( 'NONE', *, *, #950, .T. ) ;
#864 = VECTOR ( 'NONE', #803, 1000.000000000000000 ) ;
#865 = DIRECTION ( 'NONE',  ( 0.000000000000000000, -1.000000000000000000, 0.000000000000000000 ) ) ;
#866 = AXIS2_PLACEMENT_3D ( 'NONE', #1004, #20, #346 ) ;
#867 = DIRECTION ( 'NONE',  ( 0.000000000000000000, 0.000000000000000000, -1.000000000000000000 ) ) ;
#868 = AXIS2_PLACEMENT_3D ( 'NONE', #415, #742, #668 ) ;
#869 = B_SPLINE_CURVE_WITH_KNOTS ( 'NONE', 3,
 ( #1052, #56, #879, #379 ),
 .UNSPECIFIED., .F., .F.,
 ( 4, 4 ),
 ( 0.003029541235337105884, 0.003249628748158705626 ),
 .UNSPECIFIED. ) ;
#870 = ADVANCED_FACE ( 'NONE', ( #844 ), #96, .F. ) ;
#871 = EDGE_LOOP ( 'NONE', ( #364, #597, #300, #505 ) ) ;
#872 = DIRECTION ( 'NONE',  ( 8.115498896123167176E-15, 0.000000000000000000, 1.000000000000000000 ) ) ;
#873 = LINE ( 'NONE', #700, #286 ) ;
#874 = FACE_OUTER_BOUND ( 'NONE', #921, .T. ) ;
#875 = ORIENTED_EDGE ( 'NONE', *, *, #416, .F. ) ;
#876 = CARTESIAN_POINT ( 'NONE',  ( 0.000000000000000000, 0.000000000000000000, 5.139000000000003787 ) ) ;
#877 = EDGE_CURVE ( 'NONE', #62, #28, #356, .T. ) ;
#878 = DIRECTION ( 'NONE',  ( 0.9218631515885042926, 0.000000000000000000, 0.3875155864520939408 ) ) ;
#879 = CARTESIAN_POINT ( 'NONE',  ( 0.4000000000000000777, 2.129368206736822255, 5.466985055880805078 ) ) ;
#880 = ORIENTED_EDGE ( 'NONE', *, *, #756, .T. ) ;
#881 = FACE_OUTER_BOUND ( 'NONE', #292, .T. ) ;
#882 = PRODUCT_DEFINITION ( 'UNKNOWN', '', #326, #829 ) ;
#883 = EDGE_CURVE ( 'NONE', #902, #1045, #492, .T. ) ;
#884 = CARTESIAN_POINT ( 'NONE',  ( 2.100000000000000089, 0.000000000000000000, 5.439000000000000945 ) ) ;
#885 = CARTESIAN_POINT ( 'NONE',  ( -2.424999999999999822, 0.000000000000000000, -0.8890000000000000124 ) ) ;
#886 = AXIS2_PLACEMENT_3D ( 'NONE', #540, #453, #463 ) ;
#887 = AXIS2_PLACEMENT_3D ( 'NONE', #961, #544, #465 ) ;
#888 = VERTEX_POINT ( 'NONE', #588 ) ;
#889 = LINE ( 'NONE', #377, #1011 ) ;
#890 = FACE_OUTER_BOUND ( 'NONE', #276, .T. ) ;
#891 = ADVANCED_FACE ( 'NONE', ( #578 ), #179, .F. ) ;
#892 = LINE ( 'NONE', #558, #425 ) ;
#893 = VERTEX_POINT ( 'NONE', #746 ) ;
#894 = CARTESIAN_POINT ( 'NONE',  ( -0.4000000000000000222, -1.804720025119730842, 6.086959004245601434 ) ) ;
#895 = FACE_BOUND ( 'NONE', #715, .T. ) ;
#896 = CARTESIAN_POINT ( 'NONE',  ( -0.5734863112436872079, -2.021666578221208432, 3.457121909598157128 ) ) ;
#897 = ORIENTED_EDGE ( 'NONE', *, *, #1065, .T. ) ;
#898 = APPROVAL_STATUS ( 'not_yet_approved' ) ;
#899 = DIRECTION ( 'NONE',  ( -0.000000000000000000, 1.000000000000000000, -0.000000000000000000 ) ) ;
#900 = DIRECTION ( 'NONE',  ( 0.000000000000000000, 0.000000000000000000, 1.000000000000000000 ) ) ;
#901 = TOROIDAL_SURFACE ( 'NONE', #339, 3.500000000000000000, 0.5000000000000000000 ) ;
#902 = VERTEX_POINT ( 'NONE', #659 ) ;
#903 = PERSON_AND_ORGANIZATION ( #219, #117 ) ;
#904 = CIRCLE ( 'NONE', #133, 1.518638922964334226 ) ;
#905 = EDGE_CURVE ( 'NONE', #461, #893, #530, .T. ) ;
#906 = AXIS2_PLACEMENT_3D ( 'NONE', #6, #245, #573 ) ;
#907 = B_SPLINE_CURVE_WITH_KNOTS ( 'NONE', 3,
 ( #592, #845, #684, #764, #252, #246 ),
 .UNSPECIFIED., .F., .F.,
 ( 4, 2, 4 ),
 ( 0.000000000000000000, 0.0005075899518848827870, 0.001015179903769766008 ),
 .UNSPECIFIED. ) ;
#908 = FACE_OUTER_BOUND ( 'NONE', #324, .T. ) ;
#909 = DIRECTION ( 'NONE',  ( -1.084202172485504434E-16, 0.000000000000000000, -1.000000000000000000 ) ) ;
#910 = VERTEX_POINT ( 'NONE', #953 ) ;
#911 = CALENDAR_DATE ( 2022, 6, 6 ) ;
#912 = EDGE_CURVE ( 'NONE', #910, #841, #5, .T. ) ;
#913 = PLANE ( 'NONE',  #101 ) ;
#914 = CARTESIAN_POINT ( 'NONE',  ( -3.174999999999999822, 3.888253587292846081E-16, -0.1250000000000001110 ) ) ;
#915 = VERTEX_POINT ( 'NONE', #551 ) ;
#916 = SECURITY_CLASSIFICATION_LEVEL ( 'unclassified' ) ;
#917 = EDGE_CURVE ( 'NONE', #587, #582, #983, .T. ) ;
#918 = DIRECTION ( 'NONE',  ( -1.000000000000000000, 0.000000000000000000, 0.000000000000000000 ) ) ;
#919 = EDGE_CURVE ( 'NONE', #512, #585, #412, .T. ) ;
#920 = DIRECTION ( 'NONE',  ( -0.000000000000000000, -0.000000000000000000, 1.000000000000000000 ) ) ;
#921 = EDGE_LOOP ( 'NONE', ( #349, #317, #613, #53 ) ) ;
#922 = CIRCLE ( 'NONE', #814, 2.279484136000458516 ) ;
#923 = CIRCLE ( 'NONE', #1058, 0.5000000000000000000 ) ;
#924 = AXIS2_PLACEMENT_3D ( 'NONE', #683, #168, #497 ) ;
#925 = DIRECTION ( 'NONE',  ( -0.000000000000000000, -0.000000000000000000, -1.000000000000000000 ) ) ;
#926 = DIRECTION ( 'NONE',  ( 0.000000000000000000, 0.000000000000000000, -1.000000000000000000 ) ) ;
#927 = EDGE_CURVE ( 'NONE', #699, #512, #717, .T. ) ;
#928 = VERTEX_POINT ( 'NONE', #456 ) ;
#929 = ORIENTED_EDGE ( 'NONE', *, *, #495, .F. ) ;
#930 = DIRECTION ( 'NONE',  ( 0.000000000000000000, 0.000000000000000000, 1.000000000000000000 ) ) ;
#931 = FACE_OUTER_BOUND ( 'NONE', #440, .T. ) ;
#932 = CARTESIAN_POINT ( 'NONE',  ( 0.000000000000000000, 0.000000000000000000, -0.3890000000000004565 ) ) ;
#933 = B_SPLINE_CURVE_WITH_KNOTS ( 'NONE', 3,
 ( #12, #840, #92, #338 ),
 .UNSPECIFIED., .F., .F.,
 ( 4, 4 ),
 ( 0.002832913685900424836, 0.002899404085514993047 ),
 .UNSPECIFIED. ) ;
#934 = ORIENTED_EDGE ( 'NONE', *, *, #618, .T. ) ;
#935 = DIRECTION ( 'NONE',  ( 1.000000000000000000, 0.000000000000000000, 0.000000000000000000 ) ) ;
#936 = CARTESIAN_POINT ( 'NONE',  ( -0.4000000000000000222, 2.197165961088449304, 5.495012551953919910 ) ) ;
#937 = ORIENTED_EDGE ( 'NONE', *, *, #1064, .T. ) ;
#938 = ORIENTED_EDGE ( 'NONE', *, *, #625, .T. ) ;
#939 = AXIS2_PLACEMENT_3D ( 'NONE', #589, #758, #334 ) ;
#940 = VECTOR ( 'NONE', #214, 1000.000000000000000 ) ;
#941 = CARTESIAN_POINT ( 'NONE',  ( -2.099872945368625121, 0.000000000000000000, 6.139000000000000234 ) ) ;
#942 = LOCAL_TIME ( 13, 59, 4.000000000000000000, #817 ) ;
#943 = LINE ( 'NONE', #89, #527 ) ;
#944 = ORIENTED_EDGE ( 'NONE', *, *, #912, .F. ) ;
#945 = CARTESIAN_POINT ( 'NONE',  ( 0.4000000000000000777, -2.061552812808830293, 5.439000000000000945 ) ) ;
#946 = DIRECTION ( 'NONE',  ( -1.000000000000000000, 0.000000000000000000, 0.000000000000000000 ) ) ;
#947 = ORIENTED_EDGE ( 'NONE', *, *, #332, .T. ) ;
#948 = EDGE_CURVE ( 'NONE', #504, #254, #388, .T. ) ;
#949 = CARTESIAN_POINT ( 'NONE',  ( 0.000000000000000000, 0.000000000000000000, 5.523072258617638397 ) ) ;
#950 = EDGE_CURVE ( 'NONE', #585, #619, #430, .T. ) ;
#951 = FACE_OUTER_BOUND ( 'NONE', #871, .T. ) ;
#952 = ORIENTED_EDGE ( 'NONE', *, *, #145, .F. ) ;
#953 = CARTESIAN_POINT ( 'NONE',  ( 2.100000000000000089, 2.571758278209441957E-16, 5.439000000000000057 ) ) ;
#954 = AXIS2_PLACEMENT_3D ( 'NONE', #176, #753, #13 ) ;
#955 = CARTESIAN_POINT ( 'NONE',  ( -0.4000000000000000222, 2.244114062671002774, 5.586213595499954998 ) ) ;
#956 = AXIS2_PLACEMENT_3D ( 'NONE', #404, #250, #162 ) ;
#957 = DIRECTION ( 'NONE',  ( 0.000000000000000000, 0.000000000000000000, -1.000000000000000000 ) ) ;
#958 = EDGE_CURVE ( 'NONE', #677, #203, #997, .T. ) ;
#959 = B_SPLINE_CURVE_WITH_KNOTS ( 'NONE', 3,
 ( #22, #775, #350, #88, #1023, #679 ),
 .UNSPECIFIED., .F., .F.,
 ( 4, 2, 4 ),
 ( 0.000000000000000000, 0.0005075899518848827870, 0.001015179903769766008 ),
 .UNSPECIFIED. ) ;
#960 = ORIENTED_EDGE ( 'NONE', *, *, #125, .F. ) ;
#961 = CARTESIAN_POINT ( 'NONE',  ( 0.000000000000000000, 0.000000000000000000, 5.439000000000000945 ) ) ;
#962 = DIRECTION ( 'NONE',  ( 1.000000000000000000, 0.000000000000000000, -8.260587980841937794E-15 ) ) ;
#963 = CARTESIAN_POINT ( 'NONE',  ( 0.4980973490458738828, -2.040073290564207387, 2.595422128626172054 ) ) ;
#964 = EDGE_CURVE ( 'NONE', #571, #1008, #284, .T. ) ;
#965 = ORIENTED_EDGE ( 'NONE', *, *, #818, .T. ) ;
#966 = DIRECTION ( 'NONE',  ( -0.000000000000000000, -0.000000000000000000, -1.000000000000000000 ) ) ;
#967 = CARTESIAN_POINT ( 'NONE',  ( 0.000000000000000000, 0.000000000000000000, -0.8890000000000000124 ) ) ;
#968 = DIRECTION ( 'NONE',  ( -1.000000000000000000, 0.000000000000000000, 0.000000000000000000 ) ) ;
#969 = ORIENTED_EDGE ( 'NONE', *, *, #755, .T. ) ;
#970 = CARTESIAN_POINT ( 'NONE',  ( -2.100000000000000089, 0.000000000000000000, 5.439000000000000057 ) ) ;
#971 = CARTESIAN_POINT ( 'NONE',  ( 0.000000000000000000, 0.000000000000000000, 5.439000000000000057 ) ) ;
#972 = VECTOR ( 'NONE', #76, 1000.000000000000000 ) ;
#973 = CARTESIAN_POINT ( 'NONE',  ( 4.000000000000000000, 0.000000000000000000, -12.20270849898475873 ) ) ;
#974 = CIRCLE ( 'NONE', #939, 1.518638922964334226 ) ;
#975 = AXIS2_PLACEMENT_3D ( 'NONE', #876, #872, #129 ) ;
#976 = EDGE_LOOP ( 'NONE', ( #19, #73, #776, #629 ) ) ;
#977 = CARTESIAN_POINT ( 'NONE',  ( 0.000000000000000000, 0.000000000000000000, 5.523072258617638397 ) ) ;
#978 = ADVANCED_FACE ( 'NONE', ( #881 ), #745, .T. ) ;
#979 = CARTESIAN_POINT ( 'NONE',  ( 0.6477403412507657388, 1.999113491775012852, 4.305849356269922268 ) ) ;
#980 = FACE_OUTER_BOUND ( 'NONE', #17, .T. ) ;
#981 = ORIENTED_EDGE ( 'NONE', *, *, #277, .T. ) ;
#982 = CARTESIAN_POINT ( 'NONE',  ( -0.4000000000000000222, -2.190295370993048163, 5.749280358628696241 ) ) ;
#983 = B_SPLINE_CURVE_WITH_KNOTS ( 'NONE', 3,
 ( #293, #204, #1039, #811 ),
 .UNSPECIFIED., .F., .F.,
 ( 4, 4 ),
 ( 0.002832913685900424836, 0.002899404085514993047 ),
 .UNSPECIFIED. ) ;
#984 = LINE ( 'NONE', #149, #134 ) ;
#985 = CARTESIAN_POINT ( 'NONE',  ( 0.4000000000000000222, 2.061552812808831181, 5.139000000000000234 ) ) ;
#986 = ADVANCED_FACE ( 'NONE', ( #371, #470 ), #721, .F. ) ;
#987 = ORIENTED_EDGE ( 'NONE', *, *, #905, .T. ) ;
#988 = PRODUCT ( '228-2500-099', '228-2500-099', '', ( #754 ) ) ;
#989 = CARTESIAN_POINT ( 'NONE',  ( 0.2470917478819861790, -2.087439085565598429, 2.187221323398955697 ) ) ;
#990 = CARTESIAN_POINT ( 'NONE',  ( -0.2470917478819847635, 2.087439085565598429, 2.187221323398955697 ) ) ;
#991 = AXIS2_PLACEMENT_3D ( 'NONE', #665, #1014, #175 ) ;
#992 = ADVANCED_FACE ( 'NONE', ( #534 ), #451, .F. ) ;
#993 = ORIENTED_EDGE ( 'NONE', *, *, #3, .T. ) ;
#994 = DATE_AND_TIME ( #69, #942 ) ;
#995 = CIRCLE ( 'NONE', #886, 4.000000000000000000 ) ;
#996 = ORIENTED_EDGE ( 'NONE', *, *, #353, .F. ) ;
#997 = CIRCLE ( 'NONE', #494, 0.8000000000000003775 ) ;
#998 = CARTESIAN_POINT ( 'NONE',  ( 0.4980973490458738828, -2.040073290564207387, 2.595422128626172054 ) ) ;
#999 = DIRECTION ( 'NONE',  ( 0.000000000000000000, 0.000000000000000000, -1.000000000000000000 ) ) ;
#1000 = APPLICATION_CONTEXT ( 'configuration controlled 3d designs of mechanical parts and assemblies' ) ;
#1001 = EDGE_LOOP ( 'NONE', ( #57, #952, #409, #517 ) ) ;
#1002 = PERSON_AND_ORGANIZATION ( #219, #117 ) ;
#1003 = ORIENTED_EDGE ( 'NONE', *, *, #638, .F. ) ;
#1004 = CARTESIAN_POINT ( 'NONE',  ( -2.099872945368625121, 0.000000000000000000, 6.139000000000000234 ) ) ;
#1005 = ORIENTED_EDGE ( 'NONE', *, *, #520, .F. ) ;
#1006 = DIRECTION ( 'NONE',  ( -1.000000000000000000, 0.000000000000000000, 0.000000000000000000 ) ) ;
#1007 = FACE_OUTER_BOUND ( 'NONE', #669, .T. ) ;
#1008 = VERTEX_POINT ( 'NONE', #710 ) ;
#1009 = CLOSED_SHELL ( 'NONE', ( #657, #39, #1071, #264, #842, #762, #399, #506, #770, #861, #445, #788, #102, #705, #978, #64, #856, #870, #891, #992, #663, #140, #572, #251, #291, #406, #986, #410, #514, #163, #112, #680 ) ) ;
#1010 = ORIENTED_EDGE ( 'NONE', *, *, #177, .F. ) ;
#1011 = VECTOR ( 'NONE', #716, 1000.000000000000000 ) ;
#1012 = CARTESIAN_POINT ( 'NONE',  ( 4.000000000000000000, 0.000000000000000000, -0.1250000000000000000 ) ) ;
#1013 = CC_DESIGN_PERSON_AND_ORGANIZATION_ASSIGNMENT ( #1002, #243, ( #326 ) ) ;
#1014 = DIRECTION ( 'NONE',  ( 0.000000000000000000, 0.000000000000000000, 1.000000000000000000 ) ) ;
#1015 = ORIENTED_EDGE ( 'NONE', *, *, #755, .F. ) ;
#1016 = ORIENTED_EDGE ( 'NONE', *, *, #1020, .F. ) ;
#1017 = DIRECTION ( 'NONE',  ( -0.000000000000000000, -0.000000000000000000, 1.000000000000000000 ) ) ;
#1018 = FACE_OUTER_BOUND ( 'NONE', #791, .T. ) ;
#1019 = ORIENTED_EDGE ( 'NONE', *, *, #586, .F. ) ;
#1020 = EDGE_CURVE ( 'NONE', #648, #910, #50, .T. ) ;
#1021 = VERTEX_POINT ( 'NONE', #620 ) ;
#1022 = DIRECTION ( 'NONE',  ( -0.000000000000000000, -0.000000000000000000, 1.000000000000000000 ) ) ;
#1023 = CARTESIAN_POINT ( 'NONE',  ( 0.4000000000000001887, -1.636557294430225573, 6.139000000000002899 ) ) ;
#1024 = DIRECTION ( 'NONE',  ( -0.000000000000000000, 1.000000000000000000, 0.000000000000000000 ) ) ;
#1025 = EDGE_CURVE ( 'NONE', #153, #271, #511, .T. ) ;
#1026 = ORIENTED_EDGE ( 'NONE', *, *, #423, .F. ) ;
#1027 = CIRCLE ( 'NONE', #236, 2.100000000000000089 ) ;
#1028 = CONICAL_SURFACE ( 'NONE', #565, 2.100000000000000089, 1.172861257340199304 ) ;
#1029 = CARTESIAN_POINT ( 'NONE',  ( -0.7206315775864664541, -3.174999999999999822, 5.138999999999997570 ) ) ;
#1030 = CARTESIAN_POINT ( 'NONE',  ( 2.424999999999999822, 2.969768487932330991E-16, -0.03900000000000008321 ) ) ;
#1031 = ORIENTED_EDGE ( 'NONE', *, *, #332, .F. ) ;
#1032 = EDGE_CURVE ( 'NONE', #648, #504, #54, .T. ) ;
#1033 = DIRECTION ( 'NONE',  ( -0.000000000000000000, 1.000000000000000000, -0.000000000000000000 ) ) ;
#1034 = DIRECTION ( 'NONE',  ( 1.000000000000000000, 0.000000000000000000, 8.260587980841937794E-15 ) ) ;
#1035 = VERTEX_POINT ( 'NONE', #1054 ) ;
#1036 = CARTESIAN_POINT ( 'NONE',  ( 0.4000000000000000777, 2.264950330581225302, 5.523072258617638397 ) ) ;
#1037 = CARTESIAN_POINT ( 'NONE',  ( 3.500000000000000000, 4.286263797015736595E-16, -0.3890000000000004565 ) ) ;
#1038 = ORIENTED_EDGE ( 'NONE', *, *, #687, .T. ) ;
#1039 = CARTESIAN_POINT ( 'NONE',  ( -0.4000000000000000222, 2.251060372992367498, 5.565166775064967375 ) ) ;
#1040 = AXIS2_PLACEMENT_3D ( 'NONE', #781, #707, #135 ) ;
#1041 = CARTESIAN_POINT ( 'NONE',  ( 0.4000000000000000777, -2.264950330581225302, 5.523072258617638397 ) ) ;
#1042 = AXIS2_PLACEMENT_3D ( 'NONE', #524, #274, #126 ) ;
#1043 = CARTESIAN_POINT ( 'NONE',  ( -0.4980973490458723840, 2.040073290564207831, 2.595422128626172054 ) ) ;
#1044 = CC_DESIGN_APPROVAL ( #331, ( #289 ) ) ;
#1045 = VERTEX_POINT ( 'NONE', #209 ) ;
#1046 = CARTESIAN_POINT ( 'NONE',  ( 0.4000000000000000777, -2.061552812808830737, 5.439000000000000057 ) ) ;
#1047 = CARTESIAN_POINT ( 'NONE',  ( -2.299999999999999822, 0.000000000000000000, 5.523072258617638397 ) ) ;
#1048 = CARTESIAN_POINT ( 'NONE',  ( 0.000000000000000000, 0.000000000000000000, 5.586213595499954110 ) ) ;
#1049 = ORIENTED_EDGE ( 'NONE', *, *, #95, .T. ) ;
#1050 = CARTESIAN_POINT ( 'NONE',  ( -2.279484136000458516, 0.000000000000000000, 5.586213595499954110 ) ) ;
#1051 = CARTESIAN_POINT ( 'NONE',  ( 0.4871798639138837372, -2.042738866564659528, 2.470634702552896744 ) ) ;
#1052 = CARTESIAN_POINT ( 'NONE',  ( 0.4000000000000000777, 2.264950330581225302, 5.523072258617638397 ) ) ;
#1053 = VERTEX_POINT ( 'NONE', #1050 ) ;
#1054 = CARTESIAN_POINT ( 'NONE',  ( 0.4000000000000001887, 1.465013371386852947, 6.139000000000000234 ) ) ;
#1055 = EDGE_CURVE ( 'NONE', #852, #859, #889, .T. ) ;
#1056 = AXIS2_PLACEMENT_3D ( 'NONE', #1048, #221, #228 ) ;
#1057 = FACE_OUTER_BOUND ( 'NONE', #38, .T. ) ;
#1058 = AXIS2_PLACEMENT_3D ( 'NONE', #1037, #290, #442 ) ;
#1059 = DIRECTION ( 'NONE',  ( -1.000000000000000000, 0.000000000000000000, 0.000000000000000000 ) ) ;
#1060 = AXIS2_PLACEMENT_3D ( 'NONE', #381, #792, #47 ) ;
#1061 = ORIENTED_EDGE ( 'NONE', *, *, #438, .F. ) ;
#1062 = CARTESIAN_POINT ( 'NONE',  ( -0.4000000000000000222, -2.258005787487199267, 5.544119660093877577 ) ) ;
#1063 = APPROVAL_PERSON_ORGANIZATION ( #903, #782, #656 ) ;
#1064 = EDGE_CURVE ( 'NONE', #391, #1008, #115, .T. ) ;
#1065 = EDGE_CURVE ( 'NONE', #32, #623, #67, .T. ) ;
#1066 = DIRECTION ( 'NONE',  ( 0.9961946980917461003, 0.000000000000000000, -0.08715574274765176821 ) ) ;
#1067 = CARTESIAN_POINT ( 'NONE',  ( 0.2470723783330726897, 2.087434397081523230, 2.187282604411544096 ) ) ;
#1068 = ORIENTED_EDGE ( 'NONE', *, *, #1055, .F. ) ;
#1069 = PERSON_AND_ORGANIZATION_ROLE ( 'creator' ) ;
#1070 = DIRECTION ( 'NONE',  ( -1.000000000000000000, 0.000000000000000000, -0.000000000000000000 ) ) ;
#1071 = ADVANCED_FACE ( 'NONE', ( #318 ), #248, .T. ) ;
#1072 = CARTESIAN_POINT ( 'NONE',  ( 0.000000000000000000, 0.000000000000000000, 5.339000000000000412 ) ) ;
#1073 = ORIENTED_EDGE ( 'NONE', *, *, #610, .F. ) ;
#1074 = PERSON_AND_ORGANIZATION ( #219, #117 ) ;
#1075 = ORIENTED_EDGE ( 'NONE', *, *, #1025, .F. ) ;
ENDSEC;
END-ISO-10303-21;
