ISO-10303-21;
HEADER;
FILE_DESCRIPTION (( 'STEP AP203' ),
    '1' );
FILE_NAME ('228-2500-091.step',
    '2022-06-06T18:58:36',
    ( '' ),
    ( '' ),
    'SwSTEP 2.0',
    'SolidWorks 2021',
    '' );
FILE_SCHEMA (( 'CONFIG_CONTROL_DESIGN' ));
ENDSEC;

DATA;
#1 = ORIENTED_EDGE ( 'NONE', *, *, #1169, .F. ) ;
#2 = DIRECTION ( 'NONE',  ( 0.9961946980917455452, 0.000000000000000000, -0.08715574274765827689 ) ) ;
#3 = EDGE_CURVE ( 'NONE', #1025, #778, #816, .T. ) ;
#4 = LINE ( 'NONE', #613, #1090 ) ;
#5 = ORIENTED_EDGE ( 'NONE', *, *, #637, .F. ) ;
#6 = ORIENTED_EDGE ( 'NONE', *, *, #3, .T. ) ;
#7 = CARTESIAN_POINT ( 'NONE',  ( 1.265205022911305432, -1.587500000000000577, 0.9642561210691531493 ) ) ;
#8 = EDGE_CURVE ( 'NONE', #1114, #422, #96, .T. ) ;
#9 = FACE_OUTER_BOUND ( 'NONE', #1113, .T. ) ;
#10 = ORIENTED_EDGE ( 'NONE', *, *, #1109, .F. ) ;
#11 = ORIENTED_EDGE ( 'NONE', *, *, #1045, .T. ) ;
#12 = DIRECTION ( 'NONE',  ( -1.000000000000000000, 0.000000000000000000, 0.000000000000000000 ) ) ;
#13 = LINE ( 'NONE', #620, #204 ) ;
#14 = EDGE_CURVE ( 'NONE', #700, #963, #982, .T. ) ;
#15 = EDGE_LOOP ( 'NONE', ( #1105, #1052, #1166, #804 ) ) ;
#16 = EDGE_LOOP ( 'NONE', ( #449, #1161, #826, #457 ) ) ;
#17 = DIRECTION ( 'NONE',  ( -0.000000000000000000, -0.000000000000000000, 1.000000000000000000 ) ) ;
#18 = CARTESIAN_POINT ( 'NONE',  ( -1.549999999999995826, 1.587500000000005684, 6.199999999999997513 ) ) ;
#19 = AXIS2_PLACEMENT_3D ( 'NONE', #641, #547, #981 ) ;
#20 = EDGE_CURVE ( 'NONE', #778, #1114, #661, .T. ) ;
#21 = ORIENTED_EDGE ( 'NONE', *, *, #298, .T. ) ;
#22 = LINE ( 'NONE', #1242, #819 ) ;
#23 = CARTESIAN_POINT ( 'NONE',  ( -1.587499999999999911, 1.265205022911306543, -13.37571530186499480 ) ) ;
#24 = VECTOR ( 'NONE', #740, 1000.000000000000000 ) ;
#25 = CC_DESIGN_DATE_AND_TIME_ASSIGNMENT ( #596, #789, ( #1177 ) ) ;
#26 = EDGE_LOOP ( 'NONE', ( #545, #954, #296, #638 ) ) ;
#27 = CARTESIAN_POINT ( 'NONE',  ( -1.367896803705387354, 1.502625147670771932, 6.199999999999997513 ) ) ;
#28 = VECTOR ( 'NONE', #370, 1000.000000000000000 ) ;
#29 = CIRCLE ( 'NONE', #1122, 2.029999999999999805 ) ;
#30 = CARTESIAN_POINT ( 'NONE',  ( 1.367896803705387354, 1.502625147670771932, 6.199999999999997513 ) ) ;
#31 = FACE_OUTER_BOUND ( 'NONE', #438, .T. ) ;
#32 = ORIENTED_EDGE ( 'NONE', *, *, #502, .T. ) ;
#33 = DIRECTION ( 'NONE',  ( 0.000000000000000000, 0.000000000000000000, 1.000000000000000000 ) ) ;
#34 = DIRECTION ( 'NONE',  ( -1.000000000000000000, 0.000000000000000000, 0.000000000000000000 ) ) ;
#35 = DIRECTION ( 'NONE',  ( 0.000000000000000000, 0.000000000000000000, -1.000000000000000000 ) ) ;
#36 = DIRECTION ( 'NONE',  ( 1.000000000000000000, 0.000000000000000000, 0.000000000000000000 ) ) ;
#37 = ORIENTED_EDGE ( 'NONE', *, *, #1102, .F. ) ;
#38 = DIRECTION ( 'NONE',  ( -0.000000000000000000, -0.000000000000000000, -1.000000000000000000 ) ) ;
#39 = CARTESIAN_POINT ( 'NONE',  ( 1.549999999999995826, -2.192040705001133016, 5.461000000000007404 ) ) ;
#40 = EDGE_CURVE ( 'NONE', #751, #1281, #446, .T. ) ;
#41 = CIRCLE ( 'NONE', #1044, 1.245064030267287514 ) ;
#42 = CARTESIAN_POINT ( 'NONE',  ( -0.6550150799420340064, -1.587500000000005684, 5.199999999999996625 ) ) ;
#43 = FACE_OUTER_BOUND ( 'NONE', #75, .T. ) ;
#44 = ORIENTED_EDGE ( 'NONE', *, *, #225, .T. ) ;
#45 = CARTESIAN_POINT ( 'NONE',  ( 1.549999999999996270, -1.313972602454096750, 0.08999999999999980238 ) ) ;
#46 = CARTESIAN_POINT ( 'NONE',  ( 1.587499999999999911, 1.265205022910971699, -13.37571530186537494 ) ) ;
#47 = CARTESIAN_POINT ( 'NONE',  ( -0.6550150799420340064, -1.588549999999994133, 5.199999999999996625 ) ) ;
#48 = CARTESIAN_POINT ( 'NONE',  ( -1.549999999999995826, 1.313972602454096972, 5.461000000000007404 ) ) ;
#49 = EDGE_CURVE ( 'NONE', #422, #333, #923, .T. ) ;
#50 = ORIENTED_EDGE ( 'NONE', *, *, #125, .T. ) ;
#51 = FACE_BOUND ( 'NONE', #678, .T. ) ;
#52 = DIRECTION ( 'NONE',  ( 0.000000000000000000, 0.000000000000000000, -1.000000000000000000 ) ) ;
#53 = CARTESIAN_POINT ( 'NONE',  ( -1.587499999999999911, 1.265205022911306543, 0.9642561210691531493 ) ) ;
#54 = FACE_OUTER_BOUND ( 'NONE', #1137, .T. ) ;
#55 = CARTESIAN_POINT ( 'NONE',  ( 0.000000000000000000, 0.000000000000000000, 0.08999999999999985789 ) ) ;
#56 = EDGE_CURVE ( 'NONE', #1264, #623, #131, .T. ) ;
#57 = ORIENTED_EDGE ( 'NONE', *, *, #934, .T. ) ;
#58 = CARTESIAN_POINT ( 'NONE',  ( 1.265205022911307209, 1.587499999999999245, -13.37571530186499480 ) ) ;
#59 = ORIENTED_EDGE ( 'NONE', *, *, #502, .F. ) ;
#60 = CARTESIAN_POINT ( 'NONE',  ( -0.3500000000000030864, 1.587500000000005684, 5.199999999999996625 ) ) ;
#61 = CARTESIAN_POINT ( 'NONE',  ( 0.000000000000000000, 0.000000000000000000, 6.199999999999997513 ) ) ;
#62 = PRODUCT_DEFINITION_SHAPE ( 'NONE', 'NONE',  #1177 ) ;
#63 = ORIENTED_EDGE ( 'NONE', *, *, #454, .T. ) ;
#64 = PLANE ( 'NONE',  #717 ) ;
#65 = EDGE_CURVE ( 'NONE', #1107, #810, #1180, .T. ) ;
#66 = ORIENTED_EDGE ( 'NONE', *, *, #454, .F. ) ;
#67 = CARTESIAN_POINT ( 'NONE',  ( -1.549999999999995826, 1.587500000000005684, 6.199999999999997513 ) ) ;
#68 = CARTESIAN_POINT ( 'NONE',  ( -1.265205022911305432, -1.587500000000000577, -13.37571530186499480 ) ) ;
#69 = CARTESIAN_POINT ( 'NONE',  ( 1.587499999999999467, -1.265205022911306987, -8.016000000000000014 ) ) ;
#70 = AXIS2_PLACEMENT_3D ( 'NONE', #715, #417, #639 ) ;
#71 = AXIS2_PLACEMENT_3D ( 'NONE', #845, #750, #242 ) ;
#72 = ORIENTED_EDGE ( 'NONE', *, *, #432, .F. ) ;
#73 = CARTESIAN_POINT ( 'NONE',  ( 1.265205022911305432, -1.587500000000000577, -8.016000000000000014 ) ) ;
#74 = APPLICATION_CONTEXT ( 'configuration controlled 3d designs of mechanical parts and assemblies' ) ;
#75 = EDGE_LOOP ( 'NONE', ( #589, #249, #1144, #112, #499, #1082, #442, #421, #37, #1138, #236, #114 ) ) ;
#76 = CARTESIAN_POINT ( 'NONE',  ( 1.549999999999995826, -2.192040705001133016, 6.011426619998760934 ) ) ;
#77 = ADVANCED_FACE ( 'NONE', ( #681 ), #855, .T. ) ;
#78 = CARTESIAN_POINT ( 'NONE',  ( 1.809458434164561647, -0.9512819946464546872, 5.610798396808426070 ) ) ;
#79 = CARTESIAN_POINT ( 'NONE',  ( 0.000000000000000000, 0.000000000000000000, 0.000000000000000000 ) ) ;
#80 = ORIENTED_EDGE ( 'NONE', *, *, #673, .T. ) ;
#81 = DIRECTION ( 'NONE',  ( -0.000000000000000000, 0.000000000000000000, 1.000000000000000000 ) ) ;
#82 = VECTOR ( 'NONE', #550, 1000.000000000000000 ) ;
#83 = ORIENTED_EDGE ( 'NONE', *, *, #1200, .T. ) ;
#84 = CARTESIAN_POINT ( 'NONE',  ( 1.265205022911307209, 1.587499999999999245, -13.37571530186499480 ) ) ;
#85 = CARTESIAN_POINT ( 'NONE',  ( 0.000000000000000000, 0.000000000000000000, 0.9642561210691531493 ) ) ;
#86 = EDGE_CURVE ( 'NONE', #607, #731, #747, .T. ) ;
#87 = ORIENTED_EDGE ( 'NONE', *, *, #756, .F. ) ;
#88 = AXIS2_PLACEMENT_3D ( 'NONE', #47, #165, #345 ) ;
#89 = EDGE_LOOP ( 'NONE', ( #473, #670, #126, #186, #404, #817, #386, #415 ) ) ;
#90 = CARTESIAN_POINT ( 'NONE',  ( -1.549999999999995381, -1.313972602454096750, 0.08999999999999980238 ) ) ;
#91 = DIRECTION ( 'NONE',  ( -1.000000000000000000, 1.224646799147353207E-16, 0.000000000000000000 ) ) ;
#92 = PERSON_AND_ORGANIZATION_ROLE ( 'design_owner' ) ;
#93 = EDGE_CURVE ( 'NONE', #829, #793, #815, .T. ) ;
#94 = CIRCLE ( 'NONE', #1181, 2.125000000000038192 ) ;
#95 = CIRCLE ( 'NONE', #135, 2.029999999999999805 ) ;
#96 = LINE ( 'NONE', #719, #872 ) ;
#97 = EDGE_LOOP ( 'NONE', ( #1000, #32, #1089, #551 ) ) ;
#98 = CARTESIAN_POINT ( 'NONE',  ( 0.000000000000000000, 0.000000000000000000, -11.40099999999995894 ) ) ;
#99 = DIRECTION ( 'NONE',  ( -1.000000000000000000, 0.000000000000000000, 0.000000000000000000 ) ) ;
#100 = CALENDAR_DATE ( 2022, 6, 6 ) ;
#101 = ORIENTED_EDGE ( 'NONE', *, *, #465, .T. ) ;
#102 = ADVANCED_FACE ( 'NONE', ( #672 ), #364, .T. ) ;
#103 = ORIENTED_EDGE ( 'NONE', *, *, #1143, .F. ) ;
#104 = DIRECTION ( 'NONE',  ( -0.000000000000000000, 1.000000000000000000, -0.000000000000000000 ) ) ;
#105 = CARTESIAN_POINT ( 'NONE',  ( 1.587499999999999467, -1.265205022911306987, -13.37571530186499480 ) ) ;
#106 = ORIENTED_EDGE ( 'NONE', *, *, #936, .T. ) ;
#107 = VERTEX_POINT ( 'NONE', #1075 ) ;
#108 = DIRECTION ( 'NONE',  ( -0.000000000000000000, -0.000000000000000000, -1.000000000000000000 ) ) ;
#109 = ADVANCED_FACE ( 'NONE', ( #1172 ), #869, .F. ) ;
#110 = CARTESIAN_POINT ( 'NONE',  ( 0.000000000000000000, 0.000000000000000000, -8.016000000000000014 ) ) ;
#111 = ADVANCED_FACE ( 'NONE', ( #1158 ), #966, .T. ) ;
#112 = ORIENTED_EDGE ( 'NONE', *, *, #702, .F. ) ;
#113 = AXIS2_PLACEMENT_3D ( 'NONE', #334, #916, #312 ) ;
#114 = ORIENTED_EDGE ( 'NONE', *, *, #320, .F. ) ;
#115 = CARTESIAN_POINT ( 'NONE',  ( 1.265205022911307209, 1.587499999999999245, -8.016000000000000014 ) ) ;
#116 = CARTESIAN_POINT ( 'NONE',  ( 0.6550150799420478842, -1.587500000000005684, 5.199999999999996625 ) ) ;
#117 =( BOUNDED_CURVE ( )  B_SPLINE_CURVE ( 3, ( #366, #152, #961, #579 ),
 .UNSPECIFIED., .F., .F. ) 
 B_SPLINE_CURVE_WITH_KNOTS ( ( 4, 4 ),
 ( 3.515950143987027321, 3.844764048706395432 ),
 .UNSPECIFIED. ) 
 CURVE ( )  GEOMETRIC_REPRESENTATION_ITEM ( )  RATIONAL_B_SPLINE_CURVE ( ( 1.000000000000000000, 0.9910103942223804641, 0.9910103942223804641, 1.000000000000000000 ) ) 
 REPRESENTATION_ITEM ( '' )  );
#118 = EDGE_CURVE ( 'NONE', #1025, #907, #475, .T. ) ;
#119 = CARTESIAN_POINT ( 'NONE',  ( 0.000000000000000000, 0.000000000000000000, -6.336000000000000298 ) ) ;
#120 = ORIENTED_EDGE ( 'NONE', *, *, #745, .T. ) ;
#121 = CARTESIAN_POINT ( 'NONE',  ( 0.000000000000000000, 0.000000000000000000, -8.016000000000000014 ) ) ;
#122 = FACE_OUTER_BOUND ( 'NONE', #1239, .T. ) ;
#123 = LOCAL_TIME ( 13, 58, 36.00000000000000000, #300 ) ;
#124 = AXIS2_PLACEMENT_3D ( 'NONE', #675, #347, #767 ) ;
#125 = EDGE_CURVE ( 'NONE', #433, #1124, #941, .T. ) ;
#126 = ORIENTED_EDGE ( 'NONE', *, *, #655, .T. ) ;
#127 = CARTESIAN_POINT ( 'NONE',  ( -1.367896803705387354, 1.502625147670771932, 6.199999999999997513 ) ) ;
#128 = AXIS2_PLACEMENT_3D ( 'NONE', #61, #569, #664 ) ;
#129 = DIRECTION ( 'NONE',  ( -1.365923996832131609E-16, -1.000000000000000000, 0.000000000000000000 ) ) ;
#130 = VECTOR ( 'NONE', #453, 1000.000000000000000 ) ;
#131 =( BOUNDED_CURVE ( )  B_SPLINE_CURVE ( 3, ( #261, #959, #563, #1066 ),
 .UNSPECIFIED., .F., .T. ) 
 B_SPLINE_CURVE_WITH_KNOTS ( ( 4, 4 ),
 ( 3.515950143987027321, 3.844764048706395432 ),
 .UNSPECIFIED. ) 
 CURVE ( )  GEOMETRIC_REPRESENTATION_ITEM ( )  RATIONAL_B_SPLINE_CURVE ( ( 1.000000000000000000, 0.9910103942223804641, 0.9910103942223804641, 1.000000000000000000 ) ) 
 REPRESENTATION_ITEM ( '' )  );
#132 = EDGE_CURVE ( 'NONE', #422, #1120, #903, .T. ) ;
#133 = VERTEX_POINT ( 'NONE', #557 ) ;
#134 = PLANE ( 'NONE',  #71 ) ;
#135 = AXIS2_PLACEMENT_3D ( 'NONE', #653, #159, #1153 ) ;
#136 = CARTESIAN_POINT ( 'NONE',  ( 1.587499999999999911, 0.2109334334793890042, -13.49822736169286408 ) ) ;
#137 = LINE ( 'NONE', #760, #828 ) ;
#138 = DIRECTION ( 'NONE',  ( -1.000000000000000000, 0.000000000000000000, 0.000000000000000000 ) ) ;
#139 = ORIENTED_EDGE ( 'NONE', *, *, #382, .T. ) ;
#140 = ADVANCED_FACE ( 'NONE', ( #252 ), #657, .F. ) ;
#141 = FACE_OUTER_BOUND ( 'NONE', #310, .T. ) ;
#142 = PERSON ( 'UNSPECIFIED', 'UNSPECIFIED', 'UNSPECIFIED', ('UNSPECIFIED'), ('UNSPECIFIED'), ('UNSPECIFIED') ) ;
#143 = CARTESIAN_POINT ( 'NONE',  ( 1.367896803705387354, 1.502625147670771932, 6.199999999999997513 ) ) ;
#144 = CARTESIAN_POINT ( 'NONE',  ( 1.549999999999995826, 1.587500000000005684, 6.199999999999997513 ) ) ;
#145 = VERTEX_POINT ( 'NONE', #292 ) ;
#146 = EDGE_CURVE ( 'NONE', #597, #503, #686, .T. ) ;
#147 = CARTESIAN_POINT ( 'NONE',  ( -2.049999999999999822, 2.510525938252073693E-16, -6.336000000000000298 ) ) ;
#148 = VECTOR ( 'NONE', #772, 1000.000000000000000 ) ;
#149 = EDGE_CURVE ( 'NONE', #592, #623, #4, .T. ) ;
#150 = DIRECTION ( 'NONE',  ( 0.000000000000000000, 1.000000000000000000, 0.000000000000000000 ) ) ;
#151 = DIRECTION ( 'NONE',  ( -1.000000000000000000, 0.000000000000000000, 0.000000000000000000 ) ) ;
#152 = CARTESIAN_POINT ( 'NONE',  ( 1.809458434164561647, 0.9512819946464553533, 5.610798396808426070 ) ) ;
#153 = VERTEX_POINT ( 'NONE', #1019 ) ;
#154 = CARTESIAN_POINT ( 'NONE',  ( -3.174999999999999822, 3.888253587292846081E-16, -8.016000000000000014 ) ) ;
#155 = VECTOR ( 'NONE', #884, 1000.000000000000000 ) ;
#156 = VECTOR ( 'NONE', #1182, 1000.000000000000000 ) ;
#157 = DIRECTION ( 'NONE',  ( 0.000000000000000000, 0.000000000000000000, -1.000000000000000000 ) ) ;
#158 = ADVANCED_FACE ( 'NONE', ( #814 ), #902, .F. ) ;
#159 = DIRECTION ( 'NONE',  ( -0.000000000000000000, -0.000000000000000000, 1.000000000000000000 ) ) ;
#160 = ORIENTED_EDGE ( 'NONE', *, *, #745, .F. ) ;
#161 = CARTESIAN_POINT ( 'NONE',  ( 3.174999999999999822, 0.000000000000000000, -8.016000000000000014 ) ) ;
#162 = VERTEX_POINT ( 'NONE', #306 ) ;
#163 = CARTESIAN_POINT ( 'NONE',  ( 1.587499999999999911, 1.058827077481487855, -13.42684319463459452 ) ) ;
#164 = DIRECTION ( 'NONE',  ( -0.000000000000000000, -1.000000000000000000, -0.000000000000000000 ) ) ;
#165 = DIRECTION ( 'NONE',  ( -0.000000000000000000, 0.000000000000000000, 1.000000000000000000 ) ) ;
#166 = LINE ( 'NONE', #850, #437 ) ;
#167 = APPROVAL ( #997, 'UNSPECIFIED' ) ;
#168 = LOCAL_TIME ( 13, 58, 36.00000000000000000, #797 ) ;
#169 = ORIENTED_EDGE ( 'NONE', *, *, #1169, .T. ) ;
#170 = DIRECTION ( 'NONE',  ( 0.000000000000000000, 0.000000000000000000, -1.000000000000000000 ) ) ;
#171 = EDGE_LOOP ( 'NONE', ( #321, #572, #1234, #1118 ) ) ;
#172 = FACE_OUTER_BOUND ( 'NONE', #1036, .T. ) ;
#173 = CARTESIAN_POINT ( 'NONE',  ( -0.8549021998873361783, -1.587500000000000355, -13.47736336651083278 ) ) ;
#174 = DIRECTION ( 'NONE',  ( -0.000000000000000000, -0.000000000000000000, 1.000000000000000000 ) ) ;
#175 = DATE_AND_TIME ( #887, #123 ) ;
#176 = MANIFOLD_SOLID_BREP ( '228-2500-091', #852 ) ;
#177 = ORIENTED_EDGE ( 'NONE', *, *, #56, .F. ) ;
#178 = B_SPLINE_CURVE_WITH_KNOTS ( 'NONE', 3,
 ( #476, #380, #786, #1188, #680, #1085, #173, #68 ),
 .UNSPECIFIED., .F., .F.,
 ( 4, 2, 2, 4 ),
 ( 0.01485670291829359162, 0.01548745202035295768, 0.01611820112241232547, 0.01737969932653105759 ),
 .UNSPECIFIED. ) ;
#179 = PLANE ( 'NONE',  #543 ) ;
#180 = ADVANCED_FACE ( 'NONE', ( #1217 ), #260, .T. ) ;
#181 = ORIENTED_EDGE ( 'NONE', *, *, #929, .T. ) ;
#182 = CARTESIAN_POINT ( 'NONE',  ( 1.549999999999995826, -2.192040705001133016, 5.461000000000007404 ) ) ;
#183 = DIRECTION ( 'NONE',  ( 1.000000000000000000, 0.000000000000000000, 0.000000000000000000 ) ) ;
#184 = AXIS2_PLACEMENT_3D ( 'NONE', #957, #466, #1073 ) ;
#185 = PERSON_AND_ORGANIZATION ( #142, #955 ) ;
#186 = ORIENTED_EDGE ( 'NONE', *, *, #395, .T. ) ;
#187 = LINE ( 'NONE', #573, #1069 ) ;
#188 = ORIENTED_EDGE ( 'NONE', *, *, #673, .F. ) ;
#189 = CARTESIAN_POINT ( 'NONE',  ( -0.6550150799420340064, -1.587500000000005684, 5.199999999999996625 ) ) ;
#190 = EDGE_CURVE ( 'NONE', #1107, #1264, #586, .T. ) ;
#191 = FACE_OUTER_BOUND ( 'NONE', #706, .T. ) ;
#192 = APPROVAL_ROLE ( '' ) ;
#193 = ORIENTED_EDGE ( 'NONE', *, *, #929, .F. ) ;
#194 = CARTESIAN_POINT ( 'NONE',  ( 1.587499999999999911, 1.265205022910971699, -13.37571530186537494 ) ) ;
#195 = APPROVAL_PERSON_ORGANIZATION ( #1197, #833, #308 ) ;
#196 = CIRCLE ( 'NONE', #937, 2.029999999999999805 ) ;
#197 = ORIENTED_EDGE ( 'NONE', *, *, #827, .F. ) ;
#198 = DIRECTION ( 'NONE',  ( 0.000000000000000000, 0.000000000000000000, -1.000000000000000000 ) ) ;
#199 = EDGE_CURVE ( 'NONE', #1297, #1233, #1260, .T. ) ;
#200 = CARTESIAN_POINT ( 'NONE',  ( 0.000000000000000000, 0.000000000000000000, 6.199999999999997513 ) ) ;
#201 = ADVANCED_FACE ( 'NONE', ( #1094 ), #513, .T. ) ;
#202 = B_SPLINE_CURVE_WITH_KNOTS ( 'NONE', 3,
 ( #46, #163, #568, #362, #136, #743 ),
 .UNSPECIFIED., .F., .F.,
 ( 4, 2, 4 ),
 ( 0.01485670291829358815, 0.01548325729955537383, 0.01610981168081715778 ),
 .UNSPECIFIED. ) ;
#203 = VERTEX_POINT ( 'NONE', #1205 ) ;
#204 = VECTOR ( 'NONE', #541, 1000.000000000000000 ) ;
#205 = VERTEX_POINT ( 'NONE', #493 ) ;
#206 = LINE ( 'NONE', #389, #155 ) ;
#207 = CARTESIAN_POINT ( 'NONE',  ( -1.891269295326080568, -0.7430507738753737712, 5.658031919522665376 ) ) ;
#208 = PERSON_AND_ORGANIZATION ( #142, #955 ) ;
#209 = AXIS2_PLACEMENT_3D ( 'NONE', #1195, #379, #281 ) ;
#210 = EDGE_CURVE ( 'NONE', #1126, #497, #1151, .T. ) ;
#211 = VECTOR ( 'NONE', #645, 1000.000000000000000 ) ;
#212 = ORIENTED_EDGE ( 'NONE', *, *, #1285, .F. ) ;
#213 = ORIENTED_EDGE ( 'NONE', *, *, #762, .F. ) ;
#214 = DIRECTION ( 'NONE',  ( -0.000000000000000000, 1.000000000000000000, -0.000000000000000000 ) ) ;
#215 = PLANE ( 'NONE',  #1011 ) ;
#216 = PRODUCT ( '228-2500-091', '228-2500-091', '', ( #407 ) ) ;
#217 = VERTEX_POINT ( 'NONE', #406 ) ;
#218 = VERTEX_POINT ( 'NONE', #808 ) ;
#219 = DIRECTION ( 'NONE',  ( -0.000000000000000000, -0.000000000000000000, -1.000000000000000000 ) ) ;
#220 = CARTESIAN_POINT ( 'NONE',  ( -1.587499999999999911, -0.2109334334793895316, -13.49822736169286408 ) ) ;
#221 = ORIENTED_EDGE ( 'NONE', *, *, #1277, .F. ) ;
#222 = AXIS2_PLACEMENT_3D ( 'NONE', #418, #940, #820 ) ;
#223 = ORIENTED_EDGE ( 'NONE', *, *, #118, .F. ) ;
#224 = LINE ( 'NONE', #1134, #594 ) ;
#225 = EDGE_CURVE ( 'NONE', #924, #1126, #41, .T. ) ;
#226 = PLANE ( 'NONE',  #436 ) ;
#227 = VERTEX_POINT ( 'NONE', #69 ) ;
#228 = VECTOR ( 'NONE', #234, 1000.000000000000114 ) ;
#229 = ORIENTED_EDGE ( 'NONE', *, *, #524, .F. ) ;
#230 = LINE ( 'NONE', #939, #1032 ) ;
#231 = CARTESIAN_POINT ( 'NONE',  ( -1.587500000000000133, 1.058689276690460979, -13.42687733328249067 ) ) ;
#232 = ORIENTED_EDGE ( 'NONE', *, *, #531, .F. ) ;
#233 = CARTESIAN_POINT ( 'NONE',  ( 0.000000000000000000, 0.000000000000000000, -13.52599999999999980 ) ) ;
#234 = DIRECTION ( 'NONE',  ( 0.08715574274765827689, -0.000000000000000000, 0.9961946980917455452 ) ) ;
#235 = ADVANCED_FACE ( 'NONE', ( #696 ), #1295, .T. ) ;
#236 = ORIENTED_EDGE ( 'NONE', *, *, #1125, .F. ) ;
#237 = CYLINDRICAL_SURFACE ( 'NONE', #1249, 2.029999999999999805 ) ;
#238 = LINE ( 'NONE', #147, #331 ) ;
#239 = PLANE ( 'NONE',  #567 ) ;
#240 = EDGE_CURVE ( 'NONE', #791, #778, #1103, .T. ) ;
#241 = ORIENTED_EDGE ( 'NONE', *, *, #531, .T. ) ;
#242 = DIRECTION ( 'NONE',  ( 1.000000000000000000, 0.000000000000000000, -0.000000000000000000 ) ) ;
#243 = CIRCLE ( 'NONE', #420, 2.029999999999999805 ) ;
#244 = VECTOR ( 'NONE', #170, 1000.000000000000000 ) ;
#245 = DIRECTION ( 'NONE',  ( 1.000000000000000000, 0.000000000000000000, 0.000000000000000000 ) ) ;
#246 = CARTESIAN_POINT ( 'NONE',  ( 0.000000000000000000, 0.000000000000000000, 0.08999999999999980238 ) ) ;
#247 = DIRECTION ( 'NONE',  ( -1.000000000000000000, -1.365923996832131856E-16, 0.000000000000000000 ) ) ;
#248 = ADVANCED_FACE ( 'NONE', ( #191 ), #283, .T. ) ;
#249 = ORIENTED_EDGE ( 'NONE', *, *, #562, .T. ) ;
#250 = ADVANCED_FACE ( 'NONE', ( #595 ), #796, .T. ) ;
#251 = CARTESIAN_POINT ( 'NONE',  ( 1.549999999999995826, -1.313972602454096972, 6.199999999999997513 ) ) ;
#252 = FACE_OUTER_BOUND ( 'NONE', #1155, .T. ) ;
#253 = AXIS2_PLACEMENT_3D ( 'NONE', #390, #1204, #282 ) ;
#254 = LINE ( 'NONE', #478, #1058 ) ;
#255 =( BOUNDED_CURVE ( )  B_SPLINE_CURVE ( 3, ( #566, #651, #552, #27 ),
 .UNSPECIFIED., .F., .F. ) 
 B_SPLINE_CURVE_WITH_KNOTS ( ( 4, 4 ),
 ( 0.3743574903972348156, 0.8322988823109325196 ),
 .UNSPECIFIED. ) 
 CURVE ( )  GEOMETRIC_REPRESENTATION_ITEM ( )  RATIONAL_B_SPLINE_CURVE ( ( 1.000000000000000000, 0.9826003582447271345, 0.9826003582447271345, 1.000000000000000000 ) ) 
 REPRESENTATION_ITEM ( '' )  );
#256 = VERTEX_POINT ( 'NONE', #1310 ) ;
#257 = CYLINDRICAL_SURFACE ( 'NONE', #1289, 2.032000000000000028 ) ;
#258 = DIRECTION ( 'NONE',  ( 0.000000000000000000, -0.000000000000000000, 1.000000000000000000 ) ) ;
#259 = EDGE_CURVE ( 'NONE', #731, #497, #1149, .T. ) ;
#260 = TOROIDAL_SURFACE ( 'NONE', #309, 1.245064030267280630, 2.125000000000038192 ) ;
#261 = CARTESIAN_POINT ( 'NONE',  ( -1.891269295326080568, -0.7430507738753737712, 5.658031919522665376 ) ) ;
#262 = LINE ( 'NONE', #570, #211 ) ;
#263 = CARTESIAN_POINT ( 'NONE',  ( 1.549999999999999600, 1.313972602454100302, 0.08999999999999980238 ) ) ;
#264 = ORIENTED_EDGE ( 'NONE', *, *, #1005, .F. ) ;
#265 = CARTESIAN_POINT ( 'NONE',  ( 0.000000000000000000, 0.000000000000000000, 0.9642561210691531493 ) ) ;
#266 = CARTESIAN_POINT ( 'NONE',  ( 0.000000000000000000, 0.000000000000000000, -13.52599999999999802 ) ) ;
#267 = AXIS2_PLACEMENT_3D ( 'NONE', #1235, #629, #830 ) ;
#268 = CIRCLE ( 'NONE', #736, 2.032000000000000028 ) ;
#269 = CARTESIAN_POINT ( 'NONE',  ( 0.000000000000000000, 0.000000000000000000, 0.9642561210691531493 ) ) ;
#270 = CARTESIAN_POINT ( 'NONE',  ( -1.694670100521885159, 1.143315577041155606, 5.544525321479995661 ) ) ;
#271 = CARTESIAN_POINT ( 'NONE',  ( 0.6550150799420478842, 1.587500000000005684, 5.199999999999996625 ) ) ;
#272 = EDGE_LOOP ( 'NONE', ( #618, #897, #714, #394 ) ) ;
#273 = CARTESIAN_POINT ( 'NONE',  ( 0.3500000000000030864, 1.587500000000005684, 5.199999999999996625 ) ) ;
#274 = ORIENTED_EDGE ( 'NONE', *, *, #240, .T. ) ;
#275 = LINE ( 'NONE', #67, #400 ) ;
#276 = DIRECTION ( 'NONE',  ( 0.000000000000000000, 0.000000000000000000, 1.000000000000000000 ) ) ;
#277 = PERSON_AND_ORGANIZATION_ROLE ( 'classification_officer' ) ;
#278 = ADVANCED_FACE ( 'NONE', ( #122 ), #536, .F. ) ;
#279 = ORIENTED_EDGE ( 'NONE', *, *, #762, .T. ) ;
#280 = DIRECTION ( 'NONE',  ( -0.000000000000000000, 1.000000000000000000, -0.000000000000000000 ) ) ;
#281 = DIRECTION ( 'NONE',  ( -1.000000000000000000, 0.000000000000000000, 0.000000000000000000 ) ) ;
#282 = DIRECTION ( 'NONE',  ( -1.000000000000000000, 0.000000000000000000, 0.000000000000000000 ) ) ;
#283 = PLANE ( 'NONE',  #451 ) ;
#284 = AXIS2_PLACEMENT_3D ( 'NONE', #952, #1286, #765 ) ;
#285 = CALENDAR_DATE ( 2022, 6, 6 ) ;
#286 = ADVANCED_FACE ( 'NONE', ( #9 ), #215, .F. ) ;
#287 = VERTEX_POINT ( 'NONE', #1128 ) ;
#288 = LINE ( 'NONE', #1193, #508 ) ;
#289 = ORIENTED_EDGE ( 'NONE', *, *, #967, .F. ) ;
#290 = CARTESIAN_POINT ( 'NONE',  ( -1.549999999999995826, -1.313972602454096972, 5.461000000000007404 ) ) ;
#291 = LINE ( 'NONE', #1012, #1237 ) ;
#292 = CARTESIAN_POINT ( 'NONE',  ( -1.265205022911306321, 1.587500000000000133, -8.016000000000000014 ) ) ;
#293 = CALENDAR_DATE ( 2022, 6, 6 ) ;
#294 = ORIENTED_EDGE ( 'NONE', *, *, #580, .F. ) ;
#295 = CARTESIAN_POINT ( 'NONE',  ( -0.4980973490458784347, -1.587500000000005684, 3.406422128626171553 ) ) ;
#296 = ORIENTED_EDGE ( 'NONE', *, *, #756, .T. ) ;
#297 = PLANE ( 'NONE',  #1141 ) ;
#298 = EDGE_CURVE ( 'NONE', #607, #574, #640, .T. ) ;
#299 = CARTESIAN_POINT ( 'NONE',  ( -1.367896803705387354, -1.502625147670771932, 6.199999999999997513 ) ) ;
#300 = COORDINATED_UNIVERSAL_TIME_OFFSET ( 6, 0, .BEHIND. ) ;
#301 = ORIENTED_EDGE ( 'NONE', *, *, #538, .T. ) ;
#302 = CC_DESIGN_SECURITY_CLASSIFICATION ( #1081, ( #384 ) ) ;
#303 = ORIENTED_EDGE ( 'NONE', *, *, #1285, .T. ) ;
#304 = CARTESIAN_POINT ( 'NONE',  ( -0.3500000000000030864, -1.588549999999994133, 5.199999999999996625 ) ) ;
#305 = EDGE_CURVE ( 'NONE', #497, #700, #601, .T. ) ;
#306 = CARTESIAN_POINT ( 'NONE',  ( 3.174999999999999822, 0.000000000000000000, -8.016000000000000014 ) ) ;
#307 = DIRECTION ( 'NONE',  ( -0.000000000000000000, 1.000000000000000000, -0.000000000000000000 ) ) ;
#308 = APPROVAL_ROLE ( '' ) ;
#309 = AXIS2_PLACEMENT_3D ( 'NONE', #1116, #886, #587 ) ;
#310 = EDGE_LOOP ( 'NONE', ( #1176, #1290, #1029, #1030 ) ) ;
#311 = ORIENTED_EDGE ( 'NONE', *, *, #1147, .F. ) ;
#312 = DIRECTION ( 'NONE',  ( 1.000000000000000000, 0.000000000000000000, 0.000000000000000000 ) ) ;
#313 = CARTESIAN_POINT ( 'NONE',  ( 0.000000000000000000, 0.000000000000000000, -13.52599999999999802 ) ) ;
#314 = VECTOR ( 'NONE', #973, 1000.000000000000000 ) ;
#315 = ORIENTED_EDGE ( 'NONE', *, *, #655, .F. ) ;
#316 = ORIENTED_EDGE ( 'NONE', *, *, #1060, .F. ) ;
#317 = CARTESIAN_POINT ( 'NONE',  ( -0.6550150799420340064, -1.588549999999994133, 5.199999999999996625 ) ) ;
#318 = DIRECTION ( 'NONE',  ( -0.08715574274765827689, 0.000000000000000000, 0.9961946980917455452 ) ) ;
#319 = ORIENTED_EDGE ( 'NONE', *, *, #637, .T. ) ;
#320 = EDGE_CURVE ( 'NONE', #333, #930, #1028, .T. ) ;
#321 = ORIENTED_EDGE ( 'NONE', *, *, #419, .T. ) ;
#322 = CARTESIAN_POINT ( 'NONE',  ( -1.587499999999999467, -1.265205022911306987, -8.016000000000000014 ) ) ;
#323 = APPROVAL_PERSON_ORGANIZATION ( #1006, #1238, #192 ) ;
#324 = CARTESIAN_POINT ( 'NONE',  ( 1.587499999999999467, -1.265205022911306987, -13.37571530186499480 ) ) ;
#325 = ORIENTED_EDGE ( 'NONE', *, *, #1109, .T. ) ;
#326 = EDGE_CURVE ( 'NONE', #153, #948, #1243, .T. ) ;
#327 = AXIS2_PLACEMENT_3D ( 'NONE', #119, #780, #576 ) ;
#328 = ORIENTED_EDGE ( 'NONE', *, *, #726, .F. ) ;
#329 = CARTESIAN_POINT ( 'NONE',  ( 0.6550150799420478842, -1.588549999999994133, 5.199999999999996625 ) ) ;
#330 = LINE ( 'NONE', #716, #769 ) ;
#331 = VECTOR ( 'NONE', #33, 1000.000000000000000 ) ;
#332 = VECTOR ( 'NONE', #985, 1000.000000000000000 ) ;
#333 = VERTEX_POINT ( 'NONE', #435 ) ;
#334 = CARTESIAN_POINT ( 'NONE',  ( 0.000000000000000000, 0.000000000000000000, 0.08999999999999980238 ) ) ;
#335 = FACE_OUTER_BOUND ( 'NONE', #784, .T. ) ;
#336 = EDGE_CURVE ( 'NONE', #1120, #1233, #330, .T. ) ;
#337 = EDGE_LOOP ( 'NONE', ( #21, #1186, #616, #1008 ) ) ;
#338 = DIRECTION ( 'NONE',  ( -0.08715574274765827689, 0.000000000000000000, -0.9961946980917455452 ) ) ;
#339 = LINE ( 'NONE', #1163, #1119 ) ;
#340 = EDGE_CURVE ( 'NONE', #1317, #791, #13, .T. ) ;
#341 = DIRECTION ( 'NONE',  ( 1.000000000000000000, 0.000000000000000000, 0.000000000000000000 ) ) ;
#342 = ORIENTED_EDGE ( 'NONE', *, *, #485, .F. ) ;
#343 = AXIS2_PLACEMENT_3D ( 'NONE', #548, #1259, #157 ) ;
#344 = DIRECTION ( 'NONE',  ( -1.000000000000000000, 0.000000000000000000, -0.000000000000000000 ) ) ;
#345 = DIRECTION ( 'NONE',  ( 1.000000000000000000, 0.000000000000000000, 0.000000000000000000 ) ) ;
#346 = CARTESIAN_POINT ( 'NONE',  ( -1.549999999999995826, -1.587500000000005684, 6.199999999999997513 ) ) ;
#347 = DIRECTION ( 'NONE',  ( 0.000000000000000000, 0.000000000000000000, -1.000000000000000000 ) ) ;
#348 = ORIENTED_EDGE ( 'NONE', *, *, #20, .T. ) ;
#349 = PLANE ( 'NONE',  #909 ) ;
#350 = AXIS2_PLACEMENT_3D ( 'NONE', #76, #593, #491 ) ;
#351 = DIRECTION ( 'NONE',  ( 0.000000000000000000, 1.000000000000000000, 0.000000000000000000 ) ) ;
#352 = CARTESIAN_POINT ( 'NONE',  ( 1.599295491109038236, 1.291974124445357530, 5.960379644622163298 ) ) ;
#353 = DIRECTION ( 'NONE',  ( 0.000000000000000000, 0.000000000000000000, -1.000000000000000000 ) ) ;
#354 = EDGE_CURVE ( 'NONE', #528, #1281, #1250, .T. ) ;
#355 = ORIENTED_EDGE ( 'NONE', *, *, #210, .T. ) ;
#356 = FACE_OUTER_BOUND ( 'NONE', #337, .T. ) ;
#357 = DIRECTION ( 'NONE',  ( 0.000000000000000000, 0.000000000000000000, 1.000000000000000000 ) ) ;
#358 = DIRECTION ( 'NONE',  ( -0.000000000000000000, -0.000000000000000000, -1.000000000000000000 ) ) ;
#359 = CIRCLE ( 'NONE', #124, 3.174999999999999822 ) ;
#360 = CARTESIAN_POINT ( 'NONE',  ( -1.549999999999995826, 1.313972602454096972, 0.09000000000000153710 ) ) ;
#361 = ORIENTED_EDGE ( 'NONE', *, *, #1143, .T. ) ;
#362 = CARTESIAN_POINT ( 'NONE',  ( 1.587499999999999245, 0.4265177920117406707, -13.49202521483523221 ) ) ;
#363 = VECTOR ( 'NONE', #933, 1000.000000000000000 ) ;
#364 = CYLINDRICAL_SURFACE ( 'NONE', #901, 2.029999999999999805 ) ;
#365 = LINE ( 'NONE', #1068, #838 ) ;
#366 = CARTESIAN_POINT ( 'NONE',  ( 1.891269295326080568, 0.7430507738753737712, 5.658031919522665376 ) ) ;
#367 = ORIENTED_EDGE ( 'NONE', *, *, #1027, .T. ) ;
#368 = CARTESIAN_POINT ( 'NONE',  ( 0.8549021998873366224, 1.587499999999999689, -13.47736336651083278 ) ) ;
#369 = ORIENTED_EDGE ( 'NONE', *, *, #190, .F. ) ;
#370 = DIRECTION ( 'NONE',  ( -1.365923996832131116E-16, 1.000000000000000000, -0.000000000000000000 ) ) ;
#371 = VECTOR ( 'NONE', #867, 1000.000000000000000 ) ;
#372 = CIRCLE ( 'NONE', #669, 2.029999999999999805 ) ;
#373 = DIRECTION ( 'NONE',  ( 1.000000000000000000, 0.000000000000000000, 0.000000000000000000 ) ) ;
#374 = LINE ( 'NONE', #911, #1167 ) ;
#375 = CARTESIAN_POINT ( 'NONE',  ( 0.000000000000000000, 0.000000000000000000, -13.37571530186499480 ) ) ;
#376 = VERTEX_POINT ( 'NONE', #105 ) ;
#377 = CARTESIAN_POINT ( 'NONE',  ( -0.8464528245189998357, 1.587500000000000133, -13.45701305723136443 ) ) ;
#378 = ORIENTED_EDGE ( 'NONE', *, *, #305, .F. ) ;
#379 = DIRECTION ( 'NONE',  ( -0.000000000000000000, -0.000000000000000000, -1.000000000000000000 ) ) ;
#380 = CARTESIAN_POINT ( 'NONE',  ( 1.057445397158524925, -1.587500000000000133, -13.42718549091652847 ) ) ;
#381 = CARTESIAN_POINT ( 'NONE',  ( -1.549999999999995826, -1.587500000000005684, 6.199999999999997513 ) ) ;
#382 = EDGE_CURVE ( 'NONE', #162, #883, #539, .T. ) ;
#383 = DATE_TIME_ROLE ( 'classification_date' ) ;
#384 = PRODUCT_DEFINITION_FORMATION_WITH_SPECIFIED_SOURCE ( 'ANY', '', #216, .NOT_KNOWN. ) ;
#385 = CIRCLE ( 'NONE', #1299, 2.049999999999999822 ) ;
#386 = ORIENTED_EDGE ( 'NONE', *, *, #86, .T. ) ;
#387 = LINE ( 'NONE', #161, #1229 ) ;
#388 = ORIENTED_EDGE ( 'NONE', *, *, #858, .F. ) ;
#389 = CARTESIAN_POINT ( 'NONE',  ( 1.587499999999999911, 1.587499999999999245, -8.016000000000000014 ) ) ;
#390 = CARTESIAN_POINT ( 'NONE',  ( 0.000000000000000000, 0.000000000000000000, -6.336000000000000298 ) ) ;
#391 = DIRECTION ( 'NONE',  ( 1.000000000000000000, 0.000000000000000000, 0.000000000000000000 ) ) ;
#392 = DIRECTION ( 'NONE',  ( 0.000000000000000000, 0.000000000000000000, 1.000000000000000000 ) ) ;
#393 = EDGE_CURVE ( 'NONE', #793, #881, #424, .T. ) ;
#394 = ORIENTED_EDGE ( 'NONE', *, *, #40, .F. ) ;
#395 = EDGE_CURVE ( 'NONE', #1227, #376, #842, .T. ) ;
#396 = FACE_OUTER_BOUND ( 'NONE', #727, .T. ) ;
#397 = ORIENTED_EDGE ( 'NONE', *, *, #1216, .T. ) ;
#398 = DIRECTION ( 'NONE',  ( -0.8660254037844364872, 0.000000000000000000, -0.5000000000000037748 ) ) ;
#399 = VECTOR ( 'NONE', #483, 1000.000000000000000 ) ;
#400 = VECTOR ( 'NONE', #824, 1000.000000000000000 ) ;
#401 =( NAMED_UNIT ( * ) SI_UNIT ( $, .STERADIAN. ) SOLID_ANGLE_UNIT ( ) );
#402 = ORIENTED_EDGE ( 'NONE', *, *, #841, .F. ) ;
#403 = ADVANCED_FACE ( 'NONE', ( #335 ), #226, .F. ) ;
#404 = ORIENTED_EDGE ( 'NONE', *, *, #1224, .T. ) ;
#405 = DIRECTION ( 'NONE',  ( 0.000000000000000000, -1.000000000000000000, 0.000000000000000000 ) ) ;
#406 = CARTESIAN_POINT ( 'NONE',  ( -1.549999999999995826, 1.313972602454096972, 5.461000000000007404 ) ) ;
#407 = MECHANICAL_CONTEXT ( 'NONE', #74, 'mechanical' ) ;
#408 = ORIENTED_EDGE ( 'NONE', *, *, #340, .F. ) ;
#409 = ORIENTED_EDGE ( 'NONE', *, *, #393, .T. ) ;
#410 = DIRECTION ( 'NONE',  ( -0.000000000000000000, -0.000000000000000000, -1.000000000000000000 ) ) ;
#411 = CC_DESIGN_DATE_AND_TIME_ASSIGNMENT ( #990, #383, ( #1081 ) ) ;
#412 = CARTESIAN_POINT ( 'NONE',  ( -1.245064030267280630, 1.524763679400328281E-16, -11.40099999999995894 ) ) ;
#413 = PERSON_AND_ORGANIZATION ( #142, #955 ) ;
#414 = AXIS2_PLACEMENT_3D ( 'NONE', #1055, #1268, #477 ) ;
#415 = ORIENTED_EDGE ( 'NONE', *, *, #259, .T. ) ;
#416 = ORIENTED_EDGE ( 'NONE', *, *, #841, .T. ) ;
#417 = DIRECTION ( 'NONE',  ( -0.9961946980917455452, 0.000000000000000000, -0.08715574274765827689 ) ) ;
#418 = CARTESIAN_POINT ( 'NONE',  ( 1.587499999999999911, 1.587499999999999245, -13.52599999999999980 ) ) ;
#419 = EDGE_CURVE ( 'NONE', #287, #256, #1034, .T. ) ;
#420 = AXIS2_PLACEMENT_3D ( 'NONE', #121, #17, #12 ) ;
#421 = ORIENTED_EDGE ( 'NONE', *, *, #93, .F. ) ;
#422 = VERTEX_POINT ( 'NONE', #30 ) ;
#423 = CARTESIAN_POINT ( 'NONE',  ( 0.4980973490458784347, 1.587500000000005684, 3.406422128626171553 ) ) ;
#424 = LINE ( 'NONE', #922, #1157 ) ;
#425 = EDGE_CURVE ( 'NONE', #948, #1227, #202, .T. ) ;
#426 = EDGE_LOOP ( 'NONE', ( #66, #1194, #106, #397 ) ) ;
#427 = EDGE_LOOP ( 'NONE', ( #480, #1063, #844, #328 ) ) ;
#428 = FACE_OUTER_BOUND ( 'NONE', #171, .T. ) ;
#429 = AXIS2_PLACEMENT_3D ( 'NONE', #695, #821, #1232 ) ;
#430 = DIRECTION ( 'NONE',  ( 1.000000000000000000, 1.365923996832131856E-16, -0.000000000000000000 ) ) ;
#431 = AXIS2_PLACEMENT_3D ( 'NONE', #85, #603, #501 ) ;
#432 = EDGE_CURVE ( 'NONE', #256, #1317, #1048, .T. ) ;
#433 = VERTEX_POINT ( 'NONE', #860 ) ;
#434 = DIRECTION ( 'NONE',  ( 0.000000000000000000, 0.000000000000000000, 1.000000000000000000 ) ) ;
#435 = CARTESIAN_POINT ( 'NONE',  ( 1.268411506570324310, 1.587500000000005684, 6.199999999999997513 ) ) ;
#436 = AXIS2_PLACEMENT_3D ( 'NONE', #1146, #1043, #129 ) ;
#437 = VECTOR ( 'NONE', #558, 1000.000000000000114 ) ;
#438 = EDGE_LOOP ( 'NONE', ( #583, #229 ) ) ;
#439 = EDGE_CURVE ( 'NONE', #1306, #865, #847, .T. ) ;
#440 = CARTESIAN_POINT ( 'NONE',  ( -1.587499999999999689, 1.944126793646422548E-16, -13.49822736169286230 ) ) ;
#441 = DIRECTION ( 'NONE',  ( 0.000000000000000000, 0.000000000000000000, 1.000000000000000000 ) ) ;
#442 = ORIENTED_EDGE ( 'NONE', *, *, #393, .F. ) ;
#443 = FACE_OUTER_BOUND ( 'NONE', #1313, .T. ) ;
#444 = CARTESIAN_POINT ( 'NONE',  ( -0.3500000000000030864, -1.587500000000005684, 5.199999999999996625 ) ) ;
#445 = FACE_OUTER_BOUND ( 'NONE', #16, .T. ) ;
#446 = LINE ( 'NONE', #861, #148 ) ;
#447 = FACE_BOUND ( 'NONE', #540, .T. ) ;
#448 = CARTESIAN_POINT ( 'NONE',  ( -1.549999999999995826, 1.587500000000005684, 6.199999999999997513 ) ) ;
#449 = ORIENTED_EDGE ( 'NONE', *, *, #340, .T. ) ;
#450 = CARTESIAN_POINT ( 'NONE',  ( -0.6550150799420340064, 1.587500000000005684, 5.199999999999996625 ) ) ;
#451 = AXIS2_PLACEMENT_3D ( 'NONE', #1196, #687, #183 ) ;
#452 = CARTESIAN_POINT ( 'NONE',  ( 1.891269295326080568, -0.7430507738753729940, 5.658031919522665376 ) ) ;
#453 = DIRECTION ( 'NONE',  ( -0.000000000000000000, 1.000000000000000000, -0.000000000000000000 ) ) ;
#454 = EDGE_CURVE ( 'NONE', #883, #203, #460, .T. ) ;
#455 = CARTESIAN_POINT ( 'NONE',  ( -1.367896803705387354, -1.502625147670771932, 6.199999999999997513 ) ) ;
#456 = DIRECTION ( 'NONE',  ( 1.000000000000000000, -6.994852725712931474E-17, 0.000000000000000000 ) ) ;
#457 = ORIENTED_EDGE ( 'NONE', *, *, #807, .F. ) ;
#458 = DIRECTION ( 'NONE',  ( -0.5000000000000037748, 0.000000000000000000, -0.8660254037844364872 ) ) ;
#459 = CIRCLE ( 'NONE', #774, 2.029999999999999805 ) ;
#460 = LINE ( 'NONE', #154, #314 ) ;
#461 = DIRECTION ( 'NONE',  ( 0.000000000000000000, 0.000000000000000000, -1.000000000000000000 ) ) ;
#462 = CARTESIAN_POINT ( 'NONE',  ( -1.809458434164561647, 0.9512819946464546872, 5.610798396808426070 ) ) ;
#463 = EDGE_CURVE ( 'NONE', #1126, #924, #1311, .T. ) ;
#464 = ORIENTED_EDGE ( 'NONE', *, *, #149, .T. ) ;
#465 = EDGE_CURVE ( 'NONE', #503, #205, #238, .T. ) ;
#466 = DIRECTION ( 'NONE',  ( 0.000000000000000000, 0.000000000000000000, -1.000000000000000000 ) ) ;
#467 = DIRECTION ( 'NONE',  ( 0.000000000000000000, 0.000000000000000000, 1.000000000000000000 ) ) ;
#468 = LOCAL_TIME ( 13, 58, 36.00000000000000000, #1303 ) ;
#469 = CYLINDRICAL_SURFACE ( 'NONE', #1111, 2.032000000000000028 ) ;
#470 = ORIENTED_EDGE ( 'NONE', *, *, #580, .T. ) ;
#471 = CARTESIAN_POINT ( 'NONE',  ( 1.245064030267287514, 0.000000000000000000, -13.52599999999999802 ) ) ;
#472 = EDGE_CURVE ( 'NONE', #145, #963, #459, .T. ) ;
#473 = ORIENTED_EDGE ( 'NONE', *, *, #210, .F. ) ;
#474 = CARTESIAN_POINT ( 'NONE',  ( 1.587499999999999467, -1.587500000000000577, -13.52599999999999980 ) ) ;
#475 = CIRCLE ( 'NONE', #795, 2.032000000000000028 ) ;
#476 = CARTESIAN_POINT ( 'NONE',  ( 1.265205022910970589, -1.587500000000000577, -13.37571530186537494 ) ) ;
#477 = DIRECTION ( 'NONE',  ( 1.000000000000000000, 0.000000000000000000, 0.000000000000000000 ) ) ;
#478 = CARTESIAN_POINT ( 'NONE',  ( 2.049999999999999822, 0.000000000000000000, -6.336000000000000298 ) ) ;
#479 = DIRECTION ( 'NONE',  ( 1.000000000000000000, 0.000000000000000000, 0.000000000000000000 ) ) ;
#480 = ORIENTED_EDGE ( 'NONE', *, *, #432, .T. ) ;
#481 = CARTESIAN_POINT ( 'NONE',  ( -1.549999999999995826, 1.313972602454096972, 6.199999999999997513 ) ) ;
#482 = ORIENTED_EDGE ( 'NONE', *, *, #56, .T. ) ;
#483 = DIRECTION ( 'NONE',  ( 0.000000000000000000, 0.000000000000000000, -1.000000000000000000 ) ) ;
#484 = VECTOR ( 'NONE', #219, 1000.000000000000000 ) ;
#485 = EDGE_CURVE ( 'NONE', #1297, #907, #575, .T. ) ;
#486 = VECTOR ( 'NONE', #280, 1000.000000000000000 ) ;
#487 = CARTESIAN_POINT ( 'NONE',  ( 0.000000000000000000, 0.000000000000000000, -6.336000000000000298 ) ) ;
#488 = VERTEX_POINT ( 'NONE', #444 ) ;
#489 = CARTESIAN_POINT ( 'NONE',  ( 0.3500000000000030864, -1.588549999999994133, 5.199999999999996625 ) ) ;
#490 = ORIENTED_EDGE ( 'NONE', *, *, #132, .T. ) ;
#491 = DIRECTION ( 'NONE',  ( 0.6946583704589980313, 0.000000000000000000, -0.7193398003386503037 ) ) ;
#492 = DIRECTION ( 'NONE',  ( 0.000000000000000000, 0.000000000000000000, 1.000000000000000000 ) ) ;
#493 = CARTESIAN_POINT ( 'NONE',  ( -2.049999999999999822, 2.510525938252073693E-16, 0.08999999999999985789 ) ) ;
#494 = EDGE_CURVE ( 'NONE', #919, #793, #554, .T. ) ;
#495 = APPROVAL_ROLE ( '' ) ;
#496 = VECTOR ( 'NONE', #479, 1000.000000000000000 ) ;
#497 = VERTEX_POINT ( 'NONE', #1257 ) ;
#498 = CARTESIAN_POINT ( 'NONE',  ( -0.4980973490458784347, -1.587500000000005684, 3.406422128626171553 ) ) ;
#499 = ORIENTED_EDGE ( 'NONE', *, *, #354, .F. ) ;
#500 = PLANE ( 'NONE',  #1287 ) ;
#501 = DIRECTION ( 'NONE',  ( -1.000000000000000000, 0.000000000000000000, 0.000000000000000000 ) ) ;
#502 = EDGE_CURVE ( 'NONE', #1024, #574, #1150, .T. ) ;
#503 = VERTEX_POINT ( 'NONE', #1156 ) ;
#504 = ORIENTED_EDGE ( 'NONE', *, *, #336, .T. ) ;
#505 = DIRECTION ( 'NONE',  ( -1.000000000000000000, 0.000000000000000000, -5.421010862427522170E-17 ) ) ;
#506 = AXIS2_PLACEMENT_3D ( 'NONE', #474, #1170, #258 ) ;
#507 = CARTESIAN_POINT ( 'NONE',  ( 1.891269295326080568, -0.7430507738753729940, 5.658031919522665376 ) ) ;
#508 = VECTOR ( 'NONE', #889, 1000.000000000000000 ) ;
#509 = APPLICATION_PROTOCOL_DEFINITION ( 'international standard', 'config_control_design', 1994, #962 ) ;
#510 = ORIENTED_EDGE ( 'NONE', *, *, #146, .T. ) ;
#511 = ORIENTED_EDGE ( 'NONE', *, *, #771, .T. ) ;
#512 = DIRECTION ( 'NONE',  ( 1.000000000000000000, 0.000000000000000000, 0.000000000000000000 ) ) ;
#513 = CYLINDRICAL_SURFACE ( 'NONE', #874, 2.032000000000000028 ) ;
#514 = PERSON_AND_ORGANIZATION_ROLE ( 'design_supplier' ) ;
#515 = ORIENTED_EDGE ( 'NONE', *, *, #65, .F. ) ;
#516 = EDGE_LOOP ( 'NONE', ( #1214, #50, #264, #169, #633, #10 ) ) ;
#517 = LINE ( 'NONE', #7, #484 ) ;
#518 = ADVANCED_FACE ( 'NONE', ( #141 ), #644, .T. ) ;
#519 = CARTESIAN_POINT ( 'NONE',  ( -1.587499999999999245, -0.4265177920117431132, -13.49202521483523221 ) ) ;
#520 = AXIS2_PLACEMENT_3D ( 'NONE', #1189, #276, #849 ) ;
#521 = ORIENTED_EDGE ( 'NONE', *, *, #936, .F. ) ;
#522 = ORIENTED_EDGE ( 'NONE', *, *, #1240, .T. ) ;
#523 = DIRECTION ( 'NONE',  ( -1.000000000000000000, 0.000000000000000000, 0.000000000000000000 ) ) ;
#524 = EDGE_CURVE ( 'NONE', #203, #642, #1267, .T. ) ;
#525 = DIRECTION ( 'NONE',  ( 0.000000000000000000, 0.000000000000000000, -1.000000000000000000 ) ) ;
#526 = VECTOR ( 'NONE', #344, 1000.000000000000000 ) ;
#527 = ORIENTED_EDGE ( 'NONE', *, *, #986, .T. ) ;
#528 = VERTEX_POINT ( 'NONE', #60 ) ;
#529 = CARTESIAN_POINT ( 'NONE',  ( -0.3500000000000030864, -1.587500000000005684, 6.199999999999997513 ) ) ;
#530 = CARTESIAN_POINT ( 'NONE',  ( 1.587499999999999911, 1.265205022911306543, 0.9642561210691531493 ) ) ;
#531 = EDGE_CURVE ( 'NONE', #1233, #1114, #951, .T. ) ;
#532 = ORIENTED_EDGE ( 'NONE', *, *, #326, .T. ) ;
#533 = CC_DESIGN_APPROVAL ( #1238, ( #1177 ) ) ;
#534 = FACE_OUTER_BOUND ( 'NONE', #991, .T. ) ;
#535 = AXIS2_PLACEMENT_3D ( 'NONE', #665, #1062, #341 ) ;
#536 = PLANE ( 'NONE',  #222 ) ;
#537 = CARTESIAN_POINT ( 'NONE',  ( 1.587499999999999689, 0.000000000000000000, -13.49822736169286230 ) ) ;
#538 = EDGE_CURVE ( 'NONE', #1297, #865, #1178, .T. ) ;
#539 = CIRCLE ( 'NONE', #1305, 3.174999999999999822 ) ;
#540 = EDGE_LOOP ( 'NONE', ( #1098, #1208 ) ) ;
#541 = DIRECTION ( 'NONE',  ( 5.421010862427522170E-17, -0.000000000000000000, 1.000000000000000000 ) ) ;
#542 = VECTOR ( 'NONE', #624, 1000.000000000000000 ) ;
#543 = AXIS2_PLACEMENT_3D ( 'NONE', #489, #81, #1080 ) ;
#544 = PRODUCT_RELATED_PRODUCT_CATEGORY ( 'detail', '', ( #216 ) ) ;
#545 = ORIENTED_EDGE ( 'NONE', *, *, #14, .T. ) ;
#546 = CARTESIAN_POINT ( 'NONE',  ( 0.3500000000000030864, -1.587500000000005684, 5.199999999999996625 ) ) ;
#547 = DIRECTION ( 'NONE',  ( 1.000000000000000000, 0.000000000000000000, -5.421010862427522170E-17 ) ) ;
#548 = CARTESIAN_POINT ( 'NONE',  ( 0.000000000000000000, 1.587500000000005684, 3.449999999999994849 ) ) ;
#549 = DIRECTION ( 'NONE',  ( 0.000000000000000000, 0.000000000000000000, 1.000000000000000000 ) ) ;
#550 = DIRECTION ( 'NONE',  ( 0.000000000000000000, 1.000000000000000000, 0.000000000000000000 ) ) ;
#551 = ORIENTED_EDGE ( 'NONE', *, *, #1210, .F. ) ;
#552 = CARTESIAN_POINT ( 'NONE',  ( -1.599295491109038236, 1.291974124445357308, 5.960379644622163298 ) ) ;
#553 = ORIENTED_EDGE ( 'NONE', *, *, #419, .F. ) ;
#554 = LINE ( 'NONE', #671, #755 ) ;
#555 = ADVANCED_FACE ( 'NONE', ( #980 ), #758, .F. ) ;
#556 =( GEOMETRIC_REPRESENTATION_CONTEXT ( 3 ) GLOBAL_UNCERTAINTY_ASSIGNED_CONTEXT ( ( #1007 ) ) GLOBAL_UNIT_ASSIGNED_CONTEXT ( ( #666, #1263, #401 ) ) REPRESENTATION_CONTEXT ( 'NONE', 'WORKASPACE' ) );
#557 = CARTESIAN_POINT ( 'NONE',  ( 2.049999999999999822, 0.000000000000000000, 0.08999999999999985789 ) ) ;
#558 = DIRECTION ( 'NONE',  ( -0.08715574274765827689, 0.000000000000000000, -0.9961946980917455452 ) ) ;
#559 = CARTESIAN_POINT ( 'NONE',  ( -1.891269295326080568, -0.7430507738753737712, 5.658031919522665376 ) ) ;
#560 = EDGE_LOOP ( 'NONE', ( #83, #57, #888, #768 ) ) ;
#561 = CYLINDRICAL_SURFACE ( 'NONE', #209, 2.029999999999999805 ) ;
#562 = EDGE_CURVE ( 'NONE', #1292, #433, #339, .T. ) ;
#563 = CARTESIAN_POINT ( 'NONE',  ( -1.694670100521884937, -1.143315577041155606, 5.544525321479995661 ) ) ;
#564 = DIRECTION ( 'NONE',  ( 1.000000000000000000, 0.000000000000000000, 0.000000000000000000 ) ) ;
#565 = ORIENTED_EDGE ( 'NONE', *, *, #1005, .T. ) ;
#566 = CARTESIAN_POINT ( 'NONE',  ( -1.891269295326080568, 0.7430507738753729940, 5.658031919522665376 ) ) ;
#567 = AXIS2_PLACEMENT_3D ( 'NONE', #144, #247, #870 ) ;
#568 = CARTESIAN_POINT ( 'NONE',  ( 1.587500000000000355, 0.8492588818156072694, -13.45661429290257871 ) ) ;
#569 = DIRECTION ( 'NONE',  ( 0.000000000000000000, 0.000000000000000000, 1.000000000000000000 ) ) ;
#570 = CARTESIAN_POINT ( 'NONE',  ( 0.3500000000000030864, 1.587500000000005684, 6.199999999999997513 ) ) ;
#571 = ADVANCED_FACE ( 'NONE', ( #1059 ), #561, .T. ) ;
#572 = ORIENTED_EDGE ( 'NONE', *, *, #726, .T. ) ;
#573 = CARTESIAN_POINT ( 'NONE',  ( -0.3500000000000030864, -1.587500000000005684, 5.199999999999996625 ) ) ;
#574 = VERTEX_POINT ( 'NONE', #1108 ) ;
#575 = LINE ( 'NONE', #251, #1140 ) ;
#576 = DIRECTION ( 'NONE',  ( 1.000000000000000000, 0.000000000000000000, 0.000000000000000000 ) ) ;
#577 = LOCAL_TIME ( 13, 58, 36.00000000000000000, #615 ) ;
#578 = DIRECTION ( 'NONE',  ( 0.000000000000000000, 0.000000000000000000, 1.000000000000000000 ) ) ;
#579 = CARTESIAN_POINT ( 'NONE',  ( 1.549999999999995826, 1.313972602454096972, 5.461000000000007404 ) ) ;
#580 = EDGE_CURVE ( 'NONE', #799, #963, #1315, .T. ) ;
#581 = EDGE_LOOP ( 'NONE', ( #212, #63, #1035, #521 ) ) ;
#582 = LINE ( 'NONE', #273, #332 ) ;
#583 = ORIENTED_EDGE ( 'NONE', *, *, #1216, .F. ) ;
#584 = DIRECTION ( 'NONE',  ( 0.000000000000000000, 0.000000000000000000, -1.000000000000000000 ) ) ;
#585 = VECTOR ( 'NONE', #787, 1000.000000000000000 ) ;
#586 =( BOUNDED_CURVE ( )  B_SPLINE_CURVE ( 3, ( #299, #709, #1316, #207 ),
 .UNSPECIFIED., .F., .F. ) 
 B_SPLINE_CURVE_WITH_KNOTS ( ( 4, 4 ),
 ( 5.450886424868653712, 5.908827816782351583 ),
 .UNSPECIFIED. ) 
 CURVE ( )  GEOMETRIC_REPRESENTATION_ITEM ( )  RATIONAL_B_SPLINE_CURVE ( ( 1.000000000000000000, 0.9826003582447271345, 0.9826003582447271345, 1.000000000000000000 ) ) 
 REPRESENTATION_ITEM ( '' )  );
#587 = DIRECTION ( 'NONE',  ( 1.000000000000000000, 0.000000000000000000, 0.000000000000000000 ) ) ;
#588 = COORDINATED_UNIVERSAL_TIME_OFFSET ( 6, 0, .BEHIND. ) ;
#589 = ORIENTED_EDGE ( 'NONE', *, *, #591, .T. ) ;
#590 = DIRECTION ( 'NONE',  ( 0.6946583704589980313, 0.000000000000000000, 0.7193398003386503037 ) ) ;
#591 = EDGE_CURVE ( 'NONE', #333, #1292, #1284, .T. ) ;
#592 = VERTEX_POINT ( 'NONE', #90 ) ;
#593 = DIRECTION ( 'NONE',  ( 0.7193398003386504147, -0.000000000000000000, 0.6946583704589981423 ) ) ;
#594 = VECTOR ( 'NONE', #835, 1000.000000000000000 ) ;
#595 = FACE_OUTER_BOUND ( 'NONE', #684, .T. ) ;
#596 = DATE_AND_TIME ( #285, #577 ) ;
#597 = VERTEX_POINT ( 'NONE', #785 ) ;
#598 = CARTESIAN_POINT ( 'NONE',  ( -0.2038468701599968624, 1.587499999999999689, -13.49840870214576860 ) ) ;
#599 = ORIENTED_EDGE ( 'NONE', *, *, #190, .T. ) ;
#600 = FACE_OUTER_BOUND ( 'NONE', #89, .T. ) ;
#601 = B_SPLINE_CURVE_WITH_KNOTS ( 'NONE', 3,
 ( #1230, #946, #729, #1123, #231, #23 ),
 .UNSPECIFIED., .F., .F.,
 ( 4, 2, 4 ),
 ( 4.031748084733546206E-19, 0.0006349438228569486038, 0.001269887645713896774 ),
 .UNSPECIFIED. ) ;
#602 = ADVANCED_FACE ( 'NONE', ( #685, #1083 ), #297, .T. ) ;
#603 = DIRECTION ( 'NONE',  ( -0.000000000000000000, -0.000000000000000000, -1.000000000000000000 ) ) ;
#604 = SHAPE_DEFINITION_REPRESENTATION ( #62, #749 ) ;
#605 = ORIENTED_EDGE ( 'NONE', *, *, #463, .F. ) ;
#606 = CARTESIAN_POINT ( 'NONE',  ( -1.265205022910971477, 1.587500000000000133, -13.37571530186537494 ) ) ;
#607 = VERTEX_POINT ( 'NONE', #1010 ) ;
#608 = FACE_OUTER_BOUND ( 'NONE', #920, .T. ) ;
#609 = VECTOR ( 'NONE', #1023, 1000.000000000000000 ) ;
#610 = ORIENTED_EDGE ( 'NONE', *, *, #494, .T. ) ;
#611 = ORIENTED_EDGE ( 'NONE', *, *, #958, .F. ) ;
#612 = DIRECTION ( 'NONE',  ( 0.000000000000000000, 0.000000000000000000, -1.000000000000000000 ) ) ;
#613 = CARTESIAN_POINT ( 'NONE',  ( -1.549999999999995826, -1.313972602454096972, 6.199999999999997513 ) ) ;
#614 = AXIS2_PLACEMENT_3D ( 'NONE', #964, #742, #1053 ) ;
#615 = COORDINATED_UNIVERSAL_TIME_OFFSET ( 6, 0, .BEHIND. ) ;
#616 = ORIENTED_EDGE ( 'NONE', *, *, #711, .T. ) ;
#617 = ADVANCED_FACE ( 'NONE', ( #806 ), #500, .F. ) ;
#618 = ORIENTED_EDGE ( 'NONE', *, *, #956, .T. ) ;
#619 = CARTESIAN_POINT ( 'NONE',  ( -1.587499999999999467, -1.265205022910972144, -13.37571530186537494 ) ) ;
#620 = CARTESIAN_POINT ( 'NONE',  ( 0.3500000000000030864, -1.587500000000005684, 6.199999999999997513 ) ) ;
#621 = DIRECTION ( 'NONE',  ( -0.000000000000000000, 1.000000000000000000, -0.000000000000000000 ) ) ;
#622 = ADVANCED_FACE ( 'NONE', ( #900 ), #679, .T. ) ;
#623 = VERTEX_POINT ( 'NONE', #290 ) ;
#624 = DIRECTION ( 'NONE',  ( -1.365923996832131609E-16, -1.000000000000000000, 0.000000000000000000 ) ) ;
#625 = CARTESIAN_POINT ( 'NONE',  ( -1.265205022911305432, -1.587500000000000577, 0.9642561210691531493 ) ) ;
#626 = AXIS2_PLACEMENT_3D ( 'NONE', #1061, #150, #1272 ) ;
#627 = EDGE_LOOP ( 'NONE', ( #532, #221, #741, #1213 ) ) ;
#628 = ORIENTED_EDGE ( 'NONE', *, *, #125, .F. ) ;
#629 = DIRECTION ( 'NONE',  ( 1.000000000000000000, 1.365923996832131116E-16, 0.000000000000000000 ) ) ;
#630 = CARTESIAN_POINT ( 'NONE',  ( -1.587499999999999689, -1.058827077481488077, -13.42684319463459452 ) ) ;
#631 = EDGE_CURVE ( 'NONE', #1124, #592, #1093, .T. ) ;
#632 = AXIS2_PLACEMENT_3D ( 'NONE', #1145, #2, #338 ) ;
#633 = ORIENTED_EDGE ( 'NONE', *, *, #858, .T. ) ;
#634 = ORIENTED_EDGE ( 'NONE', *, *, #813, .F. ) ;
#635 = PLANE ( 'NONE',  #1226 ) ;
#636 = CARTESIAN_POINT ( 'NONE',  ( -1.549999999999995826, 1.587500000000005684, 6.199999999999997513 ) ) ;
#637 = EDGE_CURVE ( 'NONE', #145, #737, #206, .T. ) ;
#638 = ORIENTED_EDGE ( 'NONE', *, *, #942, .F. ) ;
#639 = DIRECTION ( 'NONE',  ( -0.08715574274765827689, 0.000000000000000000, 0.9961946980917455452 ) ) ;
#640 = LINE ( 'NONE', #625, #1175 ) ;
#641 = CARTESIAN_POINT ( 'NONE',  ( 0.3500000000000030864, -1.588549999999994133, 6.199999999999997513 ) ) ;
#642 = VERTEX_POINT ( 'NONE', #988 ) ;
#643 = FACE_OUTER_BOUND ( 'NONE', #689, .T. ) ;
#644 = CYLINDRICAL_SURFACE ( 'NONE', #1067, 2.049999999999999822 ) ;
#645 = DIRECTION ( 'NONE',  ( -5.421010862427522170E-17, 0.000000000000000000, -1.000000000000000000 ) ) ;
#646 = CARTESIAN_POINT ( 'NONE',  ( 0.3500000000000030864, -1.587500000000005684, 5.199999999999996625 ) ) ;
#647 = VECTOR ( 'NONE', #926, 1000.000000000000000 ) ;
#648 = VECTOR ( 'NONE', #683, 1000.000000000000114 ) ;
#649 = ADVANCED_FACE ( 'NONE', ( #172 ), #1101, .T. ) ;
#650 = EDGE_LOOP ( 'NONE', ( #510, #101, #103, #748 ) ) ;
#651 = CARTESIAN_POINT ( 'NONE',  ( -1.776842238108543581, 1.034299215406968786, 5.776524605989269645 ) ) ;
#652 = CARTESIAN_POINT ( 'NONE',  ( 0.000000000000000000, 0.000000000000000000, -8.016000000000000014 ) ) ;
#653 = CARTESIAN_POINT ( 'NONE',  ( 0.000000000000000000, 0.000000000000000000, -8.016000000000000014 ) ) ;
#654 = ORIENTED_EDGE ( 'NONE', *, *, #1248, .F. ) ;
#655 = EDGE_CURVE ( 'NONE', #924, #1227, #94, .T. ) ;
#656 = CIRCLE ( 'NONE', #1004, 0.5000000000000004441 ) ;
#657 = PLANE ( 'NONE',  #626 ) ;
#658 = DIRECTION ( 'NONE',  ( 0.000000000000000000, 0.000000000000000000, 1.000000000000000000 ) ) ;
#659 = CARTESIAN_POINT ( 'NONE',  ( -0.6550150799420340064, 1.587500000000005684, 5.199999999999996625 ) ) ;
#660 = ORIENTED_EDGE ( 'NONE', *, *, #1261, .T. ) ;
#661 = CIRCLE ( 'NONE', #284, 2.032000000000000028 ) ;
#662 = DIRECTION ( 'NONE',  ( -1.000000000000000000, 6.994852725712931474E-17, 0.000000000000000000 ) ) ;
#663 = ADVANCED_FACE ( 'NONE', ( #608 ), #1293, .T. ) ;
#664 = DIRECTION ( 'NONE',  ( 1.000000000000000000, 0.000000000000000000, 0.000000000000000000 ) ) ;
#665 = CARTESIAN_POINT ( 'NONE',  ( 0.000000000000000000, 0.000000000000000000, 0.08999999999999985789 ) ) ;
#666 =( LENGTH_UNIT ( ) NAMED_UNIT ( * ) SI_UNIT ( .MILLI., .METRE. ) );
#667 = VERTEX_POINT ( 'NONE', #189 ) ;
#668 = CARTESIAN_POINT ( 'NONE',  ( 1.549999999999995826, 1.313972602454096972, 5.461000000000007404 ) ) ;
#669 = AXIS2_PLACEMENT_3D ( 'NONE', #1099, #783, #873 ) ;
#670 = ORIENTED_EDGE ( 'NONE', *, *, #463, .T. ) ;
#671 = CARTESIAN_POINT ( 'NONE',  ( -0.4980973490458784347, -1.588549999999994133, 3.406422128626171553 ) ) ;
#672 = FACE_OUTER_BOUND ( 'NONE', #627, .T. ) ;
#673 = EDGE_CURVE ( 'NONE', #1148, #782, #1187, .T. ) ;
#674 = CARTESIAN_POINT ( 'NONE',  ( -1.245064030267287514, 2.005398340834732042E-16, -13.52599999999999802 ) ) ;
#675 = CARTESIAN_POINT ( 'NONE',  ( 0.000000000000000000, 0.000000000000000000, -8.016000000000000014 ) ) ;
#676 = VERTEX_POINT ( 'NONE', #802 ) ;
#677 = CARTESIAN_POINT ( 'NONE',  ( 0.4331113923364698359, 1.587499999999999689, -13.49785360559251934 ) ) ;
#678 = EDGE_LOOP ( 'NONE', ( #223, #931, #402, #1079, #628, #1072, #316, #197 ) ) ;
#679 = PLANE ( 'NONE',  #350 ) ;
#680 = CARTESIAN_POINT ( 'NONE',  ( 0.2038468701599970845, -1.587500000000000133, -13.49840870214576860 ) ) ;
#681 = FACE_OUTER_BOUND ( 'NONE', #581, .T. ) ;
#682 = ORIENTED_EDGE ( 'NONE', *, *, #1179, .F. ) ;
#683 = DIRECTION ( 'NONE',  ( 0.08715574274765827689, 0.000000000000000000, -0.9961946980917455452 ) ) ;
#684 = EDGE_LOOP ( 'NONE', ( #698, #634, #730, #890 ) ) ;
#685 = FACE_BOUND ( 'NONE', #1275, .T. ) ;
#686 = CIRCLE ( 'NONE', #832, 2.049999999999999822 ) ;
#687 = DIRECTION ( 'NONE',  ( -0.000000000000000000, 0.000000000000000000, 1.000000000000000000 ) ) ;
#688 = PERSON_AND_ORGANIZATION ( #142, #955 ) ;
#689 = EDGE_LOOP ( 'NONE', ( #977, #416, #188, #943, #599, #482 ) ) ;
#690 = DIRECTION ( 'NONE',  ( -0.000000000000000000, -0.000000000000000000, 1.000000000000000000 ) ) ;
#691 = ADVANCED_FACE ( 'NONE', ( #600 ), #970, .T. ) ;
#692 = VERTEX_POINT ( 'NONE', #84 ) ;
#693 = CARTESIAN_POINT ( 'NONE',  ( 0.000000000000000000, 0.000000000000000000, -8.016000000000000014 ) ) ;
#694 = CIRCLE ( 'NONE', #113, 2.032000000000000028 ) ;
#695 = CARTESIAN_POINT ( 'NONE',  ( 0.000000000000000000, 0.000000000000000000, -13.37571530186499480 ) ) ;
#696 = FACE_OUTER_BOUND ( 'NONE', #426, .T. ) ;
#697 = DATE_AND_TIME ( #293, #468 ) ;
#698 = ORIENTED_EDGE ( 'NONE', *, *, #1160, .T. ) ;
#699 = CARTESIAN_POINT ( 'NONE',  ( 1.268411506570324088, -1.587500000000005684, 0.08999999999999980238 ) ) ;
#700 = VERTEX_POINT ( 'NONE', #779 ) ;
#701 = DIRECTION ( 'NONE',  ( -0.000000000000000000, -0.000000000000000000, 1.000000000000000000 ) ) ;
#702 = EDGE_CURVE ( 'NONE', #1281, #107, #275, .T. ) ;
#703 = CARTESIAN_POINT ( 'NONE',  ( 1.549999999999995826, -1.313972602454096972, 5.461000000000007404 ) ) ;
#704 = APPROVAL_PERSON_ORGANIZATION ( #688, #167, #495 ) ;
#705 = CIRCLE ( 'NONE', #429, 2.029999999999999805 ) ;
#706 = EDGE_LOOP ( 'NONE', ( #348, #1219, #1192, #1100, #1046, #274 ) ) ;
#707 = ORIENTED_EDGE ( 'NONE', *, *, #591, .F. ) ;
#708 = CARTESIAN_POINT ( 'NONE',  ( -1.549999999999995826, 1.587500000000005684, 0.08999999999999980238 ) ) ;
#709 = CARTESIAN_POINT ( 'NONE',  ( -1.599295491109038236, -1.291974124445357530, 5.960379644622163298 ) ) ;
#710 = VECTOR ( 'NONE', #724, 1000.000000000000000 ) ;
#711 = EDGE_CURVE ( 'NONE', #799, #731, #230, .T. ) ;
#712 = APPROVAL_DATE_TIME ( #1020, #833 ) ;
#713 = ORIENTED_EDGE ( 'NONE', *, *, #956, .F. ) ;
#714 = ORIENTED_EDGE ( 'NONE', *, *, #354, .T. ) ;
#715 = CARTESIAN_POINT ( 'NONE',  ( -0.4980973490458784347, -1.588549999999994133, 3.406422128626171553 ) ) ;
#716 = CARTESIAN_POINT ( 'NONE',  ( 1.891269295326080568, 3.176000000000000156, 5.658031919522665376 ) ) ;
#717 = AXIS2_PLACEMENT_3D ( 'NONE', #882, #1209, #590 ) ;
#718 = ADVANCED_FACE ( 'NONE', ( #1228 ), #1031, .F. ) ;
#719 = CARTESIAN_POINT ( 'NONE',  ( 1.367896803705373365, -1.588549999999994133, 6.199999999999997513 ) ) ;
#720 = ORIENTED_EDGE ( 'NONE', *, *, #631, .T. ) ;
#721 = CARTESIAN_POINT ( 'NONE',  ( 0.000000000000000000, 0.000000000000000000, 6.199999999999997513 ) ) ;
#722 = CARTESIAN_POINT ( 'NONE',  ( 1.587499999999999689, 0.000000000000000000, -13.49822736169286230 ) ) ;
#723 = LINE ( 'NONE', #659, #496 ) ;
#724 = DIRECTION ( 'NONE',  ( -0.000000000000000000, -0.000000000000000000, 1.000000000000000000 ) ) ;
#725 = AXIS2_PLACEMENT_3D ( 'NONE', #55, #969, #36 ) ;
#726 = EDGE_CURVE ( 'NONE', #256, #1241, #812, .T. ) ;
#727 = EDGE_LOOP ( 'NONE', ( #388, #1314, #369, #915 ) ) ;
#728 = PLANE ( 'NONE',  #267 ) ;
#729 = CARTESIAN_POINT ( 'NONE',  ( -1.587499999999999689, 0.4266362614708302248, -13.49201532522091185 ) ) ;
#730 = ORIENTED_EDGE ( 'NONE', *, *, #790, .T. ) ;
#731 = VERTEX_POINT ( 'NONE', #619 ) ;
#732 = CARTESIAN_POINT ( 'NONE',  ( 1.268411506570324310, -1.587500000000005684, 6.199999999999997513 ) ) ;
#733 = ADVANCED_FACE ( 'NONE', ( #1121 ), #728, .F. ) ;
#734 = CARTESIAN_POINT ( 'NONE',  ( -0.3500000000000030864, 1.587500000000005684, 5.199999999999996625 ) ) ;
#735 = VECTOR ( 'NONE', #1065, 1000.000000000000000 ) ;
#736 = AXIS2_PLACEMENT_3D ( 'NONE', #1273, #658, #754 ) ;
#737 = VERTEX_POINT ( 'NONE', #115 ) ;
#738 = PLANE ( 'NONE',  #632 ) ;
#739 = CC_DESIGN_PERSON_AND_ORGANIZATION_ASSIGNMENT ( #413, #277, ( #1081 ) ) ;
#740 = DIRECTION ( 'NONE',  ( -0.000000000000000000, -0.000000000000000000, -1.000000000000000000 ) ) ;
#741 = ORIENTED_EDGE ( 'NONE', *, *, #1039, .T. ) ;
#742 = DIRECTION ( 'NONE',  ( 0.000000000000000000, 0.000000000000000000, -1.000000000000000000 ) ) ;
#743 = CARTESIAN_POINT ( 'NONE',  ( 1.587499999999999689, 0.000000000000000000, -13.49822736169286230 ) ) ;
#744 = PLANE ( 'NONE',  #19 ) ;
#745 = EDGE_CURVE ( 'NONE', #667, #881, #1022, .T. ) ;
#746 = CARTESIAN_POINT ( 'NONE',  ( 1.891269295326080568, 0.7430507738753737712, 5.658031919522665376 ) ) ;
#747 = CIRCLE ( 'NONE', #1136, 2.029999999999999805 ) ;
#748 = ORIENTED_EDGE ( 'NONE', *, *, #1171, .F. ) ;
#749 = ADVANCED_BREP_SHAPE_REPRESENTATION ( '228-2500-091', ( #176, #894 ), #556 ) ;
#750 = DIRECTION ( 'NONE',  ( 0.000000000000000000, 0.000000000000000000, 1.000000000000000000 ) ) ;
#751 = VERTEX_POINT ( 'NONE', #529 ) ;
#752 = CARTESIAN_POINT ( 'NONE',  ( 1.587499999999999467, -1.587500000000000577, -8.016000000000000014 ) ) ;
#753 = DIRECTION ( 'NONE',  ( 1.000000000000000000, 0.000000000000000000, 0.000000000000000000 ) ) ;
#754 = DIRECTION ( 'NONE',  ( 1.000000000000000000, 0.000000000000000000, 0.000000000000000000 ) ) ;
#755 = VECTOR ( 'NONE', #1271, 1000.000000000000000 ) ;
#756 = EDGE_CURVE ( 'NONE', #145, #925, #22, .T. ) ;
#757 = ORIENTED_EDGE ( 'NONE', *, *, #118, .T. ) ;
#758 = PLANE ( 'NONE',  #506 ) ;
#759 = CARTESIAN_POINT ( 'NONE',  ( 1.776842238108543581, 1.034299215406969008, 5.776524605989269645 ) ) ;
#760 = CARTESIAN_POINT ( 'NONE',  ( 1.587499999999999467, -1.265205022911306987, 0.9642561210691531493 ) ) ;
#761 = ORIENTED_EDGE ( 'NONE', *, *, #813, .T. ) ;
#762 = EDGE_CURVE ( 'NONE', #153, #227, #932, .T. ) ;
#763 = CARTESIAN_POINT ( 'NONE',  ( 1.367896803705387354, -1.502625147670771932, 6.199999999999997513 ) ) ;
#764 = CIRCLE ( 'NONE', #725, 2.049999999999999822 ) ;
#765 = DIRECTION ( 'NONE',  ( 1.000000000000000000, 0.000000000000000000, 0.000000000000000000 ) ) ;
#766 = DIRECTION ( 'NONE',  ( 1.000000000000000000, 0.000000000000000000, 0.000000000000000000 ) ) ;
#767 = DIRECTION ( 'NONE',  ( -1.000000000000000000, 0.000000000000000000, 0.000000000000000000 ) ) ;
#768 = ORIENTED_EDGE ( 'NONE', *, *, #494, .F. ) ;
#769 = VECTOR ( 'NONE', #1135, 1000.000000000000000 ) ;
#770 = DIRECTION ( 'NONE',  ( -1.000000000000000000, -5.329070518200751394E-15, 0.000000000000000000 ) ) ;
#771 = EDGE_CURVE ( 'NONE', #1107, #1148, #1016, .T. ) ;
#772 = DIRECTION ( 'NONE',  ( -0.000000000000000000, 1.000000000000000000, -0.000000000000000000 ) ) ;
#773 = DIRECTION ( 'NONE',  ( 0.000000000000000000, 0.000000000000000000, -1.000000000000000000 ) ) ;
#774 = AXIS2_PLACEMENT_3D ( 'NONE', #652, #1278, #770 ) ;
#775 = ORIENTED_EDGE ( 'NONE', *, *, #305, .T. ) ;
#776 = DIRECTION ( 'NONE',  ( 5.421010862427522170E-17, 0.000000000000000000, -1.000000000000000000 ) ) ;
#777 = AXIS2_PLACEMENT_3D ( 'NONE', #1280, #578, #953 ) ;
#778 = VERTEX_POINT ( 'NONE', #732 ) ;
#779 = CARTESIAN_POINT ( 'NONE',  ( -1.587499999999999911, 1.265205022911306543, -13.37571530186499480 ) ) ;
#780 = DIRECTION ( 'NONE',  ( 0.000000000000000000, 0.000000000000000000, 1.000000000000000000 ) ) ;
#781 = CARTESIAN_POINT ( 'NONE',  ( 1.549999999999995826, -1.313972602454096972, 5.461000000000007404 ) ) ;
#782 = VERTEX_POINT ( 'NONE', #1042 ) ;
#783 = DIRECTION ( 'NONE',  ( 0.000000000000000000, 0.000000000000000000, -1.000000000000000000 ) ) ;
#784 = EDGE_LOOP ( 'NONE', ( #1092, #279, #1202, #987, #834 ) ) ;
#785 = CARTESIAN_POINT ( 'NONE',  ( 2.049999999999999822, 0.000000000000000000, -6.336000000000000298 ) ) ;
#786 = CARTESIAN_POINT ( 'NONE',  ( 0.8464528245189996136, -1.587500000000000799, -13.45701305723136620 ) ) ;
#787 = DIRECTION ( 'NONE',  ( 1.000000000000000000, 0.000000000000000000, 0.000000000000000000 ) ) ;
#788 = VECTOR ( 'NONE', #1262, 1000.000000000000000 ) ;
#789 = DATE_TIME_ROLE ( 'creation_date' ) ;
#790 = EDGE_CURVE ( 'NONE', #1024, #676, #517, .T. ) ;
#791 = VERTEX_POINT ( 'NONE', #1026 ) ;
#792 = LINE ( 'NONE', #481, #244 ) ;
#793 = VERTEX_POINT ( 'NONE', #1139 ) ;
#794 = CARTESIAN_POINT ( 'NONE',  ( -1.268411506570324310, -1.587500000000005684, 6.199999999999997513 ) ) ;
#795 = AXIS2_PLACEMENT_3D ( 'NONE', #246, #877, #373 ) ;
#796 = CYLINDRICAL_SURFACE ( 'NONE', #431, 2.029999999999999805 ) ;
#797 = COORDINATED_UNIVERSAL_TIME_OFFSET ( 6, 0, .BEHIND. ) ;
#798 = ADVANCED_FACE ( 'NONE', ( #534 ), #635, .T. ) ;
#799 = VERTEX_POINT ( 'NONE', #322 ) ;
#800 = DIRECTION ( 'NONE',  ( -0.000000000000000000, -0.000000000000000000, 1.000000000000000000 ) ) ;
#801 = ORIENTED_EDGE ( 'NONE', *, *, #967, .T. ) ;
#802 = CARTESIAN_POINT ( 'NONE',  ( 1.265205022910970589, -1.587500000000000577, -13.37571530186537494 ) ) ;
#803 = DIRECTION ( 'NONE',  ( -0.000000000000000000, 1.000000000000000000, -0.000000000000000000 ) ) ;
#804 = ORIENTED_EDGE ( 'NONE', *, *, #538, .F. ) ;
#805 = ORIENTED_EDGE ( 'NONE', *, *, #1045, .F. ) ;
#806 = FACE_OUTER_BOUND ( 'NONE', #272, .T. ) ;
#807 = EDGE_CURVE ( 'NONE', #1317, #218, #921, .T. ) ;
#808 = CARTESIAN_POINT ( 'NONE',  ( 0.3500000000000030864, 1.587500000000005684, 5.199999999999996625 ) ) ;
#809 = PERSON_AND_ORGANIZATION ( #142, #955 ) ;
#810 = VERTEX_POINT ( 'NONE', #127 ) ;
#811 = ORIENTED_EDGE ( 'NONE', *, *, #40, .T. ) ;
#812 = LINE ( 'NONE', #329, #837 ) ;
#813 = EDGE_CURVE ( 'NONE', #1024, #227, #243, .T. ) ;
#814 = FACE_OUTER_BOUND ( 'NONE', #560, .T. ) ;
#815 = CIRCLE ( 'NONE', #343, 0.5000000000000000000 ) ;
#816 = LINE ( 'NONE', #1015, #710 ) ;
#817 = ORIENTED_EDGE ( 'NONE', *, *, #1210, .T. ) ;
#818 = CARTESIAN_POINT ( 'NONE',  ( 1.587499999999999911, 1.587499999999999245, -8.016000000000000014 ) ) ;
#819 = VECTOR ( 'NONE', #108, 1000.000000000000000 ) ;
#820 = DIRECTION ( 'NONE',  ( 1.000000000000000000, -2.731847993664263218E-16, 0.000000000000000000 ) ) ;
#821 = DIRECTION ( 'NONE',  ( 0.000000000000000000, 0.000000000000000000, -1.000000000000000000 ) ) ;
#822 = VERTEX_POINT ( 'NONE', #1222 ) ;
#823 = ORIENTED_EDGE ( 'NONE', *, *, #1231, .T. ) ;
#824 = DIRECTION ( 'NONE',  ( -1.000000000000000000, 6.994852725712932707E-17, -0.000000000000000000 ) ) ;
#825 = CARTESIAN_POINT ( 'NONE',  ( 1.587499999999999689, -0.4266362614708310574, -13.49201532522091185 ) ) ;
#826 = ORIENTED_EDGE ( 'NONE', *, *, #1125, .T. ) ;
#827 = EDGE_CURVE ( 'NONE', #907, #1306, #224, .T. ) ;
#828 = VECTOR ( 'NONE', #441, 1000.000000000000000 ) ;
#829 = VERTEX_POINT ( 'NONE', #423 ) ;
#830 = DIRECTION ( 'NONE',  ( -1.365923996832131116E-16, 1.000000000000000000, 0.000000000000000000 ) ) ;
#831 = CARTESIAN_POINT ( 'NONE',  ( -1.587500000000000133, -0.8492588818156088237, -13.45661429290257871 ) ) ;
#832 = AXIS2_PLACEMENT_3D ( 'NONE', #487, #910, #99 ) ;
#833 = APPROVAL ( #1218, 'UNSPECIFIED' ) ;
#834 = ORIENTED_EDGE ( 'NONE', *, *, #425, .F. ) ;
#835 = DIRECTION ( 'NONE',  ( -1.365923996832131856E-16, 1.000000000000000000, 0.000000000000000000 ) ) ;
#836 = CARTESIAN_POINT ( 'NONE',  ( 1.587499999999999689, -1.058689276690460979, -13.42687733328249067 ) ) ;
#837 = VECTOR ( 'NONE', #214, 1000.000000000000000 ) ;
#838 = VECTOR ( 'NONE', #549, 1000.000000000000000 ) ;
#839 = ORIENTED_EDGE ( 'NONE', *, *, #1248, .T. ) ;
#840 = DIRECTION ( 'NONE',  ( 0.000000000000000000, 0.000000000000000000, 1.000000000000000000 ) ) ;
#841 = EDGE_CURVE ( 'NONE', #592, #782, #694, .T. ) ;
#842 = B_SPLINE_CURVE_WITH_KNOTS ( 'NONE', 3,
 ( #722, #1038, #825, #1236, #836, #324 ),
 .UNSPECIFIED., .F., .F.,
 ( 4, 2, 4 ),
 ( 6.422030205859944076E-19, 0.0006349438228569483870, 0.001269887645713896123 ),
 .UNSPECIFIED. ) ;
#843 = CARTESIAN_POINT ( 'NONE',  ( -1.891269295326080568, 0.7430507738753729940, 5.658031919522665376 ) ) ;
#844 = ORIENTED_EDGE ( 'NONE', *, *, #949, .T. ) ;
#845 = CARTESIAN_POINT ( 'NONE',  ( 0.000000000000000000, 0.000000000000000000, 0.08999999999999985789 ) ) ;
#846 = ORIENTED_EDGE ( 'NONE', *, *, #1147, .T. ) ;
#847 = LINE ( 'NONE', #950, #371 ) ;
#848 = ADVANCED_FACE ( 'NONE', ( #428 ), #738, .F. ) ;
#849 = DIRECTION ( 'NONE',  ( 1.000000000000000000, 0.000000000000000000, 0.000000000000000000 ) ) ;
#850 = CARTESIAN_POINT ( 'NONE',  ( 0.6550150799420478842, 1.587500000000005684, 5.199999999999996625 ) ) ;
#851 = CARTESIAN_POINT ( 'NONE',  ( -0.3500000000000030864, 1.587500000000005684, 6.199999999999997513 ) ) ;
#852 = CLOSED_SHELL ( 'NONE', ( #77, #111, #180, #403, #555, #733, #278, #691, #602, #649, #1033, #1304, #286, #140, #248, #1014, #914, #622, #663, #617, #109, #718, #158, #848, #995, #1190, #1152, #895, #885, #201, #905, #518, #235, #1132, #798, #102, #571, #864, #250 ) ) ;
#853 = EDGE_LOOP ( 'NONE', ( #875, #470, #1245, #378, #859 ) ) ;
#854 = CARTESIAN_POINT ( 'NONE',  ( 1.776842238108543581, -1.034299215406968786, 5.776524605989269645 ) ) ;
#855 = CYLINDRICAL_SURFACE ( 'NONE', #414, 3.174999999999999822 ) ;
#856 = PLANE ( 'NONE',  #1040 ) ;
#857 = AXIS2_PLACEMENT_3D ( 'NONE', #266, #1054, #245 ) ;
#858 = EDGE_CURVE ( 'NONE', #822, #810, #255, .T. ) ;
#859 = ORIENTED_EDGE ( 'NONE', *, *, #259, .F. ) ;
#860 = CARTESIAN_POINT ( 'NONE',  ( -1.268411506570321867, 1.587500000000002354, 0.08999999999999980238 ) ) ;
#861 = CARTESIAN_POINT ( 'NONE',  ( -0.3500000000000030864, -1.588549999999994133, 6.199999999999997513 ) ) ;
#862 = FACE_OUTER_BOUND ( 'NONE', #15, .T. ) ;
#863 = DIRECTION ( 'NONE',  ( -0.000000000000000000, -0.000000000000000000, 1.000000000000000000 ) ) ;
#864 = ADVANCED_FACE ( 'NONE', ( #356 ), #237, .T. ) ;
#865 = VERTEX_POINT ( 'NONE', #668 ) ;
#866 = CC_DESIGN_APPROVAL ( #167, ( #1081 ) ) ;
#867 = DIRECTION ( 'NONE',  ( -0.000000000000000000, -0.000000000000000000, 1.000000000000000000 ) ) ;
#868 = AXIS2_PLACEMENT_3D ( 'NONE', #448, #1191, #456 ) ;
#869 = PLANE ( 'NONE',  #88 ) ;
#870 = DIRECTION ( 'NONE',  ( 1.365923996832131856E-16, -1.000000000000000000, 0.000000000000000000 ) ) ;
#871 = ORIENTED_EDGE ( 'NONE', *, *, #199, .T. ) ;
#872 = VECTOR ( 'NONE', #621, 1000.000000000000000 ) ;
#873 = DIRECTION ( 'NONE',  ( 1.000000000000000000, 0.000000000000000000, 0.000000000000000000 ) ) ;
#874 = AXIS2_PLACEMENT_3D ( 'NONE', #200, #1110, #917 ) ;
#875 = ORIENTED_EDGE ( 'NONE', *, *, #711, .F. ) ;
#876 = DIRECTION ( 'NONE',  ( 1.000000000000000000, 0.000000000000000000, 0.000000000000000000 ) ) ;
#877 = DIRECTION ( 'NONE',  ( 0.000000000000000000, 0.000000000000000000, 1.000000000000000000 ) ) ;
#878 = CARTESIAN_POINT ( 'NONE',  ( -1.549999999999995826, -2.192040705001133016, 5.461000000000007404 ) ) ;
#879 = DESIGN_CONTEXT ( 'detailed design', #962, 'design' ) ;
#880 = VECTOR ( 'NONE', #584, 1000.000000000000000 ) ;
#881 = VERTEX_POINT ( 'NONE', #450 ) ;
#882 = CARTESIAN_POINT ( 'NONE',  ( -1.549999999999995826, -2.192040705001133016, 6.011426619998760934 ) ) ;
#883 = VERTEX_POINT ( 'NONE', #1168 ) ;
#884 = DIRECTION ( 'NONE',  ( 1.000000000000000000, -2.731847993664263218E-16, -0.000000000000000000 ) ) ;
#885 = ADVANCED_FACE ( 'NONE', ( #643 ), #1047, .T. ) ;
#886 = DIRECTION ( 'NONE',  ( -0.000000000000000000, -0.000000000000000000, 1.000000000000000000 ) ) ;
#887 = CALENDAR_DATE ( 2022, 6, 6 ) ;
#888 = ORIENTED_EDGE ( 'NONE', *, *, #93, .T. ) ;
#889 = DIRECTION ( 'NONE',  ( -0.000000000000000000, -1.000000000000000000, -0.000000000000000000 ) ) ;
#890 = ORIENTED_EDGE ( 'NONE', *, *, #1224, .F. ) ;
#891 = DIRECTION ( 'NONE',  ( 0.5000000000000037748, 0.000000000000000000, -0.8660254037844364872 ) ) ;
#892 = CARTESIAN_POINT ( 'NONE',  ( 0.000000000000000000, -1.587500000000005684, 3.449999999999994849 ) ) ;
#893 = CARTESIAN_POINT ( 'NONE',  ( 0.000000000000000000, 0.000000000000000000, -8.016000000000000014 ) ) ;
#894 = AXIS2_PLACEMENT_3D ( 'NONE', #79, #392, #1112 ) ;
#895 = ADVANCED_FACE ( 'NONE', ( #1064 ), #257, .T. ) ;
#896 = PERSON_AND_ORGANIZATION_ROLE ( 'creator' ) ;
#897 = ORIENTED_EDGE ( 'NONE', *, *, #1179, .T. ) ;
#898 = CARTESIAN_POINT ( 'NONE',  ( 0.4980973490458784347, -1.588549999999994133, 3.406422128626171553 ) ) ;
#899 = ORIENTED_EDGE ( 'NONE', *, *, #1088, .T. ) ;
#900 = FACE_OUTER_BOUND ( 'NONE', #1255, .T. ) ;
#901 = AXIS2_PLACEMENT_3D ( 'NONE', #269, #358, #34 ) ;
#902 = CYLINDRICAL_SURFACE ( 'NONE', #984, 0.5000000000000004441 ) ;
#903 =( BOUNDED_CURVE ( )  B_SPLINE_CURVE ( 3, ( #143, #352, #759, #1164 ),
 .UNSPECIFIED., .F., .T. ) 
 B_SPLINE_CURVE_WITH_KNOTS ( ( 4, 4 ),
 ( 5.450886424868653712, 5.908827816782351583 ),
 .UNSPECIFIED. ) 
 CURVE ( )  GEOMETRIC_REPRESENTATION_ITEM ( )  RATIONAL_B_SPLINE_CURVE ( ( 1.000000000000000000, 0.9826003582447271345, 0.9826003582447271345, 1.000000000000000000 ) ) 
 REPRESENTATION_ITEM ( '' )  );
#904 = ORIENTED_EDGE ( 'NONE', *, *, #702, .T. ) ;
#905 = ADVANCED_FACE ( 'NONE', ( #443, #51 ), #134, .T. ) ;
#906 = AXIS2_PLACEMENT_3D ( 'NONE', #182, #891, #398 ) ;
#907 = VERTEX_POINT ( 'NONE', #45 ) ;
#908 = DIRECTION ( 'NONE',  ( -1.000000000000000000, 0.000000000000000000, -0.000000000000000000 ) ) ;
#909 = AXIS2_PLACEMENT_3D ( 'NONE', #1162, #458, #1185 ) ;
#910 = DIRECTION ( 'NONE',  ( -0.000000000000000000, -0.000000000000000000, 1.000000000000000000 ) ) ;
#911 = CARTESIAN_POINT ( 'NONE',  ( -0.3500000000000030864, -1.588549999999994133, 5.199999999999996625 ) ) ;
#912 = APPROVAL_STATUS ( 'not_yet_approved' ) ;
#913 = ORIENTED_EDGE ( 'NONE', *, *, #336, .F. ) ;
#914 = ADVANCED_FACE ( 'NONE', ( #1265 ), #349, .T. ) ;
#915 = ORIENTED_EDGE ( 'NONE', *, *, #65, .T. ) ;
#916 = DIRECTION ( 'NONE',  ( 0.000000000000000000, 0.000000000000000000, 1.000000000000000000 ) ) ;
#917 = DIRECTION ( 'NONE',  ( -1.000000000000000000, 0.000000000000000000, 0.000000000000000000 ) ) ;
#918 = PERSON_AND_ORGANIZATION ( #142, #955 ) ;
#919 = VERTEX_POINT ( 'NONE', #498 ) ;
#920 = EDGE_LOOP ( 'NONE', ( #1021, #301, #1131, #504 ) ) ;
#921 = LINE ( 'NONE', #1246, #647 ) ;
#922 = CARTESIAN_POINT ( 'NONE',  ( -0.4980973490458784347, 1.587500000000005684, 3.406422128626171553 ) ) ;
#923 = CIRCLE ( 'NONE', #128, 2.032000000000000028 ) ;
#924 = VERTEX_POINT ( 'NONE', #471 ) ;
#925 = VERTEX_POINT ( 'NONE', #606 ) ;
#926 = DIRECTION ( 'NONE',  ( -0.000000000000000000, 1.000000000000000000, -0.000000000000000000 ) ) ;
#927 = VECTOR ( 'NONE', #351, 1000.000000000000000 ) ;
#928 = DIRECTION ( 'NONE',  ( -1.000000000000000000, 0.000000000000000000, 0.000000000000000000 ) ) ;
#929 = EDGE_CURVE ( 'NONE', #925, #692, #1084, .T. ) ;
#930 = VERTEX_POINT ( 'NONE', #992 ) ;
#931 = ORIENTED_EDGE ( 'NONE', *, *, #1088, .F. ) ;
#932 = LINE ( 'NONE', #818, #542 ) ;
#933 = DIRECTION ( 'NONE',  ( -5.421010862427522170E-17, 0.000000000000000000, 1.000000000000000000 ) ) ;
#934 = EDGE_CURVE ( 'NONE', #287, #829, #1298, .T. ) ;
#935 = CC_DESIGN_APPROVAL ( #833, ( #384 ) ) ;
#936 = EDGE_CURVE ( 'NONE', #162, #642, #387, .T. ) ;
#937 = AXIS2_PLACEMENT_3D ( 'NONE', #375, #773, #1057 ) ;
#938 = EDGE_LOOP ( 'NONE', ( #1308, #757, #342, #871, #241, #1041 ) ) ;
#939 = CARTESIAN_POINT ( 'NONE',  ( -1.587499999999999467, -1.265205022911306987, 0.9642561210691531493 ) ) ;
#940 = DIRECTION ( 'NONE',  ( -2.731847993664263218E-16, -1.000000000000000000, 0.000000000000000000 ) ) ;
#941 = CIRCLE ( 'NONE', #520, 2.032000000000000028 ) ;
#942 = EDGE_CURVE ( 'NONE', #700, #925, #372, .T. ) ;
#943 = ORIENTED_EDGE ( 'NONE', *, *, #771, .F. ) ;
#944 = DIRECTION ( 'NONE',  ( -1.000000000000000000, 0.000000000000000000, 0.000000000000000000 ) ) ;
#945 =( BOUNDED_CURVE ( )  B_SPLINE_CURVE ( 3, ( #48, #270, #462, #843 ),
 .UNSPECIFIED., .F., .T. ) 
 B_SPLINE_CURVE_WITH_KNOTS ( ( 4, 4 ),
 ( 2.438421258473190800, 2.767235163192559799 ),
 .UNSPECIFIED. ) 
 CURVE ( )  GEOMETRIC_REPRESENTATION_ITEM ( )  RATIONAL_B_SPLINE_CURVE ( ( 1.000000000000000000, 0.9910103942223804641, 0.9910103942223804641, 1.000000000000000000 ) ) 
 REPRESENTATION_ITEM ( '' )  );
#946 = CARTESIAN_POINT ( 'NONE',  ( -1.587499999999999689, 0.2137577912264039259, -13.49822736169286053 ) ) ;
#947 = VECTOR ( 'NONE', #104, 1000.000000000000000 ) ;
#948 = VERTEX_POINT ( 'NONE', #194 ) ;
#949 = EDGE_CURVE ( 'NONE', #218, #1241, #582, .T. ) ;
#950 = CARTESIAN_POINT ( 'NONE',  ( 1.549999999999995826, 1.313972602454096972, 6.199999999999997513 ) ) ;
#951 =( BOUNDED_CURVE ( )  B_SPLINE_CURVE ( 3, ( #452, #854, #1266, #763 ),
 .UNSPECIFIED., .F., .F. ) 
 B_SPLINE_CURVE_WITH_KNOTS ( ( 4, 4 ),
 ( 0.3743574903972348156, 0.8322988823109325196 ),
 .UNSPECIFIED. ) 
 CURVE ( )  GEOMETRIC_REPRESENTATION_ITEM ( )  RATIONAL_B_SPLINE_CURVE ( ( 1.000000000000000000, 0.9826003582447271345, 0.9826003582447271345, 1.000000000000000000 ) ) 
 REPRESENTATION_ITEM ( '' )  );
#952 = CARTESIAN_POINT ( 'NONE',  ( 0.000000000000000000, 0.000000000000000000, 6.199999999999997513 ) ) ;
#953 = DIRECTION ( 'NONE',  ( 1.000000000000000000, 0.000000000000000000, 0.000000000000000000 ) ) ;
#954 = ORIENTED_EDGE ( 'NONE', *, *, #472, .F. ) ;
#955 = ORGANIZATION ( 'UNSPECIFIED', 'UNSPECIFIED', '' ) ;
#956 = EDGE_CURVE ( 'NONE', #751, #488, #187, .T. ) ;
#957 = CARTESIAN_POINT ( 'NONE',  ( 0.000000000000000000, 0.000000000000000000, -6.336000000000000298 ) ) ;
#958 = EDGE_CURVE ( 'NONE', #822, #1264, #288, .T. ) ;
#959 = CARTESIAN_POINT ( 'NONE',  ( -1.809458434164561647, -0.9512819946464553533, 5.610798396808426070 ) ) ;
#960 = LINE ( 'NONE', #42, #788 ) ;
#961 = CARTESIAN_POINT ( 'NONE',  ( 1.694670100521884937, 1.143315577041155606, 5.544525321479995661 ) ) ;
#962 = APPLICATION_CONTEXT ( 'configuration controlled 3d designs of mechanical parts and assemblies' ) ;
#963 = VERTEX_POINT ( 'NONE', #1307 ) ;
#964 = CARTESIAN_POINT ( 'NONE',  ( 0.000000000000000000, 0.000000000000000000, 6.199999999999997513 ) ) ;
#965 = CARTESIAN_POINT ( 'NONE',  ( 0.000000000000000000, 0.000000000000000000, -6.336000000000000298 ) ) ;
#966 = CYLINDRICAL_SURFACE ( 'NONE', #327, 2.049999999999999822 ) ;
#967 = EDGE_CURVE ( 'NONE', #667, #919, #978, .T. ) ;
#968 = CARTESIAN_POINT ( 'NONE',  ( 0.000000000000000000, 0.000000000000000000, -6.336000000000000298 ) ) ;
#969 = DIRECTION ( 'NONE',  ( 0.000000000000000000, 0.000000000000000000, 1.000000000000000000 ) ) ;
#970 = TOROIDAL_SURFACE ( 'NONE', #1097, 1.245064030267280630, 2.125000000000038192 ) ;
#971 = ORIENTED_EDGE ( 'NONE', *, *, #425, .T. ) ;
#972 = DIRECTION ( 'NONE',  ( 0.000000000000000000, 0.000000000000000000, -1.000000000000000000 ) ) ;
#973 = DIRECTION ( 'NONE',  ( -0.000000000000000000, -0.000000000000000000, 1.000000000000000000 ) ) ;
#974 = CARTESIAN_POINT ( 'NONE',  ( -1.367896803705387354, -1.588549999999994133, 6.199999999999997513 ) ) ;
#975 = CARTESIAN_POINT ( 'NONE',  ( -1.268411506570324310, -1.587500000000005684, 6.199999999999997513 ) ) ;
#976 = LINE ( 'NONE', #878, #82 ) ;
#977 = ORIENTED_EDGE ( 'NONE', *, *, #149, .F. ) ;
#978 = LINE ( 'NONE', #295, #648 ) ;
#979 = EDGE_LOOP ( 'NONE', ( #44, #355, #775, #1017, #181, #1283, #971, #315 ) ) ;
#980 = FACE_OUTER_BOUND ( 'NONE', #97, .T. ) ;
#981 = DIRECTION ( 'NONE',  ( -5.421010862427522170E-17, 0.000000000000000000, -1.000000000000000000 ) ) ;
#982 = LINE ( 'NONE', #53, #1244 ) ;
#983 = ORIENTED_EDGE ( 'NONE', *, *, #240, .F. ) ;
#984 = AXIS2_PLACEMENT_3D ( 'NONE', #1003, #803, #1013 ) ;
#985 = DIRECTION ( 'NONE',  ( 1.000000000000000000, 0.000000000000000000, 0.000000000000000000 ) ) ;
#986 = EDGE_CURVE ( 'NONE', #799, #574, #29, .T. ) ;
#987 = ORIENTED_EDGE ( 'NONE', *, *, #395, .F. ) ;
#988 = CARTESIAN_POINT ( 'NONE',  ( 3.174999999999999822, 0.000000000000000000, -6.336000000000000298 ) ) ;
#989 = DIRECTION ( 'NONE',  ( 1.000000000000000000, 0.000000000000000000, 0.000000000000000000 ) ) ;
#990 = DATE_AND_TIME ( #1206, #168 ) ;
#991 = EDGE_LOOP ( 'NONE', ( #1009, #605 ) ) ;
#992 = CARTESIAN_POINT ( 'NONE',  ( 0.3500000000000030864, 1.587500000000005684, 6.199999999999997513 ) ) ;
#993 = ORIENTED_EDGE ( 'NONE', *, *, #1039, .F. ) ;
#994 = CARTESIAN_POINT ( 'NONE',  ( 1.245064030267280630, 0.000000000000000000, -11.40099999999995894 ) ) ;
#995 = ADVANCED_FACE ( 'NONE', ( #1091 ), #179, .F. ) ;
#996 = CARTESIAN_POINT ( 'NONE',  ( 1.694670100521885159, -1.143315577041155606, 5.544525321479995661 ) ) ;
#997 = APPROVAL_STATUS ( 'not_yet_approved' ) ;
#998 = ORIENTED_EDGE ( 'NONE', *, *, #1060, .T. ) ;
#999 = CARTESIAN_POINT ( 'NONE',  ( 0.000000000000000000, 0.000000000000000000, -8.016000000000000014 ) ) ;
#1000 = ORIENTED_EDGE ( 'NONE', *, *, #790, .F. ) ;
#1001 = DIRECTION ( 'NONE',  ( -0.000000000000000000, 0.000000000000000000, 1.000000000000000000 ) ) ;
#1002 = CC_DESIGN_PERSON_AND_ORGANIZATION_ASSIGNMENT ( #918, #1117, ( #384 ) ) ;
#1003 = CARTESIAN_POINT ( 'NONE',  ( 0.000000000000000000, -1.588549999999994133, 3.449999999999994849 ) ) ;
#1004 = AXIS2_PLACEMENT_3D ( 'NONE', #892, #164, #492 ) ;
#1005 = EDGE_CURVE ( 'NONE', #217, #1124, #792, .T. ) ;
#1006 = PERSON_AND_ORGANIZATION ( #142, #955 ) ;
#1007 = UNCERTAINTY_MEASURE_WITH_UNIT (LENGTH_MEASURE( 1.000000000000000082E-05 ), #666, 'distance_accuracy_value', 'NONE');
#1008 = ORIENTED_EDGE ( 'NONE', *, *, #86, .F. ) ;
#1009 = ORIENTED_EDGE ( 'NONE', *, *, #225, .F. ) ;
#1010 = CARTESIAN_POINT ( 'NONE',  ( -1.265205022911305432, -1.587500000000000577, -13.37571530186499480 ) ) ;
#1011 = AXIS2_PLACEMENT_3D ( 'NONE', #18, #430, #1253 ) ;
#1012 = CARTESIAN_POINT ( 'NONE',  ( -1.268411506570324310, 1.587500000000005684, 6.199999999999997513 ) ) ;
#1013 = DIRECTION ( 'NONE',  ( 0.000000000000000000, 0.000000000000000000, 1.000000000000000000 ) ) ;
#1014 = ADVANCED_FACE ( 'NONE', ( #396 ), #64, .T. ) ;
#1015 = CARTESIAN_POINT ( 'NONE',  ( 1.268411506570324310, -1.587500000000005684, 6.199999999999997513 ) ) ;
#1016 = CIRCLE ( 'NONE', #1049, 2.032000000000000028 ) ;
#1017 = ORIENTED_EDGE ( 'NONE', *, *, #942, .T. ) ;
#1018 = VECTOR ( 'NONE', #564, 1000.000000000000000 ) ;
#1019 = CARTESIAN_POINT ( 'NONE',  ( 1.587499999999999911, 1.265205022911306543, -8.016000000000000014 ) ) ;
#1020 = DATE_AND_TIME ( #100, #1129 ) ;
#1021 = ORIENTED_EDGE ( 'NONE', *, *, #199, .F. ) ;
#1022 = LINE ( 'NONE', #317, #947 ) ;
#1023 = DIRECTION ( 'NONE',  ( -1.000000000000000000, 6.994852725712932707E-17, -0.000000000000000000 ) ) ;
#1024 = VERTEX_POINT ( 'NONE', #73 ) ;
#1025 = VERTEX_POINT ( 'NONE', #699 ) ;
#1026 = CARTESIAN_POINT ( 'NONE',  ( 0.3500000000000030864, -1.587500000000005684, 6.199999999999997513 ) ) ;
#1027 = EDGE_CURVE ( 'NONE', #153, #737, #95, .T. ) ;
#1028 = LINE ( 'NONE', #636, #609 ) ;
#1029 = ORIENTED_EDGE ( 'NONE', *, *, #1171, .T. ) ;
#1030 = ORIENTED_EDGE ( 'NONE', *, *, #1261, .F. ) ;
#1031 = PLANE ( 'NONE',  #70 ) ;
#1032 = VECTOR ( 'NONE', #410, 1000.000000000000000 ) ;
#1033 = ADVANCED_FACE ( 'NONE', ( #862 ), #239, .F. ) ;
#1034 = LINE ( 'NONE', #116, #228 ) ;
#1035 = ORIENTED_EDGE ( 'NONE', *, *, #524, .T. ) ;
#1036 = EDGE_LOOP ( 'NONE', ( #511, #11, #811, #904, #325, #515 ) ) ;
#1037 = DIRECTION ( 'NONE',  ( 0.000000000000000000, 0.000000000000000000, -1.000000000000000000 ) ) ;
#1038 = CARTESIAN_POINT ( 'NONE',  ( 1.587499999999999689, -0.2137577912264046476, -13.49822736169286053 ) ) ;
#1039 = EDGE_CURVE ( 'NONE', #692, #737, #365, .T. ) ;
#1040 = AXIS2_PLACEMENT_3D ( 'NONE', #968, #35, #1159 ) ;
#1041 = ORIENTED_EDGE ( 'NONE', *, *, #20, .F. ) ;
#1042 = CARTESIAN_POINT ( 'NONE',  ( -1.268411506570321867, -1.587500000000002354, 0.08999999999999980238 ) ) ;
#1043 = DIRECTION ( 'NONE',  ( -1.000000000000000000, 1.365923996832131609E-16, 0.000000000000000000 ) ) ;
#1044 = AXIS2_PLACEMENT_3D ( 'NONE', #313, #1086, #989 ) ;
#1045 = EDGE_CURVE ( 'NONE', #1148, #751, #1173, .T. ) ;
#1046 = ORIENTED_EDGE ( 'NONE', *, *, #1078, .F. ) ;
#1047 = CYLINDRICAL_SURFACE ( 'NONE', #614, 2.032000000000000028 ) ;
#1048 = LINE ( 'NONE', #546, #526 ) ;
#1049 = AXIS2_PLACEMENT_3D ( 'NONE', #721, #434, #1127 ) ;
#1050 = CARTESIAN_POINT ( 'NONE',  ( 0.000000000000000000, 0.000000000000000000, 6.199999999999997513 ) ) ;
#1051 = CC_DESIGN_PERSON_AND_ORGANIZATION_ASSIGNMENT ( #208, #514, ( #384 ) ) ;
#1052 = ORIENTED_EDGE ( 'NONE', *, *, #827, .T. ) ;
#1053 = DIRECTION ( 'NONE',  ( -1.000000000000000000, 0.000000000000000000, 0.000000000000000000 ) ) ;
#1054 = DIRECTION ( 'NONE',  ( -0.000000000000000000, -0.000000000000000000, 1.000000000000000000 ) ) ;
#1055 = CARTESIAN_POINT ( 'NONE',  ( 0.000000000000000000, 0.000000000000000000, -8.016000000000000014 ) ) ;
#1056 = LINE ( 'NONE', #1076, #156 ) ;
#1057 = DIRECTION ( 'NONE',  ( 1.000000000000000000, 2.664535259100375697E-15, 0.000000000000000000 ) ) ;
#1058 = VECTOR ( 'NONE', #1095, 1000.000000000000000 ) ;
#1059 = FACE_OUTER_BOUND ( 'NONE', #26, .T. ) ;
#1060 = EDGE_CURVE ( 'NONE', #1306, #1292, #268, .T. ) ;
#1061 = CARTESIAN_POINT ( 'NONE',  ( -1.549999999999995826, -1.587500000000005684, 6.199999999999997513 ) ) ;
#1062 = DIRECTION ( 'NONE',  ( 0.000000000000000000, 0.000000000000000000, 1.000000000000000000 ) ) ;
#1063 = ORIENTED_EDGE ( 'NONE', *, *, #807, .T. ) ;
#1064 = FACE_OUTER_BOUND ( 'NONE', #938, .T. ) ;
#1065 = DIRECTION ( 'NONE',  ( -1.000000000000000000, 0.000000000000000000, 0.000000000000000000 ) ) ;
#1066 = CARTESIAN_POINT ( 'NONE',  ( -1.549999999999995826, -1.313972602454096972, 5.461000000000007404 ) ) ;
#1067 = AXIS2_PLACEMENT_3D ( 'NONE', #965, #357, #876 ) ;
#1068 = CARTESIAN_POINT ( 'NONE',  ( 1.265205022911307209, 1.587499999999999245, 0.9642561210691531493 ) ) ;
#1069 = VECTOR ( 'NONE', #776, 1000.000000000000000 ) ;
#1070 = ORIENTED_EDGE ( 'NONE', *, *, #472, .T. ) ;
#1071 = DIRECTION ( 'NONE',  ( -1.000000000000000000, 0.000000000000000000, 0.000000000000000000 ) ) ;
#1072 = ORIENTED_EDGE ( 'NONE', *, *, #562, .F. ) ;
#1073 = DIRECTION ( 'NONE',  ( -1.000000000000000000, 0.000000000000000000, 0.000000000000000000 ) ) ;
#1074 = DIRECTION ( 'NONE',  ( -0.000000000000000000, -0.000000000000000000, 1.000000000000000000 ) ) ;
#1075 = CARTESIAN_POINT ( 'NONE',  ( -1.268411506570324310, 1.587500000000005684, 6.199999999999997513 ) ) ;
#1076 = CARTESIAN_POINT ( 'NONE',  ( 0.3500000000000030864, -1.588549999999994133, 6.199999999999997513 ) ) ;
#1077 = CARTESIAN_POINT ( 'NONE',  ( 1.268411506570324088, 1.587500000000005462, 0.08999999999999980238 ) ) ;
#1078 = EDGE_CURVE ( 'NONE', #791, #930, #1056, .T. ) ;
#1079 = ORIENTED_EDGE ( 'NONE', *, *, #631, .F. ) ;
#1080 = DIRECTION ( 'NONE',  ( 1.000000000000000000, 0.000000000000000000, 0.000000000000000000 ) ) ;
#1081 = SECURITY_CLASSIFICATION ( '', '', #1296 ) ;
#1082 = ORIENTED_EDGE ( 'NONE', *, *, #1231, .F. ) ;
#1083 = FACE_OUTER_BOUND ( 'NONE', #1199, .T. ) ;
#1084 = B_SPLINE_CURVE_WITH_KNOTS ( 'NONE', 3,
 ( #1282, #1291, #377, #1106, #598, #677, #368, #58 ),
 .UNSPECIFIED., .F., .F.,
 ( 4, 2, 2, 4 ),
 ( 0.01485670291829359335, 0.01548745202035295941, 0.01611820112241232547, 0.01737969932653105759 ),
 .UNSPECIFIED. ) ;
#1085 = CARTESIAN_POINT ( 'NONE',  ( -0.4331113923364698914, -1.587500000000000355, -13.49785360559251934 ) ) ;
#1086 = DIRECTION ( 'NONE',  ( -0.000000000000000000, -0.000000000000000000, 1.000000000000000000 ) ) ;
#1087 = APPLICATION_PROTOCOL_DEFINITION ( 'international standard', 'config_control_design', 1994, #74 ) ;
#1088 = EDGE_CURVE ( 'NONE', #782, #1025, #1269, .T. ) ;
#1089 = ORIENTED_EDGE ( 'NONE', *, *, #298, .F. ) ;
#1090 = VECTOR ( 'NONE', #174, 1000.000000000000000 ) ;
#1091 = FACE_OUTER_BOUND ( 'NONE', #427, .T. ) ;
#1092 = ORIENTED_EDGE ( 'NONE', *, *, #326, .F. ) ;
#1093 = LINE ( 'NONE', #708, #1207 ) ;
#1094 = FACE_OUTER_BOUND ( 'NONE', #516, .T. ) ;
#1095 = DIRECTION ( 'NONE',  ( 0.000000000000000000, 0.000000000000000000, 1.000000000000000000 ) ) ;
#1096 = APPROVAL_DATE_TIME ( #175, #1238 ) ;
#1097 = AXIS2_PLACEMENT_3D ( 'NONE', #98, #701, #512 ) ;
#1098 = ORIENTED_EDGE ( 'NONE', *, *, #146, .F. ) ;
#1099 = CARTESIAN_POINT ( 'NONE',  ( 0.000000000000000000, 0.000000000000000000, -13.37571530186499480 ) ) ;
#1100 = ORIENTED_EDGE ( 'NONE', *, *, #320, .T. ) ;
#1101 = PLANE ( 'NONE',  #1247 ) ;
#1102 = EDGE_CURVE ( 'NONE', #1241, #829, #166, .T. ) ;
#1103 = LINE ( 'NONE', #381, #585 ) ;
#1104 = APPROVAL_DATE_TIME ( #697, #167 ) ;
#1105 = ORIENTED_EDGE ( 'NONE', *, *, #485, .T. ) ;
#1106 = CARTESIAN_POINT ( 'NONE',  ( -0.4208327304258951407, 1.587499999999999689, -13.49233440752677105 ) ) ;
#1107 = VERTEX_POINT ( 'NONE', #455 ) ;
#1108 = CARTESIAN_POINT ( 'NONE',  ( -1.265205022911305432, -1.587500000000000577, -8.016000000000000014 ) ) ;
#1109 = EDGE_CURVE ( 'NONE', #107, #810, #1183, .T. ) ;
#1110 = DIRECTION ( 'NONE',  ( 0.000000000000000000, 0.000000000000000000, -1.000000000000000000 ) ) ;
#1111 = AXIS2_PLACEMENT_3D ( 'NONE', #1050, #353, #151 ) ;
#1112 = DIRECTION ( 'NONE',  ( 1.000000000000000000, 0.000000000000000000, 0.000000000000000000 ) ) ;
#1113 = EDGE_LOOP ( 'NONE', ( #565, #720, #464, #839 ) ) ;
#1114 = VERTEX_POINT ( 'NONE', #1165 ) ;
#1115 = DIRECTION ( 'NONE',  ( 1.365923996832131856E-16, -1.000000000000000000, 0.000000000000000000 ) ) ;
#1116 = CARTESIAN_POINT ( 'NONE',  ( 0.000000000000000000, 0.000000000000000000, -11.40099999999995894 ) ) ;
#1117 = PERSON_AND_ORGANIZATION_ROLE ( 'creator' ) ;
#1118 = ORIENTED_EDGE ( 'NONE', *, *, #934, .F. ) ;
#1119 = VECTOR ( 'NONE', #662, 1000.000000000000000 ) ;
#1120 = VERTEX_POINT ( 'NONE', #746 ) ;
#1121 = FACE_OUTER_BOUND ( 'NONE', #853, .T. ) ;
#1122 = AXIS2_PLACEMENT_3D ( 'NONE', #999, #800, #1201 ) ;
#1123 = CARTESIAN_POINT ( 'NONE',  ( -1.587499999999999245, 0.8491421657536132317, -13.45662403564321608 ) ) ;
#1124 = VERTEX_POINT ( 'NONE', #360 ) ;
#1125 = EDGE_CURVE ( 'NONE', #930, #218, #262, .T. ) ;
#1126 = VERTEX_POINT ( 'NONE', #674 ) ;
#1127 = DIRECTION ( 'NONE',  ( 1.000000000000000000, 0.000000000000000000, 0.000000000000000000 ) ) ;
#1128 = CARTESIAN_POINT ( 'NONE',  ( 0.4980973490458784347, -1.587500000000005684, 3.406422128626171553 ) ) ;
#1129 = LOCAL_TIME ( 13, 58, 36.00000000000000000, #588 ) ;
#1130 = CIRCLE ( 'NONE', #535, 2.049999999999999822 ) ;
#1131 = ORIENTED_EDGE ( 'NONE', *, *, #1240, .F. ) ;
#1132 = ADVANCED_FACE ( 'NONE', ( #447, #31 ), #856, .F. ) ;
#1133 = EDGE_LOOP ( 'NONE', ( #1, #654, #177, #611 ) ) ;
#1134 = CARTESIAN_POINT ( 'NONE',  ( 1.549999999999995826, 1.587500000000005684, 0.08999999999999980238 ) ) ;
#1135 = DIRECTION ( 'NONE',  ( -0.000000000000000000, -1.000000000000000000, -0.000000000000000000 ) ) ;
#1136 = AXIS2_PLACEMENT_3D ( 'NONE', #1279, #461, #753 ) ;
#1137 = EDGE_LOOP ( 'NONE', ( #1221, #998, #707, #1225, #490, #522 ) ) ;
#1138 = ORIENTED_EDGE ( 'NONE', *, *, #949, .F. ) ;
#1139 = CARTESIAN_POINT ( 'NONE',  ( -0.4980973490458784347, 1.587500000000005684, 3.406422128626171553 ) ) ;
#1140 = VECTOR ( 'NONE', #52, 1000.000000000000000 ) ;
#1141 = AXIS2_PLACEMENT_3D ( 'NONE', #693, #198, #908 ) ;
#1142 = CARTESIAN_POINT ( 'NONE',  ( -1.587499999999999467, -1.265205022910972144, -13.37571530186537494 ) ) ;
#1143 = EDGE_CURVE ( 'NONE', #133, #205, #1130, .T. ) ;
#1144 = ORIENTED_EDGE ( 'NONE', *, *, #1198, .T. ) ;
#1145 = CARTESIAN_POINT ( 'NONE',  ( 0.6550150799420478842, -1.588549999999994133, 5.199999999999996625 ) ) ;
#1146 = CARTESIAN_POINT ( 'NONE',  ( 1.587499999999999911, 1.587499999999999245, -13.52599999999999980 ) ) ;
#1147 = EDGE_CURVE ( 'NONE', #488, #667, #960, .T. ) ;
#1148 = VERTEX_POINT ( 'NONE', #975 ) ;
#1149 = B_SPLINE_CURVE_WITH_KNOTS ( 'NONE', 3,
 ( #1142, #630, #831, #519, #220, #440 ),
 .UNSPECIFIED., .F., .F.,
 ( 4, 2, 4 ),
 ( 0.01485670291829358988, 0.01548325729955537383, 0.01610981168081715778 ),
 .UNSPECIFIED. ) ;
#1150 = LINE ( 'NONE', #752, #735 ) ;
#1151 = CIRCLE ( 'NONE', #1258, 2.125000000000038192 ) ;
#1152 = ADVANCED_FACE ( 'NONE', ( #54 ), #469, .T. ) ;
#1153 = DIRECTION ( 'NONE',  ( -1.000000000000000000, 0.000000000000000000, 0.000000000000000000 ) ) ;
#1154 = ORIENTED_EDGE ( 'NONE', *, *, #8, .F. ) ;
#1155 = EDGE_LOOP ( 'NONE', ( #80, #899, #6, #983, #408, #72, #553, #1211, #289, #311, #713, #805 ) ) ;
#1156 = CARTESIAN_POINT ( 'NONE',  ( -2.049999999999999822, 2.510525938252073693E-16, -6.336000000000000298 ) ) ;
#1157 = VECTOR ( 'NONE', #318, 1000.000000000000114 ) ;
#1158 = FACE_OUTER_BOUND ( 'NONE', #650, .T. ) ;
#1159 = DIRECTION ( 'NONE',  ( -1.000000000000000000, 0.000000000000000000, -0.000000000000000000 ) ) ;
#1160 = EDGE_CURVE ( 'NONE', #376, #227, #137, .T. ) ;
#1161 = ORIENTED_EDGE ( 'NONE', *, *, #1078, .T. ) ;
#1162 = CARTESIAN_POINT ( 'NONE',  ( -1.549999999999995826, -2.192040705001133016, 5.461000000000007404 ) ) ;
#1163 = CARTESIAN_POINT ( 'NONE',  ( -1.549999999999995826, 1.587500000000005684, 0.08999999999999980238 ) ) ;
#1164 = CARTESIAN_POINT ( 'NONE',  ( 1.891269295326080568, 0.7430507738753737712, 5.658031919522665376 ) ) ;
#1165 = CARTESIAN_POINT ( 'NONE',  ( 1.367896803705387354, -1.502625147670771932, 6.199999999999997513 ) ) ;
#1166 = ORIENTED_EDGE ( 'NONE', *, *, #439, .T. ) ;
#1167 = VECTOR ( 'NONE', #307, 1000.000000000000000 ) ;
#1168 = CARTESIAN_POINT ( 'NONE',  ( -3.174999999999999822, 3.888253587292846081E-16, -8.016000000000000014 ) ) ;
#1169 = EDGE_CURVE ( 'NONE', #217, #822, #945, .T. ) ;
#1170 = DIRECTION ( 'NONE',  ( 0.000000000000000000, 1.000000000000000000, 0.000000000000000000 ) ) ;
#1171 = EDGE_CURVE ( 'NONE', #597, #133, #254, .T. ) ;
#1172 = FACE_OUTER_BOUND ( 'NONE', #1251, .T. ) ;
#1173 = LINE ( 'NONE', #346, #1312 ) ;
#1174 = PLANE ( 'NONE',  #868 ) ;
#1175 = VECTOR ( 'NONE', #840, 1000.000000000000000 ) ;
#1176 = ORIENTED_EDGE ( 'NONE', *, *, #465, .F. ) ;
#1177 = PRODUCT_DEFINITION ( 'UNKNOWN', '', #384, #879 ) ;
#1178 = LINE ( 'NONE', #39, #927 ) ;
#1179 = EDGE_CURVE ( 'NONE', #488, #528, #374, .T. ) ;
#1180 = LINE ( 'NONE', #974, #130 ) ;
#1181 = AXIS2_PLACEMENT_3D ( 'NONE', #994, #405, #612 ) ;
#1182 = DIRECTION ( 'NONE',  ( -0.000000000000000000, 1.000000000000000000, -0.000000000000000000 ) ) ;
#1183 = CIRCLE ( 'NONE', #777, 2.032000000000000028 ) ;
#1184 = EDGE_LOOP ( 'NONE', ( #801, #610, #409, #160 ) ) ;
#1185 = DIRECTION ( 'NONE',  ( -0.8660254037844364872, 0.000000000000000000, 0.5000000000000037748 ) ) ;
#1186 = ORIENTED_EDGE ( 'NONE', *, *, #986, .F. ) ;
#1187 = LINE ( 'NONE', #794, #880 ) ;
#1188 = CARTESIAN_POINT ( 'NONE',  ( 0.4208327304258943080, -1.587500000000000577, -13.49233440752677105 ) ) ;
#1189 = CARTESIAN_POINT ( 'NONE',  ( 0.000000000000000000, 0.000000000000000000, 0.08999999999999980238 ) ) ;
#1190 = ADVANCED_FACE ( 'NONE', ( #445 ), #744, .F. ) ;
#1191 = DIRECTION ( 'NONE',  ( -6.994852725712931474E-17, -1.000000000000000000, 0.000000000000000000 ) ) ;
#1192 = ORIENTED_EDGE ( 'NONE', *, *, #49, .T. ) ;
#1193 = CARTESIAN_POINT ( 'NONE',  ( -1.891269295326080568, 3.176000000000000156, 5.658031919522665376 ) ) ;
#1194 = ORIENTED_EDGE ( 'NONE', *, *, #382, .F. ) ;
#1195 = CARTESIAN_POINT ( 'NONE',  ( 0.000000000000000000, 0.000000000000000000, 0.9642561210691531493 ) ) ;
#1196 = CARTESIAN_POINT ( 'NONE',  ( 0.000000000000000000, 0.000000000000000000, 6.199999999999997513 ) ) ;
#1197 = PERSON_AND_ORGANIZATION ( #142, #955 ) ;
#1198 = EDGE_CURVE ( 'NONE', #433, #107, #291, .T. ) ;
#1199 = EDGE_LOOP ( 'NONE', ( #139, #303 ) ) ;
#1200 = EDGE_CURVE ( 'NONE', #919, #287, #656, .T. ) ;
#1201 = DIRECTION ( 'NONE',  ( -1.000000000000000000, 0.000000000000000000, 0.000000000000000000 ) ) ;
#1202 = ORIENTED_EDGE ( 'NONE', *, *, #1160, .F. ) ;
#1203 = CARTESIAN_POINT ( 'NONE',  ( 0.000000000000000000, 0.000000000000000000, 6.199999999999997513 ) ) ;
#1204 = DIRECTION ( 'NONE',  ( 0.000000000000000000, 0.000000000000000000, -1.000000000000000000 ) ) ;
#1205 = CARTESIAN_POINT ( 'NONE',  ( -3.174999999999999822, 3.888253587292846081E-16, -6.336000000000000298 ) ) ;
#1206 = CALENDAR_DATE ( 2022, 6, 6 ) ;
#1207 = VECTOR ( 'NONE', #1115, 1000.000000000000000 ) ;
#1208 = ORIENTED_EDGE ( 'NONE', *, *, #1270, .F. ) ;
#1209 = DIRECTION ( 'NONE',  ( -0.7193398003386504147, 0.000000000000000000, 0.6946583704589981423 ) ) ;
#1210 = EDGE_CURVE ( 'NONE', #676, #607, #178, .T. ) ;
#1211 = ORIENTED_EDGE ( 'NONE', *, *, #1200, .F. ) ;
#1212 = DIRECTION ( 'NONE',  ( 1.000000000000000000, 0.000000000000000000, 0.000000000000000000 ) ) ;
#1213 = ORIENTED_EDGE ( 'NONE', *, *, #1027, .F. ) ;
#1214 = ORIENTED_EDGE ( 'NONE', *, *, #1198, .F. ) ;
#1215 = CARTESIAN_POINT ( 'NONE',  ( -1.587499999999999911, 1.587500000000000133, -8.016000000000000014 ) ) ;
#1216 = EDGE_CURVE ( 'NONE', #642, #203, #1276, .T. ) ;
#1217 = FACE_OUTER_BOUND ( 'NONE', #979, .T. ) ;
#1218 = APPROVAL_STATUS ( 'not_yet_approved' ) ;
#1219 = ORIENTED_EDGE ( 'NONE', *, *, #8, .T. ) ;
#1220 = AXIS2_PLACEMENT_3D ( 'NONE', #893, #1302, #391 ) ;
#1221 = ORIENTED_EDGE ( 'NONE', *, *, #439, .F. ) ;
#1222 = CARTESIAN_POINT ( 'NONE',  ( -1.891269295326080568, 0.7430507738753729940, 5.658031919522665376 ) ) ;
#1223 = DIRECTION ( 'NONE',  ( 1.224646799147353207E-16, 1.000000000000000000, 0.000000000000000000 ) ) ;
#1224 = EDGE_CURVE ( 'NONE', #376, #676, #705, .T. ) ;
#1225 = ORIENTED_EDGE ( 'NONE', *, *, #49, .F. ) ;
#1226 = AXIS2_PLACEMENT_3D ( 'NONE', #233, #1037, #523 ) ;
#1227 = VERTEX_POINT ( 'NONE', #537 ) ;
#1228 = FACE_OUTER_BOUND ( 'NONE', #1184, .T. ) ;
#1229 = VECTOR ( 'NONE', #690, 1000.000000000000000 ) ;
#1230 = CARTESIAN_POINT ( 'NONE',  ( -1.587499999999999689, 1.944126793646422548E-16, -13.49822736169286230 ) ) ;
#1231 = EDGE_CURVE ( 'NONE', #881, #528, #723, .T. ) ;
#1232 = DIRECTION ( 'NONE',  ( 1.000000000000000000, 0.000000000000000000, 0.000000000000000000 ) ) ;
#1233 = VERTEX_POINT ( 'NONE', #1274 ) ;
#1234 = ORIENTED_EDGE ( 'NONE', *, *, #1102, .T. ) ;
#1235 = CARTESIAN_POINT ( 'NONE',  ( -1.587499999999999911, 1.587500000000000133, -13.52599999999999980 ) ) ;
#1236 = CARTESIAN_POINT ( 'NONE',  ( 1.587499999999999467, -0.8491421657536137868, -13.45662403564321608 ) ) ;
#1237 = VECTOR ( 'NONE', #1074, 1000.000000000000000 ) ;
#1238 = APPROVAL ( #912, 'UNSPECIFIED' ) ;
#1239 = EDGE_LOOP ( 'NONE', ( #87, #319, #993, #193 ) ) ;
#1240 = EDGE_CURVE ( 'NONE', #1120, #865, #117, .T. ) ;
#1241 = VERTEX_POINT ( 'NONE', #271 ) ;
#1242 = CARTESIAN_POINT ( 'NONE',  ( -1.265205022911306321, 1.587500000000000133, 0.9642561210691531493 ) ) ;
#1243 = LINE ( 'NONE', #530, #24 ) ;
#1244 = VECTOR ( 'NONE', #467, 1000.000000000000000 ) ;
#1245 = ORIENTED_EDGE ( 'NONE', *, *, #14, .F. ) ;
#1246 = CARTESIAN_POINT ( 'NONE',  ( 0.3500000000000030864, -1.588549999999994133, 5.199999999999996625 ) ) ;
#1247 = AXIS2_PLACEMENT_3D ( 'NONE', #1203, #1001, #1212 ) ;
#1248 = EDGE_CURVE ( 'NONE', #623, #217, #976, .T. ) ;
#1249 = AXIS2_PLACEMENT_3D ( 'NONE', #265, #38, #944 ) ;
#1250 = LINE ( 'NONE', #734, #363 ) ;
#1251 = EDGE_LOOP ( 'NONE', ( #846, #120, #823, #682 ) ) ;
#1252 = CC_DESIGN_PERSON_AND_ORGANIZATION_ASSIGNMENT ( #185, #92, ( #216 ) ) ;
#1253 = DIRECTION ( 'NONE',  ( -1.365923996832131856E-16, 1.000000000000000000, 0.000000000000000000 ) ) ;
#1254 = CARTESIAN_POINT ( 'NONE',  ( -1.549999999999995826, -1.587500000000005684, 0.08999999999999980238 ) ) ;
#1255 = EDGE_LOOP ( 'NONE', ( #232, #913, #1300, #1154 ) ) ;
#1256 = CARTESIAN_POINT ( 'NONE',  ( 0.000000000000000000, 0.000000000000000000, 6.199999999999997513 ) ) ;
#1257 = CARTESIAN_POINT ( 'NONE',  ( -1.587499999999999689, 1.944126793646422548E-16, -13.49822736169286230 ) ) ;
#1258 = AXIS2_PLACEMENT_3D ( 'NONE', #412, #1223, #91 ) ;
#1259 = DIRECTION ( 'NONE',  ( 0.000000000000000000, 1.000000000000000000, -0.000000000000000000 ) ) ;
#1260 =( BOUNDED_CURVE ( )  B_SPLINE_CURVE ( 3, ( #703, #996, #78, #507 ),
 .UNSPECIFIED., .F., .F. ) 
 B_SPLINE_CURVE_WITH_KNOTS ( ( 4, 4 ),
 ( 2.438421258473190800, 2.767235163192559799 ),
 .UNSPECIFIED. ) 
 CURVE ( )  GEOMETRIC_REPRESENTATION_ITEM ( )  RATIONAL_B_SPLINE_CURVE ( ( 1.000000000000000000, 0.9910103942223804641, 0.9910103942223804641, 1.000000000000000000 ) ) 
 REPRESENTATION_ITEM ( '' )  );
#1261 = EDGE_CURVE ( 'NONE', #205, #133, #764, .T. ) ;
#1262 = DIRECTION ( 'NONE',  ( -1.000000000000000000, 0.000000000000000000, -0.000000000000000000 ) ) ;
#1263 =( NAMED_UNIT ( * ) PLANE_ANGLE_UNIT ( ) SI_UNIT ( $, .RADIAN. ) );
#1264 = VERTEX_POINT ( 'NONE', #559 ) ;
#1265 = FACE_OUTER_BOUND ( 'NONE', #1133, .T. ) ;
#1266 = CARTESIAN_POINT ( 'NONE',  ( 1.599295491109038236, -1.291974124445357308, 5.960379644622163298 ) ) ;
#1267 = CIRCLE ( 'NONE', #184, 3.174999999999999822 ) ;
#1268 = DIRECTION ( 'NONE',  ( -0.000000000000000000, -0.000000000000000000, 1.000000000000000000 ) ) ;
#1269 = LINE ( 'NONE', #1254, #1018 ) ;
#1270 = EDGE_CURVE ( 'NONE', #503, #597, #385, .T. ) ;
#1271 = DIRECTION ( 'NONE',  ( -0.000000000000000000, 1.000000000000000000, -0.000000000000000000 ) ) ;
#1272 = DIRECTION ( 'NONE',  ( 0.000000000000000000, -0.000000000000000000, 1.000000000000000000 ) ) ;
#1273 = CARTESIAN_POINT ( 'NONE',  ( 0.000000000000000000, 0.000000000000000000, 0.08999999999999980238 ) ) ;
#1274 = CARTESIAN_POINT ( 'NONE',  ( 1.891269295326080568, -0.7430507738753729940, 5.658031919522665376 ) ) ;
#1275 = EDGE_LOOP ( 'NONE', ( #213, #367, #5, #1070, #294, #527, #59, #761 ) ) ;
#1276 = CIRCLE ( 'NONE', #253, 3.174999999999999822 ) ;
#1277 = EDGE_CURVE ( 'NONE', #692, #948, #196, .T. ) ;
#1278 = DIRECTION ( 'NONE',  ( -0.000000000000000000, -0.000000000000000000, 1.000000000000000000 ) ) ;
#1279 = CARTESIAN_POINT ( 'NONE',  ( 0.000000000000000000, 0.000000000000000000, -13.37571530186499480 ) ) ;
#1280 = CARTESIAN_POINT ( 'NONE',  ( 0.000000000000000000, 0.000000000000000000, 6.199999999999997513 ) ) ;
#1281 = VERTEX_POINT ( 'NONE', #851 ) ;
#1282 = CARTESIAN_POINT ( 'NONE',  ( -1.265205022910971477, 1.587500000000000133, -13.37571530186537494 ) ) ;
#1283 = ORIENTED_EDGE ( 'NONE', *, *, #1277, .T. ) ;
#1284 = LINE ( 'NONE', #1309, #399 ) ;
#1285 = EDGE_CURVE ( 'NONE', #883, #162, #359, .T. ) ;
#1286 = DIRECTION ( 'NONE',  ( 0.000000000000000000, 0.000000000000000000, 1.000000000000000000 ) ) ;
#1287 = AXIS2_PLACEMENT_3D ( 'NONE', #304, #505, #1301 ) ;
#1288 = CARTESIAN_POINT ( 'NONE',  ( 0.000000000000000000, 0.000000000000000000, -6.336000000000000298 ) ) ;
#1289 = AXIS2_PLACEMENT_3D ( 'NONE', #1256, #972, #1071 ) ;
#1290 = ORIENTED_EDGE ( 'NONE', *, *, #1270, .T. ) ;
#1291 = CARTESIAN_POINT ( 'NONE',  ( -1.057445397158524925, 1.587499999999999911, -13.42718549091652847 ) ) ;
#1292 = VERTEX_POINT ( 'NONE', #1077 ) ;
#1293 = PLANE ( 'NONE',  #906 ) ;
#1294 = CC_DESIGN_PERSON_AND_ORGANIZATION_ASSIGNMENT ( #809, #896, ( #1177 ) ) ;
#1295 = CYLINDRICAL_SURFACE ( 'NONE', #1220, 3.174999999999999822 ) ;
#1296 = SECURITY_CLASSIFICATION_LEVEL ( 'unclassified' ) ;
#1297 = VERTEX_POINT ( 'NONE', #781 ) ;
#1298 = LINE ( 'NONE', #898, #486 ) ;
#1299 = AXIS2_PLACEMENT_3D ( 'NONE', #1288, #863, #138 ) ;
#1300 = ORIENTED_EDGE ( 'NONE', *, *, #132, .F. ) ;
#1301 = DIRECTION ( 'NONE',  ( -5.421010862427522170E-17, 0.000000000000000000, 1.000000000000000000 ) ) ;
#1302 = DIRECTION ( 'NONE',  ( -0.000000000000000000, -0.000000000000000000, 1.000000000000000000 ) ) ;
#1303 = COORDINATED_UNIVERSAL_TIME_OFFSET ( 6, 0, .BEHIND. ) ;
#1304 = ADVANCED_FACE ( 'NONE', ( #43 ), #1174, .F. ) ;
#1305 = AXIS2_PLACEMENT_3D ( 'NONE', #110, #525, #928 ) ;
#1306 = VERTEX_POINT ( 'NONE', #263 ) ;
#1307 = CARTESIAN_POINT ( 'NONE',  ( -1.587499999999999911, 1.265205022911306543, -8.016000000000000014 ) ) ;
#1308 = ORIENTED_EDGE ( 'NONE', *, *, #3, .F. ) ;
#1309 = CARTESIAN_POINT ( 'NONE',  ( 1.268411506570324310, 1.587500000000005684, 6.199999999999997513 ) ) ;
#1310 = CARTESIAN_POINT ( 'NONE',  ( 0.6550150799420478842, -1.587500000000005684, 5.199999999999996625 ) ) ;
#1311 = CIRCLE ( 'NONE', #857, 1.245064030267287514 ) ;
#1312 = VECTOR ( 'NONE', #766, 1000.000000000000000 ) ;
#1313 = EDGE_LOOP ( 'NONE', ( #361, #660 ) ) ;
#1314 = ORIENTED_EDGE ( 'NONE', *, *, #958, .T. ) ;
#1315 = LINE ( 'NONE', #1215, #28 ) ;
#1316 = CARTESIAN_POINT ( 'NONE',  ( -1.776842238108543581, -1.034299215406969008, 5.776524605989269645 ) ) ;
#1317 = VERTEX_POINT ( 'NONE', #646 ) ;
ENDSEC;
END-ISO-10303-21;
