ISO-10303-21;
HEADER;
FILE_DESCRIPTION (( 'STEP AP203' ),
    '1' );
FILE_NAME ('228-2500-261.step',
    '2022-06-06T20:02:18',
    ( '' ),
    ( '' ),
    'SwSTEP 2.0',
    'SolidWorks 2021',
    '' );
FILE_SCHEMA (( 'CONFIG_CONTROL_DESIGN' ));
ENDSEC;

DATA;
#1 = CARTESIAN_POINT ( 'NONE',  ( 1.587500000000000577, -0.8514389605504947278, -62.54136751577922837 ) ) ;
#2 = DIRECTION ( 'NONE',  ( 1.000000000000000000, 0.000000000000000000, 0.000000000000000000 ) ) ;
#3 = DIRECTION ( 'NONE',  ( -0.000000000000000000, -0.000000000000000000, 1.000000000000000000 ) ) ;
#4 = ORIENTED_EDGE ( 'NONE', *, *, #446, .F. ) ;
#5 = CARTESIAN_POINT ( 'NONE',  ( -1.245064030267288402, 1.524763679400337895E-16, -60.48600000000000421 ) ) ;
#6 = ORIENTED_EDGE ( 'NONE', *, *, #453, .T. ) ;
#7 = B_SPLINE_CURVE_WITH_KNOTS ( 'NONE', 3,
 ( #39, #251, #503, #37, #249, #213 ),
 .UNSPECIFIED., .F., .F.,
 ( 4, 2, 4 ),
 ( 1.905938025164287118E-19, 0.0006365870327257437547, 0.001273174065451487293 ),
 .UNSPECIFIED. ) ;
#8 = AXIS2_PLACEMENT_3D ( 'NONE', #461, #197, #292 ) ;
#9 = CARTESIAN_POINT ( 'NONE',  ( 1.587500000000000355, -1.268411506570324088, 62.45991914209798068 ) ) ;
#10 = EDGE_CURVE ( 'NONE', #440, #240, #200, .T. ) ;
#11 = VERTEX_POINT ( 'NONE', #451 ) ;
#12 = CARTESIAN_POINT ( 'NONE',  ( 1.587500000000000355, -0.2114796877013858933, -62.58322736169287737 ) ) ;
#13 = CC_DESIGN_DATE_AND_TIME_ASSIGNMENT ( #132, #170, ( #281 ) ) ;
#14 = ORIENTED_EDGE ( 'NONE', *, *, #102, .T. ) ;
#15 = CARTESIAN_POINT ( 'NONE',  ( 1.587500000000000355, 0.8513200635100132141, -62.54137755531812104 ) ) ;
#16 = DIRECTION ( 'NONE',  ( 1.000000000000000000, 0.000000000000000000, 0.000000000000000000 ) ) ;
#17 = CARTESIAN_POINT ( 'NONE',  ( 1.587500000000000355, 0.2114796877013858933, 62.58322736169287737 ) ) ;
#18 = VECTOR ( 'NONE', #225, 1000.000000000000000 ) ;
#19 = EDGE_CURVE ( 'NONE', #487, #201, #401, .T. ) ;
#20 = CARTESIAN_POINT ( 'NONE',  ( 1.587500000000000355, 1.061532360077855452, 62.51140206829359869 ) ) ;
#21 = B_SPLINE_CURVE_WITH_KNOTS ( 'NONE', 3,
 ( #116, #465, #81, #468, #72, #161, #125, #205 ),
 .UNSPECIFIED., .F., .F.,
 ( 4, 2, 2, 4 ),
 ( 0.01485345774306974162, 0.01548583974386939788, 0.01611822174466905414, 0.01738298574626836318 ),
 .UNSPECIFIED. ) ;
#22 = ORIENTED_EDGE ( 'NONE', *, *, #112, .F. ) ;
#23 = CARTESIAN_POINT ( 'NONE',  ( 1.587500000000000355, 1.268411506570323866, 62.45991914209798068 ) ) ;
#24 =( NAMED_UNIT ( * ) SI_UNIT ( $, .STERADIAN. ) SOLID_ANGLE_UNIT ( ) );
#25 = DIRECTION ( 'NONE',  ( 0.000000000000000000, 0.000000000000000000, -1.000000000000000000 ) ) ;
#26 = AXIS2_PLACEMENT_3D ( 'NONE', #90, #343, #519 ) ;
#27 = APPROVAL_PERSON_ORGANIZATION ( #479, #474, #300 ) ;
#28 = DIRECTION ( 'NONE',  ( -1.000000000000000000, 0.000000000000000000, 0.000000000000000000 ) ) ;
#29 = DIRECTION ( 'NONE',  ( 1.000000000000000000, 0.000000000000000000, 0.000000000000000000 ) ) ;
#30 = CARTESIAN_POINT ( 'NONE',  ( 1.268411506570323866, 1.587500000000000355, -62.45991914209798068 ) ) ;
#31 = ORIENTED_EDGE ( 'NONE', *, *, #333, .T. ) ;
#32 = DIRECTION ( 'NONE',  ( -0.000000000000000000, -0.000000000000000000, 1.000000000000000000 ) ) ;
#33 = CARTESIAN_POINT ( 'NONE',  ( 0.8571092511719574647, -1.587500000000000799, -62.56227379706279379 ) ) ;
#34 = ORIENTED_EDGE ( 'NONE', *, *, #112, .T. ) ;
#35 = CIRCLE ( 'NONE', #419, 1.245064030267288402 ) ;
#36 = VECTOR ( 'NONE', #409, 1000.000000000000000 ) ;
#37 = CARTESIAN_POINT ( 'NONE',  ( -1.587500000000000355, -0.8513200635100131031, -62.54137755531812104 ) ) ;
#38 = CALENDAR_DATE ( 2022, 6, 6 ) ;
#39 = CARTESIAN_POINT ( 'NONE',  ( -1.587500000000000355, 1.944126793646423534E-16, -62.58322736169286316 ) ) ;
#40 = VERTEX_POINT ( 'NONE', #193 ) ;
#41 = DESIGN_CONTEXT ( 'detailed design', #76, 'design' ) ;
#42 = APPLICATION_PROTOCOL_DEFINITION ( 'international standard', 'config_control_design', 1994, #283 ) ;
#43 = DIRECTION ( 'NONE',  ( 1.000000000000000000, 0.000000000000000000, 0.000000000000000000 ) ) ;
#44 = VERTEX_POINT ( 'NONE', #332 ) ;
#45 = CIRCLE ( 'NONE', #484, 2.032000000000000028 ) ;
#46 = PERSON_AND_ORGANIZATION_ROLE ( 'creator' ) ;
#47 = CARTESIAN_POINT ( 'NONE',  ( 1.587500000000000355, -1.268411506570323866, -62.45991914209798068 ) ) ;
#48 = ORIENTED_EDGE ( 'NONE', *, *, #485, .T. ) ;
#49 = SECURITY_CLASSIFICATION ( '', '', #386 ) ;
#50 = DIRECTION ( 'NONE',  ( -1.000000000000000000, 0.000000000000000000, 0.000000000000000000 ) ) ;
#51 = PRODUCT_DEFINITION_SHAPE ( 'NONE', 'NONE',  #281 ) ;
#52 = ORIENTED_EDGE ( 'NONE', *, *, #295, .F. ) ;
#53 = CARTESIAN_POINT ( 'NONE',  ( -1.268411506570323866, 1.587500000000000355, -62.61099999999999710 ) ) ;
#54 = DIRECTION ( 'NONE',  ( 0.000000000000000000, 0.000000000000000000, 1.000000000000000000 ) ) ;
#55 = ADVANCED_FACE ( 'NONE', ( #499 ), #196, .F. ) ;
#56 = B_SPLINE_CURVE_WITH_KNOTS ( 'NONE', 3,
 ( #486, #436, #97, #389, #94, #134 ),
 .UNSPECIFIED., .F., .F.,
 ( 4, 2, 4 ),
 ( 0.01485345774306974162, 0.01548163471194330919, 0.01610981168081687676 ),
 .UNSPECIFIED. ) ;
#57 = ORIENTED_EDGE ( 'NONE', *, *, #406, .T. ) ;
#58 = AXIS2_PLACEMENT_3D ( 'NONE', #303, #177, #2 ) ;
#59 = DIRECTION ( 'NONE',  ( -0.000000000000000000, -0.000000000000000000, 1.000000000000000000 ) ) ;
#60 = AXIS2_PLACEMENT_3D ( 'NONE', #113, #168, #341 ) ;
#61 = ORIENTED_EDGE ( 'NONE', *, *, #408, .F. ) ;
#62 = CARTESIAN_POINT ( 'NONE',  ( 1.060147506033615183, 1.587500000000000355, -62.51174669625515889 ) ) ;
#63 = ORIENTED_EDGE ( 'NONE', *, *, #96, .F. ) ;
#64 = CC_DESIGN_DATE_AND_TIME_ASSIGNMENT ( #104, #279, ( #49 ) ) ;
#65 = CARTESIAN_POINT ( 'NONE',  ( 1.587500000000000577, 0.4277385810629853458, -62.57698654358312496 ) ) ;
#66 = AXIS2_PLACEMENT_3D ( 'NONE', #151, #450, #502 ) ;
#67 = ORIENTED_EDGE ( 'NONE', *, *, #362, .F. ) ;
#68 = CARTESIAN_POINT ( 'NONE',  ( 1.587500000000000355, 1.268411506570323866, -62.45991914209798068 ) ) ;
#69 = ORIENTED_EDGE ( 'NONE', *, *, #337, .T. ) ;
#70 = DIRECTION ( 'NONE',  ( -1.000000000000000000, 0.000000000000000000, 0.000000000000000000 ) ) ;
#71 = EDGE_LOOP ( 'NONE', ( #354, #309, #385, #277 ) ) ;
#72 = CARTESIAN_POINT ( 'NONE',  ( 0.2043756380772877856, -1.587500000000000799, 62.58340961896380605 ) ) ;
#73 = CARTESIAN_POINT ( 'NONE',  ( -1.587500000000000355, -1.268411506570323866, -62.45991914209798068 ) ) ;
#74 = CARTESIAN_POINT ( 'NONE',  ( -1.587500000000000577, 0.4277385810629853458, 62.57698654358312496 ) ) ;
#75 = CARTESIAN_POINT ( 'NONE',  ( -1.060147506033615183, -1.587500000000000355, -62.51174669625515889 ) ) ;
#76 = APPLICATION_CONTEXT ( 'configuration controlled 3d designs of mechanical parts and assemblies' ) ;
#77 = ADVANCED_FACE ( 'NONE', ( #545 ), #477, .T. ) ;
#78 = CARTESIAN_POINT ( 'NONE',  ( -1.587500000000000355, -1.268411506570323866, 62.45991914209798068 ) ) ;
#79 = DIRECTION ( 'NONE',  ( -0.000000000000000000, -0.000000000000000000, 1.000000000000000000 ) ) ;
#80 = CC_DESIGN_PERSON_AND_ORGANIZATION_ASSIGNMENT ( #307, #482, ( #388 ) ) ;
#81 = CARTESIAN_POINT ( 'NONE',  ( 0.8486262390323787708, -1.587500000000000355, 62.54176882282393279 ) ) ;
#82 = CARTESIAN_POINT ( 'NONE',  ( 0.4342314039556032235, -1.587500000000000355, -62.58285171744315534 ) ) ;
#83 = B_SPLINE_CURVE_WITH_KNOTS ( 'NONE', 3,
 ( #290, #531, #221, #392, #312, #175 ),
 .UNSPECIFIED., .F., .F.,
 ( 4, 2, 4 ),
 ( 0.01485345774306974162, 0.01548163471194330919, 0.01610981168081687676 ),
 .UNSPECIFIED. ) ;
#84 = ORGANIZATION ( 'UNSPECIFIED', 'UNSPECIFIED', '' ) ;
#85 = DIRECTION ( 'NONE',  ( 1.224646799147353207E-16, -1.000000000000000000, 0.000000000000000000 ) ) ;
#86 = COORDINATED_UNIVERSAL_TIME_OFFSET ( 6, 0, .BEHIND. ) ;
#87 = EDGE_CURVE ( 'NONE', #263, #95, #414, .T. ) ;
#88 = DIRECTION ( 'NONE',  ( -0.000000000000000000, -0.000000000000000000, 1.000000000000000000 ) ) ;
#89 = DATE_AND_TIME ( #346, #148 ) ;
#90 = CARTESIAN_POINT ( 'NONE',  ( 1.245064030267288402, 0.000000000000000000, 60.48600000000000421 ) ) ;
#91 = EDGE_LOOP ( 'NONE', ( #259, #291, #222, #176 ) ) ;
#92 = CARTESIAN_POINT ( 'NONE',  ( -1.268411506570323866, -1.587500000000000355, -62.61099999999999710 ) ) ;
#93 = ORIENTED_EDGE ( 'NONE', *, *, #374, .T. ) ;
#94 = CARTESIAN_POINT ( 'NONE',  ( -1.587500000000000355, 0.2114796877013858933, -62.58322736169287737 ) ) ;
#95 = VERTEX_POINT ( 'NONE', #472 ) ;
#96 = EDGE_CURVE ( 'NONE', #139, #263, #323, .T. ) ;
#97 = CARTESIAN_POINT ( 'NONE',  ( -1.587500000000000577, 0.8514389605504947278, -62.54136751577922837 ) ) ;
#98 = ORIENTED_EDGE ( 'NONE', *, *, #10, .F. ) ;
#99 = CARTESIAN_POINT ( 'NONE',  ( 0.000000000000000000, 0.000000000000000000, 62.45991914209798068 ) ) ;
#100 = PERSON_AND_ORGANIZATION ( #398, #84 ) ;
#101 = CARTESIAN_POINT ( 'NONE',  ( 0.2043756380772877856, 1.587500000000000799, -62.58340961896380605 ) ) ;
#102 = EDGE_CURVE ( 'NONE', #44, #40, #324, .T. ) ;
#103 = VECTOR ( 'NONE', #25, 1000.000000000000000 ) ;
#104 = DATE_AND_TIME ( #403, #434 ) ;
#105 = ORIENTED_EDGE ( 'NONE', *, *, #304, .T. ) ;
#106 = DIRECTION ( 'NONE',  ( -1.000000000000000000, 0.000000000000000000, -0.000000000000000000 ) ) ;
#107 = APPROVAL_ROLE ( '' ) ;
#108 = DIRECTION ( 'NONE',  ( 0.000000000000000000, 0.000000000000000000, -1.000000000000000000 ) ) ;
#109 = CARTESIAN_POINT ( 'NONE',  ( 1.587500000000000577, -0.4277385810629853458, 62.57698654358312496 ) ) ;
#110 = AXIS2_PLACEMENT_3D ( 'NONE', #5, #271, #526 ) ;
#111 = CARTESIAN_POINT ( 'NONE',  ( -1.587500000000000355, 1.587500000000000355, 62.61099999999999710 ) ) ;
#112 = EDGE_CURVE ( 'NONE', #380, #393, #195, .T. ) ;
#113 = CARTESIAN_POINT ( 'NONE',  ( 0.000000000000000000, 0.000000000000000000, -62.45991914209798068 ) ) ;
#114 = AXIS2_PLACEMENT_3D ( 'NONE', #111, #404, #198 ) ;
#115 = EDGE_CURVE ( 'NONE', #527, #393, #216, .T. ) ;
#116 = CARTESIAN_POINT ( 'NONE',  ( 1.268411506570323866, -1.587500000000000355, 62.45991914209798068 ) ) ;
#117 = CARTESIAN_POINT ( 'NONE',  ( -1.268411506570323866, -1.587500000000000355, -62.45991914209798068 ) ) ;
#118 = VECTOR ( 'NONE', #431, 1000.000000000000000 ) ;
#119 = ORIENTED_EDGE ( 'NONE', *, *, #490, .F. ) ;
#120 = TOROIDAL_SURFACE ( 'NONE', #311, 1.245064030267288402, 2.124999999999995115 ) ;
#121 = CARTESIAN_POINT ( 'NONE',  ( 1.587500000000000355, -1.268411506570323866, -62.61099999999999710 ) ) ;
#122 = FACE_OUTER_BOUND ( 'NONE', #530, .T. ) ;
#123 = ORIENTED_EDGE ( 'NONE', *, *, #102, .F. ) ;
#124 = CIRCLE ( 'NONE', #522, 1.245064030267288402 ) ;
#125 = CARTESIAN_POINT ( 'NONE',  ( -0.8571092511719574647, -1.587500000000000799, 62.56227379706279379 ) ) ;
#126 = DIRECTION ( 'NONE',  ( -0.000000000000000000, -0.000000000000000000, 1.000000000000000000 ) ) ;
#127 =( NAMED_UNIT ( * ) PLANE_ANGLE_UNIT ( ) SI_UNIT ( $, .RADIAN. ) );
#128 = DIRECTION ( 'NONE',  ( 0.000000000000000000, 0.000000000000000000, -1.000000000000000000 ) ) ;
#129 = ORIENTED_EDGE ( 'NONE', *, *, #19, .F. ) ;
#130 = CIRCLE ( 'NONE', #384, 2.032000000000000028 ) ;
#131 = ADVANCED_FACE ( 'NONE', ( #381 ), #338, .T. ) ;
#132 = DATE_AND_TIME ( #557, #133 ) ;
#133 = LOCAL_TIME ( 15, 2, 18.00000000000000000, #257 ) ;
#134 = CARTESIAN_POINT ( 'NONE',  ( -1.587500000000000355, 1.944126793646423534E-16, -62.58322736169286316 ) ) ;
#135 = VECTOR ( 'NONE', #553, 1000.000000000000000 ) ;
#136 = CARTESIAN_POINT ( 'NONE',  ( 0.000000000000000000, 0.000000000000000000, -62.61099999999999710 ) ) ;
#137 = EDGE_LOOP ( 'NONE', ( #542, #275, #187, #235 ) ) ;
#138 = LINE ( 'NONE', #92, #118 ) ;
#139 = VERTEX_POINT ( 'NONE', #117 ) ;
#140 = CARTESIAN_POINT ( 'NONE',  ( 1.587500000000000355, 1.268411506570323866, 62.45991914209798068 ) ) ;
#141 = VERTEX_POINT ( 'NONE', #505 ) ;
#142 = AXIS2_PLACEMENT_3D ( 'NONE', #280, #407, #108 ) ;
#143 = CYLINDRICAL_SURFACE ( 'NONE', #529, 2.032000000000000028 ) ;
#144 = EDGE_LOOP ( 'NONE', ( #119, #31, #57, #437, #155, #93 ) ) ;
#145 = DIRECTION ( 'NONE',  ( 1.000000000000000000, 0.000000000000000000, 0.000000000000000000 ) ) ;
#146 = ORIENTED_EDGE ( 'NONE', *, *, #230, .F. ) ;
#147 = DIRECTION ( 'NONE',  ( -0.000000000000000000, -0.000000000000000000, 1.000000000000000000 ) ) ;
#148 = LOCAL_TIME ( 15, 2, 18.00000000000000000, #86 ) ;
#149 = CARTESIAN_POINT ( 'NONE',  ( 0.8486262390323787708, 1.587500000000000355, -62.54176882282393279 ) ) ;
#150 = COORDINATED_UNIVERSAL_TIME_OFFSET ( 6, 0, .BEHIND. ) ;
#151 = CARTESIAN_POINT ( 'NONE',  ( 0.000000000000000000, 0.000000000000000000, -62.61099999999999710 ) ) ;
#152 = ORIENTED_EDGE ( 'NONE', *, *, #515, .T. ) ;
#153 = CARTESIAN_POINT ( 'NONE',  ( 1.268411506570324088, 1.587500000000000355, 62.45991914209798068 ) ) ;
#154 = SHAPE_DEFINITION_REPRESENTATION ( #51, #233 ) ;
#155 = ORIENTED_EDGE ( 'NONE', *, *, #425, .T. ) ;
#156 = EDGE_CURVE ( 'NONE', #44, #315, #124, .T. ) ;
#157 = DIRECTION ( 'NONE',  ( -0.000000000000000000, -0.000000000000000000, 1.000000000000000000 ) ) ;
#158 = DIRECTION ( 'NONE',  ( 0.000000000000000000, 0.000000000000000000, -1.000000000000000000 ) ) ;
#159 = CARTESIAN_POINT ( 'NONE',  ( -1.268411506570323866, 1.587500000000000355, 62.45991914209798068 ) ) ;
#160 = ADVANCED_FACE ( 'NONE', ( #294 ), #438, .T. ) ;
#161 = CARTESIAN_POINT ( 'NONE',  ( -0.4342314039556032235, -1.587500000000000355, 62.58285171744315534 ) ) ;
#162 = MANIFOLD_SOLID_BREP ( '228-2500-261', #379 ) ;
#163 = TOROIDAL_SURFACE ( 'NONE', #550, 1.245064030267288402, 2.124999999999995115 ) ;
#164 = EDGE_LOOP ( 'NONE', ( #179, #492, #208, #129, #218, #322 ) ) ;
#165 = DIRECTION ( 'NONE',  ( 0.000000000000000000, 0.000000000000000000, -1.000000000000000000 ) ) ;
#166 = CARTESIAN_POINT ( 'NONE',  ( -1.245064030267288402, -1.524763679400337895E-16, 60.48600000000000421 ) ) ;
#167 = FACE_OUTER_BOUND ( 'NONE', #164, .T. ) ;
#168 = DIRECTION ( 'NONE',  ( -0.000000000000000000, -0.000000000000000000, 1.000000000000000000 ) ) ;
#169 = EDGE_CURVE ( 'NONE', #428, #201, #7, .T. ) ;
#170 = DATE_TIME_ROLE ( 'creation_date' ) ;
#171 = CARTESIAN_POINT ( 'NONE',  ( -0.2043756380772877856, -1.587500000000000799, -62.58340961896380605 ) ) ;
#172 = ORIENTED_EDGE ( 'NONE', *, *, #467, .F. ) ;
#173 = CIRCLE ( 'NONE', #452, 2.032000000000000028 ) ;
#174 = PERSON_AND_ORGANIZATION_ROLE ( 'creator' ) ;
#175 = CARTESIAN_POINT ( 'NONE',  ( -1.587500000000000355, -1.944126793646423534E-16, 62.58322736169286316 ) ) ;
#176 = ORIENTED_EDGE ( 'NONE', *, *, #19, .T. ) ;
#177 = DIRECTION ( 'NONE',  ( 0.000000000000000000, 0.000000000000000000, 1.000000000000000000 ) ) ;
#178 = DIRECTION ( 'NONE',  ( -0.000000000000000000, -0.000000000000000000, 1.000000000000000000 ) ) ;
#179 = ORIENTED_EDGE ( 'NONE', *, *, #546, .F. ) ;
#180 = ADVANCED_FACE ( 'NONE', ( #122 ), #378, .F. ) ;
#181 = CARTESIAN_POINT ( 'NONE',  ( 1.245064030267288402, 0.000000000000000000, 62.61099999999999710 ) ) ;
#182 = ORIENTED_EDGE ( 'NONE', *, *, #274, .F. ) ;
#183 = PLANE ( 'NONE',  #228 ) ;
#184 = EDGE_LOOP ( 'NONE', ( #489, #481, #293, #34 ) ) ;
#185 = B_SPLINE_CURVE_WITH_KNOTS ( 'NONE', 3,
 ( #23, #20, #397, #496, #17, #399 ),
 .UNSPECIFIED., .F., .F.,
 ( 4, 2, 4 ),
 ( 0.01485345774306974162, 0.01548163471194330919, 0.01610981168081687676 ),
 .UNSPECIFIED. ) ;
#186 = CYLINDRICAL_SURFACE ( 'NONE', #66, 2.032000000000000028 ) ;
#187 = ORIENTED_EDGE ( 'NONE', *, *, #368, .T. ) ;
#188 = FACE_OUTER_BOUND ( 'NONE', #71, .T. ) ;
#189 = COORDINATED_UNIVERSAL_TIME_OFFSET ( 6, 0, .BEHIND. ) ;
#190 = ORIENTED_EDGE ( 'NONE', *, *, #490, .T. ) ;
#191 = CARTESIAN_POINT ( 'NONE',  ( 0.000000000000000000, 0.000000000000000000, -62.61099999999999710 ) ) ;
#192 = DIRECTION ( 'NONE',  ( 0.000000000000000000, 0.000000000000000000, -1.000000000000000000 ) ) ;
#193 = CARTESIAN_POINT ( 'NONE',  ( -1.587500000000000355, -1.944126793646423534E-16, 62.58322736169286316 ) ) ;
#194 = CARTESIAN_POINT ( 'NONE',  ( -1.587500000000000355, -1.944126793646423534E-16, 62.58322736169286316 ) ) ;
#195 = B_SPLINE_CURVE_WITH_KNOTS ( 'NONE', 3,
 ( #159, #420, #410, #513, #206, #203, #558, #376 ),
 .UNSPECIFIED., .F., .F.,
 ( 4, 2, 2, 4 ),
 ( 0.01485345774306974162, 0.01548583974386939788, 0.01611822174466905414, 0.01738298574626836318 ),
 .UNSPECIFIED. ) ;
#196 = PLANE ( 'NONE',  #114 ) ;
#197 = DIRECTION ( 'NONE',  ( 0.000000000000000000, 1.000000000000000000, 0.000000000000000000 ) ) ;
#198 = DIRECTION ( 'NONE',  ( 0.000000000000000000, -0.000000000000000000, -1.000000000000000000 ) ) ;
#199 = DIRECTION ( 'NONE',  ( -0.000000000000000000, -0.000000000000000000, 1.000000000000000000 ) ) ;
#200 = CIRCLE ( 'NONE', #142, 2.124999999999995115 ) ;
#201 = VERTEX_POINT ( 'NONE', #73 ) ;
#202 = CARTESIAN_POINT ( 'NONE',  ( -1.587500000000000355, 0.8513200635100131031, 62.54137755531812104 ) ) ;
#203 = CARTESIAN_POINT ( 'NONE',  ( 0.4342314039556032235, 1.587500000000000355, 62.58285171744315534 ) ) ;
#204 = ORIENTED_EDGE ( 'NONE', *, *, #362, .T. ) ;
#205 = CARTESIAN_POINT ( 'NONE',  ( -1.268411506570324088, -1.587500000000000355, 62.45991914209798068 ) ) ;
#206 = CARTESIAN_POINT ( 'NONE',  ( -0.2043756380772877856, 1.587500000000000799, 62.58340961896380605 ) ) ;
#207 = AXIS2_PLACEMENT_3D ( 'NONE', #396, #192, #106 ) ;
#208 = ORIENTED_EDGE ( 'NONE', *, *, #169, .T. ) ;
#209 = CC_DESIGN_APPROVAL ( #555, ( #49 ) ) ;
#210 = FACE_OUTER_BOUND ( 'NONE', #91, .T. ) ;
#211 = ADVANCED_FACE ( 'NONE', ( #245 ), #163, .T. ) ;
#212 = B_SPLINE_CURVE_WITH_KNOTS ( 'NONE', 3,
 ( #447, #242, #65, #15, #239, #537 ),
 .UNSPECIFIED., .F., .F.,
 ( 4, 2, 4 ),
 ( 0.000000000000000000, 0.0006365870327257436463, 0.001273174065451487293 ),
 .UNSPECIFIED. ) ;
#213 = CARTESIAN_POINT ( 'NONE',  ( -1.587500000000000355, -1.268411506570323866, -62.45991914209798068 ) ) ;
#214 = DATE_AND_TIME ( #38, #299 ) ;
#215 = EDGE_CURVE ( 'NONE', #487, #40, #83, .T. ) ;
#216 = LINE ( 'NONE', #549, #135 ) ;
#217 = CARTESIAN_POINT ( 'NONE',  ( 1.587500000000000355, -1.587500000000000355, 62.61099999999999710 ) ) ;
#218 = ORIENTED_EDGE ( 'NONE', *, *, #215, .T. ) ;
#219 = CIRCLE ( 'NONE', #432, 2.032000000000000028 ) ;
#220 = PERSON_AND_ORGANIZATION_ROLE ( 'design_supplier' ) ;
#221 = CARTESIAN_POINT ( 'NONE',  ( -1.587500000000000577, -0.8514389605504947278, 62.54136751577922837 ) ) ;
#222 = ORIENTED_EDGE ( 'NONE', *, *, #470, .T. ) ;
#223 = CC_DESIGN_PERSON_AND_ORGANIZATION_ASSIGNMENT ( #100, #328, ( #49 ) ) ;
#224 = AXIS2_PLACEMENT_3D ( 'NONE', #166, #85, #510 ) ;
#225 = DIRECTION ( 'NONE',  ( 0.000000000000000000, 0.000000000000000000, -1.000000000000000000 ) ) ;
#226 = VERTEX_POINT ( 'NONE', #347 ) ;
#227 = DIRECTION ( 'NONE',  ( 0.000000000000000000, 0.000000000000000000, -1.000000000000000000 ) ) ;
#228 = AXIS2_PLACEMENT_3D ( 'NONE', #217, #261, #54 ) ;
#229 = CARTESIAN_POINT ( 'NONE',  ( 1.587500000000000355, -1.061532360077855452, -62.51140206829359869 ) ) ;
#230 = EDGE_CURVE ( 'NONE', #139, #395, #138, .T. ) ;
#231 = ORIENTED_EDGE ( 'NONE', *, *, #337, .F. ) ;
#232 = DIRECTION ( 'NONE',  ( 1.000000000000000000, 0.000000000000000000, 0.000000000000000000 ) ) ;
#233 = ADVANCED_BREP_SHAPE_REPRESENTATION ( '228-2500-261', ( #162, #58 ), #501 ) ;
#234 = PERSON_AND_ORGANIZATION ( #398, #84 ) ;
#235 = ORIENTED_EDGE ( 'NONE', *, *, #316, .T. ) ;
#236 = CARTESIAN_POINT ( 'NONE',  ( 1.268411506570323866, -1.587500000000000355, 62.45991914209798068 ) ) ;
#237 = ADVANCED_FACE ( 'NONE', ( #314 ), #143, .T. ) ;
#238 = CIRCLE ( 'NONE', #244, 1.245064030267288402 ) ;
#239 = CARTESIAN_POINT ( 'NONE',  ( 1.587500000000000355, 1.061392899157111103, -62.51143677385166342 ) ) ;
#240 = VERTEX_POINT ( 'NONE', #308 ) ;
#241 = DIRECTION ( 'NONE',  ( 0.000000000000000000, 0.000000000000000000, -1.000000000000000000 ) ) ;
#242 = CARTESIAN_POINT ( 'NONE',  ( 1.587500000000000133, 0.2143109880596210937, -62.58322736169287737 ) ) ;
#243 = ORIENTED_EDGE ( 'NONE', *, *, #374, .F. ) ;
#244 = AXIS2_PLACEMENT_3D ( 'NONE', #191, #147, #145 ) ;
#245 = FACE_OUTER_BOUND ( 'NONE', #520, .T. ) ;
#246 = DIRECTION ( 'NONE',  ( 0.000000000000000000, 0.000000000000000000, -1.000000000000000000 ) ) ;
#247 = ORIENTED_EDGE ( 'NONE', *, *, #156, .F. ) ;
#248 = DIRECTION ( 'NONE',  ( 1.000000000000000000, 0.000000000000000000, 0.000000000000000000 ) ) ;
#249 = CARTESIAN_POINT ( 'NONE',  ( -1.587500000000000355, -1.061392899157111325, -62.51143677385166342 ) ) ;
#250 = DIRECTION ( 'NONE',  ( -0.000000000000000000, -0.000000000000000000, 1.000000000000000000 ) ) ;
#251 = CARTESIAN_POINT ( 'NONE',  ( -1.587500000000000133, -0.2143109880596210937, -62.58322736169287737 ) ) ;
#252 = CIRCLE ( 'NONE', #110, 2.124999999999995115 ) ;
#253 = AXIS2_PLACEMENT_3D ( 'NONE', #471, #334, #165 ) ;
#254 = EDGE_CURVE ( 'NONE', #266, #428, #56, .T. ) ;
#255 = CARTESIAN_POINT ( 'NONE',  ( 1.268411506570323866, -1.587500000000000355, -62.45991914209798068 ) ) ;
#256 = ORIENTED_EDGE ( 'NONE', *, *, #357, .F. ) ;
#257 = COORDINATED_UNIVERSAL_TIME_OFFSET ( 6, 0, .BEHIND. ) ;
#258 = DIRECTION ( 'NONE',  ( 1.000000000000000000, 0.000000000000000000, 0.000000000000000000 ) ) ;
#259 = ORIENTED_EDGE ( 'NONE', *, *, #326, .T. ) ;
#260 = PERSON_AND_ORGANIZATION ( #398, #84 ) ;
#261 = DIRECTION ( 'NONE',  ( -1.000000000000000000, 0.000000000000000000, 0.000000000000000000 ) ) ;
#262 = CC_DESIGN_PERSON_AND_ORGANIZATION_ASSIGNMENT ( #430, #220, ( #273 ) ) ;
#263 = VERTEX_POINT ( 'NONE', #352 ) ;
#264 = APPLICATION_PROTOCOL_DEFINITION ( 'international standard', 'config_control_design', 1994, #76 ) ;
#265 = CARTESIAN_POINT ( 'NONE',  ( -1.587500000000000355, 1.268411506570323866, -62.45991914209798068 ) ) ;
#266 = VERTEX_POINT ( 'NONE', #265 ) ;
#267 = AXIS2_PLACEMENT_3D ( 'NONE', #424, #126, #335 ) ;
#268 = LINE ( 'NONE', #53, #369 ) ;
#269 = ORIENTED_EDGE ( 'NONE', *, *, #406, .F. ) ;
#270 = EDGE_CURVE ( 'NONE', #306, #464, #528, .T. ) ;
#271 = DIRECTION ( 'NONE',  ( 1.224646799147353207E-16, 1.000000000000000000, 0.000000000000000000 ) ) ;
#272 = VERTEX_POINT ( 'NONE', #427 ) ;
#273 = PRODUCT_DEFINITION_FORMATION_WITH_SPECIFIED_SOURCE ( 'ANY', '', #388, .NOT_KNOWN. ) ;
#274 = EDGE_CURVE ( 'NONE', #315, #44, #289, .T. ) ;
#275 = ORIENTED_EDGE ( 'NONE', *, *, #546, .T. ) ;
#276 = CARTESIAN_POINT ( 'NONE',  ( 1.587500000000000355, -0.8513200635100132141, 62.54137755531812104 ) ) ;
#277 = ORIENTED_EDGE ( 'NONE', *, *, #270, .T. ) ;
#278 = DIRECTION ( 'NONE',  ( -1.000000000000000000, 0.000000000000000000, 0.000000000000000000 ) ) ;
#279 = DATE_TIME_ROLE ( 'classification_date' ) ;
#280 = CARTESIAN_POINT ( 'NONE',  ( 1.245064030267288402, 0.000000000000000000, -60.48600000000000421 ) ) ;
#281 = PRODUCT_DEFINITION ( 'UNKNOWN', '', #273, #41 ) ;
#282 = CARTESIAN_POINT ( 'NONE',  ( 1.268411506570323866, 1.587500000000000355, -62.45991914209798068 ) ) ;
#283 = APPLICATION_CONTEXT ( 'configuration controlled 3d designs of mechanical parts and assemblies' ) ;
#284 = CC_DESIGN_SECURITY_CLASSIFICATION ( #49, ( #273 ) ) ;
#285 = CARTESIAN_POINT ( 'NONE',  ( -0.4342314039556032235, 1.587500000000000355, -62.58285171744315534 ) ) ;
#286 = CARTESIAN_POINT ( 'NONE',  ( 0.000000000000000000, 0.000000000000000000, -60.48600000000000421 ) ) ;
#287 = FACE_OUTER_BOUND ( 'NONE', #345, .T. ) ;
#288 = CARTESIAN_POINT ( 'NONE',  ( 0.000000000000000000, 0.000000000000000000, 62.61099999999999710 ) ) ;
#289 = CIRCLE ( 'NONE', #536, 1.245064030267288402 ) ;
#290 = CARTESIAN_POINT ( 'NONE',  ( -1.587500000000000355, -1.268411506570323866, 62.45991914209798068 ) ) ;
#291 = ORIENTED_EDGE ( 'NONE', *, *, #230, .T. ) ;
#292 = DIRECTION ( 'NONE',  ( 0.000000000000000000, -0.000000000000000000, 1.000000000000000000 ) ) ;
#293 = ORIENTED_EDGE ( 'NONE', *, *, #316, .F. ) ;
#294 = FACE_OUTER_BOUND ( 'NONE', #426, .T. ) ;
#295 = EDGE_CURVE ( 'NONE', #318, #412, #45, .T. ) ;
#296 = DIRECTION ( 'NONE',  ( 1.000000000000000000, 0.000000000000000000, 0.000000000000000000 ) ) ;
#297 = AXIS2_PLACEMENT_3D ( 'NONE', #556, #418, #459 ) ;
#298 = ORIENTED_EDGE ( 'NONE', *, *, #295, .T. ) ;
#299 = LOCAL_TIME ( 15, 2, 18.00000000000000000, #382 ) ;
#300 = APPROVAL_ROLE ( '' ) ;
#301 = CARTESIAN_POINT ( 'NONE',  ( 0.000000000000000000, 0.000000000000000000, -62.45991914209798068 ) ) ;
#302 = EDGE_LOOP ( 'NONE', ( #524, #67 ) ) ;
#303 = CARTESIAN_POINT ( 'NONE',  ( 0.000000000000000000, 0.000000000000000000, 0.000000000000000000 ) ) ;
#304 = EDGE_CURVE ( 'NONE', #226, #428, #252, .T. ) ;
#305 = CARTESIAN_POINT ( 'NONE',  ( 1.587500000000000355, 0.000000000000000000, -62.58322736169286316 ) ) ;
#306 = VERTEX_POINT ( 'NONE', #140 ) ;
#307 = PERSON_AND_ORGANIZATION ( #398, #84 ) ;
#308 = CARTESIAN_POINT ( 'NONE',  ( 1.587500000000000355, 0.000000000000000000, -62.58322736169286316 ) ) ;
#309 = ORIENTED_EDGE ( 'NONE', *, *, #115, .T. ) ;
#310 = AXIS2_PLACEMENT_3D ( 'NONE', #99, #358, #278 ) ;
#311 = AXIS2_PLACEMENT_3D ( 'NONE', #339, #158, #248 ) ;
#312 = CARTESIAN_POINT ( 'NONE',  ( -1.587500000000000355, -0.2114796877013858933, 62.58322736169287737 ) ) ;
#313 = ORIENTED_EDGE ( 'NONE', *, *, #87, .F. ) ;
#314 = FACE_OUTER_BOUND ( 'NONE', #137, .T. ) ;
#315 = VERTEX_POINT ( 'NONE', #181 ) ;
#316 = EDGE_CURVE ( 'NONE', #380, #11, #268, .T. ) ;
#317 = CARTESIAN_POINT ( 'NONE',  ( 1.245064030267288402, 0.000000000000000000, -62.61099999999999710 ) ) ;
#318 = VERTEX_POINT ( 'NONE', #9 ) ;
#319 = CIRCLE ( 'NONE', #26, 2.124999999999995115 ) ;
#320 = ADVANCED_FACE ( 'NONE', ( #478 ), #183, .F. ) ;
#321 = CARTESIAN_POINT ( 'NONE',  ( 1.587500000000000355, 0.000000000000000000, 62.58322736169286316 ) ) ;
#322 = ORIENTED_EDGE ( 'NONE', *, *, #467, .T. ) ;
#323 = B_SPLINE_CURVE_WITH_KNOTS ( 'NONE', 3,
 ( #469, #75, #415, #547, #171, #82, #33, #255 ),
 .UNSPECIFIED., .F., .F.,
 ( 4, 2, 2, 4 ),
 ( 0.01485345774306974162, 0.01548583974386939788, 0.01611822174466905414, 0.01738298574626836318 ),
 .UNSPECIFIED. ) ;
#324 = CIRCLE ( 'NONE', #224, 2.124999999999995115 ) ;
#325 = CARTESIAN_POINT ( 'NONE',  ( 1.587500000000000133, -0.2143109880596210937, 62.58322736169287737 ) ) ;
#326 = EDGE_CURVE ( 'NONE', #201, #139, #130, .T. ) ;
#327 = CARTESIAN_POINT ( 'NONE',  ( 1.268411506570323866, -1.587500000000000355, -62.61099999999999710 ) ) ;
#328 = PERSON_AND_ORGANIZATION_ROLE ( 'classification_officer' ) ;
#329 = VECTOR ( 'NONE', #538, 1000.000000000000000 ) ;
#330 = CARTESIAN_POINT ( 'NONE',  ( 0.4219230645619443387, 1.587500000000000133, -62.57730730355362425 ) ) ;
#331 = APPROVAL_STATUS ( 'not_yet_approved' ) ;
#332 = CARTESIAN_POINT ( 'NONE',  ( -1.245064030267288402, -2.006622987633880502E-16, 62.61099999999999710 ) ) ;
#333 = EDGE_CURVE ( 'NONE', #95, #240, #429, .T. ) ;
#334 = DIRECTION ( 'NONE',  ( 1.000000000000000000, 0.000000000000000000, 0.000000000000000000 ) ) ;
#335 = DIRECTION ( 'NONE',  ( 1.000000000000000000, 0.000000000000000000, 0.000000000000000000 ) ) ;
#336 = CIRCLE ( 'NONE', #310, 2.032000000000000028 ) ;
#337 = EDGE_CURVE ( 'NONE', #315, #272, #319, .T. ) ;
#338 = CYLINDRICAL_SURFACE ( 'NONE', #267, 2.032000000000000028 ) ;
#339 = CARTESIAN_POINT ( 'NONE',  ( 0.000000000000000000, 0.000000000000000000, 60.48600000000000421 ) ) ;
#340 = CARTESIAN_POINT ( 'NONE',  ( 0.000000000000000000, 0.000000000000000000, -62.61099999999999710 ) ) ;
#341 = DIRECTION ( 'NONE',  ( 1.000000000000000000, 0.000000000000000000, 0.000000000000000000 ) ) ;
#342 = APPROVAL_STATUS ( 'not_yet_approved' ) ;
#343 = DIRECTION ( 'NONE',  ( -0.000000000000000000, 1.000000000000000000, 0.000000000000000000 ) ) ;
#344 = AXIS2_PLACEMENT_3D ( 'NONE', #301, #88, #258 ) ;
#345 = EDGE_LOOP ( 'NONE', ( #146, #443, #361, #48 ) ) ;
#346 = CALENDAR_DATE ( 2022, 6, 6 ) ;
#347 = CARTESIAN_POINT ( 'NONE',  ( -1.245064030267288402, 2.006622987633880502E-16, -62.61099999999999710 ) ) ;
#348 = EDGE_LOOP ( 'NONE', ( #466, #204, #497, #359, #313, #63, #433, #540 ) ) ;
#349 = MECHANICAL_CONTEXT ( 'NONE', #283, 'mechanical' ) ;
#350 = CARTESIAN_POINT ( 'NONE',  ( 0.000000000000000000, 0.000000000000000000, 62.45991914209798068 ) ) ;
#351 = EDGE_LOOP ( 'NONE', ( #532, #190, #298, #6 ) ) ;
#352 = CARTESIAN_POINT ( 'NONE',  ( 1.268411506570323866, -1.587500000000000355, -62.45991914209798068 ) ) ;
#353 = AXIS2_PLACEMENT_3D ( 'NONE', #340, #250, #413 ) ;
#354 = ORIENTED_EDGE ( 'NONE', *, *, #446, .T. ) ;
#355 = DIRECTION ( 'NONE',  ( 1.000000000000000000, 0.000000000000000000, 0.000000000000000000 ) ) ;
#356 = ORIENTED_EDGE ( 'NONE', *, *, #215, .F. ) ;
#357 = EDGE_CURVE ( 'NONE', #11, #266, #442, .T. ) ;
#358 = DIRECTION ( 'NONE',  ( 0.000000000000000000, 0.000000000000000000, -1.000000000000000000 ) ) ;
#359 = ORIENTED_EDGE ( 'NONE', *, *, #333, .F. ) ;
#360 = CARTESIAN_POINT ( 'NONE',  ( 0.000000000000000000, 0.000000000000000000, 62.45991914209798068 ) ) ;
#361 = ORIENTED_EDGE ( 'NONE', *, *, #453, .F. ) ;
#362 = EDGE_CURVE ( 'NONE', #226, #440, #238, .T. ) ;
#363 = CARTESIAN_POINT ( 'NONE',  ( 1.587500000000000355, -1.061392899157111103, 62.51143677385166342 ) ) ;
#364 = LINE ( 'NONE', #327, #329 ) ;
#365 = CALENDAR_DATE ( 2022, 6, 6 ) ;
#366 = EDGE_LOOP ( 'NONE', ( #247, #14, #356, #495, #456, #52, #243, #231 ) ) ;
#367 = CARTESIAN_POINT ( 'NONE',  ( -1.587500000000000133, 0.2143109880596210937, 62.58322736169287737 ) ) ;
#368 = EDGE_CURVE ( 'NONE', #141, #380, #336, .T. ) ;
#369 = VECTOR ( 'NONE', #227, 1000.000000000000000 ) ;
#370 = CC_DESIGN_APPROVAL ( #539, ( #281 ) ) ;
#371 = DIRECTION ( 'NONE',  ( 1.000000000000000000, 0.000000000000000000, 0.000000000000000000 ) ) ;
#372 = ADVANCED_FACE ( 'NONE', ( #188 ), #186, .T. ) ;
#373 = ORIENTED_EDGE ( 'NONE', *, *, #411, .F. ) ;
#374 = EDGE_CURVE ( 'NONE', #272, #318, #405, .T. ) ;
#375 = PLANE ( 'NONE',  #8 ) ;
#376 = CARTESIAN_POINT ( 'NONE',  ( 1.268411506570324088, 1.587500000000000355, 62.45991914209798068 ) ) ;
#377 = LINE ( 'NONE', #121, #36 ) ;
#378 = PLANE ( 'NONE',  #297 ) ;
#379 = CLOSED_SHELL ( 'NONE', ( #516, #211, #552, #500, #320, #55, #77, #160, #449, #180, #511, #131, #372, #237 ) ) ;
#380 = VERTEX_POINT ( 'NONE', #493 ) ;
#381 = FACE_OUTER_BOUND ( 'NONE', #351, .T. ) ;
#382 = COORDINATED_UNIVERSAL_TIME_OFFSET ( 6, 0, .BEHIND. ) ;
#383 = DIRECTION ( 'NONE',  ( 1.000000000000000000, 0.000000000000000000, 0.000000000000000000 ) ) ;
#384 = AXIS2_PLACEMENT_3D ( 'NONE', #523, #483, #383 ) ;
#385 = ORIENTED_EDGE ( 'NONE', *, *, #411, .T. ) ;
#386 = SECURITY_CLASSIFICATION_LEVEL ( 'unclassified' ) ;
#387 = CARTESIAN_POINT ( 'NONE',  ( 1.587500000000000355, 1.268411506570323866, -62.61099999999999710 ) ) ;
#388 = PRODUCT ( '228-2500-261', '228-2500-261', '', ( #349 ) ) ;
#389 = CARTESIAN_POINT ( 'NONE',  ( -1.587500000000000355, 0.4276219574846475968, -62.57699639200011177 ) ) ;
#390 = ORIENTED_EDGE ( 'NONE', *, *, #156, .T. ) ;
#391 = CC_DESIGN_PERSON_AND_ORGANIZATION_ASSIGNMENT ( #521, #46, ( #281 ) ) ;
#392 = CARTESIAN_POINT ( 'NONE',  ( -1.587500000000000355, -0.4276219574846475968, 62.57699639200011177 ) ) ;
#393 = VERTEX_POINT ( 'NONE', #153 ) ;
#394 = CARTESIAN_POINT ( 'NONE',  ( 1.587500000000000355, -0.4276219574846475968, -62.57699639200011177 ) ) ;
#395 = VERTEX_POINT ( 'NONE', #534 ) ;
#396 = CARTESIAN_POINT ( 'NONE',  ( -1.587500000000000355, 1.587500000000000355, -62.61099999999999710 ) ) ;
#397 = CARTESIAN_POINT ( 'NONE',  ( 1.587500000000000577, 0.8514389605504947278, 62.54136751577922837 ) ) ;
#398 = PERSON ( 'UNSPECIFIED', 'UNSPECIFIED', 'UNSPECIFIED', ('UNSPECIFIED'), ('UNSPECIFIED'), ('UNSPECIFIED') ) ;
#399 = CARTESIAN_POINT ( 'NONE',  ( 1.587500000000000355, 0.000000000000000000, 62.58322736169286316 ) ) ;
#400 = APPROVAL_PERSON_ORGANIZATION ( #234, #555, #107 ) ;
#401 = LINE ( 'NONE', #445, #103 ) ;
#402 = PLANE ( 'NONE',  #207 ) ;
#403 = CALENDAR_DATE ( 2022, 6, 6 ) ;
#404 = DIRECTION ( 'NONE',  ( 0.000000000000000000, -1.000000000000000000, 0.000000000000000000 ) ) ;
#405 = B_SPLINE_CURVE_WITH_KNOTS ( 'NONE', 3,
 ( #321, #325, #109, #276, #363, #541 ),
 .UNSPECIFIED., .F., .F.,
 ( 4, 2, 4 ),
 ( 0.000000000000000000, 0.0006365870327257436463, 0.001273174065451487293 ),
 .UNSPECIFIED. ) ;
#406 = EDGE_CURVE ( 'NONE', #240, #464, #212, .T. ) ;
#407 = DIRECTION ( 'NONE',  ( 0.000000000000000000, -1.000000000000000000, 0.000000000000000000 ) ) ;
#408 = EDGE_CURVE ( 'NONE', #527, #11, #421, .T. ) ;
#409 = DIRECTION ( 'NONE',  ( -0.000000000000000000, -0.000000000000000000, 1.000000000000000000 ) ) ;
#410 = CARTESIAN_POINT ( 'NONE',  ( -0.8486262390323787708, 1.587500000000000355, 62.54176882282393279 ) ) ;
#411 = EDGE_CURVE ( 'NONE', #393, #306, #517, .T. ) ;
#412 = VERTEX_POINT ( 'NONE', #236 ) ;
#413 = DIRECTION ( 'NONE',  ( 1.000000000000000000, 0.000000000000000000, 0.000000000000000000 ) ) ;
#414 = CIRCLE ( 'NONE', #60, 2.032000000000000028 ) ;
#415 = CARTESIAN_POINT ( 'NONE',  ( -0.8486262390323787708, -1.587500000000000355, -62.54176882282393279 ) ) ;
#416 = PRODUCT_RELATED_PRODUCT_CATEGORY ( 'detail', '', ( #388 ) ) ;
#417 = PLANE ( 'NONE',  #253 ) ;
#418 = DIRECTION ( 'NONE',  ( 0.000000000000000000, 0.000000000000000000, -1.000000000000000000 ) ) ;
#419 = AXIS2_PLACEMENT_3D ( 'NONE', #551, #199, #371 ) ;
#420 = CARTESIAN_POINT ( 'NONE',  ( -1.060147506033615183, 1.587500000000000355, 62.51174669625515889 ) ) ;
#421 = B_SPLINE_CURVE_WITH_KNOTS ( 'NONE', 3,
 ( #282, #62, #149, #330, #101, #285, #444, #457 ),
 .UNSPECIFIED., .F., .F.,
 ( 4, 2, 2, 4 ),
 ( 0.01485345774306974162, 0.01548583974386939788, 0.01611822174466905414, 0.01738298574626836318 ),
 .UNSPECIFIED. ) ;
#422 = VECTOR ( 'NONE', #32, 1000.000000000000000 ) ;
#423 = APPROVAL_ROLE ( '' ) ;
#424 = CARTESIAN_POINT ( 'NONE',  ( 0.000000000000000000, 0.000000000000000000, -62.61099999999999710 ) ) ;
#425 = EDGE_CURVE ( 'NONE', #306, #272, #185, .T. ) ;
#426 = EDGE_LOOP ( 'NONE', ( #123, #182, #69, #559, #373, #22, #448, #172 ) ) ;
#427 = CARTESIAN_POINT ( 'NONE',  ( 1.587500000000000355, 0.000000000000000000, 62.58322736169286316 ) ) ;
#428 = VERTEX_POINT ( 'NONE', #491 ) ;
#429 = B_SPLINE_CURVE_WITH_KNOTS ( 'NONE', 3,
 ( #47, #229, #1, #394, #12, #305 ),
 .UNSPECIFIED., .F., .F.,
 ( 4, 2, 4 ),
 ( 0.01485345774306974162, 0.01548163471194330919, 0.01610981168081687676 ),
 .UNSPECIFIED. ) ;
#430 = PERSON_AND_ORGANIZATION ( #398, #84 ) ;
#431 = DIRECTION ( 'NONE',  ( -0.000000000000000000, -0.000000000000000000, 1.000000000000000000 ) ) ;
#432 = AXIS2_PLACEMENT_3D ( 'NONE', #548, #246, #28 ) ;
#433 = ORIENTED_EDGE ( 'NONE', *, *, #326, .F. ) ;
#434 = LOCAL_TIME ( 15, 2, 18.00000000000000000, #189 ) ;
#435 = PERSON_AND_ORGANIZATION ( #398, #84 ) ;
#436 = CARTESIAN_POINT ( 'NONE',  ( -1.587500000000000355, 1.061532360077855452, -62.51140206829359869 ) ) ;
#437 = ORIENTED_EDGE ( 'NONE', *, *, #270, .F. ) ;
#438 = TOROIDAL_SURFACE ( 'NONE', #560, 1.245064030267288402, 2.124999999999995115 ) ;
#439 = CARTESIAN_POINT ( 'NONE',  ( 0.000000000000000000, 0.000000000000000000, 62.61099999999999710 ) ) ;
#440 = VERTEX_POINT ( 'NONE', #317 ) ;
#441 = DIRECTION ( 'NONE',  ( 1.000000000000000000, 0.000000000000000000, 0.000000000000000000 ) ) ;
#442 = CIRCLE ( 'NONE', #344, 2.032000000000000028 ) ;
#443 = ORIENTED_EDGE ( 'NONE', *, *, #96, .T. ) ;
#444 = CARTESIAN_POINT ( 'NONE',  ( -0.8571092511719574647, 1.587500000000000799, -62.56227379706279379 ) ) ;
#445 = CARTESIAN_POINT ( 'NONE',  ( -1.587500000000000355, -1.268411506570323866, -62.61099999999999710 ) ) ;
#446 = EDGE_CURVE ( 'NONE', #464, #527, #173, .T. ) ;
#447 = CARTESIAN_POINT ( 'NONE',  ( 1.587500000000000355, 0.000000000000000000, -62.58322736169286316 ) ) ;
#448 = ORIENTED_EDGE ( 'NONE', *, *, #368, .F. ) ;
#449 = ADVANCED_FACE ( 'NONE', ( #498 ), #402, .T. ) ;
#450 = DIRECTION ( 'NONE',  ( -0.000000000000000000, -0.000000000000000000, 1.000000000000000000 ) ) ;
#451 = CARTESIAN_POINT ( 'NONE',  ( -1.268411506570323866, 1.587500000000000355, -62.45991914209798068 ) ) ;
#452 = AXIS2_PLACEMENT_3D ( 'NONE', #454, #59, #232 ) ;
#453 = EDGE_CURVE ( 'NONE', #412, #263, #364, .T. ) ;
#454 = CARTESIAN_POINT ( 'NONE',  ( 0.000000000000000000, 0.000000000000000000, -62.45991914209798068 ) ) ;
#455 = LOCAL_TIME ( 15, 2, 18.00000000000000000, #150 ) ;
#456 = ORIENTED_EDGE ( 'NONE', *, *, #485, .F. ) ;
#457 = CARTESIAN_POINT ( 'NONE',  ( -1.268411506570323866, 1.587500000000000355, -62.45991914209798068 ) ) ;
#458 = CARTESIAN_POINT ( 'NONE',  ( -1.587500000000000355, 1.268411506570324088, 62.45991914209798068 ) ) ;
#459 = DIRECTION ( 'NONE',  ( -1.000000000000000000, 0.000000000000000000, -0.000000000000000000 ) ) ;
#460 = AXIS2_PLACEMENT_3D ( 'NONE', #360, #241, #70 ) ;
#461 = CARTESIAN_POINT ( 'NONE',  ( -1.587500000000000355, -1.587500000000000355, 62.61099999999999710 ) ) ;
#462 = CARTESIAN_POINT ( 'NONE',  ( 0.000000000000000000, 0.000000000000000000, -60.48600000000000421 ) ) ;
#463 = CC_DESIGN_APPROVAL ( #474, ( #273 ) ) ;
#464 = VERTEX_POINT ( 'NONE', #68 ) ;
#465 = CARTESIAN_POINT ( 'NONE',  ( 1.060147506033615183, -1.587500000000000355, 62.51174669625515889 ) ) ;
#466 = ORIENTED_EDGE ( 'NONE', *, *, #304, .F. ) ;
#467 = EDGE_CURVE ( 'NONE', #40, #141, #514, .T. ) ;
#468 = CARTESIAN_POINT ( 'NONE',  ( 0.4219230645619443387, -1.587500000000000133, 62.57730730355362425 ) ) ;
#469 = CARTESIAN_POINT ( 'NONE',  ( -1.268411506570323866, -1.587500000000000355, -62.45991914209798068 ) ) ;
#470 = EDGE_CURVE ( 'NONE', #395, #487, #219, .T. ) ;
#471 = CARTESIAN_POINT ( 'NONE',  ( -1.587500000000000355, -1.587500000000000355, 62.61099999999999710 ) ) ;
#472 = CARTESIAN_POINT ( 'NONE',  ( 1.587500000000000355, -1.268411506570323866, -62.45991914209798068 ) ) ;
#473 = ORIENTED_EDGE ( 'NONE', *, *, #274, .T. ) ;
#474 = APPROVAL ( #342, 'UNSPECIFIED' ) ;
#475 = UNCERTAINTY_MEASURE_WITH_UNIT (LENGTH_MEASURE( 1.000000000000000082E-05 ), #512, 'distance_accuracy_value', 'NONE');
#476 = APPROVAL_DATE_TIME ( #89, #474 ) ;
#477 = TOROIDAL_SURFACE ( 'NONE', #509, 1.245064030267288402, 2.124999999999995115 ) ;
#478 = FACE_OUTER_BOUND ( 'NONE', #144, .T. ) ;
#479 = PERSON_AND_ORGANIZATION ( #398, #84 ) ;
#480 = DIRECTION ( 'NONE',  ( -0.000000000000000000, -0.000000000000000000, 1.000000000000000000 ) ) ;
#481 = ORIENTED_EDGE ( 'NONE', *, *, #408, .T. ) ;
#482 = PERSON_AND_ORGANIZATION_ROLE ( 'design_owner' ) ;
#483 = DIRECTION ( 'NONE',  ( -0.000000000000000000, -0.000000000000000000, 1.000000000000000000 ) ) ;
#484 = AXIS2_PLACEMENT_3D ( 'NONE', #350, #488, #50 ) ;
#485 = EDGE_CURVE ( 'NONE', #412, #395, #21, .T. ) ;
#486 = CARTESIAN_POINT ( 'NONE',  ( -1.587500000000000355, 1.268411506570323866, -62.45991914209798068 ) ) ;
#487 = VERTEX_POINT ( 'NONE', #78 ) ;
#488 = DIRECTION ( 'NONE',  ( 0.000000000000000000, 0.000000000000000000, -1.000000000000000000 ) ) ;
#489 = ORIENTED_EDGE ( 'NONE', *, *, #115, .F. ) ;
#490 = EDGE_CURVE ( 'NONE', #95, #318, #377, .T. ) ;
#491 = CARTESIAN_POINT ( 'NONE',  ( -1.587500000000000355, 1.944126793646423534E-16, -62.58322736169286316 ) ) ;
#492 = ORIENTED_EDGE ( 'NONE', *, *, #254, .T. ) ;
#493 = CARTESIAN_POINT ( 'NONE',  ( -1.268411506570323866, 1.587500000000000355, 62.45991914209798068 ) ) ;
#494 = DATE_AND_TIME ( #365, #455 ) ;
#495 = ORIENTED_EDGE ( 'NONE', *, *, #470, .F. ) ;
#496 = CARTESIAN_POINT ( 'NONE',  ( 1.587500000000000355, 0.4276219574846475968, 62.57699639200011177 ) ) ;
#497 = ORIENTED_EDGE ( 'NONE', *, *, #10, .T. ) ;
#498 = FACE_OUTER_BOUND ( 'NONE', #302, .T. ) ;
#499 = FACE_OUTER_BOUND ( 'NONE', #184, .T. ) ;
#500 = ADVANCED_FACE ( 'NONE', ( #287 ), #375, .F. ) ;
#501 =( GEOMETRIC_REPRESENTATION_CONTEXT ( 3 ) GLOBAL_UNCERTAINTY_ASSIGNED_CONTEXT ( ( #475 ) ) GLOBAL_UNIT_ASSIGNED_CONTEXT ( ( #512, #127, #24 ) ) REPRESENTATION_CONTEXT ( 'NONE', 'WORKASPACE' ) );
#502 = DIRECTION ( 'NONE',  ( 1.000000000000000000, 0.000000000000000000, 0.000000000000000000 ) ) ;
#503 = CARTESIAN_POINT ( 'NONE',  ( -1.587500000000000577, -0.4277385810629853458, -62.57698654358312496 ) ) ;
#504 = LINE ( 'NONE', #544, #422 ) ;
#505 = CARTESIAN_POINT ( 'NONE',  ( -1.587500000000000355, 1.268411506570324088, 62.45991914209798068 ) ) ;
#506 = CARTESIAN_POINT ( 'NONE',  ( -1.587500000000000355, 1.061392899157111325, 62.51143677385166342 ) ) ;
#507 = CARTESIAN_POINT ( 'NONE',  ( 0.000000000000000000, 0.000000000000000000, 60.48600000000000421 ) ) ;
#508 = FACE_OUTER_BOUND ( 'NONE', #366, .T. ) ;
#509 = AXIS2_PLACEMENT_3D ( 'NONE', #286, #157, #16 ) ;
#510 = DIRECTION ( 'NONE',  ( 1.000000000000000000, 1.224646799147353207E-16, 0.000000000000000000 ) ) ;
#511 = ADVANCED_FACE ( 'NONE', ( #210 ), #554, .T. ) ;
#512 =( LENGTH_UNIT ( ) NAMED_UNIT ( * ) SI_UNIT ( .MILLI., .METRE. ) );
#513 = CARTESIAN_POINT ( 'NONE',  ( -0.4219230645619443387, 1.587500000000000133, 62.57730730355362425 ) ) ;
#514 = B_SPLINE_CURVE_WITH_KNOTS ( 'NONE', 3,
 ( #194, #367, #74, #202, #506, #458 ),
 .UNSPECIFIED., .F., .F.,
 ( 4, 2, 4 ),
 ( 1.905938025164287118E-19, 0.0006365870327257437547, 0.001273174065451487293 ),
 .UNSPECIFIED. ) ;
#515 = EDGE_CURVE ( 'NONE', #440, #226, #35, .T. ) ;
#516 = ADVANCED_FACE ( 'NONE', ( #508 ), #120, .T. ) ;
#517 = CIRCLE ( 'NONE', #460, 2.032000000000000028 ) ;
#518 = APPROVAL_DATE_TIME ( #214, #539 ) ;
#519 = DIRECTION ( 'NONE',  ( 0.000000000000000000, 0.000000000000000000, 1.000000000000000000 ) ) ;
#520 = EDGE_LOOP ( 'NONE', ( #152, #105, #533, #256, #61, #4, #269, #98 ) ) ;
#521 = PERSON_AND_ORGANIZATION ( #398, #84 ) ;
#522 = AXIS2_PLACEMENT_3D ( 'NONE', #288, #79, #296 ) ;
#523 = CARTESIAN_POINT ( 'NONE',  ( 0.000000000000000000, 0.000000000000000000, -62.45991914209798068 ) ) ;
#524 = ORIENTED_EDGE ( 'NONE', *, *, #515, .F. ) ;
#525 = CC_DESIGN_PERSON_AND_ORGANIZATION_ASSIGNMENT ( #260, #174, ( #273 ) ) ;
#526 = DIRECTION ( 'NONE',  ( -1.000000000000000000, 1.224646799147353207E-16, 0.000000000000000000 ) ) ;
#527 = VERTEX_POINT ( 'NONE', #30 ) ;
#528 = LINE ( 'NONE', #387, #18 ) ;
#529 = AXIS2_PLACEMENT_3D ( 'NONE', #136, #178, #355 ) ;
#530 = EDGE_LOOP ( 'NONE', ( #473, #390 ) ) ;
#531 = CARTESIAN_POINT ( 'NONE',  ( -1.587500000000000355, -1.061532360077855452, 62.51140206829359869 ) ) ;
#532 = ORIENTED_EDGE ( 'NONE', *, *, #87, .T. ) ;
#533 = ORIENTED_EDGE ( 'NONE', *, *, #254, .F. ) ;
#534 = CARTESIAN_POINT ( 'NONE',  ( -1.268411506570324088, -1.587500000000000355, 62.45991914209798068 ) ) ;
#535 = APPROVAL_DATE_TIME ( #494, #555 ) ;
#536 = AXIS2_PLACEMENT_3D ( 'NONE', #439, #3, #43 ) ;
#537 = CARTESIAN_POINT ( 'NONE',  ( 1.587500000000000355, 1.268411506570323866, -62.45991914209798068 ) ) ;
#538 = DIRECTION ( 'NONE',  ( 0.000000000000000000, 0.000000000000000000, -1.000000000000000000 ) ) ;
#539 = APPROVAL ( #561, 'UNSPECIFIED' ) ;
#540 = ORIENTED_EDGE ( 'NONE', *, *, #169, .F. ) ;
#541 = CARTESIAN_POINT ( 'NONE',  ( 1.587500000000000355, -1.268411506570324088, 62.45991914209798068 ) ) ;
#542 = ORIENTED_EDGE ( 'NONE', *, *, #357, .T. ) ;
#543 = APPROVAL_PERSON_ORGANIZATION ( #435, #539, #423 ) ;
#544 = CARTESIAN_POINT ( 'NONE',  ( -1.587500000000000355, 1.268411506570323866, -62.61099999999999710 ) ) ;
#545 = FACE_OUTER_BOUND ( 'NONE', #348, .T. ) ;
#546 = EDGE_CURVE ( 'NONE', #266, #141, #504, .T. ) ;
#547 = CARTESIAN_POINT ( 'NONE',  ( -0.4219230645619443387, -1.587500000000000133, -62.57730730355362425 ) ) ;
#548 = CARTESIAN_POINT ( 'NONE',  ( 0.000000000000000000, 0.000000000000000000, 62.45991914209798068 ) ) ;
#549 = CARTESIAN_POINT ( 'NONE',  ( 1.268411506570323866, 1.587500000000000355, -62.61099999999999710 ) ) ;
#550 = AXIS2_PLACEMENT_3D ( 'NONE', #462, #480, #441 ) ;
#551 = CARTESIAN_POINT ( 'NONE',  ( 0.000000000000000000, 0.000000000000000000, -62.61099999999999710 ) ) ;
#552 = ADVANCED_FACE ( 'NONE', ( #167 ), #417, .F. ) ;
#553 = DIRECTION ( 'NONE',  ( -0.000000000000000000, -0.000000000000000000, 1.000000000000000000 ) ) ;
#554 = CYLINDRICAL_SURFACE ( 'NONE', #353, 2.032000000000000028 ) ;
#555 = APPROVAL ( #331, 'UNSPECIFIED' ) ;
#556 = CARTESIAN_POINT ( 'NONE',  ( -1.587500000000000355, 1.587500000000000355, 62.61099999999999710 ) ) ;
#557 = CALENDAR_DATE ( 2022, 6, 6 ) ;
#558 = CARTESIAN_POINT ( 'NONE',  ( 0.8571092511719574647, 1.587500000000000799, 62.56227379706279379 ) ) ;
#559 = ORIENTED_EDGE ( 'NONE', *, *, #425, .F. ) ;
#560 = AXIS2_PLACEMENT_3D ( 'NONE', #507, #128, #29 ) ;
#561 = APPROVAL_STATUS ( 'not_yet_approved' ) ;
ENDSEC;
END-ISO-10303-21;
