ISO-10303-21;
HEADER;
FILE_DESCRIPTION (( 'STEP AP203' ),
    '1' );
FILE_NAME ('228-2500-262.step',
    '2022-06-06T20:02:24',
    ( '' ),
    ( '' ),
    'SwSTEP 2.0',
    'SolidWorks 2021',
    '' );
FILE_SCHEMA (( 'CONFIG_CONTROL_DESIGN' ));
ENDSEC;

DATA;
#1 = B_SPLINE_CURVE_WITH_KNOTS ( 'NONE', 3,
 ( #472, #464, #511, #38, #164, #79 ),
 .UNSPECIFIED., .F., .F.,
 ( 4, 2, 4 ),
 ( 0.01485345774306979540, 0.01548163471194336643, 0.01610981168081693574 ),
 .UNSPECIFIED. ) ;
#2 = DIRECTION ( 'NONE',  ( -0.000000000000000000, -0.000000000000000000, 1.000000000000000000 ) ) ;
#3 = PERSON_AND_ORGANIZATION ( #234, #96 ) ;
#4 = CARTESIAN_POINT ( 'NONE',  ( 0.000000000000000000, 0.000000000000000000, -66.83600000000001273 ) ) ;
#5 = VERTEX_POINT ( 'NONE', #212 ) ;
#6 = CARTESIAN_POINT ( 'NONE',  ( 1.587500000000000577, -0.4277385810629848462, 68.92698654358312638 ) ) ;
#7 = ORIENTED_EDGE ( 'NONE', *, *, #471, .F. ) ;
#8 = AXIS2_PLACEMENT_3D ( 'NONE', #145, #501, #109 ) ;
#9 = DIRECTION ( 'NONE',  ( 1.000000000000000000, 0.000000000000000000, 0.000000000000000000 ) ) ;
#10 = ORIENTED_EDGE ( 'NONE', *, *, #184, .T. ) ;
#11 = DIRECTION ( 'NONE',  ( 0.000000000000000000, 1.000000000000000000, 0.000000000000000000 ) ) ;
#12 = APPROVAL_ROLE ( '' ) ;
#13 = ORIENTED_EDGE ( 'NONE', *, *, #504, .F. ) ;
#14 = EDGE_CURVE ( 'NONE', #144, #549, #142, .T. ) ;
#15 = DIRECTION ( 'NONE',  ( 0.000000000000000000, 0.000000000000000000, -1.000000000000000000 ) ) ;
#16 = EDGE_LOOP ( 'NONE', ( #13, #348, #483, #183, #395, #63, #162, #488 ) ) ;
#17 = LINE ( 'NONE', #499, #486 ) ;
#18 = AXIS2_PLACEMENT_3D ( 'NONE', #57, #91, #265 ) ;
#19 = CARTESIAN_POINT ( 'NONE',  ( 0.000000000000000000, 0.000000000000000000, 68.80991914209799631 ) ) ;
#20 = ADVANCED_FACE ( 'NONE', ( #251 ), #470, .F. ) ;
#21 = APPROVAL_STATUS ( 'not_yet_approved' ) ;
#22 = ORIENTED_EDGE ( 'NONE', *, *, #36, .T. ) ;
#23 = CIRCLE ( 'NONE', #414, 2.032000000000000028 ) ;
#24 = PRODUCT ( '228-2500-262', '228-2500-262', '', ( #481 ) ) ;
#25 = CARTESIAN_POINT ( 'NONE',  ( 1.268411506570323866, -1.587500000000000355, 68.80991914209799631 ) ) ;
#26 = CALENDAR_DATE ( 2022, 6, 6 ) ;
#27 = CARTESIAN_POINT ( 'NONE',  ( 0.000000000000000000, 0.000000000000000000, 68.96100000000001273 ) ) ;
#28 = ORIENTED_EDGE ( 'NONE', *, *, #184, .F. ) ;
#29 = CIRCLE ( 'NONE', #449, 2.032000000000000028 ) ;
#30 = CARTESIAN_POINT ( 'NONE',  ( -0.2043756380772881742, 1.587500000000000799, 68.93340961896380747 ) ) ;
#31 = DESIGN_CONTEXT ( 'detailed design', #32, 'design' ) ;
#32 = APPLICATION_CONTEXT ( 'configuration controlled 3d designs of mechanical parts and assemblies' ) ;
#33 = ORIENTED_EDGE ( 'NONE', *, *, #263, .T. ) ;
#34 = ORIENTED_EDGE ( 'NONE', *, *, #53, .T. ) ;
#35 = AXIS2_PLACEMENT_3D ( 'NONE', #119, #217, #82 ) ;
#36 = EDGE_CURVE ( 'NONE', #370, #549, #438, .T. ) ;
#37 = CARTESIAN_POINT ( 'NONE',  ( 1.268411506570322533, 1.587500000000000355, 68.80991914209799631 ) ) ;
#38 = CARTESIAN_POINT ( 'NONE',  ( 1.587500000000000355, 0.4276219574846448768, 68.92699639200007766 ) ) ;
#39 = CARTESIAN_POINT ( 'NONE',  ( 0.000000000000000000, 0.000000000000000000, 68.96100000000001273 ) ) ;
#40 = AXIS2_PLACEMENT_3D ( 'NONE', #185, #353, #485 ) ;
#41 = CIRCLE ( 'NONE', #288, 2.032000000000000028 ) ;
#42 = CARTESIAN_POINT ( 'NONE',  ( 1.587500000000000577, -0.8514389605504931735, -68.89136751577920847 ) ) ;
#43 = DIRECTION ( 'NONE',  ( -0.000000000000000000, -0.000000000000000000, 1.000000000000000000 ) ) ;
#44 = ADVANCED_FACE ( 'NONE', ( #514 ), #106, .T. ) ;
#45 = CARTESIAN_POINT ( 'NONE',  ( 0.000000000000000000, 0.000000000000000000, 68.80991914209799631 ) ) ;
#46 = CARTESIAN_POINT ( 'NONE',  ( -1.587500000000000355, -1.944126793646423534E-16, 68.93322736169287168 ) ) ;
#47 = FACE_OUTER_BOUND ( 'NONE', #278, .T. ) ;
#48 = EDGE_LOOP ( 'NONE', ( #500, #116, #440, #28, #419, #69 ) ) ;
#49 = VECTOR ( 'NONE', #404, 1000.000000000000000 ) ;
#50 = CARTESIAN_POINT ( 'NONE',  ( 0.4219230645622806808, 1.587500000000000577, -68.92730730355363278 ) ) ;
#51 = CARTESIAN_POINT ( 'NONE',  ( -1.587500000000000355, 1.061392899157111325, 68.86143677385169326 ) ) ;
#52 = ORIENTED_EDGE ( 'NONE', *, *, #356, .T. ) ;
#53 = EDGE_CURVE ( 'NONE', #544, #246, #125, .T. ) ;
#54 = CARTESIAN_POINT ( 'NONE',  ( -1.268411506570323866, -1.587500000000000355, -68.96100000000001273 ) ) ;
#55 = ORIENTED_EDGE ( 'NONE', *, *, #356, .F. ) ;
#56 = CARTESIAN_POINT ( 'NONE',  ( -1.245064030267288402, 2.006622987633879023E-16, -68.96100000000001273 ) ) ;
#57 = CARTESIAN_POINT ( 'NONE',  ( -1.587500000000000355, 1.587500000000000355, 68.96100000000001273 ) ) ;
#58 = APPROVAL ( #113, 'UNSPECIFIED' ) ;
#59 = ORIENTED_EDGE ( 'NONE', *, *, #381, .F. ) ;
#60 = EDGE_CURVE ( 'NONE', #453, #206, #23, .T. ) ;
#61 = DIRECTION ( 'NONE',  ( -0.000000000000000000, -0.000000000000000000, 1.000000000000000000 ) ) ;
#62 = APPROVAL_DATE_TIME ( #332, #167 ) ;
#63 = ORIENTED_EDGE ( 'NONE', *, *, #535, .F. ) ;
#64 = CARTESIAN_POINT ( 'NONE',  ( 0.000000000000000000, 0.000000000000000000, -68.80991914209799631 ) ) ;
#65 = ORIENTED_EDGE ( 'NONE', *, *, #504, .T. ) ;
#66 = PRODUCT_RELATED_PRODUCT_CATEGORY ( 'detail', '', ( #24 ) ) ;
#67 = DIRECTION ( 'NONE',  ( 0.000000000000000000, 0.000000000000000000, -1.000000000000000000 ) ) ;
#68 = DATE_AND_TIME ( #279, #195 ) ;
#69 = ORIENTED_EDGE ( 'NONE', *, *, #267, .T. ) ;
#70 = LINE ( 'NONE', #365, #259 ) ;
#71 = VERTEX_POINT ( 'NONE', #380 ) ;
#72 = AXIS2_PLACEMENT_3D ( 'NONE', #39, #214, #554 ) ;
#73 = DIRECTION ( 'NONE',  ( 1.000000000000000000, 0.000000000000000000, 0.000000000000000000 ) ) ;
#74 = PERSON_AND_ORGANIZATION ( #234, #96 ) ;
#75 = VERTEX_POINT ( 'NONE', #219 ) ;
#76 = DIRECTION ( 'NONE',  ( 1.000000000000000000, 0.000000000000000000, 0.000000000000000000 ) ) ;
#77 = CARTESIAN_POINT ( 'NONE',  ( -1.587500000000000355, 0.2114796877013866427, -68.93322736169288589 ) ) ;
#78 = EDGE_CURVE ( 'NONE', #75, #71, #230, .T. ) ;
#79 = CARTESIAN_POINT ( 'NONE',  ( 1.587500000000000355, 0.000000000000000000, 68.93322736169287168 ) ) ;
#80 = CARTESIAN_POINT ( 'NONE',  ( -1.245064030267288402, -1.524763679400337895E-16, 66.83600000000001273 ) ) ;
#81 = CARTESIAN_POINT ( 'NONE',  ( 1.268411506570323866, 1.587500000000000355, -68.80991914209799631 ) ) ;
#82 = DIRECTION ( 'NONE',  ( -1.000000000000000000, 0.000000000000000000, -0.000000000000000000 ) ) ;
#83 = CARTESIAN_POINT ( 'NONE',  ( 1.268411506570323866, -1.587500000000000355, -68.80991914210505911 ) ) ;
#84 = EDGE_CURVE ( 'NONE', #144, #544, #489, .T. ) ;
#85 = CARTESIAN_POINT ( 'NONE',  ( 1.587500000000000355, 0.8513200635093568502, -68.89137755531820062 ) ) ;
#86 = CARTESIAN_POINT ( 'NONE',  ( 1.268411506570322533, 1.587500000000000355, 68.80991914209799631 ) ) ;
#87 = TOROIDAL_SURFACE ( 'NONE', #441, 1.245064030267288402, 2.125000000000001776 ) ;
#88 = APPROVAL_PERSON_ORGANIZATION ( #245, #167, #12 ) ;
#89 = CARTESIAN_POINT ( 'NONE',  ( 1.587500000000000355, 0.2143109880594543937, -68.93322736169288589 ) ) ;
#90 = PERSON_AND_ORGANIZATION_ROLE ( 'design_owner' ) ;
#91 = DIRECTION ( 'NONE',  ( 0.000000000000000000, -1.000000000000000000, 0.000000000000000000 ) ) ;
#92 = VERTEX_POINT ( 'NONE', #170 ) ;
#93 = CARTESIAN_POINT ( 'NONE',  ( -1.587500000000000355, 1.268411506570322533, 68.80991914209799631 ) ) ;
#94 = ORIENTED_EDGE ( 'NONE', *, *, #341, .F. ) ;
#95 = LINE ( 'NONE', #54, #233 ) ;
#96 = ORGANIZATION ( 'UNSPECIFIED', 'UNSPECIFIED', '' ) ;
#97 = ORIENTED_EDGE ( 'NONE', *, *, #558, .F. ) ;
#98 = EDGE_CURVE ( 'NONE', #206, #75, #210, .T. ) ;
#99 = CARTESIAN_POINT ( 'NONE',  ( 0.4219230645619455045, -1.587500000000000133, 68.92730730355363278 ) ) ;
#100 = VERTEX_POINT ( 'NONE', #473 ) ;
#101 = EDGE_CURVE ( 'NONE', #462, #100, #187, .T. ) ;
#102 = DIRECTION ( 'NONE',  ( 1.000000000000000000, 0.000000000000000000, 0.000000000000000000 ) ) ;
#103 = ORIENTED_EDGE ( 'NONE', *, *, #150, .F. ) ;
#104 = CARTESIAN_POINT ( 'NONE',  ( 0.000000000000000000, 0.000000000000000000, -68.96100000000001273 ) ) ;
#105 = DIRECTION ( 'NONE',  ( -1.000000000000000000, 0.000000000000000000, -0.000000000000000000 ) ) ;
#106 = TOROIDAL_SURFACE ( 'NONE', #425, 1.245064030267288402, 2.125000000000001776 ) ;
#107 = CALENDAR_DATE ( 2022, 6, 6 ) ;
#108 = ORIENTED_EDGE ( 'NONE', *, *, #381, .T. ) ;
#109 = DIRECTION ( 'NONE',  ( 1.000000000000000000, 0.000000000000000000, 0.000000000000000000 ) ) ;
#110 = ORIENTED_EDGE ( 'NONE', *, *, #126, .F. ) ;
#111 = DIRECTION ( 'NONE',  ( -0.000000000000000000, -0.000000000000000000, 1.000000000000000000 ) ) ;
#112 = CIRCLE ( 'NONE', #430, 1.245064030267288402 ) ;
#113 = APPROVAL_STATUS ( 'not_yet_approved' ) ;
#114 = VERTEX_POINT ( 'NONE', #432 ) ;
#115 = PERSON_AND_ORGANIZATION_ROLE ( 'creator' ) ;
#116 = ORIENTED_EDGE ( 'NONE', *, *, #428, .T. ) ;
#117 = CARTESIAN_POINT ( 'NONE',  ( -1.268411506570323866, -1.587500000000000355, -68.80991914209799631 ) ) ;
#118 = DIRECTION ( 'NONE',  ( -1.000000000000000000, 0.000000000000000000, 0.000000000000000000 ) ) ;
#119 = CARTESIAN_POINT ( 'NONE',  ( -1.587500000000000355, 1.587500000000000355, 68.96100000000001273 ) ) ;
#120 = TOROIDAL_SURFACE ( 'NONE', #337, 1.245064030267288402, 2.125000000000001776 ) ;
#121 = AXIS2_PLACEMENT_3D ( 'NONE', #204, #556, #296 ) ;
#122 = CARTESIAN_POINT ( 'NONE',  ( 0.8571092511711349005, -1.587500000000000355, -68.91227379706286627 ) ) ;
#123 = CARTESIAN_POINT ( 'NONE',  ( -1.587500000000000355, -0.8513200635093569613, -68.89137755531818641 ) ) ;
#124 = CC_DESIGN_PERSON_AND_ORGANIZATION_ASSIGNMENT ( #291, #401, ( #252 ) ) ;
#125 = CIRCLE ( 'NONE', #171, 2.125000000000001776 ) ;
#126 = EDGE_CURVE ( 'NONE', #186, #525, #384, .T. ) ;
#127 = DIRECTION ( 'NONE',  ( 0.000000000000000000, 0.000000000000000000, 1.000000000000000000 ) ) ;
#128 = CARTESIAN_POINT ( 'NONE',  ( -1.587500000000000577, 0.8514389605504931735, -68.89136751577920847 ) ) ;
#129 = ADVANCED_FACE ( 'NONE', ( #388 ), #135, .F. ) ;
#130 = CARTESIAN_POINT ( 'NONE',  ( 0.000000000000000000, 0.000000000000000000, 66.83600000000001273 ) ) ;
#131 = CARTESIAN_POINT ( 'NONE',  ( -1.587500000000000355, 0.4276219574846448768, -68.92699639200007766 ) ) ;
#132 = AXIS2_PLACEMENT_3D ( 'NONE', #221, #490, #102 ) ;
#133 = PRODUCT_DEFINITION_FORMATION_WITH_SPECIFIED_SOURCE ( 'ANY', '', #24, .NOT_KNOWN. ) ;
#134 = CC_DESIGN_APPROVAL ( #167, ( #133 ) ) ;
#135 = PLANE ( 'NONE',  #18 ) ;
#136 = DIRECTION ( 'NONE',  ( 1.000000000000000000, 0.000000000000000000, 0.000000000000000000 ) ) ;
#137 = EDGE_LOOP ( 'NONE', ( #249, #333, #178, #547, #22, #240 ) ) ;
#138 = CARTESIAN_POINT ( 'NONE',  ( 1.587500000000000355, 0.000000000000000000, 68.93322736169287168 ) ) ;
#139 = ORIENTED_EDGE ( 'NONE', *, *, #14, .T. ) ;
#140 = DIRECTION ( 'NONE',  ( -0.000000000000000000, -0.000000000000000000, 1.000000000000000000 ) ) ;
#141 = EDGE_LOOP ( 'NONE', ( #55, #110 ) ) ;
#142 = CIRCLE ( 'NONE', #209, 2.125000000000001776 ) ;
#143 = DIRECTION ( 'NONE',  ( 0.000000000000000000, 0.000000000000000000, -1.000000000000000000 ) ) ;
#144 = VERTEX_POINT ( 'NONE', #392 ) ;
#145 = CARTESIAN_POINT ( 'NONE',  ( 0.000000000000000000, 0.000000000000000000, -68.96100000000001273 ) ) ;
#146 = ORIENTED_EDGE ( 'NONE', *, *, #391, .F. ) ;
#147 = CARTESIAN_POINT ( 'NONE',  ( -1.587500000000000355, -1.268411506570323866, 68.80991914209799631 ) ) ;
#148 = FACE_OUTER_BOUND ( 'NONE', #322, .T. ) ;
#149 = APPROVAL_DATE_TIME ( #242, #519 ) ;
#150 = EDGE_CURVE ( 'NONE', #318, #447, #239, .T. ) ;
#151 = DIRECTION ( 'NONE',  ( 1.000000000000000000, 0.000000000000000000, 0.000000000000000000 ) ) ;
#152 = PERSON_AND_ORGANIZATION ( #234, #96 ) ;
#153 = VERTEX_POINT ( 'NONE', #530 ) ;
#154 = DIRECTION ( 'NONE',  ( 0.000000000000000000, 0.000000000000000000, -1.000000000000000000 ) ) ;
#155 = DATE_TIME_ROLE ( 'creation_date' ) ;
#156 = ORIENTED_EDGE ( 'NONE', *, *, #84, .T. ) ;
#157 = AXIS2_PLACEMENT_3D ( 'NONE', #374, #340, #513 ) ;
#158 = CC_DESIGN_DATE_AND_TIME_ASSIGNMENT ( #456, #502, ( #252 ) ) ;
#159 = ADVANCED_FACE ( 'NONE', ( #231 ), #225, .F. ) ;
#160 = B_SPLINE_CURVE_WITH_KNOTS ( 'NONE', 3,
 ( #307, #351, #482, #344, #51, #93 ),
 .UNSPECIFIED., .F., .F.,
 ( 4, 2, 4 ),
 ( 1.905938025164286877E-19, 0.0006365870327257431042, 0.001273174065451485992 ),
 .UNSPECIFIED. ) ;
#161 = DIRECTION ( 'NONE',  ( 1.000000000000000000, 0.000000000000000000, 0.000000000000000000 ) ) ;
#162 = ORIENTED_EDGE ( 'NONE', *, *, #254, .F. ) ;
#163 = ADVANCED_FACE ( 'NONE', ( #47 ), #120, .T. ) ;
#164 = CARTESIAN_POINT ( 'NONE',  ( 1.587500000000000355, 0.2114796877013866427, 68.93322736169288589 ) ) ;
#165 = CARTESIAN_POINT ( 'NONE',  ( 0.000000000000000000, 0.000000000000000000, -68.80991914209799631 ) ) ;
#166 = CARTESIAN_POINT ( 'NONE',  ( 1.245064030267288402, 0.000000000000000000, -68.96100000000001273 ) ) ;
#167 = APPROVAL ( #21, 'UNSPECIFIED' ) ;
#168 = AXIS2_PLACEMENT_3D ( 'NONE', #292, #461, #105 ) ;
#169 = CARTESIAN_POINT ( 'NONE',  ( -1.060147506033614517, 1.587500000000000355, 68.86174669625518163 ) ) ;
#170 = CARTESIAN_POINT ( 'NONE',  ( 1.268411506570323866, 1.587500000000000355, -68.80991914209799631 ) ) ;
#171 = AXIS2_PLACEMENT_3D ( 'NONE', #560, #518, #302 ) ;
#172 = CARTESIAN_POINT ( 'NONE',  ( 1.587500000000000355, -0.4276219574846448768, -68.92699639200007766 ) ) ;
#173 = CARTESIAN_POINT ( 'NONE',  ( 1.587500000000000355, 1.268411506570323866, -68.80991914210505911 ) ) ;
#174 = CARTESIAN_POINT ( 'NONE',  ( -1.587500000000000577, -0.4277385810626531115, -68.92698654358314059 ) ) ;
#175 = AXIS2_PLACEMENT_3D ( 'NONE', #4, #444, #136 ) ;
#176 = CARTESIAN_POINT ( 'NONE',  ( -0.4342314039549393656, 1.587500000000000355, -68.93285171744315676 ) ) ;
#177 = DIRECTION ( 'NONE',  ( -0.000000000000000000, -0.000000000000000000, 1.000000000000000000 ) ) ;
#178 = ORIENTED_EDGE ( 'NONE', *, *, #78, .T. ) ;
#179 = APPROVAL_STATUS ( 'not_yet_approved' ) ;
#180 = CARTESIAN_POINT ( 'NONE',  ( -0.4342314039556040006, -1.587500000000000355, 68.93285171744315676 ) ) ;
#181 = ORIENTED_EDGE ( 'NONE', *, *, #36, .F. ) ;
#182 = CARTESIAN_POINT ( 'NONE',  ( 1.587500000000000133, -0.2143109880596208994, 68.93322736169287168 ) ) ;
#183 = ORIENTED_EDGE ( 'NONE', *, *, #428, .F. ) ;
#184 = EDGE_CURVE ( 'NONE', #325, #100, #347, .T. ) ;
#185 = CARTESIAN_POINT ( 'NONE',  ( 0.000000000000000000, 0.000000000000000000, -68.80991914209799631 ) ) ;
#186 = VERTEX_POINT ( 'NONE', #56 ) ;
#187 = B_SPLINE_CURVE_WITH_KNOTS ( 'NONE', 3,
 ( #383, #89, #512, #85, #258, #173 ),
 .UNSPECIFIED., .F., .F.,
 ( 4, 2, 4 ),
 ( 0.000000000000000000, 0.0006365870327252485996, 0.001273174065450496982 ),
 .UNSPECIFIED. ) ;
#188 = LINE ( 'NONE', #463, #303 ) ;
#189 = PERSON_AND_ORGANIZATION ( #234, #96 ) ;
#190 = EDGE_LOOP ( 'NONE', ( #398, #33, #266, #450 ) ) ;
#191 = CARTESIAN_POINT ( 'NONE',  ( -1.587500000000000355, 1.268411506570322533, 68.80991914209799631 ) ) ;
#192 = ORIENTED_EDGE ( 'NONE', *, *, #313, .T. ) ;
#193 = CARTESIAN_POINT ( 'NONE',  ( 1.587500000000000355, -1.268411506570322533, 68.80991914209799631 ) ) ;
#194 = CIRCLE ( 'NONE', #476, 2.032000000000000028 ) ;
#195 = LOCAL_TIME ( 15, 2, 24.00000000000000000, #363 ) ;
#196 = DIRECTION ( 'NONE',  ( 0.000000000000000000, 0.000000000000000000, -1.000000000000000000 ) ) ;
#197 = ADVANCED_FACE ( 'NONE', ( #478 ), #317, .T. ) ;
#198 = EDGE_LOOP ( 'NONE', ( #310, #7, #34, #527, #94, #283, #229, #377 ) ) ;
#199 = CYLINDRICAL_SURFACE ( 'NONE', #8, 2.032000000000000028 ) ;
#200 = B_SPLINE_CURVE_WITH_KNOTS ( 'NONE', 3,
 ( #228, #182, #6, #487, #277, #448 ),
 .UNSPECIFIED., .F., .F.,
 ( 4, 2, 4 ),
 ( 0.000000000000000000, 0.0006365870327257429958, 0.001273174065451485992 ),
 .UNSPECIFIED. ) ;
#201 = CALENDAR_DATE ( 2022, 6, 6 ) ;
#202 = EDGE_LOOP ( 'NONE', ( #364, #355, #308, #402 ) ) ;
#203 = CC_DESIGN_DATE_AND_TIME_ASSIGNMENT ( #372, #155, ( #261 ) ) ;
#204 = CARTESIAN_POINT ( 'NONE',  ( -1.245064030267288402, 1.524763679400337895E-16, -66.83600000000001273 ) ) ;
#205 = TOROIDAL_SURFACE ( 'NONE', #175, 1.245064030267288402, 2.125000000000001776 ) ;
#206 = VERTEX_POINT ( 'NONE', #314 ) ;
#207 = CARTESIAN_POINT ( 'NONE',  ( -0.4219230645622806808, -1.587500000000000577, -68.92730730355363278 ) ) ;
#208 = CARTESIAN_POINT ( 'NONE',  ( -1.587500000000000355, -0.4276219574846448768, 68.92699639200007766 ) ) ;
#209 = AXIS2_PLACEMENT_3D ( 'NONE', #80, #548, #426 ) ;
#210 = B_SPLINE_CURVE_WITH_KNOTS ( 'NONE', 3,
 ( #465, #517, #128, #131, #77, #300 ),
 .UNSPECIFIED., .F., .F.,
 ( 4, 2, 4 ),
 ( 0.01485345774306979540, 0.01548163471194336643, 0.01610981168081693574 ),
 .UNSPECIFIED. ) ;
#211 = DIRECTION ( 'NONE',  ( 0.000000000000000000, 0.000000000000000000, -1.000000000000000000 ) ) ;
#212 = CARTESIAN_POINT ( 'NONE',  ( 1.587500000000000355, -1.268411506570323866, -68.80991914209799631 ) ) ;
#213 = CARTESIAN_POINT ( 'NONE',  ( -1.268411506570323866, 1.587500000000000355, -68.80991914210505911 ) ) ;
#214 = DIRECTION ( 'NONE',  ( -0.000000000000000000, -0.000000000000000000, 1.000000000000000000 ) ) ;
#215 = VECTOR ( 'NONE', #143, 1000.000000000000000 ) ;
#216 = CARTESIAN_POINT ( 'NONE',  ( 1.587500000000000133, -1.061532360077853454, -68.86140206829360011 ) ) ;
#217 = DIRECTION ( 'NONE',  ( 0.000000000000000000, 0.000000000000000000, -1.000000000000000000 ) ) ;
#218 = EDGE_CURVE ( 'NONE', #445, #5, #29, .T. ) ;
#219 = CARTESIAN_POINT ( 'NONE',  ( -1.587500000000000355, 1.944126793646423534E-16, -68.93322736169287168 ) ) ;
#220 =( NAMED_UNIT ( * ) PLANE_ANGLE_UNIT ( ) SI_UNIT ( $, .RADIAN. ) );
#221 = CARTESIAN_POINT ( 'NONE',  ( 0.000000000000000000, 0.000000000000000000, -68.96100000000001273 ) ) ;
#222 = ORIENTED_EDGE ( 'NONE', *, *, #327, .F. ) ;
#223 = AXIS2_PLACEMENT_3D ( 'NONE', #64, #543, #241 ) ;
#224 = CARTESIAN_POINT ( 'NONE',  ( 0.000000000000000000, 0.000000000000000000, 0.000000000000000000 ) ) ;
#225 = PLANE ( 'NONE',  #330 ) ;
#226 = ORIENTED_EDGE ( 'NONE', *, *, #53, .F. ) ;
#227 = ADVANCED_FACE ( 'NONE', ( #524 ), #205, .T. ) ;
#228 = CARTESIAN_POINT ( 'NONE',  ( 1.587500000000000355, 0.000000000000000000, 68.93322736169287168 ) ) ;
#229 = ORIENTED_EDGE ( 'NONE', *, *, #403, .F. ) ;
#230 = B_SPLINE_CURVE_WITH_KNOTS ( 'NONE', 3,
 ( #386, #343, #174, #123, #510, #557 ),
 .UNSPECIFIED., .F., .F.,
 ( 4, 2, 4 ),
 ( 1.905938025164286877E-19, 0.0006365870327252485996, 0.001273174065450496982 ),
 .UNSPECIFIED. ) ;
#231 = FACE_OUTER_BOUND ( 'NONE', #202, .T. ) ;
#232 = EDGE_CURVE ( 'NONE', #549, #359, #160, .T. ) ;
#233 = VECTOR ( 'NONE', #140, 1000.000000000000000 ) ;
#234 = PERSON ( 'UNSPECIFIED', 'UNSPECIFIED', 'UNSPECIFIED', ('UNSPECIFIED'), ('UNSPECIFIED'), ('UNSPECIFIED') ) ;
#235 = CARTESIAN_POINT ( 'NONE',  ( -0.8571092511719576867, -1.587500000000000799, 68.91227379706279521 ) ) ;
#236 = APPROVAL_PERSON_ORGANIZATION ( #189, #58, #412 ) ;
#237 = ORIENTED_EDGE ( 'NONE', *, *, #60, .F. ) ;
#238 = FACE_OUTER_BOUND ( 'NONE', #190, .T. ) ;
#239 = B_SPLINE_CURVE_WITH_KNOTS ( 'NONE', 3,
 ( #436, #358, #306, #99, #273, #180, #235, #275 ),
 .UNSPECIFIED., .F., .F.,
 ( 4, 2, 2, 4 ),
 ( 0.01485345774306979540, 0.01548583974386945165, 0.01611822174466910965, 0.01738298574626842216 ),
 .UNSPECIFIED. ) ;
#240 = ORIENTED_EDGE ( 'NONE', *, *, #232, .T. ) ;
#241 = DIRECTION ( 'NONE',  ( 1.000000000000000000, 0.000000000000000000, 0.000000000000000000 ) ) ;
#242 = DATE_AND_TIME ( #201, #408 ) ;
#243 = AXIS2_PLACEMENT_3D ( 'NONE', #406, #247, #15 ) ;
#244 = DIRECTION ( 'NONE',  ( -0.000000000000000000, -0.000000000000000000, 1.000000000000000000 ) ) ;
#245 = PERSON_AND_ORGANIZATION ( #234, #96 ) ;
#246 = VERTEX_POINT ( 'NONE', #138 ) ;
#247 = DIRECTION ( 'NONE',  ( 0.000000000000000000, -1.000000000000000000, 0.000000000000000000 ) ) ;
#248 = CARTESIAN_POINT ( 'NONE',  ( 0.000000000000000000, 0.000000000000000000, 68.80991914209799631 ) ) ;
#249 = ORIENTED_EDGE ( 'NONE', *, *, #289, .F. ) ;
#250 = CIRCLE ( 'NONE', #439, 2.032000000000000028 ) ;
#251 = FACE_OUTER_BOUND ( 'NONE', #437, .T. ) ;
#252 = SECURITY_CLASSIFICATION ( '', '', #507 ) ;
#253 = CARTESIAN_POINT ( 'NONE',  ( -0.8486262390323798810, 1.587500000000000355, 68.89176882282394843 ) ) ;
#254 = EDGE_CURVE ( 'NONE', #71, #153, #561, .T. ) ;
#255 = CARTESIAN_POINT ( 'NONE',  ( -0.8486262390325453042, -1.587500000000000577, -68.89176882282394843 ) ) ;
#256 = DIRECTION ( 'NONE',  ( 1.000000000000000000, 0.000000000000000000, 0.000000000000000000 ) ) ;
#257 = CARTESIAN_POINT ( 'NONE',  ( -0.4219230645619455045, 1.587500000000000133, 68.92730730355363278 ) ) ;
#258 = CARTESIAN_POINT ( 'NONE',  ( 1.587500000000000355, 1.061392899156297309, -68.86143677385182116 ) ) ;
#259 = VECTOR ( 'NONE', #61, 1000.000000000000000 ) ;
#260 = CC_DESIGN_APPROVAL ( #519, ( #261 ) ) ;
#261 = PRODUCT_DEFINITION ( 'UNKNOWN', '', #133, #31 ) ;
#262 = CARTESIAN_POINT ( 'NONE',  ( 0.000000000000000000, 0.000000000000000000, 66.83600000000001273 ) ) ;
#263 = EDGE_CURVE ( 'NONE', #153, #447, #95, .T. ) ;
#264 = CARTESIAN_POINT ( 'NONE',  ( -0.8571092511711349005, 1.587500000000000355, -68.91227379706286627 ) ) ;
#265 = DIRECTION ( 'NONE',  ( 0.000000000000000000, -0.000000000000000000, -1.000000000000000000 ) ) ;
#266 = ORIENTED_EDGE ( 'NONE', *, *, #391, .T. ) ;
#267 = EDGE_CURVE ( 'NONE', #246, #390, #200, .T. ) ;
#268 =( NAMED_UNIT ( * ) SI_UNIT ( $, .STERADIAN. ) SOLID_ANGLE_UNIT ( ) );
#269 = DIRECTION ( 'NONE',  ( 1.000000000000000000, 0.000000000000000000, 0.000000000000000000 ) ) ;
#270 = ORIENTED_EDGE ( 'NONE', *, *, #289, .T. ) ;
#271 = DIRECTION ( 'NONE',  ( 0.000000000000000000, 0.000000000000000000, -1.000000000000000000 ) ) ;
#272 = CC_DESIGN_APPROVAL ( #58, ( #252 ) ) ;
#273 = CARTESIAN_POINT ( 'NONE',  ( 0.2043756380772881742, -1.587500000000000799, 68.93340961896380747 ) ) ;
#274 = EDGE_LOOP ( 'NONE', ( #503, #352, #287, #498 ) ) ;
#275 = CARTESIAN_POINT ( 'NONE',  ( -1.268411506570322533, -1.587500000000000355, 68.80991914209799631 ) ) ;
#276 = ORIENTED_EDGE ( 'NONE', *, *, #218, .T. ) ;
#277 = CARTESIAN_POINT ( 'NONE',  ( 1.587500000000000355, -1.061392899157111103, 68.86143677385169326 ) ) ;
#278 = EDGE_LOOP ( 'NONE', ( #52, #65, #534, #237, #480, #59, #293, #222 ) ) ;
#279 = CALENDAR_DATE ( 2022, 6, 6 ) ;
#280 = ORIENTED_EDGE ( 'NONE', *, *, #84, .F. ) ;
#281 = EDGE_CURVE ( 'NONE', #114, #453, #522, .T. ) ;
#282 = DIRECTION ( 'NONE',  ( -1.000000000000000000, 0.000000000000000000, 0.000000000000000000 ) ) ;
#283 = ORIENTED_EDGE ( 'NONE', *, *, #508, .F. ) ;
#284 = B_SPLINE_CURVE_WITH_KNOTS ( 'NONE', 3,
 ( #117, #294, #255, #207, #378, #376, #122, #550 ),
 .UNSPECIFIED., .F., .F.,
 ( 4, 2, 2, 4 ),
 ( 0.01485345774306979540, 0.01548583974386920532, 0.01611822174466861352, 0.01738298574626743337 ),
 .UNSPECIFIED. ) ;
#285 = DIRECTION ( 'NONE',  ( 0.000000000000000000, 0.000000000000000000, -1.000000000000000000 ) ) ;
#286 = COORDINATED_UNIVERSAL_TIME_OFFSET ( 6, 0, .BEHIND. ) ;
#287 = ORIENTED_EDGE ( 'NONE', *, *, #281, .F. ) ;
#288 = AXIS2_PLACEMENT_3D ( 'NONE', #290, #154, #331 ) ;
#289 = EDGE_CURVE ( 'NONE', #206, #359, #70, .T. ) ;
#290 = CARTESIAN_POINT ( 'NONE',  ( 0.000000000000000000, 0.000000000000000000, 68.80991914209799631 ) ) ;
#291 = PERSON_AND_ORGANIZATION ( #234, #96 ) ;
#292 = CARTESIAN_POINT ( 'NONE',  ( -1.587500000000000355, 1.587500000000000355, -68.96100000000001273 ) ) ;
#293 = ORIENTED_EDGE ( 'NONE', *, *, #101, .F. ) ;
#294 = CARTESIAN_POINT ( 'NONE',  ( -1.060147506033695786, -1.587500000000000133, -68.86174669625516742 ) ) ;
#295 = CARTESIAN_POINT ( 'NONE',  ( -1.587500000000000133, -1.061532360077853454, 68.86140206829360011 ) ) ;
#296 = DIRECTION ( 'NONE',  ( -1.000000000000000000, 1.224646799147353207E-16, 0.000000000000000000 ) ) ;
#297 = AXIS2_PLACEMENT_3D ( 'NONE', #104, #455, #73 ) ;
#298 = CARTESIAN_POINT ( 'NONE',  ( -1.587500000000000577, -0.8514389605504931735, 68.89136751577920847 ) ) ;
#299 = CARTESIAN_POINT ( 'NONE',  ( 1.245064030267288402, 0.000000000000000000, 68.96100000000001273 ) ) ;
#300 = CARTESIAN_POINT ( 'NONE',  ( -1.587500000000000355, 1.944126793646423534E-16, -68.93322736169287168 ) ) ;
#301 = ADVANCED_FACE ( 'NONE', ( #238 ), #199, .T. ) ;
#302 = DIRECTION ( 'NONE',  ( 0.000000000000000000, 0.000000000000000000, 1.000000000000000000 ) ) ;
#303 = VECTOR ( 'NONE', #451, 1000.000000000000000 ) ;
#304 = PERSON_AND_ORGANIZATION ( #234, #96 ) ;
#305 = EDGE_CURVE ( 'NONE', #318, #445, #188, .T. ) ;
#306 = CARTESIAN_POINT ( 'NONE',  ( 0.8486262390323798810, -1.587500000000000355, 68.89176882282394843 ) ) ;
#307 = CARTESIAN_POINT ( 'NONE',  ( -1.587500000000000355, -1.944126793646423534E-16, 68.93322736169287168 ) ) ;
#308 = ORIENTED_EDGE ( 'NONE', *, *, #305, .F. ) ;
#309 = CARTESIAN_POINT ( 'NONE',  ( 1.587500000000000355, 1.268411506570323866, -68.96100000000001273 ) ) ;
#310 = ORIENTED_EDGE ( 'NONE', *, *, #14, .F. ) ;
#311 = CIRCLE ( 'NONE', #223, 2.032000000000000028 ) ;
#312 = ADVANCED_BREP_SHAPE_REPRESENTATION ( '228-2500-262', ( #537, #505 ), #339 ) ;
#313 = EDGE_CURVE ( 'NONE', #92, #413, #362, .T. ) ;
#314 = CARTESIAN_POINT ( 'NONE',  ( -1.587500000000000355, 1.268411506570323866, -68.80991914209799631 ) ) ;
#315 = ORIENTED_EDGE ( 'NONE', *, *, #341, .T. ) ;
#316 = ADVANCED_FACE ( 'NONE', ( #410 ), #492, .T. ) ;
#317 = CYLINDRICAL_SURFACE ( 'NONE', #132, 2.032000000000000028 ) ;
#318 = VERTEX_POINT ( 'NONE', #25 ) ;
#319 = EDGE_CURVE ( 'NONE', #370, #71, #17, .T. ) ;
#320 = CARTESIAN_POINT ( 'NONE',  ( 1.587500000000000355, 1.268411506570323866, 68.80991914209799631 ) ) ;
#321 = APPROVAL_DATE_TIME ( #68, #58 ) ;
#322 = EDGE_LOOP ( 'NONE', ( #276, #457, #491, #405 ) ) ;
#323 = CIRCLE ( 'NONE', #243, 2.125000000000001776 ) ;
#324 = CARTESIAN_POINT ( 'NONE',  ( 1.268411506570323866, 1.587500000000000355, -68.96100000000001273 ) ) ;
#325 = VERTEX_POINT ( 'NONE', #320 ) ;
#326 = CARTESIAN_POINT ( 'NONE',  ( 0.000000000000000000, 0.000000000000000000, -68.96100000000001273 ) ) ;
#327 = EDGE_CURVE ( 'NONE', #525, #462, #323, .T. ) ;
#328 = LINE ( 'NONE', #371, #460 ) ;
#329 = CALENDAR_DATE ( 2022, 6, 6 ) ;
#330 = AXIS2_PLACEMENT_3D ( 'NONE', #394, #11, #400 ) ;
#331 = DIRECTION ( 'NONE',  ( -1.000000000000000000, 0.000000000000000000, 0.000000000000000000 ) ) ;
#332 = DATE_AND_TIME ( #329, #357 ) ;
#333 = ORIENTED_EDGE ( 'NONE', *, *, #98, .T. ) ;
#334 = CARTESIAN_POINT ( 'NONE',  ( 1.587500000000000355, -1.587500000000000355, 68.96100000000001273 ) ) ;
#335 = DIRECTION ( 'NONE',  ( -0.000000000000000000, -0.000000000000000000, 1.000000000000000000 ) ) ;
#336 = DIRECTION ( 'NONE',  ( -0.000000000000000000, -0.000000000000000000, 1.000000000000000000 ) ) ;
#337 = AXIS2_PLACEMENT_3D ( 'NONE', #446, #2, #526 ) ;
#338 = CARTESIAN_POINT ( 'NONE',  ( -1.587500000000000355, -0.2114796877013866427, 68.93322736169288589 ) ) ;
#339 =( GEOMETRIC_REPRESENTATION_CONTEXT ( 3 ) GLOBAL_UNCERTAINTY_ASSIGNED_CONTEXT ( ( #538 ) ) GLOBAL_UNIT_ASSIGNED_CONTEXT ( ( #477, #220, #268 ) ) REPRESENTATION_CONTEXT ( 'NONE', 'WORKASPACE' ) );
#340 = DIRECTION ( 'NONE',  ( -0.000000000000000000, -0.000000000000000000, 1.000000000000000000 ) ) ;
#341 = EDGE_CURVE ( 'NONE', #413, #325, #552, .T. ) ;
#342 = CARTESIAN_POINT ( 'NONE',  ( 1.587500000000000355, -0.2114796877013866427, -68.93322736169288589 ) ) ;
#343 = CARTESIAN_POINT ( 'NONE',  ( -1.587500000000000133, -0.2143109880594543937, -68.93322736169285747 ) ) ;
#344 = CARTESIAN_POINT ( 'NONE',  ( -1.587500000000000355, 0.8513200635100124369, 68.89137755531811536 ) ) ;
#345 = CIRCLE ( 'NONE', #297, 1.245064030267288402 ) ;
#346 = APPLICATION_PROTOCOL_DEFINITION ( 'international standard', 'config_control_design', 1994, #349 ) ;
#347 = LINE ( 'NONE', #309, #215 ) ;
#348 = ORIENTED_EDGE ( 'NONE', *, *, #126, .T. ) ;
#349 = APPLICATION_CONTEXT ( 'configuration controlled 3d designs of mechanical parts and assemblies' ) ;
#350 = CARTESIAN_POINT ( 'NONE',  ( -1.268411506570323866, 1.587500000000000355, -68.80991914210505911 ) ) ;
#351 = CARTESIAN_POINT ( 'NONE',  ( -1.587500000000000133, 0.2143109880596207883, 68.93322736169287168 ) ) ;
#352 = ORIENTED_EDGE ( 'NONE', *, *, #555, .T. ) ;
#353 = DIRECTION ( 'NONE',  ( -0.000000000000000000, -0.000000000000000000, 1.000000000000000000 ) ) ;
#354 = AXIS2_PLACEMENT_3D ( 'NONE', #334, #118, #127 ) ;
#355 = ORIENTED_EDGE ( 'NONE', *, *, #535, .T. ) ;
#356 = EDGE_CURVE ( 'NONE', #525, #186, #345, .T. ) ;
#357 = LOCAL_TIME ( 15, 2, 24.00000000000000000, #541 ) ;
#358 = CARTESIAN_POINT ( 'NONE',  ( 1.060147506033614517, -1.587500000000000355, 68.86174669625518163 ) ) ;
#359 = VERTEX_POINT ( 'NONE', #191 ) ;
#360 = CC_DESIGN_PERSON_AND_ORGANIZATION_ASSIGNMENT ( #74, #115, ( #133 ) ) ;
#361 = ADVANCED_FACE ( 'NONE', ( #536 ), #506, .F. ) ;
#362 = LINE ( 'NONE', #324, #49 ) ;
#363 = COORDINATED_UNIVERSAL_TIME_OFFSET ( 6, 0, .BEHIND. ) ;
#364 = ORIENTED_EDGE ( 'NONE', *, *, #263, .F. ) ;
#365 = CARTESIAN_POINT ( 'NONE',  ( -1.587500000000000355, 1.268411506570323866, -68.96100000000001273 ) ) ;
#366 = ORIENTED_EDGE ( 'NONE', *, *, #281, .T. ) ;
#367 = DIRECTION ( 'NONE',  ( -1.000000000000000000, 0.000000000000000000, 0.000000000000000000 ) ) ;
#368 = CARTESIAN_POINT ( 'NONE',  ( -1.268411506570323866, 1.587500000000000355, -68.96100000000001273 ) ) ;
#369 = PERSON_AND_ORGANIZATION ( #234, #96 ) ;
#370 = VERTEX_POINT ( 'NONE', #147 ) ;
#371 = CARTESIAN_POINT ( 'NONE',  ( 1.587500000000000355, -1.268411506570323866, -68.96100000000001273 ) ) ;
#372 = DATE_AND_TIME ( #26, #545 ) ;
#373 = AXIS2_PLACEMENT_3D ( 'NONE', #433, #43, #269 ) ;
#374 = CARTESIAN_POINT ( 'NONE',  ( 0.000000000000000000, 0.000000000000000000, -68.96100000000001273 ) ) ;
#375 = APPROVAL_PERSON_ORGANIZATION ( #3, #519, #443 ) ;
#376 = CARTESIAN_POINT ( 'NONE',  ( 0.4342314039549393656, -1.587500000000000355, -68.93285171744315676 ) ) ;
#377 = ORIENTED_EDGE ( 'NONE', *, *, #232, .F. ) ;
#378 = CARTESIAN_POINT ( 'NONE',  ( -0.2043756380777075055, -1.587500000000000133, -68.93340961896379326 ) ) ;
#379 = CARTESIAN_POINT ( 'NONE',  ( 1.587500000000000355, 0.000000000000000000, -68.93322736169287168 ) ) ;
#380 = CARTESIAN_POINT ( 'NONE',  ( -1.587500000000000355, -1.268411506570323866, -68.80991914210505911 ) ) ;
#381 = EDGE_CURVE ( 'NONE', #100, #92, #311, .T. ) ;
#382 = CYLINDRICAL_SURFACE ( 'NONE', #157, 2.032000000000000028 ) ;
#383 = CARTESIAN_POINT ( 'NONE',  ( 1.587500000000000355, 0.000000000000000000, -68.93322736169287168 ) ) ;
#384 = CIRCLE ( 'NONE', #373, 1.245064030267288402 ) ;
#385 = CARTESIAN_POINT ( 'NONE',  ( 0.2043756380777075055, 1.587500000000000133, -68.93340961896379326 ) ) ;
#386 = CARTESIAN_POINT ( 'NONE',  ( -1.587500000000000355, 1.944126793646423534E-16, -68.93322736169287168 ) ) ;
#387 = DIRECTION ( 'NONE',  ( 1.000000000000000000, 0.000000000000000000, 0.000000000000000000 ) ) ;
#388 = FACE_OUTER_BOUND ( 'NONE', #274, .T. ) ;
#389 = AXIS2_PLACEMENT_3D ( 'NONE', #248, #196, #282 ) ;
#390 = VERTEX_POINT ( 'NONE', #193 ) ;
#391 = EDGE_CURVE ( 'NONE', #447, #370, #250, .T. ) ;
#392 = CARTESIAN_POINT ( 'NONE',  ( -1.245064030267288402, -2.006622987633879023E-16, 68.96100000000001273 ) ) ;
#393 = ADVANCED_FACE ( 'NONE', ( #148 ), #415, .T. ) ;
#394 = CARTESIAN_POINT ( 'NONE',  ( -1.587500000000000355, -1.587500000000000355, 68.96100000000001273 ) ) ;
#395 = ORIENTED_EDGE ( 'NONE', *, *, #218, .F. ) ;
#396 = CARTESIAN_POINT ( 'NONE',  ( 0.000000000000000000, 0.000000000000000000, -68.80991914209799631 ) ) ;
#397 = CC_DESIGN_PERSON_AND_ORGANIZATION_ASSIGNMENT ( #304, #90, ( #24 ) ) ;
#398 = ORIENTED_EDGE ( 'NONE', *, *, #254, .T. ) ;
#399 = EDGE_CURVE ( 'NONE', #5, #390, #328, .T. ) ;
#400 = DIRECTION ( 'NONE',  ( 0.000000000000000000, -0.000000000000000000, 1.000000000000000000 ) ) ;
#401 = PERSON_AND_ORGANIZATION_ROLE ( 'classification_officer' ) ;
#402 = ORIENTED_EDGE ( 'NONE', *, *, #150, .T. ) ;
#403 = EDGE_CURVE ( 'NONE', #359, #114, #41, .T. ) ;
#404 = DIRECTION ( 'NONE',  ( -0.000000000000000000, -0.000000000000000000, 1.000000000000000000 ) ) ;
#405 = ORIENTED_EDGE ( 'NONE', *, *, #305, .T. ) ;
#406 = CARTESIAN_POINT ( 'NONE',  ( 1.245064030267288402, 0.000000000000000000, -66.83600000000001273 ) ) ;
#407 = B_SPLINE_CURVE_WITH_KNOTS ( 'NONE', 3,
 ( #516, #169, #253, #257, #30, #424, #431, #37 ),
 .UNSPECIFIED., .F., .F.,
 ( 4, 2, 2, 4 ),
 ( 0.01485345774306979540, 0.01548583974386945165, 0.01611822174466910965, 0.01738298574626842216 ),
 .UNSPECIFIED. ) ;
#408 = LOCAL_TIME ( 15, 2, 24.00000000000000000, #417 ) ;
#409 = ADVANCED_FACE ( 'NONE', ( #427 ), #553, .F. ) ;
#410 = FACE_OUTER_BOUND ( 'NONE', #141, .T. ) ;
#411 = CC_DESIGN_SECURITY_CLASSIFICATION ( #252, ( #133 ) ) ;
#412 = APPROVAL_ROLE ( '' ) ;
#413 = VERTEX_POINT ( 'NONE', #86 ) ;
#414 = AXIS2_PLACEMENT_3D ( 'NONE', #165, #336, #475 ) ;
#415 = CYLINDRICAL_SURFACE ( 'NONE', #528, 2.032000000000000028 ) ;
#416 = PRODUCT_DEFINITION_SHAPE ( 'NONE', 'NONE',  #261 ) ;
#417 = COORDINATED_UNIVERSAL_TIME_OFFSET ( 6, 0, .BEHIND. ) ;
#418 = EDGE_LOOP ( 'NONE', ( #423, #270, #459, #366 ) ) ;
#419 = ORIENTED_EDGE ( 'NONE', *, *, #442, .T. ) ;
#420 = CC_DESIGN_PERSON_AND_ORGANIZATION_ASSIGNMENT ( #152, #533, ( #133 ) ) ;
#421 = CIRCLE ( 'NONE', #121, 2.125000000000001776 ) ;
#422 = FACE_OUTER_BOUND ( 'NONE', #418, .T. ) ;
#423 = ORIENTED_EDGE ( 'NONE', *, *, #60, .T. ) ;
#424 = CARTESIAN_POINT ( 'NONE',  ( 0.4342314039556040006, 1.587500000000000355, 68.93285171744315676 ) ) ;
#425 = AXIS2_PLACEMENT_3D ( 'NONE', #262, #429, #256 ) ;
#426 = DIRECTION ( 'NONE',  ( 1.000000000000000000, 1.224646799147353207E-16, 0.000000000000000000 ) ) ;
#427 = FACE_OUTER_BOUND ( 'NONE', #48, .T. ) ;
#428 = EDGE_CURVE ( 'NONE', #5, #462, #466, .T. ) ;
#429 = DIRECTION ( 'NONE',  ( 0.000000000000000000, 0.000000000000000000, -1.000000000000000000 ) ) ;
#430 = AXIS2_PLACEMENT_3D ( 'NONE', #27, #335, #76 ) ;
#431 = CARTESIAN_POINT ( 'NONE',  ( 0.8571092511719576867, 1.587500000000000799, 68.91227379706279521 ) ) ;
#432 = CARTESIAN_POINT ( 'NONE',  ( -1.268411506570323866, 1.587500000000000355, 68.80991914209799631 ) ) ;
#433 = CARTESIAN_POINT ( 'NONE',  ( 0.000000000000000000, 0.000000000000000000, -68.96100000000001273 ) ) ;
#434 = B_SPLINE_CURVE_WITH_KNOTS ( 'NONE', 3,
 ( #81, #435, #523, #50, #385, #176, #264, #350 ),
 .UNSPECIFIED., .F., .F.,
 ( 4, 2, 2, 4 ),
 ( 0.01485345774306979540, 0.01548583974386920532, 0.01611822174466861352, 0.01738298574626743337 ),
 .UNSPECIFIED. ) ;
#435 = CARTESIAN_POINT ( 'NONE',  ( 1.060147506033695786, 1.587500000000000133, -68.86174669625516742 ) ) ;
#436 = CARTESIAN_POINT ( 'NONE',  ( 1.268411506570323866, -1.587500000000000355, 68.80991914209799631 ) ) ;
#437 = EDGE_LOOP ( 'NONE', ( #531, #156 ) ) ;
#438 = B_SPLINE_CURVE_WITH_KNOTS ( 'NONE', 3,
 ( #551, #295, #298, #208, #338, #46 ),
 .UNSPECIFIED., .F., .F.,
 ( 4, 2, 4 ),
 ( 0.01485345774306979540, 0.01548163471194336643, 0.01610981168081693574 ),
 .UNSPECIFIED. ) ;
#439 = AXIS2_PLACEMENT_3D ( 'NONE', #19, #67, #367 ) ;
#440 = ORIENTED_EDGE ( 'NONE', *, *, #101, .T. ) ;
#441 = AXIS2_PLACEMENT_3D ( 'NONE', #130, #211, #161 ) ;
#442 = EDGE_CURVE ( 'NONE', #325, #246, #1, .T. ) ;
#443 = APPROVAL_ROLE ( '' ) ;
#444 = DIRECTION ( 'NONE',  ( -0.000000000000000000, -0.000000000000000000, 1.000000000000000000 ) ) ;
#445 = VERTEX_POINT ( 'NONE', #83 ) ;
#446 = CARTESIAN_POINT ( 'NONE',  ( 0.000000000000000000, 0.000000000000000000, -66.83600000000001273 ) ) ;
#447 = VERTEX_POINT ( 'NONE', #509 ) ;
#448 = CARTESIAN_POINT ( 'NONE',  ( 1.587500000000000355, -1.268411506570322533, 68.80991914209799631 ) ) ;
#449 = AXIS2_PLACEMENT_3D ( 'NONE', #396, #177, #9 ) ;
#450 = ORIENTED_EDGE ( 'NONE', *, *, #319, .T. ) ;
#451 = DIRECTION ( 'NONE',  ( 0.000000000000000000, 0.000000000000000000, -1.000000000000000000 ) ) ;
#452 = PERSON_AND_ORGANIZATION_ROLE ( 'creator' ) ;
#453 = VERTEX_POINT ( 'NONE', #213 ) ;
#454 = CLOSED_SHELL ( 'NONE', ( #44, #163, #361, #159, #409, #129, #227, #515, #316, #20, #301, #393, #197, #479 ) ) ;
#455 = DIRECTION ( 'NONE',  ( -0.000000000000000000, -0.000000000000000000, 1.000000000000000000 ) ) ;
#456 = DATE_AND_TIME ( #107, #495 ) ;
#457 = ORIENTED_EDGE ( 'NONE', *, *, #399, .T. ) ;
#458 = CARTESIAN_POINT ( 'NONE',  ( -1.587500000000000355, -1.587500000000000355, 68.96100000000001273 ) ) ;
#459 = ORIENTED_EDGE ( 'NONE', *, *, #403, .T. ) ;
#460 = VECTOR ( 'NONE', #111, 1000.000000000000000 ) ;
#461 = DIRECTION ( 'NONE',  ( 0.000000000000000000, 0.000000000000000000, -1.000000000000000000 ) ) ;
#462 = VERTEX_POINT ( 'NONE', #379 ) ;
#463 = CARTESIAN_POINT ( 'NONE',  ( 1.268411506570323866, -1.587500000000000355, -68.96100000000001273 ) ) ;
#464 = CARTESIAN_POINT ( 'NONE',  ( 1.587500000000000133, 1.061532360077853454, 68.86140206829360011 ) ) ;
#465 = CARTESIAN_POINT ( 'NONE',  ( -1.587500000000000355, 1.268411506570323866, -68.80991914209799631 ) ) ;
#466 = B_SPLINE_CURVE_WITH_KNOTS ( 'NONE', 3,
 ( #474, #216, #42, #172, #342, #468 ),
 .UNSPECIFIED., .F., .F.,
 ( 4, 2, 4 ),
 ( 0.01485345774306979540, 0.01548163471194336643, 0.01610981168081693574 ),
 .UNSPECIFIED. ) ;
#467 = AXIS2_PLACEMENT_3D ( 'NONE', #458, #539, #540 ) ;
#468 = CARTESIAN_POINT ( 'NONE',  ( 1.587500000000000355, 0.000000000000000000, -68.93322736169287168 ) ) ;
#469 = CARTESIAN_POINT ( 'NONE',  ( -1.587500000000000355, -1.944126793646423534E-16, 68.93322736169287168 ) ) ;
#470 = PLANE ( 'NONE',  #35 ) ;
#471 = EDGE_CURVE ( 'NONE', #544, #144, #112, .T. ) ;
#472 = CARTESIAN_POINT ( 'NONE',  ( 1.587500000000000355, 1.268411506570323866, 68.80991914209799631 ) ) ;
#473 = CARTESIAN_POINT ( 'NONE',  ( 1.587500000000000355, 1.268411506570323866, -68.80991914210505911 ) ) ;
#474 = CARTESIAN_POINT ( 'NONE',  ( 1.587500000000000355, -1.268411506570323866, -68.80991914209799631 ) ) ;
#475 = DIRECTION ( 'NONE',  ( 1.000000000000000000, 0.000000000000000000, 0.000000000000000000 ) ) ;
#476 = AXIS2_PLACEMENT_3D ( 'NONE', #45, #271, #559 ) ;
#477 =( LENGTH_UNIT ( ) NAMED_UNIT ( * ) SI_UNIT ( .MILLI., .METRE. ) );
#478 = FACE_OUTER_BOUND ( 'NONE', #494, .T. ) ;
#479 = ADVANCED_FACE ( 'NONE', ( #422 ), #382, .T. ) ;
#480 = ORIENTED_EDGE ( 'NONE', *, *, #555, .F. ) ;
#481 = MECHANICAL_CONTEXT ( 'NONE', #349, 'mechanical' ) ;
#482 = CARTESIAN_POINT ( 'NONE',  ( -1.587500000000000577, 0.4277385810629850682, 68.92698654358312638 ) ) ;
#483 = ORIENTED_EDGE ( 'NONE', *, *, #327, .T. ) ;
#484 = APPLICATION_PROTOCOL_DEFINITION ( 'international standard', 'config_control_design', 1994, #32 ) ;
#485 = DIRECTION ( 'NONE',  ( 1.000000000000000000, 0.000000000000000000, 0.000000000000000000 ) ) ;
#486 = VECTOR ( 'NONE', #285, 1000.000000000000000 ) ;
#487 = CARTESIAN_POINT ( 'NONE',  ( 1.587500000000000355, -0.8513200635100123259, 68.89137755531811536 ) ) ;
#488 = ORIENTED_EDGE ( 'NONE', *, *, #78, .F. ) ;
#489 = CIRCLE ( 'NONE', #72, 1.245064030267288402 ) ;
#490 = DIRECTION ( 'NONE',  ( -0.000000000000000000, -0.000000000000000000, 1.000000000000000000 ) ) ;
#491 = ORIENTED_EDGE ( 'NONE', *, *, #558, .T. ) ;
#492 = PLANE ( 'NONE',  #168 ) ;
#493 = SHAPE_DEFINITION_REPRESENTATION ( #416, #312 ) ;
#494 = EDGE_LOOP ( 'NONE', ( #108, #192, #315, #10 ) ) ;
#495 = LOCAL_TIME ( 15, 2, 24.00000000000000000, #286 ) ;
#496 = DIRECTION ( 'NONE',  ( 0.000000000000000000, 0.000000000000000000, -1.000000000000000000 ) ) ;
#497 = COORDINATED_UNIVERSAL_TIME_OFFSET ( 6, 0, .BEHIND. ) ;
#498 = ORIENTED_EDGE ( 'NONE', *, *, #508, .T. ) ;
#499 = CARTESIAN_POINT ( 'NONE',  ( -1.587500000000000355, -1.268411506570323866, -68.96100000000001273 ) ) ;
#500 = ORIENTED_EDGE ( 'NONE', *, *, #399, .F. ) ;
#501 = DIRECTION ( 'NONE',  ( -0.000000000000000000, -0.000000000000000000, 1.000000000000000000 ) ) ;
#502 = DATE_TIME_ROLE ( 'classification_date' ) ;
#503 = ORIENTED_EDGE ( 'NONE', *, *, #313, .F. ) ;
#504 = EDGE_CURVE ( 'NONE', #186, #75, #421, .T. ) ;
#505 = AXIS2_PLACEMENT_3D ( 'NONE', #224, #521, #387 ) ;
#506 = PLANE ( 'NONE',  #467 ) ;
#507 = SECURITY_CLASSIFICATION_LEVEL ( 'unclassified' ) ;
#508 = EDGE_CURVE ( 'NONE', #114, #413, #407, .T. ) ;
#509 = CARTESIAN_POINT ( 'NONE',  ( -1.268411506570322533, -1.587500000000000355, 68.80991914209799631 ) ) ;
#510 = CARTESIAN_POINT ( 'NONE',  ( -1.587500000000000355, -1.061392899156297753, -68.86143677385182116 ) ) ;
#511 = CARTESIAN_POINT ( 'NONE',  ( 1.587500000000000577, 0.8514389605504931735, 68.89136751577920847 ) ) ;
#512 = CARTESIAN_POINT ( 'NONE',  ( 1.587500000000000577, 0.4277385810626528340, -68.92698654358314059 ) ) ;
#513 = DIRECTION ( 'NONE',  ( 1.000000000000000000, 0.000000000000000000, 0.000000000000000000 ) ) ;
#514 = FACE_OUTER_BOUND ( 'NONE', #529, .T. ) ;
#515 = ADVANCED_FACE ( 'NONE', ( #546 ), #87, .T. ) ;
#516 = CARTESIAN_POINT ( 'NONE',  ( -1.268411506570323866, 1.587500000000000355, 68.80991914209799631 ) ) ;
#517 = CARTESIAN_POINT ( 'NONE',  ( -1.587500000000000133, 1.061532360077853454, -68.86140206829360011 ) ) ;
#518 = DIRECTION ( 'NONE',  ( -0.000000000000000000, 1.000000000000000000, 0.000000000000000000 ) ) ;
#519 = APPROVAL ( #179, 'UNSPECIFIED' ) ;
#520 = VECTOR ( 'NONE', #496, 1000.000000000000000 ) ;
#521 = DIRECTION ( 'NONE',  ( 0.000000000000000000, 0.000000000000000000, 1.000000000000000000 ) ) ;
#522 = LINE ( 'NONE', #368, #520 ) ;
#523 = CARTESIAN_POINT ( 'NONE',  ( 0.8486262390325453042, 1.587500000000000577, -68.89176882282394843 ) ) ;
#524 = FACE_OUTER_BOUND ( 'NONE', #16, .T. ) ;
#525 = VERTEX_POINT ( 'NONE', #166 ) ;
#526 = DIRECTION ( 'NONE',  ( 1.000000000000000000, 0.000000000000000000, 0.000000000000000000 ) ) ;
#527 = ORIENTED_EDGE ( 'NONE', *, *, #442, .F. ) ;
#528 = AXIS2_PLACEMENT_3D ( 'NONE', #326, #244, #151 ) ;
#529 = EDGE_LOOP ( 'NONE', ( #280, #139, #181, #146, #103, #97, #542, #226 ) ) ;
#530 = CARTESIAN_POINT ( 'NONE',  ( -1.268411506570323866, -1.587500000000000355, -68.80991914209799631 ) ) ;
#531 = ORIENTED_EDGE ( 'NONE', *, *, #471, .T. ) ;
#532 = CC_DESIGN_PERSON_AND_ORGANIZATION_ASSIGNMENT ( #369, #452, ( #261 ) ) ;
#533 = PERSON_AND_ORGANIZATION_ROLE ( 'design_supplier' ) ;
#534 = ORIENTED_EDGE ( 'NONE', *, *, #98, .F. ) ;
#535 = EDGE_CURVE ( 'NONE', #153, #445, #284, .T. ) ;
#536 = FACE_OUTER_BOUND ( 'NONE', #137, .T. ) ;
#537 = MANIFOLD_SOLID_BREP ( '228-2500-262', #454 ) ;
#538 = UNCERTAINTY_MEASURE_WITH_UNIT (LENGTH_MEASURE( 1.000000000000000082E-05 ), #477, 'distance_accuracy_value', 'NONE');
#539 = DIRECTION ( 'NONE',  ( 1.000000000000000000, 0.000000000000000000, 0.000000000000000000 ) ) ;
#540 = DIRECTION ( 'NONE',  ( 0.000000000000000000, 0.000000000000000000, -1.000000000000000000 ) ) ;
#541 = COORDINATED_UNIVERSAL_TIME_OFFSET ( 6, 0, .BEHIND. ) ;
#542 = ORIENTED_EDGE ( 'NONE', *, *, #267, .F. ) ;
#543 = DIRECTION ( 'NONE',  ( -0.000000000000000000, -0.000000000000000000, 1.000000000000000000 ) ) ;
#544 = VERTEX_POINT ( 'NONE', #299 ) ;
#545 = LOCAL_TIME ( 15, 2, 24.00000000000000000, #497 ) ;
#546 = FACE_OUTER_BOUND ( 'NONE', #198, .T. ) ;
#547 = ORIENTED_EDGE ( 'NONE', *, *, #319, .F. ) ;
#548 = DIRECTION ( 'NONE',  ( 1.224646799147353207E-16, -1.000000000000000000, 0.000000000000000000 ) ) ;
#549 = VERTEX_POINT ( 'NONE', #469 ) ;
#550 = CARTESIAN_POINT ( 'NONE',  ( 1.268411506570323866, -1.587500000000000355, -68.80991914210505911 ) ) ;
#551 = CARTESIAN_POINT ( 'NONE',  ( -1.587500000000000355, -1.268411506570323866, 68.80991914209799631 ) ) ;
#552 = CIRCLE ( 'NONE', #389, 2.032000000000000028 ) ;
#553 = PLANE ( 'NONE',  #354 ) ;
#554 = DIRECTION ( 'NONE',  ( 1.000000000000000000, 0.000000000000000000, 0.000000000000000000 ) ) ;
#555 = EDGE_CURVE ( 'NONE', #92, #453, #434, .T. ) ;
#556 = DIRECTION ( 'NONE',  ( 1.224646799147353207E-16, 1.000000000000000000, 0.000000000000000000 ) ) ;
#557 = CARTESIAN_POINT ( 'NONE',  ( -1.587500000000000355, -1.268411506570323866, -68.80991914210505911 ) ) ;
#558 = EDGE_CURVE ( 'NONE', #390, #318, #194, .T. ) ;
#559 = DIRECTION ( 'NONE',  ( -1.000000000000000000, 0.000000000000000000, 0.000000000000000000 ) ) ;
#560 = CARTESIAN_POINT ( 'NONE',  ( 1.245064030267288402, 0.000000000000000000, 66.83600000000001273 ) ) ;
#561 = CIRCLE ( 'NONE', #40, 2.032000000000000028 ) ;
ENDSEC;
END-ISO-10303-21;
