ISO-10303-21;
HEADER;
FILE_DESCRIPTION (( 'STEP AP214' ),
    '1' );
FILE_NAME ('228-2500-448.STEP',
    '2022-06-13T18:37:06',
    ( '' ),
    ( '' ),
    'SwSTEP 2.0',
    'SolidWorks 2021',
    '' );
FILE_SCHEMA (( 'AUTOMOTIVE_DESIGN' ));
ENDSEC;

DATA;
#1 = EDGE_LOOP ( 'NONE', ( #426, #293, #356, #571 ) ) ;
#2 =( NAMED_UNIT ( * ) PLANE_ANGLE_UNIT ( ) SI_UNIT ( $, .RADIAN. ) );
#3 = FACE_BOUND ( 'NONE', #1151, .T. ) ;
#4 = DIRECTION ( 'NONE',  ( 1.000000000000000000, 0.000000000000000000, 0.000000000000000000 ) ) ;
#5 = CARTESIAN_POINT ( 'NONE',  ( 1.749999999999999334, 4.850000000000000533, -2.286000000000000032 ) ) ;
#6 = CARTESIAN_POINT ( 'NONE',  ( -0.1021126760563414587, -2.239436619718307764, 1.119718309859154326 ) ) ;
#7 = ADVANCED_FACE ( 'NONE', ( #190 ), #62, .T. ) ;
#8 = PRODUCT_DEFINITION_CONTEXT ( 'detailed design', #932, 'design' ) ;
#9 = ADVANCED_FACE ( 'NONE', ( #659 ), #137, .T. ) ;
#10 = PRESENTATION_STYLE_ASSIGNMENT (( #842 ) ) ;
#11 = ORIENTED_EDGE ( 'NONE', *, *, #657, .F. ) ;
#12 = DIRECTION ( 'NONE',  ( -0.000000000000000000, 1.000000000000000000, 0.000000000000000000 ) ) ;
#13 = DIRECTION ( 'NONE',  ( 0.000000000000000000, 0.000000000000000000, 1.000000000000000000 ) ) ;
#14 = MECHANICAL_DESIGN_GEOMETRIC_PRESENTATION_REPRESENTATION (  '', ( #685 ), #450 ) ;
#15 = CARTESIAN_POINT ( 'NONE',  ( 0.5999436111853565512, 7.475966002236344110, -0.1568219647242036774 ) ) ;
#16 = AXIS2_PLACEMENT_3D ( 'NONE', #533, #632, #87 ) ;
#17 = VERTEX_POINT ( 'NONE', #211 ) ;
#18 = CIRCLE ( 'NONE', #263, 0.7500000000000000000 ) ;
#19 = EDGE_LOOP ( 'NONE', ( #1075, #1129, #1104, #800 ) ) ;
#20 = STYLED_ITEM ( 'NONE', ( #10 ), #1092 ) ;
#21 = CARTESIAN_POINT ( 'NONE',  ( 0.2687352311006459549, -3.349207041552663355, 1.674603520776331900 ) ) ;
#22 = DIRECTION ( 'NONE',  ( 0.000000000000000000, 0.000000000000000000, -1.000000000000000000 ) ) ;
#23 = ORIENTED_EDGE ( 'NONE', *, *, #657, .T. ) ;
#24 = ADVANCED_FACE ( 'NONE', ( #646 ), #1004, .F. ) ;
#25 = LINE ( 'NONE', #925, #604 ) ;
#26 =( LENGTH_UNIT ( ) NAMED_UNIT ( * ) SI_UNIT ( .MILLI., .METRE. ) );
#27 = CARTESIAN_POINT ( 'NONE',  ( -1.750000000000000666, 4.850000000000000533, -2.286000000000000032 ) ) ;
#28 = DIRECTION ( 'NONE',  ( 0.000000000000000000, 0.000000000000000000, -1.000000000000000000 ) ) ;
#29 = DIRECTION ( 'NONE',  ( 1.000000000000000000, 0.000000000000000000, 0.000000000000000000 ) ) ;
#30 = VERTEX_POINT ( 'NONE', #367 ) ;
#31 = CYLINDRICAL_SURFACE ( 'NONE', #1118, 0.5999999999999999778 ) ;
#32 = CARTESIAN_POINT ( 'NONE',  ( -4.000000000000000000, 0.000000000000000000, 2.286000000000000032 ) ) ;
#33 = VECTOR ( 'NONE', #302, 1000.000000000000000 ) ;
#34 = FACE_OUTER_BOUND ( 'NONE', #298, .T. ) ;
#35 = VERTEX_POINT ( 'NONE', #909 ) ;
#36 = CIRCLE ( 'NONE', #712, 0.9499999999999723110 ) ;
#37 = EDGE_CURVE ( 'NONE', #336, #563, #474, .T. ) ;
#38 = ORIENTED_EDGE ( 'NONE', *, *, #642, .T. ) ;
#39 = MECHANICAL_DESIGN_GEOMETRIC_PRESENTATION_REPRESENTATION (  '', ( #977 ), #282 ) ;
#40 = DIRECTION ( 'NONE',  ( -0.000000000000000000, -1.000000000000000000, -0.000000000000000000 ) ) ;
#41 =( NAMED_UNIT ( * ) SI_UNIT ( $, .STERADIAN. ) SOLID_ANGLE_UNIT ( ) );
#42 = DIRECTION ( 'NONE',  ( 0.000000000000000000, 0.000000000000000000, 1.000000000000000000 ) ) ;
#43 = DIRECTION ( 'NONE',  ( 0.000000000000000000, 0.000000000000000000, 1.000000000000000000 ) ) ;
#44 = FILL_AREA_STYLE_COLOUR ( '', #884 ) ;
#45 = ORIENTED_EDGE ( 'NONE', *, *, #341, .F. ) ;
#46 = CARTESIAN_POINT ( 'NONE',  ( 4.595750661335919044E-13, 7.500000000000333955, 0.6000000000041715298 ) ) ;
#47 =( NAMED_UNIT ( * ) PLANE_ANGLE_UNIT ( ) SI_UNIT ( $, .RADIAN. ) );
#48 = CARTESIAN_POINT ( 'NONE',  ( 0.5000000000000004441, 0.000000000000000000, 0.9499999999999999556 ) ) ;
#49 = CARTESIAN_POINT ( 'NONE',  ( 4.000000000000003553, 0.000000000000000000, 0.000000000000000000 ) ) ;
#50 = ORIENTED_EDGE ( 'NONE', *, *, #1099, .T. ) ;
#51 = CARTESIAN_POINT ( 'NONE',  ( 0.2687352311006460659, -1.561910215925068817E-16, -1.275396479223668056 ) ) ;
#52 = DIRECTION ( 'NONE',  ( 0.000000000000000000, 0.000000000000000000, -1.000000000000000000 ) ) ;
#53 = CARTESIAN_POINT ( 'NONE',  ( 4.199999999999995737, 0.000000000000000000, 0.9499999999999999556 ) ) ;
#54 = CIRCLE ( 'NONE', #163, 0.5999999999999999778 ) ;
#55 = EDGE_LOOP ( 'NONE', ( #807, #1135, #973, #327 ) ) ;
#56 = VECTOR ( 'NONE', #1084, 1000.000000000000000 ) ;
#57 = CIRCLE ( 'NONE', #607, 7.500000000000000000 ) ;
#58 =( LENGTH_UNIT ( ) NAMED_UNIT ( * ) SI_UNIT ( .MILLI., .METRE. ) );
#59 = SURFACE_STYLE_USAGE ( .BOTH. , #146 ) ;
#60 = ORIENTED_EDGE ( 'NONE', *, *, #225, .T. ) ;
#61 = EDGE_CURVE ( 'NONE', #136, #90, #396, .T. ) ;
#62 =( BOUNDED_SURFACE ( )  B_SPLINE_SURFACE ( 3, 3, ( 
 ( #291, #476, #99, #387 ),
 ( #482, #921, #746, #996 ),
 ( #1108, #6, #929, #459 ),
 ( #550, #128, #105, #935 ) ),
 .UNSPECIFIED., .F., .F., .T. ) 
 B_SPLINE_SURFACE_WITH_KNOTS ( ( 4, 4 ),
 ( 4, 4 ),
 ( 0.000000000000000000, 1.000000000000000000 ),
 ( 0.000000000000000000, 1.000000000000000000 ),
 .UNSPECIFIED. ) 
 GEOMETRIC_REPRESENTATION_ITEM ( )  RATIONAL_B_SPLINE_SURFACE ( (
 ( 1.000000000000000000, 0.3333333333333334259, 0.3333333333333334259, 1.000000000000000000),
 ( 0.8160919540229875091, 0.2720306513409959104, 0.2720306513409959104, 0.8160919540229875091),
 ( 0.8160919540229875091, 0.2720306513409959104, 0.2720306513409959104, 0.8160919540229875091),
 ( 1.000000000000000000, 0.3333333333333334259, 0.3333333333333334259, 1.000000000000000000) ) ) 
 REPRESENTATION_ITEM ( '' )  SURFACE ( )  );
#63 = DIRECTION ( 'NONE',  ( 1.445602896647339163E-16, -1.000000000000000000, 0.000000000000000000 ) ) ;
#64 = DIRECTION ( 'NONE',  ( -0.000000000000000000, -0.000000000000000000, -1.000000000000000000 ) ) ;
#65 = EDGE_LOOP ( 'NONE', ( #531, #1087 ) ) ;
#66 = PRODUCT_DEFINITION ( 'UNKNOWN', '', #861, #1017 ) ;
#67 = PRODUCT_DEFINITION_SHAPE ( 'NONE', 'NONE',  #1121 ) ;
#68 = DIRECTION ( 'NONE',  ( -1.000000000000000000, -0.000000000000000000, -0.000000000000000000 ) ) ;
#69 = EDGE_LOOP ( 'NONE', ( #742, #331, #859, #668 ) ) ;
#70 = EDGE_CURVE ( 'NONE', #205, #360, #500, .T. ) ;
#71 = VECTOR ( 'NONE', #574, 1000.000000000000000 ) ;
#72 = AXIS2_PLACEMENT_3D ( 'NONE', #863, #393, #672 ) ;
#73 = CLOSED_SHELL ( 'NONE', ( #826, #281, #1045, #1149 ) ) ;
#74 = CARTESIAN_POINT ( 'NONE',  ( -1.750000000000000666, 4.850000000000000533, -2.286000000000000032 ) ) ;
#75 = EDGE_LOOP ( 'NONE', ( #865, #11, #626, #771 ) ) ;
#76 = EDGE_CURVE ( 'NONE', #421, #1065, #18, .T. ) ;
#77 = PRODUCT ( '228-2500-ROPE-OVERMOLD-MASTER Rev1_228-3201-ROPE-OVERMOLD-MASTER', '228-2500-ROPE-OVERMOLD-MASTER Rev1_228-3201-ROPE-OVERMOLD-MASTER', '', ( #592 ) ) ;
#78 = CARTESIAN_POINT ( 'NONE',  ( -752.5500000000000682, 0.000000000000000000, 0.000000000000000000 ) ) ;
#79 = CARTESIAN_POINT ( 'NONE',  ( 1.749999999999999112, 3.350000000000000089, -2.286000000000000032 ) ) ;
#80 = ORIENTED_EDGE ( 'NONE', *, *, #570, .F. ) ;
#81 = UNCERTAINTY_MEASURE_WITH_UNIT (LENGTH_MEASURE( 1.000000000000000082E-05 ), #598, 'distance_accuracy_value', 'NONE');
#82 = CARTESIAN_POINT ( 'NONE',  ( 0.2500000000000002220, 9.184850993605149670E-17, 0.7500000000000000000 ) ) ;
#83 = ITEM_DEFINED_TRANSFORMATION ( 'NONE', 'NONE', #292,  #700 ) ;
#84 = CARTESIAN_POINT ( 'NONE',  ( -0.1021126760563413477, 3.260563380281691348, 1.630281690140844564 ) ) ;
#85 = MANIFOLD_SOLID_BREP ( 'Cut-Extrude2', #470 ) ;
#86 = EDGE_LOOP ( 'NONE', ( #879, #957, #454, #490 ) ) ;
#87 = DIRECTION ( 'NONE',  ( 1.000000000000000000, 0.000000000000000000, 0.000000000000000000 ) ) ;
#88 = CYLINDRICAL_SURFACE ( 'NONE', #1076, 2.000000000000000000 ) ;
#89 = LINE ( 'NONE', #161, #471 ) ;
#90 = VERTEX_POINT ( 'NONE', #695 ) ;
#91 = UNCERTAINTY_MEASURE_WITH_UNIT (LENGTH_MEASURE( 1.000000000000000082E-05 ), #1133, 'distance_accuracy_value', 'NONE');
#92 =( LENGTH_UNIT ( ) NAMED_UNIT ( * ) SI_UNIT ( .MILLI., .METRE. ) );
#93 = CARTESIAN_POINT ( 'NONE',  ( 0.5000000000000920375, -1.163414459190065062E-16, -0.9500000000000650147 ) ) ;
#94 = CARTESIAN_POINT ( 'NONE',  ( 2.999999999999864109, 5.907708476162261770E-14, 8.950628149161543590 ) ) ;
#95 = PRODUCT_DEFINITION_SHAPE ( 'NONE', 'NONE',  #1175 ) ;
#96 = EDGE_CURVE ( 'NONE', #339, #930, #582, .T. ) ;
#97 = CARTESIAN_POINT ( 'NONE',  ( 2.999999999999864109, 6.017322057294549609E-14, -6.162975822039154730E-30 ) ) ;
#98 = EDGE_CURVE ( 'NONE', #1051, #537, #328, .T. ) ;
#99 = CARTESIAN_POINT ( 'NONE',  ( 0.2499999999999988343, -4.000000000000001776, -2.000000000000000888 ) ) ;
#100 = AXIS2_PLACEMENT_3D ( 'NONE', #297, #388, #213 ) ;
#101 = CARTESIAN_POINT ( 'NONE',  ( -1.750000000000000444, 3.350000000000000089, -2.286000000000000032 ) ) ;
#102 = PRODUCT_RELATED_PRODUCT_CATEGORY ( 'part', '', ( #720 ) ) ;
#103 = DIRECTION ( 'NONE',  ( 1.000000000000000000, -0.000000000000000000, -0.000000000000000000 ) ) ;
#104 = DIRECTION ( 'NONE',  ( 0.000000000000000000, 0.000000000000000000, 1.000000000000000000 ) ) ;
#105 = CARTESIAN_POINT ( 'NONE',  ( 0.2499999999999987232, -1.499999999999996669, -0.7499999999999980016 ) ) ;
#106 = ORIENTED_EDGE ( 'NONE', *, *, #908, .T. ) ;
#107 = APPLICATION_CONTEXT ( 'automotive_design' ) ;
#108 = FACE_OUTER_BOUND ( 'NONE', #497, .T. ) ;
#109 = MANIFOLD_SOLID_BREP ( 'Boss-Extrude1', #73 ) ;
#110 = DIRECTION ( 'NONE',  ( 1.000000000000000000, 0.000000000000000000, 0.000000000000000000 ) ) ;
#111 = STYLED_ITEM ( 'NONE', ( #1028 ), #487 ) ;
#112 = VECTOR ( 'NONE', #872, 1000.000000000000000 ) ;
#113 = ORIENTED_EDGE ( 'NONE', *, *, #96, .T. ) ;
#114 = DIRECTION ( 'NONE',  ( 1.000000000000000000, 0.000000000000000000, 0.000000000000000000 ) ) ;
#115 = ORIENTED_EDGE ( 'NONE', *, *, #363, .F. ) ;
#116 = CIRCLE ( 'NONE', #526, 0.9062499999999998890 ) ;
#117 = DIRECTION ( 'NONE',  ( 1.000000000000000000, 4.876213336336211057E-15, 5.192639793547426971E-15 ) ) ;
#118 = EDGE_CURVE ( 'NONE', #778, #446, #412, .T. ) ;
#119 = DIRECTION ( 'NONE',  ( 0.000000000000000000, 0.000000000000000000, 1.000000000000000000 ) ) ;
#120 = LINE ( 'NONE', #27, #601 ) ;
#121 = CARTESIAN_POINT ( 'NONE',  ( -4.000000000000000000, 0.000000000000000000, 2.286000000000000032 ) ) ;
#122 =( NAMED_UNIT ( * ) SI_UNIT ( $, .STERADIAN. ) SOLID_ANGLE_UNIT ( ) );
#123 = ORIENTED_EDGE ( 'NONE', *, *, #1126, .F. ) ;
#124 = FACE_OUTER_BOUND ( 'NONE', #69, .T. ) ;
#125 = STYLED_ITEM ( 'NONE', ( #773 ), #288 ) ;
#126 =( NAMED_UNIT ( * ) SI_UNIT ( $, .STERADIAN. ) SOLID_ANGLE_UNIT ( ) );
#127 = PLANE ( 'NONE',  #492 ) ;
#128 = CARTESIAN_POINT ( 'NONE',  ( 0.2499999999999987232, -1.499999999999996447, 0.7499999999999986677 ) ) ;
#129 = ORIENTED_EDGE ( 'NONE', *, *, #240, .T. ) ;
#130 = DIRECTION ( 'NONE',  ( -0.000000000000000000, 0.000000000000000000, 1.000000000000000000 ) ) ;
#131 = CARTESIAN_POINT ( 'NONE',  ( 0.000000000000000000, 0.000000000000000000, -2.286000000000000032 ) ) ;
#132 = CIRCLE ( 'NONE', #430, 9.900628149161503799 ) ;
#133 =( NAMED_UNIT ( * ) PLANE_ANGLE_UNIT ( ) SI_UNIT ( $, .RADIAN. ) );
#134 = AXIS2_PLACEMENT_3D ( 'NONE', #1049, #763, #593 ) ;
#135 =( LENGTH_UNIT ( ) NAMED_UNIT ( * ) SI_UNIT ( .MILLI., .METRE. ) );
#136 = VERTEX_POINT ( 'NONE', #155 ) ;
#137 = TOROIDAL_SURFACE ( 'NONE', #1042, -8.950628149161543590, 9.900628149161503799 ) ;
#138 = CARTESIAN_POINT ( 'NONE',  ( -0.6001257961074478731, 7.475951380581674854, -0.1579542193057874300 ) ) ;
#139 = ADVANCED_FACE ( 'NONE', ( #1141 ), #1047, .F. ) ;
#140 = EDGE_CURVE ( 'NONE', #1123, #875, #873, .T. ) ;
#141 = ORIENTED_EDGE ( 'NONE', *, *, #811, .F. ) ;
#142 = CARTESIAN_POINT ( 'NONE',  ( 4.000000000000000000, 6.344288770224760121, -2.286000000000000032 ) ) ;
#143 = AXIS2_PLACEMENT_3D ( 'NONE', #845, #862, #1035 ) ;
#144 = CARTESIAN_POINT ( 'NONE',  ( 4.000000000000003553, 0.000000000000000000, 0.000000000000000000 ) ) ;
#145 = CARTESIAN_POINT ( 'NONE',  ( -752.5500000000000682, 0.000000000000000000, 0.000000000000000000 ) ) ;
#146 = SURFACE_SIDE_STYLE ('',( #1050 ) ) ;
#147 = EDGE_LOOP ( 'NONE', ( #696, #1055, #203, #162 ) ) ;
#148 = SURFACE_STYLE_USAGE ( .BOTH. , #506 ) ;
#149 = PRESENTATION_STYLE_ASSIGNMENT (( #494 ) ) ;
#150 = ORIENTED_EDGE ( 'NONE', *, *, #76, .F. ) ;
#151 = VECTOR ( 'NONE', #262, 1000.000000000000000 ) ;
#152 = CARTESIAN_POINT ( 'NONE',  ( 0.5000000000000918154, -2.449293598294627035E-16, -1.999999999999934941 ) ) ;
#153 = VECTOR ( 'NONE', #405, 1000.000000000000000 ) ;
#154 =( BOUNDED_SURFACE ( )  B_SPLINE_SURFACE ( 3, 3, ( 
 ( #152, #999, #362, #369 ),
 ( #905, #1089, #784, #346 ),
 ( #442, #261, #910, #623 ),
 ( #93, #979, #192, #170 ) ),
 .UNSPECIFIED., .F., .F., .F. ) 
 B_SPLINE_SURFACE_WITH_KNOTS ( ( 4, 4 ),
 ( 4, 4 ),
 ( 0.000000000000000000, 1.000000000000000000 ),
 ( 0.000000000000000000, 1.000000000000000000 ),
 .UNSPECIFIED. ) 
 GEOMETRIC_REPRESENTATION_ITEM ( )  RATIONAL_B_SPLINE_SURFACE ( (
 ( 1.000000000000000000, 0.3333333333333334259, 0.3333333333333334259, 1.000000000000000000),
 ( 0.8767380420913336581, 0.2922460140304446452, 0.2922460140304446452, 0.8767380420913336581),
 ( 0.8767380420913336581, 0.2922460140304446452, 0.2922460140304446452, 0.8767380420913336581),
 ( 1.000000000000000000, 0.3333333333333334259, 0.3333333333333334259, 1.000000000000000000) ) ) 
 REPRESENTATION_ITEM ( '' )  SURFACE ( )  );
#155 = CARTESIAN_POINT ( 'NONE',  ( 2.100000000000000089, 2.571758278209441957E-16, 2.286000000000000032 ) ) ;
#156 = EDGE_LOOP ( 'NONE', ( #721, #620, #173, #675 ) ) ;
#157 =( NAMED_UNIT ( * ) SI_UNIT ( $, .STERADIAN. ) SOLID_ANGLE_UNIT ( ) );
#158 = DIRECTION ( 'NONE',  ( -0.000000000000000000, -0.000000000000000000, 1.000000000000000000 ) ) ;
#159 = ADVANCED_FACE ( 'NONE', ( #674 ), #1030, .T. ) ;
#160 = EDGE_LOOP ( 'NONE', ( #439, #1103, #1052, #748 ) ) ;
#161 = CARTESIAN_POINT ( 'NONE',  ( 752.5500000000000682, 0.000000000000000000, 0.5999999999999999778 ) ) ;
#162 = ORIENTED_EDGE ( 'NONE', *, *, #729, .T. ) ;
#163 = AXIS2_PLACEMENT_3D ( 'NONE', #475, #658, #22 ) ;
#164 = VECTOR ( 'NONE', #286, 1000.000000000000000 ) ;
#165 = DIRECTION ( 'NONE',  ( -1.000000000000000000, 0.000000000000000000, 0.000000000000000000 ) ) ;
#166 = DIRECTION ( 'NONE',  ( 1.000000000000000000, 0.000000000000000000, -0.000000000000000000 ) ) ;
#167 = MECHANICAL_DESIGN_GEOMETRIC_PRESENTATION_REPRESENTATION (  '', ( #20 ), #342 ) ;
#168 = CARTESIAN_POINT ( 'NONE',  ( 0.000000000000000000, 7.500000000000000000, 0.000000000000000000 ) ) ;
#169 = ORIENTED_EDGE ( 'NONE', *, *, #831, .T. ) ;
#170 = CARTESIAN_POINT ( 'NONE',  ( 0.5000000000000920375, 2.326828918380130123E-16, 0.9500000000000650147 ) ) ;
#171 = DIRECTION ( 'NONE',  ( 0.000000000000000000, 0.000000000000000000, -1.000000000000000000 ) ) ;
#172 = CARTESIAN_POINT ( 'NONE',  ( -1.750000000000000444, 3.350000000000000089, 2.286000000000000032 ) ) ;
#173 = ORIENTED_EDGE ( 'NONE', *, *, #391, .T. ) ;
#174 = UNCERTAINTY_MEASURE_WITH_UNIT (LENGTH_MEASURE( 1.000000000000000082E-05 ), #58, 'distance_accuracy_value', 'NONE');
#175 = PLANE ( 'NONE',  #326 ) ;
#176 = LINE ( 'NONE', #1171, #352 ) ;
#177 = SHAPE_DEFINITION_REPRESENTATION ( #252, #179 ) ;
#178 = CARTESIAN_POINT ( 'NONE',  ( -0.1021126760563413477, 3.260563380281690016, -1.630281690140846562 ) ) ;
#179 = SHAPE_REPRESENTATION ( '228-2500-448-01 Rev1_228-2500-448-01', ( #700 ), #1032 ) ;
#180 = VERTEX_POINT ( 'NONE', #900 ) ;
#181 = EDGE_CURVE ( 'NONE', #558, #419, #877, .T. ) ;
#182 =( NAMED_UNIT ( * ) PLANE_ANGLE_UNIT ( ) SI_UNIT ( $, .RADIAN. ) );
#183 = DIRECTION ( 'NONE',  ( 0.000000000000000000, 0.000000000000000000, 1.000000000000000000 ) ) ;
#184 = ADVANCED_FACE ( 'NONE', ( #343 ), #438, .F. ) ;
#185 = CIRCLE ( 'NONE', #1068, 4.000000000000000000 ) ;
#186 = EDGE_CURVE ( 'NONE', #35, #795, #1119, .T. ) ;
#187 = CARTESIAN_POINT ( 'NONE',  ( 0.2500000000000002220, 0.000000000000000000, 2.000000000000000000 ) ) ;
#188 = VECTOR ( 'NONE', #687, 1000.000000000000000 ) ;
#189 = DIRECTION ( 'NONE',  ( 0.000000000000000000, 0.000000000000000000, 1.000000000000000000 ) ) ;
#190 = FACE_OUTER_BOUND ( 'NONE', #407, .T. ) ;
#191 = PRODUCT_DEFINITION_CONTEXT ( 'detailed design', #834, 'design' ) ;
#192 = CARTESIAN_POINT ( 'NONE',  ( 0.5000000000000920375, 1.900000000000130029, 0.9500000000000646816 ) ) ;
#193 = CARTESIAN_POINT ( 'NONE',  ( 0.2500000000000002220, 0.000000000000000000, 0.000000000000000000 ) ) ;
#194 = PRODUCT_DEFINITION_SHAPE ( 'NONE', 'NONE',  #1176 ) ;
#195 = CARTESIAN_POINT ( 'NONE',  ( 1.238690775967998814, 0.000000000000000000, 1.475000000000000089 ) ) ;
#196 = EDGE_CURVE ( 'NONE', #360, #558, #266, .T. ) ;
#197 = DIRECTION ( 'NONE',  ( 0.000000000000000000, 0.000000000000000000, 1.000000000000000000 ) ) ;
#198 =( LENGTH_UNIT ( ) NAMED_UNIT ( * ) SI_UNIT ( .MILLI., .METRE. ) );
#199 = VERTEX_POINT ( 'NONE', #529 ) ;
#200 = LINE ( 'NONE', #743, #774 ) ;
#201 = CONTEXT_DEPENDENT_SHAPE_REPRESENTATION ( #1041, #465 ) ;
#202 = DIRECTION ( 'NONE',  ( -0.000000000000000000, -0.000000000000000000, -1.000000000000000000 ) ) ;
#203 = ORIENTED_EDGE ( 'NONE', *, *, #270, .F. ) ;
#204 = EDGE_CURVE ( 'NONE', #654, #848, #89, .T. ) ;
#205 = VERTEX_POINT ( 'NONE', #79 ) ;
#206 = DIRECTION ( 'NONE',  ( 0.000000000000000000, -1.224646799147352961E-16, -1.000000000000000000 ) ) ;
#207 = AXIS2_PLACEMENT_3D ( 'NONE', #918, #635, #993 ) ;
#208 = CARTESIAN_POINT ( 'NONE',  ( 4.000000000000003553, 0.000000000000000000, -0.7500000000000000000 ) ) ;
#209 = AXIS2_PLACEMENT_3D ( 'NONE', #193, #731, #1090 ) ;
#210 = APPLICATION_CONTEXT ( 'automotive_design' ) ;
#211 = CARTESIAN_POINT ( 'NONE',  ( -4.000000000000000000, 6.344288770224760121, 2.286000000000000032 ) ) ;
#212 = VECTOR ( 'NONE', #158, 1000.000000000000000 ) ;
#213 = DIRECTION ( 'NONE',  ( -1.000000000000000000, 0.000000000000000000, 0.000000000000000000 ) ) ;
#214 = EDGE_LOOP ( 'NONE', ( #1157, #754, #713, #988 ) ) ;
#215 = CARTESIAN_POINT ( 'NONE',  ( 0.5000000000000004441, 1.163414459189985682E-16, -0.9499999999999999556 ) ) ;
#216 = CARTESIAN_POINT ( 'NONE',  ( 4.000000000000000000, 0.000000000000000000, 2.286000000000000032 ) ) ;
#217 = ORIENTED_EDGE ( 'NONE', *, *, #1023, .T. ) ;
#218 = ORIENTED_EDGE ( 'NONE', *, *, #397, .F. ) ;
#219 = FACE_BOUND ( 'NONE', #485, .T. ) ;
#220 = DIRECTION ( 'NONE',  ( 0.000000000000000000, 5.551115123125782702E-17, -1.000000000000000222 ) ) ;
#221 = DIRECTION ( 'NONE',  ( 0.000000000000000000, -1.000000000000000000, 0.000000000000000000 ) ) ;
#222 = ORIENTED_EDGE ( 'NONE', *, *, #363, .T. ) ;
#223 = FACE_OUTER_BOUND ( 'NONE', #306, .T. ) ;
#224 = ADVANCED_FACE ( 'NONE', ( #521 ), #233, .T. ) ;
#225 = EDGE_CURVE ( 'NONE', #828, #446, #638, .T. ) ;
#226 = DIRECTION ( 'NONE',  ( 0.000000000000000000, 0.000000000000000000, -1.000000000000000000 ) ) ;
#227 = CARTESIAN_POINT ( 'NONE',  ( 0.2500000000000002220, 0.000000000000000000, 0.000000000000000000 ) ) ;
#228 = EDGE_LOOP ( 'NONE', ( #788, #113, #524, #835 ) ) ;
#229 = CARTESIAN_POINT ( 'NONE',  ( 0.5000000000000920375, -1.900000000000130029, -0.9500000000000650147 ) ) ;
#230 = AXIS2_PLACEMENT_3D ( 'NONE', #786, #781, #602 ) ;
#231 = AXIS2_PLACEMENT_3D ( 'NONE', #78, #451, #171 ) ;
#232 = APPLICATION_PROTOCOL_DEFINITION ( 'draft international standard', 'automotive_design', 1998, #1159 ) ;
#233 =( BOUNDED_SURFACE ( )  B_SPLINE_SURFACE ( 3, 3, ( 
 ( #1064, #523, #1167, #894 ),
 ( #452, #178, #84, #348 ),
 ( #614, #698, #888, #711 ),
 ( #882, #251, #619, #258 ) ),
 .UNSPECIFIED., .F., .F., .F. ) 
 B_SPLINE_SURFACE_WITH_KNOTS ( ( 4, 4 ),
 ( 4, 4 ),
 ( 0.000000000000000000, 1.000000000000000000 ),
 ( 0.000000000000000000, 1.000000000000000000 ),
 .UNSPECIFIED. ) 
 GEOMETRIC_REPRESENTATION_ITEM ( )  RATIONAL_B_SPLINE_SURFACE ( (
 ( 1.000000000000000000, 0.3333333333333334259, 0.3333333333333334259, 1.000000000000000000),
 ( 0.8160919540229875091, 0.2720306513409959104, 0.2720306513409959104, 0.8160919540229875091),
 ( 0.8160919540229875091, 0.2720306513409959104, 0.2720306513409959104, 0.8160919540229875091),
 ( 1.000000000000000000, 0.3333333333333334259, 0.3333333333333334259, 1.000000000000000000) ) ) 
 REPRESENTATION_ITEM ( '' )  SURFACE ( )  );
#234 = DIRECTION ( 'NONE',  ( -1.000000000000000000, -0.000000000000000000, 0.000000000000000000 ) ) ;
#235 = APPLICATION_CONTEXT ( 'automotive_design' ) ;
#236 = CARTESIAN_POINT ( 'NONE',  ( 4.000000000000003553, 6.017322057294549609E-14, 0.8993686908363700550 ) ) ;
#237 = DIRECTION ( 'NONE',  ( 1.000000000000000000, 0.000000000000000000, 0.000000000000000000 ) ) ;
#238 = VERTEX_POINT ( 'NONE', #610 ) ;
#239 =( GEOMETRIC_REPRESENTATION_CONTEXT ( 3 ) GLOBAL_UNCERTAINTY_ASSIGNED_CONTEXT ( ( #81 ) ) GLOBAL_UNIT_ASSIGNED_CONTEXT ( ( #598, #182, #317 ) ) REPRESENTATION_CONTEXT ( 'NONE', 'WORKASPACE' ) );
#240 = EDGE_CURVE ( 'NONE', #1051, #1095, #880, .T. ) ;
#241 = CARTESIAN_POINT ( 'NONE',  ( 4.199999999999995737, 0.000000000000000000, 0.000000000000000000 ) ) ;
#242 = DIRECTION ( 'NONE',  ( -0.000000000000000000, -1.000000000000000000, -0.000000000000000000 ) ) ;
#243 = ADVANCED_FACE ( 'NONE', ( #1072 ), #355, .T. ) ;
#244 = ORIENTED_EDGE ( 'NONE', *, *, #1023, .F. ) ;
#245 = FACE_BOUND ( 'NONE', #1122, .T. ) ;
#246 = EDGE_LOOP ( 'NONE', ( #630, #734, #222, #413 ) ) ;
#247 = CIRCLE ( 'NONE', #963, 2.000000000000000000 ) ;
#248 = AXIS2_PLACEMENT_3D ( 'NONE', #305, #666, #197 ) ;
#249 = EDGE_CURVE ( 'NONE', #349, #205, #1155, .T. ) ;
#250 = SURFACE_STYLE_FILL_AREA ( #702 ) ;
#251 = CARTESIAN_POINT ( 'NONE',  ( 0.2499999999999987232, 1.499999999999996003, -0.7499999999999987788 ) ) ;
#252 = PRODUCT_DEFINITION_SHAPE ( 'NONE', 'NONE',  #903 ) ;
#253 = VERTEX_POINT ( 'NONE', #172 ) ;
#254 = SURFACE_STYLE_USAGE ( .BOTH. , #1059 ) ;
#255 = DIRECTION ( 'NONE',  ( -0.000000000000000000, -1.000000000000000000, -0.000000000000000000 ) ) ;
#256 = ORIENTED_EDGE ( 'NONE', *, *, #984, .T. ) ;
#257 = CARTESIAN_POINT ( 'NONE',  ( -0.2000000000000057288, 0.000000000000000000, 0.000000000000000000 ) ) ;
#258 = CARTESIAN_POINT ( 'NONE',  ( 0.2499999999999986955, 2.921172371206530670E-16, 0.7499999999999983347 ) ) ;
#259 = ORIENTED_EDGE ( 'NONE', *, *, #1057, .F. ) ;
#260 = VECTOR ( 'NONE', #509, 1000.000000000000000 ) ;
#261 = CARTESIAN_POINT ( 'NONE',  ( 0.2687352311006460659, 2.550792958447335668, -1.275396479223668278 ) ) ;
#262 = DIRECTION ( 'NONE',  ( 1.000000000000000000, 0.000000000000000000, 0.000000000000000000 ) ) ;
#263 = AXIS2_PLACEMENT_3D ( 'NONE', #49, #782, #764 ) ;
#264 = DIRECTION ( 'NONE',  ( 0.000000000000000000, 0.000000000000000000, -1.000000000000000000 ) ) ;
#265 = AXIS2_PLACEMENT_3D ( 'NONE', #257, #166, #710 ) ;
#266 = LINE ( 'NONE', #705, #324 ) ;
#267 = ORIENTED_EDGE ( 'NONE', *, *, #1158, .F. ) ;
#268 = FACE_OUTER_BOUND ( 'NONE', #943, .T. ) ;
#269 = LINE ( 'NONE', #986, #1140 ) ;
#270 = EDGE_CURVE ( 'NONE', #383, #1123, #703, .T. ) ;
#271 = CARTESIAN_POINT ( 'NONE',  ( 752.5500000000000682, 0.000000000000000000, 0.000000000000000000 ) ) ;
#272 = EDGE_LOOP ( 'NONE', ( #978, #612 ) ) ;
#273 = DIRECTION ( 'NONE',  ( 1.000000000000000000, 0.000000000000000000, -0.000000000000000000 ) ) ;
#274 = LINE ( 'NONE', #534, #403 ) ;
#275 = DIRECTION ( 'NONE',  ( -1.000000000000000000, 0.000000000000000000, 0.000000000000000000 ) ) ;
#276 = ORIENTED_EDGE ( 'NONE', *, *, #896, .T. ) ;
#277 = LINE ( 'NONE', #640, #473 ) ;
#278 = CIRCLE ( 'NONE', #1170, 0.7500000000000000000 ) ;
#279 = CARTESIAN_POINT ( 'NONE',  ( 0.2500000000000002220, 0.000000000000000000, 0.000000000000000000 ) ) ;
#280 = APPLICATION_PROTOCOL_DEFINITION ( 'draft international standard', 'automotive_design', 1998, #608 ) ;
#281 = ADVANCED_FACE ( 'NONE', ( #719 ), #1160, .T. ) ;
#282 =( GEOMETRIC_REPRESENTATION_CONTEXT ( 3 ) GLOBAL_UNCERTAINTY_ASSIGNED_CONTEXT ( ( #1088 ) ) GLOBAL_UNIT_ASSIGNED_CONTEXT ( ( #1128, #511, #787 ) ) REPRESENTATION_CONTEXT ( 'NONE', 'WORKASPACE' ) );
#283 = DIRECTION ( 'NONE',  ( 1.000000000000000000, 0.000000000000000000, -0.000000000000000000 ) ) ;
#284 = DIRECTION ( 'NONE',  ( -1.000000000000000000, 0.000000000000000000, 0.000000000000000000 ) ) ;
#285 = ORIENTED_EDGE ( 'NONE', *, *, #249, .F. ) ;
#286 = DIRECTION ( 'NONE',  ( -1.000000000000000000, 0.000000000000000000, 0.000000000000000000 ) ) ;
#287 = APPLICATION_PROTOCOL_DEFINITION ( 'draft international standard', 'automotive_design', 1998, #210 ) ;
#288 = ADVANCED_BREP_SHAPE_REPRESENTATION ( '', ( #85, #700 ), #239 ) ;
#289 = ADVANCED_FACE ( 'NONE', ( #548 ), #1134, .T. ) ;
#290 = CARTESIAN_POINT ( 'NONE',  ( 4.595750661335919044E-13, 7.500000000000333955, 0.6000000000041715298 ) ) ;
#291 = CARTESIAN_POINT ( 'NONE',  ( 0.2499999999999988065, 6.422899774855259893E-17, 2.000000000000001332 ) ) ;
#292 = AXIS2_PLACEMENT_3D ( 'NONE', #653, #922, #114 ) ;
#293 = ORIENTED_EDGE ( 'NONE', *, *, #453, .T. ) ;
#294 = CARTESIAN_POINT ( 'NONE',  ( 0.5000000000000918154, -3.999999999999869438, -1.999999999999934719 ) ) ;
#295 = CARTESIAN_POINT ( 'NONE',  ( 0.2500000000000002220, 0.000000000000000000, 0.000000000000000000 ) ) ;
#296 = EDGE_LOOP ( 'NONE', ( #913, #502, #1039, #478 ) ) ;
#297 = CARTESIAN_POINT ( 'NONE',  ( 752.8000000000000682, 0.000000000000000000, 0.000000000000000000 ) ) ;
#298 = EDGE_LOOP ( 'NONE', ( #513, #169, #60, #378 ) ) ;
#299 = DIRECTION ( 'NONE',  ( -1.000000000000000000, -0.000000000000000000, -0.000000000000000000 ) ) ;
#300 =( GEOMETRIC_REPRESENTATION_CONTEXT ( 3 ) GLOBAL_UNCERTAINTY_ASSIGNED_CONTEXT ( ( #361 ) ) GLOBAL_UNIT_ASSIGNED_CONTEXT ( ( #947, #47, #126 ) ) REPRESENTATION_CONTEXT ( 'NONE', 'WORKASPACE' ) );
#301 = FILL_AREA_STYLE ('',( #568 ) ) ;
#302 = DIRECTION ( 'NONE',  ( -0.000000000000000000, -0.000000000000000000, 1.000000000000000000 ) ) ;
#303 = AXIS2_PLACEMENT_3D ( 'NONE', #390, #40, #1021 ) ;
#304 = AXIS2_PLACEMENT_3D ( 'NONE', #384, #1111, #206 ) ;
#305 = CARTESIAN_POINT ( 'NONE',  ( 0.5000000000000004441, 0.000000000000000000, 0.000000000000000000 ) ) ;
#306 = EDGE_LOOP ( 'NONE', ( #824, #901, #966, #679 ) ) ;
#307 = STYLED_ITEM ( 'NONE', ( #793 ), #920 ) ;
#308 = CARTESIAN_POINT ( 'NONE',  ( -0.5998738244796234520, 7.475971603121485565, 0.1589084681641880215 ) ) ;
#309 = SHAPE_REPRESENTATION ( '228-2500-ROPE-OVERMOLD-MASTER Rev1_228-3201-ROPE-OVERMOLD-MASTER', ( #700 ), #239 ) ;
#310 = CYLINDRICAL_SURFACE ( 'NONE', #447, 0.9499999999999999556 ) ;
#311 = CARTESIAN_POINT ( 'NONE',  ( 4.000000000000003553, 6.028646174532930203E-14, -0.8993686908363700550 ) ) ;
#312 = DIRECTION ( 'NONE',  ( -1.000000000000000000, -0.000000000000000000, 0.000000000000000000 ) ) ;
#313 = EDGE_CURVE ( 'NONE', #522, #383, #185, .T. ) ;
#314 = ORIENTED_EDGE ( 'NONE', *, *, #1073, .F. ) ;
#315 = DIRECTION ( 'NONE',  ( -0.000000000000000000, -1.000000000000000000, -0.000000000000000000 ) ) ;
#316 = EDGE_CURVE ( 'NONE', #90, #795, #1116, .T. ) ;
#317 =( NAMED_UNIT ( * ) SI_UNIT ( $, .STERADIAN. ) SOLID_ANGLE_UNIT ( ) );
#318 = CARTESIAN_POINT ( 'NONE',  ( 2.999999999999988898, 6.711889074043079042E-15, -8.808942506911560211E-17 ) ) ;
#319 = ORIENTED_EDGE ( 'NONE', *, *, #204, .F. ) ;
#320 = CARTESIAN_POINT ( 'NONE',  ( 0.5000000000000918154, 0.000000000000000000, 1.999999999999934941 ) ) ;
#321 = APPLICATION_PROTOCOL_DEFINITION ( 'draft international standard', 'automotive_design', 1998, #560 ) ;
#322 = CARTESIAN_POINT ( 'NONE',  ( 4.000000000000003553, 6.017322057294549609E-14, -6.162975822039154730E-30 ) ) ;
#323 = SHAPE_REPRESENTATION ( '228-2500-448-00 Rev1_228-2500-448-00', ( #483, #292, #969, #100 ), #517 ) ;
#324 = VECTOR ( 'NONE', #68, 1000.000000000000000 ) ;
#325 = DIRECTION ( 'NONE',  ( -1.000000000000000000, 0.000000000000000000, 0.000000000000000000 ) ) ;
#326 = AXIS2_PLACEMENT_3D ( 'NONE', #730, #538, #273 ) ;
#327 = ORIENTED_EDGE ( 'NONE', *, *, #992, .F. ) ;
#328 = CIRCLE ( 'NONE', #902, 2.000000000000000000 ) ;
#329 = DIRECTION ( 'NONE',  ( 0.000000000000000000, 0.000000000000000000, 1.000000000000000000 ) ) ;
#330 = EDGE_CURVE ( 'NONE', #706, #339, #1125, .T. ) ;
#331 = ORIENTED_EDGE ( 'NONE', *, *, #330, .F. ) ;
#332 = FILL_AREA_STYLE_COLOUR ( '', #1138 ) ;
#333 = CARTESIAN_POINT ( 'NONE',  ( 4.000000000000000000, 6.344288770224760121, 2.286000000000000032 ) ) ;
#334 = ORIENTED_EDGE ( 'NONE', *, *, #70, .F. ) ;
#335 = DIRECTION ( 'NONE',  ( 0.000000000000000000, 0.000000000000000000, 1.000000000000000000 ) ) ;
#336 = VERTEX_POINT ( 'NONE', #741 ) ;
#337 = AXIS2_PLACEMENT_3D ( 'NONE', #911, #103, #13 ) ;
#338 = CARTESIAN_POINT ( 'NONE',  ( -1.750000000000000444, 3.350000000000000089, -2.286000000000000032 ) ) ;
#339 = VERTEX_POINT ( 'NONE', #290 ) ;
#340 = ADVANCED_FACE ( 'NONE', ( #650 ), #1010, .F. ) ;
#341 = EDGE_CURVE ( 'NONE', #1161, #875, #907, .T. ) ;
#342 =( GEOMETRIC_REPRESENTATION_CONTEXT ( 3 ) GLOBAL_UNCERTAINTY_ASSIGNED_CONTEXT ( ( #1005 ) ) GLOBAL_UNIT_ASSIGNED_CONTEXT ( ( #368, #639, #460 ) ) REPRESENTATION_CONTEXT ( 'NONE', 'WORKASPACE' ) );
#343 = FACE_OUTER_BOUND ( 'NONE', #228, .T. ) ;
#344 = ORIENTED_EDGE ( 'NONE', *, *, #885, .T. ) ;
#345 = PRODUCT_DEFINITION_FORMATION_WITH_SPECIFIED_SOURCE ( 'ANY', '', #77, .NOT_KNOWN. ) ;
#346 = CARTESIAN_POINT ( 'NONE',  ( 0.2687352311006459549, 4.101595683119246066E-16, 1.674603520776331678 ) ) ;
#347 = CARTESIAN_POINT ( 'NONE',  ( 4.000000000000003553, 9.184850993605149670E-17, 0.7500000000000000000 ) ) ;
#348 = CARTESIAN_POINT ( 'NONE',  ( -0.1021126760563413616, 5.077240679564552842E-16, 1.630281690140845896 ) ) ;
#349 = VERTEX_POINT ( 'NONE', #928 ) ;
#350 = AXIS2_PLACEMENT_3D ( 'NONE', #144, #234, #404 ) ;
#351 = DIRECTION ( 'NONE',  ( 0.000000000000000000, 0.000000000000000000, -1.000000000000000000 ) ) ;
#352 = VECTOR ( 'NONE', #739, 1000.000000000000000 ) ;
#353 = LINE ( 'NONE', #717, #151 ) ;
#354 = ITEM_DEFINED_TRANSFORMATION ( 'NONE', 'NONE', #969,  #700 ) ;
#355 = CYLINDRICAL_SURFACE ( 'NONE', #417, 2.000000000000000000 ) ;
#356 = ORIENTED_EDGE ( 'NONE', *, *, #444, .T. ) ;
#357 = DIRECTION ( 'NONE',  ( 0.000000000000000000, 0.000000000000000000, 1.000000000000000000 ) ) ;
#358 = DIRECTION ( 'NONE',  ( -1.000000000000000000, 0.000000000000000000, 0.000000000000000000 ) ) ;
#359 = CARTESIAN_POINT ( 'NONE',  ( 0.5349933317933824872, 7.481715361024050104, -0.3134931207533580566 ) ) ;
#360 = VERTEX_POINT ( 'NONE', #5 ) ;
#361 = UNCERTAINTY_MEASURE_WITH_UNIT (LENGTH_MEASURE( 1.000000000000000082E-05 ), #947, 'distance_accuracy_value', 'NONE');
#362 = CARTESIAN_POINT ( 'NONE',  ( 0.5000000000000918154, 3.999999999999870326, 1.999999999999934053 ) ) ;
#363 = EDGE_CURVE ( 'NONE', #1025, #421, #366, .T. ) ;
#364 = CARTESIAN_POINT ( 'NONE',  ( -4.000000000000000000, 0.000000000000000000, -2.286000000000000032 ) ) ;
#365 = SHAPE_DEFINITION_REPRESENTATION ( #67, #309 ) ;
#366 = LINE ( 'NONE', #1093, #994 ) ;
#367 = CARTESIAN_POINT ( 'NONE',  ( -752.5500000000000682, 7.347880794884117764E-17, -0.5999999999999999778 ) ) ;
#368 =( LENGTH_UNIT ( ) NAMED_UNIT ( * ) SI_UNIT ( .MILLI., .METRE. ) );
#369 = CARTESIAN_POINT ( 'NONE',  ( 0.5000000000000918154, 4.898587196589254070E-16, 1.999999999999934941 ) ) ;
#370 = AXIS2_PLACEMENT_3D ( 'NONE', #168, #255, #1148 ) ;
#371 = AXIS2_PLACEMENT_3D ( 'NONE', #458, #820, #275 ) ;
#372 = LINE ( 'NONE', #821, #1001 ) ;
#373 = CIRCLE ( 'NONE', #566, 2.100000000000000089 ) ;
#374 = CONTEXT_DEPENDENT_SHAPE_REPRESENTATION ( #752, #95 ) ;
#375 = CARTESIAN_POINT ( 'NONE',  ( 4.595750661335919044E-13, 7.500000000000333955, 0.6000000000041715298 ) ) ;
#376 = ORIENTED_EDGE ( 'NONE', *, *, #908, .F. ) ;
#377 = CARTESIAN_POINT ( 'NONE',  ( 0.000000000000000000, 0.000000000000000000, 0.000000000000000000 ) ) ;
#378 = ORIENTED_EDGE ( 'NONE', *, *, #118, .F. ) ;
#379 = DIRECTION ( 'NONE',  ( -1.000000000000000000, 0.000000000000000000, -0.000000000000000000 ) ) ;
#380 = DIRECTION ( 'NONE',  ( 0.000000000000000000, -1.000000000000000000, 0.000000000000000000 ) ) ;
#381 = ORIENTED_EDGE ( 'NONE', *, *, #554, .F. ) ;
#382 = SHAPE_REPRESENTATION_RELATIONSHIP ( 'NONE' , 'NONE' ,  #179, #920 ) ;
#383 = VERTEX_POINT ( 'NONE', #216 ) ;
#384 = CARTESIAN_POINT ( 'NONE',  ( 1.238690775967998814, -1.806354028742346048E-16, -1.475000000000000089 ) ) ;
#385 = SURFACE_STYLE_FILL_AREA ( #301 ) ;
#386 = LINE ( 'NONE', #1107, #33 ) ;
#387 = CARTESIAN_POINT ( 'NONE',  ( 0.2499999999999988065, -3.091583575780234499E-16, -2.000000000000001332 ) ) ;
#388 = DIRECTION ( 'NONE',  ( -0.000000000000000000, -0.6162943040883940293, -0.7875159241235710761 ) ) ;
#389 = EDGE_LOOP ( 'NONE', ( #1109, #400 ) ) ;
#390 = CARTESIAN_POINT ( 'NONE',  ( 0.000000000000000000, 7.500000000000000000, 0.000000000000000000 ) ) ;
#391 = EDGE_CURVE ( 'NONE', #563, #446, #1137, .T. ) ;
#392 = CARTESIAN_POINT ( 'NONE',  ( -755.6500000000002046, 0.000000000000000000, 0.000000000000000000 ) ) ;
#393 = DIRECTION ( 'NONE',  ( -1.000000000000000000, -1.445602896647339163E-16, 0.000000000000000000 ) ) ;
#394 = AXIS2_PLACEMENT_3D ( 'NONE', #322, #1044, #42 ) ;
#395 = EDGE_CURVE ( 'NONE', #1095, #1025, #278, .T. ) ;
#396 = CIRCLE ( 'NONE', #964, 2.100000000000000089 ) ;
#397 = EDGE_CURVE ( 'NONE', #848, #30, #805, .T. ) ;
#398 = DIRECTION ( 'NONE',  ( 0.000000000000000000, 0.000000000000000000, 1.000000000000000000 ) ) ;
#399 = MECHANICAL_DESIGN_GEOMETRIC_PRESENTATION_REPRESENTATION (  '', ( #307 ), #546 ) ;
#400 = ORIENTED_EDGE ( 'NONE', *, *, #61, .F. ) ;
#401 = VECTOR ( 'NONE', #887, 1000.000000000000000 ) ;
#402 = FACE_BOUND ( 'NONE', #272, .T. ) ;
#403 = VECTOR ( 'NONE', #724, 1000.000000000000000 ) ;
#404 = DIRECTION ( 'NONE',  ( 0.000000000000000000, 0.000000000000000000, -1.000000000000000000 ) ) ;
#405 = DIRECTION ( 'NONE',  ( -0.000000000000000000, -0.000000000000000000, -1.000000000000000000 ) ) ;
#406 = SURFACE_SIDE_STYLE ('',( #589 ) ) ;
#407 = EDGE_LOOP ( 'NONE', ( #436, #106, #129, #843 ) ) ;
#408 = CARTESIAN_POINT ( 'NONE',  ( -0.3132723953653721582, 7.494274718137164726, 0.5351020110317906697 ) ) ;
#409 =( GEOMETRIC_REPRESENTATION_CONTEXT ( 3 ) GLOBAL_UNCERTAINTY_ASSIGNED_CONTEXT ( ( #1031 ) ) GLOBAL_UNIT_ASSIGNED_CONTEXT ( ( #26, #750, #41 ) ) REPRESENTATION_CONTEXT ( 'NONE', 'WORKASPACE' ) );
#410 = EDGE_CURVE ( 'NONE', #360, #576, #386, .T. ) ;
#411 = DIRECTION ( 'NONE',  ( 1.000000000000000000, 0.000000000000000000, 0.000000000000000000 ) ) ;
#412 = LINE ( 'NONE', #53, #188 ) ;
#413 = ORIENTED_EDGE ( 'NONE', *, *, #501, .F. ) ;
#414 = CARTESIAN_POINT ( 'NONE',  ( 0.5000000000000920375, 0.000000000000000000, 0.9500000000000650147 ) ) ;
#415 = EDGE_CURVE ( 'NONE', #238, #930, #54, .T. ) ;
#416 = SURFACE_SIDE_STYLE ('',( #385 ) ) ;
#417 = AXIS2_PLACEMENT_3D ( 'NONE', #987, #794, #790 ) ;
#418 = CIRCLE ( 'NONE', #304, 0.9062499999999998890 ) ;
#419 = VERTEX_POINT ( 'NONE', #1015 ) ;
#420 = FILL_AREA_STYLE ('',( #332 ) ) ;
#421 = VERTEX_POINT ( 'NONE', #208 ) ;
#422 = DIRECTION ( 'NONE',  ( 0.000000000000000000, -0.000000000000000000, -1.000000000000000000 ) ) ;
#423 = CARTESIAN_POINT ( 'NONE',  ( 4.000000000000000000, 0.000000000000000000, -2.286000000000000032 ) ) ;
#424 = CARTESIAN_POINT ( 'NONE',  ( 1.749999999999999334, 4.850000000000000533, -2.286000000000000032 ) ) ;
#425 = PRODUCT ( '228-2500-449 Rev1_228-2500-449', '228-2500-449 Rev1_228-2500-449', '', ( #744 ) ) ;
#426 = ORIENTED_EDGE ( 'NONE', *, *, #956, .F. ) ;
#427 = DIRECTION ( 'NONE',  ( 1.000000000000000000, 0.000000000000000000, 0.000000000000000000 ) ) ;
#428 = DIRECTION ( 'NONE',  ( 0.000000000000000000, 0.000000000000000000, 1.000000000000000000 ) ) ;
#429 = EDGE_CURVE ( 'NONE', #558, #349, #120, .T. ) ;
#430 = AXIS2_PLACEMENT_3D ( 'NONE', #694, #221, #52 ) ;
#431 = EDGE_CURVE ( 'NONE', #199, #576, #1113, .T. ) ;
#432 = ORIENTED_EDGE ( 'NONE', *, *, #660, .F. ) ;
#433 = PRESENTATION_LAYER_ASSIGNMENT (  '', '', ( #685 ) ) ;
#434 = DIRECTION ( 'NONE',  ( 1.000000000000000000, -0.000000000000000000, -0.000000000000000000 ) ) ;
#435 = PRODUCT_DEFINITION_SHAPE ( 'NONE', 'NONE',  #1177 ) ;
#436 = ORIENTED_EDGE ( 'NONE', *, *, #1150, .F. ) ;
#437 = DIRECTION ( 'NONE',  ( 0.000000000000000000, 0.000000000000000000, 1.000000000000000000 ) ) ;
#438 = CYLINDRICAL_SURFACE ( 'NONE', #370, 0.5999999999999999778 ) ;
#439 = ORIENTED_EDGE ( 'NONE', *, *, #249, .T. ) ;
#440 = ADVANCED_FACE ( 'NONE', ( #933 ), #127, .F. ) ;
#441 = CARTESIAN_POINT ( 'NONE',  ( 0.000000000000000000, 0.000000000000000000, -2.286000000000000032 ) ) ;
#442 = CARTESIAN_POINT ( 'NONE',  ( 0.2687352311006460659, -1.561910215925068817E-16, -1.275396479223668056 ) ) ;
#443 = CARTESIAN_POINT ( 'NONE',  ( 752.5500000000000682, 0.000000000000000000, 0.000000000000000000 ) ) ;
#444 = EDGE_CURVE ( 'NONE', #1147, #778, #132, .T. ) ;
#445 = DIRECTION ( 'NONE',  ( 0.000000000000000000, 1.000000000000000000, 0.000000000000000000 ) ) ;
#446 = VERTEX_POINT ( 'NONE', #48 ) ;
#447 = AXIS2_PLACEMENT_3D ( 'NONE', #241, #488, #329 ) ;
#448 = PLANE ( 'NONE',  #1070 ) ;
#449 = AXIS2_PLACEMENT_3D ( 'NONE', #624, #991, #634 ) ;
#450 =( GEOMETRIC_REPRESENTATION_CONTEXT ( 3 ) GLOBAL_UNCERTAINTY_ASSIGNED_CONTEXT ( ( #91 ) ) GLOBAL_UNIT_ASSIGNED_CONTEXT ( ( #1133, #133, #858 ) ) REPRESENTATION_CONTEXT ( 'NONE', 'WORKASPACE' ) );
#451 = DIRECTION ( 'NONE',  ( 1.000000000000000000, 0.000000000000000000, 0.000000000000000000 ) ) ;
#452 = CARTESIAN_POINT ( 'NONE',  ( -0.1021126760563413616, -3.080721426025028638E-16, -1.630281690140845896 ) ) ;
#453 = EDGE_CURVE ( 'NONE', #1117, #1147, #961, .T. ) ;
#454 = ORIENTED_EDGE ( 'NONE', *, *, #181, .T. ) ;
#455 = FACE_BOUND ( 'NONE', #65, .T. ) ;
#456 = DIRECTION ( 'NONE',  ( -1.000000000000000000, 0.000000000000000000, 0.000000000000000000 ) ) ;
#457 = APPLICATION_PROTOCOL_DEFINITION ( 'draft international standard', 'automotive_design', 1998, #107 ) ;
#458 = CARTESIAN_POINT ( 'NONE',  ( 0.000000000000000000, 0.000000000000000000, 2.286000000000000032 ) ) ;
#459 = CARTESIAN_POINT ( 'NONE',  ( -0.1021126760563414448, -2.208053028555439392E-16, -1.119718309859154104 ) ) ;
#460 =( NAMED_UNIT ( * ) SI_UNIT ( $, .STERADIAN. ) SOLID_ANGLE_UNIT ( ) );
#461 = ORIENTED_EDGE ( 'NONE', *, *, #431, .T. ) ;
#462 = LINE ( 'NONE', #825, #112 ) ;
#463 = CARTESIAN_POINT ( 'NONE',  ( 752.5500000000000682, 0.000000000000000000, 0.000000000000000000 ) ) ;
#464 = CARTESIAN_POINT ( 'NONE',  ( 0.3123226340010450963, 7.494334100416290667, 0.5362475917034296158 ) ) ;
#465 = PRODUCT_DEFINITION_SHAPE ( 'NONE', 'NONE',  #1178 ) ;
#466 = EDGE_LOOP ( 'NONE', ( #727, #889, #599, #595 ) ) ;
#467 =( NAMED_UNIT ( * ) PLANE_ANGLE_UNIT ( ) SI_UNIT ( $, .RADIAN. ) );
#468 = ORIENTED_EDGE ( 'NONE', *, *, #992, .T. ) ;
#469 = CARTESIAN_POINT ( 'NONE',  ( 0.5000000000000918154, -2.449293598294627035E-16, -1.999999999999934941 ) ) ;
#470 = CLOSED_SHELL ( 'NONE', ( #184, #340, #670, #518, #159, #440, #867, #24, #780, #139, #701, #532, #581, #765 ) ) ;
#471 = VECTOR ( 'NONE', #1080, 1000.000000000000000 ) ;
#472 = SHAPE_REPRESENTATION ( '228-2500-448', ( #1114, #1082, #725, #876 ), #300 ) ;
#473 = VECTOR ( 'NONE', #897, 1000.000000000000000 ) ;
#474 = CIRCLE ( 'NONE', #248, 2.000000000000000000 ) ;
#475 = CARTESIAN_POINT ( 'NONE',  ( 0.000000000000000000, 4.850000000000000533, 0.000000000000000000 ) ) ;
#476 = CARTESIAN_POINT ( 'NONE',  ( 0.2499999999999988343, -4.000000000000001776, 2.000000000000001332 ) ) ;
#477 = CARTESIAN_POINT ( 'NONE',  ( -752.8000000000000682, 0.000000000000000000, 0.000000000000000000 ) ) ;
#478 = ORIENTED_EDGE ( 'NONE', *, *, #1126, .T. ) ;
#479 = CARTESIAN_POINT ( 'NONE',  ( 4.000000000000003553, 0.000000000000000000, 0.000000000000000000 ) ) ;
#480 = CARTESIAN_POINT ( 'NONE',  ( 755.6500000000000909, 0.000000000000000000, 0.000000000000000000 ) ) ;
#481 = CARTESIAN_POINT ( 'NONE',  ( 0.1586417734720640682, 7.500000000000000000, -0.5999999999999998668 ) ) ;
#482 = CARTESIAN_POINT ( 'NONE',  ( -0.1021126760563413616, 7.239814924062966462E-17, 1.630281690140845896 ) ) ;
#483 = AXIS2_PLACEMENT_3D ( 'NONE', #377, #543, #29 ) ;
#484 = EDGE_CURVE ( 'NONE', #1168, #778, #36, .T. ) ;
#485 = EDGE_LOOP ( 'NONE', ( #960, #847 ) ) ;
#486 = CARTESIAN_POINT ( 'NONE',  ( -752.5500000000000682, 0.000000000000000000, 0.5999999999999999778 ) ) ;
#487 = MANIFOLD_SOLID_BREP ( 'Imported1', #622 ) ;
#488 = DIRECTION ( 'NONE',  ( -1.000000000000000000, 0.000000000000000000, 0.000000000000000000 ) ) ;
#489 = ORIENTED_EDGE ( 'NONE', *, *, #693, .T. ) ;
#490 = ORIENTED_EDGE ( 'NONE', *, *, #570, .T. ) ;
#491 = DIRECTION ( 'NONE',  ( -1.000000000000000000, 0.000000000000000000, 0.000000000000000000 ) ) ;
#492 = AXIS2_PLACEMENT_3D ( 'NONE', #814, #1174, #953 ) ;
#493 = DIRECTION ( 'NONE',  ( 1.000000000000000000, 0.000000000000000000, 0.000000000000000000 ) ) ;
#494 = SURFACE_STYLE_USAGE ( .BOTH. , #406 ) ;
#495 = PRESENTATION_LAYER_ASSIGNMENT (  '', '', ( #307 ) ) ;
#496 = ADVANCED_FACE ( 'NONE', ( #948 ), #310, .T. ) ;
#497 = EDGE_LOOP ( 'NONE', ( #636, #689, #256, #319 ) ) ;
#498 = CARTESIAN_POINT ( 'NONE',  ( 0.000000000000000000, 0.000000000000000000, 0.000000000000000000 ) ) ;
#499 = PLANE ( 'NONE',  #134 ) ;
#500 = LINE ( 'NONE', #424, #926 ) ;
#501 = EDGE_CURVE ( 'NONE', #1065, #421, #881, .T. ) ;
#502 = ORIENTED_EDGE ( 'NONE', *, *, #729, .F. ) ;
#503 = LINE ( 'NONE', #898, #56 ) ;
#504 = COLOUR_RGB ( '',0.1450980392156862586, 0.1568627450980392135, 0.1647058823529411742 ) ;
#505 = APPLICATION_PROTOCOL_DEFINITION ( 'draft international standard', 'automotive_design', 1998, #932 ) ;
#506 = SURFACE_SIDE_STYLE ('',( #959 ) ) ;
#507 = DIRECTION ( 'NONE',  ( 0.000000000000000000, 0.000000000000000000, 1.000000000000000000 ) ) ;
#508 = EDGE_LOOP ( 'NONE', ( #753, #50, #150, #115 ) ) ;
#509 = DIRECTION ( 'NONE',  ( -0.000000000000000000, -0.000000000000000000, -1.000000000000000000 ) ) ;
#510 = CIRCLE ( 'NONE', #737, 2.000000000000000000 ) ;
#511 =( NAMED_UNIT ( * ) PLANE_ANGLE_UNIT ( ) SI_UNIT ( $, .RADIAN. ) );
#512 = AXIS2_PLACEMENT_3D ( 'NONE', #94, #628, #802 ) ;
#513 = ORIENTED_EDGE ( 'NONE', *, *, #484, .F. ) ;
#514 = FACE_OUTER_BOUND ( 'NONE', #1033, .T. ) ;
#515 = DIRECTION ( 'NONE',  ( 1.000000000000000000, -1.445602896647339163E-16, 0.000000000000000000 ) ) ;
#516 = EDGE_LOOP ( 'NONE', ( #217, #123, #761, #276 ) ) ;
#517 =( GEOMETRIC_REPRESENTATION_CONTEXT ( 3 ) GLOBAL_UNCERTAINTY_ASSIGNED_CONTEXT ( ( #936 ) ) GLOBAL_UNIT_ASSIGNED_CONTEXT ( ( #135, #777, #1038 ) ) REPRESENTATION_CONTEXT ( 'NONE', 'WORKASPACE' ) );
#518 = ADVANCED_FACE ( 'NONE', ( #758, #846, #245 ), #499, .F. ) ;
#519 = EDGE_CURVE ( 'NONE', #136, #35, #600, .T. ) ;
#520 = FILL_AREA_STYLE_COLOUR ( '', #904 ) ;
#521 = FACE_OUTER_BOUND ( 'NONE', #766, .T. ) ;
#522 = VERTEX_POINT ( 'NONE', #32 ) ;
#523 = CARTESIAN_POINT ( 'NONE',  ( 0.2499999999999988343, 4.000000000000001776, -2.000000000000002220 ) ) ;
#524 = ORIENTED_EDGE ( 'NONE', *, *, #939, .T. ) ;
#525 = VECTOR ( 'NONE', #63, 1000.000000000000000 ) ;
#526 = AXIS2_PLACEMENT_3D ( 'NONE', #1063, #1154, #1146 ) ;
#527 = LINE ( 'NONE', #980, #1046 ) ;
#528 = CYLINDRICAL_SURFACE ( 'NONE', #265, 0.7500000000000000000 ) ;
#529 = CARTESIAN_POINT ( 'NONE',  ( 1.749999999999999112, 3.350000000000000089, 2.286000000000000032 ) ) ;
#530 = PRODUCT ( '228-2500-448-00 Rev1_228-2500-448-00', '228-2500-448-00 Rev1_228-2500-448-00', '', ( #813 ) ) ;
#531 = ORIENTED_EDGE ( 'NONE', *, *, #415, .F. ) ;
#532 = ADVANCED_FACE ( 'NONE', ( #868 ), #1131, .F. ) ;
#533 = CARTESIAN_POINT ( 'NONE',  ( 0.000000000000000000, 0.000000000000000000, 2.286000000000000032 ) ) ;
#534 = CARTESIAN_POINT ( 'NONE',  ( -1.750000000000000666, 4.850000000000000533, 2.286000000000000032 ) ) ;
#535 = ITEM_DEFINED_TRANSFORMATION ( 'NONE', 'NONE', #876,  #700 ) ;
#536 = CARTESIAN_POINT ( 'NONE',  ( 4.000000000000000000, 0.000000000000000000, 2.286000000000000032 ) ) ;
#537 = VERTEX_POINT ( 'NONE', #941 ) ;
#538 = DIRECTION ( 'NONE',  ( 0.000000000000000000, 0.000000000000000000, 1.000000000000000000 ) ) ;
#539 = CARTESIAN_POINT ( 'NONE',  ( 0.2500000000000002220, 0.000000000000000000, -0.7500000000000000000 ) ) ;
#540 = DIRECTION ( 'NONE',  ( -0.000000000000000000, -0.000000000000000000, -1.000000000000000000 ) ) ;
#541 = ORIENTED_EDGE ( 'NONE', *, *, #1150, .T. ) ;
#542 = VECTOR ( 'NONE', #445, 1000.000000000000000 ) ;
#543 = DIRECTION ( 'NONE',  ( 0.000000000000000000, 0.000000000000000000, 1.000000000000000000 ) ) ;
#544 = LINE ( 'NONE', #1077, #525 ) ;
#545 = CARTESIAN_POINT ( 'NONE',  ( 7.347880794884117764E-17, 4.850000000000000533, 0.5999999999999999778 ) ) ;
#546 =( GEOMETRIC_REPRESENTATION_CONTEXT ( 3 ) GLOBAL_UNCERTAINTY_ASSIGNED_CONTEXT ( ( #817 ) ) GLOBAL_UNIT_ASSIGNED_CONTEXT ( ( #92, #2, #122 ) ) REPRESENTATION_CONTEXT ( 'NONE', 'WORKASPACE' ) );
#547 = PRODUCT_CONTEXT ( 'NONE', #210, 'mechanical' ) ;
#548 = FACE_OUTER_BOUND ( 'NONE', #19, .T. ) ;
#549 = AXIS2_PLACEMENT_3D ( 'NONE', #893, #165, #552 ) ;
#550 = CARTESIAN_POINT ( 'NONE',  ( 0.2499999999999986955, 9.184850993605129949E-17, 0.7499999999999983347 ) ) ;
#551 = PLANE ( 'NONE',  #621 ) ;
#552 = DIRECTION ( 'NONE',  ( 0.000000000000000000, 0.000000000000000000, 1.000000000000000000 ) ) ;
#553 = SHAPE_DEFINITION_REPRESENTATION ( #878, #796 ) ;
#554 = EDGE_CURVE ( 'NONE', #1062, #1161, #806, .T. ) ;
#555 = CARTESIAN_POINT ( 'NONE',  ( 2.368286583846122402E-17, 7.500000000000000000, -0.5999999999999999778 ) ) ;
#556 = ADVANCED_FACE ( 'NONE', ( #851 ), #857, .F. ) ;
#557 = B_SPLINE_CURVE_WITH_KNOTS ( 'NONE', 3,
 ( #46, #1120, #408, #938, #308, #138, #669, #944, #849, #1105 ),
 .UNSPECIFIED., .F., .F.,
 ( 4, 2, 2, 2, 4 ),
 ( 0.001876622943936102125, 0.002345670139209626252, 0.002814717334483150379, 0.003283764529756674072, 0.003752811725030198199 ),
 .UNSPECIFIED. ) ;
#558 = VERTEX_POINT ( 'NONE', #690 ) ;
#559 = CARTESIAN_POINT ( 'NONE',  ( 0.5000000000000918154, -3.999999999999869438, 1.999999999999935163 ) ) ;
#560 = APPLICATION_CONTEXT ( 'automotive_design' ) ;
#561 = DIRECTION ( 'NONE',  ( 1.000000000000000000, 0.000000000000000000, -0.000000000000000000 ) ) ;
#562 = ORIENTED_EDGE ( 'NONE', *, *, #519, .T. ) ;
#563 = VERTEX_POINT ( 'NONE', #596 ) ;
#564 = CARTESIAN_POINT ( 'NONE',  ( 752.5500000000000682, 0.000000000000000000, 0.000000000000000000 ) ) ;
#565 = AXIS2_PLACEMENT_3D ( 'NONE', #195, #380, #569 ) ;
#566 = AXIS2_PLACEMENT_3D ( 'NONE', #627, #357, #785 ) ;
#567 = AXIS2_PLACEMENT_3D ( 'NONE', #1124, #676, #1034 ) ;
#568 = FILL_AREA_STYLE_COLOUR ( '', #504 ) ;
#569 = DIRECTION ( 'NONE',  ( 0.000000000000000000, 0.000000000000000000, 1.000000000000000000 ) ) ;
#570 = EDGE_CURVE ( 'NONE', #419, #253, #544, .T. ) ;
#571 = ORIENTED_EDGE ( 'NONE', *, *, #811, .T. ) ;
#572 = EDGE_LOOP ( 'NONE', ( #23, #661 ) ) ;
#573 = CARTESIAN_POINT ( 'NONE',  ( 4.199999999999995737, 1.163414459189985682E-16, -0.9499999999999999556 ) ) ;
#574 = DIRECTION ( 'NONE',  ( 1.445602896647339163E-16, 1.000000000000000000, -0.000000000000000000 ) ) ;
#575 = DIRECTION ( 'NONE',  ( 0.000000000000000000, 0.000000000000000000, 1.000000000000000000 ) ) ;
#576 = VERTEX_POINT ( 'NONE', #1066 ) ;
#577 = DIRECTION ( 'NONE',  ( -0.000000000000000000, -0.000000000000000000, -1.000000000000000000 ) ) ;
#578 = PRODUCT_DEFINITION_FORMATION_WITH_SPECIFIED_SOURCE ( 'ANY', '', #815, .NOT_KNOWN. ) ;
#579 = DIRECTION ( 'NONE',  ( 0.000000000000000000, -1.000000000000000222, -5.551115123125782702E-17 ) ) ;
#580 =( NAMED_UNIT ( * ) SI_UNIT ( $, .STERADIAN. ) SOLID_ANGLE_UNIT ( ) );
#581 = ADVANCED_FACE ( 'NONE', ( #455, #268 ), #448, .F. ) ;
#582 = LINE ( 'NONE', #770, #832 ) ;
#583 = EDGE_LOOP ( 'NONE', ( #38, #562, #267, #648 ) ) ;
#584 = PLANE ( 'NONE',  #663 ) ;
#585 = DIRECTION ( 'NONE',  ( 0.000000000000000000, -5.551115123125782702E-17, 1.000000000000000000 ) ) ;
#586 = DIRECTION ( 'NONE',  ( 1.000000000000000000, 4.876213336336211057E-15, 5.192639793547426971E-15 ) ) ;
#587 = AXIS2_PLACEMENT_3D ( 'NONE', #1127, #678, #226 ) ;
#588 = AXIS2_PLACEMENT_3D ( 'NONE', #955, #515, #603 ) ;
#589 = SURFACE_STYLE_FILL_AREA ( #864 ) ;
#590 = ORIENTED_EDGE ( 'NONE', *, *, #1067, .F. ) ;
#591 = CARTESIAN_POINT ( 'NONE',  ( 0.5000000000000920375, -1.163414459190065308E-16, -0.9500000000000650147 ) ) ;
#592 = PRODUCT_CONTEXT ( 'NONE', #1159, 'mechanical' ) ;
#593 = DIRECTION ( 'NONE',  ( 1.000000000000000000, 0.000000000000000000, -0.000000000000000000 ) ) ;
#594 = DIRECTION ( 'NONE',  ( 1.445602896647339163E-16, 1.000000000000000000, -0.000000000000000000 ) ) ;
#595 = ORIENTED_EDGE ( 'NONE', *, *, #186, .F. ) ;
#596 = CARTESIAN_POINT ( 'NONE',  ( 0.5000000000000004441, 0.000000000000000000, 2.000000000000000000 ) ) ;
#597 = FACE_OUTER_BOUND ( 'NONE', #605, .T. ) ;
#598 =( LENGTH_UNIT ( ) NAMED_UNIT ( * ) SI_UNIT ( .MILLI., .METRE. ) );
#599 = ORIENTED_EDGE ( 'NONE', *, *, #316, .T. ) ;
#600 = LINE ( 'NONE', #769, #260 ) ;
#601 = VECTOR ( 'NONE', #751, 1000.000000000000000 ) ;
#602 = DIRECTION ( 'NONE',  ( 1.000000000000000000, 0.000000000000000000, 0.000000000000000000 ) ) ;
#603 = DIRECTION ( 'NONE',  ( 1.445602896647339163E-16, 1.000000000000000000, 0.000000000000000000 ) ) ;
#604 = VECTOR ( 'NONE', #315, 1000.000000000000000 ) ;
#605 = EDGE_LOOP ( 'NONE', ( #218, #616 ) ) ;
#606 = ADVANCED_FACE ( 'NONE', ( #810 ), #154, .F. ) ;
#607 = AXIS2_PLACEMENT_3D ( 'NONE', #441, #797, #1163 ) ;
#608 = APPLICATION_CONTEXT ( 'automotive_design' ) ;
#609 = PRODUCT_DEFINITION_SHAPE ( 'NONE', 'NONE',  #66 ) ;
#610 = CARTESIAN_POINT ( 'NONE',  ( 0.000000000000000000, 4.850000000000000533, -0.5999999999999999778 ) ) ;
#611 = PRODUCT_DEFINITION ( 'UNKNOWN', '', #1085, #191 ) ;
#612 = ORIENTED_EDGE ( 'NONE', *, *, #852, .T. ) ;
#613 = FACE_OUTER_BOUND ( 'NONE', #246, .T. ) ;
#614 = CARTESIAN_POINT ( 'NONE',  ( -0.1021126760563414448, -2.455461616601201735E-16, -1.119718309859154104 ) ) ;
#615 = EDGE_CURVE ( 'NONE', #1123, #17, #1094, .T. ) ;
#616 = ORIENTED_EDGE ( 'NONE', *, *, #984, .F. ) ;
#617 = PRODUCT_DEFINITION_SHAPE ( 'NONE', 'NONE',  #945 ) ;
#618 = DIRECTION ( 'NONE',  ( -1.000000000000000000, -0.000000000000000000, 0.000000000000000000 ) ) ;
#619 = CARTESIAN_POINT ( 'NONE',  ( 0.2499999999999987232, 1.499999999999996669, 0.7499999999999978906 ) ) ;
#620 = ORIENTED_EDGE ( 'NONE', *, *, #641, .F. ) ;
#621 = AXIS2_PLACEMENT_3D ( 'NONE', #101, #1097, #422 ) ;
#622 = CLOSED_SHELL ( 'NONE', ( #224, #874, #556, #289, #1036, #1112, #1164, #768, #7, #9, #243, #496, #606 ) ) ;
#623 = CARTESIAN_POINT ( 'NONE',  ( 0.2687352311006460659, 3.123820431850137634E-16, 1.275396479223668056 ) ) ;
#624 = CARTESIAN_POINT ( 'NONE',  ( 0.000000000000000000, 4.850000000000000533, 0.000000000000000000 ) ) ;
#625 = CARTESIAN_POINT ( 'NONE',  ( 0.5000000000000004441, 0.000000000000000000, 0.000000000000000000 ) ) ;
#626 = ORIENTED_EDGE ( 'NONE', *, *, #204, .T. ) ;
#627 = CARTESIAN_POINT ( 'NONE',  ( 0.000000000000000000, 0.000000000000000000, 2.286000000000000032 ) ) ;
#628 = DIRECTION ( 'NONE',  ( 0.000000000000000000, 1.000000000000000000, 1.224646799147353207E-16 ) ) ;
#629 = DIRECTION ( 'NONE',  ( -1.000000000000000000, -0.000000000000000000, -0.000000000000000000 ) ) ;
#630 = ORIENTED_EDGE ( 'NONE', *, *, #1099, .F. ) ;
#631 = FILL_AREA_STYLE_COLOUR ( '', #1053 ) ;
#632 = DIRECTION ( 'NONE',  ( 0.000000000000000000, 0.000000000000000000, 1.000000000000000000 ) ) ;
#633 =( BOUNDED_SURFACE ( )  B_SPLINE_SURFACE ( 3, 3, ( 
 ( #320, #559, #294, #469 ),
 ( #830, #21, #772, #1040 ),
 ( #951, #860, #1136, #51 ),
 ( #414, #680, #229, #591 ) ),
 .UNSPECIFIED., .F., .F., .F. ) 
 B_SPLINE_SURFACE_WITH_KNOTS ( ( 4, 4 ),
 ( 4, 4 ),
 ( 0.000000000000000000, 1.000000000000000000 ),
 ( 0.000000000000000000, 1.000000000000000000 ),
 .UNSPECIFIED. ) 
 GEOMETRIC_REPRESENTATION_ITEM ( )  RATIONAL_B_SPLINE_SURFACE ( (
 ( 1.000000000000000000, 0.3333333333333334259, 0.3333333333333334259, 1.000000000000000000),
 ( 0.8767380420913336581, 0.2922460140304446452, 0.2922460140304446452, 0.8767380420913336581),
 ( 0.8767380420913336581, 0.2922460140304446452, 0.2922460140304446452, 0.8767380420913336581),
 ( 1.000000000000000000, 0.3333333333333334259, 0.3333333333333334259, 1.000000000000000000) ) ) 
 REPRESENTATION_ITEM ( '' )  SURFACE ( )  );
#634 = DIRECTION ( 'NONE',  ( 0.000000000000000000, 0.000000000000000000, -1.000000000000000000 ) ) ;
#635 = DIRECTION ( 'NONE',  ( 1.000000000000000000, 0.000000000000000000, 0.000000000000000000 ) ) ;
#636 = ORIENTED_EDGE ( 'NONE', *, *, #971, .F. ) ;
#637 = PRODUCT_DEFINITION_CONTEXT ( 'detailed design', #775, 'design' ) ;
#638 = CIRCLE ( 'NONE', #919, 0.9499999999999999556 ) ;
#639 =( NAMED_UNIT ( * ) PLANE_ANGLE_UNIT ( ) SI_UNIT ( $, .RADIAN. ) );
#640 = CARTESIAN_POINT ( 'NONE',  ( -1.750000000000000444, 3.350000000000000089, -2.286000000000000032 ) ) ;
#641 = EDGE_CURVE ( 'NONE', #563, #336, #510, .T. ) ;
#642 = EDGE_CURVE ( 'NONE', #90, #136, #373, .T. ) ;
#643 = DIRECTION ( 'NONE',  ( 0.000000000000000000, 0.000000000000000000, 1.000000000000000000 ) ) ;
#644 = APPLICATION_PROTOCOL_DEFINITION ( 'draft international standard', 'automotive_design', 1998, #834 ) ;
#645 = CARTESIAN_POINT ( 'NONE',  ( 0.000000000000000000, 0.000000000000000000, 2.286000000000000032 ) ) ;
#646 = FACE_OUTER_BOUND ( 'NONE', #516, .T. ) ;
#647 = SURFACE_SIDE_STYLE ('',( #823 ) ) ;
#648 = ORIENTED_EDGE ( 'NONE', *, *, #316, .F. ) ;
#649 = CARTESIAN_POINT ( 'NONE',  ( 2.368286583846122402E-17, 7.500000000000000000, -0.5999999999999999778 ) ) ;
#650 = FACE_OUTER_BOUND ( 'NONE', #583, .T. ) ;
#651 = DIRECTION ( 'NONE',  ( 1.000000000000000000, 0.000000000000000000, -0.000000000000000000 ) ) ;
#652 = ORIENTED_EDGE ( 'NONE', *, *, #181, .F. ) ;
#653 = CARTESIAN_POINT ( 'NONE',  ( 0.000000000000000000, 0.000000000000000000, 0.000000000000000000 ) ) ;
#654 = VERTEX_POINT ( 'NONE', #1083 ) ;
#655 = APPLICATION_CONTEXT ( 'automotive_design' ) ;
#656 = CYLINDRICAL_SURFACE ( 'NONE', #808, 2.100000000000000089 ) ;
#657 = EDGE_CURVE ( 'NONE', #654, #692, #684, .T. ) ;
#658 = DIRECTION ( 'NONE',  ( 0.000000000000000000, -1.000000000000000000, 0.000000000000000000 ) ) ;
#659 = FACE_OUTER_BOUND ( 'NONE', #1, .T. ) ;
#660 = EDGE_CURVE ( 'NONE', #336, #537, #801, .T. ) ;
#661 = ORIENTED_EDGE ( 'NONE', *, *, #971, .T. ) ;
#662 = DIRECTION ( 'NONE',  ( 0.000000000000000000, 0.000000000000000000, 1.000000000000000000 ) ) ;
#663 = AXIS2_PLACEMENT_3D ( 'NONE', #479, #379, #130 ) ;
#664 = CIRCLE ( 'NONE', #209, 0.7500000000000000000 ) ;
#665 = CARTESIAN_POINT ( 'NONE',  ( 4.000000000000000000, 0.000000000000000000, -2.286000000000000032 ) ) ;
#666 = DIRECTION ( 'NONE',  ( -1.000000000000000000, 0.000000000000000000, 0.000000000000000000 ) ) ;
#667 = UNCERTAINTY_MEASURE_WITH_UNIT (LENGTH_MEASURE( 1.000000000000000082E-05 ), #683, 'distance_accuracy_value', 'NONE');
#668 = ORIENTED_EDGE ( 'NONE', *, *, #415, .T. ) ;
#669 = CARTESIAN_POINT ( 'NONE',  ( -0.5351685533447986254, 7.481702203656249495, -0.3132041175538384792 ) ) ;
#670 = ADVANCED_FACE ( 'NONE', ( #3, #716, #985 ), #175, .T. ) ;
#671 = CARTESIAN_POINT ( 'NONE',  ( 0.000000000000000000, 0.000000000000000000, 0.000000000000000000 ) ) ;
#672 = DIRECTION ( 'NONE',  ( 1.445602896647339163E-16, -1.000000000000000000, 0.000000000000000000 ) ) ;
#673 = CARTESIAN_POINT ( 'NONE',  ( 4.000000000000000000, 6.344288770224760121, 2.286000000000000032 ) ) ;
#674 = FACE_OUTER_BOUND ( 'NONE', #296, .T. ) ;
#675 = ORIENTED_EDGE ( 'NONE', *, *, #225, .F. ) ;
#676 = DIRECTION ( 'NONE',  ( -0.000000000000000000, -0.000000000000000000, -1.000000000000000000 ) ) ;
#677 = SURFACE_STYLE_USAGE ( .BOTH. , #416 ) ;
#678 = DIRECTION ( 'NONE',  ( 1.000000000000000000, 0.000000000000000000, -0.000000000000000000 ) ) ;
#679 = ORIENTED_EDGE ( 'NONE', *, *, #391, .F. ) ;
#680 = CARTESIAN_POINT ( 'NONE',  ( 0.5000000000000920375, -1.900000000000130029, 0.9500000000000651257 ) ) ;
#681 = VECTOR ( 'NONE', #982, 1000.000000000000000 ) ;
#682 = PRODUCT_CONTEXT ( 'NONE', #560, 'mechanical' ) ;
#683 =( LENGTH_UNIT ( ) NAMED_UNIT ( * ) SI_UNIT ( .MILLI., .METRE. ) );
#684 = CIRCLE ( 'NONE', #975, 0.5999999999999999778 ) ;
#685 = STYLED_ITEM ( 'NONE', ( #1037 ), #85 ) ;
#686 = CARTESIAN_POINT ( 'NONE',  ( -4.000000000000000000, 0.000000000000000000, 2.286000000000000032 ) ) ;
#687 = DIRECTION ( 'NONE',  ( -1.000000000000000000, 0.000000000000000000, 0.000000000000000000 ) ) ;
#688 = PRESENTATION_LAYER_ASSIGNMENT (  '', '', ( #20 ) ) ;
#689 = ORIENTED_EDGE ( 'NONE', *, *, #981, .T. ) ;
#690 = CARTESIAN_POINT ( 'NONE',  ( -1.750000000000000666, 4.850000000000000533, -2.286000000000000032 ) ) ;
#691 = LINE ( 'NONE', #686, #153 ) ;
#692 = VERTEX_POINT ( 'NONE', #990 ) ;
#693 = EDGE_CURVE ( 'NONE', #349, #253, #277, .T. ) ;
#694 = CARTESIAN_POINT ( 'NONE',  ( 2.999999999999864109, 6.017322057294549609E-14, -8.950628149161543590 ) ) ;
#695 = CARTESIAN_POINT ( 'NONE',  ( -2.100000000000000089, 0.000000000000000000, 2.286000000000000032 ) ) ;
#696 = ORIENTED_EDGE ( 'NONE', *, *, #341, .T. ) ;
#697 = PRODUCT_RELATED_PRODUCT_CATEGORY ( 'part', '', ( #815 ) ) ;
#698 = CARTESIAN_POINT ( 'NONE',  ( -0.1021126760563414587, 2.239436619718307320, -1.119718309859154326 ) ) ;
#699 = ORIENTED_EDGE ( 'NONE', *, *, #313, .T. ) ;
#700 = AXIS2_PLACEMENT_3D ( 'NONE', #1166, #335, #427 ) ;
#701 = ADVANCED_FACE ( 'NONE', ( #514 ), #551, .F. ) ;
#702 = FILL_AREA_STYLE ('',( #520 ) ) ;
#703 = LINE ( 'NONE', #536, #542 ) ;
#704 = ORIENTED_EDGE ( 'NONE', *, *, #240, .F. ) ;
#705 = CARTESIAN_POINT ( 'NONE',  ( -1.750000000000000666, 4.850000000000000533, -2.286000000000000032 ) ) ;
#706 = VERTEX_POINT ( 'NONE', #649 ) ;
#707 = PRODUCT_DEFINITION_SHAPE ( 'NONE', 'NONE',  #1179 ) ;
#708 = CARTESIAN_POINT ( 'NONE',  ( -1.750000000000000666, 4.850000000000000533, -2.286000000000000032 ) ) ;
#709 = FACE_OUTER_BOUND ( 'NONE', #55, .T. ) ;
#710 = DIRECTION ( 'NONE',  ( 0.000000000000000000, 0.000000000000000000, -1.000000000000000000 ) ) ;
#711 = CARTESIAN_POINT ( 'NONE',  ( -0.1021126760563414448, 3.826721060716899529E-16, 1.119718309859154104 ) ) ;
#712 = AXIS2_PLACEMENT_3D ( 'NONE', #318, #586, #962 ) ;
#713 = ORIENTED_EDGE ( 'NONE', *, *, #615, .F. ) ;
#714 = VECTOR ( 'NONE', #491, 1000.000000000000000 ) ;
#715 = VECTOR ( 'NONE', #64, 1000.000000000000000 ) ;
#716 = FACE_OUTER_BOUND ( 'NONE', #970, .T. ) ;
#717 = CARTESIAN_POINT ( 'NONE',  ( -1.750000000000000444, 3.350000000000000089, 2.286000000000000032 ) ) ;
#718 = ITEM_DEFINED_TRANSFORMATION ( 'NONE', 'NONE', #100,  #700 ) ;
#719 = FACE_OUTER_BOUND ( 'NONE', #75, .T. ) ;
#720 = PRODUCT ( '228-2500-448', '228-2500-448', '', ( #682 ) ) ;
#721 = ORIENTED_EDGE ( 'NONE', *, *, #789, .F. ) ;
#722 = UNCERTAINTY_MEASURE_WITH_UNIT (LENGTH_MEASURE( 1.000000000000000082E-05 ), #198, 'distance_accuracy_value', 'NONE');
#723 = CARTESIAN_POINT ( 'NONE',  ( 752.5500000000000682, 0.000000000000000000, 0.000000000000000000 ) ) ;
#724 = DIRECTION ( 'NONE',  ( -1.000000000000000000, -0.000000000000000000, -0.000000000000000000 ) ) ;
#725 = AXIS2_PLACEMENT_3D ( 'NONE', #392, #585, #757 ) ;
#726 = CARTESIAN_POINT ( 'NONE',  ( 0.5363649185556312871, 7.481637635605896897, 0.3121211006322544557 ) ) ;
#727 = ORIENTED_EDGE ( 'NONE', *, *, #519, .F. ) ;
#728 = EDGE_CURVE ( 'NONE', #205, #199, #462, .T. ) ;
#729 = EDGE_CURVE ( 'NONE', #383, #1161, #200, .T. ) ;
#730 = CARTESIAN_POINT ( 'NONE',  ( 0.000000000000000000, 0.000000000000000000, 2.286000000000000032 ) ) ;
#731 = DIRECTION ( 'NONE',  ( 1.000000000000000000, 0.000000000000000000, -0.000000000000000000 ) ) ;
#732 = PRODUCT_RELATED_PRODUCT_CATEGORY ( 'part', '', ( #530 ) ) ;
#733 = CARTESIAN_POINT ( 'NONE',  ( -2.100000000000000089, 0.000000000000000000, 2.286000000000000032 ) ) ;
#734 = ORIENTED_EDGE ( 'NONE', *, *, #885, .F. ) ;
#735 = PRODUCT_DEFINITION_CONTEXT ( 'detailed design', #107, 'design' ) ;
#736 = ORIENTED_EDGE ( 'NONE', *, *, #98, .T. ) ;
#737 = AXIS2_PLACEMENT_3D ( 'NONE', #892, #818, #183 ) ;
#738 = CARTESIAN_POINT ( 'NONE',  ( 4.199999999999995737, 2.449293598294706414E-16, -2.000000000000000000 ) ) ;
#739 = DIRECTION ( 'NONE',  ( -0.000000000000000000, -0.000000000000000000, -1.000000000000000000 ) ) ;
#740 = AXIS2_PLACEMENT_3D ( 'NONE', #463, #1078, #827 ) ;
#741 = CARTESIAN_POINT ( 'NONE',  ( 0.5000000000000004441, 2.449293598294706414E-16, -2.000000000000000000 ) ) ;
#742 = ORIENTED_EDGE ( 'NONE', *, *, #96, .F. ) ;
#743 = CARTESIAN_POINT ( 'NONE',  ( 4.000000000000000000, 0.000000000000000000, 2.286000000000000032 ) ) ;
#744 = PRODUCT_CONTEXT ( 'NONE', #608, 'mechanical' ) ;
#745 = DIRECTION ( 'NONE',  ( 0.000000000000000000, 1.000000000000000000, 0.000000000000000000 ) ) ;
#746 = CARTESIAN_POINT ( 'NONE',  ( -0.1021126760563413477, -3.260563380281691348, -1.630281690140845008 ) ) ;
#747 = DIRECTION ( 'NONE',  ( 1.000000000000000000, 0.000000000000000000, 0.000000000000000000 ) ) ;
#748 = ORIENTED_EDGE ( 'NONE', *, *, #429, .T. ) ;
#749 = CARTESIAN_POINT ( 'NONE',  ( 2.999999999999984013, 5.161492250957792086E-29, 0.9499999999999722000 ) ) ;
#750 =( NAMED_UNIT ( * ) PLANE_ANGLE_UNIT ( ) SI_UNIT ( $, .RADIAN. ) );
#751 = DIRECTION ( 'NONE',  ( 1.445602896647339163E-16, -1.000000000000000000, 0.000000000000000000 ) ) ;
#752 =( REPRESENTATION_RELATIONSHIP ('NONE','NONE', #472, #323 ) REPRESENTATION_RELATIONSHIP_WITH_TRANSFORMATION ( #1002 )SHAPE_REPRESENTATION_RELATIONSHIP( ) );
#753 = ORIENTED_EDGE ( 'NONE', *, *, #395, .F. ) ;
#754 = ORIENTED_EDGE ( 'NONE', *, *, #896, .F. ) ;
#755 = DIRECTION ( 'NONE',  ( 5.021567956775114176E-15, 0.000000000000000000, -1.000000000000000000 ) ) ;
#756 = CIRCLE ( 'NONE', #1071, 0.9499999999999723110 ) ;
#757 = DIRECTION ( 'NONE',  ( 0.000000000000000000, -1.000000000000000000, -5.551115123125782702E-17 ) ) ;
#758 = FACE_BOUND ( 'NONE', #160, .T. ) ;
#759 = AXIS2_PLACEMENT_3D ( 'NONE', #1132, #325, #43 ) ;
#760 = ORIENTED_EDGE ( 'NONE', *, *, #186, .T. ) ;
#761 = ORIENTED_EDGE ( 'NONE', *, *, #779, .F. ) ;
#762 = CYLINDRICAL_SURFACE ( 'NONE', #567, 7.500000000000000000 ) ;
#763 = DIRECTION ( 'NONE',  ( 0.000000000000000000, 0.000000000000000000, 1.000000000000000000 ) ) ;
#764 = DIRECTION ( 'NONE',  ( 0.000000000000000000, 0.000000000000000000, -1.000000000000000000 ) ) ;
#765 = ADVANCED_FACE ( 'NONE', ( #124 ), #1008, .F. ) ;
#766 = EDGE_LOOP ( 'NONE', ( #736, #541, #344, #704 ) ) ;
#767 = FACE_OUTER_BOUND ( 'NONE', #214, .T. ) ;
#768 = ADVANCED_FACE ( 'NONE', ( #219, #855 ), #584, .F. ) ;
#769 = CARTESIAN_POINT ( 'NONE',  ( 2.100000000000000089, 2.571758278209441957E-16, 2.286000000000000032 ) ) ;
#770 = CARTESIAN_POINT ( 'NONE',  ( 7.347880794884117764E-17, 7.500000000000000000, 0.5999999999999999778 ) ) ;
#771 = ORIENTED_EDGE ( 'NONE', *, *, #397, .T. ) ;
#772 = CARTESIAN_POINT ( 'NONE',  ( 0.2687352311006459549, -3.349207041552663355, -1.674603520776331678 ) ) ;
#773 = PRESENTATION_STYLE_ASSIGNMENT (( #677 ) ) ;
#774 = VECTOR ( 'NONE', #844, 1000.000000000000000 ) ;
#775 = APPLICATION_CONTEXT ( 'automotive_design' ) ;
#776 = AXIS2_PLACEMENT_3D ( 'NONE', #121, #841, #28 ) ;
#777 =( NAMED_UNIT ( * ) PLANE_ANGLE_UNIT ( ) SI_UNIT ( $, .RADIAN. ) );
#778 = VERTEX_POINT ( 'NONE', #749 ) ;
#779 = EDGE_CURVE ( 'NONE', #17, #522, #25, .T. ) ;
#780 = ADVANCED_FACE ( 'NONE', ( #838 ), #656, .F. ) ;
#781 = DIRECTION ( 'NONE',  ( 0.000000000000000000, 0.000000000000000000, 1.000000000000000000 ) ) ;
#782 = DIRECTION ( 'NONE',  ( -1.000000000000000000, -0.000000000000000000, 0.000000000000000000 ) ) ;
#783 = ORIENTED_EDGE ( 'NONE', *, *, #615, .T. ) ;
#784 = CARTESIAN_POINT ( 'NONE',  ( 0.2687352311006459549, 3.349207041552663355, 1.674603520776331234 ) ) ;
#785 = DIRECTION ( 'NONE',  ( 1.000000000000000000, 0.000000000000000000, 0.000000000000000000 ) ) ;
#786 = CARTESIAN_POINT ( 'NONE',  ( 0.000000000000000000, 0.000000000000000000, -2.286000000000000032 ) ) ;
#787 =( NAMED_UNIT ( * ) SI_UNIT ( $, .STERADIAN. ) SOLID_ANGLE_UNIT ( ) );
#788 = ORIENTED_EDGE ( 'NONE', *, *, #852, .F. ) ;
#789 = EDGE_CURVE ( 'NONE', #336, #828, #418, .T. ) ;
#790 = DIRECTION ( 'NONE',  ( 0.000000000000000000, 0.000000000000000000, 1.000000000000000000 ) ) ;
#791 = COLOUR_RGB ( '',0.1450980392156862586, 0.1568627450980392135, 0.1647058823529411742 ) ;
#792 = ORIENTED_EDGE ( 'NONE', *, *, #728, .F. ) ;
#793 = PRESENTATION_STYLE_ASSIGNMENT (( #254 ) ) ;
#794 = DIRECTION ( 'NONE',  ( -1.000000000000000000, 0.000000000000000000, 0.000000000000000000 ) ) ;
#795 = VERTEX_POINT ( 'NONE', #931 ) ;
#796 = SHAPE_REPRESENTATION ( '228-2500-449 Rev1_228-2500-449', ( #700 ), #965 ) ;
#797 = DIRECTION ( 'NONE',  ( 0.000000000000000000, 0.000000000000000000, 1.000000000000000000 ) ) ;
#798 = CARTESIAN_POINT ( 'NONE',  ( 2.999999999999993339, 1.163414459190956721E-16, -0.9499999999999724221 ) ) ;
#799 = CARTESIAN_POINT ( 'NONE',  ( 0.000000000000000000, 0.000000000000000000, -2.286000000000000032 ) ) ;
#800 = ORIENTED_EDGE ( 'NONE', *, *, #444, .F. ) ;
#801 = LINE ( 'NONE', #738, #164 ) ;
#802 = DIRECTION ( 'NONE',  ( 0.000000000000000000, -1.224646799147353947E-16, 1.000000000000000000 ) ) ;
#803 = APPLICATION_PROTOCOL_DEFINITION ( 'draft international standard', 'automotive_design', 1998, #655 ) ;
#804 = CARTESIAN_POINT ( 'NONE',  ( 0.9062499999999973355, 1.084202172485504434E-16, 1.375000000000000000 ) ) ;
#805 = CIRCLE ( 'NONE', #207, 0.5999999999999999778 ) ;
#806 = CIRCLE ( 'NONE', #946, 4.000000000000000000 ) ;
#807 = ORIENTED_EDGE ( 'NONE', *, *, #641, .T. ) ;
#808 = AXIS2_PLACEMENT_3D ( 'NONE', #1013, #577, #1026 ) ;
#809 =( REPRESENTATION_RELATIONSHIP ('NONE','NONE', #323, #796 ) REPRESENTATION_RELATIONSHIP_WITH_TRANSFORMATION ( #718 )SHAPE_REPRESENTATION_RELATIONSHIP( ) );
#810 = FACE_OUTER_BOUND ( 'NONE', #156, .T. ) ;
#811 = EDGE_CURVE ( 'NONE', #778, #1168, #756, .T. ) ;
#812 = FACE_OUTER_BOUND ( 'NONE', #572, .T. ) ;
#813 = PRODUCT_CONTEXT ( 'NONE', #655, 'mechanical' ) ;
#814 = CARTESIAN_POINT ( 'NONE',  ( 4.000000000000000000, 0.000000000000000000, 2.286000000000000032 ) ) ;
#815 = PRODUCT ( '228-2500-448-01 Rev1_228-2500-448-01', '228-2500-448-01 Rev1_228-2500-448-01', '', ( #547 ) ) ;
#816 = EDGE_LOOP ( 'NONE', ( #314, #937 ) ) ;
#817 = UNCERTAINTY_MEASURE_WITH_UNIT (LENGTH_MEASURE( 1.000000000000000082E-05 ), #92, 'distance_accuracy_value', 'NONE');
#818 = DIRECTION ( 'NONE',  ( -1.000000000000000000, 0.000000000000000000, 0.000000000000000000 ) ) ;
#819 = DIRECTION ( 'NONE',  ( 0.000000000000000000, 0.000000000000000000, -1.000000000000000000 ) ) ;
#820 = DIRECTION ( 'NONE',  ( -0.000000000000000000, -0.000000000000000000, -1.000000000000000000 ) ) ;
#821 = CARTESIAN_POINT ( 'NONE',  ( -0.2000000000000057288, 9.184850993605149670E-17, 0.7500000000000000000 ) ) ;
#822 = CARTESIAN_POINT ( 'NONE',  ( 2.999999999999864109, 6.017322057294549609E-14, -6.162975822039154730E-30 ) ) ;
#823 = SURFACE_STYLE_FILL_AREA ( #989 ) ;
#824 = ORIENTED_EDGE ( 'NONE', *, *, #37, .F. ) ;
#825 = CARTESIAN_POINT ( 'NONE',  ( 1.749999999999999112, 3.350000000000000089, -2.286000000000000032 ) ) ;
#826 = ADVANCED_FACE ( 'NONE', ( #108 ), #31, .T. ) ;
#827 = DIRECTION ( 'NONE',  ( 0.000000000000000000, 0.000000000000000000, -1.000000000000000000 ) ) ;
#828 = VERTEX_POINT ( 'NONE', #215 ) ;
#829 = ORIENTED_EDGE ( 'NONE', *, *, #270, .T. ) ;
#830 = CARTESIAN_POINT ( 'NONE',  ( 0.2687352311006459549, 0.000000000000000000, 1.674603520776331678 ) ) ;
#831 = EDGE_CURVE ( 'NONE', #1168, #828, #916, .T. ) ;
#832 = VECTOR ( 'NONE', #242, 1000.000000000000000 ) ;
#833 = CARTESIAN_POINT ( 'NONE',  ( 0.3136945355869887875, 7.494256357157092374, -0.5348752566402069641 ) ) ;
#834 = APPLICATION_CONTEXT ( 'automotive_design' ) ;
#835 = ORIENTED_EDGE ( 'NONE', *, *, #883, .F. ) ;
#836 = DIRECTION ( 'NONE',  ( 0.000000000000000000, 0.000000000000000000, 1.000000000000000000 ) ) ;
#837 = EDGE_LOOP ( 'NONE', ( #923, #334, #1007, #461 ) ) ;
#838 = FACE_OUTER_BOUND ( 'NONE', #466, .T. ) ;
#839 = DIRECTION ( 'NONE',  ( 0.000000000000000000, 0.000000000000000000, -1.000000000000000000 ) ) ;
#840 = DIRECTION ( 'NONE',  ( 1.000000000000000000, 0.000000000000000000, 0.000000000000000000 ) ) ;
#841 = DIRECTION ( 'NONE',  ( 1.000000000000000000, 0.000000000000000000, 0.000000000000000000 ) ) ;
#842 = SURFACE_STYLE_USAGE ( .BOTH. , #647 ) ;
#843 = ORIENTED_EDGE ( 'NONE', *, *, #395, .T. ) ;
#844 = DIRECTION ( 'NONE',  ( -0.000000000000000000, -0.000000000000000000, -1.000000000000000000 ) ) ;
#845 = CARTESIAN_POINT ( 'NONE',  ( 0.000000000000000000, 0.000000000000000000, 0.000000000000000000 ) ) ;
#846 = FACE_OUTER_BOUND ( 'NONE', #886, .T. ) ;
#847 = ORIENTED_EDGE ( 'NONE', *, *, #501, .T. ) ;
#848 = VERTEX_POINT ( 'NONE', #486 ) ;
#849 = CARTESIAN_POINT ( 'NONE',  ( -0.1586050711800802426, 7.500000000000000000, -0.5999999999999999778 ) ) ;
#850 = VECTOR ( 'NONE', #202, 1000.000000000000000 ) ;
#851 = FACE_OUTER_BOUND ( 'NONE', #508, .T. ) ;
#852 = EDGE_CURVE ( 'NONE', #339, #706, #557, .T. ) ;
#853 = CIRCLE ( 'NONE', #337, 0.9499999999999999556 ) ;
#854 = ORIENTED_EDGE ( 'NONE', *, *, #118, .T. ) ;
#855 = FACE_OUTER_BOUND ( 'NONE', #816, .T. ) ;
#856 = DIRECTION ( 'NONE',  ( 0.000000000000000000, 0.000000000000000000, 1.000000000000000000 ) ) ;
#857 = CYLINDRICAL_SURFACE ( 'NONE', #587, 0.7500000000000000000 ) ;
#858 =( NAMED_UNIT ( * ) SI_UNIT ( $, .STERADIAN. ) SOLID_ANGLE_UNIT ( ) );
#859 = ORIENTED_EDGE ( 'NONE', *, *, #883, .T. ) ;
#860 = CARTESIAN_POINT ( 'NONE',  ( 0.2687352311006460659, -2.550792958447335668, 1.275396479223668056 ) ) ;
#861 = PRODUCT_DEFINITION_FORMATION_WITH_SPECIFIED_SOURCE ( 'ANY', '', #720, .NOT_KNOWN. ) ;
#862 = DIRECTION ( 'NONE',  ( 0.000000000000000000, 0.000000000000000000, 1.000000000000000000 ) ) ;
#863 = CARTESIAN_POINT ( 'NONE',  ( -1.750000000000000666, 4.850000000000000533, -2.286000000000000032 ) ) ;
#864 = FILL_AREA_STYLE ('',( #870 ) ) ;
#865 = ORIENTED_EDGE ( 'NONE', *, *, #981, .F. ) ;
#866 = AXIS2_PLACEMENT_3D ( 'NONE', #97, #1102, #189 ) ;
#867 = ADVANCED_FACE ( 'NONE', ( #402, #767 ), #762, .T. ) ;
#868 = FACE_OUTER_BOUND ( 'NONE', #86, .T. ) ;
#869 = AXIS2_PLACEMENT_3D ( 'NONE', #1054, #540, #1060 ) ;
#870 = FILL_AREA_STYLE_COLOUR ( '', #791 ) ;
#871 = ORIENTED_EDGE ( 'NONE', *, *, #37, .T. ) ;
#872 = DIRECTION ( 'NONE',  ( -0.000000000000000000, -0.000000000000000000, 1.000000000000000000 ) ) ;
#873 = LINE ( 'NONE', #333, #715 ) ;
#874 = ADVANCED_FACE ( 'NONE', ( #223 ), #633, .F. ) ;
#875 = VERTEX_POINT ( 'NONE', #142 ) ;
#876 = AXIS2_PLACEMENT_3D ( 'NONE', #480, #220, #579 ) ;
#877 = LINE ( 'NONE', #74, #212 ) ;
#878 = PRODUCT_DEFINITION_SHAPE ( 'NONE', 'NONE',  #611 ) ;
#879 = ORIENTED_EDGE ( 'NONE', *, *, #693, .F. ) ;
#880 = CIRCLE ( 'NONE', #1152, 0.9062499999999998890 ) ;
#881 = CIRCLE ( 'NONE', #350, 0.7500000000000000000 ) ;
#882 = CARTESIAN_POINT ( 'NONE',  ( 0.2499999999999986955, -2.002687271846017552E-16, -0.7499999999999983347 ) ) ;
#883 = EDGE_CURVE ( 'NONE', #706, #238, #503, .T. ) ;
#884 = COLOUR_RGB ( '',0.1450980392156862586, 0.1568627450980392135, 0.1647058823529411742 ) ;
#885 = EDGE_CURVE ( 'NONE', #1025, #1095, #664, .T. ) ;
#886 = EDGE_LOOP ( 'NONE', ( #381, #244, #259, #45 ) ) ;
#887 = DIRECTION ( 'NONE',  ( -1.000000000000000000, -0.000000000000000000, -0.000000000000000000 ) ) ;
#888 = CARTESIAN_POINT ( 'NONE',  ( -0.1021126760563414587, 2.239436619718308208, 1.119718309859153438 ) ) ;
#889 = ORIENTED_EDGE ( 'NONE', *, *, #61, .T. ) ;
#890 =( REPRESENTATION_RELATIONSHIP ('NONE','NONE', #472, #309 ) REPRESENTATION_RELATIONSHIP_WITH_TRANSFORMATION ( #1106 )SHAPE_REPRESENTATION_RELATIONSHIP( ) );
#891 = PRESENTATION_LAYER_ASSIGNMENT (  '', '', ( #125 ) ) ;
#892 = CARTESIAN_POINT ( 'NONE',  ( 0.5000000000000004441, 0.000000000000000000, 0.000000000000000000 ) ) ;
#893 = CARTESIAN_POINT ( 'NONE',  ( 4.000000000000003553, 6.017322057294549609E-14, -6.162975822039154730E-30 ) ) ;
#894 = CARTESIAN_POINT ( 'NONE',  ( 0.2499999999999988065, 5.982789369074922193E-16, 2.000000000000001332 ) ) ;
#895 = ORIENTED_EDGE ( 'NONE', *, *, #831, .F. ) ;
#896 = EDGE_CURVE ( 'NONE', #17, #180, #176, .T. ) ;
#897 = DIRECTION ( 'NONE',  ( -0.000000000000000000, -0.000000000000000000, 1.000000000000000000 ) ) ;
#898 = CARTESIAN_POINT ( 'NONE',  ( 0.000000000000000000, 7.500000000000000000, -0.5999999999999999778 ) ) ;
#899 = SHAPE_DEFINITION_REPRESENTATION ( #617, #323 ) ;
#900 = CARTESIAN_POINT ( 'NONE',  ( -4.000000000000000000, 6.344288770224760121, -2.286000000000000032 ) ) ;
#901 = ORIENTED_EDGE ( 'NONE', *, *, #789, .T. ) ;
#902 = AXIS2_PLACEMENT_3D ( 'NONE', #227, #312, #507 ) ;
#903 = PRODUCT_DEFINITION ( 'UNKNOWN', '', #578, #735 ) ;
#904 = COLOUR_RGB ( '',0.1450980392156862586, 0.1568627450980392135, 0.1647058823529411742 ) ;
#905 = CARTESIAN_POINT ( 'NONE',  ( 0.2687352311006459549, -2.050797841559623033E-16, -1.674603520776331678 ) ) ;
#906 = PLANE ( 'NONE',  #927 ) ;
#907 = LINE ( 'NONE', #665, #1016 ) ;
#908 = EDGE_CURVE ( 'NONE', #537, #1051, #247, .T. ) ;
#909 = CARTESIAN_POINT ( 'NONE',  ( 2.100000000000000089, 2.571758278209441957E-16, -2.286000000000000032 ) ) ;
#910 = CARTESIAN_POINT ( 'NONE',  ( 0.2687352311006460659, 2.550792958447336112, 1.275396479223667390 ) ) ;
#911 = CARTESIAN_POINT ( 'NONE',  ( 0.5000000000000004441, 0.000000000000000000, 0.000000000000000000 ) ) ;
#912 = CARTESIAN_POINT ( 'NONE',  ( 0.6000563111324564991, 7.475956957250750712, 0.1563901809328014925 ) ) ;
#913 = ORIENTED_EDGE ( 'NONE', *, *, #554, .T. ) ;
#914 = SHAPE_REPRESENTATION_RELATIONSHIP ( 'NONE' , 'NONE' ,  #796, #1092 ) ;
#915 = EDGE_LOOP ( 'NONE', ( #432, #871, #468, #376 ) ) ;
#916 = LINE ( 'NONE', #573, #714 ) ;
#917 = CONTEXT_DEPENDENT_SHAPE_REPRESENTATION ( #1142, #707 ) ;
#918 = CARTESIAN_POINT ( 'NONE',  ( -752.5500000000000682, 0.000000000000000000, 0.000000000000000000 ) ) ;
#919 = AXIS2_PLACEMENT_3D ( 'NONE', #625, #434, #428 ) ;
#920 = ADVANCED_BREP_SHAPE_REPRESENTATION ( '', ( #109, #700 ), #1032 ) ;
#921 = CARTESIAN_POINT ( 'NONE',  ( -0.1021126760563413477, -3.260563380281691348, 1.630281690140846118 ) ) ;
#922 = DIRECTION ( 'NONE',  ( 0.000000000000000000, 0.000000000000000000, 1.000000000000000000 ) ) ;
#923 = ORIENTED_EDGE ( 'NONE', *, *, #410, .F. ) ;
#924 = CIRCLE ( 'NONE', #512, 9.900628149161503799 ) ;
#925 = CARTESIAN_POINT ( 'NONE',  ( -4.000000000000000000, 0.000000000000000000, 2.286000000000000032 ) ) ;
#926 = VECTOR ( 'NONE', #594, 1000.000000000000000 ) ;
#927 = AXIS2_PLACEMENT_3D ( 'NONE', #443, #4, #819 ) ;
#928 = CARTESIAN_POINT ( 'NONE',  ( -1.750000000000000444, 3.350000000000000089, -2.286000000000000032 ) ) ;
#929 = CARTESIAN_POINT ( 'NONE',  ( -0.1021126760563414587, -2.239436619718308208, -1.119718309859153660 ) ) ;
#930 = VERTEX_POINT ( 'NONE', #545 ) ;
#931 = CARTESIAN_POINT ( 'NONE',  ( -2.100000000000000089, 0.000000000000000000, -2.286000000000000032 ) ) ;
#932 = APPLICATION_CONTEXT ( 'automotive_design' ) ;
#933 = FACE_OUTER_BOUND ( 'NONE', #147, .T. ) ;
#934 = CYLINDRICAL_SURFACE ( 'NONE', #759, 0.9499999999999999556 ) ;
#935 = CARTESIAN_POINT ( 'NONE',  ( 0.2499999999999986955, -1.836970198721025990E-16, -0.7499999999999983347 ) ) ;
#936 = UNCERTAINTY_MEASURE_WITH_UNIT (LENGTH_MEASURE( 1.000000000000000082E-05 ), #135, 'distance_accuracy_value', 'NONE');
#937 = ORIENTED_EDGE ( 'NONE', *, *, #453, .F. ) ;
#938 = CARTESIAN_POINT ( 'NONE',  ( -0.5346667145442909330, 7.481739413329378863, 0.3140147453012965828 ) ) ;
#939 = EDGE_CURVE ( 'NONE', #930, #238, #1020, .T. ) ;
#940 = EDGE_CURVE ( 'NONE', #253, #199, #353, .T. ) ;
#941 = CARTESIAN_POINT ( 'NONE',  ( 0.2500000000000002220, 2.449293598294706414E-16, -2.000000000000000000 ) ) ;
#942 = FILL_AREA_STYLE ('',( #44 ) ) ;
#943 = EDGE_LOOP ( 'NONE', ( #652, #1110, #1012, #983 ) ) ;
#944 = CARTESIAN_POINT ( 'NONE',  ( -0.3139544922126061843, 7.494244846647556635, -0.5347286943501048384 ) ) ;
#945 = PRODUCT_DEFINITION ( 'UNKNOWN', '', #1165, #637 ) ;
#946 = AXIS2_PLACEMENT_3D ( 'NONE', #131, #1139, #493 ) ;
#947 =( LENGTH_UNIT ( ) NAMED_UNIT ( * ) SI_UNIT ( .MILLI., .METRE. ) );
#948 = FACE_OUTER_BOUND ( 'NONE', #1019, .T. ) ;
#949 = AXIS2_PLACEMENT_3D ( 'NONE', #145, #840, #264 ) ;
#950 = ORIENTED_EDGE ( 'NONE', *, *, #779, .T. ) ;
#951 = CARTESIAN_POINT ( 'NONE',  ( 0.2687352311006460659, 0.000000000000000000, 1.275396479223668056 ) ) ;
#952 = SHAPE_DEFINITION_REPRESENTATION ( #609, #472 ) ;
#953 = DIRECTION ( 'NONE',  ( 0.000000000000000000, 0.000000000000000000, 1.000000000000000000 ) ) ;
#954 = PLANE ( 'NONE',  #949 ) ;
#955 = CARTESIAN_POINT ( 'NONE',  ( 1.749999999999999334, 4.850000000000000533, -2.286000000000000032 ) ) ;
#956 = EDGE_CURVE ( 'NONE', #1117, #1168, #924, .T. ) ;
#957 = ORIENTED_EDGE ( 'NONE', *, *, #429, .F. ) ;
#958 =( REPRESENTATION_RELATIONSHIP ('NONE','NONE', #472, #309 ) REPRESENTATION_RELATIONSHIP_WITH_TRANSFORMATION ( #535 )SHAPE_REPRESENTATION_RELATIONSHIP( ) );
#959 = SURFACE_STYLE_FILL_AREA ( #420 ) ;
#960 = ORIENTED_EDGE ( 'NONE', *, *, #76, .T. ) ;
#961 = CIRCLE ( 'NONE', #394, 0.8993686908363700550 ) ;
#962 = DIRECTION ( 'NONE',  ( 5.021567956775114176E-15, 0.000000000000000000, -1.000000000000000000 ) ) ;
#963 = AXIS2_PLACEMENT_3D ( 'NONE', #279, #618, #643 ) ;
#964 = AXIS2_PLACEMENT_3D ( 'NONE', #1024, #575, #237 ) ;
#965 =( GEOMETRIC_REPRESENTATION_CONTEXT ( 3 ) GLOBAL_UNCERTAINTY_ASSIGNED_CONTEXT ( ( #722 ) ) GLOBAL_UNIT_ASSIGNED_CONTEXT ( ( #198, #467, #1006 ) ) REPRESENTATION_CONTEXT ( 'NONE', 'WORKASPACE' ) );
#966 = ORIENTED_EDGE ( 'NONE', *, *, #1098, .F. ) ;
#967 =( NAMED_UNIT ( * ) PLANE_ANGLE_UNIT ( ) SI_UNIT ( $, .RADIAN. ) );
#968 = DIRECTION ( 'NONE',  ( 0.000000000000000000, -1.000000000000000000, 0.000000000000000000 ) ) ;
#969 = AXIS2_PLACEMENT_3D ( 'NONE', #477, #836, #747 ) ;
#970 = EDGE_LOOP ( 'NONE', ( #699, #829, #783, #950 ) ) ;
#971 = EDGE_CURVE ( 'NONE', #692, #654, #1172, .T. ) ;
#972 = DIRECTION ( 'NONE',  ( 0.000000000000000000, 0.000000000000000000, 1.000000000000000000 ) ) ;
#973 = ORIENTED_EDGE ( 'NONE', *, *, #98, .F. ) ;
#974 = CARTESIAN_POINT ( 'NONE',  ( 4.199999999999995737, 0.000000000000000000, 0.000000000000000000 ) ) ;
#975 = AXIS2_PLACEMENT_3D ( 'NONE', #723, #1169, #351 ) ;
#976 = DIRECTION ( 'NONE',  ( 1.000000000000000000, 0.000000000000000000, 0.000000000000000000 ) ) ;
#977 = STYLED_ITEM ( 'NONE', ( #149 ), #109 ) ;
#978 = ORIENTED_EDGE ( 'NONE', *, *, #330, .T. ) ;
#979 = CARTESIAN_POINT ( 'NONE',  ( 0.5000000000000920375, 1.900000000000129585, -0.9500000000000651257 ) ) ;
#980 = CARTESIAN_POINT ( 'NONE',  ( 4.199999999999995737, 0.000000000000000000, 2.000000000000000000 ) ) ;
#981 = EDGE_CURVE ( 'NONE', #692, #30, #1000, .T. ) ;
#982 = DIRECTION ( 'NONE',  ( 1.000000000000000000, 0.000000000000000000, 0.000000000000000000 ) ) ;
#983 = ORIENTED_EDGE ( 'NONE', *, *, #1067, .T. ) ;
#984 = EDGE_CURVE ( 'NONE', #30, #848, #1156, .T. ) ;
#985 = FACE_BOUND ( 'NONE', #389, .T. ) ;
#986 = CARTESIAN_POINT ( 'NONE',  ( -4.000000000000000000, 0.000000000000000000, -2.286000000000000032 ) ) ;
#987 = CARTESIAN_POINT ( 'NONE',  ( 4.199999999999995737, 0.000000000000000000, 0.000000000000000000 ) ) ;
#988 = ORIENTED_EDGE ( 'NONE', *, *, #140, .T. ) ;
#989 = FILL_AREA_STYLE ('',( #631 ) ) ;
#990 = CARTESIAN_POINT ( 'NONE',  ( 752.5500000000000682, 7.347880794884117764E-17, -0.5999999999999999778 ) ) ;
#991 = DIRECTION ( 'NONE',  ( 0.000000000000000000, -1.000000000000000000, 0.000000000000000000 ) ) ;
#992 = EDGE_CURVE ( 'NONE', #563, #1051, #527, .T. ) ;
#993 = DIRECTION ( 'NONE',  ( 0.000000000000000000, 0.000000000000000000, -1.000000000000000000 ) ) ;
#994 = VECTOR ( 'NONE', #283, 1000.000000000000000 ) ;
#995 = MECHANICAL_DESIGN_GEOMETRIC_PRESENTATION_REPRESENTATION (  '', ( #111 ), #1018 ) ;
#996 = CARTESIAN_POINT ( 'NONE',  ( -0.1021126760563413616, -2.720500745945820850E-16, -1.630281690140845896 ) ) ;
#997 = AXIS2_PLACEMENT_3D ( 'NONE', #799, #972, #976 ) ;
#998 = CIRCLE ( 'NONE', #230, 2.100000000000000089 ) ;
#999 = CARTESIAN_POINT ( 'NONE',  ( 0.5000000000000918154, 3.999999999999869438, -1.999999999999935385 ) ) ;
#1000 = LINE ( 'NONE', #1100, #401 ) ;
#1001 = VECTOR ( 'NONE', #651, 1000.000000000000000 ) ;
#1002 = ITEM_DEFINED_TRANSFORMATION ( 'NONE', 'NONE', #1082,  #483 ) ;
#1003 = DIRECTION ( 'NONE',  ( 0.000000000000000000, 0.000000000000000000, 1.000000000000000000 ) ) ;
#1004 = PLANE ( 'NONE',  #776 ) ;
#1005 = UNCERTAINTY_MEASURE_WITH_UNIT (LENGTH_MEASURE( 1.000000000000000082E-05 ), #368, 'distance_accuracy_value', 'NONE');
#1006 =( NAMED_UNIT ( * ) SI_UNIT ( $, .STERADIAN. ) SOLID_ANGLE_UNIT ( ) );
#1007 = ORIENTED_EDGE ( 'NONE', *, *, #728, .T. ) ;
#1008 = CYLINDRICAL_SURFACE ( 'NONE', #303, 0.5999999999999999778 ) ;
#1009 = CONTEXT_DEPENDENT_SHAPE_REPRESENTATION ( #958, #435 ) ;
#1010 = CYLINDRICAL_SURFACE ( 'NONE', #371, 2.100000000000000089 ) ;
#1011 = ORIENTED_EDGE ( 'NONE', *, *, #1158, .T. ) ;
#1012 = ORIENTED_EDGE ( 'NONE', *, *, #410, .T. ) ;
#1013 = CARTESIAN_POINT ( 'NONE',  ( 0.000000000000000000, 0.000000000000000000, 2.286000000000000032 ) ) ;
#1014 = SHAPE_REPRESENTATION_RELATIONSHIP ( 'NONE' , 'NONE' ,  #309, #288 ) ;
#1015 = CARTESIAN_POINT ( 'NONE',  ( -1.750000000000000666, 4.850000000000000533, 2.286000000000000032 ) ) ;
#1016 = VECTOR ( 'NONE', #745, 1000.000000000000000 ) ;
#1017 = PRODUCT_DEFINITION_CONTEXT ( 'detailed design', #235, 'design' ) ;
#1018 =( GEOMETRIC_REPRESENTATION_CONTEXT ( 3 ) GLOBAL_UNCERTAINTY_ASSIGNED_CONTEXT ( ( #667 ) ) GLOBAL_UNIT_ASSIGNED_CONTEXT ( ( #683, #1144, #580 ) ) REPRESENTATION_CONTEXT ( 'NONE', 'WORKASPACE' ) );
#1019 = EDGE_LOOP ( 'NONE', ( #895, #141, #854, #1143 ) ) ;
#1020 = CIRCLE ( 'NONE', #449, 0.5999999999999999778 ) ;
#1021 = DIRECTION ( 'NONE',  ( 0.000000000000000000, 0.000000000000000000, -1.000000000000000000 ) ) ;
#1022 = CARTESIAN_POINT ( 'NONE',  ( 1.749999999999999334, 4.850000000000000533, 2.286000000000000032 ) ) ;
#1023 = EDGE_CURVE ( 'NONE', #180, #1062, #269, .T. ) ;
#1024 = CARTESIAN_POINT ( 'NONE',  ( 0.000000000000000000, 0.000000000000000000, 2.286000000000000032 ) ) ;
#1025 = VERTEX_POINT ( 'NONE', #539 ) ;
#1026 = DIRECTION ( 'NONE',  ( -1.000000000000000000, 0.000000000000000000, 0.000000000000000000 ) ) ;
#1027 = DIRECTION ( 'NONE',  ( 1.000000000000000000, 0.000000000000000000, 0.000000000000000000 ) ) ;
#1028 = PRESENTATION_STYLE_ASSIGNMENT (( #148 ) ) ;
#1029 = PRODUCT_RELATED_PRODUCT_CATEGORY ( 'part', '', ( #77 ) ) ;
#1030 = CYLINDRICAL_SURFACE ( 'NONE', #869, 4.000000000000000000 ) ;
#1031 = UNCERTAINTY_MEASURE_WITH_UNIT (LENGTH_MEASURE( 1.000000000000000082E-05 ), #26, 'distance_accuracy_value', 'NONE');
#1032 =( GEOMETRIC_REPRESENTATION_CONTEXT ( 3 ) GLOBAL_UNCERTAINTY_ASSIGNED_CONTEXT ( ( #174 ) ) GLOBAL_UNIT_ASSIGNED_CONTEXT ( ( #58, #967, #157 ) ) REPRESENTATION_CONTEXT ( 'NONE', 'WORKASPACE' ) );
#1033 = EDGE_LOOP ( 'NONE', ( #792, #285, #489, #1096 ) ) ;
#1034 = DIRECTION ( 'NONE',  ( -1.000000000000000000, 0.000000000000000000, 0.000000000000000000 ) ) ;
#1035 = DIRECTION ( 'NONE',  ( 1.000000000000000000, 0.000000000000000000, 0.000000000000000000 ) ) ;
#1036 = ADVANCED_FACE ( 'NONE', ( #709 ), #88, .T. ) ;
#1037 = PRESENTATION_STYLE_ASSIGNMENT (( #59 ) ) ;
#1038 =( NAMED_UNIT ( * ) SI_UNIT ( $, .STERADIAN. ) SOLID_ANGLE_UNIT ( ) );
#1039 = ORIENTED_EDGE ( 'NONE', *, *, #313, .F. ) ;
#1040 = CARTESIAN_POINT ( 'NONE',  ( 0.2687352311006459549, -2.050797841559623033E-16, -1.674603520776331678 ) ) ;
#1041 =( REPRESENTATION_RELATIONSHIP ('NONE','NONE', #323, #179 ) REPRESENTATION_RELATIONSHIP_WITH_TRANSFORMATION ( #83 )SHAPE_REPRESENTATION_RELATIONSHIP( ) );
#1042 = AXIS2_PLACEMENT_3D ( 'NONE', #822, #284, #398 ) ;
#1043 = APPLICATION_PROTOCOL_DEFINITION ( 'draft international standard', 'automotive_design', 1998, #235 ) ;
#1044 = DIRECTION ( 'NONE',  ( -1.000000000000000000, 0.000000000000000000, 0.000000000000000000 ) ) ;
#1045 = ADVANCED_FACE ( 'NONE', ( #812 ), #906, .T. ) ;
#1046 = VECTOR ( 'NONE', #456, 1000.000000000000000 ) ;
#1047 = PLANE ( 'NONE',  #588 ) ;
#1048 = ORIENTED_EDGE ( 'NONE', *, *, #940, .F. ) ;
#1049 = CARTESIAN_POINT ( 'NONE',  ( 0.000000000000000000, 0.000000000000000000, -2.286000000000000032 ) ) ;
#1050 = SURFACE_STYLE_FILL_AREA ( #942 ) ;
#1051 = VERTEX_POINT ( 'NONE', #187 ) ;
#1052 = ORIENTED_EDGE ( 'NONE', *, *, #196, .T. ) ;
#1053 = COLOUR_RGB ( '',0.6862745098039215730, 0.6078431372549019107, 0.5294117647058823595 ) ;
#1054 = CARTESIAN_POINT ( 'NONE',  ( 0.000000000000000000, 0.000000000000000000, 2.286000000000000032 ) ) ;
#1055 = ORIENTED_EDGE ( 'NONE', *, *, #140, .F. ) ;
#1056 = CIRCLE ( 'NONE', #549, 0.8993686908363700550 ) ;
#1057 = EDGE_CURVE ( 'NONE', #875, #180, #57, .T. ) ;
#1058 = PRODUCT_DEFINITION_SHAPE ( 'NONE', 'NONE',  #1180 ) ;
#1059 = SURFACE_SIDE_STYLE ('',( #250 ) ) ;
#1060 = DIRECTION ( 'NONE',  ( -1.000000000000000000, 0.000000000000000000, 0.000000000000000000 ) ) ;
#1061 = PRODUCT_RELATED_PRODUCT_CATEGORY ( 'part', '', ( #425 ) ) ;
#1062 = VERTEX_POINT ( 'NONE', #364 ) ;
#1063 = CARTESIAN_POINT ( 'NONE',  ( 0.9062499999999973355, -2.768091521313115186E-16, -1.375000000000000000 ) ) ;
#1064 = CARTESIAN_POINT ( 'NONE',  ( 0.2499999999999988065, -3.533495770780213314E-16, -2.000000000000001332 ) ) ;
#1065 = VERTEX_POINT ( 'NONE', #347 ) ;
#1066 = CARTESIAN_POINT ( 'NONE',  ( 1.749999999999999334, 4.850000000000000533, 2.286000000000000032 ) ) ;
#1067 = EDGE_CURVE ( 'NONE', #576, #419, #274, .T. ) ;
#1068 = AXIS2_PLACEMENT_3D ( 'NONE', #645, #1003, #110 ) ;
#1069 = DIRECTION ( 'NONE',  ( -0.000000000000000000, -1.000000000000000000, -0.000000000000000000 ) ) ;
#1070 = AXIS2_PLACEMENT_3D ( 'NONE', #708, #12, #1162 ) ;
#1071 = AXIS2_PLACEMENT_3D ( 'NONE', #1130, #117, #755 ) ;
#1072 = FACE_OUTER_BOUND ( 'NONE', #915, .T. ) ;
#1073 = EDGE_CURVE ( 'NONE', #1147, #1117, #1056, .T. ) ;
#1074 = PRESENTATION_LAYER_ASSIGNMENT (  '', '', ( #977 ) ) ;
#1075 = ORIENTED_EDGE ( 'NONE', *, *, #1073, .T. ) ;
#1076 = AXIS2_PLACEMENT_3D ( 'NONE', #974, #358, #437 ) ;
#1077 = CARTESIAN_POINT ( 'NONE',  ( -1.750000000000000666, 4.850000000000000533, 2.286000000000000032 ) ) ;
#1078 = DIRECTION ( 'NONE',  ( 1.000000000000000000, 0.000000000000000000, 0.000000000000000000 ) ) ;
#1079 = CONTEXT_DEPENDENT_SHAPE_REPRESENTATION ( #809, #1058 ) ;
#1080 = DIRECTION ( 'NONE',  ( -1.000000000000000000, -0.000000000000000000, -0.000000000000000000 ) ) ;
#1081 = ORIENTED_EDGE ( 'NONE', *, *, #431, .F. ) ;
#1082 = AXIS2_PLACEMENT_3D ( 'NONE', #671, #119, #1027 ) ;
#1083 = CARTESIAN_POINT ( 'NONE',  ( 752.5500000000000682, 0.000000000000000000, 0.5999999999999999778 ) ) ;
#1084 = DIRECTION ( 'NONE',  ( -0.000000000000000000, -1.000000000000000000, -0.000000000000000000 ) ) ;
#1085 = PRODUCT_DEFINITION_FORMATION_WITH_SPECIFIED_SOURCE ( 'ANY', '', #425, .NOT_KNOWN. ) ;
#1086 = CARTESIAN_POINT ( 'NONE',  ( 0.1566673578596663452, 7.499999999999982236, 0.5999999999998141265 ) ) ;
#1087 = ORIENTED_EDGE ( 'NONE', *, *, #939, .F. ) ;
#1088 = UNCERTAINTY_MEASURE_WITH_UNIT (LENGTH_MEASURE( 1.000000000000000082E-05 ), #1128, 'distance_accuracy_value', 'NONE');
#1089 = CARTESIAN_POINT ( 'NONE',  ( 0.2687352311006459549, 3.349207041552663355, -1.674603520776332344 ) ) ;
#1090 = DIRECTION ( 'NONE',  ( 0.000000000000000000, 0.000000000000000000, -1.000000000000000000 ) ) ;
#1091 = APPLICATION_PROTOCOL_DEFINITION ( 'draft international standard', 'automotive_design', 1998, #775 ) ;
#1092 = ADVANCED_BREP_SHAPE_REPRESENTATION ( '', ( #487, #700 ), #965 ) ;
#1093 = CARTESIAN_POINT ( 'NONE',  ( -0.2000000000000057288, 0.000000000000000000, -0.7500000000000000000 ) ) ;
#1094 = CIRCLE ( 'NONE', #16, 7.500000000000000000 ) ;
#1095 = VERTEX_POINT ( 'NONE', #82 ) ;
#1096 = ORIENTED_EDGE ( 'NONE', *, *, #940, .T. ) ;
#1097 = DIRECTION ( 'NONE',  ( 0.000000000000000000, -1.000000000000000000, 0.000000000000000000 ) ) ;
#1098 = EDGE_CURVE ( 'NONE', #446, #828, #853, .T. ) ;
#1099 = EDGE_CURVE ( 'NONE', #1095, #1065, #372, .T. ) ;
#1100 = CARTESIAN_POINT ( 'NONE',  ( 752.5500000000000682, 7.347880794884117764E-17, -0.5999999999999999778 ) ) ;
#1101 = CONTEXT_DEPENDENT_SHAPE_REPRESENTATION ( #890, #194 ) ;
#1102 = DIRECTION ( 'NONE',  ( -1.000000000000000000, 0.000000000000000000, 0.000000000000000000 ) ) ;
#1103 = ORIENTED_EDGE ( 'NONE', *, *, #70, .T. ) ;
#1104 = ORIENTED_EDGE ( 'NONE', *, *, #484, .T. ) ;
#1105 = CARTESIAN_POINT ( 'NONE',  ( 2.368286583846122402E-17, 7.500000000000000000, -0.5999999999999999778 ) ) ;
#1106 = ITEM_DEFINED_TRANSFORMATION ( 'NONE', 'NONE', #725,  #700 ) ;
#1107 = CARTESIAN_POINT ( 'NONE',  ( 1.749999999999999334, 4.850000000000000533, -2.286000000000000032 ) ) ;
#1108 = CARTESIAN_POINT ( 'NONE',  ( -0.1021126760563414448, 8.367935844397422147E-17, 1.119718309859154104 ) ) ;
#1109 = ORIENTED_EDGE ( 'NONE', *, *, #642, .F. ) ;
#1110 = ORIENTED_EDGE ( 'NONE', *, *, #196, .F. ) ;
#1111 = DIRECTION ( 'NONE',  ( 0.000000000000000000, 1.000000000000000000, -1.224646799147353207E-16 ) ) ;
#1112 = ADVANCED_FACE ( 'NONE', ( #34 ), #934, .T. ) ;
#1113 = LINE ( 'NONE', #1022, #71 ) ;
#1114 = AXIS2_PLACEMENT_3D ( 'NONE', #498, #856, #411 ) ;
#1115 = AXIS2_PLACEMENT_3D ( 'NONE', #271, #629, #104 ) ;
#1116 = LINE ( 'NONE', #733, #850 ) ;
#1117 = VERTEX_POINT ( 'NONE', #311 ) ;
#1118 = AXIS2_PLACEMENT_3D ( 'NONE', #564, #299, #662 ) ;
#1119 = CIRCLE ( 'NONE', #997, 2.100000000000000089 ) ;
#1120 = CARTESIAN_POINT ( 'NONE',  ( -0.1566311123537543204, 7.500000000000014211, 0.6000000000001860512 ) ) ;
#1121 = PRODUCT_DEFINITION ( 'UNKNOWN', '', #345, #8 ) ;
#1122 = EDGE_LOOP ( 'NONE', ( #1011, #760 ) ) ;
#1123 = VERTEX_POINT ( 'NONE', #673 ) ;
#1124 = CARTESIAN_POINT ( 'NONE',  ( 0.000000000000000000, 0.000000000000000000, 2.286000000000000032 ) ) ;
#1125 = B_SPLINE_CURVE_WITH_KNOTS ( 'NONE', 3,
 ( #555, #481, #833, #359, #15, #912, #726, #464, #1086, #375 ),
 .UNSPECIFIED., .F., .F.,
 ( 4, 2, 2, 2, 4 ),
 ( 2.301392501548653055E-20, 0.0004691557359840255311, 0.0009383114719680510623, 0.001407467207952076702, 0.001876622943936102125 ),
 .UNSPECIFIED. ) ;
#1126 = EDGE_CURVE ( 'NONE', #522, #1062, #691, .T. ) ;
#1127 = CARTESIAN_POINT ( 'NONE',  ( -0.2000000000000057288, 0.000000000000000000, 0.000000000000000000 ) ) ;
#1128 =( LENGTH_UNIT ( ) NAMED_UNIT ( * ) SI_UNIT ( .MILLI., .METRE. ) );
#1129 = ORIENTED_EDGE ( 'NONE', *, *, #956, .T. ) ;
#1130 = CARTESIAN_POINT ( 'NONE',  ( 2.999999999999988898, 6.711889074043079042E-15, -8.808942506911560211E-17 ) ) ;
#1131 = PLANE ( 'NONE',  #72 ) ;
#1132 = CARTESIAN_POINT ( 'NONE',  ( 4.199999999999995737, 0.000000000000000000, 0.000000000000000000 ) ) ;
#1133 =( LENGTH_UNIT ( ) NAMED_UNIT ( * ) SI_UNIT ( .MILLI., .METRE. ) );
#1134 = TOROIDAL_SURFACE ( 'NONE', #866, -8.950628149161543590, 9.900628149161503799 ) ;
#1135 = ORIENTED_EDGE ( 'NONE', *, *, #660, .T. ) ;
#1136 = CARTESIAN_POINT ( 'NONE',  ( 0.2687352311006460659, -2.550792958447335668, -1.275396479223667834 ) ) ;
#1137 = CIRCLE ( 'NONE', #565, 0.9062499999999998890 ) ;
#1138 = COLOUR_RGB ( '',0.6862745098039215730, 0.6078431372549019107, 0.5294117647058823595 ) ;
#1139 = DIRECTION ( 'NONE',  ( 0.000000000000000000, 0.000000000000000000, 1.000000000000000000 ) ) ;
#1140 = VECTOR ( 'NONE', #1069, 1000.000000000000000 ) ;
#1141 = FACE_OUTER_BOUND ( 'NONE', #837, .T. ) ;
#1142 =( REPRESENTATION_RELATIONSHIP ('NONE','NONE', #323, #796 ) REPRESENTATION_RELATIONSHIP_WITH_TRANSFORMATION ( #354 )SHAPE_REPRESENTATION_RELATIONSHIP( ) );
#1143 = ORIENTED_EDGE ( 'NONE', *, *, #1098, .T. ) ;
#1144 =( NAMED_UNIT ( * ) PLANE_ANGLE_UNIT ( ) SI_UNIT ( $, .RADIAN. ) );
#1145 = MECHANICAL_DESIGN_GEOMETRIC_PRESENTATION_REPRESENTATION (  '', ( #125 ), #409 ) ;
#1146 = DIRECTION ( 'NONE',  ( 0.000000000000000000, -1.224646799147353207E-16, -1.000000000000000000 ) ) ;
#1147 = VERTEX_POINT ( 'NONE', #236 ) ;
#1148 = DIRECTION ( 'NONE',  ( 0.000000000000000000, 0.000000000000000000, -1.000000000000000000 ) ) ;
#1149 = ADVANCED_FACE ( 'NONE', ( #597 ), #954, .F. ) ;
#1150 = EDGE_CURVE ( 'NONE', #537, #1025, #116, .T. ) ;
#1151 = EDGE_LOOP ( 'NONE', ( #1081, #1048, #80, #590 ) ) ;
#1152 = AXIS2_PLACEMENT_3D ( 'NONE', #804, #968, #1173 ) ;
#1153 = PRESENTATION_LAYER_ASSIGNMENT (  '', '', ( #111 ) ) ;
#1154 = DIRECTION ( 'NONE',  ( 0.000000000000000000, 1.000000000000000000, -1.224646799147353207E-16 ) ) ;
#1155 = LINE ( 'NONE', #338, #681 ) ;
#1156 = CIRCLE ( 'NONE', #231, 0.5999999999999999778 ) ;
#1157 = ORIENTED_EDGE ( 'NONE', *, *, #1057, .T. ) ;
#1158 = EDGE_CURVE ( 'NONE', #795, #35, #998, .T. ) ;
#1159 = APPLICATION_CONTEXT ( 'automotive_design' ) ;
#1160 = CYLINDRICAL_SURFACE ( 'NONE', #1115, 0.5999999999999999778 ) ;
#1161 = VERTEX_POINT ( 'NONE', #423 ) ;
#1162 = DIRECTION ( 'NONE',  ( 0.000000000000000000, -0.000000000000000000, 1.000000000000000000 ) ) ;
#1163 = DIRECTION ( 'NONE',  ( 1.000000000000000000, 0.000000000000000000, 0.000000000000000000 ) ) ;
#1164 = ADVANCED_FACE ( 'NONE', ( #613 ), #528, .F. ) ;
#1165 = PRODUCT_DEFINITION_FORMATION_WITH_SPECIFIED_SOURCE ( 'ANY', '', #530, .NOT_KNOWN. ) ;
#1166 = CARTESIAN_POINT ( 'NONE',  ( 0.000000000000000000, 0.000000000000000000, 0.000000000000000000 ) ) ;
#1167 = CARTESIAN_POINT ( 'NONE',  ( 0.2499999999999988343, 4.000000000000002665, 2.000000000000000000 ) ) ;
#1168 = VERTEX_POINT ( 'NONE', #798 ) ;
#1169 = DIRECTION ( 'NONE',  ( 1.000000000000000000, 0.000000000000000000, 0.000000000000000000 ) ) ;
#1170 = AXIS2_PLACEMENT_3D ( 'NONE', #295, #561, #839 ) ;
#1171 = CARTESIAN_POINT ( 'NONE',  ( -4.000000000000000000, 6.344288770224760121, 2.286000000000000032 ) ) ;
#1172 = CIRCLE ( 'NONE', #740, 0.5999999999999999778 ) ;
#1173 = DIRECTION ( 'NONE',  ( 0.000000000000000000, 0.000000000000000000, 1.000000000000000000 ) ) ;
#1174 = DIRECTION ( 'NONE',  ( -1.000000000000000000, 0.000000000000000000, 0.000000000000000000 ) ) ;
#1175 = NEXT_ASSEMBLY_USAGE_OCCURRENCE ( 'NAUO1', ' ', ' ', #66, #945, $ ) ;
#1176 = NEXT_ASSEMBLY_USAGE_OCCURRENCE ( 'NAUO2', ' ', ' ', #66, #1121, $ ) ;
#1177 = NEXT_ASSEMBLY_USAGE_OCCURRENCE ( 'NAUO3', ' ', ' ', #66, #1121, $ ) ;
#1178 = NEXT_ASSEMBLY_USAGE_OCCURRENCE ( 'NAUO4', ' ', ' ', #945, #903, $ ) ;
#1179 = NEXT_ASSEMBLY_USAGE_OCCURRENCE ( 'NAUO5', ' ', ' ', #945, #611, $ ) ;
#1180 = NEXT_ASSEMBLY_USAGE_OCCURRENCE ( 'NAUO6', ' ', ' ', #945, #611, $ ) ;
ENDSEC;
END-ISO-10303-21;
