ISO-10303-21;
HEADER;
FILE_DESCRIPTION (( 'STEP AP214' ),
    '1' );
FILE_NAME ('228-2500-430.STEP',
    '2022-06-13T18:21:42',
    ( '' ),
    ( '' ),
    'SwSTEP 2.0',
    'SolidWorks 2021',
    '' );
FILE_SCHEMA (( 'AUTOMOTIVE_DESIGN' ));
ENDSEC;

DATA;
#1 = CARTESIAN_POINT ( 'NONE',  ( 0.2499999999999986955, -1.836970198721025990E-16, -0.7499999999999983347 ) ) ;
#2 = CARTESIAN_POINT ( 'NONE',  ( 0.2687352311006460659, -1.561910215925068817E-16, -1.275396479223668056 ) ) ;
#3 = ORIENTED_EDGE ( 'NONE', *, *, #1062, .F. ) ;
#4 = APPLICATION_CONTEXT ( 'automotive_design' ) ;
#5 = VERTEX_POINT ( 'NONE', #420 ) ;
#6 = CARTESIAN_POINT ( 'NONE',  ( -2.100000000000000089, 0.000000000000000000, -2.286000000000000032 ) ) ;
#7 = DIRECTION ( 'NONE',  ( 1.000000000000000000, 0.000000000000000000, -0.000000000000000000 ) ) ;
#8 = AXIS2_PLACEMENT_3D ( 'NONE', #1049, #231, #419 ) ;
#9 = ADVANCED_FACE ( 'NONE', ( #781 ), #861, .T. ) ;
#10 = CARTESIAN_POINT ( 'NONE',  ( 0.2687352311006459549, -2.050797841559623033E-16, -1.674603520776331678 ) ) ;
#11 = VECTOR ( 'NONE', #1106, 1000.000000000000000 ) ;
#12 = ORIENTED_EDGE ( 'NONE', *, *, #706, .T. ) ;
#13 = CARTESIAN_POINT ( 'NONE',  ( -1.750000000000000666, 4.850000000000000533, -2.286000000000000032 ) ) ;
#14 = SURFACE_SIDE_STYLE ('',( #566 ) ) ;
#15 =( REPRESENTATION_RELATIONSHIP ('NONE','NONE', #689, #28 ) REPRESENTATION_RELATIONSHIP_WITH_TRANSFORMATION ( #319 )SHAPE_REPRESENTATION_RELATIONSHIP( ) );
#16 = LINE ( 'NONE', #1032, #758 ) ;
#17 = PRODUCT_DEFINITION_CONTEXT ( 'detailed design', #931, 'design' ) ;
#18 = CARTESIAN_POINT ( 'NONE',  ( -0.2000000000000057288, 0.000000000000000000, -0.7500000000000000000 ) ) ;
#19 = PRODUCT_DEFINITION ( 'UNKNOWN', '', #254, #647 ) ;
#20 = ORIENTED_EDGE ( 'NONE', *, *, #94, .T. ) ;
#21 = CARTESIAN_POINT ( 'NONE',  ( 0.5000000000000004441, 1.163414459189985682E-16, -0.9499999999999999556 ) ) ;
#22 = DIRECTION ( 'NONE',  ( 0.000000000000000000, 0.000000000000000000, 1.000000000000000000 ) ) ;
#23 = PRODUCT_DEFINITION_SHAPE ( 'NONE', 'NONE',  #1026 ) ;
#24 = CARTESIAN_POINT ( 'NONE',  ( -0.1021126760563413616, 7.239814924062966462E-17, 1.630281690140845896 ) ) ;
#25 = ITEM_DEFINED_TRANSFORMATION ( 'NONE', 'NONE', #688,  #571 ) ;
#26 = CARTESIAN_POINT ( 'NONE',  ( 4.000000000000000000, 6.344288770224760121, 2.286000000000000032 ) ) ;
#27 = CARTESIAN_POINT ( 'NONE',  ( -0.2000000000000057288, 0.000000000000000000, 0.000000000000000000 ) ) ;
#28 = SHAPE_REPRESENTATION ( '228-2500-ROPE-OVERMOLD-MASTER Rev1_228-3943-ROPE-OVERMOLD-MASTER', ( #798 ), #663 ) ;
#29 = CARTESIAN_POINT ( 'NONE',  ( 0.2499999999999986955, 2.921172371206530670E-16, 0.7499999999999983347 ) ) ;
#30 = CARTESIAN_POINT ( 'NONE',  ( -4.000000000000000000, 0.000000000000000000, 2.286000000000000032 ) ) ;
#31 = DIRECTION ( 'NONE',  ( -1.000000000000000000, 0.000000000000000000, 0.000000000000000000 ) ) ;
#32 = VECTOR ( 'NONE', #957, 1000.000000000000000 ) ;
#33 = DIRECTION ( 'NONE',  ( 1.000000000000000000, 0.000000000000000000, 0.000000000000000000 ) ) ;
#34 = CARTESIAN_POINT ( 'NONE',  ( 0.000000000000000000, 0.000000000000000000, 0.000000000000000000 ) ) ;
#35 = VECTOR ( 'NONE', #1044, 1000.000000000000000 ) ;
#36 = ORIENTED_EDGE ( 'NONE', *, *, #38, .F. ) ;
#37 = CARTESIAN_POINT ( 'NONE',  ( -2.100000000000000089, 0.000000000000000000, 2.286000000000000032 ) ) ;
#38 = EDGE_CURVE ( 'NONE', #5, #992, #132, .T. ) ;
#39 = B_SPLINE_CURVE_WITH_KNOTS ( 'NONE', 3,
 ( #515, #41, #327, #682, #424, #430, #1041, #1054, #334, #1050 ),
 .UNSPECIFIED., .F., .F.,
 ( 4, 2, 2, 2, 4 ),
 ( 0.001876622943936102125, 0.002345670139209626252, 0.002814717334483150379, 0.003283764529756674072, 0.003752811725030198199 ),
 .UNSPECIFIED. ) ;
#40 = CARTESIAN_POINT ( 'NONE',  ( 4.199999999999995737, 1.163414459189985682E-16, -0.9499999999999999556 ) ) ;
#41 = CARTESIAN_POINT ( 'NONE',  ( -0.1566311123537543204, 7.500000000000014211, 0.6000000000001860512 ) ) ;
#42 = ORIENTED_EDGE ( 'NONE', *, *, #989, .T. ) ;
#43 = DIRECTION ( 'NONE',  ( 0.000000000000000000, 0.000000000000000000, 1.000000000000000000 ) ) ;
#44 = SURFACE_SIDE_STYLE ('',( #492 ) ) ;
#45 = APPLICATION_PROTOCOL_DEFINITION ( 'draft international standard', 'automotive_design', 1998, #665 ) ;
#46 = PRODUCT_RELATED_PRODUCT_CATEGORY ( 'part', '', ( #954 ) ) ;
#47 = FACE_OUTER_BOUND ( 'NONE', #959, .T. ) ;
#48 = ORIENTED_EDGE ( 'NONE', *, *, #94, .F. ) ;
#49 = DIRECTION ( 'NONE',  ( 0.000000000000000000, 0.000000000000000000, 1.000000000000000000 ) ) ;
#50 = ORIENTED_EDGE ( 'NONE', *, *, #896, .T. ) ;
#51 = ADVANCED_FACE ( 'NONE', ( #751, #690 ), #585, .F. ) ;
#52 = CARTESIAN_POINT ( 'NONE',  ( 0.5000000000000004441, 2.449293598294706414E-16, -2.000000000000000000 ) ) ;
#53 = CARTESIAN_POINT ( 'NONE',  ( 67.00000000000000000, 4.068990905485032180E-22, 2.000559088147996794E-22 ) ) ;
#54 = AXIS2_PLACEMENT_3D ( 'NONE', #925, #466, #198 ) ;
#55 = ORIENTED_EDGE ( 'NONE', *, *, #792, .F. ) ;
#56 = AXIS2_PLACEMENT_3D ( 'NONE', #768, #147, #1134 ) ;
#57 = APPLICATION_CONTEXT ( 'automotive_design' ) ;
#58 = DIRECTION ( 'NONE',  ( -0.000000000000000000, 0.000000000000000000, 1.000000000000000000 ) ) ;
#59 = SHAPE_REPRESENTATION_RELATIONSHIP ( 'NONE' , 'NONE' ,  #1052, #525 ) ;
#60 = DIRECTION ( 'NONE',  ( 1.000000000000000000, 0.000000000000000000, 0.000000000000000000 ) ) ;
#61 = PRODUCT_DEFINITION ( 'UNKNOWN', '', #112, #298 ) ;
#62 = VERTEX_POINT ( 'NONE', #415 ) ;
#63 = CARTESIAN_POINT ( 'NONE',  ( 2.999999999999864109, 6.017322057294549609E-14, -6.162975822039154730E-30 ) ) ;
#64 = VERTEX_POINT ( 'NONE', #762 ) ;
#65 =( NAMED_UNIT ( * ) SI_UNIT ( $, .STERADIAN. ) SOLID_ANGLE_UNIT ( ) );
#66 = FACE_BOUND ( 'NONE', #514, .T. ) ;
#67 = DIRECTION ( 'NONE',  ( 0.000000000000000000, 1.000000000000000000, 0.000000000000000000 ) ) ;
#68 = AXIS2_PLACEMENT_3D ( 'NONE', #797, #532, #434 ) ;
#69 = VERTEX_POINT ( 'NONE', #136 ) ;
#70 = FILL_AREA_STYLE_COLOUR ( '', #610 ) ;
#71 = DIRECTION ( 'NONE',  ( 0.000000000000000000, 0.000000000000000000, 1.000000000000000000 ) ) ;
#72 = ADVANCED_FACE ( 'NONE', ( #234 ), #322, .F. ) ;
#73 = AXIS2_PLACEMENT_3D ( 'NONE', #115, #842, #490 ) ;
#74 = CARTESIAN_POINT ( 'NONE',  ( -1.750000000000000444, 3.350000000000000089, -2.286000000000000032 ) ) ;
#75 = STYLED_ITEM ( 'NONE', ( #1114 ), #525 ) ;
#76 = SURFACE_STYLE_FILL_AREA ( #165 ) ;
#77 = EDGE_LOOP ( 'NONE', ( #1121, #975 ) ) ;
#78 = CARTESIAN_POINT ( 'NONE',  ( 0.2687352311006459549, -3.349207041552663355, -1.674603520776331678 ) ) ;
#79 = DIRECTION ( 'NONE',  ( 0.000000000000000000, 0.000000000000000000, 1.000000000000000000 ) ) ;
#80 = EDGE_CURVE ( 'NONE', #789, #87, #767, .T. ) ;
#81 =( NAMED_UNIT ( * ) SI_UNIT ( $, .STERADIAN. ) SOLID_ANGLE_UNIT ( ) );
#82 = ORIENTED_EDGE ( 'NONE', *, *, #718, .T. ) ;
#83 = LINE ( 'NONE', #1156, #386 ) ;
#84 =( NAMED_UNIT ( * ) PLANE_ANGLE_UNIT ( ) SI_UNIT ( $, .RADIAN. ) );
#85 = DIRECTION ( 'NONE',  ( 0.000000000000000000, -1.000000000000000000, 0.000000000000000000 ) ) ;
#86 = EDGE_CURVE ( 'NONE', #344, #459, #674, .T. ) ;
#87 = VERTEX_POINT ( 'NONE', #1035 ) ;
#88 = CIRCLE ( 'NONE', #948, 0.5999999999999999778 ) ;
#89 = DIRECTION ( 'NONE',  ( 5.021567956775114176E-15, 0.000000000000000000, -1.000000000000000000 ) ) ;
#90 = AXIS2_PLACEMENT_3D ( 'NONE', #511, #860, #223 ) ;
#91 = AXIS2_PLACEMENT_3D ( 'NONE', #1067, #739, #1005 ) ;
#92 = CARTESIAN_POINT ( 'NONE',  ( 0.2687352311006459549, 3.349207041552663355, 1.674603520776331234 ) ) ;
#93 = EDGE_LOOP ( 'NONE', ( #399, #707 ) ) ;
#94 = EDGE_CURVE ( 'NONE', #746, #375, #39, .T. ) ;
#95 = APPLICATION_CONTEXT ( 'automotive_design' ) ;
#96 = CARTESIAN_POINT ( 'NONE',  ( 0.000000000000000000, 4.850000000000000533, 0.000000000000000000 ) ) ;
#97 = DIRECTION ( 'NONE',  ( 0.000000000000000000, 0.000000000000000000, 1.000000000000000000 ) ) ;
#98 = DIRECTION ( 'NONE',  ( 0.000000000000000000, 0.000000000000000000, -1.000000000000000000 ) ) ;
#99 = ORIENTED_EDGE ( 'NONE', *, *, #150, .T. ) ;
#100 = VERTEX_POINT ( 'NONE', #241 ) ;
#101 = DIRECTION ( 'NONE',  ( -1.000000000000000000, -0.000000000000000000, -0.000000000000000000 ) ) ;
#102 = CARTESIAN_POINT ( 'NONE',  ( -0.1021126760563413477, -3.260563380281691348, -1.630281690140845008 ) ) ;
#103 = DIRECTION ( 'NONE',  ( 0.000000000000000000, 0.000000000000000000, 1.000000000000000000 ) ) ;
#104 = VERTEX_POINT ( 'NONE', #52 ) ;
#105 = CARTESIAN_POINT ( 'NONE',  ( 0.5000000000000004441, 0.000000000000000000, 0.000000000000000000 ) ) ;
#106 =( NAMED_UNIT ( * ) SI_UNIT ( $, .STERADIAN. ) SOLID_ANGLE_UNIT ( ) );
#107 = DIRECTION ( 'NONE',  ( 1.000000000000000000, 0.000000000000000000, 0.000000000000000000 ) ) ;
#108 =( GEOMETRIC_REPRESENTATION_CONTEXT ( 3 ) GLOBAL_UNCERTAINTY_ASSIGNED_CONTEXT ( ( #760 ) ) GLOBAL_UNIT_ASSIGNED_CONTEXT ( ( #878, #342, #830 ) ) REPRESENTATION_CONTEXT ( 'NONE', 'WORKASPACE' ) );
#109 = EDGE_CURVE ( 'NONE', #338, #625, #1142, .T. ) ;
#110 = FACE_OUTER_BOUND ( 'NONE', #825, .T. ) ;
#111 = AXIS2_PLACEMENT_3D ( 'NONE', #544, #911, #617 ) ;
#112 = PRODUCT_DEFINITION_FORMATION_WITH_SPECIFIED_SOURCE ( 'ANY', '', #954, .NOT_KNOWN. ) ;
#113 = ORIENTED_EDGE ( 'NONE', *, *, #86, .T. ) ;
#114 = SHAPE_REPRESENTATION ( '228-2500-430-01 Rev1_228-2500-430-01', ( #798 ), #701 ) ;
#115 = CARTESIAN_POINT ( 'NONE',  ( 0.2500000000000002220, 0.000000000000000000, 0.000000000000000000 ) ) ;
#116 = DIRECTION ( 'NONE',  ( -1.000000000000000000, 0.000000000000000000, 0.000000000000000000 ) ) ;
#117 = CARTESIAN_POINT ( 'NONE',  ( 0.2499999999999988065, 6.422899774855259893E-17, 2.000000000000001332 ) ) ;
#118 = DIRECTION ( 'NONE',  ( 0.000000000000000000, 0.000000000000000000, -1.000000000000000000 ) ) ;
#119 = EDGE_LOOP ( 'NONE', ( #208, #323, #987, #684 ) ) ;
#120 = CARTESIAN_POINT ( 'NONE',  ( 0.000000000000000000, 0.000000000000000000, 0.000000000000000000 ) ) ;
#121 = CARTESIAN_POINT ( 'NONE',  ( -0.1021126760563414587, 2.239436619718307320, -1.119718309859154326 ) ) ;
#122 = FILL_AREA_STYLE_COLOUR ( '', #269 ) ;
#123 = CARTESIAN_POINT ( 'NONE',  ( 0.2499999999999988343, -4.000000000000001776, 2.000000000000001332 ) ) ;
#124 = DIRECTION ( 'NONE',  ( 0.000000000000000000, 0.000000000000000000, -1.000000000000000000 ) ) ;
#125 = VERTEX_POINT ( 'NONE', #885 ) ;
#126 = ADVANCED_FACE ( 'NONE', ( #806, #458 ), #528, .F. ) ;
#127 = ORIENTED_EDGE ( 'NONE', *, *, #560, .F. ) ;
#128 = LINE ( 'NONE', #13, #779 ) ;
#129 = CARTESIAN_POINT ( 'NONE',  ( 4.000000000000000000, 0.000000000000000000, 2.286000000000000032 ) ) ;
#130 = PRODUCT_CONTEXT ( 'NONE', #4, 'mechanical' ) ;
#131 = B_SPLINE_CURVE_WITH_KNOTS ( 'NONE', 3,
 ( #1124, #292, #1113, #297, #484, #836, #749, #828, #381, #923 ),
 .UNSPECIFIED., .F., .F.,
 ( 4, 2, 2, 2, 4 ),
 ( 2.301392501548653055E-20, 0.0004691557359840255311, 0.0009383114719680510623, 0.001407467207952076702, 0.001876622943936102125 ),
 .UNSPECIFIED. ) ;
#132 = CIRCLE ( 'NONE', #281, 0.7500000000000000000 ) ;
#133 = DIRECTION ( 'NONE',  ( -0.000000000000000000, -0.000000000000000000, -1.000000000000000000 ) ) ;
#134 = CIRCLE ( 'NONE', #874, 0.9062499999999998890 ) ;
#135 = AXIS2_PLACEMENT_3D ( 'NONE', #268, #464, #71 ) ;
#136 = CARTESIAN_POINT ( 'NONE',  ( 2.999999999999993339, 1.163414459190956721E-16, -0.9499999999999724221 ) ) ;
#137 = AXIS2_PLACEMENT_3D ( 'NONE', #1089, #204, #7 ) ;
#138 = ORIENTED_EDGE ( 'NONE', *, *, #486, .F. ) ;
#139 =( GEOMETRIC_REPRESENTATION_CONTEXT ( 3 ) GLOBAL_UNCERTAINTY_ASSIGNED_CONTEXT ( ( #662 ) ) GLOBAL_UNIT_ASSIGNED_CONTEXT ( ( #970, #774, #520 ) ) REPRESENTATION_CONTEXT ( 'NONE', 'WORKASPACE' ) );
#140 = CYLINDRICAL_SURFACE ( 'NONE', #793, 7.500000000000000000 ) ;
#141 = CARTESIAN_POINT ( 'NONE',  ( -4.000000000000000000, 0.000000000000000000, -2.286000000000000032 ) ) ;
#142 = DIRECTION ( 'NONE',  ( -1.796584282943672817E-24, -0.7962250401529310517, 0.6050005664736716193 ) ) ;
#143 = EDGE_LOOP ( 'NONE', ( #440, #613, #734, #12 ) ) ;
#144 = ADVANCED_FACE ( 'NONE', ( #1158 ), #964, .T. ) ;
#145 = DIRECTION ( 'NONE',  ( 1.000000000000000000, 0.000000000000000000, 0.000000000000000000 ) ) ;
#146 = ORIENTED_EDGE ( 'NONE', *, *, #214, .F. ) ;
#147 = DIRECTION ( 'NONE',  ( 0.000000000000000000, 0.000000000000000000, 1.000000000000000000 ) ) ;
#148 = APPLICATION_PROTOCOL_DEFINITION ( 'draft international standard', 'automotive_design', 1998, #159 ) ;
#149 = ORIENTED_EDGE ( 'NONE', *, *, #989, .F. ) ;
#150 = EDGE_CURVE ( 'NONE', #1096, #509, #973, .T. ) ;
#151 = AXIS2_PLACEMENT_3D ( 'NONE', #1166, #800, #89 ) ;
#152 = VERTEX_POINT ( 'NONE', #173 ) ;
#153 = AXIS2_PLACEMENT_3D ( 'NONE', #357, #705, #79 ) ;
#154 = STYLED_ITEM ( 'NONE', ( #914 ), #1091 ) ;
#155 = FILL_AREA_STYLE_COLOUR ( '', #229 ) ;
#156 =( LENGTH_UNIT ( ) NAMED_UNIT ( * ) SI_UNIT ( .MILLI., .METRE. ) );
#157 = ORIENTED_EDGE ( 'NONE', *, *, #320, .F. ) ;
#158 =( NAMED_UNIT ( * ) PLANE_ANGLE_UNIT ( ) SI_UNIT ( $, .RADIAN. ) );
#159 = APPLICATION_CONTEXT ( 'automotive_design' ) ;
#160 = SURFACE_STYLE_USAGE ( .BOTH. , #250 ) ;
#161 = ORIENTED_EDGE ( 'NONE', *, *, #295, .T. ) ;
#162 = EDGE_CURVE ( 'NONE', #696, #702, #88, .T. ) ;
#163 =( LENGTH_UNIT ( ) NAMED_UNIT ( * ) SI_UNIT ( .MILLI., .METRE. ) );
#164 = DIRECTION ( 'NONE',  ( 0.000000000000000000, -1.224646799147353207E-16, -1.000000000000000000 ) ) ;
#165 = FILL_AREA_STYLE ('',( #260 ) ) ;
#166 = AXIS2_PLACEMENT_3D ( 'NONE', #680, #653, #933 ) ;
#167 = EDGE_LOOP ( 'NONE', ( #1102, #50, #898, #698 ) ) ;
#168 = ADVANCED_FACE ( 'NONE', ( #1150 ), #346, .T. ) ;
#169 = VECTOR ( 'NONE', #409, 1000.000000000000000 ) ;
#170 = DIRECTION ( 'NONE',  ( 1.000000000000000000, 0.000000000000000000, 0.000000000000000000 ) ) ;
#171 = AXIS2_PLACEMENT_3D ( 'NONE', #1147, #872, #343 ) ;
#172 = DIRECTION ( 'NONE',  ( -1.000000000000000000, -0.000000000000000000, -0.000000000000000000 ) ) ;
#173 = CARTESIAN_POINT ( 'NONE',  ( -1.750000000000000666, 4.850000000000000533, 2.286000000000000032 ) ) ;
#174 = ORIENTED_EDGE ( 'NONE', *, *, #697, .T. ) ;
#175 = CARTESIAN_POINT ( 'NONE',  ( 0.2687352311006460659, -2.550792958447335668, -1.275396479223667834 ) ) ;
#176 =( LENGTH_UNIT ( ) NAMED_UNIT ( * ) SI_UNIT ( .MILLI., .METRE. ) );
#177 = EDGE_CURVE ( 'NONE', #329, #1151, #354, .T. ) ;
#178 = CARTESIAN_POINT ( 'NONE',  ( 0.5000000000000918154, 4.898587196589254070E-16, 1.999999999999934941 ) ) ;
#179 = ORIENTED_EDGE ( 'NONE', *, *, #765, .T. ) ;
#180 = CARTESIAN_POINT ( 'NONE',  ( 0.5000000000000918154, -2.449293598294627035E-16, -1.999999999999934941 ) ) ;
#181 = CARTESIAN_POINT ( 'NONE',  ( 4.000000000000003553, 0.000000000000000000, -0.7500000000000000000 ) ) ;
#182 = EDGE_CURVE ( 'NONE', #944, #475, #1088, .T. ) ;
#183 = DIRECTION ( 'NONE',  ( -0.000000000000000000, -1.000000000000000000, -0.000000000000000000 ) ) ;
#184 = ORIENTED_EDGE ( 'NONE', *, *, #718, .F. ) ;
#185 = AXIS2_PLACEMENT_3D ( 'NONE', #216, #225, #595 ) ;
#186 = CARTESIAN_POINT ( 'NONE',  ( 0.2687352311006459549, -3.349207041552663355, 1.674603520776331900 ) ) ;
#187 = CYLINDRICAL_SURFACE ( 'NONE', #463, 0.7500000000000000000 ) ;
#188 = CIRCLE ( 'NONE', #1095, 0.9499999999999999556 ) ;
#189 =( GEOMETRIC_REPRESENTATION_CONTEXT ( 3 ) GLOBAL_UNCERTAINTY_ASSIGNED_CONTEXT ( ( #1017 ) ) GLOBAL_UNIT_ASSIGNED_CONTEXT ( ( #396, #325, #748 ) ) REPRESENTATION_CONTEXT ( 'NONE', 'WORKASPACE' ) );
#190 = PLANE ( 'NONE',  #635 ) ;
#191 = ORIENTED_EDGE ( 'NONE', *, *, #337, .T. ) ;
#192 = CYLINDRICAL_SURFACE ( 'NONE', #955, 0.9499999999999999556 ) ;
#193 = FACE_OUTER_BOUND ( 'NONE', #119, .T. ) ;
#194 = EDGE_LOOP ( 'NONE', ( #138, #776, #290, #174 ) ) ;
#195 = SHAPE_REPRESENTATION ( '228-2500-430-00 Rev1_228-2500-430-00', ( #571, #56, #391, #238 ), #139 ) ;
#196 = CARTESIAN_POINT ( 'NONE',  ( 0.5000000000000004441, 0.000000000000000000, 0.000000000000000000 ) ) ;
#197 = UNCERTAINTY_MEASURE_WITH_UNIT (LENGTH_MEASURE( 1.000000000000000082E-05 ), #176, 'distance_accuracy_value', 'NONE');
#198 = DIRECTION ( 'NONE',  ( 1.000000000000000000, 0.000000000000000000, 0.000000000000000000 ) ) ;
#199 = VERTEX_POINT ( 'NONE', #264 ) ;
#200 =( NAMED_UNIT ( * ) SI_UNIT ( $, .STERADIAN. ) SOLID_ANGLE_UNIT ( ) );
#201 = MANIFOLD_SOLID_BREP ( 'Cut-Extrude2', #980 ) ;
#202 = CARTESIAN_POINT ( 'NONE',  ( 2.100000000000000089, 2.571758278209441957E-16, 2.286000000000000032 ) ) ;
#203 = PRODUCT_RELATED_PRODUCT_CATEGORY ( 'part', '', ( #1119 ) ) ;
#204 = DIRECTION ( 'NONE',  ( 0.000000000000000000, 0.000000000000000000, 1.000000000000000000 ) ) ;
#205 = AXIS2_PLACEMENT_3D ( 'NONE', #556, #918, #103 ) ;
#206 = FACE_OUTER_BOUND ( 'NONE', #638, .T. ) ;
#207 = AXIS2_PLACEMENT_3D ( 'NONE', #1109, #431, #775 ) ;
#208 = ORIENTED_EDGE ( 'NONE', *, *, #406, .F. ) ;
#209 = MANIFOLD_SOLID_BREP ( 'Boss-Extrude1', #732 ) ;
#210 = LINE ( 'NONE', #581, #1060 ) ;
#211 = CARTESIAN_POINT ( 'NONE',  ( -66.75000000000000000, 7.347880794884117764E-17, -0.5999999999999999778 ) ) ;
#212 = CARTESIAN_POINT ( 'NONE',  ( -0.1021126760563414448, -2.208053028555439392E-16, -1.119718309859154104 ) ) ;
#213 = CONTEXT_DEPENDENT_SHAPE_REPRESENTATION ( #786, #756 ) ;
#214 = EDGE_CURVE ( 'NONE', #625, #1151, #410, .T. ) ;
#215 = DIRECTION ( 'NONE',  ( -0.000000000000000000, -0.000000000000000000, -1.000000000000000000 ) ) ;
#216 = CARTESIAN_POINT ( 'NONE',  ( -1.750000000000000666, 4.850000000000000533, -2.286000000000000032 ) ) ;
#217 =( LENGTH_UNIT ( ) NAMED_UNIT ( * ) SI_UNIT ( .MILLI., .METRE. ) );
#218 = EDGE_LOOP ( 'NONE', ( #1159, #355, #82, #553 ) ) ;
#219 = CARTESIAN_POINT ( 'NONE',  ( -0.1021126760563414448, 3.826721060716899529E-16, 1.119718309859154104 ) ) ;
#220 = CARTESIAN_POINT ( 'NONE',  ( 4.000000000000003553, 6.017322057294549609E-14, -6.162975822039154730E-30 ) ) ;
#221 = CARTESIAN_POINT ( 'NONE',  ( 0.2499999999999987232, -1.499999999999996447, 0.7499999999999986677 ) ) ;
#222 = APPLICATION_CONTEXT ( 'automotive_design' ) ;
#223 = DIRECTION ( 'NONE',  ( 1.000000000000000000, 0.000000000000000000, 0.000000000000000000 ) ) ;
#224 = ADVANCED_FACE ( 'NONE', ( #1085 ), #941, .F. ) ;
#225 = DIRECTION ( 'NONE',  ( -0.000000000000000000, 1.000000000000000000, 0.000000000000000000 ) ) ;
#226 = ORIENTED_EDGE ( 'NONE', *, *, #1145, .T. ) ;
#227 = DIRECTION ( 'NONE',  ( -1.000000000000000000, -0.000000000000000000, 0.000000000000000000 ) ) ;
#228 =( NAMED_UNIT ( * ) PLANE_ANGLE_UNIT ( ) SI_UNIT ( $, .RADIAN. ) );
#229 = COLOUR_RGB ( '',0.1450980392156862586, 0.1568627450980392135, 0.1647058823529411742 ) ;
#230 = CIRCLE ( 'NONE', #1019, 9.900628149161503799 ) ;
#231 = DIRECTION ( 'NONE',  ( -1.000000000000000000, -0.000000000000000000, 0.000000000000000000 ) ) ;
#232 = CIRCLE ( 'NONE', #533, 0.8993686908363700550 ) ;
#233 = AXIS2_PLACEMENT_3D ( 'NONE', #537, #377, #1153 ) ;
#234 = FACE_OUTER_BOUND ( 'NONE', #588, .T. ) ;
#235 = PRODUCT_DEFINITION_SHAPE ( 'NONE', 'NONE',  #61 ) ;
#236 = STYLED_ITEM ( 'NONE', ( #582 ), #313 ) ;
#237 = EDGE_LOOP ( 'NONE', ( #1020, #1068, #1135, #712 ) ) ;
#238 = AXIS2_PLACEMENT_3D ( 'NONE', #53, #142, #513 ) ;
#239 = EDGE_CURVE ( 'NONE', #866, #104, #427, .T. ) ;
#240 = DIRECTION ( 'NONE',  ( -1.000000000000000000, 0.000000000000000000, 0.000000000000000000 ) ) ;
#241 = CARTESIAN_POINT ( 'NONE',  ( 0.2500000000000002220, 0.000000000000000000, 2.000000000000000000 ) ) ;
#242 = APPLICATION_PROTOCOL_DEFINITION ( 'draft international standard', 'automotive_design', 1998, #723 ) ;
#243 = EDGE_LOOP ( 'NONE', ( #146, #602 ) ) ;
#244 = PRODUCT_DEFINITION ( 'UNKNOWN', '', #621, #1100 ) ;
#245 = SHAPE_DEFINITION_REPRESENTATION ( #23, #1052 ) ;
#246 = CARTESIAN_POINT ( 'NONE',  ( 66.75000000000000000, 0.000000000000000000, 0.5999999999999999778 ) ) ;
#247 =( LENGTH_UNIT ( ) NAMED_UNIT ( * ) SI_UNIT ( .MILLI., .METRE. ) );
#248 = EDGE_LOOP ( 'NONE', ( #488, #522, #840, #882 ) ) ;
#249 = VECTOR ( 'NONE', #358, 1000.000000000000000 ) ;
#250 = SURFACE_SIDE_STYLE ('',( #538 ) ) ;
#251 = COLOUR_RGB ( '',0.1450980392156862586, 0.1568627450980392135, 0.1647058823529411742 ) ;
#252 = ORIENTED_EDGE ( 'NONE', *, *, #792, .T. ) ;
#253 = AXIS2_PLACEMENT_3D ( 'NONE', #1110, #764, #503 ) ;
#254 = PRODUCT_DEFINITION_FORMATION_WITH_SPECIFIED_SOURCE ( 'ANY', '', #867, .NOT_KNOWN. ) ;
#255 = EDGE_CURVE ( 'NONE', #62, #344, #951, .T. ) ;
#256 = DIRECTION ( 'NONE',  ( -1.000000000000000000, 0.000000000000000000, 0.000000000000000000 ) ) ;
#257 = EDGE_LOOP ( 'NONE', ( #300, #692, #783, #1118 ) ) ;
#258 = CARTESIAN_POINT ( 'NONE',  ( 1.749999999999999334, 4.850000000000000533, 2.286000000000000032 ) ) ;
#259 = DIRECTION ( 'NONE',  ( -0.000000000000000000, -0.000000000000000000, -1.000000000000000000 ) ) ;
#260 = FILL_AREA_STYLE_COLOUR ( '', #251 ) ;
#261 = ORIENTED_EDGE ( 'NONE', *, *, #765, .F. ) ;
#262 = CARTESIAN_POINT ( 'NONE',  ( 0.000000000000000000, 0.000000000000000000, 2.286000000000000032 ) ) ;
#263 = DIRECTION ( 'NONE',  ( 0.000000000000000000, 0.000000000000000000, -1.000000000000000000 ) ) ;
#264 = CARTESIAN_POINT ( 'NONE',  ( 4.000000000000003553, 6.028646174532930203E-14, -0.8993686908363700550 ) ) ;
#265 = AXIS2_PLACEMENT_3D ( 'NONE', #398, #183, #545 ) ;
#266 = ORIENTED_EDGE ( 'NONE', *, *, #1145, .F. ) ;
#267 = ADVANCED_FACE ( 'NONE', ( #110 ), #190, .F. ) ;
#268 = CARTESIAN_POINT ( 'NONE',  ( 0.5000000000000004441, 0.000000000000000000, 0.000000000000000000 ) ) ;
#269 = COLOUR_RGB ( '',0.1450980392156862586, 0.1568627450980392135, 0.1647058823529411742 ) ;
#270 = FACE_OUTER_BOUND ( 'NONE', #257, .T. ) ;
#271 = CARTESIAN_POINT ( 'NONE',  ( -66.75000000000000000, 0.000000000000000000, 0.000000000000000000 ) ) ;
#272 = ORIENTED_EDGE ( 'NONE', *, *, #274, .F. ) ;
#273 = DIRECTION ( 'NONE',  ( 1.000000000000000000, 0.000000000000000000, 0.000000000000000000 ) ) ;
#274 = EDGE_CURVE ( 'NONE', #5, #944, #479, .T. ) ;
#275 = SURFACE_STYLE_FILL_AREA ( #720 ) ;
#276 = CARTESIAN_POINT ( 'NONE',  ( 0.5000000000000920375, -1.163414459190065062E-16, -0.9500000000000650147 ) ) ;
#277 = EDGE_LOOP ( 'NONE', ( #913, #580, #161, #880 ) ) ;
#278 = CARTESIAN_POINT ( 'NONE',  ( -0.1021126760563413477, 3.260563380281690016, -1.630281690140846562 ) ) ;
#279 = CARTESIAN_POINT ( 'NONE',  ( 66.75000000000000000, 0.000000000000000000, 0.000000000000000000 ) ) ;
#280 = EDGE_LOOP ( 'NONE', ( #722, #919, #868, #432 ) ) ;
#281 = AXIS2_PLACEMENT_3D ( 'NONE', #847, #1028, #870 ) ;
#282 = AXIS2_PLACEMENT_3D ( 'NONE', #63, #978, #881 ) ;
#283 = CARTESIAN_POINT ( 'NONE',  ( 4.000000000000003553, 6.017322057294549609E-14, -6.162975822039154730E-30 ) ) ;
#284 = VECTOR ( 'NONE', #215, 1000.000000000000000 ) ;
#285 = CARTESIAN_POINT ( 'NONE',  ( 0.000000000000000000, 0.000000000000000000, -2.286000000000000032 ) ) ;
#286 = VECTOR ( 'NONE', #730, 1000.000000000000000 ) ;
#287 =( GEOMETRIC_REPRESENTATION_CONTEXT ( 3 ) GLOBAL_UNCERTAINTY_ASSIGNED_CONTEXT ( ( #744 ) ) GLOBAL_UNIT_ASSIGNED_CONTEXT ( ( #217, #312, #200 ) ) REPRESENTATION_CONTEXT ( 'NONE', 'WORKASPACE' ) );
#288 = DIRECTION ( 'NONE',  ( -1.000000000000000000, -0.000000000000000000, -0.000000000000000000 ) ) ;
#289 = EDGE_CURVE ( 'NONE', #866, #125, #134, .T. ) ;
#290 = ORIENTED_EDGE ( 'NONE', *, *, #457, .T. ) ;
#291 = DIRECTION ( 'NONE',  ( -0.000000000000000000, -0.000000000000000000, -1.000000000000000000 ) ) ;
#292 = CARTESIAN_POINT ( 'NONE',  ( 0.1586417734720640682, 7.500000000000000000, -0.5999999999999998668 ) ) ;
#293 = CARTESIAN_POINT ( 'NONE',  ( -1.750000000000000444, 3.350000000000000089, 2.286000000000000032 ) ) ;
#294 = ORIENTED_EDGE ( 'NONE', *, *, #452, .T. ) ;
#295 = EDGE_CURVE ( 'NONE', #873, #417, #230, .T. ) ;
#296 = CARTESIAN_POINT ( 'NONE',  ( -0.2000000000000057288, 9.184850993605149670E-17, 0.7500000000000000000 ) ) ;
#297 = CARTESIAN_POINT ( 'NONE',  ( 0.5349933317933824872, 7.481715361024050104, -0.3134931207533580566 ) ) ;
#298 = PRODUCT_DEFINITION_CONTEXT ( 'detailed design', #57, 'design' ) ;
#299 = CARTESIAN_POINT ( 'NONE',  ( 0.000000000000000000, 7.500000000000000000, 0.000000000000000000 ) ) ;
#300 = ORIENTED_EDGE ( 'NONE', *, *, #177, .F. ) ;
#301 = CARTESIAN_POINT ( 'NONE',  ( 7.347880794884117764E-17, 7.500000000000000000, 0.5999999999999999778 ) ) ;
#302 = CARTESIAN_POINT ( 'NONE',  ( 1.749999999999999334, 4.850000000000000533, 2.286000000000000032 ) ) ;
#303 = AXIS2_PLACEMENT_3D ( 'NONE', #453, #523, #58 ) ;
#304 = EDGE_CURVE ( 'NONE', #620, #862, #378, .T. ) ;
#305 = APPLICATION_PROTOCOL_DEFINITION ( 'draft international standard', 'automotive_design', 1998, #931 ) ;
#306 = AXIS2_PLACEMENT_3D ( 'NONE', #664, #687, #31 ) ;
#307 =( REPRESENTATION_RELATIONSHIP ('NONE','NONE', #195, #1052 ) REPRESENTATION_RELATIONSHIP_WITH_TRANSFORMATION ( #577 )SHAPE_REPRESENTATION_RELATIONSHIP( ) );
#308 = CARTESIAN_POINT ( 'NONE',  ( 2.368286583846122402E-17, 7.500000000000000000, -0.5999999999999999778 ) ) ;
#309 = VECTOR ( 'NONE', #632, 1000.000000000000000 ) ;
#310 = PRODUCT_DEFINITION_FORMATION_WITH_SPECIFIED_SOURCE ( 'ANY', '', #1119, .NOT_KNOWN. ) ;
#311 = ORIENTED_EDGE ( 'NONE', *, *, #706, .F. ) ;
#312 =( NAMED_UNIT ( * ) PLANE_ANGLE_UNIT ( ) SI_UNIT ( $, .RADIAN. ) );
#313 = ADVANCED_BREP_SHAPE_REPRESENTATION ( '', ( #209, #798 ), #701 ) ;
#314 = ORIENTED_EDGE ( 'NONE', *, *, #596, .T. ) ;
#315 = CARTESIAN_POINT ( 'NONE',  ( 0.000000000000000000, 4.850000000000000533, -0.5999999999999999778 ) ) ;
#316 = FILL_AREA_STYLE ('',( #122 ) ) ;
#317 = CARTESIAN_POINT ( 'NONE',  ( 0.2499999999999988343, -4.000000000000001776, -2.000000000000000888 ) ) ;
#318 = SURFACE_STYLE_USAGE ( .BOTH. , #44 ) ;
#319 = ITEM_DEFINED_TRANSFORMATION ( 'NONE', 'NONE', #171,  #798 ) ;
#320 = EDGE_CURVE ( 'NONE', #529, #152, #1101, .T. ) ;
#321 = CARTESIAN_POINT ( 'NONE',  ( 4.199999999999995737, 0.000000000000000000, 0.9499999999999999556 ) ) ;
#322 = CYLINDRICAL_SURFACE ( 'NONE', #655, 0.7500000000000000000 ) ;
#323 = ORIENTED_EDGE ( 'NONE', *, *, #86, .F. ) ;
#324 = DIRECTION ( 'NONE',  ( 1.445602896647339163E-16, 1.000000000000000000, 0.000000000000000000 ) ) ;
#325 =( NAMED_UNIT ( * ) PLANE_ANGLE_UNIT ( ) SI_UNIT ( $, .RADIAN. ) );
#326 = CARTESIAN_POINT ( 'NONE',  ( 4.000000000000000000, 6.344288770224760121, 2.286000000000000032 ) ) ;
#327 = CARTESIAN_POINT ( 'NONE',  ( -0.3132723953653721582, 7.494274718137164726, 0.5351020110317906697 ) ) ;
#328 = DIRECTION ( 'NONE',  ( 0.000000000000000000, 0.000000000000000000, 1.000000000000000000 ) ) ;
#329 = VERTEX_POINT ( 'NONE', #721 ) ;
#330 = CLOSED_SHELL ( 'NONE', ( #681, #633, #864, #144, #168, #1084, #72, #126, #1092, #922, #1149, #807, #224 ) ) ;
#331 = PRESENTATION_LAYER_ASSIGNMENT (  '', '', ( #365 ) ) ;
#332 = CARTESIAN_POINT ( 'NONE',  ( 4.000000000000003553, 9.184850993605149670E-17, 0.7500000000000000000 ) ) ;
#333 = CIRCLE ( 'NONE', #1063, 0.7500000000000000000 ) ;
#334 = CARTESIAN_POINT ( 'NONE',  ( -0.1586050711800802426, 7.500000000000000000, -0.5999999999999999778 ) ) ;
#335 = SHAPE_DEFINITION_REPRESENTATION ( #496, #689 ) ;
#336 = PRODUCT_DEFINITION_SHAPE ( 'NONE', 'NONE',  #1176 ) ;
#337 = EDGE_CURVE ( 'NONE', #853, #379, #495, .T. ) ;
#338 = VERTEX_POINT ( 'NONE', #643 ) ;
#339 = SHAPE_DEFINITION_REPRESENTATION ( #235, #195 ) ;
#340 = ORIENTED_EDGE ( 'NONE', *, *, #162, .T. ) ;
#341 = ORIENTED_EDGE ( 'NONE', *, *, #1008, .F. ) ;
#342 =( NAMED_UNIT ( * ) PLANE_ANGLE_UNIT ( ) SI_UNIT ( $, .RADIAN. ) );
#343 = DIRECTION ( 'NONE',  ( 0.000000000000000000, -1.000000000000000222, -5.551115123125782702E-17 ) ) ;
#344 = VERTEX_POINT ( 'NONE', #648 ) ;
#345 = ADVANCED_FACE ( 'NONE', ( #1080 ), #1006, .F. ) ;
#346 = CYLINDRICAL_SURFACE ( 'NONE', #752, 2.000000000000000000 ) ;
#347 = AXIS2_PLACEMENT_3D ( 'NONE', #404, #145, #124 ) ;
#348 = ORIENTED_EDGE ( 'NONE', *, *, #400, .T. ) ;
#349 = FILL_AREA_STYLE ('',( #70 ) ) ;
#350 = VECTOR ( 'NONE', #416, 1000.000000000000000 ) ;
#351 = DIRECTION ( 'NONE',  ( 1.445602896647339163E-16, -1.000000000000000000, 0.000000000000000000 ) ) ;
#352 = FACE_OUTER_BOUND ( 'NONE', #277, .T. ) ;
#353 = EDGE_CURVE ( 'NONE', #100, #992, #444, .T. ) ;
#354 = LINE ( 'NONE', #700, #249 ) ;
#355 = ORIENTED_EDGE ( 'NONE', *, *, #486, .T. ) ;
#356 = CARTESIAN_POINT ( 'NONE',  ( 0.5000000000000920375, 0.000000000000000000, 0.9500000000000650147 ) ) ;
#357 = CARTESIAN_POINT ( 'NONE',  ( 2.999999999999864109, 6.017322057294549609E-14, -6.162975822039154730E-30 ) ) ;
#358 = DIRECTION ( 'NONE',  ( -1.000000000000000000, -0.000000000000000000, -0.000000000000000000 ) ) ;
#359 = ADVANCED_FACE ( 'NONE', ( #884 ), #852, .F. ) ;
#360 = ORIENTED_EDGE ( 'NONE', *, *, #1174, .T. ) ;
#361 = FACE_BOUND ( 'NONE', #961, .T. ) ;
#362 = DIRECTION ( 'NONE',  ( 0.000000000000000000, 0.000000000000000000, -1.000000000000000000 ) ) ;
#363 = CARTESIAN_POINT ( 'NONE',  ( 4.199999999999995737, 0.000000000000000000, 0.000000000000000000 ) ) ;
#364 = AXIS2_PLACEMENT_3D ( 'NONE', #1138, #33, #405 ) ;
#365 = STYLED_ITEM ( 'NONE', ( #963 ), #209 ) ;
#366 = ORIENTED_EDGE ( 'NONE', *, *, #901, .T. ) ;
#367 = EDGE_CURVE ( 'NONE', #100, #799, #481, .T. ) ;
#368 = AXIS2_PLACEMENT_3D ( 'NONE', #262, #1152, #170 ) ;
#369 = STYLED_ITEM ( 'NONE', ( #900 ), #972 ) ;
#370 = CARTESIAN_POINT ( 'NONE',  ( -1.750000000000000666, 4.850000000000000533, -2.286000000000000032 ) ) ;
#371 = COLOUR_RGB ( '',0.6862745098039215730, 0.6078431372549019107, 0.5294117647058823595 ) ;
#372 = DIRECTION ( 'NONE',  ( 0.000000000000000000, 0.000000000000000000, 1.000000000000000000 ) ) ;
#373 = CARTESIAN_POINT ( 'NONE',  ( 0.2687352311006460659, 2.550792958447335668, -1.275396479223668278 ) ) ;
#374 =( REPRESENTATION_RELATIONSHIP ('NONE','NONE', #195, #1052 ) REPRESENTATION_RELATIONSHIP_WITH_TRANSFORMATION ( #1125 )SHAPE_REPRESENTATION_RELATIONSHIP( ) );
#375 = VERTEX_POINT ( 'NONE', #308 ) ;
#376 = CARTESIAN_POINT ( 'NONE',  ( -0.1021126760563413616, -3.080721426025028638E-16, -1.630281690140845896 ) ) ;
#377 = DIRECTION ( 'NONE',  ( 0.000000000000000000, 0.000000000000000000, 1.000000000000000000 ) ) ;
#378 = LINE ( 'NONE', #1171, #715 ) ;
#379 = VERTEX_POINT ( 'NONE', #1018 ) ;
#380 = CARTESIAN_POINT ( 'NONE',  ( 0.2500000000000002220, 2.449293598294706414E-16, -2.000000000000000000 ) ) ;
#381 = CARTESIAN_POINT ( 'NONE',  ( 0.1566673578596663452, 7.499999999999982236, 0.5999999999998141265 ) ) ;
#382 = EDGE_CURVE ( 'NONE', #866, #100, #413, .T. ) ;
#383 = DIRECTION ( 'NONE',  ( 0.000000000000000000, 0.000000000000000000, 1.000000000000000000 ) ) ;
#384 = ORIENTED_EDGE ( 'NONE', *, *, #182, .T. ) ;
#385 = PRESENTATION_LAYER_ASSIGNMENT (  '', '', ( #887 ) ) ;
#386 = VECTOR ( 'NONE', #351, 1000.000000000000000 ) ;
#387 = CARTESIAN_POINT ( 'NONE',  ( 4.595750661335919044E-13, 7.500000000000333955, 0.6000000000041715298 ) ) ;
#388 = PRODUCT_DEFINITION_SHAPE ( 'NONE', 'NONE',  #1180 ) ;
#389 =( GEOMETRIC_REPRESENTATION_CONTEXT ( 3 ) GLOBAL_UNCERTAINTY_ASSIGNED_CONTEXT ( ( #197 ) ) GLOBAL_UNIT_ASSIGNED_CONTEXT ( ( #176, #84, #465 ) ) REPRESENTATION_CONTEXT ( 'NONE', 'WORKASPACE' ) );
#390 = CARTESIAN_POINT ( 'NONE',  ( -0.1021126760563414448, 8.367935844397422147E-17, 1.119718309859154104 ) ) ;
#391 = AXIS2_PLACEMENT_3D ( 'NONE', #524, #871, #788 ) ;
#392 = ADVANCED_FACE ( 'NONE', ( #66, #1126 ), #140, .T. ) ;
#393 = DIRECTION ( 'NONE',  ( 0.000000000000000000, 0.000000000000000000, -1.000000000000000000 ) ) ;
#394 = EDGE_LOOP ( 'NONE', ( #55, #149, #526, #340 ) ) ;
#395 = CARTESIAN_POINT ( 'NONE',  ( 0.000000000000000000, 0.000000000000000000, 2.286000000000000032 ) ) ;
#396 =( LENGTH_UNIT ( ) NAMED_UNIT ( * ) SI_UNIT ( .MILLI., .METRE. ) );
#397 = FACE_BOUND ( 'NONE', #167, .T. ) ;
#398 = CARTESIAN_POINT ( 'NONE',  ( 0.000000000000000000, 7.500000000000000000, 0.000000000000000000 ) ) ;
#399 = ORIENTED_EDGE ( 'NONE', *, *, #162, .F. ) ;
#400 = EDGE_CURVE ( 'NONE', #104, #820, #753, .T. ) ;
#401 = FACE_OUTER_BOUND ( 'NONE', #1077, .T. ) ;
#402 = CARTESIAN_POINT ( 'NONE',  ( -0.1021126760563414587, -2.239436619718308208, -1.119718309859153660 ) ) ;
#403 = APPLICATION_PROTOCOL_DEFINITION ( 'draft international standard', 'automotive_design', 1998, #4 ) ;
#404 = CARTESIAN_POINT ( 'NONE',  ( -66.75000000000000000, 0.000000000000000000, 0.000000000000000000 ) ) ;
#405 = DIRECTION ( 'NONE',  ( 0.000000000000000000, 0.000000000000000000, -1.000000000000000000 ) ) ;
#406 = EDGE_CURVE ( 'NONE', #459, #534, #1117, .T. ) ;
#407 = DIRECTION ( 'NONE',  ( 1.000000000000000000, -0.000000000000000000, -0.000000000000000000 ) ) ;
#408 = CARTESIAN_POINT ( 'NONE',  ( 0.000000000000000000, 0.000000000000000000, 0.000000000000000000 ) ) ;
#409 = DIRECTION ( 'NONE',  ( -0.000000000000000000, -1.000000000000000000, -0.000000000000000000 ) ) ;
#410 = CIRCLE ( 'NONE', #1042, 0.5999999999999999778 ) ;
#411 = AXIS2_PLACEMENT_3D ( 'NONE', #105, #657, #1013 ) ;
#412 = PRODUCT_DEFINITION_SHAPE ( 'NONE', 'NONE',  #1177 ) ;
#413 = LINE ( 'NONE', #1136, #1167 ) ;
#414 = AXIS2_PLACEMENT_3D ( 'NONE', #1016, #568, #917 ) ;
#415 = CARTESIAN_POINT ( 'NONE',  ( 4.000000000000000000, 6.344288770224760121, -2.286000000000000032 ) ) ;
#416 = DIRECTION ( 'NONE',  ( -0.000000000000000000, -1.000000000000000000, -0.000000000000000000 ) ) ;
#417 = VERTEX_POINT ( 'NONE', #766 ) ;
#418 = CARTESIAN_POINT ( 'NONE',  ( 1.749999999999999334, 4.850000000000000533, -2.286000000000000032 ) ) ;
#419 = DIRECTION ( 'NONE',  ( 0.000000000000000000, 0.000000000000000000, 1.000000000000000000 ) ) ;
#420 = CARTESIAN_POINT ( 'NONE',  ( 0.2500000000000002220, 0.000000000000000000, -0.7500000000000000000 ) ) ;
#421 = ORIENTED_EDGE ( 'NONE', *, *, #896, .F. ) ;
#422 = PRODUCT ( '228-2500-ROPE-OVERMOLD-MASTER Rev1_228-3943-ROPE-OVERMOLD-MASTER', '228-2500-ROPE-OVERMOLD-MASTER Rev1_228-3943-ROPE-OVERMOLD-MASTER', '', ( #1051 ) ) ;
#423 = LINE ( 'NONE', #942, #607 ) ;
#424 = CARTESIAN_POINT ( 'NONE',  ( -0.5998738244796234520, 7.475971603121485565, 0.1589084681641880215 ) ) ;
#425 = CARTESIAN_POINT ( 'NONE',  ( 0.000000000000000000, 0.000000000000000000, 0.000000000000000000 ) ) ;
#426 = EDGE_LOOP ( 'NONE', ( #675, #261, #815, #804 ) ) ;
#427 = CIRCLE ( 'NONE', #564, 2.000000000000000000 ) ;
#428 = ADVANCED_FACE ( 'NONE', ( #206 ), #584, .F. ) ;
#429 = VECTOR ( 'NONE', #1157, 1000.000000000000000 ) ;
#430 = CARTESIAN_POINT ( 'NONE',  ( -0.6001257961074478731, 7.475951380581674854, -0.1579542193057874300 ) ) ;
#431 = DIRECTION ( 'NONE',  ( 0.000000000000000000, -5.551115123125782702E-17, 1.000000000000000000 ) ) ;
#432 = ORIENTED_EDGE ( 'NONE', *, *, #353, .F. ) ;
#433 = ORIENTED_EDGE ( 'NONE', *, *, #1173, .T. ) ;
#434 = DIRECTION ( 'NONE',  ( 0.000000000000000000, 0.000000000000000000, -1.000000000000000000 ) ) ;
#435 =( NAMED_UNIT ( * ) SI_UNIT ( $, .STERADIAN. ) SOLID_ANGLE_UNIT ( ) );
#436 = ORIENTED_EDGE ( 'NONE', *, *, #437, .T. ) ;
#437 = EDGE_CURVE ( 'NONE', #832, #808, #423, .T. ) ;
#438 = CARTESIAN_POINT ( 'NONE',  ( 4.000000000000000000, 0.000000000000000000, 2.286000000000000032 ) ) ;
#439 = CARTESIAN_POINT ( 'NONE',  ( 0.000000000000000000, 0.000000000000000000, 0.000000000000000000 ) ) ;
#440 = ORIENTED_EDGE ( 'NONE', *, *, #406, .T. ) ;
#441 = EDGE_CURVE ( 'NONE', #509, #62, #442, .T. ) ;
#442 = LINE ( 'NONE', #26, #284 ) ;
#443 = CARTESIAN_POINT ( 'NONE',  ( 1.749999999999999334, 4.850000000000000533, -2.286000000000000032 ) ) ;
#444 = CIRCLE ( 'NONE', #205, 0.9062499999999998890 ) ;
#445 = PRESENTATION_STYLE_ASSIGNMENT (( #160 ) ) ;
#446 = VECTOR ( 'NONE', #727, 1000.000000000000000 ) ;
#447 = CIRCLE ( 'NONE', #151, 0.9499999999999723110 ) ;
#448 = EDGE_LOOP ( 'NONE', ( #454, #294 ) ) ;
#449 = VECTOR ( 'NONE', #946, 1000.000000000000000 ) ;
#450 = PRESENTATION_LAYER_ASSIGNMENT (  '', '', ( #236 ) ) ;
#451 = CARTESIAN_POINT ( 'NONE',  ( 1.749999999999999112, 3.350000000000000089, -2.286000000000000032 ) ) ;
#452 = EDGE_CURVE ( 'NONE', #87, #808, #906, .T. ) ;
#453 = CARTESIAN_POINT ( 'NONE',  ( 4.000000000000003553, 0.000000000000000000, 0.000000000000000000 ) ) ;
#454 = ORIENTED_EDGE ( 'NONE', *, *, #1062, .T. ) ;
#455 = FACE_OUTER_BOUND ( 'NONE', #893, .T. ) ;
#456 = LINE ( 'NONE', #998, #891 ) ;
#457 = EDGE_CURVE ( 'NONE', #417, #125, #761, .T. ) ;
#458 = FACE_OUTER_BOUND ( 'NONE', #502, .T. ) ;
#459 = VERTEX_POINT ( 'NONE', #790 ) ;
#460 = DIRECTION ( 'NONE',  ( 0.000000000000000000, 0.000000000000000000, -1.000000000000000000 ) ) ;
#461 = AXIS2_PLACEMENT_3D ( 'NONE', #1116, #527, #493 ) ;
#462 = ORIENTED_EDGE ( 'NONE', *, *, #320, .T. ) ;
#463 = AXIS2_PLACEMENT_3D ( 'NONE', #810, #801, #263 ) ;
#464 = DIRECTION ( 'NONE',  ( -1.000000000000000000, 0.000000000000000000, 0.000000000000000000 ) ) ;
#465 =( NAMED_UNIT ( * ) SI_UNIT ( $, .STERADIAN. ) SOLID_ANGLE_UNIT ( ) );
#466 = DIRECTION ( 'NONE',  ( 0.000000000000000000, 0.000000000000000000, 1.000000000000000000 ) ) ;
#467 = CARTESIAN_POINT ( 'NONE',  ( 0.2687352311006460659, 3.123820431850137634E-16, 1.275396479223668056 ) ) ;
#468 =( NAMED_UNIT ( * ) SI_UNIT ( $, .STERADIAN. ) SOLID_ANGLE_UNIT ( ) );
#469 = ORIENTED_EDGE ( 'NONE', *, *, #1173, .F. ) ;
#470 = ADVANCED_FACE ( 'NONE', ( #47 ), #846, .F. ) ;
#471 = CARTESIAN_POINT ( 'NONE',  ( 0.000000000000000000, 0.000000000000000000, 2.286000000000000032 ) ) ;
#472 = CARTESIAN_POINT ( 'NONE',  ( 1.749999999999999334, 4.850000000000000533, -2.286000000000000032 ) ) ;
#473 = PRODUCT_DEFINITION_SHAPE ( 'NONE', 'NONE',  #1179 ) ;
#474 = DIRECTION ( 'NONE',  ( 1.000000000000000000, 0.000000000000000000, -0.000000000000000000 ) ) ;
#475 = VERTEX_POINT ( 'NONE', #332 ) ;
#476 = EDGE_LOOP ( 'NONE', ( #266, #741, #127, #157 ) ) ;
#477 = CARTESIAN_POINT ( 'NONE',  ( 1.749999999999999112, 3.350000000000000089, -2.286000000000000032 ) ) ;
#478 = CARTESIAN_POINT ( 'NONE',  ( -0.1021126760563414587, -2.239436619718307764, 1.119718309859154326 ) ) ;
#479 = LINE ( 'NONE', #18, #811 ) ;
#480 = EDGE_LOOP ( 'NONE', ( #384, #433 ) ) ;
#481 = CIRCLE ( 'NONE', #8, 2.000000000000000000 ) ;
#482 = CARTESIAN_POINT ( 'NONE',  ( -4.000000000000000000, 0.000000000000000000, 2.286000000000000032 ) ) ;
#483 = AXIS2_PLACEMENT_3D ( 'NONE', #658, #116, #1038 ) ;
#484 = CARTESIAN_POINT ( 'NONE',  ( 0.5999436111853565512, 7.475966002236344110, -0.1568219647242036774 ) ) ;
#485 = UNCERTAINTY_MEASURE_WITH_UNIT (LENGTH_MEASURE( 1.000000000000000082E-05 ), #1031, 'distance_accuracy_value', 'NONE');
#486 = EDGE_CURVE ( 'NONE', #69, #820, #947, .T. ) ;
#487 = CARTESIAN_POINT ( 'NONE',  ( 0.5000000000000918154, -2.449293598294627035E-16, -1.999999999999934941 ) ) ;
#488 = ORIENTED_EDGE ( 'NONE', *, *, #586, .F. ) ;
#489 = DIRECTION ( 'NONE',  ( 0.000000000000000000, 0.000000000000000000, 1.000000000000000000 ) ) ;
#490 = DIRECTION ( 'NONE',  ( 0.000000000000000000, 0.000000000000000000, -1.000000000000000000 ) ) ;
#491 = PLANE ( 'NONE',  #137 ) ;
#492 = SURFACE_STYLE_FILL_AREA ( #939 ) ;
#493 = DIRECTION ( 'NONE',  ( 0.000000000000000000, -1.224646799147352961E-16, -1.000000000000000000 ) ) ;
#494 = PRODUCT_RELATED_PRODUCT_CATEGORY ( 'part', '', ( #422 ) ) ;
#495 = LINE ( 'NONE', #293, #446 ) ;
#496 = PRODUCT_DEFINITION_SHAPE ( 'NONE', 'NONE',  #19 ) ;
#497 = FACE_OUTER_BOUND ( 'NONE', #194, .T. ) ;
#498 = DIRECTION ( 'NONE',  ( -1.000000000000000000, -0.000000000000000000, 0.000000000000000000 ) ) ;
#499 = CARTESIAN_POINT ( 'NONE',  ( 0.2500000000000002220, 9.184850993605149670E-17, 0.7500000000000000000 ) ) ;
#500 = DIRECTION ( 'NONE',  ( -0.000000000000000000, -0.000000000000000000, -1.000000000000000000 ) ) ;
#501 = ORIENTED_EDGE ( 'NONE', *, *, #1137, .T. ) ;
#502 = EDGE_LOOP ( 'NONE', ( #856, #965 ) ) ;
#503 = DIRECTION ( 'NONE',  ( 0.000000000000000000, -0.000000000000000000, -1.000000000000000000 ) ) ;
#504 = CONTEXT_DEPENDENT_SHAPE_REPRESENTATION ( #824, #336 ) ;
#505 = CARTESIAN_POINT ( 'NONE',  ( 0.000000000000000000, 0.000000000000000000, 2.286000000000000032 ) ) ;
#506 = AXIS2_PLACEMENT_3D ( 'NONE', #279, #172, #372 ) ;
#507 = MECHANICAL_DESIGN_GEOMETRIC_PRESENTATION_REPRESENTATION (  '', ( #154 ), #287 ) ;
#508 = DIRECTION ( 'NONE',  ( 1.000000000000000000, 0.000000000000000000, -0.000000000000000000 ) ) ;
#509 = VERTEX_POINT ( 'NONE', #326 ) ;
#510 = ADVANCED_FACE ( 'NONE', ( #592 ), #771, .F. ) ;
#511 = CARTESIAN_POINT ( 'NONE',  ( 0.000000000000000000, 0.000000000000000000, -2.286000000000000032 ) ) ;
#512 = ORIENTED_EDGE ( 'NONE', *, *, #150, .F. ) ;
#513 = DIRECTION ( 'NONE',  ( -1.000000000000000000, -8.041484002934846698E-24, -3.953674087249006054E-24 ) ) ;
#514 = EDGE_LOOP ( 'NONE', ( #42, #20 ) ) ;
#515 = CARTESIAN_POINT ( 'NONE',  ( 4.595750661335919044E-13, 7.500000000000333955, 0.6000000000041715298 ) ) ;
#516 = PRODUCT_CONTEXT ( 'NONE', #159, 'mechanical' ) ;
#517 = ORIENTED_EDGE ( 'NONE', *, *, #536, .F. ) ;
#518 = ADVANCED_FACE ( 'NONE', ( #599 ), #1027, .F. ) ;
#519 = CIRCLE ( 'NONE', #91, 0.9499999999999723110 ) ;
#520 =( NAMED_UNIT ( * ) SI_UNIT ( $, .STERADIAN. ) SOLID_ANGLE_UNIT ( ) );
#521 = APPLICATION_PROTOCOL_DEFINITION ( 'draft international standard', 'automotive_design', 1998, #875 ) ;
#522 = ORIENTED_EDGE ( 'NONE', *, *, #177, .T. ) ;
#523 = DIRECTION ( 'NONE',  ( -1.000000000000000000, 0.000000000000000000, -0.000000000000000000 ) ) ;
#524 = CARTESIAN_POINT ( 'NONE',  ( -67.00000000000000000, 0.000000000000000000, 0.000000000000000000 ) ) ;
#525 = ADVANCED_BREP_SHAPE_REPRESENTATION ( '', ( #972, #798 ), #968 ) ;
#526 = ORIENTED_EDGE ( 'NONE', *, *, #1073, .T. ) ;
#527 = DIRECTION ( 'NONE',  ( 0.000000000000000000, 1.000000000000000000, -1.224646799147353207E-16 ) ) ;
#528 = PLANE ( 'NONE',  #303 ) ;
#529 = VERTEX_POINT ( 'NONE', #258 ) ;
#530 = CARTESIAN_POINT ( 'NONE',  ( 0.2499999999999988065, -3.533495770780213314E-16, -2.000000000000001332 ) ) ;
#531 = CIRCLE ( 'NONE', #831, 0.5999999999999999778 ) ;
#532 = DIRECTION ( 'NONE',  ( -1.000000000000000000, -0.000000000000000000, 0.000000000000000000 ) ) ;
#533 = AXIS2_PLACEMENT_3D ( 'NONE', #283, #645, #916 ) ;
#534 = VERTEX_POINT ( 'NONE', #904 ) ;
#535 = FACE_BOUND ( 'NONE', #476, .T. ) ;
#536 = EDGE_CURVE ( 'NONE', #862, #853, #543, .T. ) ;
#537 = CARTESIAN_POINT ( 'NONE',  ( 0.000000000000000000, 0.000000000000000000, 2.286000000000000032 ) ) ;
#538 = SURFACE_STYLE_FILL_AREA ( #612 ) ;
#539 = EDGE_LOOP ( 'NONE', ( #971, #1140, #3, #1053 ) ) ;
#540 = DIRECTION ( 'NONE',  ( 0.000000000000000000, 0.000000000000000000, 1.000000000000000000 ) ) ;
#541 = CARTESIAN_POINT ( 'NONE',  ( 0.2687352311006459549, 4.101595683119246066E-16, 1.674603520776331678 ) ) ;
#542 = ORIENTED_EDGE ( 'NONE', *, *, #772, .F. ) ;
#543 = LINE ( 'NONE', #889, #950 ) ;
#544 = CARTESIAN_POINT ( 'NONE',  ( 66.75000000000000000, 0.000000000000000000, 0.000000000000000000 ) ) ;
#545 = DIRECTION ( 'NONE',  ( 0.000000000000000000, 0.000000000000000000, -1.000000000000000000 ) ) ;
#546 = EDGE_CURVE ( 'NONE', #789, #832, #1090, .T. ) ;
#547 = AXIS2_PLACEMENT_3D ( 'NONE', #1132, #1040, #118 ) ;
#548 = VERTEX_POINT ( 'NONE', #1069 ) ;
#549 = AXIS2_PLACEMENT_3D ( 'NONE', #627, #794, #709 ) ;
#550 = CARTESIAN_POINT ( 'NONE',  ( 66.75000000000000000, 0.000000000000000000, 0.000000000000000000 ) ) ;
#551 = CARTESIAN_POINT ( 'NONE',  ( 4.000000000000003553, 6.017322057294549609E-14, 0.8993686908363700550 ) ) ;
#552 = CARTESIAN_POINT ( 'NONE',  ( -1.750000000000000666, 4.850000000000000533, -2.286000000000000032 ) ) ;
#553 = ORIENTED_EDGE ( 'NONE', *, *, #457, .F. ) ;
#554 = CARTESIAN_POINT ( 'NONE',  ( -0.1021126760563414587, 2.239436619718308208, 1.119718309859153438 ) ) ;
#555 = LINE ( 'NONE', #743, #11 ) ;
#556 = CARTESIAN_POINT ( 'NONE',  ( 0.9062499999999973355, 1.084202172485504434E-16, 1.375000000000000000 ) ) ;
#557 = VERTEX_POINT ( 'NONE', #451 ) ;
#558 = DIRECTION ( 'NONE',  ( 0.000000000000000000, -1.224646799147353947E-16, 1.000000000000000000 ) ) ;
#559 = DIRECTION ( 'NONE',  ( 0.000000000000000000, 0.000000000000000000, 1.000000000000000000 ) ) ;
#560 = EDGE_CURVE ( 'NONE', #152, #853, #83, .T. ) ;
#561 = FACE_BOUND ( 'NONE', #448, .T. ) ;
#562 = ORIENTED_EDGE ( 'NONE', *, *, #1073, .F. ) ;
#563 = DIRECTION ( 'NONE',  ( 1.000000000000000000, 0.000000000000000000, 0.000000000000000000 ) ) ;
#564 = AXIS2_PLACEMENT_3D ( 'NONE', #1107, #1011, #740 ) ;
#565 = CARTESIAN_POINT ( 'NONE',  ( 4.199999999999995737, 0.000000000000000000, 0.000000000000000000 ) ) ;
#566 = SURFACE_STYLE_FILL_AREA ( #316 ) ;
#567 = COLOUR_RGB ( '',0.6862745098039215730, 0.6078431372549019107, 0.5294117647058823595 ) ;
#568 = DIRECTION ( 'NONE',  ( -1.000000000000000000, 0.000000000000000000, 0.000000000000000000 ) ) ;
#569 = PRODUCT_RELATED_PRODUCT_CATEGORY ( 'part', '', ( #867 ) ) ;
#570 = UNCERTAINTY_MEASURE_WITH_UNIT (LENGTH_MEASURE( 1.000000000000000082E-05 ), #163, 'distance_accuracy_value', 'NONE');
#571 = AXIS2_PLACEMENT_3D ( 'NONE', #439, #328, #683 ) ;
#572 = CARTESIAN_POINT ( 'NONE',  ( 0.000000000000000000, 0.000000000000000000, 2.286000000000000032 ) ) ;
#573 = EDGE_LOOP ( 'NONE', ( #501, #952, #512, #654 ) ) ;
#574 = DIRECTION ( 'NONE',  ( 0.000000000000000000, 0.000000000000000000, 1.000000000000000000 ) ) ;
#575 = CARTESIAN_POINT ( 'NONE',  ( 0.2499999999999987232, 1.499999999999996003, -0.7499999999999987788 ) ) ;
#576 = CARTESIAN_POINT ( 'NONE',  ( 0.2499999999999986955, 9.184850993605129949E-17, 0.7499999999999983347 ) ) ;
#577 = ITEM_DEFINED_TRANSFORMATION ( 'NONE', 'NONE', #238,  #798 ) ;
#578 = DIRECTION ( 'NONE',  ( 0.000000000000000000, 0.000000000000000000, -1.000000000000000000 ) ) ;
#579 = DIRECTION ( 'NONE',  ( 0.000000000000000000, 0.000000000000000000, -1.000000000000000000 ) ) ;
#580 = ORIENTED_EDGE ( 'NONE', *, *, #711, .T. ) ;
#581 = CARTESIAN_POINT ( 'NONE',  ( -4.000000000000000000, 0.000000000000000000, 2.286000000000000032 ) ) ;
#582 = PRESENTATION_STYLE_ASSIGNMENT (( #669 ) ) ;
#583 = CARTESIAN_POINT ( 'NONE',  ( 0.2499999999999987232, -1.499999999999996669, -0.7499999999999980016 ) ) ;
#584 = CYLINDRICAL_SURFACE ( 'NONE', #686, 2.100000000000000089 ) ;
#585 = PLANE ( 'NONE',  #185 ) ;
#586 = EDGE_CURVE ( 'NONE', #329, #338, #531, .T. ) ;
#587 = VECTOR ( 'NONE', #787, 1000.000000000000000 ) ;
#588 = EDGE_LOOP ( 'NONE', ( #604, #36, #1148, #469 ) ) ;
#589 = DIRECTION ( 'NONE',  ( 0.000000000000000000, 0.000000000000000000, 1.000000000000000000 ) ) ;
#590 = AXIS2_PLACEMENT_3D ( 'NONE', #471, #540, #273 ) ;
#591 = CIRCLE ( 'NONE', #411, 0.9499999999999999556 ) ;
#592 = FACE_OUTER_BOUND ( 'NONE', #243, .T. ) ;
#593 = VECTOR ( 'NONE', #849, 1000.000000000000000 ) ;
#594 = MECHANICAL_DESIGN_GEOMETRIC_PRESENTATION_REPRESENTATION (  '', ( #236 ), #189 ) ;
#595 = DIRECTION ( 'NONE',  ( 0.000000000000000000, -0.000000000000000000, 1.000000000000000000 ) ) ;
#596 = EDGE_CURVE ( 'NONE', #509, #548, #659, .T. ) ;
#597 = ORIENTED_EDGE ( 'NONE', *, *, #367, .F. ) ;
#598 = ITEM_DEFINED_TRANSFORMATION ( 'NONE', 'NONE', #207,  #798 ) ;
#599 = FACE_OUTER_BOUND ( 'NONE', #615, .T. ) ;
#600 = DIRECTION ( 'NONE',  ( -0.000000000000000000, -1.000000000000000000, -0.000000000000000000 ) ) ;
#601 = SHAPE_DEFINITION_REPRESENTATION ( #637, #28 ) ;
#602 = ORIENTED_EDGE ( 'NONE', *, *, #693, .F. ) ;
#603 = CONTEXT_DEPENDENT_SHAPE_REPRESENTATION ( #307, #388 ) ;
#604 = ORIENTED_EDGE ( 'NONE', *, *, #757, .F. ) ;
#605 = ORIENTED_EDGE ( 'NONE', *, *, #932, .F. ) ;
#606 = VECTOR ( 'NONE', #67, 1000.000000000000000 ) ;
#607 = VECTOR ( 'NONE', #500, 1000.000000000000000 ) ;
#608 = EDGE_CURVE ( 'NONE', #69, #417, #447, .T. ) ;
#609 = AXIS2_PLACEMENT_3D ( 'NONE', #96, #899, #460 ) ;
#610 = COLOUR_RGB ( '',0.1450980392156862586, 0.1568627450980392135, 0.1647058823529411742 ) ;
#611 = ORIENTED_EDGE ( 'NONE', *, *, #816, .F. ) ;
#612 = FILL_AREA_STYLE ('',( #155 ) ) ;
#613 = ORIENTED_EDGE ( 'NONE', *, *, #969, .F. ) ;
#614 = CARTESIAN_POINT ( 'NONE',  ( 0.5000000000000004441, 0.000000000000000000, 2.000000000000000000 ) ) ;
#615 = EDGE_LOOP ( 'NONE', ( #48, #252, #962, #562 ) ) ;
#616 = DIRECTION ( 'NONE',  ( -0.000000000000000000, -0.000000000000000000, 1.000000000000000000 ) ) ;
#617 = DIRECTION ( 'NONE',  ( 0.000000000000000000, 0.000000000000000000, 1.000000000000000000 ) ) ;
#618 = DIRECTION ( 'NONE',  ( 0.000000000000000000, 0.000000000000000000, -1.000000000000000000 ) ) ;
#619 = CIRCLE ( 'NONE', #859, 4.000000000000000000 ) ;
#620 = VERTEX_POINT ( 'NONE', #370 ) ;
#621 = PRODUCT_DEFINITION_FORMATION_WITH_SPECIFIED_SOURCE ( 'ANY', '', #422, .NOT_KNOWN. ) ;
#622 = EDGE_CURVE ( 'NONE', #104, #866, #983, .T. ) ;
#623 = CARTESIAN_POINT ( 'NONE',  ( 0.000000000000000000, 0.000000000000000000, 2.286000000000000032 ) ) ;
#624 = DIRECTION ( 'NONE',  ( 1.000000000000000000, 0.000000000000000000, 0.000000000000000000 ) ) ;
#625 = VERTEX_POINT ( 'NONE', #894 ) ;
#626 = CARTESIAN_POINT ( 'NONE',  ( 0.2499999999999988343, 4.000000000000001776, -2.000000000000002220 ) ) ;
#627 = CARTESIAN_POINT ( 'NONE',  ( 0.000000000000000000, 0.000000000000000000, 2.286000000000000032 ) ) ;
#628 = CARTESIAN_POINT ( 'NONE',  ( 0.5000000000000920375, 2.326828918380130123E-16, 0.9500000000000650147 ) ) ;
#629 =( NAMED_UNIT ( * ) PLANE_ANGLE_UNIT ( ) SI_UNIT ( $, .RADIAN. ) );
#630 = EDGE_LOOP ( 'NONE', ( #644, #1012, #949, #695 ) ) ;
#631 = CARTESIAN_POINT ( 'NONE',  ( -0.1021126760563413477, 3.260563380281691348, 1.630281690140844564 ) ) ;
#632 = DIRECTION ( 'NONE',  ( 1.445602896647339163E-16, 1.000000000000000000, -0.000000000000000000 ) ) ;
#633 = ADVANCED_FACE ( 'NONE', ( #455 ), #1058, .F. ) ;
#634 = CARTESIAN_POINT ( 'NONE',  ( 0.2687352311006460659, 2.550792958447336112, 1.275396479223667390 ) ) ;
#635 = AXIS2_PLACEMENT_3D ( 'NONE', #552, #912, #838 ) ;
#636 = ORIENTED_EDGE ( 'NONE', *, *, #1000, .F. ) ;
#637 = PRODUCT_DEFINITION_SHAPE ( 'NONE', 'NONE',  #244 ) ;
#638 = EDGE_LOOP ( 'NONE', ( #1043, #1128, #436, #667 ) ) ;
#639 = VECTOR ( 'NONE', #1010, 1000.000000000000000 ) ;
#640 = CARTESIAN_POINT ( 'NONE',  ( 2.999999999999864109, 5.907708476162261770E-14, 8.950628149161543590 ) ) ;
#641 = AXIS2_PLACEMENT_3D ( 'NONE', #425, #49, #60 ) ;
#642 = CARTESIAN_POINT ( 'NONE',  ( -1.750000000000000444, 3.350000000000000089, -2.286000000000000032 ) ) ;
#643 = CARTESIAN_POINT ( 'NONE',  ( 66.75000000000000000, 0.000000000000000000, 0.5999999999999999778 ) ) ;
#644 = ORIENTED_EDGE ( 'NONE', *, *, #901, .F. ) ;
#645 = DIRECTION ( 'NONE',  ( -1.000000000000000000, 0.000000000000000000, 0.000000000000000000 ) ) ;
#646 = LINE ( 'NONE', #642, #639 ) ;
#647 = PRODUCT_DEFINITION_CONTEXT ( 'detailed design', #875, 'design' ) ;
#648 = CARTESIAN_POINT ( 'NONE',  ( -4.000000000000000000, 6.344288770224760121, -2.286000000000000032 ) ) ;
#649 = ORIENTED_EDGE ( 'NONE', *, *, #697, .F. ) ;
#650 = ADVANCED_FACE ( 'NONE', ( #535, #805, #361 ), #713, .T. ) ;
#651 = LINE ( 'NONE', #477, #593 ) ;
#652 = FACE_OUTER_BOUND ( 'NONE', #218, .T. ) ;
#653 = DIRECTION ( 'NONE',  ( 0.000000000000000000, 0.000000000000000000, 1.000000000000000000 ) ) ;
#654 = ORIENTED_EDGE ( 'NONE', *, *, #969, .T. ) ;
#655 = AXIS2_PLACEMENT_3D ( 'NONE', #27, #508, #579 ) ;
#656 =( GEOMETRIC_REPRESENTATION_CONTEXT ( 3 ) GLOBAL_UNCERTAINTY_ASSIGNED_CONTEXT ( ( #1130 ) ) GLOBAL_UNIT_ASSIGNED_CONTEXT ( ( #716, #897, #81 ) ) REPRESENTATION_CONTEXT ( 'NONE', 'WORKASPACE' ) );
#657 = DIRECTION ( 'NONE',  ( 1.000000000000000000, -0.000000000000000000, -0.000000000000000000 ) ) ;
#658 = CARTESIAN_POINT ( 'NONE',  ( 4.199999999999995737, 0.000000000000000000, 0.000000000000000000 ) ) ;
#659 = CIRCLE ( 'NONE', #368, 7.500000000000000000 ) ;
#660 = AXIS2_PLACEMENT_3D ( 'NONE', #984, #624, #362 ) ;
#661 = CYLINDRICAL_SURFACE ( 'NONE', #414, 0.9499999999999999556 ) ;
#662 = UNCERTAINTY_MEASURE_WITH_UNIT (LENGTH_MEASURE( 1.000000000000000082E-05 ), #970, 'distance_accuracy_value', 'NONE');
#663 =( GEOMETRIC_REPRESENTATION_CONTEXT ( 3 ) GLOBAL_UNCERTAINTY_ASSIGNED_CONTEXT ( ( #845 ) ) GLOBAL_UNIT_ASSIGNED_CONTEXT ( ( #156, #629, #468 ) ) REPRESENTATION_CONTEXT ( 'NONE', 'WORKASPACE' ) );
#664 = CARTESIAN_POINT ( 'NONE',  ( 0.000000000000000000, 0.000000000000000000, 2.286000000000000032 ) ) ;
#665 = APPLICATION_CONTEXT ( 'automotive_design' ) ;
#666 = ORIENTED_EDGE ( 'NONE', *, *, #802, .T. ) ;
#667 = ORIENTED_EDGE ( 'NONE', *, *, #452, .F. ) ;
#668 = LINE ( 'NONE', #296, #286 ) ;
#669 = SURFACE_STYLE_USAGE ( .BOTH. , #14 ) ;
#670 = CARTESIAN_POINT ( 'NONE',  ( -0.1021126760563413616, -2.720500745945820850E-16, -1.630281690140845896 ) ) ;
#671 = SHAPE_DEFINITION_REPRESENTATION ( #940, #114 ) ;
#672 = EDGE_CURVE ( 'NONE', #702, #696, #966, .T. ) ;
#673 = DIRECTION ( 'NONE',  ( -0.000000000000000000, -0.000000000000000000, -1.000000000000000000 ) ) ;
#674 = LINE ( 'NONE', #141, #1165 ) ;
#675 = ORIENTED_EDGE ( 'NONE', *, *, #255, .T. ) ;
#676 = PLANE ( 'NONE',  #699 ) ;
#677 = CARTESIAN_POINT ( 'NONE',  ( 4.000000000000000000, 0.000000000000000000, -2.286000000000000032 ) ) ;
#678 = ITEM_DEFINED_TRANSFORMATION ( 'NONE', 'NONE', #56,  #798 ) ;
#679 = UNCERTAINTY_MEASURE_WITH_UNIT (LENGTH_MEASURE( 1.000000000000000082E-05 ), #247, 'distance_accuracy_value', 'NONE');
#680 = CARTESIAN_POINT ( 'NONE',  ( 0.000000000000000000, 0.000000000000000000, -2.286000000000000032 ) ) ;
#681 = ADVANCED_FACE ( 'NONE', ( #809 ), #780, .T. ) ;
#682 = CARTESIAN_POINT ( 'NONE',  ( -0.5346667145442909330, 7.481739413329378863, 0.3140147453012965828 ) ) ;
#683 = DIRECTION ( 'NONE',  ( 1.000000000000000000, 0.000000000000000000, 0.000000000000000000 ) ) ;
#684 = ORIENTED_EDGE ( 'NONE', *, *, #1137, .F. ) ;
#685 = PLANE ( 'NONE',  #907 ) ;
#686 = AXIS2_PLACEMENT_3D ( 'NONE', #572, #133, #960 ) ;
#687 = DIRECTION ( 'NONE',  ( -0.000000000000000000, -0.000000000000000000, -1.000000000000000000 ) ) ;
#688 = AXIS2_PLACEMENT_3D ( 'NONE', #120, #489, #841 ) ;
#689 = SHAPE_REPRESENTATION ( '228-2500-430', ( #641, #688, #207, #171 ), #877 ) ;
#690 = FACE_OUTER_BOUND ( 'NONE', #785, .T. ) ;
#691 = APPLICATION_PROTOCOL_DEFINITION ( 'draft international standard', 'automotive_design', 1998, #95 ) ;
#692 = ORIENTED_EDGE ( 'NONE', *, *, #915, .F. ) ;
#693 = EDGE_CURVE ( 'NONE', #1151, #625, #795, .T. ) ;
#694 = PRODUCT_CONTEXT ( 'NONE', #222, 'mechanical' ) ;
#695 = ORIENTED_EDGE ( 'NONE', *, *, #848, .F. ) ;
#696 = VERTEX_POINT ( 'NONE', #315 ) ;
#697 = EDGE_CURVE ( 'NONE', #125, #820, #591, .T. ) ;
#698 = ORIENTED_EDGE ( 'NONE', *, *, #304, .T. ) ;
#699 = AXIS2_PLACEMENT_3D ( 'NONE', #418, #1129, #324 ) ;
#700 = CARTESIAN_POINT ( 'NONE',  ( 66.75000000000000000, 7.347880794884117764E-17, -0.5999999999999999778 ) ) ;
#701 =( GEOMETRIC_REPRESENTATION_CONTEXT ( 3 ) GLOBAL_UNCERTAINTY_ASSIGNED_CONTEXT ( ( #485 ) ) GLOBAL_UNIT_ASSIGNED_CONTEXT ( ( #1031, #843, #106 ) ) REPRESENTATION_CONTEXT ( 'NONE', 'WORKASPACE' ) );
#702 = VERTEX_POINT ( 'NONE', #1022 ) ;
#703 = SURFACE_STYLE_FILL_AREA ( #349 ) ;
#704 = CARTESIAN_POINT ( 'NONE',  ( 0.5000000000000918154, -3.999999999999869438, -1.999999999999934719 ) ) ;
#705 = DIRECTION ( 'NONE',  ( -1.000000000000000000, 0.000000000000000000, 0.000000000000000000 ) ) ;
#706 = EDGE_CURVE ( 'NONE', #769, #459, #210, .T. ) ;
#707 = ORIENTED_EDGE ( 'NONE', *, *, #672, .F. ) ;
#708 = CARTESIAN_POINT ( 'NONE',  ( 0.5000000000000920375, -1.900000000000130029, 0.9500000000000651257 ) ) ;
#709 = DIRECTION ( 'NONE',  ( -1.000000000000000000, 0.000000000000000000, 0.000000000000000000 ) ) ;
#710 = SURFACE_SIDE_STYLE ('',( #76 ) ) ;
#711 = EDGE_CURVE ( 'NONE', #199, #873, #232, .T. ) ;
#712 = ORIENTED_EDGE ( 'NONE', *, *, #816, .T. ) ;
#713 = PLANE ( 'NONE',  #813 ) ;
#714 = CARTESIAN_POINT ( 'NONE',  ( 0.9062499999999973355, -2.768091521313115186E-16, -1.375000000000000000 ) ) ;
#715 = VECTOR ( 'NONE', #995, 1000.000000000000000 ) ;
#716 =( LENGTH_UNIT ( ) NAMED_UNIT ( * ) SI_UNIT ( .MILLI., .METRE. ) );
#717 = ORIENTED_EDGE ( 'NONE', *, *, #546, .F. ) ;
#718 = EDGE_CURVE ( 'NONE', #820, #125, #188, .T. ) ;
#719 = DIRECTION ( 'NONE',  ( 1.000000000000000000, 0.000000000000000000, 0.000000000000000000 ) ) ;
#720 = FILL_AREA_STYLE ('',( #1161 ) ) ;
#721 = CARTESIAN_POINT ( 'NONE',  ( 66.75000000000000000, 7.347880794884117764E-17, -0.5999999999999999778 ) ) ;
#722 = ORIENTED_EDGE ( 'NONE', *, *, #367, .T. ) ;
#723 = APPLICATION_CONTEXT ( 'automotive_design' ) ;
#724 = CARTESIAN_POINT ( 'NONE',  ( 0.2687352311006460659, -2.550792958447335668, 1.275396479223668056 ) ) ;
#725 = EDGE_CURVE ( 'NONE', #199, #69, #1141, .T. ) ;
#726 = FACE_OUTER_BOUND ( 'NONE', #248, .T. ) ;
#727 = DIRECTION ( 'NONE',  ( 1.000000000000000000, 0.000000000000000000, 0.000000000000000000 ) ) ;
#728 = ORIENTED_EDGE ( 'NONE', *, *, #608, .T. ) ;
#729 = SURFACE_SIDE_STYLE ('',( #703 ) ) ;
#730 = DIRECTION ( 'NONE',  ( 1.000000000000000000, 0.000000000000000000, -0.000000000000000000 ) ) ;
#731 = CARTESIAN_POINT ( 'NONE',  ( 4.000000000000000000, 0.000000000000000000, 2.286000000000000032 ) ) ;
#732 = CLOSED_SHELL ( 'NONE', ( #883, #943, #9, #510 ) ) ;
#733 = CARTESIAN_POINT ( 'NONE',  ( 0.5000000000000918154, 3.999999999999869438, -1.999999999999935385 ) ) ;
#734 = ORIENTED_EDGE ( 'NONE', *, *, #782, .F. ) ;
#735 = PRODUCT_DEFINITION_SHAPE ( 'NONE', 'NONE',  #1178 ) ;
#736 = CIRCLE ( 'NONE', #233, 2.100000000000000089 ) ;
#737 = CIRCLE ( 'NONE', #1170, 2.000000000000000000 ) ;
#738 = CARTESIAN_POINT ( 'NONE',  ( 0.2499999999999987232, 1.499999999999996669, 0.7499999999999978906 ) ) ;
#739 = DIRECTION ( 'NONE',  ( 1.000000000000000000, 4.876213336336211057E-15, 5.192639793547426971E-15 ) ) ;
#740 = DIRECTION ( 'NONE',  ( 0.000000000000000000, 0.000000000000000000, 1.000000000000000000 ) ) ;
#741 = ORIENTED_EDGE ( 'NONE', *, *, #337, .F. ) ;
#742 = DIRECTION ( 'NONE',  ( 0.000000000000000000, 0.000000000000000000, 1.000000000000000000 ) ) ;
#743 = CARTESIAN_POINT ( 'NONE',  ( 0.000000000000000000, 7.500000000000000000, -0.5999999999999999778 ) ) ;
#744 = UNCERTAINTY_MEASURE_WITH_UNIT (LENGTH_MEASURE( 1.000000000000000082E-05 ), #217, 'distance_accuracy_value', 'NONE');
#745 = CARTESIAN_POINT ( 'NONE',  ( 1.238690775967998814, 0.000000000000000000, 1.475000000000000089 ) ) ;
#746 = VERTEX_POINT ( 'NONE', #387 ) ;
#747 = PLANE ( 'NONE',  #253 ) ;
#748 =( NAMED_UNIT ( * ) SI_UNIT ( $, .STERADIAN. ) SOLID_ANGLE_UNIT ( ) );
#749 = CARTESIAN_POINT ( 'NONE',  ( 0.5363649185556312871, 7.481637635605896897, 0.3121211006322544557 ) ) ;
#750 = DIRECTION ( 'NONE',  ( -0.000000000000000000, -1.000000000000000000, -0.000000000000000000 ) ) ;
#751 = FACE_BOUND ( 'NONE', #93, .T. ) ;
#752 = AXIS2_PLACEMENT_3D ( 'NONE', #363, #256, #803 ) ;
#753 = CIRCLE ( 'NONE', #461, 0.9062499999999998890 ) ;
#754 = DIRECTION ( 'NONE',  ( 0.000000000000000000, 0.000000000000000000, 1.000000000000000000 ) ) ;
#755 = CARTESIAN_POINT ( 'NONE',  ( 4.000000000000003553, 0.000000000000000000, 0.000000000000000000 ) ) ;
#756 = PRODUCT_DEFINITION_SHAPE ( 'NONE', 'NONE',  #1175 ) ;
#757 = EDGE_CURVE ( 'NONE', #992, #475, #668, .T. ) ;
#758 = VECTOR ( 'NONE', #850, 1000.000000000000000 ) ;
#759 = LINE ( 'NONE', #472, #1045 ) ;
#760 = UNCERTAINTY_MEASURE_WITH_UNIT (LENGTH_MEASURE( 1.000000000000000082E-05 ), #878, 'distance_accuracy_value', 'NONE');
#761 = LINE ( 'NONE', #321, #1059 ) ;
#762 = CARTESIAN_POINT ( 'NONE',  ( 1.749999999999999334, 4.850000000000000533, -2.286000000000000032 ) ) ;
#763 = ORIENTED_EDGE ( 'NONE', *, *, #622, .F. ) ;
#764 = DIRECTION ( 'NONE',  ( 0.000000000000000000, -1.000000000000000000, 0.000000000000000000 ) ) ;
#765 = EDGE_CURVE ( 'NONE', #548, #344, #920, .T. ) ;
#766 = CARTESIAN_POINT ( 'NONE',  ( 2.999999999999984013, 5.161492250957792086E-29, 0.9499999999999722000 ) ) ;
#767 = LINE ( 'NONE', #1133, #791 ) ;
#768 = CARTESIAN_POINT ( 'NONE',  ( 0.000000000000000000, 0.000000000000000000, 0.000000000000000000 ) ) ;
#769 = VERTEX_POINT ( 'NONE', #482 ) ;
#770 = DIRECTION ( 'NONE',  ( 0.000000000000000000, 0.000000000000000000, -1.000000000000000000 ) ) ;
#771 = PLANE ( 'NONE',  #347 ) ;
#772 = EDGE_CURVE ( 'NONE', #64, #620, #128, .T. ) ;
#773 = ORIENTED_EDGE ( 'NONE', *, *, #1008, .T. ) ;
#774 =( NAMED_UNIT ( * ) PLANE_ANGLE_UNIT ( ) SI_UNIT ( $, .RADIAN. ) );
#775 = DIRECTION ( 'NONE',  ( 0.000000000000000000, -1.000000000000000000, -5.551115123125782702E-17 ) ) ;
#776 = ORIENTED_EDGE ( 'NONE', *, *, #974, .F. ) ;
#777 = VECTOR ( 'NONE', #288, 1000.000000000000000 ) ;
#778 = CONTEXT_DEPENDENT_SHAPE_REPRESENTATION ( #15, #412 ) ;
#779 = VECTOR ( 'NONE', #101, 1000.000000000000000 ) ;
#780 =( BOUNDED_SURFACE ( )  B_SPLINE_SURFACE ( 3, 3, ( 
 ( #530, #626, #817, #1048 ),
 ( #376, #278, #631, #1030 ),
 ( #1104, #121, #554, #219 ),
 ( #1098, #575, #738, #29 ) ),
 .UNSPECIFIED., .F., .F., .T. ) 
 B_SPLINE_SURFACE_WITH_KNOTS ( ( 4, 4 ),
 ( 4, 4 ),
 ( 0.000000000000000000, 1.000000000000000000 ),
 ( 0.000000000000000000, 1.000000000000000000 ),
 .UNSPECIFIED. ) 
 GEOMETRIC_REPRESENTATION_ITEM ( )  RATIONAL_B_SPLINE_SURFACE ( (
 ( 1.000000000000000000, 0.3333333333333334259, 0.3333333333333334259, 1.000000000000000000),
 ( 0.8160919540229875091, 0.2720306513409959104, 0.2720306513409959104, 0.8160919540229875091),
 ( 0.8160919540229875091, 0.2720306513409959104, 0.2720306513409959104, 0.8160919540229875091),
 ( 1.000000000000000000, 0.3333333333333334259, 0.3333333333333334259, 1.000000000000000000) ) ) 
 REPRESENTATION_ITEM ( '' )  SURFACE ( )  );
#781 = FACE_OUTER_BOUND ( 'NONE', #77, .T. ) ;
#782 = EDGE_CURVE ( 'NONE', #769, #1096, #619, .T. ) ;
#783 = ORIENTED_EDGE ( 'NONE', *, *, #109, .T. ) ;
#784 =( NAMED_UNIT ( * ) PLANE_ANGLE_UNIT ( ) SI_UNIT ( $, .RADIAN. ) );
#785 = EDGE_LOOP ( 'NONE', ( #341, #542, #934, #462 ) ) ;
#786 =( REPRESENTATION_RELATIONSHIP ('NONE','NONE', #689, #195 ) REPRESENTATION_RELATIONSHIP_WITH_TRANSFORMATION ( #25 )SHAPE_REPRESENTATION_RELATIONSHIP( ) );
#787 = DIRECTION ( 'NONE',  ( -1.000000000000000000, -0.000000000000000000, -0.000000000000000000 ) ) ;
#788 = DIRECTION ( 'NONE',  ( 1.000000000000000000, 0.000000000000000000, 0.000000000000000000 ) ) ;
#789 = VERTEX_POINT ( 'NONE', #202 ) ;
#790 = CARTESIAN_POINT ( 'NONE',  ( -4.000000000000000000, 0.000000000000000000, -2.286000000000000032 ) ) ;
#791 = VECTOR ( 'NONE', #958, 1000.000000000000000 ) ;
#792 = EDGE_CURVE ( 'NONE', #746, #702, #1123, .T. ) ;
#793 = AXIS2_PLACEMENT_3D ( 'NONE', #505, #673, #1034 ) ;
#794 = DIRECTION ( 'NONE',  ( -0.000000000000000000, -0.000000000000000000, -1.000000000000000000 ) ) ;
#795 = CIRCLE ( 'NONE', #1094, 0.5999999999999999778 ) ;
#796 = VECTOR ( 'NONE', #863, 1000.000000000000000 ) ;
#797 = CARTESIAN_POINT ( 'NONE',  ( 4.000000000000003553, 0.000000000000000000, 0.000000000000000000 ) ) ;
#798 = AXIS2_PLACEMENT_3D ( 'NONE', #408, #559, #921 ) ;
#799 = VERTEX_POINT ( 'NONE', #380 ) ;
#800 = DIRECTION ( 'NONE',  ( 1.000000000000000000, 4.876213336336211057E-15, 5.192639793547426971E-15 ) ) ;
#801 = DIRECTION ( 'NONE',  ( 1.000000000000000000, 0.000000000000000000, -0.000000000000000000 ) ) ;
#802 = EDGE_CURVE ( 'NONE', #557, #379, #651, .T. ) ;
#803 = DIRECTION ( 'NONE',  ( 0.000000000000000000, 0.000000000000000000, 1.000000000000000000 ) ) ;
#804 = ORIENTED_EDGE ( 'NONE', *, *, #441, .T. ) ;
#805 = FACE_OUTER_BOUND ( 'NONE', #1055, .T. ) ;
#806 = FACE_BOUND ( 'NONE', #480, .T. ) ;
#807 = ADVANCED_FACE ( 'NONE', ( #497 ), #192, .T. ) ;
#808 = VERTEX_POINT ( 'NONE', #6 ) ;
#809 = FACE_OUTER_BOUND ( 'NONE', #280, .T. ) ;
#810 = CARTESIAN_POINT ( 'NONE',  ( -0.2000000000000057288, 0.000000000000000000, 0.000000000000000000 ) ) ;
#811 = VECTOR ( 'NONE', #474, 1000.000000000000000 ) ;
#812 = CARTESIAN_POINT ( 'NONE',  ( 0.5000000000000918154, 3.999999999999870326, 1.999999999999934053 ) ) ;
#813 = AXIS2_PLACEMENT_3D ( 'NONE', #623, #910, #1078 ) ;
#814 = MECHANICAL_DESIGN_GEOMETRIC_PRESENTATION_REPRESENTATION (  '', ( #369 ), #389 ) ;
#815 = ORIENTED_EDGE ( 'NONE', *, *, #596, .F. ) ;
#816 = EDGE_CURVE ( 'NONE', #992, #5, #927, .T. ) ;
#817 = CARTESIAN_POINT ( 'NONE',  ( 0.2499999999999988343, 4.000000000000002665, 2.000000000000000000 ) ) ;
#818 = CYLINDRICAL_SURFACE ( 'NONE', #549, 4.000000000000000000 ) ;
#819 = CARTESIAN_POINT ( 'NONE',  ( 0.5000000000000920375, 1.900000000000129585, -0.9500000000000651257 ) ) ;
#820 = VERTEX_POINT ( 'NONE', #21 ) ;
#821 = DIRECTION ( 'NONE',  ( 0.000000000000000000, 1.000000000000000000, 1.224646799147353207E-16 ) ) ;
#822 = FACE_OUTER_BOUND ( 'NONE', #237, .T. ) ;
#823 = CARTESIAN_POINT ( 'NONE',  ( -1.750000000000000666, 4.850000000000000533, 2.286000000000000032 ) ) ;
#824 =( REPRESENTATION_RELATIONSHIP ('NONE','NONE', #689, #28 ) REPRESENTATION_RELATIONSHIP_WITH_TRANSFORMATION ( #598 )SHAPE_REPRESENTATION_RELATIONSHIP( ) );
#825 = EDGE_LOOP ( 'NONE', ( #517, #926, #773, #903 ) ) ;
#826 = ORIENTED_EDGE ( 'NONE', *, *, #182, .F. ) ;
#827 = DIRECTION ( 'NONE',  ( -1.000000000000000000, 0.000000000000000000, 0.000000000000000000 ) ) ;
#828 = CARTESIAN_POINT ( 'NONE',  ( 0.3123226340010450963, 7.494334100416290667, 0.5362475917034296158 ) ) ;
#829 = ADVANCED_FACE ( 'NONE', ( #401 ), #747, .F. ) ;
#830 =( NAMED_UNIT ( * ) SI_UNIT ( $, .STERADIAN. ) SOLID_ANGLE_UNIT ( ) );
#831 = AXIS2_PLACEMENT_3D ( 'NONE', #550, #719, #997 ) ;
#832 = VERTEX_POINT ( 'NONE', #37 ) ;
#833 = PRODUCT ( '228-2500-449 Rev1_228-2500-449', '228-2500-449 Rev1_228-2500-449', '', ( #130 ) ) ;
#834 = DIRECTION ( 'NONE',  ( 1.000000000000000000, 0.000000000000000000, 0.000000000000000000 ) ) ;
#835 = LINE ( 'NONE', #677, #35 ) ;
#836 = CARTESIAN_POINT ( 'NONE',  ( 0.6000563111324564991, 7.475956957250750712, 0.1563901809328014925 ) ) ;
#837 = ADVANCED_FACE ( 'NONE', ( #857 ), #676, .F. ) ;
#838 = DIRECTION ( 'NONE',  ( 1.445602896647339163E-16, -1.000000000000000000, 0.000000000000000000 ) ) ;
#839 = PRODUCT_DEFINITION ( 'UNKNOWN', '', #310, #17 ) ;
#840 = ORIENTED_EDGE ( 'NONE', *, *, #693, .T. ) ;
#841 = DIRECTION ( 'NONE',  ( 1.000000000000000000, 0.000000000000000000, 0.000000000000000000 ) ) ;
#842 = DIRECTION ( 'NONE',  ( 1.000000000000000000, 0.000000000000000000, -0.000000000000000000 ) ) ;
#843 =( NAMED_UNIT ( * ) PLANE_ANGLE_UNIT ( ) SI_UNIT ( $, .RADIAN. ) );
#844 = CARTESIAN_POINT ( 'NONE',  ( 0.2499999999999988065, -3.091583575780234499E-16, -2.000000000000001332 ) ) ;
#845 = UNCERTAINTY_MEASURE_WITH_UNIT (LENGTH_MEASURE( 1.000000000000000082E-05 ), #156, 'distance_accuracy_value', 'NONE');
#846 = PLANE ( 'NONE',  #547 ) ;
#847 = CARTESIAN_POINT ( 'NONE',  ( 0.2500000000000002220, 0.000000000000000000, 0.000000000000000000 ) ) ;
#848 = EDGE_CURVE ( 'NONE', #799, #100, #737, .T. ) ;
#849 = DIRECTION ( 'NONE',  ( -0.000000000000000000, -0.000000000000000000, 1.000000000000000000 ) ) ;
#850 = DIRECTION ( 'NONE',  ( -0.000000000000000000, -0.000000000000000000, 1.000000000000000000 ) ) ;
#851 = CONTEXT_DEPENDENT_SHAPE_REPRESENTATION ( #1112, #735 ) ;
#852 = CYLINDRICAL_SURFACE ( 'NONE', #306, 2.100000000000000089 ) ;
#853 = VERTEX_POINT ( 'NONE', #953 ) ;
#854 = MECHANICAL_DESIGN_GEOMETRIC_PRESENTATION_REPRESENTATION (  '', ( #887 ), #656 ) ;
#855 = ADVANCED_FACE ( 'NONE', ( #1079 ), #818, .T. ) ;
#856 = ORIENTED_EDGE ( 'NONE', *, *, #1174, .F. ) ;
#857 = FACE_OUTER_BOUND ( 'NONE', #1172, .T. ) ;
#858 = DIRECTION ( 'NONE',  ( -1.000000000000000000, 0.000000000000000000, 0.000000000000000000 ) ) ;
#859 = AXIS2_PLACEMENT_3D ( 'NONE', #395, #742, #1004 ) ;
#860 = DIRECTION ( 'NONE',  ( 0.000000000000000000, 0.000000000000000000, 1.000000000000000000 ) ) ;
#861 = PLANE ( 'NONE',  #364 ) ;
#862 = VERTEX_POINT ( 'NONE', #74 ) ;
#863 = DIRECTION ( 'NONE',  ( 1.445602896647339163E-16, 1.000000000000000000, -0.000000000000000000 ) ) ;
#864 = ADVANCED_FACE ( 'NONE', ( #1070 ), #187, .F. ) ;
#865 = DIRECTION ( 'NONE',  ( -1.000000000000000000, 0.000000000000000000, 0.000000000000000000 ) ) ;
#866 = VERTEX_POINT ( 'NONE', #614 ) ;
#867 = PRODUCT ( '228-2500-430', '228-2500-430', '', ( #1139 ) ) ;
#868 = ORIENTED_EDGE ( 'NONE', *, *, #38, .T. ) ;
#869 = EDGE_CURVE ( 'NONE', #799, #5, #985, .T. ) ;
#870 = DIRECTION ( 'NONE',  ( 0.000000000000000000, 0.000000000000000000, -1.000000000000000000 ) ) ;
#871 = DIRECTION ( 'NONE',  ( 0.000000000000000000, 0.000000000000000000, 1.000000000000000000 ) ) ;
#872 = DIRECTION ( 'NONE',  ( 0.000000000000000000, 5.551115123125782702E-17, -1.000000000000000222 ) ) ;
#873 = VERTEX_POINT ( 'NONE', #551 ) ;
#874 = AXIS2_PLACEMENT_3D ( 'NONE', #745, #902, #383 ) ;
#875 = APPLICATION_CONTEXT ( 'automotive_design' ) ;
#876 = CIRCLE ( 'NONE', #660, 0.5999999999999999778 ) ;
#877 =( GEOMETRIC_REPRESENTATION_CONTEXT ( 3 ) GLOBAL_UNCERTAINTY_ASSIGNED_CONTEXT ( ( #679 ) ) GLOBAL_UNIT_ASSIGNED_CONTEXT ( ( #247, #784, #435 ) ) REPRESENTATION_CONTEXT ( 'NONE', 'WORKASPACE' ) );
#878 =( LENGTH_UNIT ( ) NAMED_UNIT ( * ) SI_UNIT ( .MILLI., .METRE. ) );
#879 = APPLICATION_PROTOCOL_DEFINITION ( 'draft international standard', 'automotive_design', 1998, #1168 ) ;
#880 = ORIENTED_EDGE ( 'NONE', *, *, #974, .T. ) ;
#881 = DIRECTION ( 'NONE',  ( 0.000000000000000000, 0.000000000000000000, 1.000000000000000000 ) ) ;
#882 = ORIENTED_EDGE ( 'NONE', *, *, #109, .F. ) ;
#883 = ADVANCED_FACE ( 'NONE', ( #726 ), #986, .T. ) ;
#884 = FACE_OUTER_BOUND ( 'NONE', #539, .T. ) ;
#885 = CARTESIAN_POINT ( 'NONE',  ( 0.5000000000000004441, 0.000000000000000000, 0.9499999999999999556 ) ) ;
#886 = ORIENTED_EDGE ( 'NONE', *, *, #1103, .T. ) ;
#887 = STYLED_ITEM ( 'NONE', ( #445 ), #201 ) ;
#888 = PRODUCT_RELATED_PRODUCT_CATEGORY ( 'part', '', ( #833 ) ) ;
#889 = CARTESIAN_POINT ( 'NONE',  ( -1.750000000000000444, 3.350000000000000089, -2.286000000000000032 ) ) ;
#890 = AXIS2_PLACEMENT_3D ( 'NONE', #299, #750, #578 ) ;
#891 = VECTOR ( 'NONE', #259, 1000.000000000000000 ) ;
#892 =( GEOMETRIC_REPRESENTATION_CONTEXT ( 3 ) GLOBAL_UNCERTAINTY_ASSIGNED_CONTEXT ( ( #1115 ) ) GLOBAL_UNIT_ASSIGNED_CONTEXT ( ( #1033, #228, #1143 ) ) REPRESENTATION_CONTEXT ( 'NONE', 'WORKASPACE' ) );
#893 = EDGE_LOOP ( 'NONE', ( #763, #348, #649, #1081 ) ) ;
#894 = CARTESIAN_POINT ( 'NONE',  ( -66.75000000000000000, 0.000000000000000000, 0.5999999999999999778 ) ) ;
#895 = LINE ( 'NONE', #1083, #429 ) ;
#896 = EDGE_CURVE ( 'NONE', #557, #64, #994, .T. ) ;
#897 =( NAMED_UNIT ( * ) PLANE_ANGLE_UNIT ( ) SI_UNIT ( $, .RADIAN. ) );
#898 = ORIENTED_EDGE ( 'NONE', *, *, #772, .T. ) ;
#899 = DIRECTION ( 'NONE',  ( 0.000000000000000000, -1.000000000000000000, 0.000000000000000000 ) ) ;
#900 = PRESENTATION_STYLE_ASSIGNMENT (( #990 ) ) ;
#901 = EDGE_CURVE ( 'NONE', #104, #799, #895, .T. ) ;
#902 = DIRECTION ( 'NONE',  ( 0.000000000000000000, -1.000000000000000000, 0.000000000000000000 ) ) ;
#903 = ORIENTED_EDGE ( 'NONE', *, *, #560, .T. ) ;
#904 = CARTESIAN_POINT ( 'NONE',  ( 4.000000000000000000, 0.000000000000000000, -2.286000000000000032 ) ) ;
#905 = DIRECTION ( 'NONE',  ( 0.000000000000000000, 1.000000000000000000, -1.224646799147353207E-16 ) ) ;
#906 = CIRCLE ( 'NONE', #166, 2.100000000000000089 ) ;
#907 = AXIS2_PLACEMENT_3D ( 'NONE', #129, #930, #22 ) ;
#908 = ORIENTED_EDGE ( 'NONE', *, *, #757, .T. ) ;
#909 = MECHANICAL_DESIGN_GEOMETRIC_PRESENTATION_REPRESENTATION (  '', ( #75 ), #892 ) ;
#910 = DIRECTION ( 'NONE',  ( 0.000000000000000000, 0.000000000000000000, 1.000000000000000000 ) ) ;
#911 = DIRECTION ( 'NONE',  ( -1.000000000000000000, -0.000000000000000000, -0.000000000000000000 ) ) ;
#912 = DIRECTION ( 'NONE',  ( -1.000000000000000000, -1.445602896647339163E-16, 0.000000000000000000 ) ) ;
#913 = ORIENTED_EDGE ( 'NONE', *, *, #725, .F. ) ;
#914 = PRESENTATION_STYLE_ASSIGNMENT (( #1003 ) ) ;
#915 = EDGE_CURVE ( 'NONE', #338, #329, #876, .T. ) ;
#916 = DIRECTION ( 'NONE',  ( 0.000000000000000000, 0.000000000000000000, 1.000000000000000000 ) ) ;
#917 = DIRECTION ( 'NONE',  ( 0.000000000000000000, 0.000000000000000000, 1.000000000000000000 ) ) ;
#918 = DIRECTION ( 'NONE',  ( 0.000000000000000000, -1.000000000000000000, 0.000000000000000000 ) ) ;
#919 = ORIENTED_EDGE ( 'NONE', *, *, #869, .T. ) ;
#920 = LINE ( 'NONE', #936, #449 ) ;
#921 = DIRECTION ( 'NONE',  ( 1.000000000000000000, 0.000000000000000000, 0.000000000000000000 ) ) ;
#922 = ADVANCED_FACE ( 'NONE', ( #352 ), #1061, .T. ) ;
#923 = CARTESIAN_POINT ( 'NONE',  ( 4.595750661335919044E-13, 7.500000000000333955, 0.6000000000041715298 ) ) ;
#924 = PRODUCT_DEFINITION_CONTEXT ( 'detailed design', #665, 'design' ) ;
#925 = CARTESIAN_POINT ( 'NONE',  ( 0.000000000000000000, 0.000000000000000000, -2.286000000000000032 ) ) ;
#926 = ORIENTED_EDGE ( 'NONE', *, *, #304, .F. ) ;
#927 = CIRCLE ( 'NONE', #73, 0.7500000000000000000 ) ;
#928 = CIRCLE ( 'NONE', #1097, 0.8993686908363700550 ) ;
#929 = DIRECTION ( 'NONE',  ( 0.000000000000000000, 0.000000000000000000, 1.000000000000000000 ) ) ;
#930 = DIRECTION ( 'NONE',  ( -1.000000000000000000, 0.000000000000000000, 0.000000000000000000 ) ) ;
#931 = APPLICATION_CONTEXT ( 'automotive_design' ) ;
#932 = EDGE_CURVE ( 'NONE', #832, #789, #736, .T. ) ;
#933 = DIRECTION ( 'NONE',  ( 1.000000000000000000, 0.000000000000000000, 0.000000000000000000 ) ) ;
#934 = ORIENTED_EDGE ( 'NONE', *, *, #1000, .T. ) ;
#935 = SHAPE_REPRESENTATION_RELATIONSHIP ( 'NONE' , 'NONE' ,  #28, #1091 ) ;
#936 = CARTESIAN_POINT ( 'NONE',  ( -4.000000000000000000, 6.344288770224760121, 2.286000000000000032 ) ) ;
#937 = FACE_OUTER_BOUND ( 'NONE', #573, .T. ) ;
#938 = LINE ( 'NONE', #30, #169 ) ;
#939 = FILL_AREA_STYLE ('',( #1146 ) ) ;
#940 = PRODUCT_DEFINITION_SHAPE ( 'NONE', 'NONE',  #839 ) ;
#941 =( BOUNDED_SURFACE ( )  B_SPLINE_SURFACE ( 3, 3, ( 
 ( #487, #733, #812, #178 ),
 ( #10, #991, #92, #541 ),
 ( #2, #373, #634, #467 ),
 ( #276, #819, #999, #628 ) ),
 .UNSPECIFIED., .F., .F., .F. ) 
 B_SPLINE_SURFACE_WITH_KNOTS ( ( 4, 4 ),
 ( 4, 4 ),
 ( 0.000000000000000000, 1.000000000000000000 ),
 ( 0.000000000000000000, 1.000000000000000000 ),
 .UNSPECIFIED. ) 
 GEOMETRIC_REPRESENTATION_ITEM ( )  RATIONAL_B_SPLINE_SURFACE ( (
 ( 1.000000000000000000, 0.3333333333333334259, 0.3333333333333334259, 1.000000000000000000),
 ( 0.8767380420913336581, 0.2922460140304446452, 0.2922460140304446452, 0.8767380420913336581),
 ( 0.8767380420913336581, 0.2922460140304446452, 0.2922460140304446452, 0.8767380420913336581),
 ( 1.000000000000000000, 0.3333333333333334259, 0.3333333333333334259, 1.000000000000000000) ) ) 
 REPRESENTATION_ITEM ( '' )  SURFACE ( )  );
#942 = CARTESIAN_POINT ( 'NONE',  ( -2.100000000000000089, 0.000000000000000000, 2.286000000000000032 ) ) ;
#943 = ADVANCED_FACE ( 'NONE', ( #270 ), #1169, .T. ) ;
#944 = VERTEX_POINT ( 'NONE', #181 ) ;
#945 = ORIENTED_EDGE ( 'NONE', *, *, #239, .F. ) ;
#946 = DIRECTION ( 'NONE',  ( -0.000000000000000000, -0.000000000000000000, -1.000000000000000000 ) ) ;
#947 = LINE ( 'NONE', #40, #32 ) ;
#948 = AXIS2_PLACEMENT_3D ( 'NONE', #1056, #1163, #618 ) ;
#949 = ORIENTED_EDGE ( 'NONE', *, *, #382, .T. ) ;
#950 = VECTOR ( 'NONE', #616, 1000.000000000000000 ) ;
#951 = CIRCLE ( 'NONE', #54, 7.500000000000000000 ) ;
#952 = ORIENTED_EDGE ( 'NONE', *, *, #441, .F. ) ;
#953 = CARTESIAN_POINT ( 'NONE',  ( -1.750000000000000444, 3.350000000000000089, 2.286000000000000032 ) ) ;
#954 = PRODUCT ( '228-2500-430-00 Rev1_228-2500-430-00', '228-2500-430-00 Rev1_228-2500-430-00', '', ( #516 ) ) ;
#955 = AXIS2_PLACEMENT_3D ( 'NONE', #565, #827, #929 ) ;
#956 = PRODUCT_DEFINITION_FORMATION_WITH_SPECIFIED_SOURCE ( 'ANY', '', #833, .NOT_KNOWN. ) ;
#957 = DIRECTION ( 'NONE',  ( -1.000000000000000000, 0.000000000000000000, 0.000000000000000000 ) ) ;
#958 = DIRECTION ( 'NONE',  ( -0.000000000000000000, -0.000000000000000000, -1.000000000000000000 ) ) ;
#959 = EDGE_LOOP ( 'NONE', ( #113, #311, #1164, #179 ) ) ;
#960 = DIRECTION ( 'NONE',  ( -1.000000000000000000, 0.000000000000000000, 0.000000000000000000 ) ) ;
#961 = EDGE_LOOP ( 'NONE', ( #605, #717 ) ) ;
#962 = ORIENTED_EDGE ( 'NONE', *, *, #672, .T. ) ;
#963 = PRESENTATION_STYLE_ASSIGNMENT (( #1071 ) ) ;
#964 = TOROIDAL_SURFACE ( 'NONE', #282, -8.950628149161543590, 9.900628149161503799 ) ;
#965 = ORIENTED_EDGE ( 'NONE', *, *, #711, .F. ) ;
#966 = CIRCLE ( 'NONE', #609, 0.5999999999999999778 ) ;
#967 = PRESENTATION_LAYER_ASSIGNMENT (  '', '', ( #369 ) ) ;
#968 =( GEOMETRIC_REPRESENTATION_CONTEXT ( 3 ) GLOBAL_UNCERTAINTY_ASSIGNED_CONTEXT ( ( #570 ) ) GLOBAL_UNIT_ASSIGNED_CONTEXT ( ( #163, #158, #65 ) ) REPRESENTATION_CONTEXT ( 'NONE', 'WORKASPACE' ) );
#969 = EDGE_CURVE ( 'NONE', #1096, #534, #456, .T. ) ;
#970 =( LENGTH_UNIT ( ) NAMED_UNIT ( * ) SI_UNIT ( .MILLI., .METRE. ) );
#971 = ORIENTED_EDGE ( 'NONE', *, *, #932, .T. ) ;
#972 = MANIFOLD_SOLID_BREP ( 'Imported1', #330 ) ;
#973 = LINE ( 'NONE', #438, #606 ) ;
#974 = EDGE_CURVE ( 'NONE', #417, #69, #519, .T. ) ;
#975 = ORIENTED_EDGE ( 'NONE', *, *, #586, .T. ) ;
#976 = CARTESIAN_POINT ( 'NONE',  ( 0.2687352311006460659, 0.000000000000000000, 1.275396479223668056 ) ) ;
#977 = SURFACE_SIDE_STYLE ('',( #275 ) ) ;
#978 = DIRECTION ( 'NONE',  ( -1.000000000000000000, 0.000000000000000000, 0.000000000000000000 ) ) ;
#979 = ORIENTED_EDGE ( 'NONE', *, *, #382, .F. ) ;
#980 = CLOSED_SHELL ( 'NONE', ( #518, #359, #650, #1015, #855, #1131, #392, #470, #428, #837, #829, #267, #51, #345 ) ) ;
#981 = EDGE_CURVE ( 'NONE', #862, #557, #646, .T. ) ;
#982 = CARTESIAN_POINT ( 'NONE',  ( 0.5000000000000920375, -1.900000000000130029, -0.9500000000000650147 ) ) ;
#983 = CIRCLE ( 'NONE', #135, 2.000000000000000000 ) ;
#984 = CARTESIAN_POINT ( 'NONE',  ( 66.75000000000000000, 0.000000000000000000, 0.000000000000000000 ) ) ;
#985 = CIRCLE ( 'NONE', #1001, 0.9062499999999998890 ) ;
#986 = CYLINDRICAL_SURFACE ( 'NONE', #111, 0.5999999999999999778 ) ;
#987 = ORIENTED_EDGE ( 'NONE', *, *, #255, .F. ) ;
#988 = CARTESIAN_POINT ( 'NONE',  ( 0.5000000000000918154, 0.000000000000000000, 1.999999999999934941 ) ) ;
#989 = EDGE_CURVE ( 'NONE', #375, #746, #131, .T. ) ;
#990 = SURFACE_STYLE_USAGE ( .BOTH. , #977 ) ;
#991 = CARTESIAN_POINT ( 'NONE',  ( 0.2687352311006459549, 3.349207041552663355, -1.674603520776332344 ) ) ;
#992 = VERTEX_POINT ( 'NONE', #499 ) ;
#993 = CARTESIAN_POINT ( 'NONE',  ( 0.2687352311006459549, 0.000000000000000000, 1.674603520776331678 ) ) ;
#994 = LINE ( 'NONE', #443, #309 ) ;
#995 = DIRECTION ( 'NONE',  ( 1.445602896647339163E-16, -1.000000000000000000, 0.000000000000000000 ) ) ;
#996 = ORIENTED_EDGE ( 'NONE', *, *, #295, .F. ) ;
#997 = DIRECTION ( 'NONE',  ( 0.000000000000000000, 0.000000000000000000, -1.000000000000000000 ) ) ;
#998 = CARTESIAN_POINT ( 'NONE',  ( 4.000000000000000000, 0.000000000000000000, 2.286000000000000032 ) ) ;
#999 = CARTESIAN_POINT ( 'NONE',  ( 0.5000000000000920375, 1.900000000000130029, 0.9500000000000646816 ) ) ;
#1000 = EDGE_CURVE ( 'NONE', #64, #529, #759, .T. ) ;
#1001 = AXIS2_PLACEMENT_3D ( 'NONE', #714, #905, #164 ) ;
#1002 = ORIENTED_EDGE ( 'NONE', *, *, #802, .F. ) ;
#1003 = SURFACE_STYLE_USAGE ( .BOTH. , #729 ) ;
#1004 = DIRECTION ( 'NONE',  ( 1.000000000000000000, 0.000000000000000000, 0.000000000000000000 ) ) ;
#1005 = DIRECTION ( 'NONE',  ( 5.021567956775114176E-15, 0.000000000000000000, -1.000000000000000000 ) ) ;
#1006 = CYLINDRICAL_SURFACE ( 'NONE', #265, 0.5999999999999999778 ) ;
#1007 = ORIENTED_EDGE ( 'NONE', *, *, #400, .F. ) ;
#1008 = EDGE_CURVE ( 'NONE', #620, #152, #16, .T. ) ;
#1009 = DIRECTION ( 'NONE',  ( 0.000000000000000000, 0.000000000000000000, -1.000000000000000000 ) ) ;
#1010 = DIRECTION ( 'NONE',  ( 1.000000000000000000, 0.000000000000000000, 0.000000000000000000 ) ) ;
#1011 = DIRECTION ( 'NONE',  ( -1.000000000000000000, 0.000000000000000000, 0.000000000000000000 ) ) ;
#1012 = ORIENTED_EDGE ( 'NONE', *, *, #622, .T. ) ;
#1013 = DIRECTION ( 'NONE',  ( 0.000000000000000000, 0.000000000000000000, 1.000000000000000000 ) ) ;
#1014 = LINE ( 'NONE', #302, #796 ) ;
#1015 = ADVANCED_FACE ( 'NONE', ( #397, #193, #561 ), #491, .F. ) ;
#1016 = CARTESIAN_POINT ( 'NONE',  ( 4.199999999999995737, 0.000000000000000000, 0.000000000000000000 ) ) ;
#1017 = UNCERTAINTY_MEASURE_WITH_UNIT (LENGTH_MEASURE( 1.000000000000000082E-05 ), #396, 'distance_accuracy_value', 'NONE');
#1018 = CARTESIAN_POINT ( 'NONE',  ( 1.749999999999999112, 3.350000000000000089, 2.286000000000000032 ) ) ;
#1019 = AXIS2_PLACEMENT_3D ( 'NONE', #1093, #85, #393 ) ;
#1020 = ORIENTED_EDGE ( 'NONE', *, *, #869, .F. ) ;
#1021 = CIRCLE ( 'NONE', #1120, 2.100000000000000089 ) ;
#1022 = CARTESIAN_POINT ( 'NONE',  ( 7.347880794884117764E-17, 4.850000000000000533, 0.5999999999999999778 ) ) ;
#1023 = CYLINDRICAL_SURFACE ( 'NONE', #483, 2.000000000000000000 ) ;
#1024 = CARTESIAN_POINT ( 'NONE',  ( -0.1021126760563413477, -3.260563380281691348, 1.630281690140846118 ) ) ;
#1025 = APPLICATION_PROTOCOL_DEFINITION ( 'draft international standard', 'automotive_design', 1998, #57 ) ;
#1026 = PRODUCT_DEFINITION ( 'UNKNOWN', '', #956, #924 ) ;
#1027 = CYLINDRICAL_SURFACE ( 'NONE', #890, 0.5999999999999999778 ) ;
#1028 = DIRECTION ( 'NONE',  ( 1.000000000000000000, 0.000000000000000000, -0.000000000000000000 ) ) ;
#1029 = EDGE_LOOP ( 'NONE', ( #611, #908, #826, #272 ) ) ;
#1030 = CARTESIAN_POINT ( 'NONE',  ( -0.1021126760563413616, 5.077240679564552842E-16, 1.630281690140845896 ) ) ;
#1031 =( LENGTH_UNIT ( ) NAMED_UNIT ( * ) SI_UNIT ( .MILLI., .METRE. ) );
#1032 = CARTESIAN_POINT ( 'NONE',  ( -1.750000000000000666, 4.850000000000000533, -2.286000000000000032 ) ) ;
#1033 =( LENGTH_UNIT ( ) NAMED_UNIT ( * ) SI_UNIT ( .MILLI., .METRE. ) );
#1034 = DIRECTION ( 'NONE',  ( -1.000000000000000000, 0.000000000000000000, 0.000000000000000000 ) ) ;
#1035 = CARTESIAN_POINT ( 'NONE',  ( 2.100000000000000089, 2.571758278209441957E-16, -2.286000000000000032 ) ) ;
#1036 = EDGE_LOOP ( 'NONE', ( #1007, #945, #1155, #184 ) ) ;
#1037 = CARTESIAN_POINT ( 'NONE',  ( 0.2500000000000002220, 0.000000000000000000, 0.000000000000000000 ) ) ;
#1038 = DIRECTION ( 'NONE',  ( 0.000000000000000000, 0.000000000000000000, 1.000000000000000000 ) ) ;
#1039 = CONTEXT_DEPENDENT_SHAPE_REPRESENTATION ( #374, #473 ) ;
#1040 = DIRECTION ( 'NONE',  ( 1.000000000000000000, 0.000000000000000000, 0.000000000000000000 ) ) ;
#1041 = CARTESIAN_POINT ( 'NONE',  ( -0.5351685533447986254, 7.481702203656249495, -0.3132041175538384792 ) ) ;
#1042 = AXIS2_PLACEMENT_3D ( 'NONE', #271, #1064, #98 ) ;
#1043 = ORIENTED_EDGE ( 'NONE', *, *, #80, .F. ) ;
#1044 = DIRECTION ( 'NONE',  ( 0.000000000000000000, 1.000000000000000000, 0.000000000000000000 ) ) ;
#1045 = VECTOR ( 'NONE', #1099, 1000.000000000000000 ) ;
#1046 = PRESENTATION_LAYER_ASSIGNMENT (  '', '', ( #75 ) ) ;
#1047 = APPLICATION_PROTOCOL_DEFINITION ( 'draft international standard', 'automotive_design', 1998, #222 ) ;
#1048 = CARTESIAN_POINT ( 'NONE',  ( 0.2499999999999988065, 5.982789369074922193E-16, 2.000000000000001332 ) ) ;
#1049 = CARTESIAN_POINT ( 'NONE',  ( 0.2500000000000002220, 0.000000000000000000, 0.000000000000000000 ) ) ;
#1050 = CARTESIAN_POINT ( 'NONE',  ( 2.368286583846122402E-17, 7.500000000000000000, -0.5999999999999999778 ) ) ;
#1051 = PRODUCT_CONTEXT ( 'NONE', #95, 'mechanical' ) ;
#1052 = SHAPE_REPRESENTATION ( '228-2500-449 Rev1_228-2500-449', ( #798 ), #968 ) ;
#1053 = ORIENTED_EDGE ( 'NONE', *, *, #437, .F. ) ;
#1054 = CARTESIAN_POINT ( 'NONE',  ( -0.3139544922126061843, 7.494244846647556635, -0.5347286943501048384 ) ) ;
#1055 = EDGE_LOOP ( 'NONE', ( #1065, #99, #314, #886 ) ) ;
#1056 = CARTESIAN_POINT ( 'NONE',  ( 0.000000000000000000, 4.850000000000000533, 0.000000000000000000 ) ) ;
#1057 = ORIENTED_EDGE ( 'NONE', *, *, #536, .T. ) ;
#1058 =( BOUNDED_SURFACE ( )  B_SPLINE_SURFACE ( 3, 3, ( 
 ( #988, #1074, #704, #180 ),
 ( #993, #186, #78, #1082 ),
 ( #976, #724, #175, #1066 ),
 ( #356, #708, #982, #1160 ) ),
 .UNSPECIFIED., .F., .F., .F. ) 
 B_SPLINE_SURFACE_WITH_KNOTS ( ( 4, 4 ),
 ( 4, 4 ),
 ( 0.000000000000000000, 1.000000000000000000 ),
 ( 0.000000000000000000, 1.000000000000000000 ),
 .UNSPECIFIED. ) 
 GEOMETRIC_REPRESENTATION_ITEM ( )  RATIONAL_B_SPLINE_SURFACE ( (
 ( 1.000000000000000000, 0.3333333333333334259, 0.3333333333333334259, 1.000000000000000000),
 ( 0.8767380420913336581, 0.2922460140304446452, 0.2922460140304446452, 0.8767380420913336581),
 ( 0.8767380420913336581, 0.2922460140304446452, 0.2922460140304446452, 0.8767380420913336581),
 ( 1.000000000000000000, 0.3333333333333334259, 0.3333333333333334259, 1.000000000000000000) ) ) 
 REPRESENTATION_ITEM ( '' )  SURFACE ( )  );
#1059 = VECTOR ( 'NONE', #240, 1000.000000000000000 ) ;
#1060 = VECTOR ( 'NONE', #291, 1000.000000000000000 ) ;
#1061 = TOROIDAL_SURFACE ( 'NONE', #153, -8.950628149161543590, 9.900628149161503799 ) ;
#1062 = EDGE_CURVE ( 'NONE', #808, #87, #1021, .T. ) ;
#1063 = AXIS2_PLACEMENT_3D ( 'NONE', #755, #498, #770 ) ;
#1064 = DIRECTION ( 'NONE',  ( 1.000000000000000000, 0.000000000000000000, 0.000000000000000000 ) ) ;
#1065 = ORIENTED_EDGE ( 'NONE', *, *, #782, .T. ) ;
#1066 = CARTESIAN_POINT ( 'NONE',  ( 0.2687352311006460659, -1.561910215925068817E-16, -1.275396479223668056 ) ) ;
#1067 = CARTESIAN_POINT ( 'NONE',  ( 2.999999999999988898, 6.711889074043079042E-15, -8.808942506911560211E-17 ) ) ;
#1068 = ORIENTED_EDGE ( 'NONE', *, *, #848, .T. ) ;
#1069 = CARTESIAN_POINT ( 'NONE',  ( -4.000000000000000000, 6.344288770224760121, 2.286000000000000032 ) ) ;
#1070 = FACE_OUTER_BOUND ( 'NONE', #1029, .T. ) ;
#1071 = SURFACE_STYLE_USAGE ( .BOTH. , #710 ) ;
#1072 = EDGE_LOOP ( 'NONE', ( #360, #1144, #728, #996 ) ) ;
#1073 = EDGE_CURVE ( 'NONE', #375, #696, #555, .T. ) ;
#1074 = CARTESIAN_POINT ( 'NONE',  ( 0.5000000000000918154, -3.999999999999869438, 1.999999999999935163 ) ) ;
#1075 = MECHANICAL_DESIGN_GEOMETRIC_PRESENTATION_REPRESENTATION (  '', ( #365 ), #108 ) ;
#1076 = AXIS2_PLACEMENT_3D ( 'NONE', #640, #821, #558 ) ;
#1077 = EDGE_LOOP ( 'NONE', ( #1002, #1086, #1057, #191 ) ) ;
#1078 = DIRECTION ( 'NONE',  ( 1.000000000000000000, 0.000000000000000000, -0.000000000000000000 ) ) ;
#1079 = FACE_OUTER_BOUND ( 'NONE', #143, .T. ) ;
#1080 = FACE_OUTER_BOUND ( 'NONE', #394, .T. ) ;
#1081 = ORIENTED_EDGE ( 'NONE', *, *, #289, .F. ) ;
#1082 = CARTESIAN_POINT ( 'NONE',  ( 0.2687352311006459549, -2.050797841559623033E-16, -1.674603520776331678 ) ) ;
#1083 = CARTESIAN_POINT ( 'NONE',  ( 4.199999999999995737, 2.449293598294706414E-16, -2.000000000000000000 ) ) ;
#1084 = ADVANCED_FACE ( 'NONE', ( #652 ), #661, .T. ) ;
#1085 = FACE_OUTER_BOUND ( 'NONE', #1036, .T. ) ;
#1086 = ORIENTED_EDGE ( 'NONE', *, *, #981, .F. ) ;
#1087 = CARTESIAN_POINT ( 'NONE',  ( -66.75000000000000000, 0.000000000000000000, 0.000000000000000000 ) ) ;
#1088 = CIRCLE ( 'NONE', #68, 0.7500000000000000000 ) ;
#1089 = CARTESIAN_POINT ( 'NONE',  ( 0.000000000000000000, 0.000000000000000000, -2.286000000000000032 ) ) ;
#1090 = CIRCLE ( 'NONE', #590, 2.100000000000000089 ) ;
#1091 = ADVANCED_BREP_SHAPE_REPRESENTATION ( '', ( #201, #798 ), #663 ) ;
#1092 = ADVANCED_FACE ( 'NONE', ( #822 ), #1162, .T. ) ;
#1093 = CARTESIAN_POINT ( 'NONE',  ( 2.999999999999864109, 6.017322057294549609E-14, -8.950628149161543590 ) ) ;
#1094 = AXIS2_PLACEMENT_3D ( 'NONE', #1087, #834, #1009 ) ;
#1095 = AXIS2_PLACEMENT_3D ( 'NONE', #196, #407, #754 ) ;
#1096 = VERTEX_POINT ( 'NONE', #731 ) ;
#1097 = AXIS2_PLACEMENT_3D ( 'NONE', #220, #858, #43 ) ;
#1098 = CARTESIAN_POINT ( 'NONE',  ( 0.2499999999999986955, -2.002687271846017552E-16, -0.7499999999999983347 ) ) ;
#1099 = DIRECTION ( 'NONE',  ( -0.000000000000000000, -0.000000000000000000, 1.000000000000000000 ) ) ;
#1100 = PRODUCT_DEFINITION_CONTEXT ( 'detailed design', #723, 'design' ) ;
#1101 = LINE ( 'NONE', #823, #777 ) ;
#1102 = ORIENTED_EDGE ( 'NONE', *, *, #981, .T. ) ;
#1103 = EDGE_CURVE ( 'NONE', #548, #769, #938, .T. ) ;
#1104 = CARTESIAN_POINT ( 'NONE',  ( -0.1021126760563414448, -2.455461616601201735E-16, -1.119718309859154104 ) ) ;
#1105 = SHAPE_REPRESENTATION_RELATIONSHIP ( 'NONE' , 'NONE' ,  #114, #313 ) ;
#1106 = DIRECTION ( 'NONE',  ( -0.000000000000000000, -1.000000000000000000, -0.000000000000000000 ) ) ;
#1107 = CARTESIAN_POINT ( 'NONE',  ( 0.5000000000000004441, 0.000000000000000000, 0.000000000000000000 ) ) ;
#1108 = ORIENTED_EDGE ( 'NONE', *, *, #239, .T. ) ;
#1109 = CARTESIAN_POINT ( 'NONE',  ( -69.84999999999999432, 0.000000000000000000, 0.000000000000000000 ) ) ;
#1110 = CARTESIAN_POINT ( 'NONE',  ( -1.750000000000000444, 3.350000000000000089, -2.286000000000000032 ) ) ;
#1111 = FACE_OUTER_BOUND ( 'NONE', #630, .T. ) ;
#1112 =( REPRESENTATION_RELATIONSHIP ('NONE','NONE', #195, #114 ) REPRESENTATION_RELATIONSHIP_WITH_TRANSFORMATION ( #678 )SHAPE_REPRESENTATION_RELATIONSHIP( ) );
#1113 = CARTESIAN_POINT ( 'NONE',  ( 0.3136945355869887875, 7.494256357157092374, -0.5348752566402069641 ) ) ;
#1114 = PRESENTATION_STYLE_ASSIGNMENT (( #318 ) ) ;
#1115 = UNCERTAINTY_MEASURE_WITH_UNIT (LENGTH_MEASURE( 1.000000000000000082E-05 ), #1033, 'distance_accuracy_value', 'NONE');
#1116 = CARTESIAN_POINT ( 'NONE',  ( 1.238690775967998814, -1.806354028742346048E-16, -1.475000000000000089 ) ) ;
#1117 = CIRCLE ( 'NONE', #90, 4.000000000000000000 ) ;
#1118 = ORIENTED_EDGE ( 'NONE', *, *, #214, .T. ) ;
#1119 = PRODUCT ( '228-2500-430-01 Rev1_228-2500-430-01', '228-2500-430-01 Rev1_228-2500-430-01', '', ( #694 ) ) ;
#1120 = AXIS2_PLACEMENT_3D ( 'NONE', #285, #97, #107 ) ;
#1121 = ORIENTED_EDGE ( 'NONE', *, *, #915, .T. ) ;
#1122 = PRESENTATION_LAYER_ASSIGNMENT (  '', '', ( #154 ) ) ;
#1123 = LINE ( 'NONE', #301, #350 ) ;
#1124 = CARTESIAN_POINT ( 'NONE',  ( 2.368286583846122402E-17, 7.500000000000000000, -0.5999999999999999778 ) ) ;
#1125 = ITEM_DEFINED_TRANSFORMATION ( 'NONE', 'NONE', #391,  #798 ) ;
#1126 = FACE_OUTER_BOUND ( 'NONE', #426, .T. ) ;
#1127 = EDGE_LOOP ( 'NONE', ( #1108, #366, #597, #979 ) ) ;
#1128 = ORIENTED_EDGE ( 'NONE', *, *, #546, .T. ) ;
#1129 = DIRECTION ( 'NONE',  ( 1.000000000000000000, -1.445602896647339163E-16, 0.000000000000000000 ) ) ;
#1130 = UNCERTAINTY_MEASURE_WITH_UNIT (LENGTH_MEASURE( 1.000000000000000082E-05 ), #716, 'distance_accuracy_value', 'NONE');
#1131 = ADVANCED_FACE ( 'NONE', ( #937 ), #685, .F. ) ;
#1132 = CARTESIAN_POINT ( 'NONE',  ( -4.000000000000000000, 0.000000000000000000, 2.286000000000000032 ) ) ;
#1133 = CARTESIAN_POINT ( 'NONE',  ( 2.100000000000000089, 2.571758278209441957E-16, 2.286000000000000032 ) ) ;
#1134 = DIRECTION ( 'NONE',  ( 1.000000000000000000, 0.000000000000000000, 0.000000000000000000 ) ) ;
#1135 = ORIENTED_EDGE ( 'NONE', *, *, #353, .T. ) ;
#1136 = CARTESIAN_POINT ( 'NONE',  ( 4.199999999999995737, 0.000000000000000000, 2.000000000000000000 ) ) ;
#1137 = EDGE_CURVE ( 'NONE', #534, #62, #835, .T. ) ;
#1138 = CARTESIAN_POINT ( 'NONE',  ( 66.75000000000000000, 0.000000000000000000, 0.000000000000000000 ) ) ;
#1139 = PRODUCT_CONTEXT ( 'NONE', #1168, 'mechanical' ) ;
#1140 = ORIENTED_EDGE ( 'NONE', *, *, #80, .T. ) ;
#1141 = CIRCLE ( 'NONE', #1076, 9.900628149161503799 ) ;
#1142 = LINE ( 'NONE', #246, #587 ) ;
#1143 =( NAMED_UNIT ( * ) SI_UNIT ( $, .STERADIAN. ) SOLID_ANGLE_UNIT ( ) );
#1144 = ORIENTED_EDGE ( 'NONE', *, *, #725, .T. ) ;
#1145 = EDGE_CURVE ( 'NONE', #379, #529, #1014, .T. ) ;
#1146 = FILL_AREA_STYLE_COLOUR ( '', #371 ) ;
#1147 = CARTESIAN_POINT ( 'NONE',  ( 69.85000000000000853, 0.000000000000000000, 0.000000000000000000 ) ) ;
#1148 = ORIENTED_EDGE ( 'NONE', *, *, #274, .T. ) ;
#1149 = ADVANCED_FACE ( 'NONE', ( #1111 ), #1023, .T. ) ;
#1150 = FACE_OUTER_BOUND ( 'NONE', #1127, .T. ) ;
#1151 = VERTEX_POINT ( 'NONE', #211 ) ;
#1152 = DIRECTION ( 'NONE',  ( 0.000000000000000000, 0.000000000000000000, 1.000000000000000000 ) ) ;
#1153 = DIRECTION ( 'NONE',  ( 1.000000000000000000, 0.000000000000000000, 0.000000000000000000 ) ) ;
#1154 = AXIS2_PLACEMENT_3D ( 'NONE', #34, #574, #563 ) ;
#1155 = ORIENTED_EDGE ( 'NONE', *, *, #289, .T. ) ;
#1156 = CARTESIAN_POINT ( 'NONE',  ( -1.750000000000000666, 4.850000000000000533, 2.286000000000000032 ) ) ;
#1157 = DIRECTION ( 'NONE',  ( -1.000000000000000000, 0.000000000000000000, 0.000000000000000000 ) ) ;
#1158 = FACE_OUTER_BOUND ( 'NONE', #1072, .T. ) ;
#1159 = ORIENTED_EDGE ( 'NONE', *, *, #608, .F. ) ;
#1160 = CARTESIAN_POINT ( 'NONE',  ( 0.5000000000000920375, -1.163414459190065308E-16, -0.9500000000000650147 ) ) ;
#1161 = FILL_AREA_STYLE_COLOUR ( '', #567 ) ;
#1162 =( BOUNDED_SURFACE ( )  B_SPLINE_SURFACE ( 3, 3, ( 
 ( #117, #123, #317, #844 ),
 ( #24, #1024, #102, #670 ),
 ( #390, #478, #402, #212 ),
 ( #576, #221, #583, #1 ) ),
 .UNSPECIFIED., .F., .F., .F. ) 
 B_SPLINE_SURFACE_WITH_KNOTS ( ( 4, 4 ),
 ( 4, 4 ),
 ( 0.000000000000000000, 1.000000000000000000 ),
 ( 0.000000000000000000, 1.000000000000000000 ),
 .UNSPECIFIED. ) 
 GEOMETRIC_REPRESENTATION_ITEM ( )  RATIONAL_B_SPLINE_SURFACE ( (
 ( 1.000000000000000000, 0.3333333333333334259, 0.3333333333333334259, 1.000000000000000000),
 ( 0.8160919540229875091, 0.2720306513409959104, 0.2720306513409959104, 0.8160919540229875091),
 ( 0.8160919540229875091, 0.2720306513409959104, 0.2720306513409959104, 0.8160919540229875091),
 ( 1.000000000000000000, 0.3333333333333334259, 0.3333333333333334259, 1.000000000000000000) ) ) 
 REPRESENTATION_ITEM ( '' )  SURFACE ( )  );
#1163 = DIRECTION ( 'NONE',  ( 0.000000000000000000, -1.000000000000000000, 0.000000000000000000 ) ) ;
#1164 = ORIENTED_EDGE ( 'NONE', *, *, #1103, .F. ) ;
#1165 = VECTOR ( 'NONE', #600, 1000.000000000000000 ) ;
#1166 = CARTESIAN_POINT ( 'NONE',  ( 2.999999999999988898, 6.711889074043079042E-15, -8.808942506911560211E-17 ) ) ;
#1167 = VECTOR ( 'NONE', #865, 1000.000000000000000 ) ;
#1168 = APPLICATION_CONTEXT ( 'automotive_design' ) ;
#1169 = CYLINDRICAL_SURFACE ( 'NONE', #506, 0.5999999999999999778 ) ;
#1170 = AXIS2_PLACEMENT_3D ( 'NONE', #1037, #227, #589 ) ;
#1171 = CARTESIAN_POINT ( 'NONE',  ( -1.750000000000000666, 4.850000000000000533, -2.286000000000000032 ) ) ;
#1172 = EDGE_LOOP ( 'NONE', ( #636, #421, #666, #226 ) ) ;
#1173 = EDGE_CURVE ( 'NONE', #475, #944, #333, .T. ) ;
#1174 = EDGE_CURVE ( 'NONE', #873, #199, #928, .T. ) ;
#1175 = NEXT_ASSEMBLY_USAGE_OCCURRENCE ( 'NAUO1', ' ', ' ', #19, #61, $ ) ;
#1176 = NEXT_ASSEMBLY_USAGE_OCCURRENCE ( 'NAUO2', ' ', ' ', #19, #244, $ ) ;
#1177 = NEXT_ASSEMBLY_USAGE_OCCURRENCE ( 'NAUO3', ' ', ' ', #19, #244, $ ) ;
#1178 = NEXT_ASSEMBLY_USAGE_OCCURRENCE ( 'NAUO4', ' ', ' ', #61, #839, $ ) ;
#1179 = NEXT_ASSEMBLY_USAGE_OCCURRENCE ( 'NAUO5', ' ', ' ', #61, #1026, $ ) ;
#1180 = NEXT_ASSEMBLY_USAGE_OCCURRENCE ( 'NAUO6', ' ', ' ', #61, #1026, $ ) ;
ENDSEC;
END-ISO-10303-21;
