ISO-10303-21;
HEADER;
FILE_DESCRIPTION (( 'STEP AP203' ),
    '1' );
FILE_NAME ('228-2500-263.step',
    '2022-06-06T20:02:31',
    ( '' ),
    ( '' ),
    'SwSTEP 2.0',
    'SolidWorks 2021',
    '' );
FILE_SCHEMA (( 'CONFIG_CONTROL_DESIGN' ));
ENDSEC;

DATA;
#1 = AXIS2_PLACEMENT_3D ( 'NONE', #287, #32, #471 ) ;
#2 = DIRECTION ( 'NONE',  ( -0.000000000000000000, -0.000000000000000000, 1.000000000000000000 ) ) ;
#3 = CC_DESIGN_DATE_AND_TIME_ASSIGNMENT ( #338, #79, ( #106 ) ) ;
#4 = CARTESIAN_POINT ( 'NONE',  ( 1.587500000000000355, 0.000000000000000000, -75.28322736169286600 ) ) ;
#5 = ORIENTED_EDGE ( 'NONE', *, *, #201, .T. ) ;
#6 = DIRECTION ( 'NONE',  ( 1.000000000000000000, 0.000000000000000000, 0.000000000000000000 ) ) ;
#7 = CARTESIAN_POINT ( 'NONE',  ( -1.587500000000000355, -0.2114796877013866427, 75.28322736169286600 ) ) ;
#8 = VERTEX_POINT ( 'NONE', #158 ) ;
#9 = EDGE_CURVE ( 'NONE', #454, #362, #82, .T. ) ;
#10 = ORIENTED_EDGE ( 'NONE', *, *, #520, .F. ) ;
#11 = DIRECTION ( 'NONE',  ( 1.000000000000000000, 0.000000000000000000, 0.000000000000000000 ) ) ;
#12 = CARTESIAN_POINT ( 'NONE',  ( 0.8571092511719576867, 1.587500000000000799, 75.26227379706278953 ) ) ;
#13 = VERTEX_POINT ( 'NONE', #503 ) ;
#14 = DIRECTION ( 'NONE',  ( 0.000000000000000000, 0.000000000000000000, -1.000000000000000000 ) ) ;
#15 = ORIENTED_EDGE ( 'NONE', *, *, #9, .T. ) ;
#16 = PRODUCT_DEFINITION_SHAPE ( 'NONE', 'NONE',  #106 ) ;
#17 = AXIS2_PLACEMENT_3D ( 'NONE', #277, #546, #499 ) ;
#18 = CARTESIAN_POINT ( 'NONE',  ( -1.587500000000000577, 0.4277385810629850682, 75.27698654358310648 ) ) ;
#19 = ORIENTED_EDGE ( 'NONE', *, *, #344, .F. ) ;
#20 = EDGE_CURVE ( 'NONE', #410, #285, #325, .T. ) ;
#21 = CARTESIAN_POINT ( 'NONE',  ( -1.587500000000000355, -1.268411506570323866, -75.15991914210505342 ) ) ;
#22 = CARTESIAN_POINT ( 'NONE',  ( 1.587500000000000133, -1.061532360077853454, -75.21140206829359443 ) ) ;
#23 = ORIENTED_EDGE ( 'NONE', *, *, #261, .F. ) ;
#24 = CARTESIAN_POINT ( 'NONE',  ( -1.268411506570323866, 1.587500000000000355, -75.15991914210505342 ) ) ;
#25 = CARTESIAN_POINT ( 'NONE',  ( 1.587500000000000577, -0.8514389605504931735, -75.24136751577923121 ) ) ;
#26 = ORIENTED_EDGE ( 'NONE', *, *, #553, .T. ) ;
#27 = LOCAL_TIME ( 15, 2, 31.00000000000000000, #41 ) ;
#28 = EDGE_CURVE ( 'NONE', #274, #435, #245, .T. ) ;
#29 = AXIS2_PLACEMENT_3D ( 'NONE', #115, #406, #537 ) ;
#30 = DIRECTION ( 'NONE',  ( -1.000000000000000000, 0.000000000000000000, 0.000000000000000000 ) ) ;
#31 = PERSON_AND_ORGANIZATION_ROLE ( 'classification_officer' ) ;
#32 = DIRECTION ( 'NONE',  ( -0.000000000000000000, -0.000000000000000000, 1.000000000000000000 ) ) ;
#33 = PERSON_AND_ORGANIZATION ( #159, #357 ) ;
#34 = CARTESIAN_POINT ( 'NONE',  ( 1.268411506570323866, -1.587500000000000355, -75.31100000000000705 ) ) ;
#35 = CC_DESIGN_PERSON_AND_ORGANIZATION_ASSIGNMENT ( #173, #384, ( #343 ) ) ;
#36 = DIRECTION ( 'NONE',  ( -0.000000000000000000, -0.000000000000000000, 1.000000000000000000 ) ) ;
#37 = MECHANICAL_CONTEXT ( 'NONE', #71, 'mechanical' ) ;
#38 = DIRECTION ( 'NONE',  ( 0.000000000000000000, 0.000000000000000000, -1.000000000000000000 ) ) ;
#39 = CIRCLE ( 'NONE', #436, 2.125000000000001776 ) ;
#40 = CARTESIAN_POINT ( 'NONE',  ( -1.587500000000000355, 1.944126793646423534E-16, -75.28322736169286600 ) ) ;
#41 = COORDINATED_UNIVERSAL_TIME_OFFSET ( 6, 0, .BEHIND. ) ;
#42 = FACE_OUTER_BOUND ( 'NONE', #487, .T. ) ;
#43 = CARTESIAN_POINT ( 'NONE',  ( 1.587500000000000355, 0.2114796877013866427, 75.28322736169286600 ) ) ;
#44 = DIRECTION ( 'NONE',  ( -0.000000000000000000, -0.000000000000000000, 1.000000000000000000 ) ) ;
#45 = DIRECTION ( 'NONE',  ( 1.000000000000000000, 0.000000000000000000, 0.000000000000000000 ) ) ;
#46 = EDGE_CURVE ( 'NONE', #235, #348, #102, .T. ) ;
#47 = CARTESIAN_POINT ( 'NONE',  ( 1.587500000000000355, -1.061392899157111103, 75.21143677385167337 ) ) ;
#48 = DIRECTION ( 'NONE',  ( -0.000000000000000000, -0.000000000000000000, 1.000000000000000000 ) ) ;
#49 = AXIS2_PLACEMENT_3D ( 'NONE', #162, #36, #549 ) ;
#50 = CARTESIAN_POINT ( 'NONE',  ( 0.000000000000000000, 0.000000000000000000, -75.15991914209799063 ) ) ;
#51 = CARTESIAN_POINT ( 'NONE',  ( 1.587500000000000577, 0.4277385810626528340, -75.27698654358313490 ) ) ;
#52 = B_SPLINE_CURVE_WITH_KNOTS ( 'NONE', 3,
 ( #392, #223, #393, #350, #7, #525 ),
 .UNSPECIFIED., .F., .F.,
 ( 4, 2, 4 ),
 ( 0.01485345774306979540, 0.01548163471194336643, 0.01610981168081693574 ),
 .UNSPECIFIED. ) ;
#53 = ORIENTED_EDGE ( 'NONE', *, *, #491, .F. ) ;
#54 = EDGE_CURVE ( 'NONE', #382, #58, #551, .T. ) ;
#55 = AXIS2_PLACEMENT_3D ( 'NONE', #127, #87, #80 ) ;
#56 = CIRCLE ( 'NONE', #508, 1.245064030267288402 ) ;
#57 = DIRECTION ( 'NONE',  ( 1.000000000000000000, 0.000000000000000000, 0.000000000000000000 ) ) ;
#58 = VERTEX_POINT ( 'NONE', #76 ) ;
#59 = CARTESIAN_POINT ( 'NONE',  ( -0.8571092511711349005, 1.587500000000000355, -75.26227379706283216 ) ) ;
#60 = CARTESIAN_POINT ( 'NONE',  ( 1.245064030267288402, 0.000000000000000000, -73.18600000000000705 ) ) ;
#61 = ORIENTED_EDGE ( 'NONE', *, *, #92, .F. ) ;
#62 = CARTESIAN_POINT ( 'NONE',  ( -1.587500000000000355, -0.8513200635093569613, -75.24137755531818073 ) ) ;
#63 = APPROVAL ( #292, 'UNSPECIFIED' ) ;
#64 = CARTESIAN_POINT ( 'NONE',  ( 0.4219230645619455045, -1.587500000000000133, 75.27730730355361288 ) ) ;
#65 = CC_DESIGN_APPROVAL ( #323, ( #106 ) ) ;
#66 = ORIENTED_EDGE ( 'NONE', *, *, #431, .F. ) ;
#67 = CARTESIAN_POINT ( 'NONE',  ( -1.587500000000000355, 1.944126793646423534E-16, -75.28322736169286600 ) ) ;
#68 = AXIS2_PLACEMENT_3D ( 'NONE', #361, #455, #533 ) ;
#69 = DIRECTION ( 'NONE',  ( 0.000000000000000000, 0.000000000000000000, -1.000000000000000000 ) ) ;
#70 = EDGE_LOOP ( 'NONE', ( #150, #5, #266, #15 ) ) ;
#71 = APPLICATION_CONTEXT ( 'configuration controlled 3d designs of mechanical parts and assemblies' ) ;
#72 = VERTEX_POINT ( 'NONE', #462 ) ;
#73 = CARTESIAN_POINT ( 'NONE',  ( -1.060147506033695786, -1.587500000000000133, -75.21174669625517595 ) ) ;
#74 = EDGE_CURVE ( 'NONE', #311, #342, #118, .T. ) ;
#75 = FACE_OUTER_BOUND ( 'NONE', #112, .T. ) ;
#76 = CARTESIAN_POINT ( 'NONE',  ( 1.587500000000000355, 1.268411506570323866, 75.15991914209799063 ) ) ;
#77 = APPROVAL_PERSON_ORGANIZATION ( #33, #464, #333 ) ;
#78 = CIRCLE ( 'NONE', #55, 2.032000000000000028 ) ;
#79 = DATE_TIME_ROLE ( 'creation_date' ) ;
#80 = DIRECTION ( 'NONE',  ( -1.000000000000000000, 0.000000000000000000, 0.000000000000000000 ) ) ;
#81 = EDGE_CURVE ( 'NONE', #91, #382, #418, .T. ) ;
#82 = LINE ( 'NONE', #84, #389 ) ;
#83 = APPLICATION_PROTOCOL_DEFINITION ( 'international standard', 'config_control_design', 1994, #401 ) ;
#84 = CARTESIAN_POINT ( 'NONE',  ( -1.268411506570323866, 1.587500000000000355, -75.31100000000000705 ) ) ;
#85 = DIRECTION ( 'NONE',  ( 1.000000000000000000, 0.000000000000000000, 0.000000000000000000 ) ) ;
#86 = PERSON_AND_ORGANIZATION_ROLE ( 'creator' ) ;
#87 = DIRECTION ( 'NONE',  ( 0.000000000000000000, 0.000000000000000000, -1.000000000000000000 ) ) ;
#88 = VECTOR ( 'NONE', #517, 1000.000000000000000 ) ;
#89 = COORDINATED_UNIVERSAL_TIME_OFFSET ( 6, 0, .BEHIND. ) ;
#90 = LINE ( 'NONE', #257, #283 ) ;
#91 = VERTEX_POINT ( 'NONE', #370 ) ;
#92 = EDGE_CURVE ( 'NONE', #314, #72, #217, .T. ) ;
#93 = CARTESIAN_POINT ( 'NONE',  ( -1.587500000000000133, 1.061532360077853454, -75.21140206829359443 ) ) ;
#94 = CARTESIAN_POINT ( 'NONE',  ( -1.587500000000000355, 1.268411506570323866, -75.31100000000000705 ) ) ;
#95 = CIRCLE ( 'NONE', #428, 2.032000000000000028 ) ;
#96 = ORIENTED_EDGE ( 'NONE', *, *, #81, .T. ) ;
#97 = AXIS2_PLACEMENT_3D ( 'NONE', #271, #396, #443 ) ;
#98 = EDGE_CURVE ( 'NONE', #285, #311, #95, .T. ) ;
#99 = ORIENTED_EDGE ( 'NONE', *, *, #491, .T. ) ;
#100 = DESIGN_CONTEXT ( 'detailed design', #401, 'design' ) ;
#101 = ORIENTED_EDGE ( 'NONE', *, *, #222, .T. ) ;
#102 = CIRCLE ( 'NONE', #225, 2.032000000000000028 ) ;
#103 = CARTESIAN_POINT ( 'NONE',  ( 1.245064030267288402, 0.000000000000000000, -75.31100000000000705 ) ) ;
#104 = ORIENTED_EDGE ( 'NONE', *, *, #54, .F. ) ;
#105 = CARTESIAN_POINT ( 'NONE',  ( 0.4219230645622806808, 1.587500000000000577, -75.27730730355359867 ) ) ;
#106 = PRODUCT_DEFINITION ( 'UNKNOWN', '', #343, #100 ) ;
#107 = CARTESIAN_POINT ( 'NONE',  ( 1.060147506033614517, -1.587500000000000355, 75.21174669625519016 ) ) ;
#108 = ORIENTED_EDGE ( 'NONE', *, *, #81, .F. ) ;
#109 = DIRECTION ( 'NONE',  ( 0.000000000000000000, 0.000000000000000000, -1.000000000000000000 ) ) ;
#110 = PLANE ( 'NONE',  #139 ) ;
#111 = APPROVAL_PERSON_ORGANIZATION ( #326, #63, #170 ) ;
#112 = EDGE_LOOP ( 'NONE', ( #307, #358, #450, #216, #53, #166, #316, #365 ) ) ;
#113 = CARTESIAN_POINT ( 'NONE',  ( -1.268411506570323866, -1.587500000000000355, -75.15991914209799063 ) ) ;
#114 = EDGE_CURVE ( 'NONE', #351, #454, #426, .T. ) ;
#115 = CARTESIAN_POINT ( 'NONE',  ( -1.587500000000000355, 1.587500000000000355, 75.31100000000000705 ) ) ;
#116 = CARTESIAN_POINT ( 'NONE',  ( 1.268411506570323866, -1.587500000000000355, -75.15991914210505342 ) ) ;
#117 = CARTESIAN_POINT ( 'NONE',  ( -1.268411506570322533, -1.587500000000000355, 75.15991914209799063 ) ) ;
#118 = LINE ( 'NONE', #511, #337 ) ;
#119 = FACE_OUTER_BOUND ( 'NONE', #444, .T. ) ;
#120 = ORIENTED_EDGE ( 'NONE', *, *, #193, .T. ) ;
#121 = CARTESIAN_POINT ( 'NONE',  ( 0.000000000000000000, 0.000000000000000000, -75.31100000000000705 ) ) ;
#122 = SECURITY_CLASSIFICATION_LEVEL ( 'unclassified' ) ;
#123 = DIRECTION ( 'NONE',  ( -0.000000000000000000, -0.000000000000000000, 1.000000000000000000 ) ) ;
#124 = PRODUCT_RELATED_PRODUCT_CATEGORY ( 'detail', '', ( #275 ) ) ;
#125 = CALENDAR_DATE ( 2022, 6, 6 ) ;
#126 = DIRECTION ( 'NONE',  ( 0.000000000000000000, 0.000000000000000000, -1.000000000000000000 ) ) ;
#127 = CARTESIAN_POINT ( 'NONE',  ( 0.000000000000000000, 0.000000000000000000, 75.15991914209799063 ) ) ;
#128 = CC_DESIGN_APPROVAL ( #464, ( #343 ) ) ;
#129 = TOROIDAL_SURFACE ( 'NONE', #442, 1.245064030267288402, 2.125000000000001776 ) ;
#130 = DIRECTION ( 'NONE',  ( 1.000000000000000000, 0.000000000000000000, 0.000000000000000000 ) ) ;
#131 = TOROIDAL_SURFACE ( 'NONE', #498, 1.245064030267288402, 2.125000000000001776 ) ;
#132 = EDGE_CURVE ( 'NONE', #342, #410, #78, .T. ) ;
#133 = CARTESIAN_POINT ( 'NONE',  ( 1.268411506570322533, 1.587500000000000355, 75.15991914209799063 ) ) ;
#134 = FACE_OUTER_BOUND ( 'NONE', #70, .T. ) ;
#135 = CARTESIAN_POINT ( 'NONE',  ( -1.587500000000000355, 0.4276219574846448768, -75.27699639200010040 ) ) ;
#136 = CARTESIAN_POINT ( 'NONE',  ( 1.268411506570323866, -1.587500000000000355, 75.15991914209799063 ) ) ;
#137 = EDGE_CURVE ( 'NONE', #147, #13, #371, .T. ) ;
#138 = ORIENTED_EDGE ( 'NONE', *, *, #98, .T. ) ;
#139 = AXIS2_PLACEMENT_3D ( 'NONE', #280, #69, #239 ) ;
#140 = B_SPLINE_CURVE_WITH_KNOTS ( 'NONE', 3,
 ( #373, #315, #18, #146, #502, #242 ),
 .UNSPECIFIED., .F., .F.,
 ( 4, 2, 4 ),
 ( 1.905938025164286877E-19, 0.0006365870327257431042, 0.001273174065451485992 ),
 .UNSPECIFIED. ) ;
#141 = ORIENTED_EDGE ( 'NONE', *, *, #145, .T. ) ;
#142 = CARTESIAN_POINT ( 'NONE',  ( 0.000000000000000000, 0.000000000000000000, -75.31100000000000705 ) ) ;
#143 = ORIENTED_EDGE ( 'NONE', *, *, #114, .F. ) ;
#144 = ORIENTED_EDGE ( 'NONE', *, *, #201, .F. ) ;
#145 = EDGE_CURVE ( 'NONE', #355, #319, #353, .T. ) ;
#146 = CARTESIAN_POINT ( 'NONE',  ( -1.587500000000000355, 0.8513200635100124369, 75.24137755531812388 ) ) ;
#147 = VERTEX_POINT ( 'NONE', #174 ) ;
#148 = DIRECTION ( 'NONE',  ( 0.000000000000000000, 0.000000000000000000, -1.000000000000000000 ) ) ;
#149 = PLANE ( 'NONE',  #68 ) ;
#150 = ORIENTED_EDGE ( 'NONE', *, *, #446, .T. ) ;
#151 = CARTESIAN_POINT ( 'NONE',  ( 0.000000000000000000, 0.000000000000000000, 73.18600000000000705 ) ) ;
#152 = EDGE_CURVE ( 'NONE', #13, #342, #459, .T. ) ;
#153 =( NAMED_UNIT ( * ) SI_UNIT ( $, .STERADIAN. ) SOLID_ANGLE_UNIT ( ) );
#154 = ORIENTED_EDGE ( 'NONE', *, *, #344, .T. ) ;
#155 = DIRECTION ( 'NONE',  ( 1.224646799147353207E-16, -1.000000000000000000, 0.000000000000000000 ) ) ;
#156 = AXIS2_PLACEMENT_3D ( 'NONE', #527, #312, #405 ) ;
#157 = EDGE_LOOP ( 'NONE', ( #108, #500, #199, #541 ) ) ;
#158 = CARTESIAN_POINT ( 'NONE',  ( -1.245064030267288402, -2.006622987633879023E-16, 75.31100000000000705 ) ) ;
#159 = PERSON ( 'UNSPECIFIED', 'UNSPECIFIED', 'UNSPECIFIED', ('UNSPECIFIED'), ('UNSPECIFIED'), ('UNSPECIFIED') ) ;
#160 = DATE_AND_TIME ( #556, #206 ) ;
#161 = EDGE_LOOP ( 'NONE', ( #441, #26, #529, #493, #154, #278 ) ) ;
#162 = CARTESIAN_POINT ( 'NONE',  ( 0.000000000000000000, 0.000000000000000000, -75.31100000000000705 ) ) ;
#163 = CC_DESIGN_DATE_AND_TIME_ASSIGNMENT ( #160, #256, ( #394 ) ) ;
#164 = AXIS2_PLACEMENT_3D ( 'NONE', #151, #196, #11 ) ;
#165 = APPROVAL_DATE_TIME ( #554, #464 ) ;
#166 = ORIENTED_EDGE ( 'NONE', *, *, #132, .F. ) ;
#167 = PERSON_AND_ORGANIZATION ( #159, #357 ) ;
#168 = CARTESIAN_POINT ( 'NONE',  ( 0.000000000000000000, 0.000000000000000000, 75.15991914209799063 ) ) ;
#169 = ADVANCED_FACE ( 'NONE', ( #212 ), #129, .T. ) ;
#170 = APPROVAL_ROLE ( '' ) ;
#171 = CARTESIAN_POINT ( 'NONE',  ( 0.000000000000000000, 0.000000000000000000, -75.31100000000000705 ) ) ;
#172 = FACE_OUTER_BOUND ( 'NONE', #161, .T. ) ;
#173 = PERSON_AND_ORGANIZATION ( #159, #357 ) ;
#174 = CARTESIAN_POINT ( 'NONE',  ( 1.245064030267288402, 0.000000000000000000, 75.31100000000000705 ) ) ;
#175 = AXIS2_PLACEMENT_3D ( 'NONE', #282, #148, #279 ) ;
#176 = CARTESIAN_POINT ( 'NONE',  ( 1.587500000000000133, 1.061532360077853454, 75.21140206829359443 ) ) ;
#177 = ORIENTED_EDGE ( 'NONE', *, *, #54, .T. ) ;
#178 = CARTESIAN_POINT ( 'NONE',  ( 1.587500000000000133, -0.2143109880596208994, 75.28322736169288021 ) ) ;
#179 = B_SPLINE_CURVE_WITH_KNOTS ( 'NONE', 3,
 ( #558, #176, #327, #301, #43, #427 ),
 .UNSPECIFIED., .F., .F.,
 ( 4, 2, 4 ),
 ( 0.01485345774306979540, 0.01548163471194336643, 0.01610981168081693574 ),
 .UNSPECIFIED. ) ;
#180 = LOCAL_TIME ( 15, 2, 31.00000000000000000, #510 ) ;
#181 = ORIENTED_EDGE ( 'NONE', *, *, #253, .F. ) ;
#182 = CARTESIAN_POINT ( 'NONE',  ( 1.587500000000000355, 0.8513200635093568502, -75.24137755531819494 ) ) ;
#183 = ORIENTED_EDGE ( 'NONE', *, *, #412, .T. ) ;
#184 = CARTESIAN_POINT ( 'NONE',  ( 1.587500000000000355, -1.268411506570323866, -75.15991914209799063 ) ) ;
#185 = B_SPLINE_CURVE_WITH_KNOTS ( 'NONE', 3,
 ( #189, #22, #25, #414, #543, #194 ),
 .UNSPECIFIED., .F., .F.,
 ( 4, 2, 4 ),
 ( 0.01485345774306979540, 0.01548163471194336643, 0.01610981168081693574 ),
 .UNSPECIFIED. ) ;
#186 = EDGE_CURVE ( 'NONE', #348, #314, #90, .T. ) ;
#187 = EDGE_LOOP ( 'NONE', ( #281, #120, #404, #302, #400, #260, #421, #10 ) ) ;
#188 = CARTESIAN_POINT ( 'NONE',  ( -1.587500000000000133, -0.2143109880594543937, -75.28322736169288021 ) ) ;
#189 = CARTESIAN_POINT ( 'NONE',  ( 1.587500000000000355, -1.268411506570323866, -75.15991914209799063 ) ) ;
#190 = EDGE_LOOP ( 'NONE', ( #208, #192, #258, #221, #490, #407, #61, #23 ) ) ;
#191 = CARTESIAN_POINT ( 'NONE',  ( 1.587500000000000355, 0.000000000000000000, -75.28322736169286600 ) ) ;
#192 = ORIENTED_EDGE ( 'NONE', *, *, #431, .T. ) ;
#193 = EDGE_CURVE ( 'NONE', #435, #319, #39, .T. ) ;
#194 = CARTESIAN_POINT ( 'NONE',  ( 1.587500000000000355, 0.000000000000000000, -75.28322736169286600 ) ) ;
#195 = ORIENTED_EDGE ( 'NONE', *, *, #28, .F. ) ;
#196 = DIRECTION ( 'NONE',  ( 0.000000000000000000, 0.000000000000000000, -1.000000000000000000 ) ) ;
#197 = CARTESIAN_POINT ( 'NONE',  ( -1.268411506570323866, 1.587500000000000355, 75.15991914209799063 ) ) ;
#198 = CC_DESIGN_SECURITY_CLASSIFICATION ( #394, ( #343 ) ) ;
#199 = ORIENTED_EDGE ( 'NONE', *, *, #9, .F. ) ;
#200 = DIRECTION ( 'NONE',  ( -0.000000000000000000, -0.000000000000000000, 1.000000000000000000 ) ) ;
#201 = EDGE_CURVE ( 'NONE', #355, #351, #478, .T. ) ;
#202 = DIRECTION ( 'NONE',  ( -0.000000000000000000, 1.000000000000000000, 0.000000000000000000 ) ) ;
#203 = ADVANCED_BREP_SHAPE_REPRESENTATION ( '228-2500-263', ( #349, #313 ), #232 ) ;
#204 = PERSON_AND_ORGANIZATION ( #159, #357 ) ;
#205 = ORIENTED_EDGE ( 'NONE', *, *, #210, .T. ) ;
#206 = LOCAL_TIME ( 15, 2, 31.00000000000000000, #89 ) ;
#207 = CARTESIAN_POINT ( 'NONE',  ( 1.587500000000000355, -1.268411506570322533, 75.15991914209799063 ) ) ;
#208 = ORIENTED_EDGE ( 'NONE', *, *, #193, .F. ) ;
#209 = FACE_OUTER_BOUND ( 'NONE', #187, .T. ) ;
#210 = EDGE_CURVE ( 'NONE', #147, #8, #480, .T. ) ;
#211 = PERSON_AND_ORGANIZATION ( #159, #357 ) ;
#212 = FACE_OUTER_BOUND ( 'NONE', #190, .T. ) ;
#213 = CARTESIAN_POINT ( 'NONE',  ( 0.000000000000000000, 0.000000000000000000, 0.000000000000000000 ) ) ;
#214 = DIRECTION ( 'NONE',  ( -1.000000000000000000, 1.224646799147353207E-16, 0.000000000000000000 ) ) ;
#215 = DIRECTION ( 'NONE',  ( -0.000000000000000000, -0.000000000000000000, 1.000000000000000000 ) ) ;
#216 = ORIENTED_EDGE ( 'NONE', *, *, #46, .F. ) ;
#217 = CIRCLE ( 'NONE', #1, 2.032000000000000028 ) ;
#218 = CARTESIAN_POINT ( 'NONE',  ( 1.587500000000000355, 0.000000000000000000, 75.28322736169286600 ) ) ;
#219 = AXIS2_PLACEMENT_3D ( 'NONE', #50, #475, #438 ) ;
#220 = CARTESIAN_POINT ( 'NONE',  ( 1.587500000000000355, 1.061392899156297309, -75.21143677385181547 ) ) ;
#221 = ORIENTED_EDGE ( 'NONE', *, *, #553, .F. ) ;
#222 = EDGE_CURVE ( 'NONE', #391, #91, #463, .T. ) ;
#223 = CARTESIAN_POINT ( 'NONE',  ( -1.587500000000000133, -1.061532360077853454, 75.21140206829359443 ) ) ;
#224 = ORIENTED_EDGE ( 'NONE', *, *, #288, .T. ) ;
#225 = AXIS2_PLACEMENT_3D ( 'NONE', #468, #290, #30 ) ;
#226 = TOROIDAL_SURFACE ( 'NONE', #164, 1.245064030267288402, 2.125000000000001776 ) ;
#227 = ADVANCED_FACE ( 'NONE', ( #42 ), #557, .T. ) ;
#228 = CARTESIAN_POINT ( 'NONE',  ( 0.4342314039556040006, 1.587500000000000355, 75.28285171744315107 ) ) ;
#229 = ORIENTED_EDGE ( 'NONE', *, *, #137, .T. ) ;
#230 = CARTESIAN_POINT ( 'NONE',  ( -1.587500000000000355, -1.268411506570323866, -75.15991914210505342 ) ) ;
#231 = ORIENTED_EDGE ( 'NONE', *, *, #451, .T. ) ;
#232 =( GEOMETRIC_REPRESENTATION_CONTEXT ( 3 ) GLOBAL_UNCERTAINTY_ASSIGNED_CONTEXT ( ( #523 ) ) GLOBAL_UNIT_ASSIGNED_CONTEXT ( ( #244, #540, #153 ) ) REPRESENTATION_CONTEXT ( 'NONE', 'WORKASPACE' ) );
#233 = CC_DESIGN_PERSON_AND_ORGANIZATION_ASSIGNMENT ( #167, #86, ( #343 ) ) ;
#234 = FACE_OUTER_BOUND ( 'NONE', #157, .T. ) ;
#235 = VERTEX_POINT ( 'NONE', #433 ) ;
#236 = CLOSED_SHELL ( 'NONE', ( #472, #359, #505, #386, #368, #512, #169, #308, #536, #305, #317, #340, #227, #247 ) ) ;
#237 = CARTESIAN_POINT ( 'NONE',  ( 1.060147506033695786, 1.587500000000000133, -75.21174669625517595 ) ) ;
#238 = CIRCLE ( 'NONE', #298, 1.245064030267288402 ) ;
#239 = DIRECTION ( 'NONE',  ( -1.000000000000000000, 0.000000000000000000, -0.000000000000000000 ) ) ;
#240 = ORIENTED_EDGE ( 'NONE', *, *, #132, .T. ) ;
#241 = B_SPLINE_CURVE_WITH_KNOTS ( 'NONE', 3,
 ( #4, #354, #51, #182, #220, #519 ),
 .UNSPECIFIED., .F., .F.,
 ( 4, 2, 4 ),
 ( 0.000000000000000000, 0.0006365870327252485996, 0.001273174065450496982 ),
 .UNSPECIFIED. ) ;
#242 = CARTESIAN_POINT ( 'NONE',  ( -1.587500000000000355, 1.268411506570322533, 75.15991914209799063 ) ) ;
#243 = ORIENTED_EDGE ( 'NONE', *, *, #74, .T. ) ;
#244 =( LENGTH_UNIT ( ) NAMED_UNIT ( * ) SI_UNIT ( .MILLI., .METRE. ) );
#245 = CIRCLE ( 'NONE', #345, 1.245064030267288402 ) ;
#246 = CIRCLE ( 'NONE', #380, 2.125000000000001776 ) ;
#247 = ADVANCED_FACE ( 'NONE', ( #134 ), #303, .T. ) ;
#248 = APPROVAL_STATUS ( 'not_yet_approved' ) ;
#249 = CARTESIAN_POINT ( 'NONE',  ( 1.245064030267288402, 0.000000000000000000, 73.18600000000000705 ) ) ;
#250 = CARTESIAN_POINT ( 'NONE',  ( 0.000000000000000000, 0.000000000000000000, -75.15991914209799063 ) ) ;
#251 = CARTESIAN_POINT ( 'NONE',  ( 0.000000000000000000, 0.000000000000000000, 75.31100000000000705 ) ) ;
#252 = DIRECTION ( 'NONE',  ( -0.000000000000000000, -0.000000000000000000, 1.000000000000000000 ) ) ;
#253 = EDGE_CURVE ( 'NONE', #8, #518, #474, .T. ) ;
#254 = AXIS2_PLACEMENT_3D ( 'NONE', #121, #44, #6 ) ;
#255 = APPROVAL_DATE_TIME ( #465, #63 ) ;
#256 = DATE_TIME_ROLE ( 'classification_date' ) ;
#257 = CARTESIAN_POINT ( 'NONE',  ( -1.587500000000000355, -1.268411506570323866, -75.31100000000000705 ) ) ;
#258 = ORIENTED_EDGE ( 'NONE', *, *, #520, .T. ) ;
#259 = CARTESIAN_POINT ( 'NONE',  ( 1.587500000000000355, -1.268411506570322533, 75.15991914209799063 ) ) ;
#260 = ORIENTED_EDGE ( 'NONE', *, *, #222, .F. ) ;
#261 = EDGE_CURVE ( 'NONE', #319, #314, #295, .T. ) ;
#262 = DIRECTION ( 'NONE',  ( 1.000000000000000000, 0.000000000000000000, 0.000000000000000000 ) ) ;
#263 = CIRCLE ( 'NONE', #372, 2.032000000000000028 ) ;
#264 = PLANE ( 'NONE',  #97 ) ;
#265 = EDGE_LOOP ( 'NONE', ( #138, #243, #240, #447 ) ) ;
#266 = ORIENTED_EDGE ( 'NONE', *, *, #114, .T. ) ;
#267 = B_SPLINE_CURVE_WITH_KNOTS ( 'NONE', 3,
 ( #113, #73, #530, #363, #322, #488, #367, #445 ),
 .UNSPECIFIED., .F., .F.,
 ( 4, 2, 2, 4 ),
 ( 0.01485345774306979540, 0.01548583974386920532, 0.01611822174466861352, 0.01738298574626743337 ),
 .UNSPECIFIED. ) ;
#268 = CARTESIAN_POINT ( 'NONE',  ( -0.8486262390323798810, 1.587500000000000355, 75.24176882282394274 ) ) ;
#269 = EDGE_CURVE ( 'NONE', #72, #285, #267, .T. ) ;
#270 = TOROIDAL_SURFACE ( 'NONE', #17, 1.245064030267288402, 2.125000000000001776 ) ;
#271 = CARTESIAN_POINT ( 'NONE',  ( -1.587500000000000355, -1.587500000000000355, 75.31100000000000705 ) ) ;
#272 = CARTESIAN_POINT ( 'NONE',  ( -1.587500000000000355, -1.061392899156297753, -75.21143677385181547 ) ) ;
#273 = CARTESIAN_POINT ( 'NONE',  ( 1.268411506570322533, 1.587500000000000355, 75.15991914209799063 ) ) ;
#274 = VERTEX_POINT ( 'NONE', #103 ) ;
#275 = PRODUCT ( '228-2500-263', '228-2500-263', '', ( #37 ) ) ;
#276 = CARTESIAN_POINT ( 'NONE',  ( 0.2043756380777075055, 1.587500000000000133, -75.28340961896378758 ) ) ;
#277 = CARTESIAN_POINT ( 'NONE',  ( 0.000000000000000000, 0.000000000000000000, 73.18600000000000705 ) ) ;
#278 = ORIENTED_EDGE ( 'NONE', *, *, #152, .T. ) ;
#279 = DIRECTION ( 'NONE',  ( -1.000000000000000000, 0.000000000000000000, -0.000000000000000000 ) ) ;
#280 = CARTESIAN_POINT ( 'NONE',  ( -1.587500000000000355, 1.587500000000000355, -75.31100000000000705 ) ) ;
#281 = ORIENTED_EDGE ( 'NONE', *, *, #28, .T. ) ;
#282 = CARTESIAN_POINT ( 'NONE',  ( -1.587500000000000355, 1.587500000000000355, 75.31100000000000705 ) ) ;
#283 = VECTOR ( 'NONE', #385, 1000.000000000000000 ) ;
#284 = CARTESIAN_POINT ( 'NONE',  ( 0.2043756380772881742, -1.587500000000000799, 75.28340961896380179 ) ) ;
#285 = VERTEX_POINT ( 'NONE', #116 ) ;
#286 = CARTESIAN_POINT ( 'NONE',  ( -1.268411506570323866, -1.587500000000000355, -75.31100000000000705 ) ) ;
#287 = CARTESIAN_POINT ( 'NONE',  ( 0.000000000000000000, 0.000000000000000000, -75.15991914209799063 ) ) ;
#288 = EDGE_CURVE ( 'NONE', #58, #391, #320, .T. ) ;
#289 = PERSON_AND_ORGANIZATION_ROLE ( 'design_owner' ) ;
#290 = DIRECTION ( 'NONE',  ( 0.000000000000000000, 0.000000000000000000, -1.000000000000000000 ) ) ;
#291 = VECTOR ( 'NONE', #109, 1000.000000000000000 ) ;
#292 = APPROVAL_STATUS ( 'not_yet_approved' ) ;
#293 = DIRECTION ( 'NONE',  ( -0.000000000000000000, -0.000000000000000000, 1.000000000000000000 ) ) ;
#294 = EDGE_CURVE ( 'NONE', #91, #362, #366, .T. ) ;
#295 = B_SPLINE_CURVE_WITH_KNOTS ( 'NONE', 3,
 ( #67, #188, #494, #62, #272, #21 ),
 .UNSPECIFIED., .F., .F.,
 ( 4, 2, 4 ),
 ( 1.905938025164286877E-19, 0.0006365870327252485996, 0.001273174065450496982 ),
 .UNSPECIFIED. ) ;
#296 = CARTESIAN_POINT ( 'NONE',  ( 1.587500000000000355, -1.587500000000000355, 75.31100000000000705 ) ) ;
#297 = AXIS2_PLACEMENT_3D ( 'NONE', #550, #38, #513 ) ;
#298 = AXIS2_PLACEMENT_3D ( 'NONE', #142, #347, #57 ) ;
#299 = DIRECTION ( 'NONE',  ( 1.224646799147353207E-16, 1.000000000000000000, 0.000000000000000000 ) ) ;
#300 = B_SPLINE_CURVE_WITH_KNOTS ( 'NONE', 3,
 ( #481, #399, #268, #310, #483, #228, #12, #273 ),
 .UNSPECIFIED., .F., .F.,
 ( 4, 2, 2, 4 ),
 ( 0.01485345774306979540, 0.01548583974386945165, 0.01611822174466910965, 0.01738298574626842216 ),
 .UNSPECIFIED. ) ;
#301 = CARTESIAN_POINT ( 'NONE',  ( 1.587500000000000355, 0.4276219574846448768, 75.27699639200010040 ) ) ;
#302 = ORIENTED_EDGE ( 'NONE', *, *, #446, .F. ) ;
#303 = CYLINDRICAL_SURFACE ( 'NONE', #156, 2.032000000000000028 ) ;
#304 = DIRECTION ( 'NONE',  ( 1.000000000000000000, 0.000000000000000000, 0.000000000000000000 ) ) ;
#305 = ADVANCED_FACE ( 'NONE', ( #352 ), #539, .F. ) ;
#306 = ORIENTED_EDGE ( 'NONE', *, *, #186, .T. ) ;
#307 = ORIENTED_EDGE ( 'NONE', *, *, #328, .F. ) ;
#308 = ADVANCED_FACE ( 'NONE', ( #398 ), #226, .T. ) ;
#309 = ORIENTED_EDGE ( 'NONE', *, *, #92, .T. ) ;
#310 = CARTESIAN_POINT ( 'NONE',  ( -0.4219230645619455045, 1.587500000000000133, 75.27730730355361288 ) ) ;
#311 = VERTEX_POINT ( 'NONE', #184 ) ;
#312 = DIRECTION ( 'NONE',  ( -0.000000000000000000, -0.000000000000000000, 1.000000000000000000 ) ) ;
#313 = AXIS2_PLACEMENT_3D ( 'NONE', #213, #470, #387 ) ;
#314 = VERTEX_POINT ( 'NONE', #230 ) ;
#315 = CARTESIAN_POINT ( 'NONE',  ( -1.587500000000000133, 0.2143109880596207883, 75.28322736169288021 ) ) ;
#316 = ORIENTED_EDGE ( 'NONE', *, *, #152, .F. ) ;
#317 = ADVANCED_FACE ( 'NONE', ( #356 ), #448, .T. ) ;
#318 = DIRECTION ( 'NONE',  ( 0.000000000000000000, -1.000000000000000000, 0.000000000000000000 ) ) ;
#319 = VERTEX_POINT ( 'NONE', #40 ) ;
#320 = LINE ( 'NONE', #360, #291 ) ;
#321 = ORIENTED_EDGE ( 'NONE', *, *, #261, .T. ) ;
#322 = CARTESIAN_POINT ( 'NONE',  ( -0.2043756380777075055, -1.587500000000000133, -75.28340961896378758 ) ) ;
#323 = APPROVAL ( #516, 'UNSPECIFIED' ) ;
#324 = CARTESIAN_POINT ( 'NONE',  ( 0.000000000000000000, 0.000000000000000000, -75.31100000000000705 ) ) ;
#325 = LINE ( 'NONE', #34, #395 ) ;
#326 = PERSON_AND_ORGANIZATION ( #159, #357 ) ;
#327 = CARTESIAN_POINT ( 'NONE',  ( 1.587500000000000577, 0.8514389605504931735, 75.24136751577923121 ) ) ;
#328 = EDGE_CURVE ( 'NONE', #8, #147, #56, .T. ) ;
#329 = EDGE_LOOP ( 'NONE', ( #144, #141, #321, #504, #183, #231 ) ) ;
#330 = CARTESIAN_POINT ( 'NONE',  ( 0.000000000000000000, 0.000000000000000000, -73.18600000000000705 ) ) ;
#331 = CARTESIAN_POINT ( 'NONE',  ( 1.268411506570323866, 1.587500000000000355, -75.31100000000000705 ) ) ;
#332 = CARTESIAN_POINT ( 'NONE',  ( -1.268411506570323866, 1.587500000000000355, -75.15991914210505342 ) ) ;
#333 = APPROVAL_ROLE ( '' ) ;
#334 = DIRECTION ( 'NONE',  ( -0.000000000000000000, -0.000000000000000000, 1.000000000000000000 ) ) ;
#335 = PLANE ( 'NONE',  #497 ) ;
#336 = ORIENTED_EDGE ( 'NONE', *, *, #545, .T. ) ;
#337 = VECTOR ( 'NONE', #252, 1000.000000000000000 ) ;
#338 = DATE_AND_TIME ( #377, #460 ) ;
#339 = CARTESIAN_POINT ( 'NONE',  ( 1.587500000000000577, -0.4277385810629848462, 75.27698654358310648 ) ) ;
#340 = ADVANCED_FACE ( 'NONE', ( #422 ), #552, .T. ) ;
#341 = CARTESIAN_POINT ( 'NONE',  ( -1.245064030267288402, 1.524763679400337895E-16, -73.18600000000000705 ) ) ;
#342 = VERTEX_POINT ( 'NONE', #207 ) ;
#343 = PRODUCT_DEFINITION_FORMATION_WITH_SPECIFIED_SOURCE ( 'ANY', '', #275, .NOT_KNOWN. ) ;
#344 = EDGE_CURVE ( 'NONE', #58, #13, #179, .T. ) ;
#345 = AXIS2_PLACEMENT_3D ( 'NONE', #324, #123, #466 ) ;
#346 = AXIS2_PLACEMENT_3D ( 'NONE', #171, #514, #130 ) ;
#347 = DIRECTION ( 'NONE',  ( -0.000000000000000000, -0.000000000000000000, 1.000000000000000000 ) ) ;
#348 = VERTEX_POINT ( 'NONE', #469 ) ;
#349 = MANIFOLD_SOLID_BREP ( '228-2500-263', #236 ) ;
#350 = CARTESIAN_POINT ( 'NONE',  ( -1.587500000000000355, -0.4276219574846448768, 75.27699639200010040 ) ) ;
#351 = VERTEX_POINT ( 'NONE', #509 ) ;
#352 = FACE_OUTER_BOUND ( 'NONE', #522, .T. ) ;
#353 = B_SPLINE_CURVE_WITH_KNOTS ( 'NONE', 3,
 ( #548, #93, #561, #135, #390, #434 ),
 .UNSPECIFIED., .F., .F.,
 ( 4, 2, 4 ),
 ( 0.01485345774306979540, 0.01548163471194336643, 0.01610981168081693574 ),
 .UNSPECIFIED. ) ;
#354 = CARTESIAN_POINT ( 'NONE',  ( 1.587500000000000355, 0.2143109880594543937, -75.28322736169288021 ) ) ;
#355 = VERTEX_POINT ( 'NONE', #379 ) ;
#356 = FACE_OUTER_BOUND ( 'NONE', #440, .T. ) ;
#357 = ORGANIZATION ( 'UNSPECIFIED', 'UNSPECIFIED', '' ) ;
#358 = ORIENTED_EDGE ( 'NONE', *, *, #253, .T. ) ;
#359 = ADVANCED_FACE ( 'NONE', ( #209 ), #131, .T. ) ;
#360 = CARTESIAN_POINT ( 'NONE',  ( 1.587500000000000355, 1.268411506570323866, -75.31100000000000705 ) ) ;
#361 = CARTESIAN_POINT ( 'NONE',  ( -1.587500000000000355, -1.587500000000000355, 75.31100000000000705 ) ) ;
#362 = VERTEX_POINT ( 'NONE', #332 ) ;
#363 = CARTESIAN_POINT ( 'NONE',  ( -0.4219230645622806808, -1.587500000000000577, -75.27730730355359867 ) ) ;
#364 = FACE_OUTER_BOUND ( 'NONE', #329, .T. ) ;
#365 = ORIENTED_EDGE ( 'NONE', *, *, #137, .F. ) ;
#366 = B_SPLINE_CURVE_WITH_KNOTS ( 'NONE', 3,
 ( #411, #237, #535, #105, #276, #408, #59, #24 ),
 .UNSPECIFIED., .F., .F.,
 ( 4, 2, 2, 4 ),
 ( 0.01485345774306979540, 0.01548583974386920532, 0.01611822174466861352, 0.01738298574626743337 ),
 .UNSPECIFIED. ) ;
#367 = CARTESIAN_POINT ( 'NONE',  ( 0.8571092511711349005, -1.587500000000000355, -75.26227379706283216 ) ) ;
#368 = ADVANCED_FACE ( 'NONE', ( #172 ), #335, .F. ) ;
#369 = CARTESIAN_POINT ( 'NONE',  ( -0.8571092511719576867, -1.587500000000000799, 75.26227379706278953 ) ) ;
#370 = CARTESIAN_POINT ( 'NONE',  ( 1.268411506570323866, 1.587500000000000355, -75.15991914209799063 ) ) ;
#371 = CIRCLE ( 'NONE', #531, 2.125000000000001776 ) ;
#372 = AXIS2_PLACEMENT_3D ( 'NONE', #528, #48, #489 ) ;
#373 = CARTESIAN_POINT ( 'NONE',  ( -1.587500000000000355, -1.944126793646423534E-16, 75.28322736169286600 ) ) ;
#374 = DIRECTION ( 'NONE',  ( 1.000000000000000000, 0.000000000000000000, 0.000000000000000000 ) ) ;
#375 = COORDINATED_UNIVERSAL_TIME_OFFSET ( 6, 0, .BEHIND. ) ;
#376 = DIRECTION ( 'NONE',  ( 0.000000000000000000, 0.000000000000000000, 1.000000000000000000 ) ) ;
#377 = CALENDAR_DATE ( 2022, 6, 6 ) ;
#378 = DIRECTION ( 'NONE',  ( -1.000000000000000000, 0.000000000000000000, 0.000000000000000000 ) ) ;
#379 = CARTESIAN_POINT ( 'NONE',  ( -1.587500000000000355, 1.268411506570323866, -75.15991914209799063 ) ) ;
#380 = AXIS2_PLACEMENT_3D ( 'NONE', #60, #318, #14 ) ;
#381 = APPROVAL_ROLE ( '' ) ;
#382 = VERTEX_POINT ( 'NONE', #133 ) ;
#383 = DIRECTION ( 'NONE',  ( -0.000000000000000000, -0.000000000000000000, 1.000000000000000000 ) ) ;
#384 = PERSON_AND_ORGANIZATION_ROLE ( 'design_supplier' ) ;
#385 = DIRECTION ( 'NONE',  ( 0.000000000000000000, 0.000000000000000000, -1.000000000000000000 ) ) ;
#386 = ADVANCED_FACE ( 'NONE', ( #476 ), #264, .F. ) ;
#387 = DIRECTION ( 'NONE',  ( 1.000000000000000000, 0.000000000000000000, 0.000000000000000000 ) ) ;
#388 = CARTESIAN_POINT ( 'NONE',  ( 0.000000000000000000, 0.000000000000000000, 75.31100000000000705 ) ) ;
#389 = VECTOR ( 'NONE', #555, 1000.000000000000000 ) ;
#390 = CARTESIAN_POINT ( 'NONE',  ( -1.587500000000000355, 0.2114796877013866427, -75.28322736169286600 ) ) ;
#391 = VERTEX_POINT ( 'NONE', #439 ) ;
#392 = CARTESIAN_POINT ( 'NONE',  ( -1.587500000000000355, -1.268411506570323866, 75.15991914209799063 ) ) ;
#393 = CARTESIAN_POINT ( 'NONE',  ( -1.587500000000000577, -0.8514389605504931735, 75.24136751577923121 ) ) ;
#394 = SECURITY_CLASSIFICATION ( '', '', #122 ) ;
#395 = VECTOR ( 'NONE', #425, 1000.000000000000000 ) ;
#396 = DIRECTION ( 'NONE',  ( 0.000000000000000000, 1.000000000000000000, 0.000000000000000000 ) ) ;
#397 = ORIENTED_EDGE ( 'NONE', *, *, #451, .F. ) ;
#398 = FACE_OUTER_BOUND ( 'NONE', #479, .T. ) ;
#399 = CARTESIAN_POINT ( 'NONE',  ( -1.060147506033614517, 1.587500000000000355, 75.21174669625519016 ) ) ;
#400 = ORIENTED_EDGE ( 'NONE', *, *, #294, .F. ) ;
#401 = APPLICATION_CONTEXT ( 'configuration controlled 3d designs of mechanical parts and assemblies' ) ;
#402 = EDGE_CURVE ( 'NONE', #484, #391, #241, .T. ) ;
#403 = CARTESIAN_POINT ( 'NONE',  ( -0.4342314039556040006, -1.587500000000000355, 75.28285171744315107 ) ) ;
#404 = ORIENTED_EDGE ( 'NONE', *, *, #145, .F. ) ;
#405 = DIRECTION ( 'NONE',  ( 1.000000000000000000, 0.000000000000000000, 0.000000000000000000 ) ) ;
#406 = DIRECTION ( 'NONE',  ( 0.000000000000000000, -1.000000000000000000, 0.000000000000000000 ) ) ;
#407 = ORIENTED_EDGE ( 'NONE', *, *, #269, .F. ) ;
#408 = CARTESIAN_POINT ( 'NONE',  ( -0.4342314039549393656, 1.587500000000000355, -75.28285171744316528 ) ) ;
#409 = LINE ( 'NONE', #286, #452 ) ;
#410 = VERTEX_POINT ( 'NONE', #136 ) ;
#411 = CARTESIAN_POINT ( 'NONE',  ( 1.268411506570323866, 1.587500000000000355, -75.15991914209799063 ) ) ;
#412 = EDGE_CURVE ( 'NONE', #348, #518, #52, .T. ) ;
#413 = DIRECTION ( 'NONE',  ( -0.000000000000000000, -0.000000000000000000, 1.000000000000000000 ) ) ;
#414 = CARTESIAN_POINT ( 'NONE',  ( 1.587500000000000355, -0.4276219574846448768, -75.27699639200010040 ) ) ;
#415 = ORIENTED_EDGE ( 'NONE', *, *, #437, .F. ) ;
#416 = AXIS2_PLACEMENT_3D ( 'NONE', #388, #334, #262 ) ;
#417 = CALENDAR_DATE ( 2022, 6, 6 ) ;
#418 = LINE ( 'NONE', #331, #542 ) ;
#419 = CC_DESIGN_PERSON_AND_ORGANIZATION_ASSIGNMENT ( #211, #31, ( #394 ) ) ;
#420 = DATE_AND_TIME ( #125, #559 ) ;
#421 = ORIENTED_EDGE ( 'NONE', *, *, #402, .F. ) ;
#422 = FACE_OUTER_BOUND ( 'NONE', #265, .T. ) ;
#423 = APPROVAL_PERSON_ORGANIZATION ( #429, #323, #381 ) ;
#424 = APPLICATION_PROTOCOL_DEFINITION ( 'international standard', 'config_control_design', 1994, #71 ) ;
#425 = DIRECTION ( 'NONE',  ( 0.000000000000000000, 0.000000000000000000, -1.000000000000000000 ) ) ;
#426 = CIRCLE ( 'NONE', #297, 2.032000000000000028 ) ;
#427 = CARTESIAN_POINT ( 'NONE',  ( 1.587500000000000355, 0.000000000000000000, 75.28322736169286600 ) ) ;
#428 = AXIS2_PLACEMENT_3D ( 'NONE', #250, #200, #374 ) ;
#429 = PERSON_AND_ORGANIZATION ( #159, #357 ) ;
#430 = CARTESIAN_POINT ( 'NONE',  ( 1.587500000000000355, -0.8513200635100123259, 75.24137755531812388 ) ) ;
#431 = EDGE_CURVE ( 'NONE', #435, #274, #238, .T. ) ;
#432 = SHAPE_DEFINITION_REPRESENTATION ( #16, #203 ) ;
#433 = CARTESIAN_POINT ( 'NONE',  ( -1.268411506570322533, -1.587500000000000355, 75.15991914209799063 ) ) ;
#434 = CARTESIAN_POINT ( 'NONE',  ( -1.587500000000000355, 1.944126793646423534E-16, -75.28322736169286600 ) ) ;
#435 = VERTEX_POINT ( 'NONE', #521 ) ;
#436 = AXIS2_PLACEMENT_3D ( 'NONE', #341, #299, #214 ) ;
#437 = EDGE_CURVE ( 'NONE', #454, #382, #300, .T. ) ;
#438 = DIRECTION ( 'NONE',  ( 1.000000000000000000, 0.000000000000000000, 0.000000000000000000 ) ) ;
#439 = CARTESIAN_POINT ( 'NONE',  ( 1.587500000000000355, 1.268411506570323866, -75.15991914210505342 ) ) ;
#440 = EDGE_LOOP ( 'NONE', ( #309, #336, #458, #306 ) ) ;
#441 = ORIENTED_EDGE ( 'NONE', *, *, #74, .F. ) ;
#442 = AXIS2_PLACEMENT_3D ( 'NONE', #477, #2, #45 ) ;
#443 = DIRECTION ( 'NONE',  ( 0.000000000000000000, -0.000000000000000000, 1.000000000000000000 ) ) ;
#444 = EDGE_LOOP ( 'NONE', ( #195, #66 ) ) ;
#445 = CARTESIAN_POINT ( 'NONE',  ( 1.268411506570323866, -1.587500000000000355, -75.15991914210505342 ) ) ;
#446 = EDGE_CURVE ( 'NONE', #362, #355, #263, .T. ) ;
#447 = ORIENTED_EDGE ( 'NONE', *, *, #20, .T. ) ;
#448 = CYLINDRICAL_SURFACE ( 'NONE', #254, 2.032000000000000028 ) ;
#449 = CARTESIAN_POINT ( 'NONE',  ( 0.8486262390323798810, -1.587500000000000355, 75.24176882282394274 ) ) ;
#450 = ORIENTED_EDGE ( 'NONE', *, *, #412, .F. ) ;
#451 = EDGE_CURVE ( 'NONE', #518, #351, #140, .T. ) ;
#452 = VECTOR ( 'NONE', #413, 1000.000000000000000 ) ;
#453 = CARTESIAN_POINT ( 'NONE',  ( -1.587500000000000355, -1.944126793646423534E-16, 75.28322736169286600 ) ) ;
#454 = VERTEX_POINT ( 'NONE', #197 ) ;
#455 = DIRECTION ( 'NONE',  ( 1.000000000000000000, 0.000000000000000000, 0.000000000000000000 ) ) ;
#456 = ORIENTED_EDGE ( 'NONE', *, *, #20, .F. ) ;
#457 = PLANE ( 'NONE',  #29 ) ;
#458 = ORIENTED_EDGE ( 'NONE', *, *, #46, .T. ) ;
#459 = B_SPLINE_CURVE_WITH_KNOTS ( 'NONE', 3,
 ( #218, #178, #339, #430, #47, #259 ),
 .UNSPECIFIED., .F., .F.,
 ( 4, 2, 4 ),
 ( 0.000000000000000000, 0.0006365870327257429958, 0.001273174065451485992 ),
 .UNSPECIFIED. ) ;
#460 = LOCAL_TIME ( 15, 2, 31.00000000000000000, #547 ) ;
#461 = PERSON_AND_ORGANIZATION ( #159, #357 ) ;
#462 = CARTESIAN_POINT ( 'NONE',  ( -1.268411506570323866, -1.587500000000000355, -75.15991914209799063 ) ) ;
#463 = CIRCLE ( 'NONE', #219, 2.032000000000000028 ) ;
#464 = APPROVAL ( #248, 'UNSPECIFIED' ) ;
#465 = DATE_AND_TIME ( #506, #180 ) ;
#466 = DIRECTION ( 'NONE',  ( 1.000000000000000000, 0.000000000000000000, 0.000000000000000000 ) ) ;
#467 = PERSON_AND_ORGANIZATION_ROLE ( 'creator' ) ;
#468 = CARTESIAN_POINT ( 'NONE',  ( 0.000000000000000000, 0.000000000000000000, 75.15991914209799063 ) ) ;
#469 = CARTESIAN_POINT ( 'NONE',  ( -1.587500000000000355, -1.268411506570323866, 75.15991914209799063 ) ) ;
#470 = DIRECTION ( 'NONE',  ( 0.000000000000000000, 0.000000000000000000, 1.000000000000000000 ) ) ;
#471 = DIRECTION ( 'NONE',  ( 1.000000000000000000, 0.000000000000000000, 0.000000000000000000 ) ) ;
#472 = ADVANCED_FACE ( 'NONE', ( #75 ), #270, .T. ) ;
#473 = DIRECTION ( 'NONE',  ( -1.000000000000000000, 0.000000000000000000, 0.000000000000000000 ) ) ;
#474 = CIRCLE ( 'NONE', #532, 2.125000000000001776 ) ;
#475 = DIRECTION ( 'NONE',  ( -0.000000000000000000, -0.000000000000000000, 1.000000000000000000 ) ) ;
#476 = FACE_OUTER_BOUND ( 'NONE', #482, .T. ) ;
#477 = CARTESIAN_POINT ( 'NONE',  ( 0.000000000000000000, 0.000000000000000000, -73.18600000000000705 ) ) ;
#478 = LINE ( 'NONE', #94, #88 ) ;
#479 = EDGE_LOOP ( 'NONE', ( #181, #544, #229, #19, #104, #415, #143, #397 ) ) ;
#480 = CIRCLE ( 'NONE', #416, 1.245064030267288402 ) ;
#481 = CARTESIAN_POINT ( 'NONE',  ( -1.268411506570323866, 1.587500000000000355, 75.15991914209799063 ) ) ;
#482 = EDGE_LOOP ( 'NONE', ( #538, #507, #456, #99 ) ) ;
#483 = CARTESIAN_POINT ( 'NONE',  ( -0.2043756380772881742, 1.587500000000000799, 75.28340961896380179 ) ) ;
#484 = VERTEX_POINT ( 'NONE', #191 ) ;
#485 = CC_DESIGN_PERSON_AND_ORGANIZATION_ASSIGNMENT ( #204, #467, ( #106 ) ) ;
#486 = CARTESIAN_POINT ( 'NONE',  ( -1.245064030267288402, -1.524763679400337895E-16, 73.18600000000000705 ) ) ;
#487 = EDGE_LOOP ( 'NONE', ( #101, #96, #177, #224 ) ) ;
#488 = CARTESIAN_POINT ( 'NONE',  ( 0.4342314039549393656, -1.587500000000000355, -75.28285171744316528 ) ) ;
#489 = DIRECTION ( 'NONE',  ( 1.000000000000000000, 0.000000000000000000, 0.000000000000000000 ) ) ;
#490 = ORIENTED_EDGE ( 'NONE', *, *, #98, .F. ) ;
#491 = EDGE_CURVE ( 'NONE', #410, #235, #526, .T. ) ;
#492 = CARTESIAN_POINT ( 'NONE',  ( 1.268411506570323866, -1.587500000000000355, 75.15991914209799063 ) ) ;
#493 = ORIENTED_EDGE ( 'NONE', *, *, #288, .F. ) ;
#494 = CARTESIAN_POINT ( 'NONE',  ( -1.587500000000000577, -0.4277385810626531115, -75.27698654358313490 ) ) ;
#495 = CC_DESIGN_APPROVAL ( #63, ( #394 ) ) ;
#496 = AXIS2_PLACEMENT_3D ( 'NONE', #168, #126, #378 ) ;
#497 = AXIS2_PLACEMENT_3D ( 'NONE', #296, #473, #515 ) ;
#498 = AXIS2_PLACEMENT_3D ( 'NONE', #330, #383, #85 ) ;
#499 = DIRECTION ( 'NONE',  ( 1.000000000000000000, 0.000000000000000000, 0.000000000000000000 ) ) ;
#500 = ORIENTED_EDGE ( 'NONE', *, *, #294, .T. ) ;
#501 = DIRECTION ( 'NONE',  ( 1.000000000000000000, 1.224646799147353207E-16, 0.000000000000000000 ) ) ;
#502 = CARTESIAN_POINT ( 'NONE',  ( -1.587500000000000355, 1.061392899157111325, 75.21143677385167337 ) ) ;
#503 = CARTESIAN_POINT ( 'NONE',  ( 1.587500000000000355, 0.000000000000000000, 75.28322736169286600 ) ) ;
#504 = ORIENTED_EDGE ( 'NONE', *, *, #186, .F. ) ;
#505 = ADVANCED_FACE ( 'NONE', ( #364 ), #149, .F. ) ;
#506 = CALENDAR_DATE ( 2022, 6, 6 ) ;
#507 = ORIENTED_EDGE ( 'NONE', *, *, #269, .T. ) ;
#508 = AXIS2_PLACEMENT_3D ( 'NONE', #251, #215, #304 ) ;
#509 = CARTESIAN_POINT ( 'NONE',  ( -1.587500000000000355, 1.268411506570322533, 75.15991914209799063 ) ) ;
#510 = COORDINATED_UNIVERSAL_TIME_OFFSET ( 6, 0, .BEHIND. ) ;
#511 = CARTESIAN_POINT ( 'NONE',  ( 1.587500000000000355, -1.268411506570323866, -75.31100000000000705 ) ) ;
#512 = ADVANCED_FACE ( 'NONE', ( #234 ), #457, .F. ) ;
#513 = DIRECTION ( 'NONE',  ( -1.000000000000000000, 0.000000000000000000, 0.000000000000000000 ) ) ;
#514 = DIRECTION ( 'NONE',  ( -0.000000000000000000, -0.000000000000000000, 1.000000000000000000 ) ) ;
#515 = DIRECTION ( 'NONE',  ( 0.000000000000000000, 0.000000000000000000, 1.000000000000000000 ) ) ;
#516 = APPROVAL_STATUS ( 'not_yet_approved' ) ;
#517 = DIRECTION ( 'NONE',  ( -0.000000000000000000, -0.000000000000000000, 1.000000000000000000 ) ) ;
#518 = VERTEX_POINT ( 'NONE', #453 ) ;
#519 = CARTESIAN_POINT ( 'NONE',  ( 1.587500000000000355, 1.268411506570323866, -75.15991914210505342 ) ) ;
#520 = EDGE_CURVE ( 'NONE', #274, #484, #246, .T. ) ;
#521 = CARTESIAN_POINT ( 'NONE',  ( -1.245064030267288402, 2.006622987633879023E-16, -75.31100000000000705 ) ) ;
#522 = EDGE_LOOP ( 'NONE', ( #205, #534 ) ) ;
#523 = UNCERTAINTY_MEASURE_WITH_UNIT (LENGTH_MEASURE( 1.000000000000000082E-05 ), #244, 'distance_accuracy_value', 'NONE');
#524 = CC_DESIGN_PERSON_AND_ORGANIZATION_ASSIGNMENT ( #461, #289, ( #275 ) ) ;
#525 = CARTESIAN_POINT ( 'NONE',  ( -1.587500000000000355, -1.944126793646423534E-16, 75.28322736169286600 ) ) ;
#526 = B_SPLINE_CURVE_WITH_KNOTS ( 'NONE', 3,
 ( #492, #107, #449, #64, #284, #403, #369, #117 ),
 .UNSPECIFIED., .F., .F.,
 ( 4, 2, 2, 4 ),
 ( 0.01485345774306979540, 0.01548583974386945165, 0.01611822174466910965, 0.01738298574626842216 ),
 .UNSPECIFIED. ) ;
#527 = CARTESIAN_POINT ( 'NONE',  ( 0.000000000000000000, 0.000000000000000000, -75.31100000000000705 ) ) ;
#528 = CARTESIAN_POINT ( 'NONE',  ( 0.000000000000000000, 0.000000000000000000, -75.15991914209799063 ) ) ;
#529 = ORIENTED_EDGE ( 'NONE', *, *, #402, .T. ) ;
#530 = CARTESIAN_POINT ( 'NONE',  ( -0.8486262390325453042, -1.587500000000000577, -75.24176882282391432 ) ) ;
#531 = AXIS2_PLACEMENT_3D ( 'NONE', #249, #202, #376 ) ;
#532 = AXIS2_PLACEMENT_3D ( 'NONE', #486, #155, #501 ) ;
#533 = DIRECTION ( 'NONE',  ( 0.000000000000000000, 0.000000000000000000, -1.000000000000000000 ) ) ;
#534 = ORIENTED_EDGE ( 'NONE', *, *, #328, .T. ) ;
#535 = CARTESIAN_POINT ( 'NONE',  ( 0.8486262390325453042, 1.587500000000000577, -75.24176882282391432 ) ) ;
#536 = ADVANCED_FACE ( 'NONE', ( #119 ), #110, .T. ) ;
#537 = DIRECTION ( 'NONE',  ( 0.000000000000000000, -0.000000000000000000, -1.000000000000000000 ) ) ;
#538 = ORIENTED_EDGE ( 'NONE', *, *, #545, .F. ) ;
#539 = PLANE ( 'NONE',  #175 ) ;
#540 =( NAMED_UNIT ( * ) PLANE_ANGLE_UNIT ( ) SI_UNIT ( $, .RADIAN. ) );
#541 = ORIENTED_EDGE ( 'NONE', *, *, #437, .T. ) ;
#542 = VECTOR ( 'NONE', #293, 1000.000000000000000 ) ;
#543 = CARTESIAN_POINT ( 'NONE',  ( 1.587500000000000355, -0.2114796877013866427, -75.28322736169286600 ) ) ;
#544 = ORIENTED_EDGE ( 'NONE', *, *, #210, .F. ) ;
#545 = EDGE_CURVE ( 'NONE', #72, #235, #409, .T. ) ;
#546 = DIRECTION ( 'NONE',  ( 0.000000000000000000, 0.000000000000000000, -1.000000000000000000 ) ) ;
#547 = COORDINATED_UNIVERSAL_TIME_OFFSET ( 6, 0, .BEHIND. ) ;
#548 = CARTESIAN_POINT ( 'NONE',  ( -1.587500000000000355, 1.268411506570323866, -75.15991914209799063 ) ) ;
#549 = DIRECTION ( 'NONE',  ( 1.000000000000000000, 0.000000000000000000, 0.000000000000000000 ) ) ;
#550 = CARTESIAN_POINT ( 'NONE',  ( 0.000000000000000000, 0.000000000000000000, 75.15991914209799063 ) ) ;
#551 = CIRCLE ( 'NONE', #496, 2.032000000000000028 ) ;
#552 = CYLINDRICAL_SURFACE ( 'NONE', #49, 2.032000000000000028 ) ;
#553 = EDGE_CURVE ( 'NONE', #311, #484, #185, .T. ) ;
#554 = DATE_AND_TIME ( #417, #27 ) ;
#555 = DIRECTION ( 'NONE',  ( 0.000000000000000000, 0.000000000000000000, -1.000000000000000000 ) ) ;
#556 = CALENDAR_DATE ( 2022, 6, 6 ) ;
#557 = CYLINDRICAL_SURFACE ( 'NONE', #346, 2.032000000000000028 ) ;
#558 = CARTESIAN_POINT ( 'NONE',  ( 1.587500000000000355, 1.268411506570323866, 75.15991914209799063 ) ) ;
#559 = LOCAL_TIME ( 15, 2, 31.00000000000000000, #375 ) ;
#560 = APPROVAL_DATE_TIME ( #420, #323 ) ;
#561 = CARTESIAN_POINT ( 'NONE',  ( -1.587500000000000577, 0.8514389605504931735, -75.24136751577923121 ) ) ;
ENDSEC;
END-ISO-10303-21;
