ISO-10303-21;
HEADER;
FILE_DESCRIPTION (( 'STEP AP203' ),
    '1' );
FILE_NAME ('228-2500-264.step',
    '2022-06-06T20:02:37',
    ( '' ),
    ( '' ),
    'SwSTEP 2.0',
    'SolidWorks 2021',
    '' );
FILE_SCHEMA (( 'CONFIG_CONTROL_DESIGN' ));
ENDSEC;

DATA;
#1 = CARTESIAN_POINT ( 'NONE',  ( -1.587500000000000355, -0.2114796877013866427, 87.98322736169285463 ) ) ;
#2 = CARTESIAN_POINT ( 'NONE',  ( 1.587500000000000355, 0.4276219574846448768, 87.97699639200007482 ) ) ;
#3 = CARTESIAN_POINT ( 'NONE',  ( 1.587500000000000355, 0.8513200635093568502, -87.94137755531819778 ) ) ;
#4 = CARTESIAN_POINT ( 'NONE',  ( 0.000000000000000000, 0.000000000000000000, 85.88600000000000989 ) ) ;
#5 = CARTESIAN_POINT ( 'NONE',  ( 0.4342314039549393656, -1.587500000000000355, -87.98285171744316813 ) ) ;
#6 = CARTESIAN_POINT ( 'NONE',  ( 1.245064030267288402, 0.000000000000000000, -85.88600000000000989 ) ) ;
#7 = CARTESIAN_POINT ( 'NONE',  ( 0.000000000000000000, 0.000000000000000000, 0.000000000000000000 ) ) ;
#8 = DIRECTION ( 'NONE',  ( -0.000000000000000000, -0.000000000000000000, 1.000000000000000000 ) ) ;
#9 = AXIS2_PLACEMENT_3D ( 'NONE', #12, #93, #175 ) ;
#10 = CIRCLE ( 'NONE', #186, 2.032000000000000028 ) ;
#11 = PERSON_AND_ORGANIZATION ( #481, #261 ) ;
#12 = CARTESIAN_POINT ( 'NONE',  ( 0.000000000000000000, 0.000000000000000000, 87.85991914209799347 ) ) ;
#13 = ADVANCED_FACE ( 'NONE', ( #44 ), #257, .F. ) ;
#14 = EDGE_LOOP ( 'NONE', ( #37, #73, #199, #440 ) ) ;
#15 = CARTESIAN_POINT ( 'NONE',  ( 1.587500000000000577, -0.4277385810629848462, 87.97698654358312353 ) ) ;
#16 = LINE ( 'NONE', #183, #368 ) ;
#17 = APPLICATION_PROTOCOL_DEFINITION ( 'international standard', 'config_control_design', 1994, #391 ) ;
#18 = CARTESIAN_POINT ( 'NONE',  ( 0.000000000000000000, 0.000000000000000000, 88.01100000000000989 ) ) ;
#19 = ORIENTED_EDGE ( 'NONE', *, *, #22, .T. ) ;
#20 = CC_DESIGN_PERSON_AND_ORGANIZATION_ASSIGNMENT ( #326, #151, ( #233 ) ) ;
#21 = B_SPLINE_CURVE_WITH_KNOTS ( 'NONE', 3,
 ( #122, #213, #429, #300, #474, #336 ),
 .UNSPECIFIED., .F., .F.,
 ( 4, 2, 4 ),
 ( 1.905938025164286877E-19, 0.0006365870327252485996, 0.001273174065450496982 ),
 .UNSPECIFIED. ) ;
#22 = EDGE_CURVE ( 'NONE', #448, #555, #118, .T. ) ;
#23 = CIRCLE ( 'NONE', #297, 2.125000000000001776 ) ;
#24 = CARTESIAN_POINT ( 'NONE',  ( -1.268411506570323866, -1.587500000000000355, -87.85991914209799347 ) ) ;
#25 = PRODUCT ( '228-2500-264', '228-2500-264', '', ( #314 ) ) ;
#26 = CARTESIAN_POINT ( 'NONE',  ( 1.587500000000000355, 1.268411506570323866, 87.85991914209799347 ) ) ;
#27 = DIRECTION ( 'NONE',  ( 1.000000000000000000, 0.000000000000000000, 0.000000000000000000 ) ) ;
#28 = CC_DESIGN_PERSON_AND_ORGANIZATION_ASSIGNMENT ( #537, #502, ( #279 ) ) ;
#29 = APPROVAL_DATE_TIME ( #61, #522 ) ;
#30 = TOROIDAL_SURFACE ( 'NONE', #325, 1.245064030267288402, 2.125000000000001776 ) ;
#31 = DIRECTION ( 'NONE',  ( 0.000000000000000000, -0.000000000000000000, 1.000000000000000000 ) ) ;
#32 = ORIENTED_EDGE ( 'NONE', *, *, #205, .T. ) ;
#33 = EDGE_CURVE ( 'NONE', #282, #362, #515, .T. ) ;
#34 = CARTESIAN_POINT ( 'NONE',  ( 0.000000000000000000, 0.000000000000000000, -88.01100000000000989 ) ) ;
#35 = VERTEX_POINT ( 'NONE', #388 ) ;
#36 = DIRECTION ( 'NONE',  ( 0.000000000000000000, 0.000000000000000000, 1.000000000000000000 ) ) ;
#37 = ORIENTED_EDGE ( 'NONE', *, *, #496, .T. ) ;
#38 = EDGE_CURVE ( 'NONE', #142, #259, #497, .T. ) ;
#39 = CARTESIAN_POINT ( 'NONE',  ( -1.587500000000000355, -1.268411506570323866, 87.85991914209799347 ) ) ;
#40 = EDGE_LOOP ( 'NONE', ( #411, #323, #59, #123, #240, #193, #549, #168 ) ) ;
#41 =( GEOMETRIC_REPRESENTATION_CONTEXT ( 3 ) GLOBAL_UNCERTAINTY_ASSIGNED_CONTEXT ( ( #263 ) ) GLOBAL_UNIT_ASSIGNED_CONTEXT ( ( #311, #182, #403 ) ) REPRESENTATION_CONTEXT ( 'NONE', 'WORKASPACE' ) );
#42 = CARTESIAN_POINT ( 'NONE',  ( 1.587500000000000355, 1.061392899156297309, -87.91143677385180411 ) ) ;
#43 = DIRECTION ( 'NONE',  ( 1.224646799147353207E-16, -1.000000000000000000, 0.000000000000000000 ) ) ;
#44 = FACE_OUTER_BOUND ( 'NONE', #540, .T. ) ;
#45 = CARTESIAN_POINT ( 'NONE',  ( 1.268411506570323866, -1.587500000000000355, -88.01100000000000989 ) ) ;
#46 = CARTESIAN_POINT ( 'NONE',  ( 1.587500000000000355, 0.2114796877013866427, 87.98322736169285463 ) ) ;
#47 = LOCAL_TIME ( 15, 2, 37.00000000000000000, #547 ) ;
#48 = EDGE_CURVE ( 'NONE', #542, #332, #444, .T. ) ;
#49 = PERSON_AND_ORGANIZATION ( #481, #261 ) ;
#50 = DIRECTION ( 'NONE',  ( -0.000000000000000000, -0.000000000000000000, 1.000000000000000000 ) ) ;
#51 = PERSON_AND_ORGANIZATION_ROLE ( 'design_owner' ) ;
#52 = CARTESIAN_POINT ( 'NONE',  ( -1.587500000000000355, 1.944126793646423534E-16, -87.98322736169286884 ) ) ;
#53 = ADVANCED_FACE ( 'NONE', ( #249 ), #157, .T. ) ;
#54 = DIRECTION ( 'NONE',  ( 1.000000000000000000, 0.000000000000000000, 0.000000000000000000 ) ) ;
#55 = VECTOR ( 'NONE', #478, 1000.000000000000000 ) ;
#56 = PRODUCT_DEFINITION_SHAPE ( 'NONE', 'NONE',  #191 ) ;
#57 = DIRECTION ( 'NONE',  ( 0.000000000000000000, 0.000000000000000000, -1.000000000000000000 ) ) ;
#58 = CC_DESIGN_PERSON_AND_ORGANIZATION_ASSIGNMENT ( #260, #51, ( #25 ) ) ;
#59 = ORIENTED_EDGE ( 'NONE', *, *, #111, .T. ) ;
#60 = CARTESIAN_POINT ( 'NONE',  ( -1.587500000000000355, 1.268411506570323866, -88.01100000000000989 ) ) ;
#61 = DATE_AND_TIME ( #363, #47 ) ;
#62 = CARTESIAN_POINT ( 'NONE',  ( 0.000000000000000000, 0.000000000000000000, -88.01100000000000989 ) ) ;
#63 = VERTEX_POINT ( 'NONE', #339 ) ;
#64 = DIRECTION ( 'NONE',  ( 0.000000000000000000, 1.000000000000000000, 0.000000000000000000 ) ) ;
#65 = VERTEX_POINT ( 'NONE', #378 ) ;
#66 = CARTESIAN_POINT ( 'NONE',  ( -1.587500000000000577, 0.4277385810629850682, 87.97698654358312353 ) ) ;
#67 = ADVANCED_FACE ( 'NONE', ( #162 ), #337, .F. ) ;
#68 = EDGE_LOOP ( 'NONE', ( #321, #99, #558, #495 ) ) ;
#69 = VECTOR ( 'NONE', #78, 1000.000000000000000 ) ;
#70 = DIRECTION ( 'NONE',  ( -0.000000000000000000, -0.000000000000000000, 1.000000000000000000 ) ) ;
#71 = ORIENTED_EDGE ( 'NONE', *, *, #307, .T. ) ;
#72 = CARTESIAN_POINT ( 'NONE',  ( -1.587500000000000133, -1.061532360077853454, 87.91140206829359727 ) ) ;
#73 = ORIENTED_EDGE ( 'NONE', *, *, #256, .T. ) ;
#74 = DESIGN_CONTEXT ( 'detailed design', #391, 'design' ) ;
#75 = ADVANCED_FACE ( 'NONE', ( #121 ), #132, .F. ) ;
#76 = CARTESIAN_POINT ( 'NONE',  ( 0.4342314039556040006, 1.587500000000000355, 87.98285171744315392 ) ) ;
#77 = ORIENTED_EDGE ( 'NONE', *, *, #307, .F. ) ;
#78 = DIRECTION ( 'NONE',  ( 0.000000000000000000, 0.000000000000000000, -1.000000000000000000 ) ) ;
#79 = TOROIDAL_SURFACE ( 'NONE', #204, 1.245064030267288402, 2.125000000000001776 ) ;
#80 = ORIENTED_EDGE ( 'NONE', *, *, #218, .T. ) ;
#81 = CARTESIAN_POINT ( 'NONE',  ( 1.587500000000000355, -0.4276219574846448768, -87.97699639200007482 ) ) ;
#82 = EDGE_LOOP ( 'NONE', ( #309, #504, #71, #164, #365, #375, #105, #262 ) ) ;
#83 = FACE_OUTER_BOUND ( 'NONE', #84, .T. ) ;
#84 = EDGE_LOOP ( 'NONE', ( #231, #94, #201, #225, #190, #301 ) ) ;
#85 = EDGE_LOOP ( 'NONE', ( #367, #546, #516, #456 ) ) ;
#86 = AXIS2_PLACEMENT_3D ( 'NONE', #254, #344, #466 ) ;
#87 = ADVANCED_FACE ( 'NONE', ( #392 ), #229, .T. ) ;
#88 = CIRCLE ( 'NONE', #511, 2.032000000000000028 ) ;
#89 = CARTESIAN_POINT ( 'NONE',  ( -1.587500000000000133, 1.061532360077853454, -87.91140206829359727 ) ) ;
#90 = EDGE_CURVE ( 'NONE', #313, #153, #250, .T. ) ;
#91 = DIRECTION ( 'NONE',  ( 0.000000000000000000, 0.000000000000000000, -1.000000000000000000 ) ) ;
#92 = DIRECTION ( 'NONE',  ( 0.000000000000000000, 0.000000000000000000, 1.000000000000000000 ) ) ;
#93 = DIRECTION ( 'NONE',  ( 0.000000000000000000, 0.000000000000000000, -1.000000000000000000 ) ) ;
#94 = ORIENTED_EDGE ( 'NONE', *, *, #385, .T. ) ;
#95 = DIRECTION ( 'NONE',  ( -1.000000000000000000, 1.224646799147353207E-16, 0.000000000000000000 ) ) ;
#96 = DIRECTION ( 'NONE',  ( 0.000000000000000000, 0.000000000000000000, -1.000000000000000000 ) ) ;
#97 = ORIENTED_EDGE ( 'NONE', *, *, #471, .T. ) ;
#98 = CARTESIAN_POINT ( 'NONE',  ( -1.587500000000000355, -1.944126793646423534E-16, 87.98322736169286884 ) ) ;
#99 = ORIENTED_EDGE ( 'NONE', *, *, #509, .T. ) ;
#100 = AXIS2_PLACEMENT_3D ( 'NONE', #18, #398, #173 ) ;
#101 = CARTESIAN_POINT ( 'NONE',  ( 1.587500000000000355, 0.000000000000000000, 87.98322736169286884 ) ) ;
#102 = EDGE_LOOP ( 'NONE', ( #330, #443 ) ) ;
#103 = APPROVAL_ROLE ( '' ) ;
#104 = CARTESIAN_POINT ( 'NONE',  ( -1.587500000000000355, 1.061392899157111325, 87.91143677385169042 ) ) ;
#105 = ORIENTED_EDGE ( 'NONE', *, *, #350, .F. ) ;
#106 = CALENDAR_DATE ( 2022, 6, 6 ) ;
#107 = FACE_OUTER_BOUND ( 'NONE', #68, .T. ) ;
#108 = VECTOR ( 'NONE', #180, 1000.000000000000000 ) ;
#109 = CIRCLE ( 'NONE', #252, 2.032000000000000028 ) ;
#110 = CARTESIAN_POINT ( 'NONE',  ( 1.268411506570323866, 1.587500000000000355, -87.85991914209799347 ) ) ;
#111 = EDGE_CURVE ( 'NONE', #63, #65, #417, .T. ) ;
#112 = EDGE_LOOP ( 'NONE', ( #178, #19, #268, #80 ) ) ;
#113 = ADVANCED_FACE ( 'NONE', ( #127 ), #212, .T. ) ;
#114 = CARTESIAN_POINT ( 'NONE',  ( -1.587500000000000355, -1.944126793646423534E-16, 87.98322736169286884 ) ) ;
#115 = VERTEX_POINT ( 'NONE', #315 ) ;
#116 = EDGE_CURVE ( 'NONE', #328, #384, #176, .T. ) ;
#117 = CARTESIAN_POINT ( 'NONE',  ( -0.8486262390325451932, -1.587500000000000577, -87.94176882282391716 ) ) ;
#118 = LINE ( 'NONE', #342, #55 ) ;
#119 = CARTESIAN_POINT ( 'NONE',  ( 1.587500000000000577, 0.4277385810626528340, -87.97698654358313775 ) ) ;
#120 = AXIS2_PLACEMENT_3D ( 'NONE', #560, #210, #36 ) ;
#121 = FACE_OUTER_BOUND ( 'NONE', #335, .T. ) ;
#122 = CARTESIAN_POINT ( 'NONE',  ( -1.587500000000000355, 1.944126793646423534E-16, -87.98322736169286884 ) ) ;
#123 = ORIENTED_EDGE ( 'NONE', *, *, #385, .F. ) ;
#124 = CARTESIAN_POINT ( 'NONE',  ( 1.268411506570323866, -1.587500000000000355, -87.85991914210505627 ) ) ;
#125 = ORIENTED_EDGE ( 'NONE', *, *, #422, .T. ) ;
#126 = CARTESIAN_POINT ( 'NONE',  ( 1.587500000000000355, -1.268411506570323866, -88.01100000000000989 ) ) ;
#127 = FACE_OUTER_BOUND ( 'NONE', #40, .T. ) ;
#128 = AXIS2_PLACEMENT_3D ( 'NONE', #538, #57, #135 ) ;
#129 = DATE_TIME_ROLE ( 'creation_date' ) ;
#130 = CARTESIAN_POINT ( 'NONE',  ( -1.268411506570323866, 1.587500000000000355, -87.85991914210505627 ) ) ;
#131 = APPROVAL_STATUS ( 'not_yet_approved' ) ;
#132 = PLANE ( 'NONE',  #128 ) ;
#133 = ORIENTED_EDGE ( 'NONE', *, *, #187, .F. ) ;
#134 = CARTESIAN_POINT ( 'NONE',  ( 1.587500000000000355, -1.061392899157111103, 87.91143677385169042 ) ) ;
#135 = DIRECTION ( 'NONE',  ( -1.000000000000000000, 0.000000000000000000, -0.000000000000000000 ) ) ;
#136 = AXIS2_PLACEMENT_3D ( 'NONE', #62, #410, #364 ) ;
#137 = EDGE_CURVE ( 'NONE', #542, #372, #554, .T. ) ;
#138 = LINE ( 'NONE', #317, #108 ) ;
#139 = B_SPLINE_CURVE_WITH_KNOTS ( 'NONE', 3,
 ( #161, #258, #202, #341, #343, #334, #377, #163 ),
 .UNSPECIFIED., .F., .F.,
 ( 4, 2, 2, 4 ),
 ( 0.01485345774306979540, 0.01548583974386945165, 0.01611822174466910965, 0.01738298574626842216 ),
 .UNSPECIFIED. ) ;
#140 = PLANE ( 'NONE',  #545 ) ;
#141 = DIRECTION ( 'NONE',  ( 0.000000000000000000, 0.000000000000000000, -1.000000000000000000 ) ) ;
#142 = VERTEX_POINT ( 'NONE', #529 ) ;
#143 = EDGE_CURVE ( 'NONE', #372, #542, #451, .T. ) ;
#144 = AXIS2_PLACEMENT_3D ( 'NONE', #220, #8, #54 ) ;
#145 = CIRCLE ( 'NONE', #144, 1.245064030267288402 ) ;
#146 = CIRCLE ( 'NONE', #408, 2.032000000000000028 ) ;
#147 = COORDINATED_UNIVERSAL_TIME_OFFSET ( 6, 0, .BEHIND. ) ;
#148 = CARTESIAN_POINT ( 'NONE',  ( 0.000000000000000000, 0.000000000000000000, 85.88600000000000989 ) ) ;
#149 = VERTEX_POINT ( 'NONE', #130 ) ;
#150 = EDGE_CURVE ( 'NONE', #518, #149, #138, .T. ) ;
#151 = PERSON_AND_ORGANIZATION_ROLE ( 'creator' ) ;
#152 = CARTESIAN_POINT ( 'NONE',  ( 1.268411506570323866, 1.587500000000000355, -87.85991914209799347 ) ) ;
#153 = VERTEX_POINT ( 'NONE', #486 ) ;
#154 = ADVANCED_FACE ( 'NONE', ( #347 ), #490, .T. ) ;
#155 = CYLINDRICAL_SURFACE ( 'NONE', #288, 2.032000000000000028 ) ;
#156 = ORIENTED_EDGE ( 'NONE', *, *, #532, .T. ) ;
#157 = TOROIDAL_SURFACE ( 'NONE', #479, 1.245064030267288402, 2.125000000000001776 ) ;
#158 = AXIS2_PLACEMENT_3D ( 'NONE', #455, #237, #462 ) ;
#159 = DIRECTION ( 'NONE',  ( 0.000000000000000000, 0.000000000000000000, -1.000000000000000000 ) ) ;
#160 = DIRECTION ( 'NONE',  ( 0.000000000000000000, -1.000000000000000000, 0.000000000000000000 ) ) ;
#161 = CARTESIAN_POINT ( 'NONE',  ( 1.268411506570323866, -1.587500000000000355, 87.85991914209799347 ) ) ;
#162 = FACE_OUTER_BOUND ( 'NONE', #247, .T. ) ;
#163 = CARTESIAN_POINT ( 'NONE',  ( -1.268411506570322533, -1.587500000000000355, 87.85991914209799347 ) ) ;
#164 = ORIENTED_EDGE ( 'NONE', *, *, #33, .F. ) ;
#165 = AXIS2_PLACEMENT_3D ( 'NONE', #6, #404, #484 ) ;
#166 = LINE ( 'NONE', #45, #69 ) ;
#167 = AXIS2_PLACEMENT_3D ( 'NONE', #7, #92, #438 ) ;
#168 = ORIENTED_EDGE ( 'NONE', *, *, #434, .F. ) ;
#169 = CARTESIAN_POINT ( 'NONE',  ( 1.587500000000000133, -1.061532360077853454, -87.91140206829359727 ) ) ;
#170 = ORIENTED_EDGE ( 'NONE', *, *, #501, .T. ) ;
#171 = CARTESIAN_POINT ( 'NONE',  ( 0.8571092511711346784, -1.587500000000000133, -87.96227379706282079 ) ) ;
#172 = ADVANCED_FACE ( 'NONE', ( #531 ), #79, .T. ) ;
#173 = DIRECTION ( 'NONE',  ( 1.000000000000000000, 0.000000000000000000, 0.000000000000000000 ) ) ;
#174 = CALENDAR_DATE ( 2022, 6, 6 ) ;
#175 = DIRECTION ( 'NONE',  ( -1.000000000000000000, 0.000000000000000000, 0.000000000000000000 ) ) ;
#176 = CIRCLE ( 'NONE', #9, 2.032000000000000028 ) ;
#177 = APPROVAL_PERSON_ORGANIZATION ( #11, #522, #445 ) ;
#178 = ORIENTED_EDGE ( 'NONE', *, *, #304, .T. ) ;
#179 = CARTESIAN_POINT ( 'NONE',  ( 1.587500000000000355, 0.000000000000000000, 87.98322736169286884 ) ) ;
#180 = DIRECTION ( 'NONE',  ( 0.000000000000000000, 0.000000000000000000, -1.000000000000000000 ) ) ;
#181 = PRODUCT_RELATED_PRODUCT_CATEGORY ( 'detail', '', ( #25 ) ) ;
#182 =( NAMED_UNIT ( * ) PLANE_ANGLE_UNIT ( ) SI_UNIT ( $, .RADIAN. ) );
#183 = CARTESIAN_POINT ( 'NONE',  ( 1.587500000000000355, 1.268411506570323866, -88.01100000000000989 ) ) ;
#184 = APPROVAL_ROLE ( '' ) ;
#185 = DIRECTION ( 'NONE',  ( 1.000000000000000000, 0.000000000000000000, 0.000000000000000000 ) ) ;
#186 = AXIS2_PLACEMENT_3D ( 'NONE', #426, #298, #206 ) ;
#187 = EDGE_CURVE ( 'NONE', #195, #287, #431, .T. ) ;
#188 = PERSON_AND_ORGANIZATION ( #481, #261 ) ;
#189 = CARTESIAN_POINT ( 'NONE',  ( 0.8486262390325451932, 1.587500000000000577, -87.94176882282391716 ) ) ;
#190 = ORIENTED_EDGE ( 'NONE', *, *, #33, .T. ) ;
#191 = PRODUCT_DEFINITION ( 'UNKNOWN', '', #233, #74 ) ;
#192 = DIRECTION ( 'NONE',  ( -0.000000000000000000, -0.000000000000000000, 1.000000000000000000 ) ) ;
#193 = ORIENTED_EDGE ( 'NONE', *, *, #501, .F. ) ;
#194 = DIRECTION ( 'NONE',  ( -0.000000000000000000, -0.000000000000000000, 1.000000000000000000 ) ) ;
#195 = VERTEX_POINT ( 'NONE', #395 ) ;
#196 = CC_DESIGN_APPROVAL ( #505, ( #191 ) ) ;
#197 = DATE_TIME_ROLE ( 'classification_date' ) ;
#198 = B_SPLINE_CURVE_WITH_KNOTS ( 'NONE', 3,
 ( #152, #548, #189, #361, #457, #329, #286, #544 ),
 .UNSPECIFIED., .F., .F.,
 ( 4, 2, 2, 4 ),
 ( 0.01485345774306979540, 0.01548583974386920532, 0.01611822174466861352, 0.01738298574626743337 ),
 .UNSPECIFIED. ) ;
#199 = ORIENTED_EDGE ( 'NONE', *, *, #350, .T. ) ;
#200 = CARTESIAN_POINT ( 'NONE',  ( 0.000000000000000000, 0.000000000000000000, -88.01100000000000989 ) ) ;
#201 = ORIENTED_EDGE ( 'NONE', *, *, #394, .T. ) ;
#202 = CARTESIAN_POINT ( 'NONE',  ( 0.8486262390323798810, -1.587500000000000355, 87.94176882282393137 ) ) ;
#203 = ORIENTED_EDGE ( 'NONE', *, *, #116, .F. ) ;
#204 = AXIS2_PLACEMENT_3D ( 'NONE', #526, #306, #482 ) ;
#205 = EDGE_CURVE ( 'NONE', #63, #244, #145, .T. ) ;
#206 = DIRECTION ( 'NONE',  ( 1.000000000000000000, 0.000000000000000000, 0.000000000000000000 ) ) ;
#207 = DIRECTION ( 'NONE',  ( 1.000000000000000000, 0.000000000000000000, 0.000000000000000000 ) ) ;
#208 = CARTESIAN_POINT ( 'NONE',  ( -1.268411506570323866, 1.587500000000000355, 87.85991914209799347 ) ) ;
#209 = DIRECTION ( 'NONE',  ( 1.000000000000000000, 0.000000000000000000, 0.000000000000000000 ) ) ;
#210 = DIRECTION ( 'NONE',  ( -1.000000000000000000, 0.000000000000000000, 0.000000000000000000 ) ) ;
#211 = DIRECTION ( 'NONE',  ( 1.000000000000000000, 1.224646799147353207E-16, 0.000000000000000000 ) ) ;
#212 = TOROIDAL_SURFACE ( 'NONE', #356, 1.245064030267288402, 2.125000000000001776 ) ;
#213 = CARTESIAN_POINT ( 'NONE',  ( -1.587500000000000133, -0.2143109880594543937, -87.98322736169286884 ) ) ;
#214 = CARTESIAN_POINT ( 'NONE',  ( 1.587500000000000355, 0.000000000000000000, 87.98322736169286884 ) ) ;
#215 = EDGE_CURVE ( 'NONE', #555, #282, #88, .T. ) ;
#216 = COORDINATED_UNIVERSAL_TIME_OFFSET ( 6, 0, .BEHIND. ) ;
#217 = DIRECTION ( 'NONE',  ( 1.000000000000000000, 0.000000000000000000, 0.000000000000000000 ) ) ;
#218 = EDGE_CURVE ( 'NONE', #282, #35, #16, .T. ) ;
#219 = CARTESIAN_POINT ( 'NONE',  ( -1.268411506570323866, -1.587500000000000355, -88.01100000000000989 ) ) ;
#220 = CARTESIAN_POINT ( 'NONE',  ( 0.000000000000000000, 0.000000000000000000, -88.01100000000000989 ) ) ;
#221 = VERTEX_POINT ( 'NONE', #267 ) ;
#222 = AXIS2_PLACEMENT_3D ( 'NONE', #402, #227, #357 ) ;
#223 = DIRECTION ( 'NONE',  ( 0.000000000000000000, 0.000000000000000000, -1.000000000000000000 ) ) ;
#224 = CIRCLE ( 'NONE', #158, 1.245064030267288402 ) ;
#225 = ORIENTED_EDGE ( 'NONE', *, *, #218, .F. ) ;
#226 = CARTESIAN_POINT ( 'NONE',  ( 1.268411506570322533, 1.587500000000000355, 87.85991914209799347 ) ) ;
#227 = DIRECTION ( 'NONE',  ( -0.000000000000000000, -0.000000000000000000, 1.000000000000000000 ) ) ;
#228 = CARTESIAN_POINT ( 'NONE',  ( -1.268411506570323866, 1.587500000000000355, 87.85991914209799347 ) ) ;
#229 = PLANE ( 'NONE',  #535 ) ;
#230 = DIRECTION ( 'NONE',  ( -0.000000000000000000, -0.000000000000000000, 1.000000000000000000 ) ) ;
#231 = ORIENTED_EDGE ( 'NONE', *, *, #559, .F. ) ;
#232 = AXIS2_PLACEMENT_3D ( 'NONE', #489, #312, #273 ) ;
#233 = PRODUCT_DEFINITION_FORMATION_WITH_SPECIFIED_SOURCE ( 'ANY', '', #25, .NOT_KNOWN. ) ;
#234 = APPROVAL_STATUS ( 'not_yet_approved' ) ;
#235 = DIRECTION ( 'NONE',  ( 1.000000000000000000, 0.000000000000000000, 0.000000000000000000 ) ) ;
#236 = EDGE_LOOP ( 'NONE', ( #428, #170, #513, #125 ) ) ;
#237 = DIRECTION ( 'NONE',  ( -0.000000000000000000, -0.000000000000000000, 1.000000000000000000 ) ) ;
#238 = ORIENTED_EDGE ( 'NONE', *, *, #111, .F. ) ;
#239 = CARTESIAN_POINT ( 'NONE',  ( -1.587500000000000355, 1.268411506570322533, 87.85991914209799347 ) ) ;
#240 = ORIENTED_EDGE ( 'NONE', *, *, #293, .F. ) ;
#241 = LOCAL_TIME ( 15, 2, 37.00000000000000000, #147 ) ;
#242 = APPROVAL_DATE_TIME ( #280, #494 ) ;
#243 = DIRECTION ( 'NONE',  ( -0.000000000000000000, 1.000000000000000000, 0.000000000000000000 ) ) ;
#244 = VERTEX_POINT ( 'NONE', #354 ) ;
#245 = ADVANCED_FACE ( 'NONE', ( #449 ), #155, .T. ) ;
#246 = CARTESIAN_POINT ( 'NONE',  ( -1.587500000000000355, -0.4276219574846448768, 87.97699639200007482 ) ) ;
#247 = EDGE_LOOP ( 'NONE', ( #400, #507, #274, #473, #500, #510 ) ) ;
#248 = CARTESIAN_POINT ( 'NONE',  ( 0.8571092511719576867, 1.587500000000000799, 87.96227379706279237 ) ) ;
#249 = FACE_OUTER_BOUND ( 'NONE', #485, .T. ) ;
#250 = CIRCLE ( 'NONE', #232, 2.032000000000000028 ) ;
#251 = EDGE_CURVE ( 'NONE', #332, #115, #359, .T. ) ;
#252 = AXIS2_PLACEMENT_3D ( 'NONE', #541, #141, #498 ) ;
#253 = CARTESIAN_POINT ( 'NONE',  ( -1.060147506033695786, -1.587500000000000577, -87.91174669625519300 ) ) ;
#254 = CARTESIAN_POINT ( 'NONE',  ( 0.000000000000000000, 0.000000000000000000, -87.85991914209799347 ) ) ;
#255 = PLANE ( 'NONE',  #120 ) ;
#256 = EDGE_CURVE ( 'NONE', #195, #115, #503, .T. ) ;
#257 = PLANE ( 'NONE',  #376 ) ;
#258 = CARTESIAN_POINT ( 'NONE',  ( 1.060147506033614517, -1.587500000000000355, 87.91174669625519300 ) ) ;
#259 = VERTEX_POINT ( 'NONE', #24 ) ;
#260 = PERSON_AND_ORGANIZATION ( #481, #261 ) ;
#261 = ORGANIZATION ( 'UNSPECIFIED', 'UNSPECIFIED', '' ) ;
#262 = ORIENTED_EDGE ( 'NONE', *, *, #251, .F. ) ;
#263 = UNCERTAINTY_MEASURE_WITH_UNIT (LENGTH_MEASURE( 1.000000000000000082E-05 ), #311, 'distance_accuracy_value', 'NONE');
#264 = CARTESIAN_POINT ( 'NONE',  ( 1.587500000000000133, -0.2143109880596208994, 87.98322736169286884 ) ) ;
#265 = CARTESIAN_POINT ( 'NONE',  ( -1.587500000000000577, 0.8514389605504931735, -87.94136751577921984 ) ) ;
#266 = PERSON_AND_ORGANIZATION_ROLE ( 'creator' ) ;
#267 = CARTESIAN_POINT ( 'NONE',  ( 1.587500000000000355, -1.268411506570323866, -87.85991914209799347 ) ) ;
#268 = ORIENTED_EDGE ( 'NONE', *, *, #215, .T. ) ;
#269 = PERSON_AND_ORGANIZATION ( #481, #261 ) ;
#270 = ADVANCED_FACE ( 'NONE', ( #366 ), #413, .T. ) ;
#271 = CARTESIAN_POINT ( 'NONE',  ( -1.587500000000000355, 1.268411506570323866, -87.85991914209799347 ) ) ;
#272 = DIRECTION ( 'NONE',  ( 1.224646799147353207E-16, 1.000000000000000000, 0.000000000000000000 ) ) ;
#273 = DIRECTION ( 'NONE',  ( -1.000000000000000000, 0.000000000000000000, 0.000000000000000000 ) ) ;
#274 = ORIENTED_EDGE ( 'NONE', *, *, #434, .T. ) ;
#275 = B_SPLINE_CURVE_WITH_KNOTS ( 'NONE', 3,
 ( #512, #520, #119, #3, #42, #514 ),
 .UNSPECIFIED., .F., .F.,
 ( 4, 2, 4 ),
 ( 0.000000000000000000, 0.0006365870327252485996, 0.001273174065450496982 ),
 .UNSPECIFIED. ) ;
#276 = DIRECTION ( 'NONE',  ( 1.000000000000000000, 0.000000000000000000, 0.000000000000000000 ) ) ;
#277 = CARTESIAN_POINT ( 'NONE',  ( -1.587500000000000355, -1.587500000000000355, 88.01100000000000989 ) ) ;
#278 = ORIENTED_EDGE ( 'NONE', *, *, #48, .T. ) ;
#279 = SECURITY_CLASSIFICATION ( '', '', #406 ) ;
#280 = DATE_AND_TIME ( #360, #470 ) ;
#281 = CARTESIAN_POINT ( 'NONE',  ( 1.245064030267288402, 0.000000000000000000, 88.01100000000000989 ) ) ;
#282 = VERTEX_POINT ( 'NONE', #26 ) ;
#283 = CC_DESIGN_PERSON_AND_ORGANIZATION_ASSIGNMENT ( #49, #266, ( #191 ) ) ;
#284 = CARTESIAN_POINT ( 'NONE',  ( 0.000000000000000000, 0.000000000000000000, -87.85991914209799347 ) ) ;
#285 = ORIENTED_EDGE ( 'NONE', *, *, #150, .F. ) ;
#286 = CARTESIAN_POINT ( 'NONE',  ( -0.8571092511711346784, 1.587500000000000133, -87.96227379706282079 ) ) ;
#287 = VERTEX_POINT ( 'NONE', #369 ) ;
#288 = AXIS2_PLACEMENT_3D ( 'NONE', #200, #230, #235 ) ;
#289 = LINE ( 'NONE', #374, #453 ) ;
#290 = ORIENTED_EDGE ( 'NONE', *, *, #137, .T. ) ;
#291 = CARTESIAN_POINT ( 'NONE',  ( -0.8486262390323798810, 1.587500000000000355, 87.94176882282393137 ) ) ;
#292 = CARTESIAN_POINT ( 'NONE',  ( -1.587500000000000355, 1.587500000000000355, 88.01100000000000989 ) ) ;
#293 = EDGE_CURVE ( 'NONE', #461, #221, #146, .T. ) ;
#294 = CARTESIAN_POINT ( 'NONE',  ( -0.4219230645622807918, -1.587500000000000799, -87.97730730355360151 ) ) ;
#295 = CARTESIAN_POINT ( 'NONE',  ( 1.587500000000000133, 1.061532360077853454, 87.91140206829359727 ) ) ;
#296 = EDGE_CURVE ( 'NONE', #448, #149, #198, .T. ) ;
#297 = AXIS2_PLACEMENT_3D ( 'NONE', #436, #272, #95 ) ;
#298 = DIRECTION ( 'NONE',  ( -0.000000000000000000, -0.000000000000000000, 1.000000000000000000 ) ) ;
#299 = ORIENTED_EDGE ( 'NONE', *, *, #422, .F. ) ;
#300 = CARTESIAN_POINT ( 'NONE',  ( -1.587500000000000355, -0.8513200635093569613, -87.94137755531821199 ) ) ;
#301 = ORIENTED_EDGE ( 'NONE', *, *, #552, .T. ) ;
#302 = CARTESIAN_POINT ( 'NONE',  ( -1.245064030267288402, -2.006622987633879023E-16, 88.01100000000000989 ) ) ;
#303 = ORIENTED_EDGE ( 'NONE', *, *, #552, .F. ) ;
#304 = EDGE_CURVE ( 'NONE', #35, #448, #499, .T. ) ;
#305 = APPLICATION_CONTEXT ( 'configuration controlled 3d designs of mechanical parts and assemblies' ) ;
#306 = DIRECTION ( 'NONE',  ( -0.000000000000000000, -0.000000000000000000, 1.000000000000000000 ) ) ;
#307 = EDGE_CURVE ( 'NONE', #372, #362, #316, .T. ) ;
#308 = CARTESIAN_POINT ( 'NONE',  ( 0.000000000000000000, 0.000000000000000000, 87.85991914209799347 ) ) ;
#309 = ORIENTED_EDGE ( 'NONE', *, *, #48, .F. ) ;
#310 = ADVANCED_FACE ( 'NONE', ( #322 ), #140, .F. ) ;
#311 =( LENGTH_UNIT ( ) NAMED_UNIT ( * ) SI_UNIT ( .MILLI., .METRE. ) );
#312 = DIRECTION ( 'NONE',  ( 0.000000000000000000, 0.000000000000000000, -1.000000000000000000 ) ) ;
#313 = VERTEX_POINT ( 'NONE', #420 ) ;
#314 = MECHANICAL_CONTEXT ( 'NONE', #305, 'mechanical' ) ;
#315 = CARTESIAN_POINT ( 'NONE',  ( -1.587500000000000355, 1.268411506570322533, 87.85991914209799347 ) ) ;
#316 = CIRCLE ( 'NONE', #419, 2.125000000000001776 ) ;
#317 = CARTESIAN_POINT ( 'NONE',  ( -1.268411506570323866, 1.587500000000000355, -88.01100000000000989 ) ) ;
#318 = ADVANCED_FACE ( 'NONE', ( #539 ), #30, .T. ) ;
#319 = DIRECTION ( 'NONE',  ( 0.000000000000000000, 0.000000000000000000, -1.000000000000000000 ) ) ;
#320 = B_SPLINE_CURVE_WITH_KNOTS ( 'NONE', 3,
 ( #39, #72, #432, #246, #1, #114 ),
 .UNSPECIFIED., .F., .F.,
 ( 4, 2, 4 ),
 ( 0.01485345774306979540, 0.01548163471194336643, 0.01610981168081693574 ),
 .UNSPECIFIED. ) ;
#321 = ORIENTED_EDGE ( 'NONE', *, *, #38, .T. ) ;
#322 = FACE_OUTER_BOUND ( 'NONE', #236, .T. ) ;
#323 = ORIENTED_EDGE ( 'NONE', *, *, #373, .T. ) ;
#324 = AXIS2_PLACEMENT_3D ( 'NONE', #468, #209, #561 ) ;
#325 = AXIS2_PLACEMENT_3D ( 'NONE', #148, #319, #493 ) ;
#326 = PERSON_AND_ORGANIZATION ( #481, #261 ) ;
#327 = CARTESIAN_POINT ( 'NONE',  ( -1.268411506570322533, -1.587500000000000355, 87.85991914209799347 ) ) ;
#328 = VERTEX_POINT ( 'NONE', #327 ) ;
#329 = CARTESIAN_POINT ( 'NONE',  ( -0.4342314039549393656, 1.587500000000000355, -87.98285171744316813 ) ) ;
#330 = ORIENTED_EDGE ( 'NONE', *, *, #205, .F. ) ;
#331 = CARTESIAN_POINT ( 'NONE',  ( -1.587500000000000133, 0.2143109880596207883, 87.98322736169286884 ) ) ;
#332 = VERTEX_POINT ( 'NONE', #98 ) ;
#333 = VECTOR ( 'NONE', #441, 1000.000000000000000 ) ;
#334 = CARTESIAN_POINT ( 'NONE',  ( -0.4342314039556040006, -1.587500000000000355, 87.98285171744315392 ) ) ;
#335 = EDGE_LOOP ( 'NONE', ( #396, #290 ) ) ;
#336 = CARTESIAN_POINT ( 'NONE',  ( -1.587500000000000355, -1.268411506570323866, -87.85991914210505627 ) ) ;
#337 = PLANE ( 'NONE',  #324 ) ;
#338 = CARTESIAN_POINT ( 'NONE',  ( -0.4219230645619455045, 1.587500000000000133, 87.97730730355364415 ) ) ;
#339 = CARTESIAN_POINT ( 'NONE',  ( 1.245064030267288402, 0.000000000000000000, -88.01100000000000989 ) ) ;
#340 = AXIS2_PLACEMENT_3D ( 'NONE', #550, #194, #276 ) ;
#341 = CARTESIAN_POINT ( 'NONE',  ( 0.4219230645619455045, -1.587500000000000133, 87.97730730355364415 ) ) ;
#342 = CARTESIAN_POINT ( 'NONE',  ( 1.268411506570323866, 1.587500000000000355, -88.01100000000000989 ) ) ;
#343 = CARTESIAN_POINT ( 'NONE',  ( 0.2043756380772881742, -1.587500000000000799, 87.98340961896379042 ) ) ;
#344 = DIRECTION ( 'NONE',  ( -0.000000000000000000, -0.000000000000000000, 1.000000000000000000 ) ) ;
#345 = MANIFOLD_SOLID_BREP ( '228-2500-264', #469 ) ;
#346 = ADVANCED_FACE ( 'NONE', ( #107 ), #452, .T. ) ;
#347 = FACE_OUTER_BOUND ( 'NONE', #85, .T. ) ;
#348 = DATE_AND_TIME ( #174, #487 ) ;
#349 = DIRECTION ( 'NONE',  ( -0.000000000000000000, -0.000000000000000000, 1.000000000000000000 ) ) ;
#350 = EDGE_CURVE ( 'NONE', #115, #518, #109, .T. ) ;
#351 = DIRECTION ( 'NONE',  ( -1.000000000000000000, 0.000000000000000000, 0.000000000000000000 ) ) ;
#352 = B_SPLINE_CURVE_WITH_KNOTS ( 'NONE', 3,
 ( #179, #264, #15, #488, #134, #397 ),
 .UNSPECIFIED., .F., .F.,
 ( 4, 2, 4 ),
 ( 0.000000000000000000, 0.0006365870327257429958, 0.001273174065451485992 ),
 .UNSPECIFIED. ) ;
#353 = LINE ( 'NONE', #219, #480 ) ;
#354 = CARTESIAN_POINT ( 'NONE',  ( -1.245064030267288402, 2.006622987633879023E-16, -88.01100000000000989 ) ) ;
#355 = PERSON_AND_ORGANIZATION_ROLE ( 'design_supplier' ) ;
#356 = AXIS2_PLACEMENT_3D ( 'NONE', #533, #349, #185 ) ;
#357 = DIRECTION ( 'NONE',  ( 1.000000000000000000, 0.000000000000000000, 0.000000000000000000 ) ) ;
#358 = CC_DESIGN_APPROVAL ( #522, ( #233 ) ) ;
#359 = B_SPLINE_CURVE_WITH_KNOTS ( 'NONE', 3,
 ( #416, #331, #66, #508, #104, #239 ),
 .UNSPECIFIED., .F., .F.,
 ( 4, 2, 4 ),
 ( 1.905938025164286877E-19, 0.0006365870327257431042, 0.001273174065451485992 ),
 .UNSPECIFIED. ) ;
#360 = CALENDAR_DATE ( 2022, 6, 6 ) ;
#361 = CARTESIAN_POINT ( 'NONE',  ( 0.4219230645622807918, 1.587500000000000799, -87.97730730355360151 ) ) ;
#362 = VERTEX_POINT ( 'NONE', #101 ) ;
#363 = CALENDAR_DATE ( 2022, 6, 6 ) ;
#364 = DIRECTION ( 'NONE',  ( 1.000000000000000000, 0.000000000000000000, 0.000000000000000000 ) ) ;
#365 = ORIENTED_EDGE ( 'NONE', *, *, #215, .F. ) ;
#366 = FACE_OUTER_BOUND ( 'NONE', #14, .T. ) ;
#367 = ORIENTED_EDGE ( 'NONE', *, *, #293, .T. ) ;
#368 = VECTOR ( 'NONE', #91, 1000.000000000000000 ) ;
#369 = CARTESIAN_POINT ( 'NONE',  ( -1.587500000000000355, 1.944126793646423534E-16, -87.98322736169286884 ) ) ;
#370 = ORIENTED_EDGE ( 'NONE', *, *, #304, .F. ) ;
#371 = DIRECTION ( 'NONE',  ( 1.000000000000000000, 0.000000000000000000, 0.000000000000000000 ) ) ;
#372 = VERTEX_POINT ( 'NONE', #281 ) ;
#373 = EDGE_CURVE ( 'NONE', #244, #63, #224, .T. ) ;
#374 = CARTESIAN_POINT ( 'NONE',  ( -1.587500000000000355, -1.268411506570323866, -88.01100000000000989 ) ) ;
#375 = ORIENTED_EDGE ( 'NONE', *, *, #471, .F. ) ;
#376 = AXIS2_PLACEMENT_3D ( 'NONE', #292, #160, #430 ) ;
#377 = CARTESIAN_POINT ( 'NONE',  ( -0.8571092511719576867, -1.587500000000000799, 87.96227379706279237 ) ) ;
#378 = CARTESIAN_POINT ( 'NONE',  ( 1.587500000000000355, 0.000000000000000000, -87.98322736169286884 ) ) ;
#379 = CARTESIAN_POINT ( 'NONE',  ( 1.268411506570322533, 1.587500000000000355, 87.85991914209799347 ) ) ;
#380 = CC_DESIGN_DATE_AND_TIME_ASSIGNMENT ( #525, #129, ( #191 ) ) ;
#381 = CARTESIAN_POINT ( 'NONE',  ( -1.245064030267288402, -1.524763679400337895E-16, 85.88600000000000989 ) ) ;
#382 = ADVANCED_BREP_SHAPE_REPRESENTATION ( '228-2500-264', ( #345, #167 ), #41 ) ;
#383 = CARTESIAN_POINT ( 'NONE',  ( -1.587500000000000355, -1.268411506570323866, 87.85991914209799347 ) ) ;
#384 = VERTEX_POINT ( 'NONE', #383 ) ;
#385 = EDGE_CURVE ( 'NONE', #221, #65, #534, .T. ) ;
#386 = CC_DESIGN_SECURITY_CLASSIFICATION ( #279, ( #233 ) ) ;
#387 = CARTESIAN_POINT ( 'NONE',  ( 1.268411506570323866, -1.587500000000000355, -87.85991914210505627 ) ) ;
#388 = CARTESIAN_POINT ( 'NONE',  ( 1.587500000000000355, 1.268411506570323866, -87.85991914210505627 ) ) ;
#389 = EDGE_CURVE ( 'NONE', #384, #332, #320, .T. ) ;
#390 = CALENDAR_DATE ( 2022, 6, 6 ) ;
#391 = APPLICATION_CONTEXT ( 'configuration controlled 3d designs of mechanical parts and assemblies' ) ;
#392 = FACE_OUTER_BOUND ( 'NONE', #102, .T. ) ;
#393 = DIRECTION ( 'NONE',  ( -0.000000000000000000, -0.000000000000000000, 1.000000000000000000 ) ) ;
#394 = EDGE_CURVE ( 'NONE', #65, #35, #275, .T. ) ;
#395 = CARTESIAN_POINT ( 'NONE',  ( -1.587500000000000355, 1.268411506570323866, -87.85991914209799347 ) ) ;
#396 = ORIENTED_EDGE ( 'NONE', *, *, #143, .T. ) ;
#397 = CARTESIAN_POINT ( 'NONE',  ( 1.587500000000000355, -1.268411506570322533, 87.85991914209799347 ) ) ;
#398 = DIRECTION ( 'NONE',  ( -0.000000000000000000, -0.000000000000000000, 1.000000000000000000 ) ) ;
#399 = ADVANCED_FACE ( 'NONE', ( #83 ), #255, .F. ) ;
#400 = ORIENTED_EDGE ( 'NONE', *, *, #256, .F. ) ;
#401 = APPROVAL_STATUS ( 'not_yet_approved' ) ;
#402 = CARTESIAN_POINT ( 'NONE',  ( 0.000000000000000000, 0.000000000000000000, 88.01100000000000989 ) ) ;
#403 =( NAMED_UNIT ( * ) SI_UNIT ( $, .STERADIAN. ) SOLID_ANGLE_UNIT ( ) );
#404 = DIRECTION ( 'NONE',  ( 0.000000000000000000, -1.000000000000000000, 0.000000000000000000 ) ) ;
#405 = EDGE_CURVE ( 'NONE', #153, #461, #166, .T. ) ;
#406 = SECURITY_CLASSIFICATION_LEVEL ( 'unclassified' ) ;
#407 = DIRECTION ( 'NONE',  ( -0.000000000000000000, -0.000000000000000000, 1.000000000000000000 ) ) ;
#408 = AXIS2_PLACEMENT_3D ( 'NONE', #284, #407, #371 ) ;
#409 = SHAPE_DEFINITION_REPRESENTATION ( #56, #382 ) ;
#410 = DIRECTION ( 'NONE',  ( -0.000000000000000000, -0.000000000000000000, 1.000000000000000000 ) ) ;
#411 = ORIENTED_EDGE ( 'NONE', *, *, #532, .F. ) ;
#412 = CC_DESIGN_DATE_AND_TIME_ASSIGNMENT ( #454, #197, ( #279 ) ) ;
#413 = CYLINDRICAL_SURFACE ( 'NONE', #528, 2.032000000000000028 ) ;
#414 = ORIENTED_EDGE ( 'NONE', *, *, #22, .F. ) ;
#415 = PERSON_AND_ORGANIZATION ( #481, #261 ) ;
#416 = CARTESIAN_POINT ( 'NONE',  ( -1.587500000000000355, -1.944126793646423534E-16, 87.98322736169286884 ) ) ;
#417 = CIRCLE ( 'NONE', #165, 2.125000000000001776 ) ;
#418 = ORIENTED_EDGE ( 'NONE', *, *, #296, .T. ) ;
#419 = AXIS2_PLACEMENT_3D ( 'NONE', #506, #243, #459 ) ;
#420 = CARTESIAN_POINT ( 'NONE',  ( 1.587500000000000355, -1.268411506570322533, 87.85991914209799347 ) ) ;
#421 = EDGE_LOOP ( 'NONE', ( #32, #156, #133, #458, #424, #370, #475, #238 ) ) ;
#422 = EDGE_CURVE ( 'NONE', #153, #328, #139, .T. ) ;
#423 = CARTESIAN_POINT ( 'NONE',  ( 1.587500000000000355, -0.2114796877013866427, -87.98322736169285463 ) ) ;
#424 = ORIENTED_EDGE ( 'NONE', *, *, #296, .F. ) ;
#425 = B_SPLINE_CURVE_WITH_KNOTS ( 'NONE', 3,
 ( #557, #253, #117, #294, #427, #5, #171, #124 ),
 .UNSPECIFIED., .F., .F.,
 ( 4, 2, 2, 4 ),
 ( 0.01485345774306979540, 0.01548583974386920532, 0.01611822174466861352, 0.01738298574626743337 ),
 .UNSPECIFIED. ) ;
#426 = CARTESIAN_POINT ( 'NONE',  ( 0.000000000000000000, 0.000000000000000000, -87.85991914209799347 ) ) ;
#427 = CARTESIAN_POINT ( 'NONE',  ( -0.2043756380777076165, -1.587500000000000355, -87.98340961896377621 ) ) ;
#428 = ORIENTED_EDGE ( 'NONE', *, *, #509, .F. ) ;
#429 = CARTESIAN_POINT ( 'NONE',  ( -1.587500000000000577, -0.4277385810626531115, -87.97698654358312353 ) ) ;
#430 = DIRECTION ( 'NONE',  ( 0.000000000000000000, -0.000000000000000000, -1.000000000000000000 ) ) ;
#431 = B_SPLINE_CURVE_WITH_KNOTS ( 'NONE', 3,
 ( #271, #89, #265, #446, #439, #52 ),
 .UNSPECIFIED., .F., .F.,
 ( 4, 2, 4 ),
 ( 0.01485345774306979540, 0.01548163471194336643, 0.01610981168081693574 ),
 .UNSPECIFIED. ) ;
#432 = CARTESIAN_POINT ( 'NONE',  ( -1.587500000000000577, -0.8514389605504931735, 87.94136751577921984 ) ) ;
#433 = CARTESIAN_POINT ( 'NONE',  ( 1.587500000000000577, 0.8514389605504931735, 87.94136751577921984 ) ) ;
#434 = EDGE_CURVE ( 'NONE', #287, #142, #21, .T. ) ;
#435 = CC_DESIGN_APPROVAL ( #494, ( #279 ) ) ;
#436 = CARTESIAN_POINT ( 'NONE',  ( -1.245064030267288402, 1.524763679400337895E-16, -85.88600000000000989 ) ) ;
#437 = CARTESIAN_POINT ( 'NONE',  ( 0.000000000000000000, 0.000000000000000000, -88.01100000000000989 ) ) ;
#438 = DIRECTION ( 'NONE',  ( 1.000000000000000000, 0.000000000000000000, 0.000000000000000000 ) ) ;
#439 = CARTESIAN_POINT ( 'NONE',  ( -1.587500000000000355, 0.2114796877013866427, -87.98322736169285463 ) ) ;
#440 = ORIENTED_EDGE ( 'NONE', *, *, #150, .T. ) ;
#441 = DIRECTION ( 'NONE',  ( -0.000000000000000000, -0.000000000000000000, 1.000000000000000000 ) ) ;
#442 = CARTESIAN_POINT ( 'NONE',  ( -1.587500000000000355, 1.587500000000000355, -88.01100000000000989 ) ) ;
#443 = ORIENTED_EDGE ( 'NONE', *, *, #373, .F. ) ;
#444 = CIRCLE ( 'NONE', #460, 2.125000000000001776 ) ;
#445 = APPROVAL_ROLE ( '' ) ;
#446 = CARTESIAN_POINT ( 'NONE',  ( -1.587500000000000355, 0.4276219574846448768, -87.97699639200007482 ) ) ;
#447 = DIRECTION ( 'NONE',  ( -1.000000000000000000, 0.000000000000000000, -0.000000000000000000 ) ) ;
#448 = VERTEX_POINT ( 'NONE', #110 ) ;
#449 = FACE_OUTER_BOUND ( 'NONE', #112, .T. ) ;
#450 = B_SPLINE_CURVE_WITH_KNOTS ( 'NONE', 3,
 ( #208, #553, #291, #338, #465, #76, #248, #379 ),
 .UNSPECIFIED., .F., .F.,
 ( 4, 2, 2, 4 ),
 ( 0.01485345774306979540, 0.01548583974386945165, 0.01611822174466910965, 0.01738298574626842216 ),
 .UNSPECIFIED. ) ;
#451 = CIRCLE ( 'NONE', #222, 1.245064030267288402 ) ;
#452 = CYLINDRICAL_SURFACE ( 'NONE', #136, 2.032000000000000028 ) ;
#453 = VECTOR ( 'NONE', #159, 1000.000000000000000 ) ;
#454 = DATE_AND_TIME ( #106, #241 ) ;
#455 = CARTESIAN_POINT ( 'NONE',  ( 0.000000000000000000, 0.000000000000000000, -88.01100000000000989 ) ) ;
#456 = ORIENTED_EDGE ( 'NONE', *, *, #405, .T. ) ;
#457 = CARTESIAN_POINT ( 'NONE',  ( 0.2043756380777076165, 1.587500000000000355, -87.98340961896377621 ) ) ;
#458 = ORIENTED_EDGE ( 'NONE', *, *, #496, .F. ) ;
#459 = DIRECTION ( 'NONE',  ( 0.000000000000000000, 0.000000000000000000, 1.000000000000000000 ) ) ;
#460 = AXIS2_PLACEMENT_3D ( 'NONE', #381, #43, #211 ) ;
#461 = VERTEX_POINT ( 'NONE', #387 ) ;
#462 = DIRECTION ( 'NONE',  ( 1.000000000000000000, 0.000000000000000000, 0.000000000000000000 ) ) ;
#463 = ORIENTED_EDGE ( 'NONE', *, *, #389, .F. ) ;
#464 = EDGE_CURVE ( 'NONE', #384, #142, #289, .T. ) ;
#465 = CARTESIAN_POINT ( 'NONE',  ( -0.2043756380772881742, 1.587500000000000799, 87.98340961896379042 ) ) ;
#466 = DIRECTION ( 'NONE',  ( 1.000000000000000000, 0.000000000000000000, 0.000000000000000000 ) ) ;
#467 = CARTESIAN_POINT ( 'NONE',  ( 1.587500000000000355, 0.000000000000000000, -87.98322736169286884 ) ) ;
#468 = CARTESIAN_POINT ( 'NONE',  ( -1.587500000000000355, -1.587500000000000355, 88.01100000000000989 ) ) ;
#469 = CLOSED_SHELL ( 'NONE', ( #53, #172, #67, #310, #399, #13, #113, #318, #87, #75, #346, #154, #245, #270 ) ) ;
#470 = LOCAL_TIME ( 15, 2, 37.00000000000000000, #492 ) ;
#471 = EDGE_CURVE ( 'NONE', #518, #555, #450, .T. ) ;
#472 = CARTESIAN_POINT ( 'NONE',  ( 1.587500000000000355, -1.268411506570323866, -87.85991914209799347 ) ) ;
#473 = ORIENTED_EDGE ( 'NONE', *, *, #464, .F. ) ;
#474 = CARTESIAN_POINT ( 'NONE',  ( -1.587500000000000355, -1.061392899156297753, -87.91143677385181832 ) ) ;
#475 = ORIENTED_EDGE ( 'NONE', *, *, #394, .F. ) ;
#476 = APPLICATION_PROTOCOL_DEFINITION ( 'international standard', 'config_control_design', 1994, #305 ) ;
#477 = CC_DESIGN_PERSON_AND_ORGANIZATION_ASSIGNMENT ( #415, #355, ( #233 ) ) ;
#478 = DIRECTION ( 'NONE',  ( -0.000000000000000000, -0.000000000000000000, 1.000000000000000000 ) ) ;
#479 = AXIS2_PLACEMENT_3D ( 'NONE', #4, #524, #207 ) ;
#480 = VECTOR ( 'NONE', #393, 1000.000000000000000 ) ;
#481 = PERSON ( 'UNSPECIFIED', 'UNSPECIFIED', 'UNSPECIFIED', ('UNSPECIFIED'), ('UNSPECIFIED'), ('UNSPECIFIED') ) ;
#482 = DIRECTION ( 'NONE',  ( 1.000000000000000000, 0.000000000000000000, 0.000000000000000000 ) ) ;
#483 = LINE ( 'NONE', #126, #333 ) ;
#484 = DIRECTION ( 'NONE',  ( 0.000000000000000000, 0.000000000000000000, -1.000000000000000000 ) ) ;
#485 = EDGE_LOOP ( 'NONE', ( #491, #278, #463, #203, #299, #551, #303, #77 ) ) ;
#486 = CARTESIAN_POINT ( 'NONE',  ( 1.268411506570323866, -1.587500000000000355, 87.85991914209799347 ) ) ;
#487 = LOCAL_TIME ( 15, 2, 37.00000000000000000, #530 ) ;
#488 = CARTESIAN_POINT ( 'NONE',  ( 1.587500000000000355, -0.8513200635100123259, 87.94137755531812672 ) ) ;
#489 = CARTESIAN_POINT ( 'NONE',  ( 0.000000000000000000, 0.000000000000000000, 87.85991914209799347 ) ) ;
#490 = CYLINDRICAL_SURFACE ( 'NONE', #527, 2.032000000000000028 ) ;
#491 = ORIENTED_EDGE ( 'NONE', *, *, #137, .F. ) ;
#492 = COORDINATED_UNIVERSAL_TIME_OFFSET ( 6, 0, .BEHIND. ) ;
#493 = DIRECTION ( 'NONE',  ( 1.000000000000000000, 0.000000000000000000, 0.000000000000000000 ) ) ;
#494 = APPROVAL ( #234, 'UNSPECIFIED' ) ;
#495 = ORIENTED_EDGE ( 'NONE', *, *, #464, .T. ) ;
#496 = EDGE_CURVE ( 'NONE', #149, #195, #10, .T. ) ;
#497 = CIRCLE ( 'NONE', #86, 2.032000000000000028 ) ;
#498 = DIRECTION ( 'NONE',  ( -1.000000000000000000, 0.000000000000000000, 0.000000000000000000 ) ) ;
#499 = CIRCLE ( 'NONE', #340, 2.032000000000000028 ) ;
#500 = ORIENTED_EDGE ( 'NONE', *, *, #389, .T. ) ;
#501 = EDGE_CURVE ( 'NONE', #259, #461, #425, .T. ) ;
#502 = PERSON_AND_ORGANIZATION_ROLE ( 'classification_officer' ) ;
#503 = LINE ( 'NONE', #60, #543 ) ;
#504 = ORIENTED_EDGE ( 'NONE', *, *, #143, .F. ) ;
#505 = APPROVAL ( #401, 'UNSPECIFIED' ) ;
#506 = CARTESIAN_POINT ( 'NONE',  ( 1.245064030267288402, 0.000000000000000000, 85.88600000000000989 ) ) ;
#507 = ORIENTED_EDGE ( 'NONE', *, *, #187, .T. ) ;
#508 = CARTESIAN_POINT ( 'NONE',  ( -1.587500000000000355, 0.8513200635100124369, 87.94137755531812672 ) ) ;
#509 = EDGE_CURVE ( 'NONE', #259, #328, #353, .T. ) ;
#510 = ORIENTED_EDGE ( 'NONE', *, *, #251, .T. ) ;
#511 = AXIS2_PLACEMENT_3D ( 'NONE', #308, #223, #351 ) ;
#512 = CARTESIAN_POINT ( 'NONE',  ( 1.587500000000000355, 0.000000000000000000, -87.98322736169286884 ) ) ;
#513 = ORIENTED_EDGE ( 'NONE', *, *, #405, .F. ) ;
#514 = CARTESIAN_POINT ( 'NONE',  ( 1.587500000000000355, 1.268411506570323866, -87.85991914210505627 ) ) ;
#515 = B_SPLINE_CURVE_WITH_KNOTS ( 'NONE', 3,
 ( #521, #295, #433, #2, #46, #214 ),
 .UNSPECIFIED., .F., .F.,
 ( 4, 2, 4 ),
 ( 0.01485345774306979540, 0.01548163471194336643, 0.01610981168081693574 ),
 .UNSPECIFIED. ) ;
#516 = ORIENTED_EDGE ( 'NONE', *, *, #90, .T. ) ;
#517 = CARTESIAN_POINT ( 'NONE',  ( 1.587500000000000577, -0.8514389605504931735, -87.94136751577921984 ) ) ;
#518 = VERTEX_POINT ( 'NONE', #228 ) ;
#519 = LOCAL_TIME ( 15, 2, 37.00000000000000000, #216 ) ;
#520 = CARTESIAN_POINT ( 'NONE',  ( 1.587500000000000355, 0.2143109880594543937, -87.98322736169286884 ) ) ;
#521 = CARTESIAN_POINT ( 'NONE',  ( 1.587500000000000355, 1.268411506570323866, 87.85991914209799347 ) ) ;
#522 = APPROVAL ( #131, 'UNSPECIFIED' ) ;
#523 = APPROVAL_DATE_TIME ( #348, #505 ) ;
#524 = DIRECTION ( 'NONE',  ( 0.000000000000000000, 0.000000000000000000, -1.000000000000000000 ) ) ;
#525 = DATE_AND_TIME ( #390, #519 ) ;
#526 = CARTESIAN_POINT ( 'NONE',  ( 0.000000000000000000, 0.000000000000000000, -85.88600000000000989 ) ) ;
#527 = AXIS2_PLACEMENT_3D ( 'NONE', #437, #50, #217 ) ;
#528 = AXIS2_PLACEMENT_3D ( 'NONE', #34, #192, #27 ) ;
#529 = CARTESIAN_POINT ( 'NONE',  ( -1.587500000000000355, -1.268411506570323866, -87.85991914210505627 ) ) ;
#530 = COORDINATED_UNIVERSAL_TIME_OFFSET ( 6, 0, .BEHIND. ) ;
#531 = FACE_OUTER_BOUND ( 'NONE', #421, .T. ) ;
#532 = EDGE_CURVE ( 'NONE', #244, #287, #23, .T. ) ;
#533 = CARTESIAN_POINT ( 'NONE',  ( 0.000000000000000000, 0.000000000000000000, -85.88600000000000989 ) ) ;
#534 = B_SPLINE_CURVE_WITH_KNOTS ( 'NONE', 3,
 ( #472, #169, #517, #81, #423, #467 ),
 .UNSPECIFIED., .F., .F.,
 ( 4, 2, 4 ),
 ( 0.01485345774306979540, 0.01548163471194336643, 0.01610981168081693574 ),
 .UNSPECIFIED. ) ;
#535 = AXIS2_PLACEMENT_3D ( 'NONE', #442, #96, #447 ) ;
#536 = APPROVAL_PERSON_ORGANIZATION ( #269, #505, #184 ) ;
#537 = PERSON_AND_ORGANIZATION ( #481, #261 ) ;
#538 = CARTESIAN_POINT ( 'NONE',  ( -1.587500000000000355, 1.587500000000000355, 88.01100000000000989 ) ) ;
#539 = FACE_OUTER_BOUND ( 'NONE', #82, .T. ) ;
#540 = EDGE_LOOP ( 'NONE', ( #414, #418, #285, #97 ) ) ;
#541 = CARTESIAN_POINT ( 'NONE',  ( 0.000000000000000000, 0.000000000000000000, 87.85991914209799347 ) ) ;
#542 = VERTEX_POINT ( 'NONE', #302 ) ;
#543 = VECTOR ( 'NONE', #70, 1000.000000000000000 ) ;
#544 = CARTESIAN_POINT ( 'NONE',  ( -1.268411506570323866, 1.587500000000000355, -87.85991914210505627 ) ) ;
#545 = AXIS2_PLACEMENT_3D ( 'NONE', #277, #64, #31 ) ;
#546 = ORIENTED_EDGE ( 'NONE', *, *, #559, .T. ) ;
#547 = COORDINATED_UNIVERSAL_TIME_OFFSET ( 6, 0, .BEHIND. ) ;
#548 = CARTESIAN_POINT ( 'NONE',  ( 1.060147506033695786, 1.587500000000000577, -87.91174669625519300 ) ) ;
#549 = ORIENTED_EDGE ( 'NONE', *, *, #38, .F. ) ;
#550 = CARTESIAN_POINT ( 'NONE',  ( 0.000000000000000000, 0.000000000000000000, -87.85991914209799347 ) ) ;
#551 = ORIENTED_EDGE ( 'NONE', *, *, #90, .F. ) ;
#552 = EDGE_CURVE ( 'NONE', #362, #313, #352, .T. ) ;
#553 = CARTESIAN_POINT ( 'NONE',  ( -1.060147506033614517, 1.587500000000000355, 87.91174669625519300 ) ) ;
#554 = CIRCLE ( 'NONE', #100, 1.245064030267288402 ) ;
#555 = VERTEX_POINT ( 'NONE', #226 ) ;
#556 = APPROVAL_PERSON_ORGANIZATION ( #188, #494, #103 ) ;
#557 = CARTESIAN_POINT ( 'NONE',  ( -1.268411506570323866, -1.587500000000000355, -87.85991914209799347 ) ) ;
#558 = ORIENTED_EDGE ( 'NONE', *, *, #116, .T. ) ;
#559 = EDGE_CURVE ( 'NONE', #221, #313, #483, .T. ) ;
#560 = CARTESIAN_POINT ( 'NONE',  ( 1.587500000000000355, -1.587500000000000355, 88.01100000000000989 ) ) ;
#561 = DIRECTION ( 'NONE',  ( 0.000000000000000000, 0.000000000000000000, -1.000000000000000000 ) ) ;
ENDSEC;
END-ISO-10303-21;
