ISO-10303-21;
HEADER;
FILE_DESCRIPTION (( 'STEP AP203' ),
    '1' );
FILE_NAME ('228-2500-265.step',
    '2022-06-06T20:02:43',
    ( '' ),
    ( '' ),
    'SwSTEP 2.0',
    'SolidWorks 2021',
    '' );
FILE_SCHEMA (( 'CONFIG_CONTROL_DESIGN' ));
ENDSEC;

DATA;
#1 = DIRECTION ( 'NONE',  ( 1.000000000000000000, 1.224646799147353207E-16, 0.000000000000000000 ) ) ;
#2 = DIRECTION ( 'NONE',  ( 1.000000000000000000, 0.000000000000000000, 0.000000000000000000 ) ) ;
#3 = APPROVAL_ROLE ( '' ) ;
#4 = FACE_OUTER_BOUND ( 'NONE', #464, .T. ) ;
#5 = EDGE_CURVE ( 'NONE', #293, #11, #226, .T. ) ;
#6 = ORIENTED_EDGE ( 'NONE', *, *, #349, .F. ) ;
#7 = CARTESIAN_POINT ( 'NONE',  ( -1.268411506570323866, -1.587500000000000355, -100.5599191420979963 ) ) ;
#8 = PRODUCT_RELATED_PRODUCT_CATEGORY ( 'detail', '', ( #218 ) ) ;
#9 = ORIENTED_EDGE ( 'NONE', *, *, #169, .T. ) ;
#10 = CARTESIAN_POINT ( 'NONE',  ( -1.587500000000000355, -1.268411506570323866, -100.7110000000000127 ) ) ;
#11 = VERTEX_POINT ( 'NONE', #385 ) ;
#12 = EDGE_CURVE ( 'NONE', #549, #372, #156, .T. ) ;
#13 = CYLINDRICAL_SURFACE ( 'NONE', #136, 2.032000000000000028 ) ;
#14 = B_SPLINE_CURVE_WITH_KNOTS ( 'NONE', 3,
 ( #537, #232, #542, #202, #360, #314, #147, #69 ),
 .UNSPECIFIED., .F., .F.,
 ( 4, 2, 2, 4 ),
 ( 0.01485345774306979540, 0.01548583974386945165, 0.01611822174466910965, 0.01738298574626842216 ),
 .UNSPECIFIED. ) ;
#15 = FACE_OUTER_BOUND ( 'NONE', #32, .T. ) ;
#16 = DIRECTION ( 'NONE',  ( 0.000000000000000000, 0.000000000000000000, -1.000000000000000000 ) ) ;
#17 = AXIS2_PLACEMENT_3D ( 'NONE', #181, #58, #401 ) ;
#18 = CARTESIAN_POINT ( 'NONE',  ( 1.587500000000000355, 1.268411506570323866, 100.5599191420979963 ) ) ;
#19 = DIRECTION ( 'NONE',  ( 0.000000000000000000, 1.000000000000000000, 0.000000000000000000 ) ) ;
#20 = CARTESIAN_POINT ( 'NONE',  ( 1.245064030267288402, 0.000000000000000000, -98.58600000000001273 ) ) ;
#21 = DESIGN_CONTEXT ( 'detailed design', #526, 'design' ) ;
#22 = DIRECTION ( 'NONE',  ( 1.000000000000000000, 0.000000000000000000, 0.000000000000000000 ) ) ;
#23 = FACE_OUTER_BOUND ( 'NONE', #491, .T. ) ;
#24 = CIRCLE ( 'NONE', #316, 2.032000000000000028 ) ;
#25 = CARTESIAN_POINT ( 'NONE',  ( 0.000000000000000000, 0.000000000000000000, -98.58600000000001273 ) ) ;
#26 = EDGE_CURVE ( 'NONE', #333, #470, #409, .T. ) ;
#27 = LOCAL_TIME ( 15, 2, 43.00000000000000000, #386 ) ;
#28 = CARTESIAN_POINT ( 'NONE',  ( -0.8486262390323798810, 1.587500000000000355, 100.6417688228239342 ) ) ;
#29 = ORIENTED_EDGE ( 'NONE', *, *, #12, .T. ) ;
#30 = CARTESIAN_POINT ( 'NONE',  ( 0.000000000000000000, 0.000000000000000000, 100.7110000000000127 ) ) ;
#31 = DIRECTION ( 'NONE',  ( -1.000000000000000000, 0.000000000000000000, 0.000000000000000000 ) ) ;
#32 = EDGE_LOOP ( 'NONE', ( #421, #254, #122, #36 ) ) ;
#33 = SECURITY_CLASSIFICATION_LEVEL ( 'unclassified' ) ;
#34 = CARTESIAN_POINT ( 'NONE',  ( -1.587500000000000577, 0.4277385810629850682, 100.6769865435831122 ) ) ;
#35 = ADVANCED_FACE ( 'NONE', ( #231 ), #402, .F. ) ;
#36 = ORIENTED_EDGE ( 'NONE', *, *, #364, .T. ) ;
#37 = DATE_AND_TIME ( #212, #125 ) ;
#38 = DIRECTION ( 'NONE',  ( 1.000000000000000000, 0.000000000000000000, 0.000000000000000000 ) ) ;
#39 = APPROVAL_PERSON_ORGANIZATION ( #495, #234, #123 ) ;
#40 = ORIENTED_EDGE ( 'NONE', *, *, #169, .F. ) ;
#41 = PERSON_AND_ORGANIZATION_ROLE ( 'creator' ) ;
#42 = CARTESIAN_POINT ( 'NONE',  ( 0.000000000000000000, 0.000000000000000000, -100.7110000000000127 ) ) ;
#43 = ORIENTED_EDGE ( 'NONE', *, *, #469, .F. ) ;
#44 = AXIS2_PLACEMENT_3D ( 'NONE', #42, #383, #434 ) ;
#45 = PERSON_AND_ORGANIZATION ( #394, #423 ) ;
#46 = CARTESIAN_POINT ( 'NONE',  ( 1.587500000000000355, -1.268411506570323866, -100.7110000000000127 ) ) ;
#47 = ORIENTED_EDGE ( 'NONE', *, *, #438, .T. ) ;
#48 = CARTESIAN_POINT ( 'NONE',  ( 1.587500000000000355, 0.000000000000000000, -100.6832273616928717 ) ) ;
#49 = CC_DESIGN_DATE_AND_TIME_ASSIGNMENT ( #518, #419, ( #459 ) ) ;
#50 = ORIENTED_EDGE ( 'NONE', *, *, #5, .T. ) ;
#51 = DIRECTION ( 'NONE',  ( 1.000000000000000000, 0.000000000000000000, 0.000000000000000000 ) ) ;
#52 = ADVANCED_FACE ( 'NONE', ( #146 ), #366, .T. ) ;
#53 = EDGE_LOOP ( 'NONE', ( #346, #80, #272, #351, #378, #274, #217, #359 ) ) ;
#54 = CLOSED_SHELL ( 'NONE', ( #89, #162, #278, #35, #182, #417, #285, #444, #200, #553, #425, #535, #52, #388 ) ) ;
#55 = AXIS2_PLACEMENT_3D ( 'NONE', #367, #497, #244 ) ;
#56 = CARTESIAN_POINT ( 'NONE',  ( 0.000000000000000000, 0.000000000000000000, -100.7110000000000127 ) ) ;
#57 = CC_DESIGN_PERSON_AND_ORGANIZATION_ASSIGNMENT ( #471, #41, ( #139 ) ) ;
#58 = DIRECTION ( 'NONE',  ( 0.000000000000000000, 0.000000000000000000, -1.000000000000000000 ) ) ;
#59 = PRODUCT_DEFINITION_FORMATION_WITH_SPECIFIED_SOURCE ( 'ANY', '', #218, .NOT_KNOWN. ) ;
#60 = CARTESIAN_POINT ( 'NONE',  ( 1.587500000000000133, 1.061532360077853454, 100.6114020682936001 ) ) ;
#61 = CARTESIAN_POINT ( 'NONE',  ( -1.587500000000000355, 1.268411506570323866, -100.7110000000000127 ) ) ;
#62 = EDGE_CURVE ( 'NONE', #333, #338, #511, .T. ) ;
#63 = DIRECTION ( 'NONE',  ( -0.000000000000000000, -0.000000000000000000, 1.000000000000000000 ) ) ;
#64 = CARTESIAN_POINT ( 'NONE',  ( 1.268411506570322533, 1.587500000000000355, 100.5599191420979963 ) ) ;
#65 = ADVANCED_BREP_SHAPE_REPRESENTATION ( '228-2500-265', ( #115, #527 ), #397 ) ;
#66 = CARTESIAN_POINT ( 'NONE',  ( -1.587500000000000133, -1.061532360077853454, 100.6114020682936001 ) ) ;
#67 = CARTESIAN_POINT ( 'NONE',  ( 1.587500000000000355, -1.061392899157111103, 100.6114367738516790 ) ) ;
#68 = EDGE_CURVE ( 'NONE', #534, #305, #24, .T. ) ;
#69 = CARTESIAN_POINT ( 'NONE',  ( -1.268411506570322533, -1.587500000000000355, 100.5599191420979963 ) ) ;
#70 = VECTOR ( 'NONE', #361, 1000.000000000000000 ) ;
#71 = AXIS2_PLACEMENT_3D ( 'NONE', #440, #178, #138 ) ;
#72 = CARTESIAN_POINT ( 'NONE',  ( 1.245064030267288402, 0.000000000000000000, -100.7110000000000127 ) ) ;
#73 = DIRECTION ( 'NONE',  ( -0.000000000000000000, -0.000000000000000000, 1.000000000000000000 ) ) ;
#74 = ORIENTED_EDGE ( 'NONE', *, *, #325, .F. ) ;
#75 = DIRECTION ( 'NONE',  ( 1.000000000000000000, 0.000000000000000000, 0.000000000000000000 ) ) ;
#76 = CARTESIAN_POINT ( 'NONE',  ( -0.2043756380772881742, 1.587500000000000799, 100.6834096189638075 ) ) ;
#77 = ORIENTED_EDGE ( 'NONE', *, *, #98, .F. ) ;
#78 = CARTESIAN_POINT ( 'NONE',  ( 1.587500000000000355, 0.000000000000000000, 100.6832273616928717 ) ) ;
#79 = EDGE_CURVE ( 'NONE', #503, #549, #87, .T. ) ;
#80 = ORIENTED_EDGE ( 'NONE', *, *, #349, .T. ) ;
#81 = FACE_OUTER_BOUND ( 'NONE', #260, .T. ) ;
#82 = ORIENTED_EDGE ( 'NONE', *, *, #521, .T. ) ;
#83 = CALENDAR_DATE ( 2022, 6, 6 ) ;
#84 = CARTESIAN_POINT ( 'NONE',  ( -0.2043756380777075055, -1.587500000000000133, -100.6834096189637933 ) ) ;
#85 = ORIENTED_EDGE ( 'NONE', *, *, #273, .T. ) ;
#86 = CARTESIAN_POINT ( 'NONE',  ( -1.587500000000000355, -1.587500000000000355, 100.7110000000000127 ) ) ;
#87 = B_SPLINE_CURVE_WITH_KNOTS ( 'NONE', 3,
 ( #404, #152, #240, #449, #282, #196, #190, #452 ),
 .UNSPECIFIED., .F., .F.,
 ( 4, 2, 2, 4 ),
 ( 0.01485345774306979540, 0.01548583974386920532, 0.01611822174466861352, 0.01738298574626743337 ),
 .UNSPECIFIED. ) ;
#88 = ORIENTED_EDGE ( 'NONE', *, *, #5, .F. ) ;
#89 = ADVANCED_FACE ( 'NONE', ( #23 ), #229, .T. ) ;
#90 = CARTESIAN_POINT ( 'NONE',  ( -0.8486262390325453042, -1.587500000000000577, -100.6417688228239342 ) ) ;
#91 = DIRECTION ( 'NONE',  ( -0.000000000000000000, -0.000000000000000000, 1.000000000000000000 ) ) ;
#92 = DIRECTION ( 'NONE',  ( 1.000000000000000000, 0.000000000000000000, 0.000000000000000000 ) ) ;
#93 = CARTESIAN_POINT ( 'NONE',  ( -1.587500000000000355, 1.944126793646423534E-16, -100.6832273616928717 ) ) ;
#94 = FACE_OUTER_BOUND ( 'NONE', #424, .T. ) ;
#95 = AXIS2_PLACEMENT_3D ( 'NONE', #228, #180, #92 ) ;
#96 = CARTESIAN_POINT ( 'NONE',  ( -1.587500000000000577, 0.8514389605504931735, -100.6413675157792227 ) ) ;
#97 = DIRECTION ( 'NONE',  ( 0.000000000000000000, 0.000000000000000000, -1.000000000000000000 ) ) ;
#98 = EDGE_CURVE ( 'NONE', #338, #299, #479, .T. ) ;
#99 = CARTESIAN_POINT ( 'NONE',  ( -1.587500000000000355, 1.587500000000000355, 100.7110000000000127 ) ) ;
#100 = ORIENTED_EDGE ( 'NONE', *, *, #374, .T. ) ;
#101 = CC_DESIGN_PERSON_AND_ORGANIZATION_ASSIGNMENT ( #406, #365, ( #218 ) ) ;
#102 = ORIENTED_EDGE ( 'NONE', *, *, #400, .T. ) ;
#103 =( LENGTH_UNIT ( ) NAMED_UNIT ( * ) SI_UNIT ( .MILLI., .METRE. ) );
#104 = DIRECTION ( 'NONE',  ( 0.000000000000000000, 0.000000000000000000, -1.000000000000000000 ) ) ;
#105 = PLANE ( 'NONE',  #266 ) ;
#106 = CARTESIAN_POINT ( 'NONE',  ( 1.245064030267288402, 0.000000000000000000, 98.58600000000001273 ) ) ;
#107 = AXIS2_PLACEMENT_3D ( 'NONE', #448, #233, #1 ) ;
#108 = AXIS2_PLACEMENT_3D ( 'NONE', #221, #398, #528 ) ;
#109 = ORIENTED_EDGE ( 'NONE', *, *, #79, .T. ) ;
#110 = MECHANICAL_CONTEXT ( 'NONE', #142, 'mechanical' ) ;
#111 = DIRECTION ( 'NONE',  ( -1.000000000000000000, 0.000000000000000000, 0.000000000000000000 ) ) ;
#112 = ORIENTED_EDGE ( 'NONE', *, *, #62, .T. ) ;
#113 = DIRECTION ( 'NONE',  ( -1.000000000000000000, 0.000000000000000000, 0.000000000000000000 ) ) ;
#114 = ORIENTED_EDGE ( 'NONE', *, *, #208, .F. ) ;
#115 = MANIFOLD_SOLID_BREP ( '228-2500-265', #54 ) ;
#116 = APPROVAL_STATUS ( 'not_yet_approved' ) ;
#117 = CARTESIAN_POINT ( 'NONE',  ( -1.268411506570323866, -1.587500000000000355, -100.5599191420979963 ) ) ;
#118 = AXIS2_PLACEMENT_3D ( 'NONE', #225, #489, #51 ) ;
#119 = ORIENTED_EDGE ( 'NONE', *, *, #26, .F. ) ;
#120 = COORDINATED_UNIVERSAL_TIME_OFFSET ( 6, 0, .BEHIND. ) ;
#121 = DIRECTION ( 'NONE',  ( 0.000000000000000000, 0.000000000000000000, -1.000000000000000000 ) ) ;
#122 = ORIENTED_EDGE ( 'NONE', *, *, #68, .T. ) ;
#123 = APPROVAL_ROLE ( '' ) ;
#124 = PLANE ( 'NONE',  #239 ) ;
#125 = LOCAL_TIME ( 15, 2, 43.00000000000000000, #120 ) ;
#126 = EDGE_CURVE ( 'NONE', #503, #222, #411, .T. ) ;
#127 = ORIENTED_EDGE ( 'NONE', *, *, #438, .F. ) ;
#128 = CARTESIAN_POINT ( 'NONE',  ( 1.587500000000000355, 0.8513200635093568502, -100.6413775553182006 ) ) ;
#129 = ORIENTED_EDGE ( 'NONE', *, *, #334, .F. ) ;
#130 = CARTESIAN_POINT ( 'NONE',  ( -1.587500000000000355, 1.061392899157111325, 100.6114367738516790 ) ) ;
#131 = ORIENTED_EDGE ( 'NONE', *, *, #148, .F. ) ;
#132 = CC_DESIGN_PERSON_AND_ORGANIZATION_ASSIGNMENT ( #167, #561, ( #59 ) ) ;
#133 = FACE_OUTER_BOUND ( 'NONE', #414, .T. ) ;
#134 = CARTESIAN_POINT ( 'NONE',  ( -1.587500000000000355, -1.268411506570323866, -100.5599191421050591 ) ) ;
#135 = CARTESIAN_POINT ( 'NONE',  ( 1.587500000000000355, 0.2114796877013866427, 100.6832273616928859 ) ) ;
#136 = AXIS2_PLACEMENT_3D ( 'NONE', #56, #137, #350 ) ;
#137 = DIRECTION ( 'NONE',  ( -0.000000000000000000, -0.000000000000000000, 1.000000000000000000 ) ) ;
#138 = DIRECTION ( 'NONE',  ( 1.000000000000000000, 0.000000000000000000, 0.000000000000000000 ) ) ;
#139 = PRODUCT_DEFINITION ( 'UNKNOWN', '', #59, #21 ) ;
#140 = CARTESIAN_POINT ( 'NONE',  ( -1.587500000000000355, 0.2114796877013866427, -100.6832273616928859 ) ) ;
#141 = CARTESIAN_POINT ( 'NONE',  ( -1.587500000000000577, -0.4277385810626531115, -100.6769865435831264 ) ) ;
#142 = APPLICATION_CONTEXT ( 'configuration controlled 3d designs of mechanical parts and assemblies' ) ;
#143 = AXIS2_PLACEMENT_3D ( 'NONE', #25, #73, #413 ) ;
#144 = EDGE_CURVE ( 'NONE', #179, #391, #286, .T. ) ;
#145 = CARTESIAN_POINT ( 'NONE',  ( -1.587500000000000355, -0.2114796877013866427, 100.6832273616928859 ) ) ;
#146 = FACE_OUTER_BOUND ( 'NONE', #476, .T. ) ;
#147 = CARTESIAN_POINT ( 'NONE',  ( -0.8571092511719576867, -1.587500000000000799, 100.6622737970628094 ) ) ;
#148 = EDGE_CURVE ( 'NONE', #247, #257, #242, .T. ) ;
#149 = CARTESIAN_POINT ( 'NONE',  ( 0.000000000000000000, 0.000000000000000000, 100.5599191420979963 ) ) ;
#150 = LOCAL_TIME ( 15, 2, 43.00000000000000000, #252 ) ;
#151 = CARTESIAN_POINT ( 'NONE',  ( -1.587500000000000355, 1.587500000000000355, 100.7110000000000127 ) ) ;
#152 = CARTESIAN_POINT ( 'NONE',  ( 1.060147506033695786, 1.587500000000000133, -100.6117466962551532 ) ) ;
#153 = ORIENTED_EDGE ( 'NONE', *, *, #334, .T. ) ;
#154 = DIRECTION ( 'NONE',  ( 1.000000000000000000, 0.000000000000000000, 0.000000000000000000 ) ) ;
#155 = CARTESIAN_POINT ( 'NONE',  ( 0.8571092511719576867, 1.587500000000000799, 100.6622737970628094 ) ) ;
#156 = CIRCLE ( 'NONE', #492, 2.032000000000000028 ) ;
#157 = ORIENTED_EDGE ( 'NONE', *, *, #547, .T. ) ;
#158 = CARTESIAN_POINT ( 'NONE',  ( 0.000000000000000000, 0.000000000000000000, 100.5599191420979963 ) ) ;
#159 = EDGE_LOOP ( 'NONE', ( #215, #428 ) ) ;
#160 = CARTESIAN_POINT ( 'NONE',  ( -1.587500000000000355, 1.268411506570322533, 100.5599191420979963 ) ) ;
#161 = ORIENTED_EDGE ( 'NONE', *, *, #62, .F. ) ;
#162 = ADVANCED_FACE ( 'NONE', ( #538 ), #279, .T. ) ;
#163 = LINE ( 'NONE', #344, #183 ) ;
#164 = AXIS2_PLACEMENT_3D ( 'NONE', #320, #194, #498 ) ;
#165 = VECTOR ( 'NONE', #16, 1000.000000000000000 ) ;
#166 = ORIENTED_EDGE ( 'NONE', *, *, #292, .T. ) ;
#167 = PERSON_AND_ORGANIZATION ( #394, #423 ) ;
#168 = DIRECTION ( 'NONE',  ( -1.000000000000000000, 0.000000000000000000, -0.000000000000000000 ) ) ;
#169 = EDGE_CURVE ( 'NONE', #174, #222, #283, .T. ) ;
#170 = CARTESIAN_POINT ( 'NONE',  ( -1.587500000000000133, -0.2143109880594543937, -100.6832273616928717 ) ) ;
#171 = APPROVAL_DATE_TIME ( #382, #303 ) ;
#172 = CARTESIAN_POINT ( 'NONE',  ( 0.000000000000000000, 0.000000000000000000, -98.58600000000001273 ) ) ;
#173 = CC_DESIGN_APPROVAL ( #227, ( #459 ) ) ;
#174 = VERTEX_POINT ( 'NONE', #546 ) ;
#175 = DIRECTION ( 'NONE',  ( -0.000000000000000000, -0.000000000000000000, 1.000000000000000000 ) ) ;
#176 = EDGE_LOOP ( 'NONE', ( #74, #129 ) ) ;
#177 = CC_DESIGN_PERSON_AND_ORGANIZATION_ASSIGNMENT ( #474, #209, ( #59 ) ) ;
#178 = DIRECTION ( 'NONE',  ( -0.000000000000000000, -0.000000000000000000, 1.000000000000000000 ) ) ;
#179 = VERTEX_POINT ( 'NONE', #246 ) ;
#180 = DIRECTION ( 'NONE',  ( -0.000000000000000000, -0.000000000000000000, 1.000000000000000000 ) ) ;
#181 = CARTESIAN_POINT ( 'NONE',  ( 0.000000000000000000, 0.000000000000000000, 98.58600000000001273 ) ) ;
#182 = ADVANCED_FACE ( 'NONE', ( #329 ), #502, .F. ) ;
#183 = VECTOR ( 'NONE', #289, 1000.000000000000000 ) ;
#184 = CIRCLE ( 'NONE', #44, 1.245064030267288402 ) ;
#185 = CARTESIAN_POINT ( 'NONE',  ( -1.587500000000000355, -1.944126793646423534E-16, 100.6832273616928717 ) ) ;
#186 = EDGE_CURVE ( 'NONE', #299, #247, #548, .T. ) ;
#187 = CARTESIAN_POINT ( 'NONE',  ( 1.587500000000000355, 0.000000000000000000, -100.6832273616928717 ) ) ;
#188 = ORIENTED_EDGE ( 'NONE', *, *, #345, .F. ) ;
#189 = DIRECTION ( 'NONE',  ( 0.000000000000000000, 0.000000000000000000, -1.000000000000000000 ) ) ;
#190 = CARTESIAN_POINT ( 'NONE',  ( -0.8571092511711349005, 1.587500000000000355, -100.6622737970628378 ) ) ;
#191 = EDGE_CURVE ( 'NONE', #470, #433, #355, .T. ) ;
#192 = CARTESIAN_POINT ( 'NONE',  ( 0.000000000000000000, 0.000000000000000000, 0.000000000000000000 ) ) ;
#193 = CIRCLE ( 'NONE', #512, 2.125000000000001776 ) ;
#194 = DIRECTION ( 'NONE',  ( 0.000000000000000000, 0.000000000000000000, -1.000000000000000000 ) ) ;
#195 = FACE_OUTER_BOUND ( 'NONE', #381, .T. ) ;
#196 = CARTESIAN_POINT ( 'NONE',  ( -0.4342314039549393656, 1.587500000000000355, -100.6828517174431852 ) ) ;
#197 = ORIENTED_EDGE ( 'NONE', *, *, #345, .T. ) ;
#198 = DIRECTION ( 'NONE',  ( 0.000000000000000000, 0.000000000000000000, -1.000000000000000000 ) ) ;
#199 = CARTESIAN_POINT ( 'NONE',  ( -0.4219230645619455045, 1.587500000000000133, 100.6773073035536328 ) ) ;
#200 = ADVANCED_FACE ( 'NONE', ( #475 ), #426, .T. ) ;
#201 = ORIENTED_EDGE ( 'NONE', *, *, #405, .F. ) ;
#202 = CARTESIAN_POINT ( 'NONE',  ( 0.4219230645619455045, -1.587500000000000133, 100.6773073035536328 ) ) ;
#203 = DIRECTION ( 'NONE',  ( 0.000000000000000000, 0.000000000000000000, 1.000000000000000000 ) ) ;
#204 = ORIENTED_EDGE ( 'NONE', *, *, #191, .T. ) ;
#205 = APPROVAL_ROLE ( '' ) ;
#206 = CARTESIAN_POINT ( 'NONE',  ( -1.587500000000000355, 0.8513200635100124369, 100.6413775553181438 ) ) ;
#207 = ORIENTED_EDGE ( 'NONE', *, *, #68, .F. ) ;
#208 = EDGE_CURVE ( 'NONE', #174, #549, #163, .T. ) ;
#209 = PERSON_AND_ORGANIZATION_ROLE ( 'creator' ) ;
#210 = CARTESIAN_POINT ( 'NONE',  ( 1.587500000000000355, 1.061392899156297309, -100.6114367738518354 ) ) ;
#211 = ORIENTED_EDGE ( 'NONE', *, *, #488, .T. ) ;
#212 = CALENDAR_DATE ( 2022, 6, 6 ) ;
#213 = CARTESIAN_POINT ( 'NONE',  ( 1.587500000000000355, 0.000000000000000000, -100.6832273616928717 ) ) ;
#214 = AXIS2_PLACEMENT_3D ( 'NONE', #399, #304, #271 ) ;
#215 = ORIENTED_EDGE ( 'NONE', *, *, #26, .T. ) ;
#216 = DIRECTION ( 'NONE',  ( 0.000000000000000000, 0.000000000000000000, -1.000000000000000000 ) ) ;
#217 = ORIENTED_EDGE ( 'NONE', *, *, #292, .F. ) ;
#218 = PRODUCT ( '228-2500-265', '228-2500-265', '', ( #110 ) ) ;
#219 = CARTESIAN_POINT ( 'NONE',  ( 1.245064030267288402, 0.000000000000000000, 100.7110000000000127 ) ) ;
#220 = ORIENTED_EDGE ( 'NONE', *, *, #504, .T. ) ;
#221 = CARTESIAN_POINT ( 'NONE',  ( 0.000000000000000000, 0.000000000000000000, -100.7110000000000127 ) ) ;
#222 = VERTEX_POINT ( 'NONE', #516 ) ;
#223 = AXIS2_PLACEMENT_3D ( 'NONE', #30, #412, #75 ) ;
#224 = PLANE ( 'NONE',  #356 ) ;
#225 = CARTESIAN_POINT ( 'NONE',  ( 0.000000000000000000, 0.000000000000000000, -100.5599191420979963 ) ) ;
#226 = B_SPLINE_CURVE_WITH_KNOTS ( 'NONE', 3,
 ( #93, #170, #141, #525, #480, #134 ),
 .UNSPECIFIED., .F., .F.,
 ( 4, 2, 4 ),
 ( 1.905938025164286877E-19, 0.0006365870327252485996, 0.001273174065450496982 ),
 .UNSPECIFIED. ) ;
#227 = APPROVAL ( #116, 'UNSPECIFIED' ) ;
#228 = CARTESIAN_POINT ( 'NONE',  ( 0.000000000000000000, 0.000000000000000000, -100.5599191420979963 ) ) ;
#229 = TOROIDAL_SURFACE ( 'NONE', #164, 1.245064030267288402, 2.125000000000001776 ) ;
#230 = FACE_OUTER_BOUND ( 'NONE', #375, .T. ) ;
#231 = FACE_OUTER_BOUND ( 'NONE', #290, .T. ) ;
#232 = CARTESIAN_POINT ( 'NONE',  ( 1.060147506033614517, -1.587500000000000355, 100.6117466962552101 ) ) ;
#233 = DIRECTION ( 'NONE',  ( 1.224646799147353207E-16, -1.000000000000000000, 0.000000000000000000 ) ) ;
#234 = APPROVAL ( #507, 'UNSPECIFIED' ) ;
#235 = DIRECTION ( 'NONE',  ( 0.000000000000000000, -1.000000000000000000, 0.000000000000000000 ) ) ;
#236 = CARTESIAN_POINT ( 'NONE',  ( 1.587500000000000355, -1.268411506570322533, 100.5599191420979963 ) ) ;
#237 = B_SPLINE_CURVE_WITH_KNOTS ( 'NONE', 3,
 ( #280, #66, #455, #447, #145, #323 ),
 .UNSPECIFIED., .F., .F.,
 ( 4, 2, 4 ),
 ( 0.01485345774306979540, 0.01548163471194336643, 0.01610981168081693574 ),
 .UNSPECIFIED. ) ;
#238 = FACE_OUTER_BOUND ( 'NONE', #159, .T. ) ;
#239 = AXIS2_PLACEMENT_3D ( 'NONE', #86, #38, #335 ) ;
#240 = CARTESIAN_POINT ( 'NONE',  ( 0.8486262390325453042, 1.587500000000000577, -100.6417688228239342 ) ) ;
#241 =( NAMED_UNIT ( * ) PLANE_ANGLE_UNIT ( ) SI_UNIT ( $, .RADIAN. ) );
#242 = LINE ( 'NONE', #496, #70 ) ;
#243 = ORIENTED_EDGE ( 'NONE', *, *, #144, .F. ) ;
#244 = DIRECTION ( 'NONE',  ( 1.000000000000000000, 0.000000000000000000, 0.000000000000000000 ) ) ;
#245 = EDGE_CURVE ( 'NONE', #284, #534, #291, .T. ) ;
#246 = CARTESIAN_POINT ( 'NONE',  ( 1.587500000000000355, 1.268411506570323866, 100.5599191420979963 ) ) ;
#247 = VERTEX_POINT ( 'NONE', #377 ) ;
#248 = COORDINATED_UNIVERSAL_TIME_OFFSET ( 6, 0, .BEHIND. ) ;
#249 = CARTESIAN_POINT ( 'NONE',  ( -1.587500000000000355, -1.944126793646423534E-16, 100.6832273616928717 ) ) ;
#250 = EDGE_CURVE ( 'NONE', #222, #179, #327, .T. ) ;
#251 = VERTEX_POINT ( 'NONE', #160 ) ;
#252 = COORDINATED_UNIVERSAL_TIME_OFFSET ( 6, 0, .BEHIND. ) ;
#253 = CARTESIAN_POINT ( 'NONE',  ( 1.587500000000000355, 0.2143109880594543937, -100.6832273616928575 ) ) ;
#254 = ORIENTED_EDGE ( 'NONE', *, *, #245, .T. ) ;
#255 = LOCAL_TIME ( 15, 2, 43.00000000000000000, #248 ) ;
#256 = CARTESIAN_POINT ( 'NONE',  ( 0.8571092511711349005, -1.587500000000000355, -100.6622737970628378 ) ) ;
#257 = VERTEX_POINT ( 'NONE', #387 ) ;
#258 = VECTOR ( 'NONE', #298, 1000.000000000000000 ) ;
#259 = TOROIDAL_SURFACE ( 'NONE', #17, 1.245064030267288402, 2.125000000000001776 ) ;
#260 = EDGE_LOOP ( 'NONE', ( #6, #153, #157, #43, #523, #481, #370, #88 ) ) ;
#261 = CARTESIAN_POINT ( 'NONE',  ( 1.268411506570323866, -1.587500000000000355, -100.5599191421050591 ) ) ;
#262 = CARTESIAN_POINT ( 'NONE',  ( 0.000000000000000000, 0.000000000000000000, 100.7110000000000127 ) ) ;
#263 = CARTESIAN_POINT ( 'NONE',  ( 1.587500000000000577, -0.8514389605504931735, -100.6413675157792227 ) ) ;
#264 = ORIENTED_EDGE ( 'NONE', *, *, #98, .T. ) ;
#265 = CARTESIAN_POINT ( 'NONE',  ( -1.587500000000000355, 1.268411506570322533, 100.5599191420979963 ) ) ;
#266 = AXIS2_PLACEMENT_3D ( 'NONE', #151, #198, #533 ) ;
#267 = DIRECTION ( 'NONE',  ( -1.000000000000000000, 0.000000000000000000, 0.000000000000000000 ) ) ;
#268 = CARTESIAN_POINT ( 'NONE',  ( 1.587500000000000355, 0.000000000000000000, 100.6832273616928717 ) ) ;
#269 = APPROVAL_PERSON_ORGANIZATION ( #550, #303, #3 ) ;
#270 = B_SPLINE_CURVE_WITH_KNOTS ( 'NONE', 3,
 ( #18, #60, #437, #357, #135, #268 ),
 .UNSPECIFIED., .F., .F.,
 ( 4, 2, 4 ),
 ( 0.01485345774306979540, 0.01548163471194336643, 0.01610981168081693574 ),
 .UNSPECIFIED. ) ;
#271 = DIRECTION ( 'NONE',  ( -1.000000000000000000, 1.224646799147353207E-16, 0.000000000000000000 ) ) ;
#272 = ORIENTED_EDGE ( 'NONE', *, *, #488, .F. ) ;
#273 = EDGE_CURVE ( 'NONE', #336, #299, #295, .T. ) ;
#274 = ORIENTED_EDGE ( 'NONE', *, *, #368, .F. ) ;
#275 = DIRECTION ( 'NONE',  ( -0.000000000000000000, 1.000000000000000000, 0.000000000000000000 ) ) ;
#276 = CYLINDRICAL_SURFACE ( 'NONE', #55, 2.032000000000000028 ) ;
#277 = CARTESIAN_POINT ( 'NONE',  ( -1.268411506570323866, 1.587500000000000355, 100.5599191420979963 ) ) ;
#278 = ADVANCED_FACE ( 'NONE', ( #4 ), #124, .F. ) ;
#279 = TOROIDAL_SURFACE ( 'NONE', #143, 1.245064030267288402, 2.125000000000001776 ) ;
#280 = CARTESIAN_POINT ( 'NONE',  ( -1.587500000000000355, -1.268411506570323866, 100.5599191420979963 ) ) ;
#281 = VECTOR ( 'NONE', #487, 1000.000000000000000 ) ;
#282 = CARTESIAN_POINT ( 'NONE',  ( 0.2043756380777075055, 1.587500000000000133, -100.6834096189637933 ) ) ;
#283 = B_SPLINE_CURVE_WITH_KNOTS ( 'NONE', 3,
 ( #277, #543, #28, #199, #76, #371, #155, #64 ),
 .UNSPECIFIED., .F., .F.,
 ( 4, 2, 2, 4 ),
 ( 0.01485345774306979540, 0.01548583974386945165, 0.01611822174466910965, 0.01738298574626842216 ),
 .UNSPECIFIED. ) ;
#284 = VERTEX_POINT ( 'NONE', #117 ) ;
#285 = ADVANCED_FACE ( 'NONE', ( #81 ), #454, .T. ) ;
#286 = LINE ( 'NONE', #551, #309 ) ;
#287 = ORIENTED_EDGE ( 'NONE', *, *, #126, .F. ) ;
#288 = APPROVAL_DATE_TIME ( #339, #234 ) ;
#289 = DIRECTION ( 'NONE',  ( 0.000000000000000000, 0.000000000000000000, -1.000000000000000000 ) ) ;
#290 = EDGE_LOOP ( 'NONE', ( #501, #520, #131, #82 ) ) ;
#291 = LINE ( 'NONE', #340, #258 ) ;
#292 = EDGE_CURVE ( 'NONE', #326, #391, #531, .T. ) ;
#293 = VERTEX_POINT ( 'NONE', #301 ) ;
#294 = CALENDAR_DATE ( 2022, 6, 6 ) ;
#295 = LINE ( 'NONE', #46, #410 ) ;
#296 = ORIENTED_EDGE ( 'NONE', *, *, #273, .F. ) ;
#297 = APPROVAL_STATUS ( 'not_yet_approved' ) ;
#298 = DIRECTION ( 'NONE',  ( -0.000000000000000000, -0.000000000000000000, 1.000000000000000000 ) ) ;
#299 = VERTEX_POINT ( 'NONE', #472 ) ;
#300 = PERSON_AND_ORGANIZATION_ROLE ( 'classification_officer' ) ;
#301 = CARTESIAN_POINT ( 'NONE',  ( -1.587500000000000355, 1.944126793646423534E-16, -100.6832273616928717 ) ) ;
#302 = ORIENTED_EDGE ( 'NONE', *, *, #504, .F. ) ;
#303 = APPROVAL ( #297, 'UNSPECIFIED' ) ;
#304 = DIRECTION ( 'NONE',  ( 1.224646799147353207E-16, 1.000000000000000000, 0.000000000000000000 ) ) ;
#305 = VERTEX_POINT ( 'NONE', #478 ) ;
#306 = CYLINDRICAL_SURFACE ( 'NONE', #108, 2.032000000000000028 ) ;
#307 = EDGE_LOOP ( 'NONE', ( #296, #330, #166, #243, #47, #264 ) ) ;
#308 = CARTESIAN_POINT ( 'NONE',  ( -1.587500000000000355, 1.268411506570323866, -100.5599191420979963 ) ) ;
#309 = VECTOR ( 'NONE', #456, 1000.000000000000000 ) ;
#310 = CIRCLE ( 'NONE', #363, 1.245064030267288402 ) ;
#311 = CARTESIAN_POINT ( 'NONE',  ( -1.587500000000000355, 1.268411506570323866, -100.5599191420979963 ) ) ;
#312 = CARTESIAN_POINT ( 'NONE',  ( 1.587500000000000355, -1.268411506570323866, -100.5599191420979963 ) ) ;
#313 = CC_DESIGN_APPROVAL ( #303, ( #59 ) ) ;
#314 = CARTESIAN_POINT ( 'NONE',  ( -0.4342314039556040006, -1.587500000000000355, 100.6828517174431710 ) ) ;
#315 = ORIENTED_EDGE ( 'NONE', *, *, #186, .F. ) ;
#316 = AXIS2_PLACEMENT_3D ( 'NONE', #149, #104, #111 ) ;
#317 = CARTESIAN_POINT ( 'NONE',  ( -1.268411506570323866, 1.587500000000000355, -100.5599191421050591 ) ) ;
#318 = CARTESIAN_POINT ( 'NONE',  ( 1.587500000000000133, -0.2143109880596208994, 100.6832273616928575 ) ) ;
#319 = APPLICATION_PROTOCOL_DEFINITION ( 'international standard', 'config_control_design', 1994, #526 ) ;
#320 = CARTESIAN_POINT ( 'NONE',  ( 0.000000000000000000, 0.000000000000000000, 98.58600000000001273 ) ) ;
#321 = EDGE_CURVE ( 'NONE', #284, #257, #322, .T. ) ;
#322 = B_SPLINE_CURVE_WITH_KNOTS ( 'NONE', 3,
 ( #7, #337, #90, #463, #84, #513, #256, #261 ),
 .UNSPECIFIED., .F., .F.,
 ( 4, 2, 2, 4 ),
 ( 0.01485345774306979540, 0.01548583974386920532, 0.01611822174466861352, 0.01738298574626743337 ),
 .UNSPECIFIED. ) ;
#323 = CARTESIAN_POINT ( 'NONE',  ( -1.587500000000000355, -1.944126793646423534E-16, 100.6832273616928717 ) ) ;
#324 = DIRECTION ( 'NONE',  ( -0.000000000000000000, -0.000000000000000000, 1.000000000000000000 ) ) ;
#325 = EDGE_CURVE ( 'NONE', #510, #473, #184, .T. ) ;
#326 = VERTEX_POINT ( 'NONE', #48 ) ;
#327 = CIRCLE ( 'NONE', #560, 2.032000000000000028 ) ;
#328 = CIRCLE ( 'NONE', #95, 2.032000000000000028 ) ;
#329 = FACE_OUTER_BOUND ( 'NONE', #307, .T. ) ;
#330 = ORIENTED_EDGE ( 'NONE', *, *, #469, .T. ) ;
#331 = SHAPE_DEFINITION_REPRESENTATION ( #436, #65 ) ;
#332 = DIRECTION ( 'NONE',  ( 0.000000000000000000, 0.000000000000000000, -1.000000000000000000 ) ) ;
#333 = VERTEX_POINT ( 'NONE', #219 ) ;
#334 = EDGE_CURVE ( 'NONE', #473, #510, #310, .T. ) ;
#335 = DIRECTION ( 'NONE',  ( 0.000000000000000000, 0.000000000000000000, -1.000000000000000000 ) ) ;
#336 = VERTEX_POINT ( 'NONE', #522 ) ;
#337 = CARTESIAN_POINT ( 'NONE',  ( -1.060147506033695786, -1.587500000000000133, -100.6117466962551532 ) ) ;
#338 = VERTEX_POINT ( 'NONE', #78 ) ;
#339 = DATE_AND_TIME ( #83, #255 ) ;
#340 = CARTESIAN_POINT ( 'NONE',  ( -1.268411506570323866, -1.587500000000000355, -100.7110000000000127 ) ) ;
#341 = LOCAL_TIME ( 15, 2, 43.00000000000000000, #462 ) ;
#342 = CARTESIAN_POINT ( 'NONE',  ( -1.587500000000000355, -1.587500000000000355, 100.7110000000000127 ) ) ;
#343 = CC_DESIGN_SECURITY_CLASSIFICATION ( #459, ( #59 ) ) ;
#344 = CARTESIAN_POINT ( 'NONE',  ( -1.268411506570323866, 1.587500000000000355, -100.7110000000000127 ) ) ;
#345 = EDGE_CURVE ( 'NONE', #433, #251, #427, .T. ) ;
#346 = ORIENTED_EDGE ( 'NONE', *, *, #325, .T. ) ;
#347 = DIRECTION ( 'NONE',  ( 1.000000000000000000, 0.000000000000000000, 0.000000000000000000 ) ) ;
#348 = ORIENTED_EDGE ( 'NONE', *, *, #208, .T. ) ;
#349 = EDGE_CURVE ( 'NONE', #473, #293, #486, .T. ) ;
#350 = DIRECTION ( 'NONE',  ( 1.000000000000000000, 0.000000000000000000, 0.000000000000000000 ) ) ;
#351 = ORIENTED_EDGE ( 'NONE', *, *, #12, .F. ) ;
#352 = CC_DESIGN_APPROVAL ( #234, ( #139 ) ) ;
#353 = CARTESIAN_POINT ( 'NONE',  ( -1.245064030267288402, -2.006622987633879023E-16, 100.7110000000000127 ) ) ;
#354 = DIRECTION ( 'NONE',  ( 0.000000000000000000, -1.000000000000000000, 0.000000000000000000 ) ) ;
#355 = CIRCLE ( 'NONE', #107, 2.125000000000001776 ) ;
#356 = AXIS2_PLACEMENT_3D ( 'NONE', #99, #354, #442 ) ;
#357 = CARTESIAN_POINT ( 'NONE',  ( 1.587500000000000355, 0.4276219574846448768, 100.6769963920000777 ) ) ;
#358 = CARTESIAN_POINT ( 'NONE',  ( -1.245064030267288402, 2.006622987633879023E-16, -100.7110000000000127 ) ) ;
#359 = ORIENTED_EDGE ( 'NONE', *, *, #547, .F. ) ;
#360 = CARTESIAN_POINT ( 'NONE',  ( 0.2043756380772881742, -1.587500000000000799, 100.6834096189638075 ) ) ;
#361 = DIRECTION ( 'NONE',  ( 0.000000000000000000, 0.000000000000000000, -1.000000000000000000 ) ) ;
#362 = AXIS2_PLACEMENT_3D ( 'NONE', #342, #19, #435 ) ;
#363 = AXIS2_PLACEMENT_3D ( 'NONE', #390, #175, #347 ) ;
#364 = EDGE_CURVE ( 'NONE', #305, #11, #445, .T. ) ;
#365 = PERSON_AND_ORGANIZATION_ROLE ( 'design_owner' ) ;
#366 = CYLINDRICAL_SURFACE ( 'NONE', #393, 2.032000000000000028 ) ;
#367 = CARTESIAN_POINT ( 'NONE',  ( 0.000000000000000000, 0.000000000000000000, -100.7110000000000127 ) ) ;
#368 = EDGE_CURVE ( 'NONE', #391, #503, #530, .T. ) ;
#369 = CARTESIAN_POINT ( 'NONE',  ( 1.587500000000000355, -0.8513200635100123259, 100.6413775553181438 ) ) ;
#370 = ORIENTED_EDGE ( 'NONE', *, *, #450, .F. ) ;
#371 = CARTESIAN_POINT ( 'NONE',  ( 0.4342314039556040006, 1.587500000000000355, 100.6828517174431710 ) ) ;
#372 = VERTEX_POINT ( 'NONE', #311 ) ;
#373 = CARTESIAN_POINT ( 'NONE',  ( 1.268411506570323866, 1.587500000000000355, -100.7110000000000127 ) ) ;
#374 = EDGE_CURVE ( 'NONE', #251, #174, #539, .T. ) ;
#375 = EDGE_LOOP ( 'NONE', ( #439, #119, #112, #127, #559, #40, #389, #188 ) ) ;
#376 = DATE_AND_TIME ( #294, #27 ) ;
#377 = CARTESIAN_POINT ( 'NONE',  ( 1.268411506570323866, -1.587500000000000355, 100.5599191420979963 ) ) ;
#378 = ORIENTED_EDGE ( 'NONE', *, *, #79, .F. ) ;
#379 = PERSON_AND_ORGANIZATION ( #394, #423 ) ;
#380 = CARTESIAN_POINT ( 'NONE',  ( 1.587500000000000355, 1.268411506570323866, -100.5599191421050591 ) ) ;
#381 = EDGE_LOOP ( 'NONE', ( #102, #85, #506, #395 ) ) ;
#382 = DATE_AND_TIME ( #467, #150 ) ;
#383 = DIRECTION ( 'NONE',  ( -0.000000000000000000, -0.000000000000000000, 1.000000000000000000 ) ) ;
#384 = CIRCLE ( 'NONE', #118, 2.032000000000000028 ) ;
#385 = CARTESIAN_POINT ( 'NONE',  ( -1.587500000000000355, -1.268411506570323866, -100.5599191421050591 ) ) ;
#386 = COORDINATED_UNIVERSAL_TIME_OFFSET ( 6, 0, .BEHIND. ) ;
#387 = CARTESIAN_POINT ( 'NONE',  ( 1.268411506570323866, -1.587500000000000355, -100.5599191421050591 ) ) ;
#388 = ADVANCED_FACE ( 'NONE', ( #94 ), #13, .T. ) ;
#389 = ORIENTED_EDGE ( 'NONE', *, *, #374, .F. ) ;
#390 = CARTESIAN_POINT ( 'NONE',  ( 0.000000000000000000, 0.000000000000000000, -100.7110000000000127 ) ) ;
#391 = VERTEX_POINT ( 'NONE', #524 ) ;
#392 = LINE ( 'NONE', #61, #281 ) ;
#393 = AXIS2_PLACEMENT_3D ( 'NONE', #505, #324, #22 ) ;
#394 = PERSON ( 'UNSPECIFIED', 'UNSPECIFIED', 'UNSPECIFIED', ('UNSPECIFIED'), ('UNSPECIFIED'), ('UNSPECIFIED') ) ;
#395 = ORIENTED_EDGE ( 'NONE', *, *, #148, .T. ) ;
#396 = CARTESIAN_POINT ( 'NONE',  ( 1.587500000000000355, -0.4276219574846448768, -100.6769963920000777 ) ) ;
#397 =( GEOMETRIC_REPRESENTATION_CONTEXT ( 3 ) GLOBAL_UNCERTAINTY_ASSIGNED_CONTEXT ( ( #443 ) ) GLOBAL_UNIT_ASSIGNED_CONTEXT ( ( #103, #241, #490 ) ) REPRESENTATION_CONTEXT ( 'NONE', 'WORKASPACE' ) );
#398 = DIRECTION ( 'NONE',  ( -0.000000000000000000, -0.000000000000000000, 1.000000000000000000 ) ) ;
#399 = CARTESIAN_POINT ( 'NONE',  ( -1.245064030267288402, 1.524763679400337895E-16, -98.58600000000001273 ) ) ;
#400 = EDGE_CURVE ( 'NONE', #257, #336, #384, .T. ) ;
#401 = DIRECTION ( 'NONE',  ( 1.000000000000000000, 0.000000000000000000, 0.000000000000000000 ) ) ;
#402 = PLANE ( 'NONE',  #362 ) ;
#403 = CARTESIAN_POINT ( 'NONE',  ( -1.268411506570322533, -1.587500000000000355, 100.5599191420979963 ) ) ;
#404 = CARTESIAN_POINT ( 'NONE',  ( 1.268411506570323866, 1.587500000000000355, -100.5599191420979963 ) ) ;
#405 = EDGE_CURVE ( 'NONE', #372, #251, #392, .T. ) ;
#406 = PERSON_AND_ORGANIZATION ( #394, #423 ) ;
#407 = DIRECTION ( 'NONE',  ( -0.000000000000000000, -0.000000000000000000, 1.000000000000000000 ) ) ;
#408 = CIRCLE ( 'NONE', #223, 1.245064030267288402 ) ;
#409 = CIRCLE ( 'NONE', #477, 1.245064030267288402 ) ;
#410 = VECTOR ( 'NONE', #509, 1000.000000000000000 ) ;
#411 = LINE ( 'NONE', #373, #466 ) ;
#412 = DIRECTION ( 'NONE',  ( -0.000000000000000000, -0.000000000000000000, 1.000000000000000000 ) ) ;
#413 = DIRECTION ( 'NONE',  ( 1.000000000000000000, 0.000000000000000000, 0.000000000000000000 ) ) ;
#414 = EDGE_LOOP ( 'NONE', ( #287, #109, #114, #9 ) ) ;
#415 = APPLICATION_PROTOCOL_DEFINITION ( 'international standard', 'config_control_design', 1994, #142 ) ;
#416 = CARTESIAN_POINT ( 'NONE',  ( 1.587500000000000355, -1.587500000000000355, 100.7110000000000127 ) ) ;
#417 = ADVANCED_FACE ( 'NONE', ( #133 ), #224, .F. ) ;
#418 = ORIENTED_EDGE ( 'NONE', *, *, #368, .T. ) ;
#419 = DATE_TIME_ROLE ( 'classification_date' ) ;
#420 = CARTESIAN_POINT ( 'NONE',  ( -1.587500000000000133, 0.2143109880596207883, 100.6832273616928575 ) ) ;
#421 = ORIENTED_EDGE ( 'NONE', *, *, #450, .T. ) ;
#422 = CARTESIAN_POINT ( 'NONE',  ( -1.587500000000000355, 1.587500000000000355, -100.7110000000000127 ) ) ;
#423 = ORGANIZATION ( 'UNSPECIFIED', 'UNSPECIFIED', '' ) ;
#424 = EDGE_LOOP ( 'NONE', ( #29, #556, #100, #348 ) ) ;
#425 = ADVANCED_FACE ( 'NONE', ( #15 ), #306, .T. ) ;
#426 = PLANE ( 'NONE',  #430 ) ;
#427 = B_SPLINE_CURVE_WITH_KNOTS ( 'NONE', 3,
 ( #249, #420, #34, #206, #130, #265 ),
 .UNSPECIFIED., .F., .F.,
 ( 4, 2, 4 ),
 ( 1.905938025164286877E-19, 0.0006365870327257431042, 0.001273174065451485992 ),
 .UNSPECIFIED. ) ;
#428 = ORIENTED_EDGE ( 'NONE', *, *, #508, .T. ) ;
#429 = CALENDAR_DATE ( 2022, 6, 6 ) ;
#430 = AXIS2_PLACEMENT_3D ( 'NONE', #422, #216, #168 ) ;
#431 = CARTESIAN_POINT ( 'NONE',  ( 1.587500000000000577, 0.4277385810626528340, -100.6769865435831406 ) ) ;
#432 = AXIS2_PLACEMENT_3D ( 'NONE', #483, #97, #267 ) ;
#433 = VERTEX_POINT ( 'NONE', #185 ) ;
#434 = DIRECTION ( 'NONE',  ( 1.000000000000000000, 0.000000000000000000, 0.000000000000000000 ) ) ;
#435 = DIRECTION ( 'NONE',  ( 0.000000000000000000, -0.000000000000000000, 1.000000000000000000 ) ) ;
#436 = PRODUCT_DEFINITION_SHAPE ( 'NONE', 'NONE',  #139 ) ;
#437 = CARTESIAN_POINT ( 'NONE',  ( 1.587500000000000577, 0.8514389605504931735, 100.6413675157792227 ) ) ;
#438 = EDGE_CURVE ( 'NONE', #179, #338, #270, .T. ) ;
#439 = ORIENTED_EDGE ( 'NONE', *, *, #191, .F. ) ;
#440 = CARTESIAN_POINT ( 'NONE',  ( 0.000000000000000000, 0.000000000000000000, -100.5599191420979963 ) ) ;
#441 = CARTESIAN_POINT ( 'NONE',  ( -1.587500000000000355, 0.4276219574846448768, -100.6769963920000777 ) ) ;
#442 = DIRECTION ( 'NONE',  ( 0.000000000000000000, -0.000000000000000000, -1.000000000000000000 ) ) ;
#443 = UNCERTAINTY_MEASURE_WITH_UNIT (LENGTH_MEASURE( 1.000000000000000082E-05 ), #103, 'distance_accuracy_value', 'NONE');
#444 = ADVANCED_FACE ( 'NONE', ( #230 ), #259, .T. ) ;
#445 = LINE ( 'NONE', #10, #165 ) ;
#446 = DIRECTION ( 'NONE',  ( 1.000000000000000000, 0.000000000000000000, 0.000000000000000000 ) ) ;
#447 = CARTESIAN_POINT ( 'NONE',  ( -1.587500000000000355, -0.4276219574846448768, 100.6769963920000777 ) ) ;
#448 = CARTESIAN_POINT ( 'NONE',  ( -1.245064030267288402, -1.524763679400337895E-16, 98.58600000000001273 ) ) ;
#449 = CARTESIAN_POINT ( 'NONE',  ( 0.4219230645622806808, 1.587500000000000577, -100.6773073035536186 ) ) ;
#450 = EDGE_CURVE ( 'NONE', #11, #284, #328, .T. ) ;
#451 = CARTESIAN_POINT ( 'NONE',  ( 1.268411506570323866, 1.587500000000000355, -100.5599191420979963 ) ) ;
#452 = CARTESIAN_POINT ( 'NONE',  ( -1.268411506570323866, 1.587500000000000355, -100.5599191421050591 ) ) ;
#453 = AXIS2_PLACEMENT_3D ( 'NONE', #416, #31, #203 ) ;
#454 = TOROIDAL_SURFACE ( 'NONE', #500, 1.245064030267288402, 2.125000000000001776 ) ;
#455 = CARTESIAN_POINT ( 'NONE',  ( -1.587500000000000577, -0.8514389605504931735, 100.6413675157792227 ) ) ;
#456 = DIRECTION ( 'NONE',  ( 0.000000000000000000, 0.000000000000000000, -1.000000000000000000 ) ) ;
#457 = ORIENTED_EDGE ( 'NONE', *, *, #126, .T. ) ;
#458 = CARTESIAN_POINT ( 'NONE',  ( 1.587500000000000577, -0.4277385810629848462, 100.6769865435831122 ) ) ;
#459 = SECURITY_CLASSIFICATION ( '', '', #33 ) ;
#460 = B_SPLINE_CURVE_WITH_KNOTS ( 'NONE', 3,
 ( #312, #529, #263, #396, #532, #187 ),
 .UNSPECIFIED., .F., .F.,
 ( 4, 2, 4 ),
 ( 0.01485345774306979540, 0.01548163471194336643, 0.01610981168081693574 ),
 .UNSPECIFIED. ) ;
#461 = ORIENTED_EDGE ( 'NONE', *, *, #508, .F. ) ;
#462 = COORDINATED_UNIVERSAL_TIME_OFFSET ( 6, 0, .BEHIND. ) ;
#463 = CARTESIAN_POINT ( 'NONE',  ( -0.4219230645622806808, -1.587500000000000577, -100.6773073035536186 ) ) ;
#464 = EDGE_LOOP ( 'NONE', ( #201, #211, #50, #514, #220, #197 ) ) ;
#465 = AXIS2_PLACEMENT_3D ( 'NONE', #158, #332, #113 ) ;
#466 = VECTOR ( 'NONE', #407, 1000.000000000000000 ) ;
#467 = CALENDAR_DATE ( 2022, 6, 6 ) ;
#468 = DIRECTION ( 'NONE',  ( -1.000000000000000000, 0.000000000000000000, 0.000000000000000000 ) ) ;
#469 = EDGE_CURVE ( 'NONE', #336, #326, #460, .T. ) ;
#470 = VERTEX_POINT ( 'NONE', #353 ) ;
#471 = PERSON_AND_ORGANIZATION ( #394, #423 ) ;
#472 = CARTESIAN_POINT ( 'NONE',  ( 1.587500000000000355, -1.268411506570322533, 100.5599191420979963 ) ) ;
#473 = VERTEX_POINT ( 'NONE', #358 ) ;
#474 = PERSON_AND_ORGANIZATION ( #394, #423 ) ;
#475 = FACE_OUTER_BOUND ( 'NONE', #176, .T. ) ;
#476 = EDGE_LOOP ( 'NONE', ( #418, #457, #544, #552 ) ) ;
#477 = AXIS2_PLACEMENT_3D ( 'NONE', #262, #63, #2 ) ;
#478 = CARTESIAN_POINT ( 'NONE',  ( -1.587500000000000355, -1.268411506570323866, 100.5599191420979963 ) ) ;
#479 = B_SPLINE_CURVE_WITH_KNOTS ( 'NONE', 3,
 ( #541, #318, #458, #369, #67, #236 ),
 .UNSPECIFIED., .F., .F.,
 ( 4, 2, 4 ),
 ( 0.000000000000000000, 0.0006365870327257429958, 0.001273174065451485992 ),
 .UNSPECIFIED. ) ;
#480 = CARTESIAN_POINT ( 'NONE',  ( -1.587500000000000355, -1.061392899156297753, -100.6114367738518354 ) ) ;
#481 = ORIENTED_EDGE ( 'NONE', *, *, #321, .F. ) ;
#482 = APPROVAL_PERSON_ORGANIZATION ( #379, #227, #205 ) ;
#483 = CARTESIAN_POINT ( 'NONE',  ( 0.000000000000000000, 0.000000000000000000, 100.5599191420979963 ) ) ;
#484 = CARTESIAN_POINT ( 'NONE',  ( 0.000000000000000000, 0.000000000000000000, -100.5599191420979963 ) ) ;
#485 = CARTESIAN_POINT ( 'NONE',  ( -1.587500000000000133, 1.061532360077853454, -100.6114020682936001 ) ) ;
#486 = CIRCLE ( 'NONE', #214, 2.125000000000001776 ) ;
#487 = DIRECTION ( 'NONE',  ( -0.000000000000000000, -0.000000000000000000, 1.000000000000000000 ) ) ;
#488 = EDGE_CURVE ( 'NONE', #372, #293, #536, .T. ) ;
#489 = DIRECTION ( 'NONE',  ( -0.000000000000000000, -0.000000000000000000, 1.000000000000000000 ) ) ;
#490 =( NAMED_UNIT ( * ) SI_UNIT ( $, .STERADIAN. ) SOLID_ANGLE_UNIT ( ) );
#491 = EDGE_LOOP ( 'NONE', ( #461, #204, #302, #207, #517, #315, #77, #161 ) ) ;
#492 = AXIS2_PLACEMENT_3D ( 'NONE', #484, #91, #446 ) ;
#493 = CC_DESIGN_PERSON_AND_ORGANIZATION_ASSIGNMENT ( #45, #300, ( #459 ) ) ;
#494 = DIRECTION ( 'NONE',  ( 0.000000000000000000, 0.000000000000000000, 1.000000000000000000 ) ) ;
#495 = PERSON_AND_ORGANIZATION ( #394, #423 ) ;
#496 = CARTESIAN_POINT ( 'NONE',  ( 1.268411506570323866, -1.587500000000000355, -100.7110000000000127 ) ) ;
#497 = DIRECTION ( 'NONE',  ( -0.000000000000000000, -0.000000000000000000, 1.000000000000000000 ) ) ;
#498 = DIRECTION ( 'NONE',  ( 1.000000000000000000, 0.000000000000000000, 0.000000000000000000 ) ) ;
#499 = AXIS2_PLACEMENT_3D ( 'NONE', #106, #275, #494 ) ;
#500 = AXIS2_PLACEMENT_3D ( 'NONE', #172, #558, #519 ) ;
#501 = ORIENTED_EDGE ( 'NONE', *, *, #245, .F. ) ;
#502 = PLANE ( 'NONE',  #453 ) ;
#503 = VERTEX_POINT ( 'NONE', #451 ) ;
#504 = EDGE_CURVE ( 'NONE', #305, #433, #237, .T. ) ;
#505 = CARTESIAN_POINT ( 'NONE',  ( 0.000000000000000000, 0.000000000000000000, -100.7110000000000127 ) ) ;
#506 = ORIENTED_EDGE ( 'NONE', *, *, #186, .T. ) ;
#507 = APPROVAL_STATUS ( 'not_yet_approved' ) ;
#508 = EDGE_CURVE ( 'NONE', #470, #333, #408, .T. ) ;
#509 = DIRECTION ( 'NONE',  ( -0.000000000000000000, -0.000000000000000000, 1.000000000000000000 ) ) ;
#510 = VERTEX_POINT ( 'NONE', #72 ) ;
#511 = CIRCLE ( 'NONE', #499, 2.125000000000001776 ) ;
#512 = AXIS2_PLACEMENT_3D ( 'NONE', #20, #235, #189 ) ;
#513 = CARTESIAN_POINT ( 'NONE',  ( 0.4342314039549393656, -1.587500000000000355, -100.6828517174431852 ) ) ;
#514 = ORIENTED_EDGE ( 'NONE', *, *, #364, .F. ) ;
#515 = DATE_TIME_ROLE ( 'creation_date' ) ;
#516 = CARTESIAN_POINT ( 'NONE',  ( 1.268411506570322533, 1.587500000000000355, 100.5599191420979963 ) ) ;
#517 = ORIENTED_EDGE ( 'NONE', *, *, #521, .F. ) ;
#518 = DATE_AND_TIME ( #429, #341 ) ;
#519 = DIRECTION ( 'NONE',  ( 1.000000000000000000, 0.000000000000000000, 0.000000000000000000 ) ) ;
#520 = ORIENTED_EDGE ( 'NONE', *, *, #321, .T. ) ;
#521 = EDGE_CURVE ( 'NONE', #247, #534, #14, .T. ) ;
#522 = CARTESIAN_POINT ( 'NONE',  ( 1.587500000000000355, -1.268411506570323866, -100.5599191420979963 ) ) ;
#523 = ORIENTED_EDGE ( 'NONE', *, *, #400, .F. ) ;
#524 = CARTESIAN_POINT ( 'NONE',  ( 1.587500000000000355, 1.268411506570323866, -100.5599191421050591 ) ) ;
#525 = CARTESIAN_POINT ( 'NONE',  ( -1.587500000000000355, -0.8513200635093569613, -100.6413775553182006 ) ) ;
#526 = APPLICATION_CONTEXT ( 'configuration controlled 3d designs of mechanical parts and assemblies' ) ;
#527 = AXIS2_PLACEMENT_3D ( 'NONE', #192, #545, #154 ) ;
#528 = DIRECTION ( 'NONE',  ( 1.000000000000000000, 0.000000000000000000, 0.000000000000000000 ) ) ;
#529 = CARTESIAN_POINT ( 'NONE',  ( 1.587500000000000133, -1.061532360077853454, -100.6114020682936001 ) ) ;
#530 = CIRCLE ( 'NONE', #71, 2.032000000000000028 ) ;
#531 = B_SPLINE_CURVE_WITH_KNOTS ( 'NONE', 3,
 ( #213, #253, #431, #128, #210, #380 ),
 .UNSPECIFIED., .F., .F.,
 ( 4, 2, 4 ),
 ( 0.000000000000000000, 0.0006365870327252485996, 0.001273174065450496982 ),
 .UNSPECIFIED. ) ;
#532 = CARTESIAN_POINT ( 'NONE',  ( 1.587500000000000355, -0.2114796877013866427, -100.6832273616928859 ) ) ;
#533 = DIRECTION ( 'NONE',  ( -1.000000000000000000, 0.000000000000000000, -0.000000000000000000 ) ) ;
#534 = VERTEX_POINT ( 'NONE', #403 ) ;
#535 = ADVANCED_FACE ( 'NONE', ( #195 ), #276, .T. ) ;
#536 = B_SPLINE_CURVE_WITH_KNOTS ( 'NONE', 3,
 ( #308, #485, #96, #441, #140, #540 ),
 .UNSPECIFIED., .F., .F.,
 ( 4, 2, 4 ),
 ( 0.01485345774306979540, 0.01548163471194336643, 0.01610981168081693574 ),
 .UNSPECIFIED. ) ;
#537 = CARTESIAN_POINT ( 'NONE',  ( 1.268411506570323866, -1.587500000000000355, 100.5599191420979963 ) ) ;
#538 = FACE_OUTER_BOUND ( 'NONE', #53, .T. ) ;
#539 = CIRCLE ( 'NONE', #432, 2.032000000000000028 ) ;
#540 = CARTESIAN_POINT ( 'NONE',  ( -1.587500000000000355, 1.944126793646423534E-16, -100.6832273616928717 ) ) ;
#541 = CARTESIAN_POINT ( 'NONE',  ( 1.587500000000000355, 0.000000000000000000, 100.6832273616928717 ) ) ;
#542 = CARTESIAN_POINT ( 'NONE',  ( 0.8486262390323798810, -1.587500000000000355, 100.6417688228239342 ) ) ;
#543 = CARTESIAN_POINT ( 'NONE',  ( -1.060147506033614517, 1.587500000000000355, 100.6117466962552101 ) ) ;
#544 = ORIENTED_EDGE ( 'NONE', *, *, #250, .T. ) ;
#545 = DIRECTION ( 'NONE',  ( 0.000000000000000000, 0.000000000000000000, 1.000000000000000000 ) ) ;
#546 = CARTESIAN_POINT ( 'NONE',  ( -1.268411506570323866, 1.587500000000000355, 100.5599191420979963 ) ) ;
#547 = EDGE_CURVE ( 'NONE', #510, #326, #193, .T. ) ;
#548 = CIRCLE ( 'NONE', #465, 2.032000000000000028 ) ;
#549 = VERTEX_POINT ( 'NONE', #317 ) ;
#550 = PERSON_AND_ORGANIZATION ( #394, #423 ) ;
#551 = CARTESIAN_POINT ( 'NONE',  ( 1.587500000000000355, 1.268411506570323866, -100.7110000000000127 ) ) ;
#552 = ORIENTED_EDGE ( 'NONE', *, *, #144, .T. ) ;
#553 = ADVANCED_FACE ( 'NONE', ( #238 ), #105, .F. ) ;
#554 = APPROVAL_DATE_TIME ( #376, #227 ) ;
#555 = CARTESIAN_POINT ( 'NONE',  ( 0.000000000000000000, 0.000000000000000000, 100.5599191420979963 ) ) ;
#556 = ORIENTED_EDGE ( 'NONE', *, *, #405, .T. ) ;
#557 = CC_DESIGN_DATE_AND_TIME_ASSIGNMENT ( #37, #515, ( #139 ) ) ;
#558 = DIRECTION ( 'NONE',  ( -0.000000000000000000, -0.000000000000000000, 1.000000000000000000 ) ) ;
#559 = ORIENTED_EDGE ( 'NONE', *, *, #250, .F. ) ;
#560 = AXIS2_PLACEMENT_3D ( 'NONE', #555, #121, #468 ) ;
#561 = PERSON_AND_ORGANIZATION_ROLE ( 'design_supplier' ) ;
ENDSEC;
END-ISO-10303-21;
