ISO-10303-21;
HEADER;
FILE_DESCRIPTION (( 'STEP AP203' ),
    '1' );
FILE_NAME ('228-2500-266.step',
    '2022-06-06T20:02:49',
    ( '' ),
    ( '' ),
    'SwSTEP 2.0',
    'SolidWorks 2021',
    '' );
FILE_SCHEMA (( 'CONFIG_CONTROL_DESIGN' ));
ENDSEC;

DATA;
#1 = DIRECTION ( 'NONE',  ( -0.000000000000000000, -0.000000000000000000, 1.000000000000000000 ) ) ;
#2 = EDGE_LOOP ( 'NONE', ( #439, #385 ) ) ;
#3 = APPROVAL ( #540, 'UNSPECIFIED' ) ;
#4 = AXIS2_PLACEMENT_3D ( 'NONE', #22, #368, #464 ) ;
#5 = CIRCLE ( 'NONE', #314, 2.032000000000000028 ) ;
#6 = ORIENTED_EDGE ( 'NONE', *, *, #100, .T. ) ;
#7 = EDGE_CURVE ( 'NONE', #474, #322, #221, .T. ) ;
#8 = PLANE ( 'NONE',  #369 ) ;
#9 = DIRECTION ( 'NONE',  ( 1.000000000000000000, 0.000000000000000000, 0.000000000000000000 ) ) ;
#10 = APPROVAL ( #25, 'UNSPECIFIED' ) ;
#11 = CARTESIAN_POINT ( 'NONE',  ( 1.587500000000000355, -1.268411506570323866, -113.4110000000000156 ) ) ;
#12 = CARTESIAN_POINT ( 'NONE',  ( 1.587500000000000355, 0.2114796877013866427, 113.3832273616928887 ) ) ;
#13 = VECTOR ( 'NONE', #404, 1000.000000000000000 ) ;
#14 = CARTESIAN_POINT ( 'NONE',  ( -1.587500000000000355, 1.268411506570323866, -113.2599191420979992 ) ) ;
#15 = CARTESIAN_POINT ( 'NONE',  ( -1.060147506033695786, -1.587500000000000577, -113.3117466962551987 ) ) ;
#16 = CARTESIAN_POINT ( 'NONE',  ( -1.268411506570323866, 1.587500000000000355, -113.4110000000000156 ) ) ;
#17 = PLANE ( 'NONE',  #541 ) ;
#18 = CARTESIAN_POINT ( 'NONE',  ( -1.587500000000000577, 0.8514389605504931735, -113.3413675157792255 ) ) ;
#19 = ORIENTED_EDGE ( 'NONE', *, *, #549, .T. ) ;
#20 = CIRCLE ( 'NONE', #333, 2.125000000000001776 ) ;
#21 = DIRECTION ( 'NONE',  ( 1.000000000000000000, 0.000000000000000000, 0.000000000000000000 ) ) ;
#22 = CARTESIAN_POINT ( 'NONE',  ( 0.000000000000000000, 0.000000000000000000, -113.4110000000000156 ) ) ;
#23 = PERSON_AND_ORGANIZATION_ROLE ( 'creator' ) ;
#24 = CARTESIAN_POINT ( 'NONE',  ( 1.587500000000000133, -0.2143109880596208994, 113.3832273616928461 ) ) ;
#25 = APPROVAL_STATUS ( 'not_yet_approved' ) ;
#26 = CARTESIAN_POINT ( 'NONE',  ( 0.2043756380777076165, 1.587500000000000355, -113.3834096189637961 ) ) ;
#27 = COORDINATED_UNIVERSAL_TIME_OFFSET ( 6, 0, .BEHIND. ) ;
#28 = TOROIDAL_SURFACE ( 'NONE', #55, 1.245064030267288402, 2.125000000000001776 ) ;
#29 = DIRECTION ( 'NONE',  ( 0.000000000000000000, -0.000000000000000000, -1.000000000000000000 ) ) ;
#30 = APPROVAL_PERSON_ORGANIZATION ( #60, #219, #270 ) ;
#31 = ADVANCED_FACE ( 'NONE', ( #222 ), #132, .F. ) ;
#32 = CARTESIAN_POINT ( 'NONE',  ( -1.587500000000000355, -1.268411506570323866, -113.4110000000000156 ) ) ;
#33 = B_SPLINE_CURVE_WITH_KNOTS ( 'NONE', 3,
 ( #187, #466, #420, #507, #26, #61, #280, #331 ),
 .UNSPECIFIED., .F., .F.,
 ( 4, 2, 2, 4 ),
 ( 0.01485345774306979540, 0.01548583974386920532, 0.01611822174466861352, 0.01738298574626743337 ),
 .UNSPECIFIED. ) ;
#34 = EDGE_LOOP ( 'NONE', ( #559, #150 ) ) ;
#35 = CARTESIAN_POINT ( 'NONE',  ( -1.268411506570323866, 1.587500000000000355, -113.2599191421050620 ) ) ;
#36 = AXIS2_PLACEMENT_3D ( 'NONE', #489, #260, #393 ) ;
#37 = ORIENTED_EDGE ( 'NONE', *, *, #215, .F. ) ;
#38 = VECTOR ( 'NONE', #227, 1000.000000000000000 ) ;
#39 = CARTESIAN_POINT ( 'NONE',  ( 1.587500000000000355, 0.000000000000000000, 113.3832273616928745 ) ) ;
#40 = ORIENTED_EDGE ( 'NONE', *, *, #490, .T. ) ;
#41 = ORIENTED_EDGE ( 'NONE', *, *, #198, .F. ) ;
#42 = LINE ( 'NONE', #113, #223 ) ;
#43 = VERTEX_POINT ( 'NONE', #529 ) ;
#44 = AXIS2_PLACEMENT_3D ( 'NONE', #65, #68, #277 ) ;
#45 = EDGE_CURVE ( 'NONE', #520, #474, #413, .T. ) ;
#46 = EDGE_CURVE ( 'NONE', #287, #359, #214, .T. ) ;
#47 = LOCAL_TIME ( 15, 2, 49.00000000000000000, #546 ) ;
#48 = LINE ( 'NONE', #16, #38 ) ;
#49 = DIRECTION ( 'NONE',  ( -0.000000000000000000, -0.000000000000000000, 1.000000000000000000 ) ) ;
#50 = CARTESIAN_POINT ( 'NONE',  ( 1.268411506570322533, 1.587500000000000355, 113.2599191420979992 ) ) ;
#51 = CARTESIAN_POINT ( 'NONE',  ( 1.268411506570323866, -1.587500000000000355, -113.2599191421050620 ) ) ;
#52 = CARTESIAN_POINT ( 'NONE',  ( 0.000000000000000000, 0.000000000000000000, 113.2599191420979992 ) ) ;
#53 = EDGE_CURVE ( 'NONE', #76, #545, #537, .T. ) ;
#54 = CARTESIAN_POINT ( 'NONE',  ( -0.8486262390325451932, -1.587500000000000577, -113.3417688228239655 ) ) ;
#55 = AXIS2_PLACEMENT_3D ( 'NONE', #288, #345, #295 ) ;
#56 = FACE_OUTER_BOUND ( 'NONE', #291, .T. ) ;
#57 = CARTESIAN_POINT ( 'NONE',  ( -1.268411506570323866, 1.587500000000000355, 113.2599191420979992 ) ) ;
#58 = CARTESIAN_POINT ( 'NONE',  ( -1.587500000000000355, 1.944126793646423534E-16, -113.3832273616928745 ) ) ;
#59 = CARTESIAN_POINT ( 'NONE',  ( 1.587500000000000355, -0.4276219574846448768, -113.3769963920000947 ) ) ;
#60 = PERSON_AND_ORGANIZATION ( #338, #352 ) ;
#61 = CARTESIAN_POINT ( 'NONE',  ( -0.4342314039549393656, 1.587500000000000355, -113.3828517174431880 ) ) ;
#62 = AXIS2_PLACEMENT_3D ( 'NONE', #220, #133, #523 ) ;
#63 = APPLICATION_PROTOCOL_DEFINITION ( 'international standard', 'config_control_design', 1994, #383 ) ;
#64 = DIRECTION ( 'NONE',  ( -0.000000000000000000, 1.000000000000000000, 0.000000000000000000 ) ) ;
#65 = CARTESIAN_POINT ( 'NONE',  ( 0.000000000000000000, 0.000000000000000000, -113.4110000000000156 ) ) ;
#66 = ORIENTED_EDGE ( 'NONE', *, *, #365, .F. ) ;
#67 =( NAMED_UNIT ( * ) PLANE_ANGLE_UNIT ( ) SI_UNIT ( $, .RADIAN. ) );
#68 = DIRECTION ( 'NONE',  ( -0.000000000000000000, -0.000000000000000000, 1.000000000000000000 ) ) ;
#69 = EDGE_CURVE ( 'NONE', #161, #479, #323, .T. ) ;
#70 = ORIENTED_EDGE ( 'NONE', *, *, #302, .T. ) ;
#71 = PERSON_AND_ORGANIZATION ( #338, #352 ) ;
#72 = ADVANCED_FACE ( 'NONE', ( #93 ), #386, .T. ) ;
#73 = DIRECTION ( 'NONE',  ( -0.000000000000000000, -0.000000000000000000, 1.000000000000000000 ) ) ;
#74 = APPROVAL_PERSON_ORGANIZATION ( #71, #3, #279 ) ;
#75 = DIRECTION ( 'NONE',  ( -0.000000000000000000, -0.000000000000000000, 1.000000000000000000 ) ) ;
#76 = VERTEX_POINT ( 'NONE', #443 ) ;
#77 = CARTESIAN_POINT ( 'NONE',  ( 0.000000000000000000, 0.000000000000000000, 113.4110000000000156 ) ) ;
#78 = ORIENTED_EDGE ( 'NONE', *, *, #297, .F. ) ;
#79 = DIRECTION ( 'NONE',  ( 1.000000000000000000, 0.000000000000000000, 0.000000000000000000 ) ) ;
#80 = VERTEX_POINT ( 'NONE', #263 ) ;
#81 = TOROIDAL_SURFACE ( 'NONE', #399, 1.245064030267288402, 2.125000000000001776 ) ;
#82 = EDGE_CURVE ( 'NONE', #289, #349, #256, .T. ) ;
#83 = CARTESIAN_POINT ( 'NONE',  ( 1.587500000000000355, 1.268411506570323866, -113.2599191421050620 ) ) ;
#84 = EDGE_LOOP ( 'NONE', ( #154, #78, #332, #310, #170, #344, #380, #203 ) ) ;
#85 = CARTESIAN_POINT ( 'NONE',  ( 0.000000000000000000, 0.000000000000000000, -113.4110000000000156 ) ) ;
#86 = ORIENTED_EDGE ( 'NONE', *, *, #321, .F. ) ;
#87 = LINE ( 'NONE', #257, #274 ) ;
#88 = ADVANCED_FACE ( 'NONE', ( #217 ), #17, .F. ) ;
#89 = ORIENTED_EDGE ( 'NONE', *, *, #97, .T. ) ;
#90 = DIRECTION ( 'NONE',  ( 1.000000000000000000, 0.000000000000000000, 0.000000000000000000 ) ) ;
#91 = ORIENTED_EDGE ( 'NONE', *, *, #305, .F. ) ;
#92 = DIRECTION ( 'NONE',  ( -0.000000000000000000, -0.000000000000000000, 1.000000000000000000 ) ) ;
#93 = FACE_OUTER_BOUND ( 'NONE', #284, .T. ) ;
#94 = DIRECTION ( 'NONE',  ( 1.000000000000000000, 0.000000000000000000, 0.000000000000000000 ) ) ;
#95 = ORIENTED_EDGE ( 'NONE', *, *, #407, .F. ) ;
#96 = CC_DESIGN_APPROVAL ( #10, ( #431 ) ) ;
#97 = EDGE_CURVE ( 'NONE', #322, #209, #437, .T. ) ;
#98 = CYLINDRICAL_SURFACE ( 'NONE', #461, 2.032000000000000028 ) ;
#99 = DIRECTION ( 'NONE',  ( -1.000000000000000000, 0.000000000000000000, 0.000000000000000000 ) ) ;
#100 = EDGE_CURVE ( 'NONE', #513, #124, #292, .T. ) ;
#101 = DIRECTION ( 'NONE',  ( 0.000000000000000000, 0.000000000000000000, -1.000000000000000000 ) ) ;
#102 = APPLICATION_PROTOCOL_DEFINITION ( 'international standard', 'config_control_design', 1994, #432 ) ;
#103 = CARTESIAN_POINT ( 'NONE',  ( 0.000000000000000000, 0.000000000000000000, -113.4110000000000156 ) ) ;
#104 = ADVANCED_FACE ( 'NONE', ( #457 ), #106, .T. ) ;
#105 = CC_DESIGN_APPROVAL ( #219, ( #294 ) ) ;
#106 = CYLINDRICAL_SURFACE ( 'NONE', #44, 2.032000000000000028 ) ;
#107 = CARTESIAN_POINT ( 'NONE',  ( -1.245064030267288402, -2.006622987633879023E-16, 113.4110000000000156 ) ) ;
#108 = PERSON_AND_ORGANIZATION ( #338, #352 ) ;
#109 = CARTESIAN_POINT ( 'NONE',  ( -1.587500000000000355, 1.944126793646423534E-16, -113.3832273616928745 ) ) ;
#110 = CIRCLE ( 'NONE', #441, 2.032000000000000028 ) ;
#111 = CARTESIAN_POINT ( 'NONE',  ( 1.268411506570323866, 1.587500000000000355, -113.2599191420979992 ) ) ;
#112 = ORIENTED_EDGE ( 'NONE', *, *, #211, .F. ) ;
#113 = CARTESIAN_POINT ( 'NONE',  ( 1.587500000000000355, 1.268411506570323866, -113.4110000000000156 ) ) ;
#114 = ORIENTED_EDGE ( 'NONE', *, *, #53, .T. ) ;
#115 = ADVANCED_FACE ( 'NONE', ( #155 ), #374, .F. ) ;
#116 = CARTESIAN_POINT ( 'NONE',  ( 0.000000000000000000, 0.000000000000000000, 111.2860000000000156 ) ) ;
#117 = ORIENTED_EDGE ( 'NONE', *, *, #511, .F. ) ;
#118 = CARTESIAN_POINT ( 'NONE',  ( -1.587500000000000355, 1.268411506570323866, -113.2599191420979992 ) ) ;
#119 = ORIENTED_EDGE ( 'NONE', *, *, #82, .T. ) ;
#120 =( GEOMETRIC_REPRESENTATION_CONTEXT ( 3 ) GLOBAL_UNCERTAINTY_ASSIGNED_CONTEXT ( ( #462 ) ) GLOBAL_UNIT_ASSIGNED_CONTEXT ( ( #328, #67, #230 ) ) REPRESENTATION_CONTEXT ( 'NONE', 'WORKASPACE' ) );
#121 = DIRECTION ( 'NONE',  ( 0.000000000000000000, 0.000000000000000000, -1.000000000000000000 ) ) ;
#122 = ORIENTED_EDGE ( 'NONE', *, *, #321, .T. ) ;
#123 = DIRECTION ( 'NONE',  ( 0.000000000000000000, 0.000000000000000000, -1.000000000000000000 ) ) ;
#124 = VERTEX_POINT ( 'NONE', #194 ) ;
#125 = B_SPLINE_CURVE_WITH_KNOTS ( 'NONE', 3,
 ( #516, #379, #207, #555, #162, #435, #248, #438 ),
 .UNSPECIFIED., .F., .F.,
 ( 4, 2, 2, 4 ),
 ( 0.01485345774306979540, 0.01548583974386945165, 0.01611822174466910965, 0.01738298574626842216 ),
 .UNSPECIFIED. ) ;
#126 = CARTESIAN_POINT ( 'NONE',  ( -1.587500000000000133, 1.061532360077853454, -113.3114020682936314 ) ) ;
#127 = CARTESIAN_POINT ( 'NONE',  ( -1.268411506570323866, -1.587500000000000355, -113.2599191420979992 ) ) ;
#128 = AXIS2_PLACEMENT_3D ( 'NONE', #52, #123, #131 ) ;
#129 = DIRECTION ( 'NONE',  ( 0.000000000000000000, 0.000000000000000000, -1.000000000000000000 ) ) ;
#130 = CARTESIAN_POINT ( 'NONE',  ( -1.587500000000000355, -1.587500000000000355, 113.4110000000000156 ) ) ;
#131 = DIRECTION ( 'NONE',  ( -1.000000000000000000, 0.000000000000000000, 0.000000000000000000 ) ) ;
#132 = PLANE ( 'NONE',  #176 ) ;
#133 = DIRECTION ( 'NONE',  ( 0.000000000000000000, 0.000000000000000000, -1.000000000000000000 ) ) ;
#134 = CARTESIAN_POINT ( 'NONE',  ( -0.4219230645619455045, 1.587500000000000133, 113.3773073035536356 ) ) ;
#135 = AXIS2_PLACEMENT_3D ( 'NONE', #307, #532, #313 ) ;
#136 = APPROVAL_PERSON_ORGANIZATION ( #272, #10, #188 ) ;
#137 = EDGE_CURVE ( 'NONE', #124, #513, #358, .T. ) ;
#138 = APPROVAL_DATE_TIME ( #237, #3 ) ;
#139 = EDGE_CURVE ( 'NONE', #201, #520, #110, .T. ) ;
#140 = CARTESIAN_POINT ( 'NONE',  ( 0.4342314039549393656, -1.587500000000000355, -113.3828517174431880 ) ) ;
#141 = DATE_AND_TIME ( #534, #167 ) ;
#142 = CARTESIAN_POINT ( 'NONE',  ( 1.587500000000000355, 0.2143109880594543937, -113.3832273616928887 ) ) ;
#143 = DATE_AND_TIME ( #538, #47 ) ;
#144 = CARTESIAN_POINT ( 'NONE',  ( 1.587500000000000577, 0.4277385810626528340, -113.3769865435831576 ) ) ;
#145 = MANIFOLD_SOLID_BREP ( '228-2500-266', #409 ) ;
#146 = B_SPLINE_CURVE_WITH_KNOTS ( 'NONE', 3,
 ( #471, #290, #243, #558, #160, #337 ),
 .UNSPECIFIED., .F., .F.,
 ( 4, 2, 4 ),
 ( 1.905938025164286877E-19, 0.0006365870327257431042, 0.001273174065451485992 ),
 .UNSPECIFIED. ) ;
#147 = AXIS2_PLACEMENT_3D ( 'NONE', #448, #49, #400 ) ;
#148 = CALENDAR_DATE ( 2022, 6, 6 ) ;
#149 = DIRECTION ( 'NONE',  ( 0.000000000000000000, -1.000000000000000000, 0.000000000000000000 ) ) ;
#150 = ORIENTED_EDGE ( 'NONE', *, *, #530, .T. ) ;
#151 = EDGE_CURVE ( 'NONE', #359, #80, #427, .T. ) ;
#152 = PERSON_AND_ORGANIZATION ( #338, #352 ) ;
#153 = DIRECTION ( 'NONE',  ( 0.000000000000000000, 0.000000000000000000, -1.000000000000000000 ) ) ;
#154 = ORIENTED_EDGE ( 'NONE', *, *, #69, .F. ) ;
#155 = FACE_OUTER_BOUND ( 'NONE', #561, .T. ) ;
#156 = ORIENTED_EDGE ( 'NONE', *, *, #139, .T. ) ;
#157 = AXIS2_PLACEMENT_3D ( 'NONE', #334, #428, #512 ) ;
#158 = CARTESIAN_POINT ( 'NONE',  ( -1.587500000000000355, -0.8513200635093569613, -113.3413775553181893 ) ) ;
#159 = ORIENTED_EDGE ( 'NONE', *, *, #304, .F. ) ;
#160 = CARTESIAN_POINT ( 'NONE',  ( -1.587500000000000355, 1.061392899157111325, 113.3114367738516819 ) ) ;
#161 = VERTEX_POINT ( 'NONE', #107 ) ;
#162 = CARTESIAN_POINT ( 'NONE',  ( 0.2043756380772881742, -1.587500000000000799, 113.3834096189638245 ) ) ;
#163 = EDGE_LOOP ( 'NONE', ( #117, #89, #278, #86, #484, #335 ) ) ;
#164 = DIRECTION ( 'NONE',  ( 0.000000000000000000, 0.000000000000000000, -1.000000000000000000 ) ) ;
#165 = AXIS2_PLACEMENT_3D ( 'NONE', #77, #1, #376 ) ;
#166 = ORIENTED_EDGE ( 'NONE', *, *, #490, .F. ) ;
#167 = LOCAL_TIME ( 15, 2, 49.00000000000000000, #468 ) ;
#168 = EDGE_CURVE ( 'NONE', #349, #330, #33, .T. ) ;
#169 = CARTESIAN_POINT ( 'NONE',  ( -1.245064030267288402, 1.524763679400337895E-16, -111.2860000000000156 ) ) ;
#170 = ORIENTED_EDGE ( 'NONE', *, *, #440, .F. ) ;
#171 = CARTESIAN_POINT ( 'NONE',  ( -1.587500000000000355, -1.587500000000000355, 113.4110000000000156 ) ) ;
#172 = EDGE_CURVE ( 'NONE', #436, #479, #276, .T. ) ;
#173 = ORIENTED_EDGE ( 'NONE', *, *, #302, .F. ) ;
#174 = DIRECTION ( 'NONE',  ( -0.000000000000000000, -0.000000000000000000, 1.000000000000000000 ) ) ;
#175 = CARTESIAN_POINT ( 'NONE',  ( -1.060147506033614517, 1.587500000000000355, 113.3117466962551703 ) ) ;
#176 = AXIS2_PLACEMENT_3D ( 'NONE', #130, #356, #101 ) ;
#177 = VECTOR ( 'NONE', #410, 1000.000000000000000 ) ;
#178 = CARTESIAN_POINT ( 'NONE',  ( 1.245064030267288402, 0.000000000000000000, -113.4110000000000156 ) ) ;
#179 = VERTEX_POINT ( 'NONE', #109 ) ;
#180 = DIRECTION ( 'NONE',  ( -1.000000000000000000, 0.000000000000000000, 0.000000000000000000 ) ) ;
#181 = ORIENTED_EDGE ( 'NONE', *, *, #440, .T. ) ;
#182 = CARTESIAN_POINT ( 'NONE',  ( -1.587500000000000355, 0.2114796877013866427, -113.3832273616928887 ) ) ;
#183 = DIRECTION ( 'NONE',  ( 0.000000000000000000, 0.000000000000000000, 1.000000000000000000 ) ) ;
#184 = ADVANCED_FACE ( 'NONE', ( #192 ), #371, .F. ) ;
#185 = CARTESIAN_POINT ( 'NONE',  ( -1.587500000000000355, -1.944126793646423534E-16, 113.3832273616928745 ) ) ;
#186 = CALENDAR_DATE ( 2022, 6, 6 ) ;
#187 = CARTESIAN_POINT ( 'NONE',  ( 1.268411506570323866, 1.587500000000000355, -113.2599191420979992 ) ) ;
#188 = APPROVAL_ROLE ( '' ) ;
#189 = CARTESIAN_POINT ( 'NONE',  ( 1.587500000000000355, -0.8513200635100123259, 113.3413775553181466 ) ) ;
#190 = AXIS2_PLACEMENT_3D ( 'NONE', #473, #121, #480 ) ;
#191 = DIRECTION ( 'NONE',  ( 1.000000000000000000, 0.000000000000000000, 0.000000000000000000 ) ) ;
#192 = FACE_OUTER_BOUND ( 'NONE', #34, .T. ) ;
#193 = ORIENTED_EDGE ( 'NONE', *, *, #82, .F. ) ;
#194 = CARTESIAN_POINT ( 'NONE',  ( -1.245064030267288402, 2.006622987633879023E-16, -113.4110000000000156 ) ) ;
#195 = VERTEX_POINT ( 'NONE', #460 ) ;
#196 = CARTESIAN_POINT ( 'NONE',  ( -1.587500000000000577, -0.4277385810626531115, -113.3769865435831434 ) ) ;
#197 = ORIENTED_EDGE ( 'NONE', *, *, #7, .T. ) ;
#198 = EDGE_CURVE ( 'NONE', #43, #359, #20, .T. ) ;
#199 = EDGE_CURVE ( 'NONE', #520, #236, #329, .T. ) ;
#200 = CYLINDRICAL_SURFACE ( 'NONE', #501, 2.032000000000000028 ) ;
#201 = VERTEX_POINT ( 'NONE', #271 ) ;
#202 = DIRECTION ( 'NONE',  ( -1.000000000000000000, 1.224646799147353207E-16, 0.000000000000000000 ) ) ;
#203 = ORIENTED_EDGE ( 'NONE', *, *, #373, .F. ) ;
#204 = CARTESIAN_POINT ( 'NONE',  ( 1.587500000000000355, 1.061392899156297309, -113.3114367738518098 ) ) ;
#205 = ORIENTED_EDGE ( 'NONE', *, *, #225, .F. ) ;
#206 = AXIS2_PLACEMENT_3D ( 'NONE', #535, #149, #29 ) ;
#207 = CARTESIAN_POINT ( 'NONE',  ( 0.8486262390323798810, -1.587500000000000355, 113.3417688228239513 ) ) ;
#208 = AXIS2_PLACEMENT_3D ( 'NONE', #116, #164, #381 ) ;
#209 = VERTEX_POINT ( 'NONE', #241 ) ;
#210 = AXIS2_PLACEMENT_3D ( 'NONE', #506, #275, #21 ) ;
#211 = EDGE_CURVE ( 'NONE', #436, #201, #423, .T. ) ;
#212 = CARTESIAN_POINT ( 'NONE',  ( 0.000000000000000000, 0.000000000000000000, 113.4110000000000156 ) ) ;
#213 = CARTESIAN_POINT ( 'NONE',  ( 1.587500000000000355, 0.4276219574846448768, 113.3769963920000947 ) ) ;
#214 = B_SPLINE_CURVE_WITH_KNOTS ( 'NONE', 3,
 ( #492, #452, #316, #213, #12, #445 ),
 .UNSPECIFIED., .F., .F.,
 ( 4, 2, 4 ),
 ( 0.01485345774306979540, 0.01548163471194336643, 0.01610981168081693574 ),
 .UNSPECIFIED. ) ;
#215 = EDGE_CURVE ( 'NONE', #209, #289, #318, .T. ) ;
#216 = PLANE ( 'NONE',  #62 ) ;
#217 = FACE_OUTER_BOUND ( 'NONE', #163, .T. ) ;
#218 = ADVANCED_BREP_SHAPE_REPRESENTATION ( '228-2500-266', ( #145, #210 ), #120 ) ;
#219 = APPROVAL ( #364, 'UNSPECIFIED' ) ;
#220 = CARTESIAN_POINT ( 'NONE',  ( -1.587500000000000355, 1.587500000000000355, -113.4110000000000156 ) ) ;
#221 = CIRCLE ( 'NONE', #36, 2.032000000000000028 ) ;
#222 = FACE_OUTER_BOUND ( 'NONE', #556, .T. ) ;
#223 = VECTOR ( 'NONE', #251, 1000.000000000000000 ) ;
#224 = DIRECTION ( 'NONE',  ( 0.000000000000000000, 1.000000000000000000, 0.000000000000000000 ) ) ;
#225 = EDGE_CURVE ( 'NONE', #349, #545, #343, .T. ) ;
#226 = CARTESIAN_POINT ( 'NONE',  ( -0.2043756380772881742, 1.587500000000000799, 113.3834096189638245 ) ) ;
#227 = DIRECTION ( 'NONE',  ( 0.000000000000000000, 0.000000000000000000, -1.000000000000000000 ) ) ;
#228 = CARTESIAN_POINT ( 'NONE',  ( -0.4219230645622807918, -1.587500000000000799, -113.3773073035535930 ) ) ;
#229 = CC_DESIGN_PERSON_AND_ORGANIZATION_ASSIGNMENT ( #152, #23, ( #294 ) ) ;
#230 =( NAMED_UNIT ( * ) SI_UNIT ( $, .STERADIAN. ) SOLID_ANGLE_UNIT ( ) );
#231 = CARTESIAN_POINT ( 'NONE',  ( -1.587500000000000355, -1.268411506570323866, 113.2599191420979992 ) ) ;
#232 = CIRCLE ( 'NONE', #557, 2.032000000000000028 ) ;
#233 = DIRECTION ( 'NONE',  ( 0.000000000000000000, 0.000000000000000000, 1.000000000000000000 ) ) ;
#234 = APPROVAL_DATE_TIME ( #143, #219 ) ;
#235 = CARTESIAN_POINT ( 'NONE',  ( 0.000000000000000000, 0.000000000000000000, -113.2599191420979992 ) ) ;
#236 = VERTEX_POINT ( 'NONE', #478 ) ;
#237 = DATE_AND_TIME ( #186, #518 ) ;
#238 = DIRECTION ( 'NONE',  ( 1.000000000000000000, 0.000000000000000000, 0.000000000000000000 ) ) ;
#239 = ORIENTED_EDGE ( 'NONE', *, *, #411, .T. ) ;
#240 = PERSON_AND_ORGANIZATION_ROLE ( 'classification_officer' ) ;
#241 = CARTESIAN_POINT ( 'NONE',  ( 1.587500000000000355, 0.000000000000000000, -113.3832273616928745 ) ) ;
#242 = APPROVAL_DATE_TIME ( #553, #10 ) ;
#243 = CARTESIAN_POINT ( 'NONE',  ( -1.587500000000000577, 0.4277385810629850682, 113.3769865435831292 ) ) ;
#244 = CC_DESIGN_DATE_AND_TIME_ASSIGNMENT ( #141, #498, ( #431 ) ) ;
#245 = CARTESIAN_POINT ( 'NONE',  ( -1.587500000000000355, 1.944126793646423534E-16, -113.3832273616928745 ) ) ;
#246 = ORIENTED_EDGE ( 'NONE', *, *, #503, .T. ) ;
#247 = AXIS2_PLACEMENT_3D ( 'NONE', #169, #286, #202 ) ;
#248 = CARTESIAN_POINT ( 'NONE',  ( -0.8571092511719576867, -1.587500000000000799, 113.3622737970627981 ) ) ;
#249 = AXIS2_PLACEMENT_3D ( 'NONE', #526, #306, #191 ) ;
#250 = ORIENTED_EDGE ( 'NONE', *, *, #252, .T. ) ;
#251 = DIRECTION ( 'NONE',  ( 0.000000000000000000, 0.000000000000000000, -1.000000000000000000 ) ) ;
#252 = EDGE_CURVE ( 'NONE', #179, #201, #483, .T. ) ;
#253 = ORIENTED_EDGE ( 'NONE', *, *, #365, .T. ) ;
#254 = DIRECTION ( 'NONE',  ( -0.000000000000000000, -0.000000000000000000, 1.000000000000000000 ) ) ;
#255 = ORIENTED_EDGE ( 'NONE', *, *, #395, .T. ) ;
#256 = CIRCLE ( 'NONE', #147, 2.032000000000000028 ) ;
#257 = CARTESIAN_POINT ( 'NONE',  ( 1.268411506570323866, -1.587500000000000355, -113.4110000000000156 ) ) ;
#258 = ORIENTED_EDGE ( 'NONE', *, *, #7, .F. ) ;
#259 = CARTESIAN_POINT ( 'NONE',  ( -1.587500000000000355, -1.268411506570323866, 113.2599191420979992 ) ) ;
#260 = DIRECTION ( 'NONE',  ( -0.000000000000000000, -0.000000000000000000, 1.000000000000000000 ) ) ;
#261 = PRODUCT_RELATED_PRODUCT_CATEGORY ( 'detail', '', ( #405 ) ) ;
#262 = CARTESIAN_POINT ( 'NONE',  ( -1.587500000000000355, 1.268411506570323866, -113.4110000000000156 ) ) ;
#263 = CARTESIAN_POINT ( 'NONE',  ( 1.587500000000000355, -1.268411506570322533, 113.2599191420979992 ) ) ;
#264 = CARTESIAN_POINT ( 'NONE',  ( -1.587500000000000355, -1.944126793646423534E-16, 113.3832273616928745 ) ) ;
#265 = AXIS2_PLACEMENT_3D ( 'NONE', #103, #317, #412 ) ;
#266 = CARTESIAN_POINT ( 'NONE',  ( -0.2043756380777076165, -1.587500000000000355, -113.3834096189637961 ) ) ;
#267 = CARTESIAN_POINT ( 'NONE',  ( -1.587500000000000355, 1.268411506570322533, 113.2599191420979992 ) ) ;
#268 = CARTESIAN_POINT ( 'NONE',  ( 1.587500000000000355, -1.268411506570323866, -113.2599191420979992 ) ) ;
#269 = B_SPLINE_CURVE_WITH_KNOTS ( 'NONE', 3,
 ( #14, #126, #18, #453, #182, #58 ),
 .UNSPECIFIED., .F., .F.,
 ( 4, 2, 4 ),
 ( 0.01485345774306979540, 0.01548163471194336643, 0.01610981168081693574 ),
 .UNSPECIFIED. ) ;
#270 = APPROVAL_ROLE ( '' ) ;
#271 = CARTESIAN_POINT ( 'NONE',  ( -1.587500000000000355, -1.268411506570323866, -113.2599191421050620 ) ) ;
#272 = PERSON_AND_ORGANIZATION ( #338, #352 ) ;
#273 = CARTESIAN_POINT ( 'NONE',  ( -1.587500000000000577, -0.8514389605504931735, 113.3413675157792255 ) ) ;
#274 = VECTOR ( 'NONE', #402, 1000.000000000000000 ) ;
#275 = DIRECTION ( 'NONE',  ( 0.000000000000000000, 0.000000000000000000, 1.000000000000000000 ) ) ;
#276 = B_SPLINE_CURVE_WITH_KNOTS ( 'NONE', 3,
 ( #231, #366, #273, #499, #539, #185 ),
 .UNSPECIFIED., .F., .F.,
 ( 4, 2, 4 ),
 ( 0.01485345774306979540, 0.01548163471194336643, 0.01610981168081693574 ),
 .UNSPECIFIED. ) ;
#277 = DIRECTION ( 'NONE',  ( 1.000000000000000000, 0.000000000000000000, 0.000000000000000000 ) ) ;
#278 = ORIENTED_EDGE ( 'NONE', *, *, #215, .T. ) ;
#279 = APPROVAL_ROLE ( '' ) ;
#280 = CARTESIAN_POINT ( 'NONE',  ( -0.8571092511711346784, 1.587500000000000133, -113.3622737970628123 ) ) ;
#281 = ORIENTED_EDGE ( 'NONE', *, *, #454, .F. ) ;
#282 = PERSON_AND_ORGANIZATION ( #338, #352 ) ;
#283 = DIRECTION ( 'NONE',  ( -1.000000000000000000, 0.000000000000000000, -0.000000000000000000 ) ) ;
#284 = EDGE_LOOP ( 'NONE', ( #6, #253, #166, #382, #319, #193, #37, #91 ) ) ;
#285 = CC_DESIGN_APPROVAL ( #3, ( #552 ) ) ;
#286 = DIRECTION ( 'NONE',  ( 1.224646799147353207E-16, 1.000000000000000000, 0.000000000000000000 ) ) ;
#287 = VERTEX_POINT ( 'NONE', #298 ) ;
#288 = CARTESIAN_POINT ( 'NONE',  ( 0.000000000000000000, 0.000000000000000000, -111.2860000000000156 ) ) ;
#289 = VERTEX_POINT ( 'NONE', #384 ) ;
#290 = CARTESIAN_POINT ( 'NONE',  ( -1.587500000000000133, 0.2143109880596207883, 113.3832273616928461 ) ) ;
#291 = EDGE_LOOP ( 'NONE', ( #156, #299, #239, #467 ) ) ;
#292 = CIRCLE ( 'NONE', #4, 1.245064030267288402 ) ;
#293 = ADVANCED_FACE ( 'NONE', ( #476 ), #485, .T. ) ;
#294 = PRODUCT_DEFINITION_FORMATION_WITH_SPECIFIED_SOURCE ( 'ANY', '', #405, .NOT_KNOWN. ) ;
#295 = DIRECTION ( 'NONE',  ( 1.000000000000000000, 0.000000000000000000, 0.000000000000000000 ) ) ;
#296 = ORIENTED_EDGE ( 'NONE', *, *, #45, .F. ) ;
#297 = EDGE_CURVE ( 'NONE', #43, #161, #430, .T. ) ;
#298 = CARTESIAN_POINT ( 'NONE',  ( 1.587500000000000355, 1.268411506570323866, 113.2599191420979992 ) ) ;
#299 = ORIENTED_EDGE ( 'NONE', *, *, #199, .T. ) ;
#300 = LINE ( 'NONE', #262, #378 ) ;
#301 = ORIENTED_EDGE ( 'NONE', *, *, #305, .T. ) ;
#302 = EDGE_CURVE ( 'NONE', #80, #195, #510, .T. ) ;
#303 = CARTESIAN_POINT ( 'NONE',  ( -1.268411506570323866, -1.587500000000000355, -113.2599191420979992 ) ) ;
#304 = EDGE_CURVE ( 'NONE', #195, #236, #125, .T. ) ;
#305 = EDGE_CURVE ( 'NONE', #513, #209, #422, .T. ) ;
#306 = DIRECTION ( 'NONE',  ( -0.000000000000000000, -0.000000000000000000, 1.000000000000000000 ) ) ;
#307 = CARTESIAN_POINT ( 'NONE',  ( -1.245064030267288402, -1.524763679400337895E-16, 111.2860000000000156 ) ) ;
#308 = ADVANCED_FACE ( 'NONE', ( #514 ), #200, .T. ) ;
#309 = CARTESIAN_POINT ( 'NONE',  ( 0.000000000000000000, 0.000000000000000000, -113.2599191420979992 ) ) ;
#310 = ORIENTED_EDGE ( 'NONE', *, *, #46, .F. ) ;
#311 = CC_DESIGN_PERSON_AND_ORGANIZATION_ASSIGNMENT ( #459, #418, ( #552 ) ) ;
#312 = FACE_OUTER_BOUND ( 'NONE', #417, .T. ) ;
#313 = DIRECTION ( 'NONE',  ( 1.000000000000000000, 1.224646799147353207E-16, 0.000000000000000000 ) ) ;
#314 = AXIS2_PLACEMENT_3D ( 'NONE', #309, #174, #94 ) ;
#315 = COORDINATED_UNIVERSAL_TIME_OFFSET ( 6, 0, .BEHIND. ) ;
#316 = CARTESIAN_POINT ( 'NONE',  ( 1.587500000000000577, 0.8514389605504931735, 113.3413675157792255 ) ) ;
#317 = DIRECTION ( 'NONE',  ( -0.000000000000000000, -0.000000000000000000, 1.000000000000000000 ) ) ;
#318 = B_SPLINE_CURVE_WITH_KNOTS ( 'NONE', 3,
 ( #362, #142, #144, #500, #204, #83 ),
 .UNSPECIFIED., .F., .F.,
 ( 4, 2, 4 ),
 ( 0.000000000000000000, 0.0006365870327252485996, 0.001273174065450496982 ),
 .UNSPECIFIED. ) ;
#319 = ORIENTED_EDGE ( 'NONE', *, *, #168, .F. ) ;
#320 = CARTESIAN_POINT ( 'NONE',  ( 1.587500000000000355, -1.061392899157111103, 113.3114367738516819 ) ) ;
#321 = EDGE_CURVE ( 'NONE', #287, #289, #42, .T. ) ;
#322 = VERTEX_POINT ( 'NONE', #389 ) ;
#323 = CIRCLE ( 'NONE', #135, 2.125000000000001776 ) ;
#324 = AXIS2_PLACEMENT_3D ( 'NONE', #212, #355, #394 ) ;
#325 = CARTESIAN_POINT ( 'NONE',  ( 1.587500000000000355, 0.000000000000000000, 113.3832273616928745 ) ) ;
#326 = VERTEX_POINT ( 'NONE', #118 ) ;
#327 = ADVANCED_FACE ( 'NONE', ( #433 ), #28, .T. ) ;
#328 =( LENGTH_UNIT ( ) NAMED_UNIT ( * ) SI_UNIT ( .MILLI., .METRE. ) );
#329 = LINE ( 'NONE', #508, #470 ) ;
#330 = VERTEX_POINT ( 'NONE', #35 ) ;
#331 = CARTESIAN_POINT ( 'NONE',  ( -1.268411506570323866, 1.587500000000000355, -113.2599191421050620 ) ) ;
#332 = ORIENTED_EDGE ( 'NONE', *, *, #198, .T. ) ;
#333 = AXIS2_PLACEMENT_3D ( 'NONE', #550, #64, #233 ) ;
#334 = CARTESIAN_POINT ( 'NONE',  ( 1.245064030267288402, 0.000000000000000000, -111.2860000000000156 ) ) ;
#335 = ORIENTED_EDGE ( 'NONE', *, *, #151, .T. ) ;
#336 = SHAPE_DEFINITION_REPRESENTATION ( #446, #218 ) ;
#337 = CARTESIAN_POINT ( 'NONE',  ( -1.587500000000000355, 1.268411506570322533, 113.2599191420979992 ) ) ;
#338 = PERSON ( 'UNSPECIFIED', 'UNSPECIFIED', 'UNSPECIFIED', ('UNSPECIFIED'), ('UNSPECIFIED'), ('UNSPECIFIED') ) ;
#339 = ORIENTED_EDGE ( 'NONE', *, *, #139, .F. ) ;
#340 = CARTESIAN_POINT ( 'NONE',  ( 1.268411506570323866, 1.587500000000000355, -113.4110000000000156 ) ) ;
#341 = ORIENTED_EDGE ( 'NONE', *, *, #168, .T. ) ;
#342 = CIRCLE ( 'NONE', #525, 2.032000000000000028 ) ;
#343 = LINE ( 'NONE', #340, #449 ) ;
#344 = ORIENTED_EDGE ( 'NONE', *, *, #53, .F. ) ;
#345 = DIRECTION ( 'NONE',  ( -0.000000000000000000, -0.000000000000000000, 1.000000000000000000 ) ) ;
#346 = ORIENTED_EDGE ( 'NONE', *, *, #69, .T. ) ;
#347 = CC_DESIGN_PERSON_AND_ORGANIZATION_ASSIGNMENT ( #361, #240, ( #431 ) ) ;
#348 = CARTESIAN_POINT ( 'NONE',  ( 0.000000000000000000, 0.000000000000000000, -113.4110000000000156 ) ) ;
#349 = VERTEX_POINT ( 'NONE', #111 ) ;
#350 = CYLINDRICAL_SURFACE ( 'NONE', #249, 2.032000000000000028 ) ;
#351 = CARTESIAN_POINT ( 'NONE',  ( -0.8486262390323798810, 1.587500000000000355, 113.3417688228239513 ) ) ;
#352 = ORGANIZATION ( 'UNSPECIFIED', 'UNSPECIFIED', '' ) ;
#353 = CARTESIAN_POINT ( 'NONE',  ( 0.000000000000000000, 0.000000000000000000, 113.2599191420979992 ) ) ;
#354 = DIRECTION ( 'NONE',  ( -0.000000000000000000, -0.000000000000000000, 1.000000000000000000 ) ) ;
#355 = DIRECTION ( 'NONE',  ( -0.000000000000000000, -0.000000000000000000, 1.000000000000000000 ) ) ;
#356 = DIRECTION ( 'NONE',  ( 1.000000000000000000, 0.000000000000000000, 0.000000000000000000 ) ) ;
#357 = MECHANICAL_CONTEXT ( 'NONE', #383, 'mechanical' ) ;
#358 = CIRCLE ( 'NONE', #265, 1.245064030267288402 ) ;
#359 = VERTEX_POINT ( 'NONE', #39 ) ;
#360 = CC_DESIGN_SECURITY_CLASSIFICATION ( #431, ( #294 ) ) ;
#361 = PERSON_AND_ORGANIZATION ( #338, #352 ) ;
#362 = CARTESIAN_POINT ( 'NONE',  ( 1.587500000000000355, 0.000000000000000000, -113.3832273616928745 ) ) ;
#363 = ORIENTED_EDGE ( 'NONE', *, *, #411, .F. ) ;
#364 = APPROVAL_STATUS ( 'not_yet_approved' ) ;
#365 = EDGE_CURVE ( 'NONE', #124, #179, #387, .T. ) ;
#366 = CARTESIAN_POINT ( 'NONE',  ( -1.587500000000000133, -1.061532360077853454, 113.3114020682936314 ) ) ;
#367 = COORDINATED_UNIVERSAL_TIME_OFFSET ( 6, 0, .BEHIND. ) ;
#368 = DIRECTION ( 'NONE',  ( -0.000000000000000000, -0.000000000000000000, 1.000000000000000000 ) ) ;
#369 = AXIS2_PLACEMENT_3D ( 'NONE', #171, #224, #398 ) ;
#370 = CALENDAR_DATE ( 2022, 6, 6 ) ;
#371 = PLANE ( 'NONE',  #509 ) ;
#372 = ORIENTED_EDGE ( 'NONE', *, *, #454, .T. ) ;
#373 = EDGE_CURVE ( 'NONE', #479, #375, #146, .T. ) ;
#374 = PLANE ( 'NONE',  #206 ) ;
#375 = VERTEX_POINT ( 'NONE', #267 ) ;
#376 = DIRECTION ( 'NONE',  ( 1.000000000000000000, 0.000000000000000000, 0.000000000000000000 ) ) ;
#377 = EDGE_LOOP ( 'NONE', ( #66, #429, #301, #434, #258, #296, #339, #522 ) ) ;
#378 = VECTOR ( 'NONE', #531, 1000.000000000000000 ) ;
#379 = CARTESIAN_POINT ( 'NONE',  ( 1.060147506033614517, -1.587500000000000355, 113.3117466962551703 ) ) ;
#380 = ORIENTED_EDGE ( 'NONE', *, *, #395, .F. ) ;
#381 = DIRECTION ( 'NONE',  ( 1.000000000000000000, 0.000000000000000000, 0.000000000000000000 ) ) ;
#382 = ORIENTED_EDGE ( 'NONE', *, *, #549, .F. ) ;
#383 = APPLICATION_CONTEXT ( 'configuration controlled 3d designs of mechanical parts and assemblies' ) ;
#384 = CARTESIAN_POINT ( 'NONE',  ( 1.587500000000000355, 1.268411506570323866, -113.2599191421050620 ) ) ;
#385 = ORIENTED_EDGE ( 'NONE', *, *, #137, .F. ) ;
#386 = TOROIDAL_SURFACE ( 'NONE', #397, 1.245064030267288402, 2.125000000000001776 ) ;
#387 = CIRCLE ( 'NONE', #247, 2.125000000000001776 ) ;
#388 = LOCAL_TIME ( 15, 2, 49.00000000000000000, #315 ) ;
#389 = CARTESIAN_POINT ( 'NONE',  ( 1.587500000000000355, -1.268411506570323866, -113.2599191420979992 ) ) ;
#390 = EDGE_LOOP ( 'NONE', ( #197, #421, #70, #372 ) ) ;
#391 = ADVANCED_FACE ( 'NONE', ( #312 ), #8, .F. ) ;
#392 = FACE_OUTER_BOUND ( 'NONE', #84, .T. ) ;
#393 = DIRECTION ( 'NONE',  ( 1.000000000000000000, 0.000000000000000000, 0.000000000000000000 ) ) ;
#394 = DIRECTION ( 'NONE',  ( 1.000000000000000000, 0.000000000000000000, 0.000000000000000000 ) ) ;
#395 = EDGE_CURVE ( 'NONE', #375, #76, #232, .T. ) ;
#396 = CARTESIAN_POINT ( 'NONE',  ( 0.000000000000000000, 0.000000000000000000, -111.2860000000000156 ) ) ;
#397 = AXIS2_PLACEMENT_3D ( 'NONE', #396, #354, #9 ) ;
#398 = DIRECTION ( 'NONE',  ( 0.000000000000000000, -0.000000000000000000, 1.000000000000000000 ) ) ;
#399 = AXIS2_PLACEMENT_3D ( 'NONE', #486, #491, #90 ) ;
#400 = DIRECTION ( 'NONE',  ( 1.000000000000000000, 0.000000000000000000, 0.000000000000000000 ) ) ;
#401 = ADVANCED_FACE ( 'NONE', ( #447 ), #216, .T. ) ;
#402 = DIRECTION ( 'NONE',  ( 0.000000000000000000, 0.000000000000000000, -1.000000000000000000 ) ) ;
#403 = CARTESIAN_POINT ( 'NONE',  ( 0.4342314039556040006, 1.587500000000000355, 113.3828517174431880 ) ) ;
#404 = DIRECTION ( 'NONE',  ( -0.000000000000000000, -0.000000000000000000, 1.000000000000000000 ) ) ;
#405 = PRODUCT ( '228-2500-266', '228-2500-266', '', ( #357 ) ) ;
#406 = CARTESIAN_POINT ( 'NONE',  ( 0.8571092511711346784, -1.587500000000000133, -113.3622737970628123 ) ) ;
#407 = EDGE_CURVE ( 'NONE', #326, #375, #300, .T. ) ;
#408 = ADVANCED_FACE ( 'NONE', ( #494 ), #98, .T. ) ;
#409 = CLOSED_SHELL ( 'NONE', ( #293, #72, #31, #391, #88, #115, #327, #544, #401, #184, #554, #308, #408, #104 ) ) ;
#410 = DIRECTION ( 'NONE',  ( 0.000000000000000000, 0.000000000000000000, -1.000000000000000000 ) ) ;
#411 = EDGE_CURVE ( 'NONE', #236, #436, #542, .T. ) ;
#412 = DIRECTION ( 'NONE',  ( 1.000000000000000000, 0.000000000000000000, 0.000000000000000000 ) ) ;
#413 = B_SPLINE_CURVE_WITH_KNOTS ( 'NONE', 3,
 ( #127, #15, #54, #228, #266, #140, #406, #51 ),
 .UNSPECIFIED., .F., .F.,
 ( 4, 2, 2, 4 ),
 ( 0.01485345774306979540, 0.01548583974386920532, 0.01611822174466861352, 0.01738298574626743337 ),
 .UNSPECIFIED. ) ;
#414 = EDGE_LOOP ( 'NONE', ( #426, #346, #505, #363, #159, #173, #536, #41 ) ) ;
#415 = SECURITY_CLASSIFICATION_LEVEL ( 'unclassified' ) ;
#416 = DIRECTION ( 'NONE',  ( -0.000000000000000000, -0.000000000000000000, 1.000000000000000000 ) ) ;
#417 = EDGE_LOOP ( 'NONE', ( #472, #548, #281, #502 ) ) ;
#418 = PERSON_AND_ORGANIZATION_ROLE ( 'creator' ) ;
#419 = CC_DESIGN_PERSON_AND_ORGANIZATION_ASSIGNMENT ( #108, #463, ( #405 ) ) ;
#420 = CARTESIAN_POINT ( 'NONE',  ( 0.8486262390325451932, 1.587500000000000577, -113.3417688228239655 ) ) ;
#421 = ORIENTED_EDGE ( 'NONE', *, *, #511, .T. ) ;
#422 = CIRCLE ( 'NONE', #157, 2.125000000000001776 ) ;
#423 = LINE ( 'NONE', #32, #177 ) ;
#424 = ORIENTED_EDGE ( 'NONE', *, *, #407, .T. ) ;
#425 = CARTESIAN_POINT ( 'NONE',  ( -1.587500000000000355, -1.061392899156297753, -113.3114367738518240 ) ) ;
#426 = ORIENTED_EDGE ( 'NONE', *, *, #530, .F. ) ;
#427 = B_SPLINE_CURVE_WITH_KNOTS ( 'NONE', 3,
 ( #325, #24, #504, #189, #320, #469 ),
 .UNSPECIFIED., .F., .F.,
 ( 4, 2, 4 ),
 ( 0.000000000000000000, 0.0006365870327257429958, 0.001273174065451485992 ),
 .UNSPECIFIED. ) ;
#428 = DIRECTION ( 'NONE',  ( 0.000000000000000000, -1.000000000000000000, 0.000000000000000000 ) ) ;
#429 = ORIENTED_EDGE ( 'NONE', *, *, #137, .T. ) ;
#430 = CIRCLE ( 'NONE', #165, 1.245064030267288402 ) ;
#431 = SECURITY_CLASSIFICATION ( '', '', #415 ) ;
#432 = APPLICATION_CONTEXT ( 'configuration controlled 3d designs of mechanical parts and assemblies' ) ;
#433 = FACE_OUTER_BOUND ( 'NONE', #377, .T. ) ;
#434 = ORIENTED_EDGE ( 'NONE', *, *, #97, .F. ) ;
#435 = CARTESIAN_POINT ( 'NONE',  ( -0.4342314039556040006, -1.587500000000000355, 113.3828517174431880 ) ) ;
#436 = VERTEX_POINT ( 'NONE', #259 ) ;
#437 = B_SPLINE_CURVE_WITH_KNOTS ( 'NONE', 3,
 ( #268, #533, #455, #59, #497, #543 ),
 .UNSPECIFIED., .F., .F.,
 ( 4, 2, 4 ),
 ( 0.01485345774306979540, 0.01548163471194336643, 0.01610981168081693574 ),
 .UNSPECIFIED. ) ;
#438 = CARTESIAN_POINT ( 'NONE',  ( -1.268411506570322533, -1.587500000000000355, 113.2599191420979992 ) ) ;
#439 = ORIENTED_EDGE ( 'NONE', *, *, #100, .F. ) ;
#440 = EDGE_CURVE ( 'NONE', #545, #287, #342, .T. ) ;
#441 = AXIS2_PLACEMENT_3D ( 'NONE', #235, #416, #238 ) ;
#442 = CARTESIAN_POINT ( 'NONE',  ( 1.268411506570323866, -1.587500000000000355, -113.2599191421050620 ) ) ;
#443 = CARTESIAN_POINT ( 'NONE',  ( -1.268411506570323866, 1.587500000000000355, 113.2599191420979992 ) ) ;
#444 = CARTESIAN_POINT ( 'NONE',  ( 0.000000000000000000, 0.000000000000000000, 113.2599191420979992 ) ) ;
#445 = CARTESIAN_POINT ( 'NONE',  ( 1.587500000000000355, 0.000000000000000000, 113.3832273616928745 ) ) ;
#446 = PRODUCT_DEFINITION_SHAPE ( 'NONE', 'NONE',  #552 ) ;
#447 = FACE_OUTER_BOUND ( 'NONE', #2, .T. ) ;
#448 = CARTESIAN_POINT ( 'NONE',  ( 0.000000000000000000, 0.000000000000000000, -113.2599191420979992 ) ) ;
#449 = VECTOR ( 'NONE', #75, 1000.000000000000000 ) ;
#450 = LINE ( 'NONE', #11, #13 ) ;
#451 = LOCAL_TIME ( 15, 2, 49.00000000000000000, #367 ) ;
#452 = CARTESIAN_POINT ( 'NONE',  ( 1.587500000000000133, 1.061532360077853454, 113.3114020682936314 ) ) ;
#453 = CARTESIAN_POINT ( 'NONE',  ( -1.587500000000000355, 0.4276219574846448768, -113.3769963920000947 ) ) ;
#454 = EDGE_CURVE ( 'NONE', #195, #474, #87, .T. ) ;
#455 = CARTESIAN_POINT ( 'NONE',  ( 1.587500000000000577, -0.8514389605504931735, -113.3413675157792255 ) ) ;
#456 = PERSON_AND_ORGANIZATION_ROLE ( 'design_supplier' ) ;
#457 = FACE_OUTER_BOUND ( 'NONE', #477, .T. ) ;
#458 = CC_DESIGN_PERSON_AND_ORGANIZATION_ASSIGNMENT ( #282, #456, ( #294 ) ) ;
#459 = PERSON_AND_ORGANIZATION ( #338, #352 ) ;
#460 = CARTESIAN_POINT ( 'NONE',  ( 1.268411506570323866, -1.587500000000000355, 113.2599191420979992 ) ) ;
#461 = AXIS2_PLACEMENT_3D ( 'NONE', #348, #92, #521 ) ;
#462 = UNCERTAINTY_MEASURE_WITH_UNIT (LENGTH_MEASURE( 1.000000000000000082E-05 ), #328, 'distance_accuracy_value', 'NONE');
#463 = PERSON_AND_ORGANIZATION_ROLE ( 'design_owner' ) ;
#464 = DIRECTION ( 'NONE',  ( 1.000000000000000000, 0.000000000000000000, 0.000000000000000000 ) ) ;
#465 = DATE_TIME_ROLE ( 'creation_date' ) ;
#466 = CARTESIAN_POINT ( 'NONE',  ( 1.060147506033695786, 1.587500000000000577, -113.3117466962551987 ) ) ;
#467 = ORIENTED_EDGE ( 'NONE', *, *, #211, .T. ) ;
#468 = COORDINATED_UNIVERSAL_TIME_OFFSET ( 6, 0, .BEHIND. ) ;
#469 = CARTESIAN_POINT ( 'NONE',  ( 1.587500000000000355, -1.268411506570322533, 113.2599191420979992 ) ) ;
#470 = VECTOR ( 'NONE', #73, 1000.000000000000000 ) ;
#471 = CARTESIAN_POINT ( 'NONE',  ( -1.587500000000000355, -1.944126793646423534E-16, 113.3832273616928745 ) ) ;
#472 = ORIENTED_EDGE ( 'NONE', *, *, #199, .F. ) ;
#473 = CARTESIAN_POINT ( 'NONE',  ( 0.000000000000000000, 0.000000000000000000, 113.2599191420979992 ) ) ;
#474 = VERTEX_POINT ( 'NONE', #442 ) ;
#475 = CC_DESIGN_DATE_AND_TIME_ASSIGNMENT ( #496, #465, ( #552 ) ) ;
#476 = FACE_OUTER_BOUND ( 'NONE', #414, .T. ) ;
#477 = EDGE_LOOP ( 'NONE', ( #19, #424, #255, #246 ) ) ;
#478 = CARTESIAN_POINT ( 'NONE',  ( -1.268411506570322533, -1.587500000000000355, 113.2599191420979992 ) ) ;
#479 = VERTEX_POINT ( 'NONE', #264 ) ;
#480 = DIRECTION ( 'NONE',  ( -1.000000000000000000, 0.000000000000000000, 0.000000000000000000 ) ) ;
#481 = EDGE_LOOP ( 'NONE', ( #119, #517, #181, #122 ) ) ;
#482 = DIRECTION ( 'NONE',  ( 0.000000000000000000, 0.000000000000000000, -1.000000000000000000 ) ) ;
#483 = B_SPLINE_CURVE_WITH_KNOTS ( 'NONE', 3,
 ( #245, #560, #196, #158, #425, #519 ),
 .UNSPECIFIED., .F., .F.,
 ( 4, 2, 4 ),
 ( 1.905938025164286877E-19, 0.0006365870327252485996, 0.001273174065450496982 ),
 .UNSPECIFIED. ) ;
#484 = ORIENTED_EDGE ( 'NONE', *, *, #46, .T. ) ;
#485 = TOROIDAL_SURFACE ( 'NONE', #208, 1.245064030267288402, 2.125000000000001776 ) ;
#486 = CARTESIAN_POINT ( 'NONE',  ( 0.000000000000000000, 0.000000000000000000, 111.2860000000000156 ) ) ;
#487 = ORIENTED_EDGE ( 'NONE', *, *, #373, .T. ) ;
#488 = DIRECTION ( 'NONE',  ( -1.000000000000000000, 0.000000000000000000, 0.000000000000000000 ) ) ;
#489 = CARTESIAN_POINT ( 'NONE',  ( 0.000000000000000000, 0.000000000000000000, -113.2599191420979992 ) ) ;
#490 = EDGE_CURVE ( 'NONE', #326, #179, #269, .T. ) ;
#491 = DIRECTION ( 'NONE',  ( 0.000000000000000000, 0.000000000000000000, -1.000000000000000000 ) ) ;
#492 = CARTESIAN_POINT ( 'NONE',  ( 1.587500000000000355, 1.268411506570323866, 113.2599191420979992 ) ) ;
#493 = CIRCLE ( 'NONE', #324, 1.245064030267288402 ) ;
#494 = FACE_OUTER_BOUND ( 'NONE', #481, .T. ) ;
#495 = CARTESIAN_POINT ( 'NONE',  ( 1.587500000000000355, -1.587500000000000355, 113.4110000000000156 ) ) ;
#496 = DATE_AND_TIME ( #370, #388 ) ;
#497 = CARTESIAN_POINT ( 'NONE',  ( 1.587500000000000355, -0.2114796877013866427, -113.3832273616928887 ) ) ;
#498 = DATE_TIME_ROLE ( 'classification_date' ) ;
#499 = CARTESIAN_POINT ( 'NONE',  ( -1.587500000000000355, -0.4276219574846448768, 113.3769963920000947 ) ) ;
#500 = CARTESIAN_POINT ( 'NONE',  ( 1.587500000000000355, 0.8513200635093568502, -113.3413775553182035 ) ) ;
#501 = AXIS2_PLACEMENT_3D ( 'NONE', #85, #254, #79 ) ;
#502 = ORIENTED_EDGE ( 'NONE', *, *, #304, .T. ) ;
#503 = EDGE_CURVE ( 'NONE', #76, #330, #48, .T. ) ;
#504 = CARTESIAN_POINT ( 'NONE',  ( 1.587500000000000577, -0.4277385810629848462, 113.3769865435831292 ) ) ;
#505 = ORIENTED_EDGE ( 'NONE', *, *, #172, .F. ) ;
#506 = CARTESIAN_POINT ( 'NONE',  ( 0.000000000000000000, 0.000000000000000000, 0.000000000000000000 ) ) ;
#507 = CARTESIAN_POINT ( 'NONE',  ( 0.4219230645622807918, 1.587500000000000799, -113.3773073035535930 ) ) ;
#508 = CARTESIAN_POINT ( 'NONE',  ( -1.268411506570323866, -1.587500000000000355, -113.4110000000000156 ) ) ;
#509 = AXIS2_PLACEMENT_3D ( 'NONE', #547, #153, #283 ) ;
#510 = CIRCLE ( 'NONE', #190, 2.032000000000000028 ) ;
#511 = EDGE_CURVE ( 'NONE', #322, #80, #450, .T. ) ;
#512 = DIRECTION ( 'NONE',  ( 0.000000000000000000, 0.000000000000000000, -1.000000000000000000 ) ) ;
#513 = VERTEX_POINT ( 'NONE', #178 ) ;
#514 = FACE_OUTER_BOUND ( 'NONE', #390, .T. ) ;
#515 = ORIENTED_EDGE ( 'NONE', *, *, #503, .F. ) ;
#516 = CARTESIAN_POINT ( 'NONE',  ( 1.268411506570323866, -1.587500000000000355, 113.2599191420979992 ) ) ;
#517 = ORIENTED_EDGE ( 'NONE', *, *, #225, .T. ) ;
#518 = LOCAL_TIME ( 15, 2, 49.00000000000000000, #27 ) ;
#519 = CARTESIAN_POINT ( 'NONE',  ( -1.587500000000000355, -1.268411506570323866, -113.2599191421050620 ) ) ;
#520 = VERTEX_POINT ( 'NONE', #303 ) ;
#521 = DIRECTION ( 'NONE',  ( 1.000000000000000000, 0.000000000000000000, 0.000000000000000000 ) ) ;
#522 = ORIENTED_EDGE ( 'NONE', *, *, #252, .F. ) ;
#523 = DIRECTION ( 'NONE',  ( -1.000000000000000000, 0.000000000000000000, -0.000000000000000000 ) ) ;
#524 = CARTESIAN_POINT ( 'NONE',  ( 0.8571092511719576867, 1.587500000000000799, 113.3622737970627981 ) ) ;
#525 = AXIS2_PLACEMENT_3D ( 'NONE', #444, #482, #180 ) ;
#526 = CARTESIAN_POINT ( 'NONE',  ( 0.000000000000000000, 0.000000000000000000, -113.4110000000000156 ) ) ;
#527 = CARTESIAN_POINT ( 'NONE',  ( 1.268411506570322533, 1.587500000000000355, 113.2599191420979992 ) ) ;
#528 = DESIGN_CONTEXT ( 'detailed design', #432, 'design' ) ;
#529 = CARTESIAN_POINT ( 'NONE',  ( 1.245064030267288402, 0.000000000000000000, 113.4110000000000156 ) ) ;
#530 = EDGE_CURVE ( 'NONE', #161, #43, #493, .T. ) ;
#531 = DIRECTION ( 'NONE',  ( -0.000000000000000000, -0.000000000000000000, 1.000000000000000000 ) ) ;
#532 = DIRECTION ( 'NONE',  ( 1.224646799147353207E-16, -1.000000000000000000, 0.000000000000000000 ) ) ;
#533 = CARTESIAN_POINT ( 'NONE',  ( 1.587500000000000133, -1.061532360077853454, -113.3114020682936314 ) ) ;
#534 = CALENDAR_DATE ( 2022, 6, 6 ) ;
#535 = CARTESIAN_POINT ( 'NONE',  ( -1.587500000000000355, 1.587500000000000355, 113.4110000000000156 ) ) ;
#536 = ORIENTED_EDGE ( 'NONE', *, *, #151, .F. ) ;
#537 = B_SPLINE_CURVE_WITH_KNOTS ( 'NONE', 3,
 ( #57, #175, #351, #134, #226, #403, #524, #527 ),
 .UNSPECIFIED., .F., .F.,
 ( 4, 2, 2, 4 ),
 ( 0.01485345774306979540, 0.01548583974386945165, 0.01611822174466910965, 0.01738298574626842216 ),
 .UNSPECIFIED. ) ;
#538 = CALENDAR_DATE ( 2022, 6, 6 ) ;
#539 = CARTESIAN_POINT ( 'NONE',  ( -1.587500000000000355, -0.2114796877013866427, 113.3832273616928887 ) ) ;
#540 = APPROVAL_STATUS ( 'not_yet_approved' ) ;
#541 = AXIS2_PLACEMENT_3D ( 'NONE', #495, #99, #183 ) ;
#542 = CIRCLE ( 'NONE', #128, 2.032000000000000028 ) ;
#543 = CARTESIAN_POINT ( 'NONE',  ( 1.587500000000000355, 0.000000000000000000, -113.3832273616928745 ) ) ;
#544 = ADVANCED_FACE ( 'NONE', ( #392 ), #81, .T. ) ;
#545 = VERTEX_POINT ( 'NONE', #50 ) ;
#546 = COORDINATED_UNIVERSAL_TIME_OFFSET ( 6, 0, .BEHIND. ) ;
#547 = CARTESIAN_POINT ( 'NONE',  ( -1.587500000000000355, 1.587500000000000355, 113.4110000000000156 ) ) ;
#548 = ORIENTED_EDGE ( 'NONE', *, *, #45, .T. ) ;
#549 = EDGE_CURVE ( 'NONE', #330, #326, #5, .T. ) ;
#550 = CARTESIAN_POINT ( 'NONE',  ( 1.245064030267288402, 0.000000000000000000, 111.2860000000000156 ) ) ;
#551 = ORIENTED_EDGE ( 'NONE', *, *, #172, .T. ) ;
#552 = PRODUCT_DEFINITION ( 'UNKNOWN', '', #294, #528 ) ;
#553 = DATE_AND_TIME ( #148, #451 ) ;
#554 = ADVANCED_FACE ( 'NONE', ( #56 ), #350, .T. ) ;
#555 = CARTESIAN_POINT ( 'NONE',  ( 0.4219230645619455045, -1.587500000000000133, 113.3773073035536356 ) ) ;
#556 = EDGE_LOOP ( 'NONE', ( #95, #40, #250, #112, #551, #487 ) ) ;
#557 = AXIS2_PLACEMENT_3D ( 'NONE', #353, #129, #488 ) ;
#558 = CARTESIAN_POINT ( 'NONE',  ( -1.587500000000000355, 0.8513200635100124369, 113.3413775553181466 ) ) ;
#559 = ORIENTED_EDGE ( 'NONE', *, *, #297, .T. ) ;
#560 = CARTESIAN_POINT ( 'NONE',  ( -1.587500000000000133, -0.2143109880594543937, -113.3832273616928461 ) ) ;
#561 = EDGE_LOOP ( 'NONE', ( #205, #341, #515, #114 ) ) ;
ENDSEC;
END-ISO-10303-21;
