ISO-10303-21;
HEADER;
FILE_DESCRIPTION (( 'STEP AP203' ),
    '1' );
FILE_NAME ('228-2500-328.step',
    '2022-06-06T20:13:08',
    ( '' ),
    ( '' ),
    'SwSTEP 2.0',
    'SolidWorks 2021',
    '' );
FILE_SCHEMA (( 'CONFIG_CONTROL_DESIGN' ));
ENDSEC;

DATA;
#1 = CARTESIAN_POINT ( 'NONE',  ( 1.587500000000000355, 0.000000000000000000, 2.258227361692866086 ) ) ;
#2 = APPROVAL_STATUS ( 'not_yet_approved' ) ;
#3 = CYLINDRICAL_SURFACE ( 'NONE', #693, 2.032000000000000028 ) ;
#4 = ADVANCED_FACE ( 'NONE', ( #616 ), #293, .F. ) ;
#5 = EDGE_LOOP ( 'NONE', ( #449, #1267, #217, #1213, #25, #44, #1117, #687, #213, #1227, #481, #513 ) ) ;
#6 = CARTESIAN_POINT ( 'NONE',  ( -1.524999999999996358, -2.176620249263474083, -14.98599999999999710 ) ) ;
#7 = ADVANCED_FACE ( 'NONE', ( #1315 ), #1201, .F. ) ;
#8 = DIRECTION ( 'NONE',  ( 0.000000000000000000, 0.000000000000000000, 1.000000000000000000 ) ) ;
#9 = AXIS2_PLACEMENT_3D ( 'NONE', #526, #648, #1230 ) ;
#10 = PERSON_AND_ORGANIZATION ( #1240, #675 ) ;
#11 = DIRECTION ( 'NONE',  ( -0.08715574274765822138, 0.000000000000000000, 0.9961946980917455452 ) ) ;
#12 = ORIENTED_EDGE ( 'NONE', *, *, #771, .F. ) ;
#13 = ORIENTED_EDGE ( 'NONE', *, *, #863, .T. ) ;
#14 = DIRECTION ( 'NONE',  ( 0.000000000000000000, 1.665334536937735304E-16, -1.000000000000000000 ) ) ;
#15 = ADVANCED_FACE ( 'NONE', ( #922 ), #1195, .F. ) ;
#16 = CARTESIAN_POINT ( 'NONE',  ( 1.587500000000000355, 0.000000000000000000, 2.258227361692866086 ) ) ;
#17 = COORDINATED_UNIVERSAL_TIME_OFFSET ( 6, 0, .BEHIND. ) ;
#18 = DIRECTION ( 'NONE',  ( 0.000000000000000000, 0.000000000000000000, 1.000000000000000000 ) ) ;
#19 = FACE_OUTER_BOUND ( 'NONE', #365, .T. ) ;
#20 = ORIENTED_EDGE ( 'NONE', *, *, #254, .F. ) ;
#21 = LINE ( 'NONE', #6, #499 ) ;
#22 = CARTESIAN_POINT ( 'NONE',  ( -1.268411506570323866, -1.587500000000000355, -9.525000000000000355 ) ) ;
#23 = CARTESIAN_POINT ( 'NONE',  ( 1.891269295326085897, 0.7430507738753627800, -15.19746567625240630 ) ) ;
#24 = DIRECTION ( 'NONE',  ( 1.000000000000000000, 0.000000000000000000, 0.000000000000000000 ) ) ;
#25 = ORIENTED_EDGE ( 'NONE', *, *, #913, .F. ) ;
#26 = LINE ( 'NONE', #305, #390 ) ;
#27 = CARTESIAN_POINT ( 'NONE',  ( 0.000000000000000000, 0.000000000000000000, -3.175000000000000711 ) ) ;
#28 = CIRCLE ( 'NONE', #221, 2.399999999999999911 ) ;
#29 = DIRECTION ( 'NONE',  ( 0.000000000000000000, 1.665334536937735304E-16, -1.000000000000000000 ) ) ;
#30 = EDGE_CURVE ( 'NONE', #876, #186, #199, .T. ) ;
#31 = VECTOR ( 'NONE', #747, 1000.000000000000000 ) ;
#32 = VECTOR ( 'NONE', #315, 1000.000000000000000 ) ;
#33 = PLANE ( 'NONE',  #480 ) ;
#34 = ORIENTED_EDGE ( 'NONE', *, *, #493, .F. ) ;
#35 = EDGE_CURVE ( 'NONE', #809, #713, #1111, .T. ) ;
#36 = CARTESIAN_POINT ( 'NONE',  ( 1.587500000000000355, 1.268411506570323866, -3.174999999999999822 ) ) ;
#37 = FACE_OUTER_BOUND ( 'NONE', #891, .T. ) ;
#38 = B_SPLINE_CURVE_WITH_KNOTS ( 'NONE', 3,
 ( #618, #494, #198, #893, #1298, #1 ),
 .UNSPECIFIED., .F., .F.,
 ( 4, 2, 4 ),
 ( 0.01485345774306979366, 0.01548163471194336296, 0.01610981168081693227 ),
 .UNSPECIFIED. ) ;
#39 = LINE ( 'NONE', #926, #677 ) ;
#40 = FACE_BOUND ( 'NONE', #887, .T. ) ;
#41 = DIRECTION ( 'NONE',  ( -0.000000000000000000, -0.000000000000000000, 1.000000000000000000 ) ) ;
#42 = EDGE_LOOP ( 'NONE', ( #76, #907, #158, #1166 ) ) ;
#43 = CARTESIAN_POINT ( 'NONE',  ( 0.000000000000000000, 0.000000000000000000, -10.41399999999999970 ) ) ;
#44 = ORIENTED_EDGE ( 'NONE', *, *, #230, .F. ) ;
#45 = CARTESIAN_POINT ( 'NONE',  ( -1.268411506570323866, -1.587500000000000355, 2.134919142097984057 ) ) ;
#46 = CARTESIAN_POINT ( 'NONE',  ( -0.4980973490458727726, 1.587500000000000355, -12.93142212862616880 ) ) ;
#47 = EDGE_LOOP ( 'NONE', ( #914, #821, #13, #608 ) ) ;
#48 = CARTESIAN_POINT ( 'NONE',  ( 1.268411506570323866, -1.587500000000000355, -15.72499999999999964 ) ) ;
#49 = EDGE_CURVE ( 'NONE', #974, #90, #207, .T. ) ;
#50 = DIRECTION ( 'NONE',  ( 0.000000000000000000, 1.665334536937735304E-16, -1.000000000000000000 ) ) ;
#51 = VERTEX_POINT ( 'NONE', #705 ) ;
#52 = AXIS2_PLACEMENT_3D ( 'NONE', #850, #954, #766 ) ;
#53 = CARTESIAN_POINT ( 'NONE',  ( -0.3499999999999999778, -1.526050000000000351, -14.72499999999999787 ) ) ;
#54 = VECTOR ( 'NONE', #1153, 1000.000000000000000 ) ;
#55 = DIRECTION ( 'NONE',  ( 5.421010862427522786E-17, -1.665334536937735304E-16, 1.000000000000000000 ) ) ;
#56 = VECTOR ( 'NONE', #528, 1000.000000000000000 ) ;
#57 = AXIS2_PLACEMENT_3D ( 'NONE', #856, #669, #1059 ) ;
#58 = VERTEX_POINT ( 'NONE', #105 ) ;
#59 = DESIGN_CONTEXT ( 'detailed design', #446, 'design' ) ;
#60 = DIRECTION ( 'NONE',  ( 0.000000000000000000, 1.665334536937735304E-16, -1.000000000000000000 ) ) ;
#61 = ADVANCED_FACE ( 'NONE', ( #912 ), #3, .T. ) ;
#62 = CARTESIAN_POINT ( 'NONE',  ( 0.6550150799420408898, -1.587500000000000355, -14.72499999999999787 ) ) ;
#63 = LINE ( 'NONE', #472, #369 ) ;
#64 = LINE ( 'NONE', #341, #501 ) ;
#65 = EDGE_LOOP ( 'NONE', ( #543, #700, #664, #681 ) ) ;
#66 = CARTESIAN_POINT ( 'NONE',  ( 0.000000000000000000, 0.000000000000000000, -3.974999999999999201 ) ) ;
#67 = ADVANCED_FACE ( 'NONE', ( #110 ), #1188, .T. ) ;
#68 = EDGE_LOOP ( 'NONE', ( #1054, #960, #535, #578 ) ) ;
#69 = CARTESIAN_POINT ( 'NONE',  ( 0.4980973490458727726, -1.526050000000000573, -12.93142212862616880 ) ) ;
#70 = CARTESIAN_POINT ( 'NONE',  ( -0.3499999999999999778, -1.526050000000000351, -14.72499999999999787 ) ) ;
#71 =( GEOMETRIC_REPRESENTATION_CONTEXT ( 3 ) GLOBAL_UNCERTAINTY_ASSIGNED_CONTEXT ( ( #966 ) ) GLOBAL_UNIT_ASSIGNED_CONTEXT ( ( #792, #896, #1312 ) ) REPRESENTATION_CONTEXT ( 'NONE', 'WORKASPACE' ) );
#72 = AXIS2_PLACEMENT_3D ( 'NONE', #155, #181, #886 ) ;
#73 = EDGE_CURVE ( 'NONE', #575, #1123, #419, .T. ) ;
#74 = VECTOR ( 'NONE', #774, 1000.000000000000000 ) ;
#75 = ORIENTED_EDGE ( 'NONE', *, *, #442, .F. ) ;
#76 = ORIENTED_EDGE ( 'NONE', *, *, #1290, .F. ) ;
#77 = CARTESIAN_POINT ( 'NONE',  ( 0.000000000000000000, 0.000000000000000000, 2.134919142097984057 ) ) ;
#78 = EDGE_LOOP ( 'NONE', ( #965, #508, #82, #957 ) ) ;
#79 = CARTESIAN_POINT ( 'NONE',  ( -0.3499999999999999778, -1.587500000000000355, -14.72499999999999787 ) ) ;
#80 = CARTESIAN_POINT ( 'NONE',  ( 1.245064030267292177, 0.000000000000000000, 2.286000000000000032 ) ) ;
#81 = ORIENTED_EDGE ( 'NONE', *, *, #401, .F. ) ;
#82 = ORIENTED_EDGE ( 'NONE', *, *, #1068, .F. ) ;
#83 = DIRECTION ( 'NONE',  ( 0.000000000000000000, -0.000000000000000000, 1.000000000000000000 ) ) ;
#84 = ORIENTED_EDGE ( 'NONE', *, *, #763, .T. ) ;
#85 = CARTESIAN_POINT ( 'NONE',  ( -1.524999999999996358, 1.342906921569775092, -14.98599999999999710 ) ) ;
#86 = ORIENTED_EDGE ( 'NONE', *, *, #1104, .F. ) ;
#87 = EDGE_CURVE ( 'NONE', #974, #487, #138, .T. ) ;
#88 = ORIENTED_EDGE ( 'NONE', *, *, #1269, .F. ) ;
#89 = DIRECTION ( 'NONE',  ( 0.000000000000000000, 1.665334536937735304E-16, -1.000000000000000000 ) ) ;
#90 = VERTEX_POINT ( 'NONE', #233 ) ;
#91 = CARTESIAN_POINT ( 'NONE',  ( 0.000000000000000000, 0.000000000000000000, -9.525000000000000355 ) ) ;
#92 = VERTEX_POINT ( 'NONE', #646 ) ;
#93 = AXIS2_PLACEMENT_3D ( 'NONE', #336, #418, #1014 ) ;
#94 = VERTEX_POINT ( 'NONE', #332 ) ;
#95 = CARTESIAN_POINT ( 'NONE',  ( 1.268411506570323866, 1.587500000000000355, -10.41399999999999970 ) ) ;
#96 = AXIS2_PLACEMENT_3D ( 'NONE', #343, #426, #833 ) ;
#97 = CC_DESIGN_PERSON_AND_ORGANIZATION_ASSIGNMENT ( #904, #624, ( #776 ) ) ;
#98 = AXIS2_PLACEMENT_3D ( 'NONE', #758, #60, #967 ) ;
#99 = DATE_AND_TIME ( #732, #1218 ) ;
#100 = CARTESIAN_POINT ( 'NONE',  ( -0.6550150799420408898, -1.526050000000000351, -14.72499999999999787 ) ) ;
#101 = ORIENTED_EDGE ( 'NONE', *, *, #1290, .T. ) ;
#102 = DIRECTION ( 'NONE',  ( -0.000000000000000000, -0.000000000000000000, 1.000000000000000000 ) ) ;
#103 = DIRECTION ( 'NONE',  ( 1.000000000000000000, 0.000000000000000000, 0.000000000000000000 ) ) ;
#104 = ADVANCED_FACE ( 'NONE', ( #40, #557 ), #33, .T. ) ;
#105 = CARTESIAN_POINT ( 'NONE',  ( -1.245064030267292177, 2.006622987633882228E-16, 2.286000000000000032 ) ) ;
#106 =( BOUNDED_CURVE ( )  B_SPLINE_CURVE ( 3, ( #250, #654, #943, #662 ),
 .UNSPECIFIED., .F., .F. ) 
 B_SPLINE_CURVE_WITH_KNOTS ( ( 4, 4 ),
 ( 0.3743574903972279322, 0.8229831364063004973 ),
 .UNSPECIFIED. ) 
 CURVE ( )  GEOMETRIC_REPRESENTATION_ITEM ( )  RATIONAL_B_SPLINE_CURVE ( ( 1.000000000000000000, 0.9832981269744257569, 0.9832981269744257569, 1.000000000000000000 ) ) 
 REPRESENTATION_ITEM ( '' )  );
#107 = DIRECTION ( 'NONE',  ( -1.000000000000000000, 0.000000000000000000, 0.000000000000000000 ) ) ;
#108 = PLANE ( 'NONE',  #615 ) ;
#109 = COORDINATED_UNIVERSAL_TIME_OFFSET ( 6, 0, .BEHIND. ) ;
#110 = FACE_OUTER_BOUND ( 'NONE', #829, .T. ) ;
#111 = ADVANCED_FACE ( 'NONE', ( #534, #1051 ), #1135, .T. ) ;
#112 = CLOSED_SHELL ( 'NONE', ( #531, #309, #507, #111, #750, #1253, #947, #566, #67, #15, #786, #61, #378, #824, #706, #104, #949, #149, #1158, #1081, #538, #229, #1121, #7, #651, #4, #785, #324, #364, #404, #626, #505, #424, #855, #1058, #812, #1203, #350, #1200 ) ) ;
#113 = FACE_OUTER_BOUND ( 'NONE', #5, .T. ) ;
#114 =( BOUNDED_CURVE ( )  B_SPLINE_CURVE ( 3, ( #1131, #383, #1076, #1286 ),
 .UNSPECIFIED., .F., .T. ) 
 B_SPLINE_CURVE_WITH_KNOTS ( ( 4, 4 ),
 ( 5.460202170773285957, 5.908827816782359577 ),
 .UNSPECIFIED. ) 
 CURVE ( )  GEOMETRIC_REPRESENTATION_ITEM ( )  RATIONAL_B_SPLINE_CURVE ( ( 1.000000000000000000, 0.9832981269744256458, 0.9832981269744256458, 1.000000000000000000 ) ) 
 REPRESENTATION_ITEM ( '' )  );
#115 = VECTOR ( 'NONE', #642, 1000.000000000000000 ) ;
#116 = VECTOR ( 'NONE', #899, 1000.000000000000000 ) ;
#117 = CARTESIAN_POINT ( 'NONE',  ( 1.891269295326085897, 1.526000000000004020, -15.19746567625240630 ) ) ;
#118 = AXIS2_PLACEMENT_3D ( 'NONE', #43, #1265, #1271 ) ;
#119 = DATE_AND_TIME ( #619, #520 ) ;
#120 = LINE ( 'NONE', #331, #56 ) ;
#121 = DIRECTION ( 'NONE',  ( -0.000000000000000000, -0.000000000000000000, 1.000000000000000000 ) ) ;
#122 = ORIENTED_EDGE ( 'NONE', *, *, #73, .F. ) ;
#123 = DIRECTION ( 'NONE',  ( 1.000000000000000000, 0.000000000000000000, 0.000000000000000000 ) ) ;
#124 = DIRECTION ( 'NONE',  ( 1.000000000000000000, 0.000000000000000000, 0.000000000000000000 ) ) ;
#125 = PERSON_AND_ORGANIZATION_ROLE ( 'creator' ) ;
#126 = PLANE ( 'NONE',  #1239 ) ;
#127 = DIRECTION ( 'NONE',  ( 0.000000000000000000, 1.000000000000000000, 0.000000000000000000 ) ) ;
#128 = ORIENTED_EDGE ( 'NONE', *, *, #451, .T. ) ;
#129 = CARTESIAN_POINT ( 'NONE',  ( 0.000000000000000000, 1.734723475976807094E-15, -15.72499999999999964 ) ) ;
#130 = EDGE_CURVE ( 'NONE', #240, #1288, #1255, .T. ) ;
#131 = DIRECTION ( 'NONE',  ( 0.000000000000000000, 0.000000000000000000, -1.000000000000000000 ) ) ;
#132 = EDGE_CURVE ( 'NONE', #453, #487, #948, .T. ) ;
#133 = EDGE_CURVE ( 'NONE', #92, #283, #917, .T. ) ;
#134 = CARTESIAN_POINT ( 'NONE',  ( 2.399999999999999911, 0.000000000000000000, -3.974999999999999201 ) ) ;
#135 = CARTESIAN_POINT ( 'NONE',  ( -0.9192388155425111895, -0.9192388155425108565, -3.174999999999999822 ) ) ;
#136 = VERTEX_POINT ( 'NONE', #46 ) ;
#137 = PLANE ( 'NONE',  #715 ) ;
#138 = CIRCLE ( 'NONE', #541, 2.032000000000000028 ) ;
#139 = FACE_OUTER_BOUND ( 'NONE', #634, .T. ) ;
#140 = AXIS2_PLACEMENT_3D ( 'NONE', #209, #1132, #1211 ) ;
#141 = CARTESIAN_POINT ( 'NONE',  ( 1.268411506570323866, -1.587500000000000355, -3.174999999999999822 ) ) ;
#142 = CIRCLE ( 'NONE', #861, 2.032000000000000028 ) ;
#143 = ORIENTED_EDGE ( 'NONE', *, *, #1185, .F. ) ;
#144 = CARTESIAN_POINT ( 'NONE',  ( 0.000000000000000000, 0.000000000000000000, -10.41399999999999970 ) ) ;
#145 = PLANE ( 'NONE',  #57 ) ;
#146 = LINE ( 'NONE', #865, #1086 ) ;
#147 = EDGE_CURVE ( 'NONE', #942, #509, #550, .T. ) ;
#148 = CARTESIAN_POINT ( 'NONE',  ( -1.268411506570323866, -1.587500000000000355, -10.41399999999999970 ) ) ;
#149 = ADVANCED_FACE ( 'NONE', ( #641 ), #253, .T. ) ;
#150 = ORIENTED_EDGE ( 'NONE', *, *, #1163, .F. ) ;
#151 = DIRECTION ( 'NONE',  ( 1.000000000000000000, -1.421904488505577929E-16, -0.000000000000000000 ) ) ;
#152 = DIRECTION ( 'NONE',  ( -0.000000000000000000, -0.000000000000000000, 1.000000000000000000 ) ) ;
#153 = ORIENTED_EDGE ( 'NONE', *, *, #888, .T. ) ;
#154 = DIRECTION ( 'NONE',  ( -0.000000000000000000, -0.000000000000000000, 1.000000000000000000 ) ) ;
#155 = CARTESIAN_POINT ( 'NONE',  ( 0.000000000000000000, 0.000000000000000000, 5.949122102386183997 ) ) ;
#156 = EDGE_LOOP ( 'NONE', ( #719, #218, #318, #197 ) ) ;
#157 = CARTESIAN_POINT ( 'NONE',  ( -2.049999999999999822, 2.510525938252073693E-16, -3.975000000025374902 ) ) ;
#158 = ORIENTED_EDGE ( 'NONE', *, *, #1309, .T. ) ;
#159 = CARTESIAN_POINT ( 'NONE',  ( 1.525000000000004574, 1.342906921569766876, -14.98599999999999888 ) ) ;
#160 =( BOUNDED_CURVE ( )  B_SPLINE_CURVE ( 3, ( #756, #448, #1140, #427 ),
 .UNSPECIFIED., .F., .F. ) 
 B_SPLINE_CURVE_WITH_KNOTS ( ( 4, 4 ),
 ( 0.3743574903972279322, 0.8229831364063011634 ),
 .UNSPECIFIED. ) 
 CURVE ( )  GEOMETRIC_REPRESENTATION_ITEM ( )  RATIONAL_B_SPLINE_CURVE ( ( 1.000000000000000000, 0.9832981269744257569, 0.9832981269744257569, 1.000000000000000000 ) ) 
 REPRESENTATION_ITEM ( '' )  );
#161 = CIRCLE ( 'NONE', #898, 2.399999999999999911 ) ;
#162 = LINE ( 'NONE', #788, #695 ) ;
#163 = VECTOR ( 'NONE', #1066, 1000.000000000000000 ) ;
#164 = ORIENTED_EDGE ( 'NONE', *, *, #308, .T. ) ;
#165 = DIRECTION ( 'NONE',  ( -0.6946583704589996966, 1.197941413297846907E-16, -0.7193398003386489714 ) ) ;
#166 = VERTEX_POINT ( 'NONE', #323 ) ;
#167 = CARTESIAN_POINT ( 'NONE',  ( 1.060147506033616738, -1.587500000000000133, 2.186746696255179589 ) ) ;
#168 = B_SPLINE_CURVE_WITH_KNOTS ( 'NONE', 3,
 ( #16, #825, #837, #1012, #643, #639 ),
 .UNSPECIFIED., .F., .F.,
 ( 4, 2, 4 ),
 ( 6.018217689223253990E-20, 0.0006365870327257439716, 0.001273174065451487726 ),
 .UNSPECIFIED. ) ;
#169 = DIRECTION ( 'NONE',  ( -1.000000000000000000, 0.000000000000000000, -0.000000000000000000 ) ) ;
#170 = ORIENTED_EDGE ( 'NONE', *, *, #442, .T. ) ;
#171 = CARTESIAN_POINT ( 'NONE',  ( -1.268411506570323866, 1.587500000000000355, 2.134919142097984057 ) ) ;
#172 = VERTEX_POINT ( 'NONE', #858 ) ;
#173 = CARTESIAN_POINT ( 'NONE',  ( -0.6550150799420408898, 1.587500000000000355, -14.72499999999999787 ) ) ;
#174 = EDGE_CURVE ( 'NONE', #58, #273, #841, .T. ) ;
#175 = CYLINDRICAL_SURFACE ( 'NONE', #72, 2.399999999999999911 ) ;
#176 = ORIENTED_EDGE ( 'NONE', *, *, #254, .T. ) ;
#177 = ORIENTED_EDGE ( 'NONE', *, *, #1023, .T. ) ;
#178 = DIRECTION ( 'NONE',  ( -1.000000000000000000, 0.000000000000000000, 0.000000000000000000 ) ) ;
#179 = CARTESIAN_POINT ( 'NONE',  ( 0.000000000000000000, 0.000000000000000000, 2.134919142097984057 ) ) ;
#180 = VECTOR ( 'NONE', #540, 1000.000000000000000 ) ;
#181 = DIRECTION ( 'NONE',  ( -0.000000000000000000, -0.000000000000000000, 1.000000000000000000 ) ) ;
#182 = AXIS2_PLACEMENT_3D ( 'NONE', #959, #363, #55 ) ;
#183 = VECTOR ( 'NONE', #1089, 1000.000000000000000 ) ;
#184 = EDGE_LOOP ( 'NONE', ( #1303, #150, #473, #189, #659, #969 ) ) ;
#185 = AXIS2_PLACEMENT_3D ( 'NONE', #580, #50, #975 ) ;
#186 = VERTEX_POINT ( 'NONE', #148 ) ;
#187 = CARTESIAN_POINT ( 'NONE',  ( -1.268411506570323866, 1.587500000000000355, -9.525000000000000355 ) ) ;
#188 = DIRECTION ( 'NONE',  ( -0.000000000000000000, -0.000000000000000000, 1.000000000000000000 ) ) ;
#189 = ORIENTED_EDGE ( 'NONE', *, *, #204, .T. ) ;
#190 = EDGE_CURVE ( 'NONE', #1287, #729, #1248, .T. ) ;
#191 = ORIENTED_EDGE ( 'NONE', *, *, #871, .F. ) ;
#192 = DIRECTION ( 'NONE',  ( 0.000000000000000000, 1.000000000000000000, 0.000000000000000000 ) ) ;
#193 = ORIENTED_EDGE ( 'NONE', *, *, #87, .T. ) ;
#194 = DIRECTION ( 'NONE',  ( -0.000000000000000000, -0.000000000000000000, 1.000000000000000000 ) ) ;
#195 = DIRECTION ( 'NONE',  ( -0.000000000000000000, -0.000000000000000000, 1.000000000000000000 ) ) ;
#196 = ORIENTED_EDGE ( 'NONE', *, *, #871, .T. ) ;
#197 = ORIENTED_EDGE ( 'NONE', *, *, #724, .T. ) ;
#198 = CARTESIAN_POINT ( 'NONE',  ( 1.587500000000000577, 0.8514389605504949499, 2.216367515779202879 ) ) ;
#199 = LINE ( 'NONE', #402, #1063 ) ;
#200 = VECTOR ( 'NONE', #915, 1000.000000000000000 ) ;
#201 = ORIENTED_EDGE ( 'NONE', *, *, #823, .T. ) ;
#202 = LINE ( 'NONE', #486, #353 ) ;
#203 = VECTOR ( 'NONE', #623, 1000.000000000000000 ) ;
#204 = EDGE_CURVE ( 'NONE', #667, #166, #160, .T. ) ;
#205 = VECTOR ( 'NONE', #686, 1000.000000000000000 ) ;
#206 = LINE ( 'NONE', #488, #1305 ) ;
#207 = LINE ( 'NONE', #1009, #980 ) ;
#208 = EDGE_LOOP ( 'NONE', ( #595, #170, #1210, #787 ) ) ;
#209 = CARTESIAN_POINT ( 'NONE',  ( -1.524999999999996358, -2.176620249263474083, -14.98599999999999710 ) ) ;
#210 = DIRECTION ( 'NONE',  ( 0.000000000000000000, 0.000000000000000000, -1.000000000000000000 ) ) ;
#211 = PERSON_AND_ORGANIZATION ( #1240, #675 ) ;
#212 = DIRECTION ( 'NONE',  ( -0.000000000000000000, -0.000000000000000000, 1.000000000000000000 ) ) ;
#213 = ORIENTED_EDGE ( 'NONE', *, *, #610, .F. ) ;
#214 = CARTESIAN_POINT ( 'NONE',  ( 0.000000000000000000, 1.734723475976807094E-15, -15.72499999999999964 ) ) ;
#215 = DIRECTION ( 'NONE',  ( -1.000000000000000000, 1.421904488505577929E-16, 0.000000000000000000 ) ) ;
#216 = CARTESIAN_POINT ( 'NONE',  ( -1.804730034320621845, 0.9633170772481906008, -15.14750221061542668 ) ) ;
#217 = ORIENTED_EDGE ( 'NONE', *, *, #1224, .F. ) ;
#218 = ORIENTED_EDGE ( 'NONE', *, *, #1222, .T. ) ;
#219 = CARTESIAN_POINT ( 'NONE',  ( 1.268411506570323866, 1.587500000000000355, 2.134919142097984057 ) ) ;
#220 = CC_DESIGN_APPROVAL ( #633, ( #776 ) ) ;
#221 = AXIS2_PLACEMENT_3D ( 'NONE', #466, #1270, #770 ) ;
#222 = DIRECTION ( 'NONE',  ( -1.000000000000000000, 0.000000000000000000, -0.000000000000000000 ) ) ;
#223 = SHAPE_DEFINITION_REPRESENTATION ( #1250, #601 ) ;
#224 = CARTESIAN_POINT ( 'NONE',  ( -1.891269295326085897, 0.7430507738753605596, -15.19746567625240630 ) ) ;
#225 = CARTESIAN_POINT ( 'NONE',  ( 0.000000000000000000, 0.000000000000000000, -3.174999999999999822 ) ) ;
#226 = B_SPLINE_CURVE_WITH_KNOTS ( 'NONE', 3,
 ( #692, #701, #394, #1304, #1000, #604 ),
 .UNSPECIFIED., .F., .F.,
 ( 4, 2, 4 ),
 ( 2.507759794086611193E-19, 0.0006365870327257439716, 0.001273174065451487726 ),
 .UNSPECIFIED. ) ;
#227 = ORIENTED_EDGE ( 'NONE', *, *, #1027, .F. ) ;
#228 = CARTESIAN_POINT ( 'NONE',  ( 1.891269295326085897, -0.7430507738753575619, -15.19746567625240630 ) ) ;
#229 = ADVANCED_FACE ( 'NONE', ( #19 ), #432, .F. ) ;
#230 = EDGE_CURVE ( 'NONE', #395, #51, #853, .T. ) ;
#231 = LINE ( 'NONE', #117, #31 ) ;
#232 = FACE_OUTER_BOUND ( 'NONE', #901, .T. ) ;
#233 = CARTESIAN_POINT ( 'NONE',  ( 1.268411506570323866, 1.587500000000000355, 2.134919142097984057 ) ) ;
#234 = VERTEX_POINT ( 'NONE', #1262 ) ;
#235 = CC_DESIGN_PERSON_AND_ORGANIZATION_ASSIGNMENT ( #506, #1314, ( #411 ) ) ;
#236 = FACE_OUTER_BOUND ( 'NONE', #393, .T. ) ;
#237 = DIRECTION ( 'NONE',  ( -0.000000000000000000, -0.000000000000000000, 1.000000000000000000 ) ) ;
#238 = CARTESIAN_POINT ( 'NONE',  ( -1.681401388273455533, 1.165298099032606727, -15.07629838362130847 ) ) ;
#239 = DIRECTION ( 'NONE',  ( 1.000000000000000000, -9.027796614315172167E-33, 5.421010862427522786E-17 ) ) ;
#240 = VERTEX_POINT ( 'NONE', #354 ) ;
#241 = CYLINDRICAL_SURFACE ( 'NONE', #1019, 2.049999999999999822 ) ;
#242 = CARTESIAN_POINT ( 'NONE',  ( -1.524999999999995026, 1.525000000000003686, -10.41399999999999970 ) ) ;
#243 = TOROIDAL_SURFACE ( 'NONE', #1001, 1.245064030267291511, 2.124999999999998224 ) ;
#244 = CIRCLE ( 'NONE', #779, 2.032000000000000028 ) ;
#245 = ORIENTED_EDGE ( 'NONE', *, *, #1185, .T. ) ;
#246 = CARTESIAN_POINT ( 'NONE',  ( 1.381835320557591951, -1.489817152156428959, -15.72499999999999964 ) ) ;
#247 = AXIS2_PLACEMENT_3D ( 'NONE', #939, #1125, #124 ) ;
#248 = DIRECTION ( 'NONE',  ( 1.000000000000000000, 0.000000000000000000, 0.000000000000000000 ) ) ;
#249 = EDGE_LOOP ( 'NONE', ( #529, #982 ) ) ;
#250 = CARTESIAN_POINT ( 'NONE',  ( -1.891269295326085897, -0.7430507738753595603, -15.19746567625240630 ) ) ;
#251 = CARTESIAN_POINT ( 'NONE',  ( 1.268411506570323866, 1.587500000000000355, -9.525000000000000355 ) ) ;
#252 = DIRECTION ( 'NONE',  ( 0.000000000000000000, 1.000000000000000000, 0.000000000000000000 ) ) ;
#253 = CYLINDRICAL_SURFACE ( 'NONE', #300, 2.049999999999999822 ) ;
#254 = EDGE_CURVE ( 'NONE', #1171, #795, #114, .T. ) ;
#255 = ORIENTED_EDGE ( 'NONE', *, *, #765, .T. ) ;
#256 = DIRECTION ( 'NONE',  ( -0.6946583704589996966, -1.197941413297846907E-16, 0.7193398003386489714 ) ) ;
#257 = ORIENTED_EDGE ( 'NONE', *, *, #1065, .T. ) ;
#258 = CARTESIAN_POINT ( 'NONE',  ( 1.779209975560490209, -1.028272670115989440, -15.31350649881243342 ) ) ;
#259 = LINE ( 'NONE', #275, #1149 ) ;
#260 = ORIENTED_EDGE ( 'NONE', *, *, #607, .F. ) ;
#261 = DIRECTION ( 'NONE',  ( 1.000000000000000000, 0.000000000000000000, 0.000000000000000000 ) ) ;
#262 = ORIENTED_EDGE ( 'NONE', *, *, #989, .T. ) ;
#263 = AXIS2_PLACEMENT_3D ( 'NONE', #1022, #121, #24 ) ;
#264 = CYLINDRICAL_SURFACE ( 'NONE', #1263, 2.032000000000000028 ) ;
#265 = CIRCLE ( 'NONE', #98, 2.032000000000000028 ) ;
#266 = ORIENTED_EDGE ( 'NONE', *, *, #564, .T. ) ;
#267 = EDGE_CURVE ( 'NONE', #928, #937, #877, .T. ) ;
#268 = CARTESIAN_POINT ( 'NONE',  ( -1.525000000000005906, -2.176620249263474083, -15.57674863457327064 ) ) ;
#269 = FACE_OUTER_BOUND ( 'NONE', #156, .T. ) ;
#270 = EDGE_CURVE ( 'NONE', #757, #273, #1043, .T. ) ;
#271 = ORIENTED_EDGE ( 'NONE', *, *, #1299, .T. ) ;
#272 = CARTESIAN_POINT ( 'NONE',  ( 0.3500000000000000333, -1.587500000000000355, -15.72499999999999964 ) ) ;
#273 = VERTEX_POINT ( 'NONE', #80 ) ;
#274 = LINE ( 'NONE', #1002, #116 ) ;
#275 = CARTESIAN_POINT ( 'NONE',  ( 0.3500000000000000333, -1.526050000000000129, -15.72499999999999964 ) ) ;
#276 = ORIENTED_EDGE ( 'NONE', *, *, #644, .T. ) ;
#277 = CARTESIAN_POINT ( 'NONE',  ( -1.587500000000000355, 1.944126793646423534E-16, 2.258227361692866086 ) ) ;
#278 = ORIENTED_EDGE ( 'NONE', *, *, #1144, .T. ) ;
#279 = DIRECTION ( 'NONE',  ( -0.000000000000000000, -0.000000000000000000, 1.000000000000000000 ) ) ;
#280 = VECTOR ( 'NONE', #169, 1000.000000000000000 ) ;
#281 = VERTEX_POINT ( 'NONE', #593 ) ;
#282 = CIRCLE ( 'NONE', #118, 2.032000000000000028 ) ;
#283 = VERTEX_POINT ( 'NONE', #478 ) ;
#284 = DIRECTION ( 'NONE',  ( 0.000000000000000000, 0.000000000000000000, -1.000000000000000000 ) ) ;
#285 = CARTESIAN_POINT ( 'NONE',  ( -1.524999999999995692, 1.342906921569776202, -10.41399999999999970 ) ) ;
#286 = EDGE_CURVE ( 'NONE', #795, #937, #162, .T. ) ;
#287 = DIRECTION ( 'NONE',  ( 0.000000000000000000, 1.000000000000000000, 0.000000000000000000 ) ) ;
#288 =( BOUNDED_CURVE ( )  B_SPLINE_CURVE ( 3, ( #1226, #827, #1254, #23 ),
 .UNSPECIFIED., .F., .F. ) 
 B_SPLINE_CURVE_WITH_KNOTS ( ( 4, 4 ),
 ( 2.419602744509506742, 2.767235163192566016 ),
 .UNSPECIFIED. ) 
 CURVE ( )  GEOMETRIC_REPRESENTATION_ITEM ( )  RATIONAL_B_SPLINE_CURVE ( ( 1.000000000000000000, 0.9899546376435814921, 0.9899546376435814921, 1.000000000000000000 ) ) 
 REPRESENTATION_ITEM ( '' )  );
#289 = VERTEX_POINT ( 'NONE', #1179 ) ;
#290 = CARTESIAN_POINT ( 'NONE',  ( -1.587500000000000577, -0.8514389605504949499, 2.216367515779202879 ) ) ;
#291 = DIRECTION ( 'NONE',  ( -0.000000000000000000, 1.665334536937735550E-16, -1.000000000000000000 ) ) ;
#292 = DATE_TIME_ROLE ( 'creation_date' ) ;
#293 = PLANE ( 'NONE',  #518 ) ;
#294 = EDGE_CURVE ( 'NONE', #240, #889, #1212, .T. ) ;
#295 = ORIENTED_EDGE ( 'NONE', *, *, #844, .F. ) ;
#296 = DIRECTION ( 'NONE',  ( 0.000000000000000000, 0.000000000000000000, -1.000000000000000000 ) ) ;
#297 = ORIENTED_EDGE ( 'NONE', *, *, #888, .F. ) ;
#298 = CARTESIAN_POINT ( 'NONE',  ( 1.891269295326085897, -0.7430507738753575619, -15.19746567625240630 ) ) ;
#299 = PERSON_AND_ORGANIZATION ( #1240, #675 ) ;
#300 = AXIS2_PLACEMENT_3D ( 'NONE', #1150, #455, #1243 ) ;
#301 = ORIENTED_EDGE ( 'NONE', *, *, #892, .F. ) ;
#302 = VECTOR ( 'NONE', #927, 1000.000000000000000 ) ;
#303 = AXIS2_PLACEMENT_3D ( 'NONE', #66, #561, #764 ) ;
#304 = EDGE_LOOP ( 'NONE', ( #670, #845 ) ) ;
#305 = CARTESIAN_POINT ( 'NONE',  ( 1.525000000000004574, 1.525000000000003686, -10.41399999999999970 ) ) ;
#306 = CIRCLE ( 'NONE', #591, 2.032000000000000028 ) ;
#307 = VERTEX_POINT ( 'NONE', #1274 ) ;
#308 = EDGE_CURVE ( 'NONE', #1291, #1236, #259, .T. ) ;
#309 = ADVANCED_FACE ( 'NONE', ( #1186 ), #175, .T. ) ;
#310 = CARTESIAN_POINT ( 'NONE',  ( 0.000000000000000000, 0.000000000000000000, -3.174999999999999822 ) ) ;
#311 = PERSON_AND_ORGANIZATION ( #1240, #675 ) ;
#312 = ORIENTED_EDGE ( 'NONE', *, *, #204, .F. ) ;
#313 = ORIENTED_EDGE ( 'NONE', *, *, #294, .F. ) ;
#314 = CARTESIAN_POINT ( 'NONE',  ( 0.4980973490458727726, -1.587500000000000355, -12.93142212862616880 ) ) ;
#315 = DIRECTION ( 'NONE',  ( -0.000000000000000000, -0.000000000000000000, 1.000000000000000000 ) ) ;
#316 = APPROVAL_ROLE ( '' ) ;
#317 = LINE ( 'NONE', #431, #327 ) ;
#318 = ORIENTED_EDGE ( 'NONE', *, *, #801, .T. ) ;
#319 = ORIENTED_EDGE ( 'NONE', *, *, #1026, .T. ) ;
#320 = CARTESIAN_POINT ( 'NONE',  ( -0.4219230645619477804, 1.587500000000000577, 2.252307303553626738 ) ) ;
#321 = CARTESIAN_POINT ( 'NONE',  ( 1.268411506570323866, 1.587500000000000355, -3.174999999999999822 ) ) ;
#322 = CARTESIAN_POINT ( 'NONE',  ( 1.891269295326085897, 0.7430507738753627800, -15.19746567625240630 ) ) ;
#323 = CARTESIAN_POINT ( 'NONE',  ( 1.381835320557591951, 1.489817152156432511, -15.72499999999999964 ) ) ;
#324 = ADVANCED_FACE ( 'NONE', ( #1293 ), #1278, .F. ) ;
#325 = EDGE_CURVE ( 'NONE', #398, #575, #28, .T. ) ;
#326 = ORIENTED_EDGE ( 'NONE', *, *, #905, .T. ) ;
#327 = VECTOR ( 'NONE', #838, 1000.000000000000000 ) ;
#328 = AXIS2_PLACEMENT_3D ( 'NONE', #1246, #429, #8 ) ;
#329 = PLANE ( 'NONE',  #328 ) ;
#330 = AXIS2_PLACEMENT_3D ( 'NONE', #348, #952, #165 ) ;
#331 = CARTESIAN_POINT ( 'NONE',  ( -0.4980973490458727726, -1.526050000000000573, -12.93142212862616880 ) ) ;
#332 = CARTESIAN_POINT ( 'NONE',  ( -2.049999999999999822, 2.510525938252073693E-16, -10.41399999999999970 ) ) ;
#333 = ORIENTED_EDGE ( 'NONE', *, *, #349, .F. ) ;
#334 = PLANE ( 'NONE',  #436 ) ;
#335 = DIRECTION ( 'NONE',  ( -0.000000000000000000, -0.000000000000000000, 1.000000000000000000 ) ) ;
#336 = CARTESIAN_POINT ( 'NONE',  ( -1.245064030267291511, 1.524763679400341839E-16, 0.1610000000000014198 ) ) ;
#337 = CARTESIAN_POINT ( 'NONE',  ( 0.3499999999999999778, -1.526050000000000351, -14.72499999999999787 ) ) ;
#338 = EDGE_LOOP ( 'NONE', ( #581, #798, #552, #694 ) ) ;
#339 = CARTESIAN_POINT ( 'NONE',  ( -0.3500000000000000333, -1.587500000000000355, -15.72499999999999964 ) ) ;
#340 = EDGE_CURVE ( 'NONE', #94, #1057, #843, .T. ) ;
#341 = CARTESIAN_POINT ( 'NONE',  ( 1.268411506570323866, -1.587500000000000355, -9.525000000000000355 ) ) ;
#342 = EDGE_CURVE ( 'NONE', #1069, #1083, #63, .T. ) ;
#343 = CARTESIAN_POINT ( 'NONE',  ( 0.000000000000000000, -1.526050000000000573, -12.97499999999999609 ) ) ;
#344 = CARTESIAN_POINT ( 'NONE',  ( -0.9192388155425111895, -0.9192388155425108565, -3.975000000000000089 ) ) ;
#345 = ORIENTED_EDGE ( 'NONE', *, *, #1307, .T. ) ;
#346 = CARTESIAN_POINT ( 'NONE',  ( 2.049999999999999822, 0.000000000000000000, -10.41399999999999970 ) ) ;
#347 = ORIENTED_EDGE ( 'NONE', *, *, #349, .T. ) ;
#348 = CARTESIAN_POINT ( 'NONE',  ( 1.525000000000004574, -2.176620249263474083, -15.57674863457327064 ) ) ;
#349 = EDGE_CURVE ( 'NONE', #894, #876, #1071, .T. ) ;
#350 = ADVANCED_FACE ( 'NONE', ( #973 ), #577, .T. ) ;
#351 = ORIENTED_EDGE ( 'NONE', *, *, #583, .T. ) ;
#352 = CARTESIAN_POINT ( 'NONE',  ( 0.000000000000000000, 0.000000000000000000, -10.41399999999999970 ) ) ;
#353 = VECTOR ( 'NONE', #784, 1000.000000000000000 ) ;
#354 = CARTESIAN_POINT ( 'NONE',  ( -1.268411506570323866, 1.587500000000000355, -10.41399999999999970 ) ) ;
#355 = ORIENTED_EDGE ( 'NONE', *, *, #1042, .T. ) ;
#356 = DIRECTION ( 'NONE',  ( -1.000000000000000000, 0.000000000000000000, 0.000000000000000000 ) ) ;
#357 = ORIENTED_EDGE ( 'NONE', *, *, #1234, .F. ) ;
#358 = CARTESIAN_POINT ( 'NONE',  ( -0.6550150799420408898, 1.587500000000000355, -14.72499999999999787 ) ) ;
#359 = FACE_OUTER_BOUND ( 'NONE', #1249, .T. ) ;
#360 = ORIENTED_EDGE ( 'NONE', *, *, #932, .F. ) ;
#361 = CARTESIAN_POINT ( 'NONE',  ( 0.000000000000000000, 0.000000000000000000, -9.525000000000000355 ) ) ;
#362 = EDGE_CURVE ( 'NONE', #443, #568, #26, .T. ) ;
#363 = DIRECTION ( 'NONE',  ( -1.000000000000000000, -9.027796614315172167E-33, 5.421010862427522786E-17 ) ) ;
#364 = ADVANCED_FACE ( 'NONE', ( #236 ), #530, .T. ) ;
#365 = EDGE_LOOP ( 'NONE', ( #1183, #201, #1297, #783 ) ) ;
#366 = DIRECTION ( 'NONE',  ( 0.000000000000000000, 1.000000000000000000, 0.000000000000000000 ) ) ;
#367 = AXIS2_PLACEMENT_3D ( 'NONE', #337, #239, #1044 ) ;
#368 = CARTESIAN_POINT ( 'NONE',  ( 1.587500000000000355, 0.000000000000000000, 2.258227361692866086 ) ) ;
#369 = VECTOR ( 'NONE', #1169, 1000.000000000000000 ) ;
#370 = CARTESIAN_POINT ( 'NONE',  ( 0.000000000000000000, 0.000000000000000000, -9.525000000000000355 ) ) ;
#371 = AXIS2_PLACEMENT_3D ( 'NONE', #352, #154, #977 ) ;
#372 = CIRCLE ( 'NONE', #985, 2.049999999999999822 ) ;
#373 = VERTEX_POINT ( 'NONE', #314 ) ;
#374 = EDGE_LOOP ( 'NONE', ( #1155, #767, #994, #333, #976, #1088, #690, #1198, #991, #790, #602, #1036 ) ) ;
#375 = DIRECTION ( 'NONE',  ( -0.000000000000000000, -0.000000000000000000, 1.000000000000000000 ) ) ;
#376 = DIRECTION ( 'NONE',  ( 0.000000000000000000, -1.000000000000000000, 0.000000000000000000 ) ) ;
#377 = VERTEX_POINT ( 'NONE', #536 ) ;
#378 = ADVANCED_FACE ( 'NONE', ( #1221 ), #938, .T. ) ;
#379 = ORIENTED_EDGE ( 'NONE', *, *, #611, .T. ) ;
#380 = LINE ( 'NONE', #187, #205 ) ;
#381 = EDGE_LOOP ( 'NONE', ( #86, #1112, #1258, #245, #479, #1136, #599, #895 ) ) ;
#382 = CARTESIAN_POINT ( 'NONE',  ( -1.524999999999994582, 1.342906921569778644, -15.72499999999999964 ) ) ;
#383 = CARTESIAN_POINT ( 'NONE',  ( -1.606514309551917208, 1.281422878852395808, -15.49233809602456091 ) ) ;
#384 = ORIENTED_EDGE ( 'NONE', *, *, #1266, .T. ) ;
#385 = B_SPLINE_CURVE_WITH_KNOTS ( 'NONE', 3,
 ( #1070, #167, #1075, #556, #953, #1156, #970, #45 ),
 .UNSPECIFIED., .F., .F.,
 ( 4, 2, 2, 4 ),
 ( 0.01485345774306979366, 0.01548583974386944992, 0.01611822174466910618, 0.01738298574626841869 ),
 .UNSPECIFIED. ) ;
#386 = ORIENTED_EDGE ( 'NONE', *, *, #133, .F. ) ;
#387 = CARTESIAN_POINT ( 'NONE',  ( 0.000000000000000000, 1.734723475976807094E-15, -15.72499999999999964 ) ) ;
#388 = VERTEX_POINT ( 'NONE', #745 ) ;
#389 = FACE_OUTER_BOUND ( 'NONE', #338, .T. ) ;
#390 = VECTOR ( 'NONE', #923, 1000.000000000000000 ) ;
#391 = AXIS2_PLACEMENT_3D ( 'NONE', #179, #605, #992 ) ;
#392 = CARTESIAN_POINT ( 'NONE',  ( -1.587500000000000355, 1.587500000000000355, 2.286000000000000032 ) ) ;
#393 = EDGE_LOOP ( 'NONE', ( #955, #476, #12, #347, #1010, #278 ) ) ;
#394 = CARTESIAN_POINT ( 'NONE',  ( -1.587500000000000577, 0.4277385810629846796, 2.251986543583112788 ) ) ;
#395 = VERTEX_POINT ( 'NONE', #908 ) ;
#396 = CARTESIAN_POINT ( 'NONE',  ( -0.3500000000000000333, -1.587500000000000355, -15.72499999999999964 ) ) ;
#397 = DIRECTION ( 'NONE',  ( -0.000000000000000000, -0.000000000000000000, 1.000000000000000000 ) ) ;
#398 = VERTEX_POINT ( 'NONE', #1118 ) ;
#399 = ORIENTED_EDGE ( 'NONE', *, *, #423, .F. ) ;
#400 = DIRECTION ( 'NONE',  ( 1.000000000000000000, 0.000000000000000000, 0.000000000000000000 ) ) ;
#401 = EDGE_CURVE ( 'NONE', #872, #509, #565, .T. ) ;
#402 = CARTESIAN_POINT ( 'NONE',  ( -1.268411506570323866, -1.587500000000000355, -9.525000000000000355 ) ) ;
#403 = EDGE_CURVE ( 'NONE', #585, #979, #1229, .T. ) ;
#404 = ADVANCED_FACE ( 'NONE', ( #428 ), #406, .T. ) ;
#405 = VERTEX_POINT ( 'NONE', #1017 ) ;
#406 = PLANE ( 'NONE',  #140 ) ;
#407 = EDGE_CURVE ( 'NONE', #398, #172, #1245, .T. ) ;
#408 = LINE ( 'NONE', #382, #1242 ) ;
#409 = APPROVAL_STATUS ( 'not_yet_approved' ) ;
#410 = DIRECTION ( 'NONE',  ( 0.9961946980917455452, -1.451434684901358818E-17, 0.08715574274765827689 ) ) ;
#411 = SECURITY_CLASSIFICATION ( '', '', #516 ) ;
#412 = AXIS2_PLACEMENT_3D ( 'NONE', #1137, #730, #846 ) ;
#413 = EDGE_LOOP ( 'NONE', ( #691, #1272, #101, #882 ) ) ;
#414 = CARTESIAN_POINT ( 'NONE',  ( 1.525000000000004574, 1.342906921569766876, -10.41399999999999970 ) ) ;
#415 = VECTOR ( 'NONE', #475, 1000.000000000000000 ) ;
#416 = CARTESIAN_POINT ( 'NONE',  ( 0.000000000000000000, 0.000000000000000000, -10.41399999999999970 ) ) ;
#417 = APPLICATION_PROTOCOL_DEFINITION ( 'international standard', 'config_control_design', 1994, #723 ) ;
#418 = DIRECTION ( 'NONE',  ( 1.224646799147353207E-16, 1.000000000000000000, 0.000000000000000000 ) ) ;
#419 = LINE ( 'NONE', #1310, #433 ) ;
#420 = ORIENTED_EDGE ( 'NONE', *, *, #607, .T. ) ;
#421 = LINE ( 'NONE', #622, #200 ) ;
#422 = CARTESIAN_POINT ( 'NONE',  ( 1.268411506570323866, -1.587500000000000355, -10.41399999999999970 ) ) ;
#423 = EDGE_CURVE ( 'NONE', #1171, #721, #676, .T. ) ;
#424 = ADVANCED_FACE ( 'NONE', ( #113 ), #334, .F. ) ;
#425 = COORDINATED_UNIVERSAL_TIME_OFFSET ( 6, 0, .BEHIND. ) ;
#426 = DIRECTION ( 'NONE',  ( 0.000000000000000000, 1.000000000000000000, 0.000000000000000000 ) ) ;
#427 = CARTESIAN_POINT ( 'NONE',  ( 1.381835320557591951, 1.489817152156432511, -15.72499999999999964 ) ) ;
#428 = FACE_OUTER_BOUND ( 'NONE', #208, .T. ) ;
#429 = DIRECTION ( 'NONE',  ( -1.000000000000000000, 0.000000000000000000, 0.000000000000000000 ) ) ;
#430 =( BOUNDED_CURVE ( )  B_SPLINE_CURVE ( 3, ( #246, #1061, #258, #1285 ),
 .UNSPECIFIED., .F., .F. ) 
 B_SPLINE_CURVE_WITH_KNOTS ( ( 4, 4 ),
 ( 5.460202170773285069, 5.908827816782359577 ),
 .UNSPECIFIED. ) 
 CURVE ( )  GEOMETRIC_REPRESENTATION_ITEM ( )  RATIONAL_B_SPLINE_CURVE ( ( 1.000000000000000000, 0.9832981269744254238, 0.9832981269744254238, 1.000000000000000000 ) ) 
 REPRESENTATION_ITEM ( '' )  );
#431 = CARTESIAN_POINT ( 'NONE',  ( 1.587500000000000355, -1.587500000000000355, -3.174999999999999822 ) ) ;
#432 = PLANE ( 'NONE',  #367 ) ;
#433 = VECTOR ( 'NONE', #397, 1000.000000000000000 ) ;
#434 = EDGE_LOOP ( 'NONE', ( #597, #897, #867, #360 ) ) ;
#435 = CARTESIAN_POINT ( 'NONE',  ( -2.399999999999999911, 2.939152317953647106E-16, 5.949122102386183997 ) ) ;
#436 = AXIS2_PLACEMENT_3D ( 'NONE', #722, #929, #1113 ) ;
#437 = AXIS2_PLACEMENT_3D ( 'NONE', #27, #335, #931 ) ;
#438 = DIRECTION ( 'NONE',  ( -0.000000000000000000, -0.000000000000000000, 1.000000000000000000 ) ) ;
#439 = CARTESIAN_POINT ( 'NONE',  ( 0.4980973490458727726, -1.587500000000000355, -12.93142212862616880 ) ) ;
#440 = EDGE_CURVE ( 'NONE', #928, #617, #421, .T. ) ;
#441 = DIRECTION ( 'NONE',  ( 0.000000000000000000, 0.000000000000000000, -1.000000000000000000 ) ) ;
#442 = EDGE_CURVE ( 'NONE', #928, #806, #21, .T. ) ;
#443 = VERTEX_POINT ( 'NONE', #414 ) ;
#444 = DIRECTION ( 'NONE',  ( -1.421904488505577929E-16, -1.000000000000000000, 0.000000000000000000 ) ) ;
#445 = CARTESIAN_POINT ( 'NONE',  ( 2.399999999999999911, 0.000000000000000000, -3.175000000000000711 ) ) ;
#446 = APPLICATION_CONTEXT ( 'configuration controlled 3d designs of mechanical parts and assemblies' ) ;
#447 = CYLINDRICAL_SURFACE ( 'NONE', #96, 0.5000000000000004441 ) ;
#448 = CARTESIAN_POINT ( 'NONE',  ( 1.779209975560489543, 1.028272670115993437, -15.31350649881243164 ) ) ;
#449 = ORIENTED_EDGE ( 'NONE', *, *, #1307, .F. ) ;
#450 = CARTESIAN_POINT ( 'NONE',  ( 0.3499999999999999778, -1.587500000000000355, -14.72499999999999787 ) ) ;
#451 = EDGE_CURVE ( 'NONE', #1069, #90, #789, .T. ) ;
#452 = LINE ( 'NONE', #777, #803 ) ;
#453 = VERTEX_POINT ( 'NONE', #638 ) ;
#454 = CARTESIAN_POINT ( 'NONE',  ( 1.381835320557591285, -1.526050000000000129, -15.72499999999999964 ) ) ;
#455 = DIRECTION ( 'NONE',  ( -0.000000000000000000, -0.000000000000000000, 1.000000000000000000 ) ) ;
#456 = ORIENTED_EDGE ( 'NONE', *, *, #972, .F. ) ;
#457 = FACE_OUTER_BOUND ( 'NONE', #562, .T. ) ;
#458 = AXIS2_PLACEMENT_3D ( 'NONE', #392, #1116, #1102 ) ;
#459 = PLANE ( 'NONE',  #185 ) ;
#460 = AXIS2_PLACEMENT_3D ( 'NONE', #650, #29, #1034 ) ;
#461 = AXIS2_PLACEMENT_3D ( 'NONE', #70, #870, #1273 ) ;
#462 = ORIENTED_EDGE ( 'NONE', *, *, #1067, .F. ) ;
#463 = EDGE_CURVE ( 'NONE', #835, #1287, #1301, .T. ) ;
#464 = LINE ( 'NONE', #358, #655 ) ;
#465 = VECTOR ( 'NONE', #210, 1000.000000000000000 ) ;
#466 = CARTESIAN_POINT ( 'NONE',  ( 0.000000000000000000, 0.000000000000000000, -3.974999999999999201 ) ) ;
#467 = EDGE_LOOP ( 'NONE', ( #143, #1005, #81, #813, #712, #986 ) ) ;
#468 = LINE ( 'NONE', #773, #570 ) ;
#469 = EDGE_CURVE ( 'NONE', #1057, #710, #1025, .T. ) ;
#470 = EDGE_LOOP ( 'NONE', ( #661, #791, #1187, #999 ) ) ;
#471 = PLANE ( 'NONE',  #461 ) ;
#472 = CARTESIAN_POINT ( 'NONE',  ( -1.268411506570323866, 1.587500000000000355, -9.525000000000000355 ) ) ;
#473 = ORIENTED_EDGE ( 'NONE', *, *, #596, .T. ) ;
#474 = B_SPLINE_CURVE_WITH_KNOTS ( 'NONE', 3,
 ( #797, #983, #290, #1191, #609, #277 ),
 .UNSPECIFIED., .F., .F.,
 ( 4, 2, 4 ),
 ( 0.01485345774306979366, 0.01548163471194336296, 0.01610981168081693227 ),
 .UNSPECIFIED. ) ;
#475 = DIRECTION ( 'NONE',  ( 1.421904488505577929E-16, 1.000000000000000000, 0.000000000000000000 ) ) ;
#476 = ORIENTED_EDGE ( 'NONE', *, *, #734, .T. ) ;
#477 = FACE_OUTER_BOUND ( 'NONE', #434, .T. ) ;
#478 = CARTESIAN_POINT ( 'NONE',  ( 1.268411506570323866, -1.587500000000000355, 2.134919142097984057 ) ) ;
#479 = ORIENTED_EDGE ( 'NONE', *, *, #362, .F. ) ;
#480 = AXIS2_PLACEMENT_3D ( 'NONE', #135, #842, #1157 ) ;
#481 = ORIENTED_EDGE ( 'NONE', *, *, #403, .F. ) ;
#482 = AXIS2_PLACEMENT_3D ( 'NONE', #527, #1013, #832 ) ;
#483 = DIRECTION ( 'NONE',  ( -0.000000000000000000, 1.000000000000000000, -0.000000000000000000 ) ) ;
#484 = CIRCLE ( 'NONE', #1130, 2.049999999999999822 ) ;
#485 = ORIENTED_EDGE ( 'NONE', *, *, #1039, .F. ) ;
#486 = CARTESIAN_POINT ( 'NONE',  ( 0.6550150799420408898, -1.587500000000000355, -14.72499999999999787 ) ) ;
#487 = VERTEX_POINT ( 'NONE', #36 ) ;
#488 = CARTESIAN_POINT ( 'NONE',  ( -0.6550150799420408898, -1.587500000000000355, -14.72499999999999787 ) ) ;
#489 = DIRECTION ( 'NONE',  ( -1.000000000000000000, 1.065814103640150279E-14, 0.000000000000000000 ) ) ;
#490 = ORIENTED_EDGE ( 'NONE', *, *, #1308, .F. ) ;
#491 = ORIENTED_EDGE ( 'NONE', *, *, #753, .T. ) ;
#492 = CARTESIAN_POINT ( 'NONE',  ( 0.3500000000000000333, 1.587500000000000355, -15.72499999999999964 ) ) ;
#493 = EDGE_CURVE ( 'NONE', #937, #289, #106, .T. ) ;
#494 = CARTESIAN_POINT ( 'NONE',  ( 1.587500000000000133, 1.061532360077856341, 2.186402068293591849 ) ) ;
#495 = VERTEX_POINT ( 'NONE', #1037 ) ;
#496 = ORIENTED_EDGE ( 'NONE', *, *, #771, .T. ) ;
#497 = ORIENTED_EDGE ( 'NONE', *, *, #1027, .T. ) ;
#498 = DIRECTION ( 'NONE',  ( -0.000000000000000000, -0.000000000000000000, 1.000000000000000000 ) ) ;
#499 = VECTOR ( 'NONE', #524, 1000.000000000000000 ) ;
#500 = AXIS2_PLACEMENT_3D ( 'NONE', #874, #375, #769 ) ;
#501 = VECTOR ( 'NONE', #1048, 1000.000000000000000 ) ;
#502 = EDGE_LOOP ( 'NONE', ( #1122, #497, #153, #1176 ) ) ;
#503 = LINE ( 'NONE', #1182, #698 ) ;
#504 = LINE ( 'NONE', #703, #743 ) ;
#505 = ADVANCED_FACE ( 'NONE', ( #1047 ), #137, .F. ) ;
#506 = PERSON_AND_ORGANIZATION ( #1240, #675 ) ;
#507 = ADVANCED_FACE ( 'NONE', ( #457 ), #243, .T. ) ;
#508 = ORIENTED_EDGE ( 'NONE', *, *, #839, .T. ) ;
#509 = VERTEX_POINT ( 'NONE', #48 ) ;
#510 = CARTESIAN_POINT ( 'NONE',  ( -0.3499999999999999778, 1.587500000000000355, -14.72499999999999787 ) ) ;
#511 = ORIENTED_EDGE ( 'NONE', *, *, #1202, .T. ) ;
#512 = CARTESIAN_POINT ( 'NONE',  ( 0.000000000000000000, 0.000000000000000000, -9.525000000000000355 ) ) ;
#513 = ORIENTED_EDGE ( 'NONE', *, *, #734, .F. ) ;
#514 = DIRECTION ( 'NONE',  ( 0.000000000000000000, 1.665334536937735304E-16, -1.000000000000000000 ) ) ;
#515 = FACE_BOUND ( 'NONE', #381, .T. ) ;
#516 = SECURITY_CLASSIFICATION_LEVEL ( 'unclassified' ) ;
#517 = CARTESIAN_POINT ( 'NONE',  ( 1.525000000000003686, -1.342906921569765766, -10.41400000000000148 ) ) ;
#518 = AXIS2_PLACEMENT_3D ( 'NONE', #100, #519, #906 ) ;
#519 = DIRECTION ( 'NONE',  ( -0.9961946980917455452, -1.451434684901358818E-17, 0.08715574274765827689 ) ) ;
#520 = LOCAL_TIME ( 15, 13, 8.000000000000000000, #911 ) ;
#521 = AXIS2_PLACEMENT_3D ( 'NONE', #1056, #571, #489 ) ;
#522 = EDGE_CURVE ( 'NONE', #864, #894, #951, .T. ) ;
#523 = VERTEX_POINT ( 'NONE', #450 ) ;
#524 = DIRECTION ( 'NONE',  ( 0.000000000000000000, 1.000000000000000000, 0.000000000000000000 ) ) ;
#525 = AXIS2_PLACEMENT_3D ( 'NONE', #537, #215, #1028 ) ;
#526 = CARTESIAN_POINT ( 'NONE',  ( 0.000000000000000000, 0.000000000000000000, 2.286000000000000032 ) ) ;
#527 = CARTESIAN_POINT ( 'NONE',  ( 0.000000000000000000, 0.000000000000000000, 0.000000000000000000 ) ) ;
#528 = DIRECTION ( 'NONE',  ( 0.000000000000000000, 1.000000000000000000, 0.000000000000000000 ) ) ;
#529 = ORIENTED_EDGE ( 'NONE', *, *, #972, .T. ) ;
#530 = PLANE ( 'NONE',  #816 ) ;
#531 = ADVANCED_FACE ( 'NONE', ( #859 ), #241, .T. ) ;
#532 = CARTESIAN_POINT ( 'NONE',  ( 0.000000000000000000, 0.000000000000000000, -10.41399999999999970 ) ) ;
#533 = DIRECTION ( 'NONE',  ( 0.8660254037844389297, 8.326672684688665425E-17, -0.4999999999999993339 ) ) ;
#534 = FACE_OUTER_BOUND ( 'NONE', #304, .T. ) ;
#535 = ORIENTED_EDGE ( 'NONE', *, *, #35, .T. ) ;
#536 = CARTESIAN_POINT ( 'NONE',  ( -1.587500000000000355, -1.268411506570323866, -3.174999999999999822 ) ) ;
#537 = CARTESIAN_POINT ( 'NONE',  ( 1.525000000000004574, 1.525000000000003686, -15.72499999999999964 ) ) ;
#538 = ADVANCED_FACE ( 'NONE', ( #645 ), #1147, .T. ) ;
#539 = DIRECTION ( 'NONE',  ( -0.000000000000000000, -0.000000000000000000, 1.000000000000000000 ) ) ;
#540 = DIRECTION ( 'NONE',  ( 0.000000000000000000, 0.000000000000000000, -1.000000000000000000 ) ) ;
#541 = AXIS2_PLACEMENT_3D ( 'NONE', #225, #760, #1235 ) ;
#542 = CC_DESIGN_APPROVAL ( #711, ( #1231 ) ) ;
#543 = ORIENTED_EDGE ( 'NONE', *, *, #839, .F. ) ;
#544 = CARTESIAN_POINT ( 'NONE',  ( 1.681401388273457975, -1.165298099032598733, -15.07629838362131025 ) ) ;
#545 = VECTOR ( 'NONE', #1021, 1000.000000000000114 ) ;
#546 = CARTESIAN_POINT ( 'NONE',  ( 2.049999999999999822, 0.000000000000000000, -10.41399999999999970 ) ) ;
#547 = VECTOR ( 'NONE', #366, 1000.000000000000000 ) ;
#548 = CARTESIAN_POINT ( 'NONE',  ( -1.524999999999996358, 1.342906921569775092, -14.98599999999999710 ) ) ;
#549 = PRODUCT_RELATED_PRODUCT_CATEGORY ( 'detail', '', ( #868 ) ) ;
#550 = LINE ( 'NONE', #749, #741 ) ;
#551 = EDGE_CURVE ( 'NONE', #780, #373, #640, .T. ) ;
#552 = ORIENTED_EDGE ( 'NONE', *, *, #1269, .T. ) ;
#553 = CARTESIAN_POINT ( 'NONE',  ( 0.000000000000000000, 0.000000000000000000, 0.1610000000000014198 ) ) ;
#554 = DIRECTION ( 'NONE',  ( 0.000000000000000000, -1.665334536937735550E-16, 1.000000000000000000 ) ) ;
#555 = ORIENTED_EDGE ( 'NONE', *, *, #362, .T. ) ;
#556 = CARTESIAN_POINT ( 'NONE',  ( 0.4219230645619477804, -1.587500000000000577, 2.252307303553626738 ) ) ;
#557 = FACE_OUTER_BOUND ( 'NONE', #1072, .T. ) ;
#558 = ORIENTED_EDGE ( 'NONE', *, *, #133, .T. ) ;
#559 = DIRECTION ( 'NONE',  ( -5.421010862427517856E-17, 0.000000000000000000, -1.000000000000000000 ) ) ;
#560 = CARTESIAN_POINT ( 'NONE',  ( -1.268411506570323866, 1.587500000000000355, -3.174999999999999822 ) ) ;
#561 = DIRECTION ( 'NONE',  ( -0.000000000000000000, -0.000000000000000000, 1.000000000000000000 ) ) ;
#562 = EDGE_LOOP ( 'NONE', ( #744, #351, #456, #1152, #1016, #1095, #772, #88 ) ) ;
#563 = PLANE ( 'NONE',  #330 ) ;
#564 = EDGE_CURVE ( 'NONE', #373, #405, #1190, .T. ) ;
#565 = CIRCLE ( 'NONE', #1084, 2.032000000000000028 ) ;
#566 = ADVANCED_FACE ( 'NONE', ( #849 ), #1040, .F. ) ;
#567 = VECTOR ( 'NONE', #252, 1000.000000000000000 ) ;
#568 = VERTEX_POINT ( 'NONE', #517 ) ;
#569 = PLANE ( 'NONE',  #1214 ) ;
#570 = VECTOR ( 'NONE', #1167, 1000.000000000000000 ) ;
#571 = DIRECTION ( 'NONE',  ( -0.000000000000000000, -0.000000000000000000, 1.000000000000000000 ) ) ;
#572 = ORIENTED_EDGE ( 'NONE', *, *, #668, .F. ) ;
#573 = CC_DESIGN_PERSON_AND_ORGANIZATION_ASSIGNMENT ( #299, #1225, ( #1231 ) ) ;
#574 = LINE ( 'NONE', #873, #1045 ) ;
#575 = VERTEX_POINT ( 'NONE', #134 ) ;
#576 = CARTESIAN_POINT ( 'NONE',  ( -1.268411506570323866, 1.587500000000000355, -15.72499999999999964 ) ) ;
#577 = CYLINDRICAL_SURFACE ( 'NONE', #981, 2.032000000000000028 ) ;
#578 = ORIENTED_EDGE ( 'NONE', *, *, #610, .T. ) ;
#579 = VERTEX_POINT ( 'NONE', #141 ) ;
#580 = CARTESIAN_POINT ( 'NONE',  ( 0.6550150799420408898, -1.526050000000000351, -14.72499999999999787 ) ) ;
#581 = ORIENTED_EDGE ( 'NONE', *, *, #1299, .F. ) ;
#582 = LINE ( 'NONE', #454, #1151 ) ;
#583 = EDGE_CURVE ( 'NONE', #307, #58, #742, .T. ) ;
#584 = CARTESIAN_POINT ( 'NONE',  ( -1.524999999999996358, -1.342906921569775092, -14.98599999999999710 ) ) ;
#585 = VERTEX_POINT ( 'NONE', #1247 ) ;
#586 = ORIENTED_EDGE ( 'NONE', *, *, #30, .T. ) ;
#587 = VECTOR ( 'NONE', #248, 1000.000000000000000 ) ;
#588 = EDGE_LOOP ( 'NONE', ( #1316, #993, #196, #75 ) ) ;
#589 = LOCAL_TIME ( 15, 13, 8.000000000000000000, #425 ) ;
#590 = DIRECTION ( 'NONE',  ( -1.000000000000000000, 0.000000000000000000, 0.000000000000000000 ) ) ;
#591 = AXIS2_PLACEMENT_3D ( 'NONE', #1106, #688, #590 ) ;
#592 = APPROVAL ( #826, 'UNSPECIFIED' ) ;
#593 = CARTESIAN_POINT ( 'NONE',  ( 1.268411506570323866, 1.587500000000000355, -15.72499999999999964 ) ) ;
#594 = EDGE_CURVE ( 'NONE', #1123, #172, #161, .T. ) ;
#595 = ORIENTED_EDGE ( 'NONE', *, *, #267, .F. ) ;
#596 = EDGE_CURVE ( 'NONE', #729, #667, #288, .T. ) ;
#597 = ORIENTED_EDGE ( 'NONE', *, *, #407, .F. ) ;
#598 = LINE ( 'NONE', #69, #1192 ) ;
#599 = ORIENTED_EDGE ( 'NONE', *, *, #130, .F. ) ;
#600 = DIRECTION ( 'NONE',  ( 1.000000000000000000, 0.000000000000000000, 0.000000000000000000 ) ) ;
#601 = ADVANCED_BREP_SHAPE_REPRESENTATION ( '228-2500-328', ( #933, #482 ), #71 ) ;
#602 = ORIENTED_EDGE ( 'NONE', *, *, #823, .F. ) ;
#603 = VERTEX_POINT ( 'NONE', #1128 ) ;
#604 = CARTESIAN_POINT ( 'NONE',  ( -1.587500000000000355, 1.268411506570323866, 2.134919142097984057 ) ) ;
#605 = DIRECTION ( 'NONE',  ( 0.000000000000000000, 0.000000000000000000, -1.000000000000000000 ) ) ;
#606 = DIRECTION ( 'NONE',  ( 1.000000000000000000, 0.000000000000000000, 0.000000000000000000 ) ) ;
#607 = EDGE_CURVE ( 'NONE', #603, #487, #317, .T. ) ;
#608 = ORIENTED_EDGE ( 'NONE', *, *, #132, .T. ) ;
#609 = CARTESIAN_POINT ( 'NONE',  ( -1.587500000000000355, -0.2114796877013864762, 2.258227361692866975 ) ) ;
#610 = EDGE_CURVE ( 'NONE', #713, #136, #755, .T. ) ;
#611 = EDGE_CURVE ( 'NONE', #795, #806, #936, .T. ) ;
#612 = CARTESIAN_POINT ( 'NONE',  ( 0.000000000000000000, 0.000000000000000000, 2.134919142097984057 ) ) ;
#613 = LOCAL_TIME ( 15, 13, 8.000000000000000000, #109 ) ;
#614 = PERSON_AND_ORGANIZATION_ROLE ( 'design_owner' ) ;
#615 = AXIS2_PLACEMENT_3D ( 'NONE', #532, #726, #222 ) ;
#616 = FACE_OUTER_BOUND ( 'NONE', #68, .T. ) ;
#617 = VERTEX_POINT ( 'NONE', #946 ) ;
#618 = CARTESIAN_POINT ( 'NONE',  ( 1.587500000000000355, 1.268411506570323866, 2.134919142097984057 ) ) ;
#619 = CALENDAR_DATE ( 2022, 6, 6 ) ;
#620 = ORIENTED_EDGE ( 'NONE', *, *, #801, .F. ) ;
#621 = ORIENTED_EDGE ( 'NONE', *, *, #190, .T. ) ;
#622 = CARTESIAN_POINT ( 'NONE',  ( -1.524999999999995026, -1.342906921569774648, -15.72499999999999964 ) ) ;
#623 = DIRECTION ( 'NONE',  ( -0.000000000000000000, 1.665334536937735550E-16, -1.000000000000000000 ) ) ;
#624 = PERSON_AND_ORGANIZATION_ROLE ( 'design_supplier' ) ;
#625 = CARTESIAN_POINT ( 'NONE',  ( 1.525000000000004574, -2.176620249263474083, -14.98599999999999888 ) ) ;
#626 = ADVANCED_FACE ( 'NONE', ( #748 ), #126, .T. ) ;
#627 = DIRECTION ( 'NONE',  ( -0.000000000000000000, -0.000000000000000000, 1.000000000000000000 ) ) ;
#628 = EDGE_LOOP ( 'NONE', ( #227, #735, #1046, #491 ) ) ;
#629 = DIRECTION ( 'NONE',  ( -1.000000000000000000, 0.000000000000000000, 0.000000000000000000 ) ) ;
#630 = PERSON_AND_ORGANIZATION ( #1240, #675 ) ;
#631 = CARTESIAN_POINT ( 'NONE',  ( 0.6550150799420408898, 1.587500000000000355, -14.72499999999999787 ) ) ;
#632 = AXIS2_PLACEMENT_3D ( 'NONE', #344, #441, #1035 ) ;
#633 = APPROVAL ( #409, 'UNSPECIFIED' ) ;
#634 = EDGE_LOOP ( 'NONE', ( #262, #1077 ) ) ;
#635 = EDGE_CURVE ( 'NONE', #495, #395, #1134, .T. ) ;
#636 = CIRCLE ( 'NONE', #303, 2.399999999999999911 ) ;
#637 = ORIENTED_EDGE ( 'NONE', *, *, #1266, .F. ) ;
#638 = CARTESIAN_POINT ( 'NONE',  ( 1.587500000000000355, 1.268411506570323866, 2.134919142097984057 ) ) ;
#639 = CARTESIAN_POINT ( 'NONE',  ( 1.587500000000000355, -1.268411506570323866, 2.134919142097984057 ) ) ;
#640 = LINE ( 'NONE', #439, #1126 ) ;
#641 = FACE_OUTER_BOUND ( 'NONE', #65, .T. ) ;
#642 = DIRECTION ( 'NONE',  ( -0.000000000000000000, -0.000000000000000000, 1.000000000000000000 ) ) ;
#643 = CARTESIAN_POINT ( 'NONE',  ( 1.587500000000000355, -1.061392899157111769, 2.186436773851663684 ) ) ;
#644 = EDGE_CURVE ( 'NONE', #405, #136, #120, .T. ) ;
#645 = FACE_OUTER_BOUND ( 'NONE', #854, .T. ) ;
#646 = CARTESIAN_POINT ( 'NONE',  ( 1.587500000000000355, -1.268411506570323866, 2.134919142097984057 ) ) ;
#647 = CARTESIAN_POINT ( 'NONE',  ( 1.525000000000004574, -1.342906921569765988, -14.98599999999999888 ) ) ;
#648 = DIRECTION ( 'NONE',  ( -0.000000000000000000, -0.000000000000000000, 1.000000000000000000 ) ) ;
#649 = EDGE_CURVE ( 'NONE', #1236, #281, #39, .T. ) ;
#650 = CARTESIAN_POINT ( 'NONE',  ( 0.000000000000000000, 1.734723475976807094E-15, -15.72499999999999964 ) ) ;
#651 = ADVANCED_FACE ( 'NONE', ( #232 ), #447, .F. ) ;
#652 = CARTESIAN_POINT ( 'NONE',  ( 1.587500000000000355, 1.268411506570323866, -9.525000000000000355 ) ) ;
#653 = ORIENTED_EDGE ( 'NONE', *, *, #522, .T. ) ;
#654 = CARTESIAN_POINT ( 'NONE',  ( -1.779209975560489765, -1.028272670115989884, -15.31350649881243164 ) ) ;
#655 = VECTOR ( 'NONE', #683, 1000.000000000000000 ) ;
#656 = CIRCLE ( 'NONE', #944, 2.032000000000000028 ) ;
#657 = CARTESIAN_POINT ( 'NONE',  ( 0.3499999999999999778, -1.526050000000000351, -14.72499999999999787 ) ) ;
#658 = CC_DESIGN_SECURITY_CLASSIFICATION ( #411, ( #776 ) ) ;
#659 = ORIENTED_EDGE ( 'NONE', *, *, #1202, .F. ) ;
#660 = CARTESIAN_POINT ( 'NONE',  ( -1.587500000000000355, -1.587500000000000355, 2.286000000000000032 ) ) ;
#661 = ORIENTED_EDGE ( 'NONE', *, *, #596, .F. ) ;
#662 = CARTESIAN_POINT ( 'NONE',  ( -1.381835320557593061, -1.489817152156427627, -15.72499999999999964 ) ) ;
#663 = DIRECTION ( 'NONE',  ( -0.000000000000000000, -0.000000000000000000, 1.000000000000000000 ) ) ;
#664 = ORIENTED_EDGE ( 'NONE', *, *, #469, .T. ) ;
#665 = CARTESIAN_POINT ( 'NONE',  ( -1.891269295326085897, 0.7430507738753605596, -15.19746567625240630 ) ) ;
#666 = CARTESIAN_POINT ( 'NONE',  ( -1.891269295326085897, -0.7430507738753595603, -15.19746567625240630 ) ) ;
#667 = VERTEX_POINT ( 'NONE', #322 ) ;
#668 = EDGE_CURVE ( 'NONE', #872, #835, #430, .T. ) ;
#669 = DIRECTION ( 'NONE',  ( 0.000000000000000000, 1.000000000000000000, 0.000000000000000000 ) ) ;
#670 = ORIENTED_EDGE ( 'NONE', *, *, #704, .F. ) ;
#671 = FACE_OUTER_BOUND ( 'NONE', #796, .T. ) ;
#672 = CARTESIAN_POINT ( 'NONE',  ( 0.000000000000000000, 0.000000000000000000, -10.41399999999999970 ) ) ;
#673 = ORIENTED_EDGE ( 'NONE', *, *, #440, .F. ) ;
#674 = CARTESIAN_POINT ( 'NONE',  ( -1.381835320557575519, -1.526050000000000129, -15.72499999999999964 ) ) ;
#675 = ORGANIZATION ( 'UNSPECIFIED', 'UNSPECIFIED', '' ) ;
#676 = CIRCLE ( 'NONE', #778, 2.032000000000000028 ) ;
#677 = VECTOR ( 'NONE', #1233, 1000.000000000000000 ) ;
#678 = CYLINDRICAL_SURFACE ( 'NONE', #500, 2.399999999999999911 ) ;
#679 = VECTOR ( 'NONE', #1038, 1000.000000000000000 ) ;
#680 = DIRECTION ( 'NONE',  ( 0.000000000000000000, -1.000000000000000000, 0.000000000000000000 ) ) ;
#681 = ORIENTED_EDGE ( 'NONE', *, *, #1108, .F. ) ;
#682 = LINE ( 'NONE', #657, #163 ) ;
#683 = DIRECTION ( 'NONE',  ( -1.000000000000000000, 0.000000000000000000, 0.000000000000000000 ) ) ;
#684 = ORIENTED_EDGE ( 'NONE', *, *, #689, .F. ) ;
#685 = ORIENTED_EDGE ( 'NONE', *, *, #968, .T. ) ;
#686 = DIRECTION ( 'NONE',  ( 0.000000000000000000, 0.000000000000000000, -1.000000000000000000 ) ) ;
#687 = ORIENTED_EDGE ( 'NONE', *, *, #765, .F. ) ;
#688 = DIRECTION ( 'NONE',  ( -0.000000000000000000, -0.000000000000000000, 1.000000000000000000 ) ) ;
#689 = EDGE_CURVE ( 'NONE', #617, #186, #1283, .T. ) ;
#690 = ORIENTED_EDGE ( 'NONE', *, *, #804, .F. ) ;
#691 = ORIENTED_EDGE ( 'NONE', *, *, #1145, .F. ) ;
#692 = CARTESIAN_POINT ( 'NONE',  ( -1.587500000000000355, 1.944126793646423534E-16, 2.258227361692866086 ) ) ;
#693 = AXIS2_PLACEMENT_3D ( 'NONE', #819, #627, #1015 ) ;
#694 = ORIENTED_EDGE ( 'NONE', *, *, #342, .T. ) ;
#695 = VECTOR ( 'NONE', #680, 1000.000000000000000 ) ;
#696 = LINE ( 'NONE', #1292, #183 ) ;
#697 = AXIS2_PLACEMENT_3D ( 'NONE', #512, #188, #400 ) ;
#698 = VECTOR ( 'NONE', #1296, 1000.000000000000000 ) ;
#699 = ORIENTED_EDGE ( 'NONE', *, *, #49, .F. ) ;
#700 = ORIENTED_EDGE ( 'NONE', *, *, #989, .F. ) ;
#701 = CARTESIAN_POINT ( 'NONE',  ( -1.587500000000000133, 0.2143109880596212602, 2.258227361692866975 ) ) ;
#702 = ORIENTED_EDGE ( 'NONE', *, *, #1163, .T. ) ;
#703 = CARTESIAN_POINT ( 'NONE',  ( 1.587500000000000355, -1.268411506570323866, -9.525000000000000355 ) ) ;
#704 = EDGE_CURVE ( 'NONE', #575, #398, #636, .T. ) ;
#705 = CARTESIAN_POINT ( 'NONE',  ( 0.3499999999999999778, 1.587500000000000355, -14.72499999999999787 ) ) ;
#706 = ADVANCED_FACE ( 'NONE', ( #477 ), #678, .T. ) ;
#707 = DIRECTION ( 'NONE',  ( 0.000000000000000000, -1.000000000000000000, 0.000000000000000000 ) ) ;
#708 = CYLINDRICAL_SURFACE ( 'NONE', #697, 2.032000000000000028 ) ;
#709 = COORDINATED_UNIVERSAL_TIME_OFFSET ( 6, 0, .BEHIND. ) ;
#710 = VERTEX_POINT ( 'NONE', #1162 ) ;
#711 = APPROVAL ( #2, 'UNSPECIFIED' ) ;
#712 = ORIENTED_EDGE ( 'NONE', *, *, #463, .T. ) ;
#713 = VERTEX_POINT ( 'NONE', #173 ) ;
#714 = DIRECTION ( 'NONE',  ( 5.421010862427517240E-17, 0.000000000000000000, -1.000000000000000000 ) ) ;
#715 = AXIS2_PLACEMENT_3D ( 'NONE', #1142, #151, #444 ) ;
#716 = DATE_AND_TIME ( #919, #1148 ) ;
#717 = VECTOR ( 'NONE', #1317, 1000.000000000000000 ) ;
#718 = AXIS2_PLACEMENT_3D ( 'NONE', #781, #483, #1055 ) ;
#719 = ORIENTED_EDGE ( 'NONE', *, *, #35, .F. ) ;
#720 = AXIS2_PLACEMENT_3D ( 'NONE', #807, #192, #83 ) ;
#721 = VERTEX_POINT ( 'NONE', #576 ) ;
#722 = CARTESIAN_POINT ( 'NONE',  ( -1.587500000000000355, 1.587500000000000355, 2.286000000000000032 ) ) ;
#723 = APPLICATION_CONTEXT ( 'configuration controlled 3d designs of mechanical parts and assemblies' ) ;
#724 = EDGE_CURVE ( 'NONE', #979, #713, #464, .T. ) ;
#725 = ORIENTED_EDGE ( 'NONE', *, *, #932, .T. ) ;
#726 = DIRECTION ( 'NONE',  ( 0.000000000000000000, 0.000000000000000000, -1.000000000000000000 ) ) ;
#727 = APPROVAL_DATE_TIME ( #119, #711 ) ;
#728 = ORIENTED_EDGE ( 'NONE', *, *, #1309, .F. ) ;
#729 = VERTEX_POINT ( 'NONE', #159 ) ;
#730 = DIRECTION ( 'NONE',  ( -0.000000000000000000, -0.000000000000000000, 1.000000000000000000 ) ) ;
#731 = LINE ( 'NONE', #1238, #32 ) ;
#732 = CALENDAR_DATE ( 2022, 6, 6 ) ;
#733 = DIRECTION ( 'NONE',  ( -0.000000000000000000, -1.000000000000000000, -0.000000000000000000 ) ) ;
#734 = EDGE_CURVE ( 'NONE', #721, #585, #146, .T. ) ;
#735 = ORIENTED_EDGE ( 'NONE', *, *, #844, .T. ) ;
#736 = ORIENTED_EDGE ( 'NONE', *, *, #342, .F. ) ;
#737 = CARTESIAN_POINT ( 'NONE',  ( 0.8571092511719567986, 1.587500000000000355, 2.237273797062774516 ) ) ;
#738 = DIRECTION ( 'NONE',  ( 1.000000000000000000, 0.000000000000000000, 0.000000000000000000 ) ) ;
#739 = DATE_AND_TIME ( #1109, #589 ) ;
#740 = CARTESIAN_POINT ( 'NONE',  ( 0.000000000000000000, 0.000000000000000000, -3.175000000000000711 ) ) ;
#741 = VECTOR ( 'NONE', #935, 1000.000000000000000 ) ;
#742 = CIRCLE ( 'NONE', #93, 2.124999999999998224 ) ;
#743 = VECTOR ( 'NONE', #498, 1000.000000000000000 ) ;
#744 = ORIENTED_EDGE ( 'NONE', *, *, #1280, .F. ) ;
#745 = CARTESIAN_POINT ( 'NONE',  ( -1.587500000000000355, 1.268411506570323866, 2.134919142097984057 ) ) ;
#746 = AXIS2_PLACEMENT_3D ( 'NONE', #387, #89, #178 ) ;
#747 = DIRECTION ( 'NONE',  ( 0.000000000000000000, -1.000000000000000000, 0.000000000000000000 ) ) ;
#748 = FACE_OUTER_BOUND ( 'NONE', #470, .T. ) ;
#749 = CARTESIAN_POINT ( 'NONE',  ( 1.268411506570323866, -1.587500000000000355, -9.525000000000000355 ) ) ;
#750 = ADVANCED_FACE ( 'NONE', ( #671 ), #569, .F. ) ;
#751 = ORIENTED_EDGE ( 'NONE', *, *, #401, .T. ) ;
#752 = DIRECTION ( 'NONE',  ( -1.000000000000000000, 0.000000000000000000, 0.000000000000000000 ) ) ;
#753 = EDGE_CURVE ( 'NONE', #283, #1099, #385, .T. ) ;
#754 = CARTESIAN_POINT ( 'NONE',  ( 1.525000000000003686, -1.342906921569765100, -15.72499999999999964 ) ) ;
#755 = LINE ( 'NONE', #1120, #1064 ) ;
#756 = CARTESIAN_POINT ( 'NONE',  ( 1.891269295326085897, 0.7430507738753627800, -15.19746567625240630 ) ) ;
#757 = VERTEX_POINT ( 'NONE', #368 ) ;
#758 = CARTESIAN_POINT ( 'NONE',  ( 0.000000000000000000, 1.734723475976807094E-15, -15.72499999999999964 ) ) ;
#759 = CARTESIAN_POINT ( 'NONE',  ( -1.587500000000000355, 1.587500000000000355, 2.286000000000000032 ) ) ;
#760 = DIRECTION ( 'NONE',  ( 0.000000000000000000, 0.000000000000000000, -1.000000000000000000 ) ) ;
#761 = DIRECTION ( 'NONE',  ( -0.000000000000000000, -0.000000000000000000, 1.000000000000000000 ) ) ;
#762 = LINE ( 'NONE', #251, #1284 ) ;
#763 = EDGE_CURVE ( 'NONE', #872, #166, #582, .T. ) ;
#764 = DIRECTION ( 'NONE',  ( 1.000000000000000000, 0.000000000000000000, 0.000000000000000000 ) ) ;
#765 = EDGE_CURVE ( 'NONE', #136, #495, #941, .T. ) ;
#766 = DIRECTION ( 'NONE',  ( -1.000000000000000000, 0.000000000000000000, 0.000000000000000000 ) ) ;
#767 = ORIENTED_EDGE ( 'NONE', *, *, #1091, .T. ) ;
#768 = DIRECTION ( 'NONE',  ( -0.000000000000000000, -0.000000000000000000, 1.000000000000000000 ) ) ;
#769 = DIRECTION ( 'NONE',  ( 1.000000000000000000, 0.000000000000000000, 0.000000000000000000 ) ) ;
#770 = DIRECTION ( 'NONE',  ( 1.000000000000000000, 0.000000000000000000, 0.000000000000000000 ) ) ;
#771 = EDGE_CURVE ( 'NONE', #894, #585, #1174, .T. ) ;
#772 = ORIENTED_EDGE ( 'NONE', *, *, #451, .F. ) ;
#773 = CARTESIAN_POINT ( 'NONE',  ( -0.3499999999999999778, -1.587500000000000355, -14.72499999999999787 ) ) ;
#774 = DIRECTION ( 'NONE',  ( 0.000000000000000000, 1.000000000000000000, 0.000000000000000000 ) ) ;
#775 = ORIENTED_EDGE ( 'NONE', *, *, #875, .T. ) ;
#776 = PRODUCT_DEFINITION_FORMATION_WITH_SPECIFIED_SOURCE ( 'ANY', '', #868, .NOT_KNOWN. ) ;
#777 = CARTESIAN_POINT ( 'NONE',  ( -1.587500000000000355, -1.587500000000000355, -10.41399999999999970 ) ) ;
#778 = AXIS2_PLACEMENT_3D ( 'NONE', #1011, #514, #814 ) ;
#779 = AXIS2_PLACEMENT_3D ( 'NONE', #612, #1306, #1194 ) ;
#780 = VERTEX_POINT ( 'NONE', #62 ) ;
#781 = CARTESIAN_POINT ( 'NONE',  ( 0.000000000000000000, 1.587500000000000355, -12.97499999999999609 ) ) ;
#782 = CIRCLE ( 'NONE', #1264, 2.032000000000000028 ) ;
#783 = ORIENTED_EDGE ( 'NONE', *, *, #913, .T. ) ;
#784 = DIRECTION ( 'NONE',  ( 1.000000000000000000, 0.000000000000000000, 0.000000000000000000 ) ) ;
#785 = ADVANCED_FACE ( 'NONE', ( #269 ), #471, .F. ) ;
#786 = ADVANCED_FACE ( 'NONE', ( #879 ), #264, .T. ) ;
#787 = ORIENTED_EDGE ( 'NONE', *, *, #286, .T. ) ;
#788 = CARTESIAN_POINT ( 'NONE',  ( -1.891269295326085897, 1.526000000000004020, -15.19746567625240630 ) ) ;
#789 = B_SPLINE_CURVE_WITH_KNOTS ( 'NONE', 3,
 ( #836, #1124, #830, #320, #1237, #822, #737, #219 ),
 .UNSPECIFIED., .F., .F.,
 ( 4, 2, 2, 4 ),
 ( 0.01485345774306979366, 0.01548583974386944992, 0.01611822174466910618, 0.01738298574626841869 ),
 .UNSPECIFIED. ) ;
#790 = ORIENTED_EDGE ( 'NONE', *, *, #1244, .F. ) ;
#791 = ORIENTED_EDGE ( 'NONE', *, *, #190, .F. ) ;
#792 =( LENGTH_UNIT ( ) NAMED_UNIT ( * ) SI_UNIT ( .MILLI., .METRE. ) );
#793 = EDGE_LOOP ( 'NONE', ( #620, #653, #496, #1074 ) ) ;
#794 = CARTESIAN_POINT ( 'NONE',  ( -0.6550150799420408898, -1.587500000000000355, -14.72499999999999787 ) ) ;
#795 = VERTEX_POINT ( 'NONE', #665 ) ;
#796 = EDGE_LOOP ( 'NONE', ( #485, #1181, #462, #384, #1078 ) ) ;
#797 = CARTESIAN_POINT ( 'NONE',  ( -1.587500000000000355, -1.268411506570323866, 2.134919142097984057 ) ) ;
#798 = ORIENTED_EDGE ( 'NONE', *, *, #1039, .T. ) ;
#799 = APPROVAL_PERSON_ORGANIZATION ( #1208, #633, #925 ) ;
#800 = CARTESIAN_POINT ( 'NONE',  ( -1.268411506570323866, -1.587500000000000355, -15.72499999999999964 ) ) ;
#801 = EDGE_CURVE ( 'NONE', #864, #979, #958, .T. ) ;
#802 = AXIS2_PLACEMENT_3D ( 'NONE', #91, #279, #103 ) ;
#803 = VECTOR ( 'NONE', #851, 1000.000000000000000 ) ;
#804 = EDGE_CURVE ( 'NONE', #405, #809, #206, .T. ) ;
#805 = ORIENTED_EDGE ( 'NONE', *, *, #649, .T. ) ;
#806 = VERTEX_POINT ( 'NONE', #85 ) ;
#807 = CARTESIAN_POINT ( 'NONE',  ( -1.587500000000000355, -1.587500000000000355, 2.286000000000000032 ) ) ;
#808 = FACE_OUTER_BOUND ( 'NONE', #184, .T. ) ;
#809 = VERTEX_POINT ( 'NONE', #794 ) ;
#810 = LINE ( 'NONE', #1207, #860 ) ;
#811 = DIRECTION ( 'NONE',  ( -0.000000000000000000, -0.000000000000000000, 1.000000000000000000 ) ) ;
#812 = ADVANCED_FACE ( 'NONE', ( #808 ), #1184, .T. ) ;
#813 = ORIENTED_EDGE ( 'NONE', *, *, #668, .T. ) ;
#814 = DIRECTION ( 'NONE',  ( -1.000000000000000000, 0.000000000000000000, 0.000000000000000000 ) ) ;
#815 = CARTESIAN_POINT ( 'NONE',  ( -1.587500000000000355, -1.268411506570323866, -9.525000000000000355 ) ) ;
#816 = AXIS2_PLACEMENT_3D ( 'NONE', #129, #1007, #752 ) ;
#817 = APPLICATION_PROTOCOL_DEFINITION ( 'international standard', 'config_control_design', 1994, #446 ) ;
#818 = VECTOR ( 'NONE', #237, 1000.000000000000000 ) ;
#819 = CARTESIAN_POINT ( 'NONE',  ( 0.000000000000000000, 0.000000000000000000, -9.525000000000000355 ) ) ;
#820 = CC_DESIGN_DATE_AND_TIME_ASSIGNMENT ( #99, #292, ( #1231 ) ) ;
#821 = ORIENTED_EDGE ( 'NONE', *, *, #49, .T. ) ;
#822 = CARTESIAN_POINT ( 'NONE',  ( 0.4342314039556036120, 1.587500000000000355, 2.257851717443138728 ) ) ;
#823 = EDGE_CURVE ( 'NONE', #1291, #523, #696, .T. ) ;
#824 = ADVANCED_FACE ( 'NONE', ( #389 ), #708, .T. ) ;
#825 = CARTESIAN_POINT ( 'NONE',  ( 1.587500000000000133, -0.2143109880596212602, 2.258227361692866975 ) ) ;
#826 = APPROVAL_STATUS ( 'not_yet_approved' ) ;
#827 = CARTESIAN_POINT ( 'NONE',  ( 1.681401388273458641, 1.165298099032601398, -15.07629838362131025 ) ) ;
#828 = ORIENTED_EDGE ( 'NONE', *, *, #583, .F. ) ;
#829 = EDGE_LOOP ( 'NONE', ( #828, #637, #297, #1060, #386, #1098, #1311, #909 ) ) ;
#830 = CARTESIAN_POINT ( 'NONE',  ( -0.8486262390323817684, 1.587500000000000577, 2.216768822823946827 ) ) ;
#831 = CARTESIAN_POINT ( 'NONE',  ( -0.3499999999999999778, 1.587500000000000355, -14.72499999999999787 ) ) ;
#832 = DIRECTION ( 'NONE',  ( 1.000000000000000000, 0.000000000000000000, 0.000000000000000000 ) ) ;
#833 = DIRECTION ( 'NONE',  ( 0.000000000000000000, 0.000000000000000000, -1.000000000000000000 ) ) ;
#834 = CARTESIAN_POINT ( 'NONE',  ( 0.3499999999999999778, 1.587500000000000355, -14.72499999999999787 ) ) ;
#835 = VERTEX_POINT ( 'NONE', #298 ) ;
#836 = CARTESIAN_POINT ( 'NONE',  ( -1.268411506570323866, 1.587500000000000355, 2.134919142097984057 ) ) ;
#837 = CARTESIAN_POINT ( 'NONE',  ( 1.587500000000000577, -0.4277385810629845686, 2.251986543583112788 ) ) ;
#838 = DIRECTION ( 'NONE',  ( 0.000000000000000000, 1.000000000000000000, 0.000000000000000000 ) ) ;
#839 = EDGE_CURVE ( 'NONE', #94, #1228, #1008, .T. ) ;
#840 = APPROVAL_PERSON_ORGANIZATION ( #630, #711, #316 ) ;
#841 = CIRCLE ( 'NONE', #263, 1.245064030267292177 ) ;
#842 = DIRECTION ( 'NONE',  ( 0.000000000000000000, -0.000000000000000000, 1.000000000000000000 ) ) ;
#843 = CIRCLE ( 'NONE', #918, 2.049999999999999822 ) ;
#844 = EDGE_CURVE ( 'NONE', #1052, #579, #274, .T. ) ;
#845 = ORIENTED_EDGE ( 'NONE', *, *, #325, .F. ) ;
#846 = DIRECTION ( 'NONE',  ( 1.000000000000000000, 0.000000000000000000, 0.000000000000000000 ) ) ;
#847 = VECTOR ( 'NONE', #707, 1000.000000000000000 ) ;
#848 = CARTESIAN_POINT ( 'NONE',  ( -1.891269295326085897, -0.7430507738753595603, -15.19746567625240630 ) ) ;
#849 = FACE_OUTER_BOUND ( 'NONE', #1031, .T. ) ;
#850 = CARTESIAN_POINT ( 'NONE',  ( 0.000000000000000000, 0.000000000000000000, 2.134919142097984057 ) ) ;
#851 = DIRECTION ( 'NONE',  ( -1.000000000000000000, 0.000000000000000000, 0.000000000000000000 ) ) ;
#852 = DIRECTION ( 'NONE',  ( 0.08715574274765822138, 0.000000000000000000, 0.9961946980917455452 ) ) ;
#853 = LINE ( 'NONE', #834, #302 ) ;
#854 = EDGE_LOOP ( 'NONE', ( #751, #326, #164, #805, #511, #1141 ) ) ;
#855 = ADVANCED_FACE ( 'NONE', ( #1199 ), #987, .T. ) ;
#856 = CARTESIAN_POINT ( 'NONE',  ( -1.587500000000000355, -1.587500000000000355, 2.286000000000000032 ) ) ;
#857 = DIRECTION ( 'NONE',  ( -0.000000000000000000, -0.000000000000000000, 1.000000000000000000 ) ) ;
#858 = CARTESIAN_POINT ( 'NONE',  ( -2.399999999999999911, 2.939152317953647106E-16, -3.175000000000000711 ) ) ;
#859 = FACE_OUTER_BOUND ( 'NONE', #78, .T. ) ;
#860 = VECTOR ( 'NONE', #714, 1000.000000000000000 ) ;
#861 = AXIS2_PLACEMENT_3D ( 'NONE', #1094, #296, #1079 ) ;
#862 = CARTESIAN_POINT ( 'NONE',  ( -1.381835320557593061, 1.489817152156431179, -15.72499999999999964 ) ) ;
#863 = EDGE_CURVE ( 'NONE', #90, #453, #961, .T. ) ;
#864 = VERTEX_POINT ( 'NONE', #79 ) ;
#865 = CARTESIAN_POINT ( 'NONE',  ( -0.3500000000000000333, 1.587500000000000355, -15.72499999999999964 ) ) ;
#866 = DIRECTION ( 'NONE',  ( 0.000000000000000000, 0.000000000000000000, -1.000000000000000000 ) ) ;
#867 = ORIENTED_EDGE ( 'NONE', *, *, #73, .T. ) ;
#868 = PRODUCT ( '228-2500-328', '228-2500-328', '', ( #1217 ) ) ;
#869 = LINE ( 'NONE', #242, #415 ) ;
#870 = DIRECTION ( 'NONE',  ( 0.000000000000000000, 1.665334536937735304E-16, -1.000000000000000000 ) ) ;
#871 = EDGE_CURVE ( 'NONE', #889, #806, #408, .T. ) ;
#872 = VERTEX_POINT ( 'NONE', #1080 ) ;
#873 = CARTESIAN_POINT ( 'NONE',  ( 1.525000000000004130, 1.342906921569767986, -15.72499999999999964 ) ) ;
#874 = CARTESIAN_POINT ( 'NONE',  ( 0.000000000000000000, 0.000000000000000000, 5.949122102386183997 ) ) ;
#875 = EDGE_CURVE ( 'NONE', #453, #757, #38, .T. ) ;
#876 = VERTEX_POINT ( 'NONE', #800 ) ;
#877 =( BOUNDED_CURVE ( )  B_SPLINE_CURVE ( 3, ( #584, #978, #1082, #666 ),
 .UNSPECIFIED., .F., .T. ) 
 B_SPLINE_CURVE_WITH_KNOTS ( ( 4, 4 ),
 ( 2.419602744509500081, 2.767235163192566016 ),
 .UNSPECIFIED. ) 
 CURVE ( )  GEOMETRIC_REPRESENTATION_ITEM ( )  RATIONAL_B_SPLINE_CURVE ( ( 1.000000000000000000, 0.9899546376435810480, 0.9899546376435810480, 1.000000000000000000 ) ) 
 REPRESENTATION_ITEM ( '' )  );
#878 = VECTOR ( 'NONE', #997, 1000.000000000000000 ) ;
#879 = FACE_OUTER_BOUND ( 'NONE', #502, .T. ) ;
#880 = CIRCLE ( 'NONE', #746, 2.032000000000000028 ) ;
#881 = CC_DESIGN_PERSON_AND_ORGANIZATION_ASSIGNMENT ( #311, #614, ( #868 ) ) ;
#882 = ORIENTED_EDGE ( 'NONE', *, *, #230, .T. ) ;
#883 = ORIENTED_EDGE ( 'NONE', *, *, #286, .F. ) ;
#884 = DIRECTION ( 'NONE',  ( -1.000000000000000000, 0.000000000000000000, 0.000000000000000000 ) ) ;
#885 = LINE ( 'NONE', #903, #984 ) ;
#886 = DIRECTION ( 'NONE',  ( 1.000000000000000000, 0.000000000000000000, 0.000000000000000000 ) ) ;
#887 = EDGE_LOOP ( 'NONE', ( #260, #319, #295, #257, #357, #271, #1006, #193 ) ) ;
#888 = EDGE_CURVE ( 'NONE', #1099, #234, #244, .T. ) ;
#889 = VERTEX_POINT ( 'NONE', #285 ) ;
#890 = CARTESIAN_POINT ( 'NONE',  ( -1.587500000000000355, 1.268411506570323866, -3.174999999999999822 ) ) ;
#891 = EDGE_LOOP ( 'NONE', ( #702, #555, #1159, #621 ) ) ;
#892 = EDGE_CURVE ( 'NONE', #603, #92, #504, .T. ) ;
#893 = CARTESIAN_POINT ( 'NONE',  ( 1.587500000000000355, 0.4276219574846468752, 2.251996392000088942 ) ) ;
#894 = VERTEX_POINT ( 'NONE', #396 ) ;
#895 = ORIENTED_EDGE ( 'NONE', *, *, #294, .T. ) ;
#896 =( NAMED_UNIT ( * ) PLANE_ANGLE_UNIT ( ) SI_UNIT ( $, .RADIAN. ) );
#897 = ORIENTED_EDGE ( 'NONE', *, *, #325, .T. ) ;
#898 = AXIS2_PLACEMENT_3D ( 'NONE', #740, #539, #934 ) ;
#899 = DIRECTION ( 'NONE',  ( 1.000000000000000000, 0.000000000000000000, 0.000000000000000000 ) ) ;
#900 = CIRCLE ( 'NONE', #437, 2.399999999999999911 ) ;
#901 = EDGE_LOOP ( 'NONE', ( #728, #266, #276, #255 ) ) ;
#902 = EDGE_LOOP ( 'NONE', ( #313, #345, #399, #176, #379, #191 ) ) ;
#903 = CARTESIAN_POINT ( 'NONE',  ( 0.3500000000000000333, -1.587500000000000355, -15.72499999999999964 ) ) ;
#904 = PERSON_AND_ORGANIZATION ( #1240, #675 ) ;
#905 = EDGE_CURVE ( 'NONE', #509, #1291, #885, .T. ) ;
#906 = DIRECTION ( 'NONE',  ( 0.08715574274765827689, -1.658997436246444216E-16, 0.9961946980917455452 ) ) ;
#907 = ORIENTED_EDGE ( 'NONE', *, *, #551, .T. ) ;
#908 = CARTESIAN_POINT ( 'NONE',  ( 0.6550150799420408898, 1.587500000000000355, -14.72499999999999787 ) ) ;
#909 = ORIENTED_EDGE ( 'NONE', *, *, #174, .F. ) ;
#910 = CARTESIAN_POINT ( 'NONE',  ( 0.000000000000000000, 0.000000000000000000, -9.525000000000000355 ) ) ;
#911 = COORDINATED_UNIVERSAL_TIME_OFFSET ( 6, 0, .BEHIND. ) ;
#912 = FACE_OUTER_BOUND ( 'NONE', #1193, .T. ) ;
#913 = EDGE_CURVE ( 'NONE', #51, #1236, #810, .T. ) ;
#914 = ORIENTED_EDGE ( 'NONE', *, *, #87, .F. ) ;
#915 = DIRECTION ( 'NONE',  ( 0.000000000000000000, -1.665334536937735550E-16, 1.000000000000000000 ) ) ;
#916 = DIRECTION ( 'NONE',  ( 0.000000000000000000, 0.000000000000000000, -1.000000000000000000 ) ) ;
#917 = CIRCLE ( 'NONE', #52, 2.032000000000000028 ) ;
#918 = AXIS2_PLACEMENT_3D ( 'NONE', #672, #1062, #964 ) ;
#919 = CALENDAR_DATE ( 2022, 6, 6 ) ;
#920 = DIRECTION ( 'NONE',  ( 0.000000000000000000, -0.000000000000000000, -1.000000000000000000 ) ) ;
#921 = AXIS2_PLACEMENT_3D ( 'NONE', #1073, #768, #261 ) ;
#922 = FACE_OUTER_BOUND ( 'NONE', #249, .T. ) ;
#923 = DIRECTION ( 'NONE',  ( -1.421904488505577929E-16, -1.000000000000000000, 0.000000000000000000 ) ) ;
#924 = DIRECTION ( 'NONE',  ( -1.000000000000000000, 0.000000000000000000, 0.000000000000000000 ) ) ;
#925 = APPROVAL_ROLE ( '' ) ;
#926 = CARTESIAN_POINT ( 'NONE',  ( 1.342906921569769318, 1.587500000000000355, -15.72499999999999964 ) ) ;
#927 = DIRECTION ( 'NONE',  ( -1.000000000000000000, 0.000000000000000000, 0.000000000000000000 ) ) ;
#928 = VERTEX_POINT ( 'NONE', #1178 ) ;
#929 = DIRECTION ( 'NONE',  ( 0.000000000000000000, -1.000000000000000000, 0.000000000000000000 ) ) ;
#930 = EDGE_CURVE ( 'NONE', #443, #1288, #306, .T. ) ;
#931 = DIRECTION ( 'NONE',  ( 1.000000000000000000, 0.000000000000000000, 0.000000000000000000 ) ) ;
#932 = EDGE_CURVE ( 'NONE', #172, #1123, #900, .T. ) ;
#933 = MANIFOLD_SOLID_BREP ( '228-2500-328', #112 ) ;
#934 = DIRECTION ( 'NONE',  ( 1.000000000000000000, 0.000000000000000000, 0.000000000000000000 ) ) ;
#935 = DIRECTION ( 'NONE',  ( 0.000000000000000000, 0.000000000000000000, -1.000000000000000000 ) ) ;
#936 =( BOUNDED_CURVE ( )  B_SPLINE_CURVE ( 3, ( #224, #216, #238, #548 ),
 .UNSPECIFIED., .F., .F. ) 
 B_SPLINE_CURVE_WITH_KNOTS ( ( 4, 4 ),
 ( 3.515950143987019327, 3.863582562670085263 ),
 .UNSPECIFIED. ) 
 CURVE ( )  GEOMETRIC_REPRESENTATION_ITEM ( )  RATIONAL_B_SPLINE_CURVE ( ( 1.000000000000000000, 0.9899546376435810480, 0.9899546376435810480, 1.000000000000000000 ) ) 
 REPRESENTATION_ITEM ( '' )  );
#937 = VERTEX_POINT ( 'NONE', #848 ) ;
#938 = CYLINDRICAL_SURFACE ( 'NONE', #412, 2.032000000000000028 ) ;
#939 = CARTESIAN_POINT ( 'NONE',  ( 0.000000000000000000, 0.000000000000000000, -3.174999999999999822 ) ) ;
#940 = CARTESIAN_POINT ( 'NONE',  ( -1.587500000000000355, 1.587500000000000355, -10.41399999999999970 ) ) ;
#941 = CIRCLE ( 'NONE', #718, 0.5000000000000004441 ) ;
#942 = VERTEX_POINT ( 'NONE', #422 ) ;
#943 = CARTESIAN_POINT ( 'NONE',  ( -1.606514309551916542, -1.281422878852392477, -15.49233809602456091 ) ) ;
#944 = AXIS2_PLACEMENT_3D ( 'NONE', #310, #916, #738 ) ;
#945 = FACE_OUTER_BOUND ( 'NONE', #1295, .T. ) ;
#946 = CARTESIAN_POINT ( 'NONE',  ( -1.524999999999996358, -1.342906921569775536, -10.41399999999999970 ) ) ;
#947 = ADVANCED_FACE ( 'NONE', ( #945 ), #329, .F. ) ;
#948 = LINE ( 'NONE', #652, #180 ) ;
#949 = ADVANCED_FACE ( 'NONE', ( #139, #515 ), #108, .T. ) ;
#950 = ORIENTED_EDGE ( 'NONE', *, *, #892, .T. ) ;
#951 = LINE ( 'NONE', #339, #1261 ) ;
#952 = DIRECTION ( 'NONE',  ( 0.7193398003386489714, 1.156838575698259825E-16, -0.6946583704589996966 ) ) ;
#953 = CARTESIAN_POINT ( 'NONE',  ( 0.2043756380772878689, -1.587500000000000133, 2.258409618963796106 ) ) ;
#954 = DIRECTION ( 'NONE',  ( 0.000000000000000000, 0.000000000000000000, -1.000000000000000000 ) ) ;
#955 = ORIENTED_EDGE ( 'NONE', *, *, #423, .T. ) ;
#956 = FACE_OUTER_BOUND ( 'NONE', #990, .T. ) ;
#957 = ORIENTED_EDGE ( 'NONE', *, *, #469, .F. ) ;
#958 = LINE ( 'NONE', #53, #74 ) ;
#959 = CARTESIAN_POINT ( 'NONE',  ( -0.3500000000000000333, -1.526050000000000129, -15.72499999999999964 ) ) ;
#960 = ORIENTED_EDGE ( 'NONE', *, *, #804, .T. ) ;
#961 = CIRCLE ( 'NONE', #391, 2.032000000000000028 ) ;
#962 = CARTESIAN_POINT ( 'NONE',  ( 0.000000000000000000, 0.000000000000000000, -3.975000000025374902 ) ) ;
#963 = DIRECTION ( 'NONE',  ( 1.000000000000000000, 0.000000000000000000, 0.000000000000000000 ) ) ;
#964 = DIRECTION ( 'NONE',  ( -1.000000000000000000, 0.000000000000000000, 0.000000000000000000 ) ) ;
#965 = ORIENTED_EDGE ( 'NONE', *, *, #340, .F. ) ;
#966 = UNCERTAINTY_MEASURE_WITH_UNIT (LENGTH_MEASURE( 1.000000000000000082E-05 ), #792, 'distance_accuracy_value', 'NONE');
#967 = DIRECTION ( 'NONE',  ( -1.000000000000000000, 0.000000000000000000, 0.000000000000000000 ) ) ;
#968 = EDGE_CURVE ( 'NONE', #667, #835, #231, .T. ) ;
#969 = ORIENTED_EDGE ( 'NONE', *, *, #1224, .T. ) ;
#970 = CARTESIAN_POINT ( 'NONE',  ( -0.8571092511719567986, -1.587500000000000355, 2.237273797062774516 ) ) ;
#971 = EDGE_CURVE ( 'NONE', #568, #1287, #1114, .T. ) ;
#972 = EDGE_CURVE ( 'NONE', #273, #58, #1107, .T. ) ;
#973 = FACE_OUTER_BOUND ( 'NONE', #467, .T. ) ;
#974 = VERTEX_POINT ( 'NONE', #321 ) ;
#975 = DIRECTION ( 'NONE',  ( -1.000000000000000000, 0.000000000000000000, 0.000000000000000000 ) ) ;
#976 = ORIENTED_EDGE ( 'NONE', *, *, #522, .F. ) ;
#977 = DIRECTION ( 'NONE',  ( -1.000000000000000000, 0.000000000000000000, 0.000000000000000000 ) ) ;
#978 = CARTESIAN_POINT ( 'NONE',  ( -1.681401388273453978, -1.165298099032605617, -15.07629838362130847 ) ) ;
#979 = VERTEX_POINT ( 'NONE', #831 ) ;
#980 = VECTOR ( 'NONE', #212, 1000.000000000000000 ) ;
#981 = AXIS2_PLACEMENT_3D ( 'NONE', #370, #102, #123 ) ;
#982 = ORIENTED_EDGE ( 'NONE', *, *, #174, .T. ) ;
#983 = CARTESIAN_POINT ( 'NONE',  ( -1.587500000000000133, -1.061532360077856341, 2.186402068293591849 ) ) ;
#984 = VECTOR ( 'NONE', #1313, 1000.000000000000000 ) ;
#985 = AXIS2_PLACEMENT_3D ( 'NONE', #1223, #438, #629 ) ;
#986 = ORIENTED_EDGE ( 'NONE', *, *, #971, .F. ) ;
#987 = CYLINDRICAL_SURFACE ( 'NONE', #1003, 2.032000000000000028 ) ;
#988 = DIRECTION ( 'NONE',  ( 0.000000000000000000, 1.000000000000000000, 0.000000000000000000 ) ) ;
#989 = EDGE_CURVE ( 'NONE', #1057, #94, #1087, .T. ) ;
#990 = EDGE_LOOP ( 'NONE', ( #34, #883, #20, #1294 ) ) ;
#991 = ORIENTED_EDGE ( 'NONE', *, *, #551, .F. ) ;
#992 = DIRECTION ( 'NONE',  ( -1.000000000000000000, 0.000000000000000000, 0.000000000000000000 ) ) ;
#993 = ORIENTED_EDGE ( 'NONE', *, *, #1104, .T. ) ;
#994 = ORIENTED_EDGE ( 'NONE', *, *, #30, .F. ) ;
#995 = CARTESIAN_POINT ( 'NONE',  ( 1.525000000000004574, -1.342906921569765988, -14.98599999999999888 ) ) ;
#996 = ORIENTED_EDGE ( 'NONE', *, *, #1108, .T. ) ;
#997 = DIRECTION ( 'NONE',  ( -0.000000000000000000, -0.000000000000000000, 1.000000000000000000 ) ) ;
#998 = ORIENTED_EDGE ( 'NONE', *, *, #1026, .F. ) ;
#999 = ORIENTED_EDGE ( 'NONE', *, *, #968, .F. ) ;
#1000 = CARTESIAN_POINT ( 'NONE',  ( -1.587500000000000355, 1.061392899157111769, 2.186436773851663240 ) ) ;
#1001 = AXIS2_PLACEMENT_3D ( 'NONE', #553, #761, #1251 ) ;
#1002 = CARTESIAN_POINT ( 'NONE',  ( -1.587500000000000355, -1.587500000000000355, -3.174999999999999822 ) ) ;
#1003 = AXIS2_PLACEMENT_3D ( 'NONE', #910, #194, #600 ) ;
#1004 = APPROVAL_DATE_TIME ( #1101, #633 ) ;
#1005 = ORIENTED_EDGE ( 'NONE', *, *, #147, .T. ) ;
#1006 = ORIENTED_EDGE ( 'NONE', *, *, #1042, .F. ) ;
#1007 = DIRECTION ( 'NONE',  ( 0.000000000000000000, 1.665334536937735304E-16, -1.000000000000000000 ) ) ;
#1008 = LINE ( 'NONE', #1100, #878 ) ;
#1009 = CARTESIAN_POINT ( 'NONE',  ( 1.268411506570323866, 1.587500000000000355, -9.525000000000000355 ) ) ;
#1010 = ORIENTED_EDGE ( 'NONE', *, *, #1308, .T. ) ;
#1011 = CARTESIAN_POINT ( 'NONE',  ( 0.000000000000000000, 1.734723475976807094E-15, -15.72499999999999964 ) ) ;
#1012 = CARTESIAN_POINT ( 'NONE',  ( 1.587500000000000355, -0.8513200635100124369, 2.216377555318114201 ) ) ;
#1013 = DIRECTION ( 'NONE',  ( 0.000000000000000000, 0.000000000000000000, 1.000000000000000000 ) ) ;
#1014 = DIRECTION ( 'NONE',  ( -1.000000000000000000, 1.224646799147353454E-16, 0.000000000000000000 ) ) ;
#1015 = DIRECTION ( 'NONE',  ( 1.000000000000000000, 0.000000000000000000, 0.000000000000000000 ) ) ;
#1016 = ORIENTED_EDGE ( 'NONE', *, *, #875, .F. ) ;
#1017 = CARTESIAN_POINT ( 'NONE',  ( -0.4980973490458727726, -1.587500000000000355, -12.93142212862616880 ) ) ;
#1018 = LINE ( 'NONE', #815, #465 ) ;
#1019 = AXIS2_PLACEMENT_3D ( 'NONE', #144, #41, #1256 ) ;
#1020 = APPROVAL_ROLE ( '' ) ;
#1021 = DIRECTION ( 'NONE',  ( 0.08715574274765822138, 0.000000000000000000, -0.9961946980917455452 ) ) ;
#1022 = CARTESIAN_POINT ( 'NONE',  ( 0.000000000000000000, 0.000000000000000000, 2.286000000000000032 ) ) ;
#1023 = EDGE_CURVE ( 'NONE', #757, #92, #168, .T. ) ;
#1024 = ORIENTED_EDGE ( 'NONE', *, *, #267, .T. ) ;
#1025 = LINE ( 'NONE', #346, #54 ) ;
#1026 = EDGE_CURVE ( 'NONE', #603, #579, #656, .T. ) ;
#1027 = EDGE_CURVE ( 'NONE', #1052, #1099, #1138, .T. ) ;
#1028 = DIRECTION ( 'NONE',  ( 1.421904488505577929E-16, 1.000000000000000000, 0.000000000000000000 ) ) ;
#1029 = CARTESIAN_POINT ( 'NONE',  ( 0.000000000000000000, -1.587500000000000355, -12.97499999999999609 ) ) ;
#1030 = CARTESIAN_POINT ( 'NONE',  ( 1.525000000000004574, -2.176620249263474083, -14.98599999999999888 ) ) ;
#1031 = EDGE_LOOP ( 'NONE', ( #699, #355, #736, #128 ) ) ;
#1032 = CARTESIAN_POINT ( 'NONE',  ( 1.804730034320622512, -0.9633170772481850497, -15.14750221061543378 ) ) ;
#1033 = PLANE ( 'NONE',  #525 ) ;
#1034 = DIRECTION ( 'NONE',  ( -1.000000000000000000, 0.000000000000000000, 0.000000000000000000 ) ) ;
#1035 = DIRECTION ( 'NONE',  ( -1.000000000000000000, 0.000000000000000000, -0.000000000000000000 ) ) ;
#1036 = ORIENTED_EDGE ( 'NONE', *, *, #905, .F. ) ;
#1037 = CARTESIAN_POINT ( 'NONE',  ( 0.4980973490458727726, 1.587500000000000355, -12.93142212862616880 ) ) ;
#1038 = DIRECTION ( 'NONE',  ( -1.000000000000000000, 0.000000000000000000, -0.000000000000000000 ) ) ;
#1039 = EDGE_CURVE ( 'NONE', #1282, #388, #731, .T. ) ;
#1040 = PLANE ( 'NONE',  #1302 ) ;
#1041 = CC_DESIGN_APPROVAL ( #592, ( #411 ) ) ;
#1042 = EDGE_CURVE ( 'NONE', #974, #1083, #1119, .T. ) ;
#1043 = CIRCLE ( 'NONE', #1281, 2.124999999999998224 ) ;
#1044 = DIRECTION ( 'NONE',  ( 5.421010862427522786E-17, 1.665334536937735304E-16, -1.000000000000000000 ) ) ;
#1045 = VECTOR ( 'NONE', #554, 1000.000000000000000 ) ;
#1046 = ORIENTED_EDGE ( 'NONE', *, *, #1165, .F. ) ;
#1047 = FACE_OUTER_BOUND ( 'NONE', #588, .T. ) ;
#1048 = DIRECTION ( 'NONE',  ( 0.000000000000000000, 0.000000000000000000, -1.000000000000000000 ) ) ;
#1049 = ORIENTED_EDGE ( 'NONE', *, *, #594, .T. ) ;
#1050 = DIRECTION ( 'NONE',  ( 0.000000000000000000, 0.000000000000000000, -1.000000000000000000 ) ) ;
#1051 = FACE_BOUND ( 'NONE', #1220, .T. ) ;
#1052 = VERTEX_POINT ( 'NONE', #1215 ) ;
#1053 = DIRECTION ( 'NONE',  ( -0.7193398003386489714, 1.156838575698259825E-16, -0.6946583704589996966 ) ) ;
#1054 = ORIENTED_EDGE ( 'NONE', *, *, #644, .F. ) ;
#1055 = DIRECTION ( 'NONE',  ( 0.000000000000000000, 0.000000000000000000, -1.000000000000000000 ) ) ;
#1056 = CARTESIAN_POINT ( 'NONE',  ( 0.000000000000000000, 0.000000000000000000, -10.41399999999999970 ) ) ;
#1057 = VERTEX_POINT ( 'NONE', #546 ) ;
#1058 = ADVANCED_FACE ( 'NONE', ( #37 ), #1033, .F. ) ;
#1059 = DIRECTION ( 'NONE',  ( 0.000000000000000000, -0.000000000000000000, 1.000000000000000000 ) ) ;
#1060 = ORIENTED_EDGE ( 'NONE', *, *, #753, .F. ) ;
#1061 = CARTESIAN_POINT ( 'NONE',  ( 1.606514309551916542, -1.281422878852393143, -15.49233809602456091 ) ) ;
#1062 = DIRECTION ( 'NONE',  ( 0.000000000000000000, 0.000000000000000000, -1.000000000000000000 ) ) ;
#1063 = VECTOR ( 'NONE', #811, 1000.000000000000000 ) ;
#1064 = VECTOR ( 'NONE', #852, 1000.000000000000114 ) ;
#1065 = EDGE_CURVE ( 'NONE', #1052, #377, #1216, .T. ) ;
#1066 = DIRECTION ( 'NONE',  ( 0.000000000000000000, 1.000000000000000000, 0.000000000000000000 ) ) ;
#1067 = EDGE_CURVE ( 'NONE', #234, #377, #1018, .T. ) ;
#1068 = EDGE_CURVE ( 'NONE', #710, #1228, #372, .T. ) ;
#1069 = VERTEX_POINT ( 'NONE', #171 ) ;
#1070 = CARTESIAN_POINT ( 'NONE',  ( 1.268411506570323866, -1.587500000000000355, 2.134919142097984057 ) ) ;
#1071 = LINE ( 'NONE', #1175, #280 ) ;
#1072 = EDGE_LOOP ( 'NONE', ( #1049, #725 ) ) ;
#1073 = CARTESIAN_POINT ( 'NONE',  ( 0.000000000000000000, 0.000000000000000000, -9.525000000000000355 ) ) ;
#1074 = ORIENTED_EDGE ( 'NONE', *, *, #403, .T. ) ;
#1075 = CARTESIAN_POINT ( 'NONE',  ( 0.8486262390323817684, -1.587500000000000577, 2.216768822823946827 ) ) ;
#1076 = CARTESIAN_POINT ( 'NONE',  ( -1.779209975560490653, 1.028272670115991883, -15.31350649881243342 ) ) ;
#1077 = ORIENTED_EDGE ( 'NONE', *, *, #340, .T. ) ;
#1078 = ORIENTED_EDGE ( 'NONE', *, *, #1280, .T. ) ;
#1079 = DIRECTION ( 'NONE',  ( 1.000000000000000000, 0.000000000000000000, 0.000000000000000000 ) ) ;
#1080 = CARTESIAN_POINT ( 'NONE',  ( 1.381835320557591951, -1.489817152156428959, -15.72499999999999964 ) ) ;
#1081 = ADVANCED_FACE ( 'NONE', ( #956 ), #1154, .T. ) ;
#1082 = CARTESIAN_POINT ( 'NONE',  ( -1.804730034320620735, -0.9633170772481894906, -15.14750221061542668 ) ) ;
#1083 = VERTEX_POINT ( 'NONE', #560 ) ;
#1084 = AXIS2_PLACEMENT_3D ( 'NONE', #214, #14, #107 ) ;
#1085 = EDGE_LOOP ( 'NONE', ( #312, #685, #572, #84 ) ) ;
#1086 = VECTOR ( 'NONE', #1277, 1000.000000000000000 ) ;
#1087 = CIRCLE ( 'NONE', #1172, 2.049999999999999822 ) ;
#1088 = ORIENTED_EDGE ( 'NONE', *, *, #1222, .F. ) ;
#1089 = DIRECTION ( 'NONE',  ( -5.421010862427517856E-17, 0.000000000000000000, 1.000000000000000000 ) ) ;
#1090 = CC_DESIGN_DATE_AND_TIME_ASSIGNMENT ( #716, #1232, ( #411 ) ) ;
#1091 = EDGE_CURVE ( 'NONE', #942, #186, #452, .T. ) ;
#1092 = ORIENTED_EDGE ( 'NONE', *, *, #1068, .T. ) ;
#1093 = ORIENTED_EDGE ( 'NONE', *, *, #594, .F. ) ;
#1094 = CARTESIAN_POINT ( 'NONE',  ( 0.000000000000000000, 0.000000000000000000, -3.174999999999999822 ) ) ;
#1095 = ORIENTED_EDGE ( 'NONE', *, *, #863, .F. ) ;
#1096 = DIRECTION ( 'NONE',  ( -0.08715574274765822138, 0.000000000000000000, -0.9961946980917455452 ) ) ;
#1097 = CARTESIAN_POINT ( 'NONE',  ( 0.000000000000000000, 0.000000000000000000, 0.1610000000000014198 ) ) ;
#1098 = ORIENTED_EDGE ( 'NONE', *, *, #1023, .F. ) ;
#1099 = VERTEX_POINT ( 'NONE', #1257 ) ;
#1100 = CARTESIAN_POINT ( 'NONE',  ( -2.049999999999999822, 2.510525938252073693E-16, -10.41399999999999970 ) ) ;
#1101 = DATE_AND_TIME ( #1115, #613 ) ;
#1102 = DIRECTION ( 'NONE',  ( -1.000000000000000000, 0.000000000000000000, -0.000000000000000000 ) ) ;
#1103 = LINE ( 'NONE', #1289, #847 ) ;
#1104 = EDGE_CURVE ( 'NONE', #617, #889, #869, .T. ) ;
#1105 = AXIS2_PLACEMENT_3D ( 'NONE', #1029, #733, #18 ) ;
#1106 = CARTESIAN_POINT ( 'NONE',  ( 0.000000000000000000, 0.000000000000000000, -10.41399999999999970 ) ) ;
#1107 = CIRCLE ( 'NONE', #9, 1.245064030267292177 ) ;
#1108 = EDGE_CURVE ( 'NONE', #1228, #710, #484, .T. ) ;
#1109 = CALENDAR_DATE ( 2022, 6, 6 ) ;
#1110 = AXIS2_PLACEMENT_3D ( 'NONE', #268, #1053, #256 ) ;
#1111 = LINE ( 'NONE', #1209, #1279 ) ;
#1112 = ORIENTED_EDGE ( 'NONE', *, *, #689, .T. ) ;
#1113 = DIRECTION ( 'NONE',  ( 0.000000000000000000, -0.000000000000000000, -1.000000000000000000 ) ) ;
#1114 = LINE ( 'NONE', #754, #203 ) ;
#1115 = CALENDAR_DATE ( 2022, 6, 6 ) ;
#1116 = DIRECTION ( 'NONE',  ( 0.000000000000000000, 0.000000000000000000, -1.000000000000000000 ) ) ;
#1117 = ORIENTED_EDGE ( 'NONE', *, *, #635, .F. ) ;
#1118 = CARTESIAN_POINT ( 'NONE',  ( -2.399999999999999911, 2.939152317953647106E-16, -3.974999999999999201 ) ) ;
#1119 = LINE ( 'NONE', #1133, #679 ) ;
#1120 = CARTESIAN_POINT ( 'NONE',  ( -0.4980973490458727726, 1.587500000000000355, -12.93142212862616880 ) ) ;
#1121 = ADVANCED_FACE ( 'NONE', ( #1160 ), #459, .F. ) ;
#1122 = ORIENTED_EDGE ( 'NONE', *, *, #1065, .F. ) ;
#1123 = VERTEX_POINT ( 'NONE', #445 ) ;
#1124 = CARTESIAN_POINT ( 'NONE',  ( -1.060147506033616738, 1.587500000000000133, 2.186746696255179589 ) ) ;
#1125 = DIRECTION ( 'NONE',  ( 0.000000000000000000, 0.000000000000000000, -1.000000000000000000 ) ) ;
#1126 = VECTOR ( 'NONE', #11, 1000.000000000000000 ) ;
#1127 = APPROVAL_DATE_TIME ( #739, #592 ) ;
#1128 = CARTESIAN_POINT ( 'NONE',  ( 1.587500000000000355, -1.268411506570323866, -3.174999999999999822 ) ) ;
#1129 = CC_DESIGN_PERSON_AND_ORGANIZATION_ASSIGNMENT ( #211, #125, ( #776 ) ) ;
#1130 = AXIS2_PLACEMENT_3D ( 'NONE', #962, #152, #356 ) ;
#1131 = CARTESIAN_POINT ( 'NONE',  ( -1.381835320557593061, 1.489817152156431179, -15.72499999999999964 ) ) ;
#1132 = DIRECTION ( 'NONE',  ( -0.4999999999999899525, -1.442222014787683339E-16, 0.8660254037844444808 ) ) ;
#1133 = CARTESIAN_POINT ( 'NONE',  ( -1.587500000000000355, 1.587500000000000355, -3.174999999999999822 ) ) ;
#1134 = LINE ( 'NONE', #631, #545 ) ;
#1135 = PLANE ( 'NONE',  #632 ) ;
#1136 = ORIENTED_EDGE ( 'NONE', *, *, #930, .T. ) ;
#1137 = CARTESIAN_POINT ( 'NONE',  ( 0.000000000000000000, 0.000000000000000000, -9.525000000000000355 ) ) ;
#1138 = LINE ( 'NONE', #22, #818 ) ;
#1139 = DIRECTION ( 'NONE',  ( 0.000000000000000000, -1.000000000000000000, 0.000000000000000000 ) ) ;
#1140 = CARTESIAN_POINT ( 'NONE',  ( 1.606514309551915876, 1.281422878852396474, -15.49233809602455914 ) ) ;
#1141 = ORIENTED_EDGE ( 'NONE', *, *, #763, .F. ) ;
#1142 = CARTESIAN_POINT ( 'NONE',  ( -1.524999999999995026, 1.525000000000003686, -15.72499999999999964 ) ) ;
#1143 = FACE_OUTER_BOUND ( 'NONE', #374, .T. ) ;
#1144 = EDGE_CURVE ( 'NONE', #289, #1171, #1252, .T. ) ;
#1145 = EDGE_CURVE ( 'NONE', #523, #51, #682, .T. ) ;
#1146 = AXIS2_PLACEMENT_3D ( 'NONE', #1097, #195, #606 ) ;
#1147 = PLANE ( 'NONE',  #460 ) ;
#1148 = LOCAL_TIME ( 15, 13, 8.000000000000000000, #17 ) ;
#1149 = VECTOR ( 'NONE', #988, 1000.000000000000000 ) ;
#1150 = CARTESIAN_POINT ( 'NONE',  ( 0.000000000000000000, 0.000000000000000000, -10.41399999999999970 ) ) ;
#1151 = VECTOR ( 'NONE', #1268, 1000.000000000000000 ) ;
#1152 = ORIENTED_EDGE ( 'NONE', *, *, #270, .F. ) ;
#1153 = DIRECTION ( 'NONE',  ( -0.000000000000000000, -0.000000000000000000, 1.000000000000000000 ) ) ;
#1154 = PLANE ( 'NONE',  #1110 ) ;
#1155 = ORIENTED_EDGE ( 'NONE', *, *, #147, .F. ) ;
#1156 = CARTESIAN_POINT ( 'NONE',  ( -0.4342314039556036120, -1.587500000000000355, 2.257851717443138728 ) ) ;
#1157 = DIRECTION ( 'NONE',  ( 1.000000000000000000, 0.000000000000000000, 0.000000000000000000 ) ) ;
#1158 = ADVANCED_FACE ( 'NONE', ( #1173 ), #563, .T. ) ;
#1159 = ORIENTED_EDGE ( 'NONE', *, *, #971, .T. ) ;
#1160 = FACE_OUTER_BOUND ( 'NONE', #413, .T. ) ;
#1161 = ORIENTED_EDGE ( 'NONE', *, *, #704, .T. ) ;
#1162 = CARTESIAN_POINT ( 'NONE',  ( 2.049999999999999822, 0.000000000000000000, -3.975000000025374902 ) ) ;
#1163 = EDGE_CURVE ( 'NONE', #729, #443, #574, .T. ) ;
#1164 = CARTESIAN_POINT ( 'NONE',  ( 1.245064030267291511, 0.000000000000000000, 0.1610000000000014198 ) ) ;
#1165 = EDGE_CURVE ( 'NONE', #283, #579, #64, .T. ) ;
#1166 = ORIENTED_EDGE ( 'NONE', *, *, #635, .T. ) ;
#1167 = DIRECTION ( 'NONE',  ( 1.000000000000000000, 0.000000000000000000, 0.000000000000000000 ) ) ;
#1168 = CARTESIAN_POINT ( 'NONE',  ( -0.3500000000000000333, -1.526050000000000129, -15.72499999999999964 ) ) ;
#1169 = DIRECTION ( 'NONE',  ( 0.000000000000000000, 0.000000000000000000, -1.000000000000000000 ) ) ;
#1170 = VECTOR ( 'NONE', #127, 1000.000000000000000 ) ;
#1171 = VERTEX_POINT ( 'NONE', #862 ) ;
#1172 = AXIS2_PLACEMENT_3D ( 'NONE', #416, #131, #924 ) ;
#1173 = FACE_OUTER_BOUND ( 'NONE', #1085, .T. ) ;
#1174 = LINE ( 'NONE', #1168, #567 ) ;
#1175 = CARTESIAN_POINT ( 'NONE',  ( -1.342906921569768874, -1.587500000000000355, -15.72499999999999964 ) ) ;
#1176 = ORIENTED_EDGE ( 'NONE', *, *, #1067, .T. ) ;
#1177 = PLANE ( 'NONE',  #720 ) ;
#1178 = CARTESIAN_POINT ( 'NONE',  ( -1.524999999999996358, -1.342906921569775092, -14.98599999999999710 ) ) ;
#1179 = CARTESIAN_POINT ( 'NONE',  ( -1.381835320557593061, -1.489817152156427627, -15.72499999999999964 ) ) ;
#1180 = ORIENTED_EDGE ( 'NONE', *, *, #1165, .T. ) ;
#1181 = ORIENTED_EDGE ( 'NONE', *, *, #1234, .T. ) ;
#1182 = CARTESIAN_POINT ( 'NONE',  ( 0.6550150799420408898, -1.526050000000000351, -14.72499999999999787 ) ) ;
#1183 = ORIENTED_EDGE ( 'NONE', *, *, #308, .F. ) ;
#1184 = CYLINDRICAL_SURFACE ( 'NONE', #802, 2.032000000000000028 ) ;
#1185 = EDGE_CURVE ( 'NONE', #942, #568, #282, .T. ) ;
#1186 = FACE_OUTER_BOUND ( 'NONE', #1196, .T. ) ;
#1187 = ORIENTED_EDGE ( 'NONE', *, *, #463, .F. ) ;
#1188 = TOROIDAL_SURFACE ( 'NONE', #1146, 1.245064030267291511, 2.124999999999998224 ) ;
#1189 = APPROVAL_PERSON_ORGANIZATION ( #10, #592, #1020 ) ;
#1190 = CIRCLE ( 'NONE', #1105, 0.5000000000000004441 ) ;
#1191 = CARTESIAN_POINT ( 'NONE',  ( -1.587500000000000355, -0.4276219574846468752, 2.251996392000088942 ) ) ;
#1192 = VECTOR ( 'NONE', #1197, 1000.000000000000000 ) ;
#1193 = EDGE_LOOP ( 'NONE', ( #998, #950, #558, #1180 ) ) ;
#1194 = DIRECTION ( 'NONE',  ( -1.000000000000000000, 0.000000000000000000, 0.000000000000000000 ) ) ;
#1195 = PLANE ( 'NONE',  #458 ) ;
#1196 = EDGE_LOOP ( 'NONE', ( #1161, #1275, #1093, #122 ) ) ;
#1197 = DIRECTION ( 'NONE',  ( 0.000000000000000000, 1.000000000000000000, 0.000000000000000000 ) ) ;
#1198 = ORIENTED_EDGE ( 'NONE', *, *, #564, .F. ) ;
#1199 = FACE_OUTER_BOUND ( 'NONE', #902, .T. ) ;
#1200 = ADVANCED_FACE ( 'NONE', ( #359 ), #1276, .T. ) ;
#1201 = PLANE ( 'NONE',  #1259 ) ;
#1202 = EDGE_CURVE ( 'NONE', #281, #166, #265, .T. ) ;
#1203 = ADVANCED_FACE ( 'NONE', ( #1143 ), #145, .F. ) ;
#1204 = ORIENTED_EDGE ( 'NONE', *, *, #493, .T. ) ;
#1205 = FACE_OUTER_BOUND ( 'NONE', #628, .T. ) ;
#1206 = ORIENTED_EDGE ( 'NONE', *, *, #132, .F. ) ;
#1207 = CARTESIAN_POINT ( 'NONE',  ( 0.3500000000000000333, 1.587500000000000355, -15.72499999999999964 ) ) ;
#1208 = PERSON_AND_ORGANIZATION ( #1240, #675 ) ;
#1209 = CARTESIAN_POINT ( 'NONE',  ( -0.6550150799420408898, -1.526050000000000351, -14.72499999999999787 ) ) ;
#1210 = ORIENTED_EDGE ( 'NONE', *, *, #611, .F. ) ;
#1211 = DIRECTION ( 'NONE',  ( 0.8660254037844443697, -8.326672684688507653E-17, 0.4999999999999898970 ) ) ;
#1212 = CIRCLE ( 'NONE', #521, 2.032000000000000028 ) ;
#1213 = ORIENTED_EDGE ( 'NONE', *, *, #649, .F. ) ;
#1214 = AXIS2_PLACEMENT_3D ( 'NONE', #660, #963, #1050 ) ;
#1215 = CARTESIAN_POINT ( 'NONE',  ( -1.268411506570323866, -1.587500000000000355, -3.174999999999999822 ) ) ;
#1216 = CIRCLE ( 'NONE', #247, 2.032000000000000028 ) ;
#1217 = MECHANICAL_CONTEXT ( 'NONE', #723, 'mechanical' ) ;
#1218 = LOCAL_TIME ( 15, 13, 8.000000000000000000, #709 ) ;
#1219 = DIRECTION ( 'NONE',  ( 0.08715574274765827689, 1.658997436246444216E-16, -0.9961946980917455452 ) ) ;
#1220 = EDGE_LOOP ( 'NONE', ( #1092, #996 ) ) ;
#1221 = FACE_OUTER_BOUND ( 'NONE', #47, .T. ) ;
#1222 = EDGE_CURVE ( 'NONE', #809, #864, #468, .T. ) ;
#1223 = CARTESIAN_POINT ( 'NONE',  ( 0.000000000000000000, 0.000000000000000000, -3.975000000025374902 ) ) ;
#1224 = EDGE_CURVE ( 'NONE', #281, #1288, #762, .T. ) ;
#1225 = PERSON_AND_ORGANIZATION_ROLE ( 'creator' ) ;
#1226 = CARTESIAN_POINT ( 'NONE',  ( 1.525000000000004574, 1.342906921569766876, -14.98599999999999888 ) ) ;
#1227 = ORIENTED_EDGE ( 'NONE', *, *, #724, .F. ) ;
#1228 = VERTEX_POINT ( 'NONE', #157 ) ;
#1229 = LINE ( 'NONE', #510, #717 ) ;
#1230 = DIRECTION ( 'NONE',  ( 1.000000000000000000, 0.000000000000000000, 0.000000000000000000 ) ) ;
#1231 = PRODUCT_DEFINITION ( 'UNKNOWN', '', #776, #59 ) ;
#1232 = DATE_TIME_ROLE ( 'classification_date' ) ;
#1233 = DIRECTION ( 'NONE',  ( 1.000000000000000000, 0.000000000000000000, 0.000000000000000000 ) ) ;
#1234 = EDGE_CURVE ( 'NONE', #1282, #377, #1103, .T. ) ;
#1235 = DIRECTION ( 'NONE',  ( 1.000000000000000000, 1.332267629550187849E-14, 0.000000000000000000 ) ) ;
#1236 = VERTEX_POINT ( 'NONE', #492 ) ;
#1237 = CARTESIAN_POINT ( 'NONE',  ( -0.2043756380772878689, 1.587500000000000133, 2.258409618963796106 ) ) ;
#1238 = CARTESIAN_POINT ( 'NONE',  ( -1.587500000000000355, 1.268411506570323866, -9.525000000000000355 ) ) ;
#1239 = AXIS2_PLACEMENT_3D ( 'NONE', #625, #1241, #533 ) ;
#1240 = PERSON ( 'UNSPECIFIED', 'UNSPECIFIED', 'UNSPECIFIED', ('UNSPECIFIED'), ('UNSPECIFIED'), ('UNSPECIFIED') ) ;
#1241 = DIRECTION ( 'NONE',  ( 0.4999999999999993894, -1.442222014787673972E-16, 0.8660254037844390407 ) ) ;
#1242 = VECTOR ( 'NONE', #291, 1000.000000000000000 ) ;
#1243 = DIRECTION ( 'NONE',  ( 1.000000000000000000, 0.000000000000000000, 0.000000000000000000 ) ) ;
#1244 = EDGE_CURVE ( 'NONE', #523, #780, #202, .T. ) ;
#1245 = LINE ( 'NONE', #435, #115 ) ;
#1246 = CARTESIAN_POINT ( 'NONE',  ( 1.587500000000000355, -1.587500000000000355, 2.286000000000000032 ) ) ;
#1247 = CARTESIAN_POINT ( 'NONE',  ( -0.3500000000000000333, 1.587500000000000355, -15.72499999999999964 ) ) ;
#1248 = LINE ( 'NONE', #1030, #1170 ) ;
#1249 = EDGE_LOOP ( 'NONE', ( #684, #673, #1024, #1204, #490, #586 ) ) ;
#1250 = PRODUCT_DEFINITION_SHAPE ( 'NONE', 'NONE',  #1231 ) ;
#1251 = DIRECTION ( 'NONE',  ( 1.000000000000000000, 0.000000000000000000, 0.000000000000000000 ) ) ;
#1252 = LINE ( 'NONE', #674, #547 ) ;
#1253 = ADVANCED_FACE ( 'NONE', ( #1205 ), #1177, .F. ) ;
#1254 = CARTESIAN_POINT ( 'NONE',  ( 1.804730034320622289, 0.9633170772481883803, -15.14750221061543378 ) ) ;
#1255 = LINE ( 'NONE', #940, #587 ) ;
#1256 = DIRECTION ( 'NONE',  ( 1.000000000000000000, 0.000000000000000000, 0.000000000000000000 ) ) ;
#1257 = CARTESIAN_POINT ( 'NONE',  ( -1.268411506570323866, -1.587500000000000355, 2.134919142097984057 ) ) ;
#1258 = ORIENTED_EDGE ( 'NONE', *, *, #1091, .F. ) ;
#1259 = AXIS2_PLACEMENT_3D ( 'NONE', #1300, #410, #1219 ) ;
#1260 = DIRECTION ( 'NONE',  ( 1.000000000000000000, 0.000000000000000000, 0.000000000000000000 ) ) ;
#1261 = VECTOR ( 'NONE', #559, 1000.000000000000000 ) ;
#1262 = CARTESIAN_POINT ( 'NONE',  ( -1.587500000000000355, -1.268411506570323866, 2.134919142097984057 ) ) ;
#1263 = AXIS2_PLACEMENT_3D ( 'NONE', #361, #857, #1260 ) ;
#1264 = AXIS2_PLACEMENT_3D ( 'NONE', #77, #284, #884 ) ;
#1265 = DIRECTION ( 'NONE',  ( -0.000000000000000000, -0.000000000000000000, 1.000000000000000000 ) ) ;
#1266 = EDGE_CURVE ( 'NONE', #234, #307, #474, .T. ) ;
#1267 = ORIENTED_EDGE ( 'NONE', *, *, #130, .T. ) ;
#1268 = DIRECTION ( 'NONE',  ( 0.000000000000000000, 1.000000000000000000, 0.000000000000000000 ) ) ;
#1269 = EDGE_CURVE ( 'NONE', #388, #1069, #782, .T. ) ;
#1270 = DIRECTION ( 'NONE',  ( -0.000000000000000000, -0.000000000000000000, 1.000000000000000000 ) ) ;
#1271 = DIRECTION ( 'NONE',  ( -1.000000000000000000, 6.217248937900876626E-15, 0.000000000000000000 ) ) ;
#1272 = ORIENTED_EDGE ( 'NONE', *, *, #1244, .T. ) ;
#1273 = DIRECTION ( 'NONE',  ( -1.000000000000000000, 0.000000000000000000, 0.000000000000000000 ) ) ;
#1274 = CARTESIAN_POINT ( 'NONE',  ( -1.587500000000000355, 1.944126793646423534E-16, 2.258227361692866086 ) ) ;
#1275 = ORIENTED_EDGE ( 'NONE', *, *, #407, .T. ) ;
#1276 = CYLINDRICAL_SURFACE ( 'NONE', #921, 2.032000000000000028 ) ;
#1277 = DIRECTION ( 'NONE',  ( 1.000000000000000000, 0.000000000000000000, 0.000000000000000000 ) ) ;
#1278 = PLANE ( 'NONE',  #182 ) ;
#1279 = VECTOR ( 'NONE', #287, 1000.000000000000000 ) ;
#1280 = EDGE_CURVE ( 'NONE', #307, #388, #226, .T. ) ;
#1281 = AXIS2_PLACEMENT_3D ( 'NONE', #1164, #376, #866 ) ;
#1282 = VERTEX_POINT ( 'NONE', #890 ) ;
#1283 = CIRCLE ( 'NONE', #371, 2.032000000000000028 ) ;
#1284 = VECTOR ( 'NONE', #663, 1000.000000000000000 ) ;
#1285 = CARTESIAN_POINT ( 'NONE',  ( 1.891269295326085897, -0.7430507738753575619, -15.19746567625240630 ) ) ;
#1286 = CARTESIAN_POINT ( 'NONE',  ( -1.891269295326085897, 0.7430507738753605596, -15.19746567625240630 ) ) ;
#1287 = VERTEX_POINT ( 'NONE', #995 ) ;
#1288 = VERTEX_POINT ( 'NONE', #95 ) ;
#1289 = CARTESIAN_POINT ( 'NONE',  ( -1.587500000000000355, -1.587500000000000355, -3.174999999999999822 ) ) ;
#1290 = EDGE_CURVE ( 'NONE', #780, #395, #503, .T. ) ;
#1291 = VERTEX_POINT ( 'NONE', #272 ) ;
#1292 = CARTESIAN_POINT ( 'NONE',  ( 0.3499999999999999778, -1.587500000000000355, -14.72499999999999787 ) ) ;
#1293 = FACE_OUTER_BOUND ( 'NONE', #793, .T. ) ;
#1294 = ORIENTED_EDGE ( 'NONE', *, *, #1144, .F. ) ;
#1295 = EDGE_LOOP ( 'NONE', ( #301, #420, #1206, #775, #177 ) ) ;
#1296 = DIRECTION ( 'NONE',  ( 0.000000000000000000, 1.000000000000000000, 0.000000000000000000 ) ) ;
#1297 = ORIENTED_EDGE ( 'NONE', *, *, #1145, .T. ) ;
#1298 = CARTESIAN_POINT ( 'NONE',  ( 1.587500000000000355, 0.2114796877013864762, 2.258227361692866975 ) ) ;
#1299 = EDGE_CURVE ( 'NONE', #1282, #1083, #142, .T. ) ;
#1300 = CARTESIAN_POINT ( 'NONE',  ( 0.4980973490458727726, -1.526050000000000573, -12.93142212862616880 ) ) ;
#1301 =( BOUNDED_CURVE ( )  B_SPLINE_CURVE ( 3, ( #228, #1032, #544, #647 ),
 .UNSPECIFIED., .F., .F. ) 
 B_SPLINE_CURVE_WITH_KNOTS ( ( 4, 4 ),
 ( 3.515950143987019771, 3.863582562670080822 ),
 .UNSPECIFIED. ) 
 CURVE ( )  GEOMETRIC_REPRESENTATION_ITEM ( )  RATIONAL_B_SPLINE_CURVE ( ( 1.000000000000000000, 0.9899546376435812700, 0.9899546376435812700, 1.000000000000000000 ) ) 
 REPRESENTATION_ITEM ( '' )  );
#1302 = AXIS2_PLACEMENT_3D ( 'NONE', #759, #1139, #920 ) ;
#1303 = ORIENTED_EDGE ( 'NONE', *, *, #930, .F. ) ;
#1304 = CARTESIAN_POINT ( 'NONE',  ( -1.587500000000000355, 0.8513200635100124369, 2.216377555318113313 ) ) ;
#1305 = VECTOR ( 'NONE', #1096, 1000.000000000000000 ) ;
#1306 = DIRECTION ( 'NONE',  ( 0.000000000000000000, 0.000000000000000000, -1.000000000000000000 ) ) ;
#1307 = EDGE_CURVE ( 'NONE', #240, #721, #380, .T. ) ;
#1308 = EDGE_CURVE ( 'NONE', #876, #289, #880, .T. ) ;
#1309 = EDGE_CURVE ( 'NONE', #373, #495, #598, .T. ) ;
#1310 = CARTESIAN_POINT ( 'NONE',  ( 2.399999999999999911, 0.000000000000000000, 5.949122102386183997 ) ) ;
#1311 = ORIENTED_EDGE ( 'NONE', *, *, #270, .T. ) ;
#1312 =( NAMED_UNIT ( * ) SI_UNIT ( $, .STERADIAN. ) SOLID_ANGLE_UNIT ( ) );
#1313 = DIRECTION ( 'NONE',  ( -1.000000000000000000, 0.000000000000000000, -0.000000000000000000 ) ) ;
#1314 = PERSON_AND_ORGANIZATION_ROLE ( 'classification_officer' ) ;
#1315 = FACE_OUTER_BOUND ( 'NONE', #42, .T. ) ;
#1316 = ORIENTED_EDGE ( 'NONE', *, *, #440, .T. ) ;
#1317 = DIRECTION ( 'NONE',  ( 5.421010862427517240E-17, 0.000000000000000000, 1.000000000000000000 ) ) ;
ENDSEC;
END-ISO-10303-21;
