ISO-10303-21;
HEADER;
FILE_DESCRIPTION (( 'STEP AP203' ),
    '1' );
FILE_NAME ('228-2500-1909.step',
    '2022-06-06T19:25:41',
    ( '' ),
    ( '' ),
    'SwSTEP 2.0',
    'SolidWorks 2021',
    '' );
FILE_SCHEMA (( 'CONFIG_CONTROL_DESIGN' ));
ENDSEC;

DATA;
#1 = LINE ( 'NONE', #850, #574 ) ;
#2 = DIRECTION ( 'NONE',  ( 1.000000000000000000, 0.000000000000000000, -0.000000000000000000 ) ) ;
#3 = VERTEX_POINT ( 'NONE', #823 ) ;
#4 = CARTESIAN_POINT ( 'NONE',  ( 0.5532014268394552792, 9.243995344137568182, -0.7500000000000000000 ) ) ;
#5 = CARTESIAN_POINT ( 'NONE',  ( -1.228824855862052479, 11.17111495735761295, 0.7500000000000000000 ) ) ;
#6 = EDGE_CURVE ( 'NONE', #64, #604, #450, .T. ) ;
#7 = LINE ( 'NONE', #386, #342 ) ;
#8 = PERSON_AND_ORGANIZATION ( #94, #484 ) ;
#9 = CARTESIAN_POINT ( 'NONE',  ( 1.531611815905994600, 3.695154292499454485, -1.749999999999999778 ) ) ;
#10 = VECTOR ( 'NONE', #779, 1000.000000000000114 ) ;
#11 = LOCAL_TIME ( 14, 25, 41.00000000000000000, #608 ) ;
#12 = EDGE_LOOP ( 'NONE', ( #442, #125, #549, #403 ) ) ;
#13 = DIRECTION ( 'NONE',  ( -0.1736481776669307198, -0.9848077530122080203, -0.000000000000000000 ) ) ;
#14 = CARTESIAN_POINT ( 'NONE',  ( 0.000000000000000000, 0.000000000000000000, 1.750000000000000000 ) ) ;
#15 = CARTESIAN_POINT ( 'NONE',  ( 0.000000000000000000, 0.000000000000000000, 2.286000000000000032 ) ) ;
#16 = EDGE_LOOP ( 'NONE', ( #571, #715, #802, #317, #580, #566, #190, #461 ) ) ;
#17 = CALENDAR_DATE ( 2022, 6, 6 ) ;
#18 = EDGE_CURVE ( 'NONE', #231, #474, #565, .T. ) ;
#19 = CARTESIAN_POINT ( 'NONE',  ( 0.000000000000000000, 0.000000000000000000, 2.286000000000000032 ) ) ;
#20 = CIRCLE ( 'NONE', #380, 2.100000000000000089 ) ;
#21 = CIRCLE ( 'NONE', #849, 4.000000000000000000 ) ;
#22 = ORIENTED_EDGE ( 'NONE', *, *, #6, .F. ) ;
#23 = DATE_TIME_ROLE ( 'creation_date' ) ;
#24 = PRODUCT_DEFINITION ( 'UNKNOWN', '', #552, #236 ) ;
#25 = EDGE_CURVE ( 'NONE', #227, #746, #200, .T. ) ;
#26 = DIRECTION ( 'NONE',  ( -1.000000000000000000, 0.000000000000000000, 0.000000000000000000 ) ) ;
#27 = CARTESIAN_POINT ( 'NONE',  ( 0.000000000000000000, 12.69999999999999929, 0.000000000000000000 ) ) ;
#28 = AXIS2_PLACEMENT_3D ( 'NONE', #668, #738, #208 ) ;
#29 = ORIENTED_EDGE ( 'NONE', *, *, #420, .F. ) ;
#30 = PERSON_AND_ORGANIZATION ( #94, #484 ) ;
#31 = EDGE_CURVE ( 'NONE', #326, #673, #162, .T. ) ;
#32 = ORIENTED_EDGE ( 'NONE', *, *, #486, .T. ) ;
#33 = COORDINATED_UNIVERSAL_TIME_OFFSET ( 6, 0, .BEHIND. ) ;
#34 = DIRECTION ( 'NONE',  ( -0.1736481776669307753, -0.9848077530122080203, 0.000000000000000000 ) ) ;
#35 = EDGE_CURVE ( 'NONE', #826, #841, #852, .T. ) ;
#36 = AXIS2_PLACEMENT_3D ( 'NONE', #761, #651, #129 ) ;
#37 = ORIENTED_EDGE ( 'NONE', *, *, #18, .F. ) ;
#38 = CARTESIAN_POINT ( 'NONE',  ( 3.102144421988453971, 0.5469917596508333535, 0.7500000000000000000 ) ) ;
#39 = EDGE_CURVE ( 'NONE', #421, #93, #20, .T. ) ;
#40 = DIRECTION ( 'NONE',  ( 0.9848077530122080203, 0.1736481776669313026, -0.000000000000000000 ) ) ;
#41 = AXIS2_PLACEMENT_3D ( 'NONE', #506, #244, #512 ) ;
#42 = ORIENTED_EDGE ( 'NONE', *, *, #122, .F. ) ;
#43 = CONICAL_SURFACE ( 'NONE', #361, 3.500000000000000888, 1.308996938995750092 ) ;
#44 = CARTESIAN_POINT ( 'NONE',  ( 0.7692366997037426435, 8.018798428746201523, 1.083313274629223777 ) ) ;
#45 = ORIENTED_EDGE ( 'NONE', *, *, #325, .T. ) ;
#46 = DIRECTION ( 'NONE',  ( 1.000000000000000000, 0.000000000000000000, -0.000000000000000000 ) ) ;
#47 = EDGE_CURVE ( 'NONE', #570, #231, #501, .T. ) ;
#48 = LINE ( 'NONE', #819, #211 ) ;
#49 = CIRCLE ( 'NONE', #519, 4.000000000000000000 ) ;
#50 = DIRECTION ( 'NONE',  ( -0.000000000000000000, -0.000000000000000000, -1.000000000000000000 ) ) ;
#51 = DIRECTION ( 'NONE',  ( 1.000000000000000000, 0.000000000000000000, 0.000000000000000000 ) ) ;
#52 = ORIENTED_EDGE ( 'NONE', *, *, #685, .F. ) ;
#53 = DIRECTION ( 'NONE',  ( 0.1736481776669312471, -0.9848077530122079093, -0.000000000000000000 ) ) ;
#54 = AXIS2_PLACEMENT_3D ( 'NONE', #709, #385, #264 ) ;
#55 = AXIS2_PLACEMENT_3D ( 'NONE', #572, #241, #175 ) ;
#56 = DIRECTION ( 'NONE',  ( 1.000000000000000000, 0.000000000000000000, 0.000000000000000000 ) ) ;
#57 = EDGE_CURVE ( 'NONE', #481, #326, #7, .T. ) ;
#58 = DIRECTION ( 'NONE',  ( 1.000000000000000000, 0.000000000000000000, 0.000000000000000000 ) ) ;
#59 = ORIENTED_EDGE ( 'NONE', *, *, #635, .F. ) ;
#60 = CARTESIAN_POINT ( 'NONE',  ( -2.117336668976247172, 0.3733435819839011627, -0.7500000000000000000 ) ) ;
#61 = DIRECTION ( 'NONE',  ( 0.000000000000000000, 0.000000000000000000, 1.000000000000000000 ) ) ;
#62 = EDGE_CURVE ( 'NONE', #740, #457, #166, .T. ) ;
#63 = FACE_OUTER_BOUND ( 'NONE', #817, .T. ) ;
#64 = VERTEX_POINT ( 'NONE', #71 ) ;
#65 = CARTESIAN_POINT ( 'NONE',  ( -3.102144421988455303, 0.5469917596508317992, 0.7500000000000000000 ) ) ;
#66 = PRODUCT_DEFINITION_SHAPE ( 'NONE', 'NONE',  #24 ) ;
#67 = CARTESIAN_POINT ( 'NONE',  ( -1.201304445764292295, 5.568420475669836556, -1.750000000000000000 ) ) ;
#68 = ORIENTED_EDGE ( 'NONE', *, *, #759, .T. ) ;
#69 = DIRECTION ( 'NONE',  ( 0.000000000000000000, 0.000000000000000000, 1.000000000000000000 ) ) ;
#70 = FACE_OUTER_BOUND ( 'NONE', #77, .T. ) ;
#71 = CARTESIAN_POINT ( 'NONE',  ( 1.255998384004236801, 11.01700622122993245, 0.000000000000000000 ) ) ;
#72 = ORIENTED_EDGE ( 'NONE', *, *, #655, .T. ) ;
#73 = CARTESIAN_POINT ( 'NONE',  ( 2.100000000000000089, 2.571758278209441464E-16, -2.286000000000000032 ) ) ;
#74 = EDGE_CURVE ( 'NONE', #488, #625, #818, .T. ) ;
#75 = CARTESIAN_POINT ( 'NONE',  ( 1.955572233898822621, 7.049525764842820230, 1.413715790179967291 ) ) ;
#76 = DIRECTION ( 'NONE',  ( 0.000000000000000000, 0.000000000000000000, 1.000000000000000000 ) ) ;
#77 = EDGE_LOOP ( 'NONE', ( #762, #88, #441, #555 ) ) ;
#78 = AXIS2_PLACEMENT_3D ( 'NONE', #621, #242, #111 ) ;
#79 = CARTESIAN_POINT ( 'NONE',  ( 2.674056757383616478, 2.974797549126833918, 2.286000000000000032 ) ) ;
#80 = AXIS2_PLACEMENT_3D ( 'NONE', #710, #460, #464 ) ;
#81 = ORIENTED_EDGE ( 'NONE', *, *, #410, .T. ) ;
#82 = PERSON_AND_ORGANIZATION ( #94, #484 ) ;
#83 = FACE_OUTER_BOUND ( 'NONE', #314, .T. ) ;
#84 = DIRECTION ( 'NONE',  ( 0.000000000000000000, 0.000000000000000000, 1.000000000000000000 ) ) ;
#85 = EDGE_CURVE ( 'NONE', #421, #853, #522, .T. ) ;
#86 = EDGE_LOOP ( 'NONE', ( #276, #687, #524, #203 ) ) ;
#87 = COORDINATED_UNIVERSAL_TIME_OFFSET ( 6, 0, .BEHIND. ) ;
#88 = ORIENTED_EDGE ( 'NONE', *, *, #771, .T. ) ;
#89 = DIRECTION ( 'NONE',  ( 1.000000000000000000, 0.000000000000000000, -0.000000000000000000 ) ) ;
#90 = SPHERICAL_SURFACE ( 'NONE', #639, 2.100000000000000977 ) ;
#91 = VERTEX_POINT ( 'NONE', #124 ) ;
#92 = APPROVAL_ROLE ( '' ) ;
#93 = VERTEX_POINT ( 'NONE', #393 ) ;
#94 = PERSON ( 'UNSPECIFIED', 'UNSPECIFIED', 'UNSPECIFIED', ('UNSPECIFIED'), ('UNSPECIFIED'), ('UNSPECIFIED') ) ;
#95 = ADVANCED_FACE ( 'NONE', ( #192, #728 ), #719, .T. ) ;
#96 = DIRECTION ( 'NONE',  ( 0.000000000000000000, 0.000000000000000000, 1.000000000000000000 ) ) ;
#97 = ORIENTED_EDGE ( 'NONE', *, *, #128, .T. ) ;
#98 = APPROVAL_STATUS ( 'not_yet_approved' ) ;
#99 = CARTESIAN_POINT ( 'NONE',  ( 1.201304445764289630, 5.568420475669833003, -1.750000000000000000 ) ) ;
#100 = CARTESIAN_POINT ( 'NONE',  ( 0.9303165118704460612, 12.86403990164134825, 0.000000000000000000 ) ) ;
#101 = ORIENTED_EDGE ( 'NONE', *, *, #693, .F. ) ;
#102 = DIRECTION ( 'NONE',  ( -0.000000000000000000, -0.000000000000000000, -1.000000000000000000 ) ) ;
#103 = ADVANCED_FACE ( 'NONE', ( #262 ), #536, .T. ) ;
#104 = LOCAL_TIME ( 14, 25, 41.00000000000000000, #33 ) ;
#105 = ORIENTED_EDGE ( 'NONE', *, *, #723, .T. ) ;
#106 = CARTESIAN_POINT ( 'NONE',  ( 2.175389215325758574, 5.802881714433000937, -1.750000000000000000 ) ) ;
#107 = PLANE ( 'NONE',  #413 ) ;
#108 = ORIENTED_EDGE ( 'NONE', *, *, #295, .F. ) ;
#109 = ADVANCED_FACE ( 'NONE', ( #63 ), #449, .T. ) ;
#110 = EDGE_LOOP ( 'NONE', ( #321, #378, #42, #263, #22, #59, #180, #296, #705 ) ) ;
#111 = DIRECTION ( 'NONE',  ( -1.000000000000000000, 0.000000000000000000, -1.224646799147353454E-16 ) ) ;
#112 = ORIENTED_EDGE ( 'NONE', *, *, #502, .F. ) ;
#113 = AXIS2_PLACEMENT_3D ( 'NONE', #548, #217, #808 ) ;
#114 = VERTEX_POINT ( 'NONE', #659 ) ;
#115 = LINE ( 'NONE', #643, #825 ) ;
#116 = EDGE_CURVE ( 'NONE', #505, #445, #724, .T. ) ;
#117 = CARTESIAN_POINT ( 'NONE',  ( 0.000000000000000000, 12.69999999999999929, 0.7500000000000000000 ) ) ;
#118 = DIRECTION ( 'NONE',  ( 0.000000000000000000, 0.000000000000000000, 1.000000000000000000 ) ) ;
#119 = CARTESIAN_POINT ( 'NONE',  ( 0.000000000000000000, 0.000000000000000000, -1.750000000000000000 ) ) ;
#120 = CIRCLE ( 'NONE', #426, 4.000000000000000000 ) ;
#121 = CC_DESIGN_APPROVAL ( #177, ( #676 ) ) ;
#122 = EDGE_CURVE ( 'NONE', #424, #702, #554, .T. ) ;
#123 = CARTESIAN_POINT ( 'NONE',  ( 1.515528959068737302, 9.545135189231709560, -0.7500000000000000000 ) ) ;
#124 = CARTESIAN_POINT ( 'NONE',  ( -0.5532014268394628287, 9.243995344137569958, 0.7500000000000000000 ) ) ;
#125 = ORIENTED_EDGE ( 'NONE', *, *, #494, .T. ) ;
#126 = CARTESIAN_POINT ( 'NONE',  ( 1.531611815905994600, 3.695154292499454485, 0.7500000000000000000 ) ) ;
#127 = CARTESIAN_POINT ( 'NONE',  ( -0.5532014268394619405, 9.243995344137569958, 1.750000000000000000 ) ) ;
#128 = EDGE_CURVE ( 'NONE', #130, #435, #21, .T. ) ;
#129 = DIRECTION ( 'NONE',  ( 1.000000000000000000, 0.000000000000000000, 0.000000000000000000 ) ) ;
#130 = VERTEX_POINT ( 'NONE', #681 ) ;
#131 = DIRECTION ( 'NONE',  ( -0.1736481776669312471, 0.9848077530122079093, 0.000000000000000000 ) ) ;
#132 = AXIS2_PLACEMENT_3D ( 'NONE', #100, #40, #300 ) ;
#133 = CIRCLE ( 'NONE', #148, 1.875527152139017106 ) ;
#134 = DIRECTION ( 'NONE',  ( 0.000000000000000000, 0.000000000000000000, 1.000000000000000000 ) ) ;
#135 = CARTESIAN_POINT ( 'NONE',  ( 1.515528959068737302, 9.545135189231709560, -0.7500000000000000000 ) ) ;
#136 = EDGE_CURVE ( 'NONE', #227, #740, #366, .T. ) ;
#137 = ORIENTED_EDGE ( 'NONE', *, *, #39, .T. ) ;
#138 = LOCAL_TIME ( 14, 25, 41.00000000000000000, #815 ) ;
#139 = FACE_OUTER_BOUND ( 'NONE', #611, .T. ) ;
#140 = CARTESIAN_POINT ( 'NONE',  ( 2.117336668976245839, 0.3733435819839020509, 0.7500000000000000000 ) ) ;
#141 = B_SPLINE_CURVE_WITH_KNOTS ( 'NONE', 3,
 ( #4, #146, #340, #733 ),
 .UNSPECIFIED., .F., .F.,
 ( 4, 4 ),
 ( 0.01704444055818802456, 0.02086653153730403179 ),
 .UNSPECIFIED. ) ;
#142 = EDGE_LOOP ( 'NONE', ( #359, #430, #493, #607 ) ) ;
#143 = PERSON_AND_ORGANIZATION_ROLE ( 'design_owner' ) ;
#144 = CARTESIAN_POINT ( 'NONE',  ( 0.000000000000000000, 0.000000000000000000, 2.286000000000000032 ) ) ;
#145 = ORIENTED_EDGE ( 'NONE', *, *, #354, .T. ) ;
#146 = CARTESIAN_POINT ( 'NONE',  ( 0.7692366997296704589, 8.018798428599156480, -1.083313274669227333 ) ) ;
#147 = EDGE_CURVE ( 'NONE', #130, #600, #419, .T. ) ;
#148 = AXIS2_PLACEMENT_3D ( 'NONE', #229, #170, #755 ) ;
#149 = CARTESIAN_POINT ( 'NONE',  ( 0.000000000000000000, 12.69999999999999929, -1.750000000000000000 ) ) ;
#150 = ORIENTED_EDGE ( 'NONE', *, *, #57, .T. ) ;
#151 = PERSON_AND_ORGANIZATION ( #94, #484 ) ;
#152 = B_SPLINE_CURVE_WITH_KNOTS ( 'NONE', 3,
 ( #473, #75, #337, #215 ),
 .UNSPECIFIED., .F., .F.,
 ( 4, 4 ),
 ( 0.01387400591360086338, 0.01780335021726770633 ),
 .UNSPECIFIED. ) ;
#153 = DIRECTION ( 'NONE',  ( 1.000000000000000000, 0.000000000000000000, 0.000000000000000000 ) ) ;
#154 = APPROVAL ( #716, 'UNSPECIFIED' ) ;
#155 = AXIS2_PLACEMENT_3D ( 'NONE', #843, #763, #303 ) ;
#156 = DIRECTION ( 'NONE',  ( -0.000000000000000000, -0.000000000000000000, -1.000000000000000000 ) ) ;
#157 = ORIENTED_EDGE ( 'NONE', *, *, #128, .F. ) ;
#158 = APPROVAL_DATE_TIME ( #281, #855 ) ;
#159 = PLANE ( 'NONE',  #387 ) ;
#160 = CARTESIAN_POINT ( 'NONE',  ( 1.228824855862046039, 11.17111495735760940, 0.7500000000000000000 ) ) ;
#161 = EDGE_LOOP ( 'NONE', ( #52, #656, #514, #247 ) ) ;
#162 = CIRCLE ( 'NONE', #36, 7.232050807568921158 ) ;
#163 = CIRCLE ( 'NONE', #308, 1.875527152139017106 ) ;
#164 = LINE ( 'NONE', #686, #293 ) ;
#165 = EDGE_LOOP ( 'NONE', ( #171, #377, #720, #671, #434, #178, #585, #373, #145 ) ) ;
#166 = B_SPLINE_CURVE_WITH_KNOTS ( 'NONE', 3,
 ( #265, #584, #256, #67 ),
 .UNSPECIFIED., .F., .F.,
 ( 4, 4 ),
 ( 0.000000000000000000, 0.003863921341959626610 ),
 .UNSPECIFIED. ) ;
#167 = ADVANCED_FACE ( 'NONE', ( #540 ), #610, .F. ) ;
#168 = PLANE ( 'NONE',  #252 ) ;
#169 = AXIS2_PLACEMENT_3D ( 'NONE', #431, #812, #480 ) ;
#170 = DIRECTION ( 'NONE',  ( -0.9848077530122080203, 0.1736481776669306920, -0.000000000000000000 ) ) ;
#171 = ORIENTED_EDGE ( 'NONE', *, *, #116, .T. ) ;
#172 = CARTESIAN_POINT ( 'NONE',  ( 0.000000000000000000, 0.000000000000000000, 2.286000000000000032 ) ) ;
#173 = EDGE_CURVE ( 'NONE', #481, #339, #358, .T. ) ;
#174 = DIRECTION ( 'NONE',  ( 1.000000000000000000, 0.000000000000000000, -0.000000000000000000 ) ) ;
#175 = DIRECTION ( 'NONE',  ( 1.000000000000000000, 0.000000000000000000, 0.000000000000000000 ) ) ;
#176 = CARTESIAN_POINT ( 'NONE',  ( 1.201304445764289630, 5.568420475669833003, 1.750000000000000000 ) ) ;
#177 = APPROVAL ( #98, 'UNSPECIFIED' ) ;
#178 = ORIENTED_EDGE ( 'NONE', *, *, #312, .F. ) ;
#179 = CIRCLE ( 'NONE', #205, 2.100000000000000977 ) ;
#180 = ORIENTED_EDGE ( 'NONE', *, *, #568, .F. ) ;
#181 = CARTESIAN_POINT ( 'NONE',  ( 0.000000000000000000, 12.69999999999999929, -0.7500000000000000000 ) ) ;
#182 = EDGE_LOOP ( 'NONE', ( #29, #101, #840, #302 ) ) ;
#183 = ADVANCED_FACE ( 'NONE', ( #543 ), #465, .F. ) ;
#184 = DIRECTION ( 'NONE',  ( 1.000000000000000000, 0.000000000000000000, 0.000000000000000000 ) ) ;
#185 = DIRECTION ( 'NONE',  ( 1.000000000000000000, 0.000000000000000000, 0.000000000000000000 ) ) ;
#186 = DIRECTION ( 'NONE',  ( 0.000000000000000000, 0.000000000000000000, 1.000000000000000000 ) ) ;
#187 = EDGE_CURVE ( 'NONE', #445, #3, #49, .T. ) ;
#188 = VECTOR ( 'NONE', #76, 1000.000000000000000 ) ;
#189 = PLANE ( 'NONE',  #700 ) ;
#190 = ORIENTED_EDGE ( 'NONE', *, *, #620, .T. ) ;
#191 = DIRECTION ( 'NONE',  ( -0.000000000000000000, -0.000000000000000000, -1.000000000000000000 ) ) ;
#192 = FACE_OUTER_BOUND ( 'NONE', #253, .T. ) ;
#193 = VERTEX_POINT ( 'NONE', #160 ) ;
#194 = CARTESIAN_POINT ( 'NONE',  ( 0.000000000000000000, 12.69999999999999929, 0.7500000000000000000 ) ) ;
#195 = LINE ( 'NONE', #127, #10 ) ;
#196 = ADVANCED_FACE ( 'NONE', ( #345 ), #90, .T. ) ;
#197 = CARTESIAN_POINT ( 'NONE',  ( -1.955570814962784176, 7.049533812029007862, -1.413713619438730085 ) ) ;
#198 = VERTEX_POINT ( 'NONE', #221 ) ;
#199 = DIRECTION ( 'NONE',  ( 0.000000000000000000, 0.000000000000000000, 1.000000000000000000 ) ) ;
#200 = B_SPLINE_CURVE_WITH_KNOTS ( 'NONE', 3,
 ( #320, #791, #197, #780 ),
 .UNSPECIFIED., .F., .F.,
 ( 4, 4 ),
 ( 0.01711518190191804040, 0.02097133155354474060 ),
 .UNSPECIFIED. ) ;
#201 = CARTESIAN_POINT ( 'NONE',  ( -1.255998384004242796, 11.01700622122993600, -1.538154400705043797E-16 ) ) ;
#202 = DIRECTION ( 'NONE',  ( 0.000000000000000000, 0.000000000000000000, 1.000000000000000000 ) ) ;
#203 = ORIENTED_EDGE ( 'NONE', *, *, #325, .F. ) ;
#204 = DIRECTION ( 'NONE',  ( 1.000000000000000000, 0.000000000000000000, 0.000000000000000000 ) ) ;
#205 = AXIS2_PLACEMENT_3D ( 'NONE', #591, #134, #56 ) ;
#206 = VERTEX_POINT ( 'NONE', #747 ) ;
#207 = EDGE_CURVE ( 'NONE', #424, #604, #164, .T. ) ;
#208 = DIRECTION ( 'NONE',  ( 0.1736481776669312194, -0.9848077530122079093, 8.881784197001248379E-16 ) ) ;
#209 = ORIENTED_EDGE ( 'NONE', *, *, #470, .T. ) ;
#210 = PERSON_AND_ORGANIZATION_ROLE ( 'creator' ) ;
#211 = VECTOR ( 'NONE', #557, 1000.000000000000114 ) ;
#212 = LINE ( 'NONE', #758, #271 ) ;
#213 = ORIENTED_EDGE ( 'NONE', *, *, #629, .T. ) ;
#214 = APPROVAL_DATE_TIME ( #692, #154 ) ;
#215 = CARTESIAN_POINT ( 'NONE',  ( 1.515528959068737747, 9.545135189231711337, 0.7500000000000000000 ) ) ;
#216 = VECTOR ( 'NONE', #788, 1000.000000000000000 ) ;
#217 = DIRECTION ( 'NONE',  ( -0.000000000000000000, -0.000000000000000000, -1.000000000000000000 ) ) ;
#218 = EDGE_LOOP ( 'NONE', ( #630, #830, #400, #562, #730, #157, #309, #298, #776, #305, #520, #616 ) ) ;
#219 = PERSON_AND_ORGANIZATION ( #94, #484 ) ;
#220 = DIRECTION ( 'NONE',  ( -0.000000000000000000, -0.000000000000000000, -1.000000000000000000 ) ) ;
#221 = CARTESIAN_POINT ( 'NONE',  ( -1.531611815905998153, 3.695154292499453152, 0.7500000000000000000 ) ) ;
#222 = EDGE_CURVE ( 'NONE', #500, #691, #778, .T. ) ;
#223 = ORIENTED_EDGE ( 'NONE', *, *, #821, .F. ) ;
#224 = CLOSED_SHELL ( 'NONE', ( #196, #167, #667, #597, #662, #718, #95, #734, #452, #392, #546, #103, #789, #183, #745, #440, #287, #644, #246, #531, #232, #282, #835, #109 ) ) ;
#225 = VECTOR ( 'NONE', #34, 1000.000000000000114 ) ;
#226 = CARTESIAN_POINT ( 'NONE',  ( -3.102144421988455303, 0.5469917596508317992, 0.7500000000000000000 ) ) ;
#227 = VERTEX_POINT ( 'NONE', #829 ) ;
#228 = CALENDAR_DATE ( 2022, 6, 6 ) ;
#229 = CARTESIAN_POINT ( 'NONE',  ( -0.9303165118704541658, 12.86403990164134825, 0.000000000000000000 ) ) ;
#230 = VECTOR ( 'NONE', #773, 1000.000000000000114 ) ;
#231 = VERTEX_POINT ( 'NONE', #237 ) ;
#232 = ADVANCED_FACE ( 'NONE', ( #381 ), #636, .F. ) ;
#233 = LINE ( 'NONE', #508, #225 ) ;
#234 = CARTESIAN_POINT ( 'NONE',  ( 4.000000000000000000, 4.898587196589412829E-16, 2.286000000000000032 ) ) ;
#235 = CARTESIAN_POINT ( 'NONE',  ( 1.515528959068737747, 9.545135189231711337, 0.7500000000000000000 ) ) ;
#236 = DESIGN_CONTEXT ( 'detailed design', #669, 'design' ) ;
#237 = CARTESIAN_POINT ( 'NONE',  ( 4.000000000000000000, 4.898587196589412829E-16, 2.286000000000000032 ) ) ;
#238 = AXIS2_PLACEMENT_3D ( 'NONE', #328, #186, #2 ) ;
#239 = EDGE_LOOP ( 'NONE', ( #329, #559, #374, #363 ) ) ;
#240 = CONICAL_SURFACE ( 'NONE', #831, 3.500000000000000444, 1.308996938995750092 ) ;
#241 = DIRECTION ( 'NONE',  ( 0.000000000000000000, 0.000000000000000000, 1.000000000000000000 ) ) ;
#242 = DIRECTION ( 'NONE',  ( 1.224646799147353207E-16, -5.800957649918507197E-33, -1.000000000000000000 ) ) ;
#243 = ORIENTED_EDGE ( 'NONE', *, *, #573, .T. ) ;
#244 = DIRECTION ( 'NONE',  ( -0.000000000000000000, -0.000000000000000000, -1.000000000000000000 ) ) ;
#245 = CARTESIAN_POINT ( 'NONE',  ( 0.000000000000000000, 0.000000000000000000, -1.750000000000000000 ) ) ;
#246 = ADVANCED_FACE ( 'NONE', ( #836 ), #478, .F. ) ;
#247 = ORIENTED_EDGE ( 'NONE', *, *, #344, .F. ) ;
#248 = CARTESIAN_POINT ( 'NONE',  ( -0.5532014268394627177, 9.243995344137569958, -0.7500000000000000000 ) ) ;
#249 = B_SPLINE_CURVE_WITH_KNOTS ( 'NONE', 3,
 ( #273, #414, #418, #677 ),
 .UNSPECIFIED., .F., .F.,
 ( 4, 4 ),
 ( 0.01393939531072627136, 0.01780331665249897111 ),
 .UNSPECIFIED. ) ;
#250 = CARTESIAN_POINT ( 'NONE',  ( -1.201304445764292295, 5.568420475669836556, -1.750000000000000000 ) ) ;
#251 = CARTESIAN_POINT ( 'NONE',  ( -1.515528959068742854, 9.545135189231713113, 0.7500000000000000000 ) ) ;
#252 = AXIS2_PLACEMENT_3D ( 'NONE', #38, #564, #575 ) ;
#253 = EDGE_LOOP ( 'NONE', ( #537, #72 ) ) ;
#254 = UNCERTAINTY_MEASURE_WITH_UNIT (LENGTH_MEASURE( 1.000000000000000082E-05 ), #335, 'distance_accuracy_value', 'NONE');
#255 = CARTESIAN_POINT ( 'NONE',  ( -0.5532014268394619405, 9.243995344137569958, 1.750000000000000000 ) ) ;
#256 = CARTESIAN_POINT ( 'NONE',  ( -0.9852705577793908764, 6.793609537019934308, -1.416656959214219524 ) ) ;
#257 = ORIENTED_EDGE ( 'NONE', *, *, #723, .F. ) ;
#258 = AXIS2_PLACEMENT_3D ( 'NONE', #144, #220, #26 ) ;
#259 = CIRCLE ( 'NONE', #169, 3.500000000000000444 ) ;
#260 = EDGE_CURVE ( 'NONE', #93, #421, #382, .T. ) ;
#261 = DIRECTION ( 'NONE',  ( -0.000000000000000000, -0.000000000000000000, -1.000000000000000000 ) ) ;
#262 = FACE_OUTER_BOUND ( 'NONE', #766, .T. ) ;
#263 = ORIENTED_EDGE ( 'NONE', *, *, #207, .T. ) ;
#264 = DIRECTION ( 'NONE',  ( 1.000000000000000000, 0.000000000000000000, 0.000000000000000000 ) ) ;
#265 = CARTESIAN_POINT ( 'NONE',  ( -0.5532014268394627177, 9.243995344137569958, -0.7500000000000000000 ) ) ;
#266 = EDGE_LOOP ( 'NONE', ( #847, #696 ) ) ;
#267 = PLANE ( 'NONE',  #754 ) ;
#268 = DIRECTION ( 'NONE',  ( 0.000000000000000000, 0.000000000000000000, 1.000000000000000000 ) ) ;
#269 = DIRECTION ( 'NONE',  ( 1.000000000000000000, 0.000000000000000000, 0.000000000000000000 ) ) ;
#270 = ORIENTED_EDGE ( 'NONE', *, *, #753, .T. ) ;
#271 = VECTOR ( 'NONE', #731, 999.9999999999998863 ) ;
#272 = APPROVAL_PERSON_ORGANIZATION ( #550, #177, #489 ) ;
#273 = CARTESIAN_POINT ( 'NONE',  ( -1.201304445764292295, 5.568420475669836556, 1.750000000000000000 ) ) ;
#274 = DIRECTION ( 'NONE',  ( -0.000000000000000000, -0.000000000000000000, -1.000000000000000000 ) ) ;
#275 = EDGE_CURVE ( 'NONE', #634, #625, #365, .T. ) ;
#276 = ORIENTED_EDGE ( 'NONE', *, *, #655, .F. ) ;
#277 = DIRECTION ( 'NONE',  ( 0.9848077530122079093, 0.1736481776669312471, -0.000000000000000000 ) ) ;
#278 = DIRECTION ( 'NONE',  ( 1.000000000000000000, 0.000000000000000000, -0.000000000000000000 ) ) ;
#279 = DIRECTION ( 'NONE',  ( -0.000000000000000000, -0.000000000000000000, -1.000000000000000000 ) ) ;
#280 = ORIENTED_EDGE ( 'NONE', *, *, #502, .T. ) ;
#281 = DATE_AND_TIME ( #617, #619 ) ;
#282 = ADVANCED_FACE ( 'NONE', ( #560 ), #304, .F. ) ;
#283 = AXIS2_PLACEMENT_3D ( 'NONE', #181, #504, #760 ) ;
#284 = CARTESIAN_POINT ( 'NONE',  ( 0.000000000000000000, 12.69999999999999929, 1.750000000000000000 ) ) ;
#285 = ORIENTED_EDGE ( 'NONE', *, *, #6, .T. ) ;
#286 = DATE_AND_TIME ( #752, #800 ) ;
#287 = ADVANCED_FACE ( 'NONE', ( #624 ), #107, .F. ) ;
#288 = FACE_OUTER_BOUND ( 'NONE', #86, .T. ) ;
#289 = DIRECTION ( 'NONE',  ( 0.000000000000000000, 0.000000000000000000, -1.000000000000000000 ) ) ;
#290 = ORIENTED_EDGE ( 'NONE', *, *, #494, .F. ) ;
#291 = PERSON_AND_ORGANIZATION_ROLE ( 'design_supplier' ) ;
#292 = VERTEX_POINT ( 'NONE', #99 ) ;
#293 = VECTOR ( 'NONE', #362, 999.9999999999998863 ) ;
#294 = DIRECTION ( 'NONE',  ( -0.9848077530122080203, 0.1736481776669307753, 0.000000000000000000 ) ) ;
#295 = EDGE_CURVE ( 'NONE', #91, #198, #233, .T. ) ;
#296 = ORIENTED_EDGE ( 'NONE', *, *, #589, .F. ) ;
#297 = PERSON_AND_ORGANIZATION ( #94, #484 ) ;
#298 = ORIENTED_EDGE ( 'NONE', *, *, #420, .T. ) ;
#299 = FACE_OUTER_BOUND ( 'NONE', #110, .T. ) ;
#300 = DIRECTION ( 'NONE',  ( 0.1736481776669312194, -0.9848077530122079093, 0.000000000000000000 ) ) ;
#301 = CC_DESIGN_DATE_AND_TIME_ASSIGNMENT ( #684, #23, ( #24 ) ) ;
#302 = ORIENTED_EDGE ( 'NONE', *, *, #783, .F. ) ;
#303 = DIRECTION ( 'NONE',  ( 1.000000000000000000, 0.000000000000000000, -0.000000000000000000 ) ) ;
#304 = PLANE ( 'NONE',  #603 ) ;
#305 = ORIENTED_EDGE ( 'NONE', *, *, #707, .F. ) ;
#306 = DIRECTION ( 'NONE',  ( -0.000000000000000000, -0.000000000000000000, -1.000000000000000000 ) ) ;
#307 = DIRECTION ( 'NONE',  ( 1.000000000000000000, 0.000000000000000000, 0.000000000000000000 ) ) ;
#308 = AXIS2_PLACEMENT_3D ( 'NONE', #663, #774, #578 ) ;
#309 = ORIENTED_EDGE ( 'NONE', *, *, #147, .T. ) ;
#310 = ORIENTED_EDGE ( 'NONE', *, *, #35, .F. ) ;
#311 = CARTESIAN_POINT ( 'NONE',  ( 0.000000000000000000, 0.000000000000000000, -2.286000000000000032 ) ) ;
#312 = EDGE_CURVE ( 'NONE', #528, #500, #133, .T. ) ;
#313 = DIRECTION ( 'NONE',  ( 1.000000000000000000, 0.000000000000000000, 0.000000000000000000 ) ) ;
#314 = EDGE_LOOP ( 'NONE', ( #37, #757, #45, #725 ) ) ;
#315 = AXIS2_PLACEMENT_3D ( 'NONE', #311, #837, #184 ) ;
#316 = APPROVAL_PERSON_ORGANIZATION ( #297, #855, #92 ) ;
#317 = ORIENTED_EDGE ( 'NONE', *, *, #35, .T. ) ;
#318 = PLANE ( 'NONE',  #155 ) ;
#319 = CARTESIAN_POINT ( 'NONE',  ( 0.5532014268394552792, 9.243995344137568182, -0.7500000000000000000 ) ) ;
#320 = CARTESIAN_POINT ( 'NONE',  ( -1.515528959068742409, 9.545135189231711337, -0.7500000000000000000 ) ) ;
#321 = ORIENTED_EDGE ( 'NONE', *, *, #173, .T. ) ;
#322 = LINE ( 'NONE', #699, #230 ) ;
#323 = CARTESIAN_POINT ( 'NONE',  ( -1.228824855862052479, 11.17111495735761295, -0.7500000000000000000 ) ) ;
#324 = CARTESIAN_POINT ( 'NONE',  ( 0.000000000000000000, 12.69999999999999929, 0.000000000000000000 ) ) ;
#325 = EDGE_CURVE ( 'NONE', #570, #114, #444, .T. ) ;
#326 = VERTEX_POINT ( 'NONE', #694 ) ;
#327 = DIRECTION ( 'NONE',  ( 0.9848077530122080203, -0.1736481776669306920, 0.000000000000000000 ) ) ;
#328 = CARTESIAN_POINT ( 'NONE',  ( 0.000000000000000000, 0.000000000000000000, 2.286000000000000032 ) ) ;
#329 = ORIENTED_EDGE ( 'NONE', *, *, #479, .F. ) ;
#330 = DIRECTION ( 'NONE',  ( 1.000000000000000000, 0.000000000000000000, 0.000000000000000000 ) ) ;
#331 = CC_DESIGN_PERSON_AND_ORGANIZATION_ASSIGNMENT ( #737, #210, ( #552 ) ) ;
#332 = CARTESIAN_POINT ( 'NONE',  ( 0.000000000000000000, 0.000000000000000000, 2.286000000000000032 ) ) ;
#333 = CARTESIAN_POINT ( 'NONE',  ( 1.735761751450454415, 8.296132957713643563, -1.077219734729841782 ) ) ;
#334 = EDGE_LOOP ( 'NONE', ( #310, #351, #257, #576 ) ) ;
#335 =( LENGTH_UNIT ( ) NAMED_UNIT ( * ) SI_UNIT ( .MILLI., .METRE. ) );
#336 = EDGE_CURVE ( 'NONE', #435, #637, #438, .T. ) ;
#337 = CARTESIAN_POINT ( 'NONE',  ( 1.735764835540843265, 8.296115466967888707, 1.077224317041258983 ) ) ;
#338 = CARTESIAN_POINT ( 'NONE',  ( 0.000000000000000000, 0.000000000000000000, -0.7499999999999997780 ) ) ;
#339 = VERTEX_POINT ( 'NONE', #492 ) ;
#340 = CARTESIAN_POINT ( 'NONE',  ( 0.9852705577734479636, 6.793609537053615810, -1.416656959205055522 ) ) ;
#341 = CIRCLE ( 'NONE', #432, 4.000000000000000000 ) ;
#342 = VECTOR ( 'NONE', #845, 1000.000000000000114 ) ;
#343 = DIRECTION ( 'NONE',  ( -0.000000000000000000, -0.000000000000000000, -1.000000000000000000 ) ) ;
#344 = EDGE_CURVE ( 'NONE', #637, #457, #48, .T. ) ;
#345 = FACE_OUTER_BOUND ( 'NONE', #394, .T. ) ;
#346 = VERTEX_POINT ( 'NONE', #628 ) ;
#347 = APPROVAL_ROLE ( '' ) ;
#348 = AXIS2_PLACEMENT_3D ( 'NONE', #516, #451, #777 ) ;
#349 = DIRECTION ( 'NONE',  ( 1.000000000000000000, 0.000000000000000000, 0.000000000000000000 ) ) ;
#350 = CARTESIAN_POINT ( 'NONE',  ( 1.531611815905994600, 3.695154292499454485, 1.750000000000000000 ) ) ;
#351 = ORIENTED_EDGE ( 'NONE', *, *, #801, .F. ) ;
#352 = DIRECTION ( 'NONE',  ( 1.000000000000000000, 0.000000000000000000, 0.000000000000000000 ) ) ;
#353 = ORIENTED_EDGE ( 'NONE', *, *, #410, .F. ) ;
#354 = EDGE_CURVE ( 'NONE', #746, #505, #764, .T. ) ;
#355 = AXIS2_PLACEMENT_3D ( 'NONE', #324, #527, #588 ) ;
#356 = AXIS2_PLACEMENT_3D ( 'NONE', #15, #670, #813 ) ;
#357 = FACE_BOUND ( 'NONE', #218, .T. ) ;
#358 = LINE ( 'NONE', #79, #834 ) ;
#359 = ORIENTED_EDGE ( 'NONE', *, *, #25, .F. ) ;
#360 = AXIS2_PLACEMENT_3D ( 'NONE', #795, #61, #722 ) ;
#361 = AXIS2_PLACEMENT_3D ( 'NONE', #194, #721, #330 ) ;
#362 = DIRECTION ( 'NONE',  ( -0.1736481776669313026, 0.9848077530122080203, 0.000000000000000000 ) ) ;
#363 = ORIENTED_EDGE ( 'NONE', *, *, #638, .T. ) ;
#364 = EDGE_CURVE ( 'NONE', #673, #841, #389, .T. ) ;
#365 = LINE ( 'NONE', #226, #587 ) ;
#366 = CIRCLE ( 'NONE', #750, 3.500000000000000888 ) ;
#367 = DIRECTION ( 'NONE',  ( 0.000000000000000000, 0.000000000000000000, 1.000000000000000000 ) ) ;
#368 = CC_DESIGN_PERSON_AND_ORGANIZATION_ASSIGNMENT ( #151, #623, ( #24 ) ) ;
#369 = ORIENTED_EDGE ( 'NONE', *, *, #558, .F. ) ;
#370 = FACE_OUTER_BOUND ( 'NONE', #446, .T. ) ;
#371 = AXIS2_PLACEMENT_3D ( 'NONE', #65, #327, #857 ) ;
#372 = CARTESIAN_POINT ( 'NONE',  ( -1.531611815905996821, 3.695154292499454041, 1.750000000000000000 ) ) ;
#373 = ORIENTED_EDGE ( 'NONE', *, *, #25, .T. ) ;
#374 = ORIENTED_EDGE ( 'NONE', *, *, #573, .F. ) ;
#375 = FACE_OUTER_BOUND ( 'NONE', #182, .T. ) ;
#376 = DIRECTION ( 'NONE',  ( 0.000000000000000000, 0.000000000000000000, 1.000000000000000000 ) ) ;
#377 = ORIENTED_EDGE ( 'NONE', *, *, #458, .F. ) ;
#378 = ORIENTED_EDGE ( 'NONE', *, *, #783, .T. ) ;
#379 = EDGE_CURVE ( 'NONE', #114, #474, #341, .T. ) ;
#380 = AXIS2_PLACEMENT_3D ( 'NONE', #398, #118, #454 ) ;
#381 = FACE_OUTER_BOUND ( 'NONE', #161, .T. ) ;
#382 = CIRCLE ( 'NONE', #503, 2.100000000000000089 ) ;
#383 = ORIENTED_EDGE ( 'NONE', *, *, #509, .T. ) ;
#384 = DIRECTION ( 'NONE',  ( 0.000000000000000000, 0.000000000000000000, 1.000000000000000000 ) ) ;
#385 = DIRECTION ( 'NONE',  ( 0.000000000000000000, 0.000000000000000000, 1.000000000000000000 ) ) ;
#386 = CARTESIAN_POINT ( 'NONE',  ( 2.674056757383616478, 2.974797549126833918, 1.750000000000000000 ) ) ;
#387 = AXIS2_PLACEMENT_3D ( 'NONE', #680, #799, #89 ) ;
#388 = CARTESIAN_POINT ( 'NONE',  ( -2.175389215325761239, 5.802881714433000937, -1.750000000000000000 ) ) ;
#389 = B_SPLINE_CURVE_WITH_KNOTS ( 'NONE', 3,
 ( #176, #633, #44, #701 ),
 .UNSPECIFIED., .F., .F.,
 ( 4, 4 ),
 ( 0.000000000000000000, 0.003863921341959627043 ),
 .UNSPECIFIED. ) ;
#390 = APPLICATION_CONTEXT ( 'configuration controlled 3d designs of mechanical parts and assemblies' ) ;
#391 = CYLINDRICAL_SURFACE ( 'NONE', #683, 2.100000000000000089 ) ;
#392 = ADVANCED_FACE ( 'NONE', ( #299 ), #168, .F. ) ;
#393 = CARTESIAN_POINT ( 'NONE',  ( -2.100000000000000089, 0.000000000000000000, 2.286000000000000032 ) ) ;
#394 = EDGE_LOOP ( 'NONE', ( #642, #775, #112, #285, #81 ) ) ;
#395 = CARTESIAN_POINT ( 'NONE',  ( 2.674056757383616478, 2.974797549126833918, -1.750000000000000000 ) ) ;
#396 = DIRECTION ( 'NONE',  ( 1.000000000000000000, 0.000000000000000000, 0.000000000000000000 ) ) ;
#397 = CC_DESIGN_DATE_AND_TIME_ASSIGNMENT ( #286, #477, ( #676 ) ) ;
#398 = CARTESIAN_POINT ( 'NONE',  ( 0.000000000000000000, 0.000000000000000000, 2.286000000000000032 ) ) ;
#399 = VECTOR ( 'NONE', #499, 1000.000000000000000 ) ;
#400 = ORIENTED_EDGE ( 'NONE', *, *, #116, .F. ) ;
#401 =( NAMED_UNIT ( * ) PLANE_ANGLE_UNIT ( ) SI_UNIT ( $, .RADIAN. ) );
#402 = DIRECTION ( 'NONE',  ( -0.000000000000000000, -0.000000000000000000, -1.000000000000000000 ) ) ;
#403 = ORIENTED_EDGE ( 'NONE', *, *, #693, .T. ) ;
#404 = AXIS2_PLACEMENT_3D ( 'NONE', #601, #535, #422 ) ;
#405 = CARTESIAN_POINT ( 'NONE',  ( -3.102144421988455303, 0.5469917596508317992, -0.7500000000000000000 ) ) ;
#406 = CARTESIAN_POINT ( 'NONE',  ( -2.100000000000000089, 0.000000000000000000, 2.286000000000000032 ) ) ;
#407 = CARTESIAN_POINT ( 'NONE',  ( 2.175389215325758574, 5.802881714433000937, -1.750000000000000000 ) ) ;
#408 = ORIENTED_EDGE ( 'NONE', *, *, #515, .F. ) ;
#409 = CARTESIAN_POINT ( 'NONE',  ( 1.531611815905994600, 3.695154292499454485, 1.750000000000000000 ) ) ;
#410 = EDGE_CURVE ( 'NONE', #604, #528, #532, .T. ) ;
#411 = CARTESIAN_POINT ( 'NONE',  ( -4.000000000000000000, 0.000000000000000000, 2.286000000000000032 ) ) ;
#412 = CARTESIAN_POINT ( 'NONE',  ( 0.000000000000000000, 12.69999999999999929, -0.7500000000000000000 ) ) ;
#413 = AXIS2_PLACEMENT_3D ( 'NONE', #751, #433, #697 ) ;
#414 = CARTESIAN_POINT ( 'NONE',  ( -0.9852705577893959843, 6.793609536963193030, 1.416656959229657620 ) ) ;
#415 = ORIENTED_EDGE ( 'NONE', *, *, #122, .T. ) ;
#416 = DATE_AND_TIME ( #17, #104 ) ;
#417 = AXIS2_PLACEMENT_3D ( 'NONE', #172, #50, #577 ) ;
#418 = CARTESIAN_POINT ( 'NONE',  ( -0.7692366997660891048, 8.018798428392642563, 1.083313274725409281 ) ) ;
#419 = LINE ( 'NONE', #350, #794 ) ;
#420 = EDGE_CURVE ( 'NONE', #600, #339, #654, .T. ) ;
#421 = VERTEX_POINT ( 'NONE', #717 ) ;
#422 = DIRECTION ( 'NONE',  ( 1.000000000000000000, 0.000000000000000000, 0.000000000000000000 ) ) ;
#423 = CC_DESIGN_PERSON_AND_ORGANIZATION_ASSIGNMENT ( #8, #143, ( #842 ) ) ;
#424 = VERTEX_POINT ( 'NONE', #123 ) ;
#425 = ORIENTED_EDGE ( 'NONE', *, *, #364, .F. ) ;
#426 = AXIS2_PLACEMENT_3D ( 'NONE', #19, #615, #804 ) ;
#427 = CARTESIAN_POINT ( 'NONE',  ( 0.000000000000000000, 12.69999999999999929, -0.7500000000000000000 ) ) ;
#428 = ORIENTED_EDGE ( 'NONE', *, *, #678, .F. ) ;
#429 = CARTESIAN_POINT ( 'NONE',  ( -4.000000000000000000, 0.000000000000000000, 2.286000000000000032 ) ) ;
#430 = ORIENTED_EDGE ( 'NONE', *, *, #136, .T. ) ;
#431 = CARTESIAN_POINT ( 'NONE',  ( 0.000000000000000000, 12.69999999999999929, 0.7500000000000000000 ) ) ;
#432 = AXIS2_PLACEMENT_3D ( 'NONE', #640, #376, #307 ) ;
#433 = DIRECTION ( 'NONE',  ( 0.9848077530122079093, 0.1736481776669312471, -0.000000000000000000 ) ) ;
#434 = ORIENTED_EDGE ( 'NONE', *, *, #470, .F. ) ;
#435 = VERTEX_POINT ( 'NONE', #844 ) ;
#436 = DIRECTION ( 'NONE',  ( 0.000000000000000000, 0.000000000000000000, 1.000000000000000000 ) ) ;
#437 = VECTOR ( 'NONE', #583, 1000.000000000000114 ) ;
#438 = LINE ( 'NONE', #372, #627 ) ;
#439 = AXIS2_PLACEMENT_3D ( 'NONE', #793, #199, #204 ) ;
#440 = ADVANCED_FACE ( 'NONE', ( #513 ), #240, .F. ) ;
#441 = ORIENTED_EDGE ( 'NONE', *, *, #336, .T. ) ;
#442 = ORIENTED_EDGE ( 'NONE', *, *, #147, .F. ) ;
#443 = CARTESIAN_POINT ( 'NONE',  ( -1.531611815905996821, 3.695154292499454041, 1.750000000000000000 ) ) ;
#444 = LINE ( 'NONE', #429, #708 ) ;
#445 = VERTEX_POINT ( 'NONE', #790 ) ;
#446 = EDGE_LOOP ( 'NONE', ( #665, #832, #533, #353, #787, #828, #290, #97 ) ) ;
#447 = DIRECTION ( 'NONE',  ( 1.000000000000000000, 0.000000000000000000, -0.000000000000000000 ) ) ;
#448 = DIRECTION ( 'NONE',  ( -1.000000000000000000, 0.000000000000000000, 0.000000000000000000 ) ) ;
#449 = PLANE ( 'NONE',  #80 ) ;
#450 = CIRCLE ( 'NONE', #132, 1.875527152139022435 ) ;
#451 = DIRECTION ( 'NONE',  ( -0.000000000000000000, -0.000000000000000000, -1.000000000000000000 ) ) ;
#452 = ADVANCED_FACE ( 'NONE', ( #139 ), #391, .F. ) ;
#453 = DIRECTION ( 'NONE',  ( -0.000000000000000000, -0.000000000000000000, -1.000000000000000000 ) ) ;
#454 = DIRECTION ( 'NONE',  ( 1.000000000000000000, 0.000000000000000000, 0.000000000000000000 ) ) ;
#455 = AXIS2_PLACEMENT_3D ( 'NONE', #807, #497, #153 ) ;
#456 = VECTOR ( 'NONE', #306, 1000.000000000000000 ) ;
#457 = VERTEX_POINT ( 'NONE', #250 ) ;
#458 = EDGE_CURVE ( 'NONE', #488, #445, #1, .T. ) ;
#459 = DIRECTION ( 'NONE',  ( -0.000000000000000000, -0.000000000000000000, -1.000000000000000000 ) ) ;
#460 = DIRECTION ( 'NONE',  ( 0.000000000000000000, 0.000000000000000000, 1.000000000000000000 ) ) ;
#461 = ORIENTED_EDGE ( 'NONE', *, *, #275, .T. ) ;
#462 = CARTESIAN_POINT ( 'NONE',  ( 0.5532014268394573886, 9.243995344137566406, 0.7500000000000000000 ) ) ;
#463 = PLANE ( 'NONE',  #371 ) ;
#464 = DIRECTION ( 'NONE',  ( 1.000000000000000000, 0.000000000000000000, -0.000000000000000000 ) ) ;
#465 = CONICAL_SURFACE ( 'NONE', #113, 3.500000000000000444, 1.308996938995750092 ) ;
#466 = EDGE_LOOP ( 'NONE', ( #108, #652, #408, #270 ) ) ;
#467 = LINE ( 'NONE', #409, #216 ) ;
#468 = CARTESIAN_POINT ( 'NONE',  ( -2.175389215325761239, 5.802881714433000937, 1.750000000000000000 ) ) ;
#469 = CARTESIAN_POINT ( 'NONE',  ( 0.000000000000000000, 0.000000000000000000, 2.286000000000000032 ) ) ;
#470 = EDGE_CURVE ( 'NONE', #500, #634, #163, .T. ) ;
#471 = EDGE_LOOP ( 'NONE', ( #68, #32 ) ) ;
#472 = CIRCLE ( 'NONE', #28, 1.875527152139022435 ) ;
#473 = CARTESIAN_POINT ( 'NONE',  ( 2.175389215325758574, 5.802881714433000937, 1.750000000000000000 ) ) ;
#474 = VERTEX_POINT ( 'NONE', #646 ) ;
#475 = MECHANICAL_CONTEXT ( 'NONE', #390, 'mechanical' ) ;
#476 = ORIENTED_EDGE ( 'NONE', *, *, #222, .F. ) ;
#477 = DATE_TIME_ROLE ( 'classification_date' ) ;
#478 = CONICAL_SURFACE ( 'NONE', #283, 3.500000000000000888, 1.308996938995750092 ) ;
#479 = EDGE_CURVE ( 'NONE', #625, #91, #768, .T. ) ;
#480 = DIRECTION ( 'NONE',  ( 1.000000000000000000, 0.000000000000000000, 0.000000000000000000 ) ) ;
#481 = VERTEX_POINT ( 'NONE', #530 ) ;
#482 = APPROVAL_STATUS ( 'not_yet_approved' ) ;
#483 = CIRCLE ( 'NONE', #315, 4.000000000000000000 ) ;
#484 = ORGANIZATION ( 'UNSPECIFIED', 'UNSPECIFIED', '' ) ;
#485 = CARTESIAN_POINT ( 'NONE',  ( -1.531611815905996821, 3.695154292499454041, -1.750000000000000000 ) ) ;
#486 = EDGE_CURVE ( 'NONE', #853, #661, #856, .T. ) ;
#487 = CARTESIAN_POINT ( 'NONE',  ( 0.000000000000000000, 0.000000000000000000, 1.750000000000000000 ) ) ;
#488 = VERTEX_POINT ( 'NONE', #468 ) ;
#489 = APPROVAL_ROLE ( '' ) ;
#490 = DIRECTION ( 'NONE',  ( 1.000000000000000000, 0.000000000000000000, 0.000000000000000000 ) ) ;
#491 = ORIENTED_EDGE ( 'NONE', *, *, #85, .F. ) ;
#492 = CARTESIAN_POINT ( 'NONE',  ( 2.674056757383616478, 2.974797549126833918, -1.749999999999999778 ) ) ;
#493 = ORIENTED_EDGE ( 'NONE', *, *, #62, .T. ) ;
#494 = EDGE_CURVE ( 'NONE', #130, #510, #650, .T. ) ;
#495 = CC_DESIGN_APPROVAL ( #154, ( #24 ) ) ;
#496 = CARTESIAN_POINT ( 'NONE',  ( 0.000000000000000000, 0.000000000000000000, 2.286000000000000032 ) ) ;
#497 = DIRECTION ( 'NONE',  ( 0.000000000000000000, 0.000000000000000000, 1.000000000000000000 ) ) ;
#498 = DIRECTION ( 'NONE',  ( -0.1736481776669305810, -0.9848077530122080203, 0.000000000000000000 ) ) ;
#499 = DIRECTION ( 'NONE',  ( -0.000000000000000000, -0.000000000000000000, -1.000000000000000000 ) ) ;
#500 = VERTEX_POINT ( 'NONE', #201 ) ;
#501 = CIRCLE ( 'NONE', #517, 4.000000000000000000 ) ;
#502 = EDGE_CURVE ( 'NONE', #64, #691, #179, .T. ) ;
#503 = AXIS2_PLACEMENT_3D ( 'NONE', #496, #96, #51 ) ;
#504 = DIRECTION ( 'NONE',  ( -0.000000000000000000, -0.000000000000000000, -1.000000000000000000 ) ) ;
#505 = VERTEX_POINT ( 'NONE', #657 ) ;
#506 = CARTESIAN_POINT ( 'NONE',  ( 0.000000000000000000, 0.000000000000000000, -1.750000000000000000 ) ) ;
#507 = CIRCLE ( 'NONE', #404, 1.961504524593304266 ) ;
#508 = CARTESIAN_POINT ( 'NONE',  ( -2.117336668976247172, 0.3733435819839011627, 0.7500000000000000000 ) ) ;
#509 = EDGE_CURVE ( 'NONE', #93, #661, #727, .T. ) ;
#510 = VERTEX_POINT ( 'NONE', #319 ) ;
#511 = ORIENTED_EDGE ( 'NONE', *, *, #458, .T. ) ;
#512 = DIRECTION ( 'NONE',  ( 1.000000000000000000, 0.000000000000000000, 0.000000000000000000 ) ) ;
#513 = FACE_OUTER_BOUND ( 'NONE', #641, .T. ) ;
#514 = ORIENTED_EDGE ( 'NONE', *, *, #541, .F. ) ;
#515 = EDGE_CURVE ( 'NONE', #3, #206, #195, .T. ) ;
#516 = CARTESIAN_POINT ( 'NONE',  ( 0.000000000000000000, 0.000000000000000000, 1.750000000000000000 ) ) ;
#517 = AXIS2_PLACEMENT_3D ( 'NONE', #469, #602, #269 ) ;
#518 = CARTESIAN_POINT ( 'NONE',  ( 2.117336668976245839, 0.3733435819839020509, -0.7500000000000000000 ) ) ;
#519 = AXIS2_PLACEMENT_3D ( 'NONE', #487, #156, #744 ) ;
#520 = ORIENTED_EDGE ( 'NONE', *, *, #801, .T. ) ;
#521 = DIRECTION ( 'NONE',  ( -0.1736481776669307753, -0.9848077530122080203, 0.000000000000000000 ) ) ;
#522 = LINE ( 'NONE', #714, #820 ) ;
#523 = AXIS2_PLACEMENT_3D ( 'NONE', #848, #384, #447 ) ;
#524 = ORIENTED_EDGE ( 'NONE', *, *, #678, .T. ) ;
#525 = FACE_OUTER_BOUND ( 'NONE', #12, .T. ) ;
#526 = DIRECTION ( 'NONE',  ( 0.000000000000000000, 0.000000000000000000, 1.000000000000000000 ) ) ;
#527 = DIRECTION ( 'NONE',  ( 0.000000000000000000, 0.000000000000000000, -1.000000000000000000 ) ) ;
#528 = VERTEX_POINT ( 'NONE', #323 ) ;
#529 =( NAMED_UNIT ( * ) SI_UNIT ( $, .STERADIAN. ) SOLID_ANGLE_UNIT ( ) );
#530 = CARTESIAN_POINT ( 'NONE',  ( 2.674056757383616478, 2.974797549126833918, 1.750000000000000000 ) ) ;
#531 = ADVANCED_FACE ( 'NONE', ( #70 ), #189, .F. ) ;
#532 = CIRCLE ( 'NONE', #545, 1.961504524593304266 ) ;
#533 = ORIENTED_EDGE ( 'NONE', *, *, #811, .F. ) ;
#534 = DIRECTION ( 'NONE',  ( 1.000000000000000000, 0.000000000000000000, 0.000000000000000000 ) ) ;
#535 = DIRECTION ( 'NONE',  ( -0.000000000000000000, -0.000000000000000000, -1.000000000000000000 ) ) ;
#536 = SPHERICAL_SURFACE ( 'NONE', #355, 2.100000000000000977 ) ;
#537 = ORIENTED_EDGE ( 'NONE', *, *, #47, .T. ) ;
#538 = CIRCLE ( 'NONE', #439, 4.000000000000000000 ) ;
#539 = PLANE ( 'NONE',  #631 ) ;
#540 = FACE_OUTER_BOUND ( 'NONE', #792, .T. ) ;
#541 = EDGE_CURVE ( 'NONE', #457, #746, #563, .T. ) ;
#542 = CARTESIAN_POINT ( 'NONE',  ( 1.228824855862046039, 11.17111495735760940, -0.7500000000000000000 ) ) ;
#543 = FACE_OUTER_BOUND ( 'NONE', #544, .T. ) ;
#544 = EDGE_LOOP ( 'NONE', ( #223, #581, #415, #213 ) ) ;
#545 = AXIS2_PLACEMENT_3D ( 'NONE', #427, #191, #313 ) ;
#546 = ADVANCED_FACE ( 'NONE', ( #653 ), #463, .F. ) ;
#547 = CARTESIAN_POINT ( 'NONE',  ( -2.100000000000000089, 0.000000000000000000, -2.286000000000000032 ) ) ;
#548 = CARTESIAN_POINT ( 'NONE',  ( 0.000000000000000000, 12.69999999999999929, -0.7500000000000000000 ) ) ;
#549 = ORIENTED_EDGE ( 'NONE', *, *, #821, .T. ) ;
#550 = PERSON_AND_ORGANIZATION ( #94, #484 ) ;
#551 = VECTOR ( 'NONE', #402, 1000.000000000000000 ) ;
#552 = PRODUCT_DEFINITION_FORMATION_WITH_SPECIFIED_SOURCE ( 'ANY', '', #842, .NOT_KNOWN. ) ;
#553 = CYLINDRICAL_SURFACE ( 'NONE', #417, 4.000000000000000000 ) ;
#554 = B_SPLINE_CURVE_WITH_KNOTS ( 'NONE', 3,
 ( #135, #333, #796, #407 ),
 .UNSPECIFIED., .F., .F.,
 ( 4, 4 ),
 ( 0.000000000000000000, 0.003929360842100225286 ),
 .UNSPECIFIED. ) ;
#555 = ORIENTED_EDGE ( 'NONE', *, *, #344, .T. ) ;
#556 = SECURITY_CLASSIFICATION_LEVEL ( 'unclassified' ) ;
#557 = DIRECTION ( 'NONE',  ( 0.1736481776669307475, 0.9848077530122080203, -0.000000000000000000 ) ) ;
#558 = EDGE_CURVE ( 'NONE', #841, #781, #259, .T. ) ;
#559 = ORIENTED_EDGE ( 'NONE', *, *, #74, .F. ) ;
#560 = FACE_OUTER_BOUND ( 'NONE', #466, .T. ) ;
#561 = CALENDAR_DATE ( 2022, 6, 6 ) ;
#562 = ORIENTED_EDGE ( 'NONE', *, *, #685, .T. ) ;
#563 = CIRCLE ( 'NONE', #618, 7.232050807568921158 ) ;
#564 = DIRECTION ( 'NONE',  ( -0.9848077530122079093, -0.1736481776669312749, 0.000000000000000000 ) ) ;
#565 = LINE ( 'NONE', #234, #399 ) ;
#566 = ORIENTED_EDGE ( 'NONE', *, *, #568, .T. ) ;
#567 = FACE_OUTER_BOUND ( 'NONE', #859, .T. ) ;
#568 = EDGE_CURVE ( 'NONE', #781, #193, #212, .T. ) ;
#569 = CARTESIAN_POINT ( 'NONE',  ( -0.5532014268394619405, 9.243995344137569958, 1.750000000000000000 ) ) ;
#570 = VERTEX_POINT ( 'NONE', #411 ) ;
#571 = ORIENTED_EDGE ( 'NONE', *, *, #479, .T. ) ;
#572 = CARTESIAN_POINT ( 'NONE',  ( 0.000000000000000000, 0.000000000000000000, -2.286000000000000032 ) ) ;
#573 = EDGE_CURVE ( 'NONE', #206, #488, #645, .T. ) ;
#574 = VECTOR ( 'NONE', #598, 1000.000000000000114 ) ;
#575 = DIRECTION ( 'NONE',  ( 0.1736481776669312749, -0.9848077530122079093, 0.000000000000000000 ) ) ;
#576 = ORIENTED_EDGE ( 'NONE', *, *, #364, .T. ) ;
#577 = DIRECTION ( 'NONE',  ( -1.000000000000000000, 0.000000000000000000, 0.000000000000000000 ) ) ;
#578 = DIRECTION ( 'NONE',  ( 0.1736481776669307475, 0.9848077530122079093, 0.000000000000000000 ) ) ;
#579 = VECTOR ( 'NONE', #782, 1000.000000000000114 ) ;
#580 = ORIENTED_EDGE ( 'NONE', *, *, #558, .T. ) ;
#581 = ORIENTED_EDGE ( 'NONE', *, *, #606, .T. ) ;
#582 = CARTESIAN_POINT ( 'NONE',  ( 2.280615831619694862E-16, 14.80000000000000071, 0.000000000000000000 ) ) ;
#583 = DIRECTION ( 'NONE',  ( -0.1736481776669312471, 0.9848077530122079093, 0.000000000000000000 ) ) ;
#584 = CARTESIAN_POINT ( 'NONE',  ( -0.7692366997037476395, 8.018798428746203300, -1.083313274629223777 ) ) ;
#585 = ORIENTED_EDGE ( 'NONE', *, *, #811, .T. ) ;
#586 = DIRECTION ( 'NONE',  ( 1.000000000000000000, 0.000000000000000000, 0.000000000000000000 ) ) ;
#587 = VECTOR ( 'NONE', #827, 1000.000000000000000 ) ;
#588 = DIRECTION ( 'NONE',  ( 1.000000000000000000, 0.000000000000000000, 0.000000000000000000 ) ) ;
#589 = EDGE_CURVE ( 'NONE', #326, #781, #152, .T. ) ;
#590 = LINE ( 'NONE', #395, #769 ) ;
#591 = CARTESIAN_POINT ( 'NONE',  ( 0.000000000000000000, 12.69999999999999929, 0.000000000000000000 ) ) ;
#592 = CIRCLE ( 'NONE', #41, 4.000000000000000000 ) ;
#593 = DIRECTION ( 'NONE',  ( -0.1736481776669312471, 0.9848077530122079093, 0.000000000000000000 ) ) ;
#594 = APPROVAL_PERSON_ORGANIZATION ( #82, #154, #347 ) ;
#595 = ORIENTED_EDGE ( 'NONE', *, *, #486, .F. ) ;
#596 = CARTESIAN_POINT ( 'NONE',  ( 0.000000000000000000, 0.000000000000000000, 0.000000000000000000 ) ) ;
#597 = ADVANCED_FACE ( 'NONE', ( #83 ), #816, .T. ) ;
#598 = DIRECTION ( 'NONE',  ( -0.1736481776669305810, -0.9848077530122080203, 0.000000000000000000 ) ) ;
#599 = CARTESIAN_POINT ( 'NONE',  ( -1.735761751450459522, 8.296132957713645339, 1.077219734729841560 ) ) ;
#600 = VERTEX_POINT ( 'NONE', #9 ) ;
#601 = CARTESIAN_POINT ( 'NONE',  ( 0.000000000000000000, 12.69999999999999929, 0.7500000000000000000 ) ) ;
#602 = DIRECTION ( 'NONE',  ( 0.000000000000000000, 0.000000000000000000, 1.000000000000000000 ) ) ;
#603 = AXIS2_PLACEMENT_3D ( 'NONE', #569, #294, #822 ) ;
#604 = VERTEX_POINT ( 'NONE', #542 ) ;
#605 = ADVANCED_BREP_SHAPE_REPRESENTATION ( '228-2500-1909', ( #851, #647 ), #742 ) ;
#606 = EDGE_CURVE ( 'NONE', #510, #424, #838, .T. ) ;
#607 = ORIENTED_EDGE ( 'NONE', *, *, #541, .T. ) ;
#608 = COORDINATED_UNIVERSAL_TIME_OFFSET ( 6, 0, .BEHIND. ) ;
#609 = DIRECTION ( 'NONE',  ( -0.000000000000000000, -0.000000000000000000, -1.000000000000000000 ) ) ;
#610 = CYLINDRICAL_SURFACE ( 'NONE', #356, 2.100000000000000089 ) ;
#611 = EDGE_LOOP ( 'NONE', ( #491, #137, #383, #595 ) ) ;
#612 = FACE_OUTER_BOUND ( 'NONE', #805, .T. ) ;
#613 = ORIENTED_EDGE ( 'NONE', *, *, #759, .F. ) ;
#614 = AXIS2_PLACEMENT_3D ( 'NONE', #690, #367, #174 ) ;
#615 = DIRECTION ( 'NONE',  ( 0.000000000000000000, 0.000000000000000000, 1.000000000000000000 ) ) ;
#616 = ORIENTED_EDGE ( 'NONE', *, *, #846, .T. ) ;
#617 = CALENDAR_DATE ( 2022, 6, 6 ) ;
#618 = AXIS2_PLACEMENT_3D ( 'NONE', #839, #459, #396 ) ;
#619 = LOCAL_TIME ( 14, 25, 41.00000000000000000, #741 ) ;
#620 = EDGE_CURVE ( 'NONE', #193, #634, #507, .T. ) ;
#621 = CARTESIAN_POINT ( 'NONE',  ( 0.000000000000000000, 12.69999999999999929, 0.000000000000000000 ) ) ;
#622 = ORIENTED_EDGE ( 'NONE', *, *, #31, .F. ) ;
#623 = PERSON_AND_ORGANIZATION_ROLE ( 'creator' ) ;
#624 = FACE_OUTER_BOUND ( 'NONE', #334, .T. ) ;
#625 = VERTEX_POINT ( 'NONE', #735 ) ;
#626 = PERSON_AND_ORGANIZATION_ROLE ( 'classification_officer' ) ;
#627 = VECTOR ( 'NONE', #770, 1000.000000000000000 ) ;
#628 = CARTESIAN_POINT ( 'NONE',  ( 1.531611815905994600, 3.695154292499454485, 1.750000000000000000 ) ) ;
#629 = EDGE_CURVE ( 'NONE', #702, #292, #689, .T. ) ;
#630 = ORIENTED_EDGE ( 'NONE', *, *, #753, .F. ) ;
#631 = AXIS2_PLACEMENT_3D ( 'NONE', #14, #268, #278 ) ;
#632 = AXIS2_PLACEMENT_3D ( 'NONE', #119, #436, #46 ) ;
#633 = CARTESIAN_POINT ( 'NONE',  ( 0.9852705577793872127, 6.793609537019931643, 1.416656959214219302 ) ) ;
#634 = VERTEX_POINT ( 'NONE', #5 ) ;
#635 = EDGE_CURVE ( 'NONE', #193, #64, #472, .T. ) ;
#636 = PLANE ( 'NONE',  #614 ) ;
#637 = VERTEX_POINT ( 'NONE', #485 ) ;
#638 = EDGE_CURVE ( 'NONE', #206, #91, #249, .T. ) ;
#639 = AXIS2_PLACEMENT_3D ( 'NONE', #27, #289, #490 ) ;
#640 = CARTESIAN_POINT ( 'NONE',  ( 0.000000000000000000, 0.000000000000000000, -2.286000000000000032 ) ) ;
#641 = EDGE_LOOP ( 'NONE', ( #369, #425, #622, #797 ) ) ;
#642 = ORIENTED_EDGE ( 'NONE', *, *, #312, .T. ) ;
#643 = CARTESIAN_POINT ( 'NONE',  ( 1.531611815905994600, 3.695154292499454485, 1.750000000000000000 ) ) ;
#644 = ADVANCED_FACE ( 'NONE', ( #612 ), #539, .T. ) ;
#645 = CIRCLE ( 'NONE', #658, 7.232050807568921158 ) ;
#646 = CARTESIAN_POINT ( 'NONE',  ( 4.000000000000000000, 4.898587196589412829E-16, -2.286000000000000032 ) ) ;
#647 = AXIS2_PLACEMENT_3D ( 'NONE', #596, #69, #534 ) ;
#648 = CARTESIAN_POINT ( 'NONE',  ( -2.674056757383618255, 2.974797549126832141, 2.286000000000000032 ) ) ;
#649 = LINE ( 'NONE', #443, #456 ) ;
#650 = LINE ( 'NONE', #518, #437 ) ;
#651 = DIRECTION ( 'NONE',  ( -0.000000000000000000, -0.000000000000000000, -1.000000000000000000 ) ) ;
#652 = ORIENTED_EDGE ( 'NONE', *, *, #638, .F. ) ;
#653 = FACE_OUTER_BOUND ( 'NONE', #165, .T. ) ;
#654 = CIRCLE ( 'NONE', #736, 4.000000000000000000 ) ;
#655 = EDGE_CURVE ( 'NONE', #231, #570, #120, .T. ) ;
#656 = ORIENTED_EDGE ( 'NONE', *, *, #354, .F. ) ;
#657 = CARTESIAN_POINT ( 'NONE',  ( -2.674056757383618255, 2.974797549126832141, -1.750000000000000000 ) ) ;
#658 = AXIS2_PLACEMENT_3D ( 'NONE', #284, #343, #349 ) ;
#659 = CARTESIAN_POINT ( 'NONE',  ( -4.000000000000000000, 0.000000000000000000, -2.286000000000000032 ) ) ;
#660 = CIRCLE ( 'NONE', #55, 2.100000000000000089 ) ;
#661 = VERTEX_POINT ( 'NONE', #547 ) ;
#662 = ADVANCED_FACE ( 'NONE', ( #743 ), #159, .T. ) ;
#663 = CARTESIAN_POINT ( 'NONE',  ( -0.9303165118704541658, 12.86403990164134825, 0.000000000000000000 ) ) ;
#664 = CARTESIAN_POINT ( 'NONE',  ( -2.175389215325761239, 5.802881714433000937, 1.750000000000000000 ) ) ;
#665 = ORIENTED_EDGE ( 'NONE', *, *, #771, .F. ) ;
#666 = CARTESIAN_POINT ( 'NONE',  ( 1.531611815905994600, 3.695154292499454485, 1.750000000000000000 ) ) ;
#667 = ADVANCED_FACE ( 'NONE', ( #357, #288 ), #553, .T. ) ;
#668 = CARTESIAN_POINT ( 'NONE',  ( 0.9303165118704460612, 12.86403990164134825, 0.000000000000000000 ) ) ;
#669 = APPLICATION_CONTEXT ( 'configuration controlled 3d designs of mechanical parts and assemblies' ) ;
#670 = DIRECTION ( 'NONE',  ( -0.000000000000000000, -0.000000000000000000, -1.000000000000000000 ) ) ;
#671 = ORIENTED_EDGE ( 'NONE', *, *, #275, .F. ) ;
#672 = PRODUCT_RELATED_PRODUCT_CATEGORY ( 'detail', '', ( #842 ) ) ;
#673 = VERTEX_POINT ( 'NONE', #833 ) ;
#674 = AXIS2_PLACEMENT_3D ( 'NONE', #149, #609, #352 ) ;
#675 = SHAPE_DEFINITION_REPRESENTATION ( #66, #605 ) ;
#676 = SECURITY_CLASSIFICATION ( '', '', #556 ) ;
#677 = CARTESIAN_POINT ( 'NONE',  ( -0.5532014268394628287, 9.243995344137569958, 0.7500000000000000000 ) ) ;
#678 = EDGE_CURVE ( 'NONE', #474, #114, #483, .T. ) ;
#679 = ORIENTED_EDGE ( 'NONE', *, *, #379, .F. ) ;
#680 = CARTESIAN_POINT ( 'NONE',  ( 0.000000000000000000, 0.000000000000000000, 0.7500000000000000000 ) ) ;
#681 = CARTESIAN_POINT ( 'NONE',  ( 1.531611815905995044, 3.695154292499454485, -0.7499999999999997780 ) ) ;
#682 = ORIENTED_EDGE ( 'NONE', *, *, #635, .T. ) ;
#683 = AXIS2_PLACEMENT_3D ( 'NONE', #332, #261, #448 ) ;
#684 = DATE_AND_TIME ( #561, #138 ) ;
#685 = EDGE_CURVE ( 'NONE', #505, #637, #592, .T. ) ;
#686 = CARTESIAN_POINT ( 'NONE',  ( 3.102144421988453971, 0.5469917596508333535, -0.7500000000000000000 ) ) ;
#687 = ORIENTED_EDGE ( 'NONE', *, *, #18, .T. ) ;
#688 = APPROVAL_DATE_TIME ( #416, #177 ) ;
#689 = CIRCLE ( 'NONE', #674, 7.232050807568921158 ) ;
#690 = CARTESIAN_POINT ( 'NONE',  ( 0.000000000000000000, 0.000000000000000000, -1.750000000000000000 ) ) ;
#691 = VERTEX_POINT ( 'NONE', #582 ) ;
#692 = DATE_AND_TIME ( #228, #11 ) ;
#693 = EDGE_CURVE ( 'NONE', #292, #600, #322, .T. ) ;
#694 = CARTESIAN_POINT ( 'NONE',  ( 2.175389215325758574, 5.802881714433000937, 1.750000000000000000 ) ) ;
#695 = ORIENTED_EDGE ( 'NONE', *, *, #31, .T. ) ;
#696 = ORIENTED_EDGE ( 'NONE', *, *, #39, .F. ) ;
#697 = DIRECTION ( 'NONE',  ( -0.1736481776669312471, 0.9848077530122079093, 0.000000000000000000 ) ) ;
#698 = CC_DESIGN_PERSON_AND_ORGANIZATION_ASSIGNMENT ( #30, #291, ( #552 ) ) ;
#699 = CARTESIAN_POINT ( 'NONE',  ( 1.531611815905994600, 3.695154292499454485, -1.750000000000000000 ) ) ;
#700 = AXIS2_PLACEMENT_3D ( 'NONE', #255, #784, #521 ) ;
#701 = CARTESIAN_POINT ( 'NONE',  ( 0.5532014268394573886, 9.243995344137566406, 0.7500000000000000000 ) ) ;
#702 = VERTEX_POINT ( 'NONE', #106 ) ;
#703 = LINE ( 'NONE', #60, #579 ) ;
#704 = CARTESIAN_POINT ( 'NONE',  ( -1.515528959068742409, 9.545135189231711337, -1.750000000000000000 ) ) ;
#705 = ORIENTED_EDGE ( 'NONE', *, *, #57, .F. ) ;
#706 = PLANE ( 'NONE',  #523 ) ;
#707 = EDGE_CURVE ( 'NONE', #346, #481, #712, .T. ) ;
#708 = VECTOR ( 'NONE', #102, 1000.000000000000000 ) ;
#709 = CARTESIAN_POINT ( 'NONE',  ( 0.000000000000000000, 12.69999999999999929, 0.7500000000000000000 ) ) ;
#710 = CARTESIAN_POINT ( 'NONE',  ( 0.000000000000000000, 0.000000000000000000, 1.750000000000000000 ) ) ;
#711 = PLANE ( 'NONE',  #632 ) ;
#712 = CIRCLE ( 'NONE', #348, 4.000000000000000000 ) ;
#713 = CC_DESIGN_SECURITY_CLASSIFICATION ( #676, ( #552 ) ) ;
#714 = CARTESIAN_POINT ( 'NONE',  ( 2.100000000000000089, 2.571758278209441464E-16, 2.286000000000000032 ) ) ;
#715 = ORIENTED_EDGE ( 'NONE', *, *, #295, .T. ) ;
#716 = APPROVAL_STATUS ( 'not_yet_approved' ) ;
#717 = CARTESIAN_POINT ( 'NONE',  ( 2.100000000000000089, 2.571758278209441464E-16, 2.286000000000000032 ) ) ;
#718 = ADVANCED_FACE ( 'NONE', ( #370 ), #706, .F. ) ;
#719 = PLANE ( 'NONE',  #238 ) ;
#720 = ORIENTED_EDGE ( 'NONE', *, *, #74, .T. ) ;
#721 = DIRECTION ( 'NONE',  ( 0.000000000000000000, 0.000000000000000000, 1.000000000000000000 ) ) ;
#722 = DIRECTION ( 'NONE',  ( 1.000000000000000000, 0.000000000000000000, 0.000000000000000000 ) ) ;
#723 = EDGE_CURVE ( 'NONE', #673, #346, #115, .T. ) ;
#724 = LINE ( 'NONE', #648, #188 ) ;
#725 = ORIENTED_EDGE ( 'NONE', *, *, #379, .T. ) ;
#726 = DIRECTION ( 'NONE',  ( -0.1736481776669309973, 0.9848077530122079093, 0.000000000000000000 ) ) ;
#727 = LINE ( 'NONE', #406, #551 ) ;
#728 = FACE_BOUND ( 'NONE', #266, .T. ) ;
#729 = VECTOR ( 'NONE', #13, 1000.000000000000000 ) ;
#730 = ORIENTED_EDGE ( 'NONE', *, *, #336, .F. ) ;
#731 = DIRECTION ( 'NONE',  ( -0.1736481776669313026, 0.9848077530122080203, 0.000000000000000000 ) ) ;
#732 = ORIENTED_EDGE ( 'NONE', *, *, #85, .T. ) ;
#733 = CARTESIAN_POINT ( 'NONE',  ( 1.201304445764289630, 5.568420475669833003, -1.750000000000000000 ) ) ;
#734 = ADVANCED_FACE ( 'NONE', ( #567, #767 ), #318, .F. ) ;
#735 = CARTESIAN_POINT ( 'NONE',  ( -1.515528959068742854, 9.545135189231713113, 0.7500000000000000000 ) ) ;
#736 = AXIS2_PLACEMENT_3D ( 'NONE', #245, #453, #586 ) ;
#737 = PERSON_AND_ORGANIZATION ( #94, #484 ) ;
#738 = DIRECTION ( 'NONE',  ( 0.9848077530122080203, 0.1736481776669313026, -0.000000000000000000 ) ) ;
#739 = DIRECTION ( 'NONE',  ( 1.000000000000000000, 0.000000000000000000, 0.000000000000000000 ) ) ;
#740 = VERTEX_POINT ( 'NONE', #248 ) ;
#741 = COORDINATED_UNIVERSAL_TIME_OFFSET ( 6, 0, .BEHIND. ) ;
#742 =( GEOMETRIC_REPRESENTATION_CONTEXT ( 3 ) GLOBAL_UNCERTAINTY_ASSIGNED_CONTEXT ( ( #254 ) ) GLOBAL_UNIT_ASSIGNED_CONTEXT ( ( #335, #401, #529 ) ) REPRESENTATION_CONTEXT ( 'NONE', 'WORKASPACE' ) );
#743 = FACE_OUTER_BOUND ( 'NONE', #16, .T. ) ;
#744 = DIRECTION ( 'NONE',  ( 1.000000000000000000, 0.000000000000000000, 0.000000000000000000 ) ) ;
#745 = ADVANCED_FACE ( 'NONE', ( #375 ), #711, .F. ) ;
#746 = VERTEX_POINT ( 'NONE', #388 ) ;
#747 = CARTESIAN_POINT ( 'NONE',  ( -1.201304445764292295, 5.568420475669836556, 1.750000000000000000 ) ) ;
#748 = VECTOR ( 'NONE', #593, 1000.000000000000114 ) ;
#749 = ORIENTED_EDGE ( 'NONE', *, *, #509, .F. ) ;
#750 = AXIS2_PLACEMENT_3D ( 'NONE', #412, #84, #739 ) ;
#751 = CARTESIAN_POINT ( 'NONE',  ( 1.531611815905994600, 3.695154292499454485, 1.750000000000000000 ) ) ;
#752 = CALENDAR_DATE ( 2022, 6, 6 ) ;
#753 = EDGE_CURVE ( 'NONE', #3, #198, #649, .T. ) ;
#754 = AXIS2_PLACEMENT_3D ( 'NONE', #666, #277, #131 ) ;
#755 = DIRECTION ( 'NONE',  ( 0.1736481776669307475, 0.9848077530122079093, 3.552713678800500535E-15 ) ) ;
#756 = ORIENTED_EDGE ( 'NONE', *, *, #260, .T. ) ;
#757 = ORIENTED_EDGE ( 'NONE', *, *, #47, .F. ) ;
#758 = CARTESIAN_POINT ( 'NONE',  ( 3.102144421988453971, 0.5469917596508333535, 0.7500000000000000000 ) ) ;
#759 = EDGE_CURVE ( 'NONE', #661, #853, #660, .T. ) ;
#760 = DIRECTION ( 'NONE',  ( 1.000000000000000000, 0.000000000000000000, 0.000000000000000000 ) ) ;
#761 = CARTESIAN_POINT ( 'NONE',  ( 0.000000000000000000, 12.69999999999999929, 1.750000000000000000 ) ) ;
#762 = ORIENTED_EDGE ( 'NONE', *, *, #62, .F. ) ;
#763 = DIRECTION ( 'NONE',  ( 0.000000000000000000, 0.000000000000000000, 1.000000000000000000 ) ) ;
#764 = LINE ( 'NONE', #704, #809 ) ;
#765 = ORIENTED_EDGE ( 'NONE', *, *, #620, .F. ) ;
#766 = EDGE_LOOP ( 'NONE', ( #476, #209, #765, #682, #280 ) ) ;
#767 = FACE_BOUND ( 'NONE', #471, .T. ) ;
#768 = CIRCLE ( 'NONE', #54, 3.500000000000000888 ) ;
#769 = VECTOR ( 'NONE', #726, 1000.000000000000114 ) ;
#770 = DIRECTION ( 'NONE',  ( -0.000000000000000000, -0.000000000000000000, -1.000000000000000000 ) ) ;
#771 = EDGE_CURVE ( 'NONE', #740, #435, #703, .T. ) ;
#772 = ORIENTED_EDGE ( 'NONE', *, *, #515, .T. ) ;
#773 = DIRECTION ( 'NONE',  ( 0.1736481776669312471, -0.9848077530122079093, -0.000000000000000000 ) ) ;
#774 = DIRECTION ( 'NONE',  ( -0.9848077530122080203, 0.1736481776669306920, -0.000000000000000000 ) ) ;
#775 = ORIENTED_EDGE ( 'NONE', *, *, #222, .T. ) ;
#776 = ORIENTED_EDGE ( 'NONE', *, *, #173, .F. ) ;
#777 = DIRECTION ( 'NONE',  ( 1.000000000000000000, 0.000000000000000000, 0.000000000000000000 ) ) ;
#778 = CIRCLE ( 'NONE', #78, 2.100000000000000977 ) ;
#779 = DIRECTION ( 'NONE',  ( 0.1736481776669307475, 0.9848077530122080203, -0.000000000000000000 ) ) ;
#780 = CARTESIAN_POINT ( 'NONE',  ( -2.175389215325761239, 5.802881714433000937, -1.750000000000000000 ) ) ;
#781 = VERTEX_POINT ( 'NONE', #235 ) ;
#782 = DIRECTION ( 'NONE',  ( -0.1736481776669307753, -0.9848077530122080203, 0.000000000000000000 ) ) ;
#783 = EDGE_CURVE ( 'NONE', #339, #702, #590, .T. ) ;
#784 = DIRECTION ( 'NONE',  ( -0.9848077530122080203, 0.1736481776669307753, 0.000000000000000000 ) ) ;
#785 = CC_DESIGN_APPROVAL ( #855, ( #552 ) ) ;
#786 = CARTESIAN_POINT ( 'NONE',  ( -1.955570746973910978, 7.049534197613059661, 1.413713515426820555 ) ) ;
#787 = ORIENTED_EDGE ( 'NONE', *, *, #207, .F. ) ;
#788 = DIRECTION ( 'NONE',  ( -0.000000000000000000, -0.000000000000000000, -1.000000000000000000 ) ) ;
#789 = ADVANCED_FACE ( 'NONE', ( #525 ), #267, .F. ) ;
#790 = CARTESIAN_POINT ( 'NONE',  ( -2.674056757383618699, 2.974797549126833029, 1.750000000000000000 ) ) ;
#791 = CARTESIAN_POINT ( 'NONE',  ( -1.735761516441515218, 8.296134290515599474, -1.077219385555844511 ) ) ;
#792 = EDGE_LOOP ( 'NONE', ( #756, #732, #613, #749 ) ) ;
#793 = CARTESIAN_POINT ( 'NONE',  ( 0.000000000000000000, 0.000000000000000000, 0.7500000000000000000 ) ) ;
#794 = VECTOR ( 'NONE', #274, 1000.000000000000000 ) ;
#795 = CARTESIAN_POINT ( 'NONE',  ( 0.000000000000000000, 0.000000000000000000, -2.286000000000000032 ) ) ;
#796 = CARTESIAN_POINT ( 'NONE',  ( 1.955570746973907426, 7.049534197613057884, -1.413713515426820777 ) ) ;
#797 = ORIENTED_EDGE ( 'NONE', *, *, #589, .T. ) ;
#798 = APPLICATION_PROTOCOL_DEFINITION ( 'international standard', 'config_control_design', 1994, #390 ) ;
#799 = DIRECTION ( 'NONE',  ( 0.000000000000000000, 0.000000000000000000, 1.000000000000000000 ) ) ;
#800 = LOCAL_TIME ( 14, 25, 41.00000000000000000, #87 ) ;
#801 = EDGE_CURVE ( 'NONE', #346, #826, #467, .T. ) ;
#802 = ORIENTED_EDGE ( 'NONE', *, *, #846, .F. ) ;
#803 = APPLICATION_PROTOCOL_DEFINITION ( 'international standard', 'config_control_design', 1994, #669 ) ;
#804 = DIRECTION ( 'NONE',  ( 1.000000000000000000, 0.000000000000000000, 0.000000000000000000 ) ) ;
#805 = EDGE_LOOP ( 'NONE', ( #814, #150, #695, #105 ) ) ;
#806 = FACE_OUTER_BOUND ( 'NONE', #239, .T. ) ;
#807 = CARTESIAN_POINT ( 'NONE',  ( 0.000000000000000000, 12.69999999999999929, -0.7500000000000000000 ) ) ;
#808 = DIRECTION ( 'NONE',  ( 1.000000000000000000, 0.000000000000000000, 0.000000000000000000 ) ) ;
#809 = VECTOR ( 'NONE', #498, 1000.000000000000114 ) ;
#810 = ORIENTED_EDGE ( 'NONE', *, *, #187, .T. ) ;
#811 = EDGE_CURVE ( 'NONE', #528, #227, #854, .T. ) ;
#812 = DIRECTION ( 'NONE',  ( 0.000000000000000000, 0.000000000000000000, 1.000000000000000000 ) ) ;
#813 = DIRECTION ( 'NONE',  ( -1.000000000000000000, 0.000000000000000000, 0.000000000000000000 ) ) ;
#814 = ORIENTED_EDGE ( 'NONE', *, *, #707, .T. ) ;
#815 = COORDINATED_UNIVERSAL_TIME_OFFSET ( 6, 0, .BEHIND. ) ;
#816 = CYLINDRICAL_SURFACE ( 'NONE', #258, 4.000000000000000000 ) ;
#817 = EDGE_LOOP ( 'NONE', ( #810, #772, #243, #511 ) ) ;
#818 = B_SPLINE_CURVE_WITH_KNOTS ( 'NONE', 3,
 ( #664, #786, #599, #251 ),
 .UNSPECIFIED., .F., .F.,
 ( 4, 4 ),
 ( 0.000000000000000000, 0.003929360842100227888 ),
 .UNSPECIFIED. ) ;
#819 = CARTESIAN_POINT ( 'NONE',  ( -0.5532014268394619405, 9.243995344137569958, -1.750000000000000000 ) ) ;
#820 = VECTOR ( 'NONE', #858, 1000.000000000000000 ) ;
#821 = EDGE_CURVE ( 'NONE', #510, #292, #141, .T. ) ;
#822 = DIRECTION ( 'NONE',  ( -0.1736481776669307753, -0.9848077530122080203, 0.000000000000000000 ) ) ;
#823 = CARTESIAN_POINT ( 'NONE',  ( -1.531611815905996821, 3.695154292499454041, 1.750000000000000000 ) ) ;
#824 = CC_DESIGN_PERSON_AND_ORGANIZATION_ASSIGNMENT ( #219, #626, ( #676 ) ) ;
#825 = VECTOR ( 'NONE', #53, 1000.000000000000114 ) ;
#826 = VERTEX_POINT ( 'NONE', #126 ) ;
#827 = DIRECTION ( 'NONE',  ( -0.1736481776669307198, -0.9848077530122080203, -0.000000000000000000 ) ) ;
#828 = ORIENTED_EDGE ( 'NONE', *, *, #606, .F. ) ;
#829 = CARTESIAN_POINT ( 'NONE',  ( -1.515528959068742409, 9.545135189231711337, -0.7500000000000000000 ) ) ;
#830 = ORIENTED_EDGE ( 'NONE', *, *, #187, .F. ) ;
#831 = AXIS2_PLACEMENT_3D ( 'NONE', #117, #526, #185 ) ;
#832 = ORIENTED_EDGE ( 'NONE', *, *, #136, .F. ) ;
#833 = CARTESIAN_POINT ( 'NONE',  ( 1.201304445764289630, 5.568420475669833003, 1.750000000000000000 ) ) ;
#834 = VECTOR ( 'NONE', #279, 1000.000000000000000 ) ;
#835 = ADVANCED_FACE ( 'NONE', ( #806 ), #43, .F. ) ;
#836 = FACE_OUTER_BOUND ( 'NONE', #142, .T. ) ;
#837 = DIRECTION ( 'NONE',  ( 0.000000000000000000, 0.000000000000000000, 1.000000000000000000 ) ) ;
#838 = CIRCLE ( 'NONE', #455, 3.500000000000000444 ) ;
#839 = CARTESIAN_POINT ( 'NONE',  ( 0.000000000000000000, 12.69999999999999929, -1.750000000000000000 ) ) ;
#840 = ORIENTED_EDGE ( 'NONE', *, *, #629, .F. ) ;
#841 = VERTEX_POINT ( 'NONE', #462 ) ;
#842 = PRODUCT ( '228-2500-1909', '228-2500-1909', '', ( #475 ) ) ;
#843 = CARTESIAN_POINT ( 'NONE',  ( 0.000000000000000000, 0.000000000000000000, -2.286000000000000032 ) ) ;
#844 = CARTESIAN_POINT ( 'NONE',  ( -1.531611815905996821, 3.695154292499454041, -0.7500000000000000000 ) ) ;
#845 = DIRECTION ( 'NONE',  ( -0.1736481776669309973, 0.9848077530122079093, 0.000000000000000000 ) ) ;
#846 = EDGE_CURVE ( 'NONE', #826, #198, #538, .T. ) ;
#847 = ORIENTED_EDGE ( 'NONE', *, *, #260, .F. ) ;
#848 = CARTESIAN_POINT ( 'NONE',  ( 0.000000000000000000, 0.000000000000000000, -0.7500000000000000000 ) ) ;
#849 = AXIS2_PLACEMENT_3D ( 'NONE', #338, #202, #58 ) ;
#850 = CARTESIAN_POINT ( 'NONE',  ( -1.515528959068742409, 9.545135189231711337, 1.750000000000000000 ) ) ;
#851 = MANIFOLD_SOLID_BREP ( '228-2500-1909', #224 ) ;
#852 = LINE ( 'NONE', #140, #748 ) ;
#853 = VERTEX_POINT ( 'NONE', #73 ) ;
#854 = LINE ( 'NONE', #405, #729 ) ;
#855 = APPROVAL ( #482, 'UNSPECIFIED' ) ;
#856 = CIRCLE ( 'NONE', #360, 2.100000000000000089 ) ;
#857 = DIRECTION ( 'NONE',  ( 0.1736481776669306920, 0.9848077530122080203, 0.000000000000000000 ) ) ;
#858 = DIRECTION ( 'NONE',  ( -0.000000000000000000, -0.000000000000000000, -1.000000000000000000 ) ) ;
#859 = EDGE_LOOP ( 'NONE', ( #679, #428 ) ) ;
ENDSEC;
END-ISO-10303-21;
