ISO-10303-21;
HEADER;
FILE_DESCRIPTION (( 'STEP AP203' ),
    '1' );
FILE_NAME ('228-2500-154.step',
    '2022-06-06T19:17:31',
    ( '' ),
    ( '' ),
    'SwSTEP 2.0',
    'SolidWorks 2021',
    '' );
FILE_SCHEMA (( 'CONFIG_CONTROL_DESIGN' ));
ENDSEC;

DATA;
#1 = DIRECTION ( 'NONE',  ( -0.000000000000000000, -0.000000000000000000, -1.000000000000000000 ) ) ;
#2 = EDGE_LOOP ( 'NONE', ( #382, #508, #569, #126 ) ) ;
#3 = LINE ( 'NONE', #343, #174 ) ;
#4 = CARTESIAN_POINT ( 'NONE',  ( 6.200000000000000178, 7.592810154713589835E-16, 1.000000000000000000 ) ) ;
#5 = AXIS2_PLACEMENT_3D ( 'NONE', #8, #53, #306 ) ;
#6 = ADVANCED_FACE ( 'NONE', ( #524, #129 ), #131, .F. ) ;
#7 = EDGE_CURVE ( 'NONE', #298, #182, #557, .T. ) ;
#8 = CARTESIAN_POINT ( 'NONE',  ( 0.000000000000000000, 0.000000000000000000, 3.049999999999999822 ) ) ;
#9 = CARTESIAN_POINT ( 'NONE',  ( 0.000000000000000000, 0.000000000000000000, -1.000000000000000000 ) ) ;
#10 = ORIENTED_EDGE ( 'NONE', *, *, #297, .T. ) ;
#11 = DIRECTION ( 'NONE',  ( 0.000000000000000000, 0.000000000000000000, 1.000000000000000000 ) ) ;
#12 = CARTESIAN_POINT ( 'NONE',  ( -5.200000000000000178, 0.000000000000000000, -1.000000000000000000 ) ) ;
#13 = ORIENTED_EDGE ( 'NONE', *, *, #325, .T. ) ;
#14 = DIRECTION ( 'NONE',  ( 1.000000000000000000, 0.000000000000000000, 0.000000000000000000 ) ) ;
#15 = AXIS2_PLACEMENT_3D ( 'NONE', #435, #383, #385 ) ;
#16 = EDGE_LOOP ( 'NONE', ( #376, #248 ) ) ;
#17 = DIRECTION ( 'NONE',  ( 1.000000000000000000, 0.000000000000000000, 0.000000000000000000 ) ) ;
#18 = DIRECTION ( 'NONE',  ( 0.000000000000000000, 0.000000000000000000, 1.000000000000000000 ) ) ;
#19 = EDGE_LOOP ( 'NONE', ( #386, #116 ) ) ;
#20 = COORDINATED_UNIVERSAL_TIME_OFFSET ( 6, 0, .BEHIND. ) ;
#21 = DIRECTION ( 'NONE',  ( -0.000000000000000000, -0.000000000000000000, -1.000000000000000000 ) ) ;
#22 = ORIENTED_EDGE ( 'NONE', *, *, #346, .F. ) ;
#23 = DIRECTION ( 'NONE',  ( -0.000000000000000000, -0.000000000000000000, -1.000000000000000000 ) ) ;
#24 = ORIENTED_EDGE ( 'NONE', *, *, #65, .F. ) ;
#25 = AXIS2_PLACEMENT_3D ( 'NONE', #395, #403, #138 ) ;
#26 =( GEOMETRIC_REPRESENTATION_CONTEXT ( 3 ) GLOBAL_UNCERTAINTY_ASSIGNED_CONTEXT ( ( #406 ) ) GLOBAL_UNIT_ASSIGNED_CONTEXT ( ( #377, #27, #233 ) ) REPRESENTATION_CONTEXT ( 'NONE', 'WORKASPACE' ) );
#27 =( NAMED_UNIT ( * ) PLANE_ANGLE_UNIT ( ) SI_UNIT ( $, .RADIAN. ) );
#28 = CARTESIAN_POINT ( 'NONE',  ( -2.100000000000000089, 0.000000000000000000, 2.286000000000000032 ) ) ;
#29 = VERTEX_POINT ( 'NONE', #98 ) ;
#30 = ADVANCED_FACE ( 'NONE', ( #270 ), #488, .T. ) ;
#31 = DIRECTION ( 'NONE',  ( 0.000000000000000000, 0.000000000000000000, 1.000000000000000000 ) ) ;
#32 = CARTESIAN_POINT ( 'NONE',  ( 0.000000000000000000, 0.000000000000000000, -3.049999999999999822 ) ) ;
#33 = VERTEX_POINT ( 'NONE', #312 ) ;
#34 = VECTOR ( 'NONE', #269, 1000.000000000000000 ) ;
#35 = LOCAL_TIME ( 14, 17, 31.00000000000000000, #107 ) ;
#36 = FACE_OUTER_BOUND ( 'NONE', #76, .T. ) ;
#37 = ORIENTED_EDGE ( 'NONE', *, *, #265, .F. ) ;
#38 = ADVANCED_BREP_SHAPE_REPRESENTATION ( '228-2500-154', ( #390, #484 ), #26 ) ;
#39 = CARTESIAN_POINT ( 'NONE',  ( 5.200000000000000178, 6.368163355566236381E-16, -1.000000000000000000 ) ) ;
#40 = DIRECTION ( 'NONE',  ( 1.000000000000000000, 0.000000000000000000, 0.000000000000000000 ) ) ;
#41 = ORIENTED_EDGE ( 'NONE', *, *, #428, .T. ) ;
#42 = AXIS2_PLACEMENT_3D ( 'NONE', #413, #54, #496 ) ;
#43 = AXIS2_PLACEMENT_3D ( 'NONE', #354, #446, #216 ) ;
#44 = SECURITY_CLASSIFICATION ( '', '', #321 ) ;
#45 = CARTESIAN_POINT ( 'NONE',  ( 5.200000000000000178, 6.368163355566236381E-16, 3.049999999999999822 ) ) ;
#46 = ORIENTED_EDGE ( 'NONE', *, *, #514, .F. ) ;
#47 = CARTESIAN_POINT ( 'NONE',  ( -3.174999999999999822, 0.000000000000000000, -2.286000000000000032 ) ) ;
#48 = CARTESIAN_POINT ( 'NONE',  ( 0.000000000000000000, 0.000000000000000000, 2.286000000000000032 ) ) ;
#49 = EDGE_LOOP ( 'NONE', ( #68, #498, #468, #289 ) ) ;
#50 = CYLINDRICAL_SURFACE ( 'NONE', #5, 5.200000000000000178 ) ;
#51 = ORIENTED_EDGE ( 'NONE', *, *, #250, .F. ) ;
#52 = CARTESIAN_POINT ( 'NONE',  ( 0.000000000000000000, 0.000000000000000000, 2.286000000000000032 ) ) ;
#53 = DIRECTION ( 'NONE',  ( -0.000000000000000000, -0.000000000000000000, -1.000000000000000000 ) ) ;
#54 = DIRECTION ( 'NONE',  ( -0.000000000000000000, -0.000000000000000000, -1.000000000000000000 ) ) ;
#55 = CC_DESIGN_DATE_AND_TIME_ASSIGNMENT ( #196, #74, ( #44 ) ) ;
#56 = LINE ( 'NONE', #451, #455 ) ;
#57 = CIRCLE ( 'NONE', #349, 6.200000000000000178 ) ;
#58 = AXIS2_PLACEMENT_3D ( 'NONE', #144, #544, #14 ) ;
#59 = FACE_OUTER_BOUND ( 'NONE', #113, .T. ) ;
#60 = LOCAL_TIME ( 14, 17, 31.00000000000000000, #457 ) ;
#61 = APPROVAL_DATE_TIME ( #418, #337 ) ;
#62 = VERTEX_POINT ( 'NONE', #12 ) ;
#63 = PERSON_AND_ORGANIZATION ( #79, #542 ) ;
#64 = FACE_OUTER_BOUND ( 'NONE', #153, .T. ) ;
#65 = EDGE_CURVE ( 'NONE', #341, #62, #217, .T. ) ;
#66 = PRODUCT_DEFINITION_SHAPE ( 'NONE', 'NONE',  #555 ) ;
#67 = ADVANCED_FACE ( 'NONE', ( #411 ), #361, .F. ) ;
#68 = ORIENTED_EDGE ( 'NONE', *, *, #428, .F. ) ;
#69 = DIRECTION ( 'NONE',  ( 1.000000000000000000, 0.000000000000000000, 0.000000000000000000 ) ) ;
#70 = CYLINDRICAL_SURFACE ( 'NONE', #417, 6.200000000000000178 ) ;
#71 = AXIS2_PLACEMENT_3D ( 'NONE', #309, #18, #314 ) ;
#72 = ORIENTED_EDGE ( 'NONE', *, *, #167, .F. ) ;
#73 = ADVANCED_FACE ( 'NONE', ( #355 ), #540, .T. ) ;
#74 = DATE_TIME_ROLE ( 'classification_date' ) ;
#75 = DIRECTION ( 'NONE',  ( -0.000000000000000000, -0.000000000000000000, -1.000000000000000000 ) ) ;
#76 = EDGE_LOOP ( 'NONE', ( #474, #339, #363, #336 ) ) ;
#77 = DIRECTION ( 'NONE',  ( -0.000000000000000000, -0.000000000000000000, -1.000000000000000000 ) ) ;
#78 = ORIENTED_EDGE ( 'NONE', *, *, #323, .F. ) ;
#79 = PERSON ( 'UNSPECIFIED', 'UNSPECIFIED', 'UNSPECIFIED', ('UNSPECIFIED'), ('UNSPECIFIED'), ('UNSPECIFIED') ) ;
#80 = APPROVAL ( #366, 'UNSPECIFIED' ) ;
#81 = DIRECTION ( 'NONE',  ( 0.000000000000000000, 0.000000000000000000, 1.000000000000000000 ) ) ;
#82 = ORIENTED_EDGE ( 'NONE', *, *, #373, .T. ) ;
#83 = DIRECTION ( 'NONE',  ( 1.000000000000000000, 0.000000000000000000, -0.000000000000000000 ) ) ;
#84 = VERTEX_POINT ( 'NONE', #447 ) ;
#85 = CARTESIAN_POINT ( 'NONE',  ( 0.000000000000000000, 0.000000000000000000, -1.000000000000000000 ) ) ;
#86 = DIRECTION ( 'NONE',  ( 1.000000000000000000, 0.000000000000000000, 0.000000000000000000 ) ) ;
#87 = AXIS2_PLACEMENT_3D ( 'NONE', #367, #548, #505 ) ;
#88 = ADVANCED_FACE ( 'NONE', ( #59, #136 ), #139, .F. ) ;
#89 = AXIS2_PLACEMENT_3D ( 'NONE', #127, #519, #345 ) ;
#90 = PLANE ( 'NONE',  #558 ) ;
#91 = ORIENTED_EDGE ( 'NONE', *, *, #448, .T. ) ;
#92 = DIRECTION ( 'NONE',  ( -1.000000000000000000, 0.000000000000000000, 0.000000000000000000 ) ) ;
#93 = DIRECTION ( 'NONE',  ( 1.000000000000000000, 0.000000000000000000, 0.000000000000000000 ) ) ;
#94 = DIRECTION ( 'NONE',  ( -1.000000000000000000, 0.000000000000000000, 0.000000000000000000 ) ) ;
#95 = CIRCLE ( 'NONE', #105, 2.100000000000000089 ) ;
#96 = CARTESIAN_POINT ( 'NONE',  ( 3.174999999999999822, 3.888253587292846081E-16, -2.286000000000000032 ) ) ;
#97 = AXIS2_PLACEMENT_3D ( 'NONE', #304, #486, #92 ) ;
#98 = CARTESIAN_POINT ( 'NONE',  ( -6.200000000000000178, 0.000000000000000000, 3.049999999999999822 ) ) ;
#99 = DIRECTION ( 'NONE',  ( -0.000000000000000000, -0.000000000000000000, -1.000000000000000000 ) ) ;
#100 = ORIENTED_EDGE ( 'NONE', *, *, #65, .T. ) ;
#101 = DIRECTION ( 'NONE',  ( 0.000000000000000000, 0.000000000000000000, 1.000000000000000000 ) ) ;
#102 = ORIENTED_EDGE ( 'NONE', *, *, #490, .F. ) ;
#103 = EDGE_CURVE ( 'NONE', #62, #341, #491, .T. ) ;
#104 = DIRECTION ( 'NONE',  ( 1.000000000000000000, 0.000000000000000000, 0.000000000000000000 ) ) ;
#105 = AXIS2_PLACEMENT_3D ( 'NONE', #276, #149, #290 ) ;
#106 = EDGE_CURVE ( 'NONE', #280, #454, #155, .T. ) ;
#107 = COORDINATED_UNIVERSAL_TIME_OFFSET ( 6, 0, .BEHIND. ) ;
#108 = DIRECTION ( 'NONE',  ( -1.000000000000000000, 0.000000000000000000, 0.000000000000000000 ) ) ;
#109 = VERTEX_POINT ( 'NONE', #326 ) ;
#110 = PERSON_AND_ORGANIZATION_ROLE ( 'design_supplier' ) ;
#111 = FACE_OUTER_BOUND ( 'NONE', #556, .T. ) ;
#112 = CC_DESIGN_PERSON_AND_ORGANIZATION_ASSIGNMENT ( #422, #334, ( #472 ) ) ;
#113 = EDGE_LOOP ( 'NONE', ( #203, #37 ) ) ;
#114 = DIRECTION ( 'NONE',  ( 0.000000000000000000, 0.000000000000000000, 1.000000000000000000 ) ) ;
#115 = CARTESIAN_POINT ( 'NONE',  ( 6.200000000000000178, 7.592810154713589835E-16, -3.049999999999999822 ) ) ;
#116 = ORIENTED_EDGE ( 'NONE', *, *, #180, .T. ) ;
#117 = PERSON_AND_ORGANIZATION ( #79, #542 ) ;
#118 = DIRECTION ( 'NONE',  ( -1.000000000000000000, 0.000000000000000000, 0.000000000000000000 ) ) ;
#119 = EDGE_LOOP ( 'NONE', ( #566, #359 ) ) ;
#120 = DIRECTION ( 'NONE',  ( -1.000000000000000000, 0.000000000000000000, 0.000000000000000000 ) ) ;
#121 = EDGE_LOOP ( 'NONE', ( #102, #195 ) ) ;
#122 = ADVANCED_FACE ( 'NONE', ( #278 ), #242, .F. ) ;
#123 = FACE_OUTER_BOUND ( 'NONE', #527, .T. ) ;
#124 = ORIENTED_EDGE ( 'NONE', *, *, #546, .F. ) ;
#125 = CYLINDRICAL_SURFACE ( 'NONE', #396, 3.174999999999999822 ) ;
#126 = ORIENTED_EDGE ( 'NONE', *, *, #279, .F. ) ;
#127 = CARTESIAN_POINT ( 'NONE',  ( 0.000000000000000000, 0.000000000000000000, 1.000000000000000000 ) ) ;
#128 = ADVANCED_FACE ( 'NONE', ( #424 ), #70, .T. ) ;
#129 = FACE_BOUND ( 'NONE', #19, .T. ) ;
#130 = CARTESIAN_POINT ( 'NONE',  ( -6.200000000000000178, 0.000000000000000000, -3.049999999999999822 ) ) ;
#131 = PLANE ( 'NONE',  #183 ) ;
#132 = CC_DESIGN_APPROVAL ( #80, ( #555 ) ) ;
#133 = DIRECTION ( 'NONE',  ( -0.000000000000000000, -0.000000000000000000, -1.000000000000000000 ) ) ;
#134 = ORIENTED_EDGE ( 'NONE', *, *, #329, .F. ) ;
#135 = DIRECTION ( 'NONE',  ( -0.000000000000000000, -0.000000000000000000, -1.000000000000000000 ) ) ;
#136 = FACE_BOUND ( 'NONE', #16, .T. ) ;
#137 = CARTESIAN_POINT ( 'NONE',  ( 5.200000000000000178, 6.368163355566236381E-16, 3.049999999999999822 ) ) ;
#138 = DIRECTION ( 'NONE',  ( -1.000000000000000000, 0.000000000000000000, 0.000000000000000000 ) ) ;
#139 = PLANE ( 'NONE',  #528 ) ;
#140 = EDGE_LOOP ( 'NONE', ( #394, #46, #13, #330 ) ) ;
#141 = DIRECTION ( 'NONE',  ( 1.000000000000000000, 0.000000000000000000, 0.000000000000000000 ) ) ;
#142 = CC_DESIGN_DATE_AND_TIME_ASSIGNMENT ( #148, #515, ( #555 ) ) ;
#143 = EDGE_LOOP ( 'NONE', ( #347, #228, #10, #206 ) ) ;
#144 = CARTESIAN_POINT ( 'NONE',  ( 0.000000000000000000, 0.000000000000000000, -2.286000000000000032 ) ) ;
#145 = PERSON_AND_ORGANIZATION ( #79, #542 ) ;
#146 = CIRCLE ( 'NONE', #530, 5.200000000000000178 ) ;
#147 = APPROVAL ( #241, 'UNSPECIFIED' ) ;
#148 = DATE_AND_TIME ( #469, #559 ) ;
#149 = DIRECTION ( 'NONE',  ( 0.000000000000000000, 0.000000000000000000, 1.000000000000000000 ) ) ;
#150 = ORIENTED_EDGE ( 'NONE', *, *, #297, .F. ) ;
#151 = DATE_AND_TIME ( #332, #567 ) ;
#152 = FACE_BOUND ( 'NONE', #245, .T. ) ;
#153 = EDGE_LOOP ( 'NONE', ( #471, #41, #365, #22 ) ) ;
#154 = CARTESIAN_POINT ( 'NONE',  ( 0.000000000000000000, 0.000000000000000000, 1.000000000000000000 ) ) ;
#155 = CIRCLE ( 'NONE', #261, 3.174999999999999822 ) ;
#156 = AXIS2_PLACEMENT_3D ( 'NONE', #184, #99, #93 ) ;
#157 = ORIENTED_EDGE ( 'NONE', *, *, #286, .T. ) ;
#158 = AXIS2_PLACEMENT_3D ( 'NONE', #48, #459, #69 ) ;
#159 = CARTESIAN_POINT ( 'NONE',  ( 0.000000000000000000, 0.000000000000000000, 3.049999999999999822 ) ) ;
#160 = EDGE_LOOP ( 'NONE', ( #157, #543, #445, #134 ) ) ;
#161 = CARTESIAN_POINT ( 'NONE',  ( 3.174999999999999822, 3.888253587292846081E-16, 2.286000000000000032 ) ) ;
#162 = ORIENTED_EDGE ( 'NONE', *, *, #431, .F. ) ;
#163 = DIRECTION ( 'NONE',  ( -0.000000000000000000, -0.000000000000000000, -1.000000000000000000 ) ) ;
#164 = VERTEX_POINT ( 'NONE', #509 ) ;
#165 = CIRCLE ( 'NONE', #537, 5.200000000000000178 ) ;
#166 = CC_DESIGN_APPROVAL ( #337, ( #302 ) ) ;
#167 = EDGE_CURVE ( 'NONE', #164, #379, #200, .T. ) ;
#168 = CARTESIAN_POINT ( 'NONE',  ( 0.000000000000000000, 0.000000000000000000, -3.049999999999999822 ) ) ;
#169 = ORIENTED_EDGE ( 'NONE', *, *, #477, .T. ) ;
#170 = FACE_BOUND ( 'NONE', #119, .T. ) ;
#171 = VERTEX_POINT ( 'NONE', #28 ) ;
#172 = DIRECTION ( 'NONE',  ( 0.000000000000000000, 0.000000000000000000, 1.000000000000000000 ) ) ;
#173 = ADVANCED_FACE ( 'NONE', ( #194, #152 ), #375, .T. ) ;
#174 = VECTOR ( 'NONE', #526, 1000.000000000000000 ) ;
#175 = VECTOR ( 'NONE', #135, 1000.000000000000000 ) ;
#176 = DIRECTION ( 'NONE',  ( 1.000000000000000000, 0.000000000000000000, 0.000000000000000000 ) ) ;
#177 = VERTEX_POINT ( 'NONE', #427 ) ;
#178 = DIRECTION ( 'NONE',  ( 0.000000000000000000, 0.000000000000000000, 1.000000000000000000 ) ) ;
#179 = ORIENTED_EDGE ( 'NONE', *, *, #325, .F. ) ;
#180 = EDGE_CURVE ( 'NONE', #415, #240, #95, .T. ) ;
#181 = CARTESIAN_POINT ( 'NONE',  ( 0.000000000000000000, 0.000000000000000000, 3.049999999999999822 ) ) ;
#182 = VERTEX_POINT ( 'NONE', #115 ) ;
#183 = AXIS2_PLACEMENT_3D ( 'NONE', #438, #305, #317 ) ;
#184 = CARTESIAN_POINT ( 'NONE',  ( 0.000000000000000000, 0.000000000000000000, -1.000000000000000000 ) ) ;
#185 = ADVANCED_FACE ( 'NONE', ( #288, #507 ), #197, .T. ) ;
#186 = CARTESIAN_POINT ( 'NONE',  ( 0.000000000000000000, 0.000000000000000000, 2.286000000000000032 ) ) ;
#187 = ORIENTED_EDGE ( 'NONE', *, *, #106, .T. ) ;
#188 = PLANE ( 'NONE',  #87 ) ;
#189 = ORIENTED_EDGE ( 'NONE', *, *, #402, .F. ) ;
#190 = APPROVAL_ROLE ( '' ) ;
#191 = AXIS2_PLACEMENT_3D ( 'NONE', #322, #423, #512 ) ;
#192 = FACE_OUTER_BOUND ( 'NONE', #429, .T. ) ;
#193 = APPROVAL_STATUS ( 'not_yet_approved' ) ;
#194 = FACE_OUTER_BOUND ( 'NONE', #121, .T. ) ;
#195 = ORIENTED_EDGE ( 'NONE', *, *, #492, .F. ) ;
#196 = DATE_AND_TIME ( #465, #35 ) ;
#197 = PLANE ( 'NONE',  #191 ) ;
#198 = ORIENTED_EDGE ( 'NONE', *, *, #514, .T. ) ;
#199 = CYLINDRICAL_SURFACE ( 'NONE', #209, 3.174999999999999822 ) ;
#200 = CIRCLE ( 'NONE', #442, 3.174999999999999822 ) ;
#201 = CC_DESIGN_PERSON_AND_ORGANIZATION_ASSIGNMENT ( #145, #110, ( #302 ) ) ;
#202 = VECTOR ( 'NONE', #214, 1000.000000000000000 ) ;
#203 = ORIENTED_EDGE ( 'NONE', *, *, #7, .F. ) ;
#204 = LINE ( 'NONE', #161, #425 ) ;
#205 = ADVANCED_FACE ( 'NONE', ( #554 ), #328, .F. ) ;
#206 = ORIENTED_EDGE ( 'NONE', *, *, #221, .F. ) ;
#207 = CARTESIAN_POINT ( 'NONE',  ( 3.174999999999999822, 3.888253587292846081E-16, 2.286000000000000032 ) ) ;
#208 = CARTESIAN_POINT ( 'NONE',  ( 3.174999999999999822, 3.888253587292846081E-16, -1.000000000000000000 ) ) ;
#209 = AXIS2_PLACEMENT_3D ( 'NONE', #381, #516, #120 ) ;
#210 = AXIS2_PLACEMENT_3D ( 'NONE', #159, #550, #118 ) ;
#211 = CIRCLE ( 'NONE', #15, 2.100000000000000089 ) ;
#212 = CARTESIAN_POINT ( 'NONE',  ( 5.200000000000000178, 6.368163355566236381E-16, 1.000000000000000000 ) ) ;
#213 = DATE_AND_TIME ( #478, #342 ) ;
#214 = DIRECTION ( 'NONE',  ( -0.000000000000000000, -0.000000000000000000, -1.000000000000000000 ) ) ;
#215 = VERTEX_POINT ( 'NONE', #244 ) ;
#216 = DIRECTION ( 'NONE',  ( 1.000000000000000000, 0.000000000000000000, 0.000000000000000000 ) ) ;
#217 = CIRCLE ( 'NONE', #42, 5.200000000000000178 ) ;
#218 = VECTOR ( 'NONE', #133, 1000.000000000000000 ) ;
#219 = CARTESIAN_POINT ( 'NONE',  ( 0.000000000000000000, 0.000000000000000000, 3.049999999999999822 ) ) ;
#220 = DIRECTION ( 'NONE',  ( 1.000000000000000000, 0.000000000000000000, -0.000000000000000000 ) ) ;
#221 = EDGE_CURVE ( 'NONE', #177, #500, #237, .T. ) ;
#222 = ORIENTED_EDGE ( 'NONE', *, *, #534, .T. ) ;
#223 = ADVANCED_FACE ( 'NONE', ( #192 ), #199, .T. ) ;
#224 = CARTESIAN_POINT ( 'NONE',  ( 6.200000000000000178, 7.592810154713589835E-16, 3.049999999999999822 ) ) ;
#225 = EDGE_LOOP ( 'NONE', ( #24, #513, #51, #150 ) ) ;
#226 = ADVANCED_FACE ( 'NONE', ( #111, #420 ), #188, .T. ) ;
#227 = DIRECTION ( 'NONE',  ( -0.000000000000000000, -0.000000000000000000, -1.000000000000000000 ) ) ;
#228 = ORIENTED_EDGE ( 'NONE', *, *, #103, .F. ) ;
#229 = LINE ( 'NONE', #263, #238 ) ;
#230 = PERSON_AND_ORGANIZATION ( #79, #542 ) ;
#231 = DIRECTION ( 'NONE',  ( -0.000000000000000000, -0.000000000000000000, -1.000000000000000000 ) ) ;
#232 = EDGE_LOOP ( 'NONE', ( #384, #271 ) ) ;
#233 =( NAMED_UNIT ( * ) SI_UNIT ( $, .STERADIAN. ) SOLID_ANGLE_UNIT ( ) );
#234 = CYLINDRICAL_SURFACE ( 'NONE', #300, 6.200000000000000178 ) ;
#235 = ORIENTED_EDGE ( 'NONE', *, *, #103, .T. ) ;
#236 = PERSON_AND_ORGANIZATION ( #79, #542 ) ;
#237 = CIRCLE ( 'NONE', #388, 5.200000000000000178 ) ;
#238 = VECTOR ( 'NONE', #313, 1000.000000000000000 ) ;
#239 = DIRECTION ( 'NONE',  ( -1.000000000000000000, 0.000000000000000000, 0.000000000000000000 ) ) ;
#240 = VERTEX_POINT ( 'NONE', #460 ) ;
#241 = APPROVAL_STATUS ( 'not_yet_approved' ) ;
#242 = CYLINDRICAL_SURFACE ( 'NONE', #210, 5.200000000000000178 ) ;
#243 = ADVANCED_FACE ( 'NONE', ( #64 ), #234, .T. ) ;
#244 = CARTESIAN_POINT ( 'NONE',  ( -3.174999999999999822, 0.000000000000000000, -1.000000000000000000 ) ) ;
#245 = EDGE_LOOP ( 'NONE', ( #551, #405 ) ) ;
#246 = DIRECTION ( 'NONE',  ( 1.000000000000000000, 0.000000000000000000, 0.000000000000000000 ) ) ;
#247 = AXIS2_PLACEMENT_3D ( 'NONE', #52, #311, #358 ) ;
#248 = ORIENTED_EDGE ( 'NONE', *, *, #221, .T. ) ;
#249 = DIRECTION ( 'NONE',  ( 0.000000000000000000, 0.000000000000000000, 1.000000000000000000 ) ) ;
#250 = EDGE_CURVE ( 'NONE', #500, #177, #165, .T. ) ;
#251 = ORIENTED_EDGE ( 'NONE', *, *, #448, .F. ) ;
#252 = DIRECTION ( 'NONE',  ( -0.000000000000000000, -0.000000000000000000, -1.000000000000000000 ) ) ;
#253 = CARTESIAN_POINT ( 'NONE',  ( 0.000000000000000000, 0.000000000000000000, -3.049999999999999822 ) ) ;
#254 = AXIS2_PLACEMENT_3D ( 'NONE', #333, #371, #552 ) ;
#255 = CIRCLE ( 'NONE', #350, 5.200000000000000178 ) ;
#256 = PRODUCT_RELATED_PRODUCT_CATEGORY ( 'detail', '', ( #472 ) ) ;
#257 = CARTESIAN_POINT ( 'NONE',  ( 0.000000000000000000, 0.000000000000000000, -1.000000000000000000 ) ) ;
#258 = VERTEX_POINT ( 'NONE', #430 ) ;
#259 = CARTESIAN_POINT ( 'NONE',  ( 0.000000000000000000, 0.000000000000000000, 1.000000000000000000 ) ) ;
#260 = CARTESIAN_POINT ( 'NONE',  ( 0.000000000000000000, 0.000000000000000000, -3.049999999999999822 ) ) ;
#261 = AXIS2_PLACEMENT_3D ( 'NONE', #561, #81, #473 ) ;
#262 = CIRCLE ( 'NONE', #283, 5.200000000000000178 ) ;
#263 = CARTESIAN_POINT ( 'NONE',  ( 3.174999999999999822, 3.888253587292846081E-16, 2.286000000000000032 ) ) ;
#264 = CARTESIAN_POINT ( 'NONE',  ( 0.000000000000000000, 0.000000000000000000, 3.049999999999999822 ) ) ;
#265 = EDGE_CURVE ( 'NONE', #182, #298, #57, .T. ) ;
#266 = ORIENTED_EDGE ( 'NONE', *, *, #480, .T. ) ;
#267 = CARTESIAN_POINT ( 'NONE',  ( 2.100000000000000089, 2.571758278209441957E-16, -2.286000000000000032 ) ) ;
#268 = DIRECTION ( 'NONE',  ( -0.000000000000000000, -0.000000000000000000, -1.000000000000000000 ) ) ;
#269 = DIRECTION ( 'NONE',  ( -0.000000000000000000, -0.000000000000000000, -1.000000000000000000 ) ) ;
#270 = FACE_OUTER_BOUND ( 'NONE', #401, .T. ) ;
#271 = ORIENTED_EDGE ( 'NONE', *, *, #534, .F. ) ;
#272 = AXIS2_PLACEMENT_3D ( 'NONE', #467, #75, #470 ) ;
#273 = ADVANCED_FACE ( 'NONE', ( #123 ), #125, .T. ) ;
#274 = APPROVAL_ROLE ( '' ) ;
#275 = COORDINATED_UNIVERSAL_TIME_OFFSET ( 6, 0, .BEHIND. ) ;
#276 = CARTESIAN_POINT ( 'NONE',  ( 0.000000000000000000, 0.000000000000000000, -2.286000000000000032 ) ) ;
#277 = PERSON_AND_ORGANIZATION ( #79, #542 ) ;
#278 = FACE_OUTER_BOUND ( 'NONE', #225, .T. ) ;
#279 = EDGE_CURVE ( 'NONE', #33, #84, #3, .T. ) ;
#280 = VERTEX_POINT ( 'NONE', #47 ) ;
#281 = CALENDAR_DATE ( 2022, 6, 6 ) ;
#282 = CIRCLE ( 'NONE', #43, 5.200000000000000178 ) ;
#283 = AXIS2_PLACEMENT_3D ( 'NONE', #535, #11, #17 ) ;
#284 = DIRECTION ( 'NONE',  ( 1.000000000000000000, 0.000000000000000000, 0.000000000000000000 ) ) ;
#285 = CC_DESIGN_APPROVAL ( #147, ( #44 ) ) ;
#286 = EDGE_CURVE ( 'NONE', #171, #109, #211, .T. ) ;
#287 = APPROVAL_ROLE ( '' ) ;
#288 = FACE_OUTER_BOUND ( 'NONE', #357, .T. ) ;
#289 = ORIENTED_EDGE ( 'NONE', *, *, #7, .T. ) ;
#290 = DIRECTION ( 'NONE',  ( 1.000000000000000000, 0.000000000000000000, 0.000000000000000000 ) ) ;
#291 = VERTEX_POINT ( 'NONE', #208 ) ;
#292 = DIRECTION ( 'NONE',  ( -0.000000000000000000, -0.000000000000000000, -1.000000000000000000 ) ) ;
#293 = AXIS2_PLACEMENT_3D ( 'NONE', #499, #101, #104 ) ;
#294 = CARTESIAN_POINT ( 'NONE',  ( 0.000000000000000000, 0.000000000000000000, 2.286000000000000032 ) ) ;
#295 = COORDINATED_UNIVERSAL_TIME_OFFSET ( 6, 0, .BEHIND. ) ;
#296 = DIRECTION ( 'NONE',  ( 0.000000000000000000, 0.000000000000000000, 1.000000000000000000 ) ) ;
#297 = EDGE_CURVE ( 'NONE', #62, #500, #348, .T. ) ;
#298 = VERTEX_POINT ( 'NONE', #130 ) ;
#299 = LINE ( 'NONE', #387, #218 ) ;
#300 = AXIS2_PLACEMENT_3D ( 'NONE', #416, #23, #239 ) ;
#301 = VECTOR ( 'NONE', #494, 1000.000000000000000 ) ;
#302 = PRODUCT_DEFINITION_FORMATION_WITH_SPECIFIED_SOURCE ( 'ANY', '', #472, .NOT_KNOWN. ) ;
#303 = CC_DESIGN_PERSON_AND_ORGANIZATION_ASSIGNMENT ( #117, #547, ( #302 ) ) ;
#304 = CARTESIAN_POINT ( 'NONE',  ( 0.000000000000000000, 0.000000000000000000, 1.000000000000000000 ) ) ;
#305 = DIRECTION ( 'NONE',  ( 0.000000000000000000, 0.000000000000000000, 1.000000000000000000 ) ) ;
#306 = DIRECTION ( 'NONE',  ( -1.000000000000000000, 0.000000000000000000, 0.000000000000000000 ) ) ;
#307 = DIRECTION ( 'NONE',  ( -1.000000000000000000, 0.000000000000000000, 0.000000000000000000 ) ) ;
#308 = CARTESIAN_POINT ( 'NONE',  ( -5.200000000000000178, 0.000000000000000000, -3.049999999999999822 ) ) ;
#309 = CARTESIAN_POINT ( 'NONE',  ( 0.000000000000000000, 0.000000000000000000, -3.049999999999999822 ) ) ;
#310 = CIRCLE ( 'NONE', #466, 6.200000000000000178 ) ;
#311 = DIRECTION ( 'NONE',  ( 0.000000000000000000, 0.000000000000000000, 1.000000000000000000 ) ) ;
#312 = CARTESIAN_POINT ( 'NONE',  ( -5.200000000000000178, 0.000000000000000000, 3.049999999999999822 ) ) ;
#313 = DIRECTION ( 'NONE',  ( -0.000000000000000000, -0.000000000000000000, -1.000000000000000000 ) ) ;
#314 = DIRECTION ( 'NONE',  ( 1.000000000000000000, 0.000000000000000000, 0.000000000000000000 ) ) ;
#315 = ORIENTED_EDGE ( 'NONE', *, *, #431, .T. ) ;
#316 = DIRECTION ( 'NONE',  ( 0.000000000000000000, 0.000000000000000000, 1.000000000000000000 ) ) ;
#317 = DIRECTION ( 'NONE',  ( 1.000000000000000000, 0.000000000000000000, -0.000000000000000000 ) ) ;
#318 = CLOSED_SHELL ( 'NONE', ( #30, #518, #223, #67, #243, #122, #173, #410, #88, #205, #128, #226, #450, #273, #6, #351, #185, #73 ) ) ;
#319 = EDGE_CURVE ( 'NONE', #379, #164, #398, .T. ) ;
#320 = CIRCLE ( 'NONE', #483, 6.200000000000000178 ) ;
#321 = SECURITY_CLASSIFICATION_LEVEL ( 'unclassified' ) ;
#322 = CARTESIAN_POINT ( 'NONE',  ( 0.000000000000000000, 0.000000000000000000, 2.286000000000000032 ) ) ;
#323 = EDGE_CURVE ( 'NONE', #421, #33, #146, .T. ) ;
#324 = APPROVAL_DATE_TIME ( #151, #80 ) ;
#325 = EDGE_CURVE ( 'NONE', #258, #164, #529, .T. ) ;
#326 = CARTESIAN_POINT ( 'NONE',  ( 2.100000000000000089, 2.571758278209441957E-16, 2.286000000000000032 ) ) ;
#327 = APPLICATION_PROTOCOL_DEFINITION ( 'international standard', 'config_control_design', 1994, #502 ) ;
#328 = CYLINDRICAL_SURFACE ( 'NONE', #272, 5.200000000000000178 ) ;
#329 = EDGE_CURVE ( 'NONE', #171, #240, #299, .T. ) ;
#330 = ORIENTED_EDGE ( 'NONE', *, *, #319, .F. ) ;
#331 = AXIS2_PLACEMENT_3D ( 'NONE', #458, #231, #94 ) ;
#332 = CALENDAR_DATE ( 2022, 6, 6 ) ;
#333 = CARTESIAN_POINT ( 'NONE',  ( 0.000000000000000000, 0.000000000000000000, 1.000000000000000000 ) ) ;
#334 = PERSON_AND_ORGANIZATION_ROLE ( 'design_owner' ) ;
#335 = DIRECTION ( 'NONE',  ( -0.000000000000000000, -0.000000000000000000, -1.000000000000000000 ) ) ;
#336 = ORIENTED_EDGE ( 'NONE', *, *, #180, .F. ) ;
#337 = APPROVAL ( #193, 'UNSPECIFIED' ) ;
#338 = DIRECTION ( 'NONE',  ( -0.000000000000000000, -0.000000000000000000, -1.000000000000000000 ) ) ;
#339 = ORIENTED_EDGE ( 'NONE', *, *, #546, .T. ) ;
#340 = CARTESIAN_POINT ( 'NONE',  ( 0.000000000000000000, 0.000000000000000000, 3.049999999999999822 ) ) ;
#341 = VERTEX_POINT ( 'NONE', #39 ) ;
#342 = LOCAL_TIME ( 14, 17, 31.00000000000000000, #295 ) ;
#343 = CARTESIAN_POINT ( 'NONE',  ( -5.200000000000000178, 0.000000000000000000, 3.049999999999999822 ) ) ;
#344 = VERTEX_POINT ( 'NONE', #207 ) ;
#345 = DIRECTION ( 'NONE',  ( 1.000000000000000000, 0.000000000000000000, 0.000000000000000000 ) ) ;
#346 = EDGE_CURVE ( 'NONE', #29, #298, #521, .T. ) ;
#347 = ORIENTED_EDGE ( 'NONE', *, *, #497, .F. ) ;
#348 = LINE ( 'NONE', #393, #436 ) ;
#349 = AXIS2_PLACEMENT_3D ( 'NONE', #168, #172, #565 ) ;
#350 = AXIS2_PLACEMENT_3D ( 'NONE', #259, #441, #141 ) ;
#351 = ADVANCED_FACE ( 'NONE', ( #36 ), #479, .F. ) ;
#352 = APPROVAL_PERSON_ORGANIZATION ( #236, #80, #287 ) ;
#353 = DESIGN_CONTEXT ( 'detailed design', #502, 'design' ) ;
#354 = CARTESIAN_POINT ( 'NONE',  ( 0.000000000000000000, 0.000000000000000000, 1.000000000000000000 ) ) ;
#355 = FACE_OUTER_BOUND ( 'NONE', #140, .T. ) ;
#356 = LINE ( 'NONE', #137, #175 ) ;
#357 = EDGE_LOOP ( 'NONE', ( #198, #91 ) ) ;
#358 = DIRECTION ( 'NONE',  ( 1.000000000000000000, 0.000000000000000000, 0.000000000000000000 ) ) ;
#359 = ORIENTED_EDGE ( 'NONE', *, *, #414, .F. ) ;
#360 = FACE_OUTER_BOUND ( 'NONE', #160, .T. ) ;
#361 = CYLINDRICAL_SURFACE ( 'NONE', #453, 5.200000000000000178 ) ;
#362 = CC_DESIGN_PERSON_AND_ORGANIZATION_ASSIGNMENT ( #277, #374, ( #44 ) ) ;
#363 = ORIENTED_EDGE ( 'NONE', *, *, #329, .T. ) ;
#364 = LINE ( 'NONE', #4, #34 ) ;
#365 = ORIENTED_EDGE ( 'NONE', *, *, #265, .T. ) ;
#366 = APPROVAL_STATUS ( 'not_yet_approved' ) ;
#367 = CARTESIAN_POINT ( 'NONE',  ( 0.000000000000000000, 0.000000000000000000, 3.049999999999999822 ) ) ;
#368 = CIRCLE ( 'NONE', #156, 3.174999999999999822 ) ;
#369 = APPLICATION_PROTOCOL_DEFINITION ( 'international standard', 'config_control_design', 1994, #495 ) ;
#370 = APPROVAL_PERSON_ORGANIZATION ( #63, #337, #274 ) ;
#371 = DIRECTION ( 'NONE',  ( 0.000000000000000000, 0.000000000000000000, 1.000000000000000000 ) ) ;
#372 = EDGE_LOOP ( 'NONE', ( #235, #100 ) ) ;
#373 = EDGE_CURVE ( 'NONE', #215, #291, #493, .T. ) ;
#374 = PERSON_AND_ORGANIZATION_ROLE ( 'classification_officer' ) ;
#375 = PLANE ( 'NONE',  #254 ) ;
#376 = ORIENTED_EDGE ( 'NONE', *, *, #250, .T. ) ;
#377 =( LENGTH_UNIT ( ) NAMED_UNIT ( * ) SI_UNIT ( .MILLI., .METRE. ) );
#378 = CARTESIAN_POINT ( 'NONE',  ( 0.000000000000000000, 0.000000000000000000, 1.000000000000000000 ) ) ;
#379 = VERTEX_POINT ( 'NONE', #434 ) ;
#380 = CIRCLE ( 'NONE', #293, 3.174999999999999822 ) ;
#381 = CARTESIAN_POINT ( 'NONE',  ( 0.000000000000000000, 0.000000000000000000, 2.286000000000000032 ) ) ;
#382 = ORIENTED_EDGE ( 'NONE', *, *, #433, .T. ) ;
#383 = DIRECTION ( 'NONE',  ( 0.000000000000000000, 0.000000000000000000, 1.000000000000000000 ) ) ;
#384 = ORIENTED_EDGE ( 'NONE', *, *, #106, .F. ) ;
#385 = DIRECTION ( 'NONE',  ( 1.000000000000000000, 0.000000000000000000, 0.000000000000000000 ) ) ;
#386 = ORIENTED_EDGE ( 'NONE', *, *, #485, .T. ) ;
#387 = CARTESIAN_POINT ( 'NONE',  ( -2.100000000000000089, 0.000000000000000000, 1.000000000000000000 ) ) ;
#388 = AXIS2_PLACEMENT_3D ( 'NONE', #32, #31, #246 ) ;
#389 = CIRCLE ( 'NONE', #444, 3.174999999999999822 ) ;
#390 = MANIFOLD_SOLID_BREP ( '228-2500-154', #318 ) ;
#391 = EDGE_CURVE ( 'NONE', #291, #454, #204, .T. ) ;
#392 = FACE_OUTER_BOUND ( 'NONE', #372, .T. ) ;
#393 = CARTESIAN_POINT ( 'NONE',  ( -5.200000000000000178, 0.000000000000000000, 3.049999999999999822 ) ) ;
#394 = ORIENTED_EDGE ( 'NONE', *, *, #480, .F. ) ;
#395 = CARTESIAN_POINT ( 'NONE',  ( 0.000000000000000000, 0.000000000000000000, 1.000000000000000000 ) ) ;
#396 = AXIS2_PLACEMENT_3D ( 'NONE', #294, #481, #523 ) ;
#397 = ORIENTED_EDGE ( 'NONE', *, *, #286, .F. ) ;
#398 = CIRCLE ( 'NONE', #89, 3.174999999999999822 ) ;
#399 = CARTESIAN_POINT ( 'NONE',  ( 2.100000000000000089, 2.571758278209441957E-16, 1.000000000000000000 ) ) ;
#400 = DIRECTION ( 'NONE',  ( -0.000000000000000000, -0.000000000000000000, -1.000000000000000000 ) ) ;
#401 = EDGE_LOOP ( 'NONE', ( #251, #266, #72, #179 ) ) ;
#402 = EDGE_CURVE ( 'NONE', #421, #408, #476, .T. ) ;
#403 = DIRECTION ( 'NONE',  ( -0.000000000000000000, -0.000000000000000000, -1.000000000000000000 ) ) ;
#404 = DIRECTION ( 'NONE',  ( 1.000000000000000000, 0.000000000000000000, 0.000000000000000000 ) ) ;
#405 = ORIENTED_EDGE ( 'NONE', *, *, #319, .T. ) ;
#406 = UNCERTAINTY_MEASURE_WITH_UNIT (LENGTH_MEASURE( 1.000000000000000082E-05 ), #377, 'distance_accuracy_value', 'NONE');
#407 = DIRECTION ( 'NONE',  ( 1.000000000000000000, 0.000000000000000000, 0.000000000000000000 ) ) ;
#408 = VERTEX_POINT ( 'NONE', #212 ) ;
#409 = DIRECTION ( 'NONE',  ( 0.000000000000000000, 0.000000000000000000, 1.000000000000000000 ) ) ;
#410 = ADVANCED_FACE ( 'NONE', ( #392, #170 ), #90, .F. ) ;
#411 = FACE_OUTER_BOUND ( 'NONE', #2, .T. ) ;
#412 = CARTESIAN_POINT ( 'NONE',  ( 0.000000000000000000, 0.000000000000000000, 0.000000000000000000 ) ) ;
#413 = CARTESIAN_POINT ( 'NONE',  ( 0.000000000000000000, 0.000000000000000000, -1.000000000000000000 ) ) ;
#414 = EDGE_CURVE ( 'NONE', #291, #215, #368, .T. ) ;
#415 = VERTEX_POINT ( 'NONE', #267 ) ;
#416 = CARTESIAN_POINT ( 'NONE',  ( 0.000000000000000000, 0.000000000000000000, 1.000000000000000000 ) ) ;
#417 = AXIS2_PLACEMENT_3D ( 'NONE', #154, #77, #108 ) ;
#418 = DATE_AND_TIME ( #281, #60 ) ;
#419 = APPROVAL_PERSON_ORGANIZATION ( #504, #147, #190 ) ;
#420 = FACE_BOUND ( 'NONE', #461, .T. ) ;
#421 = VERTEX_POINT ( 'NONE', #449 ) ;
#422 = PERSON_AND_ORGANIZATION ( #79, #542 ) ;
#423 = DIRECTION ( 'NONE',  ( 0.000000000000000000, 0.000000000000000000, 1.000000000000000000 ) ) ;
#424 = FACE_OUTER_BOUND ( 'NONE', #49, .T. ) ;
#425 = VECTOR ( 'NONE', #338, 1000.000000000000000 ) ;
#426 = CIRCLE ( 'NONE', #158, 2.100000000000000089 ) ;
#427 = CARTESIAN_POINT ( 'NONE',  ( 5.200000000000000178, 6.368163355566236381E-16, -3.049999999999999822 ) ) ;
#428 = EDGE_CURVE ( 'NONE', #517, #182, #364, .T. ) ;
#429 = EDGE_LOOP ( 'NONE', ( #82, #432, #222, #162 ) ) ;
#430 = CARTESIAN_POINT ( 'NONE',  ( -3.174999999999999822, 0.000000000000000000, 2.286000000000000032 ) ) ;
#431 = EDGE_CURVE ( 'NONE', #215, #280, #56, .T. ) ;
#432 = ORIENTED_EDGE ( 'NONE', *, *, #391, .T. ) ;
#433 = EDGE_CURVE ( 'NONE', #33, #421, #262, .T. ) ;
#434 = CARTESIAN_POINT ( 'NONE',  ( 3.174999999999999822, 3.888253587292846081E-16, 1.000000000000000000 ) ) ;
#435 = CARTESIAN_POINT ( 'NONE',  ( 0.000000000000000000, 0.000000000000000000, 2.286000000000000032 ) ) ;
#436 = VECTOR ( 'NONE', #163, 1000.000000000000000 ) ;
#437 = DIRECTION ( 'NONE',  ( 0.000000000000000000, 0.000000000000000000, 1.000000000000000000 ) ) ;
#438 = CARTESIAN_POINT ( 'NONE',  ( 0.000000000000000000, 0.000000000000000000, -2.286000000000000032 ) ) ;
#439 = DIRECTION ( 'NONE',  ( 1.000000000000000000, 0.000000000000000000, 0.000000000000000000 ) ) ;
#440 = EDGE_CURVE ( 'NONE', #109, #415, #532, .T. ) ;
#441 = DIRECTION ( 'NONE',  ( -0.000000000000000000, -0.000000000000000000, -1.000000000000000000 ) ) ;
#442 = AXIS2_PLACEMENT_3D ( 'NONE', #378, #335, #284 ) ;
#443 = DIRECTION ( 'NONE',  ( 0.000000000000000000, 0.000000000000000000, 1.000000000000000000 ) ) ;
#444 = AXIS2_PLACEMENT_3D ( 'NONE', #186, #316, #176 ) ;
#445 = ORIENTED_EDGE ( 'NONE', *, *, #485, .F. ) ;
#446 = DIRECTION ( 'NONE',  ( -0.000000000000000000, -0.000000000000000000, -1.000000000000000000 ) ) ;
#447 = CARTESIAN_POINT ( 'NONE',  ( -5.200000000000000178, 0.000000000000000000, 1.000000000000000000 ) ) ;
#448 = EDGE_CURVE ( 'NONE', #344, #258, #389, .T. ) ;
#449 = CARTESIAN_POINT ( 'NONE',  ( 5.200000000000000178, 6.368163355566236381E-16, 3.049999999999999822 ) ) ;
#450 = ADVANCED_FACE ( 'NONE', ( #489 ), #50, .F. ) ;
#451 = CARTESIAN_POINT ( 'NONE',  ( -3.174999999999999822, 0.000000000000000000, 2.286000000000000032 ) ) ;
#452 = CARTESIAN_POINT ( 'NONE',  ( 0.000000000000000000, 0.000000000000000000, 2.286000000000000032 ) ) ;
#453 = AXIS2_PLACEMENT_3D ( 'NONE', #264, #268, #307 ) ;
#454 = VERTEX_POINT ( 'NONE', #96 ) ;
#455 = VECTOR ( 'NONE', #227, 1000.000000000000000 ) ;
#456 = CC_DESIGN_SECURITY_CLASSIFICATION ( #44, ( #302 ) ) ;
#457 = COORDINATED_UNIVERSAL_TIME_OFFSET ( 6, 0, .BEHIND. ) ;
#458 = CARTESIAN_POINT ( 'NONE',  ( 0.000000000000000000, 0.000000000000000000, 2.286000000000000032 ) ) ;
#459 = DIRECTION ( 'NONE',  ( 0.000000000000000000, 0.000000000000000000, 1.000000000000000000 ) ) ;
#460 = CARTESIAN_POINT ( 'NONE',  ( -2.100000000000000089, 0.000000000000000000, -2.286000000000000032 ) ) ;
#461 = EDGE_LOOP ( 'NONE', ( #487, #78 ) ) ;
#462 = EDGE_LOOP ( 'NONE', ( #189, #545, #562, #520 ) ) ;
#463 = AXIS2_PLACEMENT_3D ( 'NONE', #452, #21, #533 ) ;
#464 = AXIS2_PLACEMENT_3D ( 'NONE', #85, #252, #86 ) ;
#465 = CALENDAR_DATE ( 2022, 6, 6 ) ;
#466 = AXIS2_PLACEMENT_3D ( 'NONE', #219, #409, #439 ) ;
#467 = CARTESIAN_POINT ( 'NONE',  ( 0.000000000000000000, 0.000000000000000000, 3.049999999999999822 ) ) ;
#468 = ORIENTED_EDGE ( 'NONE', *, *, #346, .T. ) ;
#469 = CALENDAR_DATE ( 2022, 6, 6 ) ;
#470 = DIRECTION ( 'NONE',  ( -1.000000000000000000, 0.000000000000000000, 0.000000000000000000 ) ) ;
#471 = ORIENTED_EDGE ( 'NONE', *, *, #538, .F. ) ;
#472 = PRODUCT ( '228-2500-154', '228-2500-154', '', ( #506 ) ) ;
#473 = DIRECTION ( 'NONE',  ( 1.000000000000000000, 0.000000000000000000, 0.000000000000000000 ) ) ;
#474 = ORIENTED_EDGE ( 'NONE', *, *, #440, .F. ) ;
#475 = AXIS2_PLACEMENT_3D ( 'NONE', #9, #400, #404 ) ;
#476 = LINE ( 'NONE', #45, #202 ) ;
#477 = EDGE_CURVE ( 'NONE', #29, #517, #320, .T. ) ;
#478 = CALENDAR_DATE ( 2022, 6, 6 ) ;
#479 = CYLINDRICAL_SURFACE ( 'NONE', #97, 2.100000000000000089 ) ;
#480 = EDGE_CURVE ( 'NONE', #344, #379, #229, .T. ) ;
#481 = DIRECTION ( 'NONE',  ( -0.000000000000000000, -0.000000000000000000, -1.000000000000000000 ) ) ;
#482 = CARTESIAN_POINT ( 'NONE',  ( -6.200000000000000178, 0.000000000000000000, 1.000000000000000000 ) ) ;
#483 = AXIS2_PLACEMENT_3D ( 'NONE', #181, #178, #407 ) ;
#484 = AXIS2_PLACEMENT_3D ( 'NONE', #412, #114, #560 ) ;
#485 = EDGE_CURVE ( 'NONE', #240, #415, #541, .T. ) ;
#486 = DIRECTION ( 'NONE',  ( -0.000000000000000000, -0.000000000000000000, -1.000000000000000000 ) ) ;
#487 = ORIENTED_EDGE ( 'NONE', *, *, #433, .F. ) ;
#488 = CYLINDRICAL_SURFACE ( 'NONE', #331, 3.174999999999999822 ) ;
#489 = FACE_OUTER_BOUND ( 'NONE', #462, .T. ) ;
#490 = EDGE_CURVE ( 'NONE', #84, #408, #282, .T. ) ;
#491 = CIRCLE ( 'NONE', #475, 5.200000000000000178 ) ;
#492 = EDGE_CURVE ( 'NONE', #408, #84, #255, .T. ) ;
#493 = CIRCLE ( 'NONE', #464, 3.174999999999999822 ) ;
#494 = DIRECTION ( 'NONE',  ( -0.000000000000000000, -0.000000000000000000, -1.000000000000000000 ) ) ;
#495 = APPLICATION_CONTEXT ( 'configuration controlled 3d designs of mechanical parts and assemblies' ) ;
#496 = DIRECTION ( 'NONE',  ( 1.000000000000000000, 0.000000000000000000, 0.000000000000000000 ) ) ;
#497 = EDGE_CURVE ( 'NONE', #341, #177, #356, .T. ) ;
#498 = ORIENTED_EDGE ( 'NONE', *, *, #477, .F. ) ;
#499 = CARTESIAN_POINT ( 'NONE',  ( 0.000000000000000000, 0.000000000000000000, -2.286000000000000032 ) ) ;
#500 = VERTEX_POINT ( 'NONE', #308 ) ;
#501 = CIRCLE ( 'NONE', #247, 3.174999999999999822 ) ;
#502 = APPLICATION_CONTEXT ( 'configuration controlled 3d designs of mechanical parts and assemblies' ) ;
#503 = CC_DESIGN_PERSON_AND_ORGANIZATION_ASSIGNMENT ( #230, #549, ( #555 ) ) ;
#504 = PERSON_AND_ORGANIZATION ( #79, #542 ) ;
#505 = DIRECTION ( 'NONE',  ( 1.000000000000000000, 0.000000000000000000, -0.000000000000000000 ) ) ;
#506 = MECHANICAL_CONTEXT ( 'NONE', #495, 'mechanical' ) ;
#507 = FACE_BOUND ( 'NONE', #553, .T. ) ;
#508 = ORIENTED_EDGE ( 'NONE', *, *, #402, .T. ) ;
#509 = CARTESIAN_POINT ( 'NONE',  ( -3.174999999999999822, 0.000000000000000000, 1.000000000000000000 ) ) ;
#510 = ORIENTED_EDGE ( 'NONE', *, *, #414, .T. ) ;
#511 = VECTOR ( 'NONE', #292, 1000.000000000000000 ) ;
#512 = DIRECTION ( 'NONE',  ( 1.000000000000000000, 0.000000000000000000, -0.000000000000000000 ) ) ;
#513 = ORIENTED_EDGE ( 'NONE', *, *, #497, .T. ) ;
#514 = EDGE_CURVE ( 'NONE', #258, #344, #501, .T. ) ;
#515 = DATE_TIME_ROLE ( 'creation_date' ) ;
#516 = DIRECTION ( 'NONE',  ( -0.000000000000000000, -0.000000000000000000, -1.000000000000000000 ) ) ;
#517 = VERTEX_POINT ( 'NONE', #224 ) ;
#518 = ADVANCED_FACE ( 'NONE', ( #360 ), #536, .F. ) ;
#519 = DIRECTION ( 'NONE',  ( -0.000000000000000000, -0.000000000000000000, -1.000000000000000000 ) ) ;
#520 = ORIENTED_EDGE ( 'NONE', *, *, #490, .T. ) ;
#521 = LINE ( 'NONE', #482, #511 ) ;
#522 = APPROVAL_DATE_TIME ( #213, #147 ) ;
#523 = DIRECTION ( 'NONE',  ( -1.000000000000000000, 0.000000000000000000, 0.000000000000000000 ) ) ;
#524 = FACE_OUTER_BOUND ( 'NONE', #232, .T. ) ;
#525 = SHAPE_DEFINITION_REPRESENTATION ( #66, #38 ) ;
#526 = DIRECTION ( 'NONE',  ( -0.000000000000000000, -0.000000000000000000, -1.000000000000000000 ) ) ;
#527 = EDGE_LOOP ( 'NONE', ( #531, #510, #315, #187 ) ) ;
#528 = AXIS2_PLACEMENT_3D ( 'NONE', #260, #443, #220 ) ;
#529 = LINE ( 'NONE', #568, #539 ) ;
#530 = AXIS2_PLACEMENT_3D ( 'NONE', #340, #296, #563 ) ;
#531 = ORIENTED_EDGE ( 'NONE', *, *, #391, .F. ) ;
#532 = LINE ( 'NONE', #399, #301 ) ;
#533 = DIRECTION ( 'NONE',  ( -1.000000000000000000, 0.000000000000000000, 0.000000000000000000 ) ) ;
#534 = EDGE_CURVE ( 'NONE', #454, #280, #380, .T. ) ;
#535 = CARTESIAN_POINT ( 'NONE',  ( 0.000000000000000000, 0.000000000000000000, 3.049999999999999822 ) ) ;
#536 = CYLINDRICAL_SURFACE ( 'NONE', #25, 2.100000000000000089 ) ;
#537 = AXIS2_PLACEMENT_3D ( 'NONE', #253, #249, #40 ) ;
#538 = EDGE_CURVE ( 'NONE', #517, #29, #310, .T. ) ;
#539 = VECTOR ( 'NONE', #1, 1000.000000000000000 ) ;
#540 = CYLINDRICAL_SURFACE ( 'NONE', #463, 3.174999999999999822 ) ;
#541 = CIRCLE ( 'NONE', #58, 2.100000000000000089 ) ;
#542 = ORGANIZATION ( 'UNSPECIFIED', 'UNSPECIFIED', '' ) ;
#543 = ORIENTED_EDGE ( 'NONE', *, *, #440, .T. ) ;
#544 = DIRECTION ( 'NONE',  ( 0.000000000000000000, 0.000000000000000000, 1.000000000000000000 ) ) ;
#545 = ORIENTED_EDGE ( 'NONE', *, *, #323, .T. ) ;
#546 = EDGE_CURVE ( 'NONE', #109, #171, #426, .T. ) ;
#547 = PERSON_AND_ORGANIZATION_ROLE ( 'creator' ) ;
#548 = DIRECTION ( 'NONE',  ( 0.000000000000000000, 0.000000000000000000, 1.000000000000000000 ) ) ;
#549 = PERSON_AND_ORGANIZATION_ROLE ( 'creator' ) ;
#550 = DIRECTION ( 'NONE',  ( -0.000000000000000000, -0.000000000000000000, -1.000000000000000000 ) ) ;
#551 = ORIENTED_EDGE ( 'NONE', *, *, #167, .T. ) ;
#552 = DIRECTION ( 'NONE',  ( 1.000000000000000000, 0.000000000000000000, -0.000000000000000000 ) ) ;
#553 = EDGE_LOOP ( 'NONE', ( #397, #124 ) ) ;
#554 = FACE_OUTER_BOUND ( 'NONE', #143, .T. ) ;
#555 = PRODUCT_DEFINITION ( 'UNKNOWN', '', #302, #353 ) ;
#556 = EDGE_LOOP ( 'NONE', ( #169, #564 ) ) ;
#557 = CIRCLE ( 'NONE', #71, 6.200000000000000178 ) ;
#558 = AXIS2_PLACEMENT_3D ( 'NONE', #257, #437, #83 ) ;
#559 = LOCAL_TIME ( 14, 17, 31.00000000000000000, #20 ) ;
#560 = DIRECTION ( 'NONE',  ( 1.000000000000000000, 0.000000000000000000, 0.000000000000000000 ) ) ;
#561 = CARTESIAN_POINT ( 'NONE',  ( 0.000000000000000000, 0.000000000000000000, -2.286000000000000032 ) ) ;
#562 = ORIENTED_EDGE ( 'NONE', *, *, #279, .T. ) ;
#563 = DIRECTION ( 'NONE',  ( 1.000000000000000000, 0.000000000000000000, 0.000000000000000000 ) ) ;
#564 = ORIENTED_EDGE ( 'NONE', *, *, #538, .T. ) ;
#565 = DIRECTION ( 'NONE',  ( 1.000000000000000000, 0.000000000000000000, 0.000000000000000000 ) ) ;
#566 = ORIENTED_EDGE ( 'NONE', *, *, #373, .F. ) ;
#567 = LOCAL_TIME ( 14, 17, 31.00000000000000000, #275 ) ;
#568 = CARTESIAN_POINT ( 'NONE',  ( -3.174999999999999822, 0.000000000000000000, 2.286000000000000032 ) ) ;
#569 = ORIENTED_EDGE ( 'NONE', *, *, #492, .T. ) ;
ENDSEC;
END-ISO-10303-21;
