ISO-10303-21;
HEADER;
FILE_DESCRIPTION (( 'STEP AP203' ),
    '1' );
FILE_NAME ('228-2500-2220.step',
    '2022-06-06T19:55:08',
    ( '' ),
    ( '' ),
    'SwSTEP 2.0',
    'SolidWorks 2021',
    '' );
FILE_SCHEMA (( 'CONFIG_CONTROL_DESIGN' ));
ENDSEC;

DATA;
#1 = DIRECTION ( 'NONE',  ( 1.000000000000000000, 0.000000000000000000, 0.000000000000000000 ) ) ;
#2 = DIRECTION ( 'NONE',  ( -0.000000000000000000, -0.000000000000000000, -1.000000000000000000 ) ) ;
#3 = PERSON_AND_ORGANIZATION ( #485, #513 ) ;
#4 = ADVANCED_FACE ( 'NONE', ( #384 ), #202, .T. ) ;
#5 = CARTESIAN_POINT ( 'NONE',  ( -1.587500000000000355, -1.268411506570324088, -29.82091914209798489 ) ) ;
#6 = ORIENTED_EDGE ( 'NONE', *, *, #143, .F. ) ;
#7 = APPROVAL_STATUS ( 'not_yet_approved' ) ;
#8 = CARTESIAN_POINT ( 'NONE',  ( 1.245064030267288402, 0.000000000000000000, -29.97200000000000131 ) ) ;
#9 = CLOSED_SHELL ( 'NONE', ( #190, #184, #552, #533 ) ) ;
#10 = LOCAL_TIME ( 14, 55, 8.000000000000000000, #268 ) ;
#11 = VERTEX_POINT ( 'NONE', #294 ) ;
#12 = PERSON_AND_ORGANIZATION ( #485, #513 ) ;
#13 = CARTESIAN_POINT ( 'NONE',  ( 0.000000000000000000, 0.000000000000000000, 0.8000000000000000444 ) ) ;
#14 = MANIFOLD_SOLID_BREP ( '<228-2500-2218-02 Rev2>-<Boss-Extrude1>', #9 ) ;
#15 = ADVANCED_FACE ( 'NONE', ( #336 ), #341, .T. ) ;
#16 = ORIENTED_EDGE ( 'NONE', *, *, #367, .F. ) ;
#17 = ORIENTED_EDGE ( 'NONE', *, *, #472, .T. ) ;
#18 = ORIENTED_EDGE ( 'NONE', *, *, #125, .T. ) ;
#19 = DIRECTION ( 'NONE',  ( -0.000000000000000000, -0.000000000000000000, 1.000000000000000000 ) ) ;
#20 = ADVANCED_FACE ( 'NONE', ( #549 ), #389, .T. ) ;
#21 = EDGE_LOOP ( 'NONE', ( #415, #517, #39, #403 ) ) ;
#22 = DIRECTION ( 'NONE',  ( -1.000000000000000000, 0.000000000000000000, 0.000000000000000000 ) ) ;
#23 = ORIENTED_EDGE ( 'NONE', *, *, #541, .F. ) ;
#24 = VECTOR ( 'NONE', #441, 1000.000000000000000 ) ;
#25 = CIRCLE ( 'NONE', #489, 2.032000000000000028 ) ;
#26 = DIRECTION ( 'NONE',  ( 1.000000000000000000, 0.000000000000000000, 0.000000000000000000 ) ) ;
#27 = ORIENTED_EDGE ( 'NONE', *, *, #322, .F. ) ;
#28 = EDGE_CURVE ( 'NONE', #424, #11, #162, .T. ) ;
#29 = CARTESIAN_POINT ( 'NONE',  ( -1.587500000000000355, 1.587500000000000355, 0.000000000000000000 ) ) ;
#30 = CARTESIAN_POINT ( 'NONE',  ( -1.587500000000000577, 0.8514389605504941727, -29.90236751577920415 ) ) ;
#31 = DIRECTION ( 'NONE',  ( 1.000000000000000000, 0.000000000000000000, 0.000000000000000000 ) ) ;
#32 = CARTESIAN_POINT ( 'NONE',  ( 0.000000000000000000, 0.000000000000000000, -27.84700000000000486 ) ) ;
#33 = FACE_OUTER_BOUND ( 'NONE', #191, .T. ) ;
#34 = AXIS2_PLACEMENT_3D ( 'NONE', #115, #401, #119 ) ;
#35 = LOCAL_TIME ( 14, 55, 8.000000000000000000, #96 ) ;
#36 = DIRECTION ( 'NONE',  ( 0.000000000000000000, 1.000000000000000000, 0.000000000000000000 ) ) ;
#37 = CARTESIAN_POINT ( 'NONE',  ( 0.000000000000000000, 0.000000000000000000, 0.8000000000000000444 ) ) ;
#38 = EDGE_CURVE ( 'NONE', #396, #529, #207, .T. ) ;
#39 = ORIENTED_EDGE ( 'NONE', *, *, #104, .T. ) ;
#40 = PLANE ( 'NONE',  #247 ) ;
#41 = CARTESIAN_POINT ( 'NONE',  ( -1.268411506570323644, 1.587500000000000355, -29.97200000000000131 ) ) ;
#42 = APPROVAL_DATE_TIME ( #420, #260 ) ;
#43 = EDGE_LOOP ( 'NONE', ( #238, #78, #454, #100, #52, #313, #498, #168 ) ) ;
#44 = CARTESIAN_POINT ( 'NONE',  ( -2.375000000000000000, 0.000000000000000000, 0.8000000000000000444 ) ) ;
#45 = AXIS2_PLACEMENT_3D ( 'NONE', #458, #292, #153 ) ;
#46 = LINE ( 'NONE', #92, #24 ) ;
#47 = EDGE_CURVE ( 'NONE', #394, #431, #378, .T. ) ;
#48 = ORIENTED_EDGE ( 'NONE', *, *, #234, .F. ) ;
#49 = PRODUCT ( '228-2500-2220', '228-2500-2220', '', ( #229 ) ) ;
#50 = COORDINATED_UNIVERSAL_TIME_OFFSET ( 6, 0, .BEHIND. ) ;
#51 = CARTESIAN_POINT ( 'NONE',  ( -1.587500000000000355, -1.587500000000000355, 0.000000000000000000 ) ) ;
#52 = ORIENTED_EDGE ( 'NONE', *, *, #125, .F. ) ;
#53 = CALENDAR_DATE ( 2022, 6, 6 ) ;
#54 = CARTESIAN_POINT ( 'NONE',  ( -1.587500000000000355, -1.061392899157111769, -29.87243677385166762 ) ) ;
#55 = VERTEX_POINT ( 'NONE', #161 ) ;
#56 = PERSON_AND_ORGANIZATION_ROLE ( 'creator' ) ;
#57 = CARTESIAN_POINT ( 'NONE',  ( -1.587500000000000355, -0.8513200635100127700, -29.90237755531811459 ) ) ;
#58 = CIRCLE ( 'NONE', #182, 2.124999999999998224 ) ;
#59 = VECTOR ( 'NONE', #471, 1000.000000000000000 ) ;
#60 = DATE_TIME_ROLE ( 'creation_date' ) ;
#61 = CC_DESIGN_DATE_AND_TIME_ASSIGNMENT ( #488, #60, ( #521 ) ) ;
#62 = VERTEX_POINT ( 'NONE', #156 ) ;
#63 = ORIENTED_EDGE ( 'NONE', *, *, #279, .F. ) ;
#64 = EDGE_LOOP ( 'NONE', ( #217, #245, #486, #16 ) ) ;
#65 = CLOSED_SHELL ( 'NONE', ( #293, #216, #91, #376, #266, #400, #20, #81, #4, #15, #404, #383 ) ) ;
#66 = EDGE_CURVE ( 'NONE', #224, #110, #466, .T. ) ;
#67 = CARTESIAN_POINT ( 'NONE',  ( 1.587500000000000355, 0.2143109880596213435, -29.94422736169287091 ) ) ;
#68 = ORIENTED_EDGE ( 'NONE', *, *, #490, .T. ) ;
#69 = CARTESIAN_POINT ( 'NONE',  ( -1.268411506570324088, 1.587500000000000355, -29.82091914209798489 ) ) ;
#70 = CC_DESIGN_APPROVAL ( #260, ( #450 ) ) ;
#71 = EDGE_LOOP ( 'NONE', ( #233, #540, #149, #197 ) ) ;
#72 = CARTESIAN_POINT ( 'NONE',  ( 1.268411506570323644, 1.587500000000000355, -29.97200000000000131 ) ) ;
#73 = ORIENTED_EDGE ( 'NONE', *, *, #109, .T. ) ;
#74 = AXIS2_PLACEMENT_3D ( 'NONE', #409, #22, #539 ) ;
#75 = CARTESIAN_POINT ( 'NONE',  ( 1.268411506570323866, -1.587500000000000355, 0.000000000000000000 ) ) ;
#76 = CARTESIAN_POINT ( 'NONE',  ( 0.000000000000000000, 0.000000000000000000, -29.97200000000000131 ) ) ;
#77 = CARTESIAN_POINT ( 'NONE',  ( -1.060147506033617404, -1.587500000000000133, -29.87274669625518086 ) ) ;
#78 = ORIENTED_EDGE ( 'NONE', *, *, #205, .T. ) ;
#79 = CARTESIAN_POINT ( 'NONE',  ( 0.000000000000000000, 0.000000000000000000, 0.000000000000000000 ) ) ;
#80 = DIRECTION ( 'NONE',  ( 0.000000000000000000, -0.000000000000000000, 1.000000000000000000 ) ) ;
#81 = ADVANCED_FACE ( 'NONE', ( #538 ), #254, .T. ) ;
#82 = B_SPLINE_CURVE_WITH_KNOTS ( 'NONE', 3,
 ( #432, #77, #214, #253, #169, #211, #126, #385 ),
 .UNSPECIFIED., .F., .F.,
 ( 4, 2, 2, 4 ),
 ( 0.01485345774306977458, 0.01548583974386943084, 0.01611822174466908883, 0.01738298574626840134 ),
 .UNSPECIFIED. ) ;
#83 = DIRECTION ( 'NONE',  ( 0.000000000000000000, 0.000000000000000000, 1.000000000000000000 ) ) ;
#84 = AXIS2_PLACEMENT_3D ( 'NONE', #13, #366, #500 ) ;
#85 = CIRCLE ( 'NONE', #536, 2.375000000000000000 ) ;
#86 = ORIENTED_EDGE ( 'NONE', *, *, #132, .F. ) ;
#87 = CARTESIAN_POINT ( 'NONE',  ( 1.587500000000000355, -0.4276219574846464311, -29.93799639200009466 ) ) ;
#88 = DIRECTION ( 'NONE',  ( 0.000000000000000000, 0.000000000000000000, -1.000000000000000000 ) ) ;
#89 = ORIENTED_EDGE ( 'NONE', *, *, #440, .F. ) ;
#90 = CARTESIAN_POINT ( 'NONE',  ( 0.000000000000000000, 0.000000000000000000, 0.8000000000000000444 ) ) ;
#91 = ADVANCED_FACE ( 'NONE', ( #464 ), #122, .F. ) ;
#92 = CARTESIAN_POINT ( 'NONE',  ( -1.587500000000000355, -1.587500000000000355, 0.000000000000000000 ) ) ;
#93 = CALENDAR_DATE ( 2022, 6, 6 ) ;
#94 = AXIS2_PLACEMENT_3D ( 'NONE', #269, #220, #436 ) ;
#95 = CARTESIAN_POINT ( 'NONE',  ( -1.245064030267288402, 1.524763679400337895E-16, -27.84700000000000486 ) ) ;
#96 = COORDINATED_UNIVERSAL_TIME_OFFSET ( 6, 0, .BEHIND. ) ;
#97 = ORIENTED_EDGE ( 'NONE', *, *, #429, .T. ) ;
#98 = PERSON_AND_ORGANIZATION_ROLE ( 'creator' ) ;
#99 = CARTESIAN_POINT ( 'NONE',  ( 0.000000000000000000, 0.000000000000000000, 0.8000000000000000444 ) ) ;
#100 = ORIENTED_EDGE ( 'NONE', *, *, #490, .F. ) ;
#101 = PERSON_AND_ORGANIZATION_ROLE ( 'design_supplier' ) ;
#102 = CARTESIAN_POINT ( 'NONE',  ( 1.587500000000000355, -1.587500000000000355, 0.000000000000000000 ) ) ;
#103 = APPROVAL_ROLE ( '' ) ;
#104 = EDGE_CURVE ( 'NONE', #445, #110, #427, .T. ) ;
#105 = CC_DESIGN_APPROVAL ( #421, ( #521 ) ) ;
#106 = ORIENTED_EDGE ( 'NONE', *, *, #390, .F. ) ;
#107 = COORDINATED_UNIVERSAL_TIME_OFFSET ( 6, 0, .BEHIND. ) ;
#108 = ORIENTED_EDGE ( 'NONE', *, *, #47, .T. ) ;
#109 = EDGE_CURVE ( 'NONE', #325, #396, #46, .T. ) ;
#110 = VERTEX_POINT ( 'NONE', #355 ) ;
#111 = LINE ( 'NONE', #72, #246 ) ;
#112 = ORIENTED_EDGE ( 'NONE', *, *, #446, .T. ) ;
#113 = AXIS2_PLACEMENT_3D ( 'NONE', #252, #375, #467 ) ;
#114 = LOCAL_TIME ( 14, 55, 8.000000000000000000, #186 ) ;
#115 = CARTESIAN_POINT ( 'NONE',  ( -1.587500000000000355, 1.587500000000000355, 0.000000000000000000 ) ) ;
#116 = ORIENTED_EDGE ( 'NONE', *, *, #143, .T. ) ;
#117 = DIRECTION ( 'NONE',  ( 1.000000000000000000, 0.000000000000000000, 0.000000000000000000 ) ) ;
#118 = CARTESIAN_POINT ( 'NONE',  ( -1.587500000000000355, 1.944126793646423534E-16, -29.94422736169286736 ) ) ;
#119 = DIRECTION ( 'NONE',  ( 0.000000000000000000, -0.000000000000000000, -1.000000000000000000 ) ) ;
#120 = EDGE_CURVE ( 'NONE', #159, #343, #434, .T. ) ;
#121 = FACE_OUTER_BOUND ( 'NONE', #363, .T. ) ;
#122 = PLANE ( 'NONE',  #405 ) ;
#123 = CARTESIAN_POINT ( 'NONE',  ( 1.587500000000000133, -1.061532360077856119, -29.87240206829359579 ) ) ;
#124 = VERTEX_POINT ( 'NONE', #388 ) ;
#125 = EDGE_CURVE ( 'NONE', #402, #281, #478, .T. ) ;
#126 = CARTESIAN_POINT ( 'NONE',  ( 0.8571092511719565765, -1.587500000000000355, -29.92327379706277313 ) ) ;
#127 = CARTESIAN_POINT ( 'NONE',  ( -1.587500000000000355, 0.2114796877013867260, -29.94422736169286736 ) ) ;
#128 = APPROVAL_ROLE ( '' ) ;
#129 = CARTESIAN_POINT ( 'NONE',  ( -1.587500000000000355, 1.587500000000000355, 0.000000000000000000 ) ) ;
#130 = CIRCLE ( 'NONE', #442, 2.032000000000000028 ) ;
#131 = DIRECTION ( 'NONE',  ( 0.000000000000000000, 0.000000000000000000, -1.000000000000000000 ) ) ;
#132 = EDGE_CURVE ( 'NONE', #62, #394, #438, .T. ) ;
#133 = FACE_OUTER_BOUND ( 'NONE', #406, .T. ) ;
#134 = ORIENTED_EDGE ( 'NONE', *, *, #351, .T. ) ;
#135 = CARTESIAN_POINT ( 'NONE',  ( 0.000000000000000000, 0.000000000000000000, -29.82091914209798489 ) ) ;
#136 = CARTESIAN_POINT ( 'NONE',  ( 0.2043756380772877856, 1.587500000000000133, -29.94440961896379605 ) ) ;
#137 = EDGE_LOOP ( 'NONE', ( #494, #320 ) ) ;
#138 = APPLICATION_PROTOCOL_DEFINITION ( 'international standard', 'config_control_design', 1994, #548 ) ;
#139 = CC_DESIGN_APPROVAL ( #362, ( #399 ) ) ;
#140 = CARTESIAN_POINT ( 'NONE',  ( -1.587500000000000133, -0.2143109880596212047, -29.94422736169286736 ) ) ;
#141 = ORIENTED_EDGE ( 'NONE', *, *, #165, .F. ) ;
#142 = PLANE ( 'NONE',  #372 ) ;
#143 = EDGE_CURVE ( 'NONE', #11, #431, #155, .T. ) ;
#144 = ORIENTED_EDGE ( 'NONE', *, *, #505, .F. ) ;
#145 = EDGE_LOOP ( 'NONE', ( #525, #534, #527, #144, #106, #459, #27, #6 ) ) ;
#146 = EDGE_CURVE ( 'NONE', #360, #448, #228, .T. ) ;
#147 = ORIENTED_EDGE ( 'NONE', *, *, #481, .F. ) ;
#148 = CARTESIAN_POINT ( 'NONE',  ( 1.587500000000000355, 1.268411506570324088, -29.82091914209798489 ) ) ;
#149 = ORIENTED_EDGE ( 'NONE', *, *, #165, .T. ) ;
#150 = DIRECTION ( 'NONE',  ( -0.000000000000000000, -0.000000000000000000, 1.000000000000000000 ) ) ;
#151 = ORIENTED_EDGE ( 'NONE', *, *, #146, .T. ) ;
#152 = LOCAL_TIME ( 14, 55, 8.000000000000000000, #107 ) ;
#153 = DIRECTION ( 'NONE',  ( 1.000000000000000000, 0.000000000000000000, 0.000000000000000000 ) ) ;
#154 = B_SPLINE_CURVE_WITH_KNOTS ( 'NONE', 3,
 ( #463, #123, #171, #87, #259, #428 ),
 .UNSPECIFIED., .F., .F.,
 ( 4, 2, 4 ),
 ( 0.01485345774306977458, 0.01548163471194334562, 0.01610981168081691492 ),
 .UNSPECIFIED. ) ;
#155 = B_SPLINE_CURVE_WITH_KNOTS ( 'NONE', 3,
 ( #261, #140, #263, #57, #54, #5 ),
 .UNSPECIFIED., .F., .F.,
 ( 4, 2, 4 ),
 ( 1.905938025164285192E-19, 0.0006365870327257439716, 0.001273174065451487726 ),
 .UNSPECIFIED. ) ;
#156 = CARTESIAN_POINT ( 'NONE',  ( -1.587500000000000355, 1.268411506570323866, 0.000000000000000000 ) ) ;
#157 = PRODUCT_RELATED_PRODUCT_CATEGORY ( 'detail', '', ( #49 ) ) ;
#158 = LINE ( 'NONE', #296, #219 ) ;
#159 = VERTEX_POINT ( 'NONE', #8 ) ;
#160 = CARTESIAN_POINT ( 'NONE',  ( 0.000000000000000000, 0.000000000000000000, -27.84700000000000486 ) ) ;
#161 = CARTESIAN_POINT ( 'NONE',  ( -1.245064030267288402, 2.006622987633880502E-16, -29.97200000000000131 ) ) ;
#162 = B_SPLINE_CURVE_WITH_KNOTS ( 'NONE', 3,
 ( #417, #546, #30, #204, #127, #118 ),
 .UNSPECIFIED., .F., .F.,
 ( 4, 2, 4 ),
 ( 0.01485345774306977458, 0.01548163471194334562, 0.01610981168081691492 ),
 .UNSPECIFIED. ) ;
#163 = VECTOR ( 'NONE', #88, 1000.000000000000000 ) ;
#164 = CARTESIAN_POINT ( 'NONE',  ( 0.000000000000000000, 0.000000000000000000, -29.97200000000000131 ) ) ;
#165 = EDGE_CURVE ( 'NONE', #491, #360, #346, .T. ) ;
#166 = VERTEX_POINT ( 'NONE', #480 ) ;
#167 = CARTESIAN_POINT ( 'NONE',  ( 1.587500000000000355, 1.268411506570323866, 0.000000000000000000 ) ) ;
#168 = ORIENTED_EDGE ( 'NONE', *, *, #120, .F. ) ;
#169 = CARTESIAN_POINT ( 'NONE',  ( -0.2043756380772877856, -1.587500000000000133, -29.94440961896379605 ) ) ;
#170 = CARTESIAN_POINT ( 'NONE',  ( 1.587500000000000355, 1.268411506570323644, -29.97200000000000131 ) ) ;
#171 = CARTESIAN_POINT ( 'NONE',  ( 1.587500000000000577, -0.8514389605504941727, -29.90236751577920415 ) ) ;
#172 = AXIS2_PLACEMENT_3D ( 'NONE', #307, #2, #174 ) ;
#173 = CIRCLE ( 'NONE', #381, 2.375000000000000000 ) ;
#174 = DIRECTION ( 'NONE',  ( -1.000000000000000000, 0.000000000000000000, 0.000000000000000000 ) ) ;
#175 = APPROVAL_STATUS ( 'not_yet_approved' ) ;
#176 = EDGE_LOOP ( 'NONE', ( #192, #373, #116, #243, #86 ) ) ;
#177 = CARTESIAN_POINT ( 'NONE',  ( -1.587500000000000355, -1.268411506570324088, -29.82091914209798489 ) ) ;
#178 = CARTESIAN_POINT ( 'NONE',  ( -0.8571092511719565765, 1.587500000000000355, -29.92327379706277313 ) ) ;
#179 =( NAMED_UNIT ( * ) PLANE_ANGLE_UNIT ( ) SI_UNIT ( $, .RADIAN. ) );
#180 = DIRECTION ( 'NONE',  ( -0.000000000000000000, -0.000000000000000000, 1.000000000000000000 ) ) ;
#181 = DATE_AND_TIME ( #53, #152 ) ;
#182 = AXIS2_PLACEMENT_3D ( 'NONE', #95, #352, #265 ) ;
#183 = VECTOR ( 'NONE', #550, 1000.000000000000000 ) ;
#184 = ADVANCED_FACE ( 'NONE', ( #524 ), #393, .T. ) ;
#185 = DIRECTION ( 'NONE',  ( 0.000000000000000000, 0.000000000000000000, -1.000000000000000000 ) ) ;
#186 = COORDINATED_UNIVERSAL_TIME_OFFSET ( 6, 0, .BEHIND. ) ;
#187 = CARTESIAN_POINT ( 'NONE',  ( 1.587500000000000355, 1.061392899157111325, -29.87243677385166407 ) ) ;
#188 = APPROVAL_DATE_TIME ( #181, #362 ) ;
#189 = VERTEX_POINT ( 'NONE', #470 ) ;
#190 = ADVANCED_FACE ( 'NONE', ( #395 ), #430, .T. ) ;
#191 = EDGE_LOOP ( 'NONE', ( #147, #368 ) ) ;
#192 = ORIENTED_EDGE ( 'NONE', *, *, #286, .F. ) ;
#193 = DIRECTION ( 'NONE',  ( -0.000000000000000000, -0.000000000000000000, 1.000000000000000000 ) ) ;
#194 = ORIENTED_EDGE ( 'NONE', *, *, #104, .F. ) ;
#195 = CYLINDRICAL_SURFACE ( 'NONE', #295, 2.032000000000000028 ) ;
#196 = CC_DESIGN_PERSON_AND_ORGANIZATION_ASSIGNMENT ( #12, #439, ( #450 ) ) ;
#197 = ORIENTED_EDGE ( 'NONE', *, *, #514, .F. ) ;
#198 = AXIS2_PLACEMENT_3D ( 'NONE', #290, #19, #326 ) ;
#199 = AXIS2_PLACEMENT_3D ( 'NONE', #79, #387, #547 ) ;
#200 = MANIFOLD_SOLID_BREP ( '<228-2500-2220-01 Rev1>-<Cut-Extrude1>', #65 ) ;
#201 = FACE_OUTER_BOUND ( 'NONE', #557, .T. ) ;
#202 = CYLINDRICAL_SURFACE ( 'NONE', #303, 2.032000000000000028 ) ;
#203 = CARTESIAN_POINT ( 'NONE',  ( 1.587500000000000355, 1.268411506570324088, -29.82091914209798489 ) ) ;
#204 = CARTESIAN_POINT ( 'NONE',  ( -1.587500000000000355, 0.4276219574846464311, -29.93799639200009466 ) ) ;
#205 = EDGE_CURVE ( 'NONE', #55, #11, #58, .T. ) ;
#206 = CARTESIAN_POINT ( 'NONE',  ( 1.268411506570324088, -1.587500000000000355, -29.82091914209798489 ) ) ;
#207 = LINE ( 'NONE', #300, #477 ) ;
#208 = APPROVAL_PERSON_ORGANIZATION ( #309, #260, #128 ) ;
#209 = CARTESIAN_POINT ( 'NONE',  ( 0.000000000000000000, 0.000000000000000000, 0.000000000000000000 ) ) ;
#210 = DIRECTION ( 'NONE',  ( -0.000000000000000000, -0.000000000000000000, -1.000000000000000000 ) ) ;
#211 = CARTESIAN_POINT ( 'NONE',  ( 0.4342314039556041672, -1.587500000000000355, -29.94385171744314178 ) ) ;
#212 = CARTESIAN_POINT ( 'NONE',  ( -2.375000000000000000, 0.000000000000000000, 0.8000000000000000444 ) ) ;
#213 = SHAPE_DEFINITION_REPRESENTATION ( #227, #239 ) ;
#214 = CARTESIAN_POINT ( 'NONE',  ( -0.8486262390323829896, -1.587500000000000577, -29.90276882282395121 ) ) ;
#215 = LINE ( 'NONE', #41, #163 ) ;
#216 = ADVANCED_FACE ( 'NONE', ( #516 ), #142, .F. ) ;
#217 = ORIENTED_EDGE ( 'NONE', *, *, #242, .T. ) ;
#218 = DIRECTION ( 'NONE',  ( -0.000000000000000000, -0.000000000000000000, 1.000000000000000000 ) ) ;
#219 = VECTOR ( 'NONE', #407, 1000.000000000000000 ) ;
#220 = DIRECTION ( 'NONE',  ( 0.000000000000000000, -1.000000000000000000, 0.000000000000000000 ) ) ;
#221 = ORIENTED_EDGE ( 'NONE', *, *, #462, .F. ) ;
#222 = PERSON_AND_ORGANIZATION_ROLE ( 'design_owner' ) ;
#223 = DIRECTION ( 'NONE',  ( 1.000000000000000000, 0.000000000000000000, 0.000000000000000000 ) ) ;
#224 = VERTEX_POINT ( 'NONE', #359 ) ;
#225 = APPROVAL_DATE_TIME ( #475, #421 ) ;
#226 = CC_DESIGN_PERSON_AND_ORGANIZATION_ASSIGNMENT ( #319, #222, ( #49 ) ) ;
#227 = PRODUCT_DEFINITION_SHAPE ( 'NONE', 'NONE',  #521 ) ;
#228 = LINE ( 'NONE', #102, #379 ) ;
#229 = MECHANICAL_CONTEXT ( 'NONE', #548, 'mechanical' ) ;
#230 = VECTOR ( 'NONE', #131, 1000.000000000000000 ) ;
#231 = AXIS2_PLACEMENT_3D ( 'NONE', #164, #218, #31 ) ;
#232 = DIRECTION ( 'NONE',  ( 0.000000000000000000, 0.000000000000000000, -1.000000000000000000 ) ) ;
#233 = ORIENTED_EDGE ( 'NONE', *, *, #38, .T. ) ;
#234 = EDGE_CURVE ( 'NONE', #159, #55, #255, .T. ) ;
#235 = ORIENTED_EDGE ( 'NONE', *, *, #505, .T. ) ;
#236 = EDGE_LOOP ( 'NONE', ( #48, #370 ) ) ;
#237 = VECTOR ( 'NONE', #291, 1000.000000000000000 ) ;
#238 = ORIENTED_EDGE ( 'NONE', *, *, #234, .T. ) ;
#239 = ADVANCED_BREP_SHAPE_REPRESENTATION ( '228-2500-2220', ( #14, #200, #330 ), #256 ) ;
#240 = DIRECTION ( 'NONE',  ( -0.000000000000000000, -0.000000000000000000, 1.000000000000000000 ) ) ;
#241 = ORIENTED_EDGE ( 'NONE', *, *, #446, .F. ) ;
#242 = EDGE_CURVE ( 'NONE', #448, #289, #386, .T. ) ;
#243 = ORIENTED_EDGE ( 'NONE', *, *, #47, .F. ) ;
#244 = CARTESIAN_POINT ( 'NONE',  ( 1.587500000000000577, 0.4277385810629849017, -29.93798654358311495 ) ) ;
#245 = ORIENTED_EDGE ( 'NONE', *, *, #311, .T. ) ;
#246 = VECTOR ( 'NONE', #150, 1000.000000000000000 ) ;
#247 = AXIS2_PLACEMENT_3D ( 'NONE', #37, #348, #515 ) ;
#248 = FACE_OUTER_BOUND ( 'NONE', #317, .T. ) ;
#249 = DIRECTION ( 'NONE',  ( -0.000000000000000000, -0.000000000000000000, 1.000000000000000000 ) ) ;
#250 = EDGE_CURVE ( 'NONE', #166, #281, #215, .T. ) ;
#251 = DIRECTION ( 'NONE',  ( 1.000000000000000000, 0.000000000000000000, 0.000000000000000000 ) ) ;
#252 = CARTESIAN_POINT ( 'NONE',  ( 0.000000000000000000, 0.000000000000000000, -29.97200000000000131 ) ) ;
#253 = CARTESIAN_POINT ( 'NONE',  ( -0.4219230645619491682, -1.587500000000000577, -29.93830730355363556 ) ) ;
#254 = PLANE ( 'NONE',  #545 ) ;
#255 = CIRCLE ( 'NONE', #339, 1.245064030267288402 ) ;
#256 =( GEOMETRIC_REPRESENTATION_CONTEXT ( 3 ) GLOBAL_UNCERTAINTY_ASSIGNED_CONTEXT ( ( #299 ) ) GLOBAL_UNIT_ASSIGNED_CONTEXT ( ( #418, #179, #482 ) ) REPRESENTATION_CONTEXT ( 'NONE', 'WORKASPACE' ) );
#257 = CARTESIAN_POINT ( 'NONE',  ( 0.000000000000000000, 0.000000000000000000, 0.000000000000000000 ) ) ;
#258 = DIRECTION ( 'NONE',  ( 1.000000000000000000, 0.000000000000000000, 0.000000000000000000 ) ) ;
#259 = CARTESIAN_POINT ( 'NONE',  ( 1.587500000000000355, -0.2114796877013867260, -29.94422736169286736 ) ) ;
#260 = APPROVAL ( #175, 'UNSPECIFIED' ) ;
#261 = CARTESIAN_POINT ( 'NONE',  ( -1.587500000000000355, 1.944126793646423534E-16, -29.94422736169286736 ) ) ;
#262 = DIRECTION ( 'NONE',  ( -0.000000000000000000, -0.000000000000000000, 1.000000000000000000 ) ) ;
#263 = CARTESIAN_POINT ( 'NONE',  ( -1.587500000000000577, -0.4277385810629848462, -29.93798654358311495 ) ) ;
#264 = DATE_AND_TIME ( #93, #284 ) ;
#265 = DIRECTION ( 'NONE',  ( -1.000000000000000000, 1.224646799147353454E-16, 0.000000000000000000 ) ) ;
#266 = ADVANCED_FACE ( 'NONE', ( #133 ), #308, .F. ) ;
#267 = ORIENTED_EDGE ( 'NONE', *, *, #38, .F. ) ;
#268 = COORDINATED_UNIVERSAL_TIME_OFFSET ( 6, 0, .BEHIND. ) ;
#269 = CARTESIAN_POINT ( 'NONE',  ( 1.245064030267288402, 0.000000000000000000, -27.84700000000000486 ) ) ;
#270 = CC_DESIGN_SECURITY_CLASSIFICATION ( #450, ( #399 ) ) ;
#271 = ORIENTED_EDGE ( 'NONE', *, *, #440, .T. ) ;
#272 = SECURITY_CLASSIFICATION_LEVEL ( 'unclassified' ) ;
#273 = DIRECTION ( 'NONE',  ( 1.000000000000000000, 0.000000000000000000, 0.000000000000000000 ) ) ;
#274 = CALENDAR_DATE ( 2022, 6, 6 ) ;
#275 = CIRCLE ( 'NONE', #198, 2.032000000000000028 ) ;
#276 = CIRCLE ( 'NONE', #199, 2.032000000000000028 ) ;
#277 = APPLICATION_CONTEXT ( 'configuration controlled 3d designs of mechanical parts and assemblies' ) ;
#278 = ORIENTED_EDGE ( 'NONE', *, *, #109, .F. ) ;
#279 = EDGE_CURVE ( 'NONE', #189, #445, #356, .T. ) ;
#280 = ORIENTED_EDGE ( 'NONE', *, *, #344, .F. ) ;
#281 = VERTEX_POINT ( 'NONE', #69 ) ;
#282 = CARTESIAN_POINT ( 'NONE',  ( 1.587500000000000355, 0.000000000000000000, -29.94422736169286736 ) ) ;
#283 = VECTOR ( 'NONE', #522, 1000.000000000000000 ) ;
#284 = LOCAL_TIME ( 14, 55, 8.000000000000000000, #50 ) ;
#285 = ORIENTED_EDGE ( 'NONE', *, *, #367, .T. ) ;
#286 = EDGE_CURVE ( 'NONE', #424, #62, #158, .T. ) ;
#287 = DIRECTION ( 'NONE',  ( 0.000000000000000000, 0.000000000000000000, 1.000000000000000000 ) ) ;
#288 = B_SPLINE_CURVE_WITH_KNOTS ( 'NONE', 3,
 ( #282, #67, #244, #411, #187, #203 ),
 .UNSPECIFIED., .F., .F.,
 ( 4, 2, 4 ),
 ( 0.000000000000000000, 0.0006365870327257439716, 0.001273174065451487726 ),
 .UNSPECIFIED. ) ;
#289 = VERTEX_POINT ( 'NONE', #148 ) ;
#290 = CARTESIAN_POINT ( 'NONE',  ( 0.000000000000000000, 0.000000000000000000, -29.82091914209798489 ) ) ;
#291 = DIRECTION ( 'NONE',  ( 0.000000000000000000, 0.000000000000000000, -1.000000000000000000 ) ) ;
#292 = DIRECTION ( 'NONE',  ( -0.000000000000000000, -0.000000000000000000, 1.000000000000000000 ) ) ;
#293 = ADVANCED_FACE ( 'NONE', ( #532 ), #397, .T. ) ;
#294 = CARTESIAN_POINT ( 'NONE',  ( -1.587500000000000355, 1.944126793646423534E-16, -29.94422736169286736 ) ) ;
#295 = AXIS2_PLACEMENT_3D ( 'NONE', #371, #542, #537 ) ;
#296 = CARTESIAN_POINT ( 'NONE',  ( -1.587500000000000355, 1.268411506570323644, -29.97200000000000131 ) ) ;
#297 = DIRECTION ( 'NONE',  ( 0.000000000000000000, 0.000000000000000000, 1.000000000000000000 ) ) ;
#298 = DIRECTION ( 'NONE',  ( 1.000000000000000000, 0.000000000000000000, 0.000000000000000000 ) ) ;
#299 = UNCERTAINTY_MEASURE_WITH_UNIT (LENGTH_MEASURE( 1.000000000000000082E-05 ), #418, 'distance_accuracy_value', 'NONE');
#300 = CARTESIAN_POINT ( 'NONE',  ( 1.268411506570323644, -1.587500000000000355, -29.97200000000000131 ) ) ;
#301 = DIRECTION ( 'NONE',  ( 1.000000000000000000, 0.000000000000000000, 0.000000000000000000 ) ) ;
#302 = DIRECTION ( 'NONE',  ( -1.000000000000000000, 0.000000000000000000, -0.000000000000000000 ) ) ;
#303 = AXIS2_PLACEMENT_3D ( 'NONE', #76, #419, #457 ) ;
#304 = AXIS2_PLACEMENT_3D ( 'NONE', #209, #382, #310 ) ;
#305 = CC_DESIGN_PERSON_AND_ORGANIZATION_ASSIGNMENT ( #357, #101, ( #399 ) ) ;
#306 = DIRECTION ( 'NONE',  ( 1.000000000000000000, 0.000000000000000000, 0.000000000000000000 ) ) ;
#307 = CARTESIAN_POINT ( 'NONE',  ( 0.000000000000000000, 0.000000000000000000, 0.8000000000000000444 ) ) ;
#308 = PLANE ( 'NONE',  #34 ) ;
#309 = PERSON_AND_ORGANIZATION ( #485, #513 ) ;
#310 = DIRECTION ( 'NONE',  ( 1.000000000000000000, 0.000000000000000000, -0.000000000000000000 ) ) ;
#311 = EDGE_CURVE ( 'NONE', #289, #402, #130, .T. ) ;
#312 = CARTESIAN_POINT ( 'NONE',  ( -1.268411506570324088, 1.587500000000000355, -29.82091914209798489 ) ) ;
#313 = ORIENTED_EDGE ( 'NONE', *, *, #311, .F. ) ;
#314 = APPLICATION_PROTOCOL_DEFINITION ( 'international standard', 'config_control_design', 1994, #277 ) ;
#315 = VECTOR ( 'NONE', #210, 1000.000000000000000 ) ;
#316 = CARTESIAN_POINT ( 'NONE',  ( -1.587500000000000355, -1.587500000000000355, 0.000000000000000000 ) ) ;
#317 = EDGE_LOOP ( 'NONE', ( #271, #331, #501, #73, #492, #151, #285, #112 ) ) ;
#318 = CARTESIAN_POINT ( 'NONE',  ( 1.587500000000000355, -1.268411506570323644, -29.97200000000000131 ) ) ;
#319 = PERSON_AND_ORGANIZATION ( #485, #513 ) ;
#320 = ORIENTED_EDGE ( 'NONE', *, *, #279, .T. ) ;
#321 = APPROVAL_STATUS ( 'not_yet_approved' ) ;
#322 = EDGE_CURVE ( 'NONE', #431, #365, #275, .T. ) ;
#323 = CIRCLE ( 'NONE', #554, 2.032000000000000028 ) ;
#324 = ORIENTED_EDGE ( 'NONE', *, *, #322, .T. ) ;
#325 = VERTEX_POINT ( 'NONE', #493 ) ;
#326 = DIRECTION ( 'NONE',  ( 1.000000000000000000, 0.000000000000000000, 0.000000000000000000 ) ) ;
#327 = CC_DESIGN_PERSON_AND_ORGANIZATION_ASSIGNMENT ( #3, #98, ( #521 ) ) ;
#328 = ORIENTED_EDGE ( 'NONE', *, *, #286, .T. ) ;
#329 = DIRECTION ( 'NONE',  ( 1.000000000000000000, 0.000000000000000000, 0.000000000000000000 ) ) ;
#330 = AXIS2_PLACEMENT_3D ( 'NONE', #526, #354, #484 ) ;
#331 = ORIENTED_EDGE ( 'NONE', *, *, #132, .T. ) ;
#332 = CARTESIAN_POINT ( 'NONE',  ( 0.000000000000000000, 0.000000000000000000, -29.97200000000000131 ) ) ;
#333 = CARTESIAN_POINT ( 'NONE',  ( -1.587500000000000355, -1.587500000000000355, 0.000000000000000000 ) ) ;
#334 = EDGE_CURVE ( 'NONE', #55, #159, #347, .T. ) ;
#335 = CARTESIAN_POINT ( 'NONE',  ( -1.587500000000000355, -1.268411506570323866, 0.000000000000000000 ) ) ;
#336 = FACE_OUTER_BOUND ( 'NONE', #353, .T. ) ;
#337 = DIRECTION ( 'NONE',  ( -1.000000000000000000, 0.000000000000000000, -0.000000000000000000 ) ) ;
#338 = CARTESIAN_POINT ( 'NONE',  ( 0.000000000000000000, 0.000000000000000000, 0.000000000000000000 ) ) ;
#339 = AXIS2_PLACEMENT_3D ( 'NONE', #551, #483, #273 ) ;
#340 = DIRECTION ( 'NONE',  ( 0.000000000000000000, 0.000000000000000000, 1.000000000000000000 ) ) ;
#341 = CYLINDRICAL_SURFACE ( 'NONE', #113, 2.032000000000000028 ) ;
#342 = LINE ( 'NONE', #345, #183 ) ;
#343 = VERTEX_POINT ( 'NONE', #455 ) ;
#344 = EDGE_CURVE ( 'NONE', #402, #124, #111, .T. ) ;
#345 = CARTESIAN_POINT ( 'NONE',  ( -1.268411506570323644, -1.587500000000000355, -29.97200000000000131 ) ) ;
#346 = LINE ( 'NONE', #318, #495 ) ;
#347 = CIRCLE ( 'NONE', #487, 1.245064030267288402 ) ;
#348 = DIRECTION ( 'NONE',  ( 0.000000000000000000, 0.000000000000000000, 1.000000000000000000 ) ) ;
#349 = DIRECTION ( 'NONE',  ( 0.000000000000000000, 1.000000000000000000, 0.000000000000000000 ) ) ;
#350 = CARTESIAN_POINT ( 'NONE',  ( 2.375000000000000000, 2.908536147974963713E-16, 0.8000000000000000444 ) ) ;
#351 = EDGE_CURVE ( 'NONE', #343, #289, #288, .T. ) ;
#352 = DIRECTION ( 'NONE',  ( 1.224646799147353207E-16, 1.000000000000000000, 0.000000000000000000 ) ) ;
#353 = EDGE_LOOP ( 'NONE', ( #108, #324, #503, #23 ) ) ;
#354 = DIRECTION ( 'NONE',  ( 0.000000000000000000, 0.000000000000000000, 1.000000000000000000 ) ) ;
#355 = CARTESIAN_POINT ( 'NONE',  ( -2.375000000000000000, 0.000000000000000000, 0.000000000000000000 ) ) ;
#356 = CIRCLE ( 'NONE', #84, 2.375000000000000000 ) ;
#357 = PERSON_AND_ORGANIZATION ( #485, #513 ) ;
#358 = VECTOR ( 'NONE', #509, 1000.000000000000000 ) ;
#359 = CARTESIAN_POINT ( 'NONE',  ( 2.375000000000000000, 2.908536147974963713E-16, 0.000000000000000000 ) ) ;
#360 = VERTEX_POINT ( 'NONE', #530 ) ;
#361 = PERSON_AND_ORGANIZATION ( #485, #513 ) ;
#362 = APPROVAL ( #7, 'UNSPECIFIED' ) ;
#363 = EDGE_LOOP ( 'NONE', ( #328, #89, #410, #68 ) ) ;
#364 = AXIS2_PLACEMENT_3D ( 'NONE', #29, #232, #337 ) ;
#365 = VERTEX_POINT ( 'NONE', #453 ) ;
#366 = DIRECTION ( 'NONE',  ( 0.000000000000000000, 0.000000000000000000, 1.000000000000000000 ) ) ;
#367 = EDGE_CURVE ( 'NONE', #448, #124, #323, .T. ) ;
#368 = ORIENTED_EDGE ( 'NONE', *, *, #66, .F. ) ;
#369 = DIRECTION ( 'NONE',  ( 1.000000000000000000, 0.000000000000000000, 0.000000000000000000 ) ) ;
#370 = ORIENTED_EDGE ( 'NONE', *, *, #334, .F. ) ;
#371 = CARTESIAN_POINT ( 'NONE',  ( 0.000000000000000000, 0.000000000000000000, -29.97200000000000131 ) ) ;
#372 = AXIS2_PLACEMENT_3D ( 'NONE', #51, #223, #185 ) ;
#373 = ORIENTED_EDGE ( 'NONE', *, *, #28, .T. ) ;
#374 = PLANE ( 'NONE',  #74 ) ;
#375 = DIRECTION ( 'NONE',  ( -0.000000000000000000, -0.000000000000000000, 1.000000000000000000 ) ) ;
#376 = ADVANCED_FACE ( 'NONE', ( #201 ), #374, .F. ) ;
#377 = CARTESIAN_POINT ( 'NONE',  ( 0.000000000000000000, 0.000000000000000000, -29.82091914209798489 ) ) ;
#378 = LINE ( 'NONE', #543, #237 ) ;
#379 = VECTOR ( 'NONE', #349, 1000.000000000000000 ) ;
#380 = DIRECTION ( 'NONE',  ( 0.000000000000000000, 0.000000000000000000, -1.000000000000000000 ) ) ;
#381 = AXIS2_PLACEMENT_3D ( 'NONE', #507, #553, #301 ) ;
#382 = DIRECTION ( 'NONE',  ( 0.000000000000000000, 0.000000000000000000, 1.000000000000000000 ) ) ;
#383 = ADVANCED_FACE ( 'NONE', ( #502 ), #195, .T. ) ;
#384 = FACE_OUTER_BOUND ( 'NONE', #71, .T. ) ;
#385 = CARTESIAN_POINT ( 'NONE',  ( 1.268411506570324088, -1.587500000000000355, -29.82091914209798489 ) ) ;
#386 = LINE ( 'NONE', #170, #230 ) ;
#387 = DIRECTION ( 'NONE',  ( 0.000000000000000000, 0.000000000000000000, 1.000000000000000000 ) ) ;
#388 = CARTESIAN_POINT ( 'NONE',  ( 1.268411506570323866, 1.587500000000000355, 0.000000000000000000 ) ) ;
#389 = TOROIDAL_SURFACE ( 'NONE', #423, 1.245064030267288402, 2.124999999999998224 ) ;
#390 = EDGE_CURVE ( 'NONE', #529, #491, #528, .T. ) ;
#391 = CARTESIAN_POINT ( 'NONE',  ( 0.000000000000000000, 0.000000000000000000, 0.000000000000000000 ) ) ;
#392 = CARTESIAN_POINT ( 'NONE',  ( -0.4342314039556041672, 1.587500000000000355, -29.94385171744314178 ) ) ;
#393 = CYLINDRICAL_SURFACE ( 'NONE', #449, 2.375000000000000000 ) ;
#394 = VERTEX_POINT ( 'NONE', #335 ) ;
#395 = FACE_OUTER_BOUND ( 'NONE', #408, .T. ) ;
#396 = VERTEX_POINT ( 'NONE', #75 ) ;
#397 = TOROIDAL_SURFACE ( 'NONE', #535, 1.245064030267288402, 2.124999999999998224 ) ;
#398 = PERSON_AND_ORGANIZATION ( #485, #513 ) ;
#399 = PRODUCT_DEFINITION_FORMATION_WITH_SPECIFIED_SOURCE ( 'ANY', '', #49, .NOT_KNOWN. ) ;
#400 = ADVANCED_FACE ( 'NONE', ( #248 ), #416, .F. ) ;
#401 = DIRECTION ( 'NONE',  ( 0.000000000000000000, -1.000000000000000000, 0.000000000000000000 ) ) ;
#402 = VERTEX_POINT ( 'NONE', #504 ) ;
#403 = ORIENTED_EDGE ( 'NONE', *, *, #481, .T. ) ;
#404 = ADVANCED_FACE ( 'NONE', ( #121 ), #460, .T. ) ;
#405 = AXIS2_PLACEMENT_3D ( 'NONE', #333, #36, #80 ) ;
#406 = EDGE_LOOP ( 'NONE', ( #280, #18, #452, #241 ) ) ;
#407 = DIRECTION ( 'NONE',  ( -0.000000000000000000, -0.000000000000000000, 1.000000000000000000 ) ) ;
#408 = EDGE_LOOP ( 'NONE', ( #63, #17, #508, #194 ) ) ;
#409 = CARTESIAN_POINT ( 'NONE',  ( 1.587500000000000355, -1.587500000000000355, 0.000000000000000000 ) ) ;
#410 = ORIENTED_EDGE ( 'NONE', *, *, #250, .T. ) ;
#411 = CARTESIAN_POINT ( 'NONE',  ( 1.587500000000000355, 0.8513200635100129920, -29.90237755531811814 ) ) ;
#412 = AXIS2_PLACEMENT_3D ( 'NONE', #338, #297, #461 ) ;
#413 = APPROVAL_PERSON_ORGANIZATION ( #398, #362, #437 ) ;
#414 = EDGE_CURVE ( 'NONE', #445, #189, #85, .T. ) ;
#415 = ORIENTED_EDGE ( 'NONE', *, *, #472, .F. ) ;
#416 = PLANE ( 'NONE',  #364 ) ;
#417 = CARTESIAN_POINT ( 'NONE',  ( -1.587500000000000355, 1.268411506570323866, -29.82091914209798489 ) ) ;
#418 =( LENGTH_UNIT ( ) NAMED_UNIT ( * ) SI_UNIT ( .MILLI., .METRE. ) );
#419 = DIRECTION ( 'NONE',  ( -0.000000000000000000, -0.000000000000000000, 1.000000000000000000 ) ) ;
#420 = DATE_AND_TIME ( #474, #35 ) ;
#421 = APPROVAL ( #321, 'UNSPECIFIED' ) ;
#422 = LINE ( 'NONE', #129, #59 ) ;
#423 = AXIS2_PLACEMENT_3D ( 'NONE', #32, #249, #258 ) ;
#424 = VERTEX_POINT ( 'NONE', #469 ) ;
#425 = AXIS2_PLACEMENT_3D ( 'NONE', #135, #262, #306 ) ;
#426 = FACE_OUTER_BOUND ( 'NONE', #137, .T. ) ;
#427 = LINE ( 'NONE', #212, #315 ) ;
#428 = CARTESIAN_POINT ( 'NONE',  ( 1.587500000000000355, 0.000000000000000000, -29.94422736169286736 ) ) ;
#429 = EDGE_CURVE ( 'NONE', #365, #529, #82, .T. ) ;
#430 = CYLINDRICAL_SURFACE ( 'NONE', #172, 2.375000000000000000 ) ;
#431 = VERTEX_POINT ( 'NONE', #177 ) ;
#432 = CARTESIAN_POINT ( 'NONE',  ( -1.268411506570323866, -1.587500000000000355, -29.82091914209798489 ) ) ;
#433 = CARTESIAN_POINT ( 'NONE',  ( 0.4219230645619491682, 1.587500000000000577, -29.93830730355363556 ) ) ;
#434 = CIRCLE ( 'NONE', #94, 2.124999999999998224 ) ;
#435 = DATE_TIME_ROLE ( 'classification_date' ) ;
#436 = DIRECTION ( 'NONE',  ( 0.000000000000000000, 0.000000000000000000, -1.000000000000000000 ) ) ;
#437 = APPROVAL_ROLE ( '' ) ;
#438 = LINE ( 'NONE', #316, #283 ) ;
#439 = PERSON_AND_ORGANIZATION_ROLE ( 'classification_officer' ) ;
#440 = EDGE_CURVE ( 'NONE', #166, #62, #276, .T. ) ;
#441 = DIRECTION ( 'NONE',  ( 1.000000000000000000, 0.000000000000000000, 0.000000000000000000 ) ) ;
#442 = AXIS2_PLACEMENT_3D ( 'NONE', #377, #451, #369 ) ;
#443 = PERSON_AND_ORGANIZATION ( #485, #513 ) ;
#444 = CIRCLE ( 'NONE', #425, 2.032000000000000028 ) ;
#445 = VERTEX_POINT ( 'NONE', #44 ) ;
#446 = EDGE_CURVE ( 'NONE', #124, #166, #422, .T. ) ;
#447 = ORIENTED_EDGE ( 'NONE', *, *, #242, .F. ) ;
#448 = VERTEX_POINT ( 'NONE', #167 ) ;
#449 = AXIS2_PLACEMENT_3D ( 'NONE', #99, #512, #473 ) ;
#450 = SECURITY_CLASSIFICATION ( '', '', #272 ) ;
#451 = DIRECTION ( 'NONE',  ( -0.000000000000000000, -0.000000000000000000, 1.000000000000000000 ) ) ;
#452 = ORIENTED_EDGE ( 'NONE', *, *, #250, .F. ) ;
#453 = CARTESIAN_POINT ( 'NONE',  ( -1.268411506570323866, -1.587500000000000355, -29.82091914209798489 ) ) ;
#454 = ORIENTED_EDGE ( 'NONE', *, *, #28, .F. ) ;
#455 = CARTESIAN_POINT ( 'NONE',  ( 1.587500000000000355, 0.000000000000000000, -29.94422736169286736 ) ) ;
#456 = CC_DESIGN_DATE_AND_TIME_ASSIGNMENT ( #264, #435, ( #450 ) ) ;
#457 = DIRECTION ( 'NONE',  ( 1.000000000000000000, 0.000000000000000000, 0.000000000000000000 ) ) ;
#458 = CARTESIAN_POINT ( 'NONE',  ( 0.000000000000000000, 0.000000000000000000, -29.82091914209798489 ) ) ;
#459 = ORIENTED_EDGE ( 'NONE', *, *, #429, .F. ) ;
#460 = CYLINDRICAL_SURFACE ( 'NONE', #231, 2.032000000000000028 ) ;
#461 = DIRECTION ( 'NONE',  ( 1.000000000000000000, 0.000000000000000000, 0.000000000000000000 ) ) ;
#462 = EDGE_CURVE ( 'NONE', #365, #325, #342, .T. ) ;
#463 = CARTESIAN_POINT ( 'NONE',  ( 1.587500000000000355, -1.268411506570323866, -29.82091914209798489 ) ) ;
#464 = FACE_OUTER_BOUND ( 'NONE', #520, .T. ) ;
#465 = CARTESIAN_POINT ( 'NONE',  ( 1.587500000000000355, -1.268411506570323866, -29.82091914209798489 ) ) ;
#466 = CIRCLE ( 'NONE', #412, 2.375000000000000000 ) ;
#467 = DIRECTION ( 'NONE',  ( 1.000000000000000000, 0.000000000000000000, 0.000000000000000000 ) ) ;
#468 = AXIS2_PLACEMENT_3D ( 'NONE', #257, #544, #251 ) ;
#469 = CARTESIAN_POINT ( 'NONE',  ( -1.587500000000000355, 1.268411506570323866, -29.82091914209798489 ) ) ;
#470 = CARTESIAN_POINT ( 'NONE',  ( 2.375000000000000000, 2.908536147974963713E-16, 0.8000000000000000444 ) ) ;
#471 = DIRECTION ( 'NONE',  ( -1.000000000000000000, -0.000000000000000000, -0.000000000000000000 ) ) ;
#472 = EDGE_CURVE ( 'NONE', #189, #224, #511, .T. ) ;
#473 = DIRECTION ( 'NONE',  ( -1.000000000000000000, 0.000000000000000000, 0.000000000000000000 ) ) ;
#474 = CALENDAR_DATE ( 2022, 6, 6 ) ;
#475 = DATE_AND_TIME ( #479, #114 ) ;
#476 = CARTESIAN_POINT ( 'NONE',  ( 1.060147506033617404, 1.587500000000000133, -29.87274669625518086 ) ) ;
#477 = VECTOR ( 'NONE', #510, 1000.000000000000000 ) ;
#478 = B_SPLINE_CURVE_WITH_KNOTS ( 'NONE', 3,
 ( #555, #476, #519, #433, #136, #392, #178, #312 ),
 .UNSPECIFIED., .F., .F.,
 ( 4, 2, 2, 4 ),
 ( 0.01485345774306977458, 0.01548583974386943084, 0.01611822174466908883, 0.01738298574626840134 ),
 .UNSPECIFIED. ) ;
#479 = CALENDAR_DATE ( 2022, 6, 6 ) ;
#480 = CARTESIAN_POINT ( 'NONE',  ( -1.268411506570323866, 1.587500000000000355, 0.000000000000000000 ) ) ;
#481 = EDGE_CURVE ( 'NONE', #110, #224, #173, .T. ) ;
#482 =( NAMED_UNIT ( * ) SI_UNIT ( $, .STERADIAN. ) SOLID_ANGLE_UNIT ( ) );
#483 = DIRECTION ( 'NONE',  ( -0.000000000000000000, -0.000000000000000000, 1.000000000000000000 ) ) ;
#484 = DIRECTION ( 'NONE',  ( 1.000000000000000000, 0.000000000000000000, 0.000000000000000000 ) ) ;
#485 = PERSON ( 'UNSPECIFIED', 'UNSPECIFIED', 'UNSPECIFIED', ('UNSPECIFIED'), ('UNSPECIFIED'), ('UNSPECIFIED') ) ;
#486 = ORIENTED_EDGE ( 'NONE', *, *, #344, .T. ) ;
#487 = AXIS2_PLACEMENT_3D ( 'NONE', #332, #193, #329 ) ;
#488 = DATE_AND_TIME ( #274, #10 ) ;
#489 = AXIS2_PLACEMENT_3D ( 'NONE', #391, #83, #298 ) ;
#490 = EDGE_CURVE ( 'NONE', #281, #424, #444, .T. ) ;
#491 = VERTEX_POINT ( 'NONE', #465 ) ;
#492 = ORIENTED_EDGE ( 'NONE', *, *, #514, .T. ) ;
#493 = CARTESIAN_POINT ( 'NONE',  ( -1.268411506570323866, -1.587500000000000355, 0.000000000000000000 ) ) ;
#494 = ORIENTED_EDGE ( 'NONE', *, *, #414, .T. ) ;
#495 = VECTOR ( 'NONE', #180, 1000.000000000000000 ) ;
#496 = CARTESIAN_POINT ( 'NONE',  ( 0.000000000000000000, 0.000000000000000000, 0.000000000000000000 ) ) ;
#497 = DESIGN_CONTEXT ( 'detailed design', #277, 'design' ) ;
#498 = ORIENTED_EDGE ( 'NONE', *, *, #351, .F. ) ;
#499 = CC_DESIGN_PERSON_AND_ORGANIZATION_ASSIGNMENT ( #443, #56, ( #399 ) ) ;
#500 = DIRECTION ( 'NONE',  ( 1.000000000000000000, 0.000000000000000000, 0.000000000000000000 ) ) ;
#501 = ORIENTED_EDGE ( 'NONE', *, *, #541, .T. ) ;
#502 = FACE_OUTER_BOUND ( 'NONE', #64, .T. ) ;
#503 = ORIENTED_EDGE ( 'NONE', *, *, #462, .T. ) ;
#504 = CARTESIAN_POINT ( 'NONE',  ( 1.268411506570323866, 1.587500000000000355, -29.82091914209798489 ) ) ;
#505 = EDGE_CURVE ( 'NONE', #491, #343, #154, .T. ) ;
#506 = CARTESIAN_POINT ( 'NONE',  ( -1.587500000000000355, 1.587500000000000355, -29.97200000000000131 ) ) ;
#507 = CARTESIAN_POINT ( 'NONE',  ( 0.000000000000000000, 0.000000000000000000, 0.000000000000000000 ) ) ;
#508 = ORIENTED_EDGE ( 'NONE', *, *, #66, .T. ) ;
#509 = DIRECTION ( 'NONE',  ( -0.000000000000000000, -0.000000000000000000, -1.000000000000000000 ) ) ;
#510 = DIRECTION ( 'NONE',  ( 0.000000000000000000, 0.000000000000000000, -1.000000000000000000 ) ) ;
#511 = LINE ( 'NONE', #350, #358 ) ;
#512 = DIRECTION ( 'NONE',  ( -0.000000000000000000, -0.000000000000000000, -1.000000000000000000 ) ) ;
#513 = ORGANIZATION ( 'UNSPECIFIED', 'UNSPECIFIED', '' ) ;
#514 = EDGE_CURVE ( 'NONE', #396, #360, #25, .T. ) ;
#515 = DIRECTION ( 'NONE',  ( 1.000000000000000000, 0.000000000000000000, -0.000000000000000000 ) ) ;
#516 = FACE_OUTER_BOUND ( 'NONE', #176, .T. ) ;
#517 = ORIENTED_EDGE ( 'NONE', *, *, #414, .F. ) ;
#518 = PLANE ( 'NONE',  #304 ) ;
#519 = CARTESIAN_POINT ( 'NONE',  ( 0.8486262390323829896, 1.587500000000000577, -29.90276882282395121 ) ) ;
#520 = EDGE_LOOP ( 'NONE', ( #221, #97, #267, #278 ) ) ;
#521 = PRODUCT_DEFINITION ( 'UNKNOWN', '', #399, #497 ) ;
#522 = DIRECTION ( 'NONE',  ( -0.000000000000000000, -1.000000000000000000, -0.000000000000000000 ) ) ;
#523 = CIRCLE ( 'NONE', #468, 2.032000000000000028 ) ;
#524 = FACE_OUTER_BOUND ( 'NONE', #21, .T. ) ;
#525 = ORIENTED_EDGE ( 'NONE', *, *, #205, .F. ) ;
#526 = CARTESIAN_POINT ( 'NONE',  ( 0.000000000000000000, 0.000000000000000000, 0.000000000000000000 ) ) ;
#527 = ORIENTED_EDGE ( 'NONE', *, *, #120, .T. ) ;
#528 = CIRCLE ( 'NONE', #45, 2.032000000000000028 ) ;
#529 = VERTEX_POINT ( 'NONE', #206 ) ;
#530 = CARTESIAN_POINT ( 'NONE',  ( 1.587500000000000355, -1.268411506570323866, 0.000000000000000000 ) ) ;
#531 = ORIENTED_EDGE ( 'NONE', *, *, #146, .F. ) ;
#532 = FACE_OUTER_BOUND ( 'NONE', #43, .T. ) ;
#533 = ADVANCED_FACE ( 'NONE', ( #33 ), #518, .F. ) ;
#534 = ORIENTED_EDGE ( 'NONE', *, *, #334, .T. ) ;
#535 = AXIS2_PLACEMENT_3D ( 'NONE', #160, #240, #117 ) ;
#536 = AXIS2_PLACEMENT_3D ( 'NONE', #90, #340, #1 ) ;
#537 = DIRECTION ( 'NONE',  ( 1.000000000000000000, 0.000000000000000000, 0.000000000000000000 ) ) ;
#538 = FACE_OUTER_BOUND ( 'NONE', #236, .T. ) ;
#539 = DIRECTION ( 'NONE',  ( 0.000000000000000000, 0.000000000000000000, 1.000000000000000000 ) ) ;
#540 = ORIENTED_EDGE ( 'NONE', *, *, #390, .T. ) ;
#541 = EDGE_CURVE ( 'NONE', #394, #325, #523, .T. ) ;
#542 = DIRECTION ( 'NONE',  ( -0.000000000000000000, -0.000000000000000000, 1.000000000000000000 ) ) ;
#543 = CARTESIAN_POINT ( 'NONE',  ( -1.587500000000000355, -1.268411506570323644, -29.97200000000000131 ) ) ;
#544 = DIRECTION ( 'NONE',  ( 0.000000000000000000, 0.000000000000000000, 1.000000000000000000 ) ) ;
#545 = AXIS2_PLACEMENT_3D ( 'NONE', #506, #380, #302 ) ;
#546 = CARTESIAN_POINT ( 'NONE',  ( -1.587500000000000133, 1.061532360077856119, -29.87240206829359579 ) ) ;
#547 = DIRECTION ( 'NONE',  ( 1.000000000000000000, 0.000000000000000000, 0.000000000000000000 ) ) ;
#548 = APPLICATION_CONTEXT ( 'configuration controlled 3d designs of mechanical parts and assemblies' ) ;
#549 = FACE_OUTER_BOUND ( 'NONE', #145, .T. ) ;
#550 = DIRECTION ( 'NONE',  ( -0.000000000000000000, -0.000000000000000000, 1.000000000000000000 ) ) ;
#551 = CARTESIAN_POINT ( 'NONE',  ( 0.000000000000000000, 0.000000000000000000, -29.97200000000000131 ) ) ;
#552 = ADVANCED_FACE ( 'NONE', ( #426 ), #40, .T. ) ;
#553 = DIRECTION ( 'NONE',  ( 0.000000000000000000, 0.000000000000000000, 1.000000000000000000 ) ) ;
#554 = AXIS2_PLACEMENT_3D ( 'NONE', #496, #287, #26 ) ;
#555 = CARTESIAN_POINT ( 'NONE',  ( 1.268411506570323866, 1.587500000000000355, -29.82091914209798489 ) ) ;
#556 = APPROVAL_PERSON_ORGANIZATION ( #361, #421, #103 ) ;
#557 = EDGE_LOOP ( 'NONE', ( #141, #235, #134, #447, #531 ) ) ;
ENDSEC;
END-ISO-10303-21;
