ISO-10303-21;
HEADER;
FILE_DESCRIPTION (( 'STEP AP214' ),
    '1' );
FILE_NAME ('228-2500-436.STEP',
    '2022-06-13T18:27:07',
    ( '' ),
    ( '' ),
    'SwSTEP 2.0',
    'SolidWorks 2021',
    '' );
FILE_SCHEMA (( 'AUTOMOTIVE_DESIGN' ));
ENDSEC;

DATA;
#1 = EDGE_CURVE ( 'NONE', #1019, #882, #131, .T. ) ;
#2 = ORIENTED_EDGE ( 'NONE', *, *, #44, .F. ) ;
#3 = CARTESIAN_POINT ( 'NONE',  ( 4.000000000000000000, 0.000000000000000000, 2.286000000000000032 ) ) ;
#4 = VECTOR ( 'NONE', #292, 1000.000000000000000 ) ;
#5 = MANIFOLD_SOLID_BREP ( 'Cut-Extrude2', #494 ) ;
#6 = DIRECTION ( 'NONE',  ( 0.000000000000000000, 0.000000000000000000, -1.000000000000000000 ) ) ;
#7 = AXIS2_PLACEMENT_3D ( 'NONE', #765, #679, #77 ) ;
#8 =( NAMED_UNIT ( * ) PLANE_ANGLE_UNIT ( ) SI_UNIT ( $, .RADIAN. ) );
#9 = ORIENTED_EDGE ( 'NONE', *, *, #930, .T. ) ;
#10 = DIRECTION ( 'NONE',  ( -1.000000000000000000, 0.000000000000000000, 0.000000000000000000 ) ) ;
#11 =( GEOMETRIC_REPRESENTATION_CONTEXT ( 3 ) GLOBAL_UNCERTAINTY_ASSIGNED_CONTEXT ( ( #575 ) ) GLOBAL_UNIT_ASSIGNED_CONTEXT ( ( #793, #983, #431 ) ) REPRESENTATION_CONTEXT ( 'NONE', 'WORKASPACE' ) );
#12 = DIRECTION ( 'NONE',  ( 0.000000000000000000, -1.224646799147353947E-16, 1.000000000000000000 ) ) ;
#13 = CARTESIAN_POINT ( 'NONE',  ( 0.2500000000000002220, 2.449293598294706414E-16, -2.000000000000000000 ) ) ;
#14 = ORIENTED_EDGE ( 'NONE', *, *, #1144, .T. ) ;
#15 = CARTESIAN_POINT ( 'NONE',  ( 0.2687352311006460659, 2.550792958447336112, 1.275396479223667390 ) ) ;
#16 = AXIS2_PLACEMENT_3D ( 'NONE', #1108, #10, #493 ) ;
#17 = CARTESIAN_POINT ( 'NONE',  ( -4.000000000000000000, 0.000000000000000000, 2.286000000000000032 ) ) ;
#18 =( LENGTH_UNIT ( ) NAMED_UNIT ( * ) SI_UNIT ( .MILLI., .METRE. ) );
#19 = ORIENTED_EDGE ( 'NONE', *, *, #1106, .F. ) ;
#20 = CARTESIAN_POINT ( 'NONE',  ( 0.2687352311006459549, -2.050797841559623033E-16, -1.674603520776331678 ) ) ;
#21 =( LENGTH_UNIT ( ) NAMED_UNIT ( * ) SI_UNIT ( .MILLI., .METRE. ) );
#22 = ORIENTED_EDGE ( 'NONE', *, *, #721, .F. ) ;
#23 = DIRECTION ( 'NONE',  ( -0.000000000000000000, -1.000000000000000000, -0.000000000000000000 ) ) ;
#24 = CIRCLE ( 'NONE', #176, 0.9499999999999999556 ) ;
#25 = MANIFOLD_SOLID_BREP ( 'Boss-Extrude1', #1099 ) ;
#26 = ADVANCED_FACE ( 'NONE', ( #487 ), #1034, .T. ) ;
#27 = PRESENTATION_LAYER_ASSIGNMENT (  '', '', ( #676 ) ) ;
#28 = DIRECTION ( 'NONE',  ( 1.000000000000000000, -0.000000000000000000, -0.000000000000000000 ) ) ;
#29 = LINE ( 'NONE', #1129, #1084 ) ;
#30 = CARTESIAN_POINT ( 'NONE',  ( -0.1566311123537543204, 7.500000000000014211, 0.6000000000001860512 ) ) ;
#31 = CIRCLE ( 'NONE', #514, 0.9062499999999998890 ) ;
#32 = DIRECTION ( 'NONE',  ( 0.000000000000000000, 0.000000000000000000, -1.000000000000000000 ) ) ;
#33 = ADVANCED_FACE ( 'NONE', ( #207, #120 ), #583, .F. ) ;
#34 = MECHANICAL_DESIGN_GEOMETRIC_PRESENTATION_REPRESENTATION (  '', ( #539 ), #757 ) ;
#35 = CARTESIAN_POINT ( 'NONE',  ( 0.000000000000000000, 0.000000000000000000, 2.286000000000000032 ) ) ;
#36 = CARTESIAN_POINT ( 'NONE',  ( 0.5000000000000918154, -3.999999999999869438, -1.999999999999934719 ) ) ;
#37 = DIRECTION ( 'NONE',  ( 1.000000000000000000, 0.000000000000000000, 0.000000000000000000 ) ) ;
#38 = CARTESIAN_POINT ( 'NONE',  ( -22.21108396645891858, 6.676274725047760761, 10.61339247434766087 ) ) ;
#39 = CARTESIAN_POINT ( 'NONE',  ( 0.000000000000000000, 0.000000000000000000, 2.286000000000000032 ) ) ;
#40 = AXIS2_PLACEMENT_3D ( 'NONE', #736, #1082, #368 ) ;
#41 = CARTESIAN_POINT ( 'NONE',  ( 0.2499999999999986955, -2.002687271846017552E-16, -0.7499999999999983347 ) ) ;
#42 = FILL_AREA_STYLE_COLOUR ( '', #588 ) ;
#43 =( LENGTH_UNIT ( ) NAMED_UNIT ( * ) SI_UNIT ( .MILLI., .METRE. ) );
#44 = EDGE_CURVE ( 'NONE', #482, #655, #195, .T. ) ;
#45 = ORIENTED_EDGE ( 'NONE', *, *, #930, .F. ) ;
#46 = DIRECTION ( 'NONE',  ( 5.021567956775114176E-15, 0.000000000000000000, -1.000000000000000000 ) ) ;
#47 = ORIENTED_EDGE ( 'NONE', *, *, #721, .T. ) ;
#48 = DIRECTION ( 'NONE',  ( 0.000000000000000000, 0.000000000000000000, 1.000000000000000000 ) ) ;
#49 = VERTEX_POINT ( 'NONE', #532 ) ;
#50 = FACE_OUTER_BOUND ( 'NONE', #603, .T. ) ;
#51 = AXIS2_PLACEMENT_3D ( 'NONE', #392, #924, #489 ) ;
#52 = ORIENTED_EDGE ( 'NONE', *, *, #476, .F. ) ;
#53 = CARTESIAN_POINT ( 'NONE',  ( 0.000000000000000000, 0.000000000000000000, -2.286000000000000032 ) ) ;
#54 = ADVANCED_BREP_SHAPE_REPRESENTATION ( '', ( #402, #941 ), #218 ) ;
#55 = FILL_AREA_STYLE_COLOUR ( '', #444 ) ;
#56 = EDGE_CURVE ( 'NONE', #286, #915, #187, .T. ) ;
#57 = CARTESIAN_POINT ( 'NONE',  ( 0.3123226340010450963, 7.494334100416290667, 0.5362475917034296158 ) ) ;
#58 =( NAMED_UNIT ( * ) PLANE_ANGLE_UNIT ( ) SI_UNIT ( $, .RADIAN. ) );
#59 = ORIENTED_EDGE ( 'NONE', *, *, #548, .T. ) ;
#60 = CARTESIAN_POINT ( 'NONE',  ( 0.2500000000000002220, 0.000000000000000000, -0.7500000000000000000 ) ) ;
#61 = DIRECTION ( 'NONE',  ( -1.000000000000000000, 0.000000000000000000, 0.000000000000000000 ) ) ;
#62 = VERTEX_POINT ( 'NONE', #374 ) ;
#63 = AXIS2_PLACEMENT_3D ( 'NONE', #1023, #828, #274 ) ;
#64 = AXIS2_PLACEMENT_3D ( 'NONE', #313, #937, #308 ) ;
#65 = DIRECTION ( 'NONE',  ( 1.000000000000000000, 0.000000000000000000, 0.000000000000000000 ) ) ;
#66 = VERTEX_POINT ( 'NONE', #920 ) ;
#67 = LINE ( 'NONE', #338, #537 ) ;
#68 = PRODUCT_DEFINITION_SHAPE ( 'NONE', 'NONE',  #1176 ) ;
#69 = FACE_BOUND ( 'NONE', #926, .T. ) ;
#70 = ORIENTED_EDGE ( 'NONE', *, *, #242, .F. ) ;
#71 = VERTEX_POINT ( 'NONE', #560 ) ;
#72 = PRODUCT_CONTEXT ( 'NONE', #296, 'mechanical' ) ;
#73 = PRESENTATION_STYLE_ASSIGNMENT (( #337 ) ) ;
#74 = FACE_OUTER_BOUND ( 'NONE', #340, .T. ) ;
#75 = AXIS2_PLACEMENT_3D ( 'NONE', #594, #686, #1143 ) ;
#76 = CARTESIAN_POINT ( 'NONE',  ( -0.1021126760563414448, 8.367935844397422147E-17, 1.119718309859154104 ) ) ;
#77 = DIRECTION ( 'NONE',  ( 1.445602896647339163E-16, 1.000000000000000000, 0.000000000000000000 ) ) ;
#78 = PRODUCT_DEFINITION_SHAPE ( 'NONE', 'NONE',  #1180 ) ;
#79 = DIRECTION ( 'NONE',  ( 0.000000000000000000, 0.000000000000000000, -1.000000000000000000 ) ) ;
#80 = CONTEXT_DEPENDENT_SHAPE_REPRESENTATION ( #110, #981 ) ;
#81 = DIRECTION ( 'NONE',  ( 1.445602896647339163E-16, -1.000000000000000000, 0.000000000000000000 ) ) ;
#82 = CIRCLE ( 'NONE', #122, 0.9499999999999999556 ) ;
#83 = EDGE_CURVE ( 'NONE', #915, #462, #94, .T. ) ;
#84 = DIRECTION ( 'NONE',  ( 0.000000000000000000, 0.000000000000000000, 1.000000000000000000 ) ) ;
#85 = ADVANCED_FACE ( 'NONE', ( #913 ), #279, .T. ) ;
#86 = ADVANCED_FACE ( 'NONE', ( #556 ), #834, .F. ) ;
#87 = CARTESIAN_POINT ( 'NONE',  ( -2.100000000000000089, 0.000000000000000000, 2.286000000000000032 ) ) ;
#88 = AXIS2_PLACEMENT_3D ( 'NONE', #53, #776, #695 ) ;
#89 = CARTESIAN_POINT ( 'NONE',  ( 0.000000000000000000, 4.850000000000000533, -0.5999999999999999778 ) ) ;
#90 = ORIENTED_EDGE ( 'NONE', *, *, #466, .T. ) ;
#91 = PRODUCT_DEFINITION_FORMATION_WITH_SPECIFIED_SOURCE ( 'ANY', '', #612, .NOT_KNOWN. ) ;
#92 = CARTESIAN_POINT ( 'NONE',  ( 0.5000000000000004441, 2.449293598294706414E-16, -2.000000000000000000 ) ) ;
#93 = EDGE_CURVE ( 'NONE', #253, #239, #1087, .T. ) ;
#94 = LINE ( 'NONE', #357, #617 ) ;
#95 = LINE ( 'NONE', #1101, #795 ) ;
#96 = AXIS2_PLACEMENT_3D ( 'NONE', #105, #1104, #737 ) ;
#97 = VERTEX_POINT ( 'NONE', #998 ) ;
#98 = DIRECTION ( 'NONE',  ( -1.000000000000000000, -0.000000000000000000, -0.000000000000000000 ) ) ;
#99 = DIRECTION ( 'NONE',  ( 0.000000000000000000, 0.000000000000000000, 1.000000000000000000 ) ) ;
#100 = DIRECTION ( 'NONE',  ( 1.000000000000000000, -0.000000000000000000, -0.000000000000000000 ) ) ;
#101 = ORIENTED_EDGE ( 'NONE', *, *, #845, .T. ) ;
#102 = LINE ( 'NONE', #576, #833 ) ;
#103 = DIRECTION ( 'NONE',  ( -1.000000000000000000, 0.000000000000000000, 0.000000000000000000 ) ) ;
#104 = MECHANICAL_DESIGN_GEOMETRIC_PRESENTATION_REPRESENTATION (  '', ( #676 ), #848 ) ;
#105 = CARTESIAN_POINT ( 'NONE',  ( 0.000000000000000000, 7.500000000000000000, 0.000000000000000000 ) ) ;
#106 = SURFACE_STYLE_USAGE ( .BOTH. , #1010 ) ;
#107 = VERTEX_POINT ( 'NONE', #471 ) ;
#108 = CARTESIAN_POINT ( 'NONE',  ( 0.5000000000000918154, 0.000000000000000000, 1.999999999999934941 ) ) ;
#109 = DIRECTION ( 'NONE',  ( 0.000000000000000000, -0.9242245927363030855, -0.3818493186865927203 ) ) ;
#110 =( REPRESENTATION_RELATIONSHIP ('NONE','NONE', #144, #221 ) REPRESENTATION_RELATIONSHIP_WITH_TRANSFORMATION ( #899 )SHAPE_REPRESENTATION_RELATIONSHIP( ) );
#111 = CARTESIAN_POINT ( 'NONE',  ( -1.750000000000000666, 4.850000000000000533, 2.286000000000000032 ) ) ;
#112 = ORIENTED_EDGE ( 'NONE', *, *, #153, .T. ) ;
#113 = CARTESIAN_POINT ( 'NONE',  ( 0.5000000000000918154, -2.449293598294627035E-16, -1.999999999999934941 ) ) ;
#114 = EDGE_LOOP ( 'NONE', ( #52, #456, #1054, #599 ) ) ;
#115 = AXIS2_PLACEMENT_3D ( 'NONE', #750, #661, #407 ) ;
#116 =( REPRESENTATION_RELATIONSHIP ('NONE','NONE', #221, #509 ) REPRESENTATION_RELATIONSHIP_WITH_TRANSFORMATION ( #538 )SHAPE_REPRESENTATION_RELATIONSHIP( ) );
#117 = LINE ( 'NONE', #17, #574 ) ;
#118 = CARTESIAN_POINT ( 'NONE',  ( 0.2499999999999987232, 1.499999999999996003, -0.7499999999999987788 ) ) ;
#119 = DIRECTION ( 'NONE',  ( 0.000000000000000000, 0.000000000000000000, 1.000000000000000000 ) ) ;
#120 = FACE_OUTER_BOUND ( 'NONE', #386, .T. ) ;
#121 = DIRECTION ( 'NONE',  ( 1.000000000000000000, 0.000000000000000000, 0.000000000000000000 ) ) ;
#122 = AXIS2_PLACEMENT_3D ( 'NONE', #271, #100, #379 ) ;
#123 = EDGE_CURVE ( 'NONE', #107, #684, #398, .T. ) ;
#124 = PRESENTATION_LAYER_ASSIGNMENT (  '', '', ( #625 ) ) ;
#125 = DIRECTION ( 'NONE',  ( -1.000000000000000000, 0.000000000000000000, 0.000000000000000000 ) ) ;
#126 = CIRCLE ( 'NONE', #662, 0.7500000000000000000 ) ;
#127 = CARTESIAN_POINT ( 'NONE',  ( 0.2687352311006459549, 4.101595683119246066E-16, 1.674603520776331678 ) ) ;
#128 = CARTESIAN_POINT ( 'NONE',  ( -0.1586050711800802426, 7.500000000000000000, -0.5999999999999999778 ) ) ;
#129 =( LENGTH_UNIT ( ) NAMED_UNIT ( * ) SI_UNIT ( .MILLI., .METRE. ) );
#130 = FACE_BOUND ( 'NONE', #921, .T. ) ;
#131 = CIRCLE ( 'NONE', #277, 0.9062499999999998890 ) ;
#132 = EDGE_CURVE ( 'NONE', #887, #1154, #1014, .T. ) ;
#133 = CARTESIAN_POINT ( 'NONE',  ( -0.1021126760563413477, 3.260563380281691348, 1.630281690140844564 ) ) ;
#134 = ORIENTED_EDGE ( 'NONE', *, *, #555, .T. ) ;
#135 = CARTESIAN_POINT ( 'NONE',  ( 0.2500000000000002220, 0.000000000000000000, 0.000000000000000000 ) ) ;
#136 = CARTESIAN_POINT ( 'NONE',  ( -0.1021126760563414448, -2.455461616601201735E-16, -1.119718309859154104 ) ) ;
#137 = CARTESIAN_POINT ( 'NONE',  ( 117.5499999999999972, 0.000000000000000000, 0.5999999999999999778 ) ) ;
#138 = ORIENTED_EDGE ( 'NONE', *, *, #528, .F. ) ;
#139 = EDGE_CURVE ( 'NONE', #355, #141, #554, .T. ) ;
#140 = CARTESIAN_POINT ( 'NONE',  ( -117.5499999999999972, 0.000000000000000000, 0.000000000000000000 ) ) ;
#141 = VERTEX_POINT ( 'NONE', #453 ) ;
#142 = ORIENTED_EDGE ( 'NONE', *, *, #1166, .T. ) ;
#143 = DIRECTION ( 'NONE',  ( 0.000000000000000000, 0.000000000000000000, -1.000000000000000000 ) ) ;
#144 = SHAPE_REPRESENTATION ( '228-2500-436', ( #299, #1161, #455, #264 ), #987 ) ;
#145 = ORIENTED_EDGE ( 'NONE', *, *, #786, .T. ) ;
#146 = DIRECTION ( 'NONE',  ( -0.000000000000000000, -0.000000000000000000, 1.000000000000000000 ) ) ;
#147 = CIRCLE ( 'NONE', #719, 0.5999999999999999778 ) ;
#148 = FACE_OUTER_BOUND ( 'NONE', #772, .T. ) ;
#149 = FILL_AREA_STYLE ('',( #55 ) ) ;
#150 =( NAMED_UNIT ( * ) SI_UNIT ( $, .STERADIAN. ) SOLID_ANGLE_UNIT ( ) );
#151 = ORIENTED_EDGE ( 'NONE', *, *, #217, .T. ) ;
#152 = LINE ( 'NONE', #803, #751 ) ;
#153 = EDGE_CURVE ( 'NONE', #382, #976, #348, .T. ) ;
#154 = CARTESIAN_POINT ( 'NONE',  ( 4.199999999999995737, 1.163414459189985682E-16, -0.9499999999999999556 ) ) ;
#155 = ORIENTED_EDGE ( 'NONE', *, *, #722, .F. ) ;
#156 = VECTOR ( 'NONE', #832, 1000.000000000000000 ) ;
#157 = AXIS2_PLACEMENT_3D ( 'NONE', #351, #542, #1077 ) ;
#158 = PRESENTATION_STYLE_ASSIGNMENT (( #595 ) ) ;
#159 = EDGE_LOOP ( 'NONE', ( #874, #1158, #1137, #1048 ) ) ;
#160 = CARTESIAN_POINT ( 'NONE',  ( 4.000000000000003553, 6.017322057294549609E-14, 0.8993686908363700550 ) ) ;
#161 = EDGE_CURVE ( 'NONE', #62, #635, #477, .T. ) ;
#162 = PRODUCT ( '228-2500-436-01 Rev1_228-2500-436-01', '228-2500-436-01 Rev1_228-2500-436-01', '', ( #626 ) ) ;
#163 = FACE_OUTER_BOUND ( 'NONE', #430, .T. ) ;
#164 = EDGE_LOOP ( 'NONE', ( #361, #770 ) ) ;
#165 = ORIENTED_EDGE ( 'NONE', *, *, #929, .T. ) ;
#166 = PRODUCT_DEFINITION ( 'UNKNOWN', '', #204, #315 ) ;
#167 = SURFACE_STYLE_FILL_AREA ( #708 ) ;
#168 = FACE_OUTER_BOUND ( 'NONE', #250, .T. ) ;
#169 = AXIS2_PLACEMENT_3D ( 'NONE', #962, #869, #223 ) ;
#170 = FACE_OUTER_BOUND ( 'NONE', #177, .T. ) ;
#171 = AXIS2_PLACEMENT_3D ( 'NONE', #674, #119, #664 ) ;
#172 = AXIS2_PLACEMENT_3D ( 'NONE', #378, #592, #211 ) ;
#173 = ADVANCED_FACE ( 'NONE', ( #1093 ), #474, .T. ) ;
#174 = DIRECTION ( 'NONE',  ( 0.000000000000000000, 0.000000000000000000, 1.000000000000000000 ) ) ;
#175 = CARTESIAN_POINT ( 'NONE',  ( 0.000000000000000000, 0.000000000000000000, 2.286000000000000032 ) ) ;
#176 = AXIS2_PLACEMENT_3D ( 'NONE', #485, #28, #388 ) ;
#177 = EDGE_LOOP ( 'NONE', ( #467, #836, #289, #830 ) ) ;
#178 =( GEOMETRIC_REPRESENTATION_CONTEXT ( 3 ) GLOBAL_UNCERTAINTY_ASSIGNED_CONTEXT ( ( #787 ) ) GLOBAL_UNIT_ASSIGNED_CONTEXT ( ( #18, #1005, #584 ) ) REPRESENTATION_CONTEXT ( 'NONE', 'WORKASPACE' ) );
#179 = PLANE ( 'NONE',  #304 ) ;
#180 = DIRECTION ( 'NONE',  ( 5.021567956775114176E-15, 0.000000000000000000, -1.000000000000000000 ) ) ;
#181 = DIRECTION ( 'NONE',  ( 1.000000000000000000, 0.000000000000000000, 0.000000000000000000 ) ) ;
#182 = ORIENTED_EDGE ( 'NONE', *, *, #83, .T. ) ;
#183 = CARTESIAN_POINT ( 'NONE',  ( 117.5499999999999972, 0.000000000000000000, 0.000000000000000000 ) ) ;
#184 =( REPRESENTATION_RELATIONSHIP ('NONE','NONE', #144, #1078 ) REPRESENTATION_RELATIONSHIP_WITH_TRANSFORMATION ( #897 )SHAPE_REPRESENTATION_RELATIONSHIP( ) );
#185 = DIRECTION ( 'NONE',  ( 0.000000000000000000, 1.000000000000000000, 1.224646799147353207E-16 ) ) ;
#186 = DIRECTION ( 'NONE',  ( 1.000000000000000000, 0.000000000000000000, 0.000000000000000000 ) ) ;
#187 = CIRCLE ( 'NONE', #667, 7.500000000000000000 ) ;
#188 = EDGE_LOOP ( 'NONE', ( #749, #1071, #505, #969 ) ) ;
#189 =( NAMED_UNIT ( * ) PLANE_ANGLE_UNIT ( ) SI_UNIT ( $, .RADIAN. ) );
#190 = AXIS2_PLACEMENT_3D ( 'NONE', #278, #1086, #174 ) ;
#191 = FACE_OUTER_BOUND ( 'NONE', #1134, .T. ) ;
#192 = EDGE_LOOP ( 'NONE', ( #9, #863, #973, #982 ) ) ;
#193 = CARTESIAN_POINT ( 'NONE',  ( 0.5000000000000004441, 0.000000000000000000, 0.000000000000000000 ) ) ;
#194 = PRODUCT_RELATED_PRODUCT_CATEGORY ( 'part', '', ( #1160 ) ) ;
#195 = B_SPLINE_CURVE_WITH_KNOTS ( 'NONE', 3,
 ( #849, #30, #942, #391, #665, #755, #1026, #577, #128, #1120 ),
 .UNSPECIFIED., .F., .F.,
 ( 4, 2, 2, 2, 4 ),
 ( 0.001876622943936102125, 0.002345670139209626252, 0.002814717334483150379, 0.003283764529756674072, 0.003752811725030198199 ),
 .UNSPECIFIED. ) ;
#196 =( REPRESENTATION_RELATIONSHIP ('NONE','NONE', #221, #509 ) REPRESENTATION_RELATIONSHIP_WITH_TRANSFORMATION ( #352 )SHAPE_REPRESENTATION_RELATIONSHIP( ) );
#197 = VECTOR ( 'NONE', #877, 1000.000000000000000 ) ;
#198 = LINE ( 'NONE', #87, #1029 ) ;
#199 = ORIENTED_EDGE ( 'NONE', *, *, #845, .F. ) ;
#200 = AXIS2_PLACEMENT_3D ( 'NONE', #871, #691, #1133 ) ;
#201 = CARTESIAN_POINT ( 'NONE',  ( 0.2687352311006459549, -3.349207041552663355, -1.674603520776331678 ) ) ;
#202 = VERTEX_POINT ( 'NONE', #644 ) ;
#203 = LINE ( 'NONE', #490, #1046 ) ;
#204 = PRODUCT_DEFINITION_FORMATION_WITH_SPECIFIED_SOURCE ( 'ANY', '', #1160, .NOT_KNOWN. ) ;
#205 = FACE_OUTER_BOUND ( 'NONE', #1004, .T. ) ;
#206 = CARTESIAN_POINT ( 'NONE',  ( 0.5000000000000918154, -2.449293598294627035E-16, -1.999999999999934941 ) ) ;
#207 = FACE_BOUND ( 'NONE', #766, .T. ) ;
#208 = EDGE_CURVE ( 'NONE', #71, #355, #630, .T. ) ;
#209 = CIRCLE ( 'NONE', #1030, 2.000000000000000000 ) ;
#210 = EDGE_CURVE ( 'NONE', #286, #239, #285, .T. ) ;
#211 = DIRECTION ( 'NONE',  ( 0.000000000000000000, 0.000000000000000000, -1.000000000000000000 ) ) ;
#212 = CARTESIAN_POINT ( 'NONE',  ( 0.2500000000000002220, 0.000000000000000000, 2.000000000000000000 ) ) ;
#213 = UNCERTAINTY_MEASURE_WITH_UNIT (LENGTH_MEASURE( 1.000000000000000082E-05 ), #43, 'distance_accuracy_value', 'NONE');
#214 = CARTESIAN_POINT ( 'NONE',  ( 0.2687352311006459549, 3.349207041552663355, -1.674603520776332344 ) ) ;
#215 = DIRECTION ( 'NONE',  ( 0.000000000000000000, -0.000000000000000000, 1.000000000000000000 ) ) ;
#216 = LINE ( 'NONE', #767, #683 ) ;
#217 = EDGE_CURVE ( 'NONE', #614, #97, #198, .T. ) ;
#218 =( GEOMETRIC_REPRESENTATION_CONTEXT ( 3 ) GLOBAL_UNCERTAINTY_ASSIGNED_CONTEXT ( ( #1167 ) ) GLOBAL_UNIT_ASSIGNED_CONTEXT ( ( #275, #8, #639 ) ) REPRESENTATION_CONTEXT ( 'NONE', 'WORKASPACE' ) );
#219 = CARTESIAN_POINT ( 'NONE',  ( 0.2499999999999988343, 4.000000000000002665, 2.000000000000000000 ) ) ;
#220 = MECHANICAL_DESIGN_GEOMETRIC_PRESENTATION_REPRESENTATION (  '', ( #824 ), #369 ) ;
#221 = SHAPE_REPRESENTATION ( '228-2500-436-00 Rev1_228-2500-436-00', ( #640, #51, #436, #1153 ), #1015 ) ;
#222 = CYLINDRICAL_SURFACE ( 'NONE', #423, 4.000000000000000000 ) ;
#223 = DIRECTION ( 'NONE',  ( 1.000000000000000000, 0.000000000000000000, 0.000000000000000000 ) ) ;
#224 = VERTEX_POINT ( 'NONE', #111 ) ;
#225 = CARTESIAN_POINT ( 'NONE',  ( 1.749999999999999112, 3.350000000000000089, -2.286000000000000032 ) ) ;
#226 = STYLED_ITEM ( 'NONE', ( #1075 ), #5 ) ;
#227 = FACE_OUTER_BOUND ( 'NONE', #813, .T. ) ;
#228 = UNCERTAINTY_MEASURE_WITH_UNIT (LENGTH_MEASURE( 1.000000000000000082E-05 ), #802, 'distance_accuracy_value', 'NONE');
#229 = DIRECTION ( 'NONE',  ( 1.000000000000000000, 0.000000000000000000, 0.000000000000000000 ) ) ;
#230 = EDGE_LOOP ( 'NONE', ( #1049, #1135, #694, #406 ) ) ;
#231 = DIRECTION ( 'NONE',  ( 0.000000000000000000, 0.000000000000000000, -1.000000000000000000 ) ) ;
#232 = ORIENTED_EDGE ( 'NONE', *, *, #1144, .F. ) ;
#233 = APPLICATION_CONTEXT ( 'automotive_design' ) ;
#234 = EDGE_LOOP ( 'NONE', ( #1096, #690, #151, #1107 ) ) ;
#235 = CYLINDRICAL_SURFACE ( 'NONE', #75, 0.7500000000000000000 ) ;
#236 = EDGE_LOOP ( 'NONE', ( #22, #268, #1140, #145 ) ) ;
#237 = LINE ( 'NONE', #1053, #550 ) ;
#238 = DIRECTION ( 'NONE',  ( -1.000000000000000000, 0.000000000000000000, 0.000000000000000000 ) ) ;
#239 = VERTEX_POINT ( 'NONE', #1033 ) ;
#240 = CARTESIAN_POINT ( 'NONE',  ( -4.000000000000000000, 0.000000000000000000, 2.286000000000000032 ) ) ;
#241 = DIRECTION ( 'NONE',  ( 0.000000000000000000, 0.000000000000000000, 1.000000000000000000 ) ) ;
#242 = EDGE_CURVE ( 'NONE', #887, #687, #526, .T. ) ;
#243 = VERTEX_POINT ( 'NONE', #373 ) ;
#244 = DIRECTION ( 'NONE',  ( -0.000000000000000000, -0.000000000000000000, 1.000000000000000000 ) ) ;
#245 = CARTESIAN_POINT ( 'NONE',  ( 0.2499999999999988343, -4.000000000000001776, 2.000000000000001332 ) ) ;
#246 = ORIENTED_EDGE ( 'NONE', *, *, #585, .F. ) ;
#247 = PRODUCT_DEFINITION_SHAPE ( 'NONE', 'NONE',  #166 ) ;
#248 = DIRECTION ( 'NONE',  ( 0.000000000000000000, -1.000000000000000222, 0.000000000000000000 ) ) ;
#249 = EDGE_CURVE ( 'NONE', #687, #202, #541, .T. ) ;
#250 = EDGE_LOOP ( 'NONE', ( #2, #47, #610, #324 ) ) ;
#251 = DIRECTION ( 'NONE',  ( 0.000000000000000000, 0.000000000000000000, 1.000000000000000000 ) ) ;
#252 = AXIS2_PLACEMENT_3D ( 'NONE', #727, #551, #460 ) ;
#253 = VERTEX_POINT ( 'NONE', #652 ) ;
#254 = AXIS2_PLACEMENT_3D ( 'NONE', #457, #103, #1098 ) ;
#255 = ORIENTED_EDGE ( 'NONE', *, *, #437, .T. ) ;
#256 = PRODUCT_CONTEXT ( 'NONE', #1170, 'mechanical' ) ;
#257 = SURFACE_SIDE_STYLE ('',( #520 ) ) ;
#258 = DIRECTION ( 'NONE',  ( -0.000000000000000000, -0.000000000000000000, -1.000000000000000000 ) ) ;
#259 = LINE ( 'NONE', #714, #912 ) ;
#260 = EDGE_CURVE ( 'NONE', #687, #887, #688, .T. ) ;
#261 = APPLICATION_PROTOCOL_DEFINITION ( 'draft international standard', 'automotive_design', 1998, #1170 ) ;
#262 = PLANE ( 'NONE',  #349 ) ;
#263 = ITEM_DEFINED_TRANSFORMATION ( 'NONE', 'NONE', #436,  #941 ) ;
#264 = AXIS2_PLACEMENT_3D ( 'NONE', #693, #508, #413 ) ;
#265 = ADVANCED_FACE ( 'NONE', ( #563 ), #499, .F. ) ;
#266 = CARTESIAN_POINT ( 'NONE',  ( 117.5499999999999972, 7.347880794884117764E-17, -0.5999999999999999778 ) ) ;
#267 = VECTOR ( 'NONE', #654, 1000.000000000000000 ) ;
#268 = ORIENTED_EDGE ( 'NONE', *, *, #364, .F. ) ;
#269 = FACE_OUTER_BOUND ( 'NONE', #188, .T. ) ;
#270 = CARTESIAN_POINT ( 'NONE',  ( 4.000000000000000000, 0.000000000000000000, -2.286000000000000032 ) ) ;
#271 = CARTESIAN_POINT ( 'NONE',  ( 0.5000000000000004441, 0.000000000000000000, 0.000000000000000000 ) ) ;
#272 = ORIENTED_EDGE ( 'NONE', *, *, #970, .T. ) ;
#273 = FACE_BOUND ( 'NONE', #502, .T. ) ;
#274 = DIRECTION ( 'NONE',  ( 0.000000000000000000, 0.000000000000000000, 1.000000000000000000 ) ) ;
#275 =( LENGTH_UNIT ( ) NAMED_UNIT ( * ) SI_UNIT ( .MILLI., .METRE. ) );
#276 = ORIENTED_EDGE ( 'NONE', *, *, #1, .T. ) ;
#277 = AXIS2_PLACEMENT_3D ( 'NONE', #879, #443, #607 ) ;
#278 = CARTESIAN_POINT ( 'NONE',  ( 0.2500000000000002220, 0.000000000000000000, 0.000000000000000000 ) ) ;
#279 = CYLINDRICAL_SURFACE ( 'NONE', #252, 2.000000000000000000 ) ;
#280 = PRODUCT_RELATED_PRODUCT_CATEGORY ( 'part', '', ( #612 ) ) ;
#281 = SURFACE_STYLE_FILL_AREA ( #465 ) ;
#282 = ORIENTED_EDGE ( 'NONE', *, *, #249, .F. ) ;
#283 = CARTESIAN_POINT ( 'NONE',  ( 0.2687352311006460659, -2.550792958447335668, 1.275396479223668056 ) ) ;
#284 = DIRECTION ( 'NONE',  ( 1.000000000000000000, 0.000000000000000000, 0.000000000000000000 ) ) ;
#285 = LINE ( 'NONE', #741, #267 ) ;
#286 = VERTEX_POINT ( 'NONE', #377 ) ;
#287 = CARTESIAN_POINT ( 'NONE',  ( 0.5000000000000920375, -1.163414459190065062E-16, -0.9500000000000650147 ) ) ;
#288 = CIRCLE ( 'NONE', #450, 0.7500000000000000000 ) ;
#289 = ORIENTED_EDGE ( 'NONE', *, *, #437, .F. ) ;
#290 = DIRECTION ( 'NONE',  ( -0.000000000000000000, -0.000000000000000000, 1.000000000000000000 ) ) ;
#291 = ADVANCED_FACE ( 'NONE', ( #656 ), #946, .F. ) ;
#292 = DIRECTION ( 'NONE',  ( -0.000000000000000000, -0.000000000000000000, -1.000000000000000000 ) ) ;
#293 = EDGE_CURVE ( 'NONE', #635, #49, #837, .T. ) ;
#294 = CARTESIAN_POINT ( 'NONE',  ( 0.5000000000000920375, -1.900000000000130029, -0.9500000000000650147 ) ) ;
#295 = CARTESIAN_POINT ( 'NONE',  ( -1.750000000000000666, 4.850000000000000533, -2.286000000000000032 ) ) ;
#296 = APPLICATION_CONTEXT ( 'automotive_design' ) ;
#297 = EDGE_CURVE ( 'NONE', #700, #614, #478, .T. ) ;
#298 = LINE ( 'NONE', #945, #629 ) ;
#299 = AXIS2_PLACEMENT_3D ( 'NONE', #889, #881, #65 ) ;
#300 = DIRECTION ( 'NONE',  ( -1.000000000000000000, 0.000000000000000000, 0.000000000000000000 ) ) ;
#301 = CARTESIAN_POINT ( 'NONE',  ( 0.2687352311006460659, -1.561910215925068817E-16, -1.275396479223668056 ) ) ;
#302 = VECTOR ( 'NONE', #907, 1000.000000000000000 ) ;
#303 = ADVANCED_FACE ( 'NONE', ( #390 ), #222, .T. ) ;
#304 = AXIS2_PLACEMENT_3D ( 'NONE', #452, #362, #1173 ) ;
#305 = DIRECTION ( 'NONE',  ( -0.000000000000000000, -0.000000000000000000, -1.000000000000000000 ) ) ;
#306 = CARTESIAN_POINT ( 'NONE',  ( 0.000000000000000000, 0.000000000000000000, 2.286000000000000032 ) ) ;
#307 = CARTESIAN_POINT ( 'NONE',  ( 0.5000000000000918154, -3.999999999999869438, 1.999999999999935163 ) ) ;
#308 = DIRECTION ( 'NONE',  ( 1.445602896647339163E-16, -1.000000000000000000, 0.000000000000000000 ) ) ;
#309 = CARTESIAN_POINT ( 'NONE',  ( -0.1021126760563413477, 3.260563380281690016, -1.630281690140846562 ) ) ;
#310 = CARTESIAN_POINT ( 'NONE',  ( 117.5499999999999972, 7.347880794884117764E-17, -0.5999999999999999778 ) ) ;
#311 = APPLICATION_PROTOCOL_DEFINITION ( 'draft international standard', 'automotive_design', 1998, #1055 ) ;
#312 = ORIENTED_EDGE ( 'NONE', *, *, #585, .T. ) ;
#313 = CARTESIAN_POINT ( 'NONE',  ( -1.750000000000000666, 4.850000000000000533, -2.286000000000000032 ) ) ;
#314 =( NAMED_UNIT ( * ) PLANE_ANGLE_UNIT ( ) SI_UNIT ( $, .RADIAN. ) );
#315 = PRODUCT_DEFINITION_CONTEXT ( 'detailed design', #546, 'design' ) ;
#316 = EDGE_CURVE ( 'NONE', #66, #224, #102, .T. ) ;
#317 = ORIENTED_EDGE ( 'NONE', *, *, #677, .F. ) ;
#318 = CIRCLE ( 'NONE', #740, 0.9499999999999723110 ) ;
#319 = DIRECTION ( 'NONE',  ( -0.000000000000000000, -1.000000000000000000, -0.000000000000000000 ) ) ;
#320 = FILL_AREA_STYLE_COLOUR ( '', #331 ) ;
#321 = ORIENTED_EDGE ( 'NONE', *, *, #217, .F. ) ;
#322 = CARTESIAN_POINT ( 'NONE',  ( 4.000000000000000000, 0.000000000000000000, 2.286000000000000032 ) ) ;
#323 = AXIS2_PLACEMENT_3D ( 'NONE', #1022, #121, #231 ) ;
#324 = ORIENTED_EDGE ( 'NONE', *, *, #332, .F. ) ;
#325 = CARTESIAN_POINT ( 'NONE',  ( 0.3136945355869887875, 7.494256357157092374, -0.5348752566402069641 ) ) ;
#326 = ORIENTED_EDGE ( 'NONE', *, *, #139, .T. ) ;
#327 = DIRECTION ( 'NONE',  ( -1.000000000000000000, 0.000000000000000000, 0.000000000000000000 ) ) ;
#328 = CARTESIAN_POINT ( 'NONE',  ( 0.000000000000000000, 4.850000000000000533, 0.000000000000000000 ) ) ;
#329 = VECTOR ( 'NONE', #1124, 1000.000000000000000 ) ;
#330 = ORIENTED_EDGE ( 'NONE', *, *, #1008, .T. ) ;
#331 = COLOUR_RGB ( '',0.1450980392156862586, 0.1568627450980392135, 0.1647058823529411742 ) ;
#332 = EDGE_CURVE ( 'NONE', #655, #1152, #29, .T. ) ;
#333 = FACE_OUTER_BOUND ( 'NONE', #114, .T. ) ;
#334 = ORIENTED_EDGE ( 'NONE', *, *, #668, .F. ) ;
#335 = APPLICATION_PROTOCOL_DEFINITION ( 'draft international standard', 'automotive_design', 1998, #416 ) ;
#336 = EDGE_LOOP ( 'NONE', ( #909, #680, #1149, #1102 ) ) ;
#337 = SURFACE_STYLE_USAGE ( .BOTH. , #1155 ) ;
#338 = CARTESIAN_POINT ( 'NONE',  ( -1.750000000000000666, 4.850000000000000533, -2.286000000000000032 ) ) ;
#339 = CARTESIAN_POINT ( 'NONE',  ( 2.999999999999864109, 6.017322057294549609E-14, -6.162975822039154730E-30 ) ) ;
#340 = EDGE_LOOP ( 'NONE', ( #775, #101, #552, #366 ) ) ;
#341 = MECHANICAL_DESIGN_GEOMETRIC_PRESENTATION_REPRESENTATION (  '', ( #226 ), #11 ) ;
#342 = PRODUCT_DEFINITION_SHAPE ( 'NONE', 'NONE',  #540 ) ;
#343 = ORIENTED_EDGE ( 'NONE', *, *, #1008, .F. ) ;
#344 = APPLICATION_PROTOCOL_DEFINITION ( 'draft international standard', 'automotive_design', 1998, #1112 ) ;
#345 = ADVANCED_FACE ( 'NONE', ( #420 ), #235, .F. ) ;
#346 = DIRECTION ( 'NONE',  ( 0.000000000000000000, 0.000000000000000000, -1.000000000000000000 ) ) ;
#347 = CARTESIAN_POINT ( 'NONE',  ( -0.1021126760563414587, -2.239436619718307764, 1.119718309859154326 ) ) ;
#348 = CIRCLE ( 'NONE', #974, 0.5999999999999999778 ) ;
#349 = AXIS2_PLACEMENT_3D ( 'NONE', #449, #606, #784 ) ;
#350 = CONTEXT_DEPENDENT_SHAPE_REPRESENTATION ( #116, #78 ) ;
#351 = CARTESIAN_POINT ( 'NONE',  ( 0.000000000000000000, 7.500000000000000000, 0.000000000000000000 ) ) ;
#352 = ITEM_DEFINED_TRANSFORMATION ( 'NONE', 'NONE', #51,  #941 ) ;
#353 = CARTESIAN_POINT ( 'NONE',  ( -0.1021126760563413616, -2.720500745945820850E-16, -1.630281690140845896 ) ) ;
#354 = CARTESIAN_POINT ( 'NONE',  ( -0.2000000000000057288, 0.000000000000000000, -0.7500000000000000000 ) ) ;
#355 = VERTEX_POINT ( 'NONE', #590 ) ;
#356 = DIRECTION ( 'NONE',  ( 1.000000000000000000, 0.000000000000000000, -0.000000000000000000 ) ) ;
#357 = CARTESIAN_POINT ( 'NONE',  ( -4.000000000000000000, 0.000000000000000000, 2.286000000000000032 ) ) ;
#358 = AXIS2_PLACEMENT_3D ( 'NONE', #1003, #185, #12 ) ;
#359 = AXIS2_PLACEMENT_3D ( 'NONE', #666, #957, #745 ) ;
#360 = EDGE_CURVE ( 'NONE', #976, #684, #953, .T. ) ;
#361 = ORIENTED_EDGE ( 'NONE', *, *, #491, .F. ) ;
#362 = DIRECTION ( 'NONE',  ( 0.000000000000000000, 0.000000000000000000, 1.000000000000000000 ) ) ;
#363 = DIRECTION ( 'NONE',  ( 1.000000000000000000, 0.000000000000000000, 0.000000000000000000 ) ) ;
#364 = EDGE_CURVE ( 'NONE', #655, #482, #903, .T. ) ;
#365 = SHAPE_REPRESENTATION_RELATIONSHIP ( 'NONE' , 'NONE' ,  #509, #54 ) ;
#366 = ORIENTED_EDGE ( 'NONE', *, *, #1068, .F. ) ;
#367 = STYLED_ITEM ( 'NONE', ( #908 ), #54 ) ;
#368 = DIRECTION ( 'NONE',  ( 1.000000000000000000, 0.000000000000000000, 0.000000000000000000 ) ) ;
#369 =( GEOMETRIC_REPRESENTATION_CONTEXT ( 3 ) GLOBAL_UNCERTAINTY_ASSIGNED_CONTEXT ( ( #859 ) ) GLOBAL_UNIT_ASSIGNED_CONTEXT ( ( #1043, #1058, #150 ) ) REPRESENTATION_CONTEXT ( 'NONE', 'WORKASPACE' ) );
#370 = PRODUCT_DEFINITION ( 'UNKNOWN', '', #394, #615 ) ;
#371 = DIRECTION ( 'NONE',  ( 1.000000000000000000, 4.876213336336211057E-15, 5.192639793547426971E-15 ) ) ;
#372 = ORIENTED_EDGE ( 'NONE', *, *, #1106, .T. ) ;
#373 = CARTESIAN_POINT ( 'NONE',  ( 7.347880794884117764E-17, 4.850000000000000533, 0.5999999999999999778 ) ) ;
#374 = CARTESIAN_POINT ( 'NONE',  ( -1.750000000000000444, 3.350000000000000089, -2.286000000000000032 ) ) ;
#375 =( BOUNDED_SURFACE ( )  B_SPLINE_SURFACE ( 3, 3, ( 
 ( #446, #245, #1169, #1163 ),
 ( #442, #1080, #628, #353 ),
 ( #76, #347, #1062, #527 ),
 ( #805, #978, #613, #711 ) ),
 .UNSPECIFIED., .F., .F., .F. ) 
 B_SPLINE_SURFACE_WITH_KNOTS ( ( 4, 4 ),
 ( 4, 4 ),
 ( 0.000000000000000000, 1.000000000000000000 ),
 ( 0.000000000000000000, 1.000000000000000000 ),
 .UNSPECIFIED. ) 
 GEOMETRIC_REPRESENTATION_ITEM ( )  RATIONAL_B_SPLINE_SURFACE ( (
 ( 1.000000000000000000, 0.3333333333333334259, 0.3333333333333334259, 1.000000000000000000),
 ( 0.8160919540229875091, 0.2720306513409959104, 0.2720306513409959104, 0.8160919540229875091),
 ( 0.8160919540229875091, 0.2720306513409959104, 0.2720306513409959104, 0.8160919540229875091),
 ( 1.000000000000000000, 0.3333333333333334259, 0.3333333333333334259, 1.000000000000000000) ) ) 
 REPRESENTATION_ITEM ( '' )  SURFACE ( )  );
#376 = ORIENTED_EDGE ( 'NONE', *, *, #458, .F. ) ;
#377 = CARTESIAN_POINT ( 'NONE',  ( 4.000000000000000000, 6.344288770224760121, 2.286000000000000032 ) ) ;
#378 = CARTESIAN_POINT ( 'NONE',  ( 0.2500000000000002220, 0.000000000000000000, 0.000000000000000000 ) ) ;
#379 = DIRECTION ( 'NONE',  ( 0.000000000000000000, 0.000000000000000000, 1.000000000000000000 ) ) ;
#380 = ADVANCED_FACE ( 'NONE', ( #50 ), #880, .F. ) ;
#381 = SHAPE_REPRESENTATION ( '228-2500-436-01 Rev1_228-2500-436-01', ( #941 ), #178 ) ;
#382 = VERTEX_POINT ( 'NONE', #310 ) ;
#383 = DIRECTION ( 'NONE',  ( 1.445602896647339163E-16, 1.000000000000000000, -0.000000000000000000 ) ) ;
#384 = CIRCLE ( 'NONE', #746, 2.100000000000000089 ) ;
#385 =( NAMED_UNIT ( * ) SI_UNIT ( $, .STERADIAN. ) SOLID_ANGLE_UNIT ( ) );
#386 = EDGE_LOOP ( 'NONE', ( #376, #138, #529, #994 ) ) ;
#387 = CARTESIAN_POINT ( 'NONE',  ( 0.5000000000000004441, 1.163414459189985682E-16, -0.9499999999999999556 ) ) ;
#388 = DIRECTION ( 'NONE',  ( 0.000000000000000000, 0.000000000000000000, 1.000000000000000000 ) ) ;
#389 = CIRCLE ( 'NONE', #609, 0.8993686908363700550 ) ;
#390 = FACE_OUTER_BOUND ( 'NONE', #742, .T. ) ;
#391 = CARTESIAN_POINT ( 'NONE',  ( -0.5346667145442909330, 7.481739413329378863, 0.3140147453012965828 ) ) ;
#392 = CARTESIAN_POINT ( 'NONE',  ( -140.0110839664589264, 6.676274725047760761, 10.61339247434766087 ) ) ;
#393 = DIRECTION ( 'NONE',  ( 0.000000000000000000, -1.000000000000000000, 0.000000000000000000 ) ) ;
#394 = PRODUCT_DEFINITION_FORMATION_WITH_SPECIFIED_SOURCE ( 'ANY', '', #162, .NOT_KNOWN. ) ;
#395 = CYLINDRICAL_SURFACE ( 'NONE', #1056, 2.000000000000000000 ) ;
#396 = CARTESIAN_POINT ( 'NONE',  ( 0.5000000000000920375, 0.000000000000000000, 0.9500000000000650147 ) ) ;
#397 = DIRECTION ( 'NONE',  ( -0.000000000000000000, 1.000000000000000000, 0.000000000000000000 ) ) ;
#398 = CIRCLE ( 'NONE', #707, 0.5999999999999999778 ) ;
#399 =( NAMED_UNIT ( * ) PLANE_ANGLE_UNIT ( ) SI_UNIT ( $, .RADIAN. ) );
#400 = AXIS2_PLACEMENT_3D ( 'NONE', #972, #720, #1165 ) ;
#401 = LINE ( 'NONE', #579, #156 ) ;
#402 = MANIFOLD_SOLID_BREP ( 'Imported1', #645 ) ;
#403 = CARTESIAN_POINT ( 'NONE',  ( -0.1021126760563414587, 2.239436619718308208, 1.119718309859153438 ) ) ;
#404 = PLANE ( 'NONE',  #7 ) ;
#405 = SURFACE_SIDE_STYLE ('',( #1044 ) ) ;
#406 = ORIENTED_EDGE ( 'NONE', *, *, #699, .F. ) ;
#407 = DIRECTION ( 'NONE',  ( 0.000000000000000000, 0.000000000000000000, -1.000000000000000000 ) ) ;
#408 = PRODUCT_RELATED_PRODUCT_CATEGORY ( 'part', '', ( #702 ) ) ;
#409 = ORIENTED_EDGE ( 'NONE', *, *, #722, .T. ) ;
#410 = FACE_OUTER_BOUND ( 'NONE', #234, .T. ) ;
#411 = ORIENTED_EDGE ( 'NONE', *, *, #459, .T. ) ;
#412 = CARTESIAN_POINT ( 'NONE',  ( 0.5349933317933824872, 7.481715361024050104, -0.3134931207533580566 ) ) ;
#413 = DIRECTION ( 'NONE',  ( 0.000000000000000000, 1.000000000000000222, 0.000000000000000000 ) ) ;
#414 = ORIENTED_EDGE ( 'NONE', *, *, #634, .T. ) ;
#415 = LINE ( 'NONE', #1147, #798 ) ;
#416 = APPLICATION_CONTEXT ( 'automotive_design' ) ;
#417 = VECTOR ( 'NONE', #238, 1000.000000000000000 ) ;
#418 = ORIENTED_EDGE ( 'NONE', *, *, #712, .F. ) ;
#419 = UNCERTAINTY_MEASURE_WITH_UNIT (LENGTH_MEASURE( 1.000000000000000082E-05 ), #914, 'distance_accuracy_value', 'NONE');
#420 = FACE_OUTER_BOUND ( 'NONE', #873, .T. ) ;
#421 = ORIENTED_EDGE ( 'NONE', *, *, #1125, .F. ) ;
#422 = CARTESIAN_POINT ( 'NONE',  ( -4.000000000000000000, 0.000000000000000000, -2.286000000000000032 ) ) ;
#423 = AXIS2_PLACEMENT_3D ( 'NONE', #748, #847, #916 ) ;
#424 = CARTESIAN_POINT ( 'NONE',  ( 2.100000000000000089, 2.571758278209441957E-16, -2.286000000000000032 ) ) ;
#425 = ADVANCED_FACE ( 'NONE', ( #333 ), #404, .F. ) ;
#426 = EDGE_LOOP ( 'NONE', ( #966, #706, #1085, #591 ) ) ;
#427 = EDGE_CURVE ( 'NONE', #1045, #253, #985, .T. ) ;
#428 = FILL_AREA_STYLE ('',( #320 ) ) ;
#429 = PRODUCT ( '228-2500-436-00 Rev1_228-2500-436-00', '228-2500-436-00 Rev1_228-2500-436-00', '', ( #862 ) ) ;
#430 = EDGE_LOOP ( 'NONE', ( #958, #1060, #536, #480 ) ) ;
#431 =( NAMED_UNIT ( * ) SI_UNIT ( $, .STERADIAN. ) SOLID_ANGLE_UNIT ( ) );
#432 = CARTESIAN_POINT ( 'NONE',  ( -4.000000000000000000, 0.000000000000000000, 2.286000000000000032 ) ) ;
#433 = PLANE ( 'NONE',  #400 ) ;
#434 = ORIENTED_EDGE ( 'NONE', *, *, #642, .F. ) ;
#435 = UNCERTAINTY_MEASURE_WITH_UNIT (LENGTH_MEASURE( 1.000000000000000082E-05 ), #21, 'distance_accuracy_value', 'NONE');
#436 = AXIS2_PLACEMENT_3D ( 'NONE', #38, #1018, #653 ) ;
#437 = EDGE_CURVE ( 'NONE', #547, #286, #415, .T. ) ;
#438 = EDGE_LOOP ( 'NONE', ( #659, #876, #45, #1052 ) ) ;
#439 = AXIS2_PLACEMENT_3D ( 'NONE', #240, #861, #143 ) ;
#440 = SHAPE_DEFINITION_REPRESENTATION ( #531, #1078 ) ;
#441 = CARTESIAN_POINT ( 'NONE',  ( 4.595750661335919044E-13, 7.500000000000333955, 0.6000000000041715298 ) ) ;
#442 = CARTESIAN_POINT ( 'NONE',  ( -0.1021126760563413616, 7.239814924062966462E-17, 1.630281690140845896 ) ) ;
#443 = DIRECTION ( 'NONE',  ( 0.000000000000000000, -1.000000000000000000, 0.000000000000000000 ) ) ;
#444 = COLOUR_RGB ( '',0.1450980392156862586, 0.1568627450980392135, 0.1647058823529411742 ) ;
#445 = APPLICATION_PROTOCOL_DEFINITION ( 'draft international standard', 'automotive_design', 1998, #484 ) ;
#446 = CARTESIAN_POINT ( 'NONE',  ( 0.2499999999999988065, 6.422899774855259893E-17, 2.000000000000001332 ) ) ;
#447 = ITEM_DEFINED_TRANSFORMATION ( 'NONE', 'NONE', #455,  #941 ) ;
#448 =( REPRESENTATION_RELATIONSHIP ('NONE','NONE', #221, #381 ) REPRESENTATION_RELATIONSHIP_WITH_TRANSFORMATION ( #263 )SHAPE_REPRESENTATION_RELATIONSHIP( ) );
#449 = CARTESIAN_POINT ( 'NONE',  ( 0.000000000000000000, 0.000000000000000000, 2.286000000000000032 ) ) ;
#450 = AXIS2_PLACEMENT_3D ( 'NONE', #673, #506, #1032 ) ;
#451 = EDGE_LOOP ( 'NONE', ( #343, #414, #276, #90 ) ) ;
#452 = CARTESIAN_POINT ( 'NONE',  ( 0.000000000000000000, 0.000000000000000000, -2.286000000000000032 ) ) ;
#453 = CARTESIAN_POINT ( 'NONE',  ( 2.999999999999984013, 5.161492250957792086E-29, 0.9499999999999722000 ) ) ;
#454 = LINE ( 'NONE', #992, #4 ) ;
#455 = AXIS2_PLACEMENT_3D ( 'NONE', #790, #601, #248 ) ;
#456 = ORIENTED_EDGE ( 'NONE', *, *, #293, .F. ) ;
#457 = CARTESIAN_POINT ( 'NONE',  ( 4.199999999999995737, 0.000000000000000000, 0.000000000000000000 ) ) ;
#458 = EDGE_CURVE ( 'NONE', #1066, #224, #67, .T. ) ;
#459 = EDGE_CURVE ( 'NONE', #641, #1045, #709, .T. ) ;
#460 = DIRECTION ( 'NONE',  ( 0.000000000000000000, 0.000000000000000000, 1.000000000000000000 ) ) ;
#461 = VECTOR ( 'NONE', #553, 1000.000000000000000 ) ;
#462 = VERTEX_POINT ( 'NONE', #432 ) ;
#463 = FACE_BOUND ( 'NONE', #336, .T. ) ;
#464 = CARTESIAN_POINT ( 'NONE',  ( -117.5499999999999972, 0.000000000000000000, 0.000000000000000000 ) ) ;
#465 = FILL_AREA_STYLE ('',( #829 ) ) ;
#466 = EDGE_CURVE ( 'NONE', #882, #535, #126, .T. ) ;
#467 = ORIENTED_EDGE ( 'NONE', *, *, #93, .T. ) ;
#468 = CARTESIAN_POINT ( 'NONE',  ( 0.5000000000000918154, 3.999999999999869438, -1.999999999999935385 ) ) ;
#469 = FACE_OUTER_BOUND ( 'NONE', #960, .T. ) ;
#470 = VECTOR ( 'NONE', #783, 1000.000000000000000 ) ;
#471 = CARTESIAN_POINT ( 'NONE',  ( -117.5499999999999972, 7.347880794884117764E-17, -0.5999999999999999778 ) ) ;
#472 = EDGE_LOOP ( 'NONE', ( #782, #797 ) ) ;
#473 = DIRECTION ( 'NONE',  ( 0.000000000000000000, 0.000000000000000000, 1.000000000000000000 ) ) ;
#474 = TOROIDAL_SURFACE ( 'NONE', #63, -8.950628149161543590, 9.900628149161503799 ) ;
#475 = DIRECTION ( 'NONE',  ( -1.000000000000000000, 0.000000000000000000, 0.000000000000000000 ) ) ;
#476 = EDGE_CURVE ( 'NONE', #49, #66, #237, .T. ) ;
#477 = LINE ( 'NONE', #902, #1164 ) ;
#478 = CIRCLE ( 'NONE', #171, 2.100000000000000089 ) ;
#479 = VECTOR ( 'NONE', #290, 1000.000000000000000 ) ;
#480 = ORIENTED_EDGE ( 'NONE', *, *, #929, .F. ) ;
#481 = CARTESIAN_POINT ( 'NONE',  ( 0.2687352311006460659, -2.550792958447335668, -1.275396479223667834 ) ) ;
#482 = VERTEX_POINT ( 'NONE', #441 ) ;
#483 = CARTESIAN_POINT ( 'NONE',  ( 2.100000000000000089, 2.571758278209441957E-16, 2.286000000000000032 ) ) ;
#484 = APPLICATION_CONTEXT ( 'automotive_design' ) ;
#485 = CARTESIAN_POINT ( 'NONE',  ( 0.5000000000000004441, 0.000000000000000000, 0.000000000000000000 ) ) ;
#486 = CARTESIAN_POINT ( 'NONE',  ( 0.5000000000000920375, -1.900000000000130029, 0.9500000000000651257 ) ) ;
#487 = FACE_OUTER_BOUND ( 'NONE', #800, .T. ) ;
#488 = AXIS2_PLACEMENT_3D ( 'NONE', #753, #300, #738 ) ;
#489 = DIRECTION ( 'NONE',  ( 1.000000000000000000, 0.000000000000000000, 0.000000000000000000 ) ) ;
#490 = CARTESIAN_POINT ( 'NONE',  ( 4.199999999999995737, 0.000000000000000000, 2.000000000000000000 ) ) ;
#491 = EDGE_CURVE ( 'NONE', #562, #71, #389, .T. ) ;
#492 = DIRECTION ( 'NONE',  ( 0.000000000000000000, 0.000000000000000000, 1.000000000000000000 ) ) ;
#493 = DIRECTION ( 'NONE',  ( 0.000000000000000000, 0.000000000000000000, 1.000000000000000000 ) ) ;
#494 = CLOSED_SHELL ( 'NONE', ( #842, #729, #884, #906, #303, #841, #578, #380, #1089, #425, #886, #627, #33, #86 ) ) ;
#495 = FACE_OUTER_BOUND ( 'NONE', #870, .T. ) ;
#496 = ADVANCED_BREP_SHAPE_REPRESENTATION ( '', ( #25, #941 ), #178 ) ;
#497 = CARTESIAN_POINT ( 'NONE',  ( -0.1021126760563414587, 2.239436619718307320, -1.119718309859154326 ) ) ;
#498 = CARTESIAN_POINT ( 'NONE',  ( 0.5999436111853565512, 7.475966002236344110, -0.1568219647242036774 ) ) ;
#499 =( BOUNDED_SURFACE ( )  B_SPLINE_SURFACE ( 3, 3, ( 
 ( #206, #468, #831, #940 ),
 ( #760, #214, #581, #127 ),
 ( #922, #1119, #15, #1038 ),
 ( #287, #1103, #854, #570 ) ),
 .UNSPECIFIED., .F., .F., .F. ) 
 B_SPLINE_SURFACE_WITH_KNOTS ( ( 4, 4 ),
 ( 4, 4 ),
 ( 0.000000000000000000, 1.000000000000000000 ),
 ( 0.000000000000000000, 1.000000000000000000 ),
 .UNSPECIFIED. ) 
 GEOMETRIC_REPRESENTATION_ITEM ( )  RATIONAL_B_SPLINE_SURFACE ( (
 ( 1.000000000000000000, 0.3333333333333334259, 0.3333333333333334259, 1.000000000000000000),
 ( 0.8767380420913336581, 0.2922460140304446452, 0.2922460140304446452, 0.8767380420913336581),
 ( 0.8767380420913336581, 0.2922460140304446452, 0.2922460140304446452, 0.8767380420913336581),
 ( 1.000000000000000000, 0.3333333333333334259, 0.3333333333333334259, 1.000000000000000000) ) ) 
 REPRESENTATION_ITEM ( '' )  SURFACE ( )  );
#500 = AXIS2_PLACEMENT_3D ( 'NONE', #295, #397, #215 ) ;
#501 = APPLICATION_PROTOCOL_DEFINITION ( 'draft international standard', 'automotive_design', 1998, #867 ) ;
#502 = EDGE_LOOP ( 'NONE', ( #896, #1063 ) ) ;
#503 = CIRCLE ( 'NONE', #1007, 0.5999999999999999778 ) ;
#504 = CARTESIAN_POINT ( 'NONE',  ( 2.368286583846122402E-17, 7.500000000000000000, -0.5999999999999999778 ) ) ;
#505 = ORIENTED_EDGE ( 'NONE', *, *, #123, .T. ) ;
#506 = DIRECTION ( 'NONE',  ( -1.000000000000000000, -0.000000000000000000, 0.000000000000000000 ) ) ;
#507 = CARTESIAN_POINT ( 'NONE',  ( 0.5363649185556312871, 7.481637635605896897, 0.3121211006322544557 ) ) ;
#508 = DIRECTION ( 'NONE',  ( 0.000000000000000000, 0.000000000000000000, 1.000000000000000222 ) ) ;
#509 = SHAPE_REPRESENTATION ( '228-2500-449 Rev1_228-2500-449', ( #941 ), #218 ) ;
#510 = ORIENTED_EDGE ( 'NONE', *, *, #604, .F. ) ;
#511 = DIRECTION ( 'NONE',  ( 0.000000000000000000, 0.000000000000000000, 1.000000000000000000 ) ) ;
#512 = ORIENTED_EDGE ( 'NONE', *, *, #491, .T. ) ;
#513 = ORIENTED_EDGE ( 'NONE', *, *, #604, .T. ) ;
#514 = AXIS2_PLACEMENT_3D ( 'NONE', #883, #891, #794 ) ;
#515 = ORIENTED_EDGE ( 'NONE', *, *, #83, .F. ) ;
#516 = EDGE_CURVE ( 'NONE', #739, #97, #717, .T. ) ;
#517 = CARTESIAN_POINT ( 'NONE',  ( 4.000000000000003553, 6.017322057294549609E-14, -6.162975822039154730E-30 ) ) ;
#518 = EDGE_CURVE ( 'NONE', #915, #641, #971, .T. ) ;
#519 = CARTESIAN_POINT ( 'NONE',  ( -1.750000000000000444, 3.350000000000000089, -2.286000000000000032 ) ) ;
#520 = SURFACE_STYLE_FILL_AREA ( #149 ) ;
#521 = EDGE_CURVE ( 'NONE', #730, #66, #152, .T. ) ;
#522 = UNCERTAINTY_MEASURE_WITH_UNIT (LENGTH_MEASURE( 1.000000000000000082E-05 ), #1051, 'distance_accuracy_value', 'NONE');
#523 = SURFACE_STYLE_FILL_AREA ( #948 ) ;
#524 = ORIENTED_EDGE ( 'NONE', *, *, #1068, .T. ) ;
#525 = LINE ( 'NONE', #1162, #197 ) ;
#526 = CIRCLE ( 'NONE', #16, 2.000000000000000000 ) ;
#527 = CARTESIAN_POINT ( 'NONE',  ( -0.1021126760563414448, -2.208053028555439392E-16, -1.119718309859154104 ) ) ;
#528 = EDGE_CURVE ( 'NONE', #49, #1066, #525, .T. ) ;
#529 = ORIENTED_EDGE ( 'NONE', *, *, #476, .T. ) ;
#530 =( NAMED_UNIT ( * ) SI_UNIT ( $, .STERADIAN. ) SOLID_ANGLE_UNIT ( ) );
#531 = PRODUCT_DEFINITION_SHAPE ( 'NONE', 'NONE',  #1041 ) ;
#532 = CARTESIAN_POINT ( 'NONE',  ( 1.749999999999999334, 4.850000000000000533, -2.286000000000000032 ) ) ;
#533 = CARTESIAN_POINT ( 'NONE',  ( 0.2500000000000002220, 0.000000000000000000, 0.000000000000000000 ) ) ;
#534 = DIRECTION ( 'NONE',  ( -0.000000000000000000, -0.000000000000000000, -1.000000000000000000 ) ) ;
#535 = VERTEX_POINT ( 'NONE', #60 ) ;
#536 = ORIENTED_EDGE ( 'NONE', *, *, #1020, .F. ) ;
#537 = VECTOR ( 'NONE', #146, 1000.000000000000000 ) ;
#538 = ITEM_DEFINED_TRANSFORMATION ( 'NONE', 'NONE', #1153,  #941 ) ;
#539 = STYLED_ITEM ( 'NONE', ( #73 ), #25 ) ;
#540 = PRODUCT_DEFINITION ( 'UNKNOWN', '', #968, #715 ) ;
#541 = CIRCLE ( 'NONE', #725, 0.9062499999999998890 ) ;
#542 = DIRECTION ( 'NONE',  ( -0.000000000000000000, -1.000000000000000000, -0.000000000000000000 ) ) ;
#543 = CARTESIAN_POINT ( 'NONE',  ( 0.000000000000000000, 0.000000000000000000, -2.286000000000000032 ) ) ;
#544 = AXIS2_PLACEMENT_3D ( 'NONE', #306, #593, #947 ) ;
#545 = CARTESIAN_POINT ( 'NONE',  ( 2.999999999999864109, 6.017322057294549609E-14, -8.950628149161543590 ) ) ;
#546 = APPLICATION_CONTEXT ( 'automotive_design' ) ;
#547 = VERTEX_POINT ( 'NONE', #322 ) ;
#548 = EDGE_CURVE ( 'NONE', #887, #571, #31, .T. ) ;
#549 = PLANE ( 'NONE',  #759 ) ;
#550 = VECTOR ( 'NONE', #244, 1000.000000000000000 ) ;
#551 = DIRECTION ( 'NONE',  ( -1.000000000000000000, 0.000000000000000000, 0.000000000000000000 ) ) ;
#552 = ORIENTED_EDGE ( 'NONE', *, *, #1139, .T. ) ;
#553 = DIRECTION ( 'NONE',  ( -0.000000000000000000, -0.000000000000000000, -1.000000000000000000 ) ) ;
#554 = CIRCLE ( 'NONE', #857, 0.9499999999999723110 ) ;
#555 = EDGE_CURVE ( 'NONE', #976, #382, #147, .T. ) ;
#556 = FACE_OUTER_BOUND ( 'NONE', #236, .T. ) ;
#557 = VECTOR ( 'NONE', #1002, 1000.000000000000000 ) ;
#558 = VERTEX_POINT ( 'NONE', #977 ) ;
#559 = LINE ( 'NONE', #354, #975 ) ;
#560 = CARTESIAN_POINT ( 'NONE',  ( 4.000000000000003553, 6.028646174532930203E-14, -0.8993686908363700550 ) ) ;
#561 =( NAMED_UNIT ( * ) SI_UNIT ( $, .STERADIAN. ) SOLID_ANGLE_UNIT ( ) );
#562 = VERTEX_POINT ( 'NONE', #160 ) ;
#563 = FACE_OUTER_BOUND ( 'NONE', #426, .T. ) ;
#564 = FILL_AREA_STYLE ('',( #1115 ) ) ;
#565 = ADVANCED_FACE ( 'NONE', ( #74 ), #1076, .T. ) ;
#566 = MECHANICAL_DESIGN_GEOMETRIC_PRESENTATION_REPRESENTATION (  '', ( #367 ), #716 ) ;
#567 = CARTESIAN_POINT ( 'NONE',  ( 0.000000000000000000, 0.000000000000000000, 2.286000000000000032 ) ) ;
#568 = DIRECTION ( 'NONE',  ( 0.000000000000000000, -1.000000000000000000, 0.000000000000000000 ) ) ;
#569 = EDGE_LOOP ( 'NONE', ( #155, #705, #1171, #312 ) ) ;
#570 = CARTESIAN_POINT ( 'NONE',  ( 0.5000000000000920375, 2.326828918380130123E-16, 0.9500000000000650147 ) ) ;
#571 = VERTEX_POINT ( 'NONE', #387 ) ;
#572 = CARTESIAN_POINT ( 'NONE',  ( 2.999999999999988898, 6.711889074043079042E-15, -8.808942506911560211E-17 ) ) ;
#573 = CARTESIAN_POINT ( 'NONE',  ( 4.199999999999995737, 0.000000000000000000, 0.9499999999999999556 ) ) ;
#574 = VECTOR ( 'NONE', #305, 1000.000000000000000 ) ;
#575 = UNCERTAINTY_MEASURE_WITH_UNIT (LENGTH_MEASURE( 1.000000000000000082E-05 ), #793, 'distance_accuracy_value', 'NONE');
#576 = CARTESIAN_POINT ( 'NONE',  ( -1.750000000000000666, 4.850000000000000533, 2.286000000000000032 ) ) ;
#577 = CARTESIAN_POINT ( 'NONE',  ( -0.3139544922126061843, 7.494244846647556635, -0.5347286943501048384 ) ) ;
#578 = ADVANCED_FACE ( 'NONE', ( #130, #931 ), #1122, .T. ) ;
#579 = CARTESIAN_POINT ( 'NONE',  ( -1.750000000000000666, 4.850000000000000533, 2.286000000000000032 ) ) ;
#580 = CARTESIAN_POINT ( 'NONE',  ( -4.000000000000000000, 0.000000000000000000, -2.286000000000000032 ) ) ;
#581 = CARTESIAN_POINT ( 'NONE',  ( 0.2687352311006459549, 3.349207041552663355, 1.674603520776331234 ) ) ;
#582 =( BOUNDED_SURFACE ( )  B_SPLINE_SURFACE ( 3, 3, ( 
 ( #1037, #663, #219, #764 ),
 ( #589, #309, #133, #1040 ),
 ( #136, #497, #403, #858 ),
 ( #41, #118, #934, #844 ) ),
 .UNSPECIFIED., .F., .F., .F. ) 
 B_SPLINE_SURFACE_WITH_KNOTS ( ( 4, 4 ),
 ( 4, 4 ),
 ( 0.000000000000000000, 1.000000000000000000 ),
 ( 0.000000000000000000, 1.000000000000000000 ),
 .UNSPECIFIED. ) 
 GEOMETRIC_REPRESENTATION_ITEM ( )  RATIONAL_B_SPLINE_SURFACE ( (
 ( 1.000000000000000000, 0.3333333333333334259, 0.3333333333333334259, 1.000000000000000000),
 ( 0.8160919540229875091, 0.2720306513409959104, 0.2720306513409959104, 0.8160919540229875091),
 ( 0.8160919540229875091, 0.2720306513409959104, 0.2720306513409959104, 0.8160919540229875091),
 ( 1.000000000000000000, 0.3333333333333334259, 0.3333333333333334259, 1.000000000000000000) ) ) 
 REPRESENTATION_ITEM ( '' )  SURFACE ( )  );
#583 = PLANE ( 'NONE',  #500 ) ;
#584 =( NAMED_UNIT ( * ) SI_UNIT ( $, .STERADIAN. ) SOLID_ANGLE_UNIT ( ) );
#585 = EDGE_CURVE ( 'NONE', #224, #1159, #401, .T. ) ;
#586 = DIRECTION ( 'NONE',  ( 0.000000000000000000, 0.000000000000000000, -1.000000000000000000 ) ) ;
#587 = CIRCLE ( 'NONE', #768, 4.000000000000000000 ) ;
#588 = COLOUR_RGB ( '',0.6862745098039215730, 0.6078431372549019107, 0.5294117647058823595 ) ;
#589 = CARTESIAN_POINT ( 'NONE',  ( -0.1021126760563413616, -3.080721426025028638E-16, -1.630281690140845896 ) ) ;
#590 = CARTESIAN_POINT ( 'NONE',  ( 2.999999999999993339, 1.163414459190956721E-16, -0.9499999999999724221 ) ) ;
#591 = ORIENTED_EDGE ( 'NONE', *, *, #1139, .F. ) ;
#592 = DIRECTION ( 'NONE',  ( 1.000000000000000000, 0.000000000000000000, -0.000000000000000000 ) ) ;
#593 = DIRECTION ( 'NONE',  ( 0.000000000000000000, 0.000000000000000000, 1.000000000000000000 ) ) ;
#594 = CARTESIAN_POINT ( 'NONE',  ( -0.2000000000000057288, 0.000000000000000000, 0.000000000000000000 ) ) ;
#595 = SURFACE_STYLE_USAGE ( .BOTH. , #405 ) ;
#596 = ORIENTED_EDGE ( 'NONE', *, *, #123, .F. ) ;
#597 = CARTESIAN_POINT ( 'NONE',  ( 0.000000000000000000, 4.850000000000000533, 0.000000000000000000 ) ) ;
#598 = ORIENTED_EDGE ( 'NONE', *, *, #161, .F. ) ;
#599 = ORIENTED_EDGE ( 'NONE', *, *, #521, .T. ) ;
#600 = CARTESIAN_POINT ( 'NONE',  ( 0.1566673578596663452, 7.499999999999982236, 0.5999999999998141265 ) ) ;
#601 = DIRECTION ( 'NONE',  ( 0.000000000000000000, 0.000000000000000000, 1.000000000000000222 ) ) ;
#602 = AXIS2_PLACEMENT_3D ( 'NONE', #35, #951, #678 ) ;
#603 = EDGE_LOOP ( 'NONE', ( #411, #510, #515, #810 ) ) ;
#604 = EDGE_CURVE ( 'NONE', #462, #1045, #117, .T. ) ;
#605 = CARTESIAN_POINT ( 'NONE',  ( -4.000000000000000000, 6.344288770224760121, 2.286000000000000032 ) ) ;
#606 = DIRECTION ( 'NONE',  ( 0.000000000000000000, 0.000000000000000000, 1.000000000000000000 ) ) ;
#607 = DIRECTION ( 'NONE',  ( 0.000000000000000000, 0.000000000000000000, 1.000000000000000000 ) ) ;
#608 = PRESENTATION_STYLE_ASSIGNMENT (( #773 ) ) ;
#609 = AXIS2_PLACEMENT_3D ( 'NONE', #517, #327, #511 ) ;
#610 = ORIENTED_EDGE ( 'NONE', *, *, #723, .T. ) ;
#611 = CARTESIAN_POINT ( 'NONE',  ( 0.000000000000000000, 0.000000000000000000, -2.286000000000000032 ) ) ;
#612 = PRODUCT ( '228-2500-436', '228-2500-436', '', ( #698 ) ) ;
#613 = CARTESIAN_POINT ( 'NONE',  ( 0.2499999999999987232, -1.499999999999996669, -0.7499999999999980016 ) ) ;
#614 = VERTEX_POINT ( 'NONE', #1039 ) ;
#615 = PRODUCT_DEFINITION_CONTEXT ( 'detailed design', #1112, 'design' ) ;
#616 = ORIENTED_EDGE ( 'NONE', *, *, #699, .T. ) ;
#617 = VECTOR ( 'NONE', #816, 1000.000000000000000 ) ;
#618 = DIRECTION ( 'NONE',  ( 1.000000000000000000, 0.000000000000000000, 0.000000000000000000 ) ) ;
#619 = CIRCLE ( 'NONE', #40, 7.500000000000000000 ) ;
#620 = CARTESIAN_POINT ( 'NONE',  ( -0.2000000000000057288, 0.000000000000000000, 0.000000000000000000 ) ) ;
#621 = ORIENTED_EDGE ( 'NONE', *, *, #208, .T. ) ;
#622 = ORIENTED_EDGE ( 'NONE', *, *, #668, .T. ) ;
#623 = CONTEXT_DEPENDENT_SHAPE_REPRESENTATION ( #448, #801 ) ;
#624 = CARTESIAN_POINT ( 'NONE',  ( 0.2500000000000002220, 9.184850993605149670E-17, 0.7500000000000000000 ) ) ;
#625 = STYLED_ITEM ( 'NONE', ( #158 ), #1035 ) ;
#626 = PRODUCT_CONTEXT ( 'NONE', #923, 'mechanical' ) ;
#627 = ADVANCED_FACE ( 'NONE', ( #756 ), #682, .F. ) ;
#628 = CARTESIAN_POINT ( 'NONE',  ( -0.1021126760563413477, -3.260563380281691348, -1.630281690140845008 ) ) ;
#629 = VECTOR ( 'NONE', #850, 1000.000000000000000 ) ;
#630 = CIRCLE ( 'NONE', #358, 9.900628149161503799 ) ;
#631 = CARTESIAN_POINT ( 'NONE',  ( 4.000000000000003553, 0.000000000000000000, 0.000000000000000000 ) ) ;
#632 = CIRCLE ( 'NONE', #323, 0.5999999999999999778 ) ;
#633 = ADVANCED_FACE ( 'NONE', ( #763 ), #1028, .F. ) ;
#634 = EDGE_CURVE ( 'NONE', #1154, #1019, #209, .T. ) ;
#635 = VERTEX_POINT ( 'NONE', #225 ) ;
#636 = DIRECTION ( 'NONE',  ( 0.000000000000000000, 0.000000000000000000, 1.000000000000000000 ) ) ;
#637 = CIRCLE ( 'NONE', #488, 0.8993686908363700550 ) ;
#638 = CARTESIAN_POINT ( 'NONE',  ( 4.199999999999995737, 2.449293598294706414E-16, -2.000000000000000000 ) ) ;
#639 =( NAMED_UNIT ( * ) SI_UNIT ( $, .STERADIAN. ) SOLID_ANGLE_UNIT ( ) );
#640 = AXIS2_PLACEMENT_3D ( 'NONE', #1121, #927, #284 ) ;
#641 = VERTEX_POINT ( 'NONE', #1047 ) ;
#642 = EDGE_CURVE ( 'NONE', #535, #882, #689, .T. ) ;
#643 = DIRECTION ( 'NONE',  ( 1.000000000000000000, 0.000000000000000000, 0.000000000000000000 ) ) ;
#644 = CARTESIAN_POINT ( 'NONE',  ( 0.5000000000000004441, 0.000000000000000000, 0.9499999999999999556 ) ) ;
#645 = CLOSED_SHELL ( 'NONE', ( #1097, #291, #762, #752, #85, #565, #345, #955, #799, #173, #1059, #932, #265 ) ) ;
#646 = ORIENTED_EDGE ( 'NONE', *, *, #993, .F. ) ;
#647 = SURFACE_STYLE_USAGE ( .BOTH. , #918 ) ;
#648 = CARTESIAN_POINT ( 'NONE',  ( 117.5499999999999972, 0.000000000000000000, 0.5999999999999999778 ) ) ;
#649 = DIRECTION ( 'NONE',  ( 1.000000000000000000, 0.000000000000000000, 0.000000000000000000 ) ) ;
#650 =( NAMED_UNIT ( * ) PLANE_ANGLE_UNIT ( ) SI_UNIT ( $, .RADIAN. ) );
#651 = ORIENTED_EDGE ( 'NONE', *, *, #1057, .T. ) ;
#652 = CARTESIAN_POINT ( 'NONE',  ( 4.000000000000000000, 0.000000000000000000, -2.286000000000000032 ) ) ;
#653 = DIRECTION ( 'NONE',  ( 1.000000000000000000, 0.000000000000000000, 0.000000000000000000 ) ) ;
#654 = DIRECTION ( 'NONE',  ( -0.000000000000000000, -0.000000000000000000, -1.000000000000000000 ) ) ;
#655 = VERTEX_POINT ( 'NONE', #504 ) ;
#656 = FACE_OUTER_BOUND ( 'NONE', #692, .T. ) ;
#657 = PRODUCT_RELATED_PRODUCT_CATEGORY ( 'part', '', ( #162 ) ) ;
#658 =( NAMED_UNIT ( * ) SI_UNIT ( $, .STERADIAN. ) SOLID_ANGLE_UNIT ( ) );
#659 = ORIENTED_EDGE ( 'NONE', *, *, #427, .F. ) ;
#660 = COLOUR_RGB ( '',0.6862745098039215730, 0.6078431372549019107, 0.5294117647058823595 ) ;
#661 = DIRECTION ( 'NONE',  ( -1.000000000000000000, -0.000000000000000000, 0.000000000000000000 ) ) ;
#662 = AXIS2_PLACEMENT_3D ( 'NONE', #533, #1061, #1156 ) ;
#663 = CARTESIAN_POINT ( 'NONE',  ( 0.2499999999999988343, 4.000000000000001776, -2.000000000000002220 ) ) ;
#664 = DIRECTION ( 'NONE',  ( 1.000000000000000000, 0.000000000000000000, 0.000000000000000000 ) ) ;
#665 = CARTESIAN_POINT ( 'NONE',  ( -0.5998738244796234520, 7.475971603121485565, 0.1589084681641880215 ) ) ;
#666 = CARTESIAN_POINT ( 'NONE',  ( 0.000000000000000000, 0.000000000000000000, 2.286000000000000032 ) ) ;
#667 = AXIS2_PLACEMENT_3D ( 'NONE', #567, #99, #732 ) ;
#668 = EDGE_CURVE ( 'NONE', #684, #107, #632, .T. ) ;
#669 = AXIS2_PLACEMENT_3D ( 'NONE', #519, #878, #991 ) ;
#670 = DIRECTION ( 'NONE',  ( 0.000000000000000000, 0.000000000000000000, 1.000000000000000000 ) ) ;
#671 = EDGE_CURVE ( 'NONE', #635, #730, #675, .T. ) ;
#672 = CARTESIAN_POINT ( 'NONE',  ( -117.5499999999999972, 0.000000000000000000, 0.5999999999999999778 ) ) ;
#673 = CARTESIAN_POINT ( 'NONE',  ( 4.000000000000003553, 0.000000000000000000, 0.000000000000000000 ) ) ;
#674 = CARTESIAN_POINT ( 'NONE',  ( 0.000000000000000000, 0.000000000000000000, 2.286000000000000032 ) ) ;
#675 = LINE ( 'NONE', #1110, #479 ) ;
#676 = STYLED_ITEM ( 'NONE', ( #838 ), #496 ) ;
#677 = EDGE_CURVE ( 'NONE', #792, #558, #1141, .T. ) ;
#678 = DIRECTION ( 'NONE',  ( -1.000000000000000000, 0.000000000000000000, 0.000000000000000000 ) ) ;
#679 = DIRECTION ( 'NONE',  ( 1.000000000000000000, -1.445602896647339163E-16, 0.000000000000000000 ) ) ;
#680 = ORIENTED_EDGE ( 'NONE', *, *, #293, .T. ) ;
#681 = PRESENTATION_LAYER_ASSIGNMENT (  '', '', ( #539 ) ) ;
#682 = PLANE ( 'NONE',  #64 ) ;
#683 = VECTOR ( 'NONE', #23, 1000.000000000000000 ) ;
#684 = VERTEX_POINT ( 'NONE', #672 ) ;
#685 = ORIENTED_EDGE ( 'NONE', *, *, #1172, .F. ) ;
#686 = DIRECTION ( 'NONE',  ( 1.000000000000000000, 0.000000000000000000, -0.000000000000000000 ) ) ;
#687 = VERTEX_POINT ( 'NONE', #1036 ) ;
#688 = CIRCLE ( 'NONE', #780, 2.000000000000000000 ) ;
#689 = CIRCLE ( 'NONE', #172, 0.7500000000000000000 ) ;
#690 = ORIENTED_EDGE ( 'NONE', *, *, #297, .T. ) ;
#691 = DIRECTION ( 'NONE',  ( -1.000000000000000000, 0.000000000000000000, 0.000000000000000000 ) ) ;
#692 = EDGE_LOOP ( 'NONE', ( #70, #59, #19, #282 ) ) ;
#693 = CARTESIAN_POINT ( 'NONE',  ( 98.43891603354107644, 6.676274725047760761, 10.61339247434766087 ) ) ;
#694 = ORIENTED_EDGE ( 'NONE', *, *, #970, .F. ) ;
#695 = DIRECTION ( 'NONE',  ( 1.000000000000000000, 0.000000000000000000, 0.000000000000000000 ) ) ;
#696 = DIRECTION ( 'NONE',  ( 0.000000000000000000, -1.000000000000000000, 0.000000000000000000 ) ) ;
#697 = ORIENTED_EDGE ( 'NONE', *, *, #1057, .F. ) ;
#698 = PRODUCT_CONTEXT ( 'NONE', #416, 'mechanical' ) ;
#699 = EDGE_CURVE ( 'NONE', #687, #1019, #203, .T. ) ;
#700 = VERTEX_POINT ( 'NONE', #483 ) ;
#701 = DIRECTION ( 'NONE',  ( 1.445602896647339163E-16, 1.000000000000000000, -0.000000000000000000 ) ) ;
#702 = PRODUCT ( '228-2500-ROPE-OVERMOLD-MASTER Rev1_228-3201-ROPE-OVERMOLD-MASTER', '228-2500-ROPE-OVERMOLD-MASTER Rev1_228-3201-ROPE-OVERMOLD-MASTER', '', ( #72 ) ) ;
#703 = DIRECTION ( 'NONE',  ( 0.000000000000000000, 0.000000000000000000, -1.000000000000000000 ) ) ;
#704 = PRODUCT_DEFINITION_FORMATION_WITH_SPECIFIED_SOURCE ( 'ANY', '', #702, .NOT_KNOWN. ) ;
#705 = ORIENTED_EDGE ( 'NONE', *, *, #851, .F. ) ;
#706 = ORIENTED_EDGE ( 'NONE', *, *, #260, .F. ) ;
#707 = AXIS2_PLACEMENT_3D ( 'NONE', #464, #649, #6 ) ;
#708 = FILL_AREA_STYLE ('',( #890 ) ) ;
#709 = LINE ( 'NONE', #422, #470 ) ;
#710 = CIRCLE ( 'NONE', #190, 2.000000000000000000 ) ;
#711 = CARTESIAN_POINT ( 'NONE',  ( 0.2499999999999986955, -1.836970198721025990E-16, -0.7499999999999983347 ) ) ;
#712 = EDGE_CURVE ( 'NONE', #141, #355, #318, .T. ) ;
#713 = APPLICATION_PROTOCOL_DEFINITION ( 'draft international standard', 'automotive_design', 1998, #923 ) ;
#714 = CARTESIAN_POINT ( 'NONE',  ( -1.750000000000000666, 4.850000000000000533, -2.286000000000000032 ) ) ;
#715 = PRODUCT_DEFINITION_CONTEXT ( 'detailed design', #484, 'design' ) ;
#716 =( GEOMETRIC_REPRESENTATION_CONTEXT ( 3 ) GLOBAL_UNCERTAINTY_ASSIGNED_CONTEXT ( ( #419 ) ) GLOBAL_UNIT_ASSIGNED_CONTEXT ( ( #914, #650, #561 ) ) REPRESENTATION_CONTEXT ( 'NONE', 'WORKASPACE' ) );
#717 = CIRCLE ( 'NONE', #88, 2.100000000000000089 ) ;
#718 = CONTEXT_DEPENDENT_SHAPE_REPRESENTATION ( #944, #68 ) ;
#719 = AXIS2_PLACEMENT_3D ( 'NONE', #1069, #618, #346 ) ;
#720 = DIRECTION ( 'NONE',  ( -1.000000000000000000, 0.000000000000000000, 0.000000000000000000 ) ) ;
#721 = EDGE_CURVE ( 'NONE', #482, #243, #216, .T. ) ;
#722 = EDGE_CURVE ( 'NONE', #62, #1159, #298, .T. ) ;
#723 = EDGE_CURVE ( 'NONE', #243, #1152, #777, .T. ) ;
#724 = ORIENTED_EDGE ( 'NONE', *, *, #1, .F. ) ;
#725 = AXIS2_PLACEMENT_3D ( 'NONE', #823, #1025, #473 ) ;
#726 = FACE_BOUND ( 'NONE', #472, .T. ) ;
#727 = CARTESIAN_POINT ( 'NONE',  ( 4.199999999999995737, 0.000000000000000000, 0.000000000000000000 ) ) ;
#728 = CARTESIAN_POINT ( 'NONE',  ( -1.750000000000000444, 3.350000000000000089, 2.286000000000000032 ) ) ;
#729 = ADVANCED_FACE ( 'NONE', ( #495 ), #856, .F. ) ;
#730 = VERTEX_POINT ( 'NONE', #1148 ) ;
#731 = FACE_OUTER_BOUND ( 'NONE', #164, .T. ) ;
#732 = DIRECTION ( 'NONE',  ( 1.000000000000000000, 0.000000000000000000, 0.000000000000000000 ) ) ;
#733 = LINE ( 'NONE', #747, #821 ) ;
#734 = ORIENTED_EDGE ( 'NONE', *, *, #56, .T. ) ;
#735 = PRESENTATION_LAYER_ASSIGNMENT (  '', '', ( #824 ) ) ;
#736 = CARTESIAN_POINT ( 'NONE',  ( 0.000000000000000000, 0.000000000000000000, -2.286000000000000032 ) ) ;
#737 = DIRECTION ( 'NONE',  ( 0.000000000000000000, 0.000000000000000000, -1.000000000000000000 ) ) ;
#738 = DIRECTION ( 'NONE',  ( 0.000000000000000000, 0.000000000000000000, 1.000000000000000000 ) ) ;
#739 = VERTEX_POINT ( 'NONE', #424 ) ;
#740 = AXIS2_PLACEMENT_3D ( 'NONE', #572, #864, #46 ) ;
#741 = CARTESIAN_POINT ( 'NONE',  ( 4.000000000000000000, 6.344288770224760121, 2.286000000000000032 ) ) ;
#742 = EDGE_LOOP ( 'NONE', ( #1109, #963, #232, #513 ) ) ;
#743 = CARTESIAN_POINT ( 'NONE',  ( 0.2687352311006459549, 0.000000000000000000, 1.674603520776331678 ) ) ;
#744 = SHAPE_REPRESENTATION_RELATIONSHIP ( 'NONE' , 'NONE' ,  #381, #496 ) ;
#745 = DIRECTION ( 'NONE',  ( -1.000000000000000000, 0.000000000000000000, 0.000000000000000000 ) ) ;
#746 = AXIS2_PLACEMENT_3D ( 'NONE', #543, #636, #643 ) ;
#747 = CARTESIAN_POINT ( 'NONE',  ( -1.750000000000000444, 3.350000000000000089, 2.286000000000000032 ) ) ;
#748 = CARTESIAN_POINT ( 'NONE',  ( 0.000000000000000000, 0.000000000000000000, 2.286000000000000032 ) ) ;
#749 = ORIENTED_EDGE ( 'NONE', *, *, #153, .F. ) ;
#750 = CARTESIAN_POINT ( 'NONE',  ( 4.000000000000003553, 0.000000000000000000, 0.000000000000000000 ) ) ;
#751 = VECTOR ( 'NONE', #701, 1000.000000000000000 ) ;
#752 = ADVANCED_FACE ( 'NONE', ( #898 ), #860, .T. ) ;
#753 = CARTESIAN_POINT ( 'NONE',  ( 4.000000000000003553, 6.017322057294549609E-14, -6.162975822039154730E-30 ) ) ;
#754 = CARTESIAN_POINT ( 'NONE',  ( 0.2687352311006460659, 0.000000000000000000, 1.275396479223668056 ) ) ;
#755 = CARTESIAN_POINT ( 'NONE',  ( -0.6001257961074478731, 7.475951380581674854, -0.1579542193057874300 ) ) ;
#756 = FACE_OUTER_BOUND ( 'NONE', #569, .T. ) ;
#757 =( GEOMETRIC_REPRESENTATION_CONTEXT ( 3 ) GLOBAL_UNCERTAINTY_ASSIGNED_CONTEXT ( ( #228 ) ) GLOBAL_UNIT_ASSIGNED_CONTEXT ( ( #802, #314, #761 ) ) REPRESENTATION_CONTEXT ( 'NONE', 'WORKASPACE' ) );
#758 = DIRECTION ( 'NONE',  ( 0.000000000000000000, 1.000000000000000000, -1.224646799147353207E-16 ) ) ;
#759 = AXIS2_PLACEMENT_3D ( 'NONE', #631, #901, #911 ) ;
#760 = CARTESIAN_POINT ( 'NONE',  ( 0.2687352311006459549, -2.050797841559623033E-16, -1.674603520776331678 ) ) ;
#761 =( NAMED_UNIT ( * ) SI_UNIT ( $, .STERADIAN. ) SOLID_ANGLE_UNIT ( ) );
#762 = ADVANCED_FACE ( 'NONE', ( #163 ), #809, .F. ) ;
#763 = FACE_OUTER_BOUND ( 'NONE', #1000, .T. ) ;
#764 = CARTESIAN_POINT ( 'NONE',  ( 0.2499999999999988065, 5.982789369074922193E-16, 2.000000000000001332 ) ) ;
#765 = CARTESIAN_POINT ( 'NONE',  ( 1.749999999999999334, 4.850000000000000533, -2.286000000000000032 ) ) ;
#766 = EDGE_LOOP ( 'NONE', ( #822, #785 ) ) ;
#767 = CARTESIAN_POINT ( 'NONE',  ( 7.347880794884117764E-17, 7.500000000000000000, 0.5999999999999999778 ) ) ;
#768 = AXIS2_PLACEMENT_3D ( 'NONE', #175, #835, #186 ) ;
#769 = AXIS2_PLACEMENT_3D ( 'NONE', #611, #251, #1138 ) ;
#770 = ORIENTED_EDGE ( 'NONE', *, *, #1118, .F. ) ;
#771 = PRODUCT_DEFINITION_CONTEXT ( 'detailed design', #233, 'design' ) ;
#772 = EDGE_LOOP ( 'NONE', ( #865, #598, #409, #817 ) ) ;
#773 = SURFACE_STYLE_USAGE ( .BOTH. , #1151 ) ;
#774 = SHAPE_REPRESENTATION_RELATIONSHIP ( 'NONE' , 'NONE' ,  #1078, #1035 ) ;
#775 = ORIENTED_EDGE ( 'NONE', *, *, #139, .F. ) ;
#776 = DIRECTION ( 'NONE',  ( 0.000000000000000000, 0.000000000000000000, 1.000000000000000000 ) ) ;
#777 = CIRCLE ( 'NONE', #1083, 0.5999999999999999778 ) ;
#778 = EDGE_LOOP ( 'NONE', ( #949, #685, #246, #894 ) ) ;
#779 = CARTESIAN_POINT ( 'NONE',  ( 0.1586417734720640682, 7.500000000000000000, -0.5999999999999998668 ) ) ;
#780 = AXIS2_PLACEMENT_3D ( 'NONE', #193, #1012, #670 ) ;
#781 = CARTESIAN_POINT ( 'NONE',  ( 0.000000000000000000, 0.000000000000000000, 0.000000000000000000 ) ) ;
#782 = ORIENTED_EDGE ( 'NONE', *, *, #1020, .T. ) ;
#783 = DIRECTION ( 'NONE',  ( -0.000000000000000000, -1.000000000000000000, -0.000000000000000000 ) ) ;
#784 = DIRECTION ( 'NONE',  ( 1.000000000000000000, 0.000000000000000000, -0.000000000000000000 ) ) ;
#785 = ORIENTED_EDGE ( 'NONE', *, *, #723, .F. ) ;
#786 = EDGE_CURVE ( 'NONE', #1152, #243, #503, .T. ) ;
#787 = UNCERTAINTY_MEASURE_WITH_UNIT (LENGTH_MEASURE( 1.000000000000000082E-05 ), #18, 'distance_accuracy_value', 'NONE');
#788 = CARTESIAN_POINT ( 'NONE',  ( 2.368286583846122402E-17, 7.500000000000000000, -0.5999999999999999778 ) ) ;
#789 = ORIENTED_EDGE ( 'NONE', *, *, #895, .F. ) ;
#790 = CARTESIAN_POINT ( 'NONE',  ( -142.8610839664589207, 6.676274725047760761, 10.61339247434766087 ) ) ;
#791 = CIRCLE ( 'NONE', #808, 0.9062499999999998890 ) ;
#792 = VERTEX_POINT ( 'NONE', #1070 ) ;
#793 =( LENGTH_UNIT ( ) NAMED_UNIT ( * ) SI_UNIT ( .MILLI., .METRE. ) );
#794 = DIRECTION ( 'NONE',  ( 0.000000000000000000, -1.224646799147352961E-16, -1.000000000000000000 ) ) ;
#795 = VECTOR ( 'NONE', #1088, 1000.000000000000000 ) ;
#796 = PLANE ( 'NONE',  #669 ) ;
#797 = ORIENTED_EDGE ( 'NONE', *, *, #677, .T. ) ;
#798 = VECTOR ( 'NONE', #964, 1000.000000000000000 ) ;
#799 = ADVANCED_FACE ( 'NONE', ( #807 ), #375, .T. ) ;
#800 = EDGE_LOOP ( 'NONE', ( #134, #112 ) ) ;
#801 = PRODUCT_DEFINITION_SHAPE ( 'NONE', 'NONE',  #1179 ) ;
#802 =( LENGTH_UNIT ( ) NAMED_UNIT ( * ) SI_UNIT ( .MILLI., .METRE. ) );
#803 = CARTESIAN_POINT ( 'NONE',  ( 1.749999999999999334, 4.850000000000000533, 2.286000000000000032 ) ) ;
#804 = PRODUCT_DEFINITION_SHAPE ( 'NONE', 'NONE',  #370 ) ;
#805 = CARTESIAN_POINT ( 'NONE',  ( 0.2499999999999986955, 9.184850993605129949E-17, 0.7499999999999983347 ) ) ;
#806 = APPLICATION_PROTOCOL_DEFINITION ( 'draft international standard', 'automotive_design', 1998, #546 ) ;
#807 = FACE_OUTER_BOUND ( 'NONE', #451, .T. ) ;
#808 = AXIS2_PLACEMENT_3D ( 'NONE', #1024, #758, #1128 ) ;
#809 = CYLINDRICAL_SURFACE ( 'NONE', #1123, 0.7500000000000000000 ) ;
#810 = ORIENTED_EDGE ( 'NONE', *, *, #518, .T. ) ;
#811 = LINE ( 'NONE', #3, #461 ) ;
#812 = CARTESIAN_POINT ( 'NONE',  ( 117.5499999999999972, 0.000000000000000000, 0.000000000000000000 ) ) ;
#813 = EDGE_LOOP ( 'NONE', ( #272, #330, #875, #724 ) ) ;
#814 = VECTOR ( 'NONE', #1100, 1000.000000000000000 ) ;
#815 = CYLINDRICAL_SURFACE ( 'NONE', #254, 0.9499999999999999556 ) ;
#816 = DIRECTION ( 'NONE',  ( -0.000000000000000000, -1.000000000000000000, -0.000000000000000000 ) ) ;
#817 = ORIENTED_EDGE ( 'NONE', *, *, #1172, .T. ) ;
#818 = CARTESIAN_POINT ( 'NONE',  ( -4.000000000000000000, 6.344288770224760121, 2.286000000000000032 ) ) ;
#819 = DIRECTION ( 'NONE',  ( 1.000000000000000000, 0.000000000000000000, 0.000000000000000000 ) ) ;
#820 = DIRECTION ( 'NONE',  ( 1.000000000000000000, 0.000000000000000000, 0.000000000000000000 ) ) ;
#821 = VECTOR ( 'NONE', #820, 1000.000000000000000 ) ;
#822 = ORIENTED_EDGE ( 'NONE', *, *, #786, .F. ) ;
#823 = CARTESIAN_POINT ( 'NONE',  ( 1.238690775967998814, 0.000000000000000000, 1.475000000000000089 ) ) ;
#824 = STYLED_ITEM ( 'NONE', ( #608 ), #402 ) ;
#825 =( NAMED_UNIT ( * ) SI_UNIT ( $, .STERADIAN. ) SOLID_ANGLE_UNIT ( ) );
#826 = CARTESIAN_POINT ( 'NONE',  ( 117.5499999999999972, 0.000000000000000000, 0.000000000000000000 ) ) ;
#827 = PRODUCT_DEFINITION ( 'UNKNOWN', '', #91, #846 ) ;
#828 = DIRECTION ( 'NONE',  ( -1.000000000000000000, 0.000000000000000000, 0.000000000000000000 ) ) ;
#829 = FILL_AREA_STYLE_COLOUR ( '', #660 ) ;
#830 = ORIENTED_EDGE ( 'NONE', *, *, #917, .T. ) ;
#831 = CARTESIAN_POINT ( 'NONE',  ( 0.5000000000000918154, 3.999999999999870326, 1.999999999999934053 ) ) ;
#832 = DIRECTION ( 'NONE',  ( 1.445602896647339163E-16, -1.000000000000000000, 0.000000000000000000 ) ) ;
#833 = VECTOR ( 'NONE', #935, 1000.000000000000000 ) ;
#834 = CYLINDRICAL_SURFACE ( 'NONE', #96, 0.5999999999999999778 ) ;
#835 = DIRECTION ( 'NONE',  ( 0.000000000000000000, 0.000000000000000000, 1.000000000000000000 ) ) ;
#836 = ORIENTED_EDGE ( 'NONE', *, *, #210, .F. ) ;
#837 = LINE ( 'NONE', #1113, #933 ) ;
#838 = PRESENTATION_STYLE_ASSIGNMENT (( #647 ) ) ;
#839 = ORIENTED_EDGE ( 'NONE', *, *, #364, .T. ) ;
#840 = DIRECTION ( 'NONE',  ( 0.000000000000000000, 0.000000000000000000, 1.000000000000000000 ) ) ;
#841 = ADVANCED_FACE ( 'NONE', ( #170 ), #433, .F. ) ;
#842 = ADVANCED_FACE ( 'NONE', ( #168 ), #893, .F. ) ;
#843 = CIRCLE ( 'NONE', #544, 2.100000000000000089 ) ;
#844 = CARTESIAN_POINT ( 'NONE',  ( 0.2499999999999986955, 2.921172371206530670E-16, 0.7499999999999983347 ) ) ;
#845 = EDGE_CURVE ( 'NONE', #355, #571, #900, .T. ) ;
#846 = PRODUCT_DEFINITION_CONTEXT ( 'detailed design', #1055, 'design' ) ;
#847 = DIRECTION ( 'NONE',  ( -0.000000000000000000, -0.000000000000000000, -1.000000000000000000 ) ) ;
#848 =( GEOMETRIC_REPRESENTATION_CONTEXT ( 3 ) GLOBAL_UNCERTAINTY_ASSIGNED_CONTEXT ( ( #952 ) ) GLOBAL_UNIT_ASSIGNED_CONTEXT ( ( #129, #399, #658 ) ) REPRESENTATION_CONTEXT ( 'NONE', 'WORKASPACE' ) );
#849 = CARTESIAN_POINT ( 'NONE',  ( 4.595750661335919044E-13, 7.500000000000333955, 0.6000000000041715298 ) ) ;
#850 = DIRECTION ( 'NONE',  ( -0.000000000000000000, -0.000000000000000000, 1.000000000000000000 ) ) ;
#851 = EDGE_CURVE ( 'NONE', #1066, #62, #259, .T. ) ;
#852 = CYLINDRICAL_SURFACE ( 'NONE', #602, 2.100000000000000089 ) ;
#853 = PRESENTATION_LAYER_ASSIGNMENT (  '', '', ( #226 ) ) ;
#854 = CARTESIAN_POINT ( 'NONE',  ( 0.5000000000000920375, 1.900000000000130029, 0.9500000000000646816 ) ) ;
#855 =( NAMED_UNIT ( * ) PLANE_ANGLE_UNIT ( ) SI_UNIT ( $, .RADIAN. ) );
#856 = CYLINDRICAL_SURFACE ( 'NONE', #1074, 2.100000000000000089 ) ;
#857 = AXIS2_PLACEMENT_3D ( 'NONE', #1009, #371, #180 ) ;
#858 = CARTESIAN_POINT ( 'NONE',  ( -0.1021126760563414448, 3.826721060716899529E-16, 1.119718309859154104 ) ) ;
#859 = UNCERTAINTY_MEASURE_WITH_UNIT (LENGTH_MEASURE( 1.000000000000000082E-05 ), #1043, 'distance_accuracy_value', 'NONE');
#860 = TOROIDAL_SURFACE ( 'NONE', #1031, -8.950628149161543590, 9.900628149161503799 ) ;
#861 = DIRECTION ( 'NONE',  ( 1.000000000000000000, 0.000000000000000000, 0.000000000000000000 ) ) ;
#862 = PRODUCT_CONTEXT ( 'NONE', #867, 'mechanical' ) ;
#863 = ORIENTED_EDGE ( 'NONE', *, *, #518, .F. ) ;
#864 = DIRECTION ( 'NONE',  ( 1.000000000000000000, 4.876213336336211057E-15, 5.192639793547426971E-15 ) ) ;
#865 = ORIENTED_EDGE ( 'NONE', *, *, #671, .F. ) ;
#866 = CARTESIAN_POINT ( 'NONE',  ( -1.750000000000000666, 4.850000000000000533, -2.286000000000000032 ) ) ;
#867 = APPLICATION_CONTEXT ( 'automotive_design' ) ;
#868 = CARTESIAN_POINT ( 'NONE',  ( 4.595750661335919044E-13, 7.500000000000333955, 0.6000000000041715298 ) ) ;
#869 = DIRECTION ( 'NONE',  ( 0.000000000000000000, 0.000000000000000000, 1.000000000000000000 ) ) ;
#870 = EDGE_LOOP ( 'NONE', ( #651, #142, #646, #321 ) ) ;
#871 = CARTESIAN_POINT ( 'NONE',  ( 4.199999999999995737, 0.000000000000000000, 0.000000000000000000 ) ) ;
#872 = PRODUCT_RELATED_PRODUCT_CATEGORY ( 'part', '', ( #429 ) ) ;
#873 = EDGE_LOOP ( 'NONE', ( #1016, #434, #165, #317 ) ) ;
#874 = ORIENTED_EDGE ( 'NONE', *, *, #208, .F. ) ;
#875 = ORIENTED_EDGE ( 'NONE', *, *, #642, .T. ) ;
#876 = ORIENTED_EDGE ( 'NONE', *, *, #459, .F. ) ;
#877 = DIRECTION ( 'NONE',  ( -1.000000000000000000, -0.000000000000000000, -0.000000000000000000 ) ) ;
#878 = DIRECTION ( 'NONE',  ( 0.000000000000000000, -1.000000000000000000, 0.000000000000000000 ) ) ;
#879 = CARTESIAN_POINT ( 'NONE',  ( 0.9062499999999973355, 1.084202172485504434E-16, 1.375000000000000000 ) ) ;
#880 = PLANE ( 'NONE',  #439 ) ;
#881 = DIRECTION ( 'NONE',  ( 0.000000000000000000, 0.000000000000000000, 1.000000000000000000 ) ) ;
#882 = VERTEX_POINT ( 'NONE', #624 ) ;
#883 = CARTESIAN_POINT ( 'NONE',  ( 1.238690775967998814, -1.806354028742346048E-16, -1.475000000000000089 ) ) ;
#884 = ADVANCED_FACE ( 'NONE', ( #984, #885, #69 ), #262, .T. ) ;
#885 = FACE_OUTER_BOUND ( 'NONE', #1011, .T. ) ;
#886 = ADVANCED_FACE ( 'NONE', ( #148 ), #796, .F. ) ;
#887 = VERTEX_POINT ( 'NONE', #92 ) ;
#888 = PRODUCT_DEFINITION_SHAPE ( 'NONE', 'NONE',  #827 ) ;
#889 = CARTESIAN_POINT ( 'NONE',  ( 0.000000000000000000, 0.000000000000000000, 0.000000000000000000 ) ) ;
#890 = FILL_AREA_STYLE_COLOUR ( '', #1042 ) ;
#891 = DIRECTION ( 'NONE',  ( 0.000000000000000000, 1.000000000000000000, -1.224646799147353207E-16 ) ) ;
#892 = COLOUR_RGB ( '',0.1450980392156862586, 0.1568627450980392135, 0.1647058823529411742 ) ;
#893 = CYLINDRICAL_SURFACE ( 'NONE', #157, 0.5999999999999999778 ) ;
#894 = ORIENTED_EDGE ( 'NONE', *, *, #316, .F. ) ;
#895 = EDGE_CURVE ( 'NONE', #382, #107, #1006, .T. ) ;
#896 = ORIENTED_EDGE ( 'NONE', *, *, #993, .T. ) ;
#897 = ITEM_DEFINED_TRANSFORMATION ( 'NONE', 'NONE', #264,  #941 ) ;
#898 = FACE_OUTER_BOUND ( 'NONE', #928, .T. ) ;
#899 = ITEM_DEFINED_TRANSFORMATION ( 'NONE', 'NONE', #1161,  #640 ) ;
#900 = LINE ( 'NONE', #154, #417 ) ;
#901 = DIRECTION ( 'NONE',  ( -1.000000000000000000, 0.000000000000000000, -0.000000000000000000 ) ) ;
#902 = CARTESIAN_POINT ( 'NONE',  ( -1.750000000000000444, 3.350000000000000089, -2.286000000000000032 ) ) ;
#903 = B_SPLINE_CURVE_WITH_KNOTS ( 'NONE', 3,
 ( #788, #779, #325, #412, #498, #961, #507, #57, #600, #868 ),
 .UNSPECIFIED., .F., .F.,
 ( 4, 2, 2, 2, 4 ),
 ( 2.301392501548653055E-20, 0.0004691557359840255311, 0.0009383114719680510623, 0.001407467207952076702, 0.001876622943936102125 ),
 .UNSPECIFIED. ) ;
#904 = ORIENTED_EDGE ( 'NONE', *, *, #242, .T. ) ;
#905 = CYLINDRICAL_SURFACE ( 'NONE', #959, 0.5999999999999999778 ) ;
#906 = ADVANCED_FACE ( 'NONE', ( #463, #996, #273 ), #179, .F. ) ;
#907 = DIRECTION ( 'NONE',  ( -1.000000000000000000, 0.000000000000000000, 0.000000000000000000 ) ) ;
#908 = PRESENTATION_STYLE_ASSIGNMENT (( #106 ) ) ;
#909 = ORIENTED_EDGE ( 'NONE', *, *, #161, .T. ) ;
#910 = AXIS2_PLACEMENT_3D ( 'NONE', #1114, #37, #936 ) ;
#911 = DIRECTION ( 'NONE',  ( -0.000000000000000000, 0.000000000000000000, 1.000000000000000000 ) ) ;
#912 = VECTOR ( 'NONE', #81, 1000.000000000000000 ) ;
#913 = FACE_OUTER_BOUND ( 'NONE', #230, .T. ) ;
#914 =( LENGTH_UNIT ( ) NAMED_UNIT ( * ) SI_UNIT ( .MILLI., .METRE. ) );
#915 = VERTEX_POINT ( 'NONE', #818 ) ;
#916 = DIRECTION ( 'NONE',  ( -1.000000000000000000, 0.000000000000000000, 0.000000000000000000 ) ) ;
#917 = EDGE_CURVE ( 'NONE', #547, #253, #811, .T. ) ;
#918 = SURFACE_SIDE_STYLE ('',( #1013 ) ) ;
#919 = DIRECTION ( 'NONE',  ( -1.000000000000000000, -0.000000000000000000, -0.000000000000000000 ) ) ;
#920 = CARTESIAN_POINT ( 'NONE',  ( 1.749999999999999334, 4.850000000000000533, 2.286000000000000032 ) ) ;
#921 = EDGE_LOOP ( 'NONE', ( #839, #1072 ) ) ;
#922 = CARTESIAN_POINT ( 'NONE',  ( 0.2687352311006460659, -1.561910215925068817E-16, -1.275396479223668056 ) ) ;
#923 = APPLICATION_CONTEXT ( 'automotive_design' ) ;
#924 = DIRECTION ( 'NONE',  ( 0.000000000000000000, 0.000000000000000000, 1.000000000000000000 ) ) ;
#925 = DIRECTION ( 'NONE',  ( -0.000000000000000000, -0.000000000000000000, -1.000000000000000000 ) ) ;
#926 = EDGE_LOOP ( 'NONE', ( #697, #980 ) ) ;
#927 = DIRECTION ( 'NONE',  ( 0.000000000000000000, 0.000000000000000000, 1.000000000000000000 ) ) ;
#928 = EDGE_LOOP ( 'NONE', ( #512, #621, #326, #421 ) ) ;
#929 = EDGE_CURVE ( 'NONE', #535, #558, #559, .T. ) ;
#930 = EDGE_CURVE ( 'NONE', #239, #641, #619, .T. ) ;
#931 = FACE_OUTER_BOUND ( 'NONE', #192, .T. ) ;
#932 = ADVANCED_FACE ( 'NONE', ( #469 ), #815, .T. ) ;
#933 = VECTOR ( 'NONE', #383, 1000.000000000000000 ) ;
#934 = CARTESIAN_POINT ( 'NONE',  ( 0.2499999999999987232, 1.499999999999996669, 0.7499999999999978906 ) ) ;
#935 = DIRECTION ( 'NONE',  ( -1.000000000000000000, -0.000000000000000000, -0.000000000000000000 ) ) ;
#936 = DIRECTION ( 'NONE',  ( 0.000000000000000000, 0.000000000000000000, -1.000000000000000000 ) ) ;
#937 = DIRECTION ( 'NONE',  ( -1.000000000000000000, -1.445602896647339163E-16, 0.000000000000000000 ) ) ;
#938 = CARTESIAN_POINT ( 'NONE',  ( 4.199999999999995737, 0.000000000000000000, 0.000000000000000000 ) ) ;
#939 = UNCERTAINTY_MEASURE_WITH_UNIT (LENGTH_MEASURE( 1.000000000000000082E-05 ), #943, 'distance_accuracy_value', 'NONE');
#940 = CARTESIAN_POINT ( 'NONE',  ( 0.5000000000000918154, 4.898587196589254070E-16, 1.999999999999934941 ) ) ;
#941 = AXIS2_PLACEMENT_3D ( 'NONE', #999, #1105, #181 ) ;
#942 = CARTESIAN_POINT ( 'NONE',  ( -0.3132723953653721582, 7.494274718137164726, 0.5351020110317906697 ) ) ;
#943 =( LENGTH_UNIT ( ) NAMED_UNIT ( * ) SI_UNIT ( .MILLI., .METRE. ) );
#944 =( REPRESENTATION_RELATIONSHIP ('NONE','NONE', #144, #1078 ) REPRESENTATION_RELATIONSHIP_WITH_TRANSFORMATION ( #447 )SHAPE_REPRESENTATION_RELATIONSHIP( ) );
#945 = CARTESIAN_POINT ( 'NONE',  ( -1.750000000000000444, 3.350000000000000089, -2.286000000000000032 ) ) ;
#946 =( BOUNDED_SURFACE ( )  B_SPLINE_SURFACE ( 3, 3, ( 
 ( #108, #307, #36, #113 ),
 ( #743, #1017, #201, #20 ),
 ( #754, #283, #481, #301 ),
 ( #396, #486, #294, #1126 ) ),
 .UNSPECIFIED., .F., .F., .F. ) 
 B_SPLINE_SURFACE_WITH_KNOTS ( ( 4, 4 ),
 ( 4, 4 ),
 ( 0.000000000000000000, 1.000000000000000000 ),
 ( 0.000000000000000000, 1.000000000000000000 ),
 .UNSPECIFIED. ) 
 GEOMETRIC_REPRESENTATION_ITEM ( )  RATIONAL_B_SPLINE_SURFACE ( (
 ( 1.000000000000000000, 0.3333333333333334259, 0.3333333333333334259, 1.000000000000000000),
 ( 0.8767380420913336581, 0.2922460140304446452, 0.2922460140304446452, 0.8767380420913336581),
 ( 0.8767380420913336581, 0.2922460140304446452, 0.2922460140304446452, 0.8767380420913336581),
 ( 1.000000000000000000, 0.3333333333333334259, 0.3333333333333334259, 1.000000000000000000) ) ) 
 REPRESENTATION_ITEM ( '' )  SURFACE ( )  );
#947 = DIRECTION ( 'NONE',  ( 1.000000000000000000, 0.000000000000000000, 0.000000000000000000 ) ) ;
#948 = FILL_AREA_STYLE ('',( #42 ) ) ;
#949 = ORIENTED_EDGE ( 'NONE', *, *, #521, .F. ) ;
#950 = DIRECTION ( 'NONE',  ( -1.000000000000000000, 0.000000000000000000, 0.000000000000000000 ) ) ;
#951 = DIRECTION ( 'NONE',  ( -0.000000000000000000, -0.000000000000000000, -1.000000000000000000 ) ) ;
#952 = UNCERTAINTY_MEASURE_WITH_UNIT (LENGTH_MEASURE( 1.000000000000000082E-05 ), #129, 'distance_accuracy_value', 'NONE');
#953 = LINE ( 'NONE', #137, #1094 ) ;
#954 =( NAMED_UNIT ( * ) PLANE_ANGLE_UNIT ( ) SI_UNIT ( $, .RADIAN. ) );
#955 = ADVANCED_FACE ( 'NONE', ( #726, #731 ), #549, .F. ) ;
#956 = ORIENTED_EDGE ( 'NONE', *, *, #132, .F. ) ;
#957 = DIRECTION ( 'NONE',  ( -0.000000000000000000, -0.000000000000000000, -1.000000000000000000 ) ) ;
#958 = ORIENTED_EDGE ( 'NONE', *, *, #466, .F. ) ;
#959 = AXIS2_PLACEMENT_3D ( 'NONE', #183, #98, #48 ) ;
#960 = EDGE_LOOP ( 'NONE', ( #199, #418, #524, #372 ) ) ;
#961 = CARTESIAN_POINT ( 'NONE',  ( 0.6000563111324564991, 7.475956957250750712, 0.1563901809328014925 ) ) ;
#962 = CARTESIAN_POINT ( 'NONE',  ( 0.000000000000000000, 0.000000000000000000, 0.000000000000000000 ) ) ;
#963 = ORIENTED_EDGE ( 'NONE', *, *, #917, .F. ) ;
#964 = DIRECTION ( 'NONE',  ( 0.000000000000000000, 1.000000000000000000, 0.000000000000000000 ) ) ;
#965 = DIRECTION ( 'NONE',  ( -1.000000000000000000, 0.000000000000000000, 0.000000000000000000 ) ) ;
#966 = ORIENTED_EDGE ( 'NONE', *, *, #548, .F. ) ;
#967 = PRODUCT_DEFINITION_SHAPE ( 'NONE', 'NONE',  #1177 ) ;
#968 = PRODUCT_DEFINITION_FORMATION_WITH_SPECIFIED_SOURCE ( 'ANY', '', #429, .NOT_KNOWN. ) ;
#969 = ORIENTED_EDGE ( 'NONE', *, *, #360, .F. ) ;
#970 = EDGE_CURVE ( 'NONE', #1019, #1154, #710, .T. ) ;
#971 = LINE ( 'NONE', #605, #1021 ) ;
#972 = CARTESIAN_POINT ( 'NONE',  ( 4.000000000000000000, 0.000000000000000000, 2.286000000000000032 ) ) ;
#973 = ORIENTED_EDGE ( 'NONE', *, *, #56, .F. ) ;
#974 = AXIS2_PLACEMENT_3D ( 'NONE', #812, #819, #1174 ) ;
#975 = VECTOR ( 'NONE', #356, 1000.000000000000000 ) ;
#976 = VERTEX_POINT ( 'NONE', #648 ) ;
#977 = CARTESIAN_POINT ( 'NONE',  ( 4.000000000000003553, 0.000000000000000000, -0.7500000000000000000 ) ) ;
#978 = CARTESIAN_POINT ( 'NONE',  ( 0.2499999999999987232, -1.499999999999996447, 0.7499999999999986677 ) ) ;
#979 = ADVANCED_FACE ( 'NONE', ( #269 ), #1091, .T. ) ;
#980 = ORIENTED_EDGE ( 'NONE', *, *, #297, .F. ) ;
#981 = PRODUCT_DEFINITION_SHAPE ( 'NONE', 'NONE',  #1175 ) ;
#982 = ORIENTED_EDGE ( 'NONE', *, *, #210, .T. ) ;
#983 =( NAMED_UNIT ( * ) PLANE_ANGLE_UNIT ( ) SI_UNIT ( $, .RADIAN. ) );
#984 = FACE_BOUND ( 'NONE', #778, .T. ) ;
#985 = CIRCLE ( 'NONE', #769, 4.000000000000000000 ) ;
#986 = CONTEXT_DEPENDENT_SHAPE_REPRESENTATION ( #184, #967 ) ;
#987 =( GEOMETRIC_REPRESENTATION_CONTEXT ( 3 ) GLOBAL_UNCERTAINTY_ASSIGNED_CONTEXT ( ( #213 ) ) GLOBAL_UNIT_ASSIGNED_CONTEXT ( ( #43, #954, #1145 ) ) REPRESENTATION_CONTEXT ( 'NONE', 'WORKASPACE' ) );
#988 = DIRECTION ( 'NONE',  ( 0.000000000000000000, 0.000000000000000000, 1.000000000000000000 ) ) ;
#989 = SHAPE_DEFINITION_REPRESENTATION ( #342, #221 ) ;
#990 = AXIS2_PLACEMENT_3D ( 'NONE', #140, #1127, #32 ) ;
#991 = DIRECTION ( 'NONE',  ( 0.000000000000000000, -0.000000000000000000, -1.000000000000000000 ) ) ;
#992 = CARTESIAN_POINT ( 'NONE',  ( 2.100000000000000089, 2.571758278209441957E-16, 2.286000000000000032 ) ) ;
#993 = EDGE_CURVE ( 'NONE', #97, #739, #384, .T. ) ;
#994 = ORIENTED_EDGE ( 'NONE', *, *, #316, .T. ) ;
#995 = AXIS2_PLACEMENT_3D ( 'NONE', #826, #919, #84 ) ;
#996 = FACE_OUTER_BOUND ( 'NONE', #438, .T. ) ;
#997 = MECHANICAL_DESIGN_GEOMETRIC_PRESENTATION_REPRESENTATION (  '', ( #625 ), #1079 ) ;
#998 = CARTESIAN_POINT ( 'NONE',  ( -2.100000000000000089, 0.000000000000000000, -2.286000000000000032 ) ) ;
#999 = CARTESIAN_POINT ( 'NONE',  ( 0.000000000000000000, 0.000000000000000000, 0.000000000000000000 ) ) ;
#1000 = EDGE_LOOP ( 'NONE', ( #334, #596 ) ) ;
#1001 = ADVANCED_FACE ( 'NONE', ( #191 ), #905, .T. ) ;
#1002 = DIRECTION ( 'NONE',  ( -1.000000000000000000, -0.000000000000000000, -0.000000000000000000 ) ) ;
#1003 = CARTESIAN_POINT ( 'NONE',  ( 2.999999999999864109, 5.907708476162261770E-14, 8.950628149161543590 ) ) ;
#1004 = EDGE_LOOP ( 'NONE', ( #956, #904, #616, #1146 ) ) ;
#1005 =( NAMED_UNIT ( * ) PLANE_ANGLE_UNIT ( ) SI_UNIT ( $, .RADIAN. ) );
#1006 = LINE ( 'NONE', #266, #557 ) ;
#1007 = AXIS2_PLACEMENT_3D ( 'NONE', #328, #696, #79 ) ;
#1008 = EDGE_CURVE ( 'NONE', #1154, #535, #791, .T. ) ;
#1009 = CARTESIAN_POINT ( 'NONE',  ( 2.999999999999988898, 6.711889074043079042E-15, -8.808942506911560211E-17 ) ) ;
#1010 = SURFACE_SIDE_STYLE ('',( #281 ) ) ;
#1011 = EDGE_LOOP ( 'NONE', ( #14, #255, #734, #182 ) ) ;
#1012 = DIRECTION ( 'NONE',  ( -1.000000000000000000, 0.000000000000000000, 0.000000000000000000 ) ) ;
#1013 = SURFACE_STYLE_FILL_AREA ( #564 ) ;
#1014 = LINE ( 'NONE', #638, #302 ) ;
#1015 =( GEOMETRIC_REPRESENTATION_CONTEXT ( 3 ) GLOBAL_UNCERTAINTY_ASSIGNED_CONTEXT ( ( #435 ) ) GLOBAL_UNIT_ASSIGNED_CONTEXT ( ( #21, #189, #385 ) ) REPRESENTATION_CONTEXT ( 'NONE', 'WORKASPACE' ) );
#1016 = ORIENTED_EDGE ( 'NONE', *, *, #1142, .F. ) ;
#1017 = CARTESIAN_POINT ( 'NONE',  ( 0.2687352311006459549, -3.349207041552663355, 1.674603520776331900 ) ) ;
#1018 = DIRECTION ( 'NONE',  ( 0.000000000000000000, 0.000000000000000000, 1.000000000000000000 ) ) ;
#1019 = VERTEX_POINT ( 'NONE', #212 ) ;
#1020 = EDGE_CURVE ( 'NONE', #558, #792, #288, .T. ) ;
#1021 = VECTOR ( 'NONE', #258, 1000.000000000000000 ) ;
#1022 = CARTESIAN_POINT ( 'NONE',  ( -117.5499999999999972, 0.000000000000000000, 0.000000000000000000 ) ) ;
#1023 = CARTESIAN_POINT ( 'NONE',  ( 2.999999999999864109, 6.017322057294549609E-14, -6.162975822039154730E-30 ) ) ;
#1024 = CARTESIAN_POINT ( 'NONE',  ( 0.9062499999999973355, -2.768091521313115186E-16, -1.375000000000000000 ) ) ;
#1025 = DIRECTION ( 'NONE',  ( 0.000000000000000000, -1.000000000000000000, 0.000000000000000000 ) ) ;
#1026 = CARTESIAN_POINT ( 'NONE',  ( -0.5351685533447986254, 7.481702203656249495, -0.3132041175538384792 ) ) ;
#1027 = CARTESIAN_POINT ( 'NONE',  ( 95.58891603354106792, 6.676274725047760761, 10.61339247434766087 ) ) ;
#1028 = PLANE ( 'NONE',  #990 ) ;
#1029 = VECTOR ( 'NONE', #925, 1000.000000000000000 ) ;
#1030 = AXIS2_PLACEMENT_3D ( 'NONE', #135, #1116, #840 ) ;
#1031 = AXIS2_PLACEMENT_3D ( 'NONE', #339, #61, #988 ) ;
#1032 = DIRECTION ( 'NONE',  ( 0.000000000000000000, 0.000000000000000000, -1.000000000000000000 ) ) ;
#1033 = CARTESIAN_POINT ( 'NONE',  ( 4.000000000000000000, 6.344288770224760121, -2.286000000000000032 ) ) ;
#1034 = PLANE ( 'NONE',  #910 ) ;
#1035 = ADVANCED_BREP_SHAPE_REPRESENTATION ( '', ( #5, #941 ), #1130 ) ;
#1036 = CARTESIAN_POINT ( 'NONE',  ( 0.5000000000000004441, 0.000000000000000000, 2.000000000000000000 ) ) ;
#1037 = CARTESIAN_POINT ( 'NONE',  ( 0.2499999999999988065, -3.533495770780213314E-16, -2.000000000000001332 ) ) ;
#1038 = CARTESIAN_POINT ( 'NONE',  ( 0.2687352311006460659, 3.123820431850137634E-16, 1.275396479223668056 ) ) ;
#1039 = CARTESIAN_POINT ( 'NONE',  ( -2.100000000000000089, 0.000000000000000000, 2.286000000000000032 ) ) ;
#1040 = CARTESIAN_POINT ( 'NONE',  ( -0.1021126760563413616, 5.077240679564552842E-16, 1.630281690140845896 ) ) ;
#1041 = PRODUCT_DEFINITION ( 'UNKNOWN', '', #704, #771 ) ;
#1042 = COLOUR_RGB ( '',0.1450980392156862586, 0.1568627450980392135, 0.1647058823529411742 ) ;
#1043 =( LENGTH_UNIT ( ) NAMED_UNIT ( * ) SI_UNIT ( .MILLI., .METRE. ) );
#1044 = SURFACE_STYLE_FILL_AREA ( #428 ) ;
#1045 = VERTEX_POINT ( 'NONE', #580 ) ;
#1046 = VECTOR ( 'NONE', #950, 1000.000000000000000 ) ;
#1047 = CARTESIAN_POINT ( 'NONE',  ( -4.000000000000000000, 6.344288770224760121, -2.286000000000000032 ) ) ;
#1048 = ORIENTED_EDGE ( 'NONE', *, *, #712, .T. ) ;
#1049 = ORIENTED_EDGE ( 'NONE', *, *, #260, .T. ) ;
#1050 = DIRECTION ( 'NONE',  ( -1.000000000000000000, -0.000000000000000000, -0.000000000000000000 ) ) ;
#1051 =( LENGTH_UNIT ( ) NAMED_UNIT ( * ) SI_UNIT ( .MILLI., .METRE. ) );
#1052 = ORIENTED_EDGE ( 'NONE', *, *, #93, .F. ) ;
#1053 = CARTESIAN_POINT ( 'NONE',  ( 1.749999999999999334, 4.850000000000000533, -2.286000000000000032 ) ) ;
#1054 = ORIENTED_EDGE ( 'NONE', *, *, #671, .T. ) ;
#1055 = APPLICATION_CONTEXT ( 'automotive_design' ) ;
#1056 = AXIS2_PLACEMENT_3D ( 'NONE', #938, #125, #492 ) ;
#1057 = EDGE_CURVE ( 'NONE', #614, #700, #843, .T. ) ;
#1058 =( NAMED_UNIT ( * ) PLANE_ANGLE_UNIT ( ) SI_UNIT ( $, .RADIAN. ) );
#1059 = ADVANCED_FACE ( 'NONE', ( #205 ), #395, .T. ) ;
#1060 = ORIENTED_EDGE ( 'NONE', *, *, #1142, .T. ) ;
#1061 = DIRECTION ( 'NONE',  ( 1.000000000000000000, 0.000000000000000000, -0.000000000000000000 ) ) ;
#1062 = CARTESIAN_POINT ( 'NONE',  ( -0.1021126760563414587, -2.239436619718308208, -1.119718309859153660 ) ) ;
#1063 = ORIENTED_EDGE ( 'NONE', *, *, #516, .T. ) ;
#1064 = APPLICATION_PROTOCOL_DEFINITION ( 'draft international standard', 'automotive_design', 1998, #296 ) ;
#1065 = PRODUCT_DEFINITION_SHAPE ( 'NONE', 'NONE',  #1178 ) ;
#1066 = VERTEX_POINT ( 'NONE', #866 ) ;
#1067 = SURFACE_STYLE_USAGE ( .BOTH. , #257 ) ;
#1068 = EDGE_CURVE ( 'NONE', #141, #202, #1117, .T. ) ;
#1069 = CARTESIAN_POINT ( 'NONE',  ( 117.5499999999999972, 0.000000000000000000, 0.000000000000000000 ) ) ;
#1070 = CARTESIAN_POINT ( 'NONE',  ( 4.000000000000003553, 9.184850993605149670E-17, 0.7500000000000000000 ) ) ;
#1071 = ORIENTED_EDGE ( 'NONE', *, *, #895, .T. ) ;
#1072 = ORIENTED_EDGE ( 'NONE', *, *, #44, .T. ) ;
#1073 = SHAPE_DEFINITION_REPRESENTATION ( #804, #381 ) ;
#1074 = AXIS2_PLACEMENT_3D ( 'NONE', #39, #534, #965 ) ;
#1075 = PRESENTATION_STYLE_ASSIGNMENT (( #1067 ) ) ;
#1076 = CYLINDRICAL_SURFACE ( 'NONE', #200, 0.9499999999999999556 ) ;
#1077 = DIRECTION ( 'NONE',  ( 0.000000000000000000, 0.000000000000000000, -1.000000000000000000 ) ) ;
#1078 = SHAPE_REPRESENTATION ( '228-2500-ROPE-OVERMOLD-MASTER Rev1_228-3201-ROPE-OVERMOLD-MASTER', ( #941 ), #1130 ) ;
#1079 =( GEOMETRIC_REPRESENTATION_CONTEXT ( 3 ) GLOBAL_UNCERTAINTY_ASSIGNED_CONTEXT ( ( #522 ) ) GLOBAL_UNIT_ASSIGNED_CONTEXT ( ( #1051, #58, #530 ) ) REPRESENTATION_CONTEXT ( 'NONE', 'WORKASPACE' ) );
#1080 = CARTESIAN_POINT ( 'NONE',  ( -0.1021126760563413477, -3.260563380281691348, 1.630281690140846118 ) ) ;
#1081 = CONTEXT_DEPENDENT_SHAPE_REPRESENTATION ( #196, #1065 ) ;
#1082 = DIRECTION ( 'NONE',  ( 0.000000000000000000, 0.000000000000000000, 1.000000000000000000 ) ) ;
#1083 = AXIS2_PLACEMENT_3D ( 'NONE', #597, #393, #586 ) ;
#1084 = VECTOR ( 'NONE', #319, 1000.000000000000000 ) ;
#1085 = ORIENTED_EDGE ( 'NONE', *, *, #249, .T. ) ;
#1086 = DIRECTION ( 'NONE',  ( -1.000000000000000000, -0.000000000000000000, 0.000000000000000000 ) ) ;
#1087 = LINE ( 'NONE', #270, #814 ) ;
#1088 = DIRECTION ( 'NONE',  ( 1.000000000000000000, 0.000000000000000000, -0.000000000000000000 ) ) ;
#1089 = ADVANCED_FACE ( 'NONE', ( #410 ), #852, .F. ) ;
#1090 = ORIENTED_EDGE ( 'NONE', *, *, #360, .T. ) ;
#1091 = CYLINDRICAL_SURFACE ( 'NONE', #995, 0.5999999999999999778 ) ;
#1092 = PRESENTATION_LAYER_ASSIGNMENT (  '', '', ( #367 ) ) ;
#1093 = FACE_OUTER_BOUND ( 'NONE', #159, .T. ) ;
#1094 = VECTOR ( 'NONE', #1050, 1000.000000000000000 ) ;
#1095 = DIRECTION ( 'NONE',  ( 0.000000000000000000, 0.000000000000000000, -1.000000000000000000 ) ) ;
#1096 = ORIENTED_EDGE ( 'NONE', *, *, #1166, .F. ) ;
#1097 = ADVANCED_FACE ( 'NONE', ( #227 ), #582, .T. ) ;
#1098 = DIRECTION ( 'NONE',  ( 0.000000000000000000, 0.000000000000000000, 1.000000000000000000 ) ) ;
#1099 = CLOSED_SHELL ( 'NONE', ( #979, #1001, #26, #633 ) ) ;
#1100 = DIRECTION ( 'NONE',  ( 0.000000000000000000, 1.000000000000000000, 0.000000000000000000 ) ) ;
#1101 = CARTESIAN_POINT ( 'NONE',  ( -0.2000000000000057288, 9.184850993605149670E-17, 0.7500000000000000000 ) ) ;
#1102 = ORIENTED_EDGE ( 'NONE', *, *, #851, .T. ) ;
#1103 = CARTESIAN_POINT ( 'NONE',  ( 0.5000000000000920375, 1.900000000000129585, -0.9500000000000651257 ) ) ;
#1104 = DIRECTION ( 'NONE',  ( -0.000000000000000000, -1.000000000000000000, -0.000000000000000000 ) ) ;
#1105 = DIRECTION ( 'NONE',  ( 0.000000000000000000, 0.000000000000000000, 1.000000000000000000 ) ) ;
#1106 = EDGE_CURVE ( 'NONE', #202, #571, #24, .T. ) ;
#1107 = ORIENTED_EDGE ( 'NONE', *, *, #516, .F. ) ;
#1108 = CARTESIAN_POINT ( 'NONE',  ( 0.5000000000000004441, 0.000000000000000000, 0.000000000000000000 ) ) ;
#1109 = ORIENTED_EDGE ( 'NONE', *, *, #427, .T. ) ;
#1110 = CARTESIAN_POINT ( 'NONE',  ( 1.749999999999999112, 3.350000000000000089, -2.286000000000000032 ) ) ;
#1111 = AXIS2_PLACEMENT_3D ( 'NONE', #545, #568, #1095 ) ;
#1112 = APPLICATION_CONTEXT ( 'automotive_design' ) ;
#1113 = CARTESIAN_POINT ( 'NONE',  ( 1.749999999999999334, 4.850000000000000533, -2.286000000000000032 ) ) ;
#1114 = CARTESIAN_POINT ( 'NONE',  ( 117.5499999999999972, 0.000000000000000000, 0.000000000000000000 ) ) ;
#1115 = FILL_AREA_STYLE_COLOUR ( '', #892 ) ;
#1116 = DIRECTION ( 'NONE',  ( -1.000000000000000000, -0.000000000000000000, 0.000000000000000000 ) ) ;
#1117 = LINE ( 'NONE', #573, #329 ) ;
#1118 = EDGE_CURVE ( 'NONE', #71, #562, #637, .T. ) ;
#1119 = CARTESIAN_POINT ( 'NONE',  ( 0.2687352311006460659, 2.550792958447335668, -1.275396479223668278 ) ) ;
#1120 = CARTESIAN_POINT ( 'NONE',  ( 2.368286583846122402E-17, 7.500000000000000000, -0.5999999999999999778 ) ) ;
#1121 = CARTESIAN_POINT ( 'NONE',  ( 0.000000000000000000, 0.000000000000000000, 0.000000000000000000 ) ) ;
#1122 = CYLINDRICAL_SURFACE ( 'NONE', #359, 7.500000000000000000 ) ;
#1123 = AXIS2_PLACEMENT_3D ( 'NONE', #620, #1157, #703 ) ;
#1124 = DIRECTION ( 'NONE',  ( -1.000000000000000000, 0.000000000000000000, 0.000000000000000000 ) ) ;
#1125 = EDGE_CURVE ( 'NONE', #562, #141, #1150, .T. ) ;
#1126 = CARTESIAN_POINT ( 'NONE',  ( 0.5000000000000920375, -1.163414459190065308E-16, -0.9500000000000650147 ) ) ;
#1127 = DIRECTION ( 'NONE',  ( 1.000000000000000000, 0.000000000000000000, 0.000000000000000000 ) ) ;
#1128 = DIRECTION ( 'NONE',  ( 0.000000000000000000, -1.224646799147353207E-16, -1.000000000000000000 ) ) ;
#1129 = CARTESIAN_POINT ( 'NONE',  ( 0.000000000000000000, 7.500000000000000000, -0.5999999999999999778 ) ) ;
#1130 =( GEOMETRIC_REPRESENTATION_CONTEXT ( 3 ) GLOBAL_UNCERTAINTY_ASSIGNED_CONTEXT ( ( #939 ) ) GLOBAL_UNIT_ASSIGNED_CONTEXT ( ( #943, #855, #825 ) ) REPRESENTATION_CONTEXT ( 'NONE', 'WORKASPACE' ) );
#1131 = APPLICATION_PROTOCOL_DEFINITION ( 'draft international standard', 'automotive_design', 1998, #233 ) ;
#1132 = ORIENTED_EDGE ( 'NONE', *, *, #555, .F. ) ;
#1133 = DIRECTION ( 'NONE',  ( 0.000000000000000000, 0.000000000000000000, 1.000000000000000000 ) ) ;
#1134 = EDGE_LOOP ( 'NONE', ( #789, #1132, #1090, #622 ) ) ;
#1135 = ORIENTED_EDGE ( 'NONE', *, *, #132, .T. ) ;
#1136 = SHAPE_DEFINITION_REPRESENTATION ( #888, #144 ) ;
#1137 = ORIENTED_EDGE ( 'NONE', *, *, #1125, .T. ) ;
#1138 = DIRECTION ( 'NONE',  ( 1.000000000000000000, 0.000000000000000000, 0.000000000000000000 ) ) ;
#1139 = EDGE_CURVE ( 'NONE', #571, #202, #82, .T. ) ;
#1140 = ORIENTED_EDGE ( 'NONE', *, *, #332, .T. ) ;
#1141 = CIRCLE ( 'NONE', #115, 0.7500000000000000000 ) ;
#1142 = EDGE_CURVE ( 'NONE', #882, #792, #95, .T. ) ;
#1143 = DIRECTION ( 'NONE',  ( 0.000000000000000000, 0.000000000000000000, -1.000000000000000000 ) ) ;
#1144 = EDGE_CURVE ( 'NONE', #462, #547, #587, .T. ) ;
#1145 =( NAMED_UNIT ( * ) SI_UNIT ( $, .STERADIAN. ) SOLID_ANGLE_UNIT ( ) );
#1146 = ORIENTED_EDGE ( 'NONE', *, *, #634, .F. ) ;
#1147 = CARTESIAN_POINT ( 'NONE',  ( 4.000000000000000000, 0.000000000000000000, 2.286000000000000032 ) ) ;
#1148 = CARTESIAN_POINT ( 'NONE',  ( 1.749999999999999112, 3.350000000000000089, 2.286000000000000032 ) ) ;
#1149 = ORIENTED_EDGE ( 'NONE', *, *, #528, .T. ) ;
#1150 = CIRCLE ( 'NONE', #1111, 9.900628149161503799 ) ;
#1151 = SURFACE_SIDE_STYLE ('',( #523 ) ) ;
#1152 = VERTEX_POINT ( 'NONE', #89 ) ;
#1153 = AXIS2_PLACEMENT_3D ( 'NONE', #1027, #109, #475 ) ;
#1154 = VERTEX_POINT ( 'NONE', #13 ) ;
#1155 = SURFACE_SIDE_STYLE ('',( #167 ) ) ;
#1156 = DIRECTION ( 'NONE',  ( 0.000000000000000000, 0.000000000000000000, -1.000000000000000000 ) ) ;
#1157 = DIRECTION ( 'NONE',  ( 1.000000000000000000, 0.000000000000000000, -0.000000000000000000 ) ) ;
#1158 = ORIENTED_EDGE ( 'NONE', *, *, #1118, .T. ) ;
#1159 = VERTEX_POINT ( 'NONE', #728 ) ;
#1160 = PRODUCT ( '228-2500-449 Rev1_228-2500-449', '228-2500-449 Rev1_228-2500-449', '', ( #256 ) ) ;
#1161 = AXIS2_PLACEMENT_3D ( 'NONE', #781, #241, #229 ) ;
#1162 = CARTESIAN_POINT ( 'NONE',  ( -1.750000000000000666, 4.850000000000000533, -2.286000000000000032 ) ) ;
#1163 = CARTESIAN_POINT ( 'NONE',  ( 0.2499999999999988065, -3.091583575780234499E-16, -2.000000000000001332 ) ) ;
#1164 = VECTOR ( 'NONE', #363, 1000.000000000000000 ) ;
#1165 = DIRECTION ( 'NONE',  ( 0.000000000000000000, 0.000000000000000000, 1.000000000000000000 ) ) ;
#1166 = EDGE_CURVE ( 'NONE', #700, #739, #454, .T. ) ;
#1167 = UNCERTAINTY_MEASURE_WITH_UNIT (LENGTH_MEASURE( 1.000000000000000082E-05 ), #275, 'distance_accuracy_value', 'NONE');
#1168 = SHAPE_DEFINITION_REPRESENTATION ( #247, #509 ) ;
#1169 = CARTESIAN_POINT ( 'NONE',  ( 0.2499999999999988343, -4.000000000000001776, -2.000000000000000888 ) ) ;
#1170 = APPLICATION_CONTEXT ( 'automotive_design' ) ;
#1171 = ORIENTED_EDGE ( 'NONE', *, *, #458, .T. ) ;
#1172 = EDGE_CURVE ( 'NONE', #1159, #730, #733, .T. ) ;
#1173 = DIRECTION ( 'NONE',  ( 1.000000000000000000, 0.000000000000000000, -0.000000000000000000 ) ) ;
#1174 = DIRECTION ( 'NONE',  ( 0.000000000000000000, 0.000000000000000000, -1.000000000000000000 ) ) ;
#1175 = NEXT_ASSEMBLY_USAGE_OCCURRENCE ( 'NAUO1', ' ', ' ', #827, #540, $ ) ;
#1176 = NEXT_ASSEMBLY_USAGE_OCCURRENCE ( 'NAUO2', ' ', ' ', #827, #1041, $ ) ;
#1177 = NEXT_ASSEMBLY_USAGE_OCCURRENCE ( 'NAUO3', ' ', ' ', #827, #1041, $ ) ;
#1178 = NEXT_ASSEMBLY_USAGE_OCCURRENCE ( 'NAUO4', ' ', ' ', #540, #166, $ ) ;
#1179 = NEXT_ASSEMBLY_USAGE_OCCURRENCE ( 'NAUO5', ' ', ' ', #540, #370, $ ) ;
#1180 = NEXT_ASSEMBLY_USAGE_OCCURRENCE ( 'NAUO6', ' ', ' ', #540, #166, $ ) ;
ENDSEC;
END-ISO-10303-21;
