ISO-10303-21;
HEADER;
FILE_DESCRIPTION (( 'STEP AP203' ),
    '1' );
FILE_NAME ('228-2500-267.step',
    '2022-06-06T20:02:59',
    ( '' ),
    ( '' ),
    'SwSTEP 2.0',
    'SolidWorks 2021',
    '' );
FILE_SCHEMA (( 'CONFIG_CONTROL_DESIGN' ));
ENDSEC;

DATA;
#1 = CIRCLE ( 'NONE', #318, 2.032000000000000028 ) ;
#2 = CARTESIAN_POINT ( 'NONE',  ( 0.2043756380772864256, -1.587500000000000133, 126.0834096189637989 ) ) ;
#3 = CYLINDRICAL_SURFACE ( 'NONE', #432, 2.032000000000000028 ) ;
#4 = CARTESIAN_POINT ( 'NONE',  ( -1.587500000000000133, -0.2143109880596207051, -126.0832273616928916 ) ) ;
#5 = APPLICATION_CONTEXT ( 'configuration controlled 3d designs of mechanical parts and assemblies' ) ;
#6 = ORIENTED_EDGE ( 'NONE', *, *, #381, .T. ) ;
#7 = DIRECTION ( 'NONE',  ( 0.000000000000000000, 1.000000000000000000, 0.000000000000000000 ) ) ;
#8 = SECURITY_CLASSIFICATION ( '', '', #198 ) ;
#9 = PLANE ( 'NONE',  #346 ) ;
#10 = EDGE_CURVE ( 'NONE', #53, #201, #329, .T. ) ;
#11 = ORIENTED_EDGE ( 'NONE', *, *, #370, .T. ) ;
#12 = EDGE_CURVE ( 'NONE', #73, #394, #39, .T. ) ;
#13 = APPROVAL_DATE_TIME ( #103, #255 ) ;
#14 = ORIENTED_EDGE ( 'NONE', *, *, #374, .T. ) ;
#15 = AXIS2_PLACEMENT_3D ( 'NONE', #123, #469, #249 ) ;
#16 = EDGE_CURVE ( 'NONE', #142, #73, #437, .T. ) ;
#17 = CARTESIAN_POINT ( 'NONE',  ( 0.000000000000000000, 0.000000000000000000, -126.1110000000000326 ) ) ;
#18 = VERTEX_POINT ( 'NONE', #234 ) ;
#19 = DIRECTION ( 'NONE',  ( 1.000000000000000000, 0.000000000000000000, 0.000000000000000000 ) ) ;
#20 = PRODUCT ( '228-2500-267', '228-2500-267', '', ( #150 ) ) ;
#21 = ORIENTED_EDGE ( 'NONE', *, *, #530, .T. ) ;
#22 = AXIS2_PLACEMENT_3D ( 'NONE', #17, #260, #217 ) ;
#23 = CARTESIAN_POINT ( 'NONE',  ( -1.587500000000000355, 1.944126793646423534E-16, -126.0832273616928916 ) ) ;
#24 = ADVANCED_FACE ( 'NONE', ( #25 ), #286, .T. ) ;
#25 = FACE_OUTER_BOUND ( 'NONE', #520, .T. ) ;
#26 = CARTESIAN_POINT ( 'NONE',  ( 1.587500000000000355, 1.268411506570323866, -126.1110000000000326 ) ) ;
#27 = CARTESIAN_POINT ( 'NONE',  ( -1.587500000000000355, -1.944126793646423534E-16, 126.0832273616928916 ) ) ;
#28 = DIRECTION ( 'NONE',  ( 1.000000000000000000, 0.000000000000000000, 0.000000000000000000 ) ) ;
#29 = PERSON_AND_ORGANIZATION_ROLE ( 'creator' ) ;
#30 = ORIENTED_EDGE ( 'NONE', *, *, #310, .F. ) ;
#31 = CARTESIAN_POINT ( 'NONE',  ( -1.587500000000000577, 0.8514389605504923964, -126.0413675157792994 ) ) ;
#32 = AXIS2_PLACEMENT_3D ( 'NONE', #524, #521, #350 ) ;
#33 = ORIENTED_EDGE ( 'NONE', *, *, #348, .T. ) ;
#34 = VECTOR ( 'NONE', #422, 1000.000000000000000 ) ;
#35 = PRODUCT_DEFINITION ( 'UNKNOWN', '', #545, #478 ) ;
#36 = DIRECTION ( 'NONE',  ( -0.000000000000000000, -0.000000000000000000, 1.000000000000000000 ) ) ;
#37 = CARTESIAN_POINT ( 'NONE',  ( -1.587500000000000577, 0.4277385810629842910, 126.0769865435831463 ) ) ;
#38 = CARTESIAN_POINT ( 'NONE',  ( 1.587500000000000355, 0.000000000000000000, 126.0832273616928916 ) ) ;
#39 = B_SPLINE_CURVE_WITH_KNOTS ( 'NONE', 3,
 ( #27, #289, #37, #377, #535, #320 ),
 .UNSPECIFIED., .F., .F.,
 ( 4, 2, 4 ),
 ( 1.905938025164291451E-19, 0.0006365870327257446221, 0.001273174065451489027 ),
 .UNSPECIFIED. ) ;
#40 = CARTESIAN_POINT ( 'NONE',  ( -0.8571092511719541340, 1.587500000000000133, -126.0622737970628009 ) ) ;
#41 = DIRECTION ( 'NONE',  ( 1.000000000000000000, 0.000000000000000000, 0.000000000000000000 ) ) ;
#42 = B_SPLINE_CURVE_WITH_KNOTS ( 'NONE', 3,
 ( #552, #460, #169, #345, #294, #385 ),
 .UNSPECIFIED., .F., .F.,
 ( 4, 2, 4 ),
 ( 0.01485345774306985611, 0.01548163471194342715, 0.01610981168081699819 ),
 .UNSPECIFIED. ) ;
#43 = CIRCLE ( 'NONE', #556, 1.245064030267288402 ) ;
#44 = CARTESIAN_POINT ( 'NONE',  ( 1.587500000000000355, 1.268411506570323866, 125.9599191420980020 ) ) ;
#45 = CARTESIAN_POINT ( 'NONE',  ( 0.8486262390323795479, 1.587500000000000577, -126.0417688228239683 ) ) ;
#46 = DIRECTION ( 'NONE',  ( 1.224646799147353207E-16, -1.000000000000000000, 0.000000000000000000 ) ) ;
#47 = CYLINDRICAL_SURFACE ( 'NONE', #22, 2.032000000000000028 ) ;
#48 = CIRCLE ( 'NONE', #462, 1.245064030267288402 ) ;
#49 = CARTESIAN_POINT ( 'NONE',  ( 0.000000000000000000, 0.000000000000000000, -126.1110000000000326 ) ) ;
#50 = ORIENTED_EDGE ( 'NONE', *, *, #229, .T. ) ;
#51 = CARTESIAN_POINT ( 'NONE',  ( 0.8486262390323777716, -1.587500000000000577, 126.0417688228239683 ) ) ;
#52 = EDGE_CURVE ( 'NONE', #394, #184, #89, .T. ) ;
#53 = VERTEX_POINT ( 'NONE', #84 ) ;
#54 = APPLICATION_CONTEXT ( 'configuration controlled 3d designs of mechanical parts and assemblies' ) ;
#55 = B_SPLINE_CURVE_WITH_KNOTS ( 'NONE', 3,
 ( #167, #301, #45, #506, #338, #335, #40, #207 ),
 .UNSPECIFIED., .F., .F.,
 ( 4, 2, 2, 4 ),
 ( 0.01485345774306985611, 0.01548583974386951237, 0.01611822174466916863, 0.01738298574626848461 ),
 .UNSPECIFIED. ) ;
#56 = EDGE_CURVE ( 'NONE', #477, #448, #304, .T. ) ;
#57 = ORIENTED_EDGE ( 'NONE', *, *, #468, .T. ) ;
#58 = EDGE_CURVE ( 'NONE', #232, #349, #55, .T. ) ;
#59 = TOROIDAL_SURFACE ( 'NONE', #398, 1.245064030267288402, 2.125000000000001776 ) ;
#60 = CARTESIAN_POINT ( 'NONE',  ( 1.587500000000000355, -1.268411506570325642, 125.9599191420980020 ) ) ;
#61 = EDGE_LOOP ( 'NONE', ( #438, #33, #116, #188 ) ) ;
#62 = CARTESIAN_POINT ( 'NONE',  ( 0.000000000000000000, 0.000000000000000000, -123.9860000000000326 ) ) ;
#63 = ORIENTED_EDGE ( 'NONE', *, *, #296, .F. ) ;
#64 = CARTESIAN_POINT ( 'NONE',  ( -1.587500000000000355, 1.587500000000000355, -126.1110000000000326 ) ) ;
#65 = ORIENTED_EDGE ( 'NONE', *, *, #58, .T. ) ;
#66 = VECTOR ( 'NONE', #429, 1000.000000000000000 ) ;
#67 = LINE ( 'NONE', #26, #363 ) ;
#68 = APPLICATION_PROTOCOL_DEFINITION ( 'international standard', 'config_control_design', 1994, #54 ) ;
#69 = CARTESIAN_POINT ( 'NONE',  ( -1.268411506570323866, -1.587500000000000355, -126.1110000000000326 ) ) ;
#70 = COORDINATED_UNIVERSAL_TIME_OFFSET ( 6, 0, .BEHIND. ) ;
#71 = DIRECTION ( 'NONE',  ( 1.000000000000000000, 0.000000000000000000, 0.000000000000000000 ) ) ;
#72 = APPROVAL_STATUS ( 'not_yet_approved' ) ;
#73 = VERTEX_POINT ( 'NONE', #380 ) ;
#74 = CALENDAR_DATE ( 2022, 6, 6 ) ;
#75 = CARTESIAN_POINT ( 'NONE',  ( 0.000000000000000000, 0.000000000000000000, -125.9599191420980020 ) ) ;
#76 = CARTESIAN_POINT ( 'NONE',  ( -1.587500000000000577, -0.8514389605504923964, 126.0413675157792994 ) ) ;
#77 = CARTESIAN_POINT ( 'NONE',  ( -0.2043756380772864256, 1.587500000000000133, 126.0834096189637989 ) ) ;
#78 = CIRCLE ( 'NONE', #210, 2.125000000000001776 ) ;
#79 = ORIENTED_EDGE ( 'NONE', *, *, #558, .F. ) ;
#80 = ADVANCED_FACE ( 'NONE', ( #340 ), #554, .T. ) ;
#81 = CARTESIAN_POINT ( 'NONE',  ( 1.587500000000000577, 0.4277385810629835139, -126.0769865435831463 ) ) ;
#82 = APPROVAL ( #498, 'UNSPECIFIED' ) ;
#83 = CARTESIAN_POINT ( 'NONE',  ( -1.587500000000000355, 1.944126793646423534E-16, -126.0832273616928916 ) ) ;
#84 = CARTESIAN_POINT ( 'NONE',  ( -1.268411506570323866, -1.587500000000000355, -125.9599191420980020 ) ) ;
#85 = CARTESIAN_POINT ( 'NONE',  ( 1.587500000000000355, -1.268411506570323866, -126.1110000000000326 ) ) ;
#86 = AXIS2_PLACEMENT_3D ( 'NONE', #240, #199, #28 ) ;
#87 = AXIS2_PLACEMENT_3D ( 'NONE', #382, #512, #253 ) ;
#88 = FACE_OUTER_BOUND ( 'NONE', #440, .T. ) ;
#89 = CIRCLE ( 'NONE', #162, 2.032000000000000028 ) ;
#90 = ORIENTED_EDGE ( 'NONE', *, *, #95, .F. ) ;
#91 = CARTESIAN_POINT ( 'NONE',  ( -1.587500000000000355, -1.061392899157109104, -126.0114367738516847 ) ) ;
#92 = ORIENTED_EDGE ( 'NONE', *, *, #226, .T. ) ;
#93 = CARTESIAN_POINT ( 'NONE',  ( 0.4219230645619439501, -1.587500000000000577, 126.0773073035536811 ) ) ;
#94 = ORIENTED_EDGE ( 'NONE', *, *, #269, .T. ) ;
#95 = EDGE_CURVE ( 'NONE', #232, #435, #383, .T. ) ;
#96 = VERTEX_POINT ( 'NONE', #175 ) ;
#97 = APPROVAL_PERSON_ORGANIZATION ( #168, #82, #336 ) ;
#98 = VERTEX_POINT ( 'NONE', #343 ) ;
#99 = VECTOR ( 'NONE', #263, 1000.000000000000000 ) ;
#100 = AXIS2_PLACEMENT_3D ( 'NONE', #397, #434, #389 ) ;
#101 = CARTESIAN_POINT ( 'NONE',  ( 0.000000000000000000, 0.000000000000000000, -123.9860000000000326 ) ) ;
#102 = ORIENTED_EDGE ( 'NONE', *, *, #16, .F. ) ;
#103 = DATE_AND_TIME ( #395, #473 ) ;
#104 = DIRECTION ( 'NONE',  ( -0.000000000000000000, -0.000000000000000000, 1.000000000000000000 ) ) ;
#105 = ORIENTED_EDGE ( 'NONE', *, *, #272, .T. ) ;
#106 = DIRECTION ( 'NONE',  ( 1.000000000000000000, 0.000000000000000000, 0.000000000000000000 ) ) ;
#107 = CALENDAR_DATE ( 2022, 6, 6 ) ;
#108 = VERTEX_POINT ( 'NONE', #514 ) ;
#109 = ADVANCED_FACE ( 'NONE', ( #128 ), #470, .F. ) ;
#110 = CARTESIAN_POINT ( 'NONE',  ( -1.587500000000000133, 1.061532360077852344, -126.0114020682936484 ) ) ;
#111 = DIRECTION ( 'NONE',  ( 0.000000000000000000, 0.000000000000000000, 1.000000000000000000 ) ) ;
#112 = ORIENTED_EDGE ( 'NONE', *, *, #381, .F. ) ;
#113 = COORDINATED_UNIVERSAL_TIME_OFFSET ( 6, 0, .BEHIND. ) ;
#114 = CARTESIAN_POINT ( 'NONE',  ( -1.245064030267288402, 2.006622987633881735E-16, -126.1110000000000326 ) ) ;
#115 = DIRECTION ( 'NONE',  ( 0.000000000000000000, 0.000000000000000000, -1.000000000000000000 ) ) ;
#116 = ORIENTED_EDGE ( 'NONE', *, *, #369, .T. ) ;
#117 = ADVANCED_FACE ( 'NONE', ( #392 ), #9, .F. ) ;
#118 = SHAPE_DEFINITION_REPRESENTATION ( #136, #205 ) ;
#119 = FACE_OUTER_BOUND ( 'NONE', #474, .T. ) ;
#120 = CARTESIAN_POINT ( 'NONE',  ( -1.587500000000000355, -1.268411506570323866, 125.9599191420980020 ) ) ;
#121 = DIRECTION ( 'NONE',  ( -0.000000000000000000, -0.000000000000000000, 1.000000000000000000 ) ) ;
#122 = AXIS2_PLACEMENT_3D ( 'NONE', #495, #540, #499 ) ;
#123 = CARTESIAN_POINT ( 'NONE',  ( 0.000000000000000000, 0.000000000000000000, 123.9860000000000326 ) ) ;
#124 = ADVANCED_FACE ( 'NONE', ( #314 ), #525, .F. ) ;
#125 = DIRECTION ( 'NONE',  ( 0.000000000000000000, 0.000000000000000000, -1.000000000000000000 ) ) ;
#126 = DIRECTION ( 'NONE',  ( -0.000000000000000000, 1.000000000000000000, 0.000000000000000000 ) ) ;
#127 = CARTESIAN_POINT ( 'NONE',  ( -1.587500000000000355, 1.268411506570325642, 125.9599191420980020 ) ) ;
#128 = FACE_OUTER_BOUND ( 'NONE', #531, .T. ) ;
#129 = AXIS2_PLACEMENT_3D ( 'NONE', #231, #111, #534 ) ;
#130 = LINE ( 'NONE', #433, #99 ) ;
#131 = ADVANCED_FACE ( 'NONE', ( #359 ), #3, .T. ) ;
#132 = CARTESIAN_POINT ( 'NONE',  ( 1.587500000000000355, 0.2114796877013866427, 126.0832273616929200 ) ) ;
#133 = CARTESIAN_POINT ( 'NONE',  ( -1.587500000000000355, -1.268411506570323866, 125.9599191420980020 ) ) ;
#134 = VERTEX_POINT ( 'NONE', #529 ) ;
#135 = EDGE_CURVE ( 'NONE', #324, #134, #353, .T. ) ;
#136 = PRODUCT_DEFINITION_SHAPE ( 'NONE', 'NONE',  #35 ) ;
#137 = CARTESIAN_POINT ( 'NONE',  ( 1.245064030267288402, 0.000000000000000000, 126.1110000000000326 ) ) ;
#138 = VERTEX_POINT ( 'NONE', #227 ) ;
#139 =( GEOMETRIC_REPRESENTATION_CONTEXT ( 3 ) GLOBAL_UNCERTAINTY_ASSIGNED_CONTEXT ( ( #436 ) ) GLOBAL_UNIT_ASSIGNED_CONTEXT ( ( #332, #458, #411 ) ) REPRESENTATION_CONTEXT ( 'NONE', 'WORKASPACE' ) );
#140 = ADVANCED_FACE ( 'NONE', ( #519 ), #47, .T. ) ;
#141 = CARTESIAN_POINT ( 'NONE',  ( -1.587500000000000355, -1.587500000000000355, 126.1110000000000326 ) ) ;
#142 = VERTEX_POINT ( 'NONE', #133 ) ;
#143 = CARTESIAN_POINT ( 'NONE',  ( 1.587500000000000577, -0.2143109880596209826, 126.0832273616929200 ) ) ;
#144 = ORIENTED_EDGE ( 'NONE', *, *, #296, .T. ) ;
#145 = ORIENTED_EDGE ( 'NONE', *, *, #251, .T. ) ;
#146 = APPROVAL_PERSON_ORGANIZATION ( #365, #486, #537 ) ;
#147 = DATE_TIME_ROLE ( 'creation_date' ) ;
#148 = CARTESIAN_POINT ( 'NONE',  ( 0.000000000000000000, 0.000000000000000000, 126.1110000000000326 ) ) ;
#149 = ADVANCED_FACE ( 'NONE', ( #416 ), #235, .T. ) ;
#150 = MECHANICAL_CONTEXT ( 'NONE', #5, 'mechanical' ) ;
#151 = ORIENTED_EDGE ( 'NONE', *, *, #158, .F. ) ;
#152 = CARTESIAN_POINT ( 'NONE',  ( -1.060147506033613629, -1.587500000000000577, -126.0117466962552015 ) ) ;
#153 = PERSON_AND_ORGANIZATION ( #341, #441 ) ;
#154 = ORIENTED_EDGE ( 'NONE', *, *, #550, .F. ) ;
#155 = CARTESIAN_POINT ( 'NONE',  ( -1.587500000000000355, 0.2114796877013866427, -126.0832273616929200 ) ) ;
#156 = PERSON_AND_ORGANIZATION ( #341, #441 ) ;
#157 = EDGE_LOOP ( 'NONE', ( #183, #57, #287, #283, #309, #402 ) ) ;
#158 = EDGE_CURVE ( 'NONE', #138, #53, #292, .T. ) ;
#159 = CIRCLE ( 'NONE', #245, 2.125000000000001776 ) ;
#160 = CARTESIAN_POINT ( 'NONE',  ( -1.587500000000000355, 0.4276219574846449878, -126.0769963920001260 ) ) ;
#161 = ORIENTED_EDGE ( 'NONE', *, *, #12, .T. ) ;
#162 = AXIS2_PLACEMENT_3D ( 'NONE', #541, #551, #178 ) ;
#163 = DIRECTION ( 'NONE',  ( 1.000000000000000000, 0.000000000000000000, 0.000000000000000000 ) ) ;
#164 = DIRECTION ( 'NONE',  ( -1.000000000000000000, 0.000000000000000000, 0.000000000000000000 ) ) ;
#165 = ORIENTED_EDGE ( 'NONE', *, *, #158, .T. ) ;
#166 = CARTESIAN_POINT ( 'NONE',  ( -1.268411506570323866, 1.587500000000000355, -126.1110000000000326 ) ) ;
#167 = CARTESIAN_POINT ( 'NONE',  ( 1.268411506570323866, 1.587500000000000355, -125.9599191420980020 ) ) ;
#168 = PERSON_AND_ORGANIZATION ( #341, #441 ) ;
#169 = CARTESIAN_POINT ( 'NONE',  ( 1.587500000000000577, -0.8514389605504923964, -126.0413675157792994 ) ) ;
#170 = CIRCLE ( 'NONE', #325, 1.245064030267288402 ) ;
#171 = APPROVAL_PERSON_ORGANIZATION ( #319, #255, #489 ) ;
#172 = B_SPLINE_CURVE_WITH_KNOTS ( 'NONE', 3,
 ( #476, #219, #51, #93, #2, #311, #221, #391 ),
 .UNSPECIFIED., .F., .F.,
 ( 4, 2, 2, 4 ),
 ( 0.01485345774306985611, 0.01548583974386951410, 0.01611822174466917210, 0.01738298574626848808 ),
 .UNSPECIFIED. ) ;
#173 = PLANE ( 'NONE',  #543 ) ;
#174 = CARTESIAN_POINT ( 'NONE',  ( 1.268411506570325642, 1.587500000000000355, 125.9599191420980020 ) ) ;
#175 = CARTESIAN_POINT ( 'NONE',  ( -1.245064030267288402, -2.006622987633882228E-16, 126.1110000000000326 ) ) ;
#176 = CARTESIAN_POINT ( 'NONE',  ( 0.4342314039556058880, 1.587500000000000355, 126.0828517174432051 ) ) ;
#177 = EDGE_CURVE ( 'NONE', #108, #461, #78, .T. ) ;
#178 = DIRECTION ( 'NONE',  ( -1.000000000000000000, 0.000000000000000000, 0.000000000000000000 ) ) ;
#179 = AXIS2_PLACEMENT_3D ( 'NONE', #367, #285, #364 ) ;
#180 = CARTESIAN_POINT ( 'NONE',  ( 1.587500000000000133, 1.061532360077852344, 126.0114020682936484 ) ) ;
#181 = CARTESIAN_POINT ( 'NONE',  ( 1.587500000000000577, 0.8514389605504923964, 126.0413675157792994 ) ) ;
#182 = CC_DESIGN_PERSON_AND_ORGANIZATION_ASSIGNMENT ( #153, #237, ( #20 ) ) ;
#183 = ORIENTED_EDGE ( 'NONE', *, *, #348, .F. ) ;
#184 = VERTEX_POINT ( 'NONE', #191 ) ;
#185 = TOROIDAL_SURFACE ( 'NONE', #418, 1.245064030267288402, 2.125000000000001776 ) ;
#186 = PERSON_AND_ORGANIZATION ( #341, #441 ) ;
#187 = DIRECTION ( 'NONE',  ( -0.000000000000000000, -0.000000000000000000, 1.000000000000000000 ) ) ;
#188 = ORIENTED_EDGE ( 'NONE', *, *, #56, .T. ) ;
#189 = VERTEX_POINT ( 'NONE', #410 ) ;
#190 = EDGE_CURVE ( 'NONE', #228, #420, #274, .T. ) ;
#191 = CARTESIAN_POINT ( 'NONE',  ( -1.268411506570323866, 1.587500000000000355, 125.9599191420980020 ) ) ;
#192 = ORIENTED_EDGE ( 'NONE', *, *, #229, .F. ) ;
#193 = CIRCLE ( 'NONE', #507, 2.032000000000000028 ) ;
#194 = CARTESIAN_POINT ( 'NONE',  ( 0.4342314039556020022, -1.587500000000000355, -126.0828517174431909 ) ) ;
#195 = ORIENTED_EDGE ( 'NONE', *, *, #52, .F. ) ;
#196 = ORIENTED_EDGE ( 'NONE', *, *, #374, .F. ) ;
#197 = EDGE_CURVE ( 'NONE', #98, #420, #239, .T. ) ;
#198 = SECURITY_CLASSIFICATION_LEVEL ( 'unclassified' ) ;
#199 = DIRECTION ( 'NONE',  ( 0.000000000000000000, 0.000000000000000000, -1.000000000000000000 ) ) ;
#200 = COORDINATED_UNIVERSAL_TIME_OFFSET ( 6, 0, .BEHIND. ) ;
#201 = VERTEX_POINT ( 'NONE', #444 ) ;
#202 = CIRCLE ( 'NONE', #352, 2.032000000000000028 ) ;
#203 = ORIENTED_EDGE ( 'NONE', *, *, #16, .T. ) ;
#204 = EDGE_CURVE ( 'NONE', #108, #228, #43, .T. ) ;
#205 = ADVANCED_BREP_SHAPE_REPRESENTATION ( '228-2500-267', ( #555, #129 ), #139 ) ;
#206 = DIRECTION ( 'NONE',  ( 1.000000000000000000, 0.000000000000000000, 0.000000000000000000 ) ) ;
#207 = CARTESIAN_POINT ( 'NONE',  ( -1.268411506570323866, 1.587500000000000355, -125.9599191420980020 ) ) ;
#208 = DIRECTION ( 'NONE',  ( 0.000000000000000000, 0.000000000000000000, 1.000000000000000000 ) ) ;
#209 = EDGE_CURVE ( 'NONE', #448, #18, #427, .T. ) ;
#210 = AXIS2_PLACEMENT_3D ( 'NONE', #408, #230, #330 ) ;
#211 = CARTESIAN_POINT ( 'NONE',  ( 1.268411506570323866, -1.587500000000000355, -126.1110000000000326 ) ) ;
#212 = EDGE_CURVE ( 'NONE', #98, #394, #288, .T. ) ;
#213 = CARTESIAN_POINT ( 'NONE',  ( 1.587500000000000355, 0.000000000000000000, -126.0832273616928916 ) ) ;
#214 = CC_DESIGN_PERSON_AND_ORGANIZATION_ASSIGNMENT ( #250, #539, ( #8 ) ) ;
#215 = CARTESIAN_POINT ( 'NONE',  ( -1.268411506570323866, 1.587500000000000355, 125.9599191420980020 ) ) ;
#216 = DIRECTION ( 'NONE',  ( -0.000000000000000000, -0.000000000000000000, 1.000000000000000000 ) ) ;
#217 = DIRECTION ( 'NONE',  ( 1.000000000000000000, 0.000000000000000000, 0.000000000000000000 ) ) ;
#218 = LOCAL_TIME ( 15, 2, 59.00000000000000000, #492 ) ;
#219 = CARTESIAN_POINT ( 'NONE',  ( 1.060147506033612963, -1.587500000000000133, 126.0117466962552015 ) ) ;
#220 = ORIENTED_EDGE ( 'NONE', *, *, #190, .T. ) ;
#221 = CARTESIAN_POINT ( 'NONE',  ( -0.8571092511719567986, -1.587500000000000355, 126.0622737970628293 ) ) ;
#222 = CARTESIAN_POINT ( 'NONE',  ( -1.587500000000000355, -1.587500000000000355, 126.1110000000000326 ) ) ;
#223 = ORIENTED_EDGE ( 'NONE', *, *, #513, .F. ) ;
#224 = ORIENTED_EDGE ( 'NONE', *, *, #310, .T. ) ;
#225 = AXIS2_PLACEMENT_3D ( 'NONE', #419, #505, #41 ) ;
#226 = EDGE_CURVE ( 'NONE', #53, #448, #313, .T. ) ;
#227 = CARTESIAN_POINT ( 'NONE',  ( -1.587500000000000355, -1.268411506570323866, -125.9599191420980020 ) ) ;
#228 = VERTEX_POINT ( 'NONE', #114 ) ;
#229 = EDGE_CURVE ( 'NONE', #189, #232, #202, .T. ) ;
#230 = DIRECTION ( 'NONE',  ( 0.000000000000000000, -1.000000000000000000, 0.000000000000000000 ) ) ;
#231 = CARTESIAN_POINT ( 'NONE',  ( 0.000000000000000000, 0.000000000000000000, 0.000000000000000000 ) ) ;
#232 = VERTEX_POINT ( 'NONE', #403 ) ;
#233 = CARTESIAN_POINT ( 'NONE',  ( -0.4219230645619462261, -1.587500000000000799, -126.0773073035536811 ) ) ;
#234 = CARTESIAN_POINT ( 'NONE',  ( 1.587500000000000355, -1.268411506570323866, -125.9599191420980020 ) ) ;
#235 = TOROIDAL_SURFACE ( 'NONE', #86, 1.245064030267288402, 2.125000000000001776 ) ;
#236 = CARTESIAN_POINT ( 'NONE',  ( -1.245064030267288402, -1.524763679400337895E-16, 123.9860000000000326 ) ) ;
#237 = PERSON_AND_ORGANIZATION_ROLE ( 'design_owner' ) ;
#238 = ORIENTED_EDGE ( 'NONE', *, *, #95, .T. ) ;
#239 = B_SPLINE_CURVE_WITH_KNOTS ( 'NONE', 3,
 ( #536, #110, #31, #160, #155, #23 ),
 .UNSPECIFIED., .F., .F.,
 ( 4, 2, 4 ),
 ( 0.01485345774306985611, 0.01548163471194342715, 0.01610981168081699819 ),
 .UNSPECIFIED. ) ;
#240 = CARTESIAN_POINT ( 'NONE',  ( 0.000000000000000000, 0.000000000000000000, 123.9860000000000326 ) ) ;
#241 = EDGE_LOOP ( 'NONE', ( #412, #487, #503, #144 ) ) ;
#242 = DATE_AND_TIME ( #74, #414 ) ;
#243 = DIRECTION ( 'NONE',  ( -0.000000000000000000, -0.000000000000000000, 1.000000000000000000 ) ) ;
#244 = CARTESIAN_POINT ( 'NONE',  ( -1.587500000000000355, -0.4276219574846449878, 126.0769963920001260 ) ) ;
#245 = AXIS2_PLACEMENT_3D ( 'NONE', #236, #46, #342 ) ;
#246 = LINE ( 'NONE', #166, #284 ) ;
#247 = ORIENTED_EDGE ( 'NONE', *, *, #280, .F. ) ;
#248 = CARTESIAN_POINT ( 'NONE',  ( 1.245064030267288402, 0.000000000000000000, 123.9860000000000326 ) ) ;
#249 = DIRECTION ( 'NONE',  ( 1.000000000000000000, 0.000000000000000000, 0.000000000000000000 ) ) ;
#250 = PERSON_AND_ORGANIZATION ( #341, #441 ) ;
#251 = EDGE_CURVE ( 'NONE', #484, #96, #48, .T. ) ;
#252 = CARTESIAN_POINT ( 'NONE',  ( -0.4219230645619439501, 1.587500000000000577, 126.0773073035536811 ) ) ;
#253 = DIRECTION ( 'NONE',  ( -1.000000000000000000, 0.000000000000000000, 0.000000000000000000 ) ) ;
#254 = CIRCLE ( 'NONE', #308, 2.125000000000001776 ) ;
#255 = APPROVAL ( #266, 'UNSPECIFIED' ) ;
#256 = CARTESIAN_POINT ( 'NONE',  ( 1.587500000000000355, 0.8513200635100111047, -126.0413775553181637 ) ) ;
#257 = CARTESIAN_POINT ( 'NONE',  ( -1.587500000000000355, -0.8513200635100112157, -126.0413775553181637 ) ) ;
#258 = ADVANCED_FACE ( 'NONE', ( #502 ), #185, .T. ) ;
#259 = PLANE ( 'NONE',  #475 ) ;
#260 = DIRECTION ( 'NONE',  ( -0.000000000000000000, -0.000000000000000000, 1.000000000000000000 ) ) ;
#261 = CIRCLE ( 'NONE', #87, 2.032000000000000028 ) ;
#262 = ORIENTED_EDGE ( 'NONE', *, *, #504, .T. ) ;
#263 = DIRECTION ( 'NONE',  ( 0.000000000000000000, 0.000000000000000000, -1.000000000000000000 ) ) ;
#264 = ORIENTED_EDGE ( 'NONE', *, *, #370, .F. ) ;
#265 = B_SPLINE_CURVE_WITH_KNOTS ( 'NONE', 3,
 ( #464, #508, #81, #256, #421, #379 ),
 .UNSPECIFIED., .F., .F.,
 ( 4, 2, 4 ),
 ( 0.000000000000000000, 0.0006365870327257435379, 0.001273174065451487076 ),
 .UNSPECIFIED. ) ;
#266 = APPROVAL_STATUS ( 'not_yet_approved' ) ;
#267 = ADVANCED_FACE ( 'NONE', ( #119 ), #278, .T. ) ;
#268 = DIRECTION ( 'NONE',  ( -1.000000000000000000, 0.000000000000000000, -0.000000000000000000 ) ) ;
#269 = EDGE_CURVE ( 'NONE', #443, #189, #67, .T. ) ;
#270 = EDGE_LOOP ( 'NONE', ( #273, #220, #548, #451, #404, #192, #406, #417 ) ) ;
#271 = CARTESIAN_POINT ( 'NONE',  ( 1.587499999999999689, -0.8513200635100124369, 126.0413775553181068 ) ) ;
#272 = EDGE_CURVE ( 'NONE', #96, #73, #159, .T. ) ;
#273 = ORIENTED_EDGE ( 'NONE', *, *, #204, .T. ) ;
#274 = CIRCLE ( 'NONE', #122, 2.125000000000001776 ) ;
#275 = DIRECTION ( 'NONE',  ( 0.000000000000000000, 0.000000000000000000, -1.000000000000000000 ) ) ;
#276 = DIRECTION ( 'NONE',  ( -0.000000000000000000, -0.000000000000000000, 1.000000000000000000 ) ) ;
#277 = ORIENTED_EDGE ( 'NONE', *, *, #212, .F. ) ;
#278 = PLANE ( 'NONE',  #497 ) ;
#279 = CARTESIAN_POINT ( 'NONE',  ( -1.587500000000000355, -1.944126793646423534E-16, 126.0832273616928916 ) ) ;
#280 = EDGE_CURVE ( 'NONE', #184, #435, #295, .T. ) ;
#281 = DIRECTION ( 'NONE',  ( -1.000000000000000000, 0.000000000000000000, -0.000000000000000000 ) ) ;
#282 = DATE_AND_TIME ( #107, #218 ) ;
#283 = ORIENTED_EDGE ( 'NONE', *, *, #269, .F. ) ;
#284 = VECTOR ( 'NONE', #125, 1000.000000000000000 ) ;
#285 = DIRECTION ( 'NONE',  ( -0.000000000000000000, -0.000000000000000000, 1.000000000000000000 ) ) ;
#286 = TOROIDAL_SURFACE ( 'NONE', #15, 1.245064030267288402, 2.125000000000001776 ) ;
#287 = ORIENTED_EDGE ( 'NONE', *, *, #463, .T. ) ;
#288 = LINE ( 'NONE', #371, #523 ) ;
#289 = CARTESIAN_POINT ( 'NONE',  ( -1.587500000000000133, 0.2143109880596210937, 126.0832273616928916 ) ) ;
#290 = LINE ( 'NONE', #85, #66 ) ;
#291 = EDGE_LOOP ( 'NONE', ( #145, #14 ) ) ;
#292 = CIRCLE ( 'NONE', #179, 2.032000000000000028 ) ;
#293 = CARTESIAN_POINT ( 'NONE',  ( 0.8571092511719567986, 1.587500000000000355, 126.0622737970628293 ) ) ;
#294 = CARTESIAN_POINT ( 'NONE',  ( 1.587500000000000355, -0.2114796877013866427, -126.0832273616929200 ) ) ;
#295 = B_SPLINE_CURVE_WITH_KNOTS ( 'NONE', 3,
 ( #215, #549, #337, #252, #77, #176, #293, #339 ),
 .UNSPECIFIED., .F., .F.,
 ( 4, 2, 2, 4 ),
 ( 0.01485345774306985611, 0.01548583974386951410, 0.01611822174466917210, 0.01738298574626848808 ),
 .UNSPECIFIED. ) ;
#296 = EDGE_CURVE ( 'NONE', #184, #349, #246, .T. ) ;
#297 = DIRECTION ( 'NONE',  ( 0.000000000000000000, 0.000000000000000000, -1.000000000000000000 ) ) ;
#298 = CARTESIAN_POINT ( 'NONE',  ( 1.268411506570323866, 1.587500000000000355, -126.1110000000000326 ) ) ;
#299 = CIRCLE ( 'NONE', #396, 2.032000000000000028 ) ;
#300 = DIRECTION ( 'NONE',  ( 1.000000000000000000, 0.000000000000000000, 0.000000000000000000 ) ) ;
#301 = CARTESIAN_POINT ( 'NONE',  ( 1.060147506033613629, 1.587500000000000577, -126.0117466962552015 ) ) ;
#302 = CARTESIAN_POINT ( 'NONE',  ( -1.587500000000000355, 1.944126793646423534E-16, -126.0832273616928916 ) ) ;
#303 = DATE_AND_TIME ( #517, #532 ) ;
#304 = LINE ( 'NONE', #211, #34 ) ;
#305 = CARTESIAN_POINT ( 'NONE',  ( 1.587500000000000355, 0.000000000000000000, 126.0832273616928916 ) ) ;
#306 = ORIENTED_EDGE ( 'NONE', *, *, #226, .F. ) ;
#307 = FACE_OUTER_BOUND ( 'NONE', #496, .T. ) ;
#308 = AXIS2_PLACEMENT_3D ( 'NONE', #248, #126, #208 ) ;
#309 = ORIENTED_EDGE ( 'NONE', *, *, #550, .T. ) ;
#310 = EDGE_CURVE ( 'NONE', #484, #324, #254, .T. ) ;
#311 = CARTESIAN_POINT ( 'NONE',  ( -0.4342314039556058880, -1.587500000000000355, 126.0828517174432051 ) ) ;
#312 = ORIENTED_EDGE ( 'NONE', *, *, #468, .F. ) ;
#313 = B_SPLINE_CURVE_WITH_KNOTS ( 'NONE', 3,
 ( #533, #152, #321, #233, #547, #194, #542, #327 ),
 .UNSPECIFIED., .F., .F.,
 ( 4, 2, 2, 4 ),
 ( 0.01485345774306985611, 0.01548583974386951237, 0.01611822174466916863, 0.01738298574626848461 ),
 .UNSPECIFIED. ) ;
#314 = FACE_OUTER_BOUND ( 'NONE', #157, .T. ) ;
#315 = ORIENTED_EDGE ( 'NONE', *, *, #251, .F. ) ;
#316 = CC_DESIGN_APPROVAL ( #82, ( #8 ) ) ;
#317 = ORIENTED_EDGE ( 'NONE', *, *, #209, .F. ) ;
#318 = AXIS2_PLACEMENT_3D ( 'NONE', #386, #297, #334 ) ;
#319 = PERSON_AND_ORGANIZATION ( #341, #441 ) ;
#320 = CARTESIAN_POINT ( 'NONE',  ( -1.587500000000000355, 1.268411506570325642, 125.9599191420980020 ) ) ;
#321 = CARTESIAN_POINT ( 'NONE',  ( -0.8486262390323795479, -1.587500000000000577, -126.0417688228239683 ) ) ;
#322 = EDGE_LOOP ( 'NONE', ( #480, #11, #455, #312, #317, #306, #151, #500 ) ) ;
#323 = DIRECTION ( 'NONE',  ( -0.000000000000000000, -0.000000000000000000, 1.000000000000000000 ) ) ;
#324 = VERTEX_POINT ( 'NONE', #38 ) ;
#325 = AXIS2_PLACEMENT_3D ( 'NONE', #561, #36, #206 ) ;
#326 = CALENDAR_DATE ( 2022, 6, 6 ) ;
#327 = CARTESIAN_POINT ( 'NONE',  ( 1.268411506570323866, -1.587500000000000355, -125.9599191420980020 ) ) ;
#328 = DIRECTION ( 'NONE',  ( 1.000000000000000000, 0.000000000000000000, 0.000000000000000000 ) ) ;
#329 = LINE ( 'NONE', #69, #400 ) ;
#330 = DIRECTION ( 'NONE',  ( 0.000000000000000000, 0.000000000000000000, -1.000000000000000000 ) ) ;
#331 = ADVANCED_FACE ( 'NONE', ( #88 ), #173, .F. ) ;
#332 =( LENGTH_UNIT ( ) NAMED_UNIT ( * ) SI_UNIT ( .MILLI., .METRE. ) );
#333 = ORIENTED_EDGE ( 'NONE', *, *, #513, .T. ) ;
#334 = DIRECTION ( 'NONE',  ( -1.000000000000000000, 0.000000000000000000, 0.000000000000000000 ) ) ;
#335 = CARTESIAN_POINT ( 'NONE',  ( -0.4342314039556020022, 1.587500000000000355, -126.0828517174431909 ) ) ;
#336 = APPROVAL_ROLE ( '' ) ;
#337 = CARTESIAN_POINT ( 'NONE',  ( -0.8486262390323777716, 1.587500000000000577, 126.0417688228239683 ) ) ;
#338 = CARTESIAN_POINT ( 'NONE',  ( 0.2043756380772897008, 1.587500000000000355, -126.0834096189637989 ) ) ;
#339 = CARTESIAN_POINT ( 'NONE',  ( 1.268411506570325642, 1.587500000000000355, 125.9599191420980020 ) ) ;
#340 = FACE_OUTER_BOUND ( 'NONE', #390, .T. ) ;
#341 = PERSON ( 'UNSPECIFIED', 'UNSPECIFIED', 'UNSPECIFIED', ('UNSPECIFIED'), ('UNSPECIFIED'), ('UNSPECIFIED') ) ;
#342 = DIRECTION ( 'NONE',  ( 1.000000000000000000, 1.224646799147353207E-16, 0.000000000000000000 ) ) ;
#343 = CARTESIAN_POINT ( 'NONE',  ( -1.587500000000000355, 1.268411506570323866, -125.9599191420980020 ) ) ;
#344 = CC_DESIGN_APPROVAL ( #486, ( #35 ) ) ;
#345 = CARTESIAN_POINT ( 'NONE',  ( 1.587500000000000355, -0.4276219574846449878, -126.0769963920001260 ) ) ;
#346 = AXIS2_PLACEMENT_3D ( 'NONE', #401, #351, #268 ) ;
#347 = CARTESIAN_POINT ( 'NONE',  ( 1.587500000000000355, 0.4276219574846449878, 126.0769963920001260 ) ) ;
#348 = EDGE_CURVE ( 'NONE', #18, #134, #290, .T. ) ;
#349 = VERTEX_POINT ( 'NONE', #425 ) ;
#350 = DIRECTION ( 'NONE',  ( 1.000000000000000000, 0.000000000000000000, 0.000000000000000000 ) ) ;
#351 = DIRECTION ( 'NONE',  ( 0.000000000000000000, 0.000000000000000000, -1.000000000000000000 ) ) ;
#352 = AXIS2_PLACEMENT_3D ( 'NONE', #75, #243, #163 ) ;
#353 = B_SPLINE_CURVE_WITH_KNOTS ( 'NONE', 3,
 ( #527, #143, #482, #271, #442, #60 ),
 .UNSPECIFIED., .F., .F.,
 ( 4, 2, 4 ),
 ( 0.000000000000000000, 0.0006365870327257444053, 0.001273174065451489027 ),
 .UNSPECIFIED. ) ;
#354 = ORIENTED_EDGE ( 'NONE', *, *, #10, .F. ) ;
#355 = CC_DESIGN_DATE_AND_TIME_ASSIGNMENT ( #303, #147, ( #35 ) ) ;
#356 = PERSON_AND_ORGANIZATION_ROLE ( 'creator' ) ;
#357 = DIRECTION ( 'NONE',  ( 1.000000000000000000, 0.000000000000000000, 0.000000000000000000 ) ) ;
#358 = ORIENTED_EDGE ( 'NONE', *, *, #280, .T. ) ;
#359 = FACE_OUTER_BOUND ( 'NONE', #526, .T. ) ;
#360 = ORIENTED_EDGE ( 'NONE', *, *, #272, .F. ) ;
#361 = DIRECTION ( 'NONE',  ( -0.000000000000000000, -0.000000000000000000, 1.000000000000000000 ) ) ;
#362 = ORIENTED_EDGE ( 'NONE', *, *, #12, .F. ) ;
#363 = VECTOR ( 'NONE', #449, 1000.000000000000000 ) ;
#364 = DIRECTION ( 'NONE',  ( 1.000000000000000000, 0.000000000000000000, 0.000000000000000000 ) ) ;
#365 = PERSON_AND_ORGANIZATION ( #341, #441 ) ;
#366 = ORIENTED_EDGE ( 'NONE', *, *, #558, .T. ) ;
#367 = CARTESIAN_POINT ( 'NONE',  ( 0.000000000000000000, 0.000000000000000000, -125.9599191420980020 ) ) ;
#368 = B_SPLINE_CURVE_WITH_KNOTS ( 'NONE', 3,
 ( #518, #180, #181, #347, #132, #305 ),
 .UNSPECIFIED., .F., .F.,
 ( 4, 2, 4 ),
 ( 0.01485345774306985611, 0.01548163471194342715, 0.01610981168081699819 ),
 .UNSPECIFIED. ) ;
#369 = EDGE_CURVE ( 'NONE', #134, #477, #1, .T. ) ;
#370 = EDGE_CURVE ( 'NONE', #228, #108, #407, .T. ) ;
#371 = CARTESIAN_POINT ( 'NONE',  ( -1.587500000000000355, 1.268411506570323866, -126.1110000000000326 ) ) ;
#372 = ORIENTED_EDGE ( 'NONE', *, *, #135, .F. ) ;
#373 = PERSON_AND_ORGANIZATION_ROLE ( 'design_supplier' ) ;
#374 = EDGE_CURVE ( 'NONE', #96, #484, #170, .T. ) ;
#375 = CARTESIAN_POINT ( 'NONE',  ( 0.000000000000000000, 0.000000000000000000, -126.1110000000000326 ) ) ;
#376 = AXIS2_PLACEMENT_3D ( 'NONE', #466, #216, #426 ) ;
#377 = CARTESIAN_POINT ( 'NONE',  ( -1.587500000000000355, 0.8513200635100126590, 126.0413775553181637 ) ) ;
#378 = CARTESIAN_POINT ( 'NONE',  ( -1.587500000000000355, 1.587500000000000355, 126.1110000000000326 ) ) ;
#379 = CARTESIAN_POINT ( 'NONE',  ( 1.587500000000000355, 1.268411506570323866, -125.9599191420980020 ) ) ;
#380 = CARTESIAN_POINT ( 'NONE',  ( -1.587500000000000355, -1.944126793646423534E-16, 126.0832273616928916 ) ) ;
#381 = EDGE_CURVE ( 'NONE', #435, #443, #261, .T. ) ;
#382 = CARTESIAN_POINT ( 'NONE',  ( 0.000000000000000000, 0.000000000000000000, 125.9599191420980020 ) ) ;
#383 = LINE ( 'NONE', #298, #546 ) ;
#384 = CLOSED_SHELL ( 'NONE', ( #24, #553, #109, #509, #124, #331, #258, #149, #267, #117, #80, #481, #131, #140 ) ) ;
#385 = CARTESIAN_POINT ( 'NONE',  ( 1.587500000000000355, 0.000000000000000000, -126.0832273616928916 ) ) ;
#386 = CARTESIAN_POINT ( 'NONE',  ( 0.000000000000000000, 0.000000000000000000, 125.9599191420980020 ) ) ;
#387 = CC_DESIGN_PERSON_AND_ORGANIZATION_ASSIGNMENT ( #156, #29, ( #35 ) ) ;
#388 = CARTESIAN_POINT ( 'NONE',  ( -1.587500000000000355, -1.268411506570323866, -125.9599191420980020 ) ) ;
#389 = DIRECTION ( 'NONE',  ( 0.000000000000000000, 0.000000000000000000, 1.000000000000000000 ) ) ;
#390 = EDGE_LOOP ( 'NONE', ( #165, #445, #366, #262 ) ) ;
#391 = CARTESIAN_POINT ( 'NONE',  ( -1.268411506570325642, -1.587500000000000355, 125.9599191420980020 ) ) ;
#392 = FACE_OUTER_BOUND ( 'NONE', #291, .T. ) ;
#393 = CC_DESIGN_APPROVAL ( #255, ( #545 ) ) ;
#394 = VERTEX_POINT ( 'NONE', #127 ) ;
#395 = CALENDAR_DATE ( 2022, 6, 6 ) ;
#396 = AXIS2_PLACEMENT_3D ( 'NONE', #447, #115, #164 ) ;
#397 = CARTESIAN_POINT ( 'NONE',  ( 1.587500000000000355, -1.587500000000000355, 126.1110000000000326 ) ) ;
#398 = AXIS2_PLACEMENT_3D ( 'NONE', #101, #276, #328 ) ;
#399 = ORIENTED_EDGE ( 'NONE', *, *, #197, .T. ) ;
#400 = VECTOR ( 'NONE', #409, 1000.000000000000000 ) ;
#401 = CARTESIAN_POINT ( 'NONE',  ( -1.587500000000000355, 1.587500000000000355, 126.1110000000000326 ) ) ;
#402 = ORIENTED_EDGE ( 'NONE', *, *, #135, .T. ) ;
#403 = CARTESIAN_POINT ( 'NONE',  ( 1.268411506570323866, 1.587500000000000355, -125.9599191420980020 ) ) ;
#404 = ORIENTED_EDGE ( 'NONE', *, *, #58, .F. ) ;
#405 = DIRECTION ( 'NONE',  ( 0.000000000000000000, 0.000000000000000000, -1.000000000000000000 ) ) ;
#406 = ORIENTED_EDGE ( 'NONE', *, *, #463, .F. ) ;
#407 = CIRCLE ( 'NONE', #225, 1.245064030267288402 ) ;
#408 = CARTESIAN_POINT ( 'NONE',  ( 1.245064030267288402, 0.000000000000000000, -123.9860000000000326 ) ) ;
#409 = DIRECTION ( 'NONE',  ( -0.000000000000000000, -0.000000000000000000, 1.000000000000000000 ) ) ;
#410 = CARTESIAN_POINT ( 'NONE',  ( 1.587500000000000355, 1.268411506570323866, -125.9599191420980020 ) ) ;
#411 =( NAMED_UNIT ( * ) SI_UNIT ( $, .STERADIAN. ) SOLID_ANGLE_UNIT ( ) );
#412 = ORIENTED_EDGE ( 'NONE', *, *, #430, .T. ) ;
#413 = CC_DESIGN_PERSON_AND_ORGANIZATION_ASSIGNMENT ( #501, #373, ( #545 ) ) ;
#414 = LOCAL_TIME ( 15, 2, 59.00000000000000000, #113 ) ;
#415 = APPROVAL_DATE_TIME ( #242, #82 ) ;
#416 = FACE_OUTER_BOUND ( 'NONE', #544, .T. ) ;
#417 = ORIENTED_EDGE ( 'NONE', *, *, #177, .F. ) ;
#418 = AXIS2_PLACEMENT_3D ( 'NONE', #62, #104, #106 ) ;
#419 = CARTESIAN_POINT ( 'NONE',  ( 0.000000000000000000, 0.000000000000000000, -126.1110000000000326 ) ) ;
#420 = VERTEX_POINT ( 'NONE', #83 ) ;
#421 = CARTESIAN_POINT ( 'NONE',  ( 1.587500000000000355, 1.061392899157109104, -126.0114367738516847 ) ) ;
#422 = DIRECTION ( 'NONE',  ( 0.000000000000000000, 0.000000000000000000, -1.000000000000000000 ) ) ;
#423 = DATE_TIME_ROLE ( 'classification_date' ) ;
#424 = CC_DESIGN_SECURITY_CLASSIFICATION ( #8, ( #545 ) ) ;
#425 = CARTESIAN_POINT ( 'NONE',  ( -1.268411506570323866, 1.587500000000000355, -125.9599191420980020 ) ) ;
#426 = DIRECTION ( 'NONE',  ( 1.000000000000000000, 0.000000000000000000, 0.000000000000000000 ) ) ;
#427 = CIRCLE ( 'NONE', #485, 2.032000000000000028 ) ;
#428 = CARTESIAN_POINT ( 'NONE',  ( 0.000000000000000000, 0.000000000000000000, -125.9599191420980020 ) ) ;
#429 = DIRECTION ( 'NONE',  ( -0.000000000000000000, -0.000000000000000000, 1.000000000000000000 ) ) ;
#430 = EDGE_CURVE ( 'NONE', #349, #98, #193, .T. ) ;
#431 = DIRECTION ( 'NONE',  ( 0.000000000000000000, -0.000000000000000000, 1.000000000000000000 ) ) ;
#432 = AXIS2_PLACEMENT_3D ( 'NONE', #49, #187, #357 ) ;
#433 = CARTESIAN_POINT ( 'NONE',  ( -1.587500000000000355, -1.268411506570323866, -126.1110000000000326 ) ) ;
#434 = DIRECTION ( 'NONE',  ( -1.000000000000000000, 0.000000000000000000, 0.000000000000000000 ) ) ;
#435 = VERTEX_POINT ( 'NONE', #174 ) ;
#436 = UNCERTAINTY_MEASURE_WITH_UNIT (LENGTH_MEASURE( 1.000000000000000082E-05 ), #332, 'distance_accuracy_value', 'NONE');
#437 = B_SPLINE_CURVE_WITH_KNOTS ( 'NONE', 3,
 ( #120, #459, #76, #244, #490, #279 ),
 .UNSPECIFIED., .F., .F.,
 ( 4, 2, 4 ),
 ( 0.01485345774306985611, 0.01548163471194342715, 0.01610981168081699819 ),
 .UNSPECIFIED. ) ;
#438 = ORIENTED_EDGE ( 'NONE', *, *, #209, .T. ) ;
#439 = COORDINATED_UNIVERSAL_TIME_OFFSET ( 6, 0, .BEHIND. ) ;
#440 = EDGE_LOOP ( 'NONE', ( #90, #65, #63, #358 ) ) ;
#441 = ORGANIZATION ( 'UNSPECIFIED', 'UNSPECIFIED', '' ) ;
#442 = CARTESIAN_POINT ( 'NONE',  ( 1.587500000000000133, -1.061392899157110215, 126.0114367738516847 ) ) ;
#443 = VERTEX_POINT ( 'NONE', #44 ) ;
#444 = CARTESIAN_POINT ( 'NONE',  ( -1.268411506570325642, -1.587500000000000355, 125.9599191420980020 ) ) ;
#445 = ORIENTED_EDGE ( 'NONE', *, *, #10, .T. ) ;
#446 = CARTESIAN_POINT ( 'NONE',  ( 0.000000000000000000, 0.000000000000000000, -125.9599191420980020 ) ) ;
#447 = CARTESIAN_POINT ( 'NONE',  ( 0.000000000000000000, 0.000000000000000000, 125.9599191420980020 ) ) ;
#448 = VERTEX_POINT ( 'NONE', #557 ) ;
#449 = DIRECTION ( 'NONE',  ( 0.000000000000000000, 0.000000000000000000, -1.000000000000000000 ) ) ;
#450 = APPROVAL_DATE_TIME ( #282, #486 ) ;
#451 = ORIENTED_EDGE ( 'NONE', *, *, #430, .F. ) ;
#452 = DIRECTION ( 'NONE',  ( -0.000000000000000000, -0.000000000000000000, 1.000000000000000000 ) ) ;
#453 = CC_DESIGN_PERSON_AND_ORGANIZATION_ASSIGNMENT ( #186, #356, ( #545 ) ) ;
#454 = APPLICATION_PROTOCOL_DEFINITION ( 'international standard', 'config_control_design', 1994, #5 ) ;
#455 = ORIENTED_EDGE ( 'NONE', *, *, #177, .T. ) ;
#456 = DATE_AND_TIME ( #326, #483 ) ;
#457 = DIRECTION ( 'NONE',  ( -0.000000000000000000, -0.000000000000000000, 1.000000000000000000 ) ) ;
#458 =( NAMED_UNIT ( * ) PLANE_ANGLE_UNIT ( ) SI_UNIT ( $, .RADIAN. ) );
#459 = CARTESIAN_POINT ( 'NONE',  ( -1.587500000000000133, -1.061532360077852344, 126.0114020682936484 ) ) ;
#460 = CARTESIAN_POINT ( 'NONE',  ( 1.587500000000000133, -1.061532360077852344, -126.0114020682936484 ) ) ;
#461 = VERTEX_POINT ( 'NONE', #213 ) ;
#462 = AXIS2_PLACEMENT_3D ( 'NONE', #148, #323, #491 ) ;
#463 = EDGE_CURVE ( 'NONE', #461, #189, #265, .T. ) ;
#464 = CARTESIAN_POINT ( 'NONE',  ( 1.587500000000000355, 0.000000000000000000, -126.0832273616928916 ) ) ;
#465 = CYLINDRICAL_SURFACE ( 'NONE', #32, 2.032000000000000028 ) ;
#466 = CARTESIAN_POINT ( 'NONE',  ( 0.000000000000000000, 0.000000000000000000, -126.1110000000000326 ) ) ;
#467 = DIRECTION ( 'NONE',  ( 0.000000000000000000, -1.000000000000000000, 0.000000000000000000 ) ) ;
#468 = EDGE_CURVE ( 'NONE', #18, #461, #42, .T. ) ;
#469 = DIRECTION ( 'NONE',  ( 0.000000000000000000, 0.000000000000000000, -1.000000000000000000 ) ) ;
#470 = PLANE ( 'NONE',  #488 ) ;
#471 = CARTESIAN_POINT ( 'NONE',  ( -1.587500000000000577, -0.4277385810629837359, -126.0769865435831463 ) ) ;
#472 = FACE_OUTER_BOUND ( 'NONE', #270, .T. ) ;
#473 = LOCAL_TIME ( 15, 2, 59.00000000000000000, #439 ) ;
#474 = EDGE_LOOP ( 'NONE', ( #522, #264 ) ) ;
#475 = AXIS2_PLACEMENT_3D ( 'NONE', #141, #7, #431 ) ;
#476 = CARTESIAN_POINT ( 'NONE',  ( 1.268411506570323866, -1.587500000000000355, 125.9599191420980020 ) ) ;
#477 = VERTEX_POINT ( 'NONE', #516 ) ;
#478 = DESIGN_CONTEXT ( 'detailed design', #54, 'design' ) ;
#479 = DIRECTION ( 'NONE',  ( 1.000000000000000000, 0.000000000000000000, 0.000000000000000000 ) ) ;
#480 = ORIENTED_EDGE ( 'NONE', *, *, #190, .F. ) ;
#481 = ADVANCED_FACE ( 'NONE', ( #559 ), #465, .T. ) ;
#482 = CARTESIAN_POINT ( 'NONE',  ( 1.587500000000000799, -0.4277385810629841245, 126.0769865435831747 ) ) ;
#483 = LOCAL_TIME ( 15, 2, 59.00000000000000000, #70 ) ;
#484 = VERTEX_POINT ( 'NONE', #137 ) ;
#485 = AXIS2_PLACEMENT_3D ( 'NONE', #446, #457, #71 ) ;
#486 = APPROVAL ( #72, 'UNSPECIFIED' ) ;
#487 = ORIENTED_EDGE ( 'NONE', *, *, #212, .T. ) ;
#488 = AXIS2_PLACEMENT_3D ( 'NONE', #222, #479, #275 ) ;
#489 = APPROVAL_ROLE ( '' ) ;
#490 = CARTESIAN_POINT ( 'NONE',  ( -1.587500000000000355, -0.2114796877013866427, 126.0832273616929200 ) ) ;
#491 = DIRECTION ( 'NONE',  ( 1.000000000000000000, 0.000000000000000000, 0.000000000000000000 ) ) ;
#492 = COORDINATED_UNIVERSAL_TIME_OFFSET ( 6, 0, .BEHIND. ) ;
#493 = ORIENTED_EDGE ( 'NONE', *, *, #504, .F. ) ;
#494 = PRODUCT_RELATED_PRODUCT_CATEGORY ( 'detail', '', ( #20 ) ) ;
#495 = CARTESIAN_POINT ( 'NONE',  ( -1.245064030267288402, 1.524763679400337895E-16, -123.9860000000000326 ) ) ;
#496 = EDGE_LOOP ( 'NONE', ( #354, #92, #538, #333 ) ) ;
#497 = AXIS2_PLACEMENT_3D ( 'NONE', #64, #405, #281 ) ;
#498 = APPROVAL_STATUS ( 'not_yet_approved' ) ;
#499 = DIRECTION ( 'NONE',  ( -1.000000000000000000, 1.224646799147353207E-16, 0.000000000000000000 ) ) ;
#500 = ORIENTED_EDGE ( 'NONE', *, *, #530, .F. ) ;
#501 = PERSON_AND_ORGANIZATION ( #341, #441 ) ;
#502 = FACE_OUTER_BOUND ( 'NONE', #322, .T. ) ;
#503 = ORIENTED_EDGE ( 'NONE', *, *, #52, .T. ) ;
#504 = EDGE_CURVE ( 'NONE', #142, #138, #130, .T. ) ;
#505 = DIRECTION ( 'NONE',  ( -0.000000000000000000, -0.000000000000000000, 1.000000000000000000 ) ) ;
#506 = CARTESIAN_POINT ( 'NONE',  ( 0.4219230645619462261, 1.587500000000000799, -126.0773073035536811 ) ) ;
#507 = AXIS2_PLACEMENT_3D ( 'NONE', #428, #121, #300 ) ;
#508 = CARTESIAN_POINT ( 'NONE',  ( 1.587500000000000133, 0.2143109880596208161, -126.0832273616928916 ) ) ;
#509 = ADVANCED_FACE ( 'NONE', ( #307 ), #259, .F. ) ;
#510 = DIRECTION ( 'NONE',  ( 0.000000000000000000, -0.000000000000000000, -1.000000000000000000 ) ) ;
#511 = CC_DESIGN_DATE_AND_TIME_ASSIGNMENT ( #456, #423, ( #8 ) ) ;
#512 = DIRECTION ( 'NONE',  ( 0.000000000000000000, 0.000000000000000000, -1.000000000000000000 ) ) ;
#513 = EDGE_CURVE ( 'NONE', #477, #201, #172, .T. ) ;
#514 = CARTESIAN_POINT ( 'NONE',  ( 1.245064030267288402, 0.000000000000000000, -126.1110000000000326 ) ) ;
#515 = B_SPLINE_CURVE_WITH_KNOTS ( 'NONE', 3,
 ( #302, #4, #471, #257, #91, #388 ),
 .UNSPECIFIED., .F., .F.,
 ( 4, 2, 4 ),
 ( 1.905938025164291451E-19, 0.0006365870327257436463, 0.001273174065451487076 ),
 .UNSPECIFIED. ) ;
#516 = CARTESIAN_POINT ( 'NONE',  ( 1.268411506570323866, -1.587500000000000355, 125.9599191420980020 ) ) ;
#517 = CALENDAR_DATE ( 2022, 6, 6 ) ;
#518 = CARTESIAN_POINT ( 'NONE',  ( 1.587500000000000355, 1.268411506570323866, 125.9599191420980020 ) ) ;
#519 = FACE_OUTER_BOUND ( 'NONE', #241, .T. ) ;
#520 = EDGE_LOOP ( 'NONE', ( #196, #105, #102, #79, #223, #528, #372, #30 ) ) ;
#521 = DIRECTION ( 'NONE',  ( -0.000000000000000000, -0.000000000000000000, 1.000000000000000000 ) ) ;
#522 = ORIENTED_EDGE ( 'NONE', *, *, #204, .F. ) ;
#523 = VECTOR ( 'NONE', #361, 1000.000000000000000 ) ;
#524 = CARTESIAN_POINT ( 'NONE',  ( 0.000000000000000000, 0.000000000000000000, -126.1110000000000326 ) ) ;
#525 = PLANE ( 'NONE',  #100 ) ;
#526 = EDGE_LOOP ( 'NONE', ( #50, #238, #6, #94 ) ) ;
#527 = CARTESIAN_POINT ( 'NONE',  ( 1.587500000000000355, 0.000000000000000000, 126.0832273616928916 ) ) ;
#528 = ORIENTED_EDGE ( 'NONE', *, *, #369, .F. ) ;
#529 = CARTESIAN_POINT ( 'NONE',  ( 1.587500000000000355, -1.268411506570325642, 125.9599191420980020 ) ) ;
#530 = EDGE_CURVE ( 'NONE', #420, #138, #515, .T. ) ;
#531 = EDGE_LOOP ( 'NONE', ( #277, #399, #21, #493, #203, #161 ) ) ;
#532 = LOCAL_TIME ( 15, 2, 59.00000000000000000, #200 ) ;
#533 = CARTESIAN_POINT ( 'NONE',  ( -1.268411506570323866, -1.587500000000000355, -125.9599191420980020 ) ) ;
#534 = DIRECTION ( 'NONE',  ( 1.000000000000000000, 0.000000000000000000, 0.000000000000000000 ) ) ;
#535 = CARTESIAN_POINT ( 'NONE',  ( -1.587500000000000355, 1.061392899157110659, 126.0114367738516847 ) ) ;
#536 = CARTESIAN_POINT ( 'NONE',  ( -1.587500000000000355, 1.268411506570323866, -125.9599191420980020 ) ) ;
#537 = APPROVAL_ROLE ( '' ) ;
#538 = ORIENTED_EDGE ( 'NONE', *, *, #56, .F. ) ;
#539 = PERSON_AND_ORGANIZATION_ROLE ( 'classification_officer' ) ;
#540 = DIRECTION ( 'NONE',  ( 1.224646799147353207E-16, 1.000000000000000000, 0.000000000000000000 ) ) ;
#541 = CARTESIAN_POINT ( 'NONE',  ( 0.000000000000000000, 0.000000000000000000, 125.9599191420980020 ) ) ;
#542 = CARTESIAN_POINT ( 'NONE',  ( 0.8571092511719541340, -1.587500000000000133, -126.0622737970628009 ) ) ;
#543 = AXIS2_PLACEMENT_3D ( 'NONE', #378, #467, #510 ) ;
#544 = EDGE_LOOP ( 'NONE', ( #360, #315, #224, #154, #112, #247, #195, #362 ) ) ;
#545 = PRODUCT_DEFINITION_FORMATION_WITH_SPECIFIED_SOURCE ( 'ANY', '', #20, .NOT_KNOWN. ) ;
#546 = VECTOR ( 'NONE', #560, 1000.000000000000000 ) ;
#547 = CARTESIAN_POINT ( 'NONE',  ( -0.2043756380772897008, -1.587500000000000355, -126.0834096189637989 ) ) ;
#548 = ORIENTED_EDGE ( 'NONE', *, *, #197, .F. ) ;
#549 = CARTESIAN_POINT ( 'NONE',  ( -1.060147506033612963, 1.587500000000000133, 126.0117466962552015 ) ) ;
#550 = EDGE_CURVE ( 'NONE', #443, #324, #368, .T. ) ;
#551 = DIRECTION ( 'NONE',  ( 0.000000000000000000, 0.000000000000000000, -1.000000000000000000 ) ) ;
#552 = CARTESIAN_POINT ( 'NONE',  ( 1.587500000000000355, -1.268411506570323866, -125.9599191420980020 ) ) ;
#553 = ADVANCED_FACE ( 'NONE', ( #472 ), #59, .T. ) ;
#554 = CYLINDRICAL_SURFACE ( 'NONE', #376, 2.032000000000000028 ) ;
#555 = MANIFOLD_SOLID_BREP ( '228-2500-267', #384 ) ;
#556 = AXIS2_PLACEMENT_3D ( 'NONE', #375, #452, #19 ) ;
#557 = CARTESIAN_POINT ( 'NONE',  ( 1.268411506570323866, -1.587500000000000355, -125.9599191420980020 ) ) ;
#558 = EDGE_CURVE ( 'NONE', #201, #142, #299, .T. ) ;
#559 = FACE_OUTER_BOUND ( 'NONE', #61, .T. ) ;
#560 = DIRECTION ( 'NONE',  ( -0.000000000000000000, -0.000000000000000000, 1.000000000000000000 ) ) ;
#561 = CARTESIAN_POINT ( 'NONE',  ( 0.000000000000000000, 0.000000000000000000, 126.1110000000000326 ) ) ;
ENDSEC;
END-ISO-10303-21;
