ISO-10303-21;
HEADER;
FILE_DESCRIPTION (( 'STEP AP203' ),
    '1' );
FILE_NAME ('228-2500-268.step',
    '2022-06-06T20:03:10',
    ( '' ),
    ( '' ),
    'SwSTEP 2.0',
    'SolidWorks 2021',
    '' );
FILE_SCHEMA (( 'CONFIG_CONTROL_DESIGN' ));
ENDSEC;

DATA;
#1 = VECTOR ( 'NONE', #347, 1000.000000000000000 ) ;
#2 = ADVANCED_FACE ( 'NONE', ( #278 ), #148, .F. ) ;
#3 = CARTESIAN_POINT ( 'NONE',  ( -1.245064030267288402, 1.524763679400337895E-16, -136.6860000000000355 ) ) ;
#4 = CARTESIAN_POINT ( 'NONE',  ( -1.587500000000000355, -1.268411506570323866, -138.6599191420980048 ) ) ;
#5 = CARTESIAN_POINT ( 'NONE',  ( 0.000000000000000000, 0.000000000000000000, 138.6599191420980048 ) ) ;
#6 = EDGE_CURVE ( 'NONE', #520, #234, #330, .T. ) ;
#7 = ORIENTED_EDGE ( 'NONE', *, *, #501, .F. ) ;
#8 = CARTESIAN_POINT ( 'NONE',  ( 0.000000000000000000, 0.000000000000000000, 138.6599191420980048 ) ) ;
#9 = DIRECTION ( 'NONE',  ( -0.000000000000000000, -0.000000000000000000, 1.000000000000000000 ) ) ;
#10 = CLOSED_SHELL ( 'NONE', ( #31, #267, #427, #92, #412, #2, #156, #281, #62, #388, #81, #160, #476, #311 ) ) ;
#11 = PRODUCT_DEFINITION ( 'UNKNOWN', '', #545, #231 ) ;
#12 = VECTOR ( 'NONE', #165, 1000.000000000000000 ) ;
#13 = ORIENTED_EDGE ( 'NONE', *, *, #50, .T. ) ;
#14 = ORIENTED_EDGE ( 'NONE', *, *, #482, .F. ) ;
#15 = APPROVAL_ROLE ( '' ) ;
#16 = DIRECTION ( 'NONE',  ( -0.000000000000000000, -0.000000000000000000, 1.000000000000000000 ) ) ;
#17 = VERTEX_POINT ( 'NONE', #283 ) ;
#18 = CARTESIAN_POINT ( 'NONE',  ( -1.587500000000000133, 0.2143109880596215933, 138.7832273616928376 ) ) ;
#19 =( LENGTH_UNIT ( ) NAMED_UNIT ( * ) SI_UNIT ( .MILLI., .METRE. ) );
#20 = ORIENTED_EDGE ( 'NONE', *, *, #472, .F. ) ;
#21 = TOROIDAL_SURFACE ( 'NONE', #239, 1.245064030267288402, 2.124999999999988898 ) ;
#22 = EDGE_CURVE ( 'NONE', #101, #391, #276, .T. ) ;
#23 = CARTESIAN_POINT ( 'NONE',  ( 0.000000000000000000, 0.000000000000000000, -138.8110000000000070 ) ) ;
#24 = DATE_AND_TIME ( #147, #414 ) ;
#25 = CARTESIAN_POINT ( 'NONE',  ( 0.4219230645619470033, -1.587500000000000355, 138.7773073035536413 ) ) ;
#26 = CARTESIAN_POINT ( 'NONE',  ( -1.587500000000000133, 1.061532360077857451, -138.7114020682936086 ) ) ;
#27 = VERTEX_POINT ( 'NONE', #188 ) ;
#28 = CARTESIAN_POINT ( 'NONE',  ( -1.587500000000000355, 1.268411506570323866, -138.8110000000000070 ) ) ;
#29 = CARTESIAN_POINT ( 'NONE',  ( 0.000000000000000000, 0.000000000000000000, 0.000000000000000000 ) ) ;
#30 = EDGE_LOOP ( 'NONE', ( #322, #448, #433, #193, #462, #38, #20, #317 ) ) ;
#31 = ADVANCED_FACE ( 'NONE', ( #296 ), #141, .T. ) ;
#32 = AXIS2_PLACEMENT_3D ( 'NONE', #77, #554, #295 ) ;
#33 = LINE ( 'NONE', #145, #84 ) ;
#34 = CARTESIAN_POINT ( 'NONE',  ( -0.8571092511719601292, -1.587500000000000577, 138.7622737970627895 ) ) ;
#35 = EDGE_CURVE ( 'NONE', #402, #303, #504, .T. ) ;
#36 = APPROVAL_STATUS ( 'not_yet_approved' ) ;
#37 = CARTESIAN_POINT ( 'NONE',  ( 1.587500000000000355, 0.000000000000000000, 138.7832273616928660 ) ) ;
#38 = ORIENTED_EDGE ( 'NONE', *, *, #323, .F. ) ;
#39 = CARTESIAN_POINT ( 'NONE',  ( 1.587500000000000355, -1.587500000000000355, 138.8110000000000070 ) ) ;
#40 = DIRECTION ( 'NONE',  ( 1.224646799147353207E-16, -1.000000000000000000, 0.000000000000000000 ) ) ;
#41 = DIRECTION ( 'NONE',  ( -1.000000000000000000, 0.000000000000000000, 0.000000000000000000 ) ) ;
#42 = AXIS2_PLACEMENT_3D ( 'NONE', #269, #9, #257 ) ;
#43 = CARTESIAN_POINT ( 'NONE',  ( -1.587500000000000355, -1.268411506570323866, -138.8110000000000070 ) ) ;
#44 = CARTESIAN_POINT ( 'NONE',  ( 1.587500000000000355, -1.268411506570325642, 138.6599191420980048 ) ) ;
#45 = EDGE_CURVE ( 'NONE', #397, #498, #544, .T. ) ;
#46 = CARTESIAN_POINT ( 'NONE',  ( -0.8571092511719571316, 1.587500000000000355, -138.7622737970628179 ) ) ;
#47 = CIRCLE ( 'NONE', #90, 1.245064030267288402 ) ;
#48 = PLANE ( 'NONE',  #310 ) ;
#49 = APPROVAL_PERSON_ORGANIZATION ( #162, #508, #100 ) ;
#50 = EDGE_CURVE ( 'NONE', #437, #101, #254, .T. ) ;
#51 = CARTESIAN_POINT ( 'NONE',  ( 0.000000000000000000, 0.000000000000000000, 138.6599191420980048 ) ) ;
#52 = ORIENTED_EDGE ( 'NONE', *, *, #166, .T. ) ;
#53 = CARTESIAN_POINT ( 'NONE',  ( -1.268411506570323866, 1.587500000000000355, 138.6599191420980048 ) ) ;
#54 = ORIENTED_EDGE ( 'NONE', *, *, #146, .F. ) ;
#55 = AXIS2_PLACEMENT_3D ( 'NONE', #424, #40, #560 ) ;
#56 = AXIS2_PLACEMENT_3D ( 'NONE', #459, #73, #367 ) ;
#57 = ORIENTED_EDGE ( 'NONE', *, *, #374, .F. ) ;
#58 = APPROVAL_STATUS ( 'not_yet_approved' ) ;
#59 = VERTEX_POINT ( 'NONE', #512 ) ;
#60 = FACE_OUTER_BOUND ( 'NONE', #30, .T. ) ;
#61 = ORIENTED_EDGE ( 'NONE', *, *, #521, .T. ) ;
#62 = ADVANCED_FACE ( 'NONE', ( #127 ), #167, .T. ) ;
#63 = CARTESIAN_POINT ( 'NONE',  ( -1.587500000000000355, 0.4276219574846481519, -138.7769963920000578 ) ) ;
#64 = ORIENTED_EDGE ( 'NONE', *, *, #482, .T. ) ;
#65 = AXIS2_PLACEMENT_3D ( 'NONE', #454, #409, #549 ) ;
#66 = B_SPLINE_CURVE_WITH_KNOTS ( 'NONE', 3,
 ( #415, #410, #224, #273, #490, #487 ),
 .UNSPECIFIED., .F., .F.,
 ( 4, 2, 4 ),
 ( 0.01485345774306963233, 0.01548163471194320337, 0.01610981168081677267 ),
 .UNSPECIFIED. ) ;
#67 = CARTESIAN_POINT ( 'NONE',  ( -1.587500000000000577, 0.4277385810629875107, 138.7769865435831775 ) ) ;
#68 = APPROVAL_DATE_TIME ( #24, #508 ) ;
#69 = ORIENTED_EDGE ( 'NONE', *, *, #492, .F. ) ;
#70 = CALENDAR_DATE ( 2022, 6, 6 ) ;
#71 = DIRECTION ( 'NONE',  ( 1.000000000000000000, 0.000000000000000000, 0.000000000000000000 ) ) ;
#72 = EDGE_LOOP ( 'NONE', ( #52, #95, #159, #54, #57, #216, #286, #181 ) ) ;
#73 = DIRECTION ( 'NONE',  ( -0.000000000000000000, -0.000000000000000000, 1.000000000000000000 ) ) ;
#74 = CARTESIAN_POINT ( 'NONE',  ( -0.4342314039556068317, -1.587499999999999911, 138.7828517174431795 ) ) ;
#75 = EDGE_CURVE ( 'NONE', #153, #59, #204, .T. ) ;
#76 = AXIS2_PLACEMENT_3D ( 'NONE', #5, #389, #176 ) ;
#77 = CARTESIAN_POINT ( 'NONE',  ( 1.245064030267288402, 0.000000000000000000, 136.6860000000000355 ) ) ;
#78 = DIRECTION ( 'NONE',  ( 1.000000000000000000, 0.000000000000000000, 0.000000000000000000 ) ) ;
#79 = EDGE_CURVE ( 'NONE', #225, #229, #430, .T. ) ;
#80 = CARTESIAN_POINT ( 'NONE',  ( 1.060147506033618736, 1.587500000000000133, -138.7117466962551759 ) ) ;
#81 = ADVANCED_FACE ( 'NONE', ( #516 ), #393, .T. ) ;
#82 = DIRECTION ( 'NONE',  ( -0.000000000000000000, -0.000000000000000000, 1.000000000000000000 ) ) ;
#83 = DIRECTION ( 'NONE',  ( 1.000000000000000000, 0.000000000000000000, 0.000000000000000000 ) ) ;
#84 = VECTOR ( 'NONE', #110, 1000.000000000000000 ) ;
#85 = CARTESIAN_POINT ( 'NONE',  ( -1.587500000000000355, -0.4276219574846481519, 138.7769963920000578 ) ) ;
#86 =( GEOMETRIC_REPRESENTATION_CONTEXT ( 3 ) GLOBAL_UNCERTAINTY_ASSIGNED_CONTEXT ( ( #530 ) ) GLOBAL_UNIT_ASSIGNED_CONTEXT ( ( #19, #542, #365 ) ) REPRESENTATION_CONTEXT ( 'NONE', 'WORKASPACE' ) );
#87 = DIRECTION ( 'NONE',  ( -1.000000000000000000, 0.000000000000000000, 0.000000000000000000 ) ) ;
#88 = DIRECTION ( 'NONE',  ( 1.224646799147353207E-16, 1.000000000000000000, 0.000000000000000000 ) ) ;
#89 = CARTESIAN_POINT ( 'NONE',  ( 1.268411506570323866, -1.587500000000000355, -138.8110000000000070 ) ) ;
#90 = AXIS2_PLACEMENT_3D ( 'NONE', #236, #541, #152 ) ;
#91 = ORIENTED_EDGE ( 'NONE', *, *, #521, .F. ) ;
#92 = ADVANCED_FACE ( 'NONE', ( #130 ), #48, .F. ) ;
#93 = LINE ( 'NONE', #208, #142 ) ;
#94 = ORIENTED_EDGE ( 'NONE', *, *, #298, .T. ) ;
#95 = ORIENTED_EDGE ( 'NONE', *, *, #492, .T. ) ;
#96 = AXIS2_PLACEMENT_3D ( 'NONE', #8, #352, #305 ) ;
#97 = ORIENTED_EDGE ( 'NONE', *, *, #348, .F. ) ;
#98 = CALENDAR_DATE ( 2022, 6, 6 ) ;
#99 = EDGE_CURVE ( 'NONE', #234, #357, #277, .T. ) ;
#100 = APPROVAL_ROLE ( '' ) ;
#101 = VERTEX_POINT ( 'NONE', #4 ) ;
#102 = CARTESIAN_POINT ( 'NONE',  ( 1.587500000000000355, -1.268411506570325642, 138.6599191420980048 ) ) ;
#103 = EDGE_LOOP ( 'NONE', ( #528, #94, #13, #368, #179, #306 ) ) ;
#104 = EDGE_CURVE ( 'NONE', #366, #207, #468, .T. ) ;
#105 = CARTESIAN_POINT ( 'NONE',  ( -0.2043756380772867032, 1.587500000000000133, 138.7834096189637876 ) ) ;
#106 = DIRECTION ( 'NONE',  ( 1.000000000000000000, 0.000000000000000000, 0.000000000000000000 ) ) ;
#107 = EDGE_LOOP ( 'NONE', ( #315, #232, #400, #312 ) ) ;
#108 = AXIS2_PLACEMENT_3D ( 'NONE', #191, #158, #71 ) ;
#109 = PERSON_AND_ORGANIZATION ( #537, #471 ) ;
#110 = DIRECTION ( 'NONE',  ( -0.000000000000000000, -0.000000000000000000, 1.000000000000000000 ) ) ;
#111 = CARTESIAN_POINT ( 'NONE',  ( 1.245064030267288402, 0.000000000000000000, 138.8110000000000070 ) ) ;
#112 = CARTESIAN_POINT ( 'NONE',  ( -1.587500000000000355, 1.587500000000000355, 138.8110000000000070 ) ) ;
#113 = SHAPE_DEFINITION_REPRESENTATION ( #434, #513 ) ;
#114 = DIRECTION ( 'NONE',  ( -0.000000000000000000, -0.000000000000000000, 1.000000000000000000 ) ) ;
#115 = EDGE_LOOP ( 'NONE', ( #91, #64, #7, #238 ) ) ;
#116 = DATE_AND_TIME ( #240, #505 ) ;
#117 = CARTESIAN_POINT ( 'NONE',  ( 1.587500000000000355, 1.268411506570323866, -138.8110000000000070 ) ) ;
#118 = ORIENTED_EDGE ( 'NONE', *, *, #551, .T. ) ;
#119 = AXIS2_PLACEMENT_3D ( 'NONE', #139, #308, #483 ) ;
#120 = CARTESIAN_POINT ( 'NONE',  ( -1.587500000000000355, -1.944126793646423534E-16, 138.7832273616928660 ) ) ;
#121 = CARTESIAN_POINT ( 'NONE',  ( 0.000000000000000000, 0.000000000000000000, -138.6599191420980048 ) ) ;
#122 = PERSON_AND_ORGANIZATION_ROLE ( 'classification_officer' ) ;
#123 = CARTESIAN_POINT ( 'NONE',  ( -1.587500000000000355, 1.587500000000000355, 138.8110000000000070 ) ) ;
#124 = CARTESIAN_POINT ( 'NONE',  ( -1.587500000000000355, -1.587500000000000355, 138.8110000000000070 ) ) ;
#125 = AXIS2_PLACEMENT_3D ( 'NONE', #300, #429, #128 ) ;
#126 = CARTESIAN_POINT ( 'NONE',  ( 1.587500000000000355, 0.8513200635100148794, -138.7413775553181381 ) ) ;
#127 = FACE_OUTER_BOUND ( 'NONE', #151, .T. ) ;
#128 = DIRECTION ( 'NONE',  ( 1.000000000000000000, 0.000000000000000000, 0.000000000000000000 ) ) ;
#129 = DIRECTION ( 'NONE',  ( 0.000000000000000000, 0.000000000000000000, -1.000000000000000000 ) ) ;
#130 = FACE_OUTER_BOUND ( 'NONE', #115, .T. ) ;
#131 = EDGE_LOOP ( 'NONE', ( #69, #460, #485, #502, #536, #14, #263, #140 ) ) ;
#132 = APPLICATION_CONTEXT ( 'configuration controlled 3d designs of mechanical parts and assemblies' ) ;
#133 = CARTESIAN_POINT ( 'NONE',  ( 1.268411506570323866, -1.587500000000000355, 138.6599191420980048 ) ) ;
#134 = CIRCLE ( 'NONE', #197, 2.032000000000000028 ) ;
#135 = LOCAL_TIME ( 15, 3, 10.00000000000000000, #358 ) ;
#136 = ORIENTED_EDGE ( 'NONE', *, *, #348, .T. ) ;
#137 = CARTESIAN_POINT ( 'NONE',  ( -1.060147506033618736, -1.587500000000000133, -138.7117466962551759 ) ) ;
#138 = ORIENTED_EDGE ( 'NONE', *, *, #250, .T. ) ;
#139 = CARTESIAN_POINT ( 'NONE',  ( 0.000000000000000000, 0.000000000000000000, -138.6599191420980048 ) ) ;
#140 = ORIENTED_EDGE ( 'NONE', *, *, #50, .F. ) ;
#141 = TOROIDAL_SURFACE ( 'NONE', #211, 1.245064030267288402, 2.124999999999988898 ) ;
#142 = VECTOR ( 'NONE', #297, 1000.000000000000000 ) ;
#143 = ORIENTED_EDGE ( 'NONE', *, *, #146, .T. ) ;
#144 = APPROVAL_DATE_TIME ( #222, #261 ) ;
#145 = CARTESIAN_POINT ( 'NONE',  ( 1.587500000000000355, -1.268411506570323866, -138.8110000000000070 ) ) ;
#146 = EDGE_CURVE ( 'NONE', #27, #349, #351, .T. ) ;
#147 = CALENDAR_DATE ( 2022, 6, 6 ) ;
#148 = PLANE ( 'NONE',  #184 ) ;
#149 = CARTESIAN_POINT ( 'NONE',  ( -1.060147506033618292, 1.587500000000000133, 138.7117466962551759 ) ) ;
#150 = PERSON_AND_ORGANIZATION_ROLE ( 'creator' ) ;
#151 = EDGE_LOOP ( 'NONE', ( #242, #411 ) ) ;
#152 = DIRECTION ( 'NONE',  ( 1.000000000000000000, 0.000000000000000000, 0.000000000000000000 ) ) ;
#153 = VERTEX_POINT ( 'NONE', #266 ) ;
#154 = CIRCLE ( 'NONE', #493, 2.032000000000000028 ) ;
#155 = AXIS2_PLACEMENT_3D ( 'NONE', #29, #539, #106 ) ;
#156 = ADVANCED_FACE ( 'NONE', ( #441 ), #425, .T. ) ;
#157 = PERSON_AND_ORGANIZATION_ROLE ( 'creator' ) ;
#158 = DIRECTION ( 'NONE',  ( -0.000000000000000000, -0.000000000000000000, 1.000000000000000000 ) ) ;
#159 = ORIENTED_EDGE ( 'NONE', *, *, #298, .F. ) ;
#160 = ADVANCED_FACE ( 'NONE', ( #218 ), #529, .T. ) ;
#161 = DIRECTION ( 'NONE',  ( 0.000000000000000000, 0.000000000000000000, -1.000000000000000000 ) ) ;
#162 = PERSON_AND_ORGANIZATION ( #537, #471 ) ;
#163 = ORIENTED_EDGE ( 'NONE', *, *, #6, .F. ) ;
#164 = APPROVAL_ROLE ( '' ) ;
#165 = DIRECTION ( 'NONE',  ( 0.000000000000000000, 0.000000000000000000, -1.000000000000000000 ) ) ;
#166 = EDGE_CURVE ( 'NONE', #59, #153, #47, .T. ) ;
#167 = PLANE ( 'NONE',  #369 ) ;
#168 = CIRCLE ( 'NONE', #32, 2.124999999999988010 ) ;
#169 = LINE ( 'NONE', #249, #423 ) ;
#170 = CARTESIAN_POINT ( 'NONE',  ( 1.587500000000000355, -1.268411506570323866, -138.6599191420980048 ) ) ;
#171 = DIRECTION ( 'NONE',  ( 0.000000000000000000, 0.000000000000000000, 1.000000000000000000 ) ) ;
#172 = CARTESIAN_POINT ( 'NONE',  ( -1.587500000000000133, -0.2143109880596212602, -138.7832273616928376 ) ) ;
#173 = PLANE ( 'NONE',  #371 ) ;
#174 = DIRECTION ( 'NONE',  ( 0.000000000000000000, 0.000000000000000000, -1.000000000000000000 ) ) ;
#175 = CC_DESIGN_PERSON_AND_ORGANIZATION_ASSIGNMENT ( #235, #122, ( #496 ) ) ;
#176 = DIRECTION ( 'NONE',  ( -1.000000000000000000, 0.000000000000000000, 0.000000000000000000 ) ) ;
#177 = ORIENTED_EDGE ( 'NONE', *, *, #99, .T. ) ;
#178 = MANIFOLD_SOLID_BREP ( '228-2500-268', #10 ) ;
#179 = ORIENTED_EDGE ( 'NONE', *, *, #341, .T. ) ;
#180 = CARTESIAN_POINT ( 'NONE',  ( 1.587500000000000355, -0.4276219574846481519, -138.7769963920000578 ) ) ;
#181 = ORIENTED_EDGE ( 'NONE', *, *, #217, .F. ) ;
#182 = B_SPLINE_CURVE_WITH_KNOTS ( 'NONE', 3,
 ( #392, #137, #435, #259, #346, #515, #523, #431 ),
 .UNSPECIFIED., .F., .F.,
 ( 4, 2, 2, 4 ),
 ( 0.01485345774306963233, 0.01548583974386928859, 0.01611822174466894658, 0.01738298574626825910 ),
 .UNSPECIFIED. ) ;
#183 = VERTEX_POINT ( 'NONE', #275 ) ;
#184 = AXIS2_PLACEMENT_3D ( 'NONE', #112, #543, #373 ) ;
#185 = EDGE_LOOP ( 'NONE', ( #220, #138 ) ) ;
#186 = DIRECTION ( 'NONE',  ( 1.000000000000000000, 0.000000000000000000, 0.000000000000000000 ) ) ;
#187 = PERSON_AND_ORGANIZATION ( #537, #471 ) ;
#188 = CARTESIAN_POINT ( 'NONE',  ( -1.268411506570323866, 1.587500000000000355, -138.6599191420980048 ) ) ;
#189 = CARTESIAN_POINT ( 'NONE',  ( 0.000000000000000000, 0.000000000000000000, -138.8110000000000070 ) ) ;
#190 = CARTESIAN_POINT ( 'NONE',  ( 1.060147506033618292, -1.587500000000000133, 138.7117466962551759 ) ) ;
#191 = CARTESIAN_POINT ( 'NONE',  ( 0.000000000000000000, 0.000000000000000000, -136.6860000000000355 ) ) ;
#192 = EDGE_LOOP ( 'NONE', ( #274, #480, #258, #405, #118, #517 ) ) ;
#193 = ORIENTED_EDGE ( 'NONE', *, *, #551, .F. ) ;
#194 = B_SPLINE_CURVE_WITH_KNOTS ( 'NONE', 3,
 ( #538, #149, #316, #489, #105, #514, #503, #287 ),
 .UNSPECIFIED., .F., .F.,
 ( 4, 2, 2, 4 ),
 ( 0.01485345774306963233, 0.01548583974386929032, 0.01611822174466894658, 0.01738298574626826257 ),
 .UNSPECIFIED. ) ;
#195 = CARTESIAN_POINT ( 'NONE',  ( 0.8486262390323832117, 1.587500000000000577, -138.7417688228239570 ) ) ;
#196 = CARTESIAN_POINT ( 'NONE',  ( 1.587500000000000355, -1.061392899157112879, 138.7114367738516876 ) ) ;
#197 = AXIS2_PLACEMENT_3D ( 'NONE', #561, #339, #385 ) ;
#198 = CARTESIAN_POINT ( 'NONE',  ( 1.268411506570323866, -1.587500000000000355, -138.6599191420980048 ) ) ;
#199 = PRODUCT_RELATED_PRODUCT_CATEGORY ( 'detail', '', ( #219 ) ) ;
#200 = CARTESIAN_POINT ( 'NONE',  ( 1.587500000000000355, -0.8513200635100163227, 138.7413775553181381 ) ) ;
#201 = DIRECTION ( 'NONE',  ( -1.000000000000000000, 0.000000000000000000, -0.000000000000000000 ) ) ;
#202 = CARTESIAN_POINT ( 'NONE',  ( -1.245064030267288402, -2.006622987633882228E-16, 138.8110000000000070 ) ) ;
#203 = CARTESIAN_POINT ( 'NONE',  ( 1.587500000000000355, 0.000000000000000000, 138.7832273616928660 ) ) ;
#204 = CIRCLE ( 'NONE', #532, 1.245064030267288402 ) ;
#205 = DIRECTION ( 'NONE',  ( 0.000000000000000000, -0.000000000000000000, 1.000000000000000000 ) ) ;
#206 = CARTESIAN_POINT ( 'NONE',  ( -1.268411506570323866, 1.587500000000000355, -138.8110000000000070 ) ) ;
#207 = VERTEX_POINT ( 'NONE', #363 ) ;
#208 = CARTESIAN_POINT ( 'NONE',  ( -1.268411506570323866, -1.587500000000000355, -138.8110000000000070 ) ) ;
#209 = DIRECTION ( 'NONE',  ( 1.000000000000000000, 0.000000000000000000, 0.000000000000000000 ) ) ;
#210 = ORIENTED_EDGE ( 'NONE', *, *, #252, .T. ) ;
#211 = AXIS2_PLACEMENT_3D ( 'NONE', #421, #299, #83 ) ;
#212 = B_SPLINE_CURVE_WITH_KNOTS ( 'NONE', 3,
 ( #450, #26, #230, #63, #325, #407 ),
 .UNSPECIFIED., .F., .F.,
 ( 4, 2, 4 ),
 ( 0.01485345774306963233, 0.01548163471194320337, 0.01610981168081677267 ),
 .UNSPECIFIED. ) ;
#213 = CIRCLE ( 'NONE', #76, 2.032000000000000028 ) ;
#214 = LOCAL_TIME ( 15, 3, 10.00000000000000000, #481 ) ;
#215 = CC_DESIGN_DATE_AND_TIME_ASSIGNMENT ( #398, #264, ( #11 ) ) ;
#216 = ORIENTED_EDGE ( 'NONE', *, *, #79, .F. ) ;
#217 = EDGE_CURVE ( 'NONE', #59, #207, #265, .T. ) ;
#218 = FACE_OUTER_BOUND ( 'NONE', #107, .T. ) ;
#219 = PRODUCT ( '228-2500-268', '228-2500-268', '', ( #270 ) ) ;
#220 = ORIENTED_EDGE ( 'NONE', *, *, #318, .T. ) ;
#221 = EDGE_CURVE ( 'NONE', #498, #484, #519, .T. ) ;
#222 = DATE_AND_TIME ( #445, #135 ) ;
#223 = LINE ( 'NONE', #28, #403 ) ;
#224 = CARTESIAN_POINT ( 'NONE',  ( 1.587500000000000577, 0.8514389605504963932, 138.7413675157792454 ) ) ;
#225 = VERTEX_POINT ( 'NONE', #497 ) ;
#226 = EDGE_CURVE ( 'NONE', #366, #303, #33, .T. ) ;
#227 = CYLINDRICAL_SURFACE ( 'NONE', #469, 2.032000000000000028 ) ;
#228 = VECTOR ( 'NONE', #370, 1000.000000000000000 ) ;
#229 = VERTEX_POINT ( 'NONE', #375 ) ;
#230 = CARTESIAN_POINT ( 'NONE',  ( -1.587500000000000577, 0.8514389605504963932, -138.7413675157792454 ) ) ;
#231 = DESIGN_CONTEXT ( 'detailed design', #444, 'design' ) ;
#232 = ORIENTED_EDGE ( 'NONE', *, *, #226, .T. ) ;
#233 = DATE_AND_TIME ( #70, #321 ) ;
#234 = VERTEX_POINT ( 'NONE', #457 ) ;
#235 = PERSON_AND_ORGANIZATION ( #537, #471 ) ;
#236 = CARTESIAN_POINT ( 'NONE',  ( 0.000000000000000000, 0.000000000000000000, -138.8110000000000070 ) ) ;
#237 = APPLICATION_PROTOCOL_DEFINITION ( 'international standard', 'config_control_design', 1994, #444 ) ;
#238 = ORIENTED_EDGE ( 'NONE', *, *, #6, .T. ) ;
#239 = AXIS2_PLACEMENT_3D ( 'NONE', #329, #161, #186 ) ;
#240 = CALENDAR_DATE ( 2022, 6, 6 ) ;
#241 = CARTESIAN_POINT ( 'NONE',  ( 1.587500000000000133, 0.2143109880596213435, -138.7832273616928376 ) ) ;
#242 = ORIENTED_EDGE ( 'NONE', *, *, #166, .F. ) ;
#243 = CARTESIAN_POINT ( 'NONE',  ( -1.268411506570323866, -1.587500000000000355, -138.6599191420980048 ) ) ;
#244 = CC_DESIGN_DATE_AND_TIME_ASSIGNMENT ( #116, #494, ( #496 ) ) ;
#245 = FACE_OUTER_BOUND ( 'NONE', #192, .T. ) ;
#246 = CIRCLE ( 'NONE', #56, 1.245064030267288402 ) ;
#247 = CC_DESIGN_SECURITY_CLASSIFICATION ( #496, ( #545 ) ) ;
#248 = CC_DESIGN_APPROVAL ( #304, ( #496 ) ) ;
#249 = CARTESIAN_POINT ( 'NONE',  ( 1.268411506570323866, 1.587500000000000355, -138.8110000000000070 ) ) ;
#250 = EDGE_CURVE ( 'NONE', #397, #540, #344, .T. ) ;
#251 = LINE ( 'NONE', #206, #1 ) ;
#252 = EDGE_CURVE ( 'NONE', #183, #225, #314, .T. ) ;
#253 = CYLINDRICAL_SURFACE ( 'NONE', #125, 2.032000000000000028 ) ;
#254 = B_SPLINE_CURVE_WITH_KNOTS ( 'NONE', 3,
 ( #466, #172, #553, #381, #557, #343 ),
 .UNSPECIFIED., .F., .F.,
 ( 4, 2, 4 ),
 ( 1.905938025164282062E-19, 0.0006365870327257436463, 0.001273174065451487076 ),
 .UNSPECIFIED. ) ;
#255 = TOROIDAL_SURFACE ( 'NONE', #108, 1.245064030267288402, 2.124999999999988898 ) ;
#256 = CARTESIAN_POINT ( 'NONE',  ( -1.587500000000000355, -1.944126793646423534E-16, 138.7832273616928660 ) ) ;
#257 = DIRECTION ( 'NONE',  ( 1.000000000000000000, 0.000000000000000000, 0.000000000000000000 ) ) ;
#258 = ORIENTED_EDGE ( 'NONE', *, *, #328, .T. ) ;
#259 = CARTESIAN_POINT ( 'NONE',  ( -0.4219230645619487241, -1.587500000000000577, -138.7773073035536413 ) ) ;
#260 = EDGE_LOOP ( 'NONE', ( #362, #309, #301, #354, #163, #531, #332, #436 ) ) ;
#261 = APPROVAL ( #58, 'UNSPECIFIED' ) ;
#262 = CARTESIAN_POINT ( 'NONE',  ( 1.587500000000000577, -0.8514389605504963932, -138.7413675157792454 ) ) ;
#263 = ORIENTED_EDGE ( 'NONE', *, *, #22, .F. ) ;
#264 = DATE_TIME_ROLE ( 'creation_date' ) ;
#265 = CIRCLE ( 'NONE', #395, 2.124999999999988010 ) ;
#266 = CARTESIAN_POINT ( 'NONE',  ( -1.245064030267288402, 2.006622987633881735E-16, -138.8110000000000070 ) ) ;
#267 = ADVANCED_FACE ( 'NONE', ( #282 ), #255, .T. ) ;
#268 = ORIENTED_EDGE ( 'NONE', *, *, #472, .T. ) ;
#269 = CARTESIAN_POINT ( 'NONE',  ( 0.000000000000000000, 0.000000000000000000, -138.8110000000000070 ) ) ;
#270 = MECHANICAL_CONTEXT ( 'NONE', #132, 'mechanical' ) ;
#271 = ORIENTED_EDGE ( 'NONE', *, *, #323, .T. ) ;
#272 = FACE_OUTER_BOUND ( 'NONE', #360, .T. ) ;
#273 = CARTESIAN_POINT ( 'NONE',  ( 1.587500000000000355, 0.4276219574846481519, 138.7769963920000578 ) ) ;
#274 = ORIENTED_EDGE ( 'NONE', *, *, #226, .F. ) ;
#275 = CARTESIAN_POINT ( 'NONE',  ( 1.587500000000000355, 1.268411506570323866, 138.6599191420980048 ) ) ;
#276 = CIRCLE ( 'NONE', #350, 2.032000000000000028 ) ;
#277 = CIRCLE ( 'NONE', #522, 2.032000000000000028 ) ;
#278 = FACE_OUTER_BOUND ( 'NONE', #488, .T. ) ;
#279 = APPROVAL_PERSON_ORGANIZATION ( #440, #261, #15 ) ;
#280 = COORDINATED_UNIVERSAL_TIME_OFFSET ( 6, 0, .BEHIND. ) ;
#281 = ADVANCED_FACE ( 'NONE', ( #60 ), #21, .T. ) ;
#282 = FACE_OUTER_BOUND ( 'NONE', #72, .T. ) ;
#283 = CARTESIAN_POINT ( 'NONE',  ( 1.268411506570325642, 1.587500000000000355, 138.6599191420980048 ) ) ;
#284 = CARTESIAN_POINT ( 'NONE',  ( -1.587500000000000355, 1.268411506570325642, 138.6599191420980048 ) ) ;
#285 = EDGE_CURVE ( 'NONE', #349, #484, #223, .T. ) ;
#286 = ORIENTED_EDGE ( 'NONE', *, *, #328, .F. ) ;
#287 = CARTESIAN_POINT ( 'NONE',  ( 1.268411506570325642, 1.587500000000000355, 138.6599191420980048 ) ) ;
#288 = DIRECTION ( 'NONE',  ( -0.000000000000000000, -0.000000000000000000, 1.000000000000000000 ) ) ;
#289 = AXIS2_PLACEMENT_3D ( 'NONE', #23, #114, #401 ) ;
#290 = CARTESIAN_POINT ( 'NONE',  ( 0.4219230645619487241, 1.587500000000000577, -138.7773073035536413 ) ) ;
#291 = DIRECTION ( 'NONE',  ( 0.000000000000000000, 0.000000000000000000, -1.000000000000000000 ) ) ;
#292 = CARTESIAN_POINT ( 'NONE',  ( 0.000000000000000000, 0.000000000000000000, 138.6599191420980048 ) ) ;
#293 = CARTESIAN_POINT ( 'NONE',  ( 1.587500000000000133, -0.2143109880596216488, 138.7832273616928376 ) ) ;
#294 = CIRCLE ( 'NONE', #387, 2.124999999999988898 ) ;
#295 = DIRECTION ( 'NONE',  ( 0.000000000000000000, 0.000000000000000000, 1.000000000000000000 ) ) ;
#296 = FACE_OUTER_BOUND ( 'NONE', #260, .T. ) ;
#297 = DIRECTION ( 'NONE',  ( -0.000000000000000000, -0.000000000000000000, 1.000000000000000000 ) ) ;
#298 = EDGE_CURVE ( 'NONE', #349, #437, #212, .T. ) ;
#299 = DIRECTION ( 'NONE',  ( 0.000000000000000000, 0.000000000000000000, -1.000000000000000000 ) ) ;
#300 = CARTESIAN_POINT ( 'NONE',  ( 0.000000000000000000, 0.000000000000000000, -138.8110000000000070 ) ) ;
#301 = ORIENTED_EDGE ( 'NONE', *, *, #341, .F. ) ;
#302 = CARTESIAN_POINT ( 'NONE',  ( -1.587500000000000355, 1.268411506570325642, 138.6599191420980048 ) ) ;
#303 = VERTEX_POINT ( 'NONE', #102 ) ;
#304 = APPROVAL ( #36, 'UNSPECIFIED' ) ;
#305 = DIRECTION ( 'NONE',  ( -1.000000000000000000, 0.000000000000000000, 0.000000000000000000 ) ) ;
#306 = ORIENTED_EDGE ( 'NONE', *, *, #221, .T. ) ;
#307 = B_SPLINE_CURVE_WITH_KNOTS ( 'NONE', 3,
 ( #552, #507, #380, #85, #345, #120 ),
 .UNSPECIFIED., .F., .F.,
 ( 4, 2, 4 ),
 ( 0.01485345774306963233, 0.01548163471194320337, 0.01610981168081677267 ),
 .UNSPECIFIED. ) ;
#308 = DIRECTION ( 'NONE',  ( -0.000000000000000000, -0.000000000000000000, 1.000000000000000000 ) ) ;
#309 = ORIENTED_EDGE ( 'NONE', *, *, #45, .T. ) ;
#310 = AXIS2_PLACEMENT_3D ( 'NONE', #432, #396, #205 ) ;
#311 = ADVANCED_FACE ( 'NONE', ( #272 ), #227, .T. ) ;
#312 = ORIENTED_EDGE ( 'NONE', *, *, #501, .T. ) ;
#313 = PERSON_AND_ORGANIZATION ( #537, #471 ) ;
#314 = LINE ( 'NONE', #117, #228 ) ;
#315 = ORIENTED_EDGE ( 'NONE', *, *, #417, .T. ) ;
#316 = CARTESIAN_POINT ( 'NONE',  ( -0.8486262390323816573, 1.587500000000000133, 138.7417688228239285 ) ) ;
#317 = ORIENTED_EDGE ( 'NONE', *, *, #221, .F. ) ;
#318 = EDGE_CURVE ( 'NONE', #540, #397, #246, .T. ) ;
#319 = COORDINATED_UNIVERSAL_TIME_OFFSET ( 6, 0, .BEHIND. ) ;
#320 = CARTESIAN_POINT ( 'NONE',  ( -1.587500000000000355, 1.061392899157112879, 138.7114367738516876 ) ) ;
#321 = LOCAL_TIME ( 15, 3, 10.00000000000000000, #280 ) ;
#322 = ORIENTED_EDGE ( 'NONE', *, *, #45, .F. ) ;
#323 = EDGE_CURVE ( 'NONE', #458, #17, #194, .T. ) ;
#324 = PERSON_AND_ORGANIZATION ( #537, #471 ) ;
#325 = CARTESIAN_POINT ( 'NONE',  ( -1.587500000000000355, 0.2114796877013868925, -138.7832273616928944 ) ) ;
#326 = PERSON_AND_ORGANIZATION ( #537, #471 ) ;
#327 = CARTESIAN_POINT ( 'NONE',  ( 1.268411506570323866, -1.587500000000000355, 138.6599191420980048 ) ) ;
#328 = EDGE_CURVE ( 'NONE', #207, #225, #438, .T. ) ;
#329 = CARTESIAN_POINT ( 'NONE',  ( 0.000000000000000000, 0.000000000000000000, 136.6860000000000355 ) ) ;
#330 = B_SPLINE_CURVE_WITH_KNOTS ( 'NONE', 3,
 ( #327, #190, #500, #25, #550, #74, #34, #451 ),
 .UNSPECIFIED., .F., .F.,
 ( 4, 2, 2, 4 ),
 ( 0.01485345774306963233, 0.01548583974386929032, 0.01611822174466894658, 0.01738298574626826257 ),
 .UNSPECIFIED. ) ;
#331 = APPROVAL_STATUS ( 'not_yet_approved' ) ;
#332 = ORIENTED_EDGE ( 'NONE', *, *, #35, .F. ) ;
#333 = APPROVAL_DATE_TIME ( #233, #304 ) ;
#334 = CARTESIAN_POINT ( 'NONE',  ( 1.268411506570323866, 1.587500000000000355, -138.6599191420980048 ) ) ;
#335 = DIRECTION ( 'NONE',  ( -0.000000000000000000, -0.000000000000000000, 1.000000000000000000 ) ) ;
#336 = AXIS2_PLACEMENT_3D ( 'NONE', #399, #16, #359 ) ;
#337 = CARTESIAN_POINT ( 'NONE',  ( -0.4342314039556059435, 1.587500000000000355, -138.7828517174432079 ) ) ;
#338 = DIRECTION ( 'NONE',  ( -0.000000000000000000, -0.000000000000000000, 1.000000000000000000 ) ) ;
#339 = DIRECTION ( 'NONE',  ( -0.000000000000000000, -0.000000000000000000, 1.000000000000000000 ) ) ;
#340 = DIRECTION ( 'NONE',  ( -1.000000000000000000, 0.000000000000000000, -0.000000000000000000 ) ) ;
#341 = EDGE_CURVE ( 'NONE', #357, #498, #307, .T. ) ;
#342 = DIRECTION ( 'NONE',  ( 0.000000000000000000, 0.000000000000000000, -1.000000000000000000 ) ) ;
#343 = CARTESIAN_POINT ( 'NONE',  ( -1.587500000000000355, -1.268411506570323866, -138.6599191420980048 ) ) ;
#344 = CIRCLE ( 'NONE', #65, 1.245064030267288402 ) ;
#345 = CARTESIAN_POINT ( 'NONE',  ( -1.587500000000000355, -0.2114796877013868925, 138.7832273616928944 ) ) ;
#346 = CARTESIAN_POINT ( 'NONE',  ( -0.2043756380772863979, -1.587500000000000133, -138.7834096189638160 ) ) ;
#347 = DIRECTION ( 'NONE',  ( 0.000000000000000000, 0.000000000000000000, -1.000000000000000000 ) ) ;
#348 = EDGE_CURVE ( 'NONE', #229, #17, #169, .T. ) ;
#349 = VERTEX_POINT ( 'NONE', #428 ) ;
#350 = AXIS2_PLACEMENT_3D ( 'NONE', #376, #288, #78 ) ;
#351 = CIRCLE ( 'NONE', #119, 2.032000000000000028 ) ;
#352 = DIRECTION ( 'NONE',  ( 0.000000000000000000, 0.000000000000000000, -1.000000000000000000 ) ) ;
#353 = DIRECTION ( 'NONE',  ( 0.000000000000000000, 0.000000000000000000, -1.000000000000000000 ) ) ;
#354 = ORIENTED_EDGE ( 'NONE', *, *, #99, .F. ) ;
#355 = EDGE_CURVE ( 'NONE', #357, #101, #379, .T. ) ;
#356 = CARTESIAN_POINT ( 'NONE',  ( 1.587500000000000355, -0.2114796877013868925, -138.7832273616928944 ) ) ;
#357 = VERTEX_POINT ( 'NONE', #461 ) ;
#358 = COORDINATED_UNIVERSAL_TIME_OFFSET ( 6, 0, .BEHIND. ) ;
#359 = DIRECTION ( 'NONE',  ( 1.000000000000000000, 0.000000000000000000, 0.000000000000000000 ) ) ;
#360 = EDGE_LOOP ( 'NONE', ( #143, #416, #268, #408 ) ) ;
#361 = CARTESIAN_POINT ( 'NONE',  ( -1.587500000000000355, -1.944126793646423534E-16, 138.7832273616928660 ) ) ;
#362 = ORIENTED_EDGE ( 'NONE', *, *, #250, .F. ) ;
#363 = CARTESIAN_POINT ( 'NONE',  ( 1.587500000000000355, 0.000000000000000000, -138.7832273616928660 ) ) ;
#364 = EDGE_CURVE ( 'NONE', #540, #402, #168, .T. ) ;
#365 =( NAMED_UNIT ( * ) SI_UNIT ( $, .STERADIAN. ) SOLID_ANGLE_UNIT ( ) );
#366 = VERTEX_POINT ( 'NONE', #170 ) ;
#367 = DIRECTION ( 'NONE',  ( 1.000000000000000000, 0.000000000000000000, 0.000000000000000000 ) ) ;
#368 = ORIENTED_EDGE ( 'NONE', *, *, #355, .F. ) ;
#369 = AXIS2_PLACEMENT_3D ( 'NONE', #384, #174, #340 ) ;
#370 = DIRECTION ( 'NONE',  ( 0.000000000000000000, 0.000000000000000000, -1.000000000000000000 ) ) ;
#371 = AXIS2_PLACEMENT_3D ( 'NONE', #124, #559, #342 ) ;
#372 = CC_DESIGN_APPROVAL ( #261, ( #545 ) ) ;
#373 = DIRECTION ( 'NONE',  ( 0.000000000000000000, -0.000000000000000000, -1.000000000000000000 ) ) ;
#374 = EDGE_CURVE ( 'NONE', #229, #27, #547, .T. ) ;
#375 = CARTESIAN_POINT ( 'NONE',  ( 1.268411506570323866, 1.587500000000000355, -138.6599191420980048 ) ) ;
#376 = CARTESIAN_POINT ( 'NONE',  ( 0.000000000000000000, 0.000000000000000000, -138.6599191420980048 ) ) ;
#377 = PERSON_AND_ORGANIZATION_ROLE ( 'design_supplier' ) ;
#378 = CC_DESIGN_PERSON_AND_ORGANIZATION_ASSIGNMENT ( #187, #150, ( #11 ) ) ;
#379 = LINE ( 'NONE', #43, #12 ) ;
#380 = CARTESIAN_POINT ( 'NONE',  ( -1.587500000000000577, -0.8514389605504963932, 138.7413675157792454 ) ) ;
#381 = CARTESIAN_POINT ( 'NONE',  ( -1.587500000000000355, -0.8513200635100148794, -138.7413775553181381 ) ) ;
#382 = AXIS2_PLACEMENT_3D ( 'NONE', #39, #41, #171 ) ;
#383 = CARTESIAN_POINT ( 'NONE',  ( 1.587500000000000577, 0.4277385810629867335, -138.7769865435831775 ) ) ;
#384 = CARTESIAN_POINT ( 'NONE',  ( -1.587500000000000355, 1.587500000000000355, -138.8110000000000070 ) ) ;
#385 = DIRECTION ( 'NONE',  ( 1.000000000000000000, 0.000000000000000000, 0.000000000000000000 ) ) ;
#386 = CARTESIAN_POINT ( 'NONE',  ( 0.2043756380772863979, 1.587500000000000133, -138.7834096189638160 ) ) ;
#387 = AXIS2_PLACEMENT_3D ( 'NONE', #3, #88, #474 ) ;
#388 = ADVANCED_FACE ( 'NONE', ( #418 ), #463, .F. ) ;
#389 = DIRECTION ( 'NONE',  ( 0.000000000000000000, 0.000000000000000000, -1.000000000000000000 ) ) ;
#390 = DIRECTION ( 'NONE',  ( -1.000000000000000000, 0.000000000000000000, 0.000000000000000000 ) ) ;
#391 = VERTEX_POINT ( 'NONE', #243 ) ;
#392 = CARTESIAN_POINT ( 'NONE',  ( -1.268411506570323866, -1.587500000000000355, -138.6599191420980048 ) ) ;
#393 = CYLINDRICAL_SURFACE ( 'NONE', #42, 2.032000000000000028 ) ;
#394 = ORIENTED_EDGE ( 'NONE', *, *, #374, .T. ) ;
#395 = AXIS2_PLACEMENT_3D ( 'NONE', #546, #413, #446 ) ;
#396 = DIRECTION ( 'NONE',  ( 0.000000000000000000, 1.000000000000000000, 0.000000000000000000 ) ) ;
#397 = VERTEX_POINT ( 'NONE', #202 ) ;
#398 = DATE_AND_TIME ( #98, #214 ) ;
#399 = CARTESIAN_POINT ( 'NONE',  ( 0.000000000000000000, 0.000000000000000000, -136.6860000000000355 ) ) ;
#400 = ORIENTED_EDGE ( 'NONE', *, *, #443, .T. ) ;
#401 = DIRECTION ( 'NONE',  ( 1.000000000000000000, 0.000000000000000000, 0.000000000000000000 ) ) ;
#402 = VERTEX_POINT ( 'NONE', #37 ) ;
#403 = VECTOR ( 'NONE', #486, 1000.000000000000000 ) ;
#404 = DIRECTION ( 'NONE',  ( -0.000000000000000000, -0.000000000000000000, 1.000000000000000000 ) ) ;
#405 = ORIENTED_EDGE ( 'NONE', *, *, #252, .F. ) ;
#406 = CC_DESIGN_PERSON_AND_ORGANIZATION_ASSIGNMENT ( #326, #455, ( #219 ) ) ;
#407 = CARTESIAN_POINT ( 'NONE',  ( -1.587500000000000355, 1.944126793646423534E-16, -138.7832273616928660 ) ) ;
#408 = ORIENTED_EDGE ( 'NONE', *, *, #449, .T. ) ;
#409 = DIRECTION ( 'NONE',  ( -0.000000000000000000, -0.000000000000000000, 1.000000000000000000 ) ) ;
#410 = CARTESIAN_POINT ( 'NONE',  ( 1.587500000000000133, 1.061532360077857451, 138.7114020682936086 ) ) ;
#411 = ORIENTED_EDGE ( 'NONE', *, *, #75, .F. ) ;
#412 = ADVANCED_FACE ( 'NONE', ( #245 ), #420, .F. ) ;
#413 = DIRECTION ( 'NONE',  ( 0.000000000000000000, -1.000000000000000000, 0.000000000000000000 ) ) ;
#414 = LOCAL_TIME ( 15, 3, 10.00000000000000000, #447 ) ;
#415 = CARTESIAN_POINT ( 'NONE',  ( 1.587500000000000355, 1.268411506570323866, 138.6599191420980048 ) ) ;
#416 = ORIENTED_EDGE ( 'NONE', *, *, #285, .T. ) ;
#417 = EDGE_CURVE ( 'NONE', #419, #366, #134, .T. ) ;
#418 = FACE_OUTER_BOUND ( 'NONE', #185, .T. ) ;
#419 = VERTEX_POINT ( 'NONE', #198 ) ;
#420 = PLANE ( 'NONE',  #382 ) ;
#421 = CARTESIAN_POINT ( 'NONE',  ( 0.000000000000000000, 0.000000000000000000, 136.6860000000000355 ) ) ;
#422 = CARTESIAN_POINT ( 'NONE',  ( 1.587500000000000355, 1.061392899157111325, -138.7114367738516876 ) ) ;
#423 = VECTOR ( 'NONE', #82, 1000.000000000000000 ) ;
#424 = CARTESIAN_POINT ( 'NONE',  ( -1.245064030267288402, -1.524763679400337895E-16, 136.6860000000000355 ) ) ;
#425 = TOROIDAL_SURFACE ( 'NONE', #336, 1.245064030267288402, 2.124999999999988898 ) ;
#426 = CARTESIAN_POINT ( 'NONE',  ( -1.268411506570323866, 1.587500000000000355, -138.6599191420980048 ) ) ;
#427 = ADVANCED_FACE ( 'NONE', ( #509 ), #173, .F. ) ;
#428 = CARTESIAN_POINT ( 'NONE',  ( -1.587500000000000355, 1.268411506570323866, -138.6599191420980048 ) ) ;
#429 = DIRECTION ( 'NONE',  ( -0.000000000000000000, -0.000000000000000000, 1.000000000000000000 ) ) ;
#430 = CIRCLE ( 'NONE', #533, 2.032000000000000028 ) ;
#431 = CARTESIAN_POINT ( 'NONE',  ( 1.268411506570323866, -1.587500000000000355, -138.6599191420980048 ) ) ;
#432 = CARTESIAN_POINT ( 'NONE',  ( -1.587500000000000355, -1.587500000000000355, 138.8110000000000070 ) ) ;
#433 = ORIENTED_EDGE ( 'NONE', *, *, #364, .T. ) ;
#434 = PRODUCT_DEFINITION_SHAPE ( 'NONE', 'NONE',  #11 ) ;
#435 = CARTESIAN_POINT ( 'NONE',  ( -0.8486262390323832117, -1.587500000000000577, -138.7417688228239570 ) ) ;
#436 = ORIENTED_EDGE ( 'NONE', *, *, #364, .F. ) ;
#437 = VERTEX_POINT ( 'NONE', #510 ) ;
#438 = B_SPLINE_CURVE_WITH_KNOTS ( 'NONE', 3,
 ( #465, #241, #383, #126, #422, #558 ),
 .UNSPECIFIED., .F., .F.,
 ( 4, 2, 4 ),
 ( 0.000000000000000000, 0.0006365870327257435379, 0.001273174065451487076 ),
 .UNSPECIFIED. ) ;
#439 = VECTOR ( 'NONE', #129, 1000.000000000000000 ) ;
#440 = PERSON_AND_ORGANIZATION ( #537, #471 ) ;
#441 = FACE_OUTER_BOUND ( 'NONE', #131, .T. ) ;
#442 = EDGE_LOOP ( 'NONE', ( #475, #136, #525, #210 ) ) ;
#443 = EDGE_CURVE ( 'NONE', #303, #520, #154, .T. ) ;
#444 = APPLICATION_CONTEXT ( 'configuration controlled 3d designs of mechanical parts and assemblies' ) ;
#445 = CALENDAR_DATE ( 2022, 6, 6 ) ;
#446 = DIRECTION ( 'NONE',  ( 0.000000000000000000, 0.000000000000000000, -1.000000000000000000 ) ) ;
#447 = COORDINATED_UNIVERSAL_TIME_OFFSET ( 6, 0, .BEHIND. ) ;
#448 = ORIENTED_EDGE ( 'NONE', *, *, #318, .F. ) ;
#449 = EDGE_CURVE ( 'NONE', #458, #27, #251, .T. ) ;
#450 = CARTESIAN_POINT ( 'NONE',  ( -1.587500000000000355, 1.268411506570323866, -138.6599191420980048 ) ) ;
#451 = CARTESIAN_POINT ( 'NONE',  ( -1.268411506570325642, -1.587500000000000355, 138.6599191420980048 ) ) ;
#452 = CC_DESIGN_PERSON_AND_ORGANIZATION_ASSIGNMENT ( #313, #157, ( #545 ) ) ;
#453 = CC_DESIGN_APPROVAL ( #508, ( #11 ) ) ;
#454 = CARTESIAN_POINT ( 'NONE',  ( 0.000000000000000000, 0.000000000000000000, 138.8110000000000070 ) ) ;
#455 = PERSON_AND_ORGANIZATION_ROLE ( 'design_owner' ) ;
#456 = ORIENTED_EDGE ( 'NONE', *, *, #22, .T. ) ;
#457 = CARTESIAN_POINT ( 'NONE',  ( -1.268411506570325642, -1.587500000000000355, 138.6599191420980048 ) ) ;
#458 = VERTEX_POINT ( 'NONE', #53 ) ;
#459 = CARTESIAN_POINT ( 'NONE',  ( 0.000000000000000000, 0.000000000000000000, 138.8110000000000070 ) ) ;
#460 = ORIENTED_EDGE ( 'NONE', *, *, #75, .T. ) ;
#461 = CARTESIAN_POINT ( 'NONE',  ( -1.587500000000000355, -1.268411506570323866, 138.6599191420980048 ) ) ;
#462 = ORIENTED_EDGE ( 'NONE', *, *, #526, .F. ) ;
#463 = PLANE ( 'NONE',  #555 ) ;
#464 = SECURITY_CLASSIFICATION_LEVEL ( 'unclassified' ) ;
#465 = CARTESIAN_POINT ( 'NONE',  ( 1.587500000000000355, 0.000000000000000000, -138.7832273616928660 ) ) ;
#466 = CARTESIAN_POINT ( 'NONE',  ( -1.587500000000000355, 1.944126793646423534E-16, -138.7832273616928660 ) ) ;
#467 = DIRECTION ( 'NONE',  ( 0.000000000000000000, 0.000000000000000000, -1.000000000000000000 ) ) ;
#468 = B_SPLINE_CURVE_WITH_KNOTS ( 'NONE', 3,
 ( #524, #479, #262, #180, #356, #527 ),
 .UNSPECIFIED., .F., .F.,
 ( 4, 2, 4 ),
 ( 0.01485345774306963233, 0.01548163471194320337, 0.01610981168081677267 ),
 .UNSPECIFIED. ) ;
#469 = AXIS2_PLACEMENT_3D ( 'NONE', #189, #404, #499 ) ;
#470 = CARTESIAN_POINT ( 'NONE',  ( 1.587500000000000577, -0.4277385810629875107, 138.7769865435831775 ) ) ;
#471 = ORGANIZATION ( 'UNSPECIFIED', 'UNSPECIFIED', '' ) ;
#472 = EDGE_CURVE ( 'NONE', #484, #458, #213, .T. ) ;
#473 = CARTESIAN_POINT ( 'NONE',  ( 0.000000000000000000, 0.000000000000000000, -138.8110000000000070 ) ) ;
#474 = DIRECTION ( 'NONE',  ( -1.000000000000000000, 1.224646799147353207E-16, 0.000000000000000000 ) ) ;
#475 = ORIENTED_EDGE ( 'NONE', *, *, #79, .T. ) ;
#476 = ADVANCED_FACE ( 'NONE', ( #518 ), #253, .T. ) ;
#477 = LINE ( 'NONE', #89, #439 ) ;
#478 = ORIENTED_EDGE ( 'NONE', *, *, #355, .T. ) ;
#479 = CARTESIAN_POINT ( 'NONE',  ( 1.587500000000000133, -1.061532360077857451, -138.7114020682936086 ) ) ;
#480 = ORIENTED_EDGE ( 'NONE', *, *, #104, .T. ) ;
#481 = COORDINATED_UNIVERSAL_TIME_OFFSET ( 6, 0, .BEHIND. ) ;
#482 = EDGE_CURVE ( 'NONE', #391, #419, #182, .T. ) ;
#483 = DIRECTION ( 'NONE',  ( 1.000000000000000000, 0.000000000000000000, 0.000000000000000000 ) ) ;
#484 = VERTEX_POINT ( 'NONE', #302 ) ;
#485 = ORIENTED_EDGE ( 'NONE', *, *, #217, .T. ) ;
#486 = DIRECTION ( 'NONE',  ( -0.000000000000000000, -0.000000000000000000, 1.000000000000000000 ) ) ;
#487 = CARTESIAN_POINT ( 'NONE',  ( 1.587500000000000355, 0.000000000000000000, 138.7832273616928660 ) ) ;
#488 = EDGE_LOOP ( 'NONE', ( #97, #394, #548, #271 ) ) ;
#489 = CARTESIAN_POINT ( 'NONE',  ( -0.4219230645619470033, 1.587500000000000355, 138.7773073035536413 ) ) ;
#490 = CARTESIAN_POINT ( 'NONE',  ( 1.587500000000000355, 0.2114796877013868925, 138.7832273616928944 ) ) ;
#491 = EDGE_LOOP ( 'NONE', ( #456, #61, #177, #478 ) ) ;
#492 = EDGE_CURVE ( 'NONE', #153, #437, #294, .T. ) ;
#493 = AXIS2_PLACEMENT_3D ( 'NONE', #292, #467, #87 ) ;
#494 = DATE_TIME_ROLE ( 'classification_date' ) ;
#495 = APPROVAL_PERSON_ORGANIZATION ( #109, #304, #164 ) ;
#496 = SECURITY_CLASSIFICATION ( '', '', #464 ) ;
#497 = CARTESIAN_POINT ( 'NONE',  ( 1.587500000000000355, 1.268411506570323866, -138.6599191420980048 ) ) ;
#498 = VERTEX_POINT ( 'NONE', #256 ) ;
#499 = DIRECTION ( 'NONE',  ( 1.000000000000000000, 0.000000000000000000, 0.000000000000000000 ) ) ;
#500 = CARTESIAN_POINT ( 'NONE',  ( 0.8486262390323816573, -1.587500000000000133, 138.7417688228239285 ) ) ;
#501 = EDGE_CURVE ( 'NONE', #520, #419, #477, .T. ) ;
#502 = ORIENTED_EDGE ( 'NONE', *, *, #104, .F. ) ;
#503 = CARTESIAN_POINT ( 'NONE',  ( 0.8571092511719601292, 1.587500000000000577, 138.7622737970627895 ) ) ;
#504 = B_SPLINE_CURVE_WITH_KNOTS ( 'NONE', 3,
 ( #203, #293, #470, #200, #196, #44 ),
 .UNSPECIFIED., .F., .F.,
 ( 4, 2, 4 ),
 ( 0.000000000000000000, 0.0006365870327257444053, 0.001273174065451488811 ),
 .UNSPECIFIED. ) ;
#505 = LOCAL_TIME ( 15, 3, 10.00000000000000000, #319 ) ;
#506 = DIRECTION ( 'NONE',  ( 1.000000000000000000, 0.000000000000000000, 0.000000000000000000 ) ) ;
#507 = CARTESIAN_POINT ( 'NONE',  ( -1.587500000000000133, -1.061532360077857451, 138.7114020682936086 ) ) ;
#508 = APPROVAL ( #331, 'UNSPECIFIED' ) ;
#509 = FACE_OUTER_BOUND ( 'NONE', #103, .T. ) ;
#510 = CARTESIAN_POINT ( 'NONE',  ( -1.587500000000000355, 1.944126793646423534E-16, -138.7832273616928660 ) ) ;
#511 = CIRCLE ( 'NONE', #96, 2.032000000000000028 ) ;
#512 = CARTESIAN_POINT ( 'NONE',  ( 1.245064030267288402, 0.000000000000000000, -138.8110000000000070 ) ) ;
#513 = ADVANCED_BREP_SHAPE_REPRESENTATION ( '228-2500-268', ( #178, #155 ), #86 ) ;
#514 = CARTESIAN_POINT ( 'NONE',  ( 0.4342314039556068317, 1.587499999999999911, 138.7828517174431795 ) ) ;
#515 = CARTESIAN_POINT ( 'NONE',  ( 0.4342314039556059435, -1.587500000000000355, -138.7828517174432079 ) ) ;
#516 = FACE_OUTER_BOUND ( 'NONE', #491, .T. ) ;
#517 = ORIENTED_EDGE ( 'NONE', *, *, #35, .T. ) ;
#518 = FACE_OUTER_BOUND ( 'NONE', #442, .T. ) ;
#519 = B_SPLINE_CURVE_WITH_KNOTS ( 'NONE', 3,
 ( #361, #18, #67, #534, #320, #284 ),
 .UNSPECIFIED., .F., .F.,
 ( 4, 2, 4 ),
 ( 1.905938025164282062E-19, 0.0006365870327257445137, 0.001273174065451488811 ),
 .UNSPECIFIED. ) ;
#520 = VERTEX_POINT ( 'NONE', #133 ) ;
#521 = EDGE_CURVE ( 'NONE', #391, #234, #93, .T. ) ;
#522 = AXIS2_PLACEMENT_3D ( 'NONE', #51, #353, #390 ) ;
#523 = CARTESIAN_POINT ( 'NONE',  ( 0.8571092511719571316, -1.587500000000000355, -138.7622737970628179 ) ) ;
#524 = CARTESIAN_POINT ( 'NONE',  ( 1.587500000000000355, -1.268411506570323866, -138.6599191420980048 ) ) ;
#525 = ORIENTED_EDGE ( 'NONE', *, *, #526, .T. ) ;
#526 = EDGE_CURVE ( 'NONE', #17, #183, #511, .T. ) ;
#527 = CARTESIAN_POINT ( 'NONE',  ( 1.587500000000000355, 0.000000000000000000, -138.7832273616928660 ) ) ;
#528 = ORIENTED_EDGE ( 'NONE', *, *, #285, .F. ) ;
#529 = CYLINDRICAL_SURFACE ( 'NONE', #289, 2.032000000000000028 ) ;
#530 = UNCERTAINTY_MEASURE_WITH_UNIT (LENGTH_MEASURE( 1.000000000000000082E-05 ), #19, 'distance_accuracy_value', 'NONE');
#531 = ORIENTED_EDGE ( 'NONE', *, *, #443, .F. ) ;
#532 = AXIS2_PLACEMENT_3D ( 'NONE', #473, #335, #506 ) ;
#533 = AXIS2_PLACEMENT_3D ( 'NONE', #121, #338, #209 ) ;
#534 = CARTESIAN_POINT ( 'NONE',  ( -1.587500000000000355, 0.8513200635100163227, 138.7413775553181381 ) ) ;
#535 = APPLICATION_PROTOCOL_DEFINITION ( 'international standard', 'config_control_design', 1994, #132 ) ;
#536 = ORIENTED_EDGE ( 'NONE', *, *, #417, .F. ) ;
#537 = PERSON ( 'UNSPECIFIED', 'UNSPECIFIED', 'UNSPECIFIED', ('UNSPECIFIED'), ('UNSPECIFIED'), ('UNSPECIFIED') ) ;
#538 = CARTESIAN_POINT ( 'NONE',  ( -1.268411506570323866, 1.587500000000000355, 138.6599191420980048 ) ) ;
#539 = DIRECTION ( 'NONE',  ( 0.000000000000000000, 0.000000000000000000, 1.000000000000000000 ) ) ;
#540 = VERTEX_POINT ( 'NONE', #111 ) ;
#541 = DIRECTION ( 'NONE',  ( -0.000000000000000000, -0.000000000000000000, 1.000000000000000000 ) ) ;
#542 =( NAMED_UNIT ( * ) PLANE_ANGLE_UNIT ( ) SI_UNIT ( $, .RADIAN. ) );
#543 = DIRECTION ( 'NONE',  ( 0.000000000000000000, -1.000000000000000000, 0.000000000000000000 ) ) ;
#544 = CIRCLE ( 'NONE', #55, 2.124999999999988898 ) ;
#545 = PRODUCT_DEFINITION_FORMATION_WITH_SPECIFIED_SOURCE ( 'ANY', '', #219, .NOT_KNOWN. ) ;
#546 = CARTESIAN_POINT ( 'NONE',  ( 1.245064030267288402, 0.000000000000000000, -136.6860000000000355 ) ) ;
#547 = B_SPLINE_CURVE_WITH_KNOTS ( 'NONE', 3,
 ( #334, #80, #195, #290, #386, #337, #46, #426 ),
 .UNSPECIFIED., .F., .F.,
 ( 4, 2, 2, 4 ),
 ( 0.01485345774306963233, 0.01548583974386928859, 0.01611822174466894658, 0.01738298574626825910 ),
 .UNSPECIFIED. ) ;
#548 = ORIENTED_EDGE ( 'NONE', *, *, #449, .F. ) ;
#549 = DIRECTION ( 'NONE',  ( 1.000000000000000000, 0.000000000000000000, 0.000000000000000000 ) ) ;
#550 = CARTESIAN_POINT ( 'NONE',  ( 0.2043756380772867032, -1.587500000000000133, 138.7834096189637876 ) ) ;
#551 = EDGE_CURVE ( 'NONE', #183, #402, #66, .T. ) ;
#552 = CARTESIAN_POINT ( 'NONE',  ( -1.587500000000000355, -1.268411506570323866, 138.6599191420980048 ) ) ;
#553 = CARTESIAN_POINT ( 'NONE',  ( -1.587500000000000577, -0.4277385810629871221, -138.7769865435831775 ) ) ;
#554 = DIRECTION ( 'NONE',  ( -0.000000000000000000, 1.000000000000000000, 0.000000000000000000 ) ) ;
#555 = AXIS2_PLACEMENT_3D ( 'NONE', #123, #291, #201 ) ;
#556 = CC_DESIGN_PERSON_AND_ORGANIZATION_ASSIGNMENT ( #324, #377, ( #545 ) ) ;
#557 = CARTESIAN_POINT ( 'NONE',  ( -1.587500000000000355, -1.061392899157111325, -138.7114367738516876 ) ) ;
#558 = CARTESIAN_POINT ( 'NONE',  ( 1.587500000000000355, 1.268411506570323866, -138.6599191420980048 ) ) ;
#559 = DIRECTION ( 'NONE',  ( 1.000000000000000000, 0.000000000000000000, 0.000000000000000000 ) ) ;
#560 = DIRECTION ( 'NONE',  ( 1.000000000000000000, 1.224646799147353207E-16, 0.000000000000000000 ) ) ;
#561 = CARTESIAN_POINT ( 'NONE',  ( 0.000000000000000000, 0.000000000000000000, -138.6599191420980048 ) ) ;
ENDSEC;
END-ISO-10303-21;
