ISO-10303-21;
HEADER;
FILE_DESCRIPTION (( 'STEP AP203' ),
    '1' );
FILE_NAME ('228-2500-269.step',
    '2022-06-06T20:03:19',
    ( '' ),
    ( '' ),
    'SwSTEP 2.0',
    'SolidWorks 2021',
    '' );
FILE_SCHEMA (( 'CONFIG_CONTROL_DESIGN' ));
ENDSEC;

DATA;
#1 = CC_DESIGN_APPROVAL ( #137, ( #534 ) ) ;
#2 = PRODUCT_RELATED_PRODUCT_CATEGORY ( 'detail', '', ( #408 ) ) ;
#3 = CARTESIAN_POINT ( 'NONE',  ( 1.587500000000000355, -1.587500000000000355, 151.5109999999999957 ) ) ;
#4 =( NAMED_UNIT ( * ) SI_UNIT ( $, .STERADIAN. ) SOLID_ANGLE_UNIT ( ) );
#5 = ORIENTED_EDGE ( 'NONE', *, *, #112, .F. ) ;
#6 = B_SPLINE_CURVE_WITH_KNOTS ( 'NONE', 3,
 ( #215, #358, #7, #530, #44, #480 ),
 .UNSPECIFIED., .F., .F.,
 ( 4, 2, 4 ),
 ( 1.905938025164282062E-19, 0.0006365870327257445137, 0.001273174065451488811 ),
 .UNSPECIFIED. ) ;
#7 = CARTESIAN_POINT ( 'NONE',  ( -1.587500000000000577, 0.4277385810629875107, 151.4769865435831662 ) ) ;
#8 = VECTOR ( 'NONE', #415, 1000.000000000000000 ) ;
#9 = VECTOR ( 'NONE', #375, 1000.000000000000000 ) ;
#10 = ORIENTED_EDGE ( 'NONE', *, *, #473, .T. ) ;
#11 = VERTEX_POINT ( 'NONE', #327 ) ;
#12 = EDGE_CURVE ( 'NONE', #509, #245, #292, .T. ) ;
#13 = CARTESIAN_POINT ( 'NONE',  ( 0.4342314039556068317, 1.587499999999999911, 151.4828517174431397 ) ) ;
#14 = ORIENTED_EDGE ( 'NONE', *, *, #314, .T. ) ;
#15 = CARTESIAN_POINT ( 'NONE',  ( -1.587500000000000133, 1.061532360077857451, -151.4114020682935973 ) ) ;
#16 = SECURITY_CLASSIFICATION_LEVEL ( 'unclassified' ) ;
#17 = VERTEX_POINT ( 'NONE', #406 ) ;
#18 = VECTOR ( 'NONE', #501, 1000.000000000000000 ) ;
#19 = CC_DESIGN_APPROVAL ( #489, ( #401 ) ) ;
#20 = DIRECTION ( 'NONE',  ( 1.000000000000000000, 0.000000000000000000, 0.000000000000000000 ) ) ;
#21 = DATE_AND_TIME ( #144, #352 ) ;
#22 = CYLINDRICAL_SURFACE ( 'NONE', #84, 2.032000000000000028 ) ;
#23 = CARTESIAN_POINT ( 'NONE',  ( -1.587500000000000355, 0.4276219574846481519, -151.4769963920001032 ) ) ;
#24 = CARTESIAN_POINT ( 'NONE',  ( -1.587500000000000355, -0.4276219574846481519, 151.4769963920001032 ) ) ;
#25 = CARTESIAN_POINT ( 'NONE',  ( -0.2043756380772863979, -1.587500000000000133, -151.4834096189638046 ) ) ;
#26 = CARTESIAN_POINT ( 'NONE',  ( 1.587500000000000355, -1.268411506570323866, -151.5109999999999957 ) ) ;
#27 = AXIS2_PLACEMENT_3D ( 'NONE', #224, #135, #219 ) ;
#28 = CARTESIAN_POINT ( 'NONE',  ( 0.000000000000000000, 0.000000000000000000, 149.3860000000000241 ) ) ;
#29 = CARTESIAN_POINT ( 'NONE',  ( -1.587500000000000355, 1.268411506570323866, -151.5109999999999957 ) ) ;
#30 = ADVANCED_FACE ( 'NONE', ( #108 ), #22, .T. ) ;
#31 = CARTESIAN_POINT ( 'NONE',  ( 0.000000000000000000, 0.000000000000000000, -151.5109999999999957 ) ) ;
#32 = CARTESIAN_POINT ( 'NONE',  ( -1.587500000000000355, -1.268411506570323866, 151.3599191420979935 ) ) ;
#33 = CARTESIAN_POINT ( 'NONE',  ( 1.587500000000000133, 0.2143109880596213435, -151.4832273616928831 ) ) ;
#34 = CARTESIAN_POINT ( 'NONE',  ( -1.587500000000000355, 1.587500000000000355, -151.5109999999999957 ) ) ;
#35 = ORIENTED_EDGE ( 'NONE', *, *, #513, .F. ) ;
#36 = DIRECTION ( 'NONE',  ( 0.000000000000000000, 0.000000000000000000, -1.000000000000000000 ) ) ;
#37 = CIRCLE ( 'NONE', #150, 2.032000000000000028 ) ;
#38 = EDGE_CURVE ( 'NONE', #136, #381, #159, .T. ) ;
#39 = CARTESIAN_POINT ( 'NONE',  ( 0.000000000000000000, 0.000000000000000000, 151.3599191420979935 ) ) ;
#40 = CARTESIAN_POINT ( 'NONE',  ( 1.587500000000000577, -0.4277385810629875107, 151.4769865435831662 ) ) ;
#41 = ORIENTED_EDGE ( 'NONE', *, *, #454, .T. ) ;
#42 = CARTESIAN_POINT ( 'NONE',  ( -0.8571092511719601292, -1.587500000000000577, 151.4622737970628066 ) ) ;
#43 = AXIS2_PLACEMENT_3D ( 'NONE', #236, #192, #147 ) ;
#44 = CARTESIAN_POINT ( 'NONE',  ( -1.587500000000000355, 1.061392899157112879, 151.4114367738516478 ) ) ;
#45 = ORIENTED_EDGE ( 'NONE', *, *, #389, .T. ) ;
#46 = B_SPLINE_CURVE_WITH_KNOTS ( 'NONE', 3,
 ( #552, #33, #516, #211, #335, #81 ),
 .UNSPECIFIED., .F., .F.,
 ( 4, 2, 4 ),
 ( 0.000000000000000000, 0.0006365870327257435379, 0.001273174065451487076 ),
 .UNSPECIFIED. ) ;
#47 = DIRECTION ( 'NONE',  ( -1.000000000000000000, 0.000000000000000000, 0.000000000000000000 ) ) ;
#48 = ORIENTED_EDGE ( 'NONE', *, *, #38, .F. ) ;
#49 = COORDINATED_UNIVERSAL_TIME_OFFSET ( 6, 0, .BEHIND. ) ;
#50 = ORIENTED_EDGE ( 'NONE', *, *, #347, .T. ) ;
#51 = CIRCLE ( 'NONE', #533, 2.032000000000000028 ) ;
#52 = CIRCLE ( 'NONE', #246, 2.032000000000000028 ) ;
#53 = ADVANCED_FACE ( 'NONE', ( #462 ), #366, .T. ) ;
#54 = ORIENTED_EDGE ( 'NONE', *, *, #557, .F. ) ;
#55 = EDGE_CURVE ( 'NONE', #245, #11, #429, .T. ) ;
#56 = CARTESIAN_POINT ( 'NONE',  ( 1.268411506570325642, 1.587500000000000355, 151.3599191420979935 ) ) ;
#57 = ORIENTED_EDGE ( 'NONE', *, *, #297, .F. ) ;
#58 = CARTESIAN_POINT ( 'NONE',  ( -1.268411506570323866, -1.587500000000000355, -151.3599191420979935 ) ) ;
#59 = ORIENTED_EDGE ( 'NONE', *, *, #355, .F. ) ;
#60 = CC_DESIGN_DATE_AND_TIME_ASSIGNMENT ( #71, #539, ( #401 ) ) ;
#61 = DIRECTION ( 'NONE',  ( 0.000000000000000000, 0.000000000000000000, -1.000000000000000000 ) ) ;
#62 = PERSON_AND_ORGANIZATION ( #324, #214 ) ;
#63 = DIRECTION ( 'NONE',  ( -0.000000000000000000, -0.000000000000000000, 1.000000000000000000 ) ) ;
#64 = AXIS2_PLACEMENT_3D ( 'NONE', #431, #518, #91 ) ;
#65 = DIRECTION ( 'NONE',  ( 1.000000000000000000, 0.000000000000000000, 0.000000000000000000 ) ) ;
#66 = LINE ( 'NONE', #26, #221 ) ;
#67 = DIRECTION ( 'NONE',  ( 1.000000000000000000, 0.000000000000000000, 0.000000000000000000 ) ) ;
#68 = DATE_AND_TIME ( #487, #524 ) ;
#69 = CARTESIAN_POINT ( 'NONE',  ( 1.245064030267288402, 0.000000000000000000, -149.3860000000000241 ) ) ;
#70 = CARTESIAN_POINT ( 'NONE',  ( 0.000000000000000000, 0.000000000000000000, 151.3599191420979935 ) ) ;
#71 = DATE_AND_TIME ( #363, #205 ) ;
#72 = DIRECTION ( 'NONE',  ( -0.000000000000000000, -0.000000000000000000, 1.000000000000000000 ) ) ;
#73 = EDGE_CURVE ( 'NONE', #385, #258, #102, .T. ) ;
#74 = EDGE_CURVE ( 'NONE', #17, #122, #66, .T. ) ;
#75 = VECTOR ( 'NONE', #247, 1000.000000000000000 ) ;
#76 = DIRECTION ( 'NONE',  ( -0.000000000000000000, -0.000000000000000000, 1.000000000000000000 ) ) ;
#77 = EDGE_LOOP ( 'NONE', ( #409, #308, #45, #41 ) ) ;
#78 = CARTESIAN_POINT ( 'NONE',  ( 0.2043756380772867032, -1.587500000000000133, 151.4834096189638046 ) ) ;
#79 = EDGE_LOOP ( 'NONE', ( #14, #481, #220, #526 ) ) ;
#80 = EDGE_CURVE ( 'NONE', #383, #357, #544, .T. ) ;
#81 = CARTESIAN_POINT ( 'NONE',  ( 1.587500000000000355, 1.268411506570323866, -151.3599191420979935 ) ) ;
#82 = CARTESIAN_POINT ( 'NONE',  ( -0.4219230645619470033, 1.587500000000000355, 151.4773073035536015 ) ) ;
#83 = ORIENTED_EDGE ( 'NONE', *, *, #510, .T. ) ;
#84 = AXIS2_PLACEMENT_3D ( 'NONE', #153, #63, #330 ) ;
#85 = CARTESIAN_POINT ( 'NONE',  ( 1.587500000000000355, 1.268411506570323866, -151.5109999999999957 ) ) ;
#86 = DIRECTION ( 'NONE',  ( 0.000000000000000000, 0.000000000000000000, 1.000000000000000000 ) ) ;
#87 = ORIENTED_EDGE ( 'NONE', *, *, #435, .T. ) ;
#88 = DIRECTION ( 'NONE',  ( 1.000000000000000000, 0.000000000000000000, 0.000000000000000000 ) ) ;
#89 = AXIS2_PLACEMENT_3D ( 'NONE', #461, #76, #558 ) ;
#90 = ORIENTED_EDGE ( 'NONE', *, *, #234, .F. ) ;
#91 = DIRECTION ( 'NONE',  ( 1.000000000000000000, 0.000000000000000000, 0.000000000000000000 ) ) ;
#92 = ORIENTED_EDGE ( 'NONE', *, *, #184, .T. ) ;
#93 = EDGE_CURVE ( 'NONE', #402, #285, #300, .T. ) ;
#94 = ORIENTED_EDGE ( 'NONE', *, *, #127, .F. ) ;
#95 = CIRCLE ( 'NONE', #317, 1.245064030267288402 ) ;
#96 = ORIENTED_EDGE ( 'NONE', *, *, #196, .F. ) ;
#97 = COORDINATED_UNIVERSAL_TIME_OFFSET ( 6, 0, .BEHIND. ) ;
#98 = ORIENTED_EDGE ( 'NONE', *, *, #55, .F. ) ;
#99 = CARTESIAN_POINT ( 'NONE',  ( 1.587500000000000355, -0.2114796877013868925, -151.4832273616928546 ) ) ;
#100 = CARTESIAN_POINT ( 'NONE',  ( -0.4342314039556059435, 1.587500000000000355, -151.4828517174431965 ) ) ;
#101 = CARTESIAN_POINT ( 'NONE',  ( 1.268411506570323866, -1.587500000000000355, -151.3599191420979935 ) ) ;
#102 = CIRCLE ( 'NONE', #351, 2.124999999999988010 ) ;
#103 = CARTESIAN_POINT ( 'NONE',  ( -1.587500000000000133, -1.061532360077857451, 151.4114020682935973 ) ) ;
#104 = AXIS2_PLACEMENT_3D ( 'NONE', #498, #457, #278 ) ;
#105 = CC_DESIGN_SECURITY_CLASSIFICATION ( #403, ( #534 ) ) ;
#106 = CARTESIAN_POINT ( 'NONE',  ( 0.000000000000000000, 0.000000000000000000, -151.5109999999999957 ) ) ;
#107 = PERSON_AND_ORGANIZATION ( #324, #214 ) ;
#108 = FACE_OUTER_BOUND ( 'NONE', #77, .T. ) ;
#109 = DIRECTION ( 'NONE',  ( -1.000000000000000000, 0.000000000000000000, 0.000000000000000000 ) ) ;
#110 = APPROVAL_ROLE ( '' ) ;
#111 = DIRECTION ( 'NONE',  ( -0.000000000000000000, -0.000000000000000000, 1.000000000000000000 ) ) ;
#112 = EDGE_CURVE ( 'NONE', #136, #285, #374, .T. ) ;
#113 = CARTESIAN_POINT ( 'NONE',  ( -1.268411506570323866, 1.587500000000000355, -151.5109999999999957 ) ) ;
#114 = EDGE_LOOP ( 'NONE', ( #132, #272 ) ) ;
#115 = AXIS2_PLACEMENT_3D ( 'NONE', #492, #111, #212 ) ;
#116 = DIRECTION ( 'NONE',  ( 0.000000000000000000, 0.000000000000000000, -1.000000000000000000 ) ) ;
#117 = PLANE ( 'NONE',  #130 ) ;
#118 = EDGE_LOOP ( 'NONE', ( #311, #305, #400, #216 ) ) ;
#119 = DIRECTION ( 'NONE',  ( -0.000000000000000000, 1.000000000000000000, 0.000000000000000000 ) ) ;
#120 = B_SPLINE_CURVE_WITH_KNOTS ( 'NONE', 3,
 ( #156, #370, #145, #546, #320, #100, #280, #447 ),
 .UNSPECIFIED., .F., .F.,
 ( 4, 2, 2, 4 ),
 ( 0.01485345774306963233, 0.01548583974386928859, 0.01611822174466894658, 0.01738298574626825910 ),
 .UNSPECIFIED. ) ;
#121 = CARTESIAN_POINT ( 'NONE',  ( 0.000000000000000000, 0.000000000000000000, 149.3860000000000241 ) ) ;
#122 = VERTEX_POINT ( 'NONE', #548 ) ;
#123 = TOROIDAL_SURFACE ( 'NONE', #301, 1.245064030267288402, 2.124999999999988898 ) ;
#124 = PLANE ( 'NONE',  #231 ) ;
#125 = CARTESIAN_POINT ( 'NONE',  ( 1.587500000000000133, -0.2143109880596216488, 151.4832273616928831 ) ) ;
#126 = DIRECTION ( 'NONE',  ( -0.000000000000000000, -0.000000000000000000, 1.000000000000000000 ) ) ;
#127 = EDGE_CURVE ( 'NONE', #177, #521, #120, .T. ) ;
#128 = FACE_OUTER_BOUND ( 'NONE', #318, .T. ) ;
#129 = ORIENTED_EDGE ( 'NONE', *, *, #93, .F. ) ;
#130 = AXIS2_PLACEMENT_3D ( 'NONE', #34, #202, #344 ) ;
#131 = TOROIDAL_SURFACE ( 'NONE', #395, 1.245064030267288402, 2.124999999999988898 ) ;
#132 = ORIENTED_EDGE ( 'NONE', *, *, #249, .F. ) ;
#133 = EDGE_CURVE ( 'NONE', #285, #223, #253, .T. ) ;
#134 = EDGE_LOOP ( 'NONE', ( #225, #394, #87, #523, #229, #554, #98, #529 ) ) ;
#135 = DIRECTION ( 'NONE',  ( -0.000000000000000000, -0.000000000000000000, 1.000000000000000000 ) ) ;
#136 = VERTEX_POINT ( 'NONE', #424 ) ;
#137 = APPROVAL ( #416, 'UNSPECIFIED' ) ;
#138 = AXIS2_PLACEMENT_3D ( 'NONE', #364, #72, #543 ) ;
#139 = LOCAL_TIME ( 15, 3, 19.00000000000000000, #242 ) ;
#140 = VERTEX_POINT ( 'NONE', #173 ) ;
#141 = CARTESIAN_POINT ( 'NONE',  ( -0.8486262390323832117, -1.587500000000000577, -151.4417688228239740 ) ) ;
#142 = UNCERTAINTY_MEASURE_WITH_UNIT (LENGTH_MEASURE( 1.000000000000000082E-05 ), #392, 'distance_accuracy_value', 'NONE');
#143 = EDGE_CURVE ( 'NONE', #357, #381, #377, .T. ) ;
#144 = CALENDAR_DATE ( 2022, 6, 6 ) ;
#145 = CARTESIAN_POINT ( 'NONE',  ( 0.8486262390323832117, 1.587500000000000577, -151.4417688228239740 ) ) ;
#146 = CARTESIAN_POINT ( 'NONE',  ( -1.587500000000000355, -1.587500000000000355, 151.5109999999999957 ) ) ;
#147 = DIRECTION ( 'NONE',  ( -1.000000000000000000, 0.000000000000000000, 0.000000000000000000 ) ) ;
#148 = CARTESIAN_POINT ( 'NONE',  ( 1.587500000000000577, -0.8514389605504963932, -151.4413675157792341 ) ) ;
#149 = ORIENTED_EDGE ( 'NONE', *, *, #12, .F. ) ;
#150 = AXIS2_PLACEMENT_3D ( 'NONE', #477, #126, #88 ) ;
#151 = ADVANCED_FACE ( 'NONE', ( #251 ), #123, .T. ) ;
#152 = DIRECTION ( 'NONE',  ( -0.000000000000000000, -0.000000000000000000, 1.000000000000000000 ) ) ;
#153 = CARTESIAN_POINT ( 'NONE',  ( 0.000000000000000000, 0.000000000000000000, -151.5109999999999957 ) ) ;
#154 = CARTESIAN_POINT ( 'NONE',  ( 1.587500000000000355, 1.268411506570323866, -151.3599191420979935 ) ) ;
#155 = DATE_AND_TIME ( #238, #388 ) ;
#156 = CARTESIAN_POINT ( 'NONE',  ( 1.268411506570323866, 1.587500000000000355, -151.3599191420979935 ) ) ;
#157 = CARTESIAN_POINT ( 'NONE',  ( -1.587500000000000355, 1.587500000000000355, 151.5109999999999957 ) ) ;
#158 = CARTESIAN_POINT ( 'NONE',  ( 1.587500000000000355, -0.8513200635100163227, 151.4413775553180983 ) ) ;
#159 = B_SPLINE_CURVE_WITH_KNOTS ( 'NONE', 3,
 ( #32, #103, #289, #24, #452, #488 ),
 .UNSPECIFIED., .F., .F.,
 ( 4, 2, 4 ),
 ( 0.01485345774306963233, 0.01548163471194320337, 0.01610981168081677267 ),
 .UNSPECIFIED. ) ;
#160 = AXIS2_PLACEMENT_3D ( 'NONE', #28, #545, #20 ) ;
#161 = AXIS2_PLACEMENT_3D ( 'NONE', #31, #252, #259 ) ;
#162 = DIRECTION ( 'NONE',  ( -1.000000000000000000, 0.000000000000000000, -0.000000000000000000 ) ) ;
#163 = VERTEX_POINT ( 'NONE', #421 ) ;
#164 = DIRECTION ( 'NONE',  ( 0.000000000000000000, 0.000000000000000000, -1.000000000000000000 ) ) ;
#165 = ORIENTED_EDGE ( 'NONE', *, *, #12, .T. ) ;
#166 = CARTESIAN_POINT ( 'NONE',  ( 1.587500000000000133, 1.061532360077857451, 151.4114020682935973 ) ) ;
#167 = FACE_OUTER_BOUND ( 'NONE', #114, .T. ) ;
#168 = ORIENTED_EDGE ( 'NONE', *, *, #73, .F. ) ;
#169 = VECTOR ( 'NONE', #198, 1000.000000000000000 ) ;
#170 = EDGE_CURVE ( 'NONE', #412, #122, #397, .T. ) ;
#171 = CARTESIAN_POINT ( 'NONE',  ( -1.268411506570325642, -1.587500000000000355, 151.3599191420979935 ) ) ;
#172 = ADVANCED_FACE ( 'NONE', ( #167 ), #117, .T. ) ;
#173 = CARTESIAN_POINT ( 'NONE',  ( 1.268411506570323866, -1.587500000000000355, -151.3599191420979935 ) ) ;
#174 = EDGE_LOOP ( 'NONE', ( #313, #165, #232, #208 ) ) ;
#175 = MECHANICAL_CONTEXT ( 'NONE', #479, 'mechanical' ) ;
#176 = EDGE_CURVE ( 'NONE', #521, #509, #448, .T. ) ;
#177 = VERTEX_POINT ( 'NONE', #304 ) ;
#178 = EDGE_LOOP ( 'NONE', ( #96, #398, #433, #92 ) ) ;
#179 = DIRECTION ( 'NONE',  ( -0.000000000000000000, -0.000000000000000000, 1.000000000000000000 ) ) ;
#180 = ORIENTED_EDGE ( 'NONE', *, *, #414, .F. ) ;
#181 = CC_DESIGN_PERSON_AND_ORGANIZATION_ASSIGNMENT ( #405, #536, ( #534 ) ) ;
#182 = ORIENTED_EDGE ( 'NONE', *, *, #435, .F. ) ;
#183 = MANIFOLD_SOLID_BREP ( '228-2500-269', #368 ) ;
#184 = EDGE_CURVE ( 'NONE', #11, #163, #243, .T. ) ;
#185 = CARTESIAN_POINT ( 'NONE',  ( 1.245064030267288402, 0.000000000000000000, -151.5109999999999957 ) ) ;
#186 = AXIS2_PLACEMENT_3D ( 'NONE', #399, #356, #47 ) ;
#187 = PERSON_AND_ORGANIZATION_ROLE ( 'creator' ) ;
#188 = ORIENTED_EDGE ( 'NONE', *, *, #73, .T. ) ;
#189 = CARTESIAN_POINT ( 'NONE',  ( 1.268411506570323866, -1.587500000000000355, -151.5109999999999957 ) ) ;
#190 = SHAPE_DEFINITION_REPRESENTATION ( #517, #503 ) ;
#191 = CC_DESIGN_PERSON_AND_ORGANIZATION_ASSIGNMENT ( #107, #329, ( #401 ) ) ;
#192 = DIRECTION ( 'NONE',  ( 0.000000000000000000, 0.000000000000000000, -1.000000000000000000 ) ) ;
#193 = CARTESIAN_POINT ( 'NONE',  ( 0.000000000000000000, 0.000000000000000000, -151.3599191420979935 ) ) ;
#194 = COORDINATED_UNIVERSAL_TIME_OFFSET ( 6, 0, .BEHIND. ) ;
#195 = CARTESIAN_POINT ( 'NONE',  ( -1.587500000000000133, -0.2143109880596212602, -151.4832273616928831 ) ) ;
#196 = EDGE_CURVE ( 'NONE', #177, #163, #396, .T. ) ;
#197 = CARTESIAN_POINT ( 'NONE',  ( -1.245064030267288402, -2.006622987633882228E-16, 151.5109999999999957 ) ) ;
#198 = DIRECTION ( 'NONE',  ( 0.000000000000000000, 0.000000000000000000, -1.000000000000000000 ) ) ;
#199 = PERSON_AND_ORGANIZATION ( #324, #214 ) ;
#200 = CARTESIAN_POINT ( 'NONE',  ( -1.587500000000000355, -1.268411506570323866, -151.3599191420979935 ) ) ;
#201 = CARTESIAN_POINT ( 'NONE',  ( -1.268411506570325642, -1.587500000000000355, 151.3599191420979935 ) ) ;
#202 = DIRECTION ( 'NONE',  ( 0.000000000000000000, 0.000000000000000000, -1.000000000000000000 ) ) ;
#203 = ORIENTED_EDGE ( 'NONE', *, *, #38, .T. ) ;
#204 = CIRCLE ( 'NONE', #27, 1.245064030267288402 ) ;
#205 = LOCAL_TIME ( 15, 3, 19.00000000000000000, #491 ) ;
#206 = CARTESIAN_POINT ( 'NONE',  ( -0.4342314039556068317, -1.587499999999999911, 151.4828517174431397 ) ) ;
#207 = DIRECTION ( 'NONE',  ( 1.224646799147353207E-16, -1.000000000000000000, 0.000000000000000000 ) ) ;
#208 = ORIENTED_EDGE ( 'NONE', *, *, #332, .T. ) ;
#209 = DIRECTION ( 'NONE',  ( -1.000000000000000000, 0.000000000000000000, 0.000000000000000000 ) ) ;
#210 = EDGE_CURVE ( 'NONE', #122, #437, #244, .T. ) ;
#211 = CARTESIAN_POINT ( 'NONE',  ( 1.587500000000000355, 0.8513200635100148794, -151.4413775553180983 ) ) ;
#212 = DIRECTION ( 'NONE',  ( 1.000000000000000000, 0.000000000000000000, 0.000000000000000000 ) ) ;
#213 = TOROIDAL_SURFACE ( 'NONE', #160, 1.245064030267288402, 2.124999999999988898 ) ;
#214 = ORGANIZATION ( 'UNSPECIFIED', 'UNSPECIFIED', '' ) ;
#215 = CARTESIAN_POINT ( 'NONE',  ( -1.587500000000000355, -1.944126793646423534E-16, 151.4832273616928546 ) ) ;
#216 = ORIENTED_EDGE ( 'NONE', *, *, #112, .T. ) ;
#217 = B_SPLINE_CURVE_WITH_KNOTS ( 'NONE', 3,
 ( #369, #365, #148, #441, #99, #227 ),
 .UNSPECIFIED., .F., .F.,
 ( 4, 2, 4 ),
 ( 0.01485345774306963233, 0.01548163471194320337, 0.01610981168081677267 ),
 .UNSPECIFIED. ) ;
#218 = DIRECTION ( 'NONE',  ( 0.000000000000000000, -1.000000000000000000, 0.000000000000000000 ) ) ;
#219 = DIRECTION ( 'NONE',  ( 1.000000000000000000, 0.000000000000000000, 0.000000000000000000 ) ) ;
#220 = ORIENTED_EDGE ( 'NONE', *, *, #210, .T. ) ;
#221 = VECTOR ( 'NONE', #499, 1000.000000000000000 ) ;
#222 = APPROVAL_PERSON_ORGANIZATION ( #62, #137, #110 ) ;
#223 = VERTEX_POINT ( 'NONE', #390 ) ;
#224 = CARTESIAN_POINT ( 'NONE',  ( 0.000000000000000000, 0.000000000000000000, -151.5109999999999957 ) ) ;
#225 = ORIENTED_EDGE ( 'NONE', *, *, #143, .F. ) ;
#226 = ADVANCED_FACE ( 'NONE', ( #528 ), #274, .F. ) ;
#227 = CARTESIAN_POINT ( 'NONE',  ( 1.587500000000000355, 0.000000000000000000, -151.4832273616928546 ) ) ;
#228 = PERSON_AND_ORGANIZATION ( #324, #214 ) ;
#229 = ORIENTED_EDGE ( 'NONE', *, *, #389, .F. ) ;
#230 = CARTESIAN_POINT ( 'NONE',  ( -1.587500000000000355, 1.944126793646423534E-16, -151.4832273616928546 ) ) ;
#231 = AXIS2_PLACEMENT_3D ( 'NONE', #157, #164, #162 ) ;
#232 = ORIENTED_EDGE ( 'NONE', *, *, #55, .T. ) ;
#233 = DIRECTION ( 'NONE',  ( 1.000000000000000000, 0.000000000000000000, 0.000000000000000000 ) ) ;
#234 = EDGE_CURVE ( 'NONE', #223, #478, #432, .T. ) ;
#235 = APPROVAL_DATE_TIME ( #155, #489 ) ;
#236 = CARTESIAN_POINT ( 'NONE',  ( 0.000000000000000000, 0.000000000000000000, 151.3599191420979935 ) ) ;
#237 = CARTESIAN_POINT ( 'NONE',  ( -1.060147506033618736, -1.587500000000000133, -151.4117466962551646 ) ) ;
#238 = CALENDAR_DATE ( 2022, 6, 6 ) ;
#239 = CARTESIAN_POINT ( 'NONE',  ( -1.587500000000000355, -0.8513200635100148794, -151.4413775553180983 ) ) ;
#240 = DIRECTION ( 'NONE',  ( -0.000000000000000000, -0.000000000000000000, 1.000000000000000000 ) ) ;
#241 = DESIGN_CONTEXT ( 'detailed design', #508, 'design' ) ;
#242 = COORDINATED_UNIVERSAL_TIME_OFFSET ( 6, 0, .BEHIND. ) ;
#243 = B_SPLINE_CURVE_WITH_KNOTS ( 'NONE', 3,
 ( #338, #471, #466, #82, #315, #13, #525, #56 ),
 .UNSPECIFIED., .F., .F.,
 ( 4, 2, 2, 4 ),
 ( 0.01485345774306963233, 0.01548583974386929032, 0.01611822174466894658, 0.01738298574626826257 ),
 .UNSPECIFIED. ) ;
#244 = CIRCLE ( 'NONE', #186, 2.032000000000000028 ) ;
#245 = VERTEX_POINT ( 'NONE', #353 ) ;
#246 = AXIS2_PLACEMENT_3D ( 'NONE', #39, #36, #209 ) ;
#247 = DIRECTION ( 'NONE',  ( 0.000000000000000000, 0.000000000000000000, -1.000000000000000000 ) ) ;
#248 = ORIENTED_EDGE ( 'NONE', *, *, #74, .F. ) ;
#249 = EDGE_CURVE ( 'NONE', #385, #464, #204, .T. ) ;
#250 = CARTESIAN_POINT ( 'NONE',  ( 1.587500000000000355, 0.2114796877013868925, 151.4832273616928546 ) ) ;
#251 = FACE_OUTER_BOUND ( 'NONE', #342, .T. ) ;
#252 = DIRECTION ( 'NONE',  ( -0.000000000000000000, -0.000000000000000000, 1.000000000000000000 ) ) ;
#253 = CIRCLE ( 'NONE', #115, 2.032000000000000028 ) ;
#254 = ORIENTED_EDGE ( 'NONE', *, *, #473, .F. ) ;
#255 = CIRCLE ( 'NONE', #262, 2.124999999999988898 ) ;
#256 = CARTESIAN_POINT ( 'NONE',  ( 1.587500000000000355, 1.268411506570323866, 151.3599191420979935 ) ) ;
#257 = EDGE_CURVE ( 'NONE', #381, #245, #6, .T. ) ;
#258 = VERTEX_POINT ( 'NONE', #519 ) ;
#259 = DIRECTION ( 'NONE',  ( 1.000000000000000000, 0.000000000000000000, 0.000000000000000000 ) ) ;
#260 = ORIENTED_EDGE ( 'NONE', *, *, #170, .F. ) ;
#261 = VECTOR ( 'NONE', #438, 1000.000000000000000 ) ;
#262 = AXIS2_PLACEMENT_3D ( 'NONE', #295, #420, #465 ) ;
#263 = PERSON_AND_ORGANIZATION_ROLE ( 'design_owner' ) ;
#264 = CARTESIAN_POINT ( 'NONE',  ( 1.268411506570323866, 1.587500000000000355, -151.5109999999999957 ) ) ;
#265 = ORIENTED_EDGE ( 'NONE', *, *, #133, .F. ) ;
#266 = ORIENTED_EDGE ( 'NONE', *, *, #413, .F. ) ;
#267 = PLANE ( 'NONE',  #283 ) ;
#268 = ORIENTED_EDGE ( 'NONE', *, *, #414, .T. ) ;
#269 = AXIS2_PLACEMENT_3D ( 'NONE', #378, #553, #514 ) ;
#270 = DIRECTION ( 'NONE',  ( 0.000000000000000000, 0.000000000000000000, 1.000000000000000000 ) ) ;
#271 = ADVANCED_FACE ( 'NONE', ( #128 ), #267, .F. ) ;
#272 = ORIENTED_EDGE ( 'NONE', *, *, #347, .F. ) ;
#273 = ADVANCED_FACE ( 'NONE', ( #541 ), #484, .T. ) ;
#274 = PLANE ( 'NONE',  #561 ) ;
#275 = APPROVAL_STATUS ( 'not_yet_approved' ) ;
#276 = ORIENTED_EDGE ( 'NONE', *, *, #372, .F. ) ;
#277 = B_SPLINE_CURVE_WITH_KNOTS ( 'NONE', 3,
 ( #58, #237, #141, #410, #25, #362, #538, #101 ),
 .UNSPECIFIED., .F., .F.,
 ( 4, 2, 2, 4 ),
 ( 0.01485345774306963233, 0.01548583974386928859, 0.01611822174466894658, 0.01738298574626825910 ),
 .UNSPECIFIED. ) ;
#278 = DIRECTION ( 'NONE',  ( 0.000000000000000000, -0.000000000000000000, 1.000000000000000000 ) ) ;
#279 = APPROVAL_DATE_TIME ( #458, #137 ) ;
#280 = CARTESIAN_POINT ( 'NONE',  ( -0.8571092511719571316, 1.587500000000000355, -151.4622737970627782 ) ) ;
#281 = ADVANCED_FACE ( 'NONE', ( #373 ), #282, .F. ) ;
#282 = PLANE ( 'NONE',  #104 ) ;
#283 = AXIS2_PLACEMENT_3D ( 'NONE', #146, #322, #61 ) ;
#284 = APPROVAL_PERSON_ORGANIZATION ( #446, #440, #442 ) ;
#285 = VERTEX_POINT ( 'NONE', #547 ) ;
#286 = DIRECTION ( 'NONE',  ( 0.000000000000000000, 0.000000000000000000, -1.000000000000000000 ) ) ;
#287 = DIRECTION ( 'NONE',  ( 0.000000000000000000, 0.000000000000000000, -1.000000000000000000 ) ) ;
#288 = CARTESIAN_POINT ( 'NONE',  ( -1.587500000000000355, 1.944126793646423534E-16, -151.4832273616928546 ) ) ;
#289 = CARTESIAN_POINT ( 'NONE',  ( -1.587500000000000577, -0.8514389605504963932, 151.4413675157792341 ) ) ;
#290 = CARTESIAN_POINT ( 'NONE',  ( -1.245064030267288402, 2.006622987633881735E-16, -151.5109999999999957 ) ) ;
#291 = CIRCLE ( 'NONE', #512, 2.032000000000000028 ) ;
#292 = LINE ( 'NONE', #29, #18 ) ;
#293 = CC_DESIGN_APPROVAL ( #440, ( #403 ) ) ;
#294 = FACE_OUTER_BOUND ( 'NONE', #456, .T. ) ;
#295 = CARTESIAN_POINT ( 'NONE',  ( -1.245064030267288402, 1.524763679400337895E-16, -149.3860000000000241 ) ) ;
#296 = ORIENTED_EDGE ( 'NONE', *, *, #372, .T. ) ;
#297 = EDGE_CURVE ( 'NONE', #509, #402, #425, .T. ) ;
#298 = FACE_OUTER_BOUND ( 'NONE', #134, .T. ) ;
#299 = DIRECTION ( 'NONE',  ( 1.000000000000000000, 1.224646799147353207E-16, 0.000000000000000000 ) ) ;
#300 = B_SPLINE_CURVE_WITH_KNOTS ( 'NONE', 3,
 ( #540, #195, #419, #239, #361, #200 ),
 .UNSPECIFIED., .F., .F.,
 ( 4, 2, 4 ),
 ( 1.905938025164282062E-19, 0.0006365870327257436463, 0.001273174065451487076 ),
 .UNSPECIFIED. ) ;
#301 = AXIS2_PLACEMENT_3D ( 'NONE', #470, #551, #336 ) ;
#302 = VERTEX_POINT ( 'NONE', #154 ) ;
#303 = LINE ( 'NONE', #85, #75 ) ;
#304 = CARTESIAN_POINT ( 'NONE',  ( 1.268411506570323866, 1.587500000000000355, -151.3599191420979935 ) ) ;
#305 = ORIENTED_EDGE ( 'NONE', *, *, #234, .T. ) ;
#306 = CARTESIAN_POINT ( 'NONE',  ( 1.587500000000000355, 0.000000000000000000, 151.4832273616928546 ) ) ;
#307 = APPLICATION_PROTOCOL_DEFINITION ( 'international standard', 'config_control_design', 1994, #479 ) ;
#308 = ORIENTED_EDGE ( 'NONE', *, *, #196, .T. ) ;
#309 = AXIS2_PLACEMENT_3D ( 'NONE', #497, #459, #417 ) ;
#310 = APPROVAL_STATUS ( 'not_yet_approved' ) ;
#311 = ORIENTED_EDGE ( 'NONE', *, *, #133, .T. ) ;
#312 = DIRECTION ( 'NONE',  ( 0.000000000000000000, -0.000000000000000000, -1.000000000000000000 ) ) ;
#313 = ORIENTED_EDGE ( 'NONE', *, *, #176, .T. ) ;
#314 = EDGE_CURVE ( 'NONE', #140, #17, #51, .T. ) ;
#315 = CARTESIAN_POINT ( 'NONE',  ( -0.2043756380772867032, 1.587500000000000133, 151.4834096189638046 ) ) ;
#316 = ORIENTED_EDGE ( 'NONE', *, *, #355, .T. ) ;
#317 = AXIS2_PLACEMENT_3D ( 'NONE', #106, #360, #65 ) ;
#318 = EDGE_LOOP ( 'NONE', ( #149, #443, #426, #5, #203, #430 ) ) ;
#319 = LINE ( 'NONE', #189, #9 ) ;
#320 = CARTESIAN_POINT ( 'NONE',  ( 0.2043756380772863979, 1.587500000000000133, -151.4834096189638046 ) ) ;
#321 = CC_DESIGN_PERSON_AND_ORGANIZATION_ASSIGNMENT ( #199, #333, ( #403 ) ) ;
#322 = DIRECTION ( 'NONE',  ( 1.000000000000000000, 0.000000000000000000, 0.000000000000000000 ) ) ;
#323 = DIRECTION ( 'NONE',  ( 0.000000000000000000, -1.000000000000000000, 0.000000000000000000 ) ) ;
#324 = PERSON ( 'UNSPECIFIED', 'UNSPECIFIED', 'UNSPECIFIED', ('UNSPECIFIED'), ('UNSPECIFIED'), ('UNSPECIFIED') ) ;
#325 = AXIS2_PLACEMENT_3D ( 'NONE', #404, #451, #500 ) ;
#326 = FACE_OUTER_BOUND ( 'NONE', #476, .T. ) ;
#327 = CARTESIAN_POINT ( 'NONE',  ( -1.268411506570323866, 1.587500000000000355, 151.3599191420979935 ) ) ;
#328 = CARTESIAN_POINT ( 'NONE',  ( -1.587500000000000355, -1.944126793646423534E-16, 151.4832273616928546 ) ) ;
#329 = PERSON_AND_ORGANIZATION_ROLE ( 'creator' ) ;
#330 = DIRECTION ( 'NONE',  ( 1.000000000000000000, 0.000000000000000000, 0.000000000000000000 ) ) ;
#331 = CARTESIAN_POINT ( 'NONE',  ( -1.587500000000000577, 0.8514389605504963932, -151.4413675157792341 ) ) ;
#332 = EDGE_CURVE ( 'NONE', #11, #521, #453, .T. ) ;
#333 = PERSON_AND_ORGANIZATION_ROLE ( 'classification_officer' ) ;
#334 = ORIENTED_EDGE ( 'NONE', *, *, #176, .F. ) ;
#335 = CARTESIAN_POINT ( 'NONE',  ( 1.587500000000000355, 1.061392899157111325, -151.4114367738516478 ) ) ;
#336 = DIRECTION ( 'NONE',  ( 1.000000000000000000, 0.000000000000000000, 0.000000000000000000 ) ) ;
#337 = DIRECTION ( 'NONE',  ( 1.000000000000000000, 0.000000000000000000, 0.000000000000000000 ) ) ;
#338 = CARTESIAN_POINT ( 'NONE',  ( -1.268411506570323866, 1.587500000000000355, 151.3599191420979935 ) ) ;
#339 = EDGE_LOOP ( 'NONE', ( #90, #316, #266, #10 ) ) ;
#340 = CARTESIAN_POINT ( 'NONE',  ( 1.587500000000000355, 1.268411506570323866, 151.3599191420979935 ) ) ;
#341 = CARTESIAN_POINT ( 'NONE',  ( -1.245064030267288402, -1.524763679400337895E-16, 149.3860000000000241 ) ) ;
#342 = EDGE_LOOP ( 'NONE', ( #515, #359, #57, #334, #94, #54, #180, #168 ) ) ;
#343 = CARTESIAN_POINT ( 'NONE',  ( -1.587500000000000355, 1.587500000000000355, 151.5109999999999957 ) ) ;
#344 = DIRECTION ( 'NONE',  ( -1.000000000000000000, 0.000000000000000000, -0.000000000000000000 ) ) ;
#345 = CIRCLE ( 'NONE', #325, 1.245064030267288402 ) ;
#346 = ORIENTED_EDGE ( 'NONE', *, *, #371, .F. ) ;
#347 = EDGE_CURVE ( 'NONE', #464, #385, #95, .T. ) ;
#348 = APPLICATION_PROTOCOL_DEFINITION ( 'international standard', 'config_control_design', 1994, #508 ) ;
#349 = B_SPLINE_CURVE_WITH_KNOTS ( 'NONE', 3,
 ( #256, #166, #502, #382, #250, #555 ),
 .UNSPECIFIED., .F., .F.,
 ( 4, 2, 4 ),
 ( 0.01485345774306963233, 0.01548163471194320337, 0.01610981168081677267 ),
 .UNSPECIFIED. ) ;
#350 = ORIENTED_EDGE ( 'NONE', *, *, #531, .F. ) ;
#351 = AXIS2_PLACEMENT_3D ( 'NONE', #69, #323, #287 ) ;
#352 = LOCAL_TIME ( 15, 3, 19.00000000000000000, #194 ) ;
#353 = CARTESIAN_POINT ( 'NONE',  ( -1.587500000000000355, 1.268411506570325642, 151.3599191420979935 ) ) ;
#354 = ORIENTED_EDGE ( 'NONE', *, *, #80, .T. ) ;
#355 = EDGE_CURVE ( 'NONE', #223, #140, #277, .T. ) ;
#356 = DIRECTION ( 'NONE',  ( 0.000000000000000000, 0.000000000000000000, -1.000000000000000000 ) ) ;
#357 = VERTEX_POINT ( 'NONE', #197 ) ;
#358 = CARTESIAN_POINT ( 'NONE',  ( -1.587500000000000133, 0.2143109880596215933, 151.4832273616928831 ) ) ;
#359 = ORIENTED_EDGE ( 'NONE', *, *, #513, .T. ) ;
#360 = DIRECTION ( 'NONE',  ( -0.000000000000000000, -0.000000000000000000, 1.000000000000000000 ) ) ;
#361 = CARTESIAN_POINT ( 'NONE',  ( -1.587500000000000355, -1.061392899157111325, -151.4114367738516478 ) ) ;
#362 = CARTESIAN_POINT ( 'NONE',  ( 0.4342314039556059435, -1.587500000000000355, -151.4828517174431965 ) ) ;
#363 = CALENDAR_DATE ( 2022, 6, 6 ) ;
#364 = CARTESIAN_POINT ( 'NONE',  ( 0.000000000000000000, 0.000000000000000000, -151.5109999999999957 ) ) ;
#365 = CARTESIAN_POINT ( 'NONE',  ( 1.587500000000000133, -1.061532360077857451, -151.4114020682935973 ) ) ;
#366 = CYLINDRICAL_SURFACE ( 'NONE', #138, 2.032000000000000028 ) ;
#367 = CC_DESIGN_DATE_AND_TIME_ASSIGNMENT ( #68, #411, ( #403 ) ) ;
#368 = CLOSED_SHELL ( 'NONE', ( #379, #151, #271, #281, #226, #550, #273, #495, #172, #485, #444, #472, #30, #53 ) ) ;
#369 = CARTESIAN_POINT ( 'NONE',  ( 1.587500000000000355, -1.268411506570323866, -151.3599191420979935 ) ) ;
#370 = CARTESIAN_POINT ( 'NONE',  ( 1.060147506033618736, 1.587500000000000133, -151.4117466962551646 ) ) ;
#371 = EDGE_CURVE ( 'NONE', #357, #383, #345, .T. ) ;
#372 = EDGE_CURVE ( 'NONE', #17, #258, #217, .T. ) ;
#373 = FACE_OUTER_BOUND ( 'NONE', #339, .T. ) ;
#374 = LINE ( 'NONE', #537, #169 ) ;
#375 = DIRECTION ( 'NONE',  ( 0.000000000000000000, 0.000000000000000000, -1.000000000000000000 ) ) ;
#376 = CARTESIAN_POINT ( 'NONE',  ( 1.268411506570323866, -1.587500000000000355, 151.3599191420979935 ) ) ;
#377 = CIRCLE ( 'NONE', #387, 2.124999999999988898 ) ;
#378 = CARTESIAN_POINT ( 'NONE',  ( 0.000000000000000000, 0.000000000000000000, -151.3599191420979935 ) ) ;
#379 = ADVANCED_FACE ( 'NONE', ( #326 ), #213, .T. ) ;
#380 = APPROVAL_PERSON_ORGANIZATION ( #522, #489, #434 ) ;
#381 = VERTEX_POINT ( 'NONE', #328 ) ;
#382 = CARTESIAN_POINT ( 'NONE',  ( 1.587500000000000355, 0.4276219574846481519, 151.4769963920001032 ) ) ;
#383 = VERTEX_POINT ( 'NONE', #496 ) ;
#384 = PLANE ( 'NONE',  #450 ) ;
#385 = VERTEX_POINT ( 'NONE', #185 ) ;
#386 = CARTESIAN_POINT ( 'NONE',  ( 1.245064030267288402, 0.000000000000000000, 149.3860000000000241 ) ) ;
#387 = AXIS2_PLACEMENT_3D ( 'NONE', #341, #207, #299 ) ;
#388 = LOCAL_TIME ( 15, 3, 19.00000000000000000, #49 ) ;
#389 = EDGE_CURVE ( 'NONE', #163, #532, #291, .T. ) ;
#390 = CARTESIAN_POINT ( 'NONE',  ( -1.268411506570323866, -1.587500000000000355, -151.3599191420979935 ) ) ;
#391 = EDGE_LOOP ( 'NONE', ( #248, #296, #268, #483, #83, #506 ) ) ;
#392 =( LENGTH_UNIT ( ) NAMED_UNIT ( * ) SI_UNIT ( .MILLI., .METRE. ) );
#393 = CARTESIAN_POINT ( 'NONE',  ( -1.268411506570323866, -1.587500000000000355, -151.5109999999999957 ) ) ;
#394 = ORIENTED_EDGE ( 'NONE', *, *, #80, .F. ) ;
#395 = AXIS2_PLACEMENT_3D ( 'NONE', #121, #116, #337 ) ;
#396 = LINE ( 'NONE', #264, #493 ) ;
#397 = B_SPLINE_CURVE_WITH_KNOTS ( 'NONE', 3,
 ( #306, #125, #40, #158, #559, #504 ),
 .UNSPECIFIED., .F., .F.,
 ( 4, 2, 4 ),
 ( 0.000000000000000000, 0.0006365870327257444053, 0.001273174065451488811 ),
 .UNSPECIFIED. ) ;
#398 = ORIENTED_EDGE ( 'NONE', *, *, #127, .T. ) ;
#399 = CARTESIAN_POINT ( 'NONE',  ( 0.000000000000000000, 0.000000000000000000, 151.3599191420979935 ) ) ;
#400 = ORIENTED_EDGE ( 'NONE', *, *, #531, .T. ) ;
#401 = PRODUCT_DEFINITION ( 'UNKNOWN', '', #534, #241 ) ;
#402 = VERTEX_POINT ( 'NONE', #288 ) ;
#403 = SECURITY_CLASSIFICATION ( '', '', #16 ) ;
#404 = CARTESIAN_POINT ( 'NONE',  ( 0.000000000000000000, 0.000000000000000000, 151.5109999999999957 ) ) ;
#405 = PERSON_AND_ORGANIZATION ( #324, #214 ) ;
#406 = CARTESIAN_POINT ( 'NONE',  ( 1.587500000000000355, -1.268411506570323866, -151.3599191420979935 ) ) ;
#407 = CARTESIAN_POINT ( 'NONE',  ( -1.587500000000000355, 0.2114796877013868925, -151.4832273616928546 ) ) ;
#408 = PRODUCT ( '228-2500-269', '228-2500-269', '', ( #175 ) ) ;
#409 = ORIENTED_EDGE ( 'NONE', *, *, #557, .T. ) ;
#410 = CARTESIAN_POINT ( 'NONE',  ( -0.4219230645619487241, -1.587500000000000577, -151.4773073035536584 ) ) ;
#411 = DATE_TIME_ROLE ( 'classification_date' ) ;
#412 = VERTEX_POINT ( 'NONE', #535 ) ;
#413 = EDGE_CURVE ( 'NONE', #437, #140, #319, .T. ) ;
#414 = EDGE_CURVE ( 'NONE', #258, #302, #46, .T. ) ;
#415 = DIRECTION ( 'NONE',  ( 0.000000000000000000, 0.000000000000000000, -1.000000000000000000 ) ) ;
#416 = APPROVAL_STATUS ( 'not_yet_approved' ) ;
#417 = DIRECTION ( 'NONE',  ( 1.000000000000000000, 0.000000000000000000, 0.000000000000000000 ) ) ;
#418 = CARTESIAN_POINT ( 'NONE',  ( 1.268411506570323866, -1.587500000000000355, 151.3599191420979935 ) ) ;
#419 = CARTESIAN_POINT ( 'NONE',  ( -1.587500000000000577, -0.4277385810629871221, -151.4769865435831662 ) ) ;
#420 = DIRECTION ( 'NONE',  ( 1.224646799147353207E-16, 1.000000000000000000, 0.000000000000000000 ) ) ;
#421 = CARTESIAN_POINT ( 'NONE',  ( 1.268411506570325642, 1.587500000000000355, 151.3599191420979935 ) ) ;
#422 = CARTESIAN_POINT ( 'NONE',  ( -1.268411506570323866, 1.587500000000000355, -151.3599191420979935 ) ) ;
#423 = CIRCLE ( 'NONE', #494, 2.124999999999988010 ) ;
#424 = CARTESIAN_POINT ( 'NONE',  ( -1.587500000000000355, -1.268411506570323866, 151.3599191420979935 ) ) ;
#425 = B_SPLINE_CURVE_WITH_KNOTS ( 'NONE', 3,
 ( #490, #15, #331, #23, #407, #230 ),
 .UNSPECIFIED., .F., .F.,
 ( 4, 2, 4 ),
 ( 0.01485345774306963233, 0.01548163471194320337, 0.01610981168081677267 ),
 .UNSPECIFIED. ) ;
#426 = ORIENTED_EDGE ( 'NONE', *, *, #93, .T. ) ;
#427 = CARTESIAN_POINT ( 'NONE',  ( 0.8486262390323816573, -1.587500000000000133, 151.4417688228239172 ) ) ;
#428 = FACE_OUTER_BOUND ( 'NONE', #79, .T. ) ;
#429 = CIRCLE ( 'NONE', #43, 2.032000000000000028 ) ;
#430 = ORIENTED_EDGE ( 'NONE', *, *, #257, .T. ) ;
#431 = CARTESIAN_POINT ( 'NONE',  ( 0.000000000000000000, 0.000000000000000000, 0.000000000000000000 ) ) ;
#432 = LINE ( 'NONE', #393, #261 ) ;
#433 = ORIENTED_EDGE ( 'NONE', *, *, #332, .F. ) ;
#434 = APPROVAL_ROLE ( '' ) ;
#435 = EDGE_CURVE ( 'NONE', #383, #412, #423, .T. ) ;
#436 = ORIENTED_EDGE ( 'NONE', *, *, #210, .F. ) ;
#437 = VERTEX_POINT ( 'NONE', #418 ) ;
#438 = DIRECTION ( 'NONE',  ( -0.000000000000000000, -0.000000000000000000, 1.000000000000000000 ) ) ;
#439 = ORIENTED_EDGE ( 'NONE', *, *, #143, .T. ) ;
#440 = APPROVAL ( #275, 'UNSPECIFIED' ) ;
#441 = CARTESIAN_POINT ( 'NONE',  ( 1.587500000000000355, -0.4276219574846481519, -151.4769963920001032 ) ) ;
#442 = APPROVAL_ROLE ( '' ) ;
#443 = ORIENTED_EDGE ( 'NONE', *, *, #297, .T. ) ;
#444 = ADVANCED_FACE ( 'NONE', ( #463 ), #468, .T. ) ;
#445 = CARTESIAN_POINT ( 'NONE',  ( 0.000000000000000000, 0.000000000000000000, -149.3860000000000241 ) ) ;
#446 = PERSON_AND_ORGANIZATION ( #324, #214 ) ;
#447 = CARTESIAN_POINT ( 'NONE',  ( -1.268411506570323866, 1.587500000000000355, -151.3599191420979935 ) ) ;
#448 = CIRCLE ( 'NONE', #269, 2.032000000000000028 ) ;
#449 = B_SPLINE_CURVE_WITH_KNOTS ( 'NONE', 3,
 ( #376, #560, #427, #549, #78, #206, #42, #171 ),
 .UNSPECIFIED., .F., .F.,
 ( 4, 2, 2, 4 ),
 ( 0.01485345774306963233, 0.01548583974386929032, 0.01611822174466894658, 0.01738298574626826257 ),
 .UNSPECIFIED. ) ;
#450 = AXIS2_PLACEMENT_3D ( 'NONE', #343, #218, #312 ) ;
#451 = DIRECTION ( 'NONE',  ( -0.000000000000000000, -0.000000000000000000, 1.000000000000000000 ) ) ;
#452 = CARTESIAN_POINT ( 'NONE',  ( -1.587500000000000355, -0.2114796877013868925, 151.4832273616928546 ) ) ;
#453 = LINE ( 'NONE', #113, #8 ) ;
#454 = EDGE_CURVE ( 'NONE', #532, #302, #303, .T. ) ;
#455 = CALENDAR_DATE ( 2022, 6, 6 ) ;
#456 = EDGE_LOOP ( 'NONE', ( #354, #486 ) ) ;
#457 = DIRECTION ( 'NONE',  ( 0.000000000000000000, 1.000000000000000000, 0.000000000000000000 ) ) ;
#458 = DATE_AND_TIME ( #455, #139 ) ;
#459 = DIRECTION ( 'NONE',  ( -0.000000000000000000, -0.000000000000000000, 1.000000000000000000 ) ) ;
#460 = AXIS2_PLACEMENT_3D ( 'NONE', #445, #152, #233 ) ;
#461 = CARTESIAN_POINT ( 'NONE',  ( 0.000000000000000000, 0.000000000000000000, -151.5109999999999957 ) ) ;
#462 = FACE_OUTER_BOUND ( 'NONE', #174, .T. ) ;
#463 = FACE_OUTER_BOUND ( 'NONE', #118, .T. ) ;
#464 = VERTEX_POINT ( 'NONE', #290 ) ;
#465 = DIRECTION ( 'NONE',  ( -1.000000000000000000, 1.224646799147353207E-16, 0.000000000000000000 ) ) ;
#466 = CARTESIAN_POINT ( 'NONE',  ( -0.8486262390323816573, 1.587500000000000133, 151.4417688228239172 ) ) ;
#467 = EDGE_LOOP ( 'NONE', ( #35, #50, #188, #276, #556, #59, #265, #129 ) ) ;
#468 = CYLINDRICAL_SURFACE ( 'NONE', #161, 2.032000000000000028 ) ;
#469 =( GEOMETRIC_REPRESENTATION_CONTEXT ( 3 ) GLOBAL_UNCERTAINTY_ASSIGNED_CONTEXT ( ( #142 ) ) GLOBAL_UNIT_ASSIGNED_CONTEXT ( ( #392, #474, #4 ) ) REPRESENTATION_CONTEXT ( 'NONE', 'WORKASPACE' ) );
#470 = CARTESIAN_POINT ( 'NONE',  ( 0.000000000000000000, 0.000000000000000000, -149.3860000000000241 ) ) ;
#471 = CARTESIAN_POINT ( 'NONE',  ( -1.060147506033618292, 1.587500000000000133, 151.4117466962551646 ) ) ;
#472 = ADVANCED_FACE ( 'NONE', ( #428 ), #511, .T. ) ;
#473 = EDGE_CURVE ( 'NONE', #437, #478, #449, .T. ) ;
#474 =( NAMED_UNIT ( * ) PLANE_ANGLE_UNIT ( ) SI_UNIT ( $, .RADIAN. ) );
#475 = PERSON_AND_ORGANIZATION ( #324, #214 ) ;
#476 = EDGE_LOOP ( 'NONE', ( #346, #439, #48, #350, #254, #436, #260, #182 ) ) ;
#477 = CARTESIAN_POINT ( 'NONE',  ( 0.000000000000000000, 0.000000000000000000, -151.3599191420979935 ) ) ;
#478 = VERTEX_POINT ( 'NONE', #201 ) ;
#479 = APPLICATION_CONTEXT ( 'configuration controlled 3d designs of mechanical parts and assemblies' ) ;
#480 = CARTESIAN_POINT ( 'NONE',  ( -1.587500000000000355, 1.268411506570325642, 151.3599191420979935 ) ) ;
#481 = ORIENTED_EDGE ( 'NONE', *, *, #74, .T. ) ;
#482 = DIRECTION ( 'NONE',  ( -1.000000000000000000, 0.000000000000000000, 0.000000000000000000 ) ) ;
#483 = ORIENTED_EDGE ( 'NONE', *, *, #454, .F. ) ;
#484 = TOROIDAL_SURFACE ( 'NONE', #460, 1.245064030267288402, 2.124999999999988898 ) ;
#485 = ADVANCED_FACE ( 'NONE', ( #294 ), #124, .F. ) ;
#486 = ORIENTED_EDGE ( 'NONE', *, *, #371, .T. ) ;
#487 = CALENDAR_DATE ( 2022, 6, 6 ) ;
#488 = CARTESIAN_POINT ( 'NONE',  ( -1.587500000000000355, -1.944126793646423534E-16, 151.4832273616928546 ) ) ;
#489 = APPROVAL ( #310, 'UNSPECIFIED' ) ;
#490 = CARTESIAN_POINT ( 'NONE',  ( -1.587500000000000355, 1.268411506570323866, -151.3599191420979935 ) ) ;
#491 = COORDINATED_UNIVERSAL_TIME_OFFSET ( 6, 0, .BEHIND. ) ;
#492 = CARTESIAN_POINT ( 'NONE',  ( 0.000000000000000000, 0.000000000000000000, -151.3599191420979935 ) ) ;
#493 = VECTOR ( 'NONE', #179, 1000.000000000000000 ) ;
#494 = AXIS2_PLACEMENT_3D ( 'NONE', #386, #119, #86 ) ;
#495 = ADVANCED_FACE ( 'NONE', ( #298 ), #131, .T. ) ;
#496 = CARTESIAN_POINT ( 'NONE',  ( 1.245064030267288402, 0.000000000000000000, 151.5109999999999957 ) ) ;
#497 = CARTESIAN_POINT ( 'NONE',  ( 0.000000000000000000, 0.000000000000000000, 151.5109999999999957 ) ) ;
#498 = CARTESIAN_POINT ( 'NONE',  ( -1.587500000000000355, -1.587500000000000355, 151.5109999999999957 ) ) ;
#499 = DIRECTION ( 'NONE',  ( -0.000000000000000000, -0.000000000000000000, 1.000000000000000000 ) ) ;
#500 = DIRECTION ( 'NONE',  ( 1.000000000000000000, 0.000000000000000000, 0.000000000000000000 ) ) ;
#501 = DIRECTION ( 'NONE',  ( -0.000000000000000000, -0.000000000000000000, 1.000000000000000000 ) ) ;
#502 = CARTESIAN_POINT ( 'NONE',  ( 1.587500000000000577, 0.8514389605504963932, 151.4413675157792341 ) ) ;
#503 = ADVANCED_BREP_SHAPE_REPRESENTATION ( '228-2500-269', ( #183, #64 ), #469 ) ;
#504 = CARTESIAN_POINT ( 'NONE',  ( 1.587500000000000355, -1.268411506570325642, 151.3599191420979935 ) ) ;
#505 = CARTESIAN_POINT ( 'NONE',  ( -1.587500000000000355, 1.268411506570323866, -151.3599191420979935 ) ) ;
#506 = ORIENTED_EDGE ( 'NONE', *, *, #170, .T. ) ;
#507 = FACE_OUTER_BOUND ( 'NONE', #178, .T. ) ;
#508 = APPLICATION_CONTEXT ( 'configuration controlled 3d designs of mechanical parts and assemblies' ) ;
#509 = VERTEX_POINT ( 'NONE', #505 ) ;
#510 = EDGE_CURVE ( 'NONE', #532, #412, #349, .T. ) ;
#511 = CYLINDRICAL_SURFACE ( 'NONE', #89, 2.032000000000000028 ) ;
#512 = AXIS2_PLACEMENT_3D ( 'NONE', #70, #286, #109 ) ;
#513 = EDGE_CURVE ( 'NONE', #464, #402, #255, .T. ) ;
#514 = DIRECTION ( 'NONE',  ( 1.000000000000000000, 0.000000000000000000, 0.000000000000000000 ) ) ;
#515 = ORIENTED_EDGE ( 'NONE', *, *, #249, .T. ) ;
#516 = CARTESIAN_POINT ( 'NONE',  ( 1.587500000000000577, 0.4277385810629867335, -151.4769865435831662 ) ) ;
#517 = PRODUCT_DEFINITION_SHAPE ( 'NONE', 'NONE',  #401 ) ;
#518 = DIRECTION ( 'NONE',  ( 0.000000000000000000, 0.000000000000000000, 1.000000000000000000 ) ) ;
#519 = CARTESIAN_POINT ( 'NONE',  ( 1.587500000000000355, 0.000000000000000000, -151.4832273616928546 ) ) ;
#520 = CC_DESIGN_PERSON_AND_ORGANIZATION_ASSIGNMENT ( #475, #263, ( #408 ) ) ;
#521 = VERTEX_POINT ( 'NONE', #422 ) ;
#522 = PERSON_AND_ORGANIZATION ( #324, #214 ) ;
#523 = ORIENTED_EDGE ( 'NONE', *, *, #510, .F. ) ;
#524 = LOCAL_TIME ( 15, 3, 19.00000000000000000, #97 ) ;
#525 = CARTESIAN_POINT ( 'NONE',  ( 0.8571092511719601292, 1.587500000000000577, 151.4622737970628066 ) ) ;
#526 = ORIENTED_EDGE ( 'NONE', *, *, #413, .T. ) ;
#527 = CC_DESIGN_PERSON_AND_ORGANIZATION_ASSIGNMENT ( #228, #187, ( #534 ) ) ;
#528 = FACE_OUTER_BOUND ( 'NONE', #391, .T. ) ;
#529 = ORIENTED_EDGE ( 'NONE', *, *, #257, .F. ) ;
#530 = CARTESIAN_POINT ( 'NONE',  ( -1.587500000000000355, 0.8513200635100163227, 151.4413775553180983 ) ) ;
#531 = EDGE_CURVE ( 'NONE', #478, #136, #52, .T. ) ;
#532 = VERTEX_POINT ( 'NONE', #340 ) ;
#533 = AXIS2_PLACEMENT_3D ( 'NONE', #193, #240, #67 ) ;
#534 = PRODUCT_DEFINITION_FORMATION_WITH_SPECIFIED_SOURCE ( 'ANY', '', #408, .NOT_KNOWN. ) ;
#535 = CARTESIAN_POINT ( 'NONE',  ( 1.587500000000000355, 0.000000000000000000, 151.4832273616928546 ) ) ;
#536 = PERSON_AND_ORGANIZATION_ROLE ( 'design_supplier' ) ;
#537 = CARTESIAN_POINT ( 'NONE',  ( -1.587500000000000355, -1.268411506570323866, -151.5109999999999957 ) ) ;
#538 = CARTESIAN_POINT ( 'NONE',  ( 0.8571092511719571316, -1.587500000000000355, -151.4622737970627782 ) ) ;
#539 = DATE_TIME_ROLE ( 'creation_date' ) ;
#540 = CARTESIAN_POINT ( 'NONE',  ( -1.587500000000000355, 1.944126793646423534E-16, -151.4832273616928546 ) ) ;
#541 = FACE_OUTER_BOUND ( 'NONE', #467, .T. ) ;
#542 = APPROVAL_DATE_TIME ( #21, #440 ) ;
#543 = DIRECTION ( 'NONE',  ( 1.000000000000000000, 0.000000000000000000, 0.000000000000000000 ) ) ;
#544 = CIRCLE ( 'NONE', #309, 1.245064030267288402 ) ;
#545 = DIRECTION ( 'NONE',  ( 0.000000000000000000, 0.000000000000000000, -1.000000000000000000 ) ) ;
#546 = CARTESIAN_POINT ( 'NONE',  ( 0.4219230645619487241, 1.587500000000000577, -151.4773073035536584 ) ) ;
#547 = CARTESIAN_POINT ( 'NONE',  ( -1.587500000000000355, -1.268411506570323866, -151.3599191420979935 ) ) ;
#548 = CARTESIAN_POINT ( 'NONE',  ( 1.587500000000000355, -1.268411506570325642, 151.3599191420979935 ) ) ;
#549 = CARTESIAN_POINT ( 'NONE',  ( 0.4219230645619470033, -1.587500000000000355, 151.4773073035536015 ) ) ;
#550 = ADVANCED_FACE ( 'NONE', ( #507 ), #384, .F. ) ;
#551 = DIRECTION ( 'NONE',  ( -0.000000000000000000, -0.000000000000000000, 1.000000000000000000 ) ) ;
#552 = CARTESIAN_POINT ( 'NONE',  ( 1.587500000000000355, 0.000000000000000000, -151.4832273616928546 ) ) ;
#553 = DIRECTION ( 'NONE',  ( -0.000000000000000000, -0.000000000000000000, 1.000000000000000000 ) ) ;
#554 = ORIENTED_EDGE ( 'NONE', *, *, #184, .F. ) ;
#555 = CARTESIAN_POINT ( 'NONE',  ( 1.587500000000000355, 0.000000000000000000, 151.4832273616928546 ) ) ;
#556 = ORIENTED_EDGE ( 'NONE', *, *, #314, .F. ) ;
#557 = EDGE_CURVE ( 'NONE', #302, #177, #37, .T. ) ;
#558 = DIRECTION ( 'NONE',  ( 1.000000000000000000, 0.000000000000000000, 0.000000000000000000 ) ) ;
#559 = CARTESIAN_POINT ( 'NONE',  ( 1.587500000000000355, -1.061392899157112879, 151.4114367738516478 ) ) ;
#560 = CARTESIAN_POINT ( 'NONE',  ( 1.060147506033618292, -1.587500000000000133, 151.4117466962551646 ) ) ;
#561 = AXIS2_PLACEMENT_3D ( 'NONE', #3, #482, #270 ) ;
ENDSEC;
END-ISO-10303-21;
