ISO-10303-21;
HEADER;
FILE_DESCRIPTION (( 'STEP AP214' ),
    '1' );
FILE_NAME ('228-2500-438.STEP',
    '2022-06-13T18:29:33',
    ( '' ),
    ( '' ),
    'SwSTEP 2.0',
    'SolidWorks 2021',
    '' );
FILE_SCHEMA (( 'AUTOMOTIVE_DESIGN' ));
ENDSEC;

DATA;
#1 = ORIENTED_EDGE ( 'NONE', *, *, #893, .T. ) ;
#2 = DIRECTION ( 'NONE',  ( 0.000000000000000000, 0.000000000000000000, 1.000000000000000000 ) ) ;
#3 = EDGE_CURVE ( 'NONE', #890, #280, #292, .T. ) ;
#4 = SURFACE_STYLE_FILL_AREA ( #98 ) ;
#5 =( NAMED_UNIT ( * ) SI_UNIT ( $, .STERADIAN. ) SOLID_ANGLE_UNIT ( ) );
#6 = EDGE_CURVE ( 'NONE', #352, #1064, #173, .T. ) ;
#7 = ORIENTED_EDGE ( 'NONE', *, *, #585, .F. ) ;
#8 = DIRECTION ( 'NONE',  ( 1.000000000000000000, 0.000000000000000000, -0.000000000000000000 ) ) ;
#9 = VECTOR ( 'NONE', #652, 1000.000000000000000 ) ;
#10 = AXIS2_PLACEMENT_3D ( 'NONE', #1103, #216, #673 ) ;
#11 = EDGE_LOOP ( 'NONE', ( #1141, #140, #730, #230 ) ) ;
#12 = EDGE_CURVE ( 'NONE', #779, #163, #648, .T. ) ;
#13 = ORIENTED_EDGE ( 'NONE', *, *, #757, .T. ) ;
#14 = EDGE_CURVE ( 'NONE', #1064, #1036, #655, .T. ) ;
#15 = DIRECTION ( 'NONE',  ( -1.000000000000000000, -0.000000000000000000, -0.000000000000000000 ) ) ;
#16 = AXIS2_PLACEMENT_3D ( 'NONE', #657, #841, #587 ) ;
#17 =( NAMED_UNIT ( * ) SI_UNIT ( $, .STERADIAN. ) SOLID_ANGLE_UNIT ( ) );
#18 = FILL_AREA_STYLE_COLOUR ( '', #236 ) ;
#19 = ORIENTED_EDGE ( 'NONE', *, *, #46, .T. ) ;
#20 = CARTESIAN_POINT ( 'NONE',  ( -0.1021126760563414587, 2.239436619718307320, -1.119718309859154326 ) ) ;
#21 = CIRCLE ( 'NONE', #1011, 2.000000000000000000 ) ;
#22 = CARTESIAN_POINT ( 'NONE',  ( -1.750000000000000444, 3.350000000000000089, -2.286000000000000032 ) ) ;
#23 = DIRECTION ( 'NONE',  ( -0.000000000000000000, -1.000000000000000000, -0.000000000000000000 ) ) ;
#24 = ORIENTED_EDGE ( 'NONE', *, *, #473, .T. ) ;
#25 = EDGE_LOOP ( 'NONE', ( #191, #1117 ) ) ;
#26 = DIRECTION ( 'NONE',  ( -1.000000000000000000, -0.000000000000000000, -0.000000000000000000 ) ) ;
#27 = CIRCLE ( 'NONE', #176, 2.000000000000000000 ) ;
#28 = DIRECTION ( 'NONE',  ( 0.000000000000000000, -1.224646799147353207E-16, -1.000000000000000000 ) ) ;
#29 = CARTESIAN_POINT ( 'NONE',  ( 4.199999999999995737, 2.449293598294706414E-16, -2.000000000000000000 ) ) ;
#30 = DIRECTION ( 'NONE',  ( 0.000000000000000000, -1.000000000000000222, 0.000000000000000000 ) ) ;
#31 = DIRECTION ( 'NONE',  ( 1.000000000000000000, 0.000000000000000000, 0.000000000000000000 ) ) ;
#32 = TOROIDAL_SURFACE ( 'NONE', #902, -8.950628149161543590, 9.900628149161503799 ) ;
#33 = FACE_BOUND ( 'NONE', #929, .T. ) ;
#34 = MANIFOLD_SOLID_BREP ( 'Boss-Extrude1', #1093 ) ;
#35 = FACE_OUTER_BOUND ( 'NONE', #733, .T. ) ;
#36 = FACE_OUTER_BOUND ( 'NONE', #1010, .T. ) ;
#37 = CARTESIAN_POINT ( 'NONE',  ( -146.0500000000000398, 0.000000000000000000, 0.000000000000000000 ) ) ;
#38 = EDGE_LOOP ( 'NONE', ( #972, #1160 ) ) ;
#39 = CYLINDRICAL_SURFACE ( 'NONE', #830, 4.000000000000000000 ) ;
#40 = FILL_AREA_STYLE_COLOUR ( '', #1029 ) ;
#41 = LINE ( 'NONE', #1140, #1114 ) ;
#42 = CONTEXT_DEPENDENT_SHAPE_REPRESENTATION ( #949, #930 ) ;
#43 = ORIENTED_EDGE ( 'NONE', *, *, #430, .F. ) ;
#44 = EDGE_CURVE ( 'NONE', #1047, #348, #478, .T. ) ;
#45 = PRODUCT_DEFINITION_SHAPE ( 'NONE', 'NONE',  #1111 ) ;
#46 = EDGE_CURVE ( 'NONE', #163, #1035, #669, .T. ) ;
#47 = UNCERTAINTY_MEASURE_WITH_UNIT (LENGTH_MEASURE( 1.000000000000000082E-05 ), #979, 'distance_accuracy_value', 'NONE');
#48 = LINE ( 'NONE', #115, #166 ) ;
#49 = CARTESIAN_POINT ( 'NONE',  ( 0.5349933317933824872, 7.481715361024050104, -0.3134931207533580566 ) ) ;
#50 = CARTESIAN_POINT ( 'NONE',  ( 142.9500000000000171, 0.000000000000000000, 0.000000000000000000 ) ) ;
#51 = APPLICATION_PROTOCOL_DEFINITION ( 'draft international standard', 'automotive_design', 1998, #827 ) ;
#52 = ORIENTED_EDGE ( 'NONE', *, *, #44, .T. ) ;
#53 = SHAPE_REPRESENTATION ( '228-2500-438-00 Rev1_228-2500-438-00', ( #861, #782, #835 ), #1068 ) ;
#54 = EDGE_LOOP ( 'NONE', ( #872, #273, #994, #618 ) ) ;
#55 = CARTESIAN_POINT ( 'NONE',  ( 0.5000000000000918154, -2.449293598294627035E-16, -1.999999999999934941 ) ) ;
#56 = VECTOR ( 'NONE', #889, 1000.000000000000000 ) ;
#57 = ADVANCED_FACE ( 'NONE', ( #631 ), #739, .F. ) ;
#58 = DIRECTION ( 'NONE',  ( -1.000000000000000000, -0.000000000000000000, 0.000000000000000000 ) ) ;
#59 = ORIENTED_EDGE ( 'NONE', *, *, #549, .F. ) ;
#60 = ORIENTED_EDGE ( 'NONE', *, *, #893, .F. ) ;
#61 = DIRECTION ( 'NONE',  ( 1.000000000000000000, 0.000000000000000000, 0.000000000000000000 ) ) ;
#62 = CARTESIAN_POINT ( 'NONE',  ( 1.749999999999999112, 3.350000000000000089, -2.286000000000000032 ) ) ;
#63 =( GEOMETRIC_REPRESENTATION_CONTEXT ( 3 ) GLOBAL_UNCERTAINTY_ASSIGNED_CONTEXT ( ( #1149 ) ) GLOBAL_UNIT_ASSIGNED_CONTEXT ( ( #732, #103, #639 ) ) REPRESENTATION_CONTEXT ( 'NONE', 'WORKASPACE' ) );
#64 = PRESENTATION_LAYER_ASSIGNMENT (  '', '', ( #1022 ) ) ;
#65 = DIRECTION ( 'NONE',  ( 1.445602896647339163E-16, 1.000000000000000000, -0.000000000000000000 ) ) ;
#66 =( BOUNDED_SURFACE ( )  B_SPLINE_SURFACE ( 3, 3, ( 
 ( #1084, #283, #274, #651 ),
 ( #1005, #192, #561, #723 ),
 ( #1012, #20, #482, #259 ),
 ( #663, #760, #745, #1025 ) ),
 .UNSPECIFIED., .F., .F., .T. ) 
 B_SPLINE_SURFACE_WITH_KNOTS ( ( 4, 4 ),
 ( 4, 4 ),
 ( 0.000000000000000000, 1.000000000000000000 ),
 ( 0.000000000000000000, 1.000000000000000000 ),
 .UNSPECIFIED. ) 
 GEOMETRIC_REPRESENTATION_ITEM ( )  RATIONAL_B_SPLINE_SURFACE ( (
 ( 1.000000000000000000, 0.3333333333333334259, 0.3333333333333334259, 1.000000000000000000),
 ( 0.8160919540229875091, 0.2720306513409959104, 0.2720306513409959104, 0.8160919540229875091),
 ( 0.8160919540229875091, 0.2720306513409959104, 0.2720306513409959104, 0.8160919540229875091),
 ( 1.000000000000000000, 0.3333333333333334259, 0.3333333333333334259, 1.000000000000000000) ) ) 
 REPRESENTATION_ITEM ( '' )  SURFACE ( )  );
#67 = CARTESIAN_POINT ( 'NONE',  ( -0.1021126760563413477, -3.260563380281691348, -1.630281690140845008 ) ) ;
#68 = EDGE_CURVE ( 'NONE', #186, #774, #411, .T. ) ;
#69 = DIRECTION ( 'NONE',  ( 0.000000000000000000, -0.000000000000000000, 1.000000000000000000 ) ) ;
#70 = MECHANICAL_DESIGN_GEOMETRIC_PRESENTATION_REPRESENTATION (  '', ( #1077 ), #859 ) ;
#71 = DIRECTION ( 'NONE',  ( 1.000000000000000000, 0.000000000000000000, 0.000000000000000000 ) ) ;
#72 = LINE ( 'NONE', #62, #85 ) ;
#73 = AXIS2_PLACEMENT_3D ( 'NONE', #305, #1115, #667 ) ;
#74 = ORIENTED_EDGE ( 'NONE', *, *, #685, .F. ) ;
#75 = EDGE_LOOP ( 'NONE', ( #1060, #596, #463, #235 ) ) ;
#76 = DIRECTION ( 'NONE',  ( 1.445602896647339163E-16, -1.000000000000000000, 0.000000000000000000 ) ) ;
#77 = EDGE_CURVE ( 'NONE', #323, #229, #557, .T. ) ;
#78 = CARTESIAN_POINT ( 'NONE',  ( 0.5000000000000918154, 3.999999999999870326, 1.999999999999934053 ) ) ;
#79 = ORIENTED_EDGE ( 'NONE', *, *, #860, .F. ) ;
#80 = VERTEX_POINT ( 'NONE', #97 ) ;
#81 = DIRECTION ( 'NONE',  ( -1.000000000000000000, 0.000000000000000000, 0.000000000000000000 ) ) ;
#82 = CARTESIAN_POINT ( 'NONE',  ( 0.5000000000000920375, -1.163414459190065062E-16, -0.9500000000000650147 ) ) ;
#83 = CYLINDRICAL_SURFACE ( 'NONE', #383, 2.000000000000000000 ) ;
#84 = CARTESIAN_POINT ( 'NONE',  ( 142.9500000000000171, 7.347880794884117764E-17, -0.5999999999999999778 ) ) ;
#85 = VECTOR ( 'NONE', #522, 1000.000000000000000 ) ;
#86 = DIRECTION ( 'NONE',  ( 0.000000000000000000, 0.000000000000000000, 1.000000000000000000 ) ) ;
#87 = ORIENTED_EDGE ( 'NONE', *, *, #583, .F. ) ;
#88 = CARTESIAN_POINT ( 'NONE',  ( -0.2000000000000057288, 0.000000000000000000, 0.000000000000000000 ) ) ;
#89 = DIRECTION ( 'NONE',  ( -1.000000000000000000, 0.000000000000000000, 0.000000000000000000 ) ) ;
#90 = CARTESIAN_POINT ( 'NONE',  ( 2.999999999999988898, 6.711889074043079042E-15, -8.808942506911560211E-17 ) ) ;
#91 = EDGE_LOOP ( 'NONE', ( #442, #100, #1126, #956 ) ) ;
#92 = AXIS2_PLACEMENT_3D ( 'NONE', #291, #905, #304 ) ;
#93 = DIRECTION ( 'NONE',  ( 1.000000000000000000, 0.000000000000000000, 0.000000000000000000 ) ) ;
#94 = EDGE_CURVE ( 'NONE', #1016, #738, #366, .T. ) ;
#95 = APPLICATION_CONTEXT ( 'automotive_design' ) ;
#96 = ORIENTED_EDGE ( 'NONE', *, *, #707, .T. ) ;
#97 = CARTESIAN_POINT ( 'NONE',  ( 4.000000000000000000, 0.000000000000000000, 2.286000000000000032 ) ) ;
#98 = FILL_AREA_STYLE ('',( #271 ) ) ;
#99 = ORIENTED_EDGE ( 'NONE', *, *, #1000, .F. ) ;
#100 = ORIENTED_EDGE ( 'NONE', *, *, #414, .T. ) ;
#101 = DIRECTION ( 'NONE',  ( 0.000000000000000000, 0.000000000000000000, -1.000000000000000000 ) ) ;
#102 = CARTESIAN_POINT ( 'NONE',  ( 0.2687352311006459549, -3.349207041552663355, 1.674603520776331900 ) ) ;
#103 =( NAMED_UNIT ( * ) PLANE_ANGLE_UNIT ( ) SI_UNIT ( $, .RADIAN. ) );
#104 = DIRECTION ( 'NONE',  ( 1.000000000000000000, 0.000000000000000000, 0.000000000000000000 ) ) ;
#105 = EDGE_LOOP ( 'NONE', ( #600, #857, #513, #13 ) ) ;
#106 = CARTESIAN_POINT ( 'NONE',  ( 1.749999999999999112, 3.350000000000000089, -2.286000000000000032 ) ) ;
#107 = AXIS2_PLACEMENT_3D ( 'NONE', #168, #882, #69 ) ;
#108 = PLANE ( 'NONE',  #672 ) ;
#109 = ADVANCED_BREP_SHAPE_REPRESENTATION ( '', ( #821, #1158 ), #966 ) ;
#110 = CARTESIAN_POINT ( 'NONE',  ( -4.000000000000000000, 0.000000000000000000, 2.286000000000000032 ) ) ;
#111 = PRODUCT_CONTEXT ( 'NONE', #1004, 'mechanical' ) ;
#112 = SURFACE_STYLE_FILL_AREA ( #912 ) ;
#113 = PRESENTATION_STYLE_ASSIGNMENT (( #133 ) ) ;
#114 =( GEOMETRIC_REPRESENTATION_CONTEXT ( 3 ) GLOBAL_UNCERTAINTY_ASSIGNED_CONTEXT ( ( #245 ) ) GLOBAL_UNIT_ASSIGNED_CONTEXT ( ( #393, #935, #5 ) ) REPRESENTATION_CONTEXT ( 'NONE', 'WORKASPACE' ) );
#115 = CARTESIAN_POINT ( 'NONE',  ( -1.750000000000000666, 4.850000000000000533, -2.286000000000000032 ) ) ;
#116 = DIRECTION ( 'NONE',  ( 0.000000000000000000, 1.000000000000000000, -1.224646799147353207E-16 ) ) ;
#117 = CARTESIAN_POINT ( 'NONE',  ( -0.2000000000000057288, 9.184850993605149670E-17, 0.7500000000000000000 ) ) ;
#118 = AXIS2_PLACEMENT_3D ( 'NONE', #374, #277, #194 ) ;
#119 = FACE_BOUND ( 'NONE', #441, .T. ) ;
#120 = ADVANCED_FACE ( 'NONE', ( #177, #547, #643 ), #997, .T. ) ;
#121 = CARTESIAN_POINT ( 'NONE',  ( 4.000000000000003553, 0.000000000000000000, 0.000000000000000000 ) ) ;
#122 = PLANE ( 'NONE',  #758 ) ;
#123 =( NAMED_UNIT ( * ) SI_UNIT ( $, .STERADIAN. ) SOLID_ANGLE_UNIT ( ) );
#124 = ORIENTED_EDGE ( 'NONE', *, *, #226, .T. ) ;
#125 = FACE_OUTER_BOUND ( 'NONE', #717, .T. ) ;
#126 = CARTESIAN_POINT ( 'NONE',  ( 0.2499999999999987232, -1.499999999999996447, 0.7499999999999986677 ) ) ;
#127 = DIRECTION ( 'NONE',  ( 0.000000000000000000, 0.000000000000000000, 1.000000000000000000 ) ) ;
#128 = VECTOR ( 'NONE', #876, 1000.000000000000000 ) ;
#129 = DIRECTION ( 'NONE',  ( 0.000000000000000000, 0.000000000000000000, 1.000000000000000000 ) ) ;
#130 = STYLED_ITEM ( 'NONE', ( #113 ), #604 ) ;
#131 = ORIENTED_EDGE ( 'NONE', *, *, #796, .T. ) ;
#132 = ADVANCED_FACE ( 'NONE', ( #903 ), #992, .F. ) ;
#133 = SURFACE_STYLE_USAGE ( .BOTH. , #1101 ) ;
#134 = ORIENTED_EDGE ( 'NONE', *, *, #765, .F. ) ;
#135 = UNCERTAINTY_MEASURE_WITH_UNIT (LENGTH_MEASURE( 1.000000000000000082E-05 ), #511, 'distance_accuracy_value', 'NONE');
#136 = CLOSED_SHELL ( 'NONE', ( #215, #351, #132, #253, #1120, #342, #57, #394, #595, #552, #1007, #896, #634 ) ) ;
#137 = DIRECTION ( 'NONE',  ( 0.000000000000000000, 0.000000000000000000, -1.000000000000000000 ) ) ;
#138 = PRESENTATION_STYLE_ASSIGNMENT (( #952 ) ) ;
#139 = DIRECTION ( 'NONE',  ( 1.000000000000000000, -1.445602896647339163E-16, 0.000000000000000000 ) ) ;
#140 = ORIENTED_EDGE ( 'NONE', *, *, #573, .F. ) ;
#141 = VERTEX_POINT ( 'NONE', #358 ) ;
#142 = CARTESIAN_POINT ( 'NONE',  ( -0.5998738244796234520, 7.475971603121485565, 0.1589084681641880215 ) ) ;
#143 = CIRCLE ( 'NONE', #242, 0.5999999999999999778 ) ;
#144 = CARTESIAN_POINT ( 'NONE',  ( -142.9500000000000171, 0.000000000000000000, 0.5999999999999999778 ) ) ;
#145 = EDGE_CURVE ( 'NONE', #80, #594, #945, .T. ) ;
#146 = DIRECTION ( 'NONE',  ( 0.000000000000000000, 0.000000000000000000, -1.000000000000000000 ) ) ;
#147 = CARTESIAN_POINT ( 'NONE',  ( -0.3139544922126061843, 7.494244846647556635, -0.5347286943501048384 ) ) ;
#148 = DIRECTION ( 'NONE',  ( -0.000000000000000000, -0.000000000000000000, -1.000000000000000000 ) ) ;
#149 =( GEOMETRIC_REPRESENTATION_CONTEXT ( 3 ) GLOBAL_UNCERTAINTY_ASSIGNED_CONTEXT ( ( #47 ) ) GLOBAL_UNIT_ASSIGNED_CONTEXT ( ( #979, #960, #788 ) ) REPRESENTATION_CONTEXT ( 'NONE', 'WORKASPACE' ) );
#150 = FACE_OUTER_BOUND ( 'NONE', #764, .T. ) ;
#151 = CARTESIAN_POINT ( 'NONE',  ( -4.000000000000000000, 0.000000000000000000, -2.286000000000000032 ) ) ;
#152 = DIRECTION ( 'NONE',  ( 0.000000000000000000, 0.000000000000000000, 1.000000000000000000 ) ) ;
#153 = AXIS2_PLACEMENT_3D ( 'NONE', #647, #726, #638 ) ;
#154 = VERTEX_POINT ( 'NONE', #459 ) ;
#155 = EDGE_CURVE ( 'NONE', #1035, #163, #632, .T. ) ;
#156 = VERTEX_POINT ( 'NONE', #918 ) ;
#157 = FACE_OUTER_BOUND ( 'NONE', #913, .T. ) ;
#158 = PRODUCT_DEFINITION_CONTEXT ( 'detailed design', #827, 'design' ) ;
#159 = APPLICATION_CONTEXT ( 'automotive_design' ) ;
#160 = DIRECTION ( 'NONE',  ( 0.000000000000000000, 1.000000000000000000, -1.224646799147353207E-16 ) ) ;
#161 = EDGE_CURVE ( 'NONE', #1061, #565, #1095, .T. ) ;
#162 = ORIENTED_EDGE ( 'NONE', *, *, #12, .F. ) ;
#163 = VERTEX_POINT ( 'NONE', #553 ) ;
#164 = CARTESIAN_POINT ( 'NONE',  ( 4.000000000000003553, 0.000000000000000000, 0.000000000000000000 ) ) ;
#165 = SHAPE_REPRESENTATION ( '228-2500-438', ( #73, #373, #1165, #680 ), #793 ) ;
#166 = VECTOR ( 'NONE', #26, 1000.000000000000000 ) ;
#167 = CARTESIAN_POINT ( 'NONE',  ( 0.5000000000000920375, 1.900000000000130029, 0.9500000000000646816 ) ) ;
#168 = CARTESIAN_POINT ( 'NONE',  ( -1.750000000000000666, 4.850000000000000533, -2.286000000000000032 ) ) ;
#169 = VECTOR ( 'NONE', #899, 1000.000000000000000 ) ;
#170 = PRODUCT_DEFINITION_CONTEXT ( 'detailed design', #729, 'design' ) ;
#171 = CARTESIAN_POINT ( 'NONE',  ( 0.5000000000000920375, 2.326828918380130123E-16, 0.9500000000000650147 ) ) ;
#172 = EDGE_CURVE ( 'NONE', #805, #536, #900, .T. ) ;
#173 = CIRCLE ( 'NONE', #986, 0.9499999999999723110 ) ;
#174 = ITEM_DEFINED_TRANSFORMATION ( 'NONE', 'NONE', #835,  #1158 ) ;
#175 = LINE ( 'NONE', #901, #662 ) ;
#176 = AXIS2_PLACEMENT_3D ( 'NONE', #915, #735, #464 ) ;
#177 = FACE_BOUND ( 'NONE', #801, .T. ) ;
#178 = AXIS2_PLACEMENT_3D ( 'NONE', #50, #932, #415 ) ;
#179 =( BOUNDED_SURFACE ( )  B_SPLINE_SURFACE ( 3, 3, ( 
 ( #833, #1018, #1123, #225 ),
 ( #590, #102, #199, #483 ),
 ( #676, #1105, #944, #1013 ),
 ( #938, #311, #842, #390 ) ),
 .UNSPECIFIED., .F., .F., .T. ) 
 B_SPLINE_SURFACE_WITH_KNOTS ( ( 4, 4 ),
 ( 4, 4 ),
 ( 0.000000000000000000, 1.000000000000000000 ),
 ( 0.000000000000000000, 1.000000000000000000 ),
 .UNSPECIFIED. ) 
 GEOMETRIC_REPRESENTATION_ITEM ( )  RATIONAL_B_SPLINE_SURFACE ( (
 ( 1.000000000000000000, 0.3333333333333334259, 0.3333333333333334259, 1.000000000000000000),
 ( 0.8767380420913336581, 0.2922460140304446452, 0.2922460140304446452, 0.8767380420913336581),
 ( 0.8767380420913336581, 0.2922460140304446452, 0.2922460140304446452, 0.8767380420913336581),
 ( 1.000000000000000000, 0.3333333333333334259, 0.3333333333333334259, 1.000000000000000000) ) ) 
 REPRESENTATION_ITEM ( '' )  SURFACE ( )  );
#180 = CONTEXT_DEPENDENT_SHAPE_REPRESENTATION ( #795, #505 ) ;
#181 = CARTESIAN_POINT ( 'NONE',  ( 142.9500000000000171, 0.000000000000000000, 0.000000000000000000 ) ) ;
#182 = ORIENTED_EDGE ( 'NONE', *, *, #145, .F. ) ;
#183 = DIRECTION ( 'NONE',  ( 0.000000000000000000, 0.000000000000000000, 1.000000000000000000 ) ) ;
#184 = DIRECTION ( 'NONE',  ( 0.000000000000000000, 0.000000000000000000, 1.000000000000000000 ) ) ;
#185 = AXIS2_PLACEMENT_3D ( 'NONE', #693, #152, #238 ) ;
#186 = VERTEX_POINT ( 'NONE', #731 ) ;
#187 = VECTOR ( 'NONE', #320, 1000.000000000000000 ) ;
#188 = AXIS2_PLACEMENT_3D ( 'NONE', #1062, #987, #76 ) ;
#189 = VERTEX_POINT ( 'NONE', #468 ) ;
#190 = CARTESIAN_POINT ( 'NONE',  ( 142.9500000000000171, 0.000000000000000000, 0.5999999999999999778 ) ) ;
#191 = ORIENTED_EDGE ( 'NONE', *, *, #498, .F. ) ;
#192 = CARTESIAN_POINT ( 'NONE',  ( -0.1021126760563413477, 3.260563380281690016, -1.630281690140846562 ) ) ;
#193 = CARTESIAN_POINT ( 'NONE',  ( -4.000000000000000000, 0.000000000000000000, 2.286000000000000032 ) ) ;
#194 = DIRECTION ( 'NONE',  ( 1.000000000000000000, 0.000000000000000000, 0.000000000000000000 ) ) ;
#195 = EDGE_LOOP ( 'NONE', ( #1063, #743, #772, #480 ) ) ;
#196 = VECTOR ( 'NONE', #797, 1000.000000000000000 ) ;
#197 = VERTEX_POINT ( 'NONE', #106 ) ;
#198 = DIRECTION ( 'NONE',  ( 1.000000000000000000, 0.000000000000000000, -0.000000000000000000 ) ) ;
#199 = CARTESIAN_POINT ( 'NONE',  ( 0.2687352311006459549, -3.349207041552663355, -1.674603520776331678 ) ) ;
#200 =( BOUNDED_SURFACE ( )  B_SPLINE_SURFACE ( 3, 3, ( 
 ( #55, #543, #78, #705 ),
 ( #983, #622, #630, #715 ),
 ( #258, #617, #895, #981 ),
 ( #82, #1059, #167, #171 ) ),
 .UNSPECIFIED., .F., .F., .F. ) 
 B_SPLINE_SURFACE_WITH_KNOTS ( ( 4, 4 ),
 ( 4, 4 ),
 ( 0.000000000000000000, 1.000000000000000000 ),
 ( 0.000000000000000000, 1.000000000000000000 ),
 .UNSPECIFIED. ) 
 GEOMETRIC_REPRESENTATION_ITEM ( )  RATIONAL_B_SPLINE_SURFACE ( (
 ( 1.000000000000000000, 0.3333333333333334259, 0.3333333333333334259, 1.000000000000000000),
 ( 0.8767380420913336581, 0.2922460140304446452, 0.2922460140304446452, 0.8767380420913336581),
 ( 0.8767380420913336581, 0.2922460140304446452, 0.2922460140304446452, 0.8767380420913336581),
 ( 1.000000000000000000, 0.3333333333333334259, 0.3333333333333334259, 1.000000000000000000) ) ) 
 REPRESENTATION_ITEM ( '' )  SURFACE ( )  );
#201 = DIRECTION ( 'NONE',  ( -1.000000000000000000, 0.000000000000000000, 0.000000000000000000 ) ) ;
#202 = CIRCLE ( 'NONE', #379, 0.8993686908363700550 ) ;
#203 = SHAPE_DEFINITION_REPRESENTATION ( #440, #53 ) ;
#204 = EDGE_LOOP ( 'NONE', ( #601, #515 ) ) ;
#205 = EDGE_CURVE ( 'NONE', #189, #779, #27, .T. ) ;
#206 = CONTEXT_DEPENDENT_SHAPE_REPRESENTATION ( #223, #396 ) ;
#207 = MECHANICAL_DESIGN_GEOMETRIC_PRESENTATION_REPRESENTATION (  '', ( #130 ), #909 ) ;
#208 = DIRECTION ( 'NONE',  ( 1.000000000000000000, 0.000000000000000000, -0.000000000000000000 ) ) ;
#209 = CIRCLE ( 'NONE', #1070, 2.100000000000000089 ) ;
#210 = CARTESIAN_POINT ( 'NONE',  ( 2.999999999999993339, 1.163414459190956721E-16, -0.9499999999999724221 ) ) ;
#211 = LINE ( 'NONE', #110, #347 ) ;
#212 = DIRECTION ( 'NONE',  ( 0.000000000000000000, 1.000000000000000222, 0.000000000000000000 ) ) ;
#213 = CARTESIAN_POINT ( 'NONE',  ( 0.9062499999999973355, 1.084202172485504434E-16, 1.375000000000000000 ) ) ;
#214 =( LENGTH_UNIT ( ) NAMED_UNIT ( * ) SI_UNIT ( .MILLI., .METRE. ) );
#215 = ADVANCED_FACE ( 'NONE', ( #822 ), #66, .T. ) ;
#216 = DIRECTION ( 'NONE',  ( -1.000000000000000000, 0.000000000000000000, 0.000000000000000000 ) ) ;
#217 = LINE ( 'NONE', #580, #218 ) ;
#218 = VECTOR ( 'NONE', #495, 1000.000000000000000 ) ;
#219 = DIRECTION ( 'NONE',  ( 0.000000000000000000, 0.000000000000000000, -1.000000000000000000 ) ) ;
#220 = SHAPE_DEFINITION_REPRESENTATION ( #961, #165 ) ;
#221 = ORIENTED_EDGE ( 'NONE', *, *, #155, .T. ) ;
#222 = CARTESIAN_POINT ( 'NONE',  ( 0.000000000000000000, 0.000000000000000000, 2.286000000000000032 ) ) ;
#223 =( REPRESENTATION_RELATIONSHIP ('NONE','NONE', #165, #284 ) REPRESENTATION_RELATIONSHIP_WITH_TRANSFORMATION ( #1034 )SHAPE_REPRESENTATION_RELATIONSHIP( ) );
#224 = CARTESIAN_POINT ( 'NONE',  ( -0.1021126760563413616, -2.720500745945820850E-16, -1.630281690140845896 ) ) ;
#225 = CARTESIAN_POINT ( 'NONE',  ( 0.5000000000000918154, -2.449293598294627035E-16, -1.999999999999934941 ) ) ;
#226 = EDGE_CURVE ( 'NONE', #1047, #229, #389, .T. ) ;
#227 = DIRECTION ( 'NONE',  ( 1.445602896647339163E-16, 1.000000000000000000, 0.000000000000000000 ) ) ;
#228 = PRODUCT_CONTEXT ( 'NONE', #409, 'mechanical' ) ;
#229 = VERTEX_POINT ( 'NONE', #942 ) ;
#230 = ORIENTED_EDGE ( 'NONE', *, *, #610, .T. ) ;
#231 = DIRECTION ( 'NONE',  ( -1.000000000000000000, 0.000000000000000000, 0.000000000000000000 ) ) ;
#232 = CARTESIAN_POINT ( 'NONE',  ( 4.000000000000003553, 6.017322057294549609E-14, 0.8993686908363700550 ) ) ;
#233 = ORIENTED_EDGE ( 'NONE', *, *, #1083, .F. ) ;
#234 =( NAMED_UNIT ( * ) PLANE_ANGLE_UNIT ( ) SI_UNIT ( $, .RADIAN. ) );
#235 = ORIENTED_EDGE ( 'NONE', *, *, #77, .T. ) ;
#236 = COLOUR_RGB ( '',0.1450980392156862586, 0.1568627450980392135, 0.1647058823529411742 ) ;
#237 = CARTESIAN_POINT ( 'NONE',  ( -0.1566311123537543204, 7.500000000000014211, 0.6000000000001860512 ) ) ;
#238 = DIRECTION ( 'NONE',  ( 1.000000000000000000, 0.000000000000000000, 0.000000000000000000 ) ) ;
#239 = ORIENTED_EDGE ( 'NONE', *, *, #619, .T. ) ;
#240 = CARTESIAN_POINT ( 'NONE',  ( 1.749999999999999334, 4.850000000000000533, -2.286000000000000032 ) ) ;
#241 = CARTESIAN_POINT ( 'NONE',  ( 0.000000000000000000, 4.850000000000000533, 0.000000000000000000 ) ) ;
#242 = AXIS2_PLACEMENT_3D ( 'NONE', #875, #61, #761 ) ;
#243 = CARTESIAN_POINT ( 'NONE',  ( 0.5000000000000004441, 0.000000000000000000, 0.000000000000000000 ) ) ;
#244 = CARTESIAN_POINT ( 'NONE',  ( 0.5000000000000004441, 0.000000000000000000, 0.000000000000000000 ) ) ;
#245 = UNCERTAINTY_MEASURE_WITH_UNIT (LENGTH_MEASURE( 1.000000000000000082E-05 ), #393, 'distance_accuracy_value', 'NONE');
#246 = LINE ( 'NONE', #151, #811 ) ;
#247 = DIRECTION ( 'NONE',  ( 0.000000000000000000, 0.000000000000000000, 1.000000000000000000 ) ) ;
#248 = EDGE_CURVE ( 'NONE', #1035, #446, #683, .T. ) ;
#249 = STYLED_ITEM ( 'NONE', ( #773 ), #109 ) ;
#250 = VECTOR ( 'NONE', #1166, 1000.000000000000000 ) ;
#251 = ORIENTED_EDGE ( 'NONE', *, *, #1088, .F. ) ;
#252 = DIRECTION ( 'NONE',  ( 1.000000000000000000, 0.000000000000000000, 0.000000000000000000 ) ) ;
#253 = ADVANCED_FACE ( 'NONE', ( #1110 ), #532, .T. ) ;
#254 = LINE ( 'NONE', #84, #196 ) ;
#255 = EDGE_LOOP ( 'NONE', ( #804, #1, #316, #420 ) ) ;
#256 = ORIENTED_EDGE ( 'NONE', *, *, #436, .F. ) ;
#257 = UNCERTAINTY_MEASURE_WITH_UNIT (LENGTH_MEASURE( 1.000000000000000082E-05 ), #214, 'distance_accuracy_value', 'NONE');
#258 = CARTESIAN_POINT ( 'NONE',  ( 0.2687352311006460659, -1.561910215925068817E-16, -1.275396479223668056 ) ) ;
#259 = CARTESIAN_POINT ( 'NONE',  ( -0.1021126760563414448, 3.826721060716899529E-16, 1.119718309859154104 ) ) ;
#260 = ORIENTED_EDGE ( 'NONE', *, *, #757, .F. ) ;
#261 = ADVANCED_FACE ( 'NONE', ( #412 ), #1130, .F. ) ;
#262 = DIRECTION ( 'NONE',  ( 0.000000000000000000, 0.000000000000000000, -1.000000000000000000 ) ) ;
#263 = PRESENTATION_LAYER_ASSIGNMENT (  '', '', ( #130 ) ) ;
#264 = CARTESIAN_POINT ( 'NONE',  ( -1.750000000000000666, 4.850000000000000533, -2.286000000000000032 ) ) ;
#265 = AXIS2_PLACEMENT_3D ( 'NONE', #164, #537, #894 ) ;
#266 = CARTESIAN_POINT ( 'NONE',  ( 4.000000000000000000, 6.344288770224760121, 2.286000000000000032 ) ) ;
#267 = DIRECTION ( 'NONE',  ( 1.445602896647339163E-16, -1.000000000000000000, 0.000000000000000000 ) ) ;
#268 = CARTESIAN_POINT ( 'NONE',  ( 0.5000000000000004441, 0.000000000000000000, 0.000000000000000000 ) ) ;
#269 = EDGE_LOOP ( 'NONE', ( #470, #382, #124, #887 ) ) ;
#270 = DIRECTION ( 'NONE',  ( 1.000000000000000000, 0.000000000000000000, 0.000000000000000000 ) ) ;
#271 = FILL_AREA_STYLE_COLOUR ( '', #878 ) ;
#272 = DIRECTION ( 'NONE',  ( -1.000000000000000000, 0.000000000000000000, 0.000000000000000000 ) ) ;
#273 = ORIENTED_EDGE ( 'NONE', *, *, #845, .F. ) ;
#274 = CARTESIAN_POINT ( 'NONE',  ( 0.2499999999999988343, 4.000000000000002665, 2.000000000000000000 ) ) ;
#275 =( REPRESENTATION_RELATIONSHIP ('NONE','NONE', #165, #284 ) REPRESENTATION_RELATIONSHIP_WITH_TRANSFORMATION ( #534 )SHAPE_REPRESENTATION_RELATIONSHIP( ) );
#276 = ADVANCED_FACE ( 'NONE', ( #853 ), #39, .T. ) ;
#277 = DIRECTION ( 'NONE',  ( 0.000000000000000000, 0.000000000000000000, 1.000000000000000000 ) ) ;
#278 = ORIENTED_EDGE ( 'NONE', *, *, #610, .F. ) ;
#279 = AXIS2_PLACEMENT_3D ( 'NONE', #243, #334, #247 ) ;
#280 = VERTEX_POINT ( 'NONE', #574 ) ;
#281 =( GEOMETRIC_REPRESENTATION_CONTEXT ( 3 ) GLOBAL_UNCERTAINTY_ASSIGNED_CONTEXT ( ( #713 ) ) GLOBAL_UNIT_ASSIGNED_CONTEXT ( ( #586, #1136, #572 ) ) REPRESENTATION_CONTEXT ( 'NONE', 'WORKASPACE' ) );
#282 = EDGE_CURVE ( 'NONE', #570, #472, #202, .T. ) ;
#283 = CARTESIAN_POINT ( 'NONE',  ( 0.2499999999999988343, 4.000000000000001776, -2.000000000000002220 ) ) ;
#284 = SHAPE_REPRESENTATION ( '228-2500-ROPE-OVERMOLD-MASTER Rev1_228-3201-ROPE-OVERMOLD-MASTER', ( #1158 ), #63 ) ;
#285 = DIRECTION ( 'NONE',  ( 0.000000000000000000, -0.9242245927363030855, -0.3818493186865927203 ) ) ;
#287 = EDGE_LOOP ( 'NONE', ( #353, #233, #846, #554 ) ) ;
#286 = VECTOR ( 'NONE', #267, 1000.000000000000000 ) ;
#288 = ORIENTED_EDGE ( 'NONE', *, *, #378, .T. ) ;
#289 = CARTESIAN_POINT ( 'NONE',  ( -0.2000000000000057288, 0.000000000000000000, 0.000000000000000000 ) ) ;
#290 = CARTESIAN_POINT ( 'NONE',  ( 2.100000000000000089, 2.571758278209441957E-16, 2.286000000000000032 ) ) ;
#291 = CARTESIAN_POINT ( 'NONE',  ( 4.199999999999995737, 0.000000000000000000, 0.000000000000000000 ) ) ;
#292 = LINE ( 'NONE', #829, #740 ) ;
#293 = AXIS2_PLACEMENT_3D ( 'NONE', #881, #603, #1151 ) ;
#294 = DIRECTION ( 'NONE',  ( -0.000000000000000000, -0.000000000000000000, -1.000000000000000000 ) ) ;
#295 = CYLINDRICAL_SURFACE ( 'NONE', #325, 0.9499999999999999556 ) ;
#296 = PLANE ( 'NONE',  #1042 ) ;
#297 = APPLICATION_PROTOCOL_DEFINITION ( 'draft international standard', 'automotive_design', 1998, #729 ) ;
#298 = ORIENTED_EDGE ( 'NONE', *, *, #709, .F. ) ;
#299 = ADVANCED_FACE ( 'NONE', ( #1017 ), #500, .F. ) ;
#300 = VECTOR ( 'NONE', #953, 1000.000000000000000 ) ;
#301 = DIRECTION ( 'NONE',  ( -0.000000000000000000, -0.000000000000000000, -1.000000000000000000 ) ) ;
#302 = AXIS2_PLACEMENT_3D ( 'NONE', #1066, #357, #262 ) ;
#303 = CARTESIAN_POINT ( 'NONE',  ( 0.9062499999999973355, -2.768091521313115186E-16, -1.375000000000000000 ) ) ;
#304 = DIRECTION ( 'NONE',  ( 0.000000000000000000, 0.000000000000000000, 1.000000000000000000 ) ) ;
#305 = CARTESIAN_POINT ( 'NONE',  ( 0.000000000000000000, 0.000000000000000000, 0.000000000000000000 ) ) ;
#306 = ORIENTED_EDGE ( 'NONE', *, *, #6, .F. ) ;
#307 = CARTESIAN_POINT ( 'NONE',  ( 0.000000000000000000, 0.000000000000000000, 0.000000000000000000 ) ) ;
#308 = EDGE_CURVE ( 'NONE', #408, #1047, #48, .T. ) ;
#309 = AXIS2_PLACEMENT_3D ( 'NONE', #1076, #2, #270 ) ;
#310 = CARTESIAN_POINT ( 'NONE',  ( 0.2499999999999988065, 6.422899774855259893E-17, 2.000000000000001332 ) ) ;
#311 = CARTESIAN_POINT ( 'NONE',  ( 0.5000000000000920375, -1.900000000000130029, 0.9500000000000651257 ) ) ;
#312 = CARTESIAN_POINT ( 'NONE',  ( 1.749999999999999334, 4.850000000000000533, -2.286000000000000032 ) ) ;
#313 = PRODUCT_CONTEXT ( 'NONE', #467, 'mechanical' ) ;
#314 = EDGE_LOOP ( 'NONE', ( #922, #79, #239, #737 ) ) ;
#315 = SHAPE_REPRESENTATION_RELATIONSHIP ( 'NONE' , 'NONE' ,  #453, #604 ) ;
#316 = ORIENTED_EDGE ( 'NONE', *, *, #1048, .F. ) ;
#317 = DIRECTION ( 'NONE',  ( -1.000000000000000000, 0.000000000000000000, 0.000000000000000000 ) ) ;
#318 = DIRECTION ( 'NONE',  ( 0.000000000000000000, 0.000000000000000000, 1.000000000000000000 ) ) ;
#319 = DIRECTION ( 'NONE',  ( -0.000000000000000000, 0.000000000000000000, 1.000000000000000000 ) ) ;
#320 = DIRECTION ( 'NONE',  ( -0.000000000000000000, -0.000000000000000000, 1.000000000000000000 ) ) ;
#321 = VERTEX_POINT ( 'NONE', #488 ) ;
#322 =( NAMED_UNIT ( * ) PLANE_ANGLE_UNIT ( ) SI_UNIT ( $, .RADIAN. ) );
#323 = VERTEX_POINT ( 'NONE', #847 ) ;
#324 = CARTESIAN_POINT ( 'NONE',  ( -0.5351685533447986254, 7.481702203656249495, -0.3132041175538384792 ) ) ;
#325 = AXIS2_PLACEMENT_3D ( 'NONE', #762, #746, #127 ) ;
#326 = CIRCLE ( 'NONE', #346, 4.000000000000000000 ) ;
#327 = DIRECTION ( 'NONE',  ( 0.000000000000000000, 0.000000000000000000, -1.000000000000000000 ) ) ;
#328 = AXIS2_PLACEMENT_3D ( 'NONE', #718, #81, #524 ) ;
#329 = ORIENTED_EDGE ( 'NONE', *, *, #376, .T. ) ;
#330 = CARTESIAN_POINT ( 'NONE',  ( 0.000000000000000000, 4.850000000000000533, -0.5999999999999999778 ) ) ;
#331 = SHAPE_REPRESENTATION ( '228-2500-449 Rev1_228-2500-449', ( #1158 ), #966 ) ;
#332 = PRODUCT_RELATED_PRODUCT_CATEGORY ( 'part', '', ( #525 ) ) ;
#333 = CARTESIAN_POINT ( 'NONE',  ( 0.5999436111853565512, 7.475966002236344110, -0.1568219647242036774 ) ) ;
#334 = DIRECTION ( 'NONE',  ( 1.000000000000000000, -0.000000000000000000, -0.000000000000000000 ) ) ;
#335 = CARTESIAN_POINT ( 'NONE',  ( 142.9500000000000171, 0.000000000000000000, 0.000000000000000000 ) ) ;
#336 = ADVANCED_FACE ( 'NONE', ( #33, #125, #119 ), #494, .F. ) ;
#337 = PLANE ( 'NONE',  #188 ) ;
#338 = CARTESIAN_POINT ( 'NONE',  ( 0.5363649185556312871, 7.481637635605896897, 0.3121211006322544557 ) ) ;
#339 = DIRECTION ( 'NONE',  ( -1.000000000000000000, 0.000000000000000000, 0.000000000000000000 ) ) ;
#340 = EDGE_CURVE ( 'NONE', #738, #1016, #416, .T. ) ;
#341 = CARTESIAN_POINT ( 'NONE',  ( 0.5000000000000004441, 1.163414459189985682E-16, -0.9499999999999999556 ) ) ;
#342 = ADVANCED_FACE ( 'NONE', ( #1112 ), #295, .T. ) ;
#343 = DIRECTION ( 'NONE',  ( -1.000000000000000000, 0.000000000000000000, 0.000000000000000000 ) ) ;
#344 = VECTOR ( 'NONE', #148, 1000.000000000000000 ) ;
#345 = ORIENTED_EDGE ( 'NONE', *, *, #993, .T. ) ;
#346 = AXIS2_PLACEMENT_3D ( 'NONE', #763, #591, #599 ) ;
#347 = VECTOR ( 'NONE', #23, 1000.000000000000000 ) ;
#348 = VERTEX_POINT ( 'NONE', #1031 ) ;
#349 = CARTESIAN_POINT ( 'NONE',  ( 0.2500000000000002220, 0.000000000000000000, 2.000000000000000000 ) ) ;
#350 = CARTESIAN_POINT ( 'NONE',  ( 0.000000000000000000, 0.000000000000000000, 2.286000000000000032 ) ) ;
#351 = ADVANCED_FACE ( 'NONE', ( #849 ), #179, .F. ) ;
#352 = VERTEX_POINT ( 'NONE', #210 ) ;
#353 = ORIENTED_EDGE ( 'NONE', *, *, #1100, .T. ) ;
#354 = CARTESIAN_POINT ( 'NONE',  ( 4.000000000000000000, 0.000000000000000000, -2.286000000000000032 ) ) ;
#355 = DIRECTION ( 'NONE',  ( 1.445602896647339163E-16, -1.000000000000000000, 0.000000000000000000 ) ) ;
#356 = DIRECTION ( 'NONE',  ( -1.000000000000000000, 0.000000000000000000, 0.000000000000000000 ) ) ;
#357 = DIRECTION ( 'NONE',  ( 1.000000000000000000, 0.000000000000000000, 0.000000000000000000 ) ) ;
#358 = CARTESIAN_POINT ( 'NONE',  ( -2.100000000000000089, 0.000000000000000000, 2.286000000000000032 ) ) ;
#359 = STYLED_ITEM ( 'NONE', ( #469 ), #964 ) ;
#360 = CARTESIAN_POINT ( 'NONE',  ( 142.9500000000000171, 0.000000000000000000, 0.000000000000000000 ) ) ;
#361 = VECTOR ( 'NONE', #356, 1000.000000000000000 ) ;
#362 = ORIENTED_EDGE ( 'NONE', *, *, #282, .F. ) ;
#363 = PRODUCT_RELATED_PRODUCT_CATEGORY ( 'part', '', ( #1104 ) ) ;
#364 = DIRECTION ( 'NONE',  ( 0.000000000000000000, 0.000000000000000000, -1.000000000000000000 ) ) ;
#365 = CONTEXT_DEPENDENT_SHAPE_REPRESENTATION ( #666, #749 ) ;
#366 = CIRCLE ( 'NONE', #309, 2.100000000000000089 ) ;
#367 = DIRECTION ( 'NONE',  ( 5.021567956775114176E-15, 0.000000000000000000, -1.000000000000000000 ) ) ;
#368 = EDGE_LOOP ( 'NONE', ( #682, #641, #24, #620 ) ) ;
#369 = AXIS2_PLACEMENT_3D ( 'NONE', #303, #116, #28 ) ;
#370 = EDGE_CURVE ( 'NONE', #570, #1064, #539, .T. ) ;
#371 = ADVANCED_FACE ( 'NONE', ( #664 ), #865, .T. ) ;
#372 = DIRECTION ( 'NONE',  ( 0.000000000000000000, 0.000000000000000000, -1.000000000000000000 ) ) ;
#373 = AXIS2_PLACEMENT_3D ( 'NONE', #563, #920, #400 ) ;
#374 = CARTESIAN_POINT ( 'NONE',  ( 0.000000000000000000, 0.000000000000000000, 0.000000000000000000 ) ) ;
#375 = ORIENTED_EDGE ( 'NONE', *, *, #471, .T. ) ;
#376 = EDGE_CURVE ( 'NONE', #348, #197, #567, .T. ) ;
#377 = VERTEX_POINT ( 'NONE', #385 ) ;
#378 = EDGE_CURVE ( 'NONE', #348, #890, #769, .T. ) ;
#379 = AXIS2_PLACEMENT_3D ( 'NONE', #937, #231, #1038 ) ;
#380 = CARTESIAN_POINT ( 'NONE',  ( 0.000000000000000000, 0.000000000000000000, 2.286000000000000032 ) ) ;
#381 = DIRECTION ( 'NONE',  ( 1.000000000000000000, 0.000000000000000000, 0.000000000000000000 ) ) ;
#382 = ORIENTED_EDGE ( 'NONE', *, *, #44, .F. ) ;
#383 = AXIS2_PLACEMENT_3D ( 'NONE', #985, #1106, #633 ) ;
#384 = CARTESIAN_POINT ( 'NONE',  ( -1.750000000000000666, 4.850000000000000533, 2.286000000000000032 ) ) ;
#385 = CARTESIAN_POINT ( 'NONE',  ( 2.368286583846122402E-17, 7.500000000000000000, -0.5999999999999999778 ) ) ;
#386 = FACE_OUTER_BOUND ( 'NONE', #427, .T. ) ;
#388 = CLOSED_SHELL ( 'NONE', ( #858, #261, #120, #336, #276, #1009, #751, #433, #786, #1128, #299, #770, #808, #476 ) ) ;
#387 = EDGE_LOOP ( 'NONE', ( #1155, #892, #646, #425 ) ) ;
#389 = LINE ( 'NONE', #767, #792 ) ;
#390 = CARTESIAN_POINT ( 'NONE',  ( 0.5000000000000920375, -1.163414459190065308E-16, -0.9500000000000650147 ) ) ;
#391 = DIRECTION ( 'NONE',  ( 0.000000000000000000, 0.000000000000000000, 1.000000000000000000 ) ) ;
#392 = AXIS2_PLACEMENT_3D ( 'NONE', #575, #502, #489 ) ;
#393 =( LENGTH_UNIT ( ) NAMED_UNIT ( * ) SI_UNIT ( .MILLI., .METRE. ) );
#394 = ADVANCED_FACE ( 'NONE', ( #741, #926 ), #108, .F. ) ;
#395 = CIRCLE ( 'NONE', #1164, 0.9062499999999998890 ) ;
#396 = PRODUCT_DEFINITION_SHAPE ( 'NONE', 'NONE',  #1168 ) ;
#397 = DIRECTION ( 'NONE',  ( 0.000000000000000000, 0.000000000000000000, 1.000000000000000000 ) ) ;
#398 = CARTESIAN_POINT ( 'NONE',  ( -4.000000000000000000, 0.000000000000000000, 2.286000000000000032 ) ) ;
#399 = CARTESIAN_POINT ( 'NONE',  ( -4.000000000000000000, 6.344288770224760121, 2.286000000000000032 ) ) ;
#400 = DIRECTION ( 'NONE',  ( 1.000000000000000000, 0.000000000000000000, 0.000000000000000000 ) ) ;
#401 = VERTEX_POINT ( 'NONE', #193 ) ;
#402 = PRESENTATION_LAYER_ASSIGNMENT (  '', '', ( #249 ) ) ;
#403 = CARTESIAN_POINT ( 'NONE',  ( 0.000000000000000000, 0.000000000000000000, -2.286000000000000032 ) ) ;
#404 = CIRCLE ( 'NONE', #708, 0.9499999999999723110 ) ;
#405 = SHAPE_REPRESENTATION_RELATIONSHIP ( 'NONE' , 'NONE' ,  #331, #109 ) ;
#406 = APPLICATION_PROTOCOL_DEFINITION ( 'draft international standard', 'automotive_design', 1998, #159 ) ;
#407 = PRODUCT ( '228-2500-449 Rev1_228-2500-449', '228-2500-449 Rev1_228-2500-449', '', ( #228 ) ) ;
#408 = VERTEX_POINT ( 'NONE', #1096 ) ;
#409 = APPLICATION_CONTEXT ( 'automotive_design' ) ;
#410 = FILL_AREA_STYLE ('',( #419 ) ) ;
#411 = CIRCLE ( 'NONE', #153, 0.5999999999999999778 ) ;
#412 = FACE_OUTER_BOUND ( 'NONE', #91, .T. ) ;
#413 = FACE_OUTER_BOUND ( 'NONE', #644, .T. ) ;
#414 = EDGE_CURVE ( 'NONE', #1108, #1016, #562, .T. ) ;
#415 = DIRECTION ( 'NONE',  ( 0.000000000000000000, 0.000000000000000000, 1.000000000000000000 ) ) ;
#416 = CIRCLE ( 'NONE', #671, 2.100000000000000089 ) ;
#417 = DIRECTION ( 'NONE',  ( -1.000000000000000000, 0.000000000000000000, 0.000000000000000000 ) ) ;
#418 = ORIENTED_EDGE ( 'NONE', *, *, #969, .T. ) ;
#419 = FILL_AREA_STYLE_COLOUR ( '', #460 ) ;
#420 = ORIENTED_EDGE ( 'NONE', *, *, #891, .F. ) ;
#421 = UNCERTAINTY_MEASURE_WITH_UNIT (LENGTH_MEASURE( 1.000000000000000082E-05 ), #677, 'distance_accuracy_value', 'NONE');
#422 = CARTESIAN_POINT ( 'NONE',  ( -0.1021126760563413477, -3.260563380281691348, 1.630281690140846118 ) ) ;
#423 = CARTESIAN_POINT ( 'NONE',  ( -4.000000000000000000, 0.000000000000000000, 2.286000000000000032 ) ) ;
#424 = FACE_OUTER_BOUND ( 'NONE', #255, .T. ) ;
#425 = ORIENTED_EDGE ( 'NONE', *, *, #840, .F. ) ;
#426 = LINE ( 'NONE', #354, #523 ) ;
#427 = EDGE_LOOP ( 'NONE', ( #917, #260, #182, #868 ) ) ;
#428 = CARTESIAN_POINT ( 'NONE',  ( 0.1566673578596663452, 7.499999999999982236, 0.5999999999998141265 ) ) ;
#429 = CARTESIAN_POINT ( 'NONE',  ( 0.5000000000000004441, 0.000000000000000000, 0.000000000000000000 ) ) ;
#430 = EDGE_CURVE ( 'NONE', #189, #1035, #435, .T. ) ;
#431 = CARTESIAN_POINT ( 'NONE',  ( 0.2499999999999986955, 9.184850993605129949E-17, 0.7499999999999983347 ) ) ;
#432 = CARTESIAN_POINT ( 'NONE',  ( 4.000000000000003553, 0.000000000000000000, -0.7500000000000000000 ) ) ;
#433 = ADVANCED_FACE ( 'NONE', ( #35 ), #658, .F. ) ;
#434 = AXIS2_PLACEMENT_3D ( 'NONE', #908, #1071, #475 ) ;
#435 = CIRCLE ( 'NONE', #369, 0.9062499999999998890 ) ;
#436 = EDGE_CURVE ( 'NONE', #352, #799, #217, .T. ) ;
#437 = DIRECTION ( 'NONE',  ( 0.000000000000000000, 0.000000000000000000, -1.000000000000000000 ) ) ;
#438 = MANIFOLD_SOLID_BREP ( 'Cut-Extrude2', #388 ) ;
#439 = CARTESIAN_POINT ( 'NONE',  ( 1.749999999999999334, 4.850000000000000533, 2.286000000000000032 ) ) ;
#440 = PRODUCT_DEFINITION_SHAPE ( 'NONE', 'NONE',  #577 ) ;
#441 = EDGE_LOOP ( 'NONE', ( #1044, #636 ) ) ;
#442 = ORIENTED_EDGE ( 'NONE', *, *, #498, .T. ) ;
#443 = CARTESIAN_POINT ( 'NONE',  ( 0.000000000000000000, 0.000000000000000000, 2.286000000000000032 ) ) ;
#444 = FACE_BOUND ( 'NONE', #204, .T. ) ;
#445 = CIRCLE ( 'NONE', #279, 0.9499999999999999556 ) ;
#446 = VERTEX_POINT ( 'NONE', #432 ) ;
#447 = EDGE_LOOP ( 'NONE', ( #59, #131, #551, #418 ) ) ;
#448 = PLANE ( 'NONE',  #107 ) ;
#449 = LINE ( 'NONE', #190, #719 ) ;
#450 = PRESENTATION_LAYER_ASSIGNMENT (  '', '', ( #807 ) ) ;
#451 = DIRECTION ( 'NONE',  ( 0.000000000000000000, 0.000000000000000000, 1.000000000000000000 ) ) ;
#452 = FACE_OUTER_BOUND ( 'NONE', #269, .T. ) ;
#453 = SHAPE_REPRESENTATION ( '228-2500-438-01 Rev1_228-2500-438-01', ( #1158 ), #479 ) ;
#454 = CIRCLE ( 'NONE', #701, 4.000000000000000000 ) ;
#455 = PRODUCT_DEFINITION_FORMATION_WITH_SPECIFIED_SOURCE ( 'ANY', '', #787, .NOT_KNOWN. ) ;
#456 =( LENGTH_UNIT ( ) NAMED_UNIT ( * ) SI_UNIT ( .MILLI., .METRE. ) );
#457 = CARTESIAN_POINT ( 'NONE',  ( 4.199999999999995737, 0.000000000000000000, 2.000000000000000000 ) ) ;
#458 = ORIENTED_EDGE ( 'NONE', *, *, #3, .F. ) ;
#459 = CARTESIAN_POINT ( 'NONE',  ( 142.9500000000000171, 7.347880794884117764E-17, -0.5999999999999999778 ) ) ;
#460 = COLOUR_RGB ( '',0.6862745098039215730, 0.6078431372549019107, 0.5294117647058823595 ) ;
#461 = CARTESIAN_POINT ( 'NONE',  ( -142.9500000000000171, 0.000000000000000000, 0.000000000000000000 ) ) ;
#462 = CIRCLE ( 'NONE', #265, 0.7500000000000000000 ) ;
#463 = ORIENTED_EDGE ( 'NONE', *, *, #1122, .T. ) ;
#464 = DIRECTION ( 'NONE',  ( 0.000000000000000000, 0.000000000000000000, 1.000000000000000000 ) ) ;
#465 = EDGE_CURVE ( 'NONE', #401, #321, #854, .T. ) ;
#466 = EDGE_LOOP ( 'NONE', ( #278, #1091 ) ) ;
#467 = APPLICATION_CONTEXT ( 'automotive_design' ) ;
#468 = CARTESIAN_POINT ( 'NONE',  ( 0.2500000000000002220, 2.449293598294706414E-16, -2.000000000000000000 ) ) ;
#469 = PRESENTATION_STYLE_ASSIGNMENT (( #558 ) ) ;
#470 = ORIENTED_EDGE ( 'NONE', *, *, #378, .F. ) ;
#471 = EDGE_CURVE ( 'NONE', #799, #1036, #445, .T. ) ;
#472 = VERTEX_POINT ( 'NONE', #777 ) ;
#473 = EDGE_CURVE ( 'NONE', #141, #738, #1139, .T. ) ;
#474 = AXIS2_PLACEMENT_3D ( 'NONE', #1119, #397, #752 ) ;
#475 = DIRECTION ( 'NONE',  ( 0.000000000000000000, 0.000000000000000000, -1.000000000000000000 ) ) ;
#476 = ADVANCED_FACE ( 'NONE', ( #785 ), #1055, .F. ) ;
#477 = DIRECTION ( 'NONE',  ( -0.000000000000000000, -0.000000000000000000, 1.000000000000000000 ) ) ;
#478 = LINE ( 'NONE', #823, #286 ) ;
#479 =( GEOMETRIC_REPRESENTATION_CONTEXT ( 3 ) GLOBAL_UNCERTAINTY_ASSIGNED_CONTEXT ( ( #421 ) ) GLOBAL_UNIT_ASSIGNED_CONTEXT ( ( #677, #656, #689 ) ) REPRESENTATION_CONTEXT ( 'NONE', 'WORKASPACE' ) );
#480 = ORIENTED_EDGE ( 'NONE', *, *, #675, .F. ) ;
#481 = MECHANICAL_DESIGN_GEOMETRIC_PRESENTATION_REPRESENTATION (  '', ( #1022 ), #149 ) ;
#482 = CARTESIAN_POINT ( 'NONE',  ( -0.1021126760563414587, 2.239436619718308208, 1.119718309859153438 ) ) ;
#483 = CARTESIAN_POINT ( 'NONE',  ( 0.2687352311006459549, -2.050797841559623033E-16, -1.674603520776331678 ) ) ;
#484 = LINE ( 'NONE', #457, #1142 ) ;
#485 = PRODUCT_CONTEXT ( 'NONE', #593, 'mechanical' ) ;
#487 = AXIS2_PLACEMENT_3D ( 'NONE', #213, #1080, #728 ) ;
#486 = SURFACE_SIDE_STYLE ('',( #112 ) ) ;
#488 = CARTESIAN_POINT ( 'NONE',  ( -4.000000000000000000, 0.000000000000000000, -2.286000000000000032 ) ) ;
#489 = DIRECTION ( 'NONE',  ( 0.000000000000000000, 0.000000000000000000, -1.000000000000000000 ) ) ;
#490 = DIRECTION ( 'NONE',  ( 0.000000000000000000, 0.000000000000000000, -1.000000000000000000 ) ) ;
#491 = SHAPE_DEFINITION_REPRESENTATION ( #45, #331 ) ;
#492 = ORIENTED_EDGE ( 'NONE', *, *, #282, .T. ) ;
#493 =( LENGTH_UNIT ( ) NAMED_UNIT ( * ) SI_UNIT ( .MILLI., .METRE. ) );
#494 = PLANE ( 'NONE',  #474 ) ;
#495 = DIRECTION ( 'NONE',  ( -1.000000000000000000, 0.000000000000000000, 0.000000000000000000 ) ) ;
#496 = CARTESIAN_POINT ( 'NONE',  ( 4.000000000000003553, 0.000000000000000000, 0.000000000000000000 ) ) ;
#497 = EDGE_LOOP ( 'NONE', ( #362, #838 ) ) ;
#498 = EDGE_CURVE ( 'NONE', #141, #1108, #948, .T. ) ;
#499 = CIRCLE ( 'NONE', #293, 7.500000000000000000 ) ;
#500 = PLANE ( 'NONE',  #16 ) ;
#501 = CARTESIAN_POINT ( 'NONE',  ( 4.595750661335919044E-13, 7.500000000000333955, 0.6000000000041715298 ) ) ;
#502 = DIRECTION ( 'NONE',  ( 0.000000000000000000, -1.000000000000000000, 0.000000000000000000 ) ) ;
#503 = DIRECTION ( 'NONE',  ( -0.000000000000000000, -0.000000000000000000, -1.000000000000000000 ) ) ;
#504 = DIRECTION ( 'NONE',  ( 0.000000000000000000, 0.000000000000000000, 1.000000000000000222 ) ) ;
#505 = PRODUCT_DEFINITION_SHAPE ( 'NONE', 'NONE',  #1171 ) ;
#506 = VERTEX_POINT ( 'NONE', #884 ) ;
#507 = EDGE_CURVE ( 'NONE', #594, #156, #499, .T. ) ;
#508 =( NAMED_UNIT ( * ) SI_UNIT ( $, .STERADIAN. ) SOLID_ANGLE_UNIT ( ) );
#509 = EDGE_LOOP ( 'NONE', ( #306, #1135, #375, #623 ) ) ;
#510 = CARTESIAN_POINT ( 'NONE',  ( 0.000000000000000000, 0.000000000000000000, 2.286000000000000032 ) ) ;
#511 =( LENGTH_UNIT ( ) NAMED_UNIT ( * ) SI_UNIT ( .MILLI., .METRE. ) );
#512 = FACE_OUTER_BOUND ( 'NONE', #54, .T. ) ;
#513 = ORIENTED_EDGE ( 'NONE', *, *, #507, .F. ) ;
#514 = AXIS2_PLACEMENT_3D ( 'NONE', #538, #160, #975 ) ;
#515 = ORIENTED_EDGE ( 'NONE', *, *, #583, .T. ) ;
#516 = PRODUCT_DEFINITION ( 'UNKNOWN', '', #637, #170 ) ;
#517 = CARTESIAN_POINT ( 'NONE',  ( 0.1586417734720640682, 7.500000000000000000, -0.5999999999999998668 ) ) ;
#518 = CARTESIAN_POINT ( 'NONE',  ( 2.999999999999864109, 5.907708476162261770E-14, 8.950628149161543590 ) ) ;
#519 = EDGE_CURVE ( 'NONE', #197, #280, #72, .T. ) ;
#520 = SURFACE_STYLE_FILL_AREA ( #1053 ) ;
#521 = CARTESIAN_POINT ( 'NONE',  ( -0.1021126760563414448, -2.208053028555439392E-16, -1.119718309859154104 ) ) ;
#522 = DIRECTION ( 'NONE',  ( -0.000000000000000000, -0.000000000000000000, 1.000000000000000000 ) ) ;
#523 = VECTOR ( 'NONE', #781, 1000.000000000000000 ) ;
#524 = DIRECTION ( 'NONE',  ( 0.000000000000000000, 0.000000000000000000, 1.000000000000000000 ) ) ;
#525 = PRODUCT ( '228-2500-438', '228-2500-438', '', ( #111 ) ) ;
#526 = DIRECTION ( 'NONE',  ( 0.000000000000000000, 0.000000000000000000, 1.000000000000000000 ) ) ;
#527 =( NAMED_UNIT ( * ) PLANE_ANGLE_UNIT ( ) SI_UNIT ( $, .RADIAN. ) );
#528 = EDGE_CURVE ( 'NONE', #1129, #690, #747, .T. ) ;
#529 = VECTOR ( 'NONE', #477, 1000.000000000000000 ) ;
#530 = ORIENTED_EDGE ( 'NONE', *, *, #77, .F. ) ;
#531 = EDGE_LOOP ( 'NONE', ( #492, #941, #734, #907 ) ) ;
#532 = TOROIDAL_SURFACE ( 'NONE', #10, -8.950628149161543590, 9.900628149161503799 ) ;
#533 = CARTESIAN_POINT ( 'NONE',  ( -2.100000000000000089, 0.000000000000000000, -2.286000000000000032 ) ) ;
#534 = ITEM_DEFINED_TRANSFORMATION ( 'NONE', 'NONE', #680,  #1158 ) ;
#535 = ORIENTED_EDGE ( 'NONE', *, *, #642, .F. ) ;
#536 = VERTEX_POINT ( 'NONE', #144 ) ;
#537 = DIRECTION ( 'NONE',  ( -1.000000000000000000, -0.000000000000000000, 0.000000000000000000 ) ) ;
#538 = CARTESIAN_POINT ( 'NONE',  ( 1.238690775967998814, -1.806354028742346048E-16, -1.475000000000000089 ) ) ;
#539 = CIRCLE ( 'NONE', #392, 9.900628149161503799 ) ;
#540 = AXIS2_PLACEMENT_3D ( 'NONE', #244, #609, #965 ) ;
#541 = B_SPLINE_CURVE_WITH_KNOTS ( 'NONE', 3,
 ( #1039, #517, #684, #49, #333, #864, #338, #957, #428, #588 ),
 .UNSPECIFIED., .F., .F.,
 ( 4, 2, 2, 2, 4 ),
 ( 2.301392501548653055E-20, 0.0004691557359840255311, 0.0009383114719680510623, 0.001407467207952076702, 0.001876622943936102125 ),
 .UNSPECIFIED. ) ;
#542 = FACE_BOUND ( 'NONE', #466, .T. ) ;
#543 = CARTESIAN_POINT ( 'NONE',  ( 0.5000000000000918154, 3.999999999999869438, -1.999999999999935385 ) ) ;
#544 = AXIS2_PLACEMENT_3D ( 'NONE', #826, #817, #372 ) ;
#545 = CARTESIAN_POINT ( 'NONE',  ( 0.000000000000000000, 0.000000000000000000, 0.000000000000000000 ) ) ;
#546 = DIRECTION ( 'NONE',  ( -0.000000000000000000, -0.000000000000000000, -1.000000000000000000 ) ) ;
#547 = FACE_OUTER_BOUND ( 'NONE', #950, .T. ) ;
#548 = AXIS2_PLACEMENT_3D ( 'NONE', #429, #339, #958 ) ;
#549 = EDGE_CURVE ( 'NONE', #472, #352, #1102, .T. ) ;
#550 = LINE ( 'NONE', #814, #250 ) ;
#551 = ORIENTED_EDGE ( 'NONE', *, *, #370, .T. ) ;
#552 = ADVANCED_FACE ( 'NONE', ( #1138 ), #32, .T. ) ;
#553 = CARTESIAN_POINT ( 'NONE',  ( 0.2500000000000002220, 9.184850993605149670E-17, 0.7500000000000000000 ) ) ;
#554 = ORIENTED_EDGE ( 'NONE', *, *, #465, .T. ) ;
#555 = AXIS2_PLACEMENT_3D ( 'NONE', #1152, #624, #877 ) ;
#556 = ORIENTED_EDGE ( 'NONE', *, *, #161, .F. ) ;
#557 = LINE ( 'NONE', #384, #1074 ) ;
#558 = SURFACE_STYLE_USAGE ( .BOTH. , #1085 ) ;
#559 = SURFACE_STYLE_USAGE ( .BOTH. , #486 ) ;
#560 = ORIENTED_EDGE ( 'NONE', *, *, #205, .F. ) ;
#561 = CARTESIAN_POINT ( 'NONE',  ( -0.1021126760563413477, 3.260563380281691348, 1.630281690140844564 ) ) ;
#562 = LINE ( 'NONE', #290, #9 ) ;
#563 = CARTESIAN_POINT ( 'NONE',  ( 0.000000000000000000, 0.000000000000000000, 0.000000000000000000 ) ) ;
#564 = CARTESIAN_POINT ( 'NONE',  ( 4.199999999999995737, 0.000000000000000000, 0.9499999999999999556 ) ) ;
#565 = VERTEX_POINT ( 'NONE', #1045 ) ;
#566 = DIRECTION ( 'NONE',  ( 0.000000000000000000, 0.000000000000000000, -1.000000000000000000 ) ) ;
#567 = LINE ( 'NONE', #22, #776 ) ;
#568 = CARTESIAN_POINT ( 'NONE',  ( 4.000000000000003553, 9.184850993605149670E-17, 0.7500000000000000000 ) ) ;
#569 = APPLICATION_PROTOCOL_DEFINITION ( 'draft international standard', 'automotive_design', 1998, #714 ) ;
#570 = VERTEX_POINT ( 'NONE', #232 ) ;
#571 = COLOUR_RGB ( '',0.6862745098039215730, 0.6078431372549019107, 0.5294117647058823595 ) ;
#572 =( NAMED_UNIT ( * ) SI_UNIT ( $, .STERADIAN. ) SOLID_ANGLE_UNIT ( ) );
#573 = EDGE_CURVE ( 'NONE', #377, #852, #541, .T. ) ;
#574 = CARTESIAN_POINT ( 'NONE',  ( 1.749999999999999112, 3.350000000000000089, 2.286000000000000032 ) ) ;
#575 = CARTESIAN_POINT ( 'NONE',  ( 2.999999999999864109, 6.017322057294549609E-14, -8.950628149161543590 ) ) ;
#576 = CARTESIAN_POINT ( 'NONE',  ( 0.2500000000000002220, 0.000000000000000000, 0.000000000000000000 ) ) ;
#577 = PRODUCT_DEFINITION ( 'UNKNOWN', '', #825, #158 ) ;
#578 = PRESENTATION_LAYER_ASSIGNMENT (  '', '', ( #1077 ) ) ;
#579 = DIRECTION ( 'NONE',  ( -1.000000000000000000, 0.000000000000000000, 0.000000000000000000 ) ) ;
#580 = CARTESIAN_POINT ( 'NONE',  ( 4.199999999999995737, 1.163414459189985682E-16, -0.9499999999999999556 ) ) ;
#581 = LINE ( 'NONE', #117, #862 ) ;
#582 = ITEM_DEFINED_TRANSFORMATION ( 'NONE', 'NONE', #373,  #861 ) ;
#583 = EDGE_CURVE ( 'NONE', #852, #377, #780, .T. ) ;
#584 = ORIENTED_EDGE ( 'NONE', *, *, #925, .F. ) ;
#585 = EDGE_CURVE ( 'NONE', #694, #154, #143, .T. ) ;
#586 =( LENGTH_UNIT ( ) NAMED_UNIT ( * ) SI_UNIT ( .MILLI., .METRE. ) );
#587 = DIRECTION ( 'NONE',  ( 0.000000000000000000, -0.000000000000000000, -1.000000000000000000 ) ) ;
#588 = CARTESIAN_POINT ( 'NONE',  ( 4.595750661335919044E-13, 7.500000000000333955, 0.6000000000041715298 ) ) ;
#589 = EDGE_CURVE ( 'NONE', #565, #321, #246, .T. ) ;
#590 = CARTESIAN_POINT ( 'NONE',  ( 0.2687352311006459549, 0.000000000000000000, 1.674603520776331678 ) ) ;
#591 = DIRECTION ( 'NONE',  ( 0.000000000000000000, 0.000000000000000000, 1.000000000000000000 ) ) ;
#593 = APPLICATION_CONTEXT ( 'automotive_design' ) ;
#592 = SHAPE_DEFINITION_REPRESENTATION ( #798, #453 ) ;
#594 = VERTEX_POINT ( 'NONE', #611 ) ;
#595 = ADVANCED_FACE ( 'NONE', ( #413 ), #813, .T. ) ;
#596 = ORIENTED_EDGE ( 'NONE', *, *, #308, .F. ) ;
#597 = DIRECTION ( 'NONE',  ( -0.000000000000000000, -0.000000000000000000, 1.000000000000000000 ) ) ;
#598 = CARTESIAN_POINT ( 'NONE',  ( 0.2499999999999988343, -4.000000000000001776, -2.000000000000000888 ) ) ;
#599 = DIRECTION ( 'NONE',  ( 1.000000000000000000, 0.000000000000000000, 0.000000000000000000 ) ) ;
#600 = ORIENTED_EDGE ( 'NONE', *, *, #161, .T. ) ;
#601 = ORIENTED_EDGE ( 'NONE', *, *, #573, .T. ) ;
#602 = DIRECTION ( 'NONE',  ( -1.000000000000000000, 0.000000000000000000, 0.000000000000000000 ) ) ;
#603 = DIRECTION ( 'NONE',  ( 0.000000000000000000, 0.000000000000000000, 1.000000000000000000 ) ) ;
#604 = ADVANCED_BREP_SHAPE_REPRESENTATION ( '', ( #34, #1158 ), #479 ) ;
#605 = CARTESIAN_POINT ( 'NONE',  ( 0.000000000000000000, 7.500000000000000000, 0.000000000000000000 ) ) ;
#606 = CIRCLE ( 'NONE', #1052, 0.5999999999999999778 ) ;
#607 = CARTESIAN_POINT ( 'NONE',  ( 1.238690775967998814, 0.000000000000000000, 1.475000000000000089 ) ) ;
#608 = PRODUCT ( '228-2500-438-01 Rev1_228-2500-438-01', '228-2500-438-01 Rev1_228-2500-438-01', '', ( #313 ) ) ;
#609 = DIRECTION ( 'NONE',  ( -1.000000000000000000, 0.000000000000000000, 0.000000000000000000 ) ) ;
#610 = EDGE_CURVE ( 'NONE', #774, #186, #606, .T. ) ;
#611 = CARTESIAN_POINT ( 'NONE',  ( 4.000000000000000000, 6.344288770224760121, 2.286000000000000032 ) ) ;
#612 = AXIS2_PLACEMENT_3D ( 'NONE', #496, #58, #1134 ) ;
#613 = CARTESIAN_POINT ( 'NONE',  ( -2.100000000000000089, 0.000000000000000000, 2.286000000000000032 ) ) ;
#614 = AXIS2_PLACEMENT_3D ( 'NONE', #461, #1027, #219 ) ;
#615 = ORIENTED_EDGE ( 'NONE', *, *, #589, .T. ) ;
#616 = PRODUCT_DEFINITION_CONTEXT ( 'detailed design', #1154, 'design' ) ;
#617 = CARTESIAN_POINT ( 'NONE',  ( 0.2687352311006460659, 2.550792958447335668, -1.275396479223668278 ) ) ;
#618 = ORIENTED_EDGE ( 'NONE', *, *, #642, .T. ) ;
#619 = EDGE_CURVE ( 'NONE', #690, #1036, #395, .T. ) ;
#620 = ORIENTED_EDGE ( 'NONE', *, *, #94, .F. ) ;
#621 = PRODUCT_DEFINITION_FORMATION_WITH_SPECIFIED_SOURCE ( 'ANY', '', #407, .NOT_KNOWN. ) ;
#622 = CARTESIAN_POINT ( 'NONE',  ( 0.2687352311006459549, 3.349207041552663355, -1.674603520776332344 ) ) ;
#623 = ORIENTED_EDGE ( 'NONE', *, *, #14, .F. ) ;
#624 = DIRECTION ( 'NONE',  ( -0.000000000000000000, -0.000000000000000000, -1.000000000000000000 ) ) ;
#625 = DIRECTION ( 'NONE',  ( -1.000000000000000000, -0.000000000000000000, -0.000000000000000000 ) ) ;
#626 = AXIS2_PLACEMENT_3D ( 'NONE', #350, #803, #343 ) ;
#627 = ITEM_DEFINED_TRANSFORMATION ( 'NONE', 'NONE', #782,  #1158 ) ;
#628 = EDGE_CURVE ( 'NONE', #401, #80, #454, .T. ) ;
#629 = CARTESIAN_POINT ( 'NONE',  ( 0.2500000000000002220, 0.000000000000000000, -0.7500000000000000000 ) ) ;
#630 = CARTESIAN_POINT ( 'NONE',  ( 0.2687352311006459549, 3.349207041552663355, 1.674603520776331234 ) ) ;
#631 = FACE_OUTER_BOUND ( 'NONE', #387, .T. ) ;
#632 = CIRCLE ( 'NONE', #434, 0.7500000000000000000 ) ;
#633 = DIRECTION ( 'NONE',  ( 0.000000000000000000, 0.000000000000000000, 1.000000000000000000 ) ) ;
#634 = ADVANCED_FACE ( 'NONE', ( #1121 ), #200, .F. ) ;
#635 = UNCERTAINTY_MEASURE_WITH_UNIT (LENGTH_MEASURE( 1.000000000000000082E-05 ), #493, 'distance_accuracy_value', 'NONE');
#636 = ORIENTED_EDGE ( 'NONE', *, *, #94, .T. ) ;
#637 = PRODUCT_DEFINITION_FORMATION_WITH_SPECIFIED_SOURCE ( 'ANY', '', #525, .NOT_KNOWN. ) ;
#638 = DIRECTION ( 'NONE',  ( 0.000000000000000000, 0.000000000000000000, -1.000000000000000000 ) ) ;
#639 =( NAMED_UNIT ( * ) SI_UNIT ( $, .STERADIAN. ) SOLID_ANGLE_UNIT ( ) );
#640 = CARTESIAN_POINT ( 'NONE',  ( 2.999999999999988898, 6.711889074043079042E-15, -8.808942506911560211E-17 ) ) ;
#641 = ORIENTED_EDGE ( 'NONE', *, *, #819, .T. ) ;
#642 = EDGE_CURVE ( 'NONE', #280, #323, #1153, .T. ) ;
#643 = FACE_BOUND ( 'NONE', #25, .T. ) ;
#644 = EDGE_LOOP ( 'NONE', ( #43, #874, #1161, #19 ) ) ;
#645 = COLOUR_RGB ( '',0.1450980392156862586, 0.1568627450980392135, 0.1647058823529411742 ) ;
#646 = ORIENTED_EDGE ( 'NONE', *, *, #248, .T. ) ;
#647 = CARTESIAN_POINT ( 'NONE',  ( 0.000000000000000000, 4.850000000000000533, 0.000000000000000000 ) ) ;
#648 = CIRCLE ( 'NONE', #487, 0.9062499999999998890 ) ;
#649 = ORIENTED_EDGE ( 'NONE', *, *, #145, .T. ) ;
#650 = EDGE_LOOP ( 'NONE', ( #74, #7, #869, #1003 ) ) ;
#651 = CARTESIAN_POINT ( 'NONE',  ( 0.2499999999999988065, 5.982789369074922193E-16, 2.000000000000001332 ) ) ;
#652 = DIRECTION ( 'NONE',  ( -0.000000000000000000, -0.000000000000000000, -1.000000000000000000 ) ) ;
#653 = VECTOR ( 'NONE', #355, 1000.000000000000000 ) ;
#654 = FACE_OUTER_BOUND ( 'NONE', #839, .T. ) ;
#655 = LINE ( 'NONE', #564, #1147 ) ;
#656 =( NAMED_UNIT ( * ) PLANE_ANGLE_UNIT ( ) SI_UNIT ( $, .RADIAN. ) );
#657 = CARTESIAN_POINT ( 'NONE',  ( -1.750000000000000444, 3.350000000000000089, -2.286000000000000032 ) ) ;
#658 = PLANE ( 'NONE',  #883 ) ;
#659 = CARTESIAN_POINT ( 'NONE',  ( 0.5000000000000004441, 0.000000000000000000, 0.9499999999999999556 ) ) ;
#660 = APPLICATION_PROTOCOL_DEFINITION ( 'draft international standard', 'automotive_design', 1998, #409 ) ;
#661 = ORIENTED_EDGE ( 'NONE', *, *, #465, .F. ) ;
#662 = VECTOR ( 'NONE', #778, 1000.000000000000000 ) ;
#663 = CARTESIAN_POINT ( 'NONE',  ( 0.2499999999999986955, -2.002687271846017552E-16, -0.7499999999999983347 ) ) ;
#664 = FACE_OUTER_BOUND ( 'NONE', #195, .T. ) ;
#665 = CARTESIAN_POINT ( 'NONE',  ( 2.999999999999984013, 5.161492250957792086E-29, 0.9499999999999722000 ) ) ;
#667 = DIRECTION ( 'NONE',  ( 1.000000000000000000, 0.000000000000000000, 0.000000000000000000 ) ) ;
#666 =( REPRESENTATION_RELATIONSHIP ('NONE','NONE', #53, #453 ) REPRESENTATION_RELATIONSHIP_WITH_TRANSFORMATION ( #627 )SHAPE_REPRESENTATION_RELATIONSHIP( ) );
#668 = ORIENTED_EDGE ( 'NONE', *, *, #46, .F. ) ;
#669 = CIRCLE ( 'NONE', #914, 0.7500000000000000000 ) ;
#670 = SURFACE_STYLE_USAGE ( .BOTH. , #1127 ) ;
#671 = AXIS2_PLACEMENT_3D ( 'NONE', #403, #1030, #381 ) ;
#672 = AXIS2_PLACEMENT_3D ( 'NONE', #121, #1132, #319 ) ;
#673 = DIRECTION ( 'NONE',  ( 0.000000000000000000, 0.000000000000000000, 1.000000000000000000 ) ) ;
#674 = CARTESIAN_POINT ( 'NONE',  ( 0.2499999999999988065, -3.091583575780234499E-16, -2.000000000000001332 ) ) ;
#675 = EDGE_CURVE ( 'NONE', #694, #536, #449, .T. ) ;
#676 = CARTESIAN_POINT ( 'NONE',  ( 0.2687352311006460659, 0.000000000000000000, 1.275396479223668056 ) ) ;
#677 =( LENGTH_UNIT ( ) NAMED_UNIT ( * ) SI_UNIT ( .MILLI., .METRE. ) );
#678 = APPLICATION_PROTOCOL_DEFINITION ( 'draft international standard', 'automotive_design', 1998, #467 ) ;
#679 = ORIENTED_EDGE ( 'NONE', *, *, #585, .T. ) ;
#680 = AXIS2_PLACEMENT_3D ( 'NONE', #755, #946, #212 ) ;
#681 = PRODUCT_DEFINITION_SHAPE ( 'NONE', 'NONE',  #789 ) ;
#682 = ORIENTED_EDGE ( 'NONE', *, *, #414, .F. ) ;
#683 = LINE ( 'NONE', #931, #1079 ) ;
#684 = CARTESIAN_POINT ( 'NONE',  ( 0.3136945355869887875, 7.494256357157092374, -0.5348752566402069641 ) ) ;
#685 = EDGE_CURVE ( 'NONE', #154, #805, #254, .T. ) ;
#686 = FILL_AREA_STYLE ('',( #40 ) ) ;
#687 = CARTESIAN_POINT ( 'NONE',  ( 4.199999999999995737, 0.000000000000000000, 0.000000000000000000 ) ) ;
#688 = ORIENTED_EDGE ( 'NONE', *, *, #519, .F. ) ;
#689 =( NAMED_UNIT ( * ) SI_UNIT ( $, .STERADIAN. ) SOLID_ANGLE_UNIT ( ) );
#690 = VERTEX_POINT ( 'NONE', #809 ) ;
#691 = CIRCLE ( 'NONE', #759, 0.9499999999999999556 ) ;
#692 = CARTESIAN_POINT ( 'NONE',  ( 2.999999999999864109, 6.017322057294549609E-14, -6.162975822039154730E-30 ) ) ;
#693 = CARTESIAN_POINT ( 'NONE',  ( 0.000000000000000000, 0.000000000000000000, 2.286000000000000032 ) ) ;
#694 = VERTEX_POINT ( 'NONE', #720 ) ;
#695 = PRODUCT_RELATED_PRODUCT_CATEGORY ( 'part', '', ( #608 ) ) ;
#696 = CARTESIAN_POINT ( 'NONE',  ( -142.9500000000000171, 7.347880794884117764E-17, -0.5999999999999999778 ) ) ;
#697 = AXIS2_PLACEMENT_3D ( 'NONE', #924, #183, #93 ) ;
#698 = CARTESIAN_POINT ( 'NONE',  ( -0.1021126760563414587, -2.239436619718307764, 1.119718309859154326 ) ) ;
#699 = DIRECTION ( 'NONE',  ( 0.000000000000000000, -1.224646799147353947E-16, 1.000000000000000000 ) ) ;
#700 = AXIS2_PLACEMENT_3D ( 'NONE', #863, #301, #317 ) ;
#701 = AXIS2_PLACEMENT_3D ( 'NONE', #510, #526, #71 ) ;
#702 = CARTESIAN_POINT ( 'NONE',  ( -0.5346667145442909330, 7.481739413329378863, 0.3140147453012965828 ) ) ;
#703 = PRODUCT_DEFINITION ( 'UNKNOWN', '', #1032, #766 ) ;
#704 = PLANE ( 'NONE',  #968 ) ;
#705 = CARTESIAN_POINT ( 'NONE',  ( 0.5000000000000918154, 4.898587196589254070E-16, 1.999999999999934941 ) ) ;
#706 = CIRCLE ( 'NONE', #612, 0.7500000000000000000 ) ;
#707 = EDGE_CURVE ( 'NONE', #1129, #799, #873, .T. ) ;
#708 = AXIS2_PLACEMENT_3D ( 'NONE', #90, #1014, #724 ) ;
#709 = EDGE_CURVE ( 'NONE', #229, #890, #1163, .T. ) ;
#710 = ORIENTED_EDGE ( 'NONE', *, *, #1048, .T. ) ;
#711 = ORIENTED_EDGE ( 'NONE', *, *, #962, .T. ) ;
#712 = FACE_OUTER_BOUND ( 'NONE', #75, .T. ) ;
#713 = UNCERTAINTY_MEASURE_WITH_UNIT (LENGTH_MEASURE( 1.000000000000000082E-05 ), #586, 'distance_accuracy_value', 'NONE');
#714 = APPLICATION_CONTEXT ( 'automotive_design' ) ;
#715 = CARTESIAN_POINT ( 'NONE',  ( 0.2687352311006459549, 4.101595683119246066E-16, 1.674603520776331678 ) ) ;
#716 = ORIENTED_EDGE ( 'NONE', *, *, #995, .T. ) ;
#717 = EDGE_LOOP ( 'NONE', ( #977, #947, #556, #1075 ) ) ;
#718 = CARTESIAN_POINT ( 'NONE',  ( 4.000000000000003553, 6.017322057294549609E-14, -6.162975822039154730E-30 ) ) ;
#719 = VECTOR ( 'NONE', #625, 1000.000000000000000 ) ;
#720 = CARTESIAN_POINT ( 'NONE',  ( 142.9500000000000171, 0.000000000000000000, 0.5999999999999999778 ) ) ;
#721 = CARTESIAN_POINT ( 'NONE',  ( 2.100000000000000089, 2.571758278209441957E-16, -2.286000000000000032 ) ) ;
#722 = FACE_OUTER_BOUND ( 'NONE', #105, .T. ) ;
#723 = CARTESIAN_POINT ( 'NONE',  ( -0.1021126760563413616, 5.077240679564552842E-16, 1.630281690140845896 ) ) ;
#724 = DIRECTION ( 'NONE',  ( 5.021567956775114176E-15, 0.000000000000000000, -1.000000000000000000 ) ) ;
#725 = ORIENTED_EDGE ( 'NONE', *, *, #528, .F. ) ;
#726 = DIRECTION ( 'NONE',  ( 0.000000000000000000, -1.000000000000000000, 0.000000000000000000 ) ) ;
#727 = DIRECTION ( 'NONE',  ( 1.000000000000000000, 0.000000000000000000, 0.000000000000000000 ) ) ;
#728 = DIRECTION ( 'NONE',  ( 0.000000000000000000, 0.000000000000000000, 1.000000000000000000 ) ) ;
#729 = APPLICATION_CONTEXT ( 'automotive_design' ) ;
#730 = ORIENTED_EDGE ( 'NONE', *, *, #925, .T. ) ;
#731 = CARTESIAN_POINT ( 'NONE',  ( 7.347880794884117764E-17, 4.850000000000000533, 0.5999999999999999778 ) ) ;
#732 =( LENGTH_UNIT ( ) NAMED_UNIT ( * ) SI_UNIT ( .MILLI., .METRE. ) );
#733 = EDGE_LOOP ( 'NONE', ( #615, #661, #99, #345 ) ) ;
#734 = ORIENTED_EDGE ( 'NONE', *, *, #6, .T. ) ;
#735 = DIRECTION ( 'NONE',  ( -1.000000000000000000, -0.000000000000000000, 0.000000000000000000 ) ) ;
#736 = DIRECTION ( 'NONE',  ( 0.000000000000000000, 0.000000000000000000, 1.000000000000000000 ) ) ;
#737 = ORIENTED_EDGE ( 'NONE', *, *, #471, .F. ) ;
#738 = VERTEX_POINT ( 'NONE', #533 ) ;
#739 = CYLINDRICAL_SURFACE ( 'NONE', #1124, 0.7500000000000000000 ) ;
#740 = VECTOR ( 'NONE', #104, 1000.000000000000000 ) ;
#741 = FACE_BOUND ( 'NONE', #38, .T. ) ;
#742 = DIRECTION ( 'NONE',  ( -1.000000000000000000, 0.000000000000000000, 0.000000000000000000 ) ) ;
#743 = ORIENTED_EDGE ( 'NONE', *, *, #685, .T. ) ;
#744 = PRODUCT_RELATED_PRODUCT_CATEGORY ( 'part', '', ( #787 ) ) ;
#745 = CARTESIAN_POINT ( 'NONE',  ( 0.2499999999999987232, 1.499999999999996669, 0.7499999999999978906 ) ) ;
#746 = DIRECTION ( 'NONE',  ( -1.000000000000000000, 0.000000000000000000, 0.000000000000000000 ) ) ;
#747 = CIRCLE ( 'NONE', #548, 2.000000000000000000 ) ;
#748 = CARTESIAN_POINT ( 'NONE',  ( -1.750000000000000444, 3.350000000000000089, 2.286000000000000032 ) ) ;
#749 = PRODUCT_DEFINITION_SHAPE ( 'NONE', 'NONE',  #1170 ) ;
#750 = PRESENTATION_STYLE_ASSIGNMENT (( #559 ) ) ;
#751 = ADVANCED_FACE ( 'NONE', ( #444, #722 ), #1069, .T. ) ;
#752 = DIRECTION ( 'NONE',  ( 1.000000000000000000, 0.000000000000000000, -0.000000000000000000 ) ) ;
#753 = DIRECTION ( 'NONE',  ( 1.000000000000000000, 0.000000000000000000, 0.000000000000000000 ) ) ;
#754 = CARTESIAN_POINT ( 'NONE',  ( 4.000000000000000000, 6.344288770224760121, -2.286000000000000032 ) ) ;
#755 = CARTESIAN_POINT ( 'NONE',  ( 146.0500000000000114, 0.000000000000000000, 0.000000000000000000 ) ) ;
#756 = ORIENTED_EDGE ( 'NONE', *, *, #172, .F. ) ;
#757 = EDGE_CURVE ( 'NONE', #594, #1061, #1159, .T. ) ;
#758 = AXIS2_PLACEMENT_3D ( 'NONE', #312, #139, #227 ) ;
#759 = AXIS2_PLACEMENT_3D ( 'NONE', #268, #810, #834 ) ;
#760 = CARTESIAN_POINT ( 'NONE',  ( 0.2499999999999987232, 1.499999999999996003, -0.7499999999999987788 ) ) ;
#761 = DIRECTION ( 'NONE',  ( 0.000000000000000000, 0.000000000000000000, -1.000000000000000000 ) ) ;
#762 = CARTESIAN_POINT ( 'NONE',  ( 4.199999999999995737, 0.000000000000000000, 0.000000000000000000 ) ) ;
#763 = CARTESIAN_POINT ( 'NONE',  ( 0.000000000000000000, 0.000000000000000000, -2.286000000000000032 ) ) ;
#764 = EDGE_LOOP ( 'NONE', ( #87, #820, #921, #584 ) ) ;
#765 = EDGE_CURVE ( 'NONE', #536, #805, #879, .T. ) ;
#766 = PRODUCT_DEFINITION_CONTEXT ( 'detailed design', #159, 'design' ) ;
#767 = CARTESIAN_POINT ( 'NONE',  ( -1.750000000000000666, 4.850000000000000533, -2.286000000000000032 ) ) ;
#768 = CARTESIAN_POINT ( 'NONE',  ( 0.2499999999999988343, -4.000000000000001776, 2.000000000000001332 ) ) ;
#769 = LINE ( 'NONE', #919, #529 ) ;
#770 = ADVANCED_FACE ( 'NONE', ( #452 ), #337, .F. ) ;
#771 = CARTESIAN_POINT ( 'NONE',  ( 4.000000000000000000, 0.000000000000000000, 2.286000000000000032 ) ) ;
#772 = ORIENTED_EDGE ( 'NONE', *, *, #172, .T. ) ;
#773 = PRESENTATION_STYLE_ASSIGNMENT (( #670 ) ) ;
#774 = VERTEX_POINT ( 'NONE', #330 ) ;
#775 = CARTESIAN_POINT ( 'NONE',  ( -0.3132723953653721582, 7.494274718137164726, 0.5351020110317906697 ) ) ;
#776 = VECTOR ( 'NONE', #1006, 1000.000000000000000 ) ;
#777 = CARTESIAN_POINT ( 'NONE',  ( 4.000000000000003553, 6.028646174532930203E-14, -0.8993686908363700550 ) ) ;
#778 = DIRECTION ( 'NONE',  ( -0.000000000000000000, -1.000000000000000000, -0.000000000000000000 ) ) ;
#779 = VERTEX_POINT ( 'NONE', #349 ) ;
#780 = B_SPLINE_CURVE_WITH_KNOTS ( 'NONE', 3,
 ( #501, #237, #775, #702, #142, #943, #324, #147, #1150, #1054 ),
 .UNSPECIFIED., .F., .F.,
 ( 4, 2, 2, 2, 4 ),
 ( 0.001876622943936102125, 0.002345670139209626252, 0.002814717334483150379, 0.003283764529756674072, 0.003752811725030198199 ),
 .UNSPECIFIED. ) ;
#781 = DIRECTION ( 'NONE',  ( 0.000000000000000000, 1.000000000000000000, 0.000000000000000000 ) ) ;
#782 = AXIS2_PLACEMENT_3D ( 'NONE', #545, #184, #1090 ) ;
#783 = ORIENTED_EDGE ( 'NONE', *, *, #845, .T. ) ;
#784 = CIRCLE ( 'NONE', #328, 0.8993686908363700550 ) ;
#785 = FACE_OUTER_BOUND ( 'NONE', #11, .T. ) ;
#786 = ADVANCED_FACE ( 'NONE', ( #982 ), #888, .F. ) ;
#787 = PRODUCT ( '228-2500-ROPE-OVERMOLD-MASTER Rev1_228-3201-ROPE-OVERMOLD-MASTER', '228-2500-ROPE-OVERMOLD-MASTER Rev1_228-3201-ROPE-OVERMOLD-MASTER', '', ( #485 ) ) ;
#788 =( NAMED_UNIT ( * ) SI_UNIT ( $, .STERADIAN. ) SOLID_ANGLE_UNIT ( ) );
#789 = PRODUCT_DEFINITION ( 'UNKNOWN', '', #455, #616 ) ;
#790 = DIRECTION ( 'NONE',  ( 0.000000000000000000, -1.000000000000000000, 0.000000000000000000 ) ) ;
#791 = SURFACE_SIDE_STYLE ('',( #1040 ) ) ;
#792 = VECTOR ( 'NONE', #597, 1000.000000000000000 ) ;
#793 =( GEOMETRIC_REPRESENTATION_CONTEXT ( 3 ) GLOBAL_UNCERTAINTY_ASSIGNED_CONTEXT ( ( #967 ) ) GLOBAL_UNIT_ASSIGNED_CONTEXT ( ( #844, #851, #123 ) ) REPRESENTATION_CONTEXT ( 'NONE', 'WORKASPACE' ) );
#794 = FACE_OUTER_BOUND ( 'NONE', #650, .T. ) ;
#795 =( REPRESENTATION_RELATIONSHIP ('NONE','NONE', #53, #331 ) REPRESENTATION_RELATIONSHIP_WITH_TRANSFORMATION ( #174 )SHAPE_REPRESENTATION_RELATIONSHIP( ) );
#796 = EDGE_CURVE ( 'NONE', #472, #570, #784, .T. ) ;
#797 = DIRECTION ( 'NONE',  ( -1.000000000000000000, -0.000000000000000000, -0.000000000000000000 ) ) ;
#798 = PRODUCT_DEFINITION_SHAPE ( 'NONE', 'NONE',  #703 ) ;
#799 = VERTEX_POINT ( 'NONE', #341 ) ;
#800 = ADVANCED_FACE ( 'NONE', ( #157 ), #704, .T. ) ;
#801 = EDGE_LOOP ( 'NONE', ( #535, #458, #298, #530 ) ) ;
#802 = FILL_AREA_STYLE_COLOUR ( '', #571 ) ;
#803 = DIRECTION ( 'NONE',  ( -0.000000000000000000, -0.000000000000000000, -1.000000000000000000 ) ) ;
#804 = ORIENTED_EDGE ( 'NONE', *, *, #860, .T. ) ;
#805 = VERTEX_POINT ( 'NONE', #696 ) ;
#806 = PRESENTATION_STYLE_ASSIGNMENT (( #1157 ) ) ;
#807 = STYLED_ITEM ( 'NONE', ( #750 ), #34 ) ;
#808 = ADVANCED_FACE ( 'NONE', ( #542, #712 ), #448, .F. ) ;
#809 = CARTESIAN_POINT ( 'NONE',  ( 0.5000000000000004441, 0.000000000000000000, 2.000000000000000000 ) ) ;
#810 = DIRECTION ( 'NONE',  ( 1.000000000000000000, -0.000000000000000000, -0.000000000000000000 ) ) ;
#811 = VECTOR ( 'NONE', #870, 1000.000000000000000 ) ;
#812 = CARTESIAN_POINT ( 'NONE',  ( -1.750000000000000666, 4.850000000000000533, 2.286000000000000032 ) ) ;
#813 =( BOUNDED_SURFACE ( )  B_SPLINE_SURFACE ( 3, 3, ( 
 ( #310, #768, #598, #674 ),
 ( #1145, #422, #67, #224 ),
 ( #951, #698, #1051, #521 ),
 ( #431, #126, #880, #1131 ) ),
 .UNSPECIFIED., .F., .F., .T. ) 
 B_SPLINE_SURFACE_WITH_KNOTS ( ( 4, 4 ),
 ( 4, 4 ),
 ( 0.000000000000000000, 1.000000000000000000 ),
 ( 0.000000000000000000, 1.000000000000000000 ),
 .UNSPECIFIED. ) 
 GEOMETRIC_REPRESENTATION_ITEM ( )  RATIONAL_B_SPLINE_SURFACE ( (
 ( 1.000000000000000000, 0.3333333333333334259, 0.3333333333333334259, 1.000000000000000000),
 ( 0.8160919540229875091, 0.2720306513409959104, 0.2720306513409959104, 0.8160919540229875091),
 ( 0.8160919540229875091, 0.2720306513409959104, 0.2720306513409959104, 0.8160919540229875091),
 ( 1.000000000000000000, 0.3333333333333334259, 0.3333333333333334259, 1.000000000000000000) ) ) 
 REPRESENTATION_ITEM ( '' )  SURFACE ( )  );
#814 = CARTESIAN_POINT ( 'NONE',  ( 0.000000000000000000, 7.500000000000000000, -0.5999999999999999778 ) ) ;
#815 = UNCERTAINTY_MEASURE_WITH_UNIT (LENGTH_MEASURE( 1.000000000000000082E-05 ), #1072, 'distance_accuracy_value', 'NONE');
#816 = ORIENTED_EDGE ( 'NONE', *, *, #619, .F. ) ;
#817 = DIRECTION ( 'NONE',  ( 1.000000000000000000, 0.000000000000000000, 0.000000000000000000 ) ) ;
#818 = AXIS2_PLACEMENT_3D ( 'NONE', #181, #850, #86 ) ;
#819 = EDGE_CURVE ( 'NONE', #1108, #141, #209, .T. ) ;
#820 = ORIENTED_EDGE ( 'NONE', *, *, #1081, .T. ) ;
#821 = MANIFOLD_SOLID_BREP ( 'Imported1', #136 ) ;
#822 = FACE_OUTER_BOUND ( 'NONE', #1056, .T. ) ;
#823 = CARTESIAN_POINT ( 'NONE',  ( -1.750000000000000666, 4.850000000000000533, -2.286000000000000032 ) ) ;
#824 = EDGE_LOOP ( 'NONE', ( #60, #954, #1086, #560 ) ) ;
#825 = PRODUCT_DEFINITION_FORMATION_WITH_SPECIFIED_SOURCE ( 'ANY', '', #1104, .NOT_KNOWN. ) ;
#826 = CARTESIAN_POINT ( 'NONE',  ( -142.9500000000000171, 0.000000000000000000, 0.000000000000000000 ) ) ;
#827 = APPLICATION_CONTEXT ( 'automotive_design' ) ;
#828 =( NAMED_UNIT ( * ) PLANE_ANGLE_UNIT ( ) SI_UNIT ( $, .RADIAN. ) );
#829 = CARTESIAN_POINT ( 'NONE',  ( -1.750000000000000444, 3.350000000000000089, 2.286000000000000032 ) ) ;
#830 = AXIS2_PLACEMENT_3D ( 'NONE', #222, #294, #579 ) ;
#831 = ORIENTED_EDGE ( 'NONE', *, *, #430, .T. ) ;
#832 = DIRECTION ( 'NONE',  ( 0.000000000000000000, 0.000000000000000000, 1.000000000000000000 ) ) ;
#833 = CARTESIAN_POINT ( 'NONE',  ( 0.5000000000000918154, 0.000000000000000000, 1.999999999999934941 ) ) ;
#834 = DIRECTION ( 'NONE',  ( 0.000000000000000000, 0.000000000000000000, 1.000000000000000000 ) ) ;
#835 = AXIS2_PLACEMENT_3D ( 'NONE', #904, #285, #89 ) ;
#836 =( NAMED_UNIT ( * ) SI_UNIT ( $, .STERADIAN. ) SOLID_ANGLE_UNIT ( ) );
#837 = AXIS2_PLACEMENT_3D ( 'NONE', #360, #1067, #490 ) ;
#838 = ORIENTED_EDGE ( 'NONE', *, *, #796, .F. ) ;
#839 = EDGE_LOOP ( 'NONE', ( #134, #756 ) ) ;
#840 = EDGE_CURVE ( 'NONE', #1023, #446, #462, .T. ) ;
#841 = DIRECTION ( 'NONE',  ( 0.000000000000000000, -1.000000000000000000, 0.000000000000000000 ) ) ;
#842 = CARTESIAN_POINT ( 'NONE',  ( 0.5000000000000920375, -1.900000000000130029, -0.9500000000000650147 ) ) ;
#843 = PLANE ( 'NONE',  #614 ) ;
#844 =( LENGTH_UNIT ( ) NAMED_UNIT ( * ) SI_UNIT ( .MILLI., .METRE. ) );
#845 = EDGE_CURVE ( 'NONE', #197, #408, #1162, .T. ) ;
#846 = ORIENTED_EDGE ( 'NONE', *, *, #628, .F. ) ;
#847 = CARTESIAN_POINT ( 'NONE',  ( 1.749999999999999334, 4.850000000000000533, 2.286000000000000032 ) ) ;
#848 = EDGE_CURVE ( 'NONE', #506, #1061, #426, .T. ) ;
#849 = FACE_OUTER_BOUND ( 'NONE', #1099, .T. ) ;
#850 = DIRECTION ( 'NONE',  ( -1.000000000000000000, -0.000000000000000000, -0.000000000000000000 ) ) ;
#851 =( NAMED_UNIT ( * ) PLANE_ANGLE_UNIT ( ) SI_UNIT ( $, .RADIAN. ) );
#852 = VERTEX_POINT ( 'NONE', #1143 ) ;
#853 = FACE_OUTER_BOUND ( 'NONE', #287, .T. ) ;
#854 = LINE ( 'NONE', #423, #128 ) ;
#855 = CARTESIAN_POINT ( 'NONE',  ( 0.5000000000000004441, 2.449293598294706414E-16, -2.000000000000000000 ) ) ;
#856 = APPLICATION_PROTOCOL_DEFINITION ( 'draft international standard', 'automotive_design', 1998, #1004 ) ;
#857 = ORIENTED_EDGE ( 'NONE', *, *, #993, .F. ) ;
#858 = ADVANCED_FACE ( 'NONE', ( #150 ), #1050, .F. ) ;
#859 =( GEOMETRIC_REPRESENTATION_CONTEXT ( 3 ) GLOBAL_UNCERTAINTY_ASSIGNED_CONTEXT ( ( #135 ) ) GLOBAL_UNIT_ASSIGNED_CONTEXT ( ( #511, #527, #871 ) ) REPRESENTATION_CONTEXT ( 'NONE', 'WORKASPACE' ) );
#860 = EDGE_CURVE ( 'NONE', #690, #1129, #1116, .T. ) ;
#861 = AXIS2_PLACEMENT_3D ( 'NONE', #1098, #736, #727 ) ;
#862 = VECTOR ( 'NONE', #1113, 1000.000000000000000 ) ;
#863 = CARTESIAN_POINT ( 'NONE',  ( 0.000000000000000000, 0.000000000000000000, 2.286000000000000032 ) ) ;
#864 = CARTESIAN_POINT ( 'NONE',  ( 0.6000563111324564991, 7.475956957250750712, 0.1563901809328014925 ) ) ;
#865 = CYLINDRICAL_SURFACE ( 'NONE', #178, 0.5999999999999999778 ) ;
#866 = CARTESIAN_POINT ( 'NONE',  ( 1.749999999999999334, 4.850000000000000533, -2.286000000000000032 ) ) ;
#867 = APPLICATION_PROTOCOL_DEFINITION ( 'draft international standard', 'automotive_design', 1998, #593 ) ;
#868 = ORIENTED_EDGE ( 'NONE', *, *, #1083, .T. ) ;
#869 = ORIENTED_EDGE ( 'NONE', *, *, #675, .T. ) ;
#870 = DIRECTION ( 'NONE',  ( -0.000000000000000000, -1.000000000000000000, -0.000000000000000000 ) ) ;
#871 =( NAMED_UNIT ( * ) SI_UNIT ( $, .STERADIAN. ) SOLID_ANGLE_UNIT ( ) );
#872 = ORIENTED_EDGE ( 'NONE', *, *, #1122, .F. ) ;
#873 = CIRCLE ( 'NONE', #514, 0.9062499999999998890 ) ;
#874 = ORIENTED_EDGE ( 'NONE', *, *, #205, .T. ) ;
#875 = CARTESIAN_POINT ( 'NONE',  ( 142.9500000000000171, 0.000000000000000000, 0.000000000000000000 ) ) ;
#876 = DIRECTION ( 'NONE',  ( -0.000000000000000000, -0.000000000000000000, -1.000000000000000000 ) ) ;
#877 = DIRECTION ( 'NONE',  ( -1.000000000000000000, 0.000000000000000000, 0.000000000000000000 ) ) ;
#878 = COLOUR_RGB ( '',0.1450980392156862586, 0.1568627450980392135, 0.1647058823529411742 ) ;
#879 = CIRCLE ( 'NONE', #302, 0.5999999999999999778 ) ;
#880 = CARTESIAN_POINT ( 'NONE',  ( 0.2499999999999987232, -1.499999999999996669, -0.7499999999999980016 ) ) ;
#881 = CARTESIAN_POINT ( 'NONE',  ( 0.000000000000000000, 0.000000000000000000, 2.286000000000000032 ) ) ;
#882 = DIRECTION ( 'NONE',  ( -0.000000000000000000, 1.000000000000000000, 0.000000000000000000 ) ) ;
#883 = AXIS2_PLACEMENT_3D ( 'NONE', #398, #753, #1026 ) ;
#884 = CARTESIAN_POINT ( 'NONE',  ( 4.000000000000000000, 0.000000000000000000, -2.286000000000000032 ) ) ;
#885 = ADVANCED_FACE ( 'NONE', ( #794 ), #933, .T. ) ;
#886 = ORIENTED_EDGE ( 'NONE', *, *, #507, .T. ) ;
#887 = ORIENTED_EDGE ( 'NONE', *, *, #709, .T. ) ;
#888 = CYLINDRICAL_SURFACE ( 'NONE', #555, 2.100000000000000089 ) ;
#889 = DIRECTION ( 'NONE',  ( 1.445602896647339163E-16, 1.000000000000000000, -0.000000000000000000 ) ) ;
#890 = VERTEX_POINT ( 'NONE', #748 ) ;
#891 = EDGE_CURVE ( 'NONE', #690, #779, #484, .T. ) ;
#892 = ORIENTED_EDGE ( 'NONE', *, *, #155, .F. ) ;
#893 = EDGE_CURVE ( 'NONE', #1129, #189, #1019, .T. ) ;
#894 = DIRECTION ( 'NONE',  ( 0.000000000000000000, 0.000000000000000000, -1.000000000000000000 ) ) ;
#895 = CARTESIAN_POINT ( 'NONE',  ( 0.2687352311006460659, 2.550792958447336112, 1.275396479223667390 ) ) ;
#896 = ADVANCED_FACE ( 'NONE', ( #36 ), #1097, .T. ) ;
#897 = DIRECTION ( 'NONE',  ( 1.000000000000000000, 0.000000000000000000, 0.000000000000000000 ) ) ;
#898 = MECHANICAL_DESIGN_GEOMETRIC_PRESENTATION_REPRESENTATION (  '', ( #807 ), #114 ) ;
#899 = DIRECTION ( 'NONE',  ( -0.000000000000000000, -0.000000000000000000, -1.000000000000000000 ) ) ;
#900 = CIRCLE ( 'NONE', #544, 0.5999999999999999778 ) ;
#901 = CARTESIAN_POINT ( 'NONE',  ( 7.347880794884117764E-17, 7.500000000000000000, 0.5999999999999999778 ) ) ;
#902 = AXIS2_PLACEMENT_3D ( 'NONE', #692, #602, #318 ) ;
#903 = FACE_OUTER_BOUND ( 'NONE', #973, .T. ) ;
#904 = CARTESIAN_POINT ( 'NONE',  ( 143.2000000000000171, 0.000000000000000000, 0.000000000000000000 ) ) ;
#905 = DIRECTION ( 'NONE',  ( -1.000000000000000000, 0.000000000000000000, 0.000000000000000000 ) ) ;
#906 = PRODUCT_RELATED_PRODUCT_CATEGORY ( 'part', '', ( #407 ) ) ;
#907 = ORIENTED_EDGE ( 'NONE', *, *, #370, .F. ) ;
#908 = CARTESIAN_POINT ( 'NONE',  ( 0.2500000000000002220, 0.000000000000000000, 0.000000000000000000 ) ) ;
#909 =( GEOMETRIC_REPRESENTATION_CONTEXT ( 3 ) GLOBAL_UNCERTAINTY_ASSIGNED_CONTEXT ( ( #257 ) ) GLOBAL_UNIT_ASSIGNED_CONTEXT ( ( #214, #322, #1024 ) ) REPRESENTATION_CONTEXT ( 'NONE', 'WORKASPACE' ) );
#910 = CIRCLE ( 'NONE', #837, 0.5999999999999999778 ) ;
#911 =( NAMED_UNIT ( * ) PLANE_ANGLE_UNIT ( ) SI_UNIT ( $, .RADIAN. ) );
#912 = FILL_AREA_STYLE ('',( #18 ) ) ;
#913 = EDGE_LOOP ( 'NONE', ( #679, #711 ) ) ;
#914 = AXIS2_PLACEMENT_3D ( 'NONE', #1089, #1094, #566 ) ;
#915 = CARTESIAN_POINT ( 'NONE',  ( 0.2500000000000002220, 0.000000000000000000, 0.000000000000000000 ) ) ;
#916 = ADVANCED_FACE ( 'NONE', ( #654 ), #843, .F. ) ;
#917 = ORIENTED_EDGE ( 'NONE', *, *, #848, .T. ) ;
#918 = CARTESIAN_POINT ( 'NONE',  ( -4.000000000000000000, 6.344288770224760121, 2.286000000000000032 ) ) ;
#919 = CARTESIAN_POINT ( 'NONE',  ( -1.750000000000000444, 3.350000000000000089, -2.286000000000000032 ) ) ;
#920 = DIRECTION ( 'NONE',  ( 0.000000000000000000, 0.000000000000000000, 1.000000000000000000 ) ) ;
#921 = ORIENTED_EDGE ( 'NONE', *, *, #68, .T. ) ;
#922 = ORIENTED_EDGE ( 'NONE', *, *, #707, .F. ) ;
#923 = EDGE_CURVE ( 'NONE', #1036, #799, #691, .T. ) ;
#924 = CARTESIAN_POINT ( 'NONE',  ( 0.000000000000000000, 0.000000000000000000, -2.286000000000000032 ) ) ;
#925 = EDGE_CURVE ( 'NONE', #377, #774, #550, .T. ) ;
#926 = FACE_OUTER_BOUND ( 'NONE', #497, .T. ) ;
#927 = DIRECTION ( 'NONE',  ( -1.000000000000000000, -0.000000000000000000, 0.000000000000000000 ) ) ;
#928 = VECTOR ( 'NONE', #65, 1000.000000000000000 ) ;
#929 = EDGE_LOOP ( 'NONE', ( #329, #783, #990, #52 ) ) ;
#930 = PRODUCT_DEFINITION_SHAPE ( 'NONE', 'NONE',  #1167 ) ;
#931 = CARTESIAN_POINT ( 'NONE',  ( -0.2000000000000057288, 0.000000000000000000, -0.7500000000000000000 ) ) ;
#932 = DIRECTION ( 'NONE',  ( -1.000000000000000000, -0.000000000000000000, -0.000000000000000000 ) ) ;
#933 = CYLINDRICAL_SURFACE ( 'NONE', #818, 0.5999999999999999778 ) ;
#934 = APPLICATION_PROTOCOL_DEFINITION ( 'draft international standard', 'automotive_design', 1998, #95 ) ;
#935 =( NAMED_UNIT ( * ) PLANE_ANGLE_UNIT ( ) SI_UNIT ( $, .RADIAN. ) );
#936 = FILL_AREA_STYLE_COLOUR ( '', #645 ) ;
#937 = CARTESIAN_POINT ( 'NONE',  ( 4.000000000000003553, 6.017322057294549609E-14, -6.162975822039154730E-30 ) ) ;
#938 = CARTESIAN_POINT ( 'NONE',  ( 0.5000000000000920375, 0.000000000000000000, 0.9500000000000650147 ) ) ;
#939 = CARTESIAN_POINT ( 'NONE',  ( 2.100000000000000089, 2.571758278209441957E-16, 2.286000000000000032 ) ) ;
#940 = PRODUCT_DEFINITION_SHAPE ( 'NONE', 'NONE',  #1169 ) ;
#941 = ORIENTED_EDGE ( 'NONE', *, *, #549, .T. ) ;
#942 = CARTESIAN_POINT ( 'NONE',  ( -1.750000000000000666, 4.850000000000000533, 2.286000000000000032 ) ) ;
#943 = CARTESIAN_POINT ( 'NONE',  ( -0.6001257961074478731, 7.475951380581674854, -0.1579542193057874300 ) ) ;
#944 = CARTESIAN_POINT ( 'NONE',  ( 0.2687352311006460659, -2.550792958447335668, -1.275396479223667834 ) ) ;
#945 = LINE ( 'NONE', #771, #300 ) ;
#946 = DIRECTION ( 'NONE',  ( 0.000000000000000000, 0.000000000000000000, 1.000000000000000222 ) ) ;
#947 = ORIENTED_EDGE ( 'NONE', *, *, #589, .F. ) ;
#948 = CIRCLE ( 'NONE', #185, 2.100000000000000089 ) ;
#949 =( REPRESENTATION_RELATIONSHIP ('NONE','NONE', #165, #53 ) REPRESENTATION_RELATIONSHIP_WITH_TRANSFORMATION ( #582 )SHAPE_REPRESENTATION_RELATIONSHIP( ) );
#950 = EDGE_LOOP ( 'NONE', ( #1028, #649, #886, #1144 ) ) ;
#951 = CARTESIAN_POINT ( 'NONE',  ( -0.1021126760563414448, 8.367935844397422147E-17, 1.119718309859154104 ) ) ;
#952 = SURFACE_STYLE_USAGE ( .BOTH. , #791 ) ;
#953 = DIRECTION ( 'NONE',  ( 0.000000000000000000, 1.000000000000000000, 0.000000000000000000 ) ) ;
#954 = ORIENTED_EDGE ( 'NONE', *, *, #528, .T. ) ;
#955 = DIRECTION ( 'NONE',  ( 0.000000000000000000, 0.000000000000000000, 1.000000000000000000 ) ) ;
#956 = ORIENTED_EDGE ( 'NONE', *, *, #473, .F. ) ;
#957 = CARTESIAN_POINT ( 'NONE',  ( 0.3123226340010450963, 7.494334100416290667, 0.5362475917034296158 ) ) ;
#958 = DIRECTION ( 'NONE',  ( 0.000000000000000000, 0.000000000000000000, 1.000000000000000000 ) ) ;
#959 = AXIS2_PLACEMENT_3D ( 'NONE', #518, #1146, #699 ) ;
#960 =( NAMED_UNIT ( * ) PLANE_ANGLE_UNIT ( ) SI_UNIT ( $, .RADIAN. ) );
#961 = PRODUCT_DEFINITION_SHAPE ( 'NONE', 'NONE',  #516 ) ;
#962 = EDGE_CURVE ( 'NONE', #154, #694, #910, .T. ) ;
#963 = DIRECTION ( 'NONE',  ( 0.000000000000000000, 0.000000000000000000, 1.000000000000000000 ) ) ;
#964 = ADVANCED_BREP_SHAPE_REPRESENTATION ( '', ( #438, #1158 ), #63 ) ;
#965 = DIRECTION ( 'NONE',  ( 0.000000000000000000, 0.000000000000000000, 1.000000000000000000 ) ) ;
#966 =( GEOMETRIC_REPRESENTATION_CONTEXT ( 3 ) GLOBAL_UNCERTAINTY_ASSIGNED_CONTEXT ( ( #635 ) ) GLOBAL_UNIT_ASSIGNED_CONTEXT ( ( #493, #234, #508 ) ) REPRESENTATION_CONTEXT ( 'NONE', 'WORKASPACE' ) );
#967 = UNCERTAINTY_MEASURE_WITH_UNIT (LENGTH_MEASURE( 1.000000000000000082E-05 ), #844, 'distance_accuracy_value', 'NONE');
#968 = AXIS2_PLACEMENT_3D ( 'NONE', #335, #252, #146 ) ;
#969 = EDGE_CURVE ( 'NONE', #1064, #352, #404, .T. ) ;
#970 = DIRECTION ( 'NONE',  ( 0.000000000000000000, -1.000000000000000000, 0.000000000000000000 ) ) ;
#971 = DIRECTION ( 'NONE',  ( -0.000000000000000000, -1.000000000000000000, -0.000000000000000000 ) ) ;
#972 = ORIENTED_EDGE ( 'NONE', *, *, #1088, .T. ) ;
#973 = EDGE_LOOP ( 'NONE', ( #668, #716, #251, #1156 ) ) ;
#974 = AXIS2_PLACEMENT_3D ( 'NONE', #380, #832, #198 ) ;
#975 = DIRECTION ( 'NONE',  ( 0.000000000000000000, -1.224646799147352961E-16, -1.000000000000000000 ) ) ;
#976 = EDGE_LOOP ( 'NONE', ( #688, #1082, #288, #1041 ) ) ;
#977 = ORIENTED_EDGE ( 'NONE', *, *, #1100, .F. ) ;
#978 = LINE ( 'NONE', #399, #999 ) ;
#979 =( LENGTH_UNIT ( ) NAMED_UNIT ( * ) SI_UNIT ( .MILLI., .METRE. ) );
#980 = PRODUCT_DEFINITION_CONTEXT ( 'detailed design', #95, 'design' ) ;
#981 = CARTESIAN_POINT ( 'NONE',  ( 0.2687352311006460659, 3.123820431850137634E-16, 1.275396479223668056 ) ) ;
#982 = FACE_OUTER_BOUND ( 'NONE', #368, .T. ) ;
#983 = CARTESIAN_POINT ( 'NONE',  ( 0.2687352311006459549, -2.050797841559623033E-16, -1.674603520776331678 ) ) ;
#984 = AXIS2_PLACEMENT_3D ( 'NONE', #605, #1148, #437 ) ;
#985 = CARTESIAN_POINT ( 'NONE',  ( 4.199999999999995737, 0.000000000000000000, 0.000000000000000000 ) ) ;
#986 = AXIS2_PLACEMENT_3D ( 'NONE', #640, #1002, #367 ) ;
#987 = DIRECTION ( 'NONE',  ( -1.000000000000000000, -1.445602896647339163E-16, 0.000000000000000000 ) ) ;
#988 = DIRECTION ( 'NONE',  ( 1.000000000000000000, 0.000000000000000000, -0.000000000000000000 ) ) ;
#989 = CARTESIAN_POINT ( 'NONE',  ( 4.000000000000000000, 0.000000000000000000, 2.286000000000000032 ) ) ;
#990 = ORIENTED_EDGE ( 'NONE', *, *, #308, .T. ) ;
#991 =( GEOMETRIC_REPRESENTATION_CONTEXT ( 3 ) GLOBAL_UNCERTAINTY_ASSIGNED_CONTEXT ( ( #815 ) ) GLOBAL_UNIT_ASSIGNED_CONTEXT ( ( #1072, #828, #17 ) ) REPRESENTATION_CONTEXT ( 'NONE', 'WORKASPACE' ) );
#992 = CYLINDRICAL_SURFACE ( 'NONE', #1049, 0.7500000000000000000 ) ;
#993 = EDGE_CURVE ( 'NONE', #156, #565, #978, .T. ) ;
#994 = ORIENTED_EDGE ( 'NONE', *, *, #519, .T. ) ;
#995 = EDGE_CURVE ( 'NONE', #163, #1023, #581, .T. ) ;
#996 = AXIS2_PLACEMENT_3D ( 'NONE', #1046, #971, #327 ) ;
#997 = PLANE ( 'NONE',  #974 ) ;
#998 = AXIS2_PLACEMENT_3D ( 'NONE', #687, #417, #129 ) ;
#999 = VECTOR ( 'NONE', #546, 1000.000000000000000 ) ;
#1000 = EDGE_CURVE ( 'NONE', #156, #401, #211, .T. ) ;
#1001 = SHAPE_REPRESENTATION_RELATIONSHIP ( 'NONE' , 'NONE' ,  #284, #964 ) ;
#1002 = DIRECTION ( 'NONE',  ( 1.000000000000000000, 4.876213336336211057E-15, 5.192639793547426971E-15 ) ) ;
#1003 = ORIENTED_EDGE ( 'NONE', *, *, #765, .T. ) ;
#1004 = APPLICATION_CONTEXT ( 'automotive_design' ) ;
#1005 = CARTESIAN_POINT ( 'NONE',  ( -0.1021126760563413616, -3.080721426025028638E-16, -1.630281690140845896 ) ) ;
#1006 = DIRECTION ( 'NONE',  ( 1.000000000000000000, 0.000000000000000000, 0.000000000000000000 ) ) ;
#1007 = ADVANCED_FACE ( 'NONE', ( #1073 ), #83, .T. ) ;
#1008 = ORIENTED_EDGE ( 'NONE', *, *, #923, .T. ) ;
#1009 = ADVANCED_FACE ( 'NONE', ( #386 ), #296, .F. ) ;
#1010 = EDGE_LOOP ( 'NONE', ( #256, #1087, #1092, #1008 ) ) ;
#1011 = AXIS2_PLACEMENT_3D ( 'NONE', #576, #927, #391 ) ;
#1012 = CARTESIAN_POINT ( 'NONE',  ( -0.1021126760563414448, -2.455461616601201735E-16, -1.119718309859154104 ) ) ;
#1013 = CARTESIAN_POINT ( 'NONE',  ( 0.2687352311006460659, -1.561910215925068817E-16, -1.275396479223668056 ) ) ;
#1014 = DIRECTION ( 'NONE',  ( 1.000000000000000000, 4.876213336336211057E-15, 5.192639793547426971E-15 ) ) ;
#1015 = APPLICATION_PROTOCOL_DEFINITION ( 'draft international standard', 'automotive_design', 1998, #1154 ) ;
#1016 = VERTEX_POINT ( 'NONE', #721 ) ;
#1017 = FACE_OUTER_BOUND ( 'NONE', #976, .T. ) ;
#1018 = CARTESIAN_POINT ( 'NONE',  ( 0.5000000000000918154, -3.999999999999869438, 1.999999999999935163 ) ) ;
#1019 = LINE ( 'NONE', #29, #361 ) ;
#1020 = PRESENTATION_LAYER_ASSIGNMENT (  '', '', ( #359 ) ) ;
#1021 = PRODUCT_CONTEXT ( 'NONE', #714, 'mechanical' ) ;
#1022 = STYLED_ITEM ( 'NONE', ( #806 ), #821 ) ;
#1023 = VERTEX_POINT ( 'NONE', #568 ) ;
#1024 =( NAMED_UNIT ( * ) SI_UNIT ( $, .STERADIAN. ) SOLID_ANGLE_UNIT ( ) );
#1025 = CARTESIAN_POINT ( 'NONE',  ( 0.2499999999999986955, 2.921172371206530670E-16, 0.7499999999999983347 ) ) ;
#1026 = DIRECTION ( 'NONE',  ( 0.000000000000000000, 0.000000000000000000, -1.000000000000000000 ) ) ;
#1027 = DIRECTION ( 'NONE',  ( 1.000000000000000000, 0.000000000000000000, 0.000000000000000000 ) ) ;
#1028 = ORIENTED_EDGE ( 'NONE', *, *, #628, .T. ) ;
#1029 = COLOUR_RGB ( '',0.1450980392156862586, 0.1568627450980392135, 0.1647058823529411742 ) ;
#1030 = DIRECTION ( 'NONE',  ( 0.000000000000000000, 0.000000000000000000, 1.000000000000000000 ) ) ;
#1031 = CARTESIAN_POINT ( 'NONE',  ( -1.750000000000000444, 3.350000000000000089, -2.286000000000000032 ) ) ;
#1032 = PRODUCT_DEFINITION_FORMATION_WITH_SPECIFIED_SOURCE ( 'ANY', '', #608, .NOT_KNOWN. ) ;
#1033 = LINE ( 'NONE', #866, #187 ) ;
#1034 = ITEM_DEFINED_TRANSFORMATION ( 'NONE', 'NONE', #1165,  #1158 ) ;
#1035 = VERTEX_POINT ( 'NONE', #629 ) ;
#1036 = VERTEX_POINT ( 'NONE', #659 ) ;
#1037 = UNCERTAINTY_MEASURE_WITH_UNIT (LENGTH_MEASURE( 1.000000000000000082E-05 ), #456, 'distance_accuracy_value', 'NONE');
#1038 = DIRECTION ( 'NONE',  ( 0.000000000000000000, 0.000000000000000000, 1.000000000000000000 ) ) ;
#1039 = CARTESIAN_POINT ( 'NONE',  ( 2.368286583846122402E-17, 7.500000000000000000, -0.5999999999999999778 ) ) ;
#1040 = SURFACE_STYLE_FILL_AREA ( #686 ) ;
#1041 = ORIENTED_EDGE ( 'NONE', *, *, #3, .T. ) ;
#1042 = AXIS2_PLACEMENT_3D ( 'NONE', #989, #201, #451 ) ;
#1043 = FILL_AREA_STYLE ('',( #936 ) ) ;
#1044 = ORIENTED_EDGE ( 'NONE', *, *, #340, .T. ) ;
#1045 = CARTESIAN_POINT ( 'NONE',  ( -4.000000000000000000, 6.344288770224760121, -2.286000000000000032 ) ) ;
#1046 = CARTESIAN_POINT ( 'NONE',  ( 0.000000000000000000, 7.500000000000000000, 0.000000000000000000 ) ) ;
#1047 = VERTEX_POINT ( 'NONE', #264 ) ;
#1048 = EDGE_CURVE ( 'NONE', #779, #189, #21, .T. ) ;
#1049 = AXIS2_PLACEMENT_3D ( 'NONE', #88, #8, #101 ) ;
#1050 = CYLINDRICAL_SURFACE ( 'NONE', #984, 0.5999999999999999778 ) ;
#1051 = CARTESIAN_POINT ( 'NONE',  ( -0.1021126760563414587, -2.239436619718308208, -1.119718309859153660 ) ) ;
#1052 = AXIS2_PLACEMENT_3D ( 'NONE', #241, #970, #137 ) ;
#1053 = FILL_AREA_STYLE ('',( #802 ) ) ;
#1054 = CARTESIAN_POINT ( 'NONE',  ( 2.368286583846122402E-17, 7.500000000000000000, -0.5999999999999999778 ) ) ;
#1055 = CYLINDRICAL_SURFACE ( 'NONE', #996, 0.5999999999999999778 ) ;
#1056 = EDGE_LOOP ( 'NONE', ( #710, #831, #221, #162 ) ) ;
#1057 = DIRECTION ( 'NONE',  ( 0.000000000000000000, 0.000000000000000000, 1.000000000000000000 ) ) ;
#1058 = MECHANICAL_DESIGN_GEOMETRIC_PRESENTATION_REPRESENTATION (  '', ( #249 ), #281 ) ;
#1059 = CARTESIAN_POINT ( 'NONE',  ( 0.5000000000000920375, 1.900000000000129585, -0.9500000000000651257 ) ) ;
#1060 = ORIENTED_EDGE ( 'NONE', *, *, #226, .F. ) ;
#1061 = VERTEX_POINT ( 'NONE', #754 ) ;
#1062 = CARTESIAN_POINT ( 'NONE',  ( -1.750000000000000666, 4.850000000000000533, -2.286000000000000032 ) ) ;
#1063 = ORIENTED_EDGE ( 'NONE', *, *, #962, .F. ) ;
#1064 = VERTEX_POINT ( 'NONE', #665 ) ;
#1065 = SURFACE_SIDE_STYLE ('',( #520 ) ) ;
#1066 = CARTESIAN_POINT ( 'NONE',  ( -142.9500000000000171, 0.000000000000000000, 0.000000000000000000 ) ) ;
#1067 = DIRECTION ( 'NONE',  ( 1.000000000000000000, 0.000000000000000000, 0.000000000000000000 ) ) ;
#1068 =( GEOMETRIC_REPRESENTATION_CONTEXT ( 3 ) GLOBAL_UNCERTAINTY_ASSIGNED_CONTEXT ( ( #1037 ) ) GLOBAL_UNIT_ASSIGNED_CONTEXT ( ( #456, #911, #836 ) ) REPRESENTATION_CONTEXT ( 'NONE', 'WORKASPACE' ) );
#1069 = CYLINDRICAL_SURFACE ( 'NONE', #626, 7.500000000000000000 ) ;
#1070 = AXIS2_PLACEMENT_3D ( 'NONE', #443, #1057, #897 ) ;
#1071 = DIRECTION ( 'NONE',  ( 1.000000000000000000, 0.000000000000000000, -0.000000000000000000 ) ) ;
#1072 =( LENGTH_UNIT ( ) NAMED_UNIT ( * ) SI_UNIT ( .MILLI., .METRE. ) );
#1073 = FACE_OUTER_BOUND ( 'NONE', #824, .T. ) ;
#1074 = VECTOR ( 'NONE', #15, 1000.000000000000000 ) ;
#1075 = ORIENTED_EDGE ( 'NONE', *, *, #848, .F. ) ;
#1076 = CARTESIAN_POINT ( 'NONE',  ( 0.000000000000000000, 0.000000000000000000, -2.286000000000000032 ) ) ;
#1077 = STYLED_ITEM ( 'NONE', ( #138 ), #438 ) ;
#1078 = CONTEXT_DEPENDENT_SHAPE_REPRESENTATION ( #275, #940 ) ;
#1079 = VECTOR ( 'NONE', #208, 1000.000000000000000 ) ;
#1080 = DIRECTION ( 'NONE',  ( 0.000000000000000000, -1.000000000000000000, 0.000000000000000000 ) ) ;
#1081 = EDGE_CURVE ( 'NONE', #852, #186, #175, .T. ) ;
#1082 = ORIENTED_EDGE ( 'NONE', *, *, #376, .F. ) ;
#1083 = EDGE_CURVE ( 'NONE', #80, #506, #41, .T. ) ;
#1084 = CARTESIAN_POINT ( 'NONE',  ( 0.2499999999999988065, -3.533495770780213314E-16, -2.000000000000001332 ) ) ;
#1085 = SURFACE_SIDE_STYLE ('',( #4 ) ) ;
#1086 = ORIENTED_EDGE ( 'NONE', *, *, #891, .T. ) ;
#1087 = ORIENTED_EDGE ( 'NONE', *, *, #969, .F. ) ;
#1088 = EDGE_CURVE ( 'NONE', #446, #1023, #706, .T. ) ;
#1089 = CARTESIAN_POINT ( 'NONE',  ( 0.2500000000000002220, 0.000000000000000000, 0.000000000000000000 ) ) ;
#1090 = DIRECTION ( 'NONE',  ( 1.000000000000000000, 0.000000000000000000, 0.000000000000000000 ) ) ;
#1091 = ORIENTED_EDGE ( 'NONE', *, *, #68, .F. ) ;
#1092 = ORIENTED_EDGE ( 'NONE', *, *, #14, .T. ) ;
#1093 = CLOSED_SHELL ( 'NONE', ( #371, #885, #800, #916 ) ) ;
#1094 = DIRECTION ( 'NONE',  ( 1.000000000000000000, 0.000000000000000000, -0.000000000000000000 ) ) ;
#1095 = CIRCLE ( 'NONE', #697, 7.500000000000000000 ) ;
#1096 = CARTESIAN_POINT ( 'NONE',  ( 1.749999999999999334, 4.850000000000000533, -2.286000000000000032 ) ) ;
#1097 = CYLINDRICAL_SURFACE ( 'NONE', #92, 0.9499999999999999556 ) ;
#1098 = CARTESIAN_POINT ( 'NONE',  ( 0.000000000000000000, 0.000000000000000000, 0.000000000000000000 ) ) ;
#1099 = EDGE_LOOP ( 'NONE', ( #725, #96, #1137, #816 ) ) ;
#1100 = EDGE_CURVE ( 'NONE', #321, #506, #326, .T. ) ;
#1101 = SURFACE_SIDE_STYLE ('',( #1109 ) ) ;
#1102 = CIRCLE ( 'NONE', #959, 9.900628149161503799 ) ;
#1103 = CARTESIAN_POINT ( 'NONE',  ( 2.999999999999864109, 6.017322057294549609E-14, -6.162975822039154730E-30 ) ) ;
#1104 = PRODUCT ( '228-2500-438-00 Rev1_228-2500-438-00', '228-2500-438-00 Rev1_228-2500-438-00', '', ( #1021 ) ) ;
#1105 = CARTESIAN_POINT ( 'NONE',  ( 0.2687352311006460659, -2.550792958447335668, 1.275396479223668056 ) ) ;
#1106 = DIRECTION ( 'NONE',  ( -1.000000000000000000, 0.000000000000000000, 0.000000000000000000 ) ) ;
#1107 = SHAPE_DEFINITION_REPRESENTATION ( #681, #284 ) ;
#1108 = VERTEX_POINT ( 'NONE', #939 ) ;
#1109 = SURFACE_STYLE_FILL_AREA ( #1043 ) ;
#1110 = FACE_OUTER_BOUND ( 'NONE', #531, .T. ) ;
#1111 = PRODUCT_DEFINITION ( 'UNKNOWN', '', #621, #980 ) ;
#1112 = FACE_OUTER_BOUND ( 'NONE', #509, .T. ) ;
#1113 = DIRECTION ( 'NONE',  ( 1.000000000000000000, 0.000000000000000000, -0.000000000000000000 ) ) ;
#1114 = VECTOR ( 'NONE', #503, 1000.000000000000000 ) ;
#1115 = DIRECTION ( 'NONE',  ( 0.000000000000000000, 0.000000000000000000, 1.000000000000000000 ) ) ;
#1116 = CIRCLE ( 'NONE', #540, 2.000000000000000000 ) ;
#1117 = ORIENTED_EDGE ( 'NONE', *, *, #819, .F. ) ;
#1118 = SURFACE_STYLE_FILL_AREA ( #410 ) ;
#1119 = CARTESIAN_POINT ( 'NONE',  ( 0.000000000000000000, 0.000000000000000000, -2.286000000000000032 ) ) ;
#1120 = ADVANCED_FACE ( 'NONE', ( #424 ), #1125, .T. ) ;
#1121 = FACE_OUTER_BOUND ( 'NONE', #314, .T. ) ;
#1122 = EDGE_CURVE ( 'NONE', #408, #323, #1033, .T. ) ;
#1123 = CARTESIAN_POINT ( 'NONE',  ( 0.5000000000000918154, -3.999999999999869438, -1.999999999999934719 ) ) ;
#1124 = AXIS2_PLACEMENT_3D ( 'NONE', #289, #988, #364 ) ;
#1125 = CYLINDRICAL_SURFACE ( 'NONE', #998, 2.000000000000000000 ) ;
#1126 = ORIENTED_EDGE ( 'NONE', *, *, #340, .F. ) ;
#1127 = SURFACE_SIDE_STYLE ('',( #1118 ) ) ;
#1128 = ADVANCED_FACE ( 'NONE', ( #512 ), #122, .F. ) ;
#1129 = VERTEX_POINT ( 'NONE', #855 ) ;
#1130 = CYLINDRICAL_SURFACE ( 'NONE', #700, 2.100000000000000089 ) ;
#1131 = CARTESIAN_POINT ( 'NONE',  ( 0.2499999999999986955, -1.836970198721025990E-16, -0.7499999999999983347 ) ) ;
#1132 = DIRECTION ( 'NONE',  ( -1.000000000000000000, 0.000000000000000000, -0.000000000000000000 ) ) ;
#1133 = MECHANICAL_DESIGN_GEOMETRIC_PRESENTATION_REPRESENTATION (  '', ( #359 ), #991 ) ;
#1134 = DIRECTION ( 'NONE',  ( 0.000000000000000000, 0.000000000000000000, -1.000000000000000000 ) ) ;
#1135 = ORIENTED_EDGE ( 'NONE', *, *, #436, .T. ) ;
#1136 =( NAMED_UNIT ( * ) PLANE_ANGLE_UNIT ( ) SI_UNIT ( $, .RADIAN. ) );
#1137 = ORIENTED_EDGE ( 'NONE', *, *, #923, .F. ) ;
#1138 = FACE_OUTER_BOUND ( 'NONE', #447, .T. ) ;
#1139 = LINE ( 'NONE', #613, #344 ) ;
#1140 = CARTESIAN_POINT ( 'NONE',  ( 4.000000000000000000, 0.000000000000000000, 2.286000000000000032 ) ) ;
#1141 = ORIENTED_EDGE ( 'NONE', *, *, #1081, .F. ) ;
#1142 = VECTOR ( 'NONE', #742, 1000.000000000000000 ) ;
#1143 = CARTESIAN_POINT ( 'NONE',  ( 4.595750661335919044E-13, 7.500000000000333955, 0.6000000000041715298 ) ) ;
#1144 = ORIENTED_EDGE ( 'NONE', *, *, #1000, .T. ) ;
#1145 = CARTESIAN_POINT ( 'NONE',  ( -0.1021126760563413616, 7.239814924062966462E-17, 1.630281690140845896 ) ) ;
#1146 = DIRECTION ( 'NONE',  ( 0.000000000000000000, 1.000000000000000000, 1.224646799147353207E-16 ) ) ;
#1147 = VECTOR ( 'NONE', #272, 1000.000000000000000 ) ;
#1148 = DIRECTION ( 'NONE',  ( -0.000000000000000000, -1.000000000000000000, -0.000000000000000000 ) ) ;
#1149 = UNCERTAINTY_MEASURE_WITH_UNIT (LENGTH_MEASURE( 1.000000000000000082E-05 ), #732, 'distance_accuracy_value', 'NONE');
#1150 = CARTESIAN_POINT ( 'NONE',  ( -0.1586050711800802426, 7.500000000000000000, -0.5999999999999999778 ) ) ;
#1151 = DIRECTION ( 'NONE',  ( 1.000000000000000000, 0.000000000000000000, 0.000000000000000000 ) ) ;
#1152 = CARTESIAN_POINT ( 'NONE',  ( 0.000000000000000000, 0.000000000000000000, 2.286000000000000032 ) ) ;
#1153 = LINE ( 'NONE', #439, #56 ) ;
#1154 = APPLICATION_CONTEXT ( 'automotive_design' ) ;
#1155 = ORIENTED_EDGE ( 'NONE', *, *, #995, .F. ) ;
#1156 = ORIENTED_EDGE ( 'NONE', *, *, #248, .F. ) ;
#1157 = SURFACE_STYLE_USAGE ( .BOTH. , #1065 ) ;
#1158 = AXIS2_PLACEMENT_3D ( 'NONE', #307, #955, #31 ) ;
#1159 = LINE ( 'NONE', #266, #169 ) ;
#1160 = ORIENTED_EDGE ( 'NONE', *, *, #840, .T. ) ;
#1161 = ORIENTED_EDGE ( 'NONE', *, *, #12, .T. ) ;
#1162 = LINE ( 'NONE', #240, #928 ) ;
#1163 = LINE ( 'NONE', #812, #653 ) ;
#1164 = AXIS2_PLACEMENT_3D ( 'NONE', #607, #790, #963 ) ;
#1165 = AXIS2_PLACEMENT_3D ( 'NONE', #37, #504, #30 ) ;
#1166 = DIRECTION ( 'NONE',  ( -0.000000000000000000, -1.000000000000000000, -0.000000000000000000 ) ) ;
#1167 = NEXT_ASSEMBLY_USAGE_OCCURRENCE ( 'NAUO1', ' ', ' ', #516, #577, $ ) ;
#1168 = NEXT_ASSEMBLY_USAGE_OCCURRENCE ( 'NAUO2', ' ', ' ', #516, #789, $ ) ;
#1169 = NEXT_ASSEMBLY_USAGE_OCCURRENCE ( 'NAUO3', ' ', ' ', #516, #789, $ ) ;
#1170 = NEXT_ASSEMBLY_USAGE_OCCURRENCE ( 'NAUO4', ' ', ' ', #577, #703, $ ) ;
#1171 = NEXT_ASSEMBLY_USAGE_OCCURRENCE ( 'NAUO5', ' ', ' ', #577, #1111, $ ) ;
ENDSEC;
END-ISO-10303-21;
