ISO-10303-21;
HEADER;
FILE_DESCRIPTION (( 'STEP AP203' ),
    '1' );
FILE_NAME ('228-2500-092.step',
    '2022-06-06T18:58:42',
    ( '' ),
    ( '' ),
    'SwSTEP 2.0',
    'SolidWorks 2021',
    '' );
FILE_SCHEMA (( 'CONFIG_CONTROL_DESIGN' ));
ENDSEC;

DATA;
#1 = EDGE_CURVE ( 'NONE', #325, #286, #1009, .T. ) ;
#2 = FACE_OUTER_BOUND ( 'NONE', #606, .T. ) ;
#3 = ORIENTED_EDGE ( 'NONE', *, *, #522, .T. ) ;
#4 = LINE ( 'NONE', #113, #1063 ) ;
#5 = ORIENTED_EDGE ( 'NONE', *, *, #1004, .F. ) ;
#6 = EDGE_CURVE ( 'NONE', #1236, #718, #1046, .T. ) ;
#7 = DIRECTION ( 'NONE',  ( -0.000000000000000000, -0.000000000000000000, 1.000000000000000000 ) ) ;
#8 = AXIS2_PLACEMENT_3D ( 'NONE', #72, #1299, #786 ) ;
#9 = CARTESIAN_POINT ( 'NONE',  ( -0.3500000000000030864, -1.587499999999991696, 5.200000000000009948 ) ) ;
#10 = EDGE_CURVE ( 'NONE', #128, #1306, #660, .T. ) ;
#11 = AXIS2_PLACEMENT_3D ( 'NONE', #941, #132, #627 ) ;
#12 = EDGE_LOOP ( 'NONE', ( #795, #574, #288, #358 ) ) ;
#13 = CARTESIAN_POINT ( 'NONE',  ( 1.268411506570323199, 1.587500000000000799, -18.95100000000000051 ) ) ;
#14 = ORIENTED_EDGE ( 'NONE', *, *, #1153, .F. ) ;
#15 = CARTESIAN_POINT ( 'NONE',  ( -1.891269295326068356, 0.7430507738754046354, 5.658031919522676034 ) ) ;
#16 = ORIENTED_EDGE ( 'NONE', *, *, #301, .T. ) ;
#17 = ADVANCED_FACE ( 'NONE', ( #673 ), #646, .T. ) ;
#18 = CARTESIAN_POINT ( 'NONE',  ( -1.550000000000002709, -1.587499999999991696, 1.015000000000000346 ) ) ;
#19 = ORIENTED_EDGE ( 'NONE', *, *, #432, .T. ) ;
#20 = DIRECTION ( 'NONE',  ( -1.000000000000000000, 0.000000000000000000, 0.000000000000000000 ) ) ;
#21 = PLANE ( 'NONE',  #371 ) ;
#22 = ORIENTED_EDGE ( 'NONE', *, *, #1281, .F. ) ;
#23 = LINE ( 'NONE', #526, #1087 ) ;
#24 = EDGE_CURVE ( 'NONE', #835, #1101, #1148, .T. ) ;
#25 = LOCAL_TIME ( 13, 58, 42.00000000000000000, #249 ) ;
#26 = CARTESIAN_POINT ( 'NONE',  ( 0.6550150799420408898, 1.587499999999991696, 5.200000000000009948 ) ) ;
#27 = AXIS2_PLACEMENT_3D ( 'NONE', #291, #415, #124 ) ;
#28 = DIRECTION ( 'NONE',  ( 0.9961946980917455452, 0.000000000000000000, -0.08715574274765827689 ) ) ;
#29 = ORIENTED_EDGE ( 'NONE', *, *, #556, .F. ) ;
#30 = CARTESIAN_POINT ( 'NONE',  ( -1.891269295326068356, 3.176000000000000156, 5.658031919522676034 ) ) ;
#31 = FACE_OUTER_BOUND ( 'NONE', #588, .T. ) ;
#32 = VECTOR ( 'NONE', #1111, 1000.000000000000000 ) ;
#33 = DIRECTION ( 'NONE',  ( 1.000000000000000000, 0.000000000000000000, 0.000000000000000000 ) ) ;
#34 = CIRCLE ( 'NONE', #250, 2.032000000000000028 ) ;
#35 = VERTEX_POINT ( 'NONE', #973 ) ;
#36 = CARTESIAN_POINT ( 'NONE',  ( 1.587500000000000355, 0.4276219574845293581, -18.91699639200009031 ) ) ;
#37 = CARTESIAN_POINT ( 'NONE',  ( 1.549999999999995826, 1.313972602454110961, 6.200000000000010836 ) ) ;
#38 = EDGE_CURVE ( 'NONE', #273, #921, #558, .T. ) ;
#39 = PERSON_AND_ORGANIZATION ( #164, #1294 ) ;
#40 = EDGE_LOOP ( 'NONE', ( #258, #628, #861, #1297 ) ) ;
#41 = DIRECTION ( 'NONE',  ( 1.000000000000000000, 0.000000000000000000, 0.000000000000000000 ) ) ;
#42 = ORIENTED_EDGE ( 'NONE', *, *, #389, .T. ) ;
#43 = DIRECTION ( 'NONE',  ( 0.08715574274765827689, -0.000000000000000000, 0.9961946980917455452 ) ) ;
#44 = CARTESIAN_POINT ( 'NONE',  ( -1.587499999999999467, 0.2143109880596220096, -18.92322736169286657 ) ) ;
#45 = DATE_AND_TIME ( #235, #25 ) ;
#46 = VERTEX_POINT ( 'NONE', #1058 ) ;
#47 = EDGE_CURVE ( 'NONE', #433, #201, #153, .T. ) ;
#48 = DIRECTION ( 'NONE',  ( 0.000000000000000000, 0.000000000000000000, -1.000000000000000000 ) ) ;
#49 = ORIENTED_EDGE ( 'NONE', *, *, #1184, .F. ) ;
#50 = CARTESIAN_POINT ( 'NONE',  ( -1.587499999999999467, -0.8514389605502624692, -18.88136751577923533 ) ) ;
#51 = DIRECTION ( 'NONE',  ( 0.000000000000000000, -1.000000000000000000, 0.000000000000000000 ) ) ;
#52 = FACE_OUTER_BOUND ( 'NONE', #1270, .T. ) ;
#53 = VECTOR ( 'NONE', #1187, 1000.000000000000000 ) ;
#54 = DIRECTION ( 'NONE',  ( -1.000000000000000000, -1.365923996832131609E-16, 0.000000000000000000 ) ) ;
#55 = EDGE_LOOP ( 'NONE', ( #461, #1124, #654, #119, #193, #1114, #1036, #729 ) ) ;
#56 = CC_DESIGN_PERSON_AND_ORGANIZATION_ASSIGNMENT ( #645, #262, ( #1301 ) ) ;
#57 = DIRECTION ( 'NONE',  ( 0.000000000000000000, 0.000000000000000000, 1.000000000000000000 ) ) ;
#58 = DIRECTION ( 'NONE',  ( -1.000000000000000000, -1.365923996832131116E-16, 0.000000000000000000 ) ) ;
#59 = VERTEX_POINT ( 'NONE', #251 ) ;
#60 = UNCERTAINTY_MEASURE_WITH_UNIT (LENGTH_MEASURE( 1.000000000000000082E-05 ), #303, 'distance_accuracy_value', 'NONE');
#61 = DIRECTION ( 'NONE',  ( -1.000000000000000000, 0.000000000000000000, 0.000000000000000000 ) ) ;
#62 = ORIENTED_EDGE ( 'NONE', *, *, #942, .F. ) ;
#63 = DIRECTION ( 'NONE',  ( 1.000000000000000000, 0.000000000000000000, 0.000000000000000000 ) ) ;
#64 = EDGE_CURVE ( 'NONE', #102, #911, #34, .T. ) ;
#65 = ADVANCED_FACE ( 'NONE', ( #52 ), #468, .F. ) ;
#66 = EDGE_CURVE ( 'NONE', #1208, #1211, #1164, .T. ) ;
#67 = ORIENTED_EDGE ( 'NONE', *, *, #648, .T. ) ;
#68 = DIRECTION ( 'NONE',  ( -1.000000000000000000, 0.000000000000000000, 0.000000000000000000 ) ) ;
#69 = ORIENTED_EDGE ( 'NONE', *, *, #839, .F. ) ;
#70 = DIRECTION ( 'NONE',  ( 0.000000000000000000, 1.000000000000000000, 0.000000000000000000 ) ) ;
#71 = ORIENTED_EDGE ( 'NONE', *, *, #161, .T. ) ;
#72 = CARTESIAN_POINT ( 'NONE',  ( 1.587500000000000133, 1.587500000000000799, -18.95100000000000051 ) ) ;
#73 = CIRCLE ( 'NONE', #11, 2.032000000000000028 ) ;
#74 = CYLINDRICAL_SURFACE ( 'NONE', #490, 0.5000000000000004441 ) ;
#75 = PLANE ( 'NONE',  #1310 ) ;
#76 = CARTESIAN_POINT ( 'NONE',  ( -1.268411506570018776, 1.587500000000001688, -18.79991914209833226 ) ) ;
#77 = ORIENTED_EDGE ( 'NONE', *, *, #181, .F. ) ;
#78 = VECTOR ( 'NONE', #899, 1000.000000000000000 ) ;
#79 = PLANE ( 'NONE',  #8 ) ;
#80 = VECTOR ( 'NONE', #577, 1000.000000000000000 ) ;
#81 = DIRECTION ( 'NONE',  ( -0.000000000000000000, -0.000000000000000000, 1.000000000000000000 ) ) ;
#82 = ADVANCED_FACE ( 'NONE', ( #990 ), #75, .T. ) ;
#83 = CARTESIAN_POINT ( 'NONE',  ( 1.587500000000000577, -1.587499999999999467, -18.95100000000000051 ) ) ;
#84 = CARTESIAN_POINT ( 'NONE',  ( -1.550000000000002709, -1.313972602454110961, 6.200000000000010836 ) ) ;
#85 = ORIENTED_EDGE ( 'NONE', *, *, #1268, .T. ) ;
#86 = CARTESIAN_POINT ( 'NONE',  ( 0.3500000000000030864, 1.587499999999991696, 5.200000000000009948 ) ) ;
#87 = ORIENTED_EDGE ( 'NONE', *, *, #722, .F. ) ;
#88 = LINE ( 'NONE', #289, #425 ) ;
#89 = VECTOR ( 'NONE', #1021, 1000.000000000000000 ) ;
#90 = FACE_OUTER_BOUND ( 'NONE', #215, .T. ) ;
#91 = CARTESIAN_POINT ( 'NONE',  ( 1.550000000000003153, -1.313972602454110516, 1.015000000000000346 ) ) ;
#92 = ORIENTED_EDGE ( 'NONE', *, *, #1116, .T. ) ;
#93 = EDGE_CURVE ( 'NONE', #686, #1128, #101, .T. ) ;
#94 = PLANE ( 'NONE',  #756 ) ;
#95 = VECTOR ( 'NONE', #1029, 1000.000000000000000 ) ;
#96 = PRODUCT ( '228-2500-092', '228-2500-092', '', ( #255 ) ) ;
#97 = DIRECTION ( 'NONE',  ( 0.6946583704589980313, 0.000000000000000000, -0.7193398003386503037 ) ) ;
#98 = AXIS2_PLACEMENT_3D ( 'NONE', #1047, #1077, #63 ) ;
#99 = CARTESIAN_POINT ( 'NONE',  ( -1.550000000000002709, -1.313972602454110961, 5.460999999999993193 ) ) ;
#100 = ORIENTED_EDGE ( 'NONE', *, *, #38, .T. ) ;
#101 = CIRCLE ( 'NONE', #742, 3.174999999999999822 ) ;
#102 = VERTEX_POINT ( 'NONE', #1287 ) ;
#103 = CARTESIAN_POINT ( 'NONE',  ( 1.268411506570324088, -1.587499999999991696, 1.015000000000000346 ) ) ;
#104 = CARTESIAN_POINT ( 'NONE',  ( -1.550000000000002265, -1.313972602454110516, 1.015000000000000346 ) ) ;
#105 = ORIENTED_EDGE ( 'NONE', *, *, #246, .T. ) ;
#106 = LINE ( 'NONE', #13, #838 ) ;
#107 = EDGE_CURVE ( 'NONE', #305, #1208, #395, .T. ) ;
#108 = ORIENTED_EDGE ( 'NONE', *, *, #544, .T. ) ;
#109 = EDGE_CURVE ( 'NONE', #429, #1130, #707, .T. ) ;
#110 = CARTESIAN_POINT ( 'NONE',  ( -0.6550150799420408898, -1.588549999999994133, 5.200000000000009948 ) ) ;
#111 = FACE_OUTER_BOUND ( 'NONE', #322, .T. ) ;
#112 = VERTEX_POINT ( 'NONE', #797 ) ;
#113 = CARTESIAN_POINT ( 'NONE',  ( -0.4980973490458714958, 1.587499999999991696, 3.406422128626157786 ) ) ;
#114 = AXIS2_PLACEMENT_3D ( 'NONE', #762, #559, #1165 ) ;
#115 = ORIENTED_EDGE ( 'NONE', *, *, #846, .F. ) ;
#116 = CARTESIAN_POINT ( 'NONE',  ( -1.268411506570324310, 1.587499999999991696, 6.200000000000010836 ) ) ;
#117 = ORIENTED_EDGE ( 'NONE', *, *, #222, .F. ) ;
#118 = CARTESIAN_POINT ( 'NONE',  ( -1.550000000000002709, 1.313972602454110961, 1.015000000000001901 ) ) ;
#119 = ORIENTED_EDGE ( 'NONE', *, *, #191, .F. ) ;
#120 = CIRCLE ( 'NONE', #905, 1.245064030267289512 ) ;
#121 = CYLINDRICAL_SURFACE ( 'NONE', #316, 2.032000000000000028 ) ;
#122 =( BOUNDED_CURVE ( )  B_SPLINE_CURVE ( 3, ( #594, #1091, #306, #506 ),
 .UNSPECIFIED., .F., .T. ) 
 B_SPLINE_CURVE_WITH_KNOTS ( ( 4, 4 ),
 ( 3.515950143987041088, 3.844764048706390547 ),
 .UNSPECIFIED. ) 
 CURVE ( )  GEOMETRIC_REPRESENTATION_ITEM ( )  RATIONAL_B_SPLINE_CURVE ( ( 1.000000000000000000, 0.9910103942223816853, 0.9910103942223816853, 1.000000000000000000 ) ) 
 REPRESENTATION_ITEM ( '' )  );
#123 = ADVANCED_FACE ( 'NONE', ( #906 ), #602, .F. ) ;
#124 = DIRECTION ( 'NONE',  ( 1.365923996832131856E-16, -1.000000000000000000, 0.000000000000000000 ) ) ;
#125 = ORIENTED_EDGE ( 'NONE', *, *, #1241, .T. ) ;
#126 = EDGE_CURVE ( 'NONE', #1166, #275, #409, .T. ) ;
#127 = CARTESIAN_POINT ( 'NONE',  ( -0.3500000000000030864, 1.587499999999991696, 6.200000000000010836 ) ) ;
#128 = VERTEX_POINT ( 'NONE', #803 ) ;
#129 = FACE_OUTER_BOUND ( 'NONE', #199, .T. ) ;
#130 = CARTESIAN_POINT ( 'NONE',  ( -1.809458434164549656, 0.9512819946464768917, 5.610798396808418076 ) ) ;
#131 = ORIENTED_EDGE ( 'NONE', *, *, #529, .F. ) ;
#132 = DIRECTION ( 'NONE',  ( 0.000000000000000000, 0.000000000000000000, -1.000000000000000000 ) ) ;
#133 = CARTESIAN_POINT ( 'NONE',  ( -1.367896803705380471, 1.502625147670771932, 6.200000000000010836 ) ) ;
#134 = APPROVAL_STATUS ( 'not_yet_approved' ) ;
#135 = ORIENTED_EDGE ( 'NONE', *, *, #988, .T. ) ;
#136 = CARTESIAN_POINT ( 'NONE',  ( 1.587499999999999911, 1.061532360077566794, -18.85140206829363763 ) ) ;
#137 = ADVANCED_FACE ( 'NONE', ( #90 ), #1180, .T. ) ;
#138 = CARTESIAN_POINT ( 'NONE',  ( 1.587500000000000133, 1.587500000000000799, -18.95100000000000051 ) ) ;
#139 = VECTOR ( 'NONE', #687, 1000.000000000000000 ) ;
#140 = APPROVAL_DATE_TIME ( #1050, #313 ) ;
#141 = VECTOR ( 'NONE', #681, 1000.000000000000000 ) ;
#142 = ORIENTED_EDGE ( 'NONE', *, *, #407, .F. ) ;
#143 = FACE_OUTER_BOUND ( 'NONE', #419, .T. ) ;
#144 = CARTESIAN_POINT ( 'NONE',  ( -1.550000000000002709, -2.192040705001133016, 6.011426619998760934 ) ) ;
#145 = EDGE_CURVE ( 'NONE', #617, #727, #877, .T. ) ;
#146 = EDGE_CURVE ( 'NONE', #416, #537, #1112, .T. ) ;
#147 = DIRECTION ( 'NONE',  ( 1.000000000000000000, 0.000000000000000000, 0.000000000000000000 ) ) ;
#148 = CARTESIAN_POINT ( 'NONE',  ( 0.4980973490458714958, 1.587499999999991696, 3.406422128626157786 ) ) ;
#149 = EDGE_LOOP ( 'NONE', ( #69, #1289, #413, #1103, #1178, #22 ) ) ;
#150 = PLANE ( 'NONE',  #354 ) ;
#151 = DATE_TIME_ROLE ( 'creation_date' ) ;
#152 = VECTOR ( 'NONE', #1034, 1000.000000000000000 ) ;
#153 = LINE ( 'NONE', #755, #1285 ) ;
#154 = DIRECTION ( 'NONE',  ( 1.000000000000000000, 0.000000000000000000, 0.000000000000000000 ) ) ;
#155 = ORIENTED_EDGE ( 'NONE', *, *, #736, .T. ) ;
#156 = DIRECTION ( 'NONE',  ( -1.000000000000000000, 0.000000000000000000, -0.000000000000000000 ) ) ;
#157 = DATE_AND_TIME ( #944, #455 ) ;
#158 = AXIS2_PLACEMENT_3D ( 'NONE', #1102, #287, #993 ) ;
#159 = ORIENTED_EDGE ( 'NONE', *, *, #619, .F. ) ;
#160 = VECTOR ( 'NONE', #420, 1000.000000000000000 ) ;
#161 = EDGE_CURVE ( 'NONE', #267, #319, #1088, .T. ) ;
#162 = VECTOR ( 'NONE', #197, 1000.000000000000114 ) ;
#163 = CARTESIAN_POINT ( 'NONE',  ( 0.000000000000000000, 0.000000000000000000, -18.79991914209798054 ) ) ;
#164 = PERSON ( 'UNSPECIFIED', 'UNSPECIFIED', 'UNSPECIFIED', ('UNSPECIFIED'), ('UNSPECIFIED'), ('UNSPECIFIED') ) ;
#165 = ORIENTED_EDGE ( 'NONE', *, *, #1162, .F. ) ;
#166 = CYLINDRICAL_SURFACE ( 'NONE', #754, 2.032000000000000028 ) ;
#167 = CARTESIAN_POINT ( 'NONE',  ( -1.550000000000002709, 1.587499999999991696, 1.015000000000000346 ) ) ;
#168 = DIRECTION ( 'NONE',  ( 0.000000000000000000, 0.000000000000000000, 1.000000000000000000 ) ) ;
#169 = FACE_OUTER_BOUND ( 'NONE', #40, .T. ) ;
#170 = VERTEX_POINT ( 'NONE', #103 ) ;
#171 = DIRECTION ( 'NONE',  ( 0.6946583704589980313, 0.000000000000000000, 0.7193398003386503037 ) ) ;
#172 = VERTEX_POINT ( 'NONE', #1280 ) ;
#173 = DIRECTION ( 'NONE',  ( 1.000000000000000000, 0.000000000000000000, 0.000000000000000000 ) ) ;
#174 = AXIS2_PLACEMENT_3D ( 'NONE', #510, #1204, #387 ) ;
#175 = DIRECTION ( 'NONE',  ( 1.000000000000000000, 0.000000000000000000, 0.000000000000000000 ) ) ;
#176 = DIRECTION ( 'NONE',  ( -0.000000000000000000, -0.000000000000000000, 1.000000000000000000 ) ) ;
#177 = EDGE_LOOP ( 'NONE', ( #182, #159 ) ) ;
#178 = FACE_OUTER_BOUND ( 'NONE', #806, .T. ) ;
#179 = AXIS2_PLACEMENT_3D ( 'NONE', #335, #1115, #424 ) ;
#180 = CIRCLE ( 'NONE', #179, 2.124999999999998224 ) ;
#181 = EDGE_CURVE ( 'NONE', #842, #1166, #1209, .T. ) ;
#182 = ORIENTED_EDGE ( 'NONE', *, *, #208, .F. ) ;
#183 = CARTESIAN_POINT ( 'NONE',  ( -0.6550150799420408898, -1.587499999999991696, 5.200000000000009948 ) ) ;
#184 = CARTESIAN_POINT ( 'NONE',  ( 0.000000000000000000, 0.000000000000000000, -13.44099999999999895 ) ) ;
#185 = DIRECTION ( 'NONE',  ( -0.9961946980917455452, 0.000000000000000000, -0.08715574274765827689 ) ) ;
#186 = ORIENTED_EDGE ( 'NONE', *, *, #677, .F. ) ;
#187 = AXIS2_PLACEMENT_3D ( 'NONE', #1079, #495, #173 ) ;
#188 = CARTESIAN_POINT ( 'NONE',  ( 1.694670100521874279, -1.143315577041170039, 5.544525321479990332 ) ) ;
#189 = LINE ( 'NONE', #183, #270 ) ;
#190 = LINE ( 'NONE', #995, #227 ) ;
#191 = EDGE_CURVE ( 'NONE', #911, #1236, #401, .T. ) ;
#192 = LINE ( 'NONE', #1074, #711 ) ;
#193 = ORIENTED_EDGE ( 'NONE', *, *, #64, .F. ) ;
#194 = CARTESIAN_POINT ( 'NONE',  ( -1.587499999999999467, 1.944126793646423041E-16, -18.92322736169286301 ) ) ;
#195 = CARTESIAN_POINT ( 'NONE',  ( 0.000000000000000000, 0.000000000000000000, -18.79991914209798054 ) ) ;
#196 = LOCAL_TIME ( 13, 58, 42.00000000000000000, #571 ) ;
#197 = DIRECTION ( 'NONE',  ( 0.08715574274765827689, 0.000000000000000000, -0.9961946980917455452 ) ) ;
#198 = DIRECTION ( 'NONE',  ( 1.000000000000000000, 0.000000000000000000, 0.000000000000000000 ) ) ;
#199 = EDGE_LOOP ( 'NONE', ( #327, #1060, #92, #1232, #1097, #699 ) ) ;
#200 = CIRCLE ( 'NONE', #940, 2.032000000000000028 ) ;
#201 = VERTEX_POINT ( 'NONE', #701 ) ;
#202 = VECTOR ( 'NONE', #818, 1000.000000000000000 ) ;
#203 = DIRECTION ( 'NONE',  ( 0.000000000000000000, 0.000000000000000000, -1.000000000000000000 ) ) ;
#204 = DIRECTION ( 'NONE',  ( -5.421010862427522170E-17, 0.000000000000000000, 1.000000000000000000 ) ) ;
#205 = ORIENTED_EDGE ( 'NONE', *, *, #342, .F. ) ;
#206 = EDGE_CURVE ( 'NONE', #527, #964, #1175, .T. ) ;
#207 = DIRECTION ( 'NONE',  ( -0.000000000000000000, 1.000000000000000000, -0.000000000000000000 ) ) ;
#208 = EDGE_CURVE ( 'NONE', #761, #221, #120, .T. ) ;
#209 = VECTOR ( 'NONE', #875, 1000.000000000000000 ) ;
#210 = AXIS2_PLACEMENT_3D ( 'NONE', #83, #689, #1313 ) ;
#211 = ORIENTED_EDGE ( 'NONE', *, *, #1217, .T. ) ;
#212 = CARTESIAN_POINT ( 'NONE',  ( 1.550000000000002709, 1.587499999999991696, 1.015000000000000346 ) ) ;
#213 = DIRECTION ( 'NONE',  ( 0.000000000000000000, 0.000000000000000000, 1.000000000000000000 ) ) ;
#214 = EDGE_LOOP ( 'NONE', ( #298, #3, #878, #775 ) ) ;
#215 = EDGE_LOOP ( 'NONE', ( #366, #49, #1140, #1226 ) ) ;
#216 = MANIFOLD_SOLID_BREP ( '228-2500-092', #271 ) ;
#217 = DIRECTION ( 'NONE',  ( 0.000000000000000000, 0.000000000000000000, 1.000000000000000000 ) ) ;
#218 = DIRECTION ( 'NONE',  ( -0.000000000000000000, -0.000000000000000000, 1.000000000000000000 ) ) ;
#219 = ORIENTED_EDGE ( 'NONE', *, *, #421, .T. ) ;
#220 = CARTESIAN_POINT ( 'NONE',  ( -0.4980973490458714958, -1.588549999999994133, 3.406422128626157786 ) ) ;
#221 = VERTEX_POINT ( 'NONE', #1295 ) ;
#222 = EDGE_CURVE ( 'NONE', #835, #1078, #190, .T. ) ;
#223 = PLANE ( 'NONE',  #843 ) ;
#224 = VERTEX_POINT ( 'NONE', #913 ) ;
#225 = FACE_OUTER_BOUND ( 'NONE', #1156, .T. ) ;
#226 = ORIENTED_EDGE ( 'NONE', *, *, #1153, .T. ) ;
#227 = VECTOR ( 'NONE', #937, 1000.000000000000000 ) ;
#228 = FACE_BOUND ( 'NONE', #481, .T. ) ;
#229 = CARTESIAN_POINT ( 'NONE',  ( 0.6550150799420408898, -1.588549999999994133, 5.200000000000009948 ) ) ;
#230 = ADVANCED_FACE ( 'NONE', ( #228, #1014 ), #629, .F. ) ;
#231 = EDGE_CURVE ( 'NONE', #112, #265, #640, .T. ) ;
#232 = ORIENTED_EDGE ( 'NONE', *, *, #93, .F. ) ;
#233 = DIRECTION ( 'NONE',  ( 1.000000000000000000, 0.000000000000000000, 0.000000000000000000 ) ) ;
#234 = DIRECTION ( 'NONE',  ( -0.000000000000000000, -0.000000000000000000, 1.000000000000000000 ) ) ;
#235 = CALENDAR_DATE ( 2022, 6, 6 ) ;
#236 = ORIENTED_EDGE ( 'NONE', *, *, #505, .T. ) ;
#237 = CC_DESIGN_APPROVAL ( #666, ( #521 ) ) ;
#238 = PLANE ( 'NONE',  #114 ) ;
#239 = CARTESIAN_POINT ( 'NONE',  ( -1.587499999999999467, 1.944126793646423041E-16, -18.92322736169286301 ) ) ;
#240 = AXIS2_PLACEMENT_3D ( 'NONE', #598, #1100, #198 ) ;
#241 = APPLICATION_PROTOCOL_DEFINITION ( 'international standard', 'config_control_design', 1994, #1206 ) ;
#242 = DIRECTION ( 'NONE',  ( 1.000000000000000000, 0.000000000000000000, 0.000000000000000000 ) ) ;
#243 = FACE_OUTER_BOUND ( 'NONE', #1282, .T. ) ;
#244 = ADVANCED_FACE ( 'NONE', ( #922 ), #716, .T. ) ;
#245 = CARTESIAN_POINT ( 'NONE',  ( 1.268411506570324754, -1.587499999999999467, -18.95100000000000051 ) ) ;
#246 = EDGE_CURVE ( 'NONE', #102, #325, #1020, .T. ) ;
#247 = CARTESIAN_POINT ( 'NONE',  ( -1.550000000000002709, -1.587499999999991696, 6.200000000000010836 ) ) ;
#248 = CIRCLE ( 'NONE', #357, 2.049999999999999822 ) ;
#249 = COORDINATED_UNIVERSAL_TIME_OFFSET ( 6, 0, .BEHIND. ) ;
#250 = AXIS2_PLACEMENT_3D ( 'NONE', #564, #652, #961 ) ;
#251 = CARTESIAN_POINT ( 'NONE',  ( 0.4980973490458714958, -1.587499999999991696, 3.406422128626157786 ) ) ;
#252 = DIRECTION ( 'NONE',  ( -6.994852725712931474E-17, -1.000000000000000000, 0.000000000000000000 ) ) ;
#253 = ORIENTED_EDGE ( 'NONE', *, *, #923, .F. ) ;
#254 = LINE ( 'NONE', #367, #866 ) ;
#255 = MECHANICAL_CONTEXT ( 'NONE', #1206, 'mechanical' ) ;
#256 = CARTESIAN_POINT ( 'NONE',  ( 0.000000000000000000, 0.000000000000000000, 1.015000000000000346 ) ) ;
#257 = CARTESIAN_POINT ( 'NONE',  ( 1.587500000000000577, 0.8514389605502611369, -18.88136751577922823 ) ) ;
#258 = ORIENTED_EDGE ( 'NONE', *, *, #109, .T. ) ;
#259 = DIRECTION ( 'NONE',  ( -0.000000000000000000, 1.000000000000000000, -0.000000000000000000 ) ) ;
#260 = DIRECTION ( 'NONE',  ( 0.000000000000000000, 0.000000000000000000, -1.000000000000000000 ) ) ;
#261 = EDGE_CURVE ( 'NONE', #1101, #1229, #623, .T. ) ;
#262 = PERSON_AND_ORGANIZATION_ROLE ( 'classification_officer' ) ;
#263 = ORIENTED_EDGE ( 'NONE', *, *, #107, .T. ) ;
#264 = DIRECTION ( 'NONE',  ( -1.000000000000000000, 0.000000000000000000, 0.000000000000000000 ) ) ;
#265 = VERTEX_POINT ( 'NONE', #26 ) ;
#266 = CARTESIAN_POINT ( 'NONE',  ( 0.000000000000000000, 0.000000000000000000, -18.95100000000000051 ) ) ;
#267 = VERTEX_POINT ( 'NONE', #330 ) ;
#268 = DIRECTION ( 'NONE',  ( 0.000000000000000000, -0.000000000000000000, 1.000000000000000000 ) ) ;
#269 = CARTESIAN_POINT ( 'NONE',  ( 0.000000000000000000, 0.000000000000000000, -18.95100000000000051 ) ) ;
#270 = VECTOR ( 'NONE', #589, 1000.000000000000000 ) ;
#271 = CLOSED_SHELL ( 'NONE', ( #462, #1019, #948, #362, #123, #812, #765, #884, #328, #1192, #1039, #954, #345, #685, #622, #137, #82, #583, #1298, #674, #1161, #447, #1279, #776, #65, #582, #962, #329, #1256, #1227, #876, #321, #230, #748, #636, #658, #17, #244, #774 ) ) ;
#272 = DIRECTION ( 'NONE',  ( 1.000000000000000000, 0.000000000000000000, 0.000000000000000000 ) ) ;
#273 = VERTEX_POINT ( 'NONE', #414 ) ;
#274 = CARTESIAN_POINT ( 'NONE',  ( 1.587500000000000133, -0.2143109880596204830, -18.92322736169286657 ) ) ;
#275 = VERTEX_POINT ( 'NONE', #427 ) ;
#276 = DIRECTION ( 'NONE',  ( 1.000000000000000000, 0.000000000000000000, 0.000000000000000000 ) ) ;
#277 = B_SPLINE_CURVE_WITH_KNOTS ( 'NONE', 3,
 ( #76, #698, #297, #396, #1314, #1173, #798, #578 ),
 .UNSPECIFIED., .F., .F.,
 ( 4, 2, 2, 4 ),
 ( 0.01485345774307013020, 0.01548583974386969972, 0.01611822174466926924, 0.01738298574626840828 ),
 .UNSPECIFIED. ) ;
#278 = DIRECTION ( 'NONE',  ( 0.7193398003386504147, -0.000000000000000000, 0.6946583704589981423 ) ) ;
#279 = DIRECTION ( 'NONE',  ( -0.000000000000000000, 1.000000000000000000, -0.000000000000000000 ) ) ;
#280 = ORIENTED_EDGE ( 'NONE', *, *, #246, .F. ) ;
#281 = EDGE_CURVE ( 'NONE', #46, #286, #1290, .T. ) ;
#282 = LINE ( 'NONE', #1284, #607 ) ;
#283 = CARTESIAN_POINT ( 'NONE',  ( 0.3500000000000030864, 1.587499999999991696, 5.200000000000009948 ) ) ;
#284 = DIRECTION ( 'NONE',  ( 0.000000000000000000, 0.000000000000000000, -1.000000000000000000 ) ) ;
#285 = DIRECTION ( 'NONE',  ( 0.000000000000000000, 0.000000000000000000, 1.000000000000000000 ) ) ;
#286 = VERTEX_POINT ( 'NONE', #822 ) ;
#287 = DIRECTION ( 'NONE',  ( 0.000000000000000000, 0.000000000000000000, -1.000000000000000000 ) ) ;
#288 = ORIENTED_EDGE ( 'NONE', *, *, #719, .F. ) ;
#289 = CARTESIAN_POINT ( 'NONE',  ( 2.049999999999999822, 0.000000000000000000, -11.76099999999999923 ) ) ;
#290 = CARTESIAN_POINT ( 'NONE',  ( -0.8571092511720160845, -1.587500000000000133, -18.90227379706276167 ) ) ;
#291 = CARTESIAN_POINT ( 'NONE',  ( 1.550000000000002709, 1.587499999999991696, 6.200000000000010836 ) ) ;
#292 = ORIENTED_EDGE ( 'NONE', *, *, #378, .F. ) ;
#293 = DIRECTION ( 'NONE',  ( 0.000000000000000000, 0.000000000000000000, 1.000000000000000000 ) ) ;
#294 = CARTESIAN_POINT ( 'NONE',  ( -1.268411506570018776, 1.587500000000001688, -18.79991914209833226 ) ) ;
#295 = PRODUCT_DEFINITION ( 'UNKNOWN', '', #521, #927 ) ;
#296 = CARTESIAN_POINT ( 'NONE',  ( 1.060147506033299436, -1.587499999999999689, -18.85174669625523691 ) ) ;
#297 = CARTESIAN_POINT ( 'NONE',  ( -0.8486262390320884474, 1.587500000000001688, -18.88176882282398594 ) ) ;
#298 = ORIENTED_EDGE ( 'NONE', *, *, #1026, .T. ) ;
#299 = CARTESIAN_POINT ( 'NONE',  ( 0.000000000000000000, 0.000000000000000000, 6.200000000000010836 ) ) ;
#300 = EDGE_LOOP ( 'NONE', ( #360, #889, #131, #29 ) ) ;
#301 = EDGE_CURVE ( 'NONE', #429, #128, #528, .T. ) ;
#302 = CARTESIAN_POINT ( 'NONE',  ( -1.587499999999999245, -1.268411506570324976, -18.95100000000000051 ) ) ;
#303 =( LENGTH_UNIT ( ) NAMED_UNIT ( * ) SI_UNIT ( .MILLI., .METRE. ) );
#304 = EDGE_CURVE ( 'NONE', #1110, #911, #1131, .T. ) ;
#305 = VERTEX_POINT ( 'NONE', #1224 ) ;
#306 = CARTESIAN_POINT ( 'NONE',  ( 1.694670100521881828, 1.143315577041156939, 5.544525321479993885 ) ) ;
#307 = VECTOR ( 'NONE', #176, 1000.000000000000000 ) ;
#308 = ORIENTED_EDGE ( 'NONE', *, *, #912, .T. ) ;
#309 = PRODUCT_DEFINITION_SHAPE ( 'NONE', 'NONE',  #295 ) ;
#310 = DIRECTION ( 'NONE',  ( 1.000000000000000000, 0.000000000000000000, 0.000000000000000000 ) ) ;
#311 = CARTESIAN_POINT ( 'NONE',  ( 1.550000000000002265, 1.313972602454096972, 1.015000000000000346 ) ) ;
#312 = EDGE_LOOP ( 'NONE', ( #1213, #308, #1066, #733, #745, #1033, #1022, #1186, #1272, #763, #518, #382 ) ) ;
#313 = APPROVAL ( #1057, 'UNSPECIFIED' ) ;
#314 = EDGE_CURVE ( 'NONE', #1130, #59, #925, .T. ) ;
#315 = DIRECTION ( 'NONE',  ( 1.000000000000000000, 0.000000000000000000, 0.000000000000000000 ) ) ;
#316 = AXIS2_PLACEMENT_3D ( 'NONE', #1118, #1242, #20 ) ;
#317 = ORIENTED_EDGE ( 'NONE', *, *, #648, .F. ) ;
#318 = CARTESIAN_POINT ( 'NONE',  ( 0.000000000000000000, 0.000000000000000000, 6.200000000000010836 ) ) ;
#319 = VERTEX_POINT ( 'NONE', #1230 ) ;
#320 = CARTESIAN_POINT ( 'NONE',  ( 1.268411506570323199, 1.587500000000000799, -18.79991914209798054 ) ) ;
#321 = ADVANCED_FACE ( 'NONE', ( #441 ), #635, .T. ) ;
#322 = EDGE_LOOP ( 'NONE', ( #449, #211, #970, #902 ) ) ;
#323 = CARTESIAN_POINT ( 'NONE',  ( 0.000000000000000000, 0.000000000000000000, -18.95100000000000051 ) ) ;
#324 = CARTESIAN_POINT ( 'NONE',  ( 1.891269295326068356, 3.176000000000000156, 5.658031919522676034 ) ) ;
#325 = VERTEX_POINT ( 'NONE', #930 ) ;
#326 = CARTESIAN_POINT ( 'NONE',  ( 0.4980973490458714958, -1.588549999999994133, 3.406422128626157786 ) ) ;
#327 = ORIENTED_EDGE ( 'NONE', *, *, #489, .T. ) ;
#328 = ADVANCED_FACE ( 'NONE', ( #129 ), #731, .T. ) ;
#329 = ADVANCED_FACE ( 'NONE', ( #540 ), #121, .T. ) ;
#330 = CARTESIAN_POINT ( 'NONE',  ( 1.268411506570324310, 1.587499999999991696, 6.200000000000010836 ) ) ;
#331 = LINE ( 'NONE', #828, #815 ) ;
#332 = VECTOR ( 'NONE', #670, 1000.000000000000000 ) ;
#333 = ORIENTED_EDGE ( 'NONE', *, *, #1055, .T. ) ;
#334 = AXIS2_PLACEMENT_3D ( 'NONE', #1005, #794, #1207 ) ;
#335 = CARTESIAN_POINT ( 'NONE',  ( -1.245064030267289512, 1.524763679400339374E-16, -16.82600000000000051 ) ) ;
#336 = VECTOR ( 'NONE', #807, 1000.000000000000000 ) ;
#337 = CARTESIAN_POINT ( 'NONE',  ( -1.599295491109027356, 1.291974124445368632, 5.960379644622173068 ) ) ;
#338 = APPROVAL_ROLE ( '' ) ;
#339 = ORIENTED_EDGE ( 'NONE', *, *, #497, .F. ) ;
#340 = DIRECTION ( 'NONE',  ( 0.000000000000000000, 0.000000000000000000, -1.000000000000000000 ) ) ;
#341 = DIRECTION ( 'NONE',  ( -1.000000000000000000, 0.000000000000000000, 0.000000000000000000 ) ) ;
#342 = EDGE_CURVE ( 'NONE', #863, #504, #405, .T. ) ;
#343 = SECURITY_CLASSIFICATION_LEVEL ( 'unclassified' ) ;
#344 = EDGE_LOOP ( 'NONE', ( #787, #1274, #631, #955 ) ) ;
#345 = ADVANCED_FACE ( 'NONE', ( #1126 ), #223, .F. ) ;
#346 = CARTESIAN_POINT ( 'NONE',  ( 1.891269295326068356, -0.7430507738754046354, 5.658031919522676034 ) ) ;
#347 = CARTESIAN_POINT ( 'NONE',  ( 1.587500000000000133, 1.268411506570324310, -13.44099999999999895 ) ) ;
#348 = LOCAL_TIME ( 13, 58, 42.00000000000000000, #453 ) ;
#349 = DATE_TIME_ROLE ( 'classification_date' ) ;
#350 = ORIENTED_EDGE ( 'NONE', *, *, #431, .T. ) ;
#351 = DIRECTION ( 'NONE',  ( -0.000000000000000000, -0.000000000000000000, 1.000000000000000000 ) ) ;
#352 = EDGE_LOOP ( 'NONE', ( #100, #542, #975, #350 ) ) ;
#353 = EDGE_CURVE ( 'NONE', #112, #305, #671, .T. ) ;
#354 = AXIS2_PLACEMENT_3D ( 'NONE', #1277, #575, #1267 ) ;
#355 = CARTESIAN_POINT ( 'NONE',  ( 1.268411506570324754, -1.587499999999999467, -13.44099999999999895 ) ) ;
#356 = CARTESIAN_POINT ( 'NONE',  ( 0.000000000000000000, 1.587499999999991696, 3.450000000000008615 ) ) ;
#357 = AXIS2_PLACEMENT_3D ( 'NONE', #384, #1303, #68 ) ;
#358 = ORIENTED_EDGE ( 'NONE', *, *, #1309, .T. ) ;
#359 = CARTESIAN_POINT ( 'NONE',  ( -1.550000000000002709, -1.313972602454110961, 5.460999999999993193 ) ) ;
#360 = ORIENTED_EDGE ( 'NONE', *, *, #934, .F. ) ;
#361 = CARTESIAN_POINT ( 'NONE',  ( -1.587499999999999467, 1.944126793646423041E-16, -18.92322736169286301 ) ) ;
#362 = ADVANCED_FACE ( 'NONE', ( #31 ), #752, .F. ) ;
#363 = CARTESIAN_POINT ( 'NONE',  ( -1.587499999999999467, 1.061392899157112213, -18.85143677385165972 ) ) ;
#364 = CALENDAR_DATE ( 2022, 6, 6 ) ;
#365 = DIRECTION ( 'NONE',  ( 1.000000000000000000, 0.000000000000000000, -5.421010862427522170E-17 ) ) ;
#366 = ORIENTED_EDGE ( 'NONE', *, *, #1241, .F. ) ;
#367 = CARTESIAN_POINT ( 'NONE',  ( 1.367896803705380471, -1.588549999999994133, 6.200000000000010836 ) ) ;
#368 = CC_DESIGN_PERSON_AND_ORGANIZATION_ASSIGNMENT ( #1269, #854, ( #521 ) ) ;
#369 = EDGE_CURVE ( 'NONE', #761, #470, #445, .T. ) ;
#370 = CC_DESIGN_SECURITY_CLASSIFICATION ( #1301, ( #521 ) ) ;
#371 = AXIS2_PLACEMENT_3D ( 'NONE', #624, #938, #204 ) ;
#372 = DIRECTION ( 'NONE',  ( 0.000000000000000000, 0.000000000000000000, 1.000000000000000000 ) ) ;
#373 = CARTESIAN_POINT ( 'NONE',  ( 1.599295491109027356, -1.291974124445368632, 5.960379644622173068 ) ) ;
#374 = EDGE_LOOP ( 'NONE', ( #280, #1246, #593, #125, #641, #483 ) ) ;
#375 = B_SPLINE_CURVE_WITH_KNOTS ( 'NONE', 3,
 ( #458, #274, #874, #647, #764, #562 ),
 .UNSPECIFIED., .F., .F.,
 ( 4, 2, 4 ),
 ( 6.422030205859944076E-19, 0.0006365870327257442968, 0.001273174065451487943 ),
 .UNSPECIFIED. ) ;
#376 = DIRECTION ( 'NONE',  ( 0.000000000000000000, 0.000000000000000000, -1.000000000000000000 ) ) ;
#377 = DIRECTION ( 'NONE',  ( -0.000000000000000000, 1.000000000000000000, -0.000000000000000000 ) ) ;
#378 = EDGE_CURVE ( 'NONE', #275, #273, #740, .T. ) ;
#379 = CARTESIAN_POINT ( 'NONE',  ( 0.3500000000000030864, -1.587499999999991696, 6.200000000000010836 ) ) ;
#380 = AXIS2_PLACEMENT_3D ( 'NONE', #184, #203, #496 ) ;
#381 = CARTESIAN_POINT ( 'NONE',  ( -1.367896803705380471, -1.502625147670771932, 6.200000000000010836 ) ) ;
#382 = ORIENTED_EDGE ( 'NONE', *, *, #47, .F. ) ;
#383 = PLANE ( 'NONE',  #1106 ) ;
#384 = CARTESIAN_POINT ( 'NONE',  ( 0.000000000000000000, 0.000000000000000000, -11.76099999999999923 ) ) ;
#385 = CARTESIAN_POINT ( 'NONE',  ( 1.268411506570021219, -1.587499999999999467, -18.79991914209833226 ) ) ;
#386 = EDGE_CURVE ( 'NONE', #1229, #319, #1264, .T. ) ;
#387 = DIRECTION ( 'NONE',  ( 1.000000000000000000, 0.000000000000000000, 0.000000000000000000 ) ) ;
#388 = ORIENTED_EDGE ( 'NONE', *, *, #942, .T. ) ;
#389 = EDGE_CURVE ( 'NONE', #676, #473, #724, .T. ) ;
#390 = CARTESIAN_POINT ( 'NONE',  ( 3.174999999999999822, 0.000000000000000000, -11.76099999999999923 ) ) ;
#391 =( BOUNDED_CURVE ( )  B_SPLINE_CURVE ( 3, ( #514, #188, #909, #984 ),
 .UNSPECIFIED., .F., .T. ) 
 B_SPLINE_CURVE_WITH_KNOTS ( ( 4, 4 ),
 ( 2.438421258473185471, 2.767235163192543812 ),
 .UNSPECIFIED. ) 
 CURVE ( )  GEOMETRIC_REPRESENTATION_ITEM ( )  RATIONAL_B_SPLINE_CURVE ( ( 1.000000000000000000, 0.9910103942223811302, 0.9910103942223811302, 1.000000000000000000 ) ) 
 REPRESENTATION_ITEM ( '' )  );
#392 = ORIENTED_EDGE ( 'NONE', *, *, #261, .T. ) ;
#393 = AXIS2_PLACEMENT_3D ( 'NONE', #1121, #340, #444 ) ;
#394 = CARTESIAN_POINT ( 'NONE',  ( -2.049999999999999822, 2.510525938252073693E-16, -11.76099999999999923 ) ) ;
#395 = LINE ( 'NONE', #379, #782 ) ;
#396 = CARTESIAN_POINT ( 'NONE',  ( -0.4219230645617103037, 1.587500000000001688, -18.91730730355363121 ) ) ;
#397 = ORIENTED_EDGE ( 'NONE', *, *, #389, .F. ) ;
#398 = DIRECTION ( 'NONE',  ( -0.000000000000000000, -0.000000000000000000, 1.000000000000000000 ) ) ;
#399 = EDGE_LOOP ( 'NONE', ( #1222, #817, #226, #1028, #1024, #1292 ) ) ;
#400 = LINE ( 'NONE', #283, #139 ) ;
#401 = LINE ( 'NONE', #1203, #946 ) ;
#402 = CARTESIAN_POINT ( 'NONE',  ( -2.049999999999999822, 2.510525938252073693E-16, -11.76099999999999923 ) ) ;
#403 = AXIS2_PLACEMENT_3D ( 'NONE', #138, #58, #943 ) ;
#404 = ORIENTED_EDGE ( 'NONE', *, *, #895, .F. ) ;
#405 = CIRCLE ( 'NONE', #1134, 2.049999999999999822 ) ;
#406 = DIRECTION ( 'NONE',  ( -0.000000000000000000, -0.000000000000000000, -1.000000000000000000 ) ) ;
#407 = EDGE_CURVE ( 'NONE', #1090, #599, #459, .T. ) ;
#408 = ORIENTED_EDGE ( 'NONE', *, *, #544, .F. ) ;
#409 = LINE ( 'NONE', #609, #336 ) ;
#410 = CARTESIAN_POINT ( 'NONE',  ( -1.809458434164550766, -0.9512819946464747822, 5.610798396808418964 ) ) ;
#411 = ORIENTED_EDGE ( 'NONE', *, *, #988, .F. ) ;
#412 = CARTESIAN_POINT ( 'NONE',  ( 1.587500000000000577, -1.268411506570323644, -18.95100000000000051 ) ) ;
#413 = ORIENTED_EDGE ( 'NONE', *, *, #24, .F. ) ;
#414 = CARTESIAN_POINT ( 'NONE',  ( -1.268411506570322311, 1.587500000000001688, -13.44099999999999895 ) ) ;
#415 = DIRECTION ( 'NONE',  ( -1.000000000000000000, -1.365923996832131856E-16, 0.000000000000000000 ) ) ;
#416 = VERTEX_POINT ( 'NONE', #1262 ) ;
#417 = DIRECTION ( 'NONE',  ( -0.000000000000000000, -0.000000000000000000, -1.000000000000000000 ) ) ;
#418 = VECTOR ( 'NONE', #285, 1000.000000000000000 ) ;
#419 = EDGE_LOOP ( 'NONE', ( #71, #236, #105, #1317, #983, #579, #694, #758, #887, #1108, #186, #997 ) ) ;
#420 = DIRECTION ( 'NONE',  ( -0.000000000000000000, -0.000000000000000000, 1.000000000000000000 ) ) ;
#421 = EDGE_CURVE ( 'NONE', #1003, #1275, #1132, .T. ) ;
#422 = CARTESIAN_POINT ( 'NONE',  ( -1.550000000000002709, 1.313972602454110961, 5.460999999999993193 ) ) ;
#423 = ORIENTED_EDGE ( 'NONE', *, *, #1217, .F. ) ;
#424 = DIRECTION ( 'NONE',  ( -1.000000000000000000, 1.224646799147353454E-16, 0.000000000000000000 ) ) ;
#425 = VECTOR ( 'NONE', #486, 1000.000000000000000 ) ;
#426 = ORIENTED_EDGE ( 'NONE', *, *, #281, .F. ) ;
#427 = CARTESIAN_POINT ( 'NONE',  ( -1.587499999999999245, 1.268411506570324976, -13.44099999999999895 ) ) ;
#428 = CARTESIAN_POINT ( 'NONE',  ( 0.000000000000000000, 0.000000000000000000, 6.200000000000010836 ) ) ;
#429 = VERTEX_POINT ( 'NONE', #1064 ) ;
#430 = DIRECTION ( 'NONE',  ( 1.000000000000000000, 0.000000000000000000, 0.000000000000000000 ) ) ;
#431 = EDGE_CURVE ( 'NONE', #443, #273, #569, .T. ) ;
#432 = EDGE_CURVE ( 'NONE', #964, #686, #695, .T. ) ;
#433 = VERTEX_POINT ( 'NONE', #788 ) ;
#434 = CARTESIAN_POINT ( 'NONE',  ( 0.000000000000000000, 0.000000000000000000, -11.76099999999999923 ) ) ;
#435 = LINE ( 'NONE', #610, #440 ) ;
#436 = ORIENTED_EDGE ( 'NONE', *, *, #353, .T. ) ;
#437 = CARTESIAN_POINT ( 'NONE',  ( 1.550000000000002709, -1.313972602454110961, 5.460999999999993193 ) ) ;
#438 = CC_DESIGN_APPROVAL ( #1235, ( #1301 ) ) ;
#439 = PRODUCT_RELATED_PRODUCT_CATEGORY ( 'detail', '', ( #96 ) ) ;
#440 = VECTOR ( 'NONE', #914, 1000.000000000000000 ) ;
#441 = FACE_OUTER_BOUND ( 'NONE', #499, .T. ) ;
#442 = PERSON_AND_ORGANIZATION ( #164, #1294 ) ;
#443 = VERTEX_POINT ( 'NONE', #294 ) ;
#444 = DIRECTION ( 'NONE',  ( -1.000000000000000000, 0.000000000000000000, -0.000000000000000000 ) ) ;
#445 = CIRCLE ( 'NONE', #985, 2.124999999999998224 ) ;
#446 = EDGE_CURVE ( 'NONE', #723, #265, #400, .T. ) ;
#447 = ADVANCED_FACE ( 'NONE', ( #802 ), #74, .F. ) ;
#448 = PERSON_AND_ORGANIZATION ( #164, #1294 ) ;
#449 = ORIENTED_EDGE ( 'NONE', *, *, #935, .T. ) ;
#450 = CARTESIAN_POINT ( 'NONE',  ( 0.000000000000000000, 0.000000000000000000, -13.44099999999999895 ) ) ;
#451 = DIRECTION ( 'NONE',  ( 1.000000000000000000, 0.000000000000000000, 0.000000000000000000 ) ) ;
#452 = CARTESIAN_POINT ( 'NONE',  ( 0.3500000000000030864, -1.587499999999991696, 5.200000000000009948 ) ) ;
#453 = COORDINATED_UNIVERSAL_TIME_OFFSET ( 6, 0, .BEHIND. ) ;
#454 = CARTESIAN_POINT ( 'NONE',  ( -0.6550150799420408898, 1.587499999999991696, 5.200000000000009948 ) ) ;
#455 = LOCAL_TIME ( 13, 58, 42.00000000000000000, #960 ) ;
#456 = CARTESIAN_POINT ( 'NONE',  ( 1.367896803705380471, -1.502625147670771932, 6.200000000000010836 ) ) ;
#457 = ORIENTED_EDGE ( 'NONE', *, *, #530, .F. ) ;
#458 = CARTESIAN_POINT ( 'NONE',  ( 1.587500000000000355, 0.000000000000000000, -18.92322736169286301 ) ) ;
#459 = LINE ( 'NONE', #1252, #1149 ) ;
#460 = VECTOR ( 'NONE', #844, 1000.000000000000000 ) ;
#461 = ORIENTED_EDGE ( 'NONE', *, *, #1076, .F. ) ;
#462 = ADVANCED_FACE ( 'NONE', ( #890 ), #1070, .T. ) ;
#463 = CARTESIAN_POINT ( 'NONE',  ( -1.776842238108530481, -1.034299215406988104, 5.776524605989284744 ) ) ;
#464 = ORIENTED_EDGE ( 'NONE', *, *, #1138, .T. ) ;
#465 = CARTESIAN_POINT ( 'NONE',  ( -1.587499999999999245, 1.268411506570324976, -18.95100000000000051 ) ) ;
#466 = CARTESIAN_POINT ( 'NONE',  ( -1.587499999999999023, 0.8513200635100138802, -18.88137755531810313 ) ) ;
#467 = AXIS2_PLACEMENT_3D ( 'NONE', #318, #725, #1137 ) ;
#468 = PLANE ( 'NONE',  #989 ) ;
#469 = CARTESIAN_POINT ( 'NONE',  ( -1.891269295326068356, -0.7430507738754024150, 5.658031919522676034 ) ) ;
#470 = VERTEX_POINT ( 'NONE', #1293 ) ;
#471 = PLANE ( 'NONE',  #334 ) ;
#472 = EDGE_CURVE ( 'NONE', #1315, #429, #189, .T. ) ;
#473 = VERTEX_POINT ( 'NONE', #595 ) ;
#474 = LINE ( 'NONE', #849, #1300 ) ;
#475 = ORIENTED_EDGE ( 'NONE', *, *, #38, .F. ) ;
#476 = AXIS2_PLACEMENT_3D ( 'NONE', #753, #847, #33 ) ;
#477 = DIRECTION ( 'NONE',  ( 0.000000000000000000, 0.000000000000000000, 1.000000000000000000 ) ) ;
#478 = EDGE_CURVE ( 'NONE', #863, #1030, #88, .T. ) ;
#479 = CARTESIAN_POINT ( 'NONE',  ( 1.599295491109027578, 1.291974124445368410, 5.960379644622173068 ) ) ;
#480 = VECTOR ( 'NONE', #996, 1000.000000000000000 ) ;
#481 = EDGE_LOOP ( 'NONE', ( #205, #457 ) ) ;
#482 = PLANE ( 'NONE',  #1104 ) ;
#483 = ORIENTED_EDGE ( 'NONE', *, *, #1, .F. ) ;
#484 = CYLINDRICAL_SURFACE ( 'NONE', #1216, 2.032000000000000028 ) ;
#485 = ORIENTED_EDGE ( 'NONE', *, *, #478, .T. ) ;
#486 = DIRECTION ( 'NONE',  ( 0.000000000000000000, 0.000000000000000000, 1.000000000000000000 ) ) ;
#487 = EDGE_CURVE ( 'NONE', #617, #172, #1044, .T. ) ;
#488 = CARTESIAN_POINT ( 'NONE',  ( -1.550000000000002709, -1.587499999999991696, 6.200000000000010836 ) ) ;
#489 = EDGE_CURVE ( 'NONE', #1069, #433, #760, .T. ) ;
#490 = AXIS2_PLACEMENT_3D ( 'NONE', #1086, #377, #1202 ) ;
#491 = DIRECTION ( 'NONE',  ( 1.000000000000000000, 0.000000000000000000, 0.000000000000000000 ) ) ;
#492 = EDGE_LOOP ( 'NONE', ( #869, #805, #1249, #920 ) ) ;
#493 = DIRECTION ( 'NONE',  ( -0.000000000000000000, 1.000000000000000000, -0.000000000000000000 ) ) ;
#494 = VERTEX_POINT ( 'NONE', #987 ) ;
#495 = DIRECTION ( 'NONE',  ( -0.000000000000000000, -0.000000000000000000, 1.000000000000000000 ) ) ;
#496 = DIRECTION ( 'NONE',  ( -1.000000000000000000, 0.000000000000000000, 0.000000000000000000 ) ) ;
#497 = EDGE_CURVE ( 'NONE', #443, #473, #649, .T. ) ;
#498 = DIRECTION ( 'NONE',  ( 1.365923996832131609E-16, -1.000000000000000000, 0.000000000000000000 ) ) ;
#499 = EDGE_LOOP ( 'NONE', ( #809, #5, #19, #908 ) ) ;
#500 = ORIENTED_EDGE ( 'NONE', *, *, #446, .T. ) ;
#501 = LINE ( 'NONE', #167, #78 ) ;
#502 = DIRECTION ( 'NONE',  ( -0.8660254037844364872, 0.000000000000000000, 0.5000000000000037748 ) ) ;
#503 = LINE ( 'NONE', #1081, #1000 ) ;
#504 = VERTEX_POINT ( 'NONE', #394 ) ;
#505 = EDGE_CURVE ( 'NONE', #319, #102, #501, .T. ) ;
#506 = CARTESIAN_POINT ( 'NONE',  ( 1.550000000000002709, 1.313972602454083205, 5.460999999999993193 ) ) ;
#507 = B_SPLINE_CURVE_WITH_KNOTS ( 'NONE', 3,
 ( #1146, #1273, #50, #678, #568, #361 ),
 .UNSPECIFIED., .F., .F.,
 ( 4, 2, 4 ),
 ( 0.01485345774307010938, 0.01548163471194350521, 0.01610981168081690104 ),
 .UNSPECIFIED. ) ;
#508 = ORIENTED_EDGE ( 'NONE', *, *, #613, .F. ) ;
#509 = DIRECTION ( 'NONE',  ( -1.000000000000000000, 0.000000000000000000, 0.000000000000000000 ) ) ;
#510 = CARTESIAN_POINT ( 'NONE',  ( 0.000000000000000000, 0.000000000000000000, -18.79991914209798054 ) ) ;
#511 = AXIS2_PLACEMENT_3D ( 'NONE', #1093, #601, #796 ) ;
#512 = EDGE_LOOP ( 'NONE', ( #165, #534, #253, #770, #388, #520 ) ) ;
#513 = AXIS2_PLACEMENT_3D ( 'NONE', #891, #1080, #502 ) ;
#514 = CARTESIAN_POINT ( 'NONE',  ( 1.550000000000002709, -1.313972602454110961, 5.460999999999993193 ) ) ;
#515 = ORIENTED_EDGE ( 'NONE', *, *, #472, .T. ) ;
#516 = CARTESIAN_POINT ( 'NONE',  ( 1.268411506570324310, 1.587499999999991696, 6.200000000000010836 ) ) ;
#517 = CARTESIAN_POINT ( 'NONE',  ( 0.3499999999999961475, -1.587499999999991696, 6.200000000000010836 ) ) ;
#518 = ORIENTED_EDGE ( 'NONE', *, *, #935, .F. ) ;
#519 = LINE ( 'NONE', #825, #202 ) ;
#520 = ORIENTED_EDGE ( 'NONE', *, *, #1098, .T. ) ;
#521 = PRODUCT_DEFINITION_FORMATION_WITH_SPECIFIED_SOURCE ( 'ANY', '', #96, .NOT_KNOWN. ) ;
#522 = EDGE_CURVE ( 'NONE', #35, #727, #576, .T. ) ;
#523 = DIRECTION ( 'NONE',  ( -0.000000000000000000, 1.000000000000000000, -0.000000000000000000 ) ) ;
#524 = DIRECTION ( 'NONE',  ( 0.000000000000000000, 0.000000000000000000, 1.000000000000000000 ) ) ;
#525 = ORIENTED_EDGE ( 'NONE', *, *, #432, .F. ) ;
#526 = CARTESIAN_POINT ( 'NONE',  ( 0.6550150799420408898, 1.587499999999991696, 5.200000000000009948 ) ) ;
#527 = VERTEX_POINT ( 'NONE', #972 ) ;
#528 = LINE ( 'NONE', #110, #1243 ) ;
#529 = EDGE_CURVE ( 'NONE', #494, #1158, #1254, .T. ) ;
#530 = EDGE_CURVE ( 'NONE', #504, #863, #248, .T. ) ;
#531 = EDGE_LOOP ( 'NONE', ( #773, #115, #475, #292, #992, #848, #625, #1205 ) ) ;
#532 = FACE_BOUND ( 'NONE', #531, .T. ) ;
#533 = VECTOR ( 'NONE', #43, 1000.000000000000114 ) ;
#534 = ORIENTED_EDGE ( 'NONE', *, *, #6, .T. ) ;
#535 = DIRECTION ( 'NONE',  ( -1.000000000000000000, 0.000000000000000000, -0.000000000000000000 ) ) ;
#536 = DIRECTION ( 'NONE',  ( -1.000000000000000000, 0.000000000000000000, 0.000000000000000000 ) ) ;
#537 = VERTEX_POINT ( 'NONE', #355 ) ;
#538 = CC_DESIGN_PERSON_AND_ORGANIZATION_ASSIGNMENT ( #448, #1042, ( #96 ) ) ;
#539 = DIRECTION ( 'NONE',  ( -0.08715574274765827689, 0.000000000000000000, 0.9961946980917455452 ) ) ;
#540 = FACE_OUTER_BOUND ( 'NONE', #512, .T. ) ;
#541 = CYLINDRICAL_SURFACE ( 'NONE', #1167, 2.032000000000000028 ) ;
#542 = ORIENTED_EDGE ( 'NONE', *, *, #792, .T. ) ;
#543 = LINE ( 'NONE', #326, #1260 ) ;
#544 = EDGE_CURVE ( 'NONE', #842, #676, #507, .T. ) ;
#545 = VECTOR ( 'NONE', #279, 1000.000000000000000 ) ;
#546 = EDGE_CURVE ( 'NONE', #617, #537, #965, .T. ) ;
#547 = EDGE_LOOP ( 'NONE', ( #317, #638, #1085, #14, #1190, #1016 ) ) ;
#548 = DIRECTION ( 'NONE',  ( -0.000000000000000000, -0.000000000000000000, 1.000000000000000000 ) ) ;
#549 = AXIS2_PLACEMENT_3D ( 'NONE', #356, #1160, #260 ) ;
#550 = AXIS2_PLACEMENT_3D ( 'NONE', #1304, #1094, #590 ) ;
#551 = DIRECTION ( 'NONE',  ( 1.000000000000000000, -2.731847993664263218E-16, -0.000000000000000000 ) ) ;
#552 = CARTESIAN_POINT ( 'NONE',  ( 0.000000000000000000, 0.000000000000000000, -13.44099999999999895 ) ) ;
#553 = ORIENTED_EDGE ( 'NONE', *, *, #977, .F. ) ;
#554 = CARTESIAN_POINT ( 'NONE',  ( -1.891269295326068356, -0.7430507738754024150, 5.658031919522676034 ) ) ;
#555 = DIRECTION ( 'NONE',  ( 0.000000000000000000, 0.000000000000000000, 1.000000000000000000 ) ) ;
#556 = EDGE_CURVE ( 'NONE', #950, #494, #254, .T. ) ;
#557 = APPROVAL_DATE_TIME ( #45, #1235 ) ;
#558 = LINE ( 'NONE', #667, #612 ) ;
#559 = DIRECTION ( 'NONE',  ( 1.000000000000000000, 1.365923996832131856E-16, -0.000000000000000000 ) ) ;
#560 = AXIS2_PLACEMENT_3D ( 'NONE', #956, #48, #1265 ) ;
#561 = ORIENTED_EDGE ( 'NONE', *, *, #342, .T. ) ;
#562 = CARTESIAN_POINT ( 'NONE',  ( 1.587500000000000577, -1.268411506570323644, -18.79991914209798054 ) ) ;
#563 = AXIS2_PLACEMENT_3D ( 'NONE', #552, #749, #61 ) ;
#564 = CARTESIAN_POINT ( 'NONE',  ( 0.000000000000000000, 0.000000000000000000, 1.015000000000000346 ) ) ;
#565 = EDGE_CURVE ( 'NONE', #59, #112, #1054, .T. ) ;
#566 = CARTESIAN_POINT ( 'NONE',  ( 0.000000000000000000, 0.000000000000000000, 1.015000000000000568 ) ) ;
#567 = EDGE_LOOP ( 'NONE', ( #880, #704, #1096, #611 ) ) ;
#568 = CARTESIAN_POINT ( 'NONE',  ( -1.587499999999999245, -0.2114796877013272458, -18.92322736169285591 ) ) ;
#569 = LINE ( 'NONE', #1278, #209 ) ;
#570 = VECTOR ( 'NONE', #1197, 1000.000000000000000 ) ;
#571 = COORDINATED_UNIVERSAL_TIME_OFFSET ( 6, 0, .BEHIND. ) ;
#572 = DIRECTION ( 'NONE',  ( 1.000000000000000000, 0.000000000000000000, 0.000000000000000000 ) ) ;
#573 = CARTESIAN_POINT ( 'NONE',  ( 1.587500000000000133, 1.268411506570020331, -18.79991914209833226 ) ) ;
#574 = ORIENTED_EDGE ( 'NONE', *, *, #222, .T. ) ;
#575 = DIRECTION ( 'NONE',  ( 0.5000000000000037748, 0.000000000000000000, -0.8660254037844364872 ) ) ;
#576 = LINE ( 'NONE', #1196, #823 ) ;
#577 = DIRECTION ( 'NONE',  ( 0.000000000000000000, 0.000000000000000000, -1.000000000000000000 ) ) ;
#578 = CARTESIAN_POINT ( 'NONE',  ( 1.268411506570323199, 1.587500000000000799, -18.79991914209798054 ) ) ;
#579 = ORIENTED_EDGE ( 'NONE', *, *, #10, .F. ) ;
#580 = FACE_OUTER_BOUND ( 'NONE', #492, .T. ) ;
#581 = EDGE_CURVE ( 'NONE', #267, #679, #958, .T. ) ;
#582 = ADVANCED_FACE ( 'NONE', ( #771 ), #166, .T. ) ;
#583 = ADVANCED_FACE ( 'NONE', ( #751 ), #150, .T. ) ;
#584 = AXIS2_PLACEMENT_3D ( 'NONE', #1136, #618, #233 ) ;
#585 = CARTESIAN_POINT ( 'NONE',  ( -0.4980973490458714958, -1.587499999999991696, 3.406422128626157786 ) ) ;
#586 = LINE ( 'NONE', #974, #1037 ) ;
#587 = EDGE_LOOP ( 'NONE', ( #1117, #392, #67, #117 ) ) ;
#588 = EDGE_LOOP ( 'NONE', ( #1135, #155, #1075, #411, #714 ) ) ;
#589 = DIRECTION ( 'NONE',  ( -1.000000000000000000, 0.000000000000000000, -0.000000000000000000 ) ) ;
#590 = DIRECTION ( 'NONE',  ( -1.000000000000000000, 0.000000000000000000, 0.000000000000000000 ) ) ;
#591 = AXIS2_PLACEMENT_3D ( 'NONE', #323, #217, #1025 ) ;
#592 = CARTESIAN_POINT ( 'NONE',  ( -1.550000000000002709, 1.313972602454110961, 5.460999999999993193 ) ) ;
#593 = ORIENTED_EDGE ( 'NONE', *, *, #304, .F. ) ;
#594 = CARTESIAN_POINT ( 'NONE',  ( 1.891269295326068356, 0.7430507738754024150, 5.658031919522676034 ) ) ;
#595 = CARTESIAN_POINT ( 'NONE',  ( -1.587499999999999245, 1.268411506570324976, -18.79991914209798054 ) ) ;
#596 = EDGE_CURVE ( 'NONE', #470, #172, #375, .T. ) ;
#597 = CARTESIAN_POINT ( 'NONE',  ( 0.4219230645617119690, -1.587499999999999467, -18.91730730355363477 ) ) ;
#598 = CARTESIAN_POINT ( 'NONE',  ( 0.000000000000000000, 0.000000000000000000, 1.015000000000000346 ) ) ;
#599 = VERTEX_POINT ( 'NONE', #347 ) ;
#600 = DIRECTION ( 'NONE',  ( 1.000000000000000000, 0.000000000000000000, 0.000000000000000000 ) ) ;
#601 = DIRECTION ( 'NONE',  ( 0.000000000000000000, 0.000000000000000000, 1.000000000000000000 ) ) ;
#602 = PLANE ( 'NONE',  #210 ) ;
#603 = APPROVAL_PERSON_ORGANIZATION ( #1147, #1235, #338 ) ;
#604 = CARTESIAN_POINT ( 'NONE',  ( 1.587500000000000133, 1.268411506570020331, -18.79991914209833226 ) ) ;
#605 = CIRCLE ( 'NONE', #1214, 2.032000000000000028 ) ;
#606 = EDGE_LOOP ( 'NONE', ( #1006, #333 ) ) ;
#607 = VECTOR ( 'NONE', #207, 1000.000000000000000 ) ;
#608 = ORIENTED_EDGE ( 'NONE', *, *, #613, .T. ) ;
#609 = CARTESIAN_POINT ( 'NONE',  ( -1.587499999999999467, 1.587500000000001688, -13.44099999999999895 ) ) ;
#610 = CARTESIAN_POINT ( 'NONE',  ( -0.3500000000000030864, -1.588549999999994133, 5.200000000000009948 ) ) ;
#611 = ORIENTED_EDGE ( 'NONE', *, *, #864, .F. ) ;
#612 = VECTOR ( 'NONE', #551, 1000.000000000000000 ) ;
#613 = EDGE_CURVE ( 'NONE', #275, #473, #759, .T. ) ;
#614 = ORIENTED_EDGE ( 'NONE', *, *, #596, .T. ) ;
#615 = CARTESIAN_POINT ( 'NONE',  ( -1.776842238108529815, 1.034299215406989214, 5.776524605989284744 ) ) ;
#616 = DIRECTION ( 'NONE',  ( 1.000000000000000000, 0.000000000000000000, 0.000000000000000000 ) ) ;
#617 = VERTEX_POINT ( 'NONE', #865 ) ;
#618 = DIRECTION ( 'NONE',  ( 0.000000000000000000, 0.000000000000000000, 1.000000000000000000 ) ) ;
#619 = EDGE_CURVE ( 'NONE', #221, #761, #691, .T. ) ;
#620 = VERTEX_POINT ( 'NONE', #554 ) ;
#621 = CIRCLE ( 'NONE', #1234, 2.049999999999999822 ) ;
#622 = ADVANCED_FACE ( 'NONE', ( #1152 ), #971, .T. ) ;
#623 = LINE ( 'NONE', #212, #32 ) ;
#624 = CARTESIAN_POINT ( 'NONE',  ( -0.3500000000000030864, -1.588549999999994133, 5.200000000000009948 ) ) ;
#625 = ORIENTED_EDGE ( 'NONE', *, *, #1026, .F. ) ;
#626 =( BOUNDED_CURVE ( )  B_SPLINE_CURVE ( 3, ( #1002, #410, #784, #99 ),
 .UNSPECIFIED., .F., .T. ) 
 B_SPLINE_CURVE_WITH_KNOTS ( ( 4, 4 ),
 ( 3.515950143987041088, 3.844764048706400761 ),
 .UNSPECIFIED. ) 
 CURVE ( )  GEOMETRIC_REPRESENTATION_ITEM ( )  RATIONAL_B_SPLINE_CURVE ( ( 1.000000000000000000, 0.9910103942223811302, 0.9910103942223811302, 1.000000000000000000 ) ) 
 REPRESENTATION_ITEM ( '' )  );
#627 = DIRECTION ( 'NONE',  ( -1.000000000000000000, 0.000000000000000000, 0.000000000000000000 ) ) ;
#628 = ORIENTED_EDGE ( 'NONE', *, *, #895, .T. ) ;
#629 = PLANE ( 'NONE',  #882 ) ;
#630 = DIRECTION ( 'NONE',  ( -0.08715574274765827689, 0.000000000000000000, -0.9961946980917455452 ) ) ;
#631 = ORIENTED_EDGE ( 'NONE', *, *, #1162, .T. ) ;
#632 = PLANE ( 'NONE',  #1258 ) ;
#633 = AXIS2_PLACEMENT_3D ( 'NONE', #1154, #1049, #341 ) ;
#634 = ORIENTED_EDGE ( 'NONE', *, *, #864, .T. ) ;
#635 = CYLINDRICAL_SURFACE ( 'NONE', #1027, 3.174999999999999822 ) ;
#636 = ADVANCED_FACE ( 'NONE', ( #1159 ), #1168, .T. ) ;
#637 = CARTESIAN_POINT ( 'NONE',  ( 0.000000000000000000, 0.000000000000000000, 6.200000000000010836 ) ) ;
#638 = ORIENTED_EDGE ( 'NONE', *, *, #386, .T. ) ;
#639 = LINE ( 'NONE', #220, #152 ) ;
#640 = LINE ( 'NONE', #1031, #1007 ) ;
#641 = ORIENTED_EDGE ( 'NONE', *, *, #281, .T. ) ;
#642 = FACE_OUTER_BOUND ( 'NONE', #149, .T. ) ;
#643 = AXIS2_PLACEMENT_3D ( 'NONE', #924, #524, #738 ) ;
#644 = CARTESIAN_POINT ( 'NONE',  ( -1.587499999999999911, 0.4277385810629861784, -18.91698654358311771 ) ) ;
#645 = PERSON_AND_ORGANIZATION ( #164, #1294 ) ;
#646 = CYLINDRICAL_SURFACE ( 'NONE', #1225, 2.032000000000000028 ) ;
#647 = CARTESIAN_POINT ( 'NONE',  ( 1.587500000000000355, -0.8513200635100126590, -18.88137755531811024 ) ) ;
#648 = EDGE_CURVE ( 'NONE', #1229, #1078, #779, .T. ) ;
#649 = CIRCLE ( 'NONE', #187, 2.032000000000000028 ) ;
#650 = CARTESIAN_POINT ( 'NONE',  ( 1.245064030267289512, 0.000000000000000000, -16.82600000000000051 ) ) ;
#651 = PERSON_AND_ORGANIZATION_ROLE ( 'design_supplier' ) ;
#652 = DIRECTION ( 'NONE',  ( 0.000000000000000000, 0.000000000000000000, 1.000000000000000000 ) ) ;
#653 = DIRECTION ( 'NONE',  ( 1.000000000000000000, -6.994852725712931474E-17, 0.000000000000000000 ) ) ;
#654 = ORIENTED_EDGE ( 'NONE', *, *, #6, .F. ) ;
#655 = APPLICATION_CONTEXT ( 'configuration controlled 3d designs of mechanical parts and assemblies' ) ;
#656 = DIRECTION ( 'NONE',  ( 0.000000000000000000, 0.000000000000000000, -1.000000000000000000 ) ) ;
#657 =( BOUNDED_CURVE ( )  B_SPLINE_CURVE ( 3, ( #1038, #1059, #463, #469 ),
 .UNSPECIFIED., .F., .T. ) 
 B_SPLINE_CURVE_WITH_KNOTS ( ( 4, 4 ),
 ( 5.450886424868650160, 5.908827816782336484 ),
 .UNSPECIFIED. ) 
 CURVE ( )  GEOMETRIC_REPRESENTATION_ITEM ( )  RATIONAL_B_SPLINE_CURVE ( ( 1.000000000000000000, 0.9826003582447280227, 0.9826003582447280227, 1.000000000000000000 ) ) 
 REPRESENTATION_ITEM ( '' )  );
#658 = ADVANCED_FACE ( 'NONE', ( #580 ), #1251, .T. ) ;
#659 = APPLICATION_PROTOCOL_DEFINITION ( 'international standard', 'config_control_design', 1994, #655 ) ;
#660 = LINE ( 'NONE', #454, #1245 ) ;
#661 = PLANE ( 'NONE',  #836 ) ;
#662 = ORIENTED_EDGE ( 'NONE', *, *, #816, .T. ) ;
#663 = CARTESIAN_POINT ( 'NONE',  ( -1.550000000000002709, 1.587499999999991696, 6.200000000000010836 ) ) ;
#664 =( BOUNDED_CURVE ( )  B_SPLINE_CURVE ( 3, ( #422, #1015, #130, #1231 ),
 .UNSPECIFIED., .F., .T. ) 
 B_SPLINE_CURVE_WITH_KNOTS ( ( 4, 4 ),
 ( 2.438421258473185471, 2.767235163192543812 ),
 .UNSPECIFIED. ) 
 CURVE ( )  GEOMETRIC_REPRESENTATION_ITEM ( )  RATIONAL_B_SPLINE_CURVE ( ( 1.000000000000000000, 0.9910103942223811302, 0.9910103942223811302, 1.000000000000000000 ) ) 
 REPRESENTATION_ITEM ( '' )  );
#665 = APPROVAL_STATUS ( 'not_yet_approved' ) ;
#666 = APPROVAL ( #134, 'UNSPECIFIED' ) ;
#667 = CARTESIAN_POINT ( 'NONE',  ( 1.587500000000000133, 1.587500000000000799, -13.44099999999999895 ) ) ;
#668 = CARTESIAN_POINT ( 'NONE',  ( 3.174999999999999822, 0.000000000000000000, -13.44099999999999895 ) ) ;
#669 = ORIENTED_EDGE ( 'NONE', *, *, #702, .T. ) ;
#670 = DIRECTION ( 'NONE',  ( -0.000000000000000000, -0.000000000000000000, -1.000000000000000000 ) ) ;
#671 = LINE ( 'NONE', #452, #697 ) ;
#672 = VECTOR ( 'NONE', #284, 1000.000000000000000 ) ;
#673 = FACE_OUTER_BOUND ( 'NONE', #799, .T. ) ;
#674 = ADVANCED_FACE ( 'NONE', ( #1261 ), #471, .F. ) ;
#675 = CARTESIAN_POINT ( 'NONE',  ( 1.891269295326068356, 0.7430507738754024150, 5.658031919522676034 ) ) ;
#676 = VERTEX_POINT ( 'NONE', #194 ) ;
#677 = EDGE_CURVE ( 'NONE', #679, #723, #1191, .T. ) ;
#678 = CARTESIAN_POINT ( 'NONE',  ( -1.587499999999999467, -0.4276219574845286919, -18.91699639200008676 ) ) ;
#679 = VERTEX_POINT ( 'NONE', #897 ) ;
#680 = DIRECTION ( 'NONE',  ( 1.000000000000000000, 0.000000000000000000, 0.000000000000000000 ) ) ;
#681 = DIRECTION ( 'NONE',  ( 0.000000000000000000, 0.000000000000000000, 1.000000000000000000 ) ) ;
#682 = CARTESIAN_POINT ( 'NONE',  ( 1.550000000000002709, 1.313972602454083205, 5.460999999999993193 ) ) ;
#683 = ORIENTED_EDGE ( 'NONE', *, *, #619, .T. ) ;
#684 = CARTESIAN_POINT ( 'NONE',  ( 0.000000000000000000, 0.000000000000000000, -18.95100000000000051 ) ) ;
#685 = ADVANCED_FACE ( 'NONE', ( #903 ), #94, .T. ) ;
#686 = VERTEX_POINT ( 'NONE', #390 ) ;
#687 = DIRECTION ( 'NONE',  ( 1.000000000000000000, 0.000000000000000000, 0.000000000000000000 ) ) ;
#688 = B_SPLINE_CURVE_WITH_KNOTS ( 'NONE', 3,
 ( #573, #136, #257, #36, #969, #856 ),
 .UNSPECIFIED., .F., .F.,
 ( 4, 2, 4 ),
 ( 0.01485345774307012326, 0.01548163471194351735, 0.01610981168081691145 ),
 .UNSPECIFIED. ) ;
#689 = DIRECTION ( 'NONE',  ( -1.365923996832131609E-16, 1.000000000000000000, 0.000000000000000000 ) ) ;
#690 = ORIENTED_EDGE ( 'NONE', *, *, #487, .F. ) ;
#691 = CIRCLE ( 'NONE', #98, 1.245064030267289512 ) ;
#692 = CARTESIAN_POINT ( 'NONE',  ( -1.268411506570328307, -1.587499999999996581, 1.015000000000000346 ) ) ;
#693 = EDGE_CURVE ( 'NONE', #35, #1166, #715, .T. ) ;
#694 = ORIENTED_EDGE ( 'NONE', *, *, #831, .F. ) ;
#695 = LINE ( 'NONE', #994, #53 ) ;
#696 = DIRECTION ( 'NONE',  ( 0.000000000000000000, 0.000000000000000000, -1.000000000000000000 ) ) ;
#697 = VECTOR ( 'NONE', #1072, 1000.000000000000000 ) ;
#698 = CARTESIAN_POINT ( 'NONE',  ( -1.060147506033296549, 1.587500000000002132, -18.85174669625523691 ) ) ;
#699 = ORIENTED_EDGE ( 'NONE', *, *, #702, .F. ) ;
#700 = DIRECTION ( 'NONE',  ( -0.000000000000000000, -0.000000000000000000, 1.000000000000000000 ) ) ;
#701 = CARTESIAN_POINT ( 'NONE',  ( -0.3500000000000030864, -1.587499999999991696, 6.200000000000010836 ) ) ;
#702 = EDGE_CURVE ( 'NONE', #1069, #286, #1185, .T. ) ;
#703 = LINE ( 'NONE', #84, #307 ) ;
#704 = ORIENTED_EDGE ( 'NONE', *, *, #231, .T. ) ;
#705 = DIRECTION ( 'NONE',  ( 1.000000000000000000, 0.000000000000000000, 0.000000000000000000 ) ) ;
#706 = EDGE_LOOP ( 'NONE', ( #436, #832, #500, #1199 ) ) ;
#707 = LINE ( 'NONE', #585, #162 ) ;
#708 = CC_DESIGN_DATE_AND_TIME_ASSIGNMENT ( #1253, #349, ( #1301 ) ) ;
#709 = EDGE_CURVE ( 'NONE', #835, #224, #391, .T. ) ;
#710 = DIRECTION ( 'NONE',  ( 1.000000000000000000, 0.000000000000000000, 0.000000000000000000 ) ) ;
#711 = VECTOR ( 'NONE', #498, 1000.000000000000000 ) ;
#712 = ORIENTED_EDGE ( 'NONE', *, *, #522, .F. ) ;
#713 = CARTESIAN_POINT ( 'NONE',  ( -1.367896803705380471, -1.588549999999994133, 6.200000000000010836 ) ) ;
#714 = ORIENTED_EDGE ( 'NONE', *, *, #407, .T. ) ;
#715 = CIRCLE ( 'NONE', #158, 2.032000000000000028 ) ;
#716 = CYLINDRICAL_SURFACE ( 'NONE', #591, 2.032000000000000028 ) ;
#717 = CARTESIAN_POINT ( 'NONE',  ( 0.000000000000000000, 0.000000000000000000, 1.015000000000000568 ) ) ;
#718 = VERTEX_POINT ( 'NONE', #692 ) ;
#719 = EDGE_CURVE ( 'NONE', #1158, #1078, #122, .T. ) ;
#720 = AXIS2_PLACEMENT_3D ( 'NONE', #871, #1172, #242 ) ;
#721 = CYLINDRICAL_SURFACE ( 'NONE', #584, 2.049999999999999822 ) ;
#722 = EDGE_CURVE ( 'NONE', #305, #723, #282, .T. ) ;
#723 = VERTEX_POINT ( 'NONE', #86 ) ;
#724 = B_SPLINE_CURVE_WITH_KNOTS ( 'NONE', 3,
 ( #239, #44, #644, #466, #363, #766 ),
 .UNSPECIFIED., .F., .F.,
 ( 4, 2, 4 ),
 ( 6.697652274205120288E-19, 0.0006365870327257440800, 0.001273174065451487726 ),
 .UNSPECIFIED. ) ;
#725 = DIRECTION ( 'NONE',  ( -0.000000000000000000, 0.000000000000000000, 1.000000000000000000 ) ) ;
#726 =( NAMED_UNIT ( * ) PLANE_ANGLE_UNIT ( ) SI_UNIT ( $, .RADIAN. ) );
#727 = VERTEX_POINT ( 'NONE', #1316 ) ;
#728 = FACE_OUTER_BOUND ( 'NONE', #957, .T. ) ;
#729 = ORIENTED_EDGE ( 'NONE', *, *, #261, .F. ) ;
#730 = CIRCLE ( 'NONE', #563, 3.174999999999999822 ) ;
#731 = PLANE ( 'NONE',  #467 ) ;
#732 =( NAMED_UNIT ( * ) SI_UNIT ( $, .STERADIAN. ) SOLID_ANGLE_UNIT ( ) );
#733 = ORIENTED_EDGE ( 'NONE', *, *, #66, .F. ) ;
#734 = CARTESIAN_POINT ( 'NONE',  ( -1.268411506570324310, -1.587499999999991696, 6.200000000000010836 ) ) ;
#735 = ORIENTED_EDGE ( 'NONE', *, *, #1004, .T. ) ;
#736 = EDGE_CURVE ( 'NONE', #416, #172, #1307, .T. ) ;
#737 = DIRECTION ( 'NONE',  ( 0.000000000000000000, 0.000000000000000000, 1.000000000000000000 ) ) ;
#738 = DIRECTION ( 'NONE',  ( 1.000000000000000000, 0.000000000000000000, -0.000000000000000000 ) ) ;
#739 = ORIENTED_EDGE ( 'NONE', *, *, #369, .T. ) ;
#740 = CIRCLE ( 'NONE', #633, 2.032000000000000028 ) ;
#741 = CARTESIAN_POINT ( 'NONE',  ( -1.587499999999999245, -1.268411506570021441, -18.79991914209833226 ) ) ;
#742 = AXIS2_PLACEMENT_3D ( 'NONE', #885, #696, #509 ) ;
#743 = CARTESIAN_POINT ( 'NONE',  ( 0.000000000000000000, -1.587499999999991696, 3.450000000000008615 ) ) ;
#744 = CALENDAR_DATE ( 2022, 6, 6 ) ;
#745 = ORIENTED_EDGE ( 'NONE', *, *, #107, .F. ) ;
#746 = DIRECTION ( 'NONE',  ( 0.000000000000000000, 0.000000000000000000, 1.000000000000000000 ) ) ;
#747 = DIRECTION ( 'NONE',  ( 1.000000000000000000, 0.000000000000000000, 0.000000000000000000 ) ) ;
#748 = ADVANCED_FACE ( 'NONE', ( #178 ), #1195, .T. ) ;
#749 = DIRECTION ( 'NONE',  ( 0.000000000000000000, 0.000000000000000000, -1.000000000000000000 ) ) ;
#750 = VECTOR ( 'NONE', #1012, 1000.000000000000000 ) ;
#751 = FACE_OUTER_BOUND ( 'NONE', #12, .T. ) ;
#752 = PLANE ( 'NONE',  #403 ) ;
#753 = CARTESIAN_POINT ( 'NONE',  ( 0.000000000000000000, 0.000000000000000000, 0.000000000000000000 ) ) ;
#754 = AXIS2_PLACEMENT_3D ( 'NONE', #859, #656, #870 ) ;
#755 = CARTESIAN_POINT ( 'NONE',  ( -1.550000000000002709, -1.587499999999991696, 6.200000000000010836 ) ) ;
#756 = AXIS2_PLACEMENT_3D ( 'NONE', #299, #1212, #705 ) ;
#757 = DIRECTION ( 'NONE',  ( 0.000000000000000000, 0.000000000000000000, -1.000000000000000000 ) ) ;
#758 = ORIENTED_EDGE ( 'NONE', *, *, #421, .F. ) ;
#759 = LINE ( 'NONE', #465, #332 ) ;
#760 = CIRCLE ( 'NONE', #511, 2.032000000000000028 ) ;
#761 = VERTEX_POINT ( 'NONE', #976 ) ;
#762 = CARTESIAN_POINT ( 'NONE',  ( -1.550000000000002709, 1.587499999999991696, 6.200000000000010836 ) ) ;
#763 = ORIENTED_EDGE ( 'NONE', *, *, #472, .F. ) ;
#764 = CARTESIAN_POINT ( 'NONE',  ( 1.587500000000000355, -1.061392899157111325, -18.85143677385166328 ) ) ;
#765 = ADVANCED_FACE ( 'NONE', ( #1109 ), #79, .F. ) ;
#766 = CARTESIAN_POINT ( 'NONE',  ( -1.587499999999999245, 1.268411506570324976, -18.79991914209798054 ) ) ;
#767 = APPROVAL_ROLE ( '' ) ;
#768 = DIRECTION ( 'NONE',  ( -5.421010862427522170E-17, 0.000000000000000000, -1.000000000000000000 ) ) ;
#769 = DIRECTION ( 'NONE',  ( 0.000000000000000000, 0.000000000000000000, 1.000000000000000000 ) ) ;
#770 = ORIENTED_EDGE ( 'NONE', *, *, #489, .F. ) ;
#771 = FACE_OUTER_BOUND ( 'NONE', #547, .T. ) ;
#772 = AXIS2_PLACEMENT_3D ( 'NONE', #229, #28, #630 ) ;
#773 = ORIENTED_EDGE ( 'NONE', *, *, #1183, .F. ) ;
#774 = ADVANCED_FACE ( 'NONE', ( #1200 ), #484, .T. ) ;
#775 = ORIENTED_EDGE ( 'NONE', *, *, #546, .T. ) ;
#776 = ADVANCED_FACE ( 'NONE', ( #881 ), #383, .F. ) ;
#777 = CARTESIAN_POINT ( 'NONE',  ( 1.367896803705380471, -1.502625147670771932, 6.200000000000010836 ) ) ;
#778 = EDGE_LOOP ( 'NONE', ( #855, #917, #824, #142 ) ) ;
#779 = LINE ( 'NONE', #37, #1240 ) ;
#780 = AXIS2_PLACEMENT_3D ( 'NONE', #743, #1035, #737 ) ;
#781 = CARTESIAN_POINT ( 'NONE',  ( 0.000000000000000000, 0.000000000000000000, -16.82600000000000051 ) ) ;
#782 = VECTOR ( 'NONE', #1099, 1000.000000000000000 ) ;
#783 = CARTESIAN_POINT ( 'NONE',  ( 0.000000000000000000, 0.000000000000000000, -18.95100000000000051 ) ) ;
#784 = CARTESIAN_POINT ( 'NONE',  ( -1.694670100521874723, -1.143315577041168929, 5.544525321479991220 ) ) ;
#785 = ORIENTED_EDGE ( 'NONE', *, *, #1067, .F. ) ;
#786 = DIRECTION ( 'NONE',  ( 1.000000000000000000, -2.731847993664263218E-16, 0.000000000000000000 ) ) ;
#787 = ORIENTED_EDGE ( 'NONE', *, *, #304, .T. ) ;
#788 = CARTESIAN_POINT ( 'NONE',  ( -1.268411506570324310, -1.587499999999991696, 6.200000000000010836 ) ) ;
#789 = CARTESIAN_POINT ( 'NONE',  ( -0.4342314039557192973, -1.587499999999999689, -18.92285171744313388 ) ) ;
#790 = LINE ( 'NONE', #879, #545 ) ;
#791 = ORIENTED_EDGE ( 'NONE', *, *, #369, .F. ) ;
#792 = EDGE_CURVE ( 'NONE', #921, #873, #106, .T. ) ;
#793 = CIRCLE ( 'NONE', #560, 3.174999999999999822 ) ;
#794 = DIRECTION ( 'NONE',  ( -0.000000000000000000, 0.000000000000000000, 1.000000000000000000 ) ) ;
#795 = ORIENTED_EDGE ( 'NONE', *, *, #709, .F. ) ;
#796 = DIRECTION ( 'NONE',  ( 1.000000000000000000, 0.000000000000000000, 0.000000000000000000 ) ) ;
#797 = CARTESIAN_POINT ( 'NONE',  ( 0.6550150799420408898, -1.587499999999991696, 5.200000000000009948 ) ) ;
#798 = CARTESIAN_POINT ( 'NONE',  ( 0.8571092511720139751, 1.587500000000001465, -18.90227379706276523 ) ) ;
#799 = EDGE_LOOP ( 'NONE', ( #929, #77, #915, #712 ) ) ;
#800 = DIRECTION ( 'NONE',  ( 1.000000000000000000, 0.000000000000000000, 0.000000000000000000 ) ) ;
#801 = EDGE_CURVE ( 'NONE', #221, #676, #180, .T. ) ;
#802 = FACE_OUTER_BOUND ( 'NONE', #1312, .T. ) ;
#803 = CARTESIAN_POINT ( 'NONE',  ( -0.6550150799420408898, 1.587499999999991696, 5.200000000000009948 ) ) ;
#804 = CARTESIAN_POINT ( 'NONE',  ( -0.4980973490458714958, -1.587499999999991696, 3.406422128626157786 ) ) ;
#805 = ORIENTED_EDGE ( 'NONE', *, *, #546, .F. ) ;
#806 = EDGE_LOOP ( 'NONE', ( #1263, #683, #739, #614, #690, #1259, #553, #108 ) ) ;
#807 = DIRECTION ( 'NONE',  ( -6.829619984160654348E-17, 1.000000000000000000, -0.000000000000000000 ) ) ;
#808 = LINE ( 'NONE', #324, #89 ) ;
#809 = ORIENTED_EDGE ( 'NONE', *, *, #1268, .F. ) ;
#810 = CARTESIAN_POINT ( 'NONE',  ( 0.000000000000000000, 0.000000000000000000, -16.82600000000000051 ) ) ;
#811 = EDGE_LOOP ( 'NONE', ( #1144, #820, #42, #339, #1011, #785, #135, #791 ) ) ;
#812 = ADVANCED_FACE ( 'NONE', ( #225 ), #632, .F. ) ;
#813 = DIRECTION ( 'NONE',  ( -1.000000000000000000, 0.000000000000000000, 0.000000000000000000 ) ) ;
#814 = PLANE ( 'NONE',  #772 ) ;
#815 = VECTOR ( 'NONE', #218, 1000.000000000000000 ) ;
#816 = EDGE_CURVE ( 'NONE', #46, #620, #916, .T. ) ;
#817 = ORIENTED_EDGE ( 'NONE', *, *, #556, .T. ) ;
#818 = DIRECTION ( 'NONE',  ( -0.000000000000000000, -0.000000000000000000, 1.000000000000000000 ) ) ;
#819 = VECTOR ( 'NONE', #1071, 1000.000000000000000 ) ;
#820 = ORIENTED_EDGE ( 'NONE', *, *, #801, .T. ) ;
#821 = VECTOR ( 'NONE', #1083, 1000.000000000000000 ) ;
#822 = CARTESIAN_POINT ( 'NONE',  ( -1.367896803705380471, 1.502625147670771932, 6.200000000000010836 ) ) ;
#823 = VECTOR ( 'NONE', #1179, 1000.000000000000000 ) ;
#824 = ORIENTED_EDGE ( 'NONE', *, *, #846, .T. ) ;
#825 = CARTESIAN_POINT ( 'NONE',  ( 1.268411506570324310, -1.587499999999991696, 6.200000000000010836 ) ) ;
#826 = ORIENTED_EDGE ( 'NONE', *, *, #314, .T. ) ;
#827 = CARTESIAN_POINT ( 'NONE',  ( -1.550000000000002709, 1.313972602454110961, 6.200000000000010836 ) ) ;
#828 = CARTESIAN_POINT ( 'NONE',  ( -3.174999999999999822, 3.888253587292846081E-16, -13.44099999999999895 ) ) ;
#829 = ORIENTED_EDGE ( 'NONE', *, *, #530, .T. ) ;
#830 = CARTESIAN_POINT ( 'NONE',  ( 1.268411506570323199, 1.587500000000000799, -13.44099999999999895 ) ) ;
#831 = EDGE_CURVE ( 'NONE', #1275, #128, #4, .T. ) ;
#832 = ORIENTED_EDGE ( 'NONE', *, *, #722, .T. ) ;
#833 = VECTOR ( 'NONE', #430, 1000.000000000000000 ) ;
#834 = DIRECTION ( 'NONE',  ( 0.000000000000000000, 0.000000000000000000, -1.000000000000000000 ) ) ;
#835 = VERTEX_POINT ( 'NONE', #437 ) ;
#836 = AXIS2_PLACEMENT_3D ( 'NONE', #862, #252, #653 ) ;
#837 = DIRECTION ( 'NONE',  ( -0.08715574274765827689, 0.000000000000000000, -0.9961946980917455452 ) ) ;
#838 = VECTOR ( 'NONE', #417, 1000.000000000000000 ) ;
#839 = EDGE_CURVE ( 'NONE', #170, #1211, #519, .T. ) ;
#840 = AXIS2_PLACEMENT_3D ( 'NONE', #144, #953, #171 ) ;
#841 = CARTESIAN_POINT ( 'NONE',  ( 0.000000000000000000, 0.000000000000000000, -13.44099999999999895 ) ) ;
#842 = VERTEX_POINT ( 'NONE', #741 ) ;
#843 = AXIS2_PLACEMENT_3D ( 'NONE', #247, #1041, #268 ) ;
#844 = DIRECTION ( 'NONE',  ( -0.000000000000000000, -1.000000000000000000, -0.000000000000000000 ) ) ;
#845 =( BOUNDED_CURVE ( )  B_SPLINE_CURVE ( 3, ( #346, #868, #373, #777 ),
 .UNSPECIFIED., .F., .T. ) 
 B_SPLINE_CURVE_WITH_KNOTS ( ( 4, 4 ),
 ( 0.3743574903972507473, 0.8322988823109361833 ),
 .UNSPECIFIED. ) 
 CURVE ( )  GEOMETRIC_REPRESENTATION_ITEM ( )  RATIONAL_B_SPLINE_CURVE ( ( 1.000000000000000000, 0.9826003582447282447, 0.9826003582447282447, 1.000000000000000000 ) ) 
 REPRESENTATION_ITEM ( '' )  );
#846 = EDGE_CURVE ( 'NONE', #921, #599, #73, .T. ) ;
#847 = DIRECTION ( 'NONE',  ( 0.000000000000000000, 0.000000000000000000, 1.000000000000000000 ) ) ;
#848 = ORIENTED_EDGE ( 'NONE', *, *, #693, .F. ) ;
#849 = CARTESIAN_POINT ( 'NONE',  ( 1.587500000000000577, -1.587499999999999467, -13.44099999999999895 ) ) ;
#850 = CARTESIAN_POINT ( 'NONE',  ( 0.6550150799420408898, -1.587499999999991696, 5.200000000000009948 ) ) ;
#851 = APPROVAL_PERSON_ORGANIZATION ( #442, #313, #1163 ) ;
#852 = CARTESIAN_POINT ( 'NONE',  ( 0.000000000000000000, 0.000000000000000000, 1.015000000000000346 ) ) ;
#853 = EDGE_CURVE ( 'NONE', #265, #1003, #23, .T. ) ;
#854 = PERSON_AND_ORGANIZATION_ROLE ( 'creator' ) ;
#855 = ORIENTED_EDGE ( 'NONE', *, *, #1067, .T. ) ;
#856 = CARTESIAN_POINT ( 'NONE',  ( 1.587500000000000355, 0.000000000000000000, -18.92322736169286301 ) ) ;
#857 = ORIENTED_EDGE ( 'NONE', *, *, #1138, .F. ) ;
#858 = AXIS2_PLACEMENT_3D ( 'NONE', #1257, #757, #264 ) ;
#859 = CARTESIAN_POINT ( 'NONE',  ( 0.000000000000000000, 0.000000000000000000, 6.200000000000010836 ) ) ;
#860 = VECTOR ( 'NONE', #406, 1000.000000000000000 ) ;
#861 = ORIENTED_EDGE ( 'NONE', *, *, #831, .T. ) ;
#862 = CARTESIAN_POINT ( 'NONE',  ( -1.550000000000002709, 1.587499999999991696, 6.200000000000010836 ) ) ;
#863 = VERTEX_POINT ( 'NONE', #1228 ) ;
#864 = EDGE_CURVE ( 'NONE', #59, #1003, #543, .T. ) ;
#865 = CARTESIAN_POINT ( 'NONE',  ( 1.268411506570021219, -1.587499999999999467, -18.79991914209833226 ) ) ;
#866 = VECTOR ( 'NONE', #259, 1000.000000000000000 ) ;
#867 = CARTESIAN_POINT ( 'NONE',  ( 0.3500000000000030864, -1.588549999999994133, 6.200000000000010836 ) ) ;
#868 = CARTESIAN_POINT ( 'NONE',  ( 1.776842238108529815, -1.034299215406989214, 5.776524605989284744 ) ) ;
#869 = ORIENTED_EDGE ( 'NONE', *, *, #146, .T. ) ;
#870 = DIRECTION ( 'NONE',  ( -1.000000000000000000, 0.000000000000000000, 0.000000000000000000 ) ) ;
#871 = CARTESIAN_POINT ( 'NONE',  ( 0.000000000000000000, 0.000000000000000000, 6.200000000000010836 ) ) ;
#872 = FACE_OUTER_BOUND ( 'NONE', #1169, .T. ) ;
#873 = VERTEX_POINT ( 'NONE', #320 ) ;
#874 = CARTESIAN_POINT ( 'NONE',  ( 1.587500000000000577, -0.4277385810629846241, -18.91698654358311416 ) ) ;
#875 = DIRECTION ( 'NONE',  ( 0.000000000000000000, 0.000000000000000000, 1.000000000000000000 ) ) ;
#876 = ADVANCED_FACE ( 'NONE', ( #728 ), #721, .T. ) ;
#877 = B_SPLINE_CURVE_WITH_KNOTS ( 'NONE', 3,
 ( #385, #296, #900, #597, #1008, #789, #290, #1188 ),
 .UNSPECIFIED., .F., .F.,
 ( 4, 2, 2, 4 ),
 ( 0.01485345774307012673, 0.01548583974386969625, 0.01611822174466926577, 0.01738298574626840828 ),
 .UNSPECIFIED. ) ;
#878 = ORIENTED_EDGE ( 'NONE', *, *, #145, .F. ) ;
#879 = CARTESIAN_POINT ( 'NONE',  ( 0.3500000000000030864, -1.588549999999994133, 6.200000000000010836 ) ) ;
#880 = ORIENTED_EDGE ( 'NONE', *, *, #565, .T. ) ;
#881 = FACE_OUTER_BOUND ( 'NONE', #706, .T. ) ;
#882 = AXIS2_PLACEMENT_3D ( 'NONE', #918, #1237, #535 ) ;
#883 = CARTESIAN_POINT ( 'NONE',  ( 1.367896803705380471, 1.502625147670771932, 6.200000000000010836 ) ) ;
#884 = ADVANCED_FACE ( 'NONE', ( #532, #1239 ), #1017, .T. ) ;
#885 = CARTESIAN_POINT ( 'NONE',  ( 0.000000000000000000, 0.000000000000000000, -11.76099999999999923 ) ) ;
#886 = CARTESIAN_POINT ( 'NONE',  ( -2.049999999999999822, 2.510525938252073693E-16, 1.015000000000000568 ) ) ;
#887 = ORIENTED_EDGE ( 'NONE', *, *, #853, .F. ) ;
#888 = CARTESIAN_POINT ( 'NONE',  ( 0.3500000000000030864, -1.588549999999994133, 5.200000000000009948 ) ) ;
#889 = ORIENTED_EDGE ( 'NONE', *, *, #1309, .F. ) ;
#890 = FACE_OUTER_BOUND ( 'NONE', #811, .T. ) ;
#891 = CARTESIAN_POINT ( 'NONE',  ( -1.550000000000002709, -2.192040705001133016, 5.460999999999993193 ) ) ;
#892 = CC_DESIGN_APPROVAL ( #313, ( #295 ) ) ;
#893 = FACE_OUTER_BOUND ( 'NONE', #587, .T. ) ;
#894 = ORIENTED_EDGE ( 'NONE', *, *, #10, .T. ) ;
#895 = EDGE_CURVE ( 'NONE', #1130, #1275, #639, .T. ) ;
#896 = AXIS2_PLACEMENT_3D ( 'NONE', #566, #1288, #491 ) ;
#897 = CARTESIAN_POINT ( 'NONE',  ( 0.3500000000000030864, 1.587499999999991696, 6.200000000000010836 ) ) ;
#898 = ORIENTED_EDGE ( 'NONE', *, *, #431, .F. ) ;
#899 = DIRECTION ( 'NONE',  ( -1.000000000000000000, 6.994852725712931474E-17, 0.000000000000000000 ) ) ;
#900 = CARTESIAN_POINT ( 'NONE',  ( 0.8486262390320912230, -1.587500000000000133, -18.88176882282398594 ) ) ;
#901 = DIRECTION ( 'NONE',  ( -5.421010862427522170E-17, 0.000000000000000000, 1.000000000000000000 ) ) ;
#902 = ORIENTED_EDGE ( 'NONE', *, *, #1116, .F. ) ;
#903 = FACE_OUTER_BOUND ( 'NONE', #399, .T. ) ;
#904 = ORIENTED_EDGE ( 'NONE', *, *, #478, .F. ) ;
#905 = AXIS2_PLACEMENT_3D ( 'NONE', #783, #980, #175 ) ;
#906 = FACE_OUTER_BOUND ( 'NONE', #214, .T. ) ;
#907 = CARTESIAN_POINT ( 'NONE',  ( -3.174999999999999822, 3.888253587292846081E-16, -11.76099999999999923 ) ) ;
#908 = ORIENTED_EDGE ( 'NONE', *, *, #93, .T. ) ;
#909 = CARTESIAN_POINT ( 'NONE',  ( 1.809458434164549656, -0.9512819946464768917, 5.610798396808418076 ) ) ;
#910 = EDGE_CURVE ( 'NONE', #932, #325, #1142, .T. ) ;
#911 = VERTEX_POINT ( 'NONE', #118 ) ;
#912 = EDGE_CURVE ( 'NONE', #718, #170, #928, .T. ) ;
#913 = CARTESIAN_POINT ( 'NONE',  ( 1.891269295326068356, -0.7430507738754046354, 5.658031919522676034 ) ) ;
#914 = DIRECTION ( 'NONE',  ( -0.000000000000000000, 1.000000000000000000, -0.000000000000000000 ) ) ;
#915 = ORIENTED_EDGE ( 'NONE', *, *, #977, .T. ) ;
#916 = LINE ( 'NONE', #30, #460 ) ;
#917 = ORIENTED_EDGE ( 'NONE', *, *, #792, .F. ) ;
#918 = CARTESIAN_POINT ( 'NONE',  ( 0.000000000000000000, 0.000000000000000000, -11.76099999999999923 ) ) ;
#919 = FACE_OUTER_BOUND ( 'NONE', #567, .T. ) ;
#920 = ORIENTED_EDGE ( 'NONE', *, *, #736, .F. ) ;
#921 = VERTEX_POINT ( 'NONE', #830 ) ;
#922 = FACE_OUTER_BOUND ( 'NONE', #968, .T. ) ;
#923 = EDGE_CURVE ( 'NONE', #433, #718, #1233, .T. ) ;
#924 = CARTESIAN_POINT ( 'NONE',  ( 0.000000000000000000, 0.000000000000000000, 1.015000000000000568 ) ) ;
#925 = CIRCLE ( 'NONE', #780, 0.5000000000000004441 ) ;
#926 = ORIENTED_EDGE ( 'NONE', *, *, #181, .T. ) ;
#927 = DESIGN_CONTEXT ( 'detailed design', #655, 'design' ) ;
#928 = LINE ( 'NONE', #18, #833 ) ;
#929 = ORIENTED_EDGE ( 'NONE', *, *, #693, .T. ) ;
#930 = CARTESIAN_POINT ( 'NONE',  ( -1.268411506570324310, 1.587499999999991696, 6.200000000000010836 ) ) ;
#931 = FACE_OUTER_BOUND ( 'NONE', #374, .T. ) ;
#932 = VERTEX_POINT ( 'NONE', #127 ) ;
#933 = CARTESIAN_POINT ( 'NONE',  ( -1.587499999999999467, 1.587500000000001688, -18.95100000000000051 ) ) ;
#934 = EDGE_CURVE ( 'NONE', #224, #950, #845, .T. ) ;
#935 = EDGE_CURVE ( 'NONE', #201, #1315, #1271, .T. ) ;
#936 = APPROVAL_PERSON_ORGANIZATION ( #1065, #666, #767 ) ;
#937 = DIRECTION ( 'NONE',  ( 0.000000000000000000, 1.000000000000000000, 0.000000000000000000 ) ) ;
#938 = DIRECTION ( 'NONE',  ( -1.000000000000000000, 0.000000000000000000, -5.421010862427522170E-17 ) ) ;
#939 = ORIENTED_EDGE ( 'NONE', *, *, #378, .T. ) ;
#940 = AXIS2_PLACEMENT_3D ( 'NONE', #637, #1032, #710 ) ;
#941 = CARTESIAN_POINT ( 'NONE',  ( 0.000000000000000000, 0.000000000000000000, -13.44099999999999895 ) ) ;
#942 = EDGE_CURVE ( 'NONE', #1069, #620, #657, .T. ) ;
#943 = DIRECTION ( 'NONE',  ( 1.365923996832131116E-16, -1.000000000000000000, 0.000000000000000000 ) ) ;
#944 = CALENDAR_DATE ( 2022, 6, 6 ) ;
#945 = ORIENTED_EDGE ( 'NONE', *, *, #1040, .T. ) ;
#946 = VECTOR ( 'NONE', #1105, 1000.000000000000000 ) ;
#947 = CARTESIAN_POINT ( 'NONE',  ( 0.000000000000000000, 0.000000000000000000, -11.76099999999999923 ) ) ;
#948 = ADVANCED_FACE ( 'NONE', ( #872 ), #1157, .T. ) ;
#949 = PERSON_AND_ORGANIZATION ( #164, #1294 ) ;
#950 = VERTEX_POINT ( 'NONE', #456 ) ;
#951 = DIRECTION ( 'NONE',  ( 1.000000000000000000, 0.000000000000000000, 0.000000000000000000 ) ) ;
#952 = EDGE_LOOP ( 'NONE', ( #515, #16, #894, #423 ) ) ;
#953 = DIRECTION ( 'NONE',  ( -0.7193398003386504147, 0.000000000000000000, 0.6946583704589981423 ) ) ;
#954 = ADVANCED_FACE ( 'NONE', ( #1052 ), #238, .F. ) ;
#955 = ORIENTED_EDGE ( 'NONE', *, *, #1184, .T. ) ;
#956 = CARTESIAN_POINT ( 'NONE',  ( 0.000000000000000000, 0.000000000000000000, -11.76099999999999923 ) ) ;
#957 = EDGE_LOOP ( 'NONE', ( #857, #829, #485, #1266 ) ) ;
#958 = LINE ( 'NONE', #663, #819 ) ;
#959 = DIRECTION ( 'NONE',  ( 1.000000000000000000, 0.000000000000000000, 0.000000000000000000 ) ) ;
#960 = COORDINATED_UNIVERSAL_TIME_OFFSET ( 6, 0, .BEHIND. ) ;
#961 = DIRECTION ( 'NONE',  ( 1.000000000000000000, 0.000000000000000000, 0.000000000000000000 ) ) ;
#962 = ADVANCED_FACE ( 'NONE', ( #642 ), #1250, .T. ) ;
#963 = DIRECTION ( 'NONE',  ( 5.421010862427522170E-17, 0.000000000000000000, -1.000000000000000000 ) ) ;
#964 = VERTEX_POINT ( 'NONE', #668 ) ;
#965 = LINE ( 'NONE', #245, #1092 ) ;
#966 = DIRECTION ( 'NONE',  ( 0.000000000000000000, 0.000000000000000000, -1.000000000000000000 ) ) ;
#967 = SHAPE_DEFINITION_REPRESENTATION ( #309, #982 ) ;
#968 = EDGE_LOOP ( 'NONE', ( #939, #898, #1018, #508 ) ) ;
#969 = CARTESIAN_POINT ( 'NONE',  ( 1.587500000000000355, 0.2114796877013281062, -18.92322736169286301 ) ) ;
#970 = ORIENTED_EDGE ( 'NONE', *, *, #1125, .T. ) ;
#971 = PLANE ( 'NONE',  #840 ) ;
#972 = CARTESIAN_POINT ( 'NONE',  ( -3.174999999999999822, 3.888253587292846081E-16, -13.44099999999999895 ) ) ;
#973 = CARTESIAN_POINT ( 'NONE',  ( -1.268411506570324310, -1.587499999999999911, -13.44099999999999895 ) ) ;
#974 = CARTESIAN_POINT ( 'NONE',  ( -1.550000000000002709, -2.192040705001133016, 5.460999999999993193 ) ) ;
#975 = ORIENTED_EDGE ( 'NONE', *, *, #1145, .F. ) ;
#976 = CARTESIAN_POINT ( 'NONE',  ( 1.245064030267289512, 0.000000000000000000, -18.95100000000000051 ) ) ;
#977 = EDGE_CURVE ( 'NONE', #842, #727, #1193, .T. ) ;
#978 = CARTESIAN_POINT ( 'NONE',  ( 1.776842238108530481, 1.034299215406988104, 5.776524605989284744 ) ) ;
#979 = VECTOR ( 'NONE', #493, 1000.000000000000000 ) ;
#980 = DIRECTION ( 'NONE',  ( -0.000000000000000000, -0.000000000000000000, 1.000000000000000000 ) ) ;
#981 = CARTESIAN_POINT ( 'NONE',  ( -1.587499999999999245, -1.268411506570324976, -13.44099999999999895 ) ) ;
#982 = ADVANCED_BREP_SHAPE_REPRESENTATION ( '228-2500-092', ( #216, #476 ), #1122 ) ;
#983 = ORIENTED_EDGE ( 'NONE', *, *, #1125, .F. ) ;
#984 = CARTESIAN_POINT ( 'NONE',  ( 1.891269295326068356, -0.7430507738754046354, 5.658031919522676034 ) ) ;
#985 = AXIS2_PLACEMENT_3D ( 'NONE', #650, #51, #966 ) ;
#986 = ORIENTED_EDGE ( 'NONE', *, *, #126, .T. ) ;
#987 = CARTESIAN_POINT ( 'NONE',  ( 1.367896803705380471, 1.502625147670771932, 6.200000000000010836 ) ) ;
#988 = EDGE_CURVE ( 'NONE', #1090, #470, #688, .T. ) ;
#989 = AXIS2_PLACEMENT_3D ( 'NONE', #867, #365, #768 ) ;
#990 = FACE_OUTER_BOUND ( 'NONE', #300, .T. ) ;
#991 = DIRECTION ( 'NONE',  ( -0.08715574274765827689, 0.000000000000000000, 0.9961946980917455452 ) ) ;
#992 = ORIENTED_EDGE ( 'NONE', *, *, #126, .F. ) ;
#993 = DIRECTION ( 'NONE',  ( -1.000000000000000000, 0.000000000000000000, 0.000000000000000000 ) ) ;
#994 = CARTESIAN_POINT ( 'NONE',  ( 3.174999999999999822, 0.000000000000000000, -13.44099999999999895 ) ) ;
#995 = CARTESIAN_POINT ( 'NONE',  ( 1.550000000000002709, -2.192040705001133016, 5.460999999999993193 ) ) ;
#996 = DIRECTION ( 'NONE',  ( -0.000000000000000000, 1.000000000000000000, -0.000000000000000000 ) ) ;
#997 = ORIENTED_EDGE ( 'NONE', *, *, #581, .F. ) ;
#998 = VECTOR ( 'NONE', #963, 1000.000000000000000 ) ;
#999 = DIRECTION ( 'NONE',  ( -0.000000000000000000, 0.000000000000000000, 1.000000000000000000 ) ) ;
#1000 = VECTOR ( 'NONE', #901, 1000.000000000000000 ) ;
#1001 = CARTESIAN_POINT ( 'NONE',  ( 1.550000000000002709, -2.192040705001133016, 6.011426619998760934 ) ) ;
#1002 = CARTESIAN_POINT ( 'NONE',  ( -1.891269295326068356, -0.7430507738754024150, 5.658031919522676034 ) ) ;
#1003 = VERTEX_POINT ( 'NONE', #148 ) ;
#1004 = EDGE_CURVE ( 'NONE', #964, #527, #730, .T. ) ;
#1005 = CARTESIAN_POINT ( 'NONE',  ( -0.6550150799420408898, -1.588549999999994133, 5.200000000000009948 ) ) ;
#1006 = ORIENTED_EDGE ( 'NONE', *, *, #1311, .T. ) ;
#1007 = VECTOR ( 'NONE', #1215, 1000.000000000000000 ) ;
#1008 = CARTESIAN_POINT ( 'NONE',  ( 0.2043756380770836434, -1.587499999999999689, -18.92340961896379881 ) ) ;
#1009 = CIRCLE ( 'NONE', #720, 2.032000000000000028 ) ;
#1010 = PLANE ( 'NONE',  #643 ) ;
#1011 = ORIENTED_EDGE ( 'NONE', *, *, #1145, .T. ) ;
#1012 = DIRECTION ( 'NONE',  ( -1.000000000000000000, 6.994852725712932707E-17, -0.000000000000000000 ) ) ;
#1013 = CC_DESIGN_PERSON_AND_ORGANIZATION_ASSIGNMENT ( #949, #1244, ( #295 ) ) ;
#1014 = FACE_OUTER_BOUND ( 'NONE', #1073, .T. ) ;
#1015 = CARTESIAN_POINT ( 'NONE',  ( -1.694670100521874279, 1.143315577041170039, 5.544525321479990332 ) ) ;
#1016 = ORIENTED_EDGE ( 'NONE', *, *, #719, .T. ) ;
#1017 = PLANE ( 'NONE',  #393 ) ;
#1018 = ORIENTED_EDGE ( 'NONE', *, *, #497, .T. ) ;
#1019 = ADVANCED_FACE ( 'NONE', ( #243 ), #1150, .T. ) ;
#1020 = LINE ( 'NONE', #116, #160 ) ;
#1021 = DIRECTION ( 'NONE',  ( -0.000000000000000000, -1.000000000000000000, -0.000000000000000000 ) ) ;
#1022 = ORIENTED_EDGE ( 'NONE', *, *, #565, .F. ) ;
#1023 = CARTESIAN_POINT ( 'NONE',  ( -1.550000000000002709, 1.587499999999991696, 6.200000000000010836 ) ) ;
#1024 = ORIENTED_EDGE ( 'NONE', *, *, #1141, .F. ) ;
#1025 = DIRECTION ( 'NONE',  ( 1.000000000000000000, 0.000000000000000000, 0.000000000000000000 ) ) ;
#1026 = EDGE_CURVE ( 'NONE', #537, #35, #474, .T. ) ;
#1027 = AXIS2_PLACEMENT_3D ( 'NONE', #841, #7, #310 ) ;
#1028 = ORIENTED_EDGE ( 'NONE', *, *, #581, .T. ) ;
#1029 = DIRECTION ( 'NONE',  ( 0.000000000000000000, 0.000000000000000000, -1.000000000000000000 ) ) ;
#1030 = VERTEX_POINT ( 'NONE', #1045 ) ;
#1031 = CARTESIAN_POINT ( 'NONE',  ( 0.6550150799420408898, -1.588549999999994133, 5.200000000000009948 ) ) ;
#1032 = DIRECTION ( 'NONE',  ( 0.000000000000000000, 0.000000000000000000, 1.000000000000000000 ) ) ;
#1033 = ORIENTED_EDGE ( 'NONE', *, *, #353, .F. ) ;
#1034 = DIRECTION ( 'NONE',  ( -0.000000000000000000, 1.000000000000000000, -0.000000000000000000 ) ) ;
#1035 = DIRECTION ( 'NONE',  ( -0.000000000000000000, -1.000000000000000000, -0.000000000000000000 ) ) ;
#1036 = ORIENTED_EDGE ( 'NONE', *, *, #386, .F. ) ;
#1037 = VECTOR ( 'NONE', #70, 1000.000000000000000 ) ;
#1038 = CARTESIAN_POINT ( 'NONE',  ( -1.367896803705380471, -1.502625147670771932, 6.200000000000010836 ) ) ;
#1039 = ADVANCED_FACE ( 'NONE', ( #143 ), #661, .F. ) ;
#1040 = EDGE_CURVE ( 'NONE', #1128, #686, #793, .T. ) ;
#1041 = DIRECTION ( 'NONE',  ( 0.000000000000000000, 1.000000000000000000, 0.000000000000000000 ) ) ;
#1042 = PERSON_AND_ORGANIZATION_ROLE ( 'design_owner' ) ;
#1043 = VERTEX_POINT ( 'NONE', #359 ) ;
#1044 = CIRCLE ( 'NONE', #1223, 2.032000000000000028 ) ;
#1045 = CARTESIAN_POINT ( 'NONE',  ( 2.049999999999999822, 0.000000000000000000, 1.015000000000000568 ) ) ;
#1046 = CIRCLE ( 'NONE', #1177, 2.032000000000000028 ) ;
#1047 = CARTESIAN_POINT ( 'NONE',  ( 0.000000000000000000, 0.000000000000000000, -18.95100000000000051 ) ) ;
#1048 = CC_DESIGN_PERSON_AND_ORGANIZATION_ASSIGNMENT ( #39, #651, ( #521 ) ) ;
#1049 = DIRECTION ( 'NONE',  ( 0.000000000000000000, 0.000000000000000000, -1.000000000000000000 ) ) ;
#1050 = DATE_AND_TIME ( #1155, #196 ) ;
#1051 = CARTESIAN_POINT ( 'NONE',  ( 1.550000000000002709, -1.313972602454110961, 6.200000000000010836 ) ) ;
#1052 = FACE_OUTER_BOUND ( 'NONE', #344, .T. ) ;
#1053 = ORIENTED_EDGE ( 'NONE', *, *, #206, .T. ) ;
#1054 = LINE ( 'NONE', #850, #533 ) ;
#1055 = EDGE_CURVE ( 'NONE', #1082, #1030, #1123, .T. ) ;
#1056 = CIRCLE ( 'NONE', #174, 2.032000000000000028 ) ;
#1057 = APPROVAL_STATUS ( 'not_yet_approved' ) ;
#1058 = CARTESIAN_POINT ( 'NONE',  ( -1.891269295326068356, 0.7430507738754046354, 5.658031919522676034 ) ) ;
#1059 = CARTESIAN_POINT ( 'NONE',  ( -1.599295491109027578, -1.291974124445368410, 5.960379644622173068 ) ) ;
#1060 = ORIENTED_EDGE ( 'NONE', *, *, #47, .T. ) ;
#1061 = AXIS2_PLACEMENT_3D ( 'NONE', #450, #548, #154 ) ;
#1062 = CARTESIAN_POINT ( 'NONE',  ( 0.000000000000000000, 0.000000000000000000, -18.95100000000000051 ) ) ;
#1063 = VECTOR ( 'NONE', #539, 1000.000000000000114 ) ;
#1064 = CARTESIAN_POINT ( 'NONE',  ( -0.6550150799420408898, -1.587499999999991696, 5.200000000000009948 ) ) ;
#1065 = PERSON_AND_ORGANIZATION ( #164, #1294 ) ;
#1066 = ORIENTED_EDGE ( 'NONE', *, *, #839, .T. ) ;
#1067 = EDGE_CURVE ( 'NONE', #1090, #873, #1056, .T. ) ;
#1068 = CARTESIAN_POINT ( 'NONE',  ( -0.3500000000000030864, -1.587499999999991696, 5.200000000000009948 ) ) ;
#1069 = VERTEX_POINT ( 'NONE', #381 ) ;
#1070 = TOROIDAL_SURFACE ( 'NONE', #1308, 1.245064030267289512, 2.124999999999998224 ) ;
#1071 = DIRECTION ( 'NONE',  ( -1.000000000000000000, 6.994852725712932707E-17, -0.000000000000000000 ) ) ;
#1072 = DIRECTION ( 'NONE',  ( -1.000000000000000000, 0.000000000000000000, -0.000000000000000000 ) ) ;
#1073 = EDGE_LOOP ( 'NONE', ( #232, #1120 ) ) ;
#1074 = CARTESIAN_POINT ( 'NONE',  ( 1.587500000000000133, 1.587500000000000799, -13.44099999999999895 ) ) ;
#1075 = ORIENTED_EDGE ( 'NONE', *, *, #596, .F. ) ;
#1076 = EDGE_CURVE ( 'NONE', #170, #1101, #1276, .T. ) ;
#1077 = DIRECTION ( 'NONE',  ( -0.000000000000000000, -0.000000000000000000, 1.000000000000000000 ) ) ;
#1078 = VERTEX_POINT ( 'NONE', #682 ) ;
#1079 = CARTESIAN_POINT ( 'NONE',  ( 0.000000000000000000, 0.000000000000000000, -18.79991914209798054 ) ) ;
#1080 = DIRECTION ( 'NONE',  ( -0.5000000000000037748, 0.000000000000000000, -0.8660254037844364872 ) ) ;
#1081 = CARTESIAN_POINT ( 'NONE',  ( -0.3500000000000030864, 1.587499999999991696, 5.200000000000009948 ) ) ;
#1082 = VERTEX_POINT ( 'NONE', #886 ) ;
#1083 = DIRECTION ( 'NONE',  ( -5.421010862427522170E-17, 0.000000000000000000, -1.000000000000000000 ) ) ;
#1084 = AXIS2_PLACEMENT_3D ( 'NONE', #947, #769, #41 ) ;
#1085 = ORIENTED_EDGE ( 'NONE', *, *, #161, .F. ) ;
#1086 = CARTESIAN_POINT ( 'NONE',  ( 0.000000000000000000, -1.588549999999994133, 3.450000000000008615 ) ) ;
#1087 = VECTOR ( 'NONE', #837, 1000.000000000000114 ) ;
#1088 = LINE ( 'NONE', #516, #672 ) ;
#1089 = DIRECTION ( 'NONE',  ( 0.000000000000000000, 0.000000000000000000, 1.000000000000000000 ) ) ;
#1090 = VERTEX_POINT ( 'NONE', #604 ) ;
#1091 = CARTESIAN_POINT ( 'NONE',  ( 1.809458434164553431, 0.9512819946464682319, 5.610798396808419852 ) ) ;
#1092 = VECTOR ( 'NONE', #477, 1000.000000000000000 ) ;
#1093 = CARTESIAN_POINT ( 'NONE',  ( 0.000000000000000000, 0.000000000000000000, 6.200000000000010836 ) ) ;
#1094 = DIRECTION ( 'NONE',  ( 0.000000000000000000, 0.000000000000000000, -1.000000000000000000 ) ) ;
#1095 = CARTESIAN_POINT ( 'NONE',  ( 0.000000000000000000, 0.000000000000000000, 6.200000000000010836 ) ) ;
#1096 = ORIENTED_EDGE ( 'NONE', *, *, #853, .T. ) ;
#1097 = ORIENTED_EDGE ( 'NONE', *, *, #1, .T. ) ;
#1098 = EDGE_CURVE ( 'NONE', #620, #1043, #626, .T. ) ;
#1099 = DIRECTION ( 'NONE',  ( 5.421010862427522170E-17, -0.000000000000000000, 1.000000000000000000 ) ) ;
#1100 = DIRECTION ( 'NONE',  ( 0.000000000000000000, 0.000000000000000000, 1.000000000000000000 ) ) ;
#1101 = VERTEX_POINT ( 'NONE', #91 ) ;
#1102 = CARTESIAN_POINT ( 'NONE',  ( 0.000000000000000000, 0.000000000000000000, -13.44099999999999895 ) ) ;
#1103 = ORIENTED_EDGE ( 'NONE', *, *, #709, .T. ) ;
#1104 = AXIS2_PLACEMENT_3D ( 'NONE', #1198, #185, #991 ) ;
#1105 = DIRECTION ( 'NONE',  ( 1.365923996832131856E-16, -1.000000000000000000, 0.000000000000000000 ) ) ;
#1106 = AXIS2_PLACEMENT_3D ( 'NONE', #888, #999, #315 ) ;
#1107 = CARTESIAN_POINT ( 'NONE',  ( -0.4980973490458714958, 1.587499999999991696, 3.406422128626157786 ) ) ;
#1108 = ORIENTED_EDGE ( 'NONE', *, *, #446, .F. ) ;
#1109 = FACE_OUTER_BOUND ( 'NONE', #352, .T. ) ;
#1110 = VERTEX_POINT ( 'NONE', #592 ) ;
#1111 = DIRECTION ( 'NONE',  ( -1.365923996832131856E-16, 1.000000000000000000, 0.000000000000000000 ) ) ;
#1112 = CIRCLE ( 'NONE', #550, 2.032000000000000028 ) ;
#1113 = CARTESIAN_POINT ( 'NONE',  ( 1.268411506570324310, -1.587499999999991696, 6.200000000000010836 ) ) ;
#1114 = ORIENTED_EDGE ( 'NONE', *, *, #505, .F. ) ;
#1115 = DIRECTION ( 'NONE',  ( 1.224646799147353207E-16, 1.000000000000000000, 0.000000000000000000 ) ) ;
#1116 = EDGE_CURVE ( 'NONE', #201, #932, #1181, .T. ) ;
#1117 = ORIENTED_EDGE ( 'NONE', *, *, #24, .T. ) ;
#1118 = CARTESIAN_POINT ( 'NONE',  ( 0.000000000000000000, 0.000000000000000000, 6.200000000000010836 ) ) ;
#1119 = DIRECTION ( 'NONE',  ( 0.000000000000000000, 0.000000000000000000, -1.000000000000000000 ) ) ;
#1120 = ORIENTED_EDGE ( 'NONE', *, *, #1040, .F. ) ;
#1121 = CARTESIAN_POINT ( 'NONE',  ( 0.000000000000000000, 0.000000000000000000, -13.44099999999999895 ) ) ;
#1122 =( GEOMETRIC_REPRESENTATION_CONTEXT ( 3 ) GLOBAL_UNCERTAINTY_ASSIGNED_CONTEXT ( ( #60 ) ) GLOBAL_UNIT_ASSIGNED_CONTEXT ( ( #303, #726, #732 ) ) REPRESENTATION_CONTEXT ( 'NONE', 'WORKASPACE' ) );
#1123 = CIRCLE ( 'NONE', #896, 2.049999999999999822 ) ;
#1124 = ORIENTED_EDGE ( 'NONE', *, *, #912, .F. ) ;
#1125 = EDGE_CURVE ( 'NONE', #1306, #932, #503, .T. ) ;
#1126 = FACE_OUTER_BOUND ( 'NONE', #312, .T. ) ;
#1127 = AXIS2_PLACEMENT_3D ( 'NONE', #163, #351, #951 ) ;
#1128 = VERTEX_POINT ( 'NONE', #907 ) ;
#1129 = DIRECTION ( 'NONE',  ( -6.829619984160654348E-17, 1.000000000000000000, 0.000000000000000000 ) ) ;
#1130 = VERTEX_POINT ( 'NONE', #804 ) ;
#1131 = LINE ( 'NONE', #827, #1283 ) ;
#1132 = CIRCLE ( 'NONE', #549, 0.5000000000000000000 ) ;
#1133 = FACE_BOUND ( 'NONE', #55, .T. ) ;
#1134 = AXIS2_PLACEMENT_3D ( 'NONE', #434, #234, #813 ) ;
#1135 = ORIENTED_EDGE ( 'NONE', *, *, #1183, .T. ) ;
#1136 = CARTESIAN_POINT ( 'NONE',  ( 0.000000000000000000, 0.000000000000000000, -11.76099999999999923 ) ) ;
#1137 = DIRECTION ( 'NONE',  ( 1.000000000000000000, 0.000000000000000000, 0.000000000000000000 ) ) ;
#1138 = EDGE_CURVE ( 'NONE', #504, #1082, #1305, .T. ) ;
#1139 = APPROVAL_DATE_TIME ( #1248, #666 ) ;
#1140 = ORIENTED_EDGE ( 'NONE', *, *, #1098, .F. ) ;
#1141 = EDGE_CURVE ( 'NONE', #1208, #679, #790, .T. ) ;
#1142 = LINE ( 'NONE', #1023, #750 ) ;
#1143 = COORDINATED_UNIVERSAL_TIME_OFFSET ( 6, 0, .BEHIND. ) ;
#1144 = ORIENTED_EDGE ( 'NONE', *, *, #208, .T. ) ;
#1145 = EDGE_CURVE ( 'NONE', #443, #873, #277, .T. ) ;
#1146 = CARTESIAN_POINT ( 'NONE',  ( -1.587499999999999245, -1.268411506570021441, -18.79991914209833226 ) ) ;
#1147 = PERSON_AND_ORGANIZATION ( #164, #1294 ) ;
#1148 = LINE ( 'NONE', #1051, #80 ) ;
#1149 = VECTOR ( 'NONE', #555, 1000.000000000000000 ) ;
#1150 = CYLINDRICAL_SURFACE ( 'NONE', #1061, 3.174999999999999822 ) ;
#1151 = EDGE_LOOP ( 'NONE', ( #735, #1053 ) ) ;
#1152 = FACE_OUTER_BOUND ( 'NONE', #1219, .T. ) ;
#1153 = EDGE_CURVE ( 'NONE', #494, #267, #605, .T. ) ;
#1154 = CARTESIAN_POINT ( 'NONE',  ( 0.000000000000000000, 0.000000000000000000, -13.44099999999999895 ) ) ;
#1155 = CALENDAR_DATE ( 2022, 6, 6 ) ;
#1156 = EDGE_LOOP ( 'NONE', ( #986, #608, #397, #408, #926 ) ) ;
#1157 = CYLINDRICAL_SURFACE ( 'NONE', #1084, 2.049999999999999822 ) ;
#1158 = VERTEX_POINT ( 'NONE', #675 ) ;
#1159 = FACE_OUTER_BOUND ( 'NONE', #177, .T. ) ;
#1160 = DIRECTION ( 'NONE',  ( 0.000000000000000000, 1.000000000000000000, -0.000000000000000000 ) ) ;
#1161 = ADVANCED_FACE ( 'NONE', ( #169 ), #482, .F. ) ;
#1162 = EDGE_CURVE ( 'NONE', #1236, #1043, #703, .T. ) ;
#1163 = APPROVAL_ROLE ( '' ) ;
#1164 = LINE ( 'NONE', #488, #570 ) ;
#1165 = DIRECTION ( 'NONE',  ( -1.365923996832131856E-16, 1.000000000000000000, 0.000000000000000000 ) ) ;
#1166 = VERTEX_POINT ( 'NONE', #981 ) ;
#1167 = AXIS2_PLACEMENT_3D ( 'NONE', #428, #1119, #536 ) ;
#1168 = PLANE ( 'NONE',  #1170 ) ;
#1169 = EDGE_LOOP ( 'NONE', ( #561, #464, #1238, #904 ) ) ;
#1170 = AXIS2_PLACEMENT_3D ( 'NONE', #1062, #376, #156 ) ;
#1171 = CC_DESIGN_DATE_AND_TIME_ASSIGNMENT ( #157, #151, ( #295 ) ) ;
#1172 = DIRECTION ( 'NONE',  ( 0.000000000000000000, 0.000000000000000000, 1.000000000000000000 ) ) ;
#1173 = CARTESIAN_POINT ( 'NONE',  ( 0.4342314039557203520, 1.587500000000001688, -18.92285171744313388 ) ) ;
#1174 = ORIENTED_EDGE ( 'NONE', *, *, #206, .F. ) ;
#1175 = CIRCLE ( 'NONE', #380, 3.174999999999999822 ) ;
#1176 = DIRECTION ( 'NONE',  ( -0.000000000000000000, -0.000000000000000000, 1.000000000000000000 ) ) ;
#1177 = AXIS2_PLACEMENT_3D ( 'NONE', #256, #372, #147 ) ;
#1178 = ORIENTED_EDGE ( 'NONE', *, *, #934, .T. ) ;
#1179 = DIRECTION ( 'NONE',  ( -0.000000000000000000, -0.000000000000000000, -1.000000000000000000 ) ) ;
#1180 = PLANE ( 'NONE',  #513 ) ;
#1181 = LINE ( 'NONE', #1189, #480 ) ;
#1182 = ORIENTED_EDGE ( 'NONE', *, *, #1141, .T. ) ;
#1183 = EDGE_CURVE ( 'NONE', #599, #416, #192, .T. ) ;
#1184 = EDGE_CURVE ( 'NONE', #1043, #1110, #586, .T. ) ;
#1185 = LINE ( 'NONE', #713, #979 ) ;
#1186 = ORIENTED_EDGE ( 'NONE', *, *, #314, .F. ) ;
#1187 = DIRECTION ( 'NONE',  ( -0.000000000000000000, -0.000000000000000000, 1.000000000000000000 ) ) ;
#1188 = CARTESIAN_POINT ( 'NONE',  ( -1.268411506570324310, -1.587499999999999911, -18.79991914209798054 ) ) ;
#1189 = CARTESIAN_POINT ( 'NONE',  ( -0.3500000000000030864, -1.588549999999994133, 6.200000000000010836 ) ) ;
#1190 = ORIENTED_EDGE ( 'NONE', *, *, #529, .T. ) ;
#1191 = LINE ( 'NONE', #1291, #821 ) ;
#1192 = ADVANCED_FACE ( 'NONE', ( #893 ), #1296, .F. ) ;
#1193 = CIRCLE ( 'NONE', #1127, 2.032000000000000028 ) ;
#1194 = ORIENTED_EDGE ( 'NONE', *, *, #677, .T. ) ;
#1195 = TOROIDAL_SURFACE ( 'NONE', #1302, 1.245064030267289512, 2.124999999999998224 ) ;
#1196 = CARTESIAN_POINT ( 'NONE',  ( -1.268411506570324310, -1.587499999999999911, -18.95100000000000051 ) ) ;
#1197 = DIRECTION ( 'NONE',  ( 1.000000000000000000, 0.000000000000000000, 0.000000000000000000 ) ) ;
#1198 = CARTESIAN_POINT ( 'NONE',  ( -0.4980973490458714958, -1.588549999999994133, 3.406422128626157786 ) ) ;
#1199 = ORIENTED_EDGE ( 'NONE', *, *, #231, .F. ) ;
#1200 = FACE_OUTER_BOUND ( 'NONE', #778, .T. ) ;
#1201 = AXIS2_PLACEMENT_3D ( 'NONE', #852, #746, #959 ) ;
#1202 = DIRECTION ( 'NONE',  ( 0.000000000000000000, 0.000000000000000000, 1.000000000000000000 ) ) ;
#1203 = CARTESIAN_POINT ( 'NONE',  ( -1.550000000000002709, 1.587499999999991696, 1.015000000000000346 ) ) ;
#1204 = DIRECTION ( 'NONE',  ( -0.000000000000000000, -0.000000000000000000, 1.000000000000000000 ) ) ;
#1205 = ORIENTED_EDGE ( 'NONE', *, *, #146, .F. ) ;
#1206 = APPLICATION_CONTEXT ( 'configuration controlled 3d designs of mechanical parts and assemblies' ) ;
#1207 = DIRECTION ( 'NONE',  ( 1.000000000000000000, 0.000000000000000000, 0.000000000000000000 ) ) ;
#1208 = VERTEX_POINT ( 'NONE', #517 ) ;
#1209 = LINE ( 'NONE', #302, #141 ) ;
#1210 = LOCAL_TIME ( 13, 58, 42.00000000000000000, #1143 ) ;
#1211 = VERTEX_POINT ( 'NONE', #1113 ) ;
#1212 = DIRECTION ( 'NONE',  ( -0.000000000000000000, 0.000000000000000000, 1.000000000000000000 ) ) ;
#1213 = ORIENTED_EDGE ( 'NONE', *, *, #923, .T. ) ;
#1214 = AXIS2_PLACEMENT_3D ( 'NONE', #1095, #1089, #272 ) ;
#1215 = DIRECTION ( 'NONE',  ( -0.000000000000000000, 1.000000000000000000, -0.000000000000000000 ) ) ;
#1216 = AXIS2_PLACEMENT_3D ( 'NONE', #684, #293, #600 ) ;
#1217 = EDGE_CURVE ( 'NONE', #1315, #1306, #435, .T. ) ;
#1218 = CARTESIAN_POINT ( 'NONE',  ( -0.3500000000000030864, 1.587499999999991696, 5.200000000000009948 ) ) ;
#1219 = EDGE_LOOP ( 'NONE', ( #426, #662, #62, #669 ) ) ;
#1220 = DIRECTION ( 'NONE',  ( -0.000000000000000000, 1.000000000000000000, -0.000000000000000000 ) ) ;
#1221 = AXIS2_PLACEMENT_3D ( 'NONE', #266, #57, #451 ) ;
#1222 = ORIENTED_EDGE ( 'NONE', *, *, #1281, .T. ) ;
#1223 = AXIS2_PLACEMENT_3D ( 'NONE', #195, #81, #276 ) ;
#1224 = CARTESIAN_POINT ( 'NONE',  ( 0.3500000000000030864, -1.587499999999991696, 5.200000000000009948 ) ) ;
#1225 = AXIS2_PLACEMENT_3D ( 'NONE', #269, #168, #1255 ) ;
#1226 = ORIENTED_EDGE ( 'NONE', *, *, #816, .F. ) ;
#1227 = ADVANCED_FACE ( 'NONE', ( #2, #1133 ), #1010, .T. ) ;
#1228 = CARTESIAN_POINT ( 'NONE',  ( 2.049999999999999822, 0.000000000000000000, -11.76099999999999923 ) ) ;
#1229 = VERTEX_POINT ( 'NONE', #311 ) ;
#1230 = CARTESIAN_POINT ( 'NONE',  ( 1.268411506570324088, 1.587499999999991473, 1.015000000000000346 ) ) ;
#1231 = CARTESIAN_POINT ( 'NONE',  ( -1.891269295326068356, 0.7430507738754046354, 5.658031919522676034 ) ) ;
#1232 = ORIENTED_EDGE ( 'NONE', *, *, #910, .T. ) ;
#1233 = LINE ( 'NONE', #734, #95 ) ;
#1234 = AXIS2_PLACEMENT_3D ( 'NONE', #717, #213, #616 ) ;
#1235 = APPROVAL ( #665, 'UNSPECIFIED' ) ;
#1236 = VERTEX_POINT ( 'NONE', #104 ) ;
#1237 = DIRECTION ( 'NONE',  ( 0.000000000000000000, 0.000000000000000000, -1.000000000000000000 ) ) ;
#1238 = ORIENTED_EDGE ( 'NONE', *, *, #1311, .F. ) ;
#1239 = FACE_OUTER_BOUND ( 'NONE', #1151, .T. ) ;
#1240 = VECTOR ( 'NONE', #1176, 1000.000000000000000 ) ;
#1241 = EDGE_CURVE ( 'NONE', #1110, #46, #664, .T. ) ;
#1242 = DIRECTION ( 'NONE',  ( 0.000000000000000000, 0.000000000000000000, -1.000000000000000000 ) ) ;
#1243 = VECTOR ( 'NONE', #523, 1000.000000000000000 ) ;
#1244 = PERSON_AND_ORGANIZATION_ROLE ( 'creator' ) ;
#1245 = VECTOR ( 'NONE', #747, 1000.000000000000000 ) ;
#1246 = ORIENTED_EDGE ( 'NONE', *, *, #64, .T. ) ;
#1247 = DIRECTION ( 'NONE',  ( 1.000000000000000000, 6.829619984160654348E-17, 0.000000000000000000 ) ) ;
#1248 = DATE_AND_TIME ( #364, #1210 ) ;
#1249 = ORIENTED_EDGE ( 'NONE', *, *, #487, .T. ) ;
#1250 = CYLINDRICAL_SURFACE ( 'NONE', #858, 2.032000000000000028 ) ;
#1251 = CYLINDRICAL_SURFACE ( 'NONE', #1221, 2.032000000000000028 ) ;
#1252 = CARTESIAN_POINT ( 'NONE',  ( 1.587500000000000133, 1.268411506570324088, -18.95100000000000051 ) ) ;
#1253 = DATE_AND_TIME ( #744, #348 ) ;
#1254 =( BOUNDED_CURVE ( )  B_SPLINE_CURVE ( 3, ( #883, #479, #978, #1286 ),
 .UNSPECIFIED., .F., .T. ) 
 B_SPLINE_CURVE_WITH_KNOTS ( ( 4, 4 ),
 ( 5.450886424868650160, 5.908827816782336484 ),
 .UNSPECIFIED. ) 
 CURVE ( )  GEOMETRIC_REPRESENTATION_ITEM ( )  RATIONAL_B_SPLINE_CURVE ( ( 1.000000000000000000, 0.9826003582447280227, 0.9826003582447280227, 1.000000000000000000 ) ) 
 REPRESENTATION_ITEM ( '' )  );
#1255 = DIRECTION ( 'NONE',  ( 1.000000000000000000, 0.000000000000000000, 0.000000000000000000 ) ) ;
#1256 = ADVANCED_FACE ( 'NONE', ( #931 ), #541, .T. ) ;
#1257 = CARTESIAN_POINT ( 'NONE',  ( 0.000000000000000000, 0.000000000000000000, 6.200000000000010836 ) ) ;
#1258 = AXIS2_PLACEMENT_3D ( 'NONE', #933, #1247, #1129 ) ;
#1259 = ORIENTED_EDGE ( 'NONE', *, *, #145, .T. ) ;
#1260 = VECTOR ( 'NONE', #1220, 1000.000000000000000 ) ;
#1261 = FACE_OUTER_BOUND ( 'NONE', #952, .T. ) ;
#1262 = CARTESIAN_POINT ( 'NONE',  ( 1.587500000000000577, -1.268411506570323866, -13.44099999999999895 ) ) ;
#1263 = ORIENTED_EDGE ( 'NONE', *, *, #801, .F. ) ;
#1264 = CIRCLE ( 'NONE', #1201, 2.032000000000000028 ) ;
#1265 = DIRECTION ( 'NONE',  ( -1.000000000000000000, 0.000000000000000000, 0.000000000000000000 ) ) ;
#1266 = ORIENTED_EDGE ( 'NONE', *, *, #1055, .F. ) ;
#1267 = DIRECTION ( 'NONE',  ( -0.8660254037844364872, 0.000000000000000000, -0.5000000000000037748 ) ) ;
#1268 = EDGE_CURVE ( 'NONE', #527, #1128, #331, .T. ) ;
#1269 = PERSON_AND_ORGANIZATION ( #164, #1294 ) ;
#1270 = EDGE_LOOP ( 'NONE', ( #263, #1182, #1194, #87 ) ) ;
#1271 = LINE ( 'NONE', #1068, #998 ) ;
#1272 = ORIENTED_EDGE ( 'NONE', *, *, #109, .F. ) ;
#1273 = CARTESIAN_POINT ( 'NONE',  ( -1.587499999999999467, -1.061532360077567905, -18.85140206829364118 ) ) ;
#1274 = ORIENTED_EDGE ( 'NONE', *, *, #191, .T. ) ;
#1275 = VERTEX_POINT ( 'NONE', #1107 ) ;
#1276 = CIRCLE ( 'NONE', #240, 2.032000000000000028 ) ;
#1277 = CARTESIAN_POINT ( 'NONE',  ( 1.550000000000002709, -2.192040705001133016, 5.460999999999993193 ) ) ;
#1278 = CARTESIAN_POINT ( 'NONE',  ( -1.268411506570322311, 1.587500000000001688, -18.95100000000000051 ) ) ;
#1279 = ADVANCED_FACE ( 'NONE', ( #919 ), #814, .F. ) ;
#1280 = CARTESIAN_POINT ( 'NONE',  ( 1.587500000000000577, -1.268411506570323644, -18.79991914209798054 ) ) ;
#1281 = EDGE_CURVE ( 'NONE', #1211, #950, #200, .T. ) ;
#1282 = EDGE_LOOP ( 'NONE', ( #1174, #85, #945, #525 ) ) ;
#1283 = VECTOR ( 'NONE', #834, 1000.000000000000000 ) ;
#1284 = CARTESIAN_POINT ( 'NONE',  ( 0.3500000000000030864, -1.588549999999994133, 5.200000000000009948 ) ) ;
#1285 = VECTOR ( 'NONE', #572, 1000.000000000000000 ) ;
#1286 = CARTESIAN_POINT ( 'NONE',  ( 1.891269295326068356, 0.7430507738754024150, 5.658031919522676034 ) ) ;
#1287 = CARTESIAN_POINT ( 'NONE',  ( -1.268411506570328307, 1.587499999999996581, 1.015000000000000346 ) ) ;
#1288 = DIRECTION ( 'NONE',  ( 0.000000000000000000, 0.000000000000000000, 1.000000000000000000 ) ) ;
#1289 = ORIENTED_EDGE ( 'NONE', *, *, #1076, .T. ) ;
#1290 =( BOUNDED_CURVE ( )  B_SPLINE_CURVE ( 3, ( #15, #615, #337, #133 ),
 .UNSPECIFIED., .F., .T. ) 
 B_SPLINE_CURVE_WITH_KNOTS ( ( 4, 4 ),
 ( 0.3743574903972507473, 0.8322988823109361833 ),
 .UNSPECIFIED. ) 
 CURVE ( )  GEOMETRIC_REPRESENTATION_ITEM ( )  RATIONAL_B_SPLINE_CURVE ( ( 1.000000000000000000, 0.9826003582447282447, 0.9826003582447282447, 1.000000000000000000 ) ) 
 REPRESENTATION_ITEM ( '' )  );
#1291 = CARTESIAN_POINT ( 'NONE',  ( 0.3500000000000030864, 1.587499999999991696, 6.200000000000010836 ) ) ;
#1292 = ORIENTED_EDGE ( 'NONE', *, *, #66, .T. ) ;
#1293 = CARTESIAN_POINT ( 'NONE',  ( 1.587500000000000355, 0.000000000000000000, -18.92322736169286301 ) ) ;
#1294 = ORGANIZATION ( 'UNSPECIFIED', 'UNSPECIFIED', '' ) ;
#1295 = CARTESIAN_POINT ( 'NONE',  ( -1.245064030267289512, 2.006622987633880995E-16, -18.95100000000000051 ) ) ;
#1296 = PLANE ( 'NONE',  #27 ) ;
#1297 = ORIENTED_EDGE ( 'NONE', *, *, #301, .F. ) ;
#1298 = ADVANCED_FACE ( 'NONE', ( #111 ), #21, .F. ) ;
#1299 = DIRECTION ( 'NONE',  ( -2.731847993664263218E-16, -1.000000000000000000, 0.000000000000000000 ) ) ;
#1300 = VECTOR ( 'NONE', #54, 1000.000000000000000 ) ;
#1301 = SECURITY_CLASSIFICATION ( '', '', #343 ) ;
#1302 = AXIS2_PLACEMENT_3D ( 'NONE', #810, #398, #800 ) ;
#1303 = DIRECTION ( 'NONE',  ( -0.000000000000000000, -0.000000000000000000, 1.000000000000000000 ) ) ;
#1304 = CARTESIAN_POINT ( 'NONE',  ( 0.000000000000000000, 0.000000000000000000, -13.44099999999999895 ) ) ;
#1305 = LINE ( 'NONE', #402, #418 ) ;
#1306 = VERTEX_POINT ( 'NONE', #1218 ) ;
#1307 = LINE ( 'NONE', #412, #860 ) ;
#1308 = AXIS2_PLACEMENT_3D ( 'NONE', #781, #700, #680 ) ;
#1309 = EDGE_CURVE ( 'NONE', #1158, #224, #808, .T. ) ;
#1310 = AXIS2_PLACEMENT_3D ( 'NONE', #1001, #278, #97 ) ;
#1311 = EDGE_CURVE ( 'NONE', #1030, #1082, #621, .T. ) ;
#1312 = EDGE_LOOP ( 'NONE', ( #826, #634, #219, #404 ) ) ;
#1313 = DIRECTION ( 'NONE',  ( -1.000000000000000000, -1.365923996832131609E-16, 0.000000000000000000 ) ) ;
#1314 = CARTESIAN_POINT ( 'NONE',  ( -0.2043756380770822556, 1.587500000000001688, -18.92340961896380236 ) ) ;
#1315 = VERTEX_POINT ( 'NONE', #9 ) ;
#1316 = CARTESIAN_POINT ( 'NONE',  ( -1.268411506570324310, -1.587499999999999911, -18.79991914209798054 ) ) ;
#1317 = ORIENTED_EDGE ( 'NONE', *, *, #910, .F. ) ;
ENDSEC;
END-ISO-10303-21;
