ISO-10303-21;
HEADER;
FILE_DESCRIPTION (( 'STEP AP203' ),
    '1' );
FILE_NAME ('228-2500-117.step',
    '2022-06-06T19:00:57',
    ( '' ),
    ( '' ),
    'SwSTEP 2.0',
    'SolidWorks 2021',
    '' );
FILE_SCHEMA (( 'CONFIG_CONTROL_DESIGN' ));
ENDSEC;

DATA;
#1 = ORIENTED_EDGE ( 'NONE', *, *, #131, .T. ) ;
#2 = CALENDAR_DATE ( 2022, 6, 6 ) ;
#3 = CARTESIAN_POINT ( 'NONE',  ( -1.587500000000000355, 1.268411506570324088, 11.65991914209797997 ) ) ;
#4 = EDGE_CURVE ( 'NONE', #66, #147, #395, .T. ) ;
#5 = DIRECTION ( 'NONE',  ( -1.000000000000000000, 0.000000000000000000, 0.000000000000000000 ) ) ;
#6 = CARTESIAN_POINT ( 'NONE',  ( 0.000000000000000000, 0.000000000000000000, -9.686000000000001720 ) ) ;
#7 = CARTESIAN_POINT ( 'NONE',  ( -1.587500000000000577, 0.8514389605504942837, -11.74136751577920101 ) ) ;
#8 = CARTESIAN_POINT ( 'NONE',  ( 1.587500000000000355, 0.4276219574846470417, 11.77699639200008797 ) ) ;
#9 = CARTESIAN_POINT ( 'NONE',  ( 1.245064030267288402, 0.000000000000000000, -9.686000000000001720 ) ) ;
#10 = CARTESIAN_POINT ( 'NONE',  ( -1.268411506570323866, 1.587500000000000355, 11.65991914209797997 ) ) ;
#11 = CIRCLE ( 'NONE', #94, 2.032000000000000028 ) ;
#12 = ORIENTED_EDGE ( 'NONE', *, *, #323, .T. ) ;
#13 = CC_DESIGN_PERSON_AND_ORGANIZATION_ASSIGNMENT ( #553, #216, ( #215 ) ) ;
#14 = CARTESIAN_POINT ( 'NONE',  ( -1.587500000000000355, -0.8513200635100128810, -11.74137755531810789 ) ) ;
#15 = CARTESIAN_POINT ( 'NONE',  ( -1.587500000000000355, 0.2114796877013864762, -11.78322736169286600 ) ) ;
#16 = APPROVAL_PERSON_ORGANIZATION ( #237, #113, #326 ) ;
#17 = CARTESIAN_POINT ( 'NONE',  ( 0.000000000000000000, 0.000000000000000000, 0.000000000000000000 ) ) ;
#18 = CARTESIAN_POINT ( 'NONE',  ( 1.587500000000000355, 0.000000000000000000, -11.78322736169286422 ) ) ;
#19 = EDGE_CURVE ( 'NONE', #53, #314, #41, .T. ) ;
#20 = CARTESIAN_POINT ( 'NONE',  ( -0.8486262390323812133, -1.587500000000000577, -11.74176882282394452 ) ) ;
#21 = LINE ( 'NONE', #495, #179 ) ;
#22 = AXIS2_PLACEMENT_3D ( 'NONE', #316, #222, #262 ) ;
#23 = APPROVAL_STATUS ( 'not_yet_approved' ) ;
#24 = VERTEX_POINT ( 'NONE', #308 ) ;
#25 = PRODUCT_RELATED_PRODUCT_CATEGORY ( 'detail', '', ( #474 ) ) ;
#26 = CARTESIAN_POINT ( 'NONE',  ( -1.587500000000000355, -1.944126793646423534E-16, 11.78322736169286422 ) ) ;
#27 = CARTESIAN_POINT ( 'NONE',  ( -1.268411506570323866, -1.587500000000000355, -11.65991914209797997 ) ) ;
#28 = EDGE_LOOP ( 'NONE', ( #34, #225, #441, #118, #240, #254 ) ) ;
#29 = CARTESIAN_POINT ( 'NONE',  ( -1.587500000000000133, -1.061532360077855675, 11.71140206829358732 ) ) ;
#30 = DIRECTION ( 'NONE',  ( -1.000000000000000000, 1.224646799147353207E-16, 0.000000000000000000 ) ) ;
#31 = LINE ( 'NONE', #280, #305 ) ;
#32 = CARTESIAN_POINT ( 'NONE',  ( -1.587500000000000355, 1.587500000000000355, 11.81099999999999817 ) ) ;
#33 = DATE_AND_TIME ( #2, #347 ) ;
#34 = ORIENTED_EDGE ( 'NONE', *, *, #89, .F. ) ;
#35 = DIRECTION ( 'NONE',  ( 0.000000000000000000, -0.000000000000000000, 1.000000000000000000 ) ) ;
#36 = EDGE_CURVE ( 'NONE', #109, #38, #339, .T. ) ;
#37 = CALENDAR_DATE ( 2022, 6, 6 ) ;
#38 = VERTEX_POINT ( 'NONE', #176 ) ;
#39 = EDGE_CURVE ( 'NONE', #147, #292, #354, .T. ) ;
#40 = CARTESIAN_POINT ( 'NONE',  ( 0.4219230645619474473, 1.587500000000000577, -11.77730730355361999 ) ) ;
#41 = CIRCLE ( 'NONE', #68, 2.124999999999996891 ) ;
#42 = COORDINATED_UNIVERSAL_TIME_OFFSET ( 6, 0, .BEHIND. ) ;
#43 = EDGE_LOOP ( 'NONE', ( #251, #546 ) ) ;
#44 = AXIS2_PLACEMENT_3D ( 'NONE', #288, #335, #293 ) ;
#45 = CC_DESIGN_DATE_AND_TIME_ASSIGNMENT ( #291, #468, ( #215 ) ) ;
#46 = CYLINDRICAL_SURFACE ( 'NONE', #50, 2.032000000000000028 ) ;
#47 = AXIS2_PLACEMENT_3D ( 'NONE', #17, #324, #497 ) ;
#48 = CARTESIAN_POINT ( 'NONE',  ( 0.4342314039556082750, 1.587500000000000355, 11.78285171744314042 ) ) ;
#49 = CIRCLE ( 'NONE', #59, 2.032000000000000028 ) ;
#50 = AXIS2_PLACEMENT_3D ( 'NONE', #256, #129, #300 ) ;
#51 = DIRECTION ( 'NONE',  ( 1.000000000000000000, 0.000000000000000000, 0.000000000000000000 ) ) ;
#52 = LINE ( 'NONE', #352, #342 ) ;
#53 = VERTEX_POINT ( 'NONE', #178 ) ;
#54 = SECURITY_CLASSIFICATION ( '', '', #250 ) ;
#55 = EDGE_CURVE ( 'NONE', #314, #24, #233, .T. ) ;
#56 = DIRECTION ( 'NONE',  ( 0.000000000000000000, 0.000000000000000000, -1.000000000000000000 ) ) ;
#57 = DIRECTION ( 'NONE',  ( -0.000000000000000000, -0.000000000000000000, 1.000000000000000000 ) ) ;
#58 = B_SPLINE_CURVE_WITH_KNOTS ( 'NONE', 3,
 ( #99, #489, #226, #14, #362, #534 ),
 .UNSPECIFIED., .F., .F.,
 ( 4, 2, 4 ),
 ( 5.013490505250342793E-20, 0.0006365870327257439716, 0.001273174065451487943 ),
 .UNSPECIFIED. ) ;
#59 = AXIS2_PLACEMENT_3D ( 'NONE', #153, #450, #373 ) ;
#60 = ORIENTED_EDGE ( 'NONE', *, *, #36, .F. ) ;
#61 = APPROVAL ( #559, 'UNSPECIFIED' ) ;
#62 = B_SPLINE_CURVE_WITH_KNOTS ( 'NONE', 3,
 ( #249, #517, #384, #561, #355, #360, #524, #173 ),
 .UNSPECIFIED., .F., .F.,
 ( 4, 2, 2, 4 ),
 ( 0.01485345774306976244, 0.01548583974386942043, 0.01611822174466907842, 0.01738298574626839094 ),
 .UNSPECIFIED. ) ;
#63 = EDGE_LOOP ( 'NONE', ( #319, #421 ) ) ;
#64 = ADVANCED_FACE ( 'NONE', ( #528 ), #535, .T. ) ;
#65 = CARTESIAN_POINT ( 'NONE',  ( -1.587500000000000355, -0.4276219574846470417, 11.77699639200008797 ) ) ;
#66 = VERTEX_POINT ( 'NONE', #402 ) ;
#67 = CARTESIAN_POINT ( 'NONE',  ( -1.587500000000000577, -0.8514389605504942837, 11.74136751577920101 ) ) ;
#68 = AXIS2_PLACEMENT_3D ( 'NONE', #9, #263, #486 ) ;
#69 = AXIS2_PLACEMENT_3D ( 'NONE', #187, #329, #334 ) ;
#70 = CARTESIAN_POINT ( 'NONE',  ( -1.245064030267288402, 1.524763679400337895E-16, -9.686000000000001720 ) ) ;
#71 = CARTESIAN_POINT ( 'NONE',  ( -1.587500000000000355, -0.2114796877013864762, 11.78322736169286600 ) ) ;
#72 = CARTESIAN_POINT ( 'NONE',  ( -1.060147506033615850, -1.587500000000000133, -11.71174669625517595 ) ) ;
#73 = VERTEX_POINT ( 'NONE', #532 ) ;
#74 = DIRECTION ( 'NONE',  ( 1.000000000000000000, 0.000000000000000000, 0.000000000000000000 ) ) ;
#75 = PLANE ( 'NONE',  #359 ) ;
#76 = APPROVAL ( #424, 'UNSPECIFIED' ) ;
#77 = VECTOR ( 'NONE', #493, 1000.000000000000000 ) ;
#78 = COORDINATED_UNIVERSAL_TIME_OFFSET ( 6, 0, .BEHIND. ) ;
#79 = VERTEX_POINT ( 'NONE', #490 ) ;
#80 = FACE_OUTER_BOUND ( 'NONE', #135, .T. ) ;
#81 = EDGE_CURVE ( 'NONE', #469, #53, #523, .T. ) ;
#82 = PERSON_AND_ORGANIZATION ( #259, #302 ) ;
#83 = ORIENTED_EDGE ( 'NONE', *, *, #4, .T. ) ;
#84 = CARTESIAN_POINT ( 'NONE',  ( 1.268411506570323866, 1.587500000000000355, -11.65991914209797997 ) ) ;
#85 = ORIENTED_EDGE ( 'NONE', *, *, #502, .T. ) ;
#86 = CARTESIAN_POINT ( 'NONE',  ( 1.587500000000000355, 0.000000000000000000, -11.78322736169286422 ) ) ;
#87 = AXIS2_PLACEMENT_3D ( 'NONE', #500, #201, #150 ) ;
#88 = PERSON_AND_ORGANIZATION ( #259, #302 ) ;
#89 = EDGE_CURVE ( 'NONE', #446, #66, #21, .T. ) ;
#90 = FACE_OUTER_BOUND ( 'NONE', #28, .T. ) ;
#91 = CARTESIAN_POINT ( 'NONE',  ( -1.587499999999999689, 0.8513200635100125480, 11.74137755531810612 ) ) ;
#92 = CARTESIAN_POINT ( 'NONE',  ( 1.245064030267288402, 0.000000000000000000, 11.81100000000000172 ) ) ;
#93 = ORIENTED_EDGE ( 'NONE', *, *, #19, .F. ) ;
#94 = AXIS2_PLACEMENT_3D ( 'NONE', #107, #239, #192 ) ;
#95 = AXIS2_PLACEMENT_3D ( 'NONE', #427, #132, #306 ) ;
#96 = CARTESIAN_POINT ( 'NONE',  ( 0.8571092511719601292, 1.587500000000000799, 11.76227379706277354 ) ) ;
#97 = ORIENTED_EDGE ( 'NONE', *, *, #98, .T. ) ;
#98 = EDGE_CURVE ( 'NONE', #483, #79, #11, .T. ) ;
#99 = CARTESIAN_POINT ( 'NONE',  ( -1.587500000000000355, 1.944126793646423534E-16, -11.78322736169286422 ) ) ;
#100 = CARTESIAN_POINT ( 'NONE',  ( -1.587500000000000355, 1.944126793646423534E-16, -11.78322736169286422 ) ) ;
#101 = PRODUCT_DEFINITION_FORMATION_WITH_SPECIFIED_SOURCE ( 'ANY', '', #474, .NOT_KNOWN. ) ;
#102 = CARTESIAN_POINT ( 'NONE',  ( -1.587500000000000355, -1.268411506570323866, 11.65991914209797997 ) ) ;
#103 = ORIENTED_EDGE ( 'NONE', *, *, #416, .F. ) ;
#104 = CYLINDRICAL_SURFACE ( 'NONE', #22, 2.032000000000000028 ) ;
#105 = CARTESIAN_POINT ( 'NONE',  ( 1.587500000000000577, 0.4277385810629846241, -11.77698654358311536 ) ) ;
#106 = ORIENTED_EDGE ( 'NONE', *, *, #221, .F. ) ;
#107 = CARTESIAN_POINT ( 'NONE',  ( 0.000000000000000000, 0.000000000000000000, -11.65991914209797997 ) ) ;
#108 = PERSON_AND_ORGANIZATION ( #259, #302 ) ;
#109 = VERTEX_POINT ( 'NONE', #159 ) ;
#110 = DIRECTION ( 'NONE',  ( 1.000000000000000000, 0.000000000000000000, 0.000000000000000000 ) ) ;
#111 = CALENDAR_DATE ( 2022, 6, 6 ) ;
#112 = EDGE_LOOP ( 'NONE', ( #317, #465, #508, #374 ) ) ;
#113 = APPROVAL ( #23, 'UNSPECIFIED' ) ;
#114 = DIRECTION ( 'NONE',  ( 0.000000000000000000, -0.000000000000000000, -1.000000000000000000 ) ) ;
#115 = ORIENTED_EDGE ( 'NONE', *, *, #462, .F. ) ;
#116 = CARTESIAN_POINT ( 'NONE',  ( 1.587500000000000355, -0.2114796877013864762, -11.78322736169286600 ) ) ;
#117 = DIRECTION ( 'NONE',  ( 0.000000000000000000, 0.000000000000000000, -1.000000000000000000 ) ) ;
#118 = ORIENTED_EDGE ( 'NONE', *, *, #195, .F. ) ;
#119 = CARTESIAN_POINT ( 'NONE',  ( 1.268411506570323866, -1.587500000000000355, 11.65991914209797997 ) ) ;
#120 = ORIENTED_EDGE ( 'NONE', *, *, #393, .F. ) ;
#121 = LINE ( 'NONE', #338, #123 ) ;
#122 = AXIS2_PLACEMENT_3D ( 'NONE', #526, #509, #551 ) ;
#123 = VECTOR ( 'NONE', #297, 1000.000000000000000 ) ;
#124 = ORIENTED_EDGE ( 'NONE', *, *, #137, .F. ) ;
#125 = CARTESIAN_POINT ( 'NONE',  ( -0.4342314039556036120, 1.587500000000000355, -11.78285171744313864 ) ) ;
#126 = VERTEX_POINT ( 'NONE', #458 ) ;
#127 = DIRECTION ( 'NONE',  ( 0.000000000000000000, 1.000000000000000000, 0.000000000000000000 ) ) ;
#128 = APPROVAL_ROLE ( '' ) ;
#129 = DIRECTION ( 'NONE',  ( -0.000000000000000000, -0.000000000000000000, 1.000000000000000000 ) ) ;
#130 = VECTOR ( 'NONE', #327, 1000.000000000000000 ) ;
#131 = EDGE_CURVE ( 'NONE', #53, #469, #331, .T. ) ;
#132 = DIRECTION ( 'NONE',  ( -1.000000000000000000, 0.000000000000000000, 0.000000000000000000 ) ) ;
#133 = B_SPLINE_CURVE_WITH_KNOTS ( 'NONE', 3,
 ( #267, #309, #479, #141, #265, #145 ),
 .UNSPECIFIED., .F., .F.,
 ( 4, 2, 4 ),
 ( 2.407287075689319411E-19, 0.0006365870327257441884, 0.001273174065451488160 ),
 .UNSPECIFIED. ) ;
#134 = FACE_OUTER_BOUND ( 'NONE', #182, .T. ) ;
#135 = EDGE_LOOP ( 'NONE', ( #190, #444, #279, #235, #364, #370 ) ) ;
#136 = CARTESIAN_POINT ( 'NONE',  ( 0.000000000000000000, 0.000000000000000000, 11.81100000000000172 ) ) ;
#137 = EDGE_CURVE ( 'NONE', #425, #321, #408, .T. ) ;
#138 = ORIENTED_EDGE ( 'NONE', *, *, #333, .T. ) ;
#139 = ADVANCED_FACE ( 'NONE', ( #196 ), #463, .T. ) ;
#140 = AXIS2_PLACEMENT_3D ( 'NONE', #404, #536, #318 ) ;
#141 = CARTESIAN_POINT ( 'NONE',  ( 1.587500000000000355, -0.8513200635100128810, 11.74137755531810789 ) ) ;
#142 = ORIENTED_EDGE ( 'NONE', *, *, #55, .F. ) ;
#143 = FACE_OUTER_BOUND ( 'NONE', #426, .T. ) ;
#144 = DIRECTION ( 'NONE',  ( 1.000000000000000000, 0.000000000000000000, 0.000000000000000000 ) ) ;
#145 = CARTESIAN_POINT ( 'NONE',  ( 1.587500000000000355, -1.268411506570324088, 11.65991914209797997 ) ) ;
#146 = CARTESIAN_POINT ( 'NONE',  ( 1.268411506570323866, -1.587500000000000355, -11.81100000000000172 ) ) ;
#147 = VERTEX_POINT ( 'NONE', #119 ) ;
#148 = AXIS2_PLACEMENT_3D ( 'NONE', #440, #56, #400 ) ;
#149 = DIRECTION ( 'NONE',  ( -0.000000000000000000, -0.000000000000000000, 1.000000000000000000 ) ) ;
#150 = DIRECTION ( 'NONE',  ( 1.000000000000000000, 0.000000000000000000, 0.000000000000000000 ) ) ;
#151 = EDGE_CURVE ( 'NONE', #453, #268, #158, .T. ) ;
#152 = ORIENTED_EDGE ( 'NONE', *, *, #416, .T. ) ;
#153 = CARTESIAN_POINT ( 'NONE',  ( 0.000000000000000000, 0.000000000000000000, -11.65991914209797997 ) ) ;
#154 = EDGE_CURVE ( 'NONE', #386, #209, #548, .T. ) ;
#155 = CARTESIAN_POINT ( 'NONE',  ( -1.268411506570323866, 1.587500000000000355, -11.81100000000000172 ) ) ;
#156 = ORIENTED_EDGE ( 'NONE', *, *, #98, .F. ) ;
#157 = CYLINDRICAL_SURFACE ( 'NONE', #44, 2.032000000000000028 ) ;
#158 = CIRCLE ( 'NONE', #550, 2.124999999999996891 ) ;
#159 = CARTESIAN_POINT ( 'NONE',  ( -1.587500000000000355, 1.268411506570323866, -11.65991914209797997 ) ) ;
#160 = PERSON_AND_ORGANIZATION ( #259, #302 ) ;
#161 = ORIENTED_EDGE ( 'NONE', *, *, #195, .T. ) ;
#162 = EDGE_CURVE ( 'NONE', #382, #209, #476, .T. ) ;
#163 = ORIENTED_EDGE ( 'NONE', *, *, #520, .F. ) ;
#164 = CARTESIAN_POINT ( 'NONE',  ( 1.587500000000000355, 0.000000000000000000, 11.78322736169286422 ) ) ;
#165 = AXIS2_PLACEMENT_3D ( 'NONE', #522, #392, #350 ) ;
#166 = APPROVAL_DATE_TIME ( #420, #61 ) ;
#167 = ORIENTED_EDGE ( 'NONE', *, *, #366, .T. ) ;
#168 = APPROVAL_DATE_TIME ( #281, #113 ) ;
#169 = ORIENTED_EDGE ( 'NONE', *, *, #19, .T. ) ;
#170 = PLANE ( 'NONE',  #436 ) ;
#171 = PLANE ( 'NONE',  #165 ) ;
#172 = DIRECTION ( 'NONE',  ( -0.000000000000000000, -0.000000000000000000, 1.000000000000000000 ) ) ;
#173 = CARTESIAN_POINT ( 'NONE',  ( -1.268411506570324088, -1.587500000000000355, 11.65991914209797997 ) ) ;
#174 = EDGE_CURVE ( 'NONE', #446, #314, #253, .T. ) ;
#175 = CC_DESIGN_APPROVAL ( #61, ( #54 ) ) ;
#176 = CARTESIAN_POINT ( 'NONE',  ( -1.587500000000000355, 1.944126793646423534E-16, -11.78322736169286422 ) ) ;
#177 = CARTESIAN_POINT ( 'NONE',  ( -1.060147506033615850, 1.587500000000000355, 11.71174669625517772 ) ) ;
#178 = CARTESIAN_POINT ( 'NONE',  ( 1.245064030267288402, 0.000000000000000000, -11.81100000000000172 ) ) ;
#179 = VECTOR ( 'NONE', #325, 1000.000000000000000 ) ;
#180 = CIRCLE ( 'NONE', #298, 2.124999999999996891 ) ;
#181 = CARTESIAN_POINT ( 'NONE',  ( -0.8486262390323815463, 1.587500000000000355, 11.74176882282394452 ) ) ;
#182 = EDGE_LOOP ( 'NONE', ( #275, #457, #518, #414, #498, #194, #120, #337 ) ) ;
#183 = EDGE_CURVE ( 'NONE', #248, #109, #220, .T. ) ;
#184 = CARTESIAN_POINT ( 'NONE',  ( 1.587500000000000133, 1.061532360077855675, 11.71140206829358732 ) ) ;
#185 = EDGE_LOOP ( 'NONE', ( #167, #379, #83, #287 ) ) ;
#186 = APPROVAL_PERSON_ORGANIZATION ( #82, #76, #128 ) ;
#187 = CARTESIAN_POINT ( 'NONE',  ( 0.000000000000000000, 0.000000000000000000, 11.81100000000000172 ) ) ;
#188 = CARTESIAN_POINT ( 'NONE',  ( 1.587500000000000355, 0.8513200635100128810, -11.74137755531810789 ) ) ;
#189 = DIRECTION ( 'NONE',  ( 0.000000000000000000, 0.000000000000000000, -1.000000000000000000 ) ) ;
#190 = ORIENTED_EDGE ( 'NONE', *, *, #323, .F. ) ;
#191 = AXIS2_PLACEMENT_3D ( 'NONE', #243, #117, #193 ) ;
#192 = DIRECTION ( 'NONE',  ( 1.000000000000000000, 0.000000000000000000, 0.000000000000000000 ) ) ;
#193 = DIRECTION ( 'NONE',  ( -1.000000000000000000, 0.000000000000000000, 0.000000000000000000 ) ) ;
#194 = ORIENTED_EDGE ( 'NONE', *, *, #4, .F. ) ;
#195 = EDGE_CURVE ( 'NONE', #321, #24, #31, .T. ) ;
#196 = FACE_OUTER_BOUND ( 'NONE', #206, .T. ) ;
#197 = LOCAL_TIME ( 14, 0, 57.00000000000000000, #464 ) ;
#198 = CARTESIAN_POINT ( 'NONE',  ( 0.8571092511719566875, -1.587500000000000355, -11.76227379706277354 ) ) ;
#199 = CARTESIAN_POINT ( 'NONE',  ( -1.268411506570323866, 1.587500000000000355, -11.65991914209797997 ) ) ;
#200 = CARTESIAN_POINT ( 'NONE',  ( 0.000000000000000000, 0.000000000000000000, 9.686000000000001720 ) ) ;
#201 = DIRECTION ( 'NONE',  ( -0.000000000000000000, -0.000000000000000000, 1.000000000000000000 ) ) ;
#202 = CALENDAR_DATE ( 2022, 6, 6 ) ;
#203 = DIRECTION ( 'NONE',  ( 0.000000000000000000, 0.000000000000000000, -1.000000000000000000 ) ) ;
#204 = CC_DESIGN_APPROVAL ( #113, ( #215 ) ) ;
#205 = PERSON_AND_ORGANIZATION_ROLE ( 'creator' ) ;
#206 = EDGE_LOOP ( 'NONE', ( #163, #361, #169, #438, #560, #537, #156, #435 ) ) ;
#207 = CARTESIAN_POINT ( 'NONE',  ( 0.2043756380772878967, 1.587500000000000133, -11.78340961896379291 ) ) ;
#208 = COORDINATED_UNIVERSAL_TIME_OFFSET ( 6, 0, .BEHIND. ) ;
#209 = VERTEX_POINT ( 'NONE', #368 ) ;
#210 = CARTESIAN_POINT ( 'NONE',  ( -1.268411506570323866, 1.587500000000000355, -11.65991914209797997 ) ) ;
#211 = VECTOR ( 'NONE', #477, 1000.000000000000000 ) ;
#212 = APPROVAL_DATE_TIME ( #336, #76 ) ;
#213 = EDGE_LOOP ( 'NONE', ( #97, #138, #310, #238 ) ) ;
#214 = CARTESIAN_POINT ( 'NONE',  ( -1.587500000000000355, -1.587500000000000355, 11.81099999999999817 ) ) ;
#215 = PRODUCT_DEFINITION ( 'UNKNOWN', '', #101, #365 ) ;
#216 = PERSON_AND_ORGANIZATION_ROLE ( 'creator' ) ;
#217 = LOCAL_TIME ( 14, 0, 57.00000000000000000, #78 ) ;
#218 = CARTESIAN_POINT ( 'NONE',  ( -1.587500000000000799, 0.4277385810629846241, 11.77698654358311714 ) ) ;
#219 = CARTESIAN_POINT ( 'NONE',  ( -1.245064030267288402, 2.006622987633880502E-16, -11.81100000000000172 ) ) ;
#220 = CIRCLE ( 'NONE', #296, 2.032000000000000028 ) ;
#221 = EDGE_CURVE ( 'NONE', #24, #557, #49, .T. ) ;
#222 = DIRECTION ( 'NONE',  ( -0.000000000000000000, -0.000000000000000000, 1.000000000000000000 ) ) ;
#223 = CARTESIAN_POINT ( 'NONE',  ( -1.587500000000000355, 1.268411506570323866, -11.65991914209797997 ) ) ;
#224 = CARTESIAN_POINT ( 'NONE',  ( 0.000000000000000000, 0.000000000000000000, -11.65991914209797997 ) ) ;
#225 = ORIENTED_EDGE ( 'NONE', *, *, #174, .T. ) ;
#226 = CARTESIAN_POINT ( 'NONE',  ( -1.587500000000000577, -0.4277385810629845686, -11.77698654358311536 ) ) ;
#227 = CARTESIAN_POINT ( 'NONE',  ( 1.587500000000000133, 0.2143109880596212602, -11.78322736169286067 ) ) ;
#228 = AXIS2_PLACEMENT_3D ( 'NONE', #276, #412, #378 ) ;
#229 = CARTESIAN_POINT ( 'NONE',  ( -1.245064030267288402, -2.006622987633880502E-16, 11.81100000000000172 ) ) ;
#230 = VERTEX_POINT ( 'NONE', #375 ) ;
#231 = EDGE_CURVE ( 'NONE', #386, #483, #544, .T. ) ;
#232 = CARTESIAN_POINT ( 'NONE',  ( 0.000000000000000000, 0.000000000000000000, -11.81100000000000172 ) ) ;
#233 = B_SPLINE_CURVE_WITH_KNOTS ( 'NONE', 3,
 ( #18, #227, #105, #188, #480, #273 ),
 .UNSPECIFIED., .F., .F.,
 ( 4, 2, 4 ),
 ( 2.407287075689319411E-19, 0.0006365870327257440800, 0.001273174065451487943 ),
 .UNSPECIFIED. ) ;
#234 = CARTESIAN_POINT ( 'NONE',  ( -0.2043756380772878967, -1.587500000000000133, -11.78340961896379291 ) ) ;
#235 = ORIENTED_EDGE ( 'NONE', *, *, #231, .F. ) ;
#236 = CARTESIAN_POINT ( 'NONE',  ( 1.587500000000000355, -1.268411506570323866, -11.65991914209797997 ) ) ;
#237 = PERSON_AND_ORGANIZATION ( #259, #302 ) ;
#238 = ORIENTED_EDGE ( 'NONE', *, *, #231, .T. ) ;
#239 = DIRECTION ( 'NONE',  ( -0.000000000000000000, -0.000000000000000000, 1.000000000000000000 ) ) ;
#240 = ORIENTED_EDGE ( 'NONE', *, *, #376, .T. ) ;
#241 = CARTESIAN_POINT ( 'NONE',  ( 1.587500000000000355, 0.000000000000000000, -11.78322736169286422 ) ) ;
#242 = CC_DESIGN_APPROVAL ( #76, ( #101 ) ) ;
#243 = CARTESIAN_POINT ( 'NONE',  ( 0.000000000000000000, 0.000000000000000000, 11.65991914209797997 ) ) ;
#244 = DIRECTION ( 'NONE',  ( -1.000000000000000000, 0.000000000000000000, 0.000000000000000000 ) ) ;
#245 = ORIENTED_EDGE ( 'NONE', *, *, #376, .F. ) ;
#246 = CARTESIAN_POINT ( 'NONE',  ( 1.587500000000000355, -0.4276219574846470417, -11.77699639200008797 ) ) ;
#247 = UNCERTAINTY_MEASURE_WITH_UNIT (LENGTH_MEASURE( 1.000000000000000082E-05 ), #274, 'distance_accuracy_value', 'NONE');
#248 = VERTEX_POINT ( 'NONE', #199 ) ;
#249 = CARTESIAN_POINT ( 'NONE',  ( 1.268411506570323866, -1.587500000000000355, 11.65991914209797997 ) ) ;
#250 = SECURITY_CLASSIFICATION_LEVEL ( 'unclassified' ) ;
#251 = ORIENTED_EDGE ( 'NONE', *, *, #131, .F. ) ;
#252 = CARTESIAN_POINT ( 'NONE',  ( -0.8571092511719566875, 1.587500000000000355, -11.76227379706277354 ) ) ;
#253 = B_SPLINE_CURVE_WITH_KNOTS ( 'NONE', 3,
 ( #236, #447, #407, #246, #116, #241 ),
 .UNSPECIFIED., .F., .F.,
 ( 4, 2, 4 ),
 ( 0.01485345774306976244, 0.01548163471194333174, 0.01610981168081690104 ),
 .UNSPECIFIED. ) ;
#254 = ORIENTED_EDGE ( 'NONE', *, *, #393, .T. ) ;
#255 = ADVANCED_FACE ( 'NONE', ( #547 ), #157, .T. ) ;
#256 = CARTESIAN_POINT ( 'NONE',  ( 0.000000000000000000, 0.000000000000000000, -11.81100000000000172 ) ) ;
#257 = AXIS2_PLACEMENT_3D ( 'NONE', #200, #189, #413 ) ;
#258 = PLANE ( 'NONE',  #95 ) ;
#259 = PERSON ( 'UNSPECIFIED', 'UNSPECIFIED', 'UNSPECIFIED', ('UNSPECIFIED'), ('UNSPECIFIED'), ('UNSPECIFIED') ) ;
#260 = CARTESIAN_POINT ( 'NONE',  ( -1.587500000000000355, -1.944126793646423534E-16, 11.78322736169286422 ) ) ;
#261 = ADVANCED_FACE ( 'NONE', ( #461 ), #75, .F. ) ;
#262 = DIRECTION ( 'NONE',  ( 1.000000000000000000, 0.000000000000000000, 0.000000000000000000 ) ) ;
#263 = DIRECTION ( 'NONE',  ( 0.000000000000000000, -1.000000000000000000, 0.000000000000000000 ) ) ;
#264 = TOROIDAL_SURFACE ( 'NONE', #257, 1.245064030267288402, 2.124999999999996891 ) ;
#265 = CARTESIAN_POINT ( 'NONE',  ( 1.587500000000000355, -1.061392899157111991, 11.71143677385165915 ) ) ;
#266 = ORIENTED_EDGE ( 'NONE', *, *, #183, .T. ) ;
#267 = CARTESIAN_POINT ( 'NONE',  ( 1.587500000000000355, 0.000000000000000000, 11.78322736169286422 ) ) ;
#268 = VERTEX_POINT ( 'NONE', #164 ) ;
#269 = CARTESIAN_POINT ( 'NONE',  ( 1.587500000000000355, 0.2114796877013864762, 11.78322736169286600 ) ) ;
#270 = EDGE_LOOP ( 'NONE', ( #460, #282, #340, #245, #124, #115, #472, #554 ) ) ;
#271 = AXIS2_PLACEMENT_3D ( 'NONE', #511, #422, #74 ) ;
#272 = CARTESIAN_POINT ( 'NONE',  ( -0.2043756380772847048, 1.587500000000000799, 11.78340961896379646 ) ) ;
#273 = CARTESIAN_POINT ( 'NONE',  ( 1.587500000000000355, 1.268411506570323866, -11.65991914209797997 ) ) ;
#274 =( LENGTH_UNIT ( ) NAMED_UNIT ( * ) SI_UNIT ( .MILLI., .METRE. ) );
#275 = ORIENTED_EDGE ( 'NONE', *, *, #501, .F. ) ;
#276 = CARTESIAN_POINT ( 'NONE',  ( -1.245064030267288402, -1.524763679400337895E-16, 9.686000000000001720 ) ) ;
#277 = EDGE_CURVE ( 'NONE', #209, #126, #454, .T. ) ;
#278 = PERSON_AND_ORGANIZATION_ROLE ( 'design_owner' ) ;
#279 = ORIENTED_EDGE ( 'NONE', *, *, #383, .T. ) ;
#280 = CARTESIAN_POINT ( 'NONE',  ( 1.587500000000000355, 1.268411506570323866, -11.81100000000000172 ) ) ;
#281 = DATE_AND_TIME ( #111, #556 ) ;
#282 = ORIENTED_EDGE ( 'NONE', *, *, #487, .F. ) ;
#283 = AXIS2_PLACEMENT_3D ( 'NONE', #224, #399, #51 ) ;
#284 = DIRECTION ( 'NONE',  ( -0.000000000000000000, 1.000000000000000000, 0.000000000000000000 ) ) ;
#285 = ADVANCED_FACE ( 'NONE', ( #470 ), #46, .T. ) ;
#286 = CARTESIAN_POINT ( 'NONE',  ( -0.4219230645619474473, -1.587500000000000577, -11.77730730355361999 ) ) ;
#287 = ORIENTED_EDGE ( 'NONE', *, *, #39, .T. ) ;
#288 = CARTESIAN_POINT ( 'NONE',  ( 0.000000000000000000, 0.000000000000000000, -11.81100000000000172 ) ) ;
#289 = APPROVAL_PERSON_ORGANIZATION ( #88, #61, #381 ) ;
#290 = B_SPLINE_CURVE_WITH_KNOTS ( 'NONE', 3,
 ( #84, #555, #558, #40, #207, #125, #252, #210 ),
 .UNSPECIFIED., .F., .F.,
 ( 4, 2, 2, 4 ),
 ( 0.01485345774306976244, 0.01548583974386941869, 0.01611822174466907495, 0.01738298574626838747 ),
 .UNSPECIFIED. ) ;
#291 = DATE_AND_TIME ( #202, #499 ) ;
#292 = VERTEX_POINT ( 'NONE', #345 ) ;
#293 = DIRECTION ( 'NONE',  ( 1.000000000000000000, 0.000000000000000000, 0.000000000000000000 ) ) ;
#294 = ADVANCED_FACE ( 'NONE', ( #514 ), #170, .F. ) ;
#295 = ORIENTED_EDGE ( 'NONE', *, *, #520, .T. ) ;
#296 = AXIS2_PLACEMENT_3D ( 'NONE', #542, #149, #110 ) ;
#297 = DIRECTION ( 'NONE',  ( -0.000000000000000000, -0.000000000000000000, 1.000000000000000000 ) ) ;
#298 = AXIS2_PLACEMENT_3D ( 'NONE', #70, #417, #30 ) ;
#299 = ORIENTED_EDGE ( 'NONE', *, *, #183, .F. ) ;
#300 = DIRECTION ( 'NONE',  ( 1.000000000000000000, 0.000000000000000000, 0.000000000000000000 ) ) ;
#301 = EDGE_CURVE ( 'NONE', #557, #248, #290, .T. ) ;
#302 = ORGANIZATION ( 'UNSPECIFIED', 'UNSPECIFIED', '' ) ;
#303 = EDGE_LOOP ( 'NONE', ( #266, #12, #411, #85 ) ) ;
#304 = CARTESIAN_POINT ( 'NONE',  ( -1.587500000000000355, 1.268411506570323866, -11.81100000000000172 ) ) ;
#305 = VECTOR ( 'NONE', #415, 1000.000000000000000 ) ;
#306 = DIRECTION ( 'NONE',  ( 0.000000000000000000, 0.000000000000000000, 1.000000000000000000 ) ) ;
#307 = CARTESIAN_POINT ( 'NONE',  ( 1.587500000000000355, 1.268411506570323866, 11.65991914209797997 ) ) ;
#308 = CARTESIAN_POINT ( 'NONE',  ( 1.587500000000000355, 1.268411506570323866, -11.65991914209797997 ) ) ;
#309 = CARTESIAN_POINT ( 'NONE',  ( 1.587500000000000133, -0.2143109880596212047, 11.78322736169286067 ) ) ;
#310 = ORIENTED_EDGE ( 'NONE', *, *, #481, .T. ) ;
#311 = ADVANCED_FACE ( 'NONE', ( #80 ), #171, .F. ) ;
#312 = CIRCLE ( 'NONE', #69, 1.245064030267288402 ) ;
#313 = CARTESIAN_POINT ( 'NONE',  ( 1.268411506570324088, 1.587500000000000355, 11.65991914209797997 ) ) ;
#314 = VERTEX_POINT ( 'NONE', #86 ) ;
#315 = CC_DESIGN_PERSON_AND_ORGANIZATION_ASSIGNMENT ( #108, #278, ( #474 ) ) ;
#316 = CARTESIAN_POINT ( 'NONE',  ( 0.000000000000000000, 0.000000000000000000, -11.81100000000000172 ) ) ;
#317 = ORIENTED_EDGE ( 'NONE', *, *, #333, .F. ) ;
#318 = DIRECTION ( 'NONE',  ( 1.000000000000000000, 0.000000000000000000, 0.000000000000000000 ) ) ;
#319 = ORIENTED_EDGE ( 'NONE', *, *, #487, .T. ) ;
#320 = AXIS2_PLACEMENT_3D ( 'NONE', #371, #505, #244 ) ;
#321 = VERTEX_POINT ( 'NONE', #349 ) ;
#322 = DIRECTION ( 'NONE',  ( 0.000000000000000000, 0.000000000000000000, -1.000000000000000000 ) ) ;
#323 = EDGE_CURVE ( 'NONE', #109, #126, #519, .T. ) ;
#324 = DIRECTION ( 'NONE',  ( 0.000000000000000000, 0.000000000000000000, 1.000000000000000000 ) ) ;
#325 = DIRECTION ( 'NONE',  ( -0.000000000000000000, -0.000000000000000000, 1.000000000000000000 ) ) ;
#326 = APPROVAL_ROLE ( '' ) ;
#327 = DIRECTION ( 'NONE',  ( 0.000000000000000000, 0.000000000000000000, -1.000000000000000000 ) ) ;
#328 = ADVANCED_FACE ( 'NONE', ( #90 ), #258, .F. ) ;
#329 = DIRECTION ( 'NONE',  ( -0.000000000000000000, -0.000000000000000000, 1.000000000000000000 ) ) ;
#330 = ORIENTED_EDGE ( 'NONE', *, *, #462, .T. ) ;
#331 = CIRCLE ( 'NONE', #271, 1.245064030267288402 ) ;
#332 = CARTESIAN_POINT ( 'NONE',  ( -1.587500000000000355, -1.268411506570323866, -11.81100000000000172 ) ) ;
#333 = EDGE_CURVE ( 'NONE', #79, #230, #121, .T. ) ;
#334 = DIRECTION ( 'NONE',  ( 1.000000000000000000, 0.000000000000000000, 0.000000000000000000 ) ) ;
#335 = DIRECTION ( 'NONE',  ( -0.000000000000000000, -0.000000000000000000, 1.000000000000000000 ) ) ;
#336 = DATE_AND_TIME ( #37, #217 ) ;
#337 = ORIENTED_EDGE ( 'NONE', *, *, #151, .F. ) ;
#338 = CARTESIAN_POINT ( 'NONE',  ( -1.268411506570323866, -1.587500000000000355, -11.81100000000000172 ) ) ;
#339 = B_SPLINE_CURVE_WITH_KNOTS ( 'NONE', 3,
 ( #223, #398, #7, #406, #15, #100 ),
 .UNSPECIFIED., .F., .F.,
 ( 4, 2, 4 ),
 ( 0.01485345774306976244, 0.01548163471194333174, 0.01610981168081690104 ),
 .UNSPECIFIED. ) ;
#340 = ORIENTED_EDGE ( 'NONE', *, *, #151, .T. ) ;
#341 = DIRECTION ( 'NONE',  ( -1.000000000000000000, 0.000000000000000000, -0.000000000000000000 ) ) ;
#342 = VECTOR ( 'NONE', #527, 1000.000000000000000 ) ;
#343 = ADVANCED_FACE ( 'NONE', ( #478 ), #387, .T. ) ;
#344 = ORIENTED_EDGE ( 'NONE', *, *, #301, .T. ) ;
#345 = CARTESIAN_POINT ( 'NONE',  ( 1.268411506570323866, -1.587500000000000355, -11.65991914209797997 ) ) ;
#346 = B_SPLINE_CURVE_WITH_KNOTS ( 'NONE', 3,
 ( #27, #72, #20, #286, #234, #543, #198, #538 ),
 .UNSPECIFIED., .F., .F.,
 ( 4, 2, 2, 4 ),
 ( 0.01485345774306976244, 0.01548583974386941869, 0.01611822174466907495, 0.01738298574626838747 ),
 .UNSPECIFIED. ) ;
#347 = LOCAL_TIME ( 14, 0, 57.00000000000000000, #208 ) ;
#348 = PERSON_AND_ORGANIZATION ( #259, #302 ) ;
#349 = CARTESIAN_POINT ( 'NONE',  ( 1.587500000000000355, 1.268411506570323866, 11.65991914209797997 ) ) ;
#350 = DIRECTION ( 'NONE',  ( 0.000000000000000000, 0.000000000000000000, -1.000000000000000000 ) ) ;
#351 = B_SPLINE_CURVE_WITH_KNOTS ( 'NONE', 3,
 ( #10, #177, #181, #434, #272, #48, #96, #313 ),
 .UNSPECIFIED., .F., .F.,
 ( 4, 2, 2, 4 ),
 ( 0.01485345774306976244, 0.01548583974386942043, 0.01611822174466907842, 0.01738298574626839094 ),
 .UNSPECIFIED. ) ;
#352 = CARTESIAN_POINT ( 'NONE',  ( 1.268411506570323866, 1.587500000000000355, -11.81100000000000172 ) ) ;
#353 = CARTESIAN_POINT ( 'NONE',  ( -1.587500000000000355, -1.268411506570323866, -11.65991914209797997 ) ) ;
#354 = LINE ( 'NONE', #146, #77 ) ;
#355 = CARTESIAN_POINT ( 'NONE',  ( 0.2043756380772847048, -1.587500000000000799, 11.78340961896379646 ) ) ;
#356 = DIRECTION ( 'NONE',  ( -0.000000000000000000, -0.000000000000000000, 1.000000000000000000 ) ) ;
#357 = EDGE_CURVE ( 'NONE', #147, #230, #62, .T. ) ;
#358 = AXIS2_PLACEMENT_3D ( 'NONE', #232, #356, #144 ) ;
#359 = AXIS2_PLACEMENT_3D ( 'NONE', #32, #322, #341 ) ;
#360 = CARTESIAN_POINT ( 'NONE',  ( -0.4342314039556082750, -1.587500000000000355, 11.78285171744314042 ) ) ;
#361 = ORIENTED_EDGE ( 'NONE', *, *, #81, .T. ) ;
#362 = CARTESIAN_POINT ( 'NONE',  ( -1.587500000000000355, -1.061392899157111991, -11.71143677385165915 ) ) ;
#363 = APPLICATION_CONTEXT ( 'configuration controlled 3d designs of mechanical parts and assemblies' ) ;
#364 = ORIENTED_EDGE ( 'NONE', *, *, #154, .T. ) ;
#365 = DESIGN_CONTEXT ( 'detailed design', #363, 'design' ) ;
#366 = EDGE_CURVE ( 'NONE', #292, #446, #506, .T. ) ;
#367 = PLANE ( 'NONE',  #451 ) ;
#368 = CARTESIAN_POINT ( 'NONE',  ( -1.587500000000000355, -1.944126793646423534E-16, 11.78322736169286422 ) ) ;
#369 = CIRCLE ( 'NONE', #429, 1.245064030267288402 ) ;
#370 = ORIENTED_EDGE ( 'NONE', *, *, #277, .T. ) ;
#371 = CARTESIAN_POINT ( 'NONE',  ( 0.000000000000000000, 0.000000000000000000, 11.65991914209797997 ) ) ;
#372 = FACE_OUTER_BOUND ( 'NONE', #513, .T. ) ;
#373 = DIRECTION ( 'NONE',  ( 1.000000000000000000, 0.000000000000000000, 0.000000000000000000 ) ) ;
#374 = ORIENTED_EDGE ( 'NONE', *, *, #357, .T. ) ;
#375 = CARTESIAN_POINT ( 'NONE',  ( -1.268411506570324088, -1.587500000000000355, 11.65991914209797997 ) ) ;
#376 = EDGE_CURVE ( 'NONE', #321, #268, #433, .T. ) ;
#377 = DIRECTION ( 'NONE',  ( 0.000000000000000000, 0.000000000000000000, -1.000000000000000000 ) ) ;
#378 = DIRECTION ( 'NONE',  ( 1.000000000000000000, 1.224646799147353207E-16, 0.000000000000000000 ) ) ;
#379 = ORIENTED_EDGE ( 'NONE', *, *, #89, .T. ) ;
#380 = CARTESIAN_POINT ( 'NONE',  ( -1.587500000000000133, 1.061392899157111769, 11.71143677385165560 ) ) ;
#381 = APPROVAL_ROLE ( '' ) ;
#382 = VERTEX_POINT ( 'NONE', #229 ) ;
#383 = EDGE_CURVE ( 'NONE', #38, #483, #58, .T. ) ;
#384 = CARTESIAN_POINT ( 'NONE',  ( 0.8486262390323815463, -1.587500000000000355, 11.74176882282394452 ) ) ;
#385 = DATE_TIME_ROLE ( 'classification_date' ) ;
#386 = VERTEX_POINT ( 'NONE', #102 ) ;
#387 = PLANE ( 'NONE',  #533 ) ;
#388 = VECTOR ( 'NONE', #377, 1000.000000000000000 ) ;
#389 = SHAPE_DEFINITION_REPRESENTATION ( #428, #403 ) ;
#390 = ORIENTED_EDGE ( 'NONE', *, *, #502, .F. ) ;
#391 = ADVANCED_FACE ( 'NONE', ( #530 ), #104, .T. ) ;
#392 = DIRECTION ( 'NONE',  ( 1.000000000000000000, 0.000000000000000000, 0.000000000000000000 ) ) ;
#393 = EDGE_CURVE ( 'NONE', #268, #66, #133, .T. ) ;
#394 = CARTESIAN_POINT ( 'NONE',  ( 0.000000000000000000, 0.000000000000000000, 11.65991914209797997 ) ) ;
#395 = CIRCLE ( 'NONE', #148, 2.032000000000000028 ) ;
#396 = CIRCLE ( 'NONE', #191, 2.032000000000000028 ) ;
#397 = CARTESIAN_POINT ( 'NONE',  ( 1.587500000000000355, -1.268411506570323866, -11.65991914209797997 ) ) ;
#398 = CARTESIAN_POINT ( 'NONE',  ( -1.587500000000000133, 1.061532360077855675, -11.71140206829358732 ) ) ;
#399 = DIRECTION ( 'NONE',  ( -0.000000000000000000, -0.000000000000000000, 1.000000000000000000 ) ) ;
#400 = DIRECTION ( 'NONE',  ( -1.000000000000000000, 0.000000000000000000, 0.000000000000000000 ) ) ;
#401 = DIRECTION ( 'NONE',  ( 1.000000000000000000, 0.000000000000000000, 0.000000000000000000 ) ) ;
#402 = CARTESIAN_POINT ( 'NONE',  ( 1.587500000000000355, -1.268411506570324088, 11.65991914209797997 ) ) ;
#403 = ADVANCED_BREP_SHAPE_REPRESENTATION ( '228-2500-117', ( #430, #47 ), #488 ) ;
#404 = CARTESIAN_POINT ( 'NONE',  ( 0.000000000000000000, 0.000000000000000000, 9.686000000000001720 ) ) ;
#405 = ORIENTED_EDGE ( 'NONE', *, *, #221, .T. ) ;
#406 = CARTESIAN_POINT ( 'NONE',  ( -1.587500000000000355, 0.4276219574846470417, -11.77699639200008797 ) ) ;
#407 = CARTESIAN_POINT ( 'NONE',  ( 1.587500000000000577, -0.8514389605504942837, -11.74136751577920101 ) ) ;
#408 = CIRCLE ( 'NONE', #320, 2.032000000000000028 ) ;
#409 = TOROIDAL_SURFACE ( 'NONE', #466, 1.245064030267288402, 2.124999999999996891 ) ;
#410 =( NAMED_UNIT ( * ) PLANE_ANGLE_UNIT ( ) SI_UNIT ( $, .RADIAN. ) );
#411 = ORIENTED_EDGE ( 'NONE', *, *, #492, .T. ) ;
#412 = DIRECTION ( 'NONE',  ( 1.224646799147353207E-16, -1.000000000000000000, 0.000000000000000000 ) ) ;
#413 = DIRECTION ( 'NONE',  ( 1.000000000000000000, 0.000000000000000000, 0.000000000000000000 ) ) ;
#414 = ORIENTED_EDGE ( 'NONE', *, *, #481, .F. ) ;
#415 = DIRECTION ( 'NONE',  ( 0.000000000000000000, 0.000000000000000000, -1.000000000000000000 ) ) ;
#416 = EDGE_CURVE ( 'NONE', #557, #425, #52, .T. ) ;
#417 = DIRECTION ( 'NONE',  ( 1.224646799147353207E-16, 1.000000000000000000, 0.000000000000000000 ) ) ;
#418 = CARTESIAN_POINT ( 'NONE',  ( -1.587500000000000355, -1.268411506570323866, 11.65991914209797997 ) ) ;
#419 = CC_DESIGN_DATE_AND_TIME_ASSIGNMENT ( #33, #385, ( #54 ) ) ;
#420 = DATE_AND_TIME ( #512, #197 ) ;
#421 = ORIENTED_EDGE ( 'NONE', *, *, #501, .T. ) ;
#422 = DIRECTION ( 'NONE',  ( -0.000000000000000000, -0.000000000000000000, 1.000000000000000000 ) ) ;
#423 = ADVANCED_FACE ( 'NONE', ( #134 ), #484, .T. ) ;
#424 = APPROVAL_STATUS ( 'not_yet_approved' ) ;
#425 = VERTEX_POINT ( 'NONE', #439 ) ;
#426 = EDGE_LOOP ( 'NONE', ( #1, #295, #60, #299, #515, #106, #142, #93 ) ) ;
#427 = CARTESIAN_POINT ( 'NONE',  ( 1.587500000000000355, -1.587500000000000355, 11.81099999999999817 ) ) ;
#428 = PRODUCT_DEFINITION_SHAPE ( 'NONE', 'NONE',  #215 ) ;
#429 = AXIS2_PLACEMENT_3D ( 'NONE', #136, #172, #482 ) ;
#430 = MANIFOLD_SOLID_BREP ( '228-2500-117', #531 ) ;
#431 = CARTESIAN_POINT ( 'NONE',  ( -1.587500000000000355, 1.587500000000000355, -11.81099999999999817 ) ) ;
#432 = CC_DESIGN_PERSON_AND_ORGANIZATION_ASSIGNMENT ( #160, #471, ( #101 ) ) ;
#433 = B_SPLINE_CURVE_WITH_KNOTS ( 'NONE', 3,
 ( #307, #184, #437, #8, #269, #491 ),
 .UNSPECIFIED., .F., .F.,
 ( 4, 2, 4 ),
 ( 0.01485345774306976244, 0.01548163471194333174, 0.01610981168081690104 ),
 .UNSPECIFIED. ) ;
#434 = CARTESIAN_POINT ( 'NONE',  ( -0.4219230645619472253, 1.587500000000000133, 11.77730730355361999 ) ) ;
#435 = ORIENTED_EDGE ( 'NONE', *, *, #383, .F. ) ;
#436 = AXIS2_PLACEMENT_3D ( 'NONE', #214, #127, #35 ) ;
#437 = CARTESIAN_POINT ( 'NONE',  ( 1.587500000000000577, 0.8514389605504942837, 11.74136751577920101 ) ) ;
#438 = ORIENTED_EDGE ( 'NONE', *, *, #174, .F. ) ;
#439 = CARTESIAN_POINT ( 'NONE',  ( 1.268411506570324088, 1.587500000000000355, 11.65991914209797997 ) ) ;
#440 = CARTESIAN_POINT ( 'NONE',  ( 0.000000000000000000, 0.000000000000000000, 11.65991914209797997 ) ) ;
#441 = ORIENTED_EDGE ( 'NONE', *, *, #55, .T. ) ;
#442 = APPLICATION_CONTEXT ( 'configuration controlled 3d designs of mechanical parts and assemblies' ) ;
#443 = CARTESIAN_POINT ( 'NONE',  ( 1.268411506570323866, 1.587500000000000355, -11.65991914209797997 ) ) ;
#444 = ORIENTED_EDGE ( 'NONE', *, *, #36, .T. ) ;
#445 = MECHANICAL_CONTEXT ( 'NONE', #442, 'mechanical' ) ;
#446 = VERTEX_POINT ( 'NONE', #397 ) ;
#447 = CARTESIAN_POINT ( 'NONE',  ( 1.587500000000000133, -1.061532360077855675, -11.71140206829358732 ) ) ;
#448 = APPLICATION_PROTOCOL_DEFINITION ( 'international standard', 'config_control_design', 1994, #363 ) ;
#449 = ORIENTED_EDGE ( 'NONE', *, *, #137, .T. ) ;
#450 = DIRECTION ( 'NONE',  ( -0.000000000000000000, -0.000000000000000000, 1.000000000000000000 ) ) ;
#451 = AXIS2_PLACEMENT_3D ( 'NONE', #545, #507, #114 ) ;
#452 = ADVANCED_FACE ( 'NONE', ( #143 ), #409, .T. ) ;
#453 = VERTEX_POINT ( 'NONE', #92 ) ;
#454 = B_SPLINE_CURVE_WITH_KNOTS ( 'NONE', 3,
 ( #260, #473, #218, #91, #380, #3 ),
 .UNSPECIFIED., .F., .F.,
 ( 4, 2, 4 ),
 ( 5.013490505250342793E-20, 0.0006365870327257439716, 0.001273174065451488160 ),
 .UNSPECIFIED. ) ;
#455 = DIRECTION ( 'NONE',  ( 0.000000000000000000, 0.000000000000000000, 1.000000000000000000 ) ) ;
#456 = FACE_OUTER_BOUND ( 'NONE', #270, .T. ) ;
#457 = ORIENTED_EDGE ( 'NONE', *, *, #162, .T. ) ;
#458 = CARTESIAN_POINT ( 'NONE',  ( -1.587500000000000355, 1.268411506570324088, 11.65991914209797997 ) ) ;
#459 = CC_DESIGN_SECURITY_CLASSIFICATION ( #54, ( #101 ) ) ;
#460 = ORIENTED_EDGE ( 'NONE', *, *, #162, .F. ) ;
#461 = FACE_OUTER_BOUND ( 'NONE', #63, .T. ) ;
#462 = EDGE_CURVE ( 'NONE', #73, #425, #351, .T. ) ;
#463 = TOROIDAL_SURFACE ( 'NONE', #87, 1.245064030267288402, 2.124999999999996891 ) ;
#464 = COORDINATED_UNIVERSAL_TIME_OFFSET ( 6, 0, .BEHIND. ) ;
#465 = ORIENTED_EDGE ( 'NONE', *, *, #549, .T. ) ;
#466 = AXIS2_PLACEMENT_3D ( 'NONE', #6, #57, #401 ) ;
#467 = DIRECTION ( 'NONE',  ( -1.000000000000000000, 0.000000000000000000, -0.000000000000000000 ) ) ;
#468 = DATE_TIME_ROLE ( 'creation_date' ) ;
#469 = VERTEX_POINT ( 'NONE', #219 ) ;
#470 = FACE_OUTER_BOUND ( 'NONE', #185, .T. ) ;
#471 = PERSON_AND_ORGANIZATION_ROLE ( 'design_supplier' ) ;
#472 = ORIENTED_EDGE ( 'NONE', *, *, #492, .F. ) ;
#473 = CARTESIAN_POINT ( 'NONE',  ( -1.587500000000000577, 0.2143109880596213435, 11.78322736169286600 ) ) ;
#474 = PRODUCT ( '228-2500-117', '228-2500-117', '', ( #445 ) ) ;
#475 = PERSON_AND_ORGANIZATION_ROLE ( 'classification_officer' ) ;
#476 = CIRCLE ( 'NONE', #228, 2.124999999999996891 ) ;
#477 = DIRECTION ( 'NONE',  ( -0.000000000000000000, -0.000000000000000000, 1.000000000000000000 ) ) ;
#478 = FACE_OUTER_BOUND ( 'NONE', #43, .T. ) ;
#479 = CARTESIAN_POINT ( 'NONE',  ( 1.587500000000000577, -0.4277385810629846796, 11.77698654358311536 ) ) ;
#480 = CARTESIAN_POINT ( 'NONE',  ( 1.587500000000000355, 1.061392899157111991, -11.71143677385165915 ) ) ;
#481 = EDGE_CURVE ( 'NONE', #230, #386, #540, .T. ) ;
#482 = DIRECTION ( 'NONE',  ( 1.000000000000000000, 0.000000000000000000, 0.000000000000000000 ) ) ;
#483 = VERTEX_POINT ( 'NONE', #353 ) ;
#484 = TOROIDAL_SURFACE ( 'NONE', #140, 1.245064030267288402, 2.124999999999996891 ) ;
#485 = DIRECTION ( 'NONE',  ( 0.000000000000000000, 0.000000000000000000, -1.000000000000000000 ) ) ;
#486 = DIRECTION ( 'NONE',  ( 0.000000000000000000, 0.000000000000000000, -1.000000000000000000 ) ) ;
#487 = EDGE_CURVE ( 'NONE', #453, #382, #369, .T. ) ;
#488 =( GEOMETRIC_REPRESENTATION_CONTEXT ( 3 ) GLOBAL_UNCERTAINTY_ASSIGNED_CONTEXT ( ( #247 ) ) GLOBAL_UNIT_ASSIGNED_CONTEXT ( ( #274, #410, #510 ) ) REPRESENTATION_CONTEXT ( 'NONE', 'WORKASPACE' ) );
#489 = CARTESIAN_POINT ( 'NONE',  ( -1.587500000000000133, -0.2143109880596212602, -11.78322736169286067 ) ) ;
#490 = CARTESIAN_POINT ( 'NONE',  ( -1.268411506570323866, -1.587500000000000355, -11.65991914209797997 ) ) ;
#491 = CARTESIAN_POINT ( 'NONE',  ( 1.587500000000000355, 0.000000000000000000, 11.78322736169286422 ) ) ;
#492 = EDGE_CURVE ( 'NONE', #126, #73, #396, .T. ) ;
#493 = DIRECTION ( 'NONE',  ( 0.000000000000000000, 0.000000000000000000, -1.000000000000000000 ) ) ;
#494 = APPLICATION_PROTOCOL_DEFINITION ( 'international standard', 'config_control_design', 1994, #442 ) ;
#495 = CARTESIAN_POINT ( 'NONE',  ( 1.587500000000000355, -1.268411506570323866, -11.81100000000000172 ) ) ;
#496 = CC_DESIGN_PERSON_AND_ORGANIZATION_ASSIGNMENT ( #521, #475, ( #54 ) ) ;
#497 = DIRECTION ( 'NONE',  ( 1.000000000000000000, 0.000000000000000000, 0.000000000000000000 ) ) ;
#498 = ORIENTED_EDGE ( 'NONE', *, *, #357, .F. ) ;
#499 = LOCAL_TIME ( 14, 0, 57.00000000000000000, #42 ) ;
#500 = CARTESIAN_POINT ( 'NONE',  ( 0.000000000000000000, 0.000000000000000000, -9.686000000000001720 ) ) ;
#501 = EDGE_CURVE ( 'NONE', #382, #453, #312, .T. ) ;
#502 = EDGE_CURVE ( 'NONE', #73, #248, #541, .T. ) ;
#503 = COORDINATED_UNIVERSAL_TIME_OFFSET ( 6, 0, .BEHIND. ) ;
#504 = EDGE_LOOP ( 'NONE', ( #405, #152, #449, #161 ) ) ;
#505 = DIRECTION ( 'NONE',  ( 0.000000000000000000, 0.000000000000000000, -1.000000000000000000 ) ) ;
#506 = CIRCLE ( 'NONE', #283, 2.032000000000000028 ) ;
#507 = DIRECTION ( 'NONE',  ( 0.000000000000000000, -1.000000000000000000, 0.000000000000000000 ) ) ;
#508 = ORIENTED_EDGE ( 'NONE', *, *, #39, .F. ) ;
#509 = DIRECTION ( 'NONE',  ( -0.000000000000000000, -0.000000000000000000, 1.000000000000000000 ) ) ;
#510 =( NAMED_UNIT ( * ) SI_UNIT ( $, .STERADIAN. ) SOLID_ANGLE_UNIT ( ) );
#511 = CARTESIAN_POINT ( 'NONE',  ( 0.000000000000000000, 0.000000000000000000, -11.81100000000000172 ) ) ;
#512 = CALENDAR_DATE ( 2022, 6, 6 ) ;
#513 = EDGE_LOOP ( 'NONE', ( #103, #344, #390, #330 ) ) ;
#514 = FACE_OUTER_BOUND ( 'NONE', #112, .T. ) ;
#515 = ORIENTED_EDGE ( 'NONE', *, *, #301, .F. ) ;
#516 = AXIS2_PLACEMENT_3D ( 'NONE', #394, #485, #5 ) ;
#517 = CARTESIAN_POINT ( 'NONE',  ( 1.060147506033615850, -1.587500000000000355, 11.71174669625517772 ) ) ;
#518 = ORIENTED_EDGE ( 'NONE', *, *, #154, .F. ) ;
#519 = LINE ( 'NONE', #304, #211 ) ;
#520 = EDGE_CURVE ( 'NONE', #469, #38, #180, .T. ) ;
#521 = PERSON_AND_ORGANIZATION ( #259, #302 ) ;
#522 = CARTESIAN_POINT ( 'NONE',  ( -1.587500000000000355, -1.587500000000000355, 11.81099999999999817 ) ) ;
#523 = CIRCLE ( 'NONE', #122, 1.245064030267288402 ) ;
#524 = CARTESIAN_POINT ( 'NONE',  ( -0.8571092511719601292, -1.587500000000000799, 11.76227379706277354 ) ) ;
#525 = ADVANCED_FACE ( 'NONE', ( #372 ), #367, .F. ) ;
#526 = CARTESIAN_POINT ( 'NONE',  ( 0.000000000000000000, 0.000000000000000000, -11.81100000000000172 ) ) ;
#527 = DIRECTION ( 'NONE',  ( -0.000000000000000000, -0.000000000000000000, 1.000000000000000000 ) ) ;
#528 = FACE_OUTER_BOUND ( 'NONE', #303, .T. ) ;
#529 = CC_DESIGN_PERSON_AND_ORGANIZATION_ASSIGNMENT ( #348, #205, ( #101 ) ) ;
#530 = FACE_OUTER_BOUND ( 'NONE', #504, .T. ) ;
#531 = CLOSED_SHELL ( 'NONE', ( #423, #452, #311, #294, #328, #525, #139, #552, #343, #261, #255, #285, #391, #64 ) ) ;
#532 = CARTESIAN_POINT ( 'NONE',  ( -1.268411506570323866, 1.587500000000000355, 11.65991914209797997 ) ) ;
#533 = AXIS2_PLACEMENT_3D ( 'NONE', #431, #203, #467 ) ;
#534 = CARTESIAN_POINT ( 'NONE',  ( -1.587500000000000355, -1.268411506570323866, -11.65991914209797997 ) ) ;
#535 = CYLINDRICAL_SURFACE ( 'NONE', #358, 2.032000000000000028 ) ;
#536 = DIRECTION ( 'NONE',  ( 0.000000000000000000, 0.000000000000000000, -1.000000000000000000 ) ) ;
#537 = ORIENTED_EDGE ( 'NONE', *, *, #549, .F. ) ;
#538 = CARTESIAN_POINT ( 'NONE',  ( 1.268411506570323866, -1.587500000000000355, -11.65991914209797997 ) ) ;
#539 = CARTESIAN_POINT ( 'NONE',  ( 1.245064030267288402, 0.000000000000000000, 9.686000000000001720 ) ) ;
#540 = CIRCLE ( 'NONE', #516, 2.032000000000000028 ) ;
#541 = LINE ( 'NONE', #155, #388 ) ;
#542 = CARTESIAN_POINT ( 'NONE',  ( 0.000000000000000000, 0.000000000000000000, -11.65991914209797997 ) ) ;
#543 = CARTESIAN_POINT ( 'NONE',  ( 0.4342314039556036120, -1.587500000000000355, -11.78285171744313864 ) ) ;
#544 = LINE ( 'NONE', #332, #130 ) ;
#545 = CARTESIAN_POINT ( 'NONE',  ( -1.587500000000000355, 1.587500000000000355, 11.81099999999999817 ) ) ;
#546 = ORIENTED_EDGE ( 'NONE', *, *, #81, .F. ) ;
#547 = FACE_OUTER_BOUND ( 'NONE', #213, .T. ) ;
#548 = B_SPLINE_CURVE_WITH_KNOTS ( 'NONE', 3,
 ( #418, #29, #67, #65, #71, #26 ),
 .UNSPECIFIED., .F., .F.,
 ( 4, 2, 4 ),
 ( 0.01485345774306976244, 0.01548163471194333174, 0.01610981168081690104 ),
 .UNSPECIFIED. ) ;
#549 = EDGE_CURVE ( 'NONE', #79, #292, #346, .T. ) ;
#550 = AXIS2_PLACEMENT_3D ( 'NONE', #539, #284, #455 ) ;
#551 = DIRECTION ( 'NONE',  ( 1.000000000000000000, 0.000000000000000000, 0.000000000000000000 ) ) ;
#552 = ADVANCED_FACE ( 'NONE', ( #456 ), #264, .T. ) ;
#553 = PERSON_AND_ORGANIZATION ( #259, #302 ) ;
#554 = ORIENTED_EDGE ( 'NONE', *, *, #277, .F. ) ;
#555 = CARTESIAN_POINT ( 'NONE',  ( 1.060147506033615850, 1.587500000000000133, -11.71174669625517595 ) ) ;
#556 = LOCAL_TIME ( 14, 0, 57.00000000000000000, #503 ) ;
#557 = VERTEX_POINT ( 'NONE', #443 ) ;
#558 = CARTESIAN_POINT ( 'NONE',  ( 0.8486262390323812133, 1.587500000000000577, -11.74176882282394452 ) ) ;
#559 = APPROVAL_STATUS ( 'not_yet_approved' ) ;
#560 = ORIENTED_EDGE ( 'NONE', *, *, #366, .F. ) ;
#561 = CARTESIAN_POINT ( 'NONE',  ( 0.4219230645619472253, -1.587500000000000133, 11.77730730355361999 ) ) ;
ENDSEC;
END-ISO-10303-21;
