ISO-10303-21;
HEADER;
FILE_DESCRIPTION (( 'STEP AP203' ),
    '1' );
FILE_NAME ('228-2500-080.step',
    '2022-06-06T18:57:17',
    ( '' ),
    ( '' ),
    'SwSTEP 2.0',
    'SolidWorks 2021',
    '' );
FILE_SCHEMA (( 'CONFIG_CONTROL_DESIGN' ));
ENDSEC;

DATA;
#1 = PERSON_AND_ORGANIZATION ( #200, #240 ) ;
#2 = DIRECTION ( 'NONE',  ( 1.000000000000000000, 0.000000000000000000, 0.000000000000000000 ) ) ;
#3 = AXIS2_PLACEMENT_3D ( 'NONE', #437, #274, #61 ) ;
#4 = EDGE_CURVE ( 'NONE', #19, #88, #68, .T. ) ;
#5 = CARTESIAN_POINT ( 'NONE',  ( 1.587500000000000355, -0.2114796877013864762, -11.78322736169286600 ) ) ;
#6 = ORIENTED_EDGE ( 'NONE', *, *, #346, .T. ) ;
#7 = ORIENTED_EDGE ( 'NONE', *, *, #361, .T. ) ;
#8 = VERTEX_POINT ( 'NONE', #185 ) ;
#9 = DATE_AND_TIME ( #190, #391 ) ;
#10 = ORIENTED_EDGE ( 'NONE', *, *, #361, .F. ) ;
#11 = EDGE_CURVE ( 'NONE', #470, #266, #434, .T. ) ;
#12 = ORIENTED_EDGE ( 'NONE', *, *, #248, .F. ) ;
#13 = ORIENTED_EDGE ( 'NONE', *, *, #172, .T. ) ;
#14 = EDGE_LOOP ( 'NONE', ( #102, #528 ) ) ;
#15 = APPROVAL_ROLE ( '' ) ;
#16 = EDGE_LOOP ( 'NONE', ( #187, #355, #393, #12, #150, #302, #105, #396 ) ) ;
#17 = APPROVAL_DATE_TIME ( #57, #227 ) ;
#18 = AXIS2_PLACEMENT_3D ( 'NONE', #210, #373, #547 ) ;
#19 = VERTEX_POINT ( 'NONE', #347 ) ;
#20 = ORIENTED_EDGE ( 'NONE', *, *, #4, .F. ) ;
#21 = ADVANCED_FACE ( 'NONE', ( #258, #101 ), #432, .F. ) ;
#22 = CARTESIAN_POINT ( 'NONE',  ( 0.000000000000000000, 0.000000000000000000, 11.81099999999999817 ) ) ;
#23 = CC_DESIGN_PERSON_AND_ORGANIZATION_ASSIGNMENT ( #336, #135, ( #220 ) ) ;
#24 = ORIENTED_EDGE ( 'NONE', *, *, #537, .T. ) ;
#25 = CARTESIAN_POINT ( 'NONE',  ( -1.268411506570323866, -1.587500000000000355, 11.81099999999999817 ) ) ;
#26 = CARTESIAN_POINT ( 'NONE',  ( 1.587500000000000355, 1.268411506570323866, 11.81099999999999817 ) ) ;
#27 = CARTESIAN_POINT ( 'NONE',  ( 0.000000000000000000, 0.000000000000000000, 12.61099999999999888 ) ) ;
#28 = DIRECTION ( 'NONE',  ( -0.000000000000000000, -0.000000000000000000, 1.000000000000000000 ) ) ;
#29 = VECTOR ( 'NONE', #166, 1000.000000000000000 ) ;
#30 = EDGE_CURVE ( 'NONE', #266, #261, #486, .T. ) ;
#31 = PLANE ( 'NONE',  #73 ) ;
#32 = DIRECTION ( 'NONE',  ( 1.000000000000000000, 0.000000000000000000, 0.000000000000000000 ) ) ;
#33 = DIRECTION ( 'NONE',  ( 0.000000000000000000, 0.000000000000000000, 1.000000000000000000 ) ) ;
#34 = CARTESIAN_POINT ( 'NONE',  ( 1.587500000000000355, 0.000000000000000000, -11.78322736169286422 ) ) ;
#35 = DATE_AND_TIME ( #416, #103 ) ;
#36 = ADVANCED_FACE ( 'NONE', ( #52 ), #218, .T. ) ;
#37 = CC_DESIGN_APPROVAL ( #319, ( #438 ) ) ;
#38 = DIRECTION ( 'NONE',  ( 1.000000000000000000, 0.000000000000000000, 0.000000000000000000 ) ) ;
#39 = ORIENTED_EDGE ( 'NONE', *, *, #312, .T. ) ;
#40 = PLANE ( 'NONE',  #480 ) ;
#41 = DIRECTION ( 'NONE',  ( -0.000000000000000000, -0.000000000000000000, 1.000000000000000000 ) ) ;
#42 = DIRECTION ( 'NONE',  ( 1.000000000000000000, 0.000000000000000000, -0.000000000000000000 ) ) ;
#43 = CARTESIAN_POINT ( 'NONE',  ( 0.4342314039556082750, -1.587500000000000355, -11.78285171744314042 ) ) ;
#44 = CIRCLE ( 'NONE', #352, 2.032000000000000028 ) ;
#45 = CYLINDRICAL_SURFACE ( 'NONE', #151, 2.399999999999999911 ) ;
#46 = CARTESIAN_POINT ( 'NONE',  ( -0.2043756380772847048, -1.587500000000000799, -11.78340961896379646 ) ) ;
#47 = VECTOR ( 'NONE', #488, 1000.000000000000000 ) ;
#48 = CARTESIAN_POINT ( 'NONE',  ( 0.000000000000000000, 0.000000000000000000, -11.81100000000000172 ) ) ;
#49 = EDGE_CURVE ( 'NONE', #266, #445, #183, .T. ) ;
#50 = CYLINDRICAL_SURFACE ( 'NONE', #214, 2.032000000000000028 ) ;
#51 = ORIENTED_EDGE ( 'NONE', *, *, #111, .F. ) ;
#52 = FACE_OUTER_BOUND ( 'NONE', #147, .T. ) ;
#53 = CALENDAR_DATE ( 2022, 6, 6 ) ;
#54 = ORIENTED_EDGE ( 'NONE', *, *, #542, .T. ) ;
#55 = DIRECTION ( 'NONE',  ( -0.000000000000000000, -0.000000000000000000, 1.000000000000000000 ) ) ;
#56 = AXIS2_PLACEMENT_3D ( 'NONE', #450, #116, #119 ) ;
#57 = DATE_AND_TIME ( #106, #354 ) ;
#58 = CC_DESIGN_DATE_AND_TIME_ASSIGNMENT ( #516, #96, ( #220 ) ) ;
#59 = VERTEX_POINT ( 'NONE', #448 ) ;
#60 = CIRCLE ( 'NONE', #456, 2.032000000000000028 ) ;
#61 = DIRECTION ( 'NONE',  ( 0.000000000000000000, 0.000000000000000000, -1.000000000000000000 ) ) ;
#62 = VERTEX_POINT ( 'NONE', #389 ) ;
#63 = EDGE_LOOP ( 'NONE', ( #484, #180, #138, #442, #306 ) ) ;
#64 = EDGE_CURVE ( 'NONE', #62, #8, #134, .T. ) ;
#65 = ORIENTED_EDGE ( 'NONE', *, *, #462, .F. ) ;
#66 = ADVANCED_FACE ( 'NONE', ( #298 ), #110, .F. ) ;
#67 = DIRECTION ( 'NONE',  ( 0.000000000000000000, 0.000000000000000000, 1.000000000000000000 ) ) ;
#68 = LINE ( 'NONE', #256, #159 ) ;
#69 = FACE_OUTER_BOUND ( 'NONE', #334, .T. ) ;
#70 = MANIFOLD_SOLID_BREP ( '228-2500-080', #345 ) ;
#71 = CARTESIAN_POINT ( 'NONE',  ( 1.060147506033615850, 1.587500000000000355, -11.71174669625517772 ) ) ;
#72 = DIRECTION ( 'NONE',  ( -1.000000000000000000, -0.000000000000000000, -0.000000000000000000 ) ) ;
#73 = AXIS2_PLACEMENT_3D ( 'NONE', #493, #160, #273 ) ;
#74 = ADVANCED_FACE ( 'NONE', ( #234 ), #429, .T. ) ;
#75 = DIRECTION ( 'NONE',  ( 0.000000000000000000, -1.000000000000000000, 0.000000000000000000 ) ) ;
#76 = B_SPLINE_CURVE_WITH_KNOTS ( 'NONE', 3,
 ( #242, #122, #534, #324, #199, #161 ),
 .UNSPECIFIED., .F., .F.,
 ( 4, 2, 4 ),
 ( 5.013490505250342793E-20, 0.0006365870327257439716, 0.001273174065451488160 ),
 .UNSPECIFIED. ) ;
#77 = CARTESIAN_POINT ( 'NONE',  ( 1.268411506570323866, 1.587500000000000355, -11.81100000000000172 ) ) ;
#78 = CARTESIAN_POINT ( 'NONE',  ( 0.8486262390323815463, 1.587500000000000355, -11.74176882282394452 ) ) ;
#79 = AXIS2_PLACEMENT_3D ( 'NONE', #215, #382, #177 ) ;
#80 = CARTESIAN_POINT ( 'NONE',  ( -1.587500000000000355, 1.587500000000000355, -11.81099999999999817 ) ) ;
#81 = CARTESIAN_POINT ( 'NONE',  ( -1.245064030267288402, 2.006622987633880502E-16, -11.81100000000000172 ) ) ;
#82 = DIRECTION ( 'NONE',  ( 1.000000000000000000, 0.000000000000000000, 0.000000000000000000 ) ) ;
#83 = EDGE_CURVE ( 'NONE', #445, #309, #340, .T. ) ;
#84 = FACE_OUTER_BOUND ( 'NONE', #16, .T. ) ;
#85 = DIRECTION ( 'NONE',  ( 0.000000000000000000, 0.000000000000000000, -1.000000000000000000 ) ) ;
#86 = AXIS2_PLACEMENT_3D ( 'NONE', #485, #67, #313 ) ;
#87 = CARTESIAN_POINT ( 'NONE',  ( 0.000000000000000000, 0.000000000000000000, 11.81099999999999817 ) ) ;
#88 = VERTEX_POINT ( 'NONE', #492 ) ;
#89 = AXIS2_PLACEMENT_3D ( 'NONE', #518, #489, #145 ) ;
#90 = MECHANICAL_CONTEXT ( 'NONE', #406, 'mechanical' ) ;
#91 = CARTESIAN_POINT ( 'NONE',  ( -1.587500000000000355, 0.4276219574846470417, -11.77699639200008797 ) ) ;
#92 = PERSON_AND_ORGANIZATION_ROLE ( 'design_owner' ) ;
#93 = CARTESIAN_POINT ( 'NONE',  ( -1.587500000000000355, -1.268411506570323866, 11.81099999999999817 ) ) ;
#94 = PRODUCT_DEFINITION_SHAPE ( 'NONE', 'NONE',  #220 ) ;
#95 = VERTEX_POINT ( 'NONE', #81 ) ;
#96 = DATE_TIME_ROLE ( 'creation_date' ) ;
#97 = EDGE_LOOP ( 'NONE', ( #20, #54, #13, #521, #384 ) ) ;
#98 = VERTEX_POINT ( 'NONE', #494 ) ;
#99 = CIRCLE ( 'NONE', #212, 2.032000000000000028 ) ;
#100 = ORIENTED_EDGE ( 'NONE', *, *, #368, .F. ) ;
#101 = FACE_OUTER_BOUND ( 'NONE', #14, .T. ) ;
#102 = ORIENTED_EDGE ( 'NONE', *, *, #415, .F. ) ;
#103 = LOCAL_TIME ( 13, 57, 17.00000000000000000, #245 ) ;
#104 = PERSON_AND_ORGANIZATION ( #200, #240 ) ;
#105 = ORIENTED_EDGE ( 'NONE', *, *, #172, .F. ) ;
#106 = CALENDAR_DATE ( 2022, 6, 6 ) ;
#107 = ORIENTED_EDGE ( 'NONE', *, *, #11, .T. ) ;
#108 = EDGE_CURVE ( 'NONE', #217, #356, #381, .T. ) ;
#109 = CARTESIAN_POINT ( 'NONE',  ( 1.268411506570323866, -1.587500000000000355, 11.81099999999999817 ) ) ;
#110 = PLANE ( 'NONE',  #3 ) ;
#111 = EDGE_CURVE ( 'NONE', #440, #445, #239, .T. ) ;
#112 = PLANE ( 'NONE',  #286 ) ;
#113 = VECTOR ( 'NONE', #299, 1000.000000000000000 ) ;
#114 = CARTESIAN_POINT ( 'NONE',  ( 0.000000000000000000, 0.000000000000000000, -11.81100000000000172 ) ) ;
#115 = LINE ( 'NONE', #457, #401 ) ;
#116 = DIRECTION ( 'NONE',  ( -0.000000000000000000, -0.000000000000000000, 1.000000000000000000 ) ) ;
#117 = DIRECTION ( 'NONE',  ( -0.000000000000000000, -0.000000000000000000, -1.000000000000000000 ) ) ;
#118 = AXIS2_PLACEMENT_3D ( 'NONE', #421, #41, #296 ) ;
#119 = DIRECTION ( 'NONE',  ( 1.000000000000000000, 0.000000000000000000, 0.000000000000000000 ) ) ;
#120 = CC_DESIGN_APPROVAL ( #227, ( #532 ) ) ;
#121 = CARTESIAN_POINT ( 'NONE',  ( 1.268411506570323866, 1.587500000000000355, 11.81099999999999817 ) ) ;
#122 = CARTESIAN_POINT ( 'NONE',  ( -1.587500000000000577, -0.2143109880596213435, -11.78322736169286600 ) ) ;
#123 = EDGE_CURVE ( 'NONE', #307, #59, #247, .T. ) ;
#124 = ORIENTED_EDGE ( 'NONE', *, *, #403, .F. ) ;
#125 = DIRECTION ( 'NONE',  ( -0.000000000000000000, -0.000000000000000000, -1.000000000000000000 ) ) ;
#126 = CARTESIAN_POINT ( 'NONE',  ( 1.587500000000000355, 1.268411506570324088, -11.65991914209797997 ) ) ;
#127 = ADVANCED_FACE ( 'NONE', ( #501 ), #203, .T. ) ;
#128 = CARTESIAN_POINT ( 'NONE',  ( 0.000000000000000000, 0.000000000000000000, 0.000000000000000000 ) ) ;
#129 = CARTESIAN_POINT ( 'NONE',  ( -1.587500000000000355, 1.944126793646423534E-16, -11.78322736169286422 ) ) ;
#130 = AXIS2_PLACEMENT_3D ( 'NONE', #452, #75, #249 ) ;
#131 = ORIENTED_EDGE ( 'NONE', *, *, #111, .T. ) ;
#132 = APPROVAL_PERSON_ORGANIZATION ( #546, #481, #460 ) ;
#133 = CARTESIAN_POINT ( 'NONE',  ( 1.587500000000000355, 1.268411506570323866, -11.81100000000000172 ) ) ;
#134 = CIRCLE ( 'NONE', #441, 2.399999999999999911 ) ;
#135 = PERSON_AND_ORGANIZATION_ROLE ( 'creator' ) ;
#136 = PLANE ( 'NONE',  #18 ) ;
#137 = CARTESIAN_POINT ( 'NONE',  ( 1.587500000000000133, -1.061532360077855675, -11.71140206829358732 ) ) ;
#138 = ORIENTED_EDGE ( 'NONE', *, *, #155, .T. ) ;
#139 = PERSON_AND_ORGANIZATION ( #200, #240 ) ;
#140 = EDGE_CURVE ( 'NONE', #95, #184, #478, .T. ) ;
#141 = ORIENTED_EDGE ( 'NONE', *, *, #388, .T. ) ;
#142 = VECTOR ( 'NONE', #244, 1000.000000000000000 ) ;
#143 = SECURITY_CLASSIFICATION_LEVEL ( 'unclassified' ) ;
#144 = VERTEX_POINT ( 'NONE', #411 ) ;
#145 = DIRECTION ( 'NONE',  ( 1.000000000000000000, 0.000000000000000000, 0.000000000000000000 ) ) ;
#146 = UNCERTAINTY_MEASURE_WITH_UNIT (LENGTH_MEASURE( 1.000000000000000082E-05 ), #252, 'distance_accuracy_value', 'NONE');
#147 = EDGE_LOOP ( 'NONE', ( #524, #192, #24, #178 ) ) ;
#148 = ORIENTED_EDGE ( 'NONE', *, *, #529, .T. ) ;
#149 = PERSON_AND_ORGANIZATION_ROLE ( 'creator' ) ;
#150 = ORIENTED_EDGE ( 'NONE', *, *, #123, .F. ) ;
#151 = AXIS2_PLACEMENT_3D ( 'NONE', #329, #125, #502 ) ;
#152 = APPROVAL_DATE_TIME ( #301, #319 ) ;
#153 = ORIENTED_EDGE ( 'NONE', *, *, #49, .F. ) ;
#154 = ORIENTED_EDGE ( 'NONE', *, *, #282, .T. ) ;
#155 = EDGE_CURVE ( 'NONE', #351, #261, #76, .T. ) ;
#156 = DIRECTION ( 'NONE',  ( 0.000000000000000000, 0.000000000000000000, 1.000000000000000000 ) ) ;
#157 = ORIENTED_EDGE ( 'NONE', *, *, #386, .T. ) ;
#158 = DIRECTION ( 'NONE',  ( -0.000000000000000000, -0.000000000000000000, 1.000000000000000000 ) ) ;
#159 = VECTOR ( 'NONE', #358, 1000.000000000000000 ) ;
#160 = DIRECTION ( 'NONE',  ( 0.000000000000000000, 1.000000000000000000, 0.000000000000000000 ) ) ;
#161 = CARTESIAN_POINT ( 'NONE',  ( -1.587500000000000355, -1.268411506570324088, -11.65991914209797997 ) ) ;
#162 = FACE_OUTER_BOUND ( 'NONE', #191, .T. ) ;
#163 = CARTESIAN_POINT ( 'NONE',  ( 1.587500000000000133, 0.2143109880596212047, -11.78322736169286067 ) ) ;
#164 = DIRECTION ( 'NONE',  ( 1.000000000000000000, 0.000000000000000000, 0.000000000000000000 ) ) ;
#165 = EDGE_CURVE ( 'NONE', #184, #144, #188, .T. ) ;
#166 = DIRECTION ( 'NONE',  ( 1.000000000000000000, 0.000000000000000000, 0.000000000000000000 ) ) ;
#167 = CARTESIAN_POINT ( 'NONE',  ( 0.000000000000000000, 0.000000000000000000, -11.81100000000000172 ) ) ;
#168 = DIRECTION ( 'NONE',  ( -0.000000000000000000, -0.000000000000000000, 1.000000000000000000 ) ) ;
#169 = CARTESIAN_POINT ( 'NONE',  ( -1.587500000000000355, 0.2114796877013864762, -11.78322736169286600 ) ) ;
#170 = AXIS2_PLACEMENT_3D ( 'NONE', #283, #455, #364 ) ;
#171 = ORIENTED_EDGE ( 'NONE', *, *, #422, .T. ) ;
#172 = EDGE_CURVE ( 'NONE', #144, #339, #268, .T. ) ;
#173 = APPLICATION_PROTOCOL_DEFINITION ( 'international standard', 'config_control_design', 1994, #439 ) ;
#174 = LINE ( 'NONE', #509, #435 ) ;
#175 =( NAMED_UNIT ( * ) PLANE_ANGLE_UNIT ( ) SI_UNIT ( $, .RADIAN. ) );
#176 = ORIENTED_EDGE ( 'NONE', *, *, #49, .T. ) ;
#177 = DIRECTION ( 'NONE',  ( 1.000000000000000000, 0.000000000000000000, 0.000000000000000000 ) ) ;
#178 = ORIENTED_EDGE ( 'NONE', *, *, #248, .T. ) ;
#179 = SHAPE_DEFINITION_REPRESENTATION ( #94, #271 ) ;
#180 = ORIENTED_EDGE ( 'NONE', *, *, #233, .T. ) ;
#181 = CC_DESIGN_PERSON_AND_ORGANIZATION_ASSIGNMENT ( #1, #92, ( #426 ) ) ;
#182 = VERTEX_POINT ( 'NONE', #285 ) ;
#183 = CIRCLE ( 'NONE', #89, 2.032000000000000028 ) ;
#184 = VERTEX_POINT ( 'NONE', #330 ) ;
#185 = CARTESIAN_POINT ( 'NONE',  ( -2.399999999999999911, 0.000000000000000000, 12.61099999999999888 ) ) ;
#186 = APPROVAL_ROLE ( '' ) ;
#187 = ORIENTED_EDGE ( 'NONE', *, *, #204, .T. ) ;
#188 = CIRCLE ( 'NONE', #405, 2.124999999999996891 ) ;
#189 = EDGE_CURVE ( 'NONE', #387, #19, #222, .T. ) ;
#190 = CALENDAR_DATE ( 2022, 6, 6 ) ;
#191 = EDGE_LOOP ( 'NONE', ( #499, #394 ) ) ;
#192 = ORIENTED_EDGE ( 'NONE', *, *, #346, .F. ) ;
#193 = FACE_OUTER_BOUND ( 'NONE', #398, .T. ) ;
#194 = ADVANCED_FACE ( 'NONE', ( #84 ), #280, .T. ) ;
#195 = DIRECTION ( 'NONE',  ( 0.000000000000000000, 0.000000000000000000, 1.000000000000000000 ) ) ;
#196 = FACE_OUTER_BOUND ( 'NONE', #515, .T. ) ;
#197 = CARTESIAN_POINT ( 'NONE',  ( 1.587500000000000355, 1.061392899157111991, -11.71143677385165915 ) ) ;
#198 = CARTESIAN_POINT ( 'NONE',  ( -1.587500000000000355, 1.587500000000000355, 11.81099999999999817 ) ) ;
#199 = CARTESIAN_POINT ( 'NONE',  ( -1.587500000000000133, -1.061392899157111769, -11.71143677385165560 ) ) ;
#200 = PERSON ( 'UNSPECIFIED', 'UNSPECIFIED', 'UNSPECIFIED', ('UNSPECIFIED'), ('UNSPECIFIED'), ('UNSPECIFIED') ) ;
#201 = EDGE_CURVE ( 'NONE', #95, #351, #332, .T. ) ;
#202 = DIRECTION ( 'NONE',  ( -0.000000000000000000, -0.000000000000000000, -1.000000000000000000 ) ) ;
#203 = CYLINDRICAL_SURFACE ( 'NONE', #56, 2.032000000000000028 ) ;
#204 = EDGE_CURVE ( 'NONE', #184, #95, #375, .T. ) ;
#205 = DIRECTION ( 'NONE',  ( -0.000000000000000000, -0.000000000000000000, 1.000000000000000000 ) ) ;
#206 = CARTESIAN_POINT ( 'NONE',  ( -1.587500000000000355, -1.587500000000000355, 11.81099999999999817 ) ) ;
#207 = DIRECTION ( 'NONE',  ( -1.000000000000000000, 1.224646799147353207E-16, 0.000000000000000000 ) ) ;
#208 = ORIENTED_EDGE ( 'NONE', *, *, #403, .T. ) ;
#209 = DIRECTION ( 'NONE',  ( -0.000000000000000000, -0.000000000000000000, 1.000000000000000000 ) ) ;
#210 = CARTESIAN_POINT ( 'NONE',  ( 1.587500000000000355, -1.587500000000000355, 11.81099999999999817 ) ) ;
#211 = CARTESIAN_POINT ( 'NONE',  ( -1.587500000000000133, 1.061532360077855675, -11.71140206829358732 ) ) ;
#212 = AXIS2_PLACEMENT_3D ( 'NONE', #22, #33, #365 ) ;
#213 = CARTESIAN_POINT ( 'NONE',  ( 0.000000000000000000, 0.000000000000000000, -11.81100000000000172 ) ) ;
#214 = AXIS2_PLACEMENT_3D ( 'NONE', #213, #209, #82 ) ;
#215 = CARTESIAN_POINT ( 'NONE',  ( 0.000000000000000000, 0.000000000000000000, -11.81100000000000172 ) ) ;
#216 = CARTESIAN_POINT ( 'NONE',  ( 1.587500000000000355, -0.4276219574846470417, -11.77699639200008797 ) ) ;
#217 = VERTEX_POINT ( 'NONE', #26 ) ;
#218 = CYLINDRICAL_SURFACE ( 'NONE', #362, 2.032000000000000028 ) ;
#219 = PERSON_AND_ORGANIZATION_ROLE ( 'design_supplier' ) ;
#220 = PRODUCT_DEFINITION ( 'UNKNOWN', '', #532, #264 ) ;
#221 = ORIENTED_EDGE ( 'NONE', *, *, #165, .T. ) ;
#222 = CIRCLE ( 'NONE', #359, 2.032000000000000028 ) ;
#223 = DIRECTION ( 'NONE',  ( 1.000000000000000000, 0.000000000000000000, 0.000000000000000000 ) ) ;
#224 = EDGE_LOOP ( 'NONE', ( #176, #263, #479, #157, #229, #476, #6, #107 ) ) ;
#225 = ORIENTED_EDGE ( 'NONE', *, *, #289, .T. ) ;
#226 = ORIENTED_EDGE ( 'NONE', *, *, #282, .F. ) ;
#227 = APPROVAL ( #444, 'UNSPECIFIED' ) ;
#228 = ORIENTED_EDGE ( 'NONE', *, *, #415, .T. ) ;
#229 = ORIENTED_EDGE ( 'NONE', *, *, #108, .T. ) ;
#230 = APPROVAL_PERSON_ORGANIZATION ( #139, #227, #15 ) ;
#231 = ADVANCED_FACE ( 'NONE', ( #318 ), #279, .F. ) ;
#232 = CARTESIAN_POINT ( 'NONE',  ( -1.587500000000000355, 1.944126793646423534E-16, -11.78322736169286422 ) ) ;
#233 = EDGE_CURVE ( 'NONE', #259, #351, #311, .T. ) ;
#234 = FACE_OUTER_BOUND ( 'NONE', #548, .T. ) ;
#235 = DIRECTION ( 'NONE',  ( -1.000000000000000000, 0.000000000000000000, -0.000000000000000000 ) ) ;
#236 = DIRECTION ( 'NONE',  ( 1.000000000000000000, 0.000000000000000000, 0.000000000000000000 ) ) ;
#237 = CIRCLE ( 'NONE', #305, 2.032000000000000028 ) ;
#238 = CYLINDRICAL_SURFACE ( 'NONE', #322, 2.399999999999999911 ) ;
#239 = LINE ( 'NONE', #408, #142 ) ;
#240 = ORGANIZATION ( 'UNSPECIFIED', 'UNSPECIFIED', '' ) ;
#241 = LINE ( 'NONE', #447, #506 ) ;
#242 = CARTESIAN_POINT ( 'NONE',  ( -1.587500000000000355, 1.944126793646423534E-16, -11.78322736169286422 ) ) ;
#243 = LINE ( 'NONE', #320, #491 ) ;
#244 = DIRECTION ( 'NONE',  ( -0.000000000000000000, -0.000000000000000000, 1.000000000000000000 ) ) ;
#245 = COORDINATED_UNIVERSAL_TIME_OFFSET ( 6, 0, .BEHIND. ) ;
#246 = DIRECTION ( 'NONE',  ( 0.000000000000000000, 0.000000000000000000, 1.000000000000000000 ) ) ;
#247 = B_SPLINE_CURVE_WITH_KNOTS ( 'NONE', 3,
 ( #277, #71, #78, #544, #541, #536, #327, #498 ),
 .UNSPECIFIED., .F., .F.,
 ( 4, 2, 2, 4 ),
 ( 0.01485345774306976244, 0.01548583974386942043, 0.01611822174466907842, 0.01738298574626839094 ),
 .UNSPECIFIED. ) ;
#248 = EDGE_CURVE ( 'NONE', #59, #259, #453, .T. ) ;
#249 = DIRECTION ( 'NONE',  ( 0.000000000000000000, -0.000000000000000000, -1.000000000000000000 ) ) ;
#250 = DIRECTION ( 'NONE',  ( 1.000000000000000000, 0.000000000000000000, 0.000000000000000000 ) ) ;
#251 = CARTESIAN_POINT ( 'NONE',  ( -1.587500000000000355, -1.268411506570324088, -11.65991914209797997 ) ) ;
#252 =( LENGTH_UNIT ( ) NAMED_UNIT ( * ) SI_UNIT ( .MILLI., .METRE. ) );
#253 = CARTESIAN_POINT ( 'NONE',  ( -1.587500000000000355, 1.268411506570323866, -11.65991914209797997 ) ) ;
#254 = AXIS2_PLACEMENT_3D ( 'NONE', #87, #463, #2 ) ;
#255 = EDGE_CURVE ( 'NONE', #259, #470, #174, .T. ) ;
#256 = CARTESIAN_POINT ( 'NONE',  ( 1.587500000000000355, -1.268411506570323866, -11.81100000000000172 ) ) ;
#257 = ORIENTED_EDGE ( 'NONE', *, *, #328, .F. ) ;
#258 = FACE_BOUND ( 'NONE', #224, .T. ) ;
#259 = VERTEX_POINT ( 'NONE', #377 ) ;
#260 = DIRECTION ( 'NONE',  ( 0.000000000000000000, 0.000000000000000000, -1.000000000000000000 ) ) ;
#261 = VERTEX_POINT ( 'NONE', #251 ) ;
#262 = AXIS2_PLACEMENT_3D ( 'NONE', #539, #417, #207 ) ;
#263 = ORIENTED_EDGE ( 'NONE', *, *, #83, .T. ) ;
#264 = DESIGN_CONTEXT ( 'detailed design', #439, 'design' ) ;
#265 = AXIS2_PLACEMENT_3D ( 'NONE', #128, #383, #250 ) ;
#266 = VERTEX_POINT ( 'NONE', #93 ) ;
#267 = APPROVAL_STATUS ( 'not_yet_approved' ) ;
#268 = B_SPLINE_CURVE_WITH_KNOTS ( 'NONE', 3,
 ( #34, #163, #369, #360, #197, #126 ),
 .UNSPECIFIED., .F., .F.,
 ( 4, 2, 4 ),
 ( 2.407287075689319411E-19, 0.0006365870327257441884, 0.001273174065451488160 ),
 .UNSPECIFIED. ) ;
#269 = ORIENTED_EDGE ( 'NONE', *, *, #312, .F. ) ;
#270 = PERSON_AND_ORGANIZATION ( #200, #240 ) ;
#271 = ADVANCED_BREP_SHAPE_REPRESENTATION ( '228-2500-080', ( #70, #265 ), #473 ) ;
#272 = ORIENTED_EDGE ( 'NONE', *, *, #108, .F. ) ;
#273 = DIRECTION ( 'NONE',  ( 0.000000000000000000, -0.000000000000000000, 1.000000000000000000 ) ) ;
#274 = DIRECTION ( 'NONE',  ( 1.000000000000000000, 0.000000000000000000, 0.000000000000000000 ) ) ;
#275 = CC_DESIGN_PERSON_AND_ORGANIZATION_ASSIGNMENT ( #104, #390, ( #438 ) ) ;
#276 = LINE ( 'NONE', #399, #47 ) ;
#277 = CARTESIAN_POINT ( 'NONE',  ( 1.268411506570323866, 1.587500000000000355, -11.65991914209797997 ) ) ;
#278 = CARTESIAN_POINT ( 'NONE',  ( 0.000000000000000000, 0.000000000000000000, -11.65991914209797997 ) ) ;
#279 = PLANE ( 'NONE',  #130 ) ;
#280 = TOROIDAL_SURFACE ( 'NONE', #170, 1.245064030267288402, 2.124999999999996891 ) ;
#281 = DIRECTION ( 'NONE',  ( 0.000000000000000000, 0.000000000000000000, -1.000000000000000000 ) ) ;
#282 = EDGE_CURVE ( 'NONE', #440, #387, #446, .T. ) ;
#283 = CARTESIAN_POINT ( 'NONE',  ( 0.000000000000000000, 0.000000000000000000, -9.686000000000001720 ) ) ;
#284 = CARTESIAN_POINT ( 'NONE',  ( 1.587500000000000355, 1.268411506570324088, -11.65991914209797997 ) ) ;
#285 = CARTESIAN_POINT ( 'NONE',  ( -1.268411506570323866, 1.587500000000000355, 11.81099999999999817 ) ) ;
#286 = AXIS2_PLACEMENT_3D ( 'NONE', #80, #281, #235 ) ;
#287 = ORIENTED_EDGE ( 'NONE', *, *, #4, .T. ) ;
#288 = DIRECTION ( 'NONE',  ( 0.000000000000000000, 0.000000000000000000, -1.000000000000000000 ) ) ;
#289 = EDGE_CURVE ( 'NONE', #331, #98, #495, .T. ) ;
#290 = CARTESIAN_POINT ( 'NONE',  ( 1.587500000000000355, -1.268411506570323866, -11.65991914209797997 ) ) ;
#291 = CARTESIAN_POINT ( 'NONE',  ( -1.060147506033615850, -1.587500000000000355, -11.71174669625517772 ) ) ;
#292 = ORIENTED_EDGE ( 'NONE', *, *, #542, .F. ) ;
#293 = APPROVAL_STATUS ( 'not_yet_approved' ) ;
#294 = DIRECTION ( 'NONE',  ( -0.000000000000000000, -0.000000000000000000, 1.000000000000000000 ) ) ;
#295 = COORDINATED_UNIVERSAL_TIME_OFFSET ( 6, 0, .BEHIND. ) ;
#296 = DIRECTION ( 'NONE',  ( 1.000000000000000000, 0.000000000000000000, 0.000000000000000000 ) ) ;
#297 = ADVANCED_FACE ( 'NONE', ( #337 ), #136, .F. ) ;
#298 = FACE_OUTER_BOUND ( 'NONE', #63, .T. ) ;
#299 = DIRECTION ( 'NONE',  ( -0.000000000000000000, -1.000000000000000000, -0.000000000000000000 ) ) ;
#300 = EDGE_CURVE ( 'NONE', #217, #339, #505, .T. ) ;
#301 = DATE_AND_TIME ( #512, #526 ) ;
#302 = ORIENTED_EDGE ( 'NONE', *, *, #529, .F. ) ;
#303 = CARTESIAN_POINT ( 'NONE',  ( 0.000000000000000000, 0.000000000000000000, 12.61099999999999888 ) ) ;
#304 = ORIENTED_EDGE ( 'NONE', *, *, #300, .T. ) ;
#305 = AXIS2_PLACEMENT_3D ( 'NONE', #540, #407, #164 ) ;
#306 = ORIENTED_EDGE ( 'NONE', *, *, #11, .F. ) ;
#307 = VERTEX_POINT ( 'NONE', #412 ) ;
#308 = ADVANCED_FACE ( 'NONE', ( #193 ), #31, .F. ) ;
#309 = VERTEX_POINT ( 'NONE', #109 ) ;
#310 = DIRECTION ( 'NONE',  ( 1.000000000000000000, 0.000000000000000000, -0.000000000000000000 ) ) ;
#311 = B_SPLINE_CURVE_WITH_KNOTS ( 'NONE', 3,
 ( #253, #211, #468, #91, #169, #129 ),
 .UNSPECIFIED., .F., .F.,
 ( 4, 2, 4 ),
 ( 0.01485345774306976244, 0.01548163471194333174, 0.01610981168081690104 ),
 .UNSPECIFIED. ) ;
#312 = EDGE_CURVE ( 'NONE', #307, #356, #317, .T. ) ;
#313 = DIRECTION ( 'NONE',  ( 1.000000000000000000, 0.000000000000000000, 0.000000000000000000 ) ) ;
#314 = DIRECTION ( 'NONE',  ( 0.000000000000000000, 0.000000000000000000, 1.000000000000000000 ) ) ;
#315 = CIRCLE ( 'NONE', #86, 2.399999999999999911 ) ;
#316 = ADVANCED_FACE ( 'NONE', ( #69 ), #238, .T. ) ;
#317 = LINE ( 'NONE', #77, #549 ) ;
#318 = FACE_OUTER_BOUND ( 'NONE', #527, .T. ) ;
#319 = APPROVAL ( #267, 'UNSPECIFIED' ) ;
#320 = CARTESIAN_POINT ( 'NONE',  ( 1.587500000000000355, -1.587500000000000355, 11.81099999999999817 ) ) ;
#321 = DIRECTION ( 'NONE',  ( -0.000000000000000000, -0.000000000000000000, 1.000000000000000000 ) ) ;
#322 = AXIS2_PLACEMENT_3D ( 'NONE', #496, #202, #402 ) ;
#323 = DIRECTION ( 'NONE',  ( 1.000000000000000000, 0.000000000000000000, 0.000000000000000000 ) ) ;
#324 = CARTESIAN_POINT ( 'NONE',  ( -1.587499999999999689, -0.8513200635100125480, -11.74137755531810612 ) ) ;
#325 = TOROIDAL_SURFACE ( 'NONE', #487, 1.245064030267288402, 2.124999999999996891 ) ;
#326 = ORIENTED_EDGE ( 'NONE', *, *, #201, .F. ) ;
#327 = CARTESIAN_POINT ( 'NONE',  ( -0.8571092511719601292, 1.587500000000000799, -11.76227379706277354 ) ) ;
#328 = EDGE_CURVE ( 'NONE', #309, #88, #99, .T. ) ;
#329 = CARTESIAN_POINT ( 'NONE',  ( 0.000000000000000000, 0.000000000000000000, 12.61099999999999888 ) ) ;
#330 = CARTESIAN_POINT ( 'NONE',  ( 1.245064030267288402, 0.000000000000000000, -11.81100000000000172 ) ) ;
#331 = VERTEX_POINT ( 'NONE', #538 ) ;
#332 = CIRCLE ( 'NONE', #262, 2.124999999999996891 ) ;
#333 = CARTESIAN_POINT ( 'NONE',  ( -0.4219230645619472253, -1.587500000000000133, -11.77730730355361999 ) ) ;
#334 = EDGE_LOOP ( 'NONE', ( #517, #374, #225, #418 ) ) ;
#335 = VECTOR ( 'NONE', #85, 1000.000000000000000 ) ;
#336 = PERSON_AND_ORGANIZATION ( #200, #240 ) ;
#337 = FACE_OUTER_BOUND ( 'NONE', #97, .T. ) ;
#338 = FACE_OUTER_BOUND ( 'NONE', #414, .T. ) ;
#339 = VERTEX_POINT ( 'NONE', #284 ) ;
#340 = LINE ( 'NONE', #206, #29 ) ;
#341 = B_SPLINE_CURVE_WITH_KNOTS ( 'NONE', 3,
 ( #290, #137, #427, #216, #5, #372 ),
 .UNSPECIFIED., .F., .F.,
 ( 4, 2, 4 ),
 ( 0.01485345774306976244, 0.01548163471194333174, 0.01610981168081690104 ),
 .UNSPECIFIED. ) ;
#342 = EDGE_LOOP ( 'NONE', ( #208, #400 ) ) ;
#343 = LOCAL_TIME ( 13, 57, 17.00000000000000000, #295 ) ;
#344 = EDGE_LOOP ( 'NONE', ( #520, #7, #131, #153 ) ) ;
#345 = CLOSED_SHELL ( 'NONE', ( #316, #194, #66, #308, #297, #231, #459, #378, #513, #127, #36, #74, #471, #522, #21 ) ) ;
#346 = EDGE_CURVE ( 'NONE', #182, #470, #237, .T. ) ;
#347 = CARTESIAN_POINT ( 'NONE',  ( 1.587500000000000355, -1.268411506570323866, -11.65991914209797997 ) ) ;
#348 = EDGE_LOOP ( 'NONE', ( #100, #124, #141, #228 ) ) ;
#349 = CARTESIAN_POINT ( 'NONE',  ( -1.587500000000000355, -1.587500000000000355, 11.81099999999999817 ) ) ;
#350 = COORDINATED_UNIVERSAL_TIME_OFFSET ( 6, 0, .BEHIND. ) ;
#351 = VERTEX_POINT ( 'NONE', #232 ) ;
#352 = AXIS2_PLACEMENT_3D ( 'NONE', #278, #205, #323 ) ;
#353 = DATE_TIME_ROLE ( 'classification_date' ) ;
#354 = LOCAL_TIME ( 13, 57, 17.00000000000000000, #519 ) ;
#355 = ORIENTED_EDGE ( 'NONE', *, *, #201, .T. ) ;
#356 = VERTEX_POINT ( 'NONE', #121 ) ;
#357 = DIRECTION ( 'NONE',  ( -0.000000000000000000, -0.000000000000000000, -1.000000000000000000 ) ) ;
#358 = DIRECTION ( 'NONE',  ( -0.000000000000000000, -0.000000000000000000, 1.000000000000000000 ) ) ;
#359 = AXIS2_PLACEMENT_3D ( 'NONE', #461, #321, #404 ) ;
#360 = CARTESIAN_POINT ( 'NONE',  ( 1.587500000000000355, 0.8513200635100128810, -11.74137755531810789 ) ) ;
#361 = EDGE_CURVE ( 'NONE', #261, #440, #44, .T. ) ;
#362 = AXIS2_PLACEMENT_3D ( 'NONE', #48, #55, #223 ) ;
#363 = CARTESIAN_POINT ( 'NONE',  ( 0.000000000000000000, 0.000000000000000000, -9.686000000000001720 ) ) ;
#364 = DIRECTION ( 'NONE',  ( 1.000000000000000000, 0.000000000000000000, 0.000000000000000000 ) ) ;
#365 = DIRECTION ( 'NONE',  ( 1.000000000000000000, 0.000000000000000000, 0.000000000000000000 ) ) ;
#366 = CARTESIAN_POINT ( 'NONE',  ( 1.245064030267288402, 0.000000000000000000, -9.686000000000001720 ) ) ;
#367 = DIRECTION ( 'NONE',  ( 0.000000000000000000, 0.000000000000000000, -1.000000000000000000 ) ) ;
#368 = EDGE_CURVE ( 'NONE', #62, #331, #115, .T. ) ;
#369 = CARTESIAN_POINT ( 'NONE',  ( 1.587500000000000577, 0.4277385810629846796, -11.77698654358311536 ) ) ;
#370 = CARTESIAN_POINT ( 'NONE',  ( 0.000000000000000000, 0.000000000000000000, 12.61099999999999888 ) ) ;
#371 = DIRECTION ( 'NONE',  ( -0.000000000000000000, -0.000000000000000000, 1.000000000000000000 ) ) ;
#372 = CARTESIAN_POINT ( 'NONE',  ( 1.587500000000000355, 0.000000000000000000, -11.78322736169286422 ) ) ;
#373 = DIRECTION ( 'NONE',  ( -1.000000000000000000, 0.000000000000000000, 0.000000000000000000 ) ) ;
#374 = ORIENTED_EDGE ( 'NONE', *, *, #368, .T. ) ;
#375 = CIRCLE ( 'NONE', #425, 1.245064030267288402 ) ;
#376 = CARTESIAN_POINT ( 'NONE',  ( -1.268411506570323866, 1.587500000000000355, -11.81100000000000172 ) ) ;
#377 = CARTESIAN_POINT ( 'NONE',  ( -1.587500000000000355, 1.268411506570323866, -11.65991914209797997 ) ) ;
#378 = ADVANCED_FACE ( 'NONE', ( #162 ), #112, .T. ) ;
#379 = AXIS2_PLACEMENT_3D ( 'NONE', #27, #156, #410 ) ;
#380 = LINE ( 'NONE', #376, #335 ) ;
#381 = CIRCLE ( 'NONE', #392, 2.032000000000000028 ) ;
#382 = DIRECTION ( 'NONE',  ( -0.000000000000000000, -0.000000000000000000, 1.000000000000000000 ) ) ;
#383 = DIRECTION ( 'NONE',  ( 0.000000000000000000, 0.000000000000000000, 1.000000000000000000 ) ) ;
#384 = ORIENTED_EDGE ( 'NONE', *, *, #386, .F. ) ;
#385 = COORDINATED_UNIVERSAL_TIME_OFFSET ( 6, 0, .BEHIND. ) ;
#386 = EDGE_CURVE ( 'NONE', #88, #217, #243, .T. ) ;
#387 = VERTEX_POINT ( 'NONE', #530 ) ;
#388 = EDGE_CURVE ( 'NONE', #8, #98, #241, .T. ) ;
#389 = CARTESIAN_POINT ( 'NONE',  ( 2.399999999999999911, 2.939152317953647106E-16, 12.61099999999999888 ) ) ;
#390 = PERSON_AND_ORGANIZATION_ROLE ( 'classification_officer' ) ;
#391 = LOCAL_TIME ( 13, 57, 17.00000000000000000, #385 ) ;
#392 = AXIS2_PLACEMENT_3D ( 'NONE', #458, #246, #32 ) ;
#393 = ORIENTED_EDGE ( 'NONE', *, *, #233, .F. ) ;
#394 = ORIENTED_EDGE ( 'NONE', *, *, #140, .F. ) ;
#395 = PERSON_AND_ORGANIZATION ( #200, #240 ) ;
#396 = ORIENTED_EDGE ( 'NONE', *, *, #165, .F. ) ;
#397 = ORIENTED_EDGE ( 'NONE', *, *, #123, .T. ) ;
#398 = EDGE_LOOP ( 'NONE', ( #51, #154, #472, #464 ) ) ;
#399 = CARTESIAN_POINT ( 'NONE',  ( 1.268411506570323866, -1.587500000000000355, -11.81100000000000172 ) ) ;
#400 = ORIENTED_EDGE ( 'NONE', *, *, #64, .T. ) ;
#401 = VECTOR ( 'NONE', #117, 1000.000000000000000 ) ;
#402 = DIRECTION ( 'NONE',  ( -1.000000000000000000, 0.000000000000000000, 0.000000000000000000 ) ) ;
#403 = EDGE_CURVE ( 'NONE', #8, #62, #409, .T. ) ;
#404 = DIRECTION ( 'NONE',  ( 1.000000000000000000, 0.000000000000000000, 0.000000000000000000 ) ) ;
#405 = AXIS2_PLACEMENT_3D ( 'NONE', #366, #413, #288 ) ;
#406 = APPLICATION_CONTEXT ( 'configuration controlled 3d designs of mechanical parts and assemblies' ) ;
#407 = DIRECTION ( 'NONE',  ( 0.000000000000000000, 0.000000000000000000, 1.000000000000000000 ) ) ;
#408 = CARTESIAN_POINT ( 'NONE',  ( -1.268411506570323866, -1.587500000000000355, -11.81100000000000172 ) ) ;
#409 = CIRCLE ( 'NONE', #379, 2.399999999999999911 ) ;
#410 = DIRECTION ( 'NONE',  ( 1.000000000000000000, 0.000000000000000000, 0.000000000000000000 ) ) ;
#411 = CARTESIAN_POINT ( 'NONE',  ( 1.587500000000000355, 0.000000000000000000, -11.78322736169286422 ) ) ;
#412 = CARTESIAN_POINT ( 'NONE',  ( 1.268411506570323866, 1.587500000000000355, -11.65991914209797997 ) ) ;
#413 = DIRECTION ( 'NONE',  ( 0.000000000000000000, -1.000000000000000000, 0.000000000000000000 ) ) ;
#414 = EDGE_LOOP ( 'NONE', ( #171, #436, #287, #257 ) ) ;
#415 = EDGE_CURVE ( 'NONE', #98, #331, #315, .T. ) ;
#416 = CALENDAR_DATE ( 2022, 6, 6 ) ;
#417 = DIRECTION ( 'NONE',  ( 1.224646799147353207E-16, 1.000000000000000000, 0.000000000000000000 ) ) ;
#418 = ORIENTED_EDGE ( 'NONE', *, *, #388, .F. ) ;
#419 = VECTOR ( 'NONE', #72, 1000.000000000000000 ) ;
#420 = APPLICATION_PROTOCOL_DEFINITION ( 'international standard', 'config_control_design', 1994, #406 ) ;
#421 = CARTESIAN_POINT ( 'NONE',  ( 0.000000000000000000, 0.000000000000000000, -11.65991914209797997 ) ) ;
#422 = EDGE_CURVE ( 'NONE', #309, #387, #276, .T. ) ;
#423 = CARTESIAN_POINT ( 'NONE',  ( 0.8571092511719601292, -1.587500000000000799, -11.76227379706277354 ) ) ;
#424 = CC_DESIGN_PERSON_AND_ORGANIZATION_ASSIGNMENT ( #395, #219, ( #532 ) ) ;
#425 = AXIS2_PLACEMENT_3D ( 'NONE', #114, #371, #236 ) ;
#426 = PRODUCT ( '228-2500-080', '228-2500-080', '', ( #90 ) ) ;
#427 = CARTESIAN_POINT ( 'NONE',  ( 1.587500000000000577, -0.8514389605504942837, -11.74136751577920101 ) ) ;
#428 = CARTESIAN_POINT ( 'NONE',  ( -1.268411506570323866, -1.587500000000000355, -11.65991914209797997 ) ) ;
#429 = CYLINDRICAL_SURFACE ( 'NONE', #79, 2.032000000000000028 ) ;
#430 = APPROVAL_PERSON_ORGANIZATION ( #525, #319, #186 ) ;
#431 = DIRECTION ( 'NONE',  ( 0.000000000000000000, 0.000000000000000000, 1.000000000000000000 ) ) ;
#432 = PLANE ( 'NONE',  #483 ) ;
#433 = ORIENTED_EDGE ( 'NONE', *, *, #189, .F. ) ;
#434 = LINE ( 'NONE', #349, #113 ) ;
#435 = VECTOR ( 'NONE', #294, 1000.000000000000000 ) ;
#436 = ORIENTED_EDGE ( 'NONE', *, *, #189, .T. ) ;
#437 = CARTESIAN_POINT ( 'NONE',  ( -1.587500000000000355, -1.587500000000000355, 11.81099999999999817 ) ) ;
#438 = SECURITY_CLASSIFICATION ( '', '', #143 ) ;
#439 = APPLICATION_CONTEXT ( 'configuration controlled 3d designs of mechanical parts and assemblies' ) ;
#440 = VERTEX_POINT ( 'NONE', #449 ) ;
#441 = AXIS2_PLACEMENT_3D ( 'NONE', #303, #314, #511 ) ;
#442 = ORIENTED_EDGE ( 'NONE', *, *, #30, .F. ) ;
#443 = PRODUCT_RELATED_PRODUCT_CATEGORY ( 'detail', '', ( #426 ) ) ;
#444 = APPROVAL_STATUS ( 'not_yet_approved' ) ;
#445 = VERTEX_POINT ( 'NONE', #25 ) ;
#446 = B_SPLINE_CURVE_WITH_KNOTS ( 'NONE', 3,
 ( #428, #291, #467, #333, #46, #43, #423, #503 ),
 .UNSPECIFIED., .F., .F.,
 ( 4, 2, 2, 4 ),
 ( 0.01485345774306976244, 0.01548583974386942043, 0.01611822174466907842, 0.01738298574626839094 ),
 .UNSPECIFIED. ) ;
#447 = CARTESIAN_POINT ( 'NONE',  ( -2.399999999999999911, 0.000000000000000000, 12.61099999999999888 ) ) ;
#448 = CARTESIAN_POINT ( 'NONE',  ( -1.268411506570324088, 1.587500000000000355, -11.65991914209797997 ) ) ;
#449 = CARTESIAN_POINT ( 'NONE',  ( -1.268411506570323866, -1.587500000000000355, -11.65991914209797997 ) ) ;
#450 = CARTESIAN_POINT ( 'NONE',  ( 0.000000000000000000, 0.000000000000000000, -11.81100000000000172 ) ) ;
#451 = DIRECTION ( 'NONE',  ( 1.000000000000000000, 0.000000000000000000, 0.000000000000000000 ) ) ;
#452 = CARTESIAN_POINT ( 'NONE',  ( -1.587500000000000355, 1.587500000000000355, 11.81099999999999817 ) ) ;
#453 = CIRCLE ( 'NONE', #118, 2.032000000000000028 ) ;
#454 = DIRECTION ( 'NONE',  ( 0.000000000000000000, 1.000000000000000000, 0.000000000000000000 ) ) ;
#455 = DIRECTION ( 'NONE',  ( -0.000000000000000000, -0.000000000000000000, 1.000000000000000000 ) ) ;
#456 = AXIS2_PLACEMENT_3D ( 'NONE', #510, #168, #508 ) ;
#457 = CARTESIAN_POINT ( 'NONE',  ( 2.399999999999999911, 2.939152317953647106E-16, 12.61099999999999888 ) ) ;
#458 = CARTESIAN_POINT ( 'NONE',  ( 0.000000000000000000, 0.000000000000000000, 11.81099999999999817 ) ) ;
#459 = ADVANCED_FACE ( 'NONE', ( #196 ), #325, .T. ) ;
#460 = APPROVAL_ROLE ( '' ) ;
#461 = CARTESIAN_POINT ( 'NONE',  ( 0.000000000000000000, 0.000000000000000000, -11.65991914209797997 ) ) ;
#462 = EDGE_CURVE ( 'NONE', #356, #182, #533, .T. ) ;
#463 = DIRECTION ( 'NONE',  ( 0.000000000000000000, 0.000000000000000000, 1.000000000000000000 ) ) ;
#464 = ORIENTED_EDGE ( 'NONE', *, *, #83, .F. ) ;
#465 = CC_DESIGN_APPROVAL ( #481, ( #220 ) ) ;
#466 = APPROVAL_DATE_TIME ( #35, #481 ) ;
#467 = CARTESIAN_POINT ( 'NONE',  ( -0.8486262390323815463, -1.587500000000000355, -11.74176882282394452 ) ) ;
#468 = CARTESIAN_POINT ( 'NONE',  ( -1.587500000000000577, 0.8514389605504942837, -11.74136751577920101 ) ) ;
#469 =( NAMED_UNIT ( * ) SI_UNIT ( $, .STERADIAN. ) SOLID_ANGLE_UNIT ( ) );
#470 = VERTEX_POINT ( 'NONE', #535 ) ;
#471 = ADVANCED_FACE ( 'NONE', ( #543 ), #45, .T. ) ;
#472 = ORIENTED_EDGE ( 'NONE', *, *, #422, .F. ) ;
#473 =( GEOMETRIC_REPRESENTATION_CONTEXT ( 3 ) GLOBAL_UNCERTAINTY_ASSIGNED_CONTEXT ( ( #146 ) ) GLOBAL_UNIT_ASSIGNED_CONTEXT ( ( #252, #175, #469 ) ) REPRESENTATION_CONTEXT ( 'NONE', 'WORKASPACE' ) );
#474 = CARTESIAN_POINT ( 'NONE',  ( 0.000000000000000000, 0.000000000000000000, 11.81099999999999817 ) ) ;
#475 = CC_DESIGN_DATE_AND_TIME_ASSIGNMENT ( #9, #353, ( #438 ) ) ;
#476 = ORIENTED_EDGE ( 'NONE', *, *, #462, .T. ) ;
#477 = ORIENTED_EDGE ( 'NONE', *, *, #140, .T. ) ;
#478 = CIRCLE ( 'NONE', #523, 1.245064030267288402 ) ;
#479 = ORIENTED_EDGE ( 'NONE', *, *, #328, .T. ) ;
#480 = AXIS2_PLACEMENT_3D ( 'NONE', #370, #431, #42 ) ;
#481 = APPROVAL ( #293, 'UNSPECIFIED' ) ;
#482 = ORIENTED_EDGE ( 'NONE', *, *, #155, .F. ) ;
#483 = AXIS2_PLACEMENT_3D ( 'NONE', #474, #195, #310 ) ;
#484 = ORIENTED_EDGE ( 'NONE', *, *, #255, .F. ) ;
#485 = CARTESIAN_POINT ( 'NONE',  ( 0.000000000000000000, 0.000000000000000000, 11.81099999999999817 ) ) ;
#486 = LINE ( 'NONE', #531, #507 ) ;
#487 = AXIS2_PLACEMENT_3D ( 'NONE', #363, #158, #451 ) ;
#488 = DIRECTION ( 'NONE',  ( 0.000000000000000000, 0.000000000000000000, -1.000000000000000000 ) ) ;
#489 = DIRECTION ( 'NONE',  ( 0.000000000000000000, 0.000000000000000000, 1.000000000000000000 ) ) ;
#490 = DIRECTION ( 'NONE',  ( -0.000000000000000000, -0.000000000000000000, 1.000000000000000000 ) ) ;
#491 = VECTOR ( 'NONE', #454, 1000.000000000000000 ) ;
#492 = CARTESIAN_POINT ( 'NONE',  ( 1.587500000000000355, -1.268411506570323866, 11.81099999999999817 ) ) ;
#493 = CARTESIAN_POINT ( 'NONE',  ( -1.587500000000000355, -1.587500000000000355, 11.81099999999999817 ) ) ;
#494 = CARTESIAN_POINT ( 'NONE',  ( -2.399999999999999911, 0.000000000000000000, 11.81099999999999817 ) ) ;
#495 = CIRCLE ( 'NONE', #254, 2.399999999999999911 ) ;
#496 = CARTESIAN_POINT ( 'NONE',  ( 0.000000000000000000, 0.000000000000000000, 12.61099999999999888 ) ) ;
#497 = CC_DESIGN_PERSON_AND_ORGANIZATION_ASSIGNMENT ( #270, #149, ( #532 ) ) ;
#498 = CARTESIAN_POINT ( 'NONE',  ( -1.268411506570324088, 1.587500000000000355, -11.65991914209797997 ) ) ;
#499 = ORIENTED_EDGE ( 'NONE', *, *, #204, .F. ) ;
#500 = FACE_OUTER_BOUND ( 'NONE', #342, .T. ) ;
#501 = FACE_OUTER_BOUND ( 'NONE', #344, .T. ) ;
#502 = DIRECTION ( 'NONE',  ( -1.000000000000000000, 0.000000000000000000, 0.000000000000000000 ) ) ;
#503 = CARTESIAN_POINT ( 'NONE',  ( 1.268411506570324088, -1.587500000000000355, -11.65991914209797997 ) ) ;
#504 = VECTOR ( 'NONE', #367, 1000.000000000000000 ) ;
#505 = LINE ( 'NONE', #133, #504 ) ;
#506 = VECTOR ( 'NONE', #357, 1000.000000000000000 ) ;
#507 = VECTOR ( 'NONE', #260, 1000.000000000000000 ) ;
#508 = DIRECTION ( 'NONE',  ( 1.000000000000000000, 0.000000000000000000, 0.000000000000000000 ) ) ;
#509 = CARTESIAN_POINT ( 'NONE',  ( -1.587500000000000355, 1.268411506570323866, -11.81100000000000172 ) ) ;
#510 = CARTESIAN_POINT ( 'NONE',  ( 0.000000000000000000, 0.000000000000000000, -11.65991914209797997 ) ) ;
#511 = DIRECTION ( 'NONE',  ( 1.000000000000000000, 0.000000000000000000, 0.000000000000000000 ) ) ;
#512 = CALENDAR_DATE ( 2022, 6, 6 ) ;
#513 = ADVANCED_FACE ( 'NONE', ( #338 ), #50, .T. ) ;
#514 = CC_DESIGN_SECURITY_CLASSIFICATION ( #438, ( #532 ) ) ;
#515 = EDGE_LOOP ( 'NONE', ( #326, #477, #221, #292, #433, #226, #10, #482 ) ) ;
#516 = DATE_AND_TIME ( #53, #343 ) ;
#517 = ORIENTED_EDGE ( 'NONE', *, *, #64, .F. ) ;
#518 = CARTESIAN_POINT ( 'NONE',  ( 0.000000000000000000, 0.000000000000000000, 11.81099999999999817 ) ) ;
#519 = COORDINATED_UNIVERSAL_TIME_OFFSET ( 6, 0, .BEHIND. ) ;
#520 = ORIENTED_EDGE ( 'NONE', *, *, #30, .T. ) ;
#521 = ORIENTED_EDGE ( 'NONE', *, *, #300, .F. ) ;
#522 = ADVANCED_FACE ( 'NONE', ( #500 ), #40, .T. ) ;
#523 = AXIS2_PLACEMENT_3D ( 'NONE', #167, #28, #38 ) ;
#524 = ORIENTED_EDGE ( 'NONE', *, *, #255, .T. ) ;
#525 = PERSON_AND_ORGANIZATION ( #200, #240 ) ;
#526 = LOCAL_TIME ( 13, 57, 17.00000000000000000, #350 ) ;
#527 = EDGE_LOOP ( 'NONE', ( #269, #397, #545, #65 ) ) ;
#528 = ORIENTED_EDGE ( 'NONE', *, *, #289, .F. ) ;
#529 = EDGE_CURVE ( 'NONE', #339, #307, #60, .T. ) ;
#530 = CARTESIAN_POINT ( 'NONE',  ( 1.268411506570324088, -1.587500000000000355, -11.65991914209797997 ) ) ;
#531 = CARTESIAN_POINT ( 'NONE',  ( -1.587500000000000355, -1.268411506570323866, -11.81100000000000172 ) ) ;
#532 = PRODUCT_DEFINITION_FORMATION_WITH_SPECIFIED_SOURCE ( 'ANY', '', #426, .NOT_KNOWN. ) ;
#533 = LINE ( 'NONE', #198, #419 ) ;
#534 = CARTESIAN_POINT ( 'NONE',  ( -1.587500000000000799, -0.4277385810629846241, -11.77698654358311714 ) ) ;
#535 = CARTESIAN_POINT ( 'NONE',  ( -1.587500000000000355, 1.268411506570323866, 11.81099999999999817 ) ) ;
#536 = CARTESIAN_POINT ( 'NONE',  ( -0.4342314039556082750, 1.587500000000000355, -11.78285171744314042 ) ) ;
#537 = EDGE_CURVE ( 'NONE', #182, #59, #380, .T. ) ;
#538 = CARTESIAN_POINT ( 'NONE',  ( 2.399999999999999911, 2.939152317953647106E-16, 11.81099999999999817 ) ) ;
#539 = CARTESIAN_POINT ( 'NONE',  ( -1.245064030267288402, 1.524763679400337895E-16, -9.686000000000001720 ) ) ;
#540 = CARTESIAN_POINT ( 'NONE',  ( 0.000000000000000000, 0.000000000000000000, 11.81099999999999817 ) ) ;
#541 = CARTESIAN_POINT ( 'NONE',  ( 0.2043756380772847048, 1.587500000000000799, -11.78340961896379646 ) ) ;
#542 = EDGE_CURVE ( 'NONE', #19, #144, #341, .T. ) ;
#543 = FACE_OUTER_BOUND ( 'NONE', #348, .T. ) ;
#544 = CARTESIAN_POINT ( 'NONE',  ( 0.4219230645619472253, 1.587500000000000133, -11.77730730355361999 ) ) ;
#545 = ORIENTED_EDGE ( 'NONE', *, *, #537, .F. ) ;
#546 = PERSON_AND_ORGANIZATION ( #200, #240 ) ;
#547 = DIRECTION ( 'NONE',  ( 0.000000000000000000, 0.000000000000000000, 1.000000000000000000 ) ) ;
#548 = EDGE_LOOP ( 'NONE', ( #304, #148, #39, #272 ) ) ;
#549 = VECTOR ( 'NONE', #490, 1000.000000000000000 ) ;
ENDSEC;
END-ISO-10303-21;
