ISO-10303-21;
HEADER;
FILE_DESCRIPTION (( 'STEP AP203' ),
    '1' );
FILE_NAME ('228-2500-074.step',
    '2022-06-06T18:53:34',
    ( '' ),
    ( '' ),
    'SwSTEP 2.0',
    'SolidWorks 2021',
    '' );
FILE_SCHEMA (( 'CONFIG_CONTROL_DESIGN' ));
ENDSEC;

DATA;
#1 = CARTESIAN_POINT ( 'NONE',  ( 1.245064030267288402, 0.000000000000000000, -9.686000000000001720 ) ) ;
#2 = AXIS2_PLACEMENT_3D ( 'NONE', #516, #431, #477 ) ;
#3 = EDGE_CURVE ( 'NONE', #190, #523, #525, .T. ) ;
#4 = DIRECTION ( 'NONE',  ( 0.000000000000000000, 0.000000000000000000, -1.000000000000000000 ) ) ;
#5 = DIRECTION ( 'NONE',  ( 1.000000000000000000, 0.000000000000000000, 0.000000000000000000 ) ) ;
#6 = APPROVAL_PERSON_ORGANIZATION ( #198, #20, #264 ) ;
#7 = ORIENTED_EDGE ( 'NONE', *, *, #371, .T. ) ;
#8 = DIRECTION ( 'NONE',  ( -1.000000000000000000, 1.224646799147353207E-16, 0.000000000000000000 ) ) ;
#9 = EDGE_CURVE ( 'NONE', #278, #447, #501, .T. ) ;
#10 = VERTEX_POINT ( 'NONE', #362 ) ;
#11 = CARTESIAN_POINT ( 'NONE',  ( 1.587500000000000355, 1.268411506570323866, 11.65991914209797997 ) ) ;
#12 = AXIS2_PLACEMENT_3D ( 'NONE', #77, #35, #424 ) ;
#13 = EDGE_CURVE ( 'NONE', #533, #399, #445, .T. ) ;
#14 = ORIENTED_EDGE ( 'NONE', *, *, #197, .F. ) ;
#15 = CARTESIAN_POINT ( 'NONE',  ( 1.587500000000000577, -0.8514389605504942837, -11.74136751577920101 ) ) ;
#16 = VERTEX_POINT ( 'NONE', #163 ) ;
#17 = CARTESIAN_POINT ( 'NONE',  ( 1.587500000000000577, -0.4277385810629846796, 11.77698654358311536 ) ) ;
#18 = ORIENTED_EDGE ( 'NONE', *, *, #366, .F. ) ;
#19 = CARTESIAN_POINT ( 'NONE',  ( 1.587500000000000355, 0.4276219574846470417, 11.77699639200008797 ) ) ;
#20 = APPROVAL ( #113, 'UNSPECIFIED' ) ;
#21 = DATE_AND_TIME ( #245, #254 ) ;
#22 = DIRECTION ( 'NONE',  ( 0.000000000000000000, -1.000000000000000000, 0.000000000000000000 ) ) ;
#23 = ORIENTED_EDGE ( 'NONE', *, *, #36, .T. ) ;
#24 = DATE_AND_TIME ( #414, #540 ) ;
#25 = DIRECTION ( 'NONE',  ( -0.000000000000000000, -0.000000000000000000, 1.000000000000000000 ) ) ;
#26 = EDGE_LOOP ( 'NONE', ( #112, #183, #294, #271, #45, #351 ) ) ;
#27 = CARTESIAN_POINT ( 'NONE',  ( 0.000000000000000000, 0.000000000000000000, -9.686000000000001720 ) ) ;
#28 = CC_DESIGN_PERSON_AND_ORGANIZATION_ASSIGNMENT ( #154, #328, ( #223 ) ) ;
#29 = CARTESIAN_POINT ( 'NONE',  ( 0.000000000000000000, 0.000000000000000000, 0.000000000000000000 ) ) ;
#30 = B_SPLINE_CURVE_WITH_KNOTS ( 'NONE', 3,
 ( #345, #44, #86, #389, #519, #341, #480, #472 ),
 .UNSPECIFIED., .F., .F.,
 ( 4, 2, 2, 4 ),
 ( 0.01485345774306976244, 0.01548583974386941869, 0.01611822174466907495, 0.01738298574626838747 ),
 .UNSPECIFIED. ) ;
#31 = CARTESIAN_POINT ( 'NONE',  ( -1.587500000000000133, -1.061532360077855675, 11.71140206829358732 ) ) ;
#32 = CARTESIAN_POINT ( 'NONE',  ( -1.587500000000000355, -1.268411506570323866, -11.81099999999999817 ) ) ;
#33 = APPLICATION_PROTOCOL_DEFINITION ( 'international standard', 'config_control_design', 1994, #243 ) ;
#34 = FACE_OUTER_BOUND ( 'NONE', #200, .T. ) ;
#35 = DIRECTION ( 'NONE',  ( 0.000000000000000000, 0.000000000000000000, -1.000000000000000000 ) ) ;
#36 = EDGE_CURVE ( 'NONE', #538, #190, #506, .T. ) ;
#37 = CARTESIAN_POINT ( 'NONE',  ( 1.268411506570323866, -1.587500000000000355, -11.65991914209797997 ) ) ;
#38 = CARTESIAN_POINT ( 'NONE',  ( 0.000000000000000000, 0.000000000000000000, 9.686000000000001720 ) ) ;
#39 = CIRCLE ( 'NONE', #130, 2.032000000000000028 ) ;
#40 = CARTESIAN_POINT ( 'NONE',  ( -1.587500000000000355, 1.268411506570323866, -11.65991914209797997 ) ) ;
#41 = CARTESIAN_POINT ( 'NONE',  ( 0.000000000000000000, 0.000000000000000000, -11.65991914209797997 ) ) ;
#42 = CC_DESIGN_DATE_AND_TIME_ASSIGNMENT ( #24, #499, ( #223 ) ) ;
#43 = CARTESIAN_POINT ( 'NONE',  ( 0.000000000000000000, 0.000000000000000000, -11.81099999999999817 ) ) ;
#44 = CARTESIAN_POINT ( 'NONE',  ( -1.060147506033615850, -1.587500000000000133, -11.71174669625517595 ) ) ;
#45 = ORIENTED_EDGE ( 'NONE', *, *, #239, .T. ) ;
#46 = DIRECTION ( 'NONE',  ( 1.000000000000000000, 0.000000000000000000, 0.000000000000000000 ) ) ;
#47 = EDGE_LOOP ( 'NONE', ( #318, #83 ) ) ;
#48 = CARTESIAN_POINT ( 'NONE',  ( -1.587499999999999689, 0.8513200635100125480, 11.74137755531810612 ) ) ;
#49 = EDGE_CURVE ( 'NONE', #546, #180, #490, .T. ) ;
#50 = ORIENTED_EDGE ( 'NONE', *, *, #69, .F. ) ;
#51 = CARTESIAN_POINT ( 'NONE',  ( 1.587500000000000355, -1.061392899157111991, 11.71143677385165915 ) ) ;
#52 = AXIS2_PLACEMENT_3D ( 'NONE', #246, #242, #556 ) ;
#53 = VERTEX_POINT ( 'NONE', #170 ) ;
#54 = CARTESIAN_POINT ( 'NONE',  ( -1.587500000000000355, 1.268411506570324088, 11.65991914209797997 ) ) ;
#55 = ORIENTED_EDGE ( 'NONE', *, *, #106, .T. ) ;
#56 = ADVANCED_FACE ( 'NONE', ( #554 ), #250, .T. ) ;
#57 = CC_DESIGN_SECURITY_CLASSIFICATION ( #223, ( #552 ) ) ;
#58 = PLANE ( 'NONE',  #267 ) ;
#59 = TOROIDAL_SURFACE ( 'NONE', #382, 1.245064030267288402, 2.124999999999996891 ) ;
#60 = ORIENTED_EDGE ( 'NONE', *, *, #478, .T. ) ;
#61 = DIRECTION ( 'NONE',  ( 0.000000000000000000, 0.000000000000000000, 1.000000000000000000 ) ) ;
#62 = CIRCLE ( 'NONE', #355, 2.032000000000000028 ) ;
#63 = ORIENTED_EDGE ( 'NONE', *, *, #425, .F. ) ;
#64 = APPROVAL_STATUS ( 'not_yet_approved' ) ;
#65 = CARTESIAN_POINT ( 'NONE',  ( -0.4342314039556082750, -1.587500000000000355, 11.78285171744314042 ) ) ;
#66 = EDGE_LOOP ( 'NONE', ( #63, #173, #484, #542, #50, #217, #357, #359 ) ) ;
#67 = B_SPLINE_CURVE_WITH_KNOTS ( 'NONE', 3,
 ( #370, #31, #119, #76, #125, #289 ),
 .UNSPECIFIED., .F., .F.,
 ( 4, 2, 4 ),
 ( 0.01485345774306976244, 0.01548163471194333174, 0.01610981168081690104 ),
 .UNSPECIFIED. ) ;
#68 = DIRECTION ( 'NONE',  ( -1.000000000000000000, 0.000000000000000000, 0.000000000000000000 ) ) ;
#69 = EDGE_CURVE ( 'NONE', #413, #538, #39, .T. ) ;
#70 = EDGE_LOOP ( 'NONE', ( #265, #74, #102, #529 ) ) ;
#71 = PERSON_AND_ORGANIZATION ( #140, #494 ) ;
#72 = CARTESIAN_POINT ( 'NONE',  ( 1.060147506033615850, -1.587500000000000355, 11.71174669625517772 ) ) ;
#73 = PRODUCT ( '228-2500-074', '228-2500-074', '', ( #365 ) ) ;
#74 = ORIENTED_EDGE ( 'NONE', *, *, #156, .T. ) ;
#75 = PERSON_AND_ORGANIZATION ( #140, #494 ) ;
#76 = CARTESIAN_POINT ( 'NONE',  ( -1.587500000000000355, -0.4276219574846470417, 11.77699639200008797 ) ) ;
#77 = CARTESIAN_POINT ( 'NONE',  ( 0.000000000000000000, 0.000000000000000000, 11.65991914209797997 ) ) ;
#78 = ORIENTED_EDGE ( 'NONE', *, *, #156, .F. ) ;
#79 = EDGE_CURVE ( 'NONE', #399, #123, #168, .T. ) ;
#80 = CARTESIAN_POINT ( 'NONE',  ( 1.587500000000000355, -1.268411506570324088, 11.65991914209797997 ) ) ;
#81 = CARTESIAN_POINT ( 'NONE',  ( -1.587500000000000133, -0.2143109880596212602, -11.78322736169286067 ) ) ;
#82 = DIRECTION ( 'NONE',  ( 1.000000000000000000, 0.000000000000000000, 0.000000000000000000 ) ) ;
#83 = ORIENTED_EDGE ( 'NONE', *, *, #49, .T. ) ;
#84 = AXIS2_PLACEMENT_3D ( 'NONE', #409, #417, #330 ) ;
#85 = AXIS2_PLACEMENT_3D ( 'NONE', #139, #225, #398 ) ;
#86 = CARTESIAN_POINT ( 'NONE',  ( -0.8486262390323812133, -1.587500000000000577, -11.74176882282394452 ) ) ;
#87 = B_SPLINE_CURVE_WITH_KNOTS ( 'NONE', 3,
 ( #169, #467, #553, #545, #292, #335, #109, #464 ),
 .UNSPECIFIED., .F., .F.,
 ( 4, 2, 2, 4 ),
 ( 0.01485345774306976244, 0.01548583974386941869, 0.01611822174466907495, 0.01738298574626838747 ),
 .UNSPECIFIED. ) ;
#88 = DIRECTION ( 'NONE',  ( -0.000000000000000000, -0.000000000000000000, 1.000000000000000000 ) ) ;
#89 = VERTEX_POINT ( 'NONE', #253 ) ;
#90 = CARTESIAN_POINT ( 'NONE',  ( 1.587500000000000133, 0.2143109880596212602, -11.78322736169286067 ) ) ;
#91 = AXIS2_PLACEMENT_3D ( 'NONE', #469, #88, #433 ) ;
#92 = ORIENTED_EDGE ( 'NONE', *, *, #459, .F. ) ;
#93 = DIRECTION ( 'NONE',  ( 1.000000000000000000, 0.000000000000000000, 0.000000000000000000 ) ) ;
#94 = VERTEX_POINT ( 'NONE', #557 ) ;
#95 = EDGE_CURVE ( 'NONE', #137, #94, #547, .T. ) ;
#96 = DIRECTION ( 'NONE',  ( -0.000000000000000000, 1.000000000000000000, 0.000000000000000000 ) ) ;
#97 = EDGE_LOOP ( 'NONE', ( #466, #141, #188, #476 ) ) ;
#98 = FACE_OUTER_BOUND ( 'NONE', #244, .T. ) ;
#99 = VERTEX_POINT ( 'NONE', #465 ) ;
#100 = CARTESIAN_POINT ( 'NONE',  ( -1.587500000000000355, -1.587500000000000355, 11.81099999999999817 ) ) ;
#101 = AXIS2_PLACEMENT_3D ( 'NONE', #457, #497, #505 ) ;
#102 = ORIENTED_EDGE ( 'NONE', *, *, #13, .T. ) ;
#103 = CARTESIAN_POINT ( 'NONE',  ( -1.245064030267288402, -2.006622987633880502E-16, 11.81100000000000172 ) ) ;
#104 = DIRECTION ( 'NONE',  ( -0.000000000000000000, -0.000000000000000000, 1.000000000000000000 ) ) ;
#105 = CYLINDRICAL_SURFACE ( 'NONE', #388, 2.032000000000000028 ) ;
#106 = EDGE_CURVE ( 'NONE', #53, #234, #62, .T. ) ;
#107 = CIRCLE ( 'NONE', #544, 2.124999999999996891 ) ;
#108 = PERSON_AND_ORGANIZATION ( #140, #494 ) ;
#109 = CARTESIAN_POINT ( 'NONE',  ( -0.8571092511719566875, 1.587500000000000355, -11.76227379706277354 ) ) ;
#110 = AXIS2_PLACEMENT_3D ( 'NONE', #206, #468, #386 ) ;
#111 = B_SPLINE_CURVE_WITH_KNOTS ( 'NONE', 3,
 ( #266, #187, #228, #48, #536, #54 ),
 .UNSPECIFIED., .F., .F.,
 ( 4, 2, 4 ),
 ( 5.013490505250342793E-20, 0.0006365870327257439716, 0.001273174065451488160 ),
 .UNSPECIFIED. ) ;
#112 = ORIENTED_EDGE ( 'NONE', *, *, #338, .F. ) ;
#113 = APPROVAL_STATUS ( 'not_yet_approved' ) ;
#114 = CC_DESIGN_PERSON_AND_ORGANIZATION_ASSIGNMENT ( #555, #291, ( #552 ) ) ;
#115 = DIRECTION ( 'NONE',  ( 0.000000000000000000, 0.000000000000000000, -1.000000000000000000 ) ) ;
#116 = VERTEX_POINT ( 'NONE', #297 ) ;
#117 = AXIS2_PLACEMENT_3D ( 'NONE', #29, #61, #158 ) ;
#118 = DATE_TIME_ROLE ( 'creation_date' ) ;
#119 = CARTESIAN_POINT ( 'NONE',  ( -1.587500000000000577, -0.8514389605504942837, 11.74136751577920101 ) ) ;
#120 = DATE_AND_TIME ( #165, #454 ) ;
#121 = CARTESIAN_POINT ( 'NONE',  ( 1.587500000000000355, -1.587500000000000355, 11.81099999999999817 ) ) ;
#122 = EDGE_CURVE ( 'NONE', #321, #16, #517, .T. ) ;
#123 = VERTEX_POINT ( 'NONE', #560 ) ;
#124 = CIRCLE ( 'NONE', #151, 2.032000000000000028 ) ;
#125 = CARTESIAN_POINT ( 'NONE',  ( -1.587500000000000355, -0.2114796877013864762, 11.78322736169286600 ) ) ;
#126 = DIRECTION ( 'NONE',  ( 1.000000000000000000, 0.000000000000000000, 0.000000000000000000 ) ) ;
#127 = CARTESIAN_POINT ( 'NONE',  ( 1.587500000000000355, 1.268411506570323866, 11.65991914209797997 ) ) ;
#128 = ORIENTED_EDGE ( 'NONE', *, *, #425, .T. ) ;
#129 = DIRECTION ( 'NONE',  ( -0.000000000000000000, -0.000000000000000000, 1.000000000000000000 ) ) ;
#130 = AXIS2_PLACEMENT_3D ( 'NONE', #340, #509, #126 ) ;
#131 = CARTESIAN_POINT ( 'NONE',  ( 0.8571092511719601292, 1.587500000000000799, 11.76227379706277354 ) ) ;
#132 = B_SPLINE_CURVE_WITH_KNOTS ( 'NONE', 3,
 ( #383, #81, #256, #430, #210, #172 ),
 .UNSPECIFIED., .F., .F.,
 ( 4, 2, 4 ),
 ( 5.013490505250342793E-20, 0.0006365870327257439716, 0.001273174065451487943 ),
 .UNSPECIFIED. ) ;
#133 = CARTESIAN_POINT ( 'NONE',  ( 1.268411506570324088, 1.587500000000000355, 11.65991914209797997 ) ) ;
#134 = ORIENTED_EDGE ( 'NONE', *, *, #13, .F. ) ;
#135 = DIRECTION ( 'NONE',  ( 0.000000000000000000, 0.000000000000000000, -1.000000000000000000 ) ) ;
#136 = EDGE_CURVE ( 'NONE', #99, #123, #132, .T. ) ;
#137 = VERTEX_POINT ( 'NONE', #342 ) ;
#138 = TOROIDAL_SURFACE ( 'NONE', #400, 1.245064030267288402, 2.124999999999996891 ) ;
#139 = CARTESIAN_POINT ( 'NONE',  ( 0.000000000000000000, 0.000000000000000000, -11.81099999999999817 ) ) ;
#140 = PERSON ( 'UNSPECIFIED', 'UNSPECIFIED', 'UNSPECIFIED', ('UNSPECIFIED'), ('UNSPECIFIED'), ('UNSPECIFIED') ) ;
#141 = ORIENTED_EDGE ( 'NONE', *, *, #257, .T. ) ;
#142 = DIRECTION ( 'NONE',  ( 0.000000000000000000, -0.000000000000000000, 1.000000000000000000 ) ) ;
#143 = ORIENTED_EDGE ( 'NONE', *, *, #233, .F. ) ;
#144 = DIRECTION ( 'NONE',  ( 0.000000000000000000, 0.000000000000000000, -1.000000000000000000 ) ) ;
#145 = PRODUCT_DEFINITION ( 'UNKNOWN', '', #552, #326 ) ;
#146 = B_SPLINE_CURVE_WITH_KNOTS ( 'NONE', 3,
 ( #295, #72, #327, #423, #455, #65, #202, #162 ),
 .UNSPECIFIED., .F., .F.,
 ( 4, 2, 2, 4 ),
 ( 0.01485345774306976244, 0.01548583974386942043, 0.01611822174466907842, 0.01738298574626839094 ),
 .UNSPECIFIED. ) ;
#147 = CIRCLE ( 'NONE', #2, 1.245064030267288402 ) ;
#148 = ORIENTED_EDGE ( 'NONE', *, *, #313, .F. ) ;
#149 = CARTESIAN_POINT ( 'NONE',  ( 1.587500000000000355, -1.268411506570323866, -11.65991914209797997 ) ) ;
#150 = B_SPLINE_CURVE_WITH_KNOTS ( 'NONE', 3,
 ( #11, #231, #485, #19, #491, #279 ),
 .UNSPECIFIED., .F., .F.,
 ( 4, 2, 4 ),
 ( 0.01485345774306976244, 0.01548163471194333174, 0.01610981168081690104 ),
 .UNSPECIFIED. ) ;
#151 = AXIS2_PLACEMENT_3D ( 'NONE', #277, #356, #405 ) ;
#152 = DIRECTION ( 'NONE',  ( -0.000000000000000000, -0.000000000000000000, 1.000000000000000000 ) ) ;
#153 = CARTESIAN_POINT ( 'NONE',  ( 1.587500000000000355, -0.2114796877013864762, -11.78322736169286600 ) ) ;
#154 = PERSON_AND_ORGANIZATION ( #140, #494 ) ;
#155 = CARTESIAN_POINT ( 'NONE',  ( -1.060147506033615850, 1.587500000000000355, 11.71174669625517772 ) ) ;
#156 = EDGE_CURVE ( 'NONE', #10, #533, #415, .T. ) ;
#157 = DIRECTION ( 'NONE',  ( 0.000000000000000000, 0.000000000000000000, -1.000000000000000000 ) ) ;
#158 = DIRECTION ( 'NONE',  ( 1.000000000000000000, 0.000000000000000000, 0.000000000000000000 ) ) ;
#159 = FACE_OUTER_BOUND ( 'NONE', #97, .T. ) ;
#160 = AXIS2_PLACEMENT_3D ( 'NONE', #199, #283, #381 ) ;
#161 = ORIENTED_EDGE ( 'NONE', *, *, #338, .T. ) ;
#162 = CARTESIAN_POINT ( 'NONE',  ( -1.268411506570324088, -1.587500000000000355, 11.65991914209797997 ) ) ;
#163 = CARTESIAN_POINT ( 'NONE',  ( 1.245064030267288402, 0.000000000000000000, -11.81100000000000172 ) ) ;
#164 = APPROVAL_PERSON_ORGANIZATION ( #288, #361, #369 ) ;
#165 = CALENDAR_DATE ( 2022, 6, 6 ) ;
#166 = ADVANCED_FACE ( 'NONE', ( #34 ), #374, .F. ) ;
#167 = CARTESIAN_POINT ( 'NONE',  ( -1.587500000000000355, 1.268411506570323866, -11.65991914209797997 ) ) ;
#168 = LINE ( 'NONE', #32, #276 ) ;
#169 = CARTESIAN_POINT ( 'NONE',  ( 1.268411506570323866, 1.587500000000000355, -11.65991914209797997 ) ) ;
#170 = CARTESIAN_POINT ( 'NONE',  ( -1.268411506570323866, 1.587500000000000355, -11.65991914209797997 ) ) ;
#171 = CARTESIAN_POINT ( 'NONE',  ( 0.4342314039556082750, 1.587500000000000355, 11.78285171744314042 ) ) ;
#172 = CARTESIAN_POINT ( 'NONE',  ( -1.587500000000000355, -1.268411506570323866, -11.65991914209797997 ) ) ;
#173 = ORIENTED_EDGE ( 'NONE', *, *, #122, .T. ) ;
#174 = FACE_OUTER_BOUND ( 'NONE', #70, .T. ) ;
#175 = CC_DESIGN_PERSON_AND_ORGANIZATION_ASSIGNMENT ( #75, #379, ( #552 ) ) ;
#176 = CYLINDRICAL_SURFACE ( 'NONE', #510, 2.032000000000000028 ) ;
#177 = COORDINATED_UNIVERSAL_TIME_OFFSET ( 6, 0, .BEHIND. ) ;
#178 = AXIS2_PLACEMENT_3D ( 'NONE', #38, #336, #513 ) ;
#179 = CARTESIAN_POINT ( 'NONE',  ( -1.587500000000000133, 1.061532360077855675, -11.71140206829358732 ) ) ;
#180 = VERTEX_POINT ( 'NONE', #333 ) ;
#181 = CARTESIAN_POINT ( 'NONE',  ( -1.587500000000000355, -1.268411506570323866, 11.65991914209797997 ) ) ;
#182 = B_SPLINE_CURVE_WITH_KNOTS ( 'NONE', 3,
 ( #305, #90, #261, #393, #522, #434 ),
 .UNSPECIFIED., .F., .F.,
 ( 4, 2, 4 ),
 ( 2.407287075689319411E-19, 0.0006365870327257440800, 0.001273174065451487943 ),
 .UNSPECIFIED. ) ;
#183 = ORIENTED_EDGE ( 'NONE', *, *, #313, .T. ) ;
#184 = DIRECTION ( 'NONE',  ( 0.000000000000000000, 1.000000000000000000, 0.000000000000000000 ) ) ;
#185 = ORIENTED_EDGE ( 'NONE', *, *, #437, .F. ) ;
#186 = AXIS2_PLACEMENT_3D ( 'NONE', #456, #157, #550 ) ;
#187 = CARTESIAN_POINT ( 'NONE',  ( -1.587500000000000577, 0.2143109880596213435, 11.78322736169286600 ) ) ;
#188 = ORIENTED_EDGE ( 'NONE', *, *, #269, .F. ) ;
#189 = CARTESIAN_POINT ( 'NONE',  ( 1.587500000000000355, -0.4276219574846470417, -11.77699639200008797 ) ) ;
#190 = VERTEX_POINT ( 'NONE', #80 ) ;
#191 = CARTESIAN_POINT ( 'NONE',  ( -1.587500000000000355, -1.587500000000000355, 11.81099999999999817 ) ) ;
#192 = ORIENTED_EDGE ( 'NONE', *, *, #3, .T. ) ;
#193 = LINE ( 'NONE', #311, #194 ) ;
#194 = VECTOR ( 'NONE', #482, 1000.000000000000000 ) ;
#195 = APPROVAL_DATE_TIME ( #120, #361 ) ;
#196 = DIRECTION ( 'NONE',  ( 0.000000000000000000, -0.000000000000000000, -1.000000000000000000 ) ) ;
#197 = EDGE_CURVE ( 'NONE', #546, #116, #498, .T. ) ;
#198 = PERSON_AND_ORGANIZATION ( #140, #494 ) ;
#199 = CARTESIAN_POINT ( 'NONE',  ( -1.587500000000000355, 1.587500000000000355, 11.81099999999999817 ) ) ;
#200 = EDGE_LOOP ( 'NONE', ( #296, #240, #7, #444, #60, #280 ) ) ;
#201 = ADVANCED_FACE ( 'NONE', ( #500 ), #422, .T. ) ;
#202 = CARTESIAN_POINT ( 'NONE',  ( -0.8571092511719601292, -1.587500000000000799, 11.76227379706277354 ) ) ;
#203 = DIRECTION ( 'NONE',  ( -0.000000000000000000, -0.000000000000000000, 1.000000000000000000 ) ) ;
#204 = APPLICATION_PROTOCOL_DEFINITION ( 'international standard', 'config_control_design', 1994, #212 ) ;
#205 = DIRECTION ( 'NONE',  ( 1.000000000000000000, 0.000000000000000000, 0.000000000000000000 ) ) ;
#206 = CARTESIAN_POINT ( 'NONE',  ( 0.000000000000000000, 0.000000000000000000, -11.81100000000000172 ) ) ;
#207 = ADVANCED_FACE ( 'NONE', ( #453 ), #138, .T. ) ;
#208 = FACE_OUTER_BOUND ( 'NONE', #274, .T. ) ;
#209 = VECTOR ( 'NONE', #287, 1000.000000000000000 ) ;
#210 = CARTESIAN_POINT ( 'NONE',  ( -1.587500000000000355, -1.061392899157111991, -11.71143677385165915 ) ) ;
#211 = DIRECTION ( 'NONE',  ( 0.000000000000000000, -1.000000000000000000, 0.000000000000000000 ) ) ;
#212 = APPLICATION_CONTEXT ( 'configuration controlled 3d designs of mechanical parts and assemblies' ) ;
#213 = CC_DESIGN_PERSON_AND_ORGANIZATION_ASSIGNMENT ( #331, #248, ( #145 ) ) ;
#214 = CC_DESIGN_APPROVAL ( #361, ( #552 ) ) ;
#215 = DIRECTION ( 'NONE',  ( -0.000000000000000000, -0.000000000000000000, 1.000000000000000000 ) ) ;
#216 = LINE ( 'NONE', #392, #275 ) ;
#217 = ORIENTED_EDGE ( 'NONE', *, *, #320, .F. ) ;
#218 = SHAPE_DEFINITION_REPRESENTATION ( #462, #220 ) ;
#219 = DIRECTION ( 'NONE',  ( -0.000000000000000000, -0.000000000000000000, 1.000000000000000000 ) ) ;
#220 = ADVANCED_BREP_SHAPE_REPRESENTATION ( '228-2500-074', ( #448, #117 ), #512 ) ;
#221 = EDGE_LOOP ( 'NONE', ( #406, #23, #192, #372 ) ) ;
#222 = DIRECTION ( 'NONE',  ( 0.000000000000000000, 0.000000000000000000, -1.000000000000000000 ) ) ;
#223 = SECURITY_CLASSIFICATION ( '', '', #325 ) ;
#224 = ORIENTED_EDGE ( 'NONE', *, *, #471, .T. ) ;
#225 = DIRECTION ( 'NONE',  ( -0.000000000000000000, -0.000000000000000000, 1.000000000000000000 ) ) ;
#226 = ORIENTED_EDGE ( 'NONE', *, *, #49, .F. ) ;
#227 = VECTOR ( 'NONE', #115, 1000.000000000000000 ) ;
#228 = CARTESIAN_POINT ( 'NONE',  ( -1.587500000000000799, 0.4277385810629846241, 11.77698654358311714 ) ) ;
#229 = ADVANCED_FACE ( 'NONE', ( #419 ), #508, .F. ) ;
#230 = EDGE_LOOP ( 'NONE', ( #237, #128, #148, #394, #354, #18, #308, #451 ) ) ;
#231 = CARTESIAN_POINT ( 'NONE',  ( 1.587500000000000133, 1.061532360077855675, 11.71140206829358732 ) ) ;
#232 = APPROVAL_PERSON_ORGANIZATION ( #71, #503, #238 ) ;
#233 = EDGE_CURVE ( 'NONE', #523, #533, #146, .T. ) ;
#234 = VERTEX_POINT ( 'NONE', #167 ) ;
#235 = CARTESIAN_POINT ( 'NONE',  ( 1.587500000000000355, 0.000000000000000000, 11.78322736169286422 ) ) ;
#236 = AXIS2_PLACEMENT_3D ( 'NONE', #41, #299, #82 ) ;
#237 = ORIENTED_EDGE ( 'NONE', *, *, #520, .T. ) ;
#238 = APPROVAL_ROLE ( '' ) ;
#239 = EDGE_CURVE ( 'NONE', #399, #116, #67, .T. ) ;
#240 = ORIENTED_EDGE ( 'NONE', *, *, #514, .T. ) ;
#241 = COORDINATED_UNIVERSAL_TIME_OFFSET ( 6, 0, .BEHIND. ) ;
#242 = DIRECTION ( 'NONE',  ( 0.000000000000000000, 0.000000000000000000, -1.000000000000000000 ) ) ;
#243 = APPLICATION_CONTEXT ( 'configuration controlled 3d designs of mechanical parts and assemblies' ) ;
#244 = EDGE_LOOP ( 'NONE', ( #470, #403, #312, #461 ) ) ;
#245 = CALENDAR_DATE ( 2022, 6, 6 ) ;
#246 = CARTESIAN_POINT ( 'NONE',  ( 0.000000000000000000, 0.000000000000000000, 9.686000000000001720 ) ) ;
#247 = VERTEX_POINT ( 'NONE', #377 ) ;
#248 = PERSON_AND_ORGANIZATION_ROLE ( 'creator' ) ;
#249 = DIRECTION ( 'NONE',  ( -0.000000000000000000, -0.000000000000000000, 1.000000000000000000 ) ) ;
#250 = TOROIDAL_SURFACE ( 'NONE', #178, 1.245064030267288402, 2.124999999999996891 ) ;
#251 = ORIENTED_EDGE ( 'NONE', *, *, #320, .T. ) ;
#252 = CARTESIAN_POINT ( 'NONE',  ( -1.587500000000000355, 1.587500000000000355, 11.81099999999999817 ) ) ;
#253 = CARTESIAN_POINT ( 'NONE',  ( 1.587500000000000355, 1.268411506570323866, -11.65991914209797997 ) ) ;
#254 = LOCAL_TIME ( 13, 53, 34.00000000000000000, #411 ) ;
#255 = CARTESIAN_POINT ( 'NONE',  ( 0.000000000000000000, 0.000000000000000000, -11.81099999999999817 ) ) ;
#256 = CARTESIAN_POINT ( 'NONE',  ( -1.587500000000000577, -0.4277385810629845686, -11.77698654358311536 ) ) ;
#257 = EDGE_CURVE ( 'NONE', #278, #53, #87, .T. ) ;
#258 = DIRECTION ( 'NONE',  ( 1.000000000000000000, 0.000000000000000000, 0.000000000000000000 ) ) ;
#259 = ORIENTED_EDGE ( 'NONE', *, *, #95, .T. ) ;
#260 = DIRECTION ( 'NONE',  ( -0.000000000000000000, -0.000000000000000000, 1.000000000000000000 ) ) ;
#261 = CARTESIAN_POINT ( 'NONE',  ( 1.587500000000000577, 0.4277385810629846241, -11.77698654358311536 ) ) ;
#262 = ADVANCED_FACE ( 'NONE', ( #159 ), #412, .F. ) ;
#263 = ORIENTED_EDGE ( 'NONE', *, *, #3, .F. ) ;
#264 = APPROVAL_ROLE ( '' ) ;
#265 = ORIENTED_EDGE ( 'NONE', *, *, #353, .T. ) ;
#266 = CARTESIAN_POINT ( 'NONE',  ( -1.587500000000000355, -1.944126793646423534E-16, 11.78322736169286422 ) ) ;
#267 = AXIS2_PLACEMENT_3D ( 'NONE', #191, #46, #144 ) ;
#268 = EDGE_LOOP ( 'NONE', ( #14, #521, #224, #479, #420, #489, #450, #185 ) ) ;
#269 = EDGE_CURVE ( 'NONE', #94, #53, #329, .T. ) ;
#270 = DIRECTION ( 'NONE',  ( 0.000000000000000000, 0.000000000000000000, 1.000000000000000000 ) ) ;
#271 = ORIENTED_EDGE ( 'NONE', *, *, #79, .F. ) ;
#272 = CARTESIAN_POINT ( 'NONE',  ( 1.587500000000000355, -0.8513200635100128810, 11.74137755531810789 ) ) ;
#273 = CC_DESIGN_DATE_AND_TIME_ASSIGNMENT ( #376, #118, ( #145 ) ) ;
#274 = EDGE_LOOP ( 'NONE', ( #78, #251, #92, #368 ) ) ;
#275 = VECTOR ( 'NONE', #4, 1000.000000000000000 ) ;
#276 = VECTOR ( 'NONE', #293, 1000.000000000000000 ) ;
#277 = CARTESIAN_POINT ( 'NONE',  ( 0.000000000000000000, 0.000000000000000000, 11.65991914209797997 ) ) ;
#278 = VERTEX_POINT ( 'NONE', #367 ) ;
#279 = CARTESIAN_POINT ( 'NONE',  ( 1.587500000000000355, 0.000000000000000000, 11.78322736169286422 ) ) ;
#280 = ORIENTED_EDGE ( 'NONE', *, *, #495, .T. ) ;
#281 =( NAMED_UNIT ( * ) PLANE_ANGLE_UNIT ( ) SI_UNIT ( $, .RADIAN. ) );
#282 = AXIS2_PLACEMENT_3D ( 'NONE', #492, #104, #507 ) ;
#283 = DIRECTION ( 'NONE',  ( 0.000000000000000000, 0.000000000000000000, -1.000000000000000000 ) ) ;
#284 = APPROVAL_DATE_TIME ( #21, #503 ) ;
#285 = CARTESIAN_POINT ( 'NONE',  ( -0.8486262390323815463, 1.587500000000000355, 11.74176882282394452 ) ) ;
#286 = CC_DESIGN_APPROVAL ( #20, ( #223 ) ) ;
#287 = DIRECTION ( 'NONE',  ( -0.000000000000000000, -0.000000000000000000, 1.000000000000000000 ) ) ;
#288 = PERSON_AND_ORGANIZATION ( #140, #494 ) ;
#289 = CARTESIAN_POINT ( 'NONE',  ( -1.587500000000000355, -1.944126793646423534E-16, 11.78322736169286422 ) ) ;
#290 = ORIENTED_EDGE ( 'NONE', *, *, #269, .T. ) ;
#291 = PERSON_AND_ORGANIZATION_ROLE ( 'creator' ) ;
#292 = CARTESIAN_POINT ( 'NONE',  ( 0.2043756380772878967, 1.587500000000000133, -11.78340961896379291 ) ) ;
#293 = DIRECTION ( 'NONE',  ( 0.000000000000000000, 0.000000000000000000, -1.000000000000000000 ) ) ;
#294 = ORIENTED_EDGE ( 'NONE', *, *, #136, .T. ) ;
#295 = CARTESIAN_POINT ( 'NONE',  ( 1.268411506570323866, -1.587500000000000355, 11.65991914209797997 ) ) ;
#296 = ORIENTED_EDGE ( 'NONE', *, *, #36, .F. ) ;
#297 = CARTESIAN_POINT ( 'NONE',  ( -1.587500000000000355, -1.944126793646423534E-16, 11.78322736169286422 ) ) ;
#298 = EDGE_CURVE ( 'NONE', #94, #447, #402, .T. ) ;
#299 = DIRECTION ( 'NONE',  ( -0.000000000000000000, -0.000000000000000000, 1.000000000000000000 ) ) ;
#300 = AXIS2_PLACEMENT_3D ( 'NONE', #532, #395, #93 ) ;
#301 = DATE_AND_TIME ( #518, #530 ) ;
#302 = CARTESIAN_POINT ( 'NONE',  ( -0.2043756380772847048, 1.587500000000000799, 11.78340961896379646 ) ) ;
#303 = CIRCLE ( 'NONE', #339, 2.124999999999996891 ) ;
#304 = AXIS2_PLACEMENT_3D ( 'NONE', #319, #222, #534 ) ;
#305 = CARTESIAN_POINT ( 'NONE',  ( 1.587500000000000355, 0.000000000000000000, -11.78322736169286422 ) ) ;
#306 = EDGE_CURVE ( 'NONE', #315, #89, #216, .T. ) ;
#307 = CARTESIAN_POINT ( 'NONE',  ( -1.245064030267288402, 2.006622987633880502E-16, -11.81100000000000172 ) ) ;
#308 = ORIENTED_EDGE ( 'NONE', *, *, #371, .F. ) ;
#309 = CYLINDRICAL_SURFACE ( 'NONE', #322, 2.032000000000000028 ) ;
#310 = ORIENTED_EDGE ( 'NONE', *, *, #239, .F. ) ;
#311 = CARTESIAN_POINT ( 'NONE',  ( 1.268411506570323866, -1.587500000000000355, -11.81099999999999817 ) ) ;
#312 = ORIENTED_EDGE ( 'NONE', *, *, #488, .T. ) ;
#313 = EDGE_CURVE ( 'NONE', #234, #99, #460, .T. ) ;
#314 = CARTESIAN_POINT ( 'NONE',  ( 1.587500000000000133, -0.2143109880596212047, 11.78322736169286067 ) ) ;
#315 = VERTEX_POINT ( 'NONE', #127 ) ;
#316 = CARTESIAN_POINT ( 'NONE',  ( -1.268411506570324088, -1.587500000000000355, 11.65991914209797997 ) ) ;
#317 = VECTOR ( 'NONE', #260, 1000.000000000000000 ) ;
#318 = ORIENTED_EDGE ( 'NONE', *, *, #332, .T. ) ;
#319 = CARTESIAN_POINT ( 'NONE',  ( -1.587500000000000355, 1.587500000000000355, -11.81099999999999817 ) ) ;
#320 = EDGE_CURVE ( 'NONE', #10, #413, #30, .T. ) ;
#321 = VERTEX_POINT ( 'NONE', #307 ) ;
#322 = AXIS2_PLACEMENT_3D ( 'NONE', #255, #129, #429 ) ;
#323 = CARTESIAN_POINT ( 'NONE',  ( 1.587500000000000355, -1.268411506570323866, -11.65991914209797997 ) ) ;
#324 = B_SPLINE_CURVE_WITH_KNOTS ( 'NONE', 3,
 ( #323, #363, #15, #189, #153, #358 ),
 .UNSPECIFIED., .F., .F.,
 ( 4, 2, 4 ),
 ( 0.01485345774306976244, 0.01548163471194333174, 0.01610981168081690104 ),
 .UNSPECIFIED. ) ;
#325 = SECURITY_CLASSIFICATION_LEVEL ( 'unclassified' ) ;
#326 = DESIGN_CONTEXT ( 'detailed design', #212, 'design' ) ;
#327 = CARTESIAN_POINT ( 'NONE',  ( 0.8486262390323815463, -1.587500000000000355, 11.74176882282394452 ) ) ;
#328 = PERSON_AND_ORGANIZATION_ROLE ( 'classification_officer' ) ;
#329 = LINE ( 'NONE', #337, #227 ) ;
#330 = DIRECTION ( 'NONE',  ( -1.000000000000000000, 0.000000000000000000, 0.000000000000000000 ) ) ;
#331 = PERSON_AND_ORGANIZATION ( #140, #494 ) ;
#332 = EDGE_CURVE ( 'NONE', #180, #546, #147, .T. ) ;
#333 = CARTESIAN_POINT ( 'NONE',  ( 1.245064030267288402, 0.000000000000000000, 11.81100000000000172 ) ) ;
#334 = EDGE_CURVE ( 'NONE', #16, #247, #107, .T. ) ;
#335 = CARTESIAN_POINT ( 'NONE',  ( -0.4342314039556036120, 1.587500000000000355, -11.78285171744313864 ) ) ;
#336 = DIRECTION ( 'NONE',  ( 0.000000000000000000, 0.000000000000000000, -1.000000000000000000 ) ) ;
#337 = CARTESIAN_POINT ( 'NONE',  ( -1.268411506570323866, 1.587500000000000355, -11.81099999999999817 ) ) ;
#338 = EDGE_CURVE ( 'NONE', #234, #137, #511, .T. ) ;
#339 = AXIS2_PLACEMENT_3D ( 'NONE', #442, #96, #270 ) ;
#340 = CARTESIAN_POINT ( 'NONE',  ( 0.000000000000000000, 0.000000000000000000, -11.65991914209797997 ) ) ;
#341 = CARTESIAN_POINT ( 'NONE',  ( 0.4342314039556036120, -1.587500000000000355, -11.78285171744313864 ) ) ;
#342 = CARTESIAN_POINT ( 'NONE',  ( -1.587500000000000355, 1.268411506570324088, 11.65991914209797997 ) ) ;
#343 = EDGE_LOOP ( 'NONE', ( #526, #436 ) ) ;
#344 = FACE_OUTER_BOUND ( 'NONE', #348, .T. ) ;
#345 = CARTESIAN_POINT ( 'NONE',  ( -1.268411506570323866, -1.587500000000000355, -11.65991914209797997 ) ) ;
#346 = AXIS2_PLACEMENT_3D ( 'NONE', #121, #68, #549 ) ;
#347 = CARTESIAN_POINT ( 'NONE',  ( -0.4219230645619472253, 1.587500000000000133, 11.77730730355361999 ) ) ;
#348 = EDGE_LOOP ( 'NONE', ( #55, #161, #259, #290 ) ) ;
#349 = B_SPLINE_CURVE_WITH_KNOTS ( 'NONE', 3,
 ( #527, #314, #17, #272, #51, #401 ),
 .UNSPECIFIED., .F., .F.,
 ( 4, 2, 4 ),
 ( 2.407287075689319411E-19, 0.0006365870327257441884, 0.001273174065451488160 ),
 .UNSPECIFIED. ) ;
#350 = CARTESIAN_POINT ( 'NONE',  ( 0.000000000000000000, 0.000000000000000000, -9.686000000000001720 ) ) ;
#351 = ORIENTED_EDGE ( 'NONE', *, *, #437, .T. ) ;
#352 = CARTESIAN_POINT ( 'NONE',  ( -1.245064030267288402, 1.524763679400337895E-16, -9.686000000000001720 ) ) ;
#353 = EDGE_CURVE ( 'NONE', #123, #10, #458, .T. ) ;
#354 = ORIENTED_EDGE ( 'NONE', *, *, #257, .F. ) ;
#355 = AXIS2_PLACEMENT_3D ( 'NONE', #428, #203, #378 ) ;
#356 = DIRECTION ( 'NONE',  ( 0.000000000000000000, 0.000000000000000000, -1.000000000000000000 ) ) ;
#357 = ORIENTED_EDGE ( 'NONE', *, *, #353, .F. ) ;
#358 = CARTESIAN_POINT ( 'NONE',  ( 1.587500000000000355, 0.000000000000000000, -11.78322736169286422 ) ) ;
#359 = ORIENTED_EDGE ( 'NONE', *, *, #136, .F. ) ;
#360 = PLANE ( 'NONE',  #304 ) ;
#361 = APPROVAL ( #551, 'UNSPECIFIED' ) ;
#362 = CARTESIAN_POINT ( 'NONE',  ( -1.268411506570323866, -1.587500000000000355, -11.65991914209797997 ) ) ;
#363 = CARTESIAN_POINT ( 'NONE',  ( 1.587500000000000133, -1.061532360077855675, -11.71140206829358732 ) ) ;
#364 = AXIS2_PLACEMENT_3D ( 'NONE', #100, #184, #142 ) ;
#365 = MECHANICAL_CONTEXT ( 'NONE', #243, 'mechanical' ) ;
#366 = EDGE_CURVE ( 'NONE', #89, #278, #407, .T. ) ;
#367 = CARTESIAN_POINT ( 'NONE',  ( 1.268411506570323866, 1.587500000000000355, -11.65991914209797997 ) ) ;
#368 = ORIENTED_EDGE ( 'NONE', *, *, #233, .T. ) ;
#369 = APPROVAL_ROLE ( '' ) ;
#370 = CARTESIAN_POINT ( 'NONE',  ( -1.587500000000000355, -1.268411506570323866, 11.65991914209797997 ) ) ;
#371 = EDGE_CURVE ( 'NONE', #247, #89, #182, .T. ) ;
#372 = ORIENTED_EDGE ( 'NONE', *, *, #459, .T. ) ;
#373 = CLOSED_SHELL ( 'NONE', ( #56, #390, #531, #416, #166, #262, #207, #201, #537, #229, #396, #559, #452, #410 ) ) ;
#374 = PLANE ( 'NONE',  #346 ) ;
#375 = CARTESIAN_POINT ( 'NONE',  ( 1.268411506570323866, 1.587500000000000355, -11.81099999999999817 ) ) ;
#376 = DATE_AND_TIME ( #539, #504 ) ;
#377 = CARTESIAN_POINT ( 'NONE',  ( 1.587500000000000355, 0.000000000000000000, -11.78322736169286422 ) ) ;
#378 = DIRECTION ( 'NONE',  ( 1.000000000000000000, 0.000000000000000000, 0.000000000000000000 ) ) ;
#379 = PERSON_AND_ORGANIZATION_ROLE ( 'design_supplier' ) ;
#380 = PRODUCT_RELATED_PRODUCT_CATEGORY ( 'detail', '', ( #73 ) ) ;
#381 = DIRECTION ( 'NONE',  ( -1.000000000000000000, 0.000000000000000000, -0.000000000000000000 ) ) ;
#382 = AXIS2_PLACEMENT_3D ( 'NONE', #350, #215, #258 ) ;
#383 = CARTESIAN_POINT ( 'NONE',  ( -1.587500000000000355, 1.944126793646423534E-16, -11.78322736169286422 ) ) ;
#384 = PLANE ( 'NONE',  #364 ) ;
#385 = VECTOR ( 'NONE', #152, 1000.000000000000000 ) ;
#386 = DIRECTION ( 'NONE',  ( 1.000000000000000000, 0.000000000000000000, 0.000000000000000000 ) ) ;
#387 = CARTESIAN_POINT ( 'NONE',  ( -1.587500000000000355, 1.268411506570323866, -11.81099999999999817 ) ) ;
#388 = AXIS2_PLACEMENT_3D ( 'NONE', #496, #418, #426 ) ;
#389 = CARTESIAN_POINT ( 'NONE',  ( -0.4219230645619474473, -1.587500000000000577, -11.77730730355361999 ) ) ;
#390 = ADVANCED_FACE ( 'NONE', ( #435 ), #59, .T. ) ;
#391 = APPROVAL_DATE_TIME ( #301, #20 ) ;
#392 = CARTESIAN_POINT ( 'NONE',  ( 1.587500000000000355, 1.268411506570323866, -11.81099999999999817 ) ) ;
#393 = CARTESIAN_POINT ( 'NONE',  ( 1.587500000000000355, 0.8513200635100128810, -11.74137755531810789 ) ) ;
#394 = ORIENTED_EDGE ( 'NONE', *, *, #106, .F. ) ;
#395 = DIRECTION ( 'NONE',  ( -0.000000000000000000, -0.000000000000000000, 1.000000000000000000 ) ) ;
#396 = ADVANCED_FACE ( 'NONE', ( #174 ), #176, .T. ) ;
#397 = ORIENTED_EDGE ( 'NONE', *, *, #471, .F. ) ;
#398 = DIRECTION ( 'NONE',  ( 1.000000000000000000, 0.000000000000000000, 0.000000000000000000 ) ) ;
#399 = VERTEX_POINT ( 'NONE', #181 ) ;
#400 = AXIS2_PLACEMENT_3D ( 'NONE', #27, #25, #205 ) ;
#401 = CARTESIAN_POINT ( 'NONE',  ( 1.587500000000000355, -1.268411506570324088, 11.65991914209797997 ) ) ;
#402 = B_SPLINE_CURVE_WITH_KNOTS ( 'NONE', 3,
 ( #541, #155, #285, #347, #302, #171, #131, #133 ),
 .UNSPECIFIED., .F., .F.,
 ( 4, 2, 2, 4 ),
 ( 0.01485345774306976244, 0.01548583974386942043, 0.01611822174466907842, 0.01738298574626839094 ),
 .UNSPECIFIED. ) ;
#403 = ORIENTED_EDGE ( 'NONE', *, *, #9, .T. ) ;
#404 = AXIS2_PLACEMENT_3D ( 'NONE', #352, #440, #8 ) ;
#405 = DIRECTION ( 'NONE',  ( -1.000000000000000000, 0.000000000000000000, 0.000000000000000000 ) ) ;
#406 = ORIENTED_EDGE ( 'NONE', *, *, #69, .T. ) ;
#407 = CIRCLE ( 'NONE', #236, 2.032000000000000028 ) ;
#408 = CARTESIAN_POINT ( 'NONE',  ( 1.268411506570323866, -1.587500000000000355, 11.65991914209797997 ) ) ;
#409 = CARTESIAN_POINT ( 'NONE',  ( 0.000000000000000000, 0.000000000000000000, 11.65991914209797997 ) ) ;
#410 = ADVANCED_FACE ( 'NONE', ( #344 ), #309, .T. ) ;
#411 = COORDINATED_UNIVERSAL_TIME_OFFSET ( 6, 0, .BEHIND. ) ;
#412 = PLANE ( 'NONE',  #473 ) ;
#413 = VERTEX_POINT ( 'NONE', #37 ) ;
#414 = CALENDAR_DATE ( 2022, 6, 6 ) ;
#415 = LINE ( 'NONE', #427, #432 ) ;
#416 = ADVANCED_FACE ( 'NONE', ( #208 ), #384, .F. ) ;
#417 = DIRECTION ( 'NONE',  ( 0.000000000000000000, 0.000000000000000000, -1.000000000000000000 ) ) ;
#418 = DIRECTION ( 'NONE',  ( -0.000000000000000000, -0.000000000000000000, 1.000000000000000000 ) ) ;
#419 = FACE_OUTER_BOUND ( 'NONE', #47, .T. ) ;
#420 = ORIENTED_EDGE ( 'NONE', *, *, #488, .F. ) ;
#421 =( NAMED_UNIT ( * ) SI_UNIT ( $, .STERADIAN. ) SOLID_ANGLE_UNIT ( ) );
#422 = TOROIDAL_SURFACE ( 'NONE', #52, 1.245064030267288402, 2.124999999999996891 ) ;
#423 = CARTESIAN_POINT ( 'NONE',  ( 0.4219230645619472253, -1.587500000000000133, 11.77730730355361999 ) ) ;
#424 = DIRECTION ( 'NONE',  ( -1.000000000000000000, 0.000000000000000000, 0.000000000000000000 ) ) ;
#425 = EDGE_CURVE ( 'NONE', #321, #99, #483, .T. ) ;
#426 = DIRECTION ( 'NONE',  ( 1.000000000000000000, 0.000000000000000000, 0.000000000000000000 ) ) ;
#427 = CARTESIAN_POINT ( 'NONE',  ( -1.268411506570323866, -1.587500000000000355, -11.81099999999999817 ) ) ;
#428 = CARTESIAN_POINT ( 'NONE',  ( 0.000000000000000000, 0.000000000000000000, -11.65991914209797997 ) ) ;
#429 = DIRECTION ( 'NONE',  ( 1.000000000000000000, 0.000000000000000000, 0.000000000000000000 ) ) ;
#430 = CARTESIAN_POINT ( 'NONE',  ( -1.587500000000000355, -0.8513200635100128810, -11.74137755531810789 ) ) ;
#431 = DIRECTION ( 'NONE',  ( -0.000000000000000000, -0.000000000000000000, 1.000000000000000000 ) ) ;
#432 = VECTOR ( 'NONE', #249, 1000.000000000000000 ) ;
#433 = DIRECTION ( 'NONE',  ( 1.000000000000000000, 0.000000000000000000, 0.000000000000000000 ) ) ;
#434 = CARTESIAN_POINT ( 'NONE',  ( 1.587500000000000355, 1.268411506570323866, -11.65991914209797997 ) ) ;
#435 = FACE_OUTER_BOUND ( 'NONE', #230, .T. ) ;
#436 = ORIENTED_EDGE ( 'NONE', *, *, #122, .F. ) ;
#437 = EDGE_CURVE ( 'NONE', #116, #137, #111, .T. ) ;
#438 = FACE_OUTER_BOUND ( 'NONE', #26, .T. ) ;
#439 = VERTEX_POINT ( 'NONE', #235 ) ;
#440 = DIRECTION ( 'NONE',  ( 1.224646799147353207E-16, 1.000000000000000000, 0.000000000000000000 ) ) ;
#441 = EDGE_LOOP ( 'NONE', ( #226, #481, #310, #134, #143, #263, #486, #397 ) ) ;
#442 = CARTESIAN_POINT ( 'NONE',  ( 1.245064030267288402, 0.000000000000000000, 9.686000000000001720 ) ) ;
#443 = CC_DESIGN_PERSON_AND_ORGANIZATION_ASSIGNMENT ( #108, #548, ( #73 ) ) ;
#444 = ORIENTED_EDGE ( 'NONE', *, *, #306, .F. ) ;
#445 = CIRCLE ( 'NONE', #186, 2.032000000000000028 ) ;
#446 = CARTESIAN_POINT ( 'NONE',  ( 1.268411506570324088, 1.587500000000000355, 11.65991914209797997 ) ) ;
#447 = VERTEX_POINT ( 'NONE', #446 ) ;
#448 = MANIFOLD_SOLID_BREP ( '228-2500-074', #373 ) ;
#449 = FACE_OUTER_BOUND ( 'NONE', #221, .T. ) ;
#450 = ORIENTED_EDGE ( 'NONE', *, *, #95, .F. ) ;
#451 = ORIENTED_EDGE ( 'NONE', *, *, #334, .F. ) ;
#452 = ADVANCED_FACE ( 'NONE', ( #98 ), #524, .T. ) ;
#453 = FACE_OUTER_BOUND ( 'NONE', #66, .T. ) ;
#454 = LOCAL_TIME ( 13, 53, 34.00000000000000000, #463 ) ;
#455 = CARTESIAN_POINT ( 'NONE',  ( 0.2043756380772847048, -1.587500000000000799, 11.78340961896379646 ) ) ;
#456 = CARTESIAN_POINT ( 'NONE',  ( 0.000000000000000000, 0.000000000000000000, 11.65991914209797997 ) ) ;
#457 = CARTESIAN_POINT ( 'NONE',  ( -1.245064030267288402, -1.524763679400337895E-16, 9.686000000000001720 ) ) ;
#458 = CIRCLE ( 'NONE', #91, 2.032000000000000028 ) ;
#459 = EDGE_CURVE ( 'NONE', #523, #413, #193, .T. ) ;
#460 = B_SPLINE_CURVE_WITH_KNOTS ( 'NONE', 3,
 ( #40, #179, #561, #558, #474, #515 ),
 .UNSPECIFIED., .F., .F.,
 ( 4, 2, 4 ),
 ( 0.01485345774306976244, 0.01548163471194333174, 0.01610981168081690104 ),
 .UNSPECIFIED. ) ;
#461 = ORIENTED_EDGE ( 'NONE', *, *, #306, .T. ) ;
#462 = PRODUCT_DEFINITION_SHAPE ( 'NONE', 'NONE',  #145 ) ;
#463 = COORDINATED_UNIVERSAL_TIME_OFFSET ( 6, 0, .BEHIND. ) ;
#464 = CARTESIAN_POINT ( 'NONE',  ( -1.268411506570323866, 1.587500000000000355, -11.65991914209797997 ) ) ;
#465 = CARTESIAN_POINT ( 'NONE',  ( -1.587500000000000355, 1.944126793646423534E-16, -11.78322736169286422 ) ) ;
#466 = ORIENTED_EDGE ( 'NONE', *, *, #9, .F. ) ;
#467 = CARTESIAN_POINT ( 'NONE',  ( 1.060147506033615850, 1.587500000000000133, -11.71174669625517595 ) ) ;
#468 = DIRECTION ( 'NONE',  ( -0.000000000000000000, -0.000000000000000000, 1.000000000000000000 ) ) ;
#469 = CARTESIAN_POINT ( 'NONE',  ( 0.000000000000000000, 0.000000000000000000, -11.65991914209797997 ) ) ;
#470 = ORIENTED_EDGE ( 'NONE', *, *, #366, .T. ) ;
#471 = EDGE_CURVE ( 'NONE', #180, #439, #303, .T. ) ;
#472 = CARTESIAN_POINT ( 'NONE',  ( 1.268411506570323866, -1.587500000000000355, -11.65991914209797997 ) ) ;
#473 = AXIS2_PLACEMENT_3D ( 'NONE', #252, #22, #196 ) ;
#474 = CARTESIAN_POINT ( 'NONE',  ( -1.587500000000000355, 0.2114796877013864762, -11.78322736169286600 ) ) ;
#475 = CC_DESIGN_APPROVAL ( #503, ( #145 ) ) ;
#476 = ORIENTED_EDGE ( 'NONE', *, *, #298, .T. ) ;
#477 = DIRECTION ( 'NONE',  ( 1.000000000000000000, 0.000000000000000000, 0.000000000000000000 ) ) ;
#478 = EDGE_CURVE ( 'NONE', #315, #439, #150, .T. ) ;
#479 = ORIENTED_EDGE ( 'NONE', *, *, #478, .F. ) ;
#480 = CARTESIAN_POINT ( 'NONE',  ( 0.8571092511719566875, -1.587500000000000355, -11.76227379706277354 ) ) ;
#481 = ORIENTED_EDGE ( 'NONE', *, *, #197, .T. ) ;
#482 = DIRECTION ( 'NONE',  ( 0.000000000000000000, 0.000000000000000000, -1.000000000000000000 ) ) ;
#483 = CIRCLE ( 'NONE', #404, 2.124999999999996891 ) ;
#484 = ORIENTED_EDGE ( 'NONE', *, *, #334, .T. ) ;
#485 = CARTESIAN_POINT ( 'NONE',  ( 1.587500000000000577, 0.8514389605504942837, 11.74136751577920101 ) ) ;
#486 = ORIENTED_EDGE ( 'NONE', *, *, #495, .F. ) ;
#487 = FACE_OUTER_BOUND ( 'NONE', #343, .T. ) ;
#488 = EDGE_CURVE ( 'NONE', #447, #315, #124, .T. ) ;
#489 = ORIENTED_EDGE ( 'NONE', *, *, #298, .F. ) ;
#490 = CIRCLE ( 'NONE', #282, 1.245064030267288402 ) ;
#491 = CARTESIAN_POINT ( 'NONE',  ( 1.587500000000000355, 0.2114796877013864762, 11.78322736169286600 ) ) ;
#492 = CARTESIAN_POINT ( 'NONE',  ( 0.000000000000000000, 0.000000000000000000, 11.81100000000000172 ) ) ;
#493 =( LENGTH_UNIT ( ) NAMED_UNIT ( * ) SI_UNIT ( .MILLI., .METRE. ) );
#494 = ORGANIZATION ( 'UNSPECIFIED', 'UNSPECIFIED', '' ) ;
#495 = EDGE_CURVE ( 'NONE', #439, #190, #349, .T. ) ;
#496 = CARTESIAN_POINT ( 'NONE',  ( 0.000000000000000000, 0.000000000000000000, -11.81099999999999817 ) ) ;
#497 = DIRECTION ( 'NONE',  ( 1.224646799147353207E-16, -1.000000000000000000, 0.000000000000000000 ) ) ;
#498 = CIRCLE ( 'NONE', #101, 2.124999999999996891 ) ;
#499 = DATE_TIME_ROLE ( 'classification_date' ) ;
#500 = FACE_OUTER_BOUND ( 'NONE', #268, .T. ) ;
#501 = LINE ( 'NONE', #375, #209 ) ;
#502 = COORDINATED_UNIVERSAL_TIME_OFFSET ( 6, 0, .BEHIND. ) ;
#503 = APPROVAL ( #64, 'UNSPECIFIED' ) ;
#504 = LOCAL_TIME ( 13, 53, 34.00000000000000000, #502 ) ;
#505 = DIRECTION ( 'NONE',  ( 1.000000000000000000, 1.224646799147353207E-16, 0.000000000000000000 ) ) ;
#506 = LINE ( 'NONE', #535, #385 ) ;
#507 = DIRECTION ( 'NONE',  ( 1.000000000000000000, 0.000000000000000000, 0.000000000000000000 ) ) ;
#508 = PLANE ( 'NONE',  #160 ) ;
#509 = DIRECTION ( 'NONE',  ( -0.000000000000000000, -0.000000000000000000, 1.000000000000000000 ) ) ;
#510 = AXIS2_PLACEMENT_3D ( 'NONE', #43, #219, #5 ) ;
#511 = LINE ( 'NONE', #387, #317 ) ;
#512 =( GEOMETRIC_REPRESENTATION_CONTEXT ( 3 ) GLOBAL_UNCERTAINTY_ASSIGNED_CONTEXT ( ( #528 ) ) GLOBAL_UNIT_ASSIGNED_CONTEXT ( ( #493, #281, #421 ) ) REPRESENTATION_CONTEXT ( 'NONE', 'WORKASPACE' ) );
#513 = DIRECTION ( 'NONE',  ( 1.000000000000000000, 0.000000000000000000, 0.000000000000000000 ) ) ;
#514 = EDGE_CURVE ( 'NONE', #538, #247, #324, .T. ) ;
#515 = CARTESIAN_POINT ( 'NONE',  ( -1.587500000000000355, 1.944126793646423534E-16, -11.78322736169286422 ) ) ;
#516 = CARTESIAN_POINT ( 'NONE',  ( 0.000000000000000000, 0.000000000000000000, 11.81100000000000172 ) ) ;
#517 = CIRCLE ( 'NONE', #110, 1.245064030267288402 ) ;
#518 = CALENDAR_DATE ( 2022, 6, 6 ) ;
#519 = CARTESIAN_POINT ( 'NONE',  ( -0.2043756380772878967, -1.587500000000000133, -11.78340961896379291 ) ) ;
#520 = EDGE_CURVE ( 'NONE', #16, #321, #543, .T. ) ;
#521 = ORIENTED_EDGE ( 'NONE', *, *, #332, .F. ) ;
#522 = CARTESIAN_POINT ( 'NONE',  ( 1.587500000000000355, 1.061392899157111991, -11.71143677385165915 ) ) ;
#523 = VERTEX_POINT ( 'NONE', #408 ) ;
#524 = CYLINDRICAL_SURFACE ( 'NONE', #85, 2.032000000000000028 ) ;
#525 = CIRCLE ( 'NONE', #84, 2.032000000000000028 ) ;
#526 = ORIENTED_EDGE ( 'NONE', *, *, #520, .F. ) ;
#527 = CARTESIAN_POINT ( 'NONE',  ( 1.587500000000000355, 0.000000000000000000, 11.78322736169286422 ) ) ;
#528 = UNCERTAINTY_MEASURE_WITH_UNIT (LENGTH_MEASURE( 1.000000000000000082E-05 ), #493, 'distance_accuracy_value', 'NONE');
#529 = ORIENTED_EDGE ( 'NONE', *, *, #79, .T. ) ;
#530 = LOCAL_TIME ( 13, 53, 34.00000000000000000, #177 ) ;
#531 = ADVANCED_FACE ( 'NONE', ( #438 ), #58, .F. ) ;
#532 = CARTESIAN_POINT ( 'NONE',  ( 0.000000000000000000, 0.000000000000000000, -11.81100000000000172 ) ) ;
#533 = VERTEX_POINT ( 'NONE', #316 ) ;
#534 = DIRECTION ( 'NONE',  ( -1.000000000000000000, 0.000000000000000000, -0.000000000000000000 ) ) ;
#535 = CARTESIAN_POINT ( 'NONE',  ( 1.587500000000000355, -1.268411506570323866, -11.81099999999999817 ) ) ;
#536 = CARTESIAN_POINT ( 'NONE',  ( -1.587500000000000133, 1.061392899157111769, 11.71143677385165560 ) ) ;
#537 = ADVANCED_FACE ( 'NONE', ( #487 ), #360, .T. ) ;
#538 = VERTEX_POINT ( 'NONE', #149 ) ;
#539 = CALENDAR_DATE ( 2022, 6, 6 ) ;
#540 = LOCAL_TIME ( 13, 53, 34.00000000000000000, #241 ) ;
#541 = CARTESIAN_POINT ( 'NONE',  ( -1.268411506570323866, 1.587500000000000355, 11.65991914209797997 ) ) ;
#542 = ORIENTED_EDGE ( 'NONE', *, *, #514, .F. ) ;
#543 = CIRCLE ( 'NONE', #300, 1.245064030267288402 ) ;
#544 = AXIS2_PLACEMENT_3D ( 'NONE', #1, #211, #135 ) ;
#545 = CARTESIAN_POINT ( 'NONE',  ( 0.4219230645619474473, 1.587500000000000577, -11.77730730355361999 ) ) ;
#546 = VERTEX_POINT ( 'NONE', #103 ) ;
#547 = CIRCLE ( 'NONE', #12, 2.032000000000000028 ) ;
#548 = PERSON_AND_ORGANIZATION_ROLE ( 'design_owner' ) ;
#549 = DIRECTION ( 'NONE',  ( 0.000000000000000000, 0.000000000000000000, 1.000000000000000000 ) ) ;
#550 = DIRECTION ( 'NONE',  ( -1.000000000000000000, 0.000000000000000000, 0.000000000000000000 ) ) ;
#551 = APPROVAL_STATUS ( 'not_yet_approved' ) ;
#552 = PRODUCT_DEFINITION_FORMATION_WITH_SPECIFIED_SOURCE ( 'ANY', '', #73, .NOT_KNOWN. ) ;
#553 = CARTESIAN_POINT ( 'NONE',  ( 0.8486262390323812133, 1.587500000000000577, -11.74176882282394452 ) ) ;
#554 = FACE_OUTER_BOUND ( 'NONE', #441, .T. ) ;
#555 = PERSON_AND_ORGANIZATION ( #140, #494 ) ;
#556 = DIRECTION ( 'NONE',  ( 1.000000000000000000, 0.000000000000000000, 0.000000000000000000 ) ) ;
#557 = CARTESIAN_POINT ( 'NONE',  ( -1.268411506570323866, 1.587500000000000355, 11.65991914209797997 ) ) ;
#558 = CARTESIAN_POINT ( 'NONE',  ( -1.587500000000000355, 0.4276219574846470417, -11.77699639200008797 ) ) ;
#559 = ADVANCED_FACE ( 'NONE', ( #449 ), #105, .T. ) ;
#560 = CARTESIAN_POINT ( 'NONE',  ( -1.587500000000000355, -1.268411506570323866, -11.65991914209797997 ) ) ;
#561 = CARTESIAN_POINT ( 'NONE',  ( -1.587500000000000577, 0.8514389605504942837, -11.74136751577920101 ) ) ;
ENDSEC;
END-ISO-10303-21;
