ISO-10303-21;
HEADER;
FILE_DESCRIPTION (( 'STEP AP203' ),
    '1' );
FILE_NAME ('228-2500-078.step',
    '2022-06-06T18:56:59',
    ( '' ),
    ( '' ),
    'SwSTEP 2.0',
    'SolidWorks 2021',
    '' );
FILE_SCHEMA (( 'CONFIG_CONTROL_DESIGN' ));
ENDSEC;

DATA;
#1 = DIRECTION ( 'NONE',  ( -0.000000000000000000, -0.000000000000000000, 1.000000000000000000 ) ) ;
#2 = ORIENTED_EDGE ( 'NONE', *, *, #106, .F. ) ;
#3 = PERSON_AND_ORGANIZATION ( #825, #502 ) ;
#4 = ORIENTED_EDGE ( 'NONE', *, *, #247, .T. ) ;
#5 = CARTESIAN_POINT ( 'NONE',  ( 0.000000000000000000, 0.000000000000000000, 8.725000000000001421 ) ) ;
#6 = EDGE_CURVE ( 'NONE', #780, #207, #26, .T. ) ;
#7 = CARTESIAN_POINT ( 'NONE',  ( 1.587500000000000355, 0.2114796877013864485, 14.95822736169287026 ) ) ;
#8 = PERSON_AND_ORGANIZATION_ROLE ( 'design_supplier' ) ;
#9 = ORIENTED_EDGE ( 'NONE', *, *, #378, .F. ) ;
#10 = DIRECTION ( 'NONE',  ( -0.000000000000000000, -0.000000000000000000, 1.000000000000000000 ) ) ;
#11 = ORIENTED_EDGE ( 'NONE', *, *, #560, .F. ) ;
#12 = VERTEX_POINT ( 'NONE', #586 ) ;
#13 = LINE ( 'NONE', #305, #189 ) ;
#14 = ORIENTED_EDGE ( 'NONE', *, *, #375, .T. ) ;
#15 = PERSON_AND_ORGANIZATION_ROLE ( 'creator' ) ;
#16 = EDGE_CURVE ( 'NONE', #153, #212, #258, .T. ) ;
#17 = CARTESIAN_POINT ( 'NONE',  ( -1.587499999999999911, 1.268411506570324088, -14.83491914209798246 ) ) ;
#18 = DIRECTION ( 'NONE',  ( -0.000000000000000000, -0.000000000000000000, -1.000000000000000000 ) ) ;
#19 = VECTOR ( 'NONE', #800, 1000.000000000000000 ) ;
#20 = CARTESIAN_POINT ( 'NONE',  ( 1.587500000000000355, 1.061392899157111769, -14.88643677385166342 ) ) ;
#21 = AXIS2_PLACEMENT_3D ( 'NONE', #670, #238, #187 ) ;
#22 = VECTOR ( 'NONE', #627, 1000.000000000000000 ) ;
#23 = VERTEX_POINT ( 'NONE', #165 ) ;
#24 = DIRECTION ( 'NONE',  ( 0.000000000000000000, 0.000000000000000000, 1.000000000000000000 ) ) ;
#25 = CARTESIAN_POINT ( 'NONE',  ( 1.245064030267288402, 0.000000000000000000, 14.98599999999999888 ) ) ;
#26 = B_SPLINE_CURVE_WITH_KNOTS ( 'NONE', 3,
 ( #876, #507, #147, #721, #88, #654 ),
 .UNSPECIFIED., .F., .F.,
 ( 4, 2, 4 ),
 ( 1.905938025164285192E-19, 0.0006365870327257437547, 0.001273174065451487293 ),
 .UNSPECIFIED. ) ;
#27 = VERTEX_POINT ( 'NONE', #868 ) ;
#28 = DIRECTION ( 'NONE',  ( 1.000000000000000000, 0.000000000000000000, 0.000000000000000000 ) ) ;
#29 = CARTESIAN_POINT ( 'NONE',  ( -1.268411506570324088, 1.587499999999999911, 8.724999999999994316 ) ) ;
#30 = CARTESIAN_POINT ( 'NONE',  ( -1.587500000000000355, 1.944126793646423534E-16, -14.95822736169286671 ) ) ;
#31 = EDGE_CURVE ( 'NONE', #505, #752, #480, .T. ) ;
#32 = ORIENTED_EDGE ( 'NONE', *, *, #455, .F. ) ;
#33 = CIRCLE ( 'NONE', #219, 1.245064030267288402 ) ;
#34 = FACE_OUTER_BOUND ( 'NONE', #317, .T. ) ;
#35 = CARTESIAN_POINT ( 'NONE',  ( 1.587500000000000355, -1.268411506570324088, 8.724999999999999645 ) ) ;
#36 = CARTESIAN_POINT ( 'NONE',  ( 1.587499999999999911, -1.268411506570324088, -14.98600000000000065 ) ) ;
#37 = AXIS2_PLACEMENT_3D ( 'NONE', #711, #1, #160 ) ;
#38 = VERTEX_POINT ( 'NONE', #725 ) ;
#39 = EDGE_CURVE ( 'NONE', #245, #505, #436, .T. ) ;
#40 = DIRECTION ( 'NONE',  ( 1.000000000000000000, 0.000000000000000000, 0.000000000000000000 ) ) ;
#41 = CARTESIAN_POINT ( 'NONE',  ( 1.587500000000000577, 0.4277385810629845686, -14.95198654358310897 ) ) ;
#42 = FACE_OUTER_BOUND ( 'NONE', #567, .T. ) ;
#43 = ORIENTED_EDGE ( 'NONE', *, *, #829, .F. ) ;
#44 = CARTESIAN_POINT ( 'NONE',  ( 0.000000000000000000, 0.000000000000000000, -14.98600000000000065 ) ) ;
#45 = ADVANCED_FACE ( 'NONE', ( #715 ), #449, .T. ) ;
#46 = FACE_OUTER_BOUND ( 'NONE', #786, .T. ) ;
#47 = DIRECTION ( 'NONE',  ( 1.000000000000000000, 0.000000000000000000, 0.000000000000000000 ) ) ;
#48 = ORIENTED_EDGE ( 'NONE', *, *, #650, .F. ) ;
#49 = CIRCLE ( 'NONE', #451, 2.032000000000000028 ) ;
#50 = LINE ( 'NONE', #835, #22 ) ;
#51 = CARTESIAN_POINT ( 'NONE',  ( -1.587499999999999911, 1.268411506570324088, 9.524999999999993250 ) ) ;
#52 = PLANE ( 'NONE',  #279 ) ;
#53 = ORIENTED_EDGE ( 'NONE', *, *, #602, .F. ) ;
#54 = AXIS2_PLACEMENT_3D ( 'NONE', #87, #724, #852 ) ;
#55 = UNCERTAINTY_MEASURE_WITH_UNIT (LENGTH_MEASURE( 1.000000000000000082E-05 ), #922, 'distance_accuracy_value', 'NONE');
#56 = CARTESIAN_POINT ( 'NONE',  ( 0.000000000000000000, 0.000000000000000000, 14.98599999999999888 ) ) ;
#57 = AXIS2_PLACEMENT_3D ( 'NONE', #669, #812, #181 ) ;
#58 = DIRECTION ( 'NONE',  ( 1.000000000000000000, 0.000000000000000000, 0.000000000000000000 ) ) ;
#59 = DIRECTION ( 'NONE',  ( -0.000000000000000000, -0.000000000000000000, 1.000000000000000000 ) ) ;
#60 = ORIENTED_EDGE ( 'NONE', *, *, #183, .T. ) ;
#61 = DIRECTION ( 'NONE',  ( 1.000000000000000000, 0.000000000000000000, 0.000000000000000000 ) ) ;
#62 = CARTESIAN_POINT ( 'NONE',  ( -0.2043756380772878689, -1.587500000000000799, -14.95840961896380072 ) ) ;
#63 = CARTESIAN_POINT ( 'NONE',  ( 0.000000000000000000, 0.000000000000000000, 12.86099999999999000 ) ) ;
#64 = ADVANCED_FACE ( 'NONE', ( #225 ), #658, .T. ) ;
#65 = ORIENTED_EDGE ( 'NONE', *, *, #772, .T. ) ;
#66 = CARTESIAN_POINT ( 'NONE',  ( -1.587500000000000355, -1.268411506570323866, 14.83491914209798423 ) ) ;
#67 = DIRECTION ( 'NONE',  ( 0.000000000000000000, -1.000000000000000000, 0.000000000000000000 ) ) ;
#68 = ORIENTED_EDGE ( 'NONE', *, *, #663, .F. ) ;
#69 = VECTOR ( 'NONE', #155, 1000.000000000000000 ) ;
#70 = EDGE_CURVE ( 'NONE', #23, #712, #890, .T. ) ;
#71 = ORIENTED_EDGE ( 'NONE', *, *, #700, .T. ) ;
#72 = DIRECTION ( 'NONE',  ( -0.000000000000000000, -0.000000000000000000, 1.000000000000000000 ) ) ;
#73 = ORIENTED_EDGE ( 'NONE', *, *, #447, .T. ) ;
#74 = PERSON_AND_ORGANIZATION_ROLE ( 'creator' ) ;
#75 = EDGE_CURVE ( 'NONE', #757, #811, #545, .T. ) ;
#76 = CARTESIAN_POINT ( 'NONE',  ( -1.587500000000000355, 0.4276219574846455984, -14.95199639200008690 ) ) ;
#77 = CARTESIAN_POINT ( 'NONE',  ( 1.587500000000000133, 1.061532360077855230, 14.88640206829359514 ) ) ;
#78 = EDGE_LOOP ( 'NONE', ( #584, #706, #139, #253 ) ) ;
#79 = AXIS2_PLACEMENT_3D ( 'NONE', #522, #18, #83 ) ;
#80 = FACE_OUTER_BOUND ( 'NONE', #797, .T. ) ;
#81 = AXIS2_PLACEMENT_3D ( 'NONE', #768, #550, #140 ) ;
#82 = EDGE_CURVE ( 'NONE', #229, #571, #49, .T. ) ;
#83 = DIRECTION ( 'NONE',  ( 1.000000000000000000, 0.000000000000000000, 0.000000000000000000 ) ) ;
#84 = MECHANICAL_CONTEXT ( 'NONE', #574, 'mechanical' ) ;
#85 = ORIENTED_EDGE ( 'NONE', *, *, #532, .T. ) ;
#86 = AXIS2_PLACEMENT_3D ( 'NONE', #236, #435, #714 ) ;
#87 = CARTESIAN_POINT ( 'NONE',  ( -1.587500000000000355, -1.587500000000000355, 14.98600000000000065 ) ) ;
#88 = CARTESIAN_POINT ( 'NONE',  ( -1.587500000000000355, 1.061392899157111325, 14.88643677385166342 ) ) ;
#89 = EDGE_CURVE ( 'NONE', #212, #38, #662, .T. ) ;
#90 = COORDINATED_UNIVERSAL_TIME_OFFSET ( 6, 0, .BEHIND. ) ;
#91 = ORIENTED_EDGE ( 'NONE', *, *, #772, .F. ) ;
#92 = CYLINDRICAL_SURFACE ( 'NONE', #691, 2.032000000000000028 ) ;
#93 = ORIENTED_EDGE ( 'NONE', *, *, #650, .T. ) ;
#94 = FACE_OUTER_BOUND ( 'NONE', #78, .T. ) ;
#95 = VERTEX_POINT ( 'NONE', #401 ) ;
#96 = CARTESIAN_POINT ( 'NONE',  ( -0.8486262390323824345, -1.587500000000000355, -14.91676882282394700 ) ) ;
#97 = AXIS2_PLACEMENT_3D ( 'NONE', #323, #804, #823 ) ;
#98 = CIRCLE ( 'NONE', #396, 2.399999999999999911 ) ;
#99 = CARTESIAN_POINT ( 'NONE',  ( 1.587500000000000133, -0.2143109880596212047, 14.95822736169286493 ) ) ;
#100 = LINE ( 'NONE', #611, #635 ) ;
#101 = EDGE_CURVE ( 'NONE', #536, #327, #453, .T. ) ;
#102 = CARTESIAN_POINT ( 'NONE',  ( 1.587499999999999911, 1.268411506570324088, -14.98600000000000065 ) ) ;
#103 = ORIENTED_EDGE ( 'NONE', *, *, #447, .F. ) ;
#104 = DIRECTION ( 'NONE',  ( -1.000000000000000000, 0.000000000000000000, -0.000000000000000000 ) ) ;
#105 = CARTESIAN_POINT ( 'NONE',  ( 0.000000000000000000, 0.000000000000000000, -14.98600000000000065 ) ) ;
#106 = EDGE_CURVE ( 'NONE', #229, #38, #188, .T. ) ;
#107 = ORIENTED_EDGE ( 'NONE', *, *, #6, .F. ) ;
#108 = CARTESIAN_POINT ( 'NONE',  ( -2.399999999999999911, 2.939152317953647106E-16, 9.525000000000000355 ) ) ;
#109 = LOCAL_TIME ( 13, 56, 59.00000000000000000, #432 ) ;
#110 = PLANE ( 'NONE',  #645 ) ;
#111 = AXIS2_PLACEMENT_3D ( 'NONE', #542, #817, #831 ) ;
#112 = EDGE_CURVE ( 'NONE', #626, #414, #761, .T. ) ;
#113 = ORIENTED_EDGE ( 'NONE', *, *, #912, .T. ) ;
#114 = DIRECTION ( 'NONE',  ( 0.000000000000000000, 0.000000000000000000, -1.000000000000000000 ) ) ;
#115 = CARTESIAN_POINT ( 'NONE',  ( 1.268411506570324088, -1.587499999999999911, 9.524999999999993250 ) ) ;
#116 = DIRECTION ( 'NONE',  ( 1.000000000000000000, 0.000000000000000000, 0.000000000000000000 ) ) ;
#117 = ORIENTED_EDGE ( 'NONE', *, *, #801, .F. ) ;
#118 = LINE ( 'NONE', #460, #427 ) ;
#119 = CARTESIAN_POINT ( 'NONE',  ( -1.245064030267288402, 2.006622987633880009E-16, -14.98599999999999888 ) ) ;
#120 = PLANE ( 'NONE',  #267 ) ;
#121 = ORIENTED_EDGE ( 'NONE', *, *, #203, .T. ) ;
#122 = CARTESIAN_POINT ( 'NONE',  ( 0.000000000000000000, 0.000000000000000000, -14.83491914209798423 ) ) ;
#123 = AXIS2_PLACEMENT_3D ( 'NONE', #535, #810, #179 ) ;
#124 = ADVANCED_FACE ( 'NONE', ( #387 ), #681, .T. ) ;
#125 = CARTESIAN_POINT ( 'NONE',  ( -1.587500000000000355, -1.587500000000000355, 8.724999999999999645 ) ) ;
#126 = CARTESIAN_POINT ( 'NONE',  ( 1.587499999999999911, -1.268411506570324088, -14.83491914209798246 ) ) ;
#127 = ORIENTED_EDGE ( 'NONE', *, *, #532, .F. ) ;
#128 = AXIS2_PLACEMENT_3D ( 'NONE', #607, #171, #547 ) ;
#129 =( NAMED_UNIT ( * ) SI_UNIT ( $, .STERADIAN. ) SOLID_ANGLE_UNIT ( ) );
#130 = CARTESIAN_POINT ( 'NONE',  ( 1.268411506570323644, 1.587500000000000355, 14.83491914209798246 ) ) ;
#131 = ADVANCED_FACE ( 'NONE', ( #332 ), #667, .F. ) ;
#132 = CARTESIAN_POINT ( 'NONE',  ( 1.587499999999999911, -1.268411506570324088, 9.524999999999993250 ) ) ;
#133 = ORIENTED_EDGE ( 'NONE', *, *, #726, .F. ) ;
#134 = CARTESIAN_POINT ( 'NONE',  ( -1.587499999999999911, -1.268411506570324088, 9.524999999999993250 ) ) ;
#135 = DIRECTION ( 'NONE',  ( -0.000000000000000000, -0.000000000000000000, -1.000000000000000000 ) ) ;
#136 = DIRECTION ( 'NONE',  ( -0.000000000000000000, -0.000000000000000000, 1.000000000000000000 ) ) ;
#137 = ORIENTED_EDGE ( 'NONE', *, *, #70, .T. ) ;
#138 = DIRECTION ( 'NONE',  ( 0.000000000000000000, 0.000000000000000000, 1.000000000000000000 ) ) ;
#139 = ORIENTED_EDGE ( 'NONE', *, *, #349, .T. ) ;
#140 = DIRECTION ( 'NONE',  ( 1.000000000000000000, 0.000000000000000000, 0.000000000000000000 ) ) ;
#141 = ORIENTED_EDGE ( 'NONE', *, *, #789, .T. ) ;
#142 = EDGE_CURVE ( 'NONE', #408, #673, #731, .T. ) ;
#143 = CARTESIAN_POINT ( 'NONE',  ( -1.587500000000000355, -1.944126793646423534E-16, 14.95822736169286671 ) ) ;
#144 = CIRCLE ( 'NONE', #128, 2.399999999999999911 ) ;
#145 =( GEOMETRIC_REPRESENTATION_CONTEXT ( 3 ) GLOBAL_UNCERTAINTY_ASSIGNED_CONTEXT ( ( #55 ) ) GLOBAL_UNIT_ASSIGNED_CONTEXT ( ( #922, #202, #129 ) ) REPRESENTATION_CONTEXT ( 'NONE', 'WORKASPACE' ) );
#146 = DIRECTION ( 'NONE',  ( 0.000000000000000000, -1.000000000000000000, 0.000000000000000000 ) ) ;
#147 = CARTESIAN_POINT ( 'NONE',  ( -1.587500000000000577, 0.4277385810629843466, 14.95198654358310897 ) ) ;
#148 = DATE_AND_TIME ( #717, #913 ) ;
#149 = VERTEX_POINT ( 'NONE', #25 ) ;
#150 = LINE ( 'NONE', #569, #69 ) ;
#151 = CARTESIAN_POINT ( 'NONE',  ( 1.587500000000000355, 0.4276219574846458760, 14.95199639200008690 ) ) ;
#152 = PERSON_AND_ORGANIZATION ( #825, #502 ) ;
#153 = VERTEX_POINT ( 'NONE', #596 ) ;
#154 = EDGE_CURVE ( 'NONE', #414, #299, #464, .T. ) ;
#155 = DIRECTION ( 'NONE',  ( 0.000000000000000000, 0.000000000000000000, -1.000000000000000000 ) ) ;
#156 = AXIS2_PLACEMENT_3D ( 'NONE', #833, #67, #915 ) ;
#157 = ORIENTED_EDGE ( 'NONE', *, *, #39, .T. ) ;
#158 = DIRECTION ( 'NONE',  ( 1.000000000000000000, 0.000000000000000000, 0.000000000000000000 ) ) ;
#159 = VECTOR ( 'NONE', #146, 1000.000000000000000 ) ;
#160 = DIRECTION ( 'NONE',  ( 1.000000000000000000, 0.000000000000000000, 0.000000000000000000 ) ) ;
#161 = EDGE_LOOP ( 'NONE', ( #68, #277, #501, #301 ) ) ;
#162 = CALENDAR_DATE ( 2022, 6, 6 ) ;
#163 = B_SPLINE_CURVE_WITH_KNOTS ( 'NONE', 3,
 ( #342, #346, #410, #623, #618, #837, #205, #130 ),
 .UNSPECIFIED., .F., .F.,
 ( 4, 2, 2, 4 ),
 ( 0.01485345774306985611, 0.01548583974386951237, 0.01611822174466916863, 0.01738298574626848114 ),
 .UNSPECIFIED. ) ;
#164 = LINE ( 'NONE', #506, #873 ) ;
#165 = CARTESIAN_POINT ( 'NONE',  ( -1.268411506570324088, -1.587499999999999911, 9.524999999999993250 ) ) ;
#166 = ADVANCED_FACE ( 'NONE', ( #320 ), #572, .T. ) ;
#167 = CARTESIAN_POINT ( 'NONE',  ( -1.587500000000000355, -1.587500000000000355, 9.525000000000000355 ) ) ;
#168 = DIRECTION ( 'NONE',  ( 1.000000000000000000, 0.000000000000000000, 0.000000000000000000 ) ) ;
#169 = AXIS2_PLACEMENT_3D ( 'NONE', #282, #762, #844 ) ;
#170 = ADVANCED_FACE ( 'NONE', ( #815, #745 ), #110, .T. ) ;
#171 = DIRECTION ( 'NONE',  ( 0.000000000000000000, 0.000000000000000000, 1.000000000000000000 ) ) ;
#172 = CARTESIAN_POINT ( 'NONE',  ( -0.8571092511719566875, 1.587500000000000799, -14.93727379706278136 ) ) ;
#173 = AXIS2_PLACEMENT_3D ( 'NONE', #290, #799, #366 ) ;
#174 = CIRCLE ( 'NONE', #57, 2.125000000000008882 ) ;
#175 = CARTESIAN_POINT ( 'NONE',  ( -1.587499999999999911, -1.268411506570324088, -14.83491914209798423 ) ) ;
#176 = VERTEX_POINT ( 'NONE', #677 ) ;
#177 = CARTESIAN_POINT ( 'NONE',  ( 1.587500000000000355, -0.2114796877013867538, -14.95822736169287026 ) ) ;
#178 = ADVANCED_FACE ( 'NONE', ( #42 ), #803, .T. ) ;
#179 = DIRECTION ( 'NONE',  ( 1.000000000000000000, 0.000000000000000000, 0.000000000000000000 ) ) ;
#180 = ORIENTED_EDGE ( 'NONE', *, *, #684, .T. ) ;
#181 = DIRECTION ( 'NONE',  ( 0.000000000000000000, 0.000000000000000000, 1.000000000000000000 ) ) ;
#182 = CARTESIAN_POINT ( 'NONE',  ( -1.268411506570324088, 1.587499999999999911, -14.83491914209798423 ) ) ;
#183 = EDGE_CURVE ( 'NONE', #27, #660, #266, .T. ) ;
#184 = DIRECTION ( 'NONE',  ( 1.000000000000000000, 0.000000000000000000, 0.000000000000000000 ) ) ;
#185 = VERTEX_POINT ( 'NONE', #629 ) ;
#186 = CARTESIAN_POINT ( 'NONE',  ( 1.587499999999999911, -1.268411506570324088, -14.83491914209798246 ) ) ;
#187 = DIRECTION ( 'NONE',  ( 1.000000000000000000, 0.000000000000000000, 0.000000000000000000 ) ) ;
#188 = LINE ( 'NONE', #36, #481 ) ;
#189 = VECTOR ( 'NONE', #429, 1000.000000000000000 ) ;
#190 = VECTOR ( 'NONE', #491, 1000.000000000000000 ) ;
#191 = ORIENTED_EDGE ( 'NONE', *, *, #638, .F. ) ;
#192 = CARTESIAN_POINT ( 'NONE',  ( 1.060147506033616072, -1.587500000000000355, 14.88674669625518021 ) ) ;
#193 = CARTESIAN_POINT ( 'NONE',  ( 0.8571092511719566875, -1.587500000000000799, -14.93727379706278136 ) ) ;
#194 = FACE_OUTER_BOUND ( 'NONE', #329, .T. ) ;
#195 = ORIENTED_EDGE ( 'NONE', *, *, #89, .T. ) ;
#196 = EDGE_CURVE ( 'NONE', #845, #907, #214, .T. ) ;
#197 = DIRECTION ( 'NONE',  ( 1.000000000000000000, 0.000000000000000000, 0.000000000000000000 ) ) ;
#198 = DIRECTION ( 'NONE',  ( 0.000000000000000000, 0.000000000000000000, -1.000000000000000000 ) ) ;
#199 = MANIFOLD_SOLID_BREP ( '228-2500-078', #880 ) ;
#200 = DIRECTION ( 'NONE',  ( 0.000000000000000000, 0.000000000000000000, -1.000000000000000000 ) ) ;
#201 = ORIENTED_EDGE ( 'NONE', *, *, #543, .F. ) ;
#202 =( NAMED_UNIT ( * ) PLANE_ANGLE_UNIT ( ) SI_UNIT ( $, .RADIAN. ) );
#203 = EDGE_CURVE ( 'NONE', #579, #626, #33, .T. ) ;
#204 = AXIS2_PLACEMENT_3D ( 'NONE', #475, #72, #702 ) ;
#205 = CARTESIAN_POINT ( 'NONE',  ( 0.8571092511719569096, 1.587500000000000799, 14.93727379706278136 ) ) ;
#206 = DIRECTION ( 'NONE',  ( -0.000000000000000000, -0.000000000000000000, 1.000000000000000000 ) ) ;
#207 = VERTEX_POINT ( 'NONE', #562 ) ;
#208 = FACE_OUTER_BOUND ( 'NONE', #368, .T. ) ;
#209 = APPROVAL ( #222, 'UNSPECIFIED' ) ;
#210 = ADVANCED_FACE ( 'NONE', ( #288 ), #52, .F. ) ;
#211 = DIRECTION ( 'NONE',  ( 0.000000000000000000, 0.000000000000000000, 1.000000000000000000 ) ) ;
#212 = VERTEX_POINT ( 'NONE', #479 ) ;
#213 = DIRECTION ( 'NONE',  ( 1.000000000000000000, 0.000000000000000000, 0.000000000000000000 ) ) ;
#214 = LINE ( 'NONE', #839, #514 ) ;
#215 = EDGE_CURVE ( 'NONE', #775, #541, #882, .T. ) ;
#216 = ORIENTED_EDGE ( 'NONE', *, *, #386, .T. ) ;
#217 = DIRECTION ( 'NONE',  ( 0.000000000000000000, 0.000000000000000000, -1.000000000000000000 ) ) ;
#218 = ORIENTED_EDGE ( 'NONE', *, *, #101, .T. ) ;
#219 = AXIS2_PLACEMENT_3D ( 'NONE', #688, #900, #620 ) ;
#220 = CARTESIAN_POINT ( 'NONE',  ( -1.268411506570324088, -1.587500000000000577, 8.725000000000001421 ) ) ;
#221 = ORIENTED_EDGE ( 'NONE', *, *, #543, .T. ) ;
#222 = APPROVAL_STATUS ( 'not_yet_approved' ) ;
#223 = CIRCLE ( 'NONE', #283, 2.032000000000000028 ) ;
#224 = LINE ( 'NONE', #653, #633 ) ;
#225 = FACE_OUTER_BOUND ( 'NONE', #606, .T. ) ;
#226 = COORDINATED_UNIVERSAL_TIME_OFFSET ( 6, 0, .BEHIND. ) ;
#227 = ORIENTED_EDGE ( 'NONE', *, *, #183, .F. ) ;
#228 = CARTESIAN_POINT ( 'NONE',  ( -1.587500000000000133, 1.061532360077856563, -14.88640206829359336 ) ) ;
#229 = VERTEX_POINT ( 'NONE', #132 ) ;
#230 = DATE_TIME_ROLE ( 'classification_date' ) ;
#231 = ADVANCED_FACE ( 'NONE', ( #194 ), #422, .T. ) ;
#232 = CARTESIAN_POINT ( 'NONE',  ( 0.000000000000000000, 0.000000000000000000, -14.83491914209798423 ) ) ;
#233 = ORIENTED_EDGE ( 'NONE', *, *, #312, .T. ) ;
#234 = CC_DESIGN_APPROVAL ( #391, ( #719 ) ) ;
#235 = AXIS2_PLACEMENT_3D ( 'NONE', #564, #341, #774 ) ;
#236 = CARTESIAN_POINT ( 'NONE',  ( -1.587500000000000355, 1.587500000000000355, 14.98600000000000065 ) ) ;
#237 = ORIENTED_EDGE ( 'NONE', *, *, #287, .T. ) ;
#238 = DIRECTION ( 'NONE',  ( 0.000000000000000000, 0.000000000000000000, 1.000000000000000000 ) ) ;
#239 = DIRECTION ( 'NONE',  ( -0.000000000000000000, -0.000000000000000000, 1.000000000000000000 ) ) ;
#240 = EDGE_CURVE ( 'NONE', #579, #788, #600, .T. ) ;
#241 = APPLICATION_CONTEXT ( 'configuration controlled 3d designs of mechanical parts and assemblies' ) ;
#242 = B_SPLINE_CURVE_WITH_KNOTS ( 'NONE', 3,
 ( #328, #192, #897, #394, #318, #743, #603, #808 ),
 .UNSPECIFIED., .F., .F.,
 ( 4, 2, 2, 4 ),
 ( 0.01485345774306985611, 0.01548583974386951237, 0.01611822174466916863, 0.01738298574626848114 ),
 .UNSPECIFIED. ) ;
#243 = DIRECTION ( 'NONE',  ( 0.000000000000000000, 0.000000000000000000, -1.000000000000000000 ) ) ;
#244 = CARTESIAN_POINT ( 'NONE',  ( -1.587500000000000355, -0.8513200635100128810, -14.91637755531811393 ) ) ;
#245 = VERTEX_POINT ( 'NONE', #126 ) ;
#246 = CC_DESIGN_PERSON_AND_ORGANIZATION_ASSIGNMENT ( #787, #8, ( #855 ) ) ;
#247 = EDGE_CURVE ( 'NONE', #626, #579, #392, .T. ) ;
#248 = CARTESIAN_POINT ( 'NONE',  ( -1.268411506570324088, 1.587499999999999911, -14.83491914209798423 ) ) ;
#249 = APPROVAL_PERSON_ORGANIZATION ( #722, #440, #508 ) ;
#250 = CARTESIAN_POINT ( 'NONE',  ( -0.4342314039556047778, 1.587500000000000355, -14.95785171744314113 ) ) ;
#251 = AXIS2_PLACEMENT_3D ( 'NONE', #790, #439, #448 ) ;
#252 = DIRECTION ( 'NONE',  ( -0.000000000000000000, -0.000000000000000000, 1.000000000000000000 ) ) ;
#253 = ORIENTED_EDGE ( 'NONE', *, *, #411, .T. ) ;
#254 = FACE_OUTER_BOUND ( 'NONE', #357, .T. ) ;
#255 = EDGE_CURVE ( 'NONE', #269, #245, #370, .T. ) ;
#256 = DIRECTION ( 'NONE',  ( -1.000000000000000000, 0.000000000000000000, 0.000000000000000000 ) ) ;
#257 = DIRECTION ( 'NONE',  ( -0.000000000000000000, -0.000000000000000000, 1.000000000000000000 ) ) ;
#258 = B_SPLINE_CURVE_WITH_KNOTS ( 'NONE', 3,
 ( #306, #77, #313, #151, #7, #295 ),
 .UNSPECIFIED., .F., .F.,
 ( 4, 2, 4 ),
 ( 0.01485345774306985611, 0.01548163471194342541, 0.01610981168081699472 ),
 .UNSPECIFIED. ) ;
#259 = ORIENTED_EDGE ( 'NONE', *, *, #16, .T. ) ;
#260 = CARTESIAN_POINT ( 'NONE',  ( 1.587500000000000355, 0.000000000000000000, -14.95822736169286671 ) ) ;
#261 = DIRECTION ( 'NONE',  ( -1.000000000000000000, 0.000000000000000000, 0.000000000000000000 ) ) ;
#262 = VECTOR ( 'NONE', #239, 1000.000000000000000 ) ;
#263 = ORIENTED_EDGE ( 'NONE', *, *, #894, .F. ) ;
#264 = DIRECTION ( 'NONE',  ( 0.000000000000000000, 0.000000000000000000, -1.000000000000000000 ) ) ;
#265 = CARTESIAN_POINT ( 'NONE',  ( 0.000000000000000000, 0.000000000000000000, 14.83491914209798423 ) ) ;
#266 = LINE ( 'NONE', #417, #838 ) ;
#267 = AXIS2_PLACEMENT_3D ( 'NONE', #406, #211, #489 ) ;
#268 = CIRCLE ( 'NONE', #904, 2.032000000000000028 ) ;
#269 = VERTEX_POINT ( 'NONE', #906 ) ;
#270 = DIRECTION ( 'NONE',  ( 1.000000000000000000, 0.000000000000000000, 0.000000000000000000 ) ) ;
#271 = CARTESIAN_POINT ( 'NONE',  ( 0.000000000000000000, 0.000000000000000000, -14.98600000000000065 ) ) ;
#272 = FACE_OUTER_BOUND ( 'NONE', #487, .T. ) ;
#273 = ADVANCED_FACE ( 'NONE', ( #343, #352 ), #120, .F. ) ;
#274 = EDGE_LOOP ( 'NONE', ( #853, #322, #221, #467 ) ) ;
#275 = CARTESIAN_POINT ( 'NONE',  ( 1.587500000000000355, -1.587500000000000355, 14.98600000000000065 ) ) ;
#276 = DIRECTION ( 'NONE',  ( 0.000000000000000000, -0.000000000000000000, 1.000000000000000000 ) ) ;
#277 = ORIENTED_EDGE ( 'NONE', *, *, #759, .T. ) ;
#278 = DIRECTION ( 'NONE',  ( -0.000000000000000000, -0.000000000000000000, 1.000000000000000000 ) ) ;
#279 = AXIS2_PLACEMENT_3D ( 'NONE', #827, #412, #694 ) ;
#280 = ADVANCED_FACE ( 'NONE', ( #272 ), #554, .F. ) ;
#281 = CARTESIAN_POINT ( 'NONE',  ( 2.399999999999999911, 0.000000000000000000, 9.525000000000000355 ) ) ;
#282 = CARTESIAN_POINT ( 'NONE',  ( 0.000000000000000000, 0.000000000000000000, -14.98599999999999888 ) ) ;
#283 = AXIS2_PLACEMENT_3D ( 'NONE', #553, #198, #914 ) ;
#284 = ORIENTED_EDGE ( 'NONE', *, *, #860, .T. ) ;
#285 = VECTOR ( 'NONE', #770, 1000.000000000000000 ) ;
#286 = EDGE_LOOP ( 'NONE', ( #103, #901, #393, #896, #703 ) ) ;
#287 = EDGE_CURVE ( 'NONE', #12, #665, #558, .T. ) ;
#288 = FACE_OUTER_BOUND ( 'NONE', #689, .T. ) ;
#289 = ORIENTED_EDGE ( 'NONE', *, *, #693, .F. ) ;
#290 = CARTESIAN_POINT ( 'NONE',  ( 0.000000000000000000, 0.000000000000000000, -12.86099999999999000 ) ) ;
#291 = ORIENTED_EDGE ( 'NONE', *, *, #240, .F. ) ;
#292 = APPLICATION_PROTOCOL_DEFINITION ( 'international standard', 'config_control_design', 1994, #241 ) ;
#293 = AXIS2_PLACEMENT_3D ( 'NONE', #390, #168, #613 ) ;
#294 = CARTESIAN_POINT ( 'NONE',  ( -1.587500000000000577, 0.8514389605504939507, -14.91636751577920172 ) ) ;
#295 = CARTESIAN_POINT ( 'NONE',  ( 1.587500000000000355, 0.000000000000000000, 14.95822736169286671 ) ) ;
#296 = EDGE_CURVE ( 'NONE', #668, #775, #485, .T. ) ;
#297 = APPROVAL_ROLE ( '' ) ;
#298 = VECTOR ( 'NONE', #766, 1000.000000000000000 ) ;
#299 = VERTEX_POINT ( 'NONE', #920 ) ;
#300 = DIRECTION ( 'NONE',  ( -1.000000000000000000, 0.000000000000000000, 0.000000000000000000 ) ) ;
#301 = ORIENTED_EDGE ( 'NONE', *, *, #378, .T. ) ;
#302 = CC_DESIGN_DATE_AND_TIME_ASSIGNMENT ( #307, #869, ( #719 ) ) ;
#303 = APPROVAL_DATE_TIME ( #148, #209 ) ;
#304 = ORIENTED_EDGE ( 'NONE', *, *, #375, .F. ) ;
#305 = CARTESIAN_POINT ( 'NONE',  ( -1.268411506570324088, -1.587499999999999911, -14.98600000000000065 ) ) ;
#306 = CARTESIAN_POINT ( 'NONE',  ( 1.587500000000000355, 1.268411506570323866, 14.83491914209798423 ) ) ;
#307 = DATE_AND_TIME ( #162, #870 ) ;
#308 = DIRECTION ( 'NONE',  ( 0.000000000000000000, 0.000000000000000000, -1.000000000000000000 ) ) ;
#309 = CARTESIAN_POINT ( 'NONE',  ( 1.587499999999999911, -1.268411506570324088, -14.98600000000000065 ) ) ;
#310 = VECTOR ( 'NONE', #243, 1000.000000000000000 ) ;
#311 = CIRCLE ( 'NONE', #749, 2.032000000000000028 ) ;
#312 = EDGE_CURVE ( 'NONE', #23, #907, #338, .T. ) ;
#313 = CARTESIAN_POINT ( 'NONE',  ( 1.587500000000000577, 0.8514389605504937286, 14.91636751577920350 ) ) ;
#314 = PLANE ( 'NONE',  #97 ) ;
#315 = CARTESIAN_POINT ( 'NONE',  ( 1.587500000000000355, 0.8513200635100128810, -14.91637755531811393 ) ) ;
#316 = CARTESIAN_POINT ( 'NONE',  ( 1.587500000000000355, 0.000000000000000000, 14.95822736169286671 ) ) ;
#317 = EDGE_LOOP ( 'NONE', ( #476, #218, #191, #875 ) ) ;
#318 = CARTESIAN_POINT ( 'NONE',  ( 0.2043756380772877301, -1.587500000000000799, 14.95840961896380072 ) ) ;
#319 = CARTESIAN_POINT ( 'NONE',  ( -1.060147506033617848, -1.587500000000000355, -14.88674669625518376 ) ) ;
#320 = FACE_OUTER_BOUND ( 'NONE', #821, .T. ) ;
#321 = VECTOR ( 'NONE', #261, 1000.000000000000000 ) ;
#322 = ORIENTED_EDGE ( 'NONE', *, *, #287, .F. ) ;
#323 = CARTESIAN_POINT ( 'NONE',  ( -1.587500000000000355, 1.587500000000000355, 14.98600000000000065 ) ) ;
#324 = CARTESIAN_POINT ( 'NONE',  ( 1.587500000000000355, -1.587500000000000355, 14.98600000000000065 ) ) ;
#325 = VECTOR ( 'NONE', #843, 1000.000000000000000 ) ;
#326 = CARTESIAN_POINT ( 'NONE',  ( 0.000000000000000000, 0.000000000000000000, 9.525000000000000355 ) ) ;
#327 = VERTEX_POINT ( 'NONE', #425 ) ;
#328 = CARTESIAN_POINT ( 'NONE',  ( 1.268411506570323866, -1.587500000000000355, 14.83491914209798423 ) ) ;
#329 = EDGE_LOOP ( 'NONE', ( #237, #601, #419, #881 ) ) ;
#330 = CARTESIAN_POINT ( 'NONE',  ( 1.587500000000000133, 1.268411506570324088, 8.725000000000001421 ) ) ;
#331 = CARTESIAN_POINT ( 'NONE',  ( -1.587499999999999911, 1.268411506570324088, -14.83491914209798246 ) ) ;
#332 = FACE_OUTER_BOUND ( 'NONE', #388, .T. ) ;
#333 = VERTEX_POINT ( 'NONE', #708 ) ;
#334 = CARTESIAN_POINT ( 'NONE',  ( 0.000000000000000000, 0.000000000000000000, 14.83491914209798423 ) ) ;
#335 = DIRECTION ( 'NONE',  ( 0.000000000000000000, 0.000000000000000000, -1.000000000000000000 ) ) ;
#336 = EDGE_CURVE ( 'NONE', #665, #541, #358, .T. ) ;
#337 = DIRECTION ( 'NONE',  ( 0.000000000000000000, 0.000000000000000000, -1.000000000000000000 ) ) ;
#338 = CIRCLE ( 'NONE', #822, 2.032000000000000028 ) ;
#339 = CIRCLE ( 'NONE', #235, 2.032000000000000028 ) ;
#340 = VERTEX_POINT ( 'NONE', #510 ) ;
#341 = DIRECTION ( 'NONE',  ( -0.000000000000000000, -0.000000000000000000, -1.000000000000000000 ) ) ;
#342 = CARTESIAN_POINT ( 'NONE',  ( -1.268411506570323866, 1.587500000000000355, 14.83491914209798423 ) ) ;
#343 = FACE_BOUND ( 'NONE', #614, .T. ) ;
#344 = ORIENTED_EDGE ( 'NONE', *, *, #247, .F. ) ;
#345 = FACE_OUTER_BOUND ( 'NONE', #816, .T. ) ;
#346 = CARTESIAN_POINT ( 'NONE',  ( -1.060147506033616072, 1.587500000000000355, 14.88674669625518021 ) ) ;
#347 = DIRECTION ( 'NONE',  ( 1.000000000000000000, 0.000000000000000000, 0.000000000000000000 ) ) ;
#348 = ORIENTED_EDGE ( 'NONE', *, *, #820, .F. ) ;
#349 = EDGE_CURVE ( 'NONE', #541, #778, #224, .T. ) ;
#350 = CARTESIAN_POINT ( 'NONE',  ( -1.245064030267288402, -2.006622987633880009E-16, 14.98599999999999888 ) ) ;
#351 = ORIENTED_EDGE ( 'NONE', *, *, #255, .F. ) ;
#352 = FACE_OUTER_BOUND ( 'NONE', #373, .T. ) ;
#353 = AXIS2_PLACEMENT_3D ( 'NONE', #561, #135, #400 ) ;
#354 = EDGE_LOOP ( 'NONE', ( #71, #359 ) ) ;
#355 = AXIS2_PLACEMENT_3D ( 'NONE', #56, #683, #622 ) ;
#356 = B_SPLINE_CURVE_WITH_KNOTS ( 'NONE', 3,
 ( #469, #319, #96, #736, #62, #421, #193, #478 ),
 .UNSPECIFIED., .F., .F.,
 ( 4, 2, 2, 4 ),
 ( 0.01485345774306985438, 0.01548583974386951063, 0.01611822174466916863, 0.01738298574626848114 ),
 .UNSPECIFIED. ) ;
#357 = EDGE_LOOP ( 'NONE', ( #713, #344 ) ) ;
#358 = LINE ( 'NONE', #639, #443 ) ;
#359 = ORIENTED_EDGE ( 'NONE', *, *, #503, .T. ) ;
#360 = APPROVAL_DATE_TIME ( #374, #391 ) ;
#361 = ADVANCED_FACE ( 'NONE', ( #516 ), #856, .T. ) ;
#362 = CARTESIAN_POINT ( 'NONE',  ( -1.587500000000000355, 0.2114796877013867538, -14.95822736169287026 ) ) ;
#363 = ORIENTED_EDGE ( 'NONE', *, *, #860, .F. ) ;
#364 = CALENDAR_DATE ( 2022, 6, 6 ) ;
#365 = AXIS2_PLACEMENT_3D ( 'NONE', #382, #664, #540 ) ;
#366 = DIRECTION ( 'NONE',  ( 1.000000000000000000, 0.000000000000000000, 0.000000000000000000 ) ) ;
#367 = ADVANCED_FACE ( 'NONE', ( #94 ), #92, .T. ) ;
#368 = EDGE_LOOP ( 'NONE', ( #763, #910, #513, #402 ) ) ;
#369 = PERSON_AND_ORGANIZATION ( #825, #502 ) ;
#370 = CIRCLE ( 'NONE', #795, 2.032000000000000028 ) ;
#371 = ORIENTED_EDGE ( 'NONE', *, *, #106, .T. ) ;
#372 = DIRECTION ( 'NONE',  ( 1.000000000000000000, 0.000000000000000000, 0.000000000000000000 ) ) ;
#373 = EDGE_LOOP ( 'NONE', ( #568, #127 ) ) ;
#374 = DATE_AND_TIME ( #783, #456 ) ;
#375 = EDGE_CURVE ( 'NONE', #921, #149, #886, .T. ) ;
#376 = DIRECTION ( 'NONE',  ( -0.000000000000000000, -0.000000000000000000, -1.000000000000000000 ) ) ;
#377 = ORIENTED_EDGE ( 'NONE', *, *, #142, .F. ) ;
#378 = EDGE_CURVE ( 'NONE', #153, #340, #150, .T. ) ;
#379 = ORIENTED_EDGE ( 'NONE', *, *, #789, .F. ) ;
#380 = AXIS2_PLACEMENT_3D ( 'NONE', #465, #114, #104 ) ;
#381 = AXIS2_PLACEMENT_3D ( 'NONE', #122, #758, #270 ) ;
#382 = CARTESIAN_POINT ( 'NONE',  ( 0.000000000000000000, 0.000000000000000000, 8.725000000000001421 ) ) ;
#383 = ORIENTED_EDGE ( 'NONE', *, *, #154, .F. ) ;
#384 = CARTESIAN_POINT ( 'NONE',  ( 0.000000000000000000, 0.000000000000000000, 8.724999999999999645 ) ) ;
#385 = DIRECTION ( 'NONE',  ( 0.000000000000000000, 0.000000000000000000, 1.000000000000000000 ) ) ;
#386 = EDGE_CURVE ( 'NONE', #642, #207, #164, .T. ) ;
#387 = FACE_OUTER_BOUND ( 'NONE', #769, .T. ) ;
#388 = EDGE_LOOP ( 'NONE', ( #636, #646, #678, #830, #589 ) ) ;
#389 = PLANE ( 'NONE',  #380 ) ;
#390 = CARTESIAN_POINT ( 'NONE',  ( -1.587500000000000355, -1.587500000000000355, 14.98600000000000065 ) ) ;
#391 = APPROVAL ( #573, 'UNSPECIFIED' ) ;
#392 = CIRCLE ( 'NONE', #169, 1.245064030267288402 ) ;
#393 = ORIENTED_EDGE ( 'NONE', *, *, #726, .T. ) ;
#394 = CARTESIAN_POINT ( 'NONE',  ( 0.4219230645619462261, -1.587500000000000133, 14.95230730355362603 ) ) ;
#395 = LINE ( 'NONE', #167, #720 ) ;
#396 = AXIS2_PLACEMENT_3D ( 'NONE', #384, #24, #599 ) ;
#397 = DIRECTION ( 'NONE',  ( 1.000000000000000000, 0.000000000000000000, -0.000000000000000000 ) ) ;
#398 = ORIENTED_EDGE ( 'NONE', *, *, #418, .T. ) ;
#399 = DIRECTION ( 'NONE',  ( -0.000000000000000000, -0.000000000000000000, 1.000000000000000000 ) ) ;
#400 = DIRECTION ( 'NONE',  ( 1.000000000000000000, 5.329070518200751394E-15, 0.000000000000000000 ) ) ;
#401 = CARTESIAN_POINT ( 'NONE',  ( -1.268411506570324088, -1.587499999999999911, -14.83491914209798246 ) ) ;
#402 = ORIENTED_EDGE ( 'NONE', *, *, #829, .T. ) ;
#403 = DIRECTION ( 'NONE',  ( -0.000000000000000000, -0.000000000000000000, 1.000000000000000000 ) ) ;
#404 = ADVANCED_FACE ( 'NONE', ( #872 ), #718, .F. ) ;
#405 = LINE ( 'NONE', #760, #285 ) ;
#406 = CARTESIAN_POINT ( 'NONE',  ( 0.000000000000000000, 0.000000000000000000, 8.724999999999999645 ) ) ;
#407 = PRODUCT_DEFINITION_SHAPE ( 'NONE', 'NONE',  #719 ) ;
#408 = VERTEX_POINT ( 'NONE', #220 ) ;
#409 = CARTESIAN_POINT ( 'NONE',  ( -1.587500000000000355, -0.4276219574846458760, 14.95199639200008690 ) ) ;
#410 = CARTESIAN_POINT ( 'NONE',  ( -0.8486262390323805471, 1.587500000000000355, 14.91676882282394700 ) ) ;
#411 = EDGE_CURVE ( 'NONE', #778, #668, #548, .T. ) ;
#412 = DIRECTION ( 'NONE',  ( 0.000000000000000000, 0.000000000000000000, -1.000000000000000000 ) ) ;
#413 = CIRCLE ( 'NONE', #902, 2.032000000000000028 ) ;
#414 = VERTEX_POINT ( 'NONE', #499 ) ;
#415 = DIRECTION ( 'NONE',  ( -1.000000000000000000, 0.000000000000000000, 0.000000000000000000 ) ) ;
#416 = CARTESIAN_POINT ( 'NONE',  ( -1.587500000000000355, -1.587500000000000355, 14.98600000000000065 ) ) ;
#417 = CARTESIAN_POINT ( 'NONE',  ( 2.399999999999999911, 0.000000000000000000, 8.724999999999999645 ) ) ;
#418 = EDGE_CURVE ( 'NONE', #775, #673, #864, .T. ) ;
#419 = ORIENTED_EDGE ( 'NONE', *, *, #75, .T. ) ;
#420 = CARTESIAN_POINT ( 'NONE',  ( 0.000000000000000000, 0.000000000000000000, -14.98600000000000065 ) ) ;
#421 = CARTESIAN_POINT ( 'NONE',  ( 0.4342314039556047778, -1.587500000000000355, -14.95785171744314113 ) ) ;
#422 = CYLINDRICAL_SURFACE ( 'NONE', #204, 2.032000000000000028 ) ;
#423 = ORIENTED_EDGE ( 'NONE', *, *, #196, .T. ) ;
#424 = APPROVAL_PERSON_ORGANIZATION ( #152, #209, #854 ) ;
#425 = CARTESIAN_POINT ( 'NONE',  ( -1.268411506570324088, 1.587500000000000133, 9.525000000000000355 ) ) ;
#426 = ORIENTED_EDGE ( 'NONE', *, *, #565, .F. ) ;
#427 = VECTOR ( 'NONE', #883, 1000.000000000000000 ) ;
#428 = EDGE_CURVE ( 'NONE', #665, #757, #486, .T. ) ;
#429 = DIRECTION ( 'NONE',  ( -0.000000000000000000, -0.000000000000000000, 1.000000000000000000 ) ) ;
#430 = ADVANCED_BREP_SHAPE_REPRESENTATION ( '228-2500-078', ( #199, #824 ), #145 ) ;
#431 = ORIENTED_EDGE ( 'NONE', *, *, #638, .T. ) ;
#432 = COORDINATED_UNIVERSAL_TIME_OFFSET ( 6, 0, .BEHIND. ) ;
#433 = ORIENTED_EDGE ( 'NONE', *, *, #565, .T. ) ;
#434 = EDGE_CURVE ( 'NONE', #95, #408, #13, .T. ) ;
#435 = DIRECTION ( 'NONE',  ( 0.000000000000000000, -1.000000000000000000, 0.000000000000000000 ) ) ;
#436 = LINE ( 'NONE', #309, #19 ) ;
#437 = PERSON_AND_ORGANIZATION_ROLE ( 'design_owner' ) ;
#438 = EDGE_LOOP ( 'NONE', ( #709, #4, #559, #133, #351, #426, #43, #383 ) ) ;
#439 = DIRECTION ( 'NONE',  ( -0.000000000000000000, -0.000000000000000000, 1.000000000000000000 ) ) ;
#440 = APPROVAL ( #442, 'UNSPECIFIED' ) ;
#441 = ORIENTED_EDGE ( 'NONE', *, *, #570, .T. ) ;
#442 = APPROVAL_STATUS ( 'not_yet_approved' ) ;
#443 = VECTOR ( 'NONE', #300, 1000.000000000000000 ) ;
#444 = ORIENTED_EDGE ( 'NONE', *, *, #503, .F. ) ;
#445 = CARTESIAN_POINT ( 'NONE',  ( 1.587500000000000355, -1.587500000000000355, 8.724999999999999645 ) ) ;
#446 = EDGE_LOOP ( 'NONE', ( #649, #793, #433, #610 ) ) ;
#447 = EDGE_CURVE ( 'NONE', #505, #757, #794, .T. ) ;
#448 = DIRECTION ( 'NONE',  ( 1.000000000000000000, 0.000000000000000000, 0.000000000000000000 ) ) ;
#449 = CYLINDRICAL_SURFACE ( 'NONE', #544, 2.399999999999999911 ) ;
#450 = VECTOR ( 'NONE', #609, 1000.000000000000000 ) ;
#451 = AXIS2_PLACEMENT_3D ( 'NONE', #326, #466, #47 ) ;
#452 = CARTESIAN_POINT ( 'NONE',  ( 1.268411506570324088, 1.587499999999999911, -14.83491914209798246 ) ) ;
#453 = LINE ( 'NONE', #802, #321 ) ;
#454 = CARTESIAN_POINT ( 'NONE',  ( 1.587500000000000133, -1.061532360077856563, -14.88640206829359336 ) ) ;
#455 = EDGE_CURVE ( 'NONE', #668, #414, #617, .T. ) ;
#456 = LOCAL_TIME ( 13, 56, 59.00000000000000000, #504 ) ;
#457 = CARTESIAN_POINT ( 'NONE',  ( 1.587500000000000133, 0.2143109880596212602, -14.95822736169286493 ) ) ;
#458 = CARTESIAN_POINT ( 'NONE',  ( 1.587500000000000577, -0.4277385810629843466, 14.95198654358310897 ) ) ;
#459 = ORIENTED_EDGE ( 'NONE', *, *, #31, .T. ) ;
#460 = CARTESIAN_POINT ( 'NONE',  ( 1.587500000000000355, -1.587500000000000355, 9.525000000000000355 ) ) ;
#461 = CC_DESIGN_PERSON_AND_ORGANIZATION_ASSIGNMENT ( #641, #74, ( #719 ) ) ;
#462 = DIRECTION ( 'NONE',  ( 0.000000000000000000, 0.000000000000000000, 1.000000000000000000 ) ) ;
#463 = ORIENTED_EDGE ( 'NONE', *, *, #312, .F. ) ;
#464 = B_SPLINE_CURVE_WITH_KNOTS ( 'NONE', 3,
 ( #30, #737, #879, #244, #529, #175 ),
 .UNSPECIFIED., .F., .F.,
 ( 4, 2, 4 ),
 ( 1.905938025164285192E-19, 0.0006365870327257439716, 0.001273174065451487726 ),
 .UNSPECIFIED. ) ;
#465 = CARTESIAN_POINT ( 'NONE',  ( -1.587500000000000355, 1.587500000000000355, -14.98600000000000065 ) ) ;
#466 = DIRECTION ( 'NONE',  ( -0.000000000000000000, -0.000000000000000000, -1.000000000000000000 ) ) ;
#467 = ORIENTED_EDGE ( 'NONE', *, *, #349, .F. ) ;
#468 = CARTESIAN_POINT ( 'NONE',  ( -1.587500000000000355, -1.268411506570324088, 8.724999999999999645 ) ) ;
#469 = CARTESIAN_POINT ( 'NONE',  ( -1.268411506570324088, -1.587499999999999911, -14.83491914209798246 ) ) ;
#470 = ADVANCED_FACE ( 'NONE', ( #857 ), #588, .F. ) ;
#471 = ORIENTED_EDGE ( 'NONE', *, *, #70, .F. ) ;
#472 = FACE_OUTER_BOUND ( 'NONE', #161, .T. ) ;
#473 = B_SPLINE_CURVE_WITH_KNOTS ( 'NONE', 3,
 ( #66, #701, #779, #409, #477, #143 ),
 .UNSPECIFIED., .F., .F.,
 ( 4, 2, 4 ),
 ( 0.01485345774306985611, 0.01548163471194342541, 0.01610981168081699472 ),
 .UNSPECIFIED. ) ;
#474 = CARTESIAN_POINT ( 'NONE',  ( -2.399999999999999911, 2.939152317953647106E-16, 8.724999999999999645 ) ) ;
#475 = CARTESIAN_POINT ( 'NONE',  ( 0.000000000000000000, 0.000000000000000000, -14.98600000000000065 ) ) ;
#476 = ORIENTED_EDGE ( 'NONE', *, *, #759, .F. ) ;
#477 = CARTESIAN_POINT ( 'NONE',  ( -1.587500000000000355, -0.2114796877013864485, 14.95822736169287026 ) ) ;
#478 = CARTESIAN_POINT ( 'NONE',  ( 1.268411506570324088, -1.587499999999999911, -14.83491914209798423 ) ) ;
#479 = CARTESIAN_POINT ( 'NONE',  ( 1.587500000000000355, 0.000000000000000000, 14.95822736169286671 ) ) ;
#480 = CIRCLE ( 'NONE', #79, 2.032000000000000028 ) ;
#481 = VECTOR ( 'NONE', #257, 1000.000000000000000 ) ;
#482 = ORIENTED_EDGE ( 'NONE', *, *, #418, .F. ) ;
#483 = CARTESIAN_POINT ( 'NONE',  ( 0.000000000000000000, 0.000000000000000000, 8.724999999999999645 ) ) ;
#484 = LINE ( 'NONE', #125, #298 ) ;
#485 = LINE ( 'NONE', #771, #534 ) ;
#486 = CIRCLE ( 'NONE', #577, 2.032000000000000028 ) ;
#487 = EDGE_LOOP ( 'NONE', ( #471, #113, #363, #180 ) ) ;
#488 = FACE_OUTER_BOUND ( 'NONE', #446, .T. ) ;
#489 = DIRECTION ( 'NONE',  ( 1.000000000000000000, 0.000000000000000000, -0.000000000000000000 ) ) ;
#490 = EDGE_LOOP ( 'NONE', ( #840, #85, #60, #444 ) ) ;
#491 = DIRECTION ( 'NONE',  ( 0.000000000000000000, 0.000000000000000000, -1.000000000000000000 ) ) ;
#492 = ORIENTED_EDGE ( 'NONE', *, *, #899, .T. ) ;
#493 = DIRECTION ( 'NONE',  ( 1.000000000000000000, 0.000000000000000000, 0.000000000000000000 ) ) ;
#494 = ORIENTED_EDGE ( 'NONE', *, *, #336, .T. ) ;
#495 = ADVANCED_FACE ( 'NONE', ( #80 ), #521, .T. ) ;
#496 = LINE ( 'NONE', #903, #520 ) ;
#497 = VERTEX_POINT ( 'NONE', #728 ) ;
#498 = SECURITY_CLASSIFICATION ( '', '', #866 ) ;
#499 = CARTESIAN_POINT ( 'NONE',  ( -1.587500000000000355, 1.944126793646423534E-16, -14.95822736169286671 ) ) ;
#500 = AXIS2_PLACEMENT_3D ( 'NONE', #44, #399, #40 ) ;
#501 = ORIENTED_EDGE ( 'NONE', *, *, #693, .T. ) ;
#502 = ORGANIZATION ( 'UNSPECIFIED', 'UNSPECIFIED', '' ) ;
#503 = EDGE_CURVE ( 'NONE', #791, #660, #604, .T. ) ;
#504 = COORDINATED_UNIVERSAL_TIME_OFFSET ( 6, 0, .BEHIND. ) ;
#505 = VERTEX_POINT ( 'NONE', #35 ) ;
#506 = CARTESIAN_POINT ( 'NONE',  ( -1.587499999999999911, 1.268411506570324088, -14.98600000000000065 ) ) ;
#507 = CARTESIAN_POINT ( 'NONE',  ( -1.587500000000000133, 0.2143109880596212047, 14.95822736169286493 ) ) ;
#508 = APPROVAL_ROLE ( '' ) ;
#509 = ORIENTED_EDGE ( 'NONE', *, *, #767, .T. ) ;
#510 = CARTESIAN_POINT ( 'NONE',  ( 1.587499999999999911, 1.268411506570324088, 9.524999999999993250 ) ) ;
#511 = ORIENTED_EDGE ( 'NONE', *, *, #82, .T. ) ;
#512 = APPROVAL_DATE_TIME ( #655, #440 ) ;
#513 = ORIENTED_EDGE ( 'NONE', *, *, #894, .T. ) ;
#514 = VECTOR ( 'NONE', #337, 1000.000000000000000 ) ;
#515 = ADVANCED_FACE ( 'NONE', ( #523 ), #809, .F. ) ;
#516 = FACE_OUTER_BOUND ( 'NONE', #438, .T. ) ;
#517 = ORIENTED_EDGE ( 'NONE', *, *, #570, .F. ) ;
#518 = CIRCLE ( 'NONE', #765, 2.032000000000000028 ) ;
#519 = PERSON_AND_ORGANIZATION_ROLE ( 'classification_officer' ) ;
#520 = VECTOR ( 'NONE', #552, 1000.000000000000000 ) ;
#521 = CYLINDRICAL_SURFACE ( 'NONE', #251, 2.032000000000000028 ) ;
#522 = CARTESIAN_POINT ( 'NONE',  ( 0.000000000000000000, 0.000000000000000000, 8.725000000000001421 ) ) ;
#523 = FACE_OUTER_BOUND ( 'NONE', #286, .T. ) ;
#524 = CARTESIAN_POINT ( 'NONE',  ( -1.245064030267288402, 1.524763679400337895E-16, -12.86099999999999000 ) ) ;
#525 = EDGE_CURVE ( 'NONE', #642, #907, #395, .T. ) ;
#526 = CARTESIAN_POINT ( 'NONE',  ( 1.587500000000000355, -0.4276219574846455984, -14.95199639200008690 ) ) ;
#527 = AXIS2_PLACEMENT_3D ( 'NONE', #105, #252, #184 ) ;
#528 = DIRECTION ( 'NONE',  ( 1.000000000000000000, 0.000000000000000000, 0.000000000000000000 ) ) ;
#529 = CARTESIAN_POINT ( 'NONE',  ( -1.587500000000000355, -1.061392899157111769, -14.88643677385166342 ) ) ;
#530 = CC_DESIGN_APPROVAL ( #440, ( #855 ) ) ;
#531 = ORIENTED_EDGE ( 'NONE', *, *, #597, .T. ) ;
#532 = EDGE_CURVE ( 'NONE', #333, #27, #841, .T. ) ;
#533 = DIRECTION ( 'NONE',  ( -1.000000000000000000, 0.000000000000000000, 0.000000000000000000 ) ) ;
#534 = VECTOR ( 'NONE', #136, 1000.000000000000000 ) ;
#535 = CARTESIAN_POINT ( 'NONE',  ( 0.000000000000000000, 0.000000000000000000, 12.86099999999999000 ) ) ;
#536 = VERTEX_POINT ( 'NONE', #659 ) ;
#537 = CYLINDRICAL_SURFACE ( 'NONE', #734, 2.032000000000000028 ) ;
#538 = CC_DESIGN_PERSON_AND_ORGANIZATION_ASSIGNMENT ( #369, #519, ( #498 ) ) ;
#539 = DIRECTION ( 'NONE',  ( 0.000000000000000000, -1.000000000000000000, 0.000000000000000000 ) ) ;
#540 = DIRECTION ( 'NONE',  ( 1.000000000000000000, 0.000000000000000000, 0.000000000000000000 ) ) ;
#541 = VERTEX_POINT ( 'NONE', #29 ) ;
#542 = CARTESIAN_POINT ( 'NONE',  ( -1.245064030267288402, -1.524763679400337895E-16, 12.86099999999999000 ) ) ;
#543 = EDGE_CURVE ( 'NONE', #12, #778, #578, .T. ) ;
#544 = AXIS2_PLACEMENT_3D ( 'NONE', #859, #729, #593 ) ;
#545 = LINE ( 'NONE', #102, #450 ) ;
#546 = EDGE_LOOP ( 'NONE', ( #91, #511, #723, #233, #746, #738, #742, #621 ) ) ;
#547 = DIRECTION ( 'NONE',  ( 1.000000000000000000, 0.000000000000000000, 0.000000000000000000 ) ) ;
#548 = CIRCLE ( 'NONE', #590, 2.032000000000000028 ) ;
#549 = PLANE ( 'NONE',  #648 ) ;
#550 = DIRECTION ( 'NONE',  ( -0.000000000000000000, -0.000000000000000000, -1.000000000000000000 ) ) ;
#551 = ORIENTED_EDGE ( 'NONE', *, *, #836, .T. ) ;
#552 = DIRECTION ( 'NONE',  ( 0.000000000000000000, 0.000000000000000000, -1.000000000000000000 ) ) ;
#553 = CARTESIAN_POINT ( 'NONE',  ( 0.000000000000000000, 0.000000000000000000, 14.83491914209798423 ) ) ;
#554 = PLANE ( 'NONE',  #707 ) ;
#555 = ORIENTED_EDGE ( 'NONE', *, *, #296, .F. ) ;
#556 = CYLINDRICAL_SURFACE ( 'NONE', #874, 2.032000000000000028 ) ;
#557 = DIRECTION ( 'NONE',  ( -1.000000000000000000, 0.000000000000000000, 0.000000000000000000 ) ) ;
#558 = LINE ( 'NONE', #776, #918 ) ;
#559 = ORIENTED_EDGE ( 'NONE', *, *, #240, .T. ) ;
#560 = EDGE_CURVE ( 'NONE', #788, #811, #727, .T. ) ;
#561 = CARTESIAN_POINT ( 'NONE',  ( 0.000000000000000000, 0.000000000000000000, 9.525000000000000355 ) ) ;
#562 = CARTESIAN_POINT ( 'NONE',  ( -1.587500000000000355, 1.268411506570323644, 14.83491914209798246 ) ) ;
#563 = ORIENTED_EDGE ( 'NONE', *, *, #215, .F. ) ;
#564 = CARTESIAN_POINT ( 'NONE',  ( 0.000000000000000000, 0.000000000000000000, 9.525000000000000355 ) ) ;
#565 = EDGE_CURVE ( 'NONE', #95, #269, #356, .T. ) ;
#566 = CARTESIAN_POINT ( 'NONE',  ( 0.000000000000000000, 0.000000000000000000, 9.525000000000000355 ) ) ;
#567 = EDGE_LOOP ( 'NONE', ( #304, #784, #598, #517, #682, #834, #848, #379 ) ) ;
#568 = ORIENTED_EDGE ( 'NONE', *, *, #767, .F. ) ;
#569 = CARTESIAN_POINT ( 'NONE',  ( 1.587499999999999911, 1.268411506570324088, -14.98600000000000065 ) ) ;
#570 = EDGE_CURVE ( 'NONE', #712, #845, #518, .T. ) ;
#571 = VERTEX_POINT ( 'NONE', #115 ) ;
#572 = TOROIDAL_SURFACE ( 'NONE', #123, 1.245064030267288402, 2.125000000000009770 ) ;
#573 = APPROVAL_STATUS ( 'not_yet_approved' ) ;
#574 = APPLICATION_CONTEXT ( 'configuration controlled 3d designs of mechanical parts and assemblies' ) ;
#575 = LOCAL_TIME ( 13, 56, 59.00000000000000000, #90 ) ;
#576 = CARTESIAN_POINT ( 'NONE',  ( -1.587500000000000355, 1.944126793646423534E-16, -14.95822736169286671 ) ) ;
#577 = AXIS2_PLACEMENT_3D ( 'NONE', #5, #376, #583 ) ;
#578 = B_SPLINE_CURVE_WITH_KNOTS ( 'NONE', 3,
 ( #452, #595, #814, #676, #884, #250, #172, #182 ),
 .UNSPECIFIED., .F., .F.,
 ( 4, 2, 2, 4 ),
 ( 0.01485345774306985438, 0.01548583974386951063, 0.01611822174466916863, 0.01738298574626848114 ),
 .UNSPECIFIED. ) ;
#579 = VERTEX_POINT ( 'NONE', #826 ) ;
#580 = CIRCLE ( 'NONE', #355, 1.245064030267288402 ) ;
#581 = COORDINATED_UNIVERSAL_TIME_OFFSET ( 6, 0, .BEHIND. ) ;
#582 = EDGE_CURVE ( 'NONE', #333, #791, #692, .T. ) ;
#583 = DIRECTION ( 'NONE',  ( 1.000000000000000000, 7.993605777301127091E-15, 0.000000000000000000 ) ) ;
#584 = ORIENTED_EDGE ( 'NONE', *, *, #296, .T. ) ;
#585 = ADVANCED_FACE ( 'NONE', ( #46 ), #549, .F. ) ;
#586 = CARTESIAN_POINT ( 'NONE',  ( 1.268411506570324088, 1.587499999999999911, -14.83491914209798246 ) ) ;
#587 = SHAPE_DEFINITION_REPRESENTATION ( #407, #430 ) ;
#588 = PLANE ( 'NONE',  #86 ) ;
#589 = ORIENTED_EDGE ( 'NONE', *, *, #6, .T. ) ;
#590 = AXIS2_PLACEMENT_3D ( 'NONE', #232, #785, #372 ) ;
#591 = CIRCLE ( 'NONE', #111, 2.125000000000009770 ) ;
#592 = ADVANCED_FACE ( 'NONE', ( #208 ), #832, .T. ) ;
#593 = DIRECTION ( 'NONE',  ( 1.000000000000000000, 0.000000000000000000, 0.000000000000000000 ) ) ;
#594 = CYLINDRICAL_SURFACE ( 'NONE', #500, 2.032000000000000028 ) ;
#595 = CARTESIAN_POINT ( 'NONE',  ( 1.060147506033617848, 1.587500000000000355, -14.88674669625518376 ) ) ;
#596 = CARTESIAN_POINT ( 'NONE',  ( 1.587500000000000355, 1.268411506570323866, 14.83491914209798423 ) ) ;
#597 = EDGE_CURVE ( 'NONE', #408, #752, #484, .T. ) ;
#598 = ORIENTED_EDGE ( 'NONE', *, *, #888, .F. ) ;
#599 = DIRECTION ( 'NONE',  ( 1.000000000000000000, 0.000000000000000000, 0.000000000000000000 ) ) ;
#600 = CIRCLE ( 'NONE', #156, 2.125000000000008882 ) ;
#601 = ORIENTED_EDGE ( 'NONE', *, *, #428, .T. ) ;
#602 = EDGE_CURVE ( 'NONE', #497, #176, #163, .T. ) ;
#603 = CARTESIAN_POINT ( 'NONE',  ( -0.8571092511719569096, -1.587500000000000799, 14.93727379706278136 ) ) ;
#604 = CIRCLE ( 'NONE', #21, 2.399999999999999911 ) ;
#605 = CARTESIAN_POINT ( 'NONE',  ( -1.268411506570324088, -1.587499999999999911, -14.98600000000000065 ) ) ;
#606 = EDGE_LOOP ( 'NONE', ( #121, #782, #32, #887, #201, #348, #11, #291 ) ) ;
#607 = CARTESIAN_POINT ( 'NONE',  ( 0.000000000000000000, 0.000000000000000000, 9.525000000000000355 ) ) ;
#608 = ADVANCED_FACE ( 'NONE', ( #488 ), #628, .F. ) ;
#609 = DIRECTION ( 'NONE',  ( 0.000000000000000000, 0.000000000000000000, -1.000000000000000000 ) ) ;
#610 = ORIENTED_EDGE ( 'NONE', *, *, #672, .F. ) ;
#611 = CARTESIAN_POINT ( 'NONE',  ( 1.268411506570324088, 1.587499999999999911, -14.98600000000000065 ) ) ;
#612 = LINE ( 'NONE', #898, #310 ) ;
#613 = DIRECTION ( 'NONE',  ( 0.000000000000000000, 0.000000000000000000, -1.000000000000000000 ) ) ;
#614 = EDGE_LOOP ( 'NONE', ( #640, #73, #865, #494, #563, #398, #377, #531 ) ) ;
#615 = FACE_OUTER_BOUND ( 'NONE', #490, .T. ) ;
#616 = AXIS2_PLACEMENT_3D ( 'NONE', #324, #256, #744 ) ;
#617 = B_SPLINE_CURVE_WITH_KNOTS ( 'NONE', 3,
 ( #17, #228, #294, #76, #362, #576 ),
 .UNSPECIFIED., .F., .F.,
 ( 4, 2, 4 ),
 ( 0.01485345774306985438, 0.01548163471194342541, 0.01610981168081699472 ),
 .UNSPECIFIED. ) ;
#618 = CARTESIAN_POINT ( 'NONE',  ( -0.2043756380772877301, 1.587500000000000799, 14.95840961896380072 ) ) ;
#619 = APPROVAL_PERSON_ORGANIZATION ( #861, #391, #297 ) ;
#620 = DIRECTION ( 'NONE',  ( 1.000000000000000000, 0.000000000000000000, 0.000000000000000000 ) ) ;
#621 = ORIENTED_EDGE ( 'NONE', *, *, #663, .T. ) ;
#622 = DIRECTION ( 'NONE',  ( 1.000000000000000000, 0.000000000000000000, 0.000000000000000000 ) ) ;
#623 = CARTESIAN_POINT ( 'NONE',  ( -0.4219230645619462261, 1.587500000000000133, 14.95230730355362603 ) ) ;
#624 = DIRECTION ( 'NONE',  ( 0.000000000000000000, 0.000000000000000000, 1.000000000000000000 ) ) ;
#625 = CC_DESIGN_PERSON_AND_ORGANIZATION_ASSIGNMENT ( #792, #437, ( #828 ) ) ;
#626 = VERTEX_POINT ( 'NONE', #119 ) ;
#627 = DIRECTION ( 'NONE',  ( 1.000000000000000000, 0.000000000000000000, 0.000000000000000000 ) ) ;
#628 = PLANE ( 'NONE',  #747 ) ;
#629 = CARTESIAN_POINT ( 'NONE',  ( 1.268411506570323866, -1.587500000000000355, 14.83491914209798423 ) ) ;
#630 = ORIENTED_EDGE ( 'NONE', *, *, #813, .F. ) ;
#631 = DESIGN_CONTEXT ( 'detailed design', #241, 'design' ) ;
#632 = APPLICATION_PROTOCOL_DEFINITION ( 'international standard', 'config_control_design', 1994, #574 ) ;
#633 = VECTOR ( 'NONE', #308, 1000.000000000000000 ) ;
#634 = DIRECTION ( 'NONE',  ( 0.000000000000000000, 1.000000000000000000, 0.000000000000000000 ) ) ;
#635 = VECTOR ( 'NONE', #754, 1000.000000000000000 ) ;
#636 = ORIENTED_EDGE ( 'NONE', *, *, #386, .F. ) ;
#637 = CARTESIAN_POINT ( 'NONE',  ( 0.000000000000000000, 0.000000000000000000, 0.000000000000000000 ) ) ;
#638 = EDGE_CURVE ( 'NONE', #497, #327, #405, .T. ) ;
#639 = CARTESIAN_POINT ( 'NONE',  ( -1.587500000000000355, 1.587500000000000355, 8.724999999999999645 ) ) ;
#640 = ORIENTED_EDGE ( 'NONE', *, *, #31, .F. ) ;
#641 = PERSON_AND_ORGANIZATION ( #825, #502 ) ;
#642 = VERTEX_POINT ( 'NONE', #51 ) ;
#643 = DIRECTION ( 'NONE',  ( 1.000000000000000000, 0.000000000000000000, 0.000000000000000000 ) ) ;
#644 = ORIENTED_EDGE ( 'NONE', *, *, #700, .F. ) ;
#645 = AXIS2_PLACEMENT_3D ( 'NONE', #885, #462, #397 ) ;
#646 = ORIENTED_EDGE ( 'NONE', *, *, #525, .T. ) ;
#647 = DIRECTION ( 'NONE',  ( -0.000000000000000000, -0.000000000000000000, 1.000000000000000000 ) ) ;
#648 = AXIS2_PLACEMENT_3D ( 'NONE', #275, #557, #905 ) ;
#649 = ORIENTED_EDGE ( 'NONE', *, *, #597, .F. ) ;
#650 = EDGE_CURVE ( 'NONE', #207, #497, #223, .T. ) ;
#651 = CALENDAR_DATE ( 2022, 6, 6 ) ;
#652 = ORIENTED_EDGE ( 'NONE', *, *, #455, .T. ) ;
#653 = CARTESIAN_POINT ( 'NONE',  ( -1.268411506570324088, 1.587499999999999911, -14.98600000000000065 ) ) ;
#654 = CARTESIAN_POINT ( 'NONE',  ( -1.587500000000000355, 1.268411506570323644, 14.83491914209798246 ) ) ;
#655 = DATE_AND_TIME ( #364, #575 ) ;
#656 = DIRECTION ( 'NONE',  ( 0.000000000000000000, 1.000000000000000000, -0.000000000000000000 ) ) ;
#657 = ORIENTED_EDGE ( 'NONE', *, *, #16, .F. ) ;
#658 = TOROIDAL_SURFACE ( 'NONE', #851, 1.245064030267288402, 2.125000000000009770 ) ;
#659 = CARTESIAN_POINT ( 'NONE',  ( 1.268411506570324088, 1.587499999999999911, 9.524999999999993250 ) ) ;
#660 = VERTEX_POINT ( 'NONE', #281 ) ;
#661 = CIRCLE ( 'NONE', #353, 2.032000000000000028 ) ;
#662 = B_SPLINE_CURVE_WITH_KNOTS ( 'NONE', 3,
 ( #316, #99, #458, #671, #895, #741 ),
 .UNSPECIFIED., .F., .F.,
 ( 4, 2, 4 ),
 ( 0.000000000000000000, 0.0006365870327257436463, 0.001273174065451487293 ),
 .UNSPECIFIED. ) ;
#663 = EDGE_CURVE ( 'NONE', #536, #340, #661, .T. ) ;
#664 = DIRECTION ( 'NONE',  ( -0.000000000000000000, -0.000000000000000000, -1.000000000000000000 ) ) ;
#665 = VERTEX_POINT ( 'NONE', #680 ) ;
#666 = CARTESIAN_POINT ( 'NONE',  ( 1.587500000000000577, -0.8514389605504939507, -14.91636751577920172 ) ) ;
#667 = PLANE ( 'NONE',  #293 ) ;
#668 = VERTEX_POINT ( 'NONE', #331 ) ;
#669 = CARTESIAN_POINT ( 'NONE',  ( 1.245064030267288402, 0.000000000000000000, 12.86099999999999000 ) ) ;
#670 = CARTESIAN_POINT ( 'NONE',  ( 0.000000000000000000, 0.000000000000000000, 9.525000000000000355 ) ) ;
#671 = CARTESIAN_POINT ( 'NONE',  ( 1.587500000000000355, -0.8513200635100123259, 14.91637755531811393 ) ) ;
#672 = EDGE_CURVE ( 'NONE', #752, #269, #612, .T. ) ;
#673 = VERTEX_POINT ( 'NONE', #468 ) ;
#674 = FACE_OUTER_BOUND ( 'NONE', #773, .T. ) ;
#675 = VECTOR ( 'NONE', #656, 1000.000000000000000 ) ;
#676 = CARTESIAN_POINT ( 'NONE',  ( 0.4219230645619480025, 1.587500000000000133, -14.95230730355362603 ) ) ;
#677 = CARTESIAN_POINT ( 'NONE',  ( 1.268411506570323644, 1.587500000000000355, 14.83491914209798246 ) ) ;
#678 = ORIENTED_EDGE ( 'NONE', *, *, #196, .F. ) ;
#679 = CARTESIAN_POINT ( 'NONE',  ( 0.000000000000000000, 0.000000000000000000, -14.98600000000000065 ) ) ;
#680 = CARTESIAN_POINT ( 'NONE',  ( 1.268411506570324088, 1.587500000000000355, 8.724999999999999645 ) ) ;
#681 = CYLINDRICAL_SURFACE ( 'NONE', #527, 2.032000000000000028 ) ;
#682 = ORIENTED_EDGE ( 'NONE', *, *, #684, .F. ) ;
#683 = DIRECTION ( 'NONE',  ( -0.000000000000000000, -0.000000000000000000, 1.000000000000000000 ) ) ;
#684 = EDGE_CURVE ( 'NONE', #185, #712, #242, .T. ) ;
#685 = DIRECTION ( 'NONE',  ( -1.000000000000000000, 0.000000000000000000, 0.000000000000000000 ) ) ;
#686 = AXIS2_PLACEMENT_3D ( 'NONE', #524, #751, #805 ) ;
#687 = CC_DESIGN_APPROVAL ( #209, ( #498 ) ) ;
#688 = CARTESIAN_POINT ( 'NONE',  ( 0.000000000000000000, 0.000000000000000000, -14.98599999999999888 ) ) ;
#689 = EDGE_LOOP ( 'NONE', ( #492, #14 ) ) ;
#690 = LINE ( 'NONE', #846, #190 ) ;
#691 = AXIS2_PLACEMENT_3D ( 'NONE', #867, #647, #643 ) ;
#692 = LINE ( 'NONE', #474, #325 ) ;
#693 = EDGE_CURVE ( 'NONE', #176, #153, #413, .T. ) ;
#694 = DIRECTION ( 'NONE',  ( -1.000000000000000000, 0.000000000000000000, -0.000000000000000000 ) ) ;
#695 = EDGE_LOOP ( 'NONE', ( #509, #923, #644, #227 ) ) ;
#696 = CARTESIAN_POINT ( 'NONE',  ( 1.587499999999999911, 1.268411506570324088, -14.83491914209798423 ) ) ;
#697 = DIRECTION ( 'NONE',  ( -0.000000000000000000, -0.000000000000000000, 1.000000000000000000 ) ) ;
#698 = CARTESIAN_POINT ( 'NONE',  ( 0.000000000000000000, 0.000000000000000000, -14.83491914209798423 ) ) ;
#699 = ORIENTED_EDGE ( 'NONE', *, *, #82, .F. ) ;
#700 = EDGE_CURVE ( 'NONE', #660, #791, #144, .T. ) ;
#701 = CARTESIAN_POINT ( 'NONE',  ( -1.587500000000000133, -1.061532360077855230, 14.88640206829359514 ) ) ;
#702 = DIRECTION ( 'NONE',  ( 1.000000000000000000, 0.000000000000000000, 0.000000000000000000 ) ) ;
#703 = ORIENTED_EDGE ( 'NONE', *, *, #75, .F. ) ;
#704 = ADVANCED_FACE ( 'NONE', ( #674 ), #594, .T. ) ;
#705 = CYLINDRICAL_SURFACE ( 'NONE', #858, 2.399999999999999911 ) ;
#706 = ORIENTED_EDGE ( 'NONE', *, *, #215, .T. ) ;
#707 = AXIS2_PLACEMENT_3D ( 'NONE', #909, #634, #276 ) ;
#708 = CARTESIAN_POINT ( 'NONE',  ( -2.399999999999999911, 2.939152317953647106E-16, 8.724999999999999645 ) ) ;
#709 = ORIENTED_EDGE ( 'NONE', *, *, #112, .F. ) ;
#710 = DATE_AND_TIME ( #651, #109 ) ;
#711 = CARTESIAN_POINT ( 'NONE',  ( 0.000000000000000000, 0.000000000000000000, 14.98599999999999888 ) ) ;
#712 = VERTEX_POINT ( 'NONE', #877 ) ;
#713 = ORIENTED_EDGE ( 'NONE', *, *, #203, .F. ) ;
#714 = DIRECTION ( 'NONE',  ( 0.000000000000000000, -0.000000000000000000, -1.000000000000000000 ) ) ;
#715 = FACE_OUTER_BOUND ( 'NONE', #695, .T. ) ;
#716 = AXIS2_PLACEMENT_3D ( 'NONE', #63, #200, #347 ) ;
#717 = CALENDAR_DATE ( 2022, 6, 6 ) ;
#718 = PLANE ( 'NONE',  #54 ) ;
#719 = PRODUCT_DEFINITION ( 'UNKNOWN', '', #855, #631 ) ;
#720 = VECTOR ( 'NONE', #539, 1000.000000000000000 ) ;
#721 = CARTESIAN_POINT ( 'NONE',  ( -1.587500000000000355, 0.8513200635100124369, 14.91637755531811393 ) ) ;
#722 = PERSON_AND_ORGANIZATION ( #825, #502 ) ;
#723 = ORIENTED_EDGE ( 'NONE', *, *, #912, .F. ) ;
#724 = DIRECTION ( 'NONE',  ( 1.000000000000000000, 0.000000000000000000, 0.000000000000000000 ) ) ;
#725 = CARTESIAN_POINT ( 'NONE',  ( 1.587500000000000355, -1.268411506570323644, 14.83491914209798246 ) ) ;
#726 = EDGE_CURVE ( 'NONE', #245, #788, #863, .T. ) ;
#727 = B_SPLINE_CURVE_WITH_KNOTS ( 'NONE', 3,
 ( #732, #457, #41, #315, #20, #878 ),
 .UNSPECIFIED., .F., .F.,
 ( 4, 2, 4 ),
 ( 0.000000000000000000, 0.0006365870327257438632, 0.001273174065451487726 ),
 .UNSPECIFIED. ) ;
#728 = CARTESIAN_POINT ( 'NONE',  ( -1.268411506570323866, 1.587500000000000355, 14.83491914209798423 ) ) ;
#729 = DIRECTION ( 'NONE',  ( 0.000000000000000000, 0.000000000000000000, 1.000000000000000000 ) ) ;
#730 = ADVANCED_FACE ( 'NONE', ( #254 ), #389, .T. ) ;
#731 = CIRCLE ( 'NONE', #365, 2.032000000000000028 ) ;
#732 = CARTESIAN_POINT ( 'NONE',  ( 1.587500000000000355, 0.000000000000000000, -14.95822736169286671 ) ) ;
#733 = DIRECTION ( 'NONE',  ( -0.000000000000000000, -0.000000000000000000, 1.000000000000000000 ) ) ;
#734 = AXIS2_PLACEMENT_3D ( 'NONE', #679, #403, #28 ) ;
#735 = CARTESIAN_POINT ( 'NONE',  ( 1.268411506570324088, -1.587500000000000355, 8.724999999999999645 ) ) ;
#736 = CARTESIAN_POINT ( 'NONE',  ( -0.4219230645619480025, -1.587500000000000133, -14.95230730355362603 ) ) ;
#737 = CARTESIAN_POINT ( 'NONE',  ( -1.587500000000000133, -0.2143109880596212602, -14.95822736169286493 ) ) ;
#738 = ORIENTED_EDGE ( 'NONE', *, *, #813, .T. ) ;
#739 = CARTESIAN_POINT ( 'NONE',  ( -1.587500000000000577, 1.268411506570324088, 8.725000000000001421 ) ) ;
#740 = ADVANCED_FACE ( 'NONE', ( #34 ), #314, .F. ) ;
#741 = CARTESIAN_POINT ( 'NONE',  ( 1.587500000000000355, -1.268411506570323644, 14.83491914209798246 ) ) ;
#742 = ORIENTED_EDGE ( 'NONE', *, *, #101, .F. ) ;
#743 = CARTESIAN_POINT ( 'NONE',  ( -0.4342314039556041672, -1.587500000000000355, 14.95785171744314113 ) ) ;
#744 = DIRECTION ( 'NONE',  ( 0.000000000000000000, 0.000000000000000000, 1.000000000000000000 ) ) ;
#745 = FACE_OUTER_BOUND ( 'NONE', #354, .T. ) ;
#746 = ORIENTED_EDGE ( 'NONE', *, *, #525, .F. ) ;
#747 = AXIS2_PLACEMENT_3D ( 'NONE', #416, #908, #755 ) ;
#748 = CARTESIAN_POINT ( 'NONE',  ( 1.587500000000000355, 0.000000000000000000, -14.95822736169286671 ) ) ;
#749 = AXIS2_PLACEMENT_3D ( 'NONE', #849, #278, #61 ) ;
#750 = CARTESIAN_POINT ( 'NONE',  ( 0.000000000000000000, 0.000000000000000000, 8.724999999999999645 ) ) ;
#751 = DIRECTION ( 'NONE',  ( 1.224646799147353207E-16, 1.000000000000000000, 0.000000000000000000 ) ) ;
#752 = VERTEX_POINT ( 'NONE', #735 ) ;
#753 = ADVANCED_FACE ( 'NONE', ( #472 ), #537, .T. ) ;
#754 = DIRECTION ( 'NONE',  ( -0.000000000000000000, -0.000000000000000000, 1.000000000000000000 ) ) ;
#755 = DIRECTION ( 'NONE',  ( 0.000000000000000000, -0.000000000000000000, 1.000000000000000000 ) ) ;
#756 = DIRECTION ( 'NONE',  ( 1.000000000000000000, 0.000000000000000000, 0.000000000000000000 ) ) ;
#757 = VERTEX_POINT ( 'NONE', #330 ) ;
#758 = DIRECTION ( 'NONE',  ( -0.000000000000000000, -0.000000000000000000, 1.000000000000000000 ) ) ;
#759 = EDGE_CURVE ( 'NONE', #536, #176, #100, .T. ) ;
#760 = CARTESIAN_POINT ( 'NONE',  ( -1.268411506570324088, 1.587499999999999911, -14.98600000000000065 ) ) ;
#761 = CIRCLE ( 'NONE', #686, 2.125000000000009770 ) ;
#762 = DIRECTION ( 'NONE',  ( -0.000000000000000000, -0.000000000000000000, 1.000000000000000000 ) ) ;
#763 = ORIENTED_EDGE ( 'NONE', *, *, #434, .T. ) ;
#764 = CARTESIAN_POINT ( 'NONE',  ( -1.587500000000000355, -1.268411506570323866, 14.83491914209798423 ) ) ;
#765 = AXIS2_PLACEMENT_3D ( 'NONE', #265, #335, #685 ) ;
#766 = DIRECTION ( 'NONE',  ( 1.000000000000000000, 0.000000000000000000, 0.000000000000000000 ) ) ;
#767 = EDGE_CURVE ( 'NONE', #27, #333, #98, .T. ) ;
#768 = CARTESIAN_POINT ( 'NONE',  ( 0.000000000000000000, 0.000000000000000000, 8.725000000000001421 ) ) ;
#769 = EDGE_LOOP ( 'NONE', ( #463, #137, #441, #423 ) ) ;
#770 = DIRECTION ( 'NONE',  ( 0.000000000000000000, 0.000000000000000000, -1.000000000000000000 ) ) ;
#771 = CARTESIAN_POINT ( 'NONE',  ( -1.587499999999999911, 1.268411506570324088, -14.98600000000000065 ) ) ;
#772 = EDGE_CURVE ( 'NONE', #229, #340, #118, .T. ) ;
#773 = EDGE_LOOP ( 'NONE', ( #699, #371, #551, #284 ) ) ;
#774 = DIRECTION ( 'NONE',  ( 1.000000000000000000, 0.000000000000000000, 0.000000000000000000 ) ) ;
#775 = VERTEX_POINT ( 'NONE', #739 ) ;
#776 = CARTESIAN_POINT ( 'NONE',  ( 1.268411506570324088, 1.587499999999999911, -14.98600000000000065 ) ) ;
#777 = CC_DESIGN_SECURITY_CLASSIFICATION ( #498, ( #855 ) ) ;
#778 = VERTEX_POINT ( 'NONE', #248 ) ;
#779 = CARTESIAN_POINT ( 'NONE',  ( -1.587500000000000577, -0.8514389605504937286, 14.91636751577920350 ) ) ;
#780 = VERTEX_POINT ( 'NONE', #892 ) ;
#781 = CARTESIAN_POINT ( 'NONE',  ( -1.587500000000000355, -1.587500000000000355, 8.724999999999999645 ) ) ;
#782 = ORIENTED_EDGE ( 'NONE', *, *, #112, .T. ) ;
#783 = CALENDAR_DATE ( 2022, 6, 6 ) ;
#784 = ORIENTED_EDGE ( 'NONE', *, *, #801, .T. ) ;
#785 = DIRECTION ( 'NONE',  ( -0.000000000000000000, -0.000000000000000000, 1.000000000000000000 ) ) ;
#786 = EDGE_LOOP ( 'NONE', ( #2, #65, #9, #259, #195 ) ) ;
#787 = PERSON_AND_ORGANIZATION ( #825, #502 ) ;
#788 = VERTEX_POINT ( 'NONE', #260 ) ;
#789 = EDGE_CURVE ( 'NONE', #149, #212, #174, .T. ) ;
#790 = CARTESIAN_POINT ( 'NONE',  ( 0.000000000000000000, 0.000000000000000000, -14.98600000000000065 ) ) ;
#791 = VERTEX_POINT ( 'NONE', #108 ) ;
#792 = PERSON_AND_ORGANIZATION ( #825, #502 ) ;
#793 = ORIENTED_EDGE ( 'NONE', *, *, #434, .F. ) ;
#794 = LINE ( 'NONE', #445, #675 ) ;
#795 = AXIS2_PLACEMENT_3D ( 'NONE', #698, #59, #756 ) ;
#796 = AXIS2_PLACEMENT_3D ( 'NONE', #271, #697, #58 ) ;
#797 = EDGE_LOOP ( 'NONE', ( #630, #216, #93, #431 ) ) ;
#798 = DIRECTION ( 'NONE',  ( 0.000000000000000000, 0.000000000000000000, 1.000000000000000000 ) ) ;
#799 = DIRECTION ( 'NONE',  ( -0.000000000000000000, -0.000000000000000000, 1.000000000000000000 ) ) ;
#800 = DIRECTION ( 'NONE',  ( -0.000000000000000000, -0.000000000000000000, 1.000000000000000000 ) ) ;
#801 = EDGE_CURVE ( 'NONE', #921, #780, #591, .T. ) ;
#802 = CARTESIAN_POINT ( 'NONE',  ( -1.587500000000000355, 1.587500000000000355, 9.525000000000000355 ) ) ;
#803 = TOROIDAL_SURFACE ( 'NONE', #716, 1.245064030267288402, 2.125000000000009770 ) ;
#804 = DIRECTION ( 'NONE',  ( 0.000000000000000000, -1.000000000000000000, 0.000000000000000000 ) ) ;
#805 = DIRECTION ( 'NONE',  ( -1.000000000000000000, 1.224646799147353207E-16, 0.000000000000000000 ) ) ;
#806 = AXIS2_PLACEMENT_3D ( 'NONE', #750, #385, #528 ) ;
#807 = ORIENTED_EDGE ( 'NONE', *, *, #154, .T. ) ;
#808 = CARTESIAN_POINT ( 'NONE',  ( -1.268411506570323644, -1.587500000000000355, 14.83491914209798246 ) ) ;
#809 = PLANE ( 'NONE',  #616 ) ;
#810 = DIRECTION ( 'NONE',  ( 0.000000000000000000, 0.000000000000000000, -1.000000000000000000 ) ) ;
#811 = VERTEX_POINT ( 'NONE', #696 ) ;
#812 = DIRECTION ( 'NONE',  ( -0.000000000000000000, 1.000000000000000000, 0.000000000000000000 ) ) ;
#813 = EDGE_CURVE ( 'NONE', #642, #327, #339, .T. ) ;
#814 = CARTESIAN_POINT ( 'NONE',  ( 0.8486262390323824345, 1.587500000000000355, -14.91676882282394700 ) ) ;
#815 = FACE_BOUND ( 'NONE', #546, .T. ) ;
#816 = EDGE_LOOP ( 'NONE', ( #157, #459, #916, #862 ) ) ;
#817 = DIRECTION ( 'NONE',  ( 1.224646799147353207E-16, -1.000000000000000000, 0.000000000000000000 ) ) ;
#818 = CARTESIAN_POINT ( 'NONE',  ( 0.000000000000000000, 0.000000000000000000, -12.86099999999999000 ) ) ;
#819 = CC_DESIGN_DATE_AND_TIME_ASSIGNMENT ( #710, #230, ( #498 ) ) ;
#820 = EDGE_CURVE ( 'NONE', #811, #12, #919, .T. ) ;
#821 = EDGE_LOOP ( 'NONE', ( #117, #891, #141, #657, #289, #53, #48, #107 ) ) ;
#822 = AXIS2_PLACEMENT_3D ( 'NONE', #566, #847, #493 ) ;
#823 = DIRECTION ( 'NONE',  ( 0.000000000000000000, -0.000000000000000000, -1.000000000000000000 ) ) ;
#824 = AXIS2_PLACEMENT_3D ( 'NONE', #637, #798, #158 ) ;
#825 = PERSON ( 'UNSPECIFIED', 'UNSPECIFIED', 'UNSPECIFIED', ('UNSPECIFIED'), ('UNSPECIFIED'), ('UNSPECIFIED') ) ;
#826 = CARTESIAN_POINT ( 'NONE',  ( 1.245064030267288402, 0.000000000000000000, -14.98599999999999888 ) ) ;
#827 = CARTESIAN_POINT ( 'NONE',  ( -1.587500000000000355, 1.587500000000000355, 14.98600000000000065 ) ) ;
#828 = PRODUCT ( '228-2500-078', '228-2500-078', '', ( #84 ) ) ;
#829 = EDGE_CURVE ( 'NONE', #299, #95, #311, .T. ) ;
#830 = ORIENTED_EDGE ( 'NONE', *, *, #888, .T. ) ;
#831 = DIRECTION ( 'NONE',  ( 1.000000000000000000, 1.224646799147353207E-16, 0.000000000000000000 ) ) ;
#832 = CYLINDRICAL_SURFACE ( 'NONE', #796, 2.032000000000000028 ) ;
#833 = CARTESIAN_POINT ( 'NONE',  ( 1.245064030267288402, 0.000000000000000000, -12.86099999999999000 ) ) ;
#834 = ORIENTED_EDGE ( 'NONE', *, *, #836, .F. ) ;
#835 = CARTESIAN_POINT ( 'NONE',  ( -1.587500000000000355, -1.587500000000000355, 9.525000000000000355 ) ) ;
#836 = EDGE_CURVE ( 'NONE', #38, #185, #268, .T. ) ;
#837 = CARTESIAN_POINT ( 'NONE',  ( 0.4342314039556041672, 1.587500000000000355, 14.95785171744314113 ) ) ;
#838 = VECTOR ( 'NONE', #624, 1000.000000000000000 ) ;
#839 = CARTESIAN_POINT ( 'NONE',  ( -1.587499999999999911, -1.268411506570324088, -14.98600000000000065 ) ) ;
#840 = ORIENTED_EDGE ( 'NONE', *, *, #582, .F. ) ;
#841 = CIRCLE ( 'NONE', #806, 2.399999999999999911 ) ;
#842 = ADVANCED_FACE ( 'NONE', ( #345 ), #556, .T. ) ;
#843 = DIRECTION ( 'NONE',  ( 0.000000000000000000, 0.000000000000000000, 1.000000000000000000 ) ) ;
#844 = DIRECTION ( 'NONE',  ( 1.000000000000000000, 0.000000000000000000, 0.000000000000000000 ) ) ;
#845 = VERTEX_POINT ( 'NONE', #764 ) ;
#846 = CARTESIAN_POINT ( 'NONE',  ( -1.587499999999999911, -1.268411506570324088, -14.98600000000000065 ) ) ;
#847 = DIRECTION ( 'NONE',  ( -0.000000000000000000, -0.000000000000000000, -1.000000000000000000 ) ) ;
#848 = ORIENTED_EDGE ( 'NONE', *, *, #89, .F. ) ;
#849 = CARTESIAN_POINT ( 'NONE',  ( 0.000000000000000000, 0.000000000000000000, -14.83491914209798423 ) ) ;
#850 = EDGE_LOOP ( 'NONE', ( #482, #555, #652, #807, #263 ) ) ;
#851 = AXIS2_PLACEMENT_3D ( 'NONE', #818, #733, #116 ) ;
#852 = DIRECTION ( 'NONE',  ( 0.000000000000000000, 0.000000000000000000, -1.000000000000000000 ) ) ;
#853 = ORIENTED_EDGE ( 'NONE', *, *, #336, .F. ) ;
#854 = APPROVAL_ROLE ( '' ) ;
#855 = PRODUCT_DEFINITION_FORMATION_WITH_SPECIFIED_SOURCE ( 'ANY', '', #828, .NOT_KNOWN. ) ;
#856 = TOROIDAL_SURFACE ( 'NONE', #173, 1.245064030267288402, 2.125000000000009770 ) ;
#857 = FACE_OUTER_BOUND ( 'NONE', #274, .T. ) ;
#858 = AXIS2_PLACEMENT_3D ( 'NONE', #483, #138, #213 ) ;
#859 = CARTESIAN_POINT ( 'NONE',  ( 0.000000000000000000, 0.000000000000000000, 8.724999999999999645 ) ) ;
#860 = EDGE_CURVE ( 'NONE', #185, #571, #496, .T. ) ;
#861 = PERSON_AND_ORGANIZATION ( #825, #502 ) ;
#862 = ORIENTED_EDGE ( 'NONE', *, *, #255, .T. ) ;
#863 = B_SPLINE_CURVE_WITH_KNOTS ( 'NONE', 3,
 ( #186, #454, #666, #526, #177, #748 ),
 .UNSPECIFIED., .F., .F.,
 ( 4, 2, 4 ),
 ( 0.01485345774306985438, 0.01548163471194342541, 0.01610981168081699472 ),
 .UNSPECIFIED. ) ;
#864 = LINE ( 'NONE', #781, #159 ) ;
#865 = ORIENTED_EDGE ( 'NONE', *, *, #428, .F. ) ;
#866 = SECURITY_CLASSIFICATION_LEVEL ( 'unclassified' ) ;
#867 = CARTESIAN_POINT ( 'NONE',  ( 0.000000000000000000, 0.000000000000000000, -14.98600000000000065 ) ) ;
#868 = CARTESIAN_POINT ( 'NONE',  ( 2.399999999999999911, 0.000000000000000000, 8.724999999999999645 ) ) ;
#869 = DATE_TIME_ROLE ( 'creation_date' ) ;
#870 = LOCAL_TIME ( 13, 56, 59.00000000000000000, #226 ) ;
#871 = ADVANCED_FACE ( 'NONE', ( #615 ), #705, .T. ) ;
#872 = FACE_OUTER_BOUND ( 'NONE', #850, .T. ) ;
#873 = VECTOR ( 'NONE', #10, 1000.000000000000000 ) ;
#874 = AXIS2_PLACEMENT_3D ( 'NONE', #420, #917, #197 ) ;
#875 = ORIENTED_EDGE ( 'NONE', *, *, #602, .T. ) ;
#876 = CARTESIAN_POINT ( 'NONE',  ( -1.587500000000000355, -1.944126793646423534E-16, 14.95822736169286671 ) ) ;
#877 = CARTESIAN_POINT ( 'NONE',  ( -1.268411506570323644, -1.587500000000000355, 14.83491914209798246 ) ) ;
#878 = CARTESIAN_POINT ( 'NONE',  ( 1.587499999999999911, 1.268411506570324088, -14.83491914209798423 ) ) ;
#879 = CARTESIAN_POINT ( 'NONE',  ( -1.587500000000000577, -0.4277385810629846796, -14.95198654358310897 ) ) ;
#880 = CLOSED_SHELL ( 'NONE', ( #178, #45, #64, #404, #608, #515, #470, #592, #842, #231, #367, #361, #730, #871, #273, #170, #210, #166, #495, #753, #740, #704, #585, #124, #280, #131 ) ) ;
#881 = ORIENTED_EDGE ( 'NONE', *, *, #820, .T. ) ;
#882 = CIRCLE ( 'NONE', #81, 2.032000000000000028 ) ;
#883 = DIRECTION ( 'NONE',  ( 0.000000000000000000, 1.000000000000000000, -0.000000000000000000 ) ) ;
#884 = CARTESIAN_POINT ( 'NONE',  ( 0.2043756380772878689, 1.587500000000000799, -14.95840961896380072 ) ) ;
#885 = CARTESIAN_POINT ( 'NONE',  ( 0.000000000000000000, 0.000000000000000000, 9.525000000000000355 ) ) ;
#886 = CIRCLE ( 'NONE', #37, 1.245064030267288402 ) ;
#887 = ORIENTED_EDGE ( 'NONE', *, *, #411, .F. ) ;
#888 = EDGE_CURVE ( 'NONE', #845, #780, #473, .T. ) ;
#889 = CARTESIAN_POINT ( 'NONE',  ( 0.000000000000000000, 0.000000000000000000, 14.83491914209798423 ) ) ;
#890 = LINE ( 'NONE', #605, #262 ) ;
#891 = ORIENTED_EDGE ( 'NONE', *, *, #899, .F. ) ;
#892 = CARTESIAN_POINT ( 'NONE',  ( -1.587500000000000355, -1.944126793646423534E-16, 14.95822736169286671 ) ) ;
#893 = PRODUCT_RELATED_PRODUCT_CATEGORY ( 'detail', '', ( #828 ) ) ;
#894 = EDGE_CURVE ( 'NONE', #673, #299, #690, .T. ) ;
#895 = CARTESIAN_POINT ( 'NONE',  ( 1.587500000000000355, -1.061392899157111325, 14.88643677385166342 ) ) ;
#896 = ORIENTED_EDGE ( 'NONE', *, *, #560, .T. ) ;
#897 = CARTESIAN_POINT ( 'NONE',  ( 0.8486262390323805471, -1.587500000000000355, 14.91676882282394700 ) ) ;
#898 = CARTESIAN_POINT ( 'NONE',  ( 1.268411506570324088, -1.587499999999999911, -14.98600000000000065 ) ) ;
#899 = EDGE_CURVE ( 'NONE', #149, #921, #580, .T. ) ;
#900 = DIRECTION ( 'NONE',  ( -0.000000000000000000, -0.000000000000000000, 1.000000000000000000 ) ) ;
#901 = ORIENTED_EDGE ( 'NONE', *, *, #39, .F. ) ;
#902 = AXIS2_PLACEMENT_3D ( 'NONE', #889, #264, #533 ) ;
#903 = CARTESIAN_POINT ( 'NONE',  ( 1.268411506570324088, -1.587499999999999911, -14.98600000000000065 ) ) ;
#904 = AXIS2_PLACEMENT_3D ( 'NONE', #334, #217, #415 ) ;
#905 = DIRECTION ( 'NONE',  ( 0.000000000000000000, 0.000000000000000000, 1.000000000000000000 ) ) ;
#906 = CARTESIAN_POINT ( 'NONE',  ( 1.268411506570324088, -1.587499999999999911, -14.83491914209798423 ) ) ;
#907 = VERTEX_POINT ( 'NONE', #134 ) ;
#908 = DIRECTION ( 'NONE',  ( 0.000000000000000000, 1.000000000000000000, 0.000000000000000000 ) ) ;
#909 = CARTESIAN_POINT ( 'NONE',  ( -1.587500000000000355, -1.587500000000000355, 14.98600000000000065 ) ) ;
#910 = ORIENTED_EDGE ( 'NONE', *, *, #142, .T. ) ;
#911 = CC_DESIGN_PERSON_AND_ORGANIZATION_ASSIGNMENT ( #3, #15, ( #855 ) ) ;
#912 = EDGE_CURVE ( 'NONE', #23, #571, #50, .T. ) ;
#913 = LOCAL_TIME ( 13, 56, 59.00000000000000000, #581 ) ;
#914 = DIRECTION ( 'NONE',  ( -1.000000000000000000, 0.000000000000000000, 0.000000000000000000 ) ) ;
#915 = DIRECTION ( 'NONE',  ( 0.000000000000000000, 0.000000000000000000, -1.000000000000000000 ) ) ;
#916 = ORIENTED_EDGE ( 'NONE', *, *, #672, .T. ) ;
#917 = DIRECTION ( 'NONE',  ( -0.000000000000000000, -0.000000000000000000, 1.000000000000000000 ) ) ;
#918 = VECTOR ( 'NONE', #206, 1000.000000000000000 ) ;
#919 = CIRCLE ( 'NONE', #381, 2.032000000000000028 ) ;
#920 = CARTESIAN_POINT ( 'NONE',  ( -1.587499999999999911, -1.268411506570324088, -14.83491914209798423 ) ) ;
#921 = VERTEX_POINT ( 'NONE', #350 ) ;
#922 =( LENGTH_UNIT ( ) NAMED_UNIT ( * ) SI_UNIT ( .MILLI., .METRE. ) );
#923 = ORIENTED_EDGE ( 'NONE', *, *, #582, .T. ) ;
ENDSEC;
END-ISO-10303-21;
