ISO-10303-21;
HEADER;
FILE_DESCRIPTION (( 'STEP AP203' ),
    '1' );
FILE_NAME ('228-2500-1954.step',
    '2022-06-06T19:29:41',
    ( '' ),
    ( '' ),
    'SwSTEP 2.0',
    'SolidWorks 2021',
    '' );
FILE_SCHEMA (( 'CONFIG_CONTROL_DESIGN' ));
ENDSEC;

DATA;
#1 = ORIENTED_EDGE ( 'NONE', *, *, #476, .T. ) ;
#2 = DATE_AND_TIME ( #273, #564 ) ;
#3 = CARTESIAN_POINT ( 'NONE',  ( 24.24999999999999289, 0.000000000000000000, 9.524999999999991473 ) ) ;
#4 = LINE ( 'NONE', #27, #431 ) ;
#5 = AXIS2_PLACEMENT_3D ( 'NONE', #305, #584, #841 ) ;
#6 = ORIENTED_EDGE ( 'NONE', *, *, #274, .F. ) ;
#7 = FACE_OUTER_BOUND ( 'NONE', #168, .T. ) ;
#8 = DIRECTION ( 'NONE',  ( 0.000000000000000000, 0.000000000000000000, -1.000000000000000000 ) ) ;
#9 = VERTEX_POINT ( 'NONE', #723 ) ;
#10 = ORIENTED_EDGE ( 'NONE', *, *, #663, .T. ) ;
#11 = DIRECTION ( 'NONE',  ( -1.000000000000000000, 0.000000000000000000, 0.000000000000000000 ) ) ;
#12 = CIRCLE ( 'NONE', #526, 22.24999999999993250 ) ;
#13 = DIRECTION ( 'NONE',  ( -0.000000000000000000, -0.000000000000000000, 1.000000000000000000 ) ) ;
#14 = ADVANCED_FACE ( 'NONE', ( #601 ), #702, .T. ) ;
#15 = ORIENTED_EDGE ( 'NONE', *, *, #875, .T. ) ;
#16 = ORIENTED_EDGE ( 'NONE', *, *, #437, .F. ) ;
#17 = FACE_BOUND ( 'NONE', #408, .T. ) ;
#18 = ORIENTED_EDGE ( 'NONE', *, *, #410, .F. ) ;
#19 = DIRECTION ( 'NONE',  ( 0.000000000000000000, 0.000000000000000000, -1.000000000000000000 ) ) ;
#20 = CIRCLE ( 'NONE', #133, 27.82534320030960373 ) ;
#21 = SECURITY_CLASSIFICATION ( '', '', #689 ) ;
#22 = DIRECTION ( 'NONE',  ( -0.000000000000000000, -0.000000000000000000, 1.000000000000000000 ) ) ;
#23 = DIRECTION ( 'NONE',  ( -1.000000000000000000, 0.000000000000000000, -0.000000000000000000 ) ) ;
#24 = VERTEX_POINT ( 'NONE', #120 ) ;
#25 = EDGE_CURVE ( 'NONE', #306, #425, #603, .T. ) ;
#26 = AXIS2_PLACEMENT_3D ( 'NONE', #743, #534, #736 ) ;
#27 = CARTESIAN_POINT ( 'NONE',  ( -22.24999999999992539, 2.724839128102851919E-15, 9.524999999999991473 ) ) ;
#28 = VERTEX_POINT ( 'NONE', #110 ) ;
#29 = CARTESIAN_POINT ( 'NONE',  ( -28.82534320030960728, 4.317330759615054168E-15, -2.285999999999961840 ) ) ;
#30 = VERTEX_POINT ( 'NONE', #329 ) ;
#31 = CIRCLE ( 'NONE', #535, 41.62129050720693613 ) ;
#32 = DIRECTION ( 'NONE',  ( -0.000000000000000000, -0.000000000000000000, 1.000000000000000000 ) ) ;
#33 = ORIENTED_EDGE ( 'NONE', *, *, #700, .T. ) ;
#34 = EDGE_CURVE ( 'NONE', #417, #9, #316, .T. ) ;
#35 = ORIENTED_EDGE ( 'NONE', *, *, #233, .T. ) ;
#36 = PERSON_AND_ORGANIZATION ( #151, #548 ) ;
#37 = DIRECTION ( 'NONE',  ( -0.000000000000000000, -0.000000000000000000, 1.000000000000000000 ) ) ;
#38 = TOROIDAL_SURFACE ( 'NONE', #315, 28.82534320030959307, 100.0000000000000000 ) ;
#39 = EDGE_CURVE ( 'NONE', #547, #822, #574, .T. ) ;
#40 = CARTESIAN_POINT ( 'NONE',  ( 22.24999999999992539, 0.000000000000000000, 9.524999999999991473 ) ) ;
#41 = TOROIDAL_SURFACE ( 'NONE', #26, 27.82534320030960373, 10.00000000000000178 ) ;
#42 = EDGE_CURVE ( 'NONE', #30, #876, #587, .T. ) ;
#43 = AXIS2_PLACEMENT_3D ( 'NONE', #793, #37, #735 ) ;
#44 = COORDINATED_UNIVERSAL_TIME_OFFSET ( 6, 0, .BEHIND. ) ;
#45 = CYLINDRICAL_SURFACE ( 'NONE', #799, 24.24999999999999289 ) ;
#46 = DIRECTION ( 'NONE',  ( 1.224646799147353207E-16, 1.000000000000000000, 0.000000000000000000 ) ) ;
#47 = EDGE_CURVE ( 'NONE', #631, #425, #392, .T. ) ;
#48 = CALENDAR_DATE ( 2022, 6, 6 ) ;
#49 = LOCAL_TIME ( 14, 29, 41.00000000000000000, #463 ) ;
#50 = DIRECTION ( 'NONE',  ( -0.000000000000000000, -0.000000000000000000, 1.000000000000000000 ) ) ;
#51 = CARTESIAN_POINT ( 'NONE',  ( 41.42488528984527818, 5.073085317525530122E-15, 0.5273160400355512145 ) ) ;
#52 = ORIENTED_EDGE ( 'NONE', *, *, #39, .T. ) ;
#53 = FACE_OUTER_BOUND ( 'NONE', #854, .T. ) ;
#54 = EDGE_CURVE ( 'NONE', #562, #493, #883, .T. ) ;
#55 = DIRECTION ( 'NONE',  ( -0.000000000000000000, -0.000000000000000000, 1.000000000000000000 ) ) ;
#56 = DIRECTION ( 'NONE',  ( -1.000000000000000000, 0.000000000000000000, 0.000000000000000000 ) ) ;
#57 = CIRCLE ( 'NONE', #341, 100.0000000000000000 ) ;
#58 = AXIS2_PLACEMENT_3D ( 'NONE', #138, #577, #488 ) ;
#59 = ORIENTED_EDGE ( 'NONE', *, *, #210, .F. ) ;
#60 = CIRCLE ( 'NONE', #786, 10.00000000000000178 ) ;
#61 = CIRCLE ( 'NONE', #407, 2.000000000000000000 ) ;
#62 = CARTESIAN_POINT ( 'NONE',  ( 24.24999999999999289, 0.000000000000000000, -0.3749999999999552580 ) ) ;
#63 = ORIENTED_EDGE ( 'NONE', *, *, #812, .F. ) ;
#64 = CARTESIAN_POINT ( 'NONE',  ( 2.450000000000000622, 0.000000000000000000, 9.525000000000034106 ) ) ;
#65 = AXIS2_PLACEMENT_3D ( 'NONE', #504, #359, #764 ) ;
#66 = FACE_BOUND ( 'NONE', #450, .T. ) ;
#67 = EDGE_CURVE ( 'NONE', #760, #331, #114, .T. ) ;
#68 = ORIENTED_EDGE ( 'NONE', *, *, #34, .F. ) ;
#69 = APPROVAL_STATUS ( 'not_yet_approved' ) ;
#70 = DIRECTION ( 'NONE',  ( 0.000000000000000000, 0.000000000000000000, -1.000000000000000000 ) ) ;
#71 = DIRECTION ( 'NONE',  ( -0.000000000000000000, -1.000000000000000000, -0.000000000000000000 ) ) ;
#72 = ORIENTED_EDGE ( 'NONE', *, *, #261, .F. ) ;
#73 = AXIS2_PLACEMENT_3D ( 'NONE', #667, #606, #253 ) ;
#74 = CARTESIAN_POINT ( 'NONE',  ( 28.82534320030959307, 0.000000000000000000, 97.71400000000005548 ) ) ;
#75 = AXIS2_PLACEMENT_3D ( 'NONE', #721, #55, #109 ) ;
#76 = DIRECTION ( 'NONE',  ( 0.000000000000000000, 0.000000000000000000, -1.000000000000000000 ) ) ;
#77 = CARTESIAN_POINT ( 'NONE',  ( 0.000000000000000000, 0.000000000000000000, 17.62500000000003908 ) ) ;
#78 = VERTEX_POINT ( 'NONE', #394 ) ;
#79 = ADVANCED_FACE ( 'NONE', ( #391 ), #45, .F. ) ;
#80 = DIRECTION ( 'NONE',  ( -0.000000000000000000, -1.000000000000000000, -0.000000000000000000 ) ) ;
#81 = DIRECTION ( 'NONE',  ( -0.000000000000000000, -0.000000000000000000, 1.000000000000000000 ) ) ;
#82 = CC_DESIGN_APPROVAL ( #583, ( #21 ) ) ;
#83 = ORIENTED_EDGE ( 'NONE', *, *, #107, .T. ) ;
#84 = AXIS2_PLACEMENT_3D ( 'NONE', #653, #836, #446 ) ;
#85 = FACE_OUTER_BOUND ( 'NONE', #853, .T. ) ;
#86 = DIRECTION ( 'NONE',  ( -1.000000000000000000, 0.000000000000000000, -0.000000000000000000 ) ) ;
#87 = ORIENTED_EDGE ( 'NONE', *, *, #629, .T. ) ;
#88 = EDGE_LOOP ( 'NONE', ( #780, #720 ) ) ;
#89 = DATE_AND_TIME ( #426, #805 ) ;
#90 = DIRECTION ( 'NONE',  ( 1.000000000000000000, 0.000000000000000000, 0.000000000000000000 ) ) ;
#91 = EDGE_CURVE ( 'NONE', #562, #627, #729, .T. ) ;
#92 = ORIENTED_EDGE ( 'NONE', *, *, #790, .F. ) ;
#93 = ORIENTED_EDGE ( 'NONE', *, *, #67, .T. ) ;
#94 = CARTESIAN_POINT ( 'NONE',  ( 0.000000000000000000, 0.000000000000000000, 0.07743184203732635107 ) ) ;
#95 = CARTESIAN_POINT ( 'NONE',  ( -22.24999999999992895, 2.724839128102852708E-15, 19.42500000000003979 ) ) ;
#96 = CARTESIAN_POINT ( 'NONE',  ( -27.82534320030960373, 3.407621748543572675E-15, 11.33600000000004293 ) ) ;
#97 = EDGE_LOOP ( 'NONE', ( #384, #607 ) ) ;
#98 = CARTESIAN_POINT ( 'NONE',  ( 0.000000000000000000, 0.000000000000000000, -2.285999999999963617 ) ) ;
#99 = CARTESIAN_POINT ( 'NONE',  ( -27.82534320030960373, 3.407621748543572675E-15, -2.285999999999963617 ) ) ;
#100 = AXIS2_PLACEMENT_3D ( 'NONE', #501, #289, #576 ) ;
#101 = AXIS2_PLACEMENT_3D ( 'NONE', #821, #691, #697 ) ;
#102 = DIRECTION ( 'NONE',  ( 1.000000000000000000, 0.000000000000000000, 0.000000000000000000 ) ) ;
#103 = ORIENTED_EDGE ( 'NONE', *, *, #856, .T. ) ;
#104 = ADVANCED_FACE ( 'NONE', ( #7 ), #424, .F. ) ;
#105 = DIRECTION ( 'NONE',  ( -1.000000000000000000, 0.000000000000000000, 0.000000000000000000 ) ) ;
#106 = ORIENTED_EDGE ( 'NONE', *, *, #656, .F. ) ;
#107 = EDGE_CURVE ( 'NONE', #567, #876, #499, .T. ) ;
#108 = PERSON_AND_ORGANIZATION ( #151, #548 ) ;
#109 = DIRECTION ( 'NONE',  ( 1.000000000000000000, 0.000000000000000000, 0.000000000000000000 ) ) ;
#110 = CARTESIAN_POINT ( 'NONE',  ( 22.24999999999993250, 0.000000000000000000, 19.42500000000003979 ) ) ;
#111 = AXIS2_PLACEMENT_3D ( 'NONE', #94, #453, #647 ) ;
#112 = CYLINDRICAL_SURFACE ( 'NONE', #73, 24.24999999999999289 ) ;
#113 = EDGE_CURVE ( 'NONE', #493, #589, #60, .T. ) ;
#114 = CIRCLE ( 'NONE', #843, 99.99999999999998579 ) ;
#115 = CARTESIAN_POINT ( 'NONE',  ( -24.24999999999999289, 2.969768487932330893E-15, 9.524999999999991473 ) ) ;
#116 = CARTESIAN_POINT ( 'NONE',  ( 43.37362955433755474, 0.000000000000000000, 0.07743184203732635107 ) ) ;
#117 = EDGE_LOOP ( 'NONE', ( #635, #313, #428, #850 ) ) ;
#118 = AXIS2_PLACEMENT_3D ( 'NONE', #167, #454, #90 ) ;
#119 = CC_DESIGN_APPROVAL ( #307, ( #684 ) ) ;
#120 = CARTESIAN_POINT ( 'NONE',  ( 28.82534320030960373, 0.000000000000000000, -2.285999999999961840 ) ) ;
#121 = CARTESIAN_POINT ( 'NONE',  ( 0.000000000000000000, 27.82534320030960373, 21.33600000000004471 ) ) ;
#122 = ORIENTED_EDGE ( 'NONE', *, *, #54, .F. ) ;
#123 = CARTESIAN_POINT ( 'NONE',  ( 0.000000000000000000, 0.000000000000000000, 21.33600000000004115 ) ) ;
#124 = DIRECTION ( 'NONE',  ( -0.000000000000000000, -0.000000000000000000, 1.000000000000000000 ) ) ;
#125 = CIRCLE ( 'NONE', #481, 100.0000000000000426 ) ;
#126 = ORIENTED_EDGE ( 'NONE', *, *, #656, .T. ) ;
#127 = TOROIDAL_SURFACE ( 'NONE', #742, 27.82534320030960373, 10.00000000000000178 ) ;
#128 = EDGE_CURVE ( 'NONE', #30, #223, #642, .T. ) ;
#129 = CARTESIAN_POINT ( 'NONE',  ( -41.68201880187665864, 5.104575090771803273E-15, 20.50608567343319066 ) ) ;
#130 = FACE_BOUND ( 'NONE', #597, .T. ) ;
#131 = EDGE_LOOP ( 'NONE', ( #485, #543, #671, #383 ) ) ;
#132 = DIRECTION ( 'NONE',  ( 1.000000000000000000, 0.000000000000000000, 0.000000000000000000 ) ) ;
#133 = AXIS2_PLACEMENT_3D ( 'NONE', #648, #299, #382 ) ;
#134 = CARTESIAN_POINT ( 'NONE',  ( 0.000000000000000000, 0.000000000000000000, 21.33600000000004826 ) ) ;
#135 = ORIENTED_EDGE ( 'NONE', *, *, #25, .F. ) ;
#136 = DATE_AND_TIME ( #48, #399 ) ;
#137 = DIRECTION ( 'NONE',  ( -0.000000000000000000, -0.000000000000000000, 1.000000000000000000 ) ) ;
#138 = CARTESIAN_POINT ( 'NONE',  ( 0.000000000000000000, 0.000000000000000000, 17.62500000000003908 ) ) ;
#139 = EDGE_CURVE ( 'NONE', #627, #479, #364, .T. ) ;
#140 = ORIENTED_EDGE ( 'NONE', *, *, #261, .T. ) ;
#141 = TOROIDAL_SURFACE ( 'NONE', #362, 41.42488528984527818, 2.000000000000000000 ) ;
#142 = CIRCLE ( 'NONE', #483, 28.82534320030960373 ) ;
#143 = DIRECTION ( 'NONE',  ( 0.000000000000000000, 0.000000000000000000, -1.000000000000000000 ) ) ;
#144 = DIRECTION ( 'NONE',  ( 1.000000000000000000, 0.000000000000000000, 0.000000000000000000 ) ) ;
#145 = EDGE_LOOP ( 'NONE', ( #161, #173, #833, #645 ) ) ;
#146 = ADVANCED_FACE ( 'NONE', ( #630 ), #763, .F. ) ;
#147 = CARTESIAN_POINT ( 'NONE',  ( 0.000000000000000000, 0.000000000000000000, -0.3749999999999552580 ) ) ;
#148 = CARTESIAN_POINT ( 'NONE',  ( -41.62129050720693613, 5.097138019603308862E-15, 1.425000000000040901 ) ) ;
#149 = EDGE_LOOP ( 'NONE', ( #809, #754, #582, #10 ) ) ;
#150 = CARTESIAN_POINT ( 'NONE',  ( 41.68201880187579178, 0.000000000000000000, -1.456085673433332728 ) ) ;
#151 = PERSON ( 'UNSPECIFIED', 'UNSPECIFIED', 'UNSPECIFIED', ('UNSPECIFIED'), ('UNSPECIFIED'), ('UNSPECIFIED') ) ;
#152 = ADVANCED_FACE ( 'NONE', ( #432 ), #291, .T. ) ;
#153 = LINE ( 'NONE', #172, #279 ) ;
#154 = ORIENTED_EDGE ( 'NONE', *, *, #838, .T. ) ;
#155 = CARTESIAN_POINT ( 'NONE',  ( 0.000000000000000000, 0.000000000000000000, 20.50608567343319066 ) ) ;
#156 = APPROVAL_STATUS ( 'not_yet_approved' ) ;
#157 = CIRCLE ( 'NONE', #170, 41.68201880187662312 ) ;
#158 = CIRCLE ( 'NONE', #256, 42.00000000000000711 ) ;
#159 = CC_DESIGN_PERSON_AND_ORGANIZATION_ASSIGNMENT ( #418, #319, ( #684 ) ) ;
#160 = DIRECTION ( 'NONE',  ( 1.224646799147353207E-16, 1.000000000000000000, 0.000000000000000000 ) ) ;
#161 = ORIENTED_EDGE ( 'NONE', *, *, #67, .F. ) ;
#162 = PLANE ( 'NONE',  #873 ) ;
#163 = EDGE_LOOP ( 'NONE', ( #18, #15, #659, #737 ) ) ;
#164 = TOROIDAL_SURFACE ( 'NONE', #617, 2.450000000000000622, 42.00000000000000711 ) ;
#165 = CARTESIAN_POINT ( 'NONE',  ( 0.000000000000000000, 0.000000000000000000, 97.71400000000005548 ) ) ;
#166 = APPROVAL_PERSON_ORGANIZATION ( #761, #583, #445 ) ;
#167 = CARTESIAN_POINT ( 'NONE',  ( 0.000000000000000000, 0.000000000000000000, 9.525000000000034106 ) ) ;
#168 = EDGE_LOOP ( 'NONE', ( #712, #500, #87, #871 ) ) ;
#169 = DIRECTION ( 'NONE',  ( -0.000000000000000000, -0.000000000000000000, 1.000000000000000000 ) ) ;
#170 = AXIS2_PLACEMENT_3D ( 'NONE', #155, #442, #11 ) ;
#171 = AXIS2_PLACEMENT_3D ( 'NONE', #694, #81, #269 ) ;
#172 = CARTESIAN_POINT ( 'NONE',  ( -22.24999999999992539, 2.724839128102851919E-15, 9.524999999999991473 ) ) ;
#173 = ORIENTED_EDGE ( 'NONE', *, *, #430, .T. ) ;
#174 = AXIS2_PLACEMENT_3D ( 'NONE', #248, #387, #605 ) ;
#175 = AXIS2_PLACEMENT_3D ( 'NONE', #571, #70, #487 ) ;
#176 = EDGE_CURVE ( 'NONE', #78, #9, #619, .T. ) ;
#177 = PERSON_AND_ORGANIZATION_ROLE ( 'classification_officer' ) ;
#178 = DIRECTION ( 'NONE',  ( -1.224646799147353207E-16, 1.000000000000000000, 0.000000000000000000 ) ) ;
#179 = ORIENTED_EDGE ( 'NONE', *, *, #629, .F. ) ;
#180 = TOROIDAL_SURFACE ( 'NONE', #118, 2.450000000000000622, 40.00000000000000000 ) ;
#181 = EDGE_CURVE ( 'NONE', #733, #567, #304, .T. ) ;
#182 = DIRECTION ( 'NONE',  ( -0.000000000000000000, -0.000000000000000000, 1.000000000000000000 ) ) ;
#183 = DIRECTION ( 'NONE',  ( 1.224646799147353207E-16, 1.000000000000000000, 0.000000000000000000 ) ) ;
#184 = PLANE ( 'NONE',  #599 ) ;
#185 = CARTESIAN_POINT ( 'NONE',  ( 0.000000000000000000, 0.000000000000000000, 11.33600000000004293 ) ) ;
#186 = MECHANICAL_CONTEXT ( 'NONE', #803, 'mechanical' ) ;
#187 = DIRECTION ( 'NONE',  ( 1.000000000000000000, 0.000000000000000000, 0.000000000000000000 ) ) ;
#188 = CARTESIAN_POINT ( 'NONE',  ( 0.000000000000000000, 0.000000000000000000, -2.285999999999963617 ) ) ;
#189 = DIRECTION ( 'NONE',  ( -0.000000000000000000, -0.000000000000000000, 1.000000000000000000 ) ) ;
#190 = CARTESIAN_POINT ( 'NONE',  ( 0.000000000000000000, 0.000000000000000000, -2.285999999999961840 ) ) ;
#191 = ORIENTED_EDGE ( 'NONE', *, *, #128, .F. ) ;
#192 =( GEOMETRIC_REPRESENTATION_CONTEXT ( 3 ) GLOBAL_UNCERTAINTY_ASSIGNED_CONTEXT ( ( #444 ) ) GLOBAL_UNIT_ASSIGNED_CONTEXT ( ( #877, #811, #622 ) ) REPRESENTATION_CONTEXT ( 'NONE', 'WORKASPACE' ) );
#193 = DIRECTION ( 'NONE',  ( 1.000000000000000000, 0.000000000000000000, 0.000000000000000000 ) ) ;
#194 = AXIS2_PLACEMENT_3D ( 'NONE', #365, #852, #242 ) ;
#195 = ORIENTED_EDGE ( 'NONE', *, *, #42, .F. ) ;
#196 = ADVANCED_FACE ( 'NONE', ( #85 ), #127, .T. ) ;
#197 = CARTESIAN_POINT ( 'NONE',  ( 0.000000000000000000, 0.000000000000000000, 9.524999999999991473 ) ) ;
#198 = DIRECTION ( 'NONE',  ( -0.000000000000000000, -0.000000000000000000, 1.000000000000000000 ) ) ;
#199 = AXIS2_PLACEMENT_3D ( 'NONE', #185, #594, #389 ) ;
#200 = ORIENTED_EDGE ( 'NONE', *, *, #678, .F. ) ;
#201 = EDGE_CURVE ( 'NONE', #733, #331, #61, .T. ) ;
#202 = APPLICATION_PROTOCOL_DEFINITION ( 'international standard', 'config_control_design', 1994, #803 ) ;
#203 = ADVANCED_FACE ( 'NONE', ( #693 ), #357, .F. ) ;
#204 = DIRECTION ( 'NONE',  ( -0.000000000000000000, -0.000000000000000000, 1.000000000000000000 ) ) ;
#205 = DIRECTION ( 'NONE',  ( 1.000000000000000000, 0.000000000000000000, 0.000000000000000000 ) ) ;
#206 = EDGE_LOOP ( 'NONE', ( #596, #179 ) ) ;
#207 = PERSON_AND_ORGANIZATION_ROLE ( 'creator' ) ;
#208 = CYLINDRICAL_SURFACE ( 'NONE', #772, 24.24999999999999289 ) ;
#209 = DIRECTION ( 'NONE',  ( 1.000000000000000000, 0.000000000000000000, 0.000000000000000000 ) ) ;
#210 = EDGE_CURVE ( 'NONE', #493, #479, #746, .T. ) ;
#211 = ORIENTED_EDGE ( 'NONE', *, *, #462, .T. ) ;
#212 = CARTESIAN_POINT ( 'NONE',  ( 0.000000000000000000, 0.000000000000000000, 0.07743184203732635107 ) ) ;
#213 = CARTESIAN_POINT ( 'NONE',  ( 0.000000000000000000, 24.24999999999999289, 17.62500000000004263 ) ) ;
#214 = EDGE_CURVE ( 'NONE', #425, #631, #327, .T. ) ;
#215 = VERTEX_POINT ( 'NONE', #129 ) ;
#216 = AXIS2_PLACEMENT_3D ( 'NONE', #544, #124, #870 ) ;
#217 = CARTESIAN_POINT ( 'NONE',  ( 24.24999999999999289, 0.000000000000000000, 9.524999999999991473 ) ) ;
#218 = DIRECTION ( 'NONE',  ( -0.000000000000000000, -0.000000000000000000, 1.000000000000000000 ) ) ;
#219 = ORIENTED_EDGE ( 'NONE', *, *, #598, .F. ) ;
#220 = ADVANCED_FACE ( 'NONE', ( #414, #338 ), #624, .F. ) ;
#221 = DIRECTION ( 'NONE',  ( 1.224646799147353207E-16, 1.000000000000000000, 0.000000000000000000 ) ) ;
#222 = CARTESIAN_POINT ( 'NONE',  ( 0.000000000000000000, 0.000000000000000000, 9.524999999999991473 ) ) ;
#223 = VERTEX_POINT ( 'NONE', #491 ) ;
#224 = VERTEX_POINT ( 'NONE', #751 ) ;
#225 = DIRECTION ( 'NONE',  ( 1.000000000000000000, 0.000000000000000000, 0.000000000000000000 ) ) ;
#226 = EDGE_CURVE ( 'NONE', #309, #230, #420, .T. ) ;
#227 = FACE_OUTER_BOUND ( 'NONE', #585, .T. ) ;
#228 = DIRECTION ( 'NONE',  ( -0.000000000000000000, -0.000000000000000000, 1.000000000000000000 ) ) ;
#229 = CARTESIAN_POINT ( 'NONE',  ( 0.000000000000000000, 22.24999999999993250, 19.42500000000003979 ) ) ;
#230 = VERTEX_POINT ( 'NONE', #522 ) ;
#231 = LINE ( 'NONE', #518, #350 ) ;
#232 = CARTESIAN_POINT ( 'NONE',  ( -22.24999999999992895, 2.724839128102852708E-15, -0.3749999999999586997 ) ) ;
#233 = EDGE_CURVE ( 'NONE', #215, #731, #125, .T. ) ;
#234 = ORIENTED_EDGE ( 'NONE', *, *, #139, .F. ) ;
#235 = CIRCLE ( 'NONE', #682, 10.00000000000000178 ) ;
#236 = DIRECTION ( 'NONE',  ( 1.000000000000000000, 0.000000000000000000, 0.000000000000000000 ) ) ;
#237 = EDGE_LOOP ( 'NONE', ( #374, #744 ) ) ;
#238 = APPLICATION_CONTEXT ( 'configuration controlled 3d designs of mechanical parts and assemblies' ) ;
#239 = DIRECTION ( 'NONE',  ( -1.000000000000000000, 0.000000000000000000, 0.000000000000000000 ) ) ;
#240 = TOROIDAL_SURFACE ( 'NONE', #738, 41.42488528984527818, 2.000000000000000000 ) ;
#241 = AXIS2_PLACEMENT_3D ( 'NONE', #334, #814, #205 ) ;
#242 = DIRECTION ( 'NONE',  ( 1.000000000000000000, 0.000000000000000000, 0.000000000000000000 ) ) ;
#243 = ORIENTED_EDGE ( 'NONE', *, *, #430, .F. ) ;
#244 = ORIENTED_EDGE ( 'NONE', *, *, #181, .T. ) ;
#245 = VECTOR ( 'NONE', #872, 1000.000000000000000 ) ;
#246 = EDGE_CURVE ( 'NONE', #562, #259, #726, .T. ) ;
#247 = APPROVAL_DATE_TIME ( #136, #307 ) ;
#248 = CARTESIAN_POINT ( 'NONE',  ( 0.000000000000000000, 0.000000000000000000, 11.33600000000004293 ) ) ;
#249 = FACE_OUTER_BOUND ( 'NONE', #511, .T. ) ;
#250 = PRODUCT_RELATED_PRODUCT_CATEGORY ( 'detail', '', ( #608 ) ) ;
#251 = CC_DESIGN_SECURITY_CLASSIFICATION ( #21, ( #684 ) ) ;
#252 = DIRECTION ( 'NONE',  ( 1.000000000000000000, 0.000000000000000000, 0.000000000000000000 ) ) ;
#253 = DIRECTION ( 'NONE',  ( 1.000000000000000000, 0.000000000000000000, 0.000000000000000000 ) ) ;
#254 = DIRECTION ( 'NONE',  ( -1.000000000000000000, 0.000000000000000000, 0.000000000000000000 ) ) ;
#255 = CIRCLE ( 'NONE', #288, 22.24999999999993250 ) ;
#256 = AXIS2_PLACEMENT_3D ( 'NONE', #794, #46, #393 ) ;
#257 = FACE_OUTER_BOUND ( 'NONE', #88, .T. ) ;
#258 = VECTOR ( 'NONE', #813, 1000.000000000000000 ) ;
#259 = VERTEX_POINT ( 'NONE', #99 ) ;
#260 = CARTESIAN_POINT ( 'NONE',  ( 24.24999999999999289, 0.000000000000000000, -1.624999999999954703 ) ) ;
#261 = EDGE_CURVE ( 'NONE', #567, #733, #540, .T. ) ;
#262 = EDGE_LOOP ( 'NONE', ( #140, #396, #558, #618 ) ) ;
#263 = CARTESIAN_POINT ( 'NONE',  ( 0.000000000000000000, 0.000000000000000000, 9.525000000000034106 ) ) ;
#264 = DIRECTION ( 'NONE',  ( 0.000000000000000000, -0.000000000000000000, 1.000000000000000000 ) ) ;
#265 = EDGE_CURVE ( 'NONE', #731, #223, #441, .T. ) ;
#266 = ORIENTED_EDGE ( 'NONE', *, *, #214, .T. ) ;
#267 = PERSON_AND_ORGANIZATION_ROLE ( 'design_owner' ) ;
#268 = DIRECTION ( 'NONE',  ( 1.000000000000000000, 0.000000000000000000, 0.000000000000000000 ) ) ;
#269 = DIRECTION ( 'NONE',  ( 1.000000000000000000, 0.000000000000000000, 0.000000000000000000 ) ) ;
#270 = AXIS2_PLACEMENT_3D ( 'NONE', #782, #221, #514 ) ;
#271 = ORIENTED_EDGE ( 'NONE', *, *, #663, .F. ) ;
#272 = CLOSED_SHELL ( 'NONE', ( #375, #152, #104, #639, #545, #335, #828, #864, #381, #480, #79, #633, #767, #203, #532, #294, #196, #220, #388, #739, #358, #592, #14, #302, #834, #146, #715, #801, #344, #370 ) ) ;
#273 = CALENDAR_DATE ( 2022, 6, 6 ) ;
#274 = EDGE_CURVE ( 'NONE', #306, #815, #255, .T. ) ;
#275 = DIRECTION ( 'NONE',  ( -0.000000000000000000, -0.000000000000000000, 1.000000000000000000 ) ) ;
#276 = DIRECTION ( 'NONE',  ( 1.000000000000000000, 0.000000000000000000, 0.000000000000000000 ) ) ;
#277 = ORIENTED_EDGE ( 'NONE', *, *, #462, .F. ) ;
#278 = DIRECTION ( 'NONE',  ( 0.000000000000000000, 0.000000000000000000, -1.000000000000000000 ) ) ;
#279 = VECTOR ( 'NONE', #657, 1000.000000000000000 ) ;
#280 = DIRECTION ( 'NONE',  ( 0.000000000000000000, 0.000000000000000000, -1.000000000000000000 ) ) ;
#281 = CYLINDRICAL_SURFACE ( 'NONE', #677, 22.24999999999992539 ) ;
#282 = ORIENTED_EDGE ( 'NONE', *, *, #54, .T. ) ;
#283 = EDGE_LOOP ( 'NONE', ( #523, #200 ) ) ;
#284 = CARTESIAN_POINT ( 'NONE',  ( 0.000000000000000000, 0.000000000000000000, 9.524999999999991473 ) ) ;
#285 = DIRECTION ( 'NONE',  ( 1.000000000000000000, 0.000000000000000000, 0.000000000000000000 ) ) ;
#286 = ORIENTED_EDGE ( 'NONE', *, *, #517, .T. ) ;
#287 = ORIENTED_EDGE ( 'NONE', *, *, #274, .T. ) ;
#288 = AXIS2_PLACEMENT_3D ( 'NONE', #710, #169, #448 ) ;
#289 = DIRECTION ( 'NONE',  ( -0.000000000000000000, -0.000000000000000000, 1.000000000000000000 ) ) ;
#290 = CIRCLE ( 'NONE', #785, 2.000000000000001776 ) ;
#291 = TOROIDAL_SURFACE ( 'NONE', #175, 41.42488528984527818, 2.000000000000000000 ) ;
#292 = DIRECTION ( 'NONE',  ( 0.000000000000000000, 0.000000000000000000, -1.000000000000000000 ) ) ;
#293 = EDGE_LOOP ( 'NONE', ( #122, #568, #461, #59 ) ) ;
#294 = ADVANCED_FACE ( 'NONE', ( #298 ), #380, .F. ) ;
#295 = ORIENTED_EDGE ( 'NONE', *, *, #128, .T. ) ;
#296 = DIRECTION ( 'NONE',  ( 1.000000000000000000, 0.000000000000000000, 0.000000000000000000 ) ) ;
#297 = ORIENTED_EDGE ( 'NONE', *, *, #806, .F. ) ;
#298 = FACE_OUTER_BOUND ( 'NONE', #847, .T. ) ;
#299 = DIRECTION ( 'NONE',  ( -0.000000000000000000, -0.000000000000000000, 1.000000000000000000 ) ) ;
#300 = CIRCLE ( 'NONE', #100, 24.24999999999999289 ) ;
#301 = AXIS2_PLACEMENT_3D ( 'NONE', #686, #218, #827 ) ;
#302 = ADVANCED_FACE ( 'NONE', ( #676 ), #208, .F. ) ;
#303 = AXIS2_PLACEMENT_3D ( 'NONE', #530, #178, #400 ) ;
#304 = CIRCLE ( 'NONE', #541, 43.37362955433755474 ) ;
#305 = CARTESIAN_POINT ( 'NONE',  ( 27.82534320030960373, 0.000000000000000000, 11.33600000000004293 ) ) ;
#306 = VERTEX_POINT ( 'NONE', #490 ) ;
#307 = APPROVAL ( #670, 'UNSPECIFIED' ) ;
#308 = FACE_BOUND ( 'NONE', #283, .T. ) ;
#309 = VERTEX_POINT ( 'NONE', #502 ) ;
#310 = AXIS2_PLACEMENT_3D ( 'NONE', #213, #626, #276 ) ;
#311 = PLANE ( 'NONE',  #778 ) ;
#312 = ORIENTED_EDGE ( 'NONE', *, *, #47, .F. ) ;
#313 = ORIENTED_EDGE ( 'NONE', *, *, #181, .F. ) ;
#314 = DIRECTION ( 'NONE',  ( 1.000000000000000000, 0.000000000000000000, 0.000000000000000000 ) ) ;
#315 = AXIS2_PLACEMENT_3D ( 'NONE', #569, #519, #225 ) ;
#316 = CIRCLE ( 'NONE', #43, 24.24999999999999645 ) ;
#317 = FACE_OUTER_BOUND ( 'NONE', #163, .T. ) ;
#318 = CC_DESIGN_PERSON_AND_ORGANIZATION_ASSIGNMENT ( #386, #345, ( #684 ) ) ;
#319 = PERSON_AND_ORGANIZATION_ROLE ( 'design_supplier' ) ;
#320 = DIRECTION ( 'NONE',  ( 1.000000000000000000, 0.000000000000000000, 0.000000000000000000 ) ) ;
#321 = DIRECTION ( 'NONE',  ( 0.000000000000000000, 0.000000000000000000, -1.000000000000000000 ) ) ;
#322 = EDGE_LOOP ( 'NONE', ( #72, #286, #16, #719 ) ) ;
#323 = EDGE_CURVE ( 'NONE', #24, #429, #57, .T. ) ;
#324 = CIRCLE ( 'NONE', #825, 24.24999999999999289 ) ;
#325 = AXIS2_PLACEMENT_3D ( 'NONE', #188, #472, #730 ) ;
#326 = CARTESIAN_POINT ( 'NONE',  ( 0.000000000000000000, 0.000000000000000000, 20.50608567343319066 ) ) ;
#327 = CIRCLE ( 'NONE', #758, 22.24999999999991829 ) ;
#328 = ORIENTED_EDGE ( 'NONE', *, *, #403, .T. ) ;
#329 = CARTESIAN_POINT ( 'NONE',  ( 41.68201880187665864, 0.000000000000000000, 20.50608567343319066 ) ) ;
#330 = DIRECTION ( 'NONE',  ( 1.000000000000000000, 0.000000000000000000, 0.000000000000000000 ) ) ;
#331 = VERTEX_POINT ( 'NONE', #404 ) ;
#332 = CIRCLE ( 'NONE', #748, 40.00000000000000000 ) ;
#333 = CARTESIAN_POINT ( 'NONE',  ( 27.82534320030960373, 0.000000000000000000, 7.714000000000038604 ) ) ;
#334 = CARTESIAN_POINT ( 'NONE',  ( 0.000000000000000000, 0.000000000000000000, 17.62500000000003908 ) ) ;
#335 = ADVANCED_FACE ( 'NONE', ( #227 ), #866, .T. ) ;
#336 = ORIENTED_EDGE ( 'NONE', *, *, #753, .F. ) ;
#337 = APPROVAL_ROLE ( '' ) ;
#338 = FACE_BOUND ( 'NONE', #97, .T. ) ;
#339 = AXIS2_PLACEMENT_3D ( 'NONE', #699, #22, #376 ) ;
#340 = CARTESIAN_POINT ( 'NONE',  ( -22.24999999999991829, 2.724839128102851524E-15, 1.425000000000040901 ) ) ;
#341 = AXIS2_PLACEMENT_3D ( 'NONE', #74, #762, #278 ) ;
#342 = AXIS2_PLACEMENT_3D ( 'NONE', #634, #8, #556 ) ;
#343 = ORIENTED_EDGE ( 'NONE', *, *, #536, .F. ) ;
#344 = ADVANCED_FACE ( 'NONE', ( #371 ), #839, .T. ) ;
#345 = PERSON_AND_ORGANIZATION_ROLE ( 'creator' ) ;
#346 = DIRECTION ( 'NONE',  ( 0.000000000000000000, -1.000000000000000000, 0.000000000000000000 ) ) ;
#347 = FACE_OUTER_BOUND ( 'NONE', #703, .T. ) ;
#348 = ORIENTED_EDGE ( 'NONE', *, *, #25, .T. ) ;
#349 = ORIENTED_EDGE ( 'NONE', *, *, #700, .F. ) ;
#350 = VECTOR ( 'NONE', #182, 1000.000000000000000 ) ;
#351 = DIRECTION ( 'NONE',  ( 1.000000000000000000, 0.000000000000000000, 0.000000000000000000 ) ) ;
#352 = CYLINDRICAL_SURFACE ( 'NONE', #840, 22.24999999999992539 ) ;
#353 = ORIENTED_EDGE ( 'NONE', *, *, #39, .F. ) ;
#354 = AXIS2_PLACEMENT_3D ( 'NONE', #515, #711, #296 ) ;
#355 = VERTEX_POINT ( 'NONE', #716 ) ;
#356 = CARTESIAN_POINT ( 'NONE',  ( 0.000000000000000000, 0.000000000000000000, 18.52268395996453521 ) ) ;
#357 = CYLINDRICAL_SURFACE ( 'NONE', #651, 22.24999999999992539 ) ;
#358 = ADVANCED_FACE ( 'NONE', ( #539 ), #469, .T. ) ;
#359 = DIRECTION ( 'NONE',  ( 0.000000000000000000, -1.000000000000000000, 0.000000000000000000 ) ) ;
#360 = EDGE_LOOP ( 'NONE', ( #552, #103, #880, #135 ) ) ;
#361 = EDGE_LOOP ( 'NONE', ( #195, #695, #126, #219 ) ) ;
#362 = AXIS2_PLACEMENT_3D ( 'NONE', #356, #19, #586 ) ;
#363 = CIRCLE ( 'NONE', #58, 41.62129050720693613 ) ;
#364 = CIRCLE ( 'NONE', #459, 24.24999999999999289 ) ;
#365 = CARTESIAN_POINT ( 'NONE',  ( 0.000000000000000000, 0.000000000000000000, 9.525000000000034106 ) ) ;
#366 = EDGE_LOOP ( 'NONE', ( #328, #35, #402, #191 ) ) ;
#367 = EDGE_LOOP ( 'NONE', ( #440, #92, #683, #506 ) ) ;
#368 = CARTESIAN_POINT ( 'NONE',  ( -27.82534320030960373, 3.407621748543572675E-15, 21.33600000000004115 ) ) ;
#369 = AXIS2_PLACEMENT_3D ( 'NONE', #134, #13, #681 ) ;
#370 = ADVANCED_FACE ( 'NONE', ( #665 ), #240, .T. ) ;
#371 = FACE_OUTER_BOUND ( 'NONE', #117, .T. ) ;
#372 = CARTESIAN_POINT ( 'NONE',  ( 0.000000000000000000, 0.000000000000000000, 9.524999999999991473 ) ) ;
#373 = FACE_OUTER_BOUND ( 'NONE', #366, .T. ) ;
#374 = ORIENTED_EDGE ( 'NONE', *, *, #790, .T. ) ;
#375 = ADVANCED_FACE ( 'NONE', ( #53 ), #141, .T. ) ;
#376 = DIRECTION ( 'NONE',  ( 1.000000000000000000, 0.000000000000000000, 0.000000000000000000 ) ) ;
#377 = AXIS2_PLACEMENT_3D ( 'NONE', #409, #680, #209 ) ;
#378 = FACE_OUTER_BOUND ( 'NONE', #367, .T. ) ;
#379 = EDGE_LOOP ( 'NONE', ( #297, #154, #807, #68 ) ) ;
#380 = CYLINDRICAL_SURFACE ( 'NONE', #664, 24.24999999999999289 ) ;
#381 = ADVANCED_FACE ( 'NONE', ( #844 ), #38, .T. ) ;
#382 = DIRECTION ( 'NONE',  ( 1.000000000000000000, 0.000000000000000000, 0.000000000000000000 ) ) ;
#383 = ORIENTED_EDGE ( 'NONE', *, *, #113, .F. ) ;
#384 = ORIENTED_EDGE ( 'NONE', *, *, #398, .T. ) ;
#385 = AXIS2_PLACEMENT_3D ( 'NONE', #77, #433, #638 ) ;
#386 = PERSON_AND_ORGANIZATION ( #151, #548 ) ;
#387 = DIRECTION ( 'NONE',  ( -0.000000000000000000, -0.000000000000000000, 1.000000000000000000 ) ) ;
#388 = ADVANCED_FACE ( 'NONE', ( #771 ), #810, .T. ) ;
#389 = DIRECTION ( 'NONE',  ( 1.000000000000000000, 0.000000000000000000, 0.000000000000000000 ) ) ;
#390 = AXIS2_PLACEMENT_3D ( 'NONE', #121, #292, #86 ) ;
#391 = FACE_OUTER_BOUND ( 'NONE', #293, .T. ) ;
#392 = CIRCLE ( 'NONE', #557, 22.24999999999991829 ) ;
#393 = DIRECTION ( 'NONE',  ( -1.000000000000000000, 1.224646799147353207E-16, 0.000000000000000000 ) ) ;
#394 = CARTESIAN_POINT ( 'NONE',  ( 24.24999999999999289, 0.000000000000000000, 19.42500000000003979 ) ) ;
#395 = CIRCLE ( 'NONE', #5, 10.00000000000000000 ) ;
#396 = ORIENTED_EDGE ( 'NONE', *, *, #498, .T. ) ;
#397 = CARTESIAN_POINT ( 'NONE',  ( 0.000000000000000000, 0.000000000000000000, 18.52268395996453521 ) ) ;
#398 = EDGE_CURVE ( 'NONE', #589, #259, #495, .T. ) ;
#399 = LOCAL_TIME ( 14, 29, 41.00000000000000000, #466 ) ;
#400 = DIRECTION ( 'NONE',  ( -1.000000000000000000, -1.224646799147353454E-16, 0.000000000000000000 ) ) ;
#401 = DIRECTION ( 'NONE',  ( 1.000000000000000000, 0.000000000000000000, 0.000000000000000000 ) ) ;
#402 = ORIENTED_EDGE ( 'NONE', *, *, #709, .F. ) ;
#403 = EDGE_CURVE ( 'NONE', #30, #215, #157, .T. ) ;
#404 = CARTESIAN_POINT ( 'NONE',  ( -41.68201880187579178, 5.104575090771698355E-15, -1.456085673433332728 ) ) ;
#405 = CIRCLE ( 'NONE', #65, 40.00000000000000000 ) ;
#406 = VECTOR ( 'NONE', #137, 1000.000000000000000 ) ;
#407 = AXIS2_PLACEMENT_3D ( 'NONE', #555, #80, #143 ) ;
#408 = EDGE_LOOP ( 'NONE', ( #672, #312 ) ) ;
#409 = CARTESIAN_POINT ( 'NONE',  ( 0.000000000000000000, 28.82534320030960373, -2.285999999999962728 ) ) ;
#410 = EDGE_CURVE ( 'NONE', #355, #78, #300, .T. ) ;
#411 = DIRECTION ( 'NONE',  ( 1.000000000000000000, 0.000000000000000000, 0.000000000000000000 ) ) ;
#412 = EDGE_LOOP ( 'NONE', ( #336, #465, #759, #837 ) ) ;
#413 = TOROIDAL_SURFACE ( 'NONE', #84, 28.82534320030959307, 100.0000000000000284 ) ;
#414 = FACE_OUTER_BOUND ( 'NONE', #769, .T. ) ;
#415 = PLANE ( 'NONE',  #310 ) ;
#416 = CC_DESIGN_PERSON_AND_ORGANIZATION_ASSIGNMENT ( #36, #267, ( #608 ) ) ;
#417 = VERTEX_POINT ( 'NONE', #507 ) ;
#418 = PERSON_AND_ORGANIZATION ( #151, #548 ) ;
#419 = CARTESIAN_POINT ( 'NONE',  ( 0.000000000000000000, 0.000000000000000000, 17.62500000000003908 ) ) ;
#420 = CIRCLE ( 'NONE', #525, 22.24999999999991829 ) ;
#421 = CARTESIAN_POINT ( 'NONE',  ( 0.000000000000000000, 0.000000000000000000, 9.524999999999991473 ) ) ;
#422 = ORIENTED_EDGE ( 'NONE', *, *, #869, .F. ) ;
#423 = AXIS2_PLACEMENT_3D ( 'NONE', #768, #832, #411 ) ;
#424 = TOROIDAL_SURFACE ( 'NONE', #457, 2.450000000000000622, 40.00000000000000000 ) ;
#425 = VERTEX_POINT ( 'NONE', #766 ) ;
#426 = CALENDAR_DATE ( 2022, 6, 6 ) ;
#427 = CARTESIAN_POINT ( 'NONE',  ( 41.62129050720693613, 0.000000000000000000, 17.62500000000003908 ) ) ;
#428 = ORIENTED_EDGE ( 'NONE', *, *, #201, .T. ) ;
#429 = VERTEX_POINT ( 'NONE', #150 ) ;
#430 = EDGE_CURVE ( 'NONE', #760, #24, #609, .T. ) ;
#431 = VECTOR ( 'NONE', #32, 1000.000000000000000 ) ;
#432 = FACE_OUTER_BOUND ( 'NONE', #322, .T. ) ;
#433 = DIRECTION ( 'NONE',  ( -0.000000000000000000, -0.000000000000000000, 1.000000000000000000 ) ) ;
#434 = EDGE_LOOP ( 'NONE', ( #512, #93, #593, #578 ) ) ;
#435 = ORIENTED_EDGE ( 'NONE', *, *, #498, .F. ) ;
#436 = SHAPE_DEFINITION_REPRESENTATION ( #675, #528 ) ;
#437 = EDGE_CURVE ( 'NONE', #331, #429, #572, .T. ) ;
#438 = DIRECTION ( 'NONE',  ( 1.000000000000000000, 0.000000000000000000, 0.000000000000000000 ) ) ;
#439 = CARTESIAN_POINT ( 'NONE',  ( 0.000000000000000000, 0.000000000000000000, 18.97256815796276186 ) ) ;
#440 = ORIENTED_EDGE ( 'NONE', *, *, #781, .F. ) ;
#441 = CIRCLE ( 'NONE', #339, 28.82534320030960373 ) ;
#442 = DIRECTION ( 'NONE',  ( -0.000000000000000000, -0.000000000000000000, 1.000000000000000000 ) ) ;
#443 = AXIS2_PLACEMENT_3D ( 'NONE', #804, #198, #193 ) ;
#444 = UNCERTAINTY_MEASURE_WITH_UNIT (LENGTH_MEASURE( 1.000000000000000082E-05 ), #877, 'distance_accuracy_value', 'NONE');
#445 = APPROVAL_ROLE ( '' ) ;
#446 = DIRECTION ( 'NONE',  ( 1.000000000000000000, 0.000000000000000000, 0.000000000000000000 ) ) ;
#447 = ORIENTED_EDGE ( 'NONE', *, *, #652, .T. ) ;
#448 = DIRECTION ( 'NONE',  ( 1.000000000000000000, 0.000000000000000000, 0.000000000000000000 ) ) ;
#449 = DIRECTION ( 'NONE',  ( -1.000000000000000000, 1.224646799147352714E-16, 0.000000000000000000 ) ) ;
#450 = EDGE_LOOP ( 'NONE', ( #613, #33 ) ) ;
#451 = CC_DESIGN_PERSON_AND_ORGANIZATION_ASSIGNMENT ( #816, #207, ( #486 ) ) ;
#452 = DIRECTION ( 'NONE',  ( -0.000000000000000000, -0.000000000000000000, 1.000000000000000000 ) ) ;
#453 = DIRECTION ( 'NONE',  ( -0.000000000000000000, -0.000000000000000000, 1.000000000000000000 ) ) ;
#454 = DIRECTION ( 'NONE',  ( -0.000000000000000000, -0.000000000000000000, 1.000000000000000000 ) ) ;
#455 = ORIENTED_EDGE ( 'NONE', *, *, #553, .F. ) ;
#456 = CIRCLE ( 'NONE', #443, 24.24999999999999289 ) ;
#457 = AXIS2_PLACEMENT_3D ( 'NONE', #263, #820, #351 ) ;
#458 = CARTESIAN_POINT ( 'NONE',  ( -28.82534320030959307, 3.530086428458305851E-15, -78.66399999999998727 ) ) ;
#459 = AXIS2_PLACEMENT_3D ( 'NONE', #147, #503, #636 ) ;
#460 = CARTESIAN_POINT ( 'NONE',  ( 0.000000000000000000, 0.000000000000000000, 9.525000000000034106 ) ) ;
#461 = ORIENTED_EDGE ( 'NONE', *, *, #139, .T. ) ;
#462 = EDGE_CURVE ( 'NONE', #479, #627, #324, .T. ) ;
#463 = COORDINATED_UNIVERSAL_TIME_OFFSET ( 6, 0, .BEHIND. ) ;
#464 = CARTESIAN_POINT ( 'NONE',  ( 0.000000000000000000, 0.000000000000000000, 1.425000000000040901 ) ) ;
#465 = ORIENTED_EDGE ( 'NONE', *, *, #226, .F. ) ;
#466 = COORDINATED_UNIVERSAL_TIME_OFFSET ( 6, 0, .BEHIND. ) ;
#467 = DIRECTION ( 'NONE',  ( -1.000000000000000000, 1.224646799147353454E-16, 0.000000000000000000 ) ) ;
#468 = DIRECTION ( 'NONE',  ( -0.000000000000000000, -0.000000000000000000, 1.000000000000000000 ) ) ;
#469 = TOROIDAL_SURFACE ( 'NONE', #637, 28.82534320030959307, 100.0000000000000284 ) ;
#470 = CIRCLE ( 'NONE', #867, 2.000000000000001776 ) ;
#471 = DIRECTION ( 'NONE',  ( 1.000000000000000000, 0.000000000000000000, 0.000000000000000000 ) ) ;
#472 = DIRECTION ( 'NONE',  ( -0.000000000000000000, -0.000000000000000000, 1.000000000000000000 ) ) ;
#473 = EDGE_CURVE ( 'NONE', #493, #562, #456, .T. ) ;
#474 = CARTESIAN_POINT ( 'NONE',  ( 0.000000000000000000, 0.000000000000000000, -78.66399999999998727 ) ) ;
#475 = CARTESIAN_POINT ( 'NONE',  ( 0.000000000000000000, 22.24999999999993250, -0.3749999999999570899 ) ) ;
#476 = EDGE_CURVE ( 'NONE', #215, #30, #714, .T. ) ;
#477 = EDGE_LOOP ( 'NONE', ( #650, #6, #348, #266 ) ) ;
#478 = CIRCLE ( 'NONE', #369, 28.82534320030960373 ) ;
#479 = VERTEX_POINT ( 'NONE', #62 ) ;
#480 = ADVANCED_FACE ( 'NONE', ( #602 ), #41, .T. ) ;
#481 = AXIS2_PLACEMENT_3D ( 'NONE', #458, #831, #845 ) ;
#482 = CARTESIAN_POINT ( 'NONE',  ( 0.000000000000000000, 0.000000000000000000, 1.425000000000040901 ) ) ;
#483 = AXIS2_PLACEMENT_3D ( 'NONE', #190, #537, #330 ) ;
#484 = CARTESIAN_POINT ( 'NONE',  ( 0.000000000000000000, 0.000000000000000000, -0.3749999999999552580 ) ) ;
#485 = ORIENTED_EDGE ( 'NONE', *, *, #473, .T. ) ;
#486 = PRODUCT_DEFINITION ( 'UNKNOWN', '', #684, #538 ) ;
#487 = DIRECTION ( 'NONE',  ( -1.000000000000000000, 0.000000000000000000, 0.000000000000000000 ) ) ;
#488 = DIRECTION ( 'NONE',  ( 1.000000000000000000, 0.000000000000000000, 0.000000000000000000 ) ) ;
#489 = DATE_AND_TIME ( #788, #49 ) ;
#490 = CARTESIAN_POINT ( 'NONE',  ( 22.24999999999993250, 0.000000000000000000, -0.3749999999999586997 ) ) ;
#491 = CARTESIAN_POINT ( 'NONE',  ( 28.82534320030960373, 0.000000000000000000, 21.33600000000004826 ) ) ;
#492 = FACE_OUTER_BOUND ( 'NONE', #206, .T. ) ;
#493 = VERTEX_POINT ( 'NONE', #260 ) ;
#494 = DIRECTION ( 'NONE',  ( 0.000000000000000000, -1.000000000000000000, 0.000000000000000000 ) ) ;
#495 = CIRCLE ( 'NONE', #623, 27.82534320030960373 ) ;
#496 = CARTESIAN_POINT ( 'NONE',  ( 0.000000000000000000, 0.000000000000000000, 1.425000000000040901 ) ) ;
#497 = CIRCLE ( 'NONE', #241, 41.62129050720693613 ) ;
#498 = EDGE_CURVE ( 'NONE', #733, #770, #158, .T. ) ;
#499 = CIRCLE ( 'NONE', #740, 42.00000000000000711 ) ;
#500 = ORIENTED_EDGE ( 'NONE', *, *, #781, .T. ) ;
#501 = CARTESIAN_POINT ( 'NONE',  ( 0.000000000000000000, 0.000000000000000000, 19.42500000000003979 ) ) ;
#502 = CARTESIAN_POINT ( 'NONE',  ( 22.24999999999991829, 0.000000000000000000, 17.62500000000003908 ) ) ;
#503 = DIRECTION ( 'NONE',  ( -0.000000000000000000, -0.000000000000000000, 1.000000000000000000 ) ) ;
#504 = CARTESIAN_POINT ( 'NONE',  ( 2.450000000000000622, 0.000000000000000000, 9.525000000000034106 ) ) ;
#505 = ORIENTED_EDGE ( 'NONE', *, *, #644, .T. ) ;
#506 = ORIENTED_EDGE ( 'NONE', *, *, #616, .T. ) ;
#507 = CARTESIAN_POINT ( 'NONE',  ( -24.24999999999999645, 3.188695118237951784E-15, 20.67500000000003268 ) ) ;
#508 = CIRCLE ( 'NONE', #385, 22.24999999999991829 ) ;
#509 = DIRECTION ( 'NONE',  ( -0.000000000000000000, -0.000000000000000000, 1.000000000000000000 ) ) ;
#510 = DIRECTION ( 'NONE',  ( -0.000000000000000000, -0.000000000000000000, 1.000000000000000000 ) ) ;
#511 = EDGE_LOOP ( 'NONE', ( #277, #234 ) ) ;
#512 = ORIENTED_EDGE ( 'NONE', *, *, #513, .T. ) ;
#513 = EDGE_CURVE ( 'NONE', #24, #760, #142, .T. ) ;
#514 = DIRECTION ( 'NONE',  ( -1.000000000000000000, 1.224646799147353454E-16, 0.000000000000000000 ) ) ;
#515 = CARTESIAN_POINT ( 'NONE',  ( 0.000000000000000000, 0.000000000000000000, -1.456085673433332728 ) ) ;
#516 = ORIENTED_EDGE ( 'NONE', *, *, #42, .T. ) ;
#517 = EDGE_CURVE ( 'NONE', #567, #429, #470, .T. ) ;
#518 = CARTESIAN_POINT ( 'NONE',  ( -24.24999999999999289, 2.969768487932330893E-15, 9.524999999999991473 ) ) ;
#519 = DIRECTION ( 'NONE',  ( -0.000000000000000000, -0.000000000000000000, 1.000000000000000000 ) ) ;
#520 = FACE_OUTER_BOUND ( 'NONE', #658, .T. ) ;
#521 = ORIENTED_EDGE ( 'NONE', *, *, #806, .T. ) ;
#522 = CARTESIAN_POINT ( 'NONE',  ( -22.24999999999991829, 2.724839128102851524E-15, 17.62500000000003908 ) ) ;
#523 = ORIENTED_EDGE ( 'NONE', *, *, #524, .F. ) ;
#524 = EDGE_CURVE ( 'NONE', #28, #775, #12, .T. ) ;
#525 = AXIS2_PLACEMENT_3D ( 'NONE', #419, #228, #848 ) ;
#526 = AXIS2_PLACEMENT_3D ( 'NONE', #863, #615, #874 ) ;
#527 = AXIS2_PLACEMENT_3D ( 'NONE', #123, #189, #614 ) ;
#528 = ADVANCED_BREP_SHAPE_REPRESENTATION ( '228-2500-1954', ( #687, #546 ), #192 ) ;
#529 = CARTESIAN_POINT ( 'NONE',  ( 0.000000000000000000, 0.000000000000000000, 1.425000000000040901 ) ) ;
#530 = CARTESIAN_POINT ( 'NONE',  ( 41.42488528984527818, 5.073085317525530122E-15, 18.52268395996453521 ) ) ;
#531 = ORIENTED_EDGE ( 'NONE', *, *, #838, .F. ) ;
#532 = ADVANCED_FACE ( 'NONE', ( #249, #130 ), #184, .F. ) ;
#533 = CALENDAR_DATE ( 2022, 6, 6 ) ;
#534 = DIRECTION ( 'NONE',  ( -0.000000000000000000, -0.000000000000000000, 1.000000000000000000 ) ) ;
#535 = AXIS2_PLACEMENT_3D ( 'NONE', #529, #701, #102 ) ;
#536 = EDGE_CURVE ( 'NONE', #309, #28, #662, .T. ) ;
#537 = DIRECTION ( 'NONE',  ( -0.000000000000000000, -0.000000000000000000, 1.000000000000000000 ) ) ;
#538 = DESIGN_CONTEXT ( 'detailed design', #238, 'design' ) ;
#539 = FACE_OUTER_BOUND ( 'NONE', #707, .T. ) ;
#540 = CIRCLE ( 'NONE', #111, 43.37362955433755474 ) ;
#541 = AXIS2_PLACEMENT_3D ( 'NONE', #212, #560, #878 ) ;
#542 = PLANE ( 'NONE',  #390 ) ;
#543 = ORIENTED_EDGE ( 'NONE', *, *, #246, .T. ) ;
#544 = CARTESIAN_POINT ( 'NONE',  ( 0.000000000000000000, 0.000000000000000000, -2.285999999999961840 ) ) ;
#545 = ADVANCED_FACE ( 'NONE', ( #317 ), #112, .F. ) ;
#546 = AXIS2_PLACEMENT_3D ( 'NONE', #859, #728, #471 ) ;
#547 = VERTEX_POINT ( 'NONE', #797 ) ;
#548 = ORGANIZATION ( 'UNSPECIFIED', 'UNSPECIFIED', '' ) ;
#549 = CARTESIAN_POINT ( 'NONE',  ( 0.000000000000000000, 0.000000000000000000, 9.524999999999991473 ) ) ;
#550 = DIRECTION ( 'NONE',  ( 1.000000000000000000, 0.000000000000000000, 0.000000000000000000 ) ) ;
#551 = DIRECTION ( 'NONE',  ( 1.000000000000000000, 0.000000000000000000, 0.000000000000000000 ) ) ;
#552 = ORIENTED_EDGE ( 'NONE', *, *, #644, .F. ) ;
#553 = EDGE_CURVE ( 'NONE', #259, #589, #774, .T. ) ;
#554 = AXIS2_PLACEMENT_3D ( 'NONE', #165, #452, #708 ) ;
#555 = CARTESIAN_POINT ( 'NONE',  ( -41.42488528984527818, 0.000000000000000000, 0.5273160400355512145 ) ) ;
#556 = DIRECTION ( 'NONE',  ( -1.000000000000000000, 0.000000000000000000, 0.000000000000000000 ) ) ;
#557 = AXIS2_PLACEMENT_3D ( 'NONE', #464, #50, #252 ) ;
#558 = ORIENTED_EDGE ( 'NONE', *, *, #812, .T. ) ;
#559 = APPROVAL_DATE_TIME ( #2, #846 ) ;
#560 = DIRECTION ( 'NONE',  ( -0.000000000000000000, -0.000000000000000000, 1.000000000000000000 ) ) ;
#561 = CARTESIAN_POINT ( 'NONE',  ( -28.82534320030960728, 4.317330759615054168E-15, 21.33600000000004826 ) ) ;
#562 = VERTEX_POINT ( 'NONE', #800 ) ;
#563 = CIRCLE ( 'NONE', #579, 41.62129050720693613 ) ;
#564 = LOCAL_TIME ( 14, 29, 41.00000000000000000, #882 ) ;
#565 = DIRECTION ( 'NONE',  ( -0.000000000000000000, -0.000000000000000000, 1.000000000000000000 ) ) ;
#566 = DIRECTION ( 'NONE',  ( -0.000000000000000000, -0.000000000000000000, 1.000000000000000000 ) ) ;
#567 = VERTEX_POINT ( 'NONE', #116 ) ;
#568 = ORIENTED_EDGE ( 'NONE', *, *, #91, .T. ) ;
#569 = CARTESIAN_POINT ( 'NONE',  ( 0.000000000000000000, 0.000000000000000000, 97.71400000000005548 ) ) ;
#570 = DIRECTION ( 'NONE',  ( -0.000000000000000000, -0.000000000000000000, 1.000000000000000000 ) ) ;
#571 = CARTESIAN_POINT ( 'NONE',  ( 0.000000000000000000, 0.000000000000000000, 0.5273160400355512145 ) ) ;
#572 = CIRCLE ( 'NONE', #713, 41.68201880187665154 ) ;
#573 = CARTESIAN_POINT ( 'NONE',  ( -24.24999999999999289, 2.969768487932330893E-15, -0.3749999999999552580 ) ) ;
#574 = CIRCLE ( 'NONE', #527, 27.82534320030960373 ) ;
#575 = ORIENTED_EDGE ( 'NONE', *, *, #753, .T. ) ;
#576 = DIRECTION ( 'NONE',  ( 1.000000000000000000, 0.000000000000000000, 0.000000000000000000 ) ) ;
#577 = DIRECTION ( 'NONE',  ( -0.000000000000000000, -0.000000000000000000, 1.000000000000000000 ) ) ;
#578 = ORIENTED_EDGE ( 'NONE', *, *, #323, .F. ) ;
#579 = AXIS2_PLACEMENT_3D ( 'NONE', #496, #752, #144 ) ;
#580 = APPROVAL_PERSON_ORGANIZATION ( #795, #846, #337 ) ;
#581 = DIRECTION ( 'NONE',  ( -1.000000000000000000, 1.224646799147353207E-16, 0.000000000000000000 ) ) ;
#582 = ORIENTED_EDGE ( 'NONE', *, *, #176, .T. ) ;
#583 = APPROVAL ( #156, 'UNSPECIFIED' ) ;
#584 = DIRECTION ( 'NONE',  ( 0.000000000000000000, -1.000000000000000000, 0.000000000000000000 ) ) ;
#585 = EDGE_LOOP ( 'NONE', ( #52, #521, #271, #422 ) ) ;
#586 = DIRECTION ( 'NONE',  ( -1.000000000000000000, 0.000000000000000000, 0.000000000000000000 ) ) ;
#587 = CIRCLE ( 'NONE', #303, 2.000000000000001776 ) ;
#588 = DIRECTION ( 'NONE',  ( -0.000000000000000000, -0.000000000000000000, 1.000000000000000000 ) ) ;
#589 = VERTEX_POINT ( 'NONE', #732 ) ;
#590 = CARTESIAN_POINT ( 'NONE',  ( 0.000000000000000000, 24.24999999999999289, 1.425000000000039124 ) ) ;
#591 = CIRCLE ( 'NONE', #354, 41.68201880187665154 ) ;
#592 = ADVANCED_FACE ( 'NONE', ( #865, #257 ), #542, .F. ) ;
#593 = ORIENTED_EDGE ( 'NONE', *, *, #437, .T. ) ;
#594 = DIRECTION ( 'NONE',  ( -0.000000000000000000, -0.000000000000000000, 1.000000000000000000 ) ) ;
#595 = FACE_OUTER_BOUND ( 'NONE', #262, .T. ) ;
#596 = ORIENTED_EDGE ( 'NONE', *, *, #616, .F. ) ;
#597 = EDGE_LOOP ( 'NONE', ( #287, #505 ) ) ;
#598 = EDGE_CURVE ( 'NONE', #876, #770, #625, .T. ) ;
#599 = AXIS2_PLACEMENT_3D ( 'NONE', #475, #264, #551 ) ;
#600 = CARTESIAN_POINT ( 'NONE',  ( 43.37362955433754763, 0.000000000000000000, 18.97256815796276186 ) ) ;
#601 = FACE_OUTER_BOUND ( 'NONE', #379, .T. ) ;
#602 = FACE_OUTER_BOUND ( 'NONE', #131, .T. ) ;
#603 = LINE ( 'NONE', #857, #245 ) ;
#604 = DIRECTION ( 'NONE',  ( -1.000000000000000000, -1.224646799147353454E-16, 0.000000000000000000 ) ) ;
#605 = DIRECTION ( 'NONE',  ( 1.000000000000000000, 0.000000000000000000, 0.000000000000000000 ) ) ;
#606 = DIRECTION ( 'NONE',  ( -0.000000000000000000, -0.000000000000000000, 1.000000000000000000 ) ) ;
#607 = ORIENTED_EDGE ( 'NONE', *, *, #553, .T. ) ;
#608 = PRODUCT ( '228-2500-1954', '228-2500-1954', '', ( #186 ) ) ;
#609 = CIRCLE ( 'NONE', #216, 28.82534320030960373 ) ;
#610 = CIRCLE ( 'NONE', #171, 24.24999999999999289 ) ;
#611 = AXIS2_PLACEMENT_3D ( 'NONE', #756, #494, #280 ) ;
#612 = CARTESIAN_POINT ( 'NONE',  ( 0.000000000000000000, 0.000000000000000000, -1.456085673433332728 ) ) ;
#613 = ORIENTED_EDGE ( 'NONE', *, *, #226, .T. ) ;
#614 = DIRECTION ( 'NONE',  ( 1.000000000000000000, 0.000000000000000000, 0.000000000000000000 ) ) ;
#615 = DIRECTION ( 'NONE',  ( -0.000000000000000000, -0.000000000000000000, 1.000000000000000000 ) ) ;
#616 = EDGE_CURVE ( 'NONE', #674, #224, #363, .T. ) ;
#617 = AXIS2_PLACEMENT_3D ( 'NONE', #460, #588, #236 ) ;
#618 = ORIENTED_EDGE ( 'NONE', *, *, #107, .F. ) ;
#619 = LINE ( 'NONE', #3, #717 ) ;
#620 = CARTESIAN_POINT ( 'NONE',  ( -41.42488528984527818, 0.000000000000000000, 18.52268395996453521 ) ) ;
#621 = ORIENTED_EDGE ( 'NONE', *, *, #113, .T. ) ;
#622 =( NAMED_UNIT ( * ) SI_UNIT ( $, .STERADIAN. ) SOLID_ANGLE_UNIT ( ) );
#623 = AXIS2_PLACEMENT_3D ( 'NONE', #98, #823, #830 ) ;
#624 = PLANE ( 'NONE',  #377 ) ;
#625 = CIRCLE ( 'NONE', #342, 43.37362955433754763 ) ;
#626 = DIRECTION ( 'NONE',  ( 0.000000000000000000, -0.000000000000000000, 1.000000000000000000 ) ) ;
#627 = VERTEX_POINT ( 'NONE', #573 ) ;
#628 = PERSON_AND_ORGANIZATION ( #151, #548 ) ;
#629 = EDGE_CURVE ( 'NONE', #224, #674, #497, .T. ) ;
#630 = FACE_OUTER_BOUND ( 'NONE', #412, .T. ) ;
#631 = VERTEX_POINT ( 'NONE', #340 ) ;
#632 = CIRCLE ( 'NONE', #792, 43.37362955433754763 ) ;
#633 = ADVANCED_FACE ( 'NONE', ( #885 ), #281, .F. ) ;
#634 = CARTESIAN_POINT ( 'NONE',  ( 0.000000000000000000, 0.000000000000000000, 18.97256815796276186 ) ) ;
#635 = ORIENTED_EDGE ( 'NONE', *, *, #517, .F. ) ;
#636 = DIRECTION ( 'NONE',  ( 1.000000000000000000, 0.000000000000000000, 0.000000000000000000 ) ) ;
#637 = AXIS2_PLACEMENT_3D ( 'NONE', #474, #655, #314 ) ;
#638 = DIRECTION ( 'NONE',  ( 1.000000000000000000, 0.000000000000000000, 0.000000000000000000 ) ) ;
#639 = ADVANCED_FACE ( 'NONE', ( #757 ), #352, .F. ) ;
#640 = VECTOR ( 'NONE', #468, 1000.000000000000000 ) ;
#641 = EDGE_LOOP ( 'NONE', ( #349, #575, #789, #343 ) ) ;
#642 = CIRCLE ( 'NONE', #611, 100.0000000000000284 ) ;
#643 = CARTESIAN_POINT ( 'NONE',  ( 41.62129050720693613, 0.000000000000000000, 1.425000000000040901 ) ) ;
#644 = EDGE_CURVE ( 'NONE', #815, #306, #690, .T. ) ;
#645 = ORIENTED_EDGE ( 'NONE', *, *, #777, .T. ) ;
#646 = TOROIDAL_SURFACE ( 'NONE', #194, 2.450000000000000622, 42.00000000000000711 ) ;
#647 = DIRECTION ( 'NONE',  ( 1.000000000000000000, 0.000000000000000000, 0.000000000000000000 ) ) ;
#648 = CARTESIAN_POINT ( 'NONE',  ( 0.000000000000000000, 0.000000000000000000, 21.33600000000004115 ) ) ;
#649 = COORDINATED_UNIVERSAL_TIME_OFFSET ( 6, 0, .BEHIND. ) ;
#650 = ORIENTED_EDGE ( 'NONE', *, *, #856, .F. ) ;
#651 = AXIS2_PLACEMENT_3D ( 'NONE', #197, #826, #685 ) ;
#652 = EDGE_CURVE ( 'NONE', #78, #355, #610, .T. ) ;
#653 = CARTESIAN_POINT ( 'NONE',  ( 0.000000000000000000, 0.000000000000000000, -78.66399999999998727 ) ) ;
#654 = EDGE_LOOP ( 'NONE', ( #353, #531 ) ) ;
#655 = DIRECTION ( 'NONE',  ( -0.000000000000000000, -0.000000000000000000, 1.000000000000000000 ) ) ;
#656 = EDGE_CURVE ( 'NONE', #215, #770, #290, .T. ) ;
#657 = DIRECTION ( 'NONE',  ( -0.000000000000000000, -0.000000000000000000, 1.000000000000000000 ) ) ;
#658 = EDGE_LOOP ( 'NONE', ( #447, #688 ) ) ;
#659 = ORIENTED_EDGE ( 'NONE', *, *, #34, .T. ) ;
#660 = DIRECTION ( 'NONE',  ( 0.000000000000000000, 0.000000000000000000, -1.000000000000000000 ) ) ;
#661 = CARTESIAN_POINT ( 'NONE',  ( -28.82534320030959307, 3.530086428458305851E-15, 97.71400000000005548 ) ) ;
#662 = LINE ( 'NONE', #40, #640 ) ;
#663 = EDGE_CURVE ( 'NONE', #9, #417, #855, .T. ) ;
#664 = AXIS2_PLACEMENT_3D ( 'NONE', #372, #509, #438 ) ;
#665 = FACE_OUTER_BOUND ( 'NONE', #361, .T. ) ;
#666 = DATE_TIME_ROLE ( 'classification_date' ) ;
#667 = CARTESIAN_POINT ( 'NONE',  ( 0.000000000000000000, 0.000000000000000000, 9.524999999999991473 ) ) ;
#668 = CC_DESIGN_DATE_AND_TIME_ASSIGNMENT ( #489, #750, ( #486 ) ) ;
#669 = CARTESIAN_POINT ( 'NONE',  ( 0.000000000000000000, 0.000000000000000000, 0.5273160400355512145 ) ) ;
#670 = APPROVAL_STATUS ( 'not_yet_approved' ) ;
#671 = ORIENTED_EDGE ( 'NONE', *, *, #398, .F. ) ;
#672 = ORIENTED_EDGE ( 'NONE', *, *, #214, .F. ) ;
#673 = DIRECTION ( 'NONE',  ( -0.000000000000000000, -0.000000000000000000, 1.000000000000000000 ) ) ;
#674 = VERTEX_POINT ( 'NONE', #427 ) ;
#675 = PRODUCT_DEFINITION_SHAPE ( 'NONE', 'NONE',  #486 ) ;
#676 = FACE_OUTER_BOUND ( 'NONE', #149, .T. ) ;
#677 = AXIS2_PLACEMENT_3D ( 'NONE', #421, #510, #747 ) ;
#678 = EDGE_CURVE ( 'NONE', #775, #28, #798, .T. ) ;
#679 = ORIENTED_EDGE ( 'NONE', *, *, #246, .F. ) ;
#680 = DIRECTION ( 'NONE',  ( 0.000000000000000000, -0.000000000000000000, 1.000000000000000000 ) ) ;
#681 = DIRECTION ( 'NONE',  ( 1.000000000000000000, 0.000000000000000000, 0.000000000000000000 ) ) ;
#682 = AXIS2_PLACEMENT_3D ( 'NONE', #96, #706, #449 ) ;
#683 = ORIENTED_EDGE ( 'NONE', *, *, #696, .T. ) ;
#684 = PRODUCT_DEFINITION_FORMATION_WITH_SPECIFIED_SOURCE ( 'ANY', '', #608, .NOT_KNOWN. ) ;
#685 = DIRECTION ( 'NONE',  ( 1.000000000000000000, 0.000000000000000000, 0.000000000000000000 ) ) ;
#686 = CARTESIAN_POINT ( 'NONE',  ( 0.000000000000000000, 0.000000000000000000, 20.67500000000003268 ) ) ;
#687 = MANIFOLD_SOLID_BREP ( '228-2500-1954', #272 ) ;
#688 = ORIENTED_EDGE ( 'NONE', *, *, #410, .T. ) ;
#689 = SECURITY_CLASSIFICATION_LEVEL ( 'unclassified' ) ;
#690 = CIRCLE ( 'NONE', #101, 22.24999999999993250 ) ;
#691 = DIRECTION ( 'NONE',  ( -0.000000000000000000, -0.000000000000000000, 1.000000000000000000 ) ) ;
#692 = ORIENTED_EDGE ( 'NONE', *, *, #513, .F. ) ;
#693 = FACE_OUTER_BOUND ( 'NONE', #477, .T. ) ;
#694 = CARTESIAN_POINT ( 'NONE',  ( 0.000000000000000000, 0.000000000000000000, 19.42500000000003979 ) ) ;
#695 = ORIENTED_EDGE ( 'NONE', *, *, #476, .F. ) ;
#696 = EDGE_CURVE ( 'NONE', #868, #674, #405, .T. ) ;
#697 = DIRECTION ( 'NONE',  ( 1.000000000000000000, 0.000000000000000000, 0.000000000000000000 ) ) ;
#698 = VERTEX_POINT ( 'NONE', #148 ) ;
#699 = CARTESIAN_POINT ( 'NONE',  ( 0.000000000000000000, 0.000000000000000000, 21.33600000000004826 ) ) ;
#700 = EDGE_CURVE ( 'NONE', #230, #309, #508, .T. ) ;
#701 = DIRECTION ( 'NONE',  ( -0.000000000000000000, -0.000000000000000000, 1.000000000000000000 ) ) ;
#702 = TOROIDAL_SURFACE ( 'NONE', #174, 27.82534320030960373, 10.00000000000000000 ) ;
#703 = EDGE_LOOP ( 'NONE', ( #435, #244, #83, #749 ) ) ;
#704 = APPROVAL_DATE_TIME ( #89, #583 ) ;
#705 = CARTESIAN_POINT ( 'NONE',  ( -43.37362955433754763, 5.311737660112252771E-15, 18.97256815796276186 ) ) ;
#706 = DIRECTION ( 'NONE',  ( 1.224646799147353207E-16, 1.000000000000000000, 0.000000000000000000 ) ) ;
#707 = EDGE_LOOP ( 'NONE', ( #819, #1, #295, #802 ) ) ;
#708 = DIRECTION ( 'NONE',  ( 1.000000000000000000, 0.000000000000000000, 0.000000000000000000 ) ) ;
#709 = EDGE_CURVE ( 'NONE', #223, #731, #478, .T. ) ;
#710 = CARTESIAN_POINT ( 'NONE',  ( 0.000000000000000000, 0.000000000000000000, -0.3749999999999586997 ) ) ;
#711 = DIRECTION ( 'NONE',  ( 0.000000000000000000, 0.000000000000000000, -1.000000000000000000 ) ) ;
#712 = ORIENTED_EDGE ( 'NONE', *, *, #734, .F. ) ;
#713 = AXIS2_PLACEMENT_3D ( 'NONE', #612, #321, #320 ) ;
#714 = CIRCLE ( 'NONE', #727, 41.68201880187662312 ) ;
#715 = ADVANCED_FACE ( 'NONE', ( #492, #66 ), #415, .F. ) ;
#716 = CARTESIAN_POINT ( 'NONE',  ( -24.24999999999999289, 2.969768487932330893E-15, 19.42500000000003979 ) ) ;
#717 = VECTOR ( 'NONE', #565, 1000.000000000000000 ) ;
#718 = DIRECTION ( 'NONE',  ( -1.000000000000000000, 0.000000000000000000, -0.000000000000000000 ) ) ;
#719 = ORIENTED_EDGE ( 'NONE', *, *, #201, .F. ) ;
#720 = ORIENTED_EDGE ( 'NONE', *, *, #265, .T. ) ;
#721 = CARTESIAN_POINT ( 'NONE',  ( 0.000000000000000000, 0.000000000000000000, -1.624999999999954703 ) ) ;
#722 = DATE_AND_TIME ( #533, #860 ) ;
#723 = CARTESIAN_POINT ( 'NONE',  ( 24.24999999999999645, 0.000000000000000000, 20.67500000000003268 ) ) ;
#724 = CC_DESIGN_DATE_AND_TIME_ASSIGNMENT ( #722, #666, ( #21 ) ) ;
#725 = DIRECTION ( 'NONE',  ( -0.000000000000000000, -0.000000000000000000, 1.000000000000000000 ) ) ;
#726 = CIRCLE ( 'NONE', #270, 10.00000000000000178 ) ;
#727 = AXIS2_PLACEMENT_3D ( 'NONE', #326, #673, #56 ) ;
#728 = DIRECTION ( 'NONE',  ( 0.000000000000000000, 0.000000000000000000, 1.000000000000000000 ) ) ;
#729 = LINE ( 'NONE', #115, #406 ) ;
#730 = DIRECTION ( 'NONE',  ( 1.000000000000000000, 0.000000000000000000, 0.000000000000000000 ) ) ;
#731 = VERTEX_POINT ( 'NONE', #561 ) ;
#732 = CARTESIAN_POINT ( 'NONE',  ( 27.82534320030960373, 0.000000000000000000, -2.285999999999963617 ) ) ;
#733 = VERTEX_POINT ( 'NONE', #818 ) ;
#734 = EDGE_CURVE ( 'NONE', #698, #868, #563, .T. ) ;
#735 = DIRECTION ( 'NONE',  ( 1.000000000000000000, 0.000000000000000000, 0.000000000000000000 ) ) ;
#736 = DIRECTION ( 'NONE',  ( 1.000000000000000000, 0.000000000000000000, 0.000000000000000000 ) ) ;
#737 = ORIENTED_EDGE ( 'NONE', *, *, #176, .F. ) ;
#738 = AXIS2_PLACEMENT_3D ( 'NONE', #397, #851, #239 ) ;
#739 = ADVANCED_FACE ( 'NONE', ( #347 ), #164, .T. ) ;
#740 = AXIS2_PLACEMENT_3D ( 'NONE', #64, #884, #76 ) ;
#741 = DIRECTION ( 'NONE',  ( -0.000000000000000000, -0.000000000000000000, 1.000000000000000000 ) ) ;
#742 = AXIS2_PLACEMENT_3D ( 'NONE', #817, #204, #550 ) ;
#743 = CARTESIAN_POINT ( 'NONE',  ( 0.000000000000000000, 0.000000000000000000, 7.714000000000038604 ) ) ;
#744 = ORIENTED_EDGE ( 'NONE', *, *, #734, .T. ) ;
#745 = APPLICATION_PROTOCOL_DEFINITION ( 'international standard', 'config_control_design', 1994, #238 ) ;
#746 = LINE ( 'NONE', #217, #258 ) ;
#747 = DIRECTION ( 'NONE',  ( 1.000000000000000000, 0.000000000000000000, 0.000000000000000000 ) ) ;
#748 = AXIS2_PLACEMENT_3D ( 'NONE', #779, #160, #581 ) ;
#749 = ORIENTED_EDGE ( 'NONE', *, *, #598, .T. ) ;
#750 = DATE_TIME_ROLE ( 'creation_date' ) ;
#751 = CARTESIAN_POINT ( 'NONE',  ( -41.62129050720693613, 5.097138019603308862E-15, 17.62500000000003908 ) ) ;
#752 = DIRECTION ( 'NONE',  ( -0.000000000000000000, -0.000000000000000000, 1.000000000000000000 ) ) ;
#753 = EDGE_CURVE ( 'NONE', #230, #775, #4, .T. ) ;
#754 = ORIENTED_EDGE ( 'NONE', *, *, #652, .F. ) ;
#755 = AXIS2_PLACEMENT_3D ( 'NONE', #669, #660, #254 ) ;
#756 = CARTESIAN_POINT ( 'NONE',  ( 28.82534320030959307, 0.000000000000000000, -78.66399999999998727 ) ) ;
#757 = FACE_OUTER_BOUND ( 'NONE', #641, .T. ) ;
#758 = AXIS2_PLACEMENT_3D ( 'NONE', #482, #741, #132 ) ;
#759 = ORIENTED_EDGE ( 'NONE', *, *, #536, .T. ) ;
#760 = VERTEX_POINT ( 'NONE', #29 ) ;
#761 = PERSON_AND_ORGANIZATION ( #151, #548 ) ;
#762 = DIRECTION ( 'NONE',  ( 0.000000000000000000, -1.000000000000000000, 0.000000000000000000 ) ) ;
#763 = CYLINDRICAL_SURFACE ( 'NONE', #787, 22.24999999999992539 ) ;
#764 = DIRECTION ( 'NONE',  ( 0.000000000000000000, 0.000000000000000000, -1.000000000000000000 ) ) ;
#765 = ORIENTED_EDGE ( 'NONE', *, *, #210, .T. ) ;
#766 = CARTESIAN_POINT ( 'NONE',  ( 22.24999999999991829, 0.000000000000000000, 1.425000000000040901 ) ) ;
#767 = ADVANCED_FACE ( 'NONE', ( #17, #776 ), #162, .F. ) ;
#768 = CARTESIAN_POINT ( 'NONE',  ( 0.000000000000000000, 0.000000000000000000, 19.42500000000003979 ) ) ;
#769 = EDGE_LOOP ( 'NONE', ( #692, #243 ) ) ;
#770 = VERTEX_POINT ( 'NONE', #705 ) ;
#771 = FACE_OUTER_BOUND ( 'NONE', #145, .T. ) ;
#772 = AXIS2_PLACEMENT_3D ( 'NONE', #549, #570, #824 ) ;
#773 = DIRECTION ( 'NONE',  ( 0.000000000000000000, 0.000000000000000000, -1.000000000000000000 ) ) ;
#774 = CIRCLE ( 'NONE', #325, 27.82534320030960373 ) ;
#775 = VERTEX_POINT ( 'NONE', #95 ) ;
#776 = FACE_OUTER_BOUND ( 'NONE', #237, .T. ) ;
#777 = EDGE_CURVE ( 'NONE', #429, #331, #591, .T. ) ;
#778 = AXIS2_PLACEMENT_3D ( 'NONE', #229, #783, #23 ) ;
#779 = CARTESIAN_POINT ( 'NONE',  ( -2.450000000000000622, 3.000384657911016356E-16, 9.525000000000034106 ) ) ;
#780 = ORIENTED_EDGE ( 'NONE', *, *, #709, .T. ) ;
#781 = EDGE_CURVE ( 'NONE', #698, #224, #332, .T. ) ;
#782 = CARTESIAN_POINT ( 'NONE',  ( -27.82534320030960373, 3.407621748543572675E-15, 7.714000000000038604 ) ) ;
#783 = DIRECTION ( 'NONE',  ( 0.000000000000000000, 0.000000000000000000, -1.000000000000000000 ) ) ;
#784 = ORIENTED_EDGE ( 'NONE', *, *, #403, .F. ) ;
#785 = AXIS2_PLACEMENT_3D ( 'NONE', #620, #71, #879 ) ;
#786 = AXIS2_PLACEMENT_3D ( 'NONE', #333, #346, #808 ) ;
#787 = AXIS2_PLACEMENT_3D ( 'NONE', #284, #275, #268 ) ;
#788 = CALENDAR_DATE ( 2022, 6, 6 ) ;
#789 = ORIENTED_EDGE ( 'NONE', *, *, #678, .T. ) ;
#790 = EDGE_CURVE ( 'NONE', #868, #698, #31, .T. ) ;
#791 = APPROVAL_ROLE ( '' ) ;
#792 = AXIS2_PLACEMENT_3D ( 'NONE', #439, #773, #105 ) ;
#793 = CARTESIAN_POINT ( 'NONE',  ( 0.000000000000000000, 0.000000000000000000, 20.67500000000003268 ) ) ;
#794 = CARTESIAN_POINT ( 'NONE',  ( -2.450000000000000622, 3.000384657911016356E-16, 9.525000000000034106 ) ) ;
#795 = PERSON_AND_ORGANIZATION ( #151, #548 ) ;
#796 = DIRECTION ( 'NONE',  ( -0.000000000000000000, -0.000000000000000000, 1.000000000000000000 ) ) ;
#797 = CARTESIAN_POINT ( 'NONE',  ( 27.82534320030960373, 0.000000000000000000, 21.33600000000004115 ) ) ;
#798 = CIRCLE ( 'NONE', #423, 22.24999999999993250 ) ;
#799 = AXIS2_PLACEMENT_3D ( 'NONE', #861, #796, #187 ) ;
#800 = CARTESIAN_POINT ( 'NONE',  ( -24.24999999999999289, 2.969768487932330893E-15, -1.624999999999954703 ) ) ;
#801 = ADVANCED_FACE ( 'NONE', ( #378 ), #180, .F. ) ;
#802 = ORIENTED_EDGE ( 'NONE', *, *, #265, .F. ) ;
#803 = APPLICATION_CONTEXT ( 'configuration controlled 3d designs of mechanical parts and assemblies' ) ;
#804 = CARTESIAN_POINT ( 'NONE',  ( 0.000000000000000000, 0.000000000000000000, -1.624999999999954703 ) ) ;
#805 = LOCAL_TIME ( 14, 29, 41.00000000000000000, #649 ) ;
#806 = EDGE_CURVE ( 'NONE', #822, #417, #235, .T. ) ;
#807 = ORIENTED_EDGE ( 'NONE', *, *, #869, .T. ) ;
#808 = DIRECTION ( 'NONE',  ( 0.000000000000000000, 0.000000000000000000, -1.000000000000000000 ) ) ;
#809 = ORIENTED_EDGE ( 'NONE', *, *, #875, .F. ) ;
#810 = TOROIDAL_SURFACE ( 'NONE', #554, 28.82534320030959307, 100.0000000000000000 ) ;
#811 =( NAMED_UNIT ( * ) PLANE_ANGLE_UNIT ( ) SI_UNIT ( $, .RADIAN. ) );
#812 = EDGE_CURVE ( 'NONE', #770, #876, #632, .T. ) ;
#813 = DIRECTION ( 'NONE',  ( -0.000000000000000000, -0.000000000000000000, 1.000000000000000000 ) ) ;
#814 = DIRECTION ( 'NONE',  ( -0.000000000000000000, -0.000000000000000000, 1.000000000000000000 ) ) ;
#815 = VERTEX_POINT ( 'NONE', #232 ) ;
#816 = PERSON_AND_ORGANIZATION ( #151, #548 ) ;
#817 = CARTESIAN_POINT ( 'NONE',  ( 0.000000000000000000, 0.000000000000000000, 7.714000000000038604 ) ) ;
#818 = CARTESIAN_POINT ( 'NONE',  ( -43.37362955433755474, 5.311737660112253560E-15, 0.07743184203732635107 ) ) ;
#819 = ORIENTED_EDGE ( 'NONE', *, *, #233, .F. ) ;
#820 = DIRECTION ( 'NONE',  ( -0.000000000000000000, -0.000000000000000000, 1.000000000000000000 ) ) ;
#821 = CARTESIAN_POINT ( 'NONE',  ( 0.000000000000000000, 0.000000000000000000, -0.3749999999999586997 ) ) ;
#822 = VERTEX_POINT ( 'NONE', #368 ) ;
#823 = DIRECTION ( 'NONE',  ( -0.000000000000000000, -0.000000000000000000, 1.000000000000000000 ) ) ;
#824 = DIRECTION ( 'NONE',  ( 1.000000000000000000, 0.000000000000000000, 0.000000000000000000 ) ) ;
#825 = AXIS2_PLACEMENT_3D ( 'NONE', #484, #725, #401 ) ;
#826 = DIRECTION ( 'NONE',  ( -0.000000000000000000, -0.000000000000000000, 1.000000000000000000 ) ) ;
#827 = DIRECTION ( 'NONE',  ( 1.000000000000000000, 0.000000000000000000, 0.000000000000000000 ) ) ;
#828 = ADVANCED_FACE ( 'NONE', ( #373 ), #413, .T. ) ;
#829 = ORIENTED_EDGE ( 'NONE', *, *, #91, .F. ) ;
#830 = DIRECTION ( 'NONE',  ( 1.000000000000000000, 0.000000000000000000, 0.000000000000000000 ) ) ;
#831 = DIRECTION ( 'NONE',  ( 1.224646799147353207E-16, 1.000000000000000000, 0.000000000000000000 ) ) ;
#832 = DIRECTION ( 'NONE',  ( -0.000000000000000000, -0.000000000000000000, 1.000000000000000000 ) ) ;
#833 = ORIENTED_EDGE ( 'NONE', *, *, #323, .T. ) ;
#834 = ADVANCED_FACE ( 'NONE', ( #308, #520 ), #311, .F. ) ;
#835 = CC_DESIGN_APPROVAL ( #846, ( #486 ) ) ;
#836 = DIRECTION ( 'NONE',  ( -0.000000000000000000, -0.000000000000000000, 1.000000000000000000 ) ) ;
#837 = ORIENTED_EDGE ( 'NONE', *, *, #524, .T. ) ;
#838 = EDGE_CURVE ( 'NONE', #822, #547, #20, .T. ) ;
#839 = TOROIDAL_SURFACE ( 'NONE', #755, 41.42488528984527818, 2.000000000000000000 ) ;
#840 = AXIS2_PLACEMENT_3D ( 'NONE', #222, #566, #285 ) ;
#841 = DIRECTION ( 'NONE',  ( 0.000000000000000000, 0.000000000000000000, -1.000000000000000000 ) ) ;
#842 = ORIENTED_EDGE ( 'NONE', *, *, #473, .F. ) ;
#843 = AXIS2_PLACEMENT_3D ( 'NONE', #661, #183, #467 ) ;
#844 = FACE_OUTER_BOUND ( 'NONE', #434, .T. ) ;
#845 = DIRECTION ( 'NONE',  ( -1.000000000000000000, 1.224646799147352961E-16, 0.000000000000000000 ) ) ;
#846 = APPROVAL ( #69, 'UNSPECIFIED' ) ;
#847 = EDGE_LOOP ( 'NONE', ( #829, #842, #765, #211 ) ) ;
#848 = DIRECTION ( 'NONE',  ( 1.000000000000000000, 0.000000000000000000, 0.000000000000000000 ) ) ;
#849 = DIRECTION ( 'NONE',  ( 0.000000000000000000, 0.000000000000000000, -1.000000000000000000 ) ) ;
#850 = ORIENTED_EDGE ( 'NONE', *, *, #777, .F. ) ;
#851 = DIRECTION ( 'NONE',  ( 0.000000000000000000, 0.000000000000000000, -1.000000000000000000 ) ) ;
#852 = DIRECTION ( 'NONE',  ( -0.000000000000000000, -0.000000000000000000, 1.000000000000000000 ) ) ;
#853 = EDGE_LOOP ( 'NONE', ( #679, #282, #621, #455 ) ) ;
#854 = EDGE_LOOP ( 'NONE', ( #784, #516, #63, #106 ) ) ;
#855 = CIRCLE ( 'NONE', #301, 24.24999999999999645 ) ;
#856 = EDGE_CURVE ( 'NONE', #815, #631, #153, .T. ) ;
#857 = CARTESIAN_POINT ( 'NONE',  ( 22.24999999999992539, 0.000000000000000000, 9.524999999999991473 ) ) ;
#858 = DIRECTION ( 'NONE',  ( -1.224646799147353207E-16, 1.000000000000000000, 0.000000000000000000 ) ) ;
#859 = CARTESIAN_POINT ( 'NONE',  ( 0.000000000000000000, 0.000000000000000000, 0.000000000000000000 ) ) ;
#860 = LOCAL_TIME ( 14, 29, 41.00000000000000000, #44 ) ;
#861 = CARTESIAN_POINT ( 'NONE',  ( 0.000000000000000000, 0.000000000000000000, 9.524999999999991473 ) ) ;
#862 = APPROVAL_PERSON_ORGANIZATION ( #108, #307, #791 ) ;
#863 = CARTESIAN_POINT ( 'NONE',  ( 0.000000000000000000, 0.000000000000000000, 19.42500000000003979 ) ) ;
#864 = ADVANCED_FACE ( 'NONE', ( #595 ), #646, .T. ) ;
#865 = FACE_BOUND ( 'NONE', #654, .T. ) ;
#866 = TOROIDAL_SURFACE ( 'NONE', #199, 27.82534320030960373, 10.00000000000000000 ) ;
#867 = AXIS2_PLACEMENT_3D ( 'NONE', #51, #858, #604 ) ;
#868 = VERTEX_POINT ( 'NONE', #643 ) ;
#869 = EDGE_CURVE ( 'NONE', #547, #9, #395, .T. ) ;
#870 = DIRECTION ( 'NONE',  ( 1.000000000000000000, 0.000000000000000000, 0.000000000000000000 ) ) ;
#871 = ORIENTED_EDGE ( 'NONE', *, *, #696, .F. ) ;
#872 = DIRECTION ( 'NONE',  ( -0.000000000000000000, -0.000000000000000000, 1.000000000000000000 ) ) ;
#873 = AXIS2_PLACEMENT_3D ( 'NONE', #590, #849, #718 ) ;
#874 = DIRECTION ( 'NONE',  ( 1.000000000000000000, 0.000000000000000000, 0.000000000000000000 ) ) ;
#875 = EDGE_CURVE ( 'NONE', #355, #417, #231, .T. ) ;
#876 = VERTEX_POINT ( 'NONE', #600 ) ;
#877 =( LENGTH_UNIT ( ) NAMED_UNIT ( * ) SI_UNIT ( .MILLI., .METRE. ) );
#878 = DIRECTION ( 'NONE',  ( 1.000000000000000000, 0.000000000000000000, 0.000000000000000000 ) ) ;
#879 = DIRECTION ( 'NONE',  ( 0.000000000000000000, 0.000000000000000000, -1.000000000000000000 ) ) ;
#880 = ORIENTED_EDGE ( 'NONE', *, *, #47, .T. ) ;
#881 = CC_DESIGN_PERSON_AND_ORGANIZATION_ASSIGNMENT ( #628, #177, ( #21 ) ) ;
#882 = COORDINATED_UNIVERSAL_TIME_OFFSET ( 6, 0, .BEHIND. ) ;
#883 = CIRCLE ( 'NONE', #75, 24.24999999999999289 ) ;
#884 = DIRECTION ( 'NONE',  ( 0.000000000000000000, -1.000000000000000000, 0.000000000000000000 ) ) ;
#885 = FACE_OUTER_BOUND ( 'NONE', #360, .T. ) ;
ENDSEC;
END-ISO-10303-21;
