ISO-10303-21;
HEADER;
FILE_DESCRIPTION (( 'STEP AP203' ),
    '1' );
FILE_NAME ('228-2500-1958.step',
    '2022-06-06T19:30:32',
    ( '' ),
    ( '' ),
    'SwSTEP 2.0',
    'SolidWorks 2021',
    '' );
FILE_SCHEMA (( 'CONFIG_CONTROL_DESIGN' ));
ENDSEC;

DATA;
#1 = DIRECTION ( 'NONE',  ( -0.000000000000000000, -0.000000000000000000, 1.000000000000000000 ) ) ;
#2 = ORIENTED_EDGE ( 'NONE', *, *, #141, .F. ) ;
#3 = FACE_OUTER_BOUND ( 'NONE', #60, .T. ) ;
#4 = CC_DESIGN_PERSON_AND_ORGANIZATION_ASSIGNMENT ( #783, #632, ( #314 ) ) ;
#5 = CARTESIAN_POINT ( 'NONE',  ( 0.000000000000000000, 0.000000000000000000, 21.31958030777541779 ) ) ;
#6 = EDGE_CURVE ( 'NONE', #881, #643, #497, .T. ) ;
#7 = ORIENTED_EDGE ( 'NONE', *, *, #668, .F. ) ;
#8 = CIRCLE ( 'NONE', #456, 30.47072112808928068 ) ;
#9 = DIRECTION ( 'NONE',  ( 1.000000000000000000, 0.000000000000000000, 0.000000000000000000 ) ) ;
#10 = DIRECTION ( 'NONE',  ( 1.224646799147353207E-16, 1.000000000000000000, 0.000000000000000000 ) ) ;
#11 = CARTESIAN_POINT ( 'NONE',  ( 0.000000000000000000, 26.98771419253363035, 21.33600000000004115 ) ) ;
#12 = CARTESIAN_POINT ( 'NONE',  ( 0.000000000000000000, 27.98771419253363035, -2.285999999999962728 ) ) ;
#13 = ADVANCED_FACE ( 'NONE', ( #306 ), #759, .F. ) ;
#14 = APPLICATION_CONTEXT ( 'configuration controlled 3d designs of mechanical parts and assemblies' ) ;
#15 = ORIENTED_EDGE ( 'NONE', *, *, #404, .T. ) ;
#16 = DIRECTION ( 'NONE',  ( 0.000000000000000000, 0.000000000000000000, -1.000000000000000000 ) ) ;
#17 = DIRECTION ( 'NONE',  ( 1.224646799147353207E-16, 1.000000000000000000, 0.000000000000000000 ) ) ;
#18 = DIRECTION ( 'NONE',  ( 1.000000000000000000, 0.000000000000000000, 0.000000000000000000 ) ) ;
#19 = VERTEX_POINT ( 'NONE', #153 ) ;
#20 =( LENGTH_UNIT ( ) NAMED_UNIT ( * ) SI_UNIT ( .MILLI., .METRE. ) );
#21 = DIRECTION ( 'NONE',  ( 0.000000000000000000, 0.000000000000000000, -1.000000000000000000 ) ) ;
#22 = CARTESIAN_POINT ( 'NONE',  ( 0.000000000000000000, 0.000000000000000000, 21.33600000000004115 ) ) ;
#23 = ORIENTED_EDGE ( 'NONE', *, *, #668, .T. ) ;
#24 = DATE_TIME_ROLE ( 'classification_date' ) ;
#25 = DIRECTION ( 'NONE',  ( -0.000000000000000000, -0.000000000000000000, 1.000000000000000000 ) ) ;
#26 = AXIS2_PLACEMENT_3D ( 'NONE', #318, #685, #463 ) ;
#27 = EDGE_CURVE ( 'NONE', #394, #782, #580, .T. ) ;
#28 = AXIS2_PLACEMENT_3D ( 'NONE', #277, #10, #521 ) ;
#29 = CARTESIAN_POINT ( 'NONE',  ( 0.000000000000000000, 0.000000000000000000, 17.62500000000003908 ) ) ;
#30 = ORIENTED_EDGE ( 'NONE', *, *, #499, .T. ) ;
#31 = APPROVAL_DATE_TIME ( #246, #511 ) ;
#32 = ADVANCED_FACE ( 'NONE', ( #614 ), #149, .F. ) ;
#33 = FACE_OUTER_BOUND ( 'NONE', #373, .T. ) ;
#34 = APPLICATION_CONTEXT ( 'configuration controlled 3d designs of mechanical parts and assemblies' ) ;
#35 = AXIS2_PLACEMENT_3D ( 'NONE', #515, #451, #387 ) ;
#36 = ORIENTED_EDGE ( 'NONE', *, *, #777, .F. ) ;
#37 = APPROVAL_DATE_TIME ( #786, #846 ) ;
#38 = EDGE_CURVE ( 'NONE', #102, #556, #228, .T. ) ;
#39 = ORIENTED_EDGE ( 'NONE', *, *, #309, .F. ) ;
#40 = PERSON_AND_ORGANIZATION ( #792, #364 ) ;
#41 = MANIFOLD_SOLID_BREP ( '228-2500-1958', #106 ) ;
#42 = AXIS2_PLACEMENT_3D ( 'NONE', #770, #704, #365 ) ;
#43 = DIRECTION ( 'NONE',  ( 1.000000000000000000, 0.000000000000000000, 0.000000000000000000 ) ) ;
#44 = DIRECTION ( 'NONE',  ( -1.000000000000000000, 0.000000000000000000, 0.000000000000000000 ) ) ;
#45 = CIRCLE ( 'NONE', #555, 26.98771419253363035 ) ;
#46 = FACE_OUTER_BOUND ( 'NONE', #516, .T. ) ;
#47 = VERTEX_POINT ( 'NONE', #285 ) ;
#48 = ADVANCED_FACE ( 'NONE', ( #838 ), #247, .F. ) ;
#49 = APPROVAL_ROLE ( '' ) ;
#50 = EDGE_CURVE ( 'NONE', #272, #830, #454, .T. ) ;
#51 = LOCAL_TIME ( 14, 30, 32.00000000000000000, #569 ) ;
#52 = DIRECTION ( 'NONE',  ( -1.000000000000000000, -1.224646799147353454E-16, 0.000000000000000000 ) ) ;
#53 = EDGE_CURVE ( 'NONE', #164, #466, #344, .T. ) ;
#54 = EDGE_CURVE ( 'NONE', #291, #19, #352, .T. ) ;
#55 = DIRECTION ( 'NONE',  ( 1.000000000000000000, 0.000000000000000000, 0.000000000000000000 ) ) ;
#56 = ADVANCED_FACE ( 'NONE', ( #84 ), #725, .T. ) ;
#57 = AXIS2_PLACEMENT_3D ( 'NONE', #815, #407, #319 ) ;
#58 = DIRECTION ( 'NONE',  ( 1.000000000000000000, 0.000000000000000000, 0.000000000000000000 ) ) ;
#59 = AXIS2_PLACEMENT_3D ( 'NONE', #627, #477, #557 ) ;
#60 = EDGE_LOOP ( 'NONE', ( #345, #108, #30, #678 ) ) ;
#61 = DIRECTION ( 'NONE',  ( -0.000000000000000000, -0.000000000000000000, 1.000000000000000000 ) ) ;
#62 = EDGE_LOOP ( 'NONE', ( #609, #97 ) ) ;
#63 = DIRECTION ( 'NONE',  ( 0.000000000000000000, 0.000000000000000000, -1.000000000000000000 ) ) ;
#64 = DIRECTION ( 'NONE',  ( 1.000000000000000000, 0.000000000000000000, 0.000000000000000000 ) ) ;
#65 = CC_DESIGN_APPROVAL ( #846, ( #619 ) ) ;
#66 = DIRECTION ( 'NONE',  ( -0.000000000000000000, -0.000000000000000000, 1.000000000000000000 ) ) ;
#67 = ORIENTED_EDGE ( 'NONE', *, *, #834, .F. ) ;
#68 = CARTESIAN_POINT ( 'NONE',  ( 27.98771419253363035, 0.000000000000000000, -2.285999999999961840 ) ) ;
#69 = CYLINDRICAL_SURFACE ( 'NONE', #579, 22.24999999999991118 ) ;
#70 = EDGE_LOOP ( 'NONE', ( #428, #386, #836, #67 ) ) ;
#71 = CARTESIAN_POINT ( 'NONE',  ( 22.24999999999990408, 0.000000000000000000, 1.425000000000040901 ) ) ;
#72 = ORIENTED_EDGE ( 'NONE', *, *, #235, .T. ) ;
#73 = CARTESIAN_POINT ( 'NONE',  ( -22.24999999999991473, 2.724839128102851130E-15, -0.3749999999999586997 ) ) ;
#74 = DIRECTION ( 'NONE',  ( -0.000000000000000000, -1.000000000000000000, -0.000000000000000000 ) ) ;
#75 = TOROIDAL_SURFACE ( 'NONE', #360, 26.98771419253363035, 6.000000000000001776 ) ;
#76 = ORIENTED_EDGE ( 'NONE', *, *, #633, .F. ) ;
#77 = DIRECTION ( 'NONE',  ( -0.000000000000000000, -0.000000000000000000, 1.000000000000000000 ) ) ;
#78 = DIRECTION ( 'NONE',  ( -0.000000000000000000, -0.000000000000000000, 1.000000000000000000 ) ) ;
#79 = DIRECTION ( 'NONE',  ( -0.000000000000000000, -0.000000000000000000, 1.000000000000000000 ) ) ;
#80 = ORIENTED_EDGE ( 'NONE', *, *, #834, .T. ) ;
#81 = DIRECTION ( 'NONE',  ( 0.000000000000000000, -1.000000000000000000, 0.000000000000000000 ) ) ;
#82 = CARTESIAN_POINT ( 'NONE',  ( 0.000000000000000000, 0.000000000000000000, -2.285999999999963617 ) ) ;
#83 = ORIENTED_EDGE ( 'NONE', *, *, #797, .T. ) ;
#84 = FACE_OUTER_BOUND ( 'NONE', #544, .T. ) ;
#85 = DIRECTION ( 'NONE',  ( -0.000000000000000000, -0.000000000000000000, 1.000000000000000000 ) ) ;
#86 = EDGE_LOOP ( 'NONE', ( #816, #210 ) ) ;
#87 = AXIS2_PLACEMENT_3D ( 'NONE', #457, #74, #195 ) ;
#88 = DIRECTION ( 'NONE',  ( -0.000000000000000000, -0.000000000000000000, 1.000000000000000000 ) ) ;
#89 = TOROIDAL_SURFACE ( 'NONE', #485, -10.25000000000000178, 40.00000000000000000 ) ;
#90 = DIRECTION ( 'NONE',  ( 0.000000000000000000, 0.000000000000000000, -1.000000000000000000 ) ) ;
#91 = CARTESIAN_POINT ( 'NONE',  ( 24.24999999999999289, 0.000000000000000000, 9.524999999999991473 ) ) ;
#92 = ORIENTED_EDGE ( 'NONE', *, *, #677, .F. ) ;
#93 = CARTESIAN_POINT ( 'NONE',  ( -22.24999999999991473, 2.724839128102851130E-15, 19.42500000000003979 ) ) ;
#94 = DIRECTION ( 'NONE',  ( 1.224646799147353207E-16, 1.000000000000000000, 0.000000000000000000 ) ) ;
#95 = CARTESIAN_POINT ( 'NONE',  ( 0.000000000000000000, 0.000000000000000000, 19.32216608608132447 ) ) ;
#96 = CARTESIAN_POINT ( 'NONE',  ( 22.24999999999991829, 0.000000000000000000, 19.42500000000003979 ) ) ;
#97 = ORIENTED_EDGE ( 'NONE', *, *, #469, .T. ) ;
#98 = EDGE_CURVE ( 'NONE', #559, #102, #45, .T. ) ;
#99 = APPLICATION_PROTOCOL_DEFINITION ( 'international standard', 'config_control_design', 1994, #14 ) ;
#100 = FACE_OUTER_BOUND ( 'NONE', #785, .T. ) ;
#101 = FACE_OUTER_BOUND ( 'NONE', #295, .T. ) ;
#102 = VERTEX_POINT ( 'NONE', #486 ) ;
#103 = ADVANCED_FACE ( 'NONE', ( #46 ), #183, .T. ) ;
#104 = COORDINATED_UNIVERSAL_TIME_OFFSET ( 6, 0, .BEHIND. ) ;
#105 = CARTESIAN_POINT ( 'NONE',  ( 30.47072112808928068, 0.000000000000000000, -0.7620243903853040068 ) ) ;
#106 = CLOSED_SHELL ( 'NONE', ( #239, #723, #167, #449, #628, #135, #115, #219, #130, #787, #693, #32, #444, #822, #656, #13, #311, #184, #861, #429, #56, #718, #284, #48, #464, #634, #148, #123, #669, #103 ) ) ;
#107 = CARTESIAN_POINT ( 'NONE',  ( 0.000000000000000000, 0.000000000000000000, 19.42500000000003979 ) ) ;
#108 = ORIENTED_EDGE ( 'NONE', *, *, #273, .T. ) ;
#109 = APPROVAL_STATUS ( 'not_yet_approved' ) ;
#110 = EDGE_CURVE ( 'NONE', #363, #359, #158, .T. ) ;
#111 = DIRECTION ( 'NONE',  ( 0.000000000000000000, 0.000000000000000000, -1.000000000000000000 ) ) ;
#112 = AXIS2_PLACEMENT_3D ( 'NONE', #321, #203, #732 ) ;
#113 = VERTEX_POINT ( 'NONE', #547 ) ;
#114 = DIRECTION ( 'NONE',  ( -1.000000000000000000, 1.224646799147353454E-16, 0.000000000000000000 ) ) ;
#115 = ADVANCED_FACE ( 'NONE', ( #827 ), #266, .T. ) ;
#116 = ORIENTED_EDGE ( 'NONE', *, *, #254, .T. ) ;
#117 = PERSON_AND_ORGANIZATION ( #792, #364 ) ;
#118 = AXIS2_PLACEMENT_3D ( 'NONE', #165, #25, #542 ) ;
#119 = CARTESIAN_POINT ( 'NONE',  ( -28.63330738965563071, 3.506568824374402849E-15, 21.31958030777541424 ) ) ;
#120 = FACE_OUTER_BOUND ( 'NONE', #181, .T. ) ;
#121 = CIRCLE ( 'NONE', #682, 24.24999999999999289 ) ;
#122 = PLANE ( 'NONE',  #694 ) ;
#123 = ADVANCED_FACE ( 'NONE', ( #421 ), #403, .F. ) ;
#124 = ORIENTED_EDGE ( 'NONE', *, *, #854, .F. ) ;
#125 = CIRCLE ( 'NONE', #42, 12.69999999999999929 ) ;
#126 = AXIS2_PLACEMENT_3D ( 'NONE', #812, #341, #207 ) ;
#127 = CARTESIAN_POINT ( 'NONE',  ( 0.000000000000000000, 0.000000000000000000, -1.624999999999954703 ) ) ;
#128 = ORIENTED_EDGE ( 'NONE', *, *, #379, .T. ) ;
#129 = DIRECTION ( 'NONE',  ( 1.000000000000000000, 0.000000000000000000, 0.000000000000000000 ) ) ;
#130 = ADVANCED_FACE ( 'NONE', ( #100 ), #267, .T. ) ;
#131 = DIRECTION ( 'NONE',  ( -0.000000000000000000, -0.000000000000000000, 1.000000000000000000 ) ) ;
#132 = CC_DESIGN_APPROVAL ( #511, ( #581 ) ) ;
#133 = CARTESIAN_POINT ( 'NONE',  ( 0.000000000000000000, 0.000000000000000000, 20.67500000000003268 ) ) ;
#134 = ORIENTED_EDGE ( 'NONE', *, *, #592, .F. ) ;
#135 = ADVANCED_FACE ( 'NONE', ( #320 ), #197, .T. ) ;
#136 = DIRECTION ( 'NONE',  ( -1.000000000000000000, 0.000000000000000000, 0.000000000000000000 ) ) ;
#137 = DIRECTION ( 'NONE',  ( 1.224646799147353207E-16, 1.000000000000000000, 0.000000000000000000 ) ) ;
#138 = ORIENTED_EDGE ( 'NONE', *, *, #568, .F. ) ;
#139 = DIRECTION ( 'NONE',  ( 0.000000000000000000, 0.000000000000000000, -1.000000000000000000 ) ) ;
#140 = CARTESIAN_POINT ( 'NONE',  ( 0.000000000000000000, 0.000000000000000000, 1.425000000000044231 ) ) ;
#141 = EDGE_CURVE ( 'NONE', #259, #466, #159, .T. ) ;
#142 = AXIS2_PLACEMENT_3D ( 'NONE', #188, #63, #44 ) ;
#143 = AXIS2_PLACEMENT_3D ( 'NONE', #749, #681, #332 ) ;
#144 = EDGE_CURVE ( 'NONE', #19, #852, #646, .T. ) ;
#145 = VERTEX_POINT ( 'NONE', #119 ) ;
#146 = CARTESIAN_POINT ( 'NONE',  ( 0.000000000000000000, 0.000000000000000000, -0.7620243903853040068 ) ) ;
#147 = DIRECTION ( 'NONE',  ( 1.000000000000000000, 0.000000000000000000, 0.000000000000000000 ) ) ;
#148 = ADVANCED_FACE ( 'NONE', ( #120, #189 ), #122, .F. ) ;
#149 = CYLINDRICAL_SURFACE ( 'NONE', #212, 22.24999999999991118 ) ;
#150 = DIRECTION ( 'NONE',  ( 1.000000000000000000, 0.000000000000000000, 0.000000000000000000 ) ) ;
#151 = LINE ( 'NONE', #872, #554 ) ;
#152 = EDGE_LOOP ( 'NONE', ( #529, #591, #300, #388 ) ) ;
#153 = CARTESIAN_POINT ( 'NONE',  ( -22.24999999999990408, 2.724839128102849947E-15, 1.425000000000040901 ) ) ;
#154 = CARTESIAN_POINT ( 'NONE',  ( 0.000000000000000000, 0.000000000000000000, -0.2721660860812418758 ) ) ;
#155 = VERTEX_POINT ( 'NONE', #445 ) ;
#156 = AXIS2_PLACEMENT_3D ( 'NONE', #82, #612, #473 ) ;
#157 = DIRECTION ( 'NONE',  ( -1.000000000000000000, 0.000000000000000000, 0.000000000000000000 ) ) ;
#158 = CIRCLE ( 'NONE', #674, 24.24999999999999289 ) ;
#159 = CIRCLE ( 'NONE', #455, 1.999999999999998224 ) ;
#160 = DIRECTION ( 'NONE',  ( 1.000000000000000000, 0.000000000000000000, 0.000000000000000000 ) ) ;
#161 = EDGE_LOOP ( 'NONE', ( #613, #584 ) ) ;
#162 = CARTESIAN_POINT ( 'NONE',  ( 0.000000000000000000, 0.000000000000000000, 19.32216608608132447 ) ) ;
#163 = CYLINDRICAL_SURFACE ( 'NONE', #857, 24.24999999999999289 ) ;
#164 = VERTEX_POINT ( 'NONE', #185 ) ;
#165 = CARTESIAN_POINT ( 'NONE',  ( 0.000000000000000000, 0.000000000000000000, 19.42500000000003979 ) ) ;
#166 = ORIENTED_EDGE ( 'NONE', *, *, #859, .T. ) ;
#167 = ADVANCED_FACE ( 'NONE', ( #724 ), #89, .F. ) ;
#168 = AXIS2_PLACEMENT_3D ( 'NONE', #884, #17, #348 ) ;
#169 = EDGE_CURVE ( 'NONE', #466, #164, #303, .T. ) ;
#170 = AXIS2_PLACEMENT_3D ( 'NONE', #265, #201, #396 ) ;
#171 = AXIS2_PLACEMENT_3D ( 'NONE', #789, #448, #55 ) ;
#172 = DIRECTION ( 'NONE',  ( 1.000000000000000000, 0.000000000000000000, 0.000000000000000000 ) ) ;
#173 = ORIENTED_EDGE ( 'NONE', *, *, #144, .T. ) ;
#174 = CC_DESIGN_SECURITY_CLASSIFICATION ( #314, ( #619 ) ) ;
#175 = AXIS2_PLACEMENT_3D ( 'NONE', #742, #594, #43 ) ;
#176 = ORIENTED_EDGE ( 'NONE', *, *, #712, .F. ) ;
#177 = PERSON_AND_ORGANIZATION ( #792, #364 ) ;
#178 = EDGE_CURVE ( 'NONE', #640, #504, #377, .T. ) ;
#179 = DIRECTION ( 'NONE',  ( -1.000000000000000000, 1.224646799147353700E-16, 0.000000000000000000 ) ) ;
#180 = DIRECTION ( 'NONE',  ( 0.000000000000000000, -0.000000000000000000, 1.000000000000000000 ) ) ;
#181 = EDGE_LOOP ( 'NONE', ( #283, #500 ) ) ;
#182 = TOROIDAL_SURFACE ( 'NONE', #670, -10.25000000000000178, 42.00000000000000000 ) ;
#183 = TOROIDAL_SURFACE ( 'NONE', #519, 28.53163916960883739, 2.000000000000000000 ) ;
#184 = ADVANCED_FACE ( 'NONE', ( #380, #647 ), #860, .F. ) ;
#185 = CARTESIAN_POINT ( 'NONE',  ( -28.63330738957348487, 3.506568824364341717E-15, -2.269580307783720663 ) ) ;
#186 = DIRECTION ( 'NONE',  ( -0.000000000000000000, -0.000000000000000000, 1.000000000000000000 ) ) ;
#187 = AXIS2_PLACEMENT_3D ( 'NONE', #383, #502, #788 ) ;
#188 = CARTESIAN_POINT ( 'NONE',  ( 0.000000000000000000, 0.000000000000000000, 19.81202439038538898 ) ) ;
#189 = FACE_BOUND ( 'NONE', #62, .T. ) ;
#190 = EDGE_CURVE ( 'NONE', #830, #272, #781, .T. ) ;
#191 = DIRECTION ( 'NONE',  ( -0.000000000000000000, -0.000000000000000000, 1.000000000000000000 ) ) ;
#192 = VERTEX_POINT ( 'NONE', #423 ) ;
#193 = CIRCLE ( 'NONE', #342, 2.000000000000001776 ) ;
#194 = TOROIDAL_SURFACE ( 'NONE', #483, 28.53163916960884094, 2.000000000000000000 ) ;
#195 = DIRECTION ( 'NONE',  ( 0.000000000000000000, 0.000000000000000000, -1.000000000000000000 ) ) ;
#196 = AXIS2_PLACEMENT_3D ( 'NONE', #289, #755, #491 ) ;
#197 = TOROIDAL_SURFACE ( 'NONE', #851, 26.98771419253363035, 6.000000000000000000 ) ;
#198 = AXIS2_PLACEMENT_3D ( 'NONE', #216, #206, #472 ) ;
#199 = ORIENTED_EDGE ( 'NONE', *, *, #540, .T. ) ;
#200 = EDGE_CURVE ( 'NONE', #762, #776, #593, .T. ) ;
#201 = DIRECTION ( 'NONE',  ( -0.000000000000000000, -0.000000000000000000, 1.000000000000000000 ) ) ;
#202 = EDGE_LOOP ( 'NONE', ( #459, #799, #434, #664 ) ) ;
#203 = DIRECTION ( 'NONE',  ( -0.000000000000000000, -0.000000000000000000, 1.000000000000000000 ) ) ;
#204 = VERTEX_POINT ( 'NONE', #506 ) ;
#205 = DIRECTION ( 'NONE',  ( -0.000000000000000000, -0.000000000000000000, 1.000000000000000000 ) ) ;
#206 = DIRECTION ( 'NONE',  ( -0.000000000000000000, -0.000000000000000000, 1.000000000000000000 ) ) ;
#207 = DIRECTION ( 'NONE',  ( -1.000000000000000000, -1.224646799147351482E-16, 0.000000000000000000 ) ) ;
#208 = EDGE_CURVE ( 'NONE', #782, #394, #241, .T. ) ;
#209 = ORIENTED_EDGE ( 'NONE', *, *, #261, .F. ) ;
#210 = ORIENTED_EDGE ( 'NONE', *, *, #611, .F. ) ;
#211 = DIRECTION ( 'NONE',  ( -0.000000000000000000, -0.000000000000000000, 1.000000000000000000 ) ) ;
#212 = AXIS2_PLACEMENT_3D ( 'NONE', #293, #415, #571 ) ;
#213 = EDGE_LOOP ( 'NONE', ( #790, #39, #83, #329 ) ) ;
#214 = ORIENTED_EDGE ( 'NONE', *, *, #764, .F. ) ;
#215 = DIRECTION ( 'NONE',  ( -0.000000000000000000, -0.000000000000000000, 1.000000000000000000 ) ) ;
#216 = CARTESIAN_POINT ( 'NONE',  ( 0.000000000000000000, 0.000000000000000000, 9.525000000000037659 ) ) ;
#217 = DIRECTION ( 'NONE',  ( -0.000000000000000000, -0.000000000000000000, 1.000000000000000000 ) ) ;
#218 = ORIENTED_EDGE ( 'NONE', *, *, #169, .F. ) ;
#219 = ADVANCED_FACE ( 'NONE', ( #520 ), #400, .T. ) ;
#220 = LOCAL_TIME ( 14, 30, 32.00000000000000000, #645 ) ;
#221 = DIRECTION ( 'NONE',  ( -0.000000000000000000, -0.000000000000000000, 1.000000000000000000 ) ) ;
#222 = CIRCLE ( 'NONE', #187, 22.24999999999991829 ) ;
#223 = EDGE_LOOP ( 'NONE', ( #563, #721 ) ) ;
#224 = FACE_OUTER_BOUND ( 'NONE', #658, .T. ) ;
#225 = EDGE_LOOP ( 'NONE', ( #688, #468 ) ) ;
#226 = AXIS2_PLACEMENT_3D ( 'NONE', #5, #217, #589 ) ;
#227 = CARTESIAN_POINT ( 'NONE',  ( -26.98771419253363035, 3.305041780218990779E-15, 15.33600000000004293 ) ) ;
#228 = CIRCLE ( 'NONE', #537, 5.999999999999998224 ) ;
#229 = CYLINDRICAL_SURFACE ( 'NONE', #264, 24.24999999999999289 ) ;
#230 = ORIENTED_EDGE ( 'NONE', *, *, #562, .T. ) ;
#231 = DATE_AND_TIME ( #722, #727 ) ;
#232 = DIRECTION ( 'NONE',  ( -1.000000000000000000, 0.000000000000000000, 0.000000000000000000 ) ) ;
#233 = TOROIDAL_SURFACE ( 'NONE', #333, 28.53163916960884094, 2.000000000000000000 ) ;
#234 = CYLINDRICAL_SURFACE ( 'NONE', #343, 22.24999999999991118 ) ;
#235 = EDGE_CURVE ( 'NONE', #818, #414, #279, .T. ) ;
#236 = ORIENTED_EDGE ( 'NONE', *, *, #859, .F. ) ;
#237 = FACE_OUTER_BOUND ( 'NONE', #474, .T. ) ;
#238 = ORIENTED_EDGE ( 'NONE', *, *, #854, .T. ) ;
#239 = ADVANCED_FACE ( 'NONE', ( #331 ), #375, .T. ) ;
#240 = DATE_AND_TIME ( #626, #51 ) ;
#241 = CIRCLE ( 'NONE', #142, 30.47072112808927713 ) ;
#242 = CIRCLE ( 'NONE', #302, 26.98771419253363035 ) ;
#243 = CARTESIAN_POINT ( 'NONE',  ( -26.98771419253363035, 3.305041780218990779E-15, 3.714000000000038604 ) ) ;
#244 = ORIENTED_EDGE ( 'NONE', *, *, #797, .F. ) ;
#245 = PRODUCT_RELATED_PRODUCT_CATEGORY ( 'detail', '', ( #866 ) ) ;
#246 = DATE_AND_TIME ( #858, #648 ) ;
#247 = CYLINDRICAL_SURFACE ( 'NONE', #794, 24.24999999999999289 ) ;
#248 = ORIENTED_EDGE ( 'NONE', *, *, #712, .T. ) ;
#249 = DATE_TIME_ROLE ( 'creation_date' ) ;
#250 = DIRECTION ( 'NONE',  ( -0.000000000000000000, -0.000000000000000000, 1.000000000000000000 ) ) ;
#251 = CIRCLE ( 'NONE', #751, 28.92129050720693328 ) ;
#252 = VECTOR ( 'NONE', #771, 1000.000000000000000 ) ;
#253 = DIRECTION ( 'NONE',  ( 1.000000000000000000, 0.000000000000000000, 0.000000000000000000 ) ) ;
#254 = EDGE_CURVE ( 'NONE', #818, #272, #304, .T. ) ;
#255 = EDGE_CURVE ( 'NONE', #322, #466, #125, .T. ) ;
#256 = TOROIDAL_SURFACE ( 'NONE', #510, 27.98771419253363035, 12.69999999999999929 ) ;
#257 = EDGE_LOOP ( 'NONE', ( #334, #657, #624, #124 ) ) ;
#258 = CARTESIAN_POINT ( 'NONE',  ( -10.25000000000000178, 0.000000000000000000, 9.525000000000037659 ) ) ;
#259 = VERTEX_POINT ( 'NONE', #105 ) ;
#260 = CARTESIAN_POINT ( 'NONE',  ( -22.24999999999991118, 2.724839128102850341E-15, 9.524999999999991473 ) ) ;
#261 = EDGE_CURVE ( 'NONE', #259, #327, #8, .T. ) ;
#262 = ORIENTED_EDGE ( 'NONE', *, *, #625, .T. ) ;
#263 = CARTESIAN_POINT ( 'NONE',  ( -24.24999999999999289, 2.969768487932330893E-15, 19.42500000000003979 ) ) ;
#264 = AXIS2_PLACEMENT_3D ( 'NONE', #698, #552, #708 ) ;
#265 = CARTESIAN_POINT ( 'NONE',  ( 0.000000000000000000, 0.000000000000000000, -0.3749999999999552580 ) ) ;
#266 = TOROIDAL_SURFACE ( 'NONE', #765, 27.98771419253363035, 12.69999999999999929 ) ;
#267 = TOROIDAL_SURFACE ( 'NONE', #171, 27.98771419253363035, 12.69999999999999929 ) ;
#268 = EDGE_LOOP ( 'NONE', ( #446, #116, #711, #244 ) ) ;
#269 = DESIGN_CONTEXT ( 'detailed design', #14, 'design' ) ;
#270 = DIRECTION ( 'NONE',  ( -0.000000000000000000, -0.000000000000000000, 1.000000000000000000 ) ) ;
#271 = DIRECTION ( 'NONE',  ( -0.000000000000000000, -0.000000000000000000, 1.000000000000000000 ) ) ;
#272 = VERTEX_POINT ( 'NONE', #389 ) ;
#273 = EDGE_CURVE ( 'NONE', #327, #259, #535, .T. ) ;
#274 = CARTESIAN_POINT ( 'NONE',  ( 28.63330738957348487, 0.000000000000000000, -2.269580307783720663 ) ) ;
#275 = DIRECTION ( 'NONE',  ( 1.000000000000000000, 0.000000000000000000, 0.000000000000000000 ) ) ;
#276 = EDGE_LOOP ( 'NONE', ( #867, #72 ) ) ;
#277 = CARTESIAN_POINT ( 'NONE',  ( 10.25000000000000178, -1.255262969126037241E-15, 9.525000000000037659 ) ) ;
#278 = CC_DESIGN_PERSON_AND_ORGANIZATION_ASSIGNMENT ( #641, #301, ( #581 ) ) ;
#279 = CIRCLE ( 'NONE', #346, 28.92129050720693328 ) ;
#280 = ORIENTED_EDGE ( 'NONE', *, *, #840, .F. ) ;
#281 = CARTESIAN_POINT ( 'NONE',  ( 0.000000000000000000, 0.000000000000000000, 17.62500000000003908 ) ) ;
#282 = DIRECTION ( 'NONE',  ( 0.000000000000000000, 0.000000000000000000, -1.000000000000000000 ) ) ;
#283 = ORIENTED_EDGE ( 'NONE', *, *, #190, .F. ) ;
#284 = ADVANCED_FACE ( 'NONE', ( #453 ), #324, .T. ) ;
#285 = CARTESIAN_POINT ( 'NONE',  ( 28.63330738965563071, 0.000000000000000000, 21.31958030777541424 ) ) ;
#286 = AXIS2_PLACEMENT_3D ( 'NONE', #621, #1, #533 ) ;
#287 = CARTESIAN_POINT ( 'NONE',  ( 22.24999999999990408, 0.000000000000000000, 17.62500000000003908 ) ) ;
#288 = EDGE_LOOP ( 'NONE', ( #532, #92, #572, #671 ) ) ;
#289 = CARTESIAN_POINT ( 'NONE',  ( 0.000000000000000000, 0.000000000000000000, -2.269580307783720663 ) ) ;
#290 = DIRECTION ( 'NONE',  ( -0.000000000000000000, -0.000000000000000000, 1.000000000000000000 ) ) ;
#291 = VERTEX_POINT ( 'NONE', #73 ) ;
#292 = COORDINATED_UNIVERSAL_TIME_OFFSET ( 6, 0, .BEHIND. ) ;
#293 = CARTESIAN_POINT ( 'NONE',  ( 0.000000000000000000, 0.000000000000000000, 9.524999999999991473 ) ) ;
#294 = DIRECTION ( 'NONE',  ( 1.000000000000000000, 0.000000000000000000, 0.000000000000000000 ) ) ;
#295 = EDGE_LOOP ( 'NONE', ( #351, #76, #238, #128 ) ) ;
#296 = CARTESIAN_POINT ( 'NONE',  ( 0.000000000000000000, 0.000000000000000000, 0.000000000000000000 ) ) ;
#297 = VECTOR ( 'NONE', #66, 1000.000000000000000 ) ;
#298 = CARTESIAN_POINT ( 'NONE',  ( 0.000000000000000000, 0.000000000000000000, 9.524999999999991473 ) ) ;
#299 = ORIENTED_EDGE ( 'NONE', *, *, #488, .T. ) ;
#300 = ORIENTED_EDGE ( 'NONE', *, *, #27, .T. ) ;
#301 = PERSON_AND_ORGANIZATION_ROLE ( 'creator' ) ;
#302 = AXIS2_PLACEMENT_3D ( 'NONE', #461, #744, #326 ) ;
#303 = CIRCLE ( 'NONE', #767, 28.63330738962315536 ) ;
#304 = CIRCLE ( 'NONE', #168, 40.00000000000000000 ) ;
#305 = LINE ( 'NONE', #737, #297 ) ;
#306 = FACE_OUTER_BOUND ( 'NONE', #856, .T. ) ;
#307 = ORIENTED_EDGE ( 'NONE', *, *, #791, .F. ) ;
#308 = APPROVAL_STATUS ( 'not_yet_approved' ) ;
#309 = EDGE_CURVE ( 'NONE', #414, #818, #251, .T. ) ;
#310 = AXIS2_PLACEMENT_3D ( 'NONE', #391, #756, #807 ) ;
#311 = ADVANCED_FACE ( 'NONE', ( #739 ), #75, .T. ) ;
#312 = DIRECTION ( 'NONE',  ( 1.000000000000000000, 0.000000000000000000, 0.000000000000000000 ) ) ;
#313 = ORIENTED_EDGE ( 'NONE', *, *, #731, .T. ) ;
#314 = SECURITY_CLASSIFICATION ( '', '', #707 ) ;
#315 = VECTOR ( 'NONE', #349, 1000.000000000000000 ) ;
#316 = FACE_OUTER_BOUND ( 'NONE', #202, .T. ) ;
#317 = ORIENTED_EDGE ( 'NONE', *, *, #876, .T. ) ;
#318 = CARTESIAN_POINT ( 'NONE',  ( 0.000000000000000000, 0.000000000000000000, 15.33600000000004293 ) ) ;
#319 = DIRECTION ( 'NONE',  ( 1.000000000000000000, 0.000000000000000000, 0.000000000000000000 ) ) ;
#320 = FACE_OUTER_BOUND ( 'NONE', #442, .T. ) ;
#321 = CARTESIAN_POINT ( 'NONE',  ( 0.000000000000000000, 0.000000000000000000, 3.714000000000038604 ) ) ;
#322 = VERTEX_POINT ( 'NONE', #68 ) ;
#323 = DIRECTION ( 'NONE',  ( -0.000000000000000000, -1.000000000000000000, -0.000000000000000000 ) ) ;
#324 = TOROIDAL_SURFACE ( 'NONE', #26, 26.98771419253363035, 6.000000000000000000 ) ;
#325 = AXIS2_PLACEMENT_3D ( 'NONE', #22, #635, #294 ) ;
#326 = DIRECTION ( 'NONE',  ( 1.000000000000000000, 0.000000000000000000, 0.000000000000000000 ) ) ;
#327 = VERTEX_POINT ( 'NONE', #871 ) ;
#328 = EDGE_CURVE ( 'NONE', #47, #549, #615, .T. ) ;
#329 = ORIENTED_EDGE ( 'NONE', *, *, #190, .T. ) ;
#330 = UNCERTAINTY_MEASURE_WITH_UNIT (LENGTH_MEASURE( 1.000000000000000082E-05 ), #20, 'distance_accuracy_value', 'NONE');
#331 = FACE_OUTER_BOUND ( 'NONE', #636, .T. ) ;
#332 = DIRECTION ( 'NONE',  ( 0.000000000000000000, 0.000000000000000000, -1.000000000000000000 ) ) ;
#333 = AXIS2_PLACEMENT_3D ( 'NONE', #154, #416, #692 ) ;
#334 = ORIENTED_EDGE ( 'NONE', *, *, #469, .F. ) ;
#335 = DIRECTION ( 'NONE',  ( -0.000000000000000000, -0.000000000000000000, 1.000000000000000000 ) ) ;
#336 = ORIENTED_EDGE ( 'NONE', *, *, #110, .T. ) ;
#337 = CARTESIAN_POINT ( 'NONE',  ( 27.98771419253363035, 0.000000000000000000, 21.33600000000004115 ) ) ;
#338 = ORIENTED_EDGE ( 'NONE', *, *, #840, .T. ) ;
#339 = DIRECTION ( 'NONE',  ( 1.000000000000000000, 0.000000000000000000, 0.000000000000000000 ) ) ;
#340 = DIRECTION ( 'NONE',  ( -0.000000000000000000, -0.000000000000000000, 1.000000000000000000 ) ) ;
#341 = DIRECTION ( 'NONE',  ( -1.224646799147353207E-16, 1.000000000000000000, 0.000000000000000000 ) ) ;
#342 = AXIS2_PLACEMENT_3D ( 'NONE', #399, #323, #596 ) ;
#343 = AXIS2_PLACEMENT_3D ( 'NONE', #623, #766, #481 ) ;
#344 = CIRCLE ( 'NONE', #196, 28.63330738962315536 ) ;
#345 = ORIENTED_EDGE ( 'NONE', *, *, #439, .F. ) ;
#346 = AXIS2_PLACEMENT_3D ( 'NONE', #140, #78, #604 ) ;
#347 = CARTESIAN_POINT ( 'NONE',  ( 0.000000000000000000, 0.000000000000000000, 21.33600000000004115 ) ) ;
#348 = DIRECTION ( 'NONE',  ( -1.000000000000000000, 1.224646799147353207E-16, 0.000000000000000000 ) ) ;
#349 = DIRECTION ( 'NONE',  ( -0.000000000000000000, -0.000000000000000000, 1.000000000000000000 ) ) ;
#350 = EDGE_CURVE ( 'NONE', #145, #394, #193, .T. ) ;
#351 = ORIENTED_EDGE ( 'NONE', *, *, #577, .F. ) ;
#352 = LINE ( 'NONE', #690, #803 ) ;
#353 = CARTESIAN_POINT ( 'NONE',  ( 0.000000000000000000, 0.000000000000000000, -0.3749999999999586997 ) ) ;
#354 = EDGE_LOOP ( 'NONE', ( #23, #336 ) ) ;
#355 = MECHANICAL_CONTEXT ( 'NONE', #34, 'mechanical' ) ;
#356 = CARTESIAN_POINT ( 'NONE',  ( 0.000000000000000000, 0.000000000000000000, 9.524999999999991473 ) ) ;
#357 = EDGE_CURVE ( 'NONE', #322, #113, #553, .T. ) ;
#358 = CARTESIAN_POINT ( 'NONE',  ( 24.24999999999999289, 0.000000000000000000, -1.624999999999954703 ) ) ;
#359 = VERTEX_POINT ( 'NONE', #753 ) ;
#360 = AXIS2_PLACEMENT_3D ( 'NONE', #588, #340, #748 ) ;
#361 = CIRCLE ( 'NONE', #28, 42.00000000000000000 ) ;
#362 = DIRECTION ( 'NONE',  ( -1.000000000000000000, 0.000000000000000000, 0.000000000000000000 ) ) ;
#363 = VERTEX_POINT ( 'NONE', #263 ) ;
#364 = ORGANIZATION ( 'UNSPECIFIED', 'UNSPECIFIED', '' ) ;
#365 = DIRECTION ( 'NONE',  ( 0.000000000000000000, 0.000000000000000000, -1.000000000000000000 ) ) ;
#366 = CC_DESIGN_DATE_AND_TIME_ASSIGNMENT ( #231, #24, ( #314 ) ) ;
#367 = AXIS2_PLACEMENT_3D ( 'NONE', #746, #564, #179 ) ;
#368 = PLANE ( 'NONE',  #883 ) ;
#369 = ORIENTED_EDGE ( 'NONE', *, *, #750, .F. ) ;
#370 = DIRECTION ( 'NONE',  ( 1.000000000000000000, 0.000000000000000000, 0.000000000000000000 ) ) ;
#371 = CARTESIAN_POINT ( 'NONE',  ( -28.92129050720693328, 3.541836584686170035E-15, 1.425000000000044231 ) ) ;
#372 = DIRECTION ( 'NONE',  ( 0.000000000000000000, -0.000000000000000000, 1.000000000000000000 ) ) ;
#373 = EDGE_LOOP ( 'NONE', ( #214, #583, #617, #236 ) ) ;
#374 = APPROVAL_ROLE ( '' ) ;
#375 = TOROIDAL_SURFACE ( 'NONE', #565, 28.53163916960883739, 2.000000000000000000 ) ;
#376 = AXIS2_PLACEMENT_3D ( 'NONE', #29, #492, #844 ) ;
#377 = CIRCLE ( 'NONE', #710, 24.24999999999999289 ) ;
#378 = CARTESIAN_POINT ( 'NONE',  ( 0.000000000000000000, 0.000000000000000000, 9.525000000000037659 ) ) ;
#379 = EDGE_CURVE ( 'NONE', #643, #881, #450, .T. ) ;
#380 = FACE_OUTER_BOUND ( 'NONE', #223, .T. ) ;
#381 = CC_DESIGN_PERSON_AND_ORGANIZATION_ASSIGNMENT ( #40, #637, ( #866 ) ) ;
#382 = AXIS2_PLACEMENT_3D ( 'NONE', #882, #395, #679 ) ;
#383 = CARTESIAN_POINT ( 'NONE',  ( 0.000000000000000000, 0.000000000000000000, -0.3749999999999586997 ) ) ;
#384 = ORIENTED_EDGE ( 'NONE', *, *, #625, .F. ) ;
#385 = AXIS2_PLACEMENT_3D ( 'NONE', #880, #885, #526 ) ;
#386 = ORIENTED_EDGE ( 'NONE', *, *, #611, .T. ) ;
#387 = DIRECTION ( 'NONE',  ( 0.000000000000000000, 0.000000000000000000, -1.000000000000000000 ) ) ;
#388 = ORIENTED_EDGE ( 'NONE', *, *, #499, .F. ) ;
#389 = CARTESIAN_POINT ( 'NONE',  ( -28.92129050720693328, 3.541836584686170035E-15, 17.62500000000003908 ) ) ;
#390 = CC_DESIGN_PERSON_AND_ORGANIZATION_ASSIGNMENT ( #177, #494, ( #619 ) ) ;
#391 = CARTESIAN_POINT ( 'NONE',  ( 0.000000000000000000, 24.24999999999999289, 1.425000000000039124 ) ) ;
#392 = CIRCLE ( 'NONE', #796, 40.00000000000000000 ) ;
#393 = DIRECTION ( 'NONE',  ( 1.000000000000000000, 0.000000000000000000, 0.000000000000000000 ) ) ;
#394 = VERTEX_POINT ( 'NONE', #524 ) ;
#395 = DIRECTION ( 'NONE',  ( 0.000000000000000000, -1.000000000000000000, 0.000000000000000000 ) ) ;
#396 = DIRECTION ( 'NONE',  ( 1.000000000000000000, 0.000000000000000000, 0.000000000000000000 ) ) ;
#397 = ORIENTED_EDGE ( 'NONE', *, *, #649, .F. ) ;
#398 = ORIENTED_EDGE ( 'NONE', *, *, #639, .F. ) ;
#399 = CARTESIAN_POINT ( 'NONE',  ( -28.53163916960883739, 0.000000000000000000, 19.32216608608132447 ) ) ;
#400 = TOROIDAL_SURFACE ( 'NONE', #198, -10.25000000000000178, 42.00000000000000000 ) ;
#401 = CIRCLE ( 'NONE', #143, 41.99999999999999289 ) ;
#402 = FACE_OUTER_BOUND ( 'NONE', #276, .T. ) ;
#403 = TOROIDAL_SURFACE ( 'NONE', #539, -10.25000000000000178, 40.00000000000000000 ) ;
#404 = EDGE_CURVE ( 'NONE', #640, #776, #874, .T. ) ;
#405 = ORIENTED_EDGE ( 'NONE', *, *, #573, .F. ) ;
#406 = DIRECTION ( 'NONE',  ( -0.000000000000000000, -0.000000000000000000, 1.000000000000000000 ) ) ;
#407 = DIRECTION ( 'NONE',  ( -0.000000000000000000, -0.000000000000000000, 1.000000000000000000 ) ) ;
#408 = ORIENTED_EDGE ( 'NONE', *, *, #328, .F. ) ;
#409 = CIRCLE ( 'NONE', #35, 6.000000000000000000 ) ;
#410 = CARTESIAN_POINT ( 'NONE',  ( 0.000000000000000000, 0.000000000000000000, 19.81202439038538898 ) ) ;
#411 = DIRECTION ( 'NONE',  ( 1.000000000000000000, 0.000000000000000000, 0.000000000000000000 ) ) ;
#412 = EDGE_CURVE ( 'NONE', #852, #19, #514, .T. ) ;
#413 = PLANE ( 'NONE',  #310 ) ;
#414 = VERTEX_POINT ( 'NONE', #610 ) ;
#415 = DIRECTION ( 'NONE',  ( -0.000000000000000000, -0.000000000000000000, 1.000000000000000000 ) ) ;
#416 = DIRECTION ( 'NONE',  ( 0.000000000000000000, 0.000000000000000000, -1.000000000000000000 ) ) ;
#417 = AXIS2_PLACEMENT_3D ( 'NONE', #879, #81, #139 ) ;
#418 = CIRCLE ( 'NONE', #709, 28.63330738962272548 ) ;
#419 = AXIS2_PLACEMENT_3D ( 'NONE', #431, #551, #720 ) ;
#420 = ORIENTED_EDGE ( 'NONE', *, *, #379, .F. ) ;
#421 = FACE_OUTER_BOUND ( 'NONE', #213, .T. ) ;
#422 = DIRECTION ( 'NONE',  ( -0.000000000000000000, -0.000000000000000000, 1.000000000000000000 ) ) ;
#423 = CARTESIAN_POINT ( 'NONE',  ( 24.24999999999999289, 0.000000000000000000, -0.3749999999999552580 ) ) ;
#424 = ORIENTED_EDGE ( 'NONE', *, *, #750, .T. ) ;
#425 = APPROVAL_ROLE ( '' ) ;
#426 = DIRECTION ( 'NONE',  ( -0.000000000000000000, -0.000000000000000000, 1.000000000000000000 ) ) ;
#427 = FACE_BOUND ( 'NONE', #86, .T. ) ;
#428 = ORIENTED_EDGE ( 'NONE', *, *, #38, .F. ) ;
#429 = ADVANCED_FACE ( 'NONE', ( #3 ), #182, .T. ) ;
#430 = PERSON_AND_ORGANIZATION_ROLE ( 'design_supplier' ) ;
#431 = CARTESIAN_POINT ( 'NONE',  ( 0.000000000000000000, 0.000000000000000000, 8.636000000000041865 ) ) ;
#432 = FACE_OUTER_BOUND ( 'NONE', #676, .T. ) ;
#433 = CARTESIAN_POINT ( 'NONE',  ( 0.000000000000000000, 0.000000000000000000, 17.62500000000003908 ) ) ;
#434 = ORIENTED_EDGE ( 'NONE', *, *, #507, .F. ) ;
#435 = DIRECTION ( 'NONE',  ( 0.000000000000000000, 0.000000000000000000, 1.000000000000000000 ) ) ;
#436 = DIRECTION ( 'NONE',  ( -1.000000000000000000, 1.224646799147353700E-16, 0.000000000000000000 ) ) ;
#437 = DIRECTION ( 'NONE',  ( 1.000000000000000000, 0.000000000000000000, 0.000000000000000000 ) ) ;
#438 = ORIENTED_EDGE ( 'NONE', *, *, #811, .F. ) ;
#439 = EDGE_CURVE ( 'NONE', #327, #394, #361, .T. ) ;
#440 = CARTESIAN_POINT ( 'NONE',  ( 0.000000000000000000, 0.000000000000000000, -1.624999999999954703 ) ) ;
#441 = CARTESIAN_POINT ( 'NONE',  ( 0.000000000000000000, 0.000000000000000000, -2.285999999999963617 ) ) ;
#442 = EDGE_LOOP ( 'NONE', ( #587, #878, #758, #438 ) ) ;
#443 = CARTESIAN_POINT ( 'NONE',  ( 30.47072112808927713, 0.000000000000000000, 19.81202439038538898 ) ) ;
#444 = ADVANCED_FACE ( 'NONE', ( #605, #402 ), #413, .F. ) ;
#445 = CARTESIAN_POINT ( 'NONE',  ( -22.24999999999990408, 2.724839128102849947E-15, 17.62500000000003908 ) ) ;
#446 = ORIENTED_EDGE ( 'NONE', *, *, #235, .F. ) ;
#447 = CIRCLE ( 'NONE', #864, 27.98771419253363035 ) ;
#448 = DIRECTION ( 'NONE',  ( -0.000000000000000000, -0.000000000000000000, 1.000000000000000000 ) ) ;
#449 = ADVANCED_FACE ( 'NONE', ( #667 ), #69, .F. ) ;
#450 = CIRCLE ( 'NONE', #691, 22.24999999999991829 ) ;
#451 = DIRECTION ( 'NONE',  ( 0.000000000000000000, -1.000000000000000000, 0.000000000000000000 ) ) ;
#452 = ORIENTED_EDGE ( 'NONE', *, *, #476, .T. ) ;
#453 = FACE_OUTER_BOUND ( 'NONE', #70, .T. ) ;
#454 = CIRCLE ( 'NONE', #652, 28.92129050720693328 ) ;
#455 = AXIS2_PLACEMENT_3D ( 'NONE', #578, #863, #52 ) ;
#456 = AXIS2_PLACEMENT_3D ( 'NONE', #146, #205, #150 ) ;
#457 = CARTESIAN_POINT ( 'NONE',  ( -28.53163916960884094, 0.000000000000000000, -0.2721660860812418758 ) ) ;
#458 = CARTESIAN_POINT ( 'NONE',  ( 26.98771419253363035, 0.000000000000000000, -2.285999999999963617 ) ) ;
#459 = ORIENTED_EDGE ( 'NONE', *, *, #178, .T. ) ;
#460 = APPROVAL_PERSON_ORGANIZATION ( #117, #730, #49 ) ;
#461 = CARTESIAN_POINT ( 'NONE',  ( 0.000000000000000000, 0.000000000000000000, 21.33600000000004115 ) ) ;
#462 = ORIENTED_EDGE ( 'NONE', *, *, #110, .F. ) ;
#463 = DIRECTION ( 'NONE',  ( 1.000000000000000000, 0.000000000000000000, 0.000000000000000000 ) ) ;
#464 = ADVANCED_FACE ( 'NONE', ( #531, #538 ), #465, .F. ) ;
#465 = PLANE ( 'NONE',  #385 ) ;
#466 = VERTEX_POINT ( 'NONE', #274 ) ;
#467 = CARTESIAN_POINT ( 'NONE',  ( 0.000000000000000000, 0.000000000000000000, 21.31958030777541779 ) ) ;
#468 = ORIENTED_EDGE ( 'NONE', *, *, #200, .T. ) ;
#469 = EDGE_CURVE ( 'NONE', #155, #743, #817, .T. ) ;
#470 = ORIENTED_EDGE ( 'NONE', *, *, #53, .F. ) ;
#471 = DIRECTION ( 'NONE',  ( 1.000000000000000000, 0.000000000000000000, 0.000000000000000000 ) ) ;
#472 = DIRECTION ( 'NONE',  ( 1.000000000000000000, 0.000000000000000000, 0.000000000000000000 ) ) ;
#473 = DIRECTION ( 'NONE',  ( 1.000000000000000000, 0.000000000000000000, 0.000000000000000000 ) ) ;
#474 = EDGE_LOOP ( 'NONE', ( #2, #595, #299, #218 ) ) ;
#475 = CIRCLE ( 'NONE', #286, 24.24999999999999645 ) ;
#476 = EDGE_CURVE ( 'NONE', #113, #322, #447, .T. ) ;
#477 = DIRECTION ( 'NONE',  ( -0.000000000000000000, -0.000000000000000000, 1.000000000000000000 ) ) ;
#478 = LINE ( 'NONE', #91, #315 ) ;
#479 = ORIENTED_EDGE ( 'NONE', *, *, #178, .F. ) ;
#480 = DIRECTION ( 'NONE',  ( -1.000000000000000000, 1.224646799147353454E-16, 0.000000000000000000 ) ) ;
#481 = DIRECTION ( 'NONE',  ( 1.000000000000000000, 0.000000000000000000, 0.000000000000000000 ) ) ;
#482 = AXIS2_PLACEMENT_3D ( 'NONE', #810, #77, #530 ) ;
#483 = AXIS2_PLACEMENT_3D ( 'NONE', #839, #111, #362 ) ;
#484 = ORIENTED_EDGE ( 'NONE', *, *, #350, .F. ) ;
#485 = AXIS2_PLACEMENT_3D ( 'NONE', #378, #734, #58 ) ;
#486 = CARTESIAN_POINT ( 'NONE',  ( -26.98771419253363035, 3.305041780218990779E-15, 21.33600000000004115 ) ) ;
#487 = LINE ( 'NONE', #629, #252 ) ;
#488 = EDGE_CURVE ( 'NONE', #327, #164, #862, .T. ) ;
#489 = EDGE_LOOP ( 'NONE', ( #199, #493, #398, #408 ) ) ;
#490 = PERSON_AND_ORGANIZATION ( #792, #364 ) ;
#491 = DIRECTION ( 'NONE',  ( 1.000000000000000000, 0.000000000000000000, 0.000000000000000000 ) ) ;
#492 = DIRECTION ( 'NONE',  ( -0.000000000000000000, -0.000000000000000000, 1.000000000000000000 ) ) ;
#493 = ORIENTED_EDGE ( 'NONE', *, *, #760, .T. ) ;
#494 = PERSON_AND_ORGANIZATION_ROLE ( 'creator' ) ;
#495 = CARTESIAN_POINT ( 'NONE',  ( 0.000000000000000000, 0.000000000000000000, 21.33600000000004115 ) ) ;
#496 = ORIENTED_EDGE ( 'NONE', *, *, #731, .F. ) ;
#497 = CIRCLE ( 'NONE', #118, 22.24999999999991829 ) ;
#498 = COORDINATED_UNIVERSAL_TIME_OFFSET ( 6, 0, .BEHIND. ) ;
#499 = EDGE_CURVE ( 'NONE', #259, #782, #401, .T. ) ;
#500 = ORIENTED_EDGE ( 'NONE', *, *, #50, .F. ) ;
#501 = CALENDAR_DATE ( 2022, 6, 6 ) ;
#502 = DIRECTION ( 'NONE',  ( -0.000000000000000000, -0.000000000000000000, 1.000000000000000000 ) ) ;
#503 = DIRECTION ( 'NONE',  ( -0.000000000000000000, -0.000000000000000000, 1.000000000000000000 ) ) ;
#504 = VERTEX_POINT ( 'NONE', #754 ) ;
#505 = DATE_AND_TIME ( #574, #525 ) ;
#506 = CARTESIAN_POINT ( 'NONE',  ( -24.24999999999999289, 2.969768487932330893E-15, -0.3749999999999552580 ) ) ;
#507 = EDGE_CURVE ( 'NONE', #776, #762, #651, .T. ) ;
#508 = AXIS2_PLACEMENT_3D ( 'NONE', #433, #845, #437 ) ;
#509 = AXIS2_PLACEMENT_3D ( 'NONE', #598, #548, #436 ) ;
#510 = AXIS2_PLACEMENT_3D ( 'NONE', #689, #696, #275 ) ;
#511 = APPROVAL ( #308, 'UNSPECIFIED' ) ;
#512 = DIRECTION ( 'NONE',  ( 0.000000000000000000, 0.000000000000000000, -1.000000000000000000 ) ) ;
#513 = ORIENTED_EDGE ( 'NONE', *, *, #639, .T. ) ;
#514 = CIRCLE ( 'NONE', #482, 22.24999999999990408 ) ;
#515 = CARTESIAN_POINT ( 'NONE',  ( 26.98771419253363035, 0.000000000000000000, 15.33600000000004293 ) ) ;
#516 = EDGE_LOOP ( 'NONE', ( #405, #706, #534, #825 ) ) ;
#517 = DIRECTION ( 'NONE',  ( 1.000000000000000000, 0.000000000000000000, 0.000000000000000000 ) ) ;
#518 = CIRCLE ( 'NONE', #226, 28.63330738962272548 ) ;
#519 = AXIS2_PLACEMENT_3D ( 'NONE', #162, #21, #157 ) ;
#520 = FACE_OUTER_BOUND ( 'NONE', #152, .T. ) ;
#521 = DIRECTION ( 'NONE',  ( -1.000000000000000000, 1.224646799147353207E-16, 0.000000000000000000 ) ) ;
#522 = LINE ( 'NONE', #808, #660 ) ;
#523 = EDGE_LOOP ( 'NONE', ( #307, #821, #15, #813 ) ) ;
#524 = CARTESIAN_POINT ( 'NONE',  ( -30.47072112808927713, 3.731587109722616080E-15, 19.81202439038538898 ) ) ;
#525 = LOCAL_TIME ( 14, 30, 32.00000000000000000, #292 ) ;
#526 = DIRECTION ( 'NONE',  ( -1.000000000000000000, 0.000000000000000000, -0.000000000000000000 ) ) ;
#527 = CIRCLE ( 'NONE', #772, 27.98771419253363035 ) ;
#528 = EDGE_LOOP ( 'NONE', ( #36, #7, #313, #317 ) ) ;
#529 = ORIENTED_EDGE ( 'NONE', *, *, #261, .T. ) ;
#530 = DIRECTION ( 'NONE',  ( 1.000000000000000000, 0.000000000000000000, 0.000000000000000000 ) ) ;
#531 = FACE_BOUND ( 'NONE', #701, .T. ) ;
#532 = ORIENTED_EDGE ( 'NONE', *, *, #54, .F. ) ;
#533 = DIRECTION ( 'NONE',  ( 1.000000000000000000, 0.000000000000000000, 0.000000000000000000 ) ) ;
#534 = ORIENTED_EDGE ( 'NONE', *, *, #350, .T. ) ;
#535 = CIRCLE ( 'NONE', #778, 30.47072112808928068 ) ;
#536 = VECTOR ( 'NONE', #79, 1000.000000000000000 ) ;
#537 = AXIS2_PLACEMENT_3D ( 'NONE', #227, #94, #480 ) ;
#538 = FACE_OUTER_BOUND ( 'NONE', #354, .T. ) ;
#539 = AXIS2_PLACEMENT_3D ( 'NONE', #642, #186, #741 ) ;
#540 = EDGE_CURVE ( 'NONE', #47, #145, #418, .T. ) ;
#541 = ORIENTED_EDGE ( 'NONE', *, *, #6, .F. ) ;
#542 = DIRECTION ( 'NONE',  ( 1.000000000000000000, 0.000000000000000000, 0.000000000000000000 ) ) ;
#543 = DIRECTION ( 'NONE',  ( -1.000000000000000000, 0.000000000000000000, -0.000000000000000000 ) ) ;
#544 = EDGE_LOOP ( 'NONE', ( #566, #230, #855, #176 ) ) ;
#545 = CC_DESIGN_DATE_AND_TIME_ASSIGNMENT ( #240, #249, ( #581 ) ) ;
#546 = AXIS2_PLACEMENT_3D ( 'NONE', #798, #191, #393 ) ;
#547 = CARTESIAN_POINT ( 'NONE',  ( -27.98771419253363035, 3.467037642252060287E-15, -2.285999999999961840 ) ) ;
#548 = DIRECTION ( 'NONE',  ( 1.224646799147353207E-16, 1.000000000000000000, 0.000000000000000000 ) ) ;
#549 = VERTEX_POINT ( 'NONE', #337 ) ;
#550 =( NAMED_UNIT ( * ) PLANE_ANGLE_UNIT ( ) SI_UNIT ( $, .RADIAN. ) );
#551 = DIRECTION ( 'NONE',  ( -0.000000000000000000, -0.000000000000000000, 1.000000000000000000 ) ) ;
#552 = DIRECTION ( 'NONE',  ( -0.000000000000000000, -0.000000000000000000, 1.000000000000000000 ) ) ;
#553 = CIRCLE ( 'NONE', #849, 27.98771419253363035 ) ;
#554 = VECTOR ( 'NONE', #85, 1000.000000000000000 ) ;
#555 = AXIS2_PLACEMENT_3D ( 'NONE', #347, #622, #684 ) ;
#556 = VERTEX_POINT ( 'NONE', #820 ) ;
#557 = DIRECTION ( 'NONE',  ( 1.000000000000000000, 0.000000000000000000, 0.000000000000000000 ) ) ;
#558 = DIRECTION ( 'NONE',  ( 0.000000000000000000, -0.000000000000000000, 1.000000000000000000 ) ) ;
#559 = VERTEX_POINT ( 'NONE', #661 ) ;
#560 =( NAMED_UNIT ( * ) SI_UNIT ( $, .STERADIAN. ) SOLID_ANGLE_UNIT ( ) );
#561 = DIRECTION ( 'NONE',  ( -0.000000000000000000, -0.000000000000000000, 1.000000000000000000 ) ) ;
#562 = EDGE_CURVE ( 'NONE', #145, #47, #518, .T. ) ;
#563 = ORIENTED_EDGE ( 'NONE', *, *, #357, .F. ) ;
#564 = DIRECTION ( 'NONE',  ( 1.224646799147353207E-16, 1.000000000000000000, 0.000000000000000000 ) ) ;
#565 = AXIS2_PLACEMENT_3D ( 'NONE', #95, #90, #832 ) ;
#566 = ORIENTED_EDGE ( 'NONE', *, *, #760, .F. ) ;
#567 = AXIS2_PLACEMENT_3D ( 'NONE', #705, #558, #18 ) ;
#568 = EDGE_CURVE ( 'NONE', #842, #852, #151, .T. ) ;
#569 = COORDINATED_UNIVERSAL_TIME_OFFSET ( 6, 0, .BEHIND. ) ;
#570 = CARTESIAN_POINT ( 'NONE',  ( 24.24999999999999645, 0.000000000000000000, 20.67500000000003268 ) ) ;
#571 = DIRECTION ( 'NONE',  ( 1.000000000000000000, 0.000000000000000000, 0.000000000000000000 ) ) ;
#572 = ORIENTED_EDGE ( 'NONE', *, *, #568, .T. ) ;
#573 = EDGE_CURVE ( 'NONE', #47, #782, #802, .T. ) ;
#574 = CALENDAR_DATE ( 2022, 6, 6 ) ;
#575 = APPROVAL_PERSON_ORGANIZATION ( #490, #846, #374 ) ;
#576 = DIRECTION ( 'NONE',  ( 1.000000000000000000, 0.000000000000000000, 0.000000000000000000 ) ) ;
#577 = EDGE_CURVE ( 'NONE', #155, #881, #616, .T. ) ;
#578 = CARTESIAN_POINT ( 'NONE',  ( 28.53163916960884094, 3.494118058348871153E-15, -0.2721660860812418758 ) ) ;
#579 = AXIS2_PLACEMENT_3D ( 'NONE', #801, #131, #147 ) ;
#580 = CIRCLE ( 'NONE', #736, 30.47072112808927713 ) ;
#581 = PRODUCT_DEFINITION ( 'UNKNOWN', '', #619, #269 ) ;
#582 = DIRECTION ( 'NONE',  ( 0.000000000000000000, 0.000000000000000000, -1.000000000000000000 ) ) ;
#583 = ORIENTED_EDGE ( 'NONE', *, *, #649, .T. ) ;
#584 = ORIENTED_EDGE ( 'NONE', *, *, #144, .F. ) ;
#585 = AXIS2_PLACEMENT_3D ( 'NONE', #243, #137, #114 ) ;
#586 = FACE_OUTER_BOUND ( 'NONE', #288, .T. ) ;
#587 = ORIENTED_EDGE ( 'NONE', *, *, #98, .T. ) ;
#588 = CARTESIAN_POINT ( 'NONE',  ( 0.000000000000000000, 0.000000000000000000, 3.714000000000038604 ) ) ;
#589 = DIRECTION ( 'NONE',  ( -1.000000000000000000, 0.000000000000000000, 0.000000000000000000 ) ) ;
#590 = CARTESIAN_POINT ( 'NONE',  ( 0.000000000000000000, 0.000000000000000000, 1.425000000000040901 ) ) ;
#591 = ORIENTED_EDGE ( 'NONE', *, *, #439, .T. ) ;
#592 = EDGE_CURVE ( 'NONE', #204, #192, #644, .T. ) ;
#593 = CIRCLE ( 'NONE', #630, 26.98771419253363035 ) ;
#594 = DIRECTION ( 'NONE',  ( -0.000000000000000000, -0.000000000000000000, 1.000000000000000000 ) ) ;
#595 = ORIENTED_EDGE ( 'NONE', *, *, #273, .F. ) ;
#596 = DIRECTION ( 'NONE',  ( 0.000000000000000000, 0.000000000000000000, -1.000000000000000000 ) ) ;
#597 = CIRCLE ( 'NONE', #875, 24.24999999999999289 ) ;
#598 = CARTESIAN_POINT ( 'NONE',  ( -27.98771419253363035, 3.427506460133726322E-15, 10.41400000000003878 ) ) ;
#599 = ORIENTED_EDGE ( 'NONE', *, *, #255, .F. ) ;
#600 = CARTESIAN_POINT ( 'NONE',  ( 24.24999999999999289, 0.000000000000000000, 9.524999999999991473 ) ) ;
#601 = EDGE_LOOP ( 'NONE', ( #209, #715, #470, #745 ) ) ;
#602 = DIRECTION ( 'NONE',  ( -0.000000000000000000, -0.000000000000000000, 1.000000000000000000 ) ) ;
#603 = AXIS2_PLACEMENT_3D ( 'NONE', #296, #435, #370 ) ;
#604 = DIRECTION ( 'NONE',  ( 1.000000000000000000, 0.000000000000000000, 0.000000000000000000 ) ) ;
#605 = FACE_BOUND ( 'NONE', #161, .T. ) ;
#606 = CIRCLE ( 'NONE', #841, 24.24999999999999645 ) ;
#607 = ORIENTED_EDGE ( 'NONE', *, *, #357, .T. ) ;
#608 = FACE_OUTER_BOUND ( 'NONE', #773, .T. ) ;
#609 = ORIENTED_EDGE ( 'NONE', *, *, #633, .T. ) ;
#610 = CARTESIAN_POINT ( 'NONE',  ( 28.92129050720693328, 0.000000000000000000, 1.425000000000044231 ) ) ;
#611 = EDGE_CURVE ( 'NONE', #102, #559, #242, .T. ) ;
#612 = DIRECTION ( 'NONE',  ( -0.000000000000000000, -0.000000000000000000, 1.000000000000000000 ) ) ;
#613 = ORIENTED_EDGE ( 'NONE', *, *, #412, .F. ) ;
#614 = FACE_OUTER_BOUND ( 'NONE', #683, .T. ) ;
#615 = CIRCLE ( 'NONE', #382, 12.69999999999999929 ) ;
#616 = LINE ( 'NONE', #260, #536 ) ;
#617 = ORIENTED_EDGE ( 'NONE', *, *, #592, .T. ) ;
#618 = CARTESIAN_POINT ( 'NONE',  ( -27.98771419253363035, 3.467037642252060287E-15, 21.33600000000004115 ) ) ;
#619 = PRODUCT_DEFINITION_FORMATION_WITH_SPECIFIED_SOURCE ( 'ANY', '', #866, .NOT_KNOWN. ) ;
#620 = ORIENTED_EDGE ( 'NONE', *, *, #53, .T. ) ;
#621 = CARTESIAN_POINT ( 'NONE',  ( 0.000000000000000000, 0.000000000000000000, 20.67500000000003268 ) ) ;
#622 = DIRECTION ( 'NONE',  ( -0.000000000000000000, -0.000000000000000000, 1.000000000000000000 ) ) ;
#623 = CARTESIAN_POINT ( 'NONE',  ( 0.000000000000000000, 0.000000000000000000, 9.524999999999991473 ) ) ;
#624 = ORIENTED_EDGE ( 'NONE', *, *, #6, .T. ) ;
#625 = EDGE_CURVE ( 'NONE', #113, #164, #780, .T. ) ;
#626 = CALENDAR_DATE ( 2022, 6, 6 ) ;
#627 = CARTESIAN_POINT ( 'NONE',  ( 0.000000000000000000, 0.000000000000000000, 9.524999999999991473 ) ) ;
#628 = ADVANCED_FACE ( 'NONE', ( #224 ), #229, .F. ) ;
#629 = CARTESIAN_POINT ( 'NONE',  ( -24.24999999999999289, 2.969768487932330893E-15, 9.524999999999991473 ) ) ;
#630 = AXIS2_PLACEMENT_3D ( 'NONE', #441, #700, #714 ) ;
#631 = ORIENTED_EDGE ( 'NONE', *, *, #27, .F. ) ;
#632 = PERSON_AND_ORGANIZATION_ROLE ( 'classification_officer' ) ;
#633 = EDGE_CURVE ( 'NONE', #743, #155, #763, .T. ) ;
#634 = ADVANCED_FACE ( 'NONE', ( #101 ), #234, .F. ) ;
#635 = DIRECTION ( 'NONE',  ( -0.000000000000000000, -0.000000000000000000, 1.000000000000000000 ) ) ;
#636 = EDGE_LOOP ( 'NONE', ( #847, #768, #631, #484 ) ) ;
#637 = PERSON_AND_ORGANIZATION_ROLE ( 'design_owner' ) ;
#638 = TOROIDAL_SURFACE ( 'NONE', #112, 26.98771419253363035, 6.000000000000001776 ) ;
#639 = EDGE_CURVE ( 'NONE', #549, #738, #735, .T. ) ;
#640 = VERTEX_POINT ( 'NONE', #358 ) ;
#641 = PERSON_AND_ORGANIZATION ( #792, #364 ) ;
#642 = CARTESIAN_POINT ( 'NONE',  ( 0.000000000000000000, 0.000000000000000000, 9.525000000000037659 ) ) ;
#643 = VERTEX_POINT ( 'NONE', #96 ) ;
#644 = CIRCLE ( 'NONE', #170, 24.24999999999999289 ) ;
#645 = COORDINATED_UNIVERSAL_TIME_OFFSET ( 6, 0, .BEHIND. ) ;
#646 = CIRCLE ( 'NONE', #806, 22.24999999999990408 ) ;
#647 = FACE_BOUND ( 'NONE', #225, .T. ) ;
#648 = LOCAL_TIME ( 14, 30, 32.00000000000000000, #498 ) ;
#649 = EDGE_CURVE ( 'NONE', #504, #204, #487, .T. ) ;
#650 = CARTESIAN_POINT ( 'NONE',  ( 0.000000000000000000, 0.000000000000000000, -2.269580307783720663 ) ) ;
#651 = CIRCLE ( 'NONE', #156, 26.98771419253363035 ) ;
#652 = AXIS2_PLACEMENT_3D ( 'NONE', #281, #769, #697 ) ;
#653 = DIRECTION ( 'NONE',  ( 0.000000000000000000, -1.000000000000000000, 0.000000000000000000 ) ) ;
#654 = EDGE_LOOP ( 'NONE', ( #513, #248 ) ) ;
#655 = AXIS2_PLACEMENT_3D ( 'NONE', #12, #372, #829 ) ;
#656 = ADVANCED_FACE ( 'NONE', ( #432, #828 ), #775, .F. ) ;
#657 = ORIENTED_EDGE ( 'NONE', *, *, #577, .T. ) ;
#658 = EDGE_LOOP ( 'NONE', ( #462, #870, #80, #496 ) ) ;
#659 = CARTESIAN_POINT ( 'NONE',  ( 0.000000000000000000, 0.000000000000000000, -0.7620243903853040068 ) ) ;
#660 = VECTOR ( 'NONE', #335, 1000.000000000000000 ) ;
#661 = CARTESIAN_POINT ( 'NONE',  ( 26.98771419253363035, 0.000000000000000000, 21.33600000000004115 ) ) ;
#662 = EDGE_LOOP ( 'NONE', ( #809, #424 ) ) ;
#663 = CARTESIAN_POINT ( 'NONE',  ( 22.24999999999991829, 0.000000000000000000, -0.3749999999999586997 ) ) ;
#664 = ORIENTED_EDGE ( 'NONE', *, *, #404, .F. ) ;
#665 = CARTESIAN_POINT ( 'NONE',  ( 0.000000000000000000, 0.000000000000000000, 1.425000000000044231 ) ) ;
#666 = ADVANCED_BREP_SHAPE_REPRESENTATION ( '228-2500-1958', ( #41, #603 ), #699 ) ;
#667 = FACE_OUTER_BOUND ( 'NONE', #257, .T. ) ;
#668 = EDGE_CURVE ( 'NONE', #359, #363, #597, .T. ) ;
#669 = ADVANCED_FACE ( 'NONE', ( #237 ), #194, .T. ) ;
#670 = AXIS2_PLACEMENT_3D ( 'NONE', #819, #215, #471 ) ;
#671 = ORIENTED_EDGE ( 'NONE', *, *, #412, .T. ) ;
#672 = CARTESIAN_POINT ( 'NONE',  ( 0.000000000000000000, 0.000000000000000000, 19.42500000000003979 ) ) ;
#673 = AXIS2_PLACEMENT_3D ( 'NONE', #353, #290, #835 ) ;
#674 = AXIS2_PLACEMENT_3D ( 'NONE', #823, #221, #339 ) ;
#675 = DIRECTION ( 'NONE',  ( 1.000000000000000000, 0.000000000000000000, 0.000000000000000000 ) ) ;
#676 = EDGE_LOOP ( 'NONE', ( #280, #134 ) ) ;
#677 = EDGE_CURVE ( 'NONE', #842, #291, #833, .T. ) ;
#678 = ORIENTED_EDGE ( 'NONE', *, *, #208, .T. ) ;
#679 = DIRECTION ( 'NONE',  ( 0.000000000000000000, 0.000000000000000000, -1.000000000000000000 ) ) ;
#680 = CC_DESIGN_APPROVAL ( #730, ( #314 ) ) ;
#681 = DIRECTION ( 'NONE',  ( 0.000000000000000000, -1.000000000000000000, 0.000000000000000000 ) ) ;
#682 = AXIS2_PLACEMENT_3D ( 'NONE', #440, #719, #850 ) ;
#683 = EDGE_LOOP ( 'NONE', ( #369, #747, #173, #138 ) ) ;
#684 = DIRECTION ( 'NONE',  ( 1.000000000000000000, 0.000000000000000000, 0.000000000000000000 ) ) ;
#685 = DIRECTION ( 'NONE',  ( -0.000000000000000000, -0.000000000000000000, 1.000000000000000000 ) ) ;
#686 = CC_DESIGN_PERSON_AND_ORGANIZATION_ASSIGNMENT ( #702, #430, ( #619 ) ) ;
#687 = DIRECTION ( 'NONE',  ( -0.000000000000000000, -0.000000000000000000, 1.000000000000000000 ) ) ;
#688 = ORIENTED_EDGE ( 'NONE', *, *, #507, .T. ) ;
#689 = CARTESIAN_POINT ( 'NONE',  ( 0.000000000000000000, 0.000000000000000000, 10.41400000000003878 ) ) ;
#690 = CARTESIAN_POINT ( 'NONE',  ( -22.24999999999991118, 2.724839128102850341E-15, 9.524999999999991473 ) ) ;
#691 = AXIS2_PLACEMENT_3D ( 'NONE', #672, #800, #517 ) ;
#692 = DIRECTION ( 'NONE',  ( -1.000000000000000000, 0.000000000000000000, 0.000000000000000000 ) ) ;
#693 = ADVANCED_FACE ( 'NONE', ( #33 ), #163, .F. ) ;
#694 = AXIS2_PLACEMENT_3D ( 'NONE', #873, #180, #253 ) ;
#695 = ORIENTED_EDGE ( 'NONE', *, *, #255, .T. ) ;
#696 = DIRECTION ( 'NONE',  ( -0.000000000000000000, -0.000000000000000000, 1.000000000000000000 ) ) ;
#697 = DIRECTION ( 'NONE',  ( 1.000000000000000000, 0.000000000000000000, 0.000000000000000000 ) ) ;
#698 = CARTESIAN_POINT ( 'NONE',  ( 0.000000000000000000, 0.000000000000000000, 9.524999999999991473 ) ) ;
#699 =( GEOMETRIC_REPRESENTATION_CONTEXT ( 3 ) GLOBAL_UNCERTAINTY_ASSIGNED_CONTEXT ( ( #330 ) ) GLOBAL_UNIT_ASSIGNED_CONTEXT ( ( #20, #550, #560 ) ) REPRESENTATION_CONTEXT ( 'NONE', 'WORKASPACE' ) );
#700 = DIRECTION ( 'NONE',  ( -0.000000000000000000, -0.000000000000000000, 1.000000000000000000 ) ) ;
#701 = EDGE_LOOP ( 'NONE', ( #420, #541 ) ) ;
#702 = PERSON_AND_ORGANIZATION ( #792, #364 ) ;
#703 = DIRECTION ( 'NONE',  ( 1.000000000000000000, 0.000000000000000000, 0.000000000000000000 ) ) ;
#704 = DIRECTION ( 'NONE',  ( 0.000000000000000000, -1.000000000000000000, 0.000000000000000000 ) ) ;
#705 = CARTESIAN_POINT ( 'NONE',  ( 0.000000000000000000, 22.24999999999991829, -0.3749999999999570899 ) ) ;
#706 = ORIENTED_EDGE ( 'NONE', *, *, #562, .F. ) ;
#707 = SECURITY_CLASSIFICATION_LEVEL ( 'unclassified' ) ;
#708 = DIRECTION ( 'NONE',  ( 1.000000000000000000, 0.000000000000000000, 0.000000000000000000 ) ) ;
#709 = AXIS2_PLACEMENT_3D ( 'NONE', #467, #270, #136 ) ;
#710 = AXIS2_PLACEMENT_3D ( 'NONE', #127, #795, #64 ) ;
#711 = ORIENTED_EDGE ( 'NONE', *, *, #50, .T. ) ;
#712 = EDGE_CURVE ( 'NONE', #738, #549, #527, .T. ) ;
#713 = FACE_OUTER_BOUND ( 'NONE', #654, .T. ) ;
#714 = DIRECTION ( 'NONE',  ( 1.000000000000000000, 0.000000000000000000, 0.000000000000000000 ) ) ;
#715 = ORIENTED_EDGE ( 'NONE', *, *, #141, .T. ) ;
#716 = APPLICATION_PROTOCOL_DEFINITION ( 'international standard', 'config_control_design', 1994, #34 ) ;
#717 = CIRCLE ( 'NONE', #585, 5.999999999999998224 ) ;
#718 = ADVANCED_FACE ( 'NONE', ( #427, #713 ), #368, .F. ) ;
#719 = DIRECTION ( 'NONE',  ( -0.000000000000000000, -0.000000000000000000, 1.000000000000000000 ) ) ;
#720 = DIRECTION ( 'NONE',  ( 1.000000000000000000, 0.000000000000000000, 0.000000000000000000 ) ) ;
#721 = ORIENTED_EDGE ( 'NONE', *, *, #476, .F. ) ;
#722 = CALENDAR_DATE ( 2022, 6, 6 ) ;
#723 = ADVANCED_FACE ( 'NONE', ( #824 ), #233, .T. ) ;
#724 = FACE_OUTER_BOUND ( 'NONE', #268, .T. ) ;
#725 = TOROIDAL_SURFACE ( 'NONE', #419, 27.98771419253363035, 12.69999999999999929 ) ;
#726 = DIRECTION ( 'NONE',  ( 1.000000000000000000, 0.000000000000000000, 0.000000000000000000 ) ) ;
#727 = LOCAL_TIME ( 14, 30, 32.00000000000000000, #104 ) ;
#728 = CIRCLE ( 'NONE', #367, 12.69999999999999574 ) ;
#729 = DIRECTION ( 'NONE',  ( 1.000000000000000000, 0.000000000000000000, 0.000000000000000000 ) ) ;
#730 = APPROVAL ( #109, 'UNSPECIFIED' ) ;
#731 = EDGE_CURVE ( 'NONE', #359, #804, #478, .T. ) ;
#732 = DIRECTION ( 'NONE',  ( 1.000000000000000000, 0.000000000000000000, 0.000000000000000000 ) ) ;
#733 = PRODUCT_DEFINITION_SHAPE ( 'NONE', 'NONE',  #581 ) ;
#734 = DIRECTION ( 'NONE',  ( -0.000000000000000000, -0.000000000000000000, 1.000000000000000000 ) ) ;
#735 = CIRCLE ( 'NONE', #325, 27.98771419253363035 ) ;
#736 = AXIS2_PLACEMENT_3D ( 'NONE', #410, #16, #232 ) ;
#737 = CARTESIAN_POINT ( 'NONE',  ( -24.24999999999999289, 2.969768487932330893E-15, 9.524999999999991473 ) ) ;
#738 = VERTEX_POINT ( 'NONE', #618 ) ;
#739 = FACE_OUTER_BOUND ( 'NONE', #523, .T. ) ;
#740 = CARTESIAN_POINT ( 'NONE',  ( 0.000000000000000000, 0.000000000000000000, -2.285999999999961840 ) ) ;
#741 = DIRECTION ( 'NONE',  ( 1.000000000000000000, 0.000000000000000000, 0.000000000000000000 ) ) ;
#742 = CARTESIAN_POINT ( 'NONE',  ( 0.000000000000000000, 0.000000000000000000, 9.524999999999991473 ) ) ;
#743 = VERTEX_POINT ( 'NONE', #287 ) ;
#744 = DIRECTION ( 'NONE',  ( -0.000000000000000000, -0.000000000000000000, 1.000000000000000000 ) ) ;
#745 = ORIENTED_EDGE ( 'NONE', *, *, #488, .F. ) ;
#746 = CARTESIAN_POINT ( 'NONE',  ( -27.98771419253363035, 3.427506460133726322E-15, 8.636000000000041865 ) ) ;
#747 = ORIENTED_EDGE ( 'NONE', *, *, #54, .T. ) ;
#748 = DIRECTION ( 'NONE',  ( 1.000000000000000000, 0.000000000000000000, 0.000000000000000000 ) ) ;
#749 = CARTESIAN_POINT ( 'NONE',  ( -10.25000000000000178, 0.000000000000000000, 9.525000000000037659 ) ) ;
#750 = EDGE_CURVE ( 'NONE', #291, #842, #222, .T. ) ;
#751 = AXIS2_PLACEMENT_3D ( 'NONE', #665, #602, #805 ) ;
#752 = ORIENTED_EDGE ( 'NONE', *, *, #169, .T. ) ;
#753 = CARTESIAN_POINT ( 'NONE',  ( 24.24999999999999289, 0.000000000000000000, 19.42500000000003979 ) ) ;
#754 = CARTESIAN_POINT ( 'NONE',  ( -24.24999999999999289, 2.969768487932330893E-15, -1.624999999999954703 ) ) ;
#755 = DIRECTION ( 'NONE',  ( 0.000000000000000000, 0.000000000000000000, -1.000000000000000000 ) ) ;
#756 = DIRECTION ( 'NONE',  ( 0.000000000000000000, 0.000000000000000000, -1.000000000000000000 ) ) ;
#757 = CIRCLE ( 'NONE', #546, 24.24999999999999289 ) ;
#758 = ORIENTED_EDGE ( 'NONE', *, *, #876, .F. ) ;
#759 = CYLINDRICAL_SURFACE ( 'NONE', #59, 24.24999999999999289 ) ;
#760 = EDGE_CURVE ( 'NONE', #145, #738, #728, .T. ) ;
#761 = DIRECTION ( 'NONE',  ( 1.000000000000000000, 0.000000000000000000, 0.000000000000000000 ) ) ;
#762 = VERTEX_POINT ( 'NONE', #784 ) ;
#763 = CIRCLE ( 'NONE', #376, 22.24999999999990408 ) ;
#764 = EDGE_CURVE ( 'NONE', #504, #640, #121, .T. ) ;
#765 = AXIS2_PLACEMENT_3D ( 'NONE', #831, #426, #703 ) ;
#766 = DIRECTION ( 'NONE',  ( -0.000000000000000000, -0.000000000000000000, 1.000000000000000000 ) ) ;
#767 = AXIS2_PLACEMENT_3D ( 'NONE', #650, #582, #576 ) ;
#768 = ORIENTED_EDGE ( 'NONE', *, *, #573, .T. ) ;
#769 = DIRECTION ( 'NONE',  ( -0.000000000000000000, -0.000000000000000000, 1.000000000000000000 ) ) ;
#770 = CARTESIAN_POINT ( 'NONE',  ( 27.98771419253363035, 0.000000000000000000, 10.41400000000003878 ) ) ;
#771 = DIRECTION ( 'NONE',  ( -0.000000000000000000, -0.000000000000000000, 1.000000000000000000 ) ) ;
#772 = AXIS2_PLACEMENT_3D ( 'NONE', #495, #779, #172 ) ;
#773 = EDGE_LOOP ( 'NONE', ( #384, #452, #695, #752 ) ) ;
#774 = DIRECTION ( 'NONE',  ( -0.000000000000000000, -0.000000000000000000, 1.000000000000000000 ) ) ;
#775 = PLANE ( 'NONE',  #567 ) ;
#776 = VERTEX_POINT ( 'NONE', #458 ) ;
#777 = EDGE_CURVE ( 'NONE', #363, #556, #305, .T. ) ;
#778 = AXIS2_PLACEMENT_3D ( 'NONE', #659, #406, #411 ) ;
#779 = DIRECTION ( 'NONE',  ( -0.000000000000000000, -0.000000000000000000, 1.000000000000000000 ) ) ;
#780 = CIRCLE ( 'NONE', #509, 12.69999999999999574 ) ;
#781 = CIRCLE ( 'NONE', #508, 28.92129050720693328 ) ;
#782 = VERTEX_POINT ( 'NONE', #443 ) ;
#783 = PERSON_AND_ORGANIZATION ( #792, #364 ) ;
#784 = CARTESIAN_POINT ( 'NONE',  ( -26.98771419253363035, 3.305041780218990779E-15, -2.285999999999963617 ) ) ;
#785 = EDGE_LOOP ( 'NONE', ( #607, #262, #620, #599 ) ) ;
#786 = DATE_AND_TIME ( #501, #220 ) ;
#787 = ADVANCED_FACE ( 'NONE', ( #316 ), #638, .T. ) ;
#788 = DIRECTION ( 'NONE',  ( 1.000000000000000000, 0.000000000000000000, 0.000000000000000000 ) ) ;
#789 = CARTESIAN_POINT ( 'NONE',  ( 0.000000000000000000, 0.000000000000000000, 10.41400000000003878 ) ) ;
#790 = ORIENTED_EDGE ( 'NONE', *, *, #254, .F. ) ;
#791 = EDGE_CURVE ( 'NONE', #504, #762, #717, .T. ) ;
#792 = PERSON ( 'UNSPECIFIED', 'UNSPECIFIED', 'UNSPECIFIED', ('UNSPECIFIED'), ('UNSPECIFIED'), ('UNSPECIFIED') ) ;
#793 = CARTESIAN_POINT ( 'NONE',  ( 0.000000000000000000, 0.000000000000000000, 15.33600000000004293 ) ) ;
#794 = AXIS2_PLACEMENT_3D ( 'NONE', #356, #774, #9 ) ;
#795 = DIRECTION ( 'NONE',  ( -0.000000000000000000, -0.000000000000000000, 1.000000000000000000 ) ) ;
#796 = AXIS2_PLACEMENT_3D ( 'NONE', #258, #653, #512 ) ;
#797 = EDGE_CURVE ( 'NONE', #414, #830, #392, .T. ) ;
#798 = CARTESIAN_POINT ( 'NONE',  ( 0.000000000000000000, 0.000000000000000000, -0.3749999999999552580 ) ) ;
#799 = ORIENTED_EDGE ( 'NONE', *, *, #791, .T. ) ;
#800 = DIRECTION ( 'NONE',  ( -0.000000000000000000, -0.000000000000000000, 1.000000000000000000 ) ) ;
#801 = CARTESIAN_POINT ( 'NONE',  ( 0.000000000000000000, 0.000000000000000000, 9.524999999999991473 ) ) ;
#802 = CIRCLE ( 'NONE', #126, 2.000000000000001776 ) ;
#803 = VECTOR ( 'NONE', #88, 1000.000000000000000 ) ;
#804 = VERTEX_POINT ( 'NONE', #570 ) ;
#805 = DIRECTION ( 'NONE',  ( 1.000000000000000000, 0.000000000000000000, 0.000000000000000000 ) ) ;
#806 = AXIS2_PLACEMENT_3D ( 'NONE', #590, #250, #729 ) ;
#807 = DIRECTION ( 'NONE',  ( -1.000000000000000000, 0.000000000000000000, -0.000000000000000000 ) ) ;
#808 = CARTESIAN_POINT ( 'NONE',  ( 22.24999999999991118, 0.000000000000000000, 9.524999999999991473 ) ) ;
#809 = ORIENTED_EDGE ( 'NONE', *, *, #677, .T. ) ;
#810 = CARTESIAN_POINT ( 'NONE',  ( 0.000000000000000000, 0.000000000000000000, 1.425000000000040901 ) ) ;
#811 = EDGE_CURVE ( 'NONE', #559, #804, #409, .T. ) ;
#812 = CARTESIAN_POINT ( 'NONE',  ( 28.53163916960883739, 3.494118058348871153E-15, 19.32216608608132447 ) ) ;
#813 = ORIENTED_EDGE ( 'NONE', *, *, #200, .F. ) ;
#814 = CARTESIAN_POINT ( 'NONE',  ( 0.000000000000000000, 0.000000000000000000, -2.285999999999961840 ) ) ;
#815 = CARTESIAN_POINT ( 'NONE',  ( 0.000000000000000000, 0.000000000000000000, 17.62500000000003908 ) ) ;
#816 = ORIENTED_EDGE ( 'NONE', *, *, #98, .F. ) ;
#817 = CIRCLE ( 'NONE', #57, 22.24999999999990408 ) ;
#818 = VERTEX_POINT ( 'NONE', #371 ) ;
#819 = CARTESIAN_POINT ( 'NONE',  ( 0.000000000000000000, 0.000000000000000000, 9.525000000000037659 ) ) ;
#820 = CARTESIAN_POINT ( 'NONE',  ( -24.24999999999999645, 3.137405134075660836E-15, 20.67500000000003268 ) ) ;
#821 = ORIENTED_EDGE ( 'NONE', *, *, #764, .T. ) ;
#822 = ADVANCED_FACE ( 'NONE', ( #586 ), #869, .F. ) ;
#823 = CARTESIAN_POINT ( 'NONE',  ( 0.000000000000000000, 0.000000000000000000, 19.42500000000003979 ) ) ;
#824 = FACE_OUTER_BOUND ( 'NONE', #601, .T. ) ;
#825 = ORIENTED_EDGE ( 'NONE', *, *, #208, .F. ) ;
#826 = LINE ( 'NONE', #600, #868 ) ;
#827 = FACE_OUTER_BOUND ( 'NONE', #489, .T. ) ;
#828 = FACE_BOUND ( 'NONE', #662, .T. ) ;
#829 = DIRECTION ( 'NONE',  ( 1.000000000000000000, 0.000000000000000000, 0.000000000000000000 ) ) ;
#830 = VERTEX_POINT ( 'NONE', #877 ) ;
#831 = CARTESIAN_POINT ( 'NONE',  ( 0.000000000000000000, 0.000000000000000000, 8.636000000000041865 ) ) ;
#832 = DIRECTION ( 'NONE',  ( -1.000000000000000000, 0.000000000000000000, 0.000000000000000000 ) ) ;
#833 = CIRCLE ( 'NONE', #673, 22.24999999999991829 ) ;
#834 = EDGE_CURVE ( 'NONE', #556, #804, #606, .T. ) ;
#835 = DIRECTION ( 'NONE',  ( 1.000000000000000000, 0.000000000000000000, 0.000000000000000000 ) ) ;
#836 = ORIENTED_EDGE ( 'NONE', *, *, #811, .T. ) ;
#837 = PERSON_AND_ORGANIZATION ( #792, #364 ) ;
#838 = FACE_OUTER_BOUND ( 'NONE', #528, .T. ) ;
#839 = CARTESIAN_POINT ( 'NONE',  ( 0.000000000000000000, 0.000000000000000000, -0.2721660860812418758 ) ) ;
#840 = EDGE_CURVE ( 'NONE', #192, #204, #757, .T. ) ;
#841 = AXIS2_PLACEMENT_3D ( 'NONE', #133, #61, #312 ) ;
#842 = VERTEX_POINT ( 'NONE', #663 ) ;
#843 = APPROVAL_DATE_TIME ( #505, #730 ) ;
#844 = DIRECTION ( 'NONE',  ( 1.000000000000000000, 0.000000000000000000, 0.000000000000000000 ) ) ;
#845 = DIRECTION ( 'NONE',  ( -0.000000000000000000, -0.000000000000000000, 1.000000000000000000 ) ) ;
#846 = APPROVAL ( #853, 'UNSPECIFIED' ) ;
#847 = ORIENTED_EDGE ( 'NONE', *, *, #540, .F. ) ;
#848 = SHAPE_DEFINITION_REPRESENTATION ( #733, #666 ) ;
#849 = AXIS2_PLACEMENT_3D ( 'NONE', #814, #211, #129 ) ;
#850 = DIRECTION ( 'NONE',  ( 1.000000000000000000, 0.000000000000000000, 0.000000000000000000 ) ) ;
#851 = AXIS2_PLACEMENT_3D ( 'NONE', #793, #503, #726 ) ;
#852 = VERTEX_POINT ( 'NONE', #71 ) ;
#853 = APPROVAL_STATUS ( 'not_yet_approved' ) ;
#854 = EDGE_CURVE ( 'NONE', #743, #643, #522, .T. ) ;
#855 = ORIENTED_EDGE ( 'NONE', *, *, #328, .T. ) ;
#856 = EDGE_LOOP ( 'NONE', ( #397, #479, #166, #338 ) ) ;
#857 = AXIS2_PLACEMENT_3D ( 'NONE', #298, #561, #761 ) ;
#858 = CALENDAR_DATE ( 2022, 6, 6 ) ;
#859 = EDGE_CURVE ( 'NONE', #640, #192, #826, .T. ) ;
#860 = PLANE ( 'NONE',  #655 ) ;
#861 = ADVANCED_FACE ( 'NONE', ( #608 ), #256, .T. ) ;
#862 = CIRCLE ( 'NONE', #87, 2.000000000000000000 ) ;
#863 = DIRECTION ( 'NONE',  ( -1.224646799147353207E-16, 1.000000000000000000, 0.000000000000000000 ) ) ;
#864 = AXIS2_PLACEMENT_3D ( 'NONE', #740, #687, #675 ) ;
#865 = APPROVAL_PERSON_ORGANIZATION ( #837, #511, #425 ) ;
#866 = PRODUCT ( '228-2500-1958', '228-2500-1958', '', ( #355 ) ) ;
#867 = ORIENTED_EDGE ( 'NONE', *, *, #309, .T. ) ;
#868 = VECTOR ( 'NONE', #271, 1000.000000000000000 ) ;
#869 = CYLINDRICAL_SURFACE ( 'NONE', #175, 22.24999999999991118 ) ;
#870 = ORIENTED_EDGE ( 'NONE', *, *, #777, .T. ) ;
#871 = CARTESIAN_POINT ( 'NONE',  ( -30.47072112808928068, 3.731587109722616869E-15, -0.7620243903853040068 ) ) ;
#872 = CARTESIAN_POINT ( 'NONE',  ( 22.24999999999991118, 0.000000000000000000, 9.524999999999991473 ) ) ;
#873 = CARTESIAN_POINT ( 'NONE',  ( 0.000000000000000000, 24.24999999999999289, 17.62500000000004263 ) ) ;
#874 = CIRCLE ( 'NONE', #417, 6.000000000000001776 ) ;
#875 = AXIS2_PLACEMENT_3D ( 'NONE', #107, #422, #160 ) ;
#876 = EDGE_CURVE ( 'NONE', #804, #556, #475, .T. ) ;
#877 = CARTESIAN_POINT ( 'NONE',  ( 28.92129050720693328, 0.000000000000000000, 17.62500000000003908 ) ) ;
#878 = ORIENTED_EDGE ( 'NONE', *, *, #38, .T. ) ;
#879 = CARTESIAN_POINT ( 'NONE',  ( 26.98771419253363035, 0.000000000000000000, 3.714000000000038604 ) ) ;
#880 = CARTESIAN_POINT ( 'NONE',  ( 0.000000000000000000, 22.24999999999991829, 19.42500000000003979 ) ) ;
#881 = VERTEX_POINT ( 'NONE', #93 ) ;
#882 = CARTESIAN_POINT ( 'NONE',  ( 27.98771419253363035, 0.000000000000000000, 8.636000000000041865 ) ) ;
#883 = AXIS2_PLACEMENT_3D ( 'NONE', #11, #282, #543 ) ;
#884 = CARTESIAN_POINT ( 'NONE',  ( 10.25000000000000178, -1.255262969126037241E-15, 9.525000000000037659 ) ) ;
#885 = DIRECTION ( 'NONE',  ( 0.000000000000000000, 0.000000000000000000, -1.000000000000000000 ) ) ;
ENDSEC;
END-ISO-10303-21;
