ISO-10303-21;
HEADER;
FILE_DESCRIPTION (( 'STEP AP203' ),
    '1' );
FILE_NAME ('228-2500-221.step',
    '2022-06-06T19:54:42',
    ( '' ),
    ( '' ),
    'SwSTEP 2.0',
    'SolidWorks 2021',
    '' );
FILE_SCHEMA (( 'CONFIG_CONTROL_DESIGN' ));
ENDSEC;

DATA;
#1 = ORIENTED_EDGE ( 'NONE', *, *, #30, .T. ) ;
#2 = AXIS2_PLACEMENT_3D ( 'NONE', #23, #165, #114 ) ;
#3 = EDGE_LOOP ( 'NONE', ( #147, #18, #62, #41 ) ) ;
#4 = EDGE_CURVE ( 'NONE', #150, #17, #183, .T. ) ;
#5 = CARTESIAN_POINT ( 'NONE',  ( -16.00000000000000000, 1.959434878635765131E-15, 0.000000000000000000 ) ) ;
#6 = DIRECTION ( 'NONE',  ( 1.224646799147353207E-16, 1.000000000000000000, 0.000000000000000000 ) ) ;
#7 = CARTESIAN_POINT ( 'NONE',  ( -15.00000000000000000, 1.836970198721029589E-15, 0.000000000000000000 ) ) ;
#8 = DIRECTION ( 'NONE',  ( 1.000000000000000000, 0.000000000000000000, 0.000000000000000000 ) ) ;
#9 = CC_DESIGN_PERSON_AND_ORGANIZATION_ASSIGNMENT ( #38, #171, ( #98 ) ) ;
#10 = PERSON_AND_ORGANIZATION ( #54, #59 ) ;
#11 = DATE_TIME_ROLE ( 'classification_date' ) ;
#12 = CC_DESIGN_APPROVAL ( #158, ( #98 ) ) ;
#13 = DATE_AND_TIME ( #25, #117 ) ;
#14 = ADVANCED_FACE ( 'NONE', ( #97 ), #75, .T. ) ;
#15 = APPROVAL_ROLE ( '' ) ;
#16 = CIRCLE ( 'NONE', #125, 1.000000000000000444 ) ;
#17 = VERTEX_POINT ( 'NONE', #152 ) ;
#18 = ORIENTED_EDGE ( 'NONE', *, *, #140, .F. ) ;
#19 = ORIENTED_EDGE ( 'NONE', *, *, #26, .T. ) ;
#20 = APPROVAL_PERSON_ORGANIZATION ( #174, #78, #15 ) ;
#21 = DIRECTION ( 'NONE',  ( -0.000000000000000000, -0.000000000000000000, 1.000000000000000000 ) ) ;
#22 = ADVANCED_FACE ( 'NONE', ( #49 ), #157, .T. ) ;
#23 = CARTESIAN_POINT ( 'NONE',  ( 0.000000000000000000, 0.000000000000000000, 0.000000000000000000 ) ) ;
#24 = DIRECTION ( 'NONE',  ( -0.000000000000000000, -0.000000000000000000, 1.000000000000000000 ) ) ;
#25 = CALENDAR_DATE ( 2022, 6, 6 ) ;
#26 = EDGE_CURVE ( 'NONE', #124, #58, #88, .T. ) ;
#27 = DATE_TIME_ROLE ( 'creation_date' ) ;
#28 = MECHANICAL_CONTEXT ( 'NONE', #55, 'mechanical' ) ;
#29 = PERSON_AND_ORGANIZATION ( #54, #59 ) ;
#30 = EDGE_CURVE ( 'NONE', #124, #17, #188, .T. ) ;
#31 = LOCAL_TIME ( 14, 54, 42.00000000000000000, #187 ) ;
#32 = DIRECTION ( 'NONE',  ( 1.000000000000000000, 0.000000000000000000, 0.000000000000000000 ) ) ;
#33 = DIRECTION ( 'NONE',  ( 1.000000000000000000, 0.000000000000000000, 0.000000000000000000 ) ) ;
#34 = AXIS2_PLACEMENT_3D ( 'NONE', #48, #166, #33 ) ;
#35 = CARTESIAN_POINT ( 'NONE',  ( 13.99999999999999822, 0.000000000000000000, -1.224646799147353454E-16 ) ) ;
#36 = DIRECTION ( 'NONE',  ( 0.000000000000000000, -1.000000000000000000, 0.000000000000000000 ) ) ;
#37 = CALENDAR_DATE ( 2022, 6, 6 ) ;
#38 = PERSON_AND_ORGANIZATION ( #54, #59 ) ;
#39 = APPROVAL_DATE_TIME ( #155, #78 ) ;
#40 = CALENDAR_DATE ( 2022, 6, 6 ) ;
#41 = ORIENTED_EDGE ( 'NONE', *, *, #115, .T. ) ;
#42 = ORIENTED_EDGE ( 'NONE', *, *, #115, .F. ) ;
#43 = CC_DESIGN_PERSON_AND_ORGANIZATION_ASSIGNMENT ( #29, #144, ( #98 ) ) ;
#44 = ORIENTED_EDGE ( 'NONE', *, *, #148, .T. ) ;
#45 = AXIS2_PLACEMENT_3D ( 'NONE', #162, #21, #32 ) ;
#46 = DIRECTION ( 'NONE',  ( 1.000000000000000000, 0.000000000000000000, 0.000000000000000000 ) ) ;
#47 = CC_DESIGN_PERSON_AND_ORGANIZATION_ASSIGNMENT ( #10, #119, ( #77 ) ) ;
#48 = CARTESIAN_POINT ( 'NONE',  ( 0.000000000000000000, 0.000000000000000000, 0.000000000000000000 ) ) ;
#49 = FACE_OUTER_BOUND ( 'NONE', #135, .T. ) ;
#50 = DIRECTION ( 'NONE',  ( 0.000000000000000000, 0.000000000000000000, -1.000000000000000000 ) ) ;
#51 = CC_DESIGN_APPROVAL ( #78, ( #180 ) ) ;
#52 = PERSON_AND_ORGANIZATION ( #54, #59 ) ;
#53 = EDGE_CURVE ( 'NONE', #58, #124, #110, .T. ) ;
#54 = PERSON ( 'UNSPECIFIED', 'UNSPECIFIED', 'UNSPECIFIED', ('UNSPECIFIED'), ('UNSPECIFIED'), ('UNSPECIFIED') ) ;
#55 = APPLICATION_CONTEXT ( 'configuration controlled 3d designs of mechanical parts and assemblies' ) ;
#56 = SECURITY_CLASSIFICATION_LEVEL ( 'unclassified' ) ;
#57 = MANIFOLD_SOLID_BREP ( '228-2500-221', #123 ) ;
#58 = VERTEX_POINT ( 'NONE', #185 ) ;
#59 = ORGANIZATION ( 'UNSPECIFIED', 'UNSPECIFIED', '' ) ;
#60 = APPROVAL_PERSON_ORGANIZATION ( #74, #160, #92 ) ;
#61 = PRODUCT_DEFINITION_SHAPE ( 'NONE', 'NONE',  #180 ) ;
#62 = ORIENTED_EDGE ( 'NONE', *, *, #4, .T. ) ;
#63 = CC_DESIGN_DATE_AND_TIME_ASSIGNMENT ( #13, #11, ( #167 ) ) ;
#64 = DIRECTION ( 'NONE',  ( 0.000000000000000000, -1.000000000000000000, 0.000000000000000000 ) ) ;
#65 = APPLICATION_PROTOCOL_DEFINITION ( 'international standard', 'config_control_design', 1994, #55 ) ;
#66 = CARTESIAN_POINT ( 'NONE',  ( 15.00000000000000000, 0.000000000000000000, 0.000000000000000000 ) ) ;
#67 = CARTESIAN_POINT ( 'NONE',  ( -15.00000000000000000, 1.836970198721029589E-15, 0.000000000000000000 ) ) ;
#68 = ADVANCED_FACE ( 'NONE', ( #184 ), #90, .T. ) ;
#69 = AXIS2_PLACEMENT_3D ( 'NONE', #181, #24, #87 ) ;
#70 = APPROVAL_DATE_TIME ( #143, #158 ) ;
#71 = DATE_AND_TIME ( #40, #84 ) ;
#72 = APPROVAL_STATUS ( 'not_yet_approved' ) ;
#73 = APPROVAL_STATUS ( 'not_yet_approved' ) ;
#74 = PERSON_AND_ORGANIZATION ( #54, #59 ) ;
#75 = TOROIDAL_SURFACE ( 'NONE', #179, 15.00000000000000000, 1.000000000000000444 ) ;
#76 = ORIENTED_EDGE ( 'NONE', *, *, #4, .F. ) ;
#77 = PRODUCT ( '228-2500-221', '228-2500-221', '', ( #28 ) ) ;
#78 = APPROVAL ( #73, 'UNSPECIFIED' ) ;
#79 = EDGE_LOOP ( 'NONE', ( #134, #19, #44, #193 ) ) ;
#80 = ORIENTED_EDGE ( 'NONE', *, *, #140, .T. ) ;
#81 = AXIS2_PLACEMENT_3D ( 'NONE', #7, #6, #138 ) ;
#82 =( NAMED_UNIT ( * ) SI_UNIT ( $, .STERADIAN. ) SOLID_ANGLE_UNIT ( ) );
#83 = CARTESIAN_POINT ( 'NONE',  ( 0.000000000000000000, 0.000000000000000000, 0.000000000000000000 ) ) ;
#84 = LOCAL_TIME ( 14, 54, 42.00000000000000000, #108 ) ;
#85 = CC_DESIGN_APPROVAL ( #160, ( #167 ) ) ;
#86 = DIRECTION ( 'NONE',  ( 1.224646799147353207E-16, 1.000000000000000000, 0.000000000000000000 ) ) ;
#87 = DIRECTION ( 'NONE',  ( 1.000000000000000000, 0.000000000000000000, 0.000000000000000000 ) ) ;
#88 = CIRCLE ( 'NONE', #69, 16.00000000000000000 ) ;
#89 = APPROVAL_STATUS ( 'not_yet_approved' ) ;
#90 = TOROIDAL_SURFACE ( 'NONE', #176, 15.00000000000000000, 1.000000000000000444 ) ;
#91 = APPLICATION_PROTOCOL_DEFINITION ( 'international standard', 'config_control_design', 1994, #103 ) ;
#92 = APPROVAL_ROLE ( '' ) ;
#93 =( GEOMETRIC_REPRESENTATION_CONTEXT ( 3 ) GLOBAL_UNCERTAINTY_ASSIGNED_CONTEXT ( ( #161 ) ) GLOBAL_UNIT_ASSIGNED_CONTEXT ( ( #163, #182, #82 ) ) REPRESENTATION_CONTEXT ( 'NONE', 'WORKASPACE' ) );
#94 = EDGE_LOOP ( 'NONE', ( #149, #42, #112, #80 ) ) ;
#95 = CC_DESIGN_PERSON_AND_ORGANIZATION_ASSIGNMENT ( #52, #154, ( #167 ) ) ;
#96 = DESIGN_CONTEXT ( 'detailed design', #103, 'design' ) ;
#97 = FACE_OUTER_BOUND ( 'NONE', #79, .T. ) ;
#98 = PRODUCT_DEFINITION_FORMATION_WITH_SPECIFIED_SOURCE ( 'ANY', '', #77, .NOT_KNOWN. ) ;
#99 = ADVANCED_BREP_SHAPE_REPRESENTATION ( '228-2500-221', ( #57, #34 ), #93 ) ;
#100 = DIRECTION ( 'NONE',  ( -0.000000000000000000, -0.000000000000000000, 1.000000000000000000 ) ) ;
#101 = CARTESIAN_POINT ( 'NONE',  ( 0.000000000000000000, 0.000000000000000000, 0.000000000000000000 ) ) ;
#102 = CARTESIAN_POINT ( 'NONE',  ( 0.000000000000000000, 0.000000000000000000, -1.224646799147353947E-16 ) ) ;
#103 = APPLICATION_CONTEXT ( 'configuration controlled 3d designs of mechanical parts and assemblies' ) ;
#104 = CARTESIAN_POINT ( 'NONE',  ( 0.000000000000000000, 0.000000000000000000, 0.000000000000000000 ) ) ;
#105 = PRODUCT_RELATED_PRODUCT_CATEGORY ( 'detail', '', ( #77 ) ) ;
#106 = CIRCLE ( 'NONE', #172, 1.000000000000000888 ) ;
#107 = SHAPE_DEFINITION_REPRESENTATION ( #61, #99 ) ;
#108 = COORDINATED_UNIVERSAL_TIME_OFFSET ( 6, 0, .BEHIND. ) ;
#109 = APPROVAL_ROLE ( '' ) ;
#110 = CIRCLE ( 'NONE', #192, 16.00000000000000000 ) ;
#111 = AXIS2_PLACEMENT_3D ( 'NONE', #113, #64, #50 ) ;
#112 = ORIENTED_EDGE ( 'NONE', *, *, #164, .T. ) ;
#113 = CARTESIAN_POINT ( 'NONE',  ( 15.00000000000000000, 0.000000000000000000, 0.000000000000000000 ) ) ;
#114 = DIRECTION ( 'NONE',  ( 1.000000000000000000, 0.000000000000000000, 0.000000000000000000 ) ) ;
#115 = EDGE_CURVE ( 'NONE', #17, #124, #106, .T. ) ;
#116 = DIRECTION ( 'NONE',  ( 1.000000000000000000, 0.000000000000000000, 0.000000000000000000 ) ) ;
#117 = LOCAL_TIME ( 14, 54, 42.00000000000000000, #129 ) ;
#118 = CARTESIAN_POINT ( 'NONE',  ( 0.000000000000000000, 0.000000000000000000, 0.000000000000000000 ) ) ;
#119 = PERSON_AND_ORGANIZATION_ROLE ( 'design_owner' ) ;
#120 = COORDINATED_UNIVERSAL_TIME_OFFSET ( 6, 0, .BEHIND. ) ;
#121 = PERSON_AND_ORGANIZATION_ROLE ( 'creator' ) ;
#122 = APPROVAL_PERSON_ORGANIZATION ( #191, #158, #109 ) ;
#123 = CLOSED_SHELL ( 'NONE', ( #14, #22, #68, #173 ) ) ;
#124 = VERTEX_POINT ( 'NONE', #5 ) ;
#125 = AXIS2_PLACEMENT_3D ( 'NONE', #66, #36, #139 ) ;
#126 = DIRECTION ( 'NONE',  ( 1.000000000000000000, 0.000000000000000000, 0.000000000000000000 ) ) ;
#127 = DIRECTION ( 'NONE',  ( -0.000000000000000000, -0.000000000000000000, 1.000000000000000000 ) ) ;
#128 = DIRECTION ( 'NONE',  ( -0.000000000000000000, -0.000000000000000000, 1.000000000000000000 ) ) ;
#129 = COORDINATED_UNIVERSAL_TIME_OFFSET ( 6, 0, .BEHIND. ) ;
#130 = CIRCLE ( 'NONE', #111, 1.000000000000000444 ) ;
#131 = CALENDAR_DATE ( 2022, 6, 6 ) ;
#132 = PERSON_AND_ORGANIZATION ( #54, #59 ) ;
#133 = CC_DESIGN_PERSON_AND_ORGANIZATION_ASSIGNMENT ( #132, #121, ( #180 ) ) ;
#134 = ORIENTED_EDGE ( 'NONE', *, *, #30, .F. ) ;
#135 = EDGE_LOOP ( 'NONE', ( #146, #178, #1, #76 ) ) ;
#136 = TOROIDAL_SURFACE ( 'NONE', #159, 15.00000000000000000, 1.000000000000000444 ) ;
#137 = DIRECTION ( 'NONE',  ( -0.000000000000000000, -0.000000000000000000, 1.000000000000000000 ) ) ;
#138 = DIRECTION ( 'NONE',  ( -1.000000000000000000, 1.224646799147353454E-16, 0.000000000000000000 ) ) ;
#139 = DIRECTION ( 'NONE',  ( 0.000000000000000000, 0.000000000000000000, -1.000000000000000000 ) ) ;
#140 = EDGE_CURVE ( 'NONE', #150, #58, #130, .T. ) ;
#141 = COORDINATED_UNIVERSAL_TIME_OFFSET ( 6, 0, .BEHIND. ) ;
#142 = CIRCLE ( 'NONE', #145, 13.99999999999999822 ) ;
#143 = DATE_AND_TIME ( #37, #177 ) ;
#144 = PERSON_AND_ORGANIZATION_ROLE ( 'creator' ) ;
#145 = AXIS2_PLACEMENT_3D ( 'NONE', #102, #128, #8 ) ;
#146 = ORIENTED_EDGE ( 'NONE', *, *, #148, .F. ) ;
#147 = ORIENTED_EDGE ( 'NONE', *, *, #53, .F. ) ;
#148 = EDGE_CURVE ( 'NONE', #58, #150, #16, .T. ) ;
#149 = ORIENTED_EDGE ( 'NONE', *, *, #26, .F. ) ;
#150 = VERTEX_POINT ( 'NONE', #35 ) ;
#151 = FACE_OUTER_BOUND ( 'NONE', #94, .T. ) ;
#152 = CARTESIAN_POINT ( 'NONE',  ( -13.99999999999999822, 1.714505518806294244E-15, -1.224646799147353454E-16 ) ) ;
#153 = DIRECTION ( 'NONE',  ( -1.000000000000000000, 1.224646799147353454E-16, 0.000000000000000000 ) ) ;
#154 = PERSON_AND_ORGANIZATION_ROLE ( 'classification_officer' ) ;
#155 = DATE_AND_TIME ( #156, #31 ) ;
#156 = CALENDAR_DATE ( 2022, 6, 6 ) ;
#157 = TOROIDAL_SURFACE ( 'NONE', #2, 15.00000000000000000, 1.000000000000000444 ) ;
#158 = APPROVAL ( #89, 'UNSPECIFIED' ) ;
#159 = AXIS2_PLACEMENT_3D ( 'NONE', #118, #170, #46 ) ;
#160 = APPROVAL ( #72, 'UNSPECIFIED' ) ;
#161 = UNCERTAINTY_MEASURE_WITH_UNIT (LENGTH_MEASURE( 1.000000000000000082E-05 ), #163, 'distance_accuracy_value', 'NONE');
#162 = CARTESIAN_POINT ( 'NONE',  ( 0.000000000000000000, 0.000000000000000000, -1.224646799147353947E-16 ) ) ;
#163 =( LENGTH_UNIT ( ) NAMED_UNIT ( * ) SI_UNIT ( .MILLI., .METRE. ) );
#164 = EDGE_CURVE ( 'NONE', #17, #150, #142, .T. ) ;
#165 = DIRECTION ( 'NONE',  ( -0.000000000000000000, -0.000000000000000000, 1.000000000000000000 ) ) ;
#166 = DIRECTION ( 'NONE',  ( 0.000000000000000000, 0.000000000000000000, 1.000000000000000000 ) ) ;
#167 = SECURITY_CLASSIFICATION ( '', '', #56 ) ;
#168 = DIRECTION ( 'NONE',  ( 1.000000000000000000, 0.000000000000000000, 0.000000000000000000 ) ) ;
#169 = LOCAL_TIME ( 14, 54, 42.00000000000000000, #120 ) ;
#170 = DIRECTION ( 'NONE',  ( -0.000000000000000000, -0.000000000000000000, 1.000000000000000000 ) ) ;
#171 = PERSON_AND_ORGANIZATION_ROLE ( 'design_supplier' ) ;
#172 = AXIS2_PLACEMENT_3D ( 'NONE', #67, #86, #153 ) ;
#173 = ADVANCED_FACE ( 'NONE', ( #151 ), #136, .T. ) ;
#174 = PERSON_AND_ORGANIZATION ( #54, #59 ) ;
#175 = APPROVAL_DATE_TIME ( #190, #160 ) ;
#176 = AXIS2_PLACEMENT_3D ( 'NONE', #101, #100, #126 ) ;
#177 = LOCAL_TIME ( 14, 54, 42.00000000000000000, #141 ) ;
#178 = ORIENTED_EDGE ( 'NONE', *, *, #53, .T. ) ;
#179 = AXIS2_PLACEMENT_3D ( 'NONE', #83, #137, #116 ) ;
#180 = PRODUCT_DEFINITION ( 'UNKNOWN', '', #98, #96 ) ;
#181 = CARTESIAN_POINT ( 'NONE',  ( 0.000000000000000000, 0.000000000000000000, 0.000000000000000000 ) ) ;
#182 =( NAMED_UNIT ( * ) PLANE_ANGLE_UNIT ( ) SI_UNIT ( $, .RADIAN. ) );
#183 = CIRCLE ( 'NONE', #45, 13.99999999999999822 ) ;
#184 = FACE_OUTER_BOUND ( 'NONE', #3, .T. ) ;
#185 = CARTESIAN_POINT ( 'NONE',  ( 16.00000000000000000, 0.000000000000000000, 0.000000000000000000 ) ) ;
#186 = CC_DESIGN_DATE_AND_TIME_ASSIGNMENT ( #71, #27, ( #180 ) ) ;
#187 = COORDINATED_UNIVERSAL_TIME_OFFSET ( 6, 0, .BEHIND. ) ;
#188 = CIRCLE ( 'NONE', #81, 1.000000000000000888 ) ;
#189 = CC_DESIGN_SECURITY_CLASSIFICATION ( #167, ( #98 ) ) ;
#190 = DATE_AND_TIME ( #131, #169 ) ;
#191 = PERSON_AND_ORGANIZATION ( #54, #59 ) ;
#192 = AXIS2_PLACEMENT_3D ( 'NONE', #104, #127, #168 ) ;
#193 = ORIENTED_EDGE ( 'NONE', *, *, #164, .F. ) ;
ENDSEC;
END-ISO-10303-21;
