ISO-10303-21;
HEADER;
FILE_DESCRIPTION (( 'STEP AP203' ),
    '1' );
FILE_NAME ('228-2500-1225.step',
    '2022-06-06T19:02:54',
    ( '' ),
    ( '' ),
    'SwSTEP 2.0',
    'SolidWorks 2021',
    '' );
FILE_SCHEMA (( 'CONFIG_CONTROL_DESIGN' ));
ENDSEC;

DATA;
#1 = CARTESIAN_POINT ( 'NONE',  ( 0.000000000000000000, 0.000000000000000000, -0.9999999999999997780 ) ) ;
#2 = ADVANCED_FACE ( 'NONE', ( #107 ), #89, .F. ) ;
#3 = CARTESIAN_POINT ( 'NONE',  ( -14.00000000000000000, 1.714505518806294638E-15, 0.000000000000000000 ) ) ;
#4 = CARTESIAN_POINT ( 'NONE',  ( 14.00000000000000000, 0.000000000000000000, 0.9999999999999997780 ) ) ;
#5 = DIRECTION ( 'NONE',  ( 1.000000000000000000, 0.000000000000000000, 0.000000000000000000 ) ) ;
#6 = FACE_BOUND ( 'NONE', #182, .T. ) ;
#7 = PRODUCT ( '228-2500-1225', '228-2500-1225', '', ( #162 ) ) ;
#8 = CARTESIAN_POINT ( 'NONE',  ( 0.000000000000000000, 0.000000000000000000, 0.000000000000000000 ) ) ;
#9 = APPROVAL_STATUS ( 'not_yet_approved' ) ;
#10 = FACE_OUTER_BOUND ( 'NONE', #135, .T. ) ;
#11 = CYLINDRICAL_SURFACE ( 'NONE', #22, 16.00000000000000000 ) ;
#12 = CARTESIAN_POINT ( 'NONE',  ( 0.000000000000000000, 0.000000000000000000, 0.000000000000000000 ) ) ;
#13 = EDGE_LOOP ( 'NONE', ( #208, #88, #189, #160 ) ) ;
#14 = ORIENTED_EDGE ( 'NONE', *, *, #176, .T. ) ;
#15 = VECTOR ( 'NONE', #48, 1000.000000000000000 ) ;
#16 = VECTOR ( 'NONE', #105, 1000.000000000000000 ) ;
#17 = ORIENTED_EDGE ( 'NONE', *, *, #242, .T. ) ;
#18 = APPROVAL_DATE_TIME ( #103, #179 ) ;
#19 = PERSON_AND_ORGANIZATION ( #30, #98 ) ;
#20 = EDGE_CURVE ( 'NONE', #187, #90, #178, .T. ) ;
#21 = DIRECTION ( 'NONE',  ( -0.000000000000000000, -0.000000000000000000, 1.000000000000000000 ) ) ;
#22 = AXIS2_PLACEMENT_3D ( 'NONE', #112, #186, #141 ) ;
#23 = CIRCLE ( 'NONE', #233, 14.00000000000000000 ) ;
#24 = CARTESIAN_POINT ( 'NONE',  ( 0.000000000000000000, 0.000000000000000000, 0.9999999999999997780 ) ) ;
#25 = EDGE_LOOP ( 'NONE', ( #211, #236 ) ) ;
#26 = CC_DESIGN_PERSON_AND_ORGANIZATION_ASSIGNMENT ( #59, #206, ( #212 ) ) ;
#27 = ORIENTED_EDGE ( 'NONE', *, *, #70, .T. ) ;
#28 = VECTOR ( 'NONE', #55, 1000.000000000000000 ) ;
#29 = DIRECTION ( 'NONE',  ( 1.000000000000000000, 0.000000000000000000, 0.000000000000000000 ) ) ;
#30 = PERSON ( 'UNSPECIFIED', 'UNSPECIFIED', 'UNSPECIFIED', ('UNSPECIFIED'), ('UNSPECIFIED'), ('UNSPECIFIED') ) ;
#31 = PERSON_AND_ORGANIZATION_ROLE ( 'design_owner' ) ;
#32 = AXIS2_PLACEMENT_3D ( 'NONE', #121, #210, #123 ) ;
#33 = CARTESIAN_POINT ( 'NONE',  ( 14.00000000000000000, 0.000000000000000000, 0.000000000000000000 ) ) ;
#34 = EDGE_CURVE ( 'NONE', #138, #122, #183, .T. ) ;
#35 = CARTESIAN_POINT ( 'NONE',  ( 0.000000000000000000, 14.00000000000000000, 1.000000000000000000 ) ) ;
#36 = CC_DESIGN_PERSON_AND_ORGANIZATION_ASSIGNMENT ( #19, #60, ( #212 ) ) ;
#37 = APPROVAL_DATE_TIME ( #193, #126 ) ;
#38 = AXIS2_PLACEMENT_3D ( 'NONE', #137, #181, #29 ) ;
#39 = ADVANCED_BREP_SHAPE_REPRESENTATION ( '228-2500-1225', ( #232, #195 ), #61 ) ;
#40 = CALENDAR_DATE ( 2022, 6, 6 ) ;
#41 = APPROVAL ( #175, 'UNSPECIFIED' ) ;
#42 = CARTESIAN_POINT ( 'NONE',  ( 16.00000000000000000, 0.000000000000000000, 1.000000000000000222 ) ) ;
#43 = CARTESIAN_POINT ( 'NONE',  ( 0.000000000000000000, 0.000000000000000000, 1.000000000000000222 ) ) ;
#44 = APPROVAL_PERSON_ORGANIZATION ( #130, #179, #227 ) ;
#45 = EDGE_CURVE ( 'NONE', #90, #58, #163, .T. ) ;
#46 = DIRECTION ( 'NONE',  ( 1.000000000000000000, 0.000000000000000000, 0.000000000000000000 ) ) ;
#47 = EDGE_LOOP ( 'NONE', ( #80, #246 ) ) ;
#48 = DIRECTION ( 'NONE',  ( -0.000000000000000000, -0.000000000000000000, 1.000000000000000000 ) ) ;
#49 = AXIS2_PLACEMENT_3D ( 'NONE', #158, #108, #46 ) ;
#50 = FACE_BOUND ( 'NONE', #83, .T. ) ;
#51 = ADVANCED_FACE ( 'NONE', ( #119, #6 ), #134, .F. ) ;
#52 = DIRECTION ( 'NONE',  ( -0.000000000000000000, -0.000000000000000000, 1.000000000000000000 ) ) ;
#53 = CARTESIAN_POINT ( 'NONE',  ( 0.000000000000000000, 0.000000000000000000, -1.000000000000000000 ) ) ;
#54 = EDGE_CURVE ( 'NONE', #187, #153, #149, .T. ) ;
#55 = DIRECTION ( 'NONE',  ( -0.000000000000000000, -0.000000000000000000, 1.000000000000000000 ) ) ;
#56 = VECTOR ( 'NONE', #21, 1000.000000000000000 ) ;
#57 = COORDINATED_UNIVERSAL_TIME_OFFSET ( 6, 0, .BEHIND. ) ;
#58 = VERTEX_POINT ( 'NONE', #86 ) ;
#59 = PERSON_AND_ORGANIZATION ( #30, #98 ) ;
#60 = PERSON_AND_ORGANIZATION_ROLE ( 'creator' ) ;
#61 =( GEOMETRIC_REPRESENTATION_CONTEXT ( 3 ) GLOBAL_UNCERTAINTY_ASSIGNED_CONTEXT ( ( #219 ) ) GLOBAL_UNIT_ASSIGNED_CONTEXT ( ( #125, #73, #221 ) ) REPRESENTATION_CONTEXT ( 'NONE', 'WORKASPACE' ) );
#62 = EDGE_CURVE ( 'NONE', #58, #90, #161, .T. ) ;
#63 = DIRECTION ( 'NONE',  ( 0.000000000000000000, -0.000000000000000000, 1.000000000000000000 ) ) ;
#64 = DIRECTION ( 'NONE',  ( 1.000000000000000000, 0.000000000000000000, 0.000000000000000000 ) ) ;
#65 = PRODUCT_DEFINITION ( 'UNKNOWN', '', #212, #93 ) ;
#66 = DIRECTION ( 'NONE',  ( -0.000000000000000000, -0.000000000000000000, 1.000000000000000000 ) ) ;
#67 = ORIENTED_EDGE ( 'NONE', *, *, #176, .F. ) ;
#68 = DIRECTION ( 'NONE',  ( -0.000000000000000000, -0.000000000000000000, 1.000000000000000000 ) ) ;
#69 = CARTESIAN_POINT ( 'NONE',  ( 16.00000000000000000, 0.000000000000000000, -0.9999999999999997780 ) ) ;
#70 = EDGE_CURVE ( 'NONE', #153, #58, #215, .T. ) ;
#71 = APPLICATION_PROTOCOL_DEFINITION ( 'international standard', 'config_control_design', 1994, #72 ) ;
#72 = APPLICATION_CONTEXT ( 'configuration controlled 3d designs of mechanical parts and assemblies' ) ;
#73 =( NAMED_UNIT ( * ) PLANE_ANGLE_UNIT ( ) SI_UNIT ( $, .RADIAN. ) );
#74 = DIRECTION ( 'NONE',  ( 0.000000000000000000, 0.000000000000000000, -1.000000000000000000 ) ) ;
#75 = CIRCLE ( 'NONE', #32, 16.00000000000000000 ) ;
#76 = FACE_OUTER_BOUND ( 'NONE', #47, .T. ) ;
#77 = APPROVAL_DATE_TIME ( #169, #41 ) ;
#78 = CALENDAR_DATE ( 2022, 6, 6 ) ;
#79 = EDGE_CURVE ( 'NONE', #153, #187, #75, .T. ) ;
#80 = ORIENTED_EDGE ( 'NONE', *, *, #45, .T. ) ;
#81 = SECURITY_CLASSIFICATION_LEVEL ( 'unclassified' ) ;
#82 = COORDINATED_UNIVERSAL_TIME_OFFSET ( 6, 0, .BEHIND. ) ;
#83 = EDGE_LOOP ( 'NONE', ( #197, #155 ) ) ;
#84 = CLOSED_SHELL ( 'NONE', ( #150, #2, #164, #117, #51, #156 ) ) ;
#85 = CIRCLE ( 'NONE', #237, 14.00000000000000000 ) ;
#86 = CARTESIAN_POINT ( 'NONE',  ( -16.00000000000000000, 1.959434878635765131E-15, 1.000000000000000222 ) ) ;
#87 = DIRECTION ( 'NONE',  ( -0.000000000000000000, -0.000000000000000000, 1.000000000000000000 ) ) ;
#88 = ORIENTED_EDGE ( 'NONE', *, *, #79, .T. ) ;
#89 = CYLINDRICAL_SURFACE ( 'NONE', #49, 14.00000000000000000 ) ;
#90 = VERTEX_POINT ( 'NONE', #42 ) ;
#91 = DIRECTION ( 'NONE',  ( 0.000000000000000000, 0.000000000000000000, 1.000000000000000000 ) ) ;
#92 = AXIS2_PLACEMENT_3D ( 'NONE', #24, #68, #139 ) ;
#93 = DESIGN_CONTEXT ( 'detailed design', #120, 'design' ) ;
#94 = APPROVAL_ROLE ( '' ) ;
#95 = EDGE_CURVE ( 'NONE', #191, #138, #116, .T. ) ;
#96 = FACE_OUTER_BOUND ( 'NONE', #13, .T. ) ;
#97 = DIRECTION ( 'NONE',  ( -0.000000000000000000, -0.000000000000000000, 1.000000000000000000 ) ) ;
#98 = ORGANIZATION ( 'UNSPECIFIED', 'UNSPECIFIED', '' ) ;
#99 = DIRECTION ( 'NONE',  ( -0.000000000000000000, -0.000000000000000000, 1.000000000000000000 ) ) ;
#100 = COORDINATED_UNIVERSAL_TIME_OFFSET ( 6, 0, .BEHIND. ) ;
#101 = LOCAL_TIME ( 14, 2, 54.00000000000000000, #190 ) ;
#102 = CALENDAR_DATE ( 2022, 6, 6 ) ;
#103 = DATE_AND_TIME ( #78, #157 ) ;
#104 = FACE_OUTER_BOUND ( 'NONE', #154, .T. ) ;
#105 = DIRECTION ( 'NONE',  ( -0.000000000000000000, -0.000000000000000000, 1.000000000000000000 ) ) ;
#106 = CARTESIAN_POINT ( 'NONE',  ( 16.00000000000000000, 0.000000000000000000, 0.000000000000000000 ) ) ;
#107 = FACE_OUTER_BOUND ( 'NONE', #200, .T. ) ;
#108 = DIRECTION ( 'NONE',  ( -0.000000000000000000, -0.000000000000000000, 1.000000000000000000 ) ) ;
#109 = APPLICATION_PROTOCOL_DEFINITION ( 'international standard', 'config_control_design', 1994, #120 ) ;
#110 = SECURITY_CLASSIFICATION ( '', '', #81 ) ;
#111 = CARTESIAN_POINT ( 'NONE',  ( -14.00000000000000000, 1.714505518806294638E-15, -1.000000000000000000 ) ) ;
#112 = CARTESIAN_POINT ( 'NONE',  ( 0.000000000000000000, 0.000000000000000000, 0.000000000000000000 ) ) ;
#113 = AXIS2_PLACEMENT_3D ( 'NONE', #196, #63, #5 ) ;
#114 = ORIENTED_EDGE ( 'NONE', *, *, #45, .F. ) ;
#115 = DATE_TIME_ROLE ( 'classification_date' ) ;
#116 = LINE ( 'NONE', #3, #56 ) ;
#117 = ADVANCED_FACE ( 'NONE', ( #104 ), #177, .F. ) ;
#118 = LOCAL_TIME ( 14, 2, 54.00000000000000000, #82 ) ;
#119 = FACE_OUTER_BOUND ( 'NONE', #25, .T. ) ;
#120 = APPLICATION_CONTEXT ( 'configuration controlled 3d designs of mechanical parts and assemblies' ) ;
#121 = CARTESIAN_POINT ( 'NONE',  ( 0.000000000000000000, 0.000000000000000000, -0.9999999999999997780 ) ) ;
#122 = VERTEX_POINT ( 'NONE', #4 ) ;
#123 = DIRECTION ( 'NONE',  ( 1.000000000000000000, 0.000000000000000000, 0.000000000000000000 ) ) ;
#124 = CC_DESIGN_APPROVAL ( #41, ( #110 ) ) ;
#125 =( LENGTH_UNIT ( ) NAMED_UNIT ( * ) SI_UNIT ( .MILLI., .METRE. ) );
#126 = APPROVAL ( #9, 'UNSPECIFIED' ) ;
#127 = CARTESIAN_POINT ( 'NONE',  ( 0.000000000000000000, 0.000000000000000000, 0.9999999999999997780 ) ) ;
#128 = APPROVAL_PERSON_ORGANIZATION ( #133, #41, #247 ) ;
#129 = DIRECTION ( 'NONE',  ( -0.000000000000000000, -0.000000000000000000, 1.000000000000000000 ) ) ;
#130 = PERSON_AND_ORGANIZATION ( #30, #98 ) ;
#131 = DATE_AND_TIME ( #40, #101 ) ;
#132 = AXIS2_PLACEMENT_3D ( 'NONE', #43, #66, #64 ) ;
#133 = PERSON_AND_ORGANIZATION ( #30, #98 ) ;
#134 = PLANE ( 'NONE',  #113 ) ;
#135 = EDGE_LOOP ( 'NONE', ( #248, #27, #114, #225 ) ) ;
#136 = AXIS2_PLACEMENT_3D ( 'NONE', #1, #214, #213 ) ;
#137 = CARTESIAN_POINT ( 'NONE',  ( 0.000000000000000000, 0.000000000000000000, 1.000000000000000222 ) ) ;
#138 = VERTEX_POINT ( 'NONE', #234 ) ;
#139 = DIRECTION ( 'NONE',  ( 1.000000000000000000, 0.000000000000000000, 0.000000000000000000 ) ) ;
#140 = CC_DESIGN_SECURITY_CLASSIFICATION ( #110, ( #212 ) ) ;
#141 = DIRECTION ( 'NONE',  ( 1.000000000000000000, 0.000000000000000000, 0.000000000000000000 ) ) ;
#142 = PLANE ( 'NONE',  #240 ) ;
#143 = DIRECTION ( 'NONE',  ( 1.000000000000000000, 0.000000000000000000, 0.000000000000000000 ) ) ;
#144 = CIRCLE ( 'NONE', #216, 14.00000000000000000 ) ;
#145 = CC_DESIGN_DATE_AND_TIME_ASSIGNMENT ( #131, #115, ( #110 ) ) ;
#146 = SHAPE_DEFINITION_REPRESENTATION ( #147, #39 ) ;
#147 = PRODUCT_DEFINITION_SHAPE ( 'NONE', 'NONE',  #65 ) ;
#148 = CALENDAR_DATE ( 2022, 6, 6 ) ;
#149 = CIRCLE ( 'NONE', #136, 16.00000000000000000 ) ;
#150 = ADVANCED_FACE ( 'NONE', ( #10 ), #11, .T. ) ;
#151 = ORIENTED_EDGE ( 'NONE', *, *, #34, .T. ) ;
#152 = APPROVAL_STATUS ( 'not_yet_approved' ) ;
#153 = VERTEX_POINT ( 'NONE', #167 ) ;
#154 = EDGE_LOOP ( 'NONE', ( #245, #67, #198, #17 ) ) ;
#155 = ORIENTED_EDGE ( 'NONE', *, *, #34, .F. ) ;
#156 = ADVANCED_FACE ( 'NONE', ( #96 ), #239, .T. ) ;
#157 = LOCAL_TIME ( 14, 2, 54.00000000000000000, #57 ) ;
#158 = CARTESIAN_POINT ( 'NONE',  ( 0.000000000000000000, 0.000000000000000000, 0.000000000000000000 ) ) ;
#159 = ORIENTED_EDGE ( 'NONE', *, *, #171, .T. ) ;
#160 = ORIENTED_EDGE ( 'NONE', *, *, #62, .F. ) ;
#161 = CIRCLE ( 'NONE', #38, 16.00000000000000000 ) ;
#162 = MECHANICAL_CONTEXT ( 'NONE', #72, 'mechanical' ) ;
#163 = CIRCLE ( 'NONE', #132, 16.00000000000000000 ) ;
#164 = ADVANCED_FACE ( 'NONE', ( #50, #76 ), #142, .F. ) ;
#165 = CARTESIAN_POINT ( 'NONE',  ( 14.00000000000000000, 0.000000000000000000, -1.000000000000000000 ) ) ;
#166 = DIRECTION ( 'NONE',  ( 1.000000000000000000, 0.000000000000000000, 0.000000000000000000 ) ) ;
#167 = CARTESIAN_POINT ( 'NONE',  ( -16.00000000000000000, 1.959434878635765131E-15, -0.9999999999999997780 ) ) ;
#168 = AXIS2_PLACEMENT_3D ( 'NONE', #180, #87, #231 ) ;
#169 = DATE_AND_TIME ( #148, #249 ) ;
#170 = PERSON_AND_ORGANIZATION_ROLE ( 'creator' ) ;
#171 = EDGE_CURVE ( 'NONE', #191, #173, #23, .T. ) ;
#172 = PERSON_AND_ORGANIZATION ( #30, #98 ) ;
#173 = VERTEX_POINT ( 'NONE', #165 ) ;
#174 = PERSON_AND_ORGANIZATION_ROLE ( 'classification_officer' ) ;
#175 = APPROVAL_STATUS ( 'not_yet_approved' ) ;
#176 = EDGE_CURVE ( 'NONE', #173, #191, #85, .T. ) ;
#177 = CYLINDRICAL_SURFACE ( 'NONE', #168, 14.00000000000000000 ) ;
#178 = LINE ( 'NONE', #106, #15 ) ;
#179 = APPROVAL ( #152, 'UNSPECIFIED' ) ;
#180 = CARTESIAN_POINT ( 'NONE',  ( 0.000000000000000000, 0.000000000000000000, 0.000000000000000000 ) ) ;
#181 = DIRECTION ( 'NONE',  ( -0.000000000000000000, -0.000000000000000000, 1.000000000000000000 ) ) ;
#182 = EDGE_LOOP ( 'NONE', ( #14, #159 ) ) ;
#183 = CIRCLE ( 'NONE', #92, 14.00000000000000000 ) ;
#184 = PERSON_AND_ORGANIZATION ( #30, #98 ) ;
#185 = DIRECTION ( 'NONE',  ( 1.000000000000000000, 0.000000000000000000, 0.000000000000000000 ) ) ;
#186 = DIRECTION ( 'NONE',  ( -0.000000000000000000, -0.000000000000000000, 1.000000000000000000 ) ) ;
#187 = VERTEX_POINT ( 'NONE', #69 ) ;
#188 = DATE_AND_TIME ( #222, #118 ) ;
#189 = ORIENTED_EDGE ( 'NONE', *, *, #20, .T. ) ;
#190 = COORDINATED_UNIVERSAL_TIME_OFFSET ( 6, 0, .BEHIND. ) ;
#191 = VERTEX_POINT ( 'NONE', #111 ) ;
#192 = CC_DESIGN_DATE_AND_TIME_ASSIGNMENT ( #188, #243, ( #65 ) ) ;
#193 = DATE_AND_TIME ( #102, #202 ) ;
#194 = CARTESIAN_POINT ( 'NONE',  ( -16.00000000000000000, 1.959434878635765131E-15, 0.000000000000000000 ) ) ;
#195 = AXIS2_PLACEMENT_3D ( 'NONE', #8, #91, #238 ) ;
#196 = CARTESIAN_POINT ( 'NONE',  ( 0.000000000000000000, 14.00000000000000000, -1.000000000000000000 ) ) ;
#197 = ORIENTED_EDGE ( 'NONE', *, *, #242, .F. ) ;
#198 = ORIENTED_EDGE ( 'NONE', *, *, #205, .T. ) ;
#199 = APPROVAL_PERSON_ORGANIZATION ( #184, #126, #94 ) ;
#200 = EDGE_LOOP ( 'NONE', ( #224, #207, #151, #229 ) ) ;
#201 = PERSON_AND_ORGANIZATION ( #30, #98 ) ;
#202 = LOCAL_TIME ( 14, 2, 54.00000000000000000, #100 ) ;
#203 = CARTESIAN_POINT ( 'NONE',  ( 0.000000000000000000, 0.000000000000000000, -1.000000000000000000 ) ) ;
#204 = LINE ( 'NONE', #33, #28 ) ;
#205 = EDGE_CURVE ( 'NONE', #173, #122, #204, .T. ) ;
#206 = PERSON_AND_ORGANIZATION_ROLE ( 'design_supplier' ) ;
#207 = ORIENTED_EDGE ( 'NONE', *, *, #95, .T. ) ;
#208 = ORIENTED_EDGE ( 'NONE', *, *, #70, .F. ) ;
#209 = PERSON_AND_ORGANIZATION ( #30, #98 ) ;
#210 = DIRECTION ( 'NONE',  ( -0.000000000000000000, -0.000000000000000000, 1.000000000000000000 ) ) ;
#211 = ORIENTED_EDGE ( 'NONE', *, *, #54, .F. ) ;
#212 = PRODUCT_DEFINITION_FORMATION_WITH_SPECIFIED_SOURCE ( 'ANY', '', #7, .NOT_KNOWN. ) ;
#213 = DIRECTION ( 'NONE',  ( 1.000000000000000000, 0.000000000000000000, 0.000000000000000000 ) ) ;
#214 = DIRECTION ( 'NONE',  ( -0.000000000000000000, -0.000000000000000000, 1.000000000000000000 ) ) ;
#215 = LINE ( 'NONE', #194, #16 ) ;
#216 = AXIS2_PLACEMENT_3D ( 'NONE', #127, #99, #220 ) ;
#217 = CC_DESIGN_PERSON_AND_ORGANIZATION_ASSIGNMENT ( #172, #170, ( #65 ) ) ;
#218 = DIRECTION ( 'NONE',  ( -1.000000000000000000, 0.000000000000000000, -0.000000000000000000 ) ) ;
#219 = UNCERTAINTY_MEASURE_WITH_UNIT (LENGTH_MEASURE( 1.000000000000000082E-05 ), #125, 'distance_accuracy_value', 'NONE');
#220 = DIRECTION ( 'NONE',  ( 1.000000000000000000, 0.000000000000000000, 0.000000000000000000 ) ) ;
#221 =( NAMED_UNIT ( * ) SI_UNIT ( $, .STERADIAN. ) SOLID_ANGLE_UNIT ( ) );
#222 = CALENDAR_DATE ( 2022, 6, 6 ) ;
#223 = CC_DESIGN_APPROVAL ( #126, ( #65 ) ) ;
#224 = ORIENTED_EDGE ( 'NONE', *, *, #171, .F. ) ;
#225 = ORIENTED_EDGE ( 'NONE', *, *, #20, .F. ) ;
#226 = PRODUCT_RELATED_PRODUCT_CATEGORY ( 'detail', '', ( #7 ) ) ;
#227 = APPROVAL_ROLE ( '' ) ;
#228 = CC_DESIGN_APPROVAL ( #179, ( #212 ) ) ;
#229 = ORIENTED_EDGE ( 'NONE', *, *, #205, .F. ) ;
#230 = CC_DESIGN_PERSON_AND_ORGANIZATION_ASSIGNMENT ( #201, #31, ( #7 ) ) ;
#231 = DIRECTION ( 'NONE',  ( 1.000000000000000000, 0.000000000000000000, 0.000000000000000000 ) ) ;
#232 = MANIFOLD_SOLID_BREP ( '228-2500-1225', #84 ) ;
#233 = AXIS2_PLACEMENT_3D ( 'NONE', #203, #97, #166 ) ;
#234 = CARTESIAN_POINT ( 'NONE',  ( -14.00000000000000000, 1.714505518806294638E-15, 0.9999999999999997780 ) ) ;
#235 = CC_DESIGN_PERSON_AND_ORGANIZATION_ASSIGNMENT ( #209, #174, ( #110 ) ) ;
#236 = ORIENTED_EDGE ( 'NONE', *, *, #79, .F. ) ;
#237 = AXIS2_PLACEMENT_3D ( 'NONE', #53, #52, #143 ) ;
#238 = DIRECTION ( 'NONE',  ( 1.000000000000000000, 0.000000000000000000, 0.000000000000000000 ) ) ;
#239 = CYLINDRICAL_SURFACE ( 'NONE', #244, 16.00000000000000000 ) ;
#240 = AXIS2_PLACEMENT_3D ( 'NONE', #35, #74, #218 ) ;
#241 = COORDINATED_UNIVERSAL_TIME_OFFSET ( 6, 0, .BEHIND. ) ;
#242 = EDGE_CURVE ( 'NONE', #122, #138, #144, .T. ) ;
#243 = DATE_TIME_ROLE ( 'creation_date' ) ;
#244 = AXIS2_PLACEMENT_3D ( 'NONE', #12, #129, #185 ) ;
#245 = ORIENTED_EDGE ( 'NONE', *, *, #95, .F. ) ;
#246 = ORIENTED_EDGE ( 'NONE', *, *, #62, .T. ) ;
#247 = APPROVAL_ROLE ( '' ) ;
#248 = ORIENTED_EDGE ( 'NONE', *, *, #54, .T. ) ;
#249 = LOCAL_TIME ( 14, 2, 54.00000000000000000, #241 ) ;
ENDSEC;
END-ISO-10303-21;
