ISO-10303-21;
HEADER;
FILE_DESCRIPTION (( 'STEP AP203' ),
    '1' );
FILE_NAME ('228-2500-222.step',
    '2022-06-06T19:55:03',
    ( '' ),
    ( '' ),
    'SwSTEP 2.0',
    'SolidWorks 2021',
    '' );
FILE_SCHEMA (( 'CONFIG_CONTROL_DESIGN' ));
ENDSEC;

DATA;
#1 = DIRECTION ( 'NONE',  ( -0.000000000000000000, -0.000000000000000000, 1.000000000000000000 ) ) ;
#2 = DATE_AND_TIME ( #165, #140 ) ;
#3 = APPROVAL_STATUS ( 'not_yet_approved' ) ;
#4 = COORDINATED_UNIVERSAL_TIME_OFFSET ( 6, 0, .BEHIND. ) ;
#5 = DATE_AND_TIME ( #76, #173 ) ;
#6 = CC_DESIGN_DATE_AND_TIME_ASSIGNMENT ( #31, #182, ( #109 ) ) ;
#7 = FACE_OUTER_BOUND ( 'NONE', #114, .T. ) ;
#8 = DIRECTION ( 'NONE',  ( 1.224646799147353207E-16, 1.000000000000000000, 0.000000000000000000 ) ) ;
#9 = CARTESIAN_POINT ( 'NONE',  ( 20.00000000000000000, 0.000000000000000000, 0.000000000000000000 ) ) ;
#10 = DIRECTION ( 'NONE',  ( 1.000000000000000000, 0.000000000000000000, 0.000000000000000000 ) ) ;
#11 = CC_DESIGN_PERSON_AND_ORGANIZATION_ASSIGNMENT ( #94, #181, ( #109 ) ) ;
#12 = PERSON_AND_ORGANIZATION ( #175, #14 ) ;
#13 = AXIS2_PLACEMENT_3D ( 'NONE', #9, #128, #56 ) ;
#14 = ORGANIZATION ( 'UNSPECIFIED', 'UNSPECIFIED', '' ) ;
#15 = PERSON_AND_ORGANIZATION_ROLE ( 'design_supplier' ) ;
#16 = DATE_TIME_ROLE ( 'creation_date' ) ;
#17 = TOROIDAL_SURFACE ( 'NONE', #107, 20.00000000000000000, 1.000000000000000666 ) ;
#18 = APPROVAL_DATE_TIME ( #132, #97 ) ;
#19 = ORIENTED_EDGE ( 'NONE', *, *, #157, .F. ) ;
#20 = APPLICATION_CONTEXT ( 'configuration controlled 3d designs of mechanical parts and assemblies' ) ;
#21 = CC_DESIGN_APPROVAL ( #110, ( #109 ) ) ;
#22 = ORIENTED_EDGE ( 'NONE', *, *, #190, .F. ) ;
#23 = CLOSED_SHELL ( 'NONE', ( #50, #43, #146, #129 ) ) ;
#24 = APPLICATION_PROTOCOL_DEFINITION ( 'international standard', 'config_control_design', 1994, #20 ) ;
#25 = CARTESIAN_POINT ( 'NONE',  ( 19.00000000000000000, 0.000000000000000000, -1.224646799147353947E-16 ) ) ;
#26 = CC_DESIGN_PERSON_AND_ORGANIZATION_ASSIGNMENT ( #49, #80, ( #79 ) ) ;
#27 = CARTESIAN_POINT ( 'NONE',  ( 21.00000000000000000, 0.000000000000000000, 0.000000000000000000 ) ) ;
#28 = DIRECTION ( 'NONE',  ( 1.000000000000000000, 0.000000000000000000, 0.000000000000000000 ) ) ;
#29 = TOROIDAL_SURFACE ( 'NONE', #82, 20.00000000000000000, 1.000000000000000666 ) ;
#30 = DIRECTION ( 'NONE',  ( 1.224646799147353207E-16, 1.000000000000000000, 0.000000000000000000 ) ) ;
#31 = DATE_AND_TIME ( #75, #167 ) ;
#32 = AXIS2_PLACEMENT_3D ( 'NONE', #62, #184, #63 ) ;
#33 = APPROVAL_DATE_TIME ( #5, #110 ) ;
#34 = EDGE_CURVE ( 'NONE', #171, #98, #51, .T. ) ;
#35 = COORDINATED_UNIVERSAL_TIME_OFFSET ( 6, 0, .BEHIND. ) ;
#36 = PERSON_AND_ORGANIZATION ( #175, #14 ) ;
#37 = TOROIDAL_SURFACE ( 'NONE', #188, 20.00000000000000000, 1.000000000000000666 ) ;
#38 = ORIENTED_EDGE ( 'NONE', *, *, #157, .T. ) ;
#39 = ORIENTED_EDGE ( 'NONE', *, *, #113, .T. ) ;
#40 = APPROVAL_PERSON_ORGANIZATION ( #12, #97, #185 ) ;
#41 = DIRECTION ( 'NONE',  ( -0.000000000000000000, -0.000000000000000000, 1.000000000000000000 ) ) ;
#42 = DIRECTION ( 'NONE',  ( -1.000000000000000000, 1.224646799147353454E-16, 0.000000000000000000 ) ) ;
#43 = ADVANCED_FACE ( 'NONE', ( #66 ), #29, .T. ) ;
#44 = CARTESIAN_POINT ( 'NONE',  ( 0.000000000000000000, 0.000000000000000000, 0.000000000000000000 ) ) ;
#45 = DIRECTION ( 'NONE',  ( -0.000000000000000000, -0.000000000000000000, 1.000000000000000000 ) ) ;
#46 = CALENDAR_DATE ( 2022, 6, 6 ) ;
#47 = CIRCLE ( 'NONE', #120, 19.00000000000000000 ) ;
#48 = PERSON_AND_ORGANIZATION_ROLE ( 'design_owner' ) ;
#49 = PERSON_AND_ORGANIZATION ( #175, #14 ) ;
#50 = ADVANCED_FACE ( 'NONE', ( #163 ), #37, .T. ) ;
#51 = CIRCLE ( 'NONE', #72, 21.00000000000000000 ) ;
#52 = ORIENTED_EDGE ( 'NONE', *, *, #34, .F. ) ;
#53 = CC_DESIGN_PERSON_AND_ORGANIZATION_ASSIGNMENT ( #111, #15, ( #79 ) ) ;
#54 =( GEOMETRIC_REPRESENTATION_CONTEXT ( 3 ) GLOBAL_UNCERTAINTY_ASSIGNED_CONTEXT ( ( #93 ) ) GLOBAL_UNIT_ASSIGNED_CONTEXT ( ( #177, #162, #143 ) ) REPRESENTATION_CONTEXT ( 'NONE', 'WORKASPACE' ) );
#55 = ORIENTED_EDGE ( 'NONE', *, *, #160, .F. ) ;
#56 = DIRECTION ( 'NONE',  ( 0.000000000000000000, 0.000000000000000000, -1.000000000000000000 ) ) ;
#57 = CARTESIAN_POINT ( 'NONE',  ( 0.000000000000000000, 0.000000000000000000, 0.000000000000000000 ) ) ;
#58 = DIRECTION ( 'NONE',  ( 0.000000000000000000, -1.000000000000000000, 0.000000000000000000 ) ) ;
#59 = DIRECTION ( 'NONE',  ( -0.000000000000000000, -0.000000000000000000, 1.000000000000000000 ) ) ;
#60 = ADVANCED_BREP_SHAPE_REPRESENTATION ( '228-2500-222', ( #92, #32 ), #54 ) ;
#61 = MECHANICAL_CONTEXT ( 'NONE', #20, 'mechanical' ) ;
#62 = CARTESIAN_POINT ( 'NONE',  ( 0.000000000000000000, 0.000000000000000000, 0.000000000000000000 ) ) ;
#63 = DIRECTION ( 'NONE',  ( 1.000000000000000000, 0.000000000000000000, 0.000000000000000000 ) ) ;
#64 = EDGE_LOOP ( 'NONE', ( #19, #187, #39, #84 ) ) ;
#65 = CIRCLE ( 'NONE', #96, 21.00000000000000000 ) ;
#66 = FACE_OUTER_BOUND ( 'NONE', #172, .T. ) ;
#67 = DIRECTION ( 'NONE',  ( -1.000000000000000000, 1.224646799147353454E-16, 0.000000000000000000 ) ) ;
#68 = AXIS2_PLACEMENT_3D ( 'NONE', #142, #58, #178 ) ;
#69 = CARTESIAN_POINT ( 'NONE',  ( 0.000000000000000000, 0.000000000000000000, 0.000000000000000000 ) ) ;
#70 = EDGE_CURVE ( 'NONE', #171, #100, #159, .T. ) ;
#71 = CARTESIAN_POINT ( 'NONE',  ( 0.000000000000000000, 0.000000000000000000, -1.224646799147354193E-16 ) ) ;
#72 = AXIS2_PLACEMENT_3D ( 'NONE', #139, #41, #116 ) ;
#73 = PERSON_AND_ORGANIZATION_ROLE ( 'creator' ) ;
#74 = CC_DESIGN_PERSON_AND_ORGANIZATION_ASSIGNMENT ( #121, #48, ( #105 ) ) ;
#75 = CALENDAR_DATE ( 2022, 6, 6 ) ;
#76 = CALENDAR_DATE ( 2022, 6, 6 ) ;
#77 = CC_DESIGN_PERSON_AND_ORGANIZATION_ASSIGNMENT ( #36, #73, ( #89 ) ) ;
#78 = PRODUCT_DEFINITION_SHAPE ( 'NONE', 'NONE',  #89 ) ;
#79 = PRODUCT_DEFINITION_FORMATION_WITH_SPECIFIED_SOURCE ( 'ANY', '', #105, .NOT_KNOWN. ) ;
#80 = PERSON_AND_ORGANIZATION_ROLE ( 'creator' ) ;
#81 = ORIENTED_EDGE ( 'NONE', *, *, #103, .T. ) ;
#82 = AXIS2_PLACEMENT_3D ( 'NONE', #193, #119, #118 ) ;
#83 = AXIS2_PLACEMENT_3D ( 'NONE', #87, #8, #67 ) ;
#84 = ORIENTED_EDGE ( 'NONE', *, *, #190, .T. ) ;
#85 = CC_DESIGN_DATE_AND_TIME_ASSIGNMENT ( #2, #16, ( #89 ) ) ;
#86 = FACE_OUTER_BOUND ( 'NONE', #64, .T. ) ;
#87 = CARTESIAN_POINT ( 'NONE',  ( -20.00000000000000000, 2.449293598294706513E-15, 0.000000000000000000 ) ) ;
#88 = CC_DESIGN_APPROVAL ( #97, ( #79 ) ) ;
#89 = PRODUCT_DEFINITION ( 'UNKNOWN', '', #79, #95 ) ;
#90 = APPROVAL ( #168, 'UNSPECIFIED' ) ;
#91 = COORDINATED_UNIVERSAL_TIME_OFFSET ( 6, 0, .BEHIND. ) ;
#92 = MANIFOLD_SOLID_BREP ( '228-2500-222', #23 ) ;
#93 = UNCERTAINTY_MEASURE_WITH_UNIT (LENGTH_MEASURE( 1.000000000000000082E-05 ), #177, 'distance_accuracy_value', 'NONE');
#94 = PERSON_AND_ORGANIZATION ( #175, #14 ) ;
#95 = DESIGN_CONTEXT ( 'detailed design', #136, 'design' ) ;
#96 = AXIS2_PLACEMENT_3D ( 'NONE', #69, #59, #176 ) ;
#97 = APPROVAL ( #123, 'UNSPECIFIED' ) ;
#98 = VERTEX_POINT ( 'NONE', #27 ) ;
#99 = PRODUCT_RELATED_PRODUCT_CATEGORY ( 'detail', '', ( #105 ) ) ;
#100 = VERTEX_POINT ( 'NONE', #117 ) ;
#101 = CARTESIAN_POINT ( 'NONE',  ( -21.00000000000000000, 2.571758278209441661E-15, 0.000000000000000000 ) ) ;
#102 = DIRECTION ( 'NONE',  ( -0.000000000000000000, -0.000000000000000000, 1.000000000000000000 ) ) ;
#103 = EDGE_CURVE ( 'NONE', #98, #126, #149, .T. ) ;
#104 = CIRCLE ( 'NONE', #124, 19.00000000000000000 ) ;
#105 = PRODUCT ( '228-2500-222', '228-2500-222', '', ( #61 ) ) ;
#106 = APPROVAL_DATE_TIME ( #153, #90 ) ;
#107 = AXIS2_PLACEMENT_3D ( 'NONE', #141, #45, #10 ) ;
#108 = SECURITY_CLASSIFICATION_LEVEL ( 'unclassified' ) ;
#109 = SECURITY_CLASSIFICATION ( '', '', #108 ) ;
#110 = APPROVAL ( #3, 'UNSPECIFIED' ) ;
#111 = PERSON_AND_ORGANIZATION ( #175, #14 ) ;
#112 = APPROVAL_PERSON_ORGANIZATION ( #148, #110, #151 ) ;
#113 = EDGE_CURVE ( 'NONE', #126, #100, #104, .T. ) ;
#114 = EDGE_LOOP ( 'NONE', ( #52, #22, #189, #138 ) ) ;
#115 = EDGE_LOOP ( 'NONE', ( #137, #158, #81, #55 ) ) ;
#116 = DIRECTION ( 'NONE',  ( 1.000000000000000000, 0.000000000000000000, 0.000000000000000000 ) ) ;
#117 = CARTESIAN_POINT ( 'NONE',  ( -19.00000000000000000, 2.326828918379970970E-15, -1.224646799147353947E-16 ) ) ;
#118 = DIRECTION ( 'NONE',  ( 1.000000000000000000, 0.000000000000000000, 0.000000000000000000 ) ) ;
#119 = DIRECTION ( 'NONE',  ( -0.000000000000000000, -0.000000000000000000, 1.000000000000000000 ) ) ;
#120 = AXIS2_PLACEMENT_3D ( 'NONE', #71, #131, #28 ) ;
#121 = PERSON_AND_ORGANIZATION ( #175, #14 ) ;
#122 = PERSON_AND_ORGANIZATION ( #175, #14 ) ;
#123 = APPROVAL_STATUS ( 'not_yet_approved' ) ;
#124 = AXIS2_PLACEMENT_3D ( 'NONE', #145, #161, #147 ) ;
#125 = ORIENTED_EDGE ( 'NONE', *, *, #70, .T. ) ;
#126 = VERTEX_POINT ( 'NONE', #25 ) ;
#127 = APPROVAL_PERSON_ORGANIZATION ( #122, #90, #150 ) ;
#128 = DIRECTION ( 'NONE',  ( 0.000000000000000000, -1.000000000000000000, 0.000000000000000000 ) ) ;
#129 = ADVANCED_FACE ( 'NONE', ( #7 ), #192, .T. ) ;
#130 = LOCAL_TIME ( 14, 55, 3.000000000000000000, #35 ) ;
#131 = DIRECTION ( 'NONE',  ( -0.000000000000000000, -0.000000000000000000, 1.000000000000000000 ) ) ;
#132 = DATE_AND_TIME ( #166, #130 ) ;
#133 = SHAPE_DEFINITION_REPRESENTATION ( #78, #60 ) ;
#134 = AXIS2_PLACEMENT_3D ( 'NONE', #179, #30, #42 ) ;
#135 = COORDINATED_UNIVERSAL_TIME_OFFSET ( 6, 0, .BEHIND. ) ;
#136 = APPLICATION_CONTEXT ( 'configuration controlled 3d designs of mechanical parts and assemblies' ) ;
#137 = ORIENTED_EDGE ( 'NONE', *, *, #70, .F. ) ;
#138 = ORIENTED_EDGE ( 'NONE', *, *, #186, .T. ) ;
#139 = CARTESIAN_POINT ( 'NONE',  ( 0.000000000000000000, 0.000000000000000000, 0.000000000000000000 ) ) ;
#140 = LOCAL_TIME ( 14, 55, 3.000000000000000000, #4 ) ;
#141 = CARTESIAN_POINT ( 'NONE',  ( 0.000000000000000000, 0.000000000000000000, 0.000000000000000000 ) ) ;
#142 = CARTESIAN_POINT ( 'NONE',  ( 20.00000000000000000, 0.000000000000000000, 0.000000000000000000 ) ) ;
#143 =( NAMED_UNIT ( * ) SI_UNIT ( $, .STERADIAN. ) SOLID_ANGLE_UNIT ( ) );
#144 = LOCAL_TIME ( 14, 55, 3.000000000000000000, #170 ) ;
#145 = CARTESIAN_POINT ( 'NONE',  ( 0.000000000000000000, 0.000000000000000000, -1.224646799147354193E-16 ) ) ;
#146 = ADVANCED_FACE ( 'NONE', ( #86 ), #17, .T. ) ;
#147 = DIRECTION ( 'NONE',  ( 1.000000000000000000, 0.000000000000000000, 0.000000000000000000 ) ) ;
#148 = PERSON_AND_ORGANIZATION ( #175, #14 ) ;
#149 = CIRCLE ( 'NONE', #13, 1.000000000000000666 ) ;
#150 = APPROVAL_ROLE ( '' ) ;
#151 = APPROVAL_ROLE ( '' ) ;
#152 = AXIS2_PLACEMENT_3D ( 'NONE', #44, #1, #191 ) ;
#153 = DATE_AND_TIME ( #46, #144 ) ;
#154 = CC_DESIGN_SECURITY_CLASSIFICATION ( #109, ( #79 ) ) ;
#155 = ORIENTED_EDGE ( 'NONE', *, *, #103, .F. ) ;
#156 = CIRCLE ( 'NONE', #68, 1.000000000000000666 ) ;
#157 = EDGE_CURVE ( 'NONE', #98, #171, #65, .T. ) ;
#158 = ORIENTED_EDGE ( 'NONE', *, *, #34, .T. ) ;
#159 = CIRCLE ( 'NONE', #134, 1.000000000000000888 ) ;
#160 = EDGE_CURVE ( 'NONE', #100, #126, #47, .T. ) ;
#161 = DIRECTION ( 'NONE',  ( -0.000000000000000000, -0.000000000000000000, 1.000000000000000000 ) ) ;
#162 =( NAMED_UNIT ( * ) PLANE_ANGLE_UNIT ( ) SI_UNIT ( $, .RADIAN. ) );
#163 = FACE_OUTER_BOUND ( 'NONE', #115, .T. ) ;
#164 = DIRECTION ( 'NONE',  ( 1.000000000000000000, 0.000000000000000000, 0.000000000000000000 ) ) ;
#165 = CALENDAR_DATE ( 2022, 6, 6 ) ;
#166 = CALENDAR_DATE ( 2022, 6, 6 ) ;
#167 = LOCAL_TIME ( 14, 55, 3.000000000000000000, #135 ) ;
#168 = APPROVAL_STATUS ( 'not_yet_approved' ) ;
#169 = APPLICATION_PROTOCOL_DEFINITION ( 'international standard', 'config_control_design', 1994, #136 ) ;
#170 = COORDINATED_UNIVERSAL_TIME_OFFSET ( 6, 0, .BEHIND. ) ;
#171 = VERTEX_POINT ( 'NONE', #101 ) ;
#172 = EDGE_LOOP ( 'NONE', ( #155, #38, #125, #174 ) ) ;
#173 = LOCAL_TIME ( 14, 55, 3.000000000000000000, #91 ) ;
#174 = ORIENTED_EDGE ( 'NONE', *, *, #113, .F. ) ;
#175 = PERSON ( 'UNSPECIFIED', 'UNSPECIFIED', 'UNSPECIFIED', ('UNSPECIFIED'), ('UNSPECIFIED'), ('UNSPECIFIED') ) ;
#176 = DIRECTION ( 'NONE',  ( 1.000000000000000000, 0.000000000000000000, 0.000000000000000000 ) ) ;
#177 =( LENGTH_UNIT ( ) NAMED_UNIT ( * ) SI_UNIT ( .MILLI., .METRE. ) );
#178 = DIRECTION ( 'NONE',  ( 0.000000000000000000, 0.000000000000000000, -1.000000000000000000 ) ) ;
#179 = CARTESIAN_POINT ( 'NONE',  ( -20.00000000000000000, 2.449293598294706513E-15, 0.000000000000000000 ) ) ;
#180 = CC_DESIGN_APPROVAL ( #90, ( #89 ) ) ;
#181 = PERSON_AND_ORGANIZATION_ROLE ( 'classification_officer' ) ;
#182 = DATE_TIME_ROLE ( 'classification_date' ) ;
#183 = CIRCLE ( 'NONE', #83, 1.000000000000000888 ) ;
#184 = DIRECTION ( 'NONE',  ( 0.000000000000000000, 0.000000000000000000, 1.000000000000000000 ) ) ;
#185 = APPROVAL_ROLE ( '' ) ;
#186 = EDGE_CURVE ( 'NONE', #126, #98, #156, .T. ) ;
#187 = ORIENTED_EDGE ( 'NONE', *, *, #186, .F. ) ;
#188 = AXIS2_PLACEMENT_3D ( 'NONE', #57, #102, #164 ) ;
#189 = ORIENTED_EDGE ( 'NONE', *, *, #160, .T. ) ;
#190 = EDGE_CURVE ( 'NONE', #100, #171, #183, .T. ) ;
#191 = DIRECTION ( 'NONE',  ( 1.000000000000000000, 0.000000000000000000, 0.000000000000000000 ) ) ;
#192 = TOROIDAL_SURFACE ( 'NONE', #152, 20.00000000000000000, 1.000000000000000666 ) ;
#193 = CARTESIAN_POINT ( 'NONE',  ( 0.000000000000000000, 0.000000000000000000, 0.000000000000000000 ) ) ;
ENDSEC;
END-ISO-10303-21;
