ISO-10303-21;
HEADER;
FILE_DESCRIPTION (( 'STEP AP203' ),
    '1' );
FILE_NAME ('228-2500-223.step',
    '2022-06-06T19:56:18',
    ( '' ),
    ( '' ),
    'SwSTEP 2.0',
    'SolidWorks 2021',
    '' );
FILE_SCHEMA (( 'CONFIG_CONTROL_DESIGN' ));
ENDSEC;

DATA;
#1 = PERSON ( 'UNSPECIFIED', 'UNSPECIFIED', 'UNSPECIFIED', ('UNSPECIFIED'), ('UNSPECIFIED'), ('UNSPECIFIED') ) ;
#2 = AXIS2_PLACEMENT_3D ( 'NONE', #90, #72, #94 ) ;
#3 = EDGE_CURVE ( 'NONE', #11, #86, #60, .T. ) ;
#4 = FACE_OUTER_BOUND ( 'NONE', #26, .T. ) ;
#5 = DIRECTION ( 'NONE',  ( -0.000000000000000000, -0.000000000000000000, 1.000000000000000000 ) ) ;
#6 = DATE_AND_TIME ( #155, #118 ) ;
#7 = PRODUCT_DEFINITION ( 'UNKNOWN', '', #42, #37 ) ;
#8 = COORDINATED_UNIVERSAL_TIME_OFFSET ( 6, 0, .BEHIND. ) ;
#9 = TOROIDAL_SURFACE ( 'NONE', #166, 25.00000000000000000, 1.000000000000000888 ) ;
#10 = PERSON_AND_ORGANIZATION ( #1, #167 ) ;
#11 = VERTEX_POINT ( 'NONE', #32 ) ;
#12 = MANIFOLD_SOLID_BREP ( '228-2500-223', #148 ) ;
#13 = ORIENTED_EDGE ( 'NONE', *, *, #116, .T. ) ;
#14 = LOCAL_TIME ( 14, 56, 18.00000000000000000, #38 ) ;
#15 = CARTESIAN_POINT ( 'NONE',  ( 0.000000000000000000, 0.000000000000000000, 0.000000000000000000 ) ) ;
#16 = DIRECTION ( 'NONE',  ( 1.000000000000000000, 0.000000000000000000, 0.000000000000000000 ) ) ;
#17 = DIRECTION ( 'NONE',  ( 1.000000000000000000, 0.000000000000000000, 0.000000000000000000 ) ) ;
#18 = CARTESIAN_POINT ( 'NONE',  ( 0.000000000000000000, 0.000000000000000000, 0.000000000000000000 ) ) ;
#19 = APPROVAL_STATUS ( 'not_yet_approved' ) ;
#20 = PERSON_AND_ORGANIZATION_ROLE ( 'classification_officer' ) ;
#21 = EDGE_CURVE ( 'NONE', #11, #134, #160, .T. ) ;
#22 = APPROVAL_ROLE ( '' ) ;
#23 = AXIS2_PLACEMENT_3D ( 'NONE', #181, #30, #151 ) ;
#24 = CC_DESIGN_SECURITY_CLASSIFICATION ( #82, ( #42 ) ) ;
#25 = PERSON_AND_ORGANIZATION ( #1, #167 ) ;
#26 = EDGE_LOOP ( 'NONE', ( #69, #146, #117, #178 ) ) ;
#27 = TOROIDAL_SURFACE ( 'NONE', #52, 25.00000000000000000, 1.000000000000000888 ) ;
#28 = PRODUCT ( '228-2500-223', '228-2500-223', '', ( #126 ) ) ;
#29 = CARTESIAN_POINT ( 'NONE',  ( -25.00000000000000000, 3.061616997868383043E-15, 0.000000000000000000 ) ) ;
#30 = DIRECTION ( 'NONE',  ( 0.000000000000000000, -1.000000000000000000, 0.000000000000000000 ) ) ;
#31 = FACE_OUTER_BOUND ( 'NONE', #147, .T. ) ;
#32 = CARTESIAN_POINT ( 'NONE',  ( -26.00000000000000355, 3.184081677783118585E-15, 0.000000000000000000 ) ) ;
#33 = CALENDAR_DATE ( 2022, 6, 6 ) ;
#34 = ADVANCED_FACE ( 'NONE', ( #4 ), #56, .T. ) ;
#35 = SECURITY_CLASSIFICATION_LEVEL ( 'unclassified' ) ;
#36 = DATE_AND_TIME ( #33, #142 ) ;
#37 = DESIGN_CONTEXT ( 'detailed design', #112, 'design' ) ;
#38 = COORDINATED_UNIVERSAL_TIME_OFFSET ( 6, 0, .BEHIND. ) ;
#39 = EDGE_CURVE ( 'NONE', #134, #149, #113, .T. ) ;
#40 = ORIENTED_EDGE ( 'NONE', *, *, #21, .T. ) ;
#41 = DIRECTION ( 'NONE',  ( -0.000000000000000000, -0.000000000000000000, 1.000000000000000000 ) ) ;
#42 = PRODUCT_DEFINITION_FORMATION_WITH_SPECIFIED_SOURCE ( 'ANY', '', #28, .NOT_KNOWN. ) ;
#43 = ORIENTED_EDGE ( 'NONE', *, *, #116, .F. ) ;
#44 = ORIENTED_EDGE ( 'NONE', *, *, #75, .T. ) ;
#45 = AXIS2_PLACEMENT_3D ( 'NONE', #91, #163, #17 ) ;
#46 = CARTESIAN_POINT ( 'NONE',  ( 26.00000000000000355, 0.000000000000000000, 0.000000000000000000 ) ) ;
#47 = EDGE_CURVE ( 'NONE', #86, #149, #176, .T. ) ;
#48 = DIRECTION ( 'NONE',  ( 1.000000000000000000, 0.000000000000000000, 0.000000000000000000 ) ) ;
#49 =( NAMED_UNIT ( * ) SI_UNIT ( $, .STERADIAN. ) SOLID_ANGLE_UNIT ( ) );
#50 = DATE_AND_TIME ( #157, #14 ) ;
#51 = UNCERTAINTY_MEASURE_WITH_UNIT (LENGTH_MEASURE( 1.000000000000000082E-05 ), #144, 'distance_accuracy_value', 'NONE');
#52 = AXIS2_PLACEMENT_3D ( 'NONE', #18, #104, #16 ) ;
#53 = PRODUCT_RELATED_PRODUCT_CATEGORY ( 'detail', '', ( #28 ) ) ;
#54 = APPROVAL_DATE_TIME ( #177, #102 ) ;
#55 = ORIENTED_EDGE ( 'NONE', *, *, #175, .F. ) ;
#56 = TOROIDAL_SURFACE ( 'NONE', #172, 25.00000000000000000, 1.000000000000000888 ) ;
#57 = CC_DESIGN_APPROVAL ( #162, ( #42 ) ) ;
#58 = ORIENTED_EDGE ( 'NONE', *, *, #3, .F. ) ;
#59 = FACE_OUTER_BOUND ( 'NONE', #145, .T. ) ;
#60 = CIRCLE ( 'NONE', #92, 26.00000000000000355 ) ;
#61 = CC_DESIGN_PERSON_AND_ORGANIZATION_ASSIGNMENT ( #171, #173, ( #42 ) ) ;
#62 = CARTESIAN_POINT ( 'NONE',  ( 0.000000000000000000, 0.000000000000000000, -1.224646799147354440E-16 ) ) ;
#63 = APPLICATION_PROTOCOL_DEFINITION ( 'international standard', 'config_control_design', 1994, #87 ) ;
#64 = APPROVAL_DATE_TIME ( #36, #137 ) ;
#65 = APPROVAL_ROLE ( '' ) ;
#66 = AXIS2_PLACEMENT_3D ( 'NONE', #138, #93, #106 ) ;
#67 = PERSON_AND_ORGANIZATION ( #1, #167 ) ;
#68 = CIRCLE ( 'NONE', #85, 24.00000000000000000 ) ;
#69 = ORIENTED_EDGE ( 'NONE', *, *, #21, .F. ) ;
#70 = EDGE_LOOP ( 'NONE', ( #158, #55, #13, #84 ) ) ;
#71 = LOCAL_TIME ( 14, 56, 18.00000000000000000, #128 ) ;
#72 = DIRECTION ( 'NONE',  ( -0.000000000000000000, -0.000000000000000000, 1.000000000000000000 ) ) ;
#73 = ADVANCED_FACE ( 'NONE', ( #107 ), #27, .T. ) ;
#74 = PRODUCT_DEFINITION_SHAPE ( 'NONE', 'NONE',  #7 ) ;
#75 = EDGE_CURVE ( 'NONE', #86, #11, #131, .T. ) ;
#76 = DIRECTION ( 'NONE',  ( 1.000000000000000000, 0.000000000000000000, 0.000000000000000000 ) ) ;
#77 = APPROVAL_ROLE ( '' ) ;
#78 = ADVANCED_BREP_SHAPE_REPRESENTATION ( '228-2500-223', ( #12, #189 ), #103 ) ;
#79 = COORDINATED_UNIVERSAL_TIME_OFFSET ( 6, 0, .BEHIND. ) ;
#80 = CIRCLE ( 'NONE', #23, 1.000000000000000888 ) ;
#81 =( NAMED_UNIT ( * ) PLANE_ANGLE_UNIT ( ) SI_UNIT ( $, .RADIAN. ) );
#82 = SECURITY_CLASSIFICATION ( '', '', #35 ) ;
#83 = APPROVAL_PERSON_ORGANIZATION ( #25, #162, #77 ) ;
#84 = ORIENTED_EDGE ( 'NONE', *, *, #119, .T. ) ;
#85 = AXIS2_PLACEMENT_3D ( 'NONE', #62, #161, #76 ) ;
#86 = VERTEX_POINT ( 'NONE', #46 ) ;
#87 = APPLICATION_CONTEXT ( 'configuration controlled 3d designs of mechanical parts and assemblies' ) ;
#88 = CC_DESIGN_PERSON_AND_ORGANIZATION_ASSIGNMENT ( #96, #20, ( #82 ) ) ;
#89 = CC_DESIGN_APPROVAL ( #137, ( #7 ) ) ;
#90 = CARTESIAN_POINT ( 'NONE',  ( 0.000000000000000000, 0.000000000000000000, -1.224646799147354440E-16 ) ) ;
#91 = CARTESIAN_POINT ( 'NONE',  ( 0.000000000000000000, 0.000000000000000000, 0.000000000000000000 ) ) ;
#92 = AXIS2_PLACEMENT_3D ( 'NONE', #190, #41, #101 ) ;
#93 = DIRECTION ( 'NONE',  ( 1.224646799147353207E-16, 1.000000000000000000, 0.000000000000000000 ) ) ;
#94 = DIRECTION ( 'NONE',  ( 1.000000000000000000, 0.000000000000000000, 0.000000000000000000 ) ) ;
#95 = DATE_TIME_ROLE ( 'creation_date' ) ;
#96 = PERSON_AND_ORGANIZATION ( #1, #167 ) ;
#97 = CC_DESIGN_PERSON_AND_ORGANIZATION_ASSIGNMENT ( #184, #99, ( #7 ) ) ;
#98 = APPROVAL_STATUS ( 'not_yet_approved' ) ;
#99 = PERSON_AND_ORGANIZATION_ROLE ( 'creator' ) ;
#100 = TOROIDAL_SURFACE ( 'NONE', #108, 25.00000000000000000, 1.000000000000000888 ) ;
#101 = DIRECTION ( 'NONE',  ( 1.000000000000000000, 0.000000000000000000, 0.000000000000000000 ) ) ;
#102 = APPROVAL ( #98, 'UNSPECIFIED' ) ;
#103 =( GEOMETRIC_REPRESENTATION_CONTEXT ( 3 ) GLOBAL_UNCERTAINTY_ASSIGNED_CONTEXT ( ( #51 ) ) GLOBAL_UNIT_ASSIGNED_CONTEXT ( ( #144, #81, #49 ) ) REPRESENTATION_CONTEXT ( 'NONE', 'WORKASPACE' ) );
#104 = DIRECTION ( 'NONE',  ( -0.000000000000000000, -0.000000000000000000, 1.000000000000000000 ) ) ;
#105 = DIRECTION ( 'NONE',  ( -0.000000000000000000, -0.000000000000000000, 1.000000000000000000 ) ) ;
#106 = DIRECTION ( 'NONE',  ( -1.000000000000000000, 1.224646799147353454E-16, 0.000000000000000000 ) ) ;
#107 = FACE_OUTER_BOUND ( 'NONE', #70, .T. ) ;
#108 = AXIS2_PLACEMENT_3D ( 'NONE', #182, #154, #165 ) ;
#109 = CARTESIAN_POINT ( 'NONE',  ( 24.00000000000000000, 0.000000000000000000, -1.224646799147354440E-16 ) ) ;
#110 = CARTESIAN_POINT ( 'NONE',  ( 0.000000000000000000, 0.000000000000000000, 0.000000000000000000 ) ) ;
#111 = PERSON_AND_ORGANIZATION ( #1, #167 ) ;
#112 = APPLICATION_CONTEXT ( 'configuration controlled 3d designs of mechanical parts and assemblies' ) ;
#113 = CIRCLE ( 'NONE', #2, 24.00000000000000000 ) ;
#114 = PERSON_AND_ORGANIZATION ( #1, #167 ) ;
#115 = COORDINATED_UNIVERSAL_TIME_OFFSET ( 6, 0, .BEHIND. ) ;
#116 = EDGE_CURVE ( 'NONE', #149, #134, #68, .T. ) ;
#117 = ORIENTED_EDGE ( 'NONE', *, *, #47, .T. ) ;
#118 = LOCAL_TIME ( 14, 56, 18.00000000000000000, #8 ) ;
#119 = EDGE_CURVE ( 'NONE', #134, #11, #191, .T. ) ;
#120 = CARTESIAN_POINT ( 'NONE',  ( -24.00000000000000000, 2.939152317953647894E-15, -1.224646799147354440E-16 ) ) ;
#121 = APPROVAL_PERSON_ORGANIZATION ( #10, #137, #65 ) ;
#122 = CC_DESIGN_PERSON_AND_ORGANIZATION_ASSIGNMENT ( #111, #186, ( #42 ) ) ;
#123 = DIRECTION ( 'NONE',  ( 0.000000000000000000, 0.000000000000000000, -1.000000000000000000 ) ) ;
#124 = APPROVAL_PERSON_ORGANIZATION ( #114, #102, #22 ) ;
#125 = DIRECTION ( 'NONE',  ( 0.000000000000000000, -1.000000000000000000, 0.000000000000000000 ) ) ;
#126 = MECHANICAL_CONTEXT ( 'NONE', #87, 'mechanical' ) ;
#127 = DATE_AND_TIME ( #141, #192 ) ;
#128 = COORDINATED_UNIVERSAL_TIME_OFFSET ( 6, 0, .BEHIND. ) ;
#129 = PERSON_AND_ORGANIZATION_ROLE ( 'design_owner' ) ;
#130 = ADVANCED_FACE ( 'NONE', ( #59 ), #100, .T. ) ;
#131 = CIRCLE ( 'NONE', #45, 26.00000000000000355 ) ;
#132 = CC_DESIGN_APPROVAL ( #102, ( #82 ) ) ;
#133 = ORIENTED_EDGE ( 'NONE', *, *, #39, .T. ) ;
#134 = VERTEX_POINT ( 'NONE', #120 ) ;
#135 = ORIENTED_EDGE ( 'NONE', *, *, #47, .F. ) ;
#136 = ORIENTED_EDGE ( 'NONE', *, *, #175, .T. ) ;
#137 = APPROVAL ( #174, 'UNSPECIFIED' ) ;
#138 = CARTESIAN_POINT ( 'NONE',  ( -25.00000000000000000, 3.061616997868383043E-15, 0.000000000000000000 ) ) ;
#139 = APPROVAL_DATE_TIME ( #50, #162 ) ;
#140 = ADVANCED_FACE ( 'NONE', ( #31 ), #9, .T. ) ;
#141 = CALENDAR_DATE ( 2022, 6, 6 ) ;
#142 = LOCAL_TIME ( 14, 56, 18.00000000000000000, #115 ) ;
#143 = DIRECTION ( 'NONE',  ( 0.000000000000000000, 0.000000000000000000, 1.000000000000000000 ) ) ;
#144 =( LENGTH_UNIT ( ) NAMED_UNIT ( * ) SI_UNIT ( .MILLI., .METRE. ) );
#145 = EDGE_LOOP ( 'NONE', ( #135, #44, #40, #43 ) ) ;
#146 = ORIENTED_EDGE ( 'NONE', *, *, #3, .T. ) ;
#147 = EDGE_LOOP ( 'NONE', ( #58, #180, #133, #136 ) ) ;
#148 = CLOSED_SHELL ( 'NONE', ( #34, #130, #73, #140 ) ) ;
#149 = VERTEX_POINT ( 'NONE', #109 ) ;
#150 = DIRECTION ( 'NONE',  ( -1.000000000000000000, 1.224646799147353454E-16, 0.000000000000000000 ) ) ;
#151 = DIRECTION ( 'NONE',  ( 0.000000000000000000, 0.000000000000000000, -1.000000000000000000 ) ) ;
#152 = CC_DESIGN_DATE_AND_TIME_ASSIGNMENT ( #127, #185, ( #82 ) ) ;
#153 = CARTESIAN_POINT ( 'NONE',  ( 25.00000000000000000, 0.000000000000000000, 0.000000000000000000 ) ) ;
#154 = DIRECTION ( 'NONE',  ( -0.000000000000000000, -0.000000000000000000, 1.000000000000000000 ) ) ;
#155 = CALENDAR_DATE ( 2022, 6, 6 ) ;
#156 = CC_DESIGN_DATE_AND_TIME_ASSIGNMENT ( #6, #95, ( #7 ) ) ;
#157 = CALENDAR_DATE ( 2022, 6, 6 ) ;
#158 = ORIENTED_EDGE ( 'NONE', *, *, #75, .F. ) ;
#159 = AXIS2_PLACEMENT_3D ( 'NONE', #29, #183, #150 ) ;
#160 = CIRCLE ( 'NONE', #66, 1.000000000000000888 ) ;
#161 = DIRECTION ( 'NONE',  ( -0.000000000000000000, -0.000000000000000000, 1.000000000000000000 ) ) ;
#162 = APPROVAL ( #19, 'UNSPECIFIED' ) ;
#163 = DIRECTION ( 'NONE',  ( -0.000000000000000000, -0.000000000000000000, 1.000000000000000000 ) ) ;
#164 = DIRECTION ( 'NONE',  ( 1.000000000000000000, 0.000000000000000000, 0.000000000000000000 ) ) ;
#165 = DIRECTION ( 'NONE',  ( 1.000000000000000000, 0.000000000000000000, 0.000000000000000000 ) ) ;
#166 = AXIS2_PLACEMENT_3D ( 'NONE', #168, #105, #48 ) ;
#167 = ORGANIZATION ( 'UNSPECIFIED', 'UNSPECIFIED', '' ) ;
#168 = CARTESIAN_POINT ( 'NONE',  ( 0.000000000000000000, 0.000000000000000000, 0.000000000000000000 ) ) ;
#169 = CC_DESIGN_PERSON_AND_ORGANIZATION_ASSIGNMENT ( #67, #129, ( #28 ) ) ;
#170 = DIRECTION ( 'NONE',  ( 1.000000000000000000, 0.000000000000000000, 0.000000000000000000 ) ) ;
#171 = PERSON_AND_ORGANIZATION ( #1, #167 ) ;
#172 = AXIS2_PLACEMENT_3D ( 'NONE', #15, #5, #164 ) ;
#173 = PERSON_AND_ORGANIZATION_ROLE ( 'design_supplier' ) ;
#174 = APPROVAL_STATUS ( 'not_yet_approved' ) ;
#175 = EDGE_CURVE ( 'NONE', #149, #86, #80, .T. ) ;
#176 = CIRCLE ( 'NONE', #188, 1.000000000000000888 ) ;
#177 = DATE_AND_TIME ( #179, #71 ) ;
#178 = ORIENTED_EDGE ( 'NONE', *, *, #39, .F. ) ;
#179 = CALENDAR_DATE ( 2022, 6, 6 ) ;
#180 = ORIENTED_EDGE ( 'NONE', *, *, #119, .F. ) ;
#181 = CARTESIAN_POINT ( 'NONE',  ( 25.00000000000000000, 0.000000000000000000, 0.000000000000000000 ) ) ;
#182 = CARTESIAN_POINT ( 'NONE',  ( 0.000000000000000000, 0.000000000000000000, 0.000000000000000000 ) ) ;
#183 = DIRECTION ( 'NONE',  ( 1.224646799147353207E-16, 1.000000000000000000, 0.000000000000000000 ) ) ;
#184 = PERSON_AND_ORGANIZATION ( #1, #167 ) ;
#185 = DATE_TIME_ROLE ( 'classification_date' ) ;
#186 = PERSON_AND_ORGANIZATION_ROLE ( 'creator' ) ;
#187 = APPLICATION_PROTOCOL_DEFINITION ( 'international standard', 'config_control_design', 1994, #112 ) ;
#188 = AXIS2_PLACEMENT_3D ( 'NONE', #153, #125, #123 ) ;
#189 = AXIS2_PLACEMENT_3D ( 'NONE', #110, #143, #170 ) ;
#190 = CARTESIAN_POINT ( 'NONE',  ( 0.000000000000000000, 0.000000000000000000, 0.000000000000000000 ) ) ;
#191 = CIRCLE ( 'NONE', #159, 1.000000000000000888 ) ;
#192 = LOCAL_TIME ( 14, 56, 18.00000000000000000, #79 ) ;
#193 = SHAPE_DEFINITION_REPRESENTATION ( #74, #78 ) ;
ENDSEC;
END-ISO-10303-21;
