ISO-10303-21;
HEADER;
FILE_DESCRIPTION (( 'STEP AP203' ),
    '1' );
FILE_NAME ('228-2500-224.step',
    '2022-06-06T19:56:55',
    ( '' ),
    ( '' ),
    'SwSTEP 2.0',
    'SolidWorks 2021',
    '' );
FILE_SCHEMA (( 'CONFIG_CONTROL_DESIGN' ));
ENDSEC;

DATA;
#1 = SHAPE_DEFINITION_REPRESENTATION ( #114, #143 ) ;
#2 = APPROVAL_PERSON_ORGANIZATION ( #57, #130, #89 ) ;
#3 = PRODUCT_RELATED_PRODUCT_CATEGORY ( 'detail', '', ( #78 ) ) ;
#4 = TOROIDAL_SURFACE ( 'NONE', #188, 30.00000000000000000, 1.000000000000001110 ) ;
#5 = EDGE_LOOP ( 'NONE', ( #180, #22, #148, #187 ) ) ;
#6 = DIRECTION ( 'NONE',  ( 1.000000000000000000, 0.000000000000000000, 0.000000000000000000 ) ) ;
#7 = AXIS2_PLACEMENT_3D ( 'NONE', #153, #54, #62 ) ;
#8 = DIRECTION ( 'NONE',  ( 1.224646799147353207E-16, 1.000000000000000000, 0.000000000000000000 ) ) ;
#9 = PERSON_AND_ORGANIZATION ( #63, #168 ) ;
#10 = EDGE_CURVE ( 'NONE', #83, #150, #95, .T. ) ;
#11 = AXIS2_PLACEMENT_3D ( 'NONE', #175, #35, #112 ) ;
#12 = CARTESIAN_POINT ( 'NONE',  ( 0.000000000000000000, 0.000000000000000000, 0.000000000000000000 ) ) ;
#13 = CC_DESIGN_DATE_AND_TIME_ASSIGNMENT ( #176, #193, ( #60 ) ) ;
#14 = APPLICATION_PROTOCOL_DEFINITION ( 'international standard', 'config_control_design', 1994, #120 ) ;
#15 =( GEOMETRIC_REPRESENTATION_CONTEXT ( 3 ) GLOBAL_UNCERTAINTY_ASSIGNED_CONTEXT ( ( #39 ) ) GLOBAL_UNIT_ASSIGNED_CONTEXT ( ( #33, #17, #92 ) ) REPRESENTATION_CONTEXT ( 'NONE', 'WORKASPACE' ) );
#16 = TOROIDAL_SURFACE ( 'NONE', #147, 30.00000000000000000, 1.000000000000001110 ) ;
#17 =( NAMED_UNIT ( * ) PLANE_ANGLE_UNIT ( ) SI_UNIT ( $, .RADIAN. ) );
#18 = CC_DESIGN_PERSON_AND_ORGANIZATION_ASSIGNMENT ( #31, #144, ( #78 ) ) ;
#19 = CALENDAR_DATE ( 2022, 6, 6 ) ;
#20 = ORIENTED_EDGE ( 'NONE', *, *, #172, .T. ) ;
#21 = ADVANCED_FACE ( 'NONE', ( #27 ), #16, .T. ) ;
#22 = ORIENTED_EDGE ( 'NONE', *, *, #137, .T. ) ;
#23 = ORIENTED_EDGE ( 'NONE', *, *, #45, .F. ) ;
#24 = DESIGN_CONTEXT ( 'detailed design', #120, 'design' ) ;
#25 = CARTESIAN_POINT ( 'NONE',  ( 0.000000000000000000, 0.000000000000000000, 0.000000000000000000 ) ) ;
#26 = CARTESIAN_POINT ( 'NONE',  ( -31.00000000000000000, 3.796405077356795115E-15, 0.000000000000000000 ) ) ;
#27 = FACE_OUTER_BOUND ( 'NONE', #184, .T. ) ;
#28 = CC_DESIGN_DATE_AND_TIME_ASSIGNMENT ( #128, #145, ( #113 ) ) ;
#29 = PERSON_AND_ORGANIZATION ( #63, #168 ) ;
#30 = DIRECTION ( 'NONE',  ( -0.000000000000000000, -0.000000000000000000, 1.000000000000000000 ) ) ;
#31 = PERSON_AND_ORGANIZATION ( #63, #168 ) ;
#32 = APPROVAL_DATE_TIME ( #139, #129 ) ;
#33 =( LENGTH_UNIT ( ) NAMED_UNIT ( * ) SI_UNIT ( .MILLI., .METRE. ) );
#34 = APPLICATION_PROTOCOL_DEFINITION ( 'international standard', 'config_control_design', 1994, #49 ) ;
#35 = DIRECTION ( 'NONE',  ( 0.000000000000000000, 0.000000000000000000, 1.000000000000000000 ) ) ;
#36 = AXIS2_PLACEMENT_3D ( 'NONE', #151, #186, #52 ) ;
#37 = PERSON_AND_ORGANIZATION ( #63, #168 ) ;
#38 = LOCAL_TIME ( 14, 56, 55.00000000000000000, #170 ) ;
#39 = UNCERTAINTY_MEASURE_WITH_UNIT (LENGTH_MEASURE( 1.000000000000000082E-05 ), #33, 'distance_accuracy_value', 'NONE');
#40 = AXIS2_PLACEMENT_3D ( 'NONE', #12, #69, #110 ) ;
#41 = CARTESIAN_POINT ( 'NONE',  ( 30.00000000000000000, 0.000000000000000000, 0.000000000000000000 ) ) ;
#42 = CALENDAR_DATE ( 2022, 6, 6 ) ;
#43 = DIRECTION ( 'NONE',  ( 0.000000000000000000, -1.000000000000000000, 0.000000000000000000 ) ) ;
#44 = APPROVAL_ROLE ( '' ) ;
#45 = EDGE_CURVE ( 'NONE', #149, #150, #169, .T. ) ;
#46 = ORIENTED_EDGE ( 'NONE', *, *, #191, .T. ) ;
#47 = LOCAL_TIME ( 14, 56, 55.00000000000000000, #155 ) ;
#48 = ORIENTED_EDGE ( 'NONE', *, *, #103, .F. ) ;
#49 = APPLICATION_CONTEXT ( 'configuration controlled 3d designs of mechanical parts and assemblies' ) ;
#50 = ADVANCED_FACE ( 'NONE', ( #166 ), #93, .T. ) ;
#51 = FACE_OUTER_BOUND ( 'NONE', #59, .T. ) ;
#52 = DIRECTION ( 'NONE',  ( 1.000000000000000000, 0.000000000000000000, 0.000000000000000000 ) ) ;
#53 = AXIS2_PLACEMENT_3D ( 'NONE', #74, #177, #116 ) ;
#54 = DIRECTION ( 'NONE',  ( -0.000000000000000000, -0.000000000000000000, 1.000000000000000000 ) ) ;
#55 = SECURITY_CLASSIFICATION_LEVEL ( 'unclassified' ) ;
#56 = CIRCLE ( 'NONE', #162, 1.000000000000001110 ) ;
#57 = PERSON_AND_ORGANIZATION ( #63, #168 ) ;
#58 = LOCAL_TIME ( 14, 56, 55.00000000000000000, #192 ) ;
#59 = EDGE_LOOP ( 'NONE', ( #48, #20, #75, #23 ) ) ;
#60 = PRODUCT_DEFINITION ( 'UNKNOWN', '', #86, #24 ) ;
#61 = AXIS2_PLACEMENT_3D ( 'NONE', #134, #65, #6 ) ;
#62 = DIRECTION ( 'NONE',  ( 1.000000000000000000, 0.000000000000000000, 0.000000000000000000 ) ) ;
#63 = PERSON ( 'UNSPECIFIED', 'UNSPECIFIED', 'UNSPECIFIED', ('UNSPECIFIED'), ('UNSPECIFIED'), ('UNSPECIFIED') ) ;
#64 = APPROVAL_PERSON_ORGANIZATION ( #37, #90, #146 ) ;
#65 = DIRECTION ( 'NONE',  ( -0.000000000000000000, -0.000000000000000000, 1.000000000000000000 ) ) ;
#66 = DIRECTION ( 'NONE',  ( -0.000000000000000000, -0.000000000000000000, 1.000000000000000000 ) ) ;
#67 = CARTESIAN_POINT ( 'NONE',  ( 0.000000000000000000, 0.000000000000000000, -1.224646799147354686E-16 ) ) ;
#68 = PERSON_AND_ORGANIZATION_ROLE ( 'design_supplier' ) ;
#69 = DIRECTION ( 'NONE',  ( -0.000000000000000000, -0.000000000000000000, 1.000000000000000000 ) ) ;
#70 = PERSON_AND_ORGANIZATION ( #63, #168 ) ;
#71 = APPROVAL_STATUS ( 'not_yet_approved' ) ;
#72 = AXIS2_PLACEMENT_3D ( 'NONE', #156, #8, #79 ) ;
#73 = MANIFOLD_SOLID_BREP ( '228-2500-224', #182 ) ;
#74 = CARTESIAN_POINT ( 'NONE',  ( 0.000000000000000000, 0.000000000000000000, -1.224646799147354686E-16 ) ) ;
#75 = ORIENTED_EDGE ( 'NONE', *, *, #10, .T. ) ;
#76 = CALENDAR_DATE ( 2022, 6, 6 ) ;
#77 = EDGE_LOOP ( 'NONE', ( #183, #108, #46, #165 ) ) ;
#78 = PRODUCT ( '228-2500-224', '228-2500-224', '', ( #173 ) ) ;
#79 = DIRECTION ( 'NONE',  ( -1.000000000000000000, 1.224646799147357151E-16, 0.000000000000000000 ) ) ;
#80 = DIRECTION ( 'NONE',  ( 1.000000000000000000, 0.000000000000000000, 0.000000000000000000 ) ) ;
#81 = TOROIDAL_SURFACE ( 'NONE', #40, 30.00000000000000000, 1.000000000000001110 ) ;
#82 = DIRECTION ( 'NONE',  ( 0.000000000000000000, -1.000000000000000000, 0.000000000000000000 ) ) ;
#83 = VERTEX_POINT ( 'NONE', #26 ) ;
#84 = PERSON_AND_ORGANIZATION_ROLE ( 'creator' ) ;
#85 = FACE_OUTER_BOUND ( 'NONE', #5, .T. ) ;
#86 = PRODUCT_DEFINITION_FORMATION_WITH_SPECIFIED_SOURCE ( 'ANY', '', #78, .NOT_KNOWN. ) ;
#87 = APPROVAL_STATUS ( 'not_yet_approved' ) ;
#88 = CC_DESIGN_PERSON_AND_ORGANIZATION_ASSIGNMENT ( #158, #189, ( #60 ) ) ;
#89 = APPROVAL_ROLE ( '' ) ;
#90 = APPROVAL ( #118, 'UNSPECIFIED' ) ;
#91 = DATE_AND_TIME ( #99, #38 ) ;
#92 =( NAMED_UNIT ( * ) SI_UNIT ( $, .STERADIAN. ) SOLID_ANGLE_UNIT ( ) );
#93 = TOROIDAL_SURFACE ( 'NONE', #7, 30.00000000000000000, 1.000000000000001110 ) ;
#94 = CC_DESIGN_PERSON_AND_ORGANIZATION_ASSIGNMENT ( #29, #84, ( #86 ) ) ;
#95 = CIRCLE ( 'NONE', #157, 1.000000000000000888 ) ;
#96 = ORIENTED_EDGE ( 'NONE', *, *, #117, .F. ) ;
#97 = DIRECTION ( 'NONE',  ( -1.000000000000000000, 1.224646799147357151E-16, 0.000000000000000000 ) ) ;
#98 = CARTESIAN_POINT ( 'NONE',  ( -30.00000000000000000, 3.673940397442059178E-15, 0.000000000000000000 ) ) ;
#99 = CALENDAR_DATE ( 2022, 6, 6 ) ;
#100 = DIRECTION ( 'NONE',  ( 0.000000000000000000, 0.000000000000000000, -1.000000000000000000 ) ) ;
#101 = CC_DESIGN_SECURITY_CLASSIFICATION ( #113, ( #86 ) ) ;
#102 = COORDINATED_UNIVERSAL_TIME_OFFSET ( 6, 0, .BEHIND. ) ;
#103 = EDGE_CURVE ( 'NONE', #109, #149, #56, .T. ) ;
#104 = APPROVAL_DATE_TIME ( #181, #90 ) ;
#105 = CIRCLE ( 'NONE', #61, 31.00000000000000000 ) ;
#106 = ORIENTED_EDGE ( 'NONE', *, *, #45, .T. ) ;
#107 = ADVANCED_FACE ( 'NONE', ( #85 ), #81, .T. ) ;
#108 = ORIENTED_EDGE ( 'NONE', *, *, #119, .F. ) ;
#109 = VERTEX_POINT ( 'NONE', #171 ) ;
#110 = DIRECTION ( 'NONE',  ( 1.000000000000000000, 0.000000000000000000, 0.000000000000000000 ) ) ;
#111 = CIRCLE ( 'NONE', #36, 31.00000000000000000 ) ;
#112 = DIRECTION ( 'NONE',  ( 1.000000000000000000, 0.000000000000000000, 0.000000000000000000 ) ) ;
#113 = SECURITY_CLASSIFICATION ( '', '', #55 ) ;
#114 = PRODUCT_DEFINITION_SHAPE ( 'NONE', 'NONE',  #60 ) ;
#115 = LOCAL_TIME ( 14, 56, 55.00000000000000000, #102 ) ;
#116 = DIRECTION ( 'NONE',  ( 1.000000000000000000, 0.000000000000000000, 0.000000000000000000 ) ) ;
#117 = EDGE_CURVE ( 'NONE', #149, #109, #125, .T. ) ;
#118 = APPROVAL_STATUS ( 'not_yet_approved' ) ;
#119 = EDGE_CURVE ( 'NONE', #150, #83, #160, .T. ) ;
#120 = APPLICATION_CONTEXT ( 'configuration controlled 3d designs of mechanical parts and assemblies' ) ;
#121 = CARTESIAN_POINT ( 'NONE',  ( 28.99999999999999645, 0.000000000000000000, -1.224646799147354933E-16 ) ) ;
#122 = DIRECTION ( 'NONE',  ( 1.000000000000000000, 0.000000000000000000, 0.000000000000000000 ) ) ;
#123 = DIRECTION ( 'NONE',  ( -0.000000000000000000, -0.000000000000000000, 1.000000000000000000 ) ) ;
#124 = CARTESIAN_POINT ( 'NONE',  ( 0.000000000000000000, 0.000000000000000000, 0.000000000000000000 ) ) ;
#125 = CIRCLE ( 'NONE', #190, 1.000000000000001110 ) ;
#126 = APPROVAL_DATE_TIME ( #91, #130 ) ;
#127 = CALENDAR_DATE ( 2022, 6, 6 ) ;
#128 = DATE_AND_TIME ( #19, #179 ) ;
#129 = APPROVAL ( #87, 'UNSPECIFIED' ) ;
#130 = APPROVAL ( #71, 'UNSPECIFIED' ) ;
#131 = CIRCLE ( 'NONE', #53, 28.99999999999999645 ) ;
#132 = ORIENTED_EDGE ( 'NONE', *, *, #119, .T. ) ;
#133 = CC_DESIGN_PERSON_AND_ORGANIZATION_ASSIGNMENT ( #70, #142, ( #113 ) ) ;
#134 = CARTESIAN_POINT ( 'NONE',  ( 0.000000000000000000, 0.000000000000000000, 0.000000000000000000 ) ) ;
#135 = CC_DESIGN_APPROVAL ( #90, ( #113 ) ) ;
#136 = DIRECTION ( 'NONE',  ( 0.000000000000000000, 0.000000000000000000, -1.000000000000000000 ) ) ;
#137 = EDGE_CURVE ( 'NONE', #83, #109, #105, .T. ) ;
#138 = DIRECTION ( 'NONE',  ( 1.000000000000000000, 0.000000000000000000, 0.000000000000000000 ) ) ;
#139 = DATE_AND_TIME ( #42, #47 ) ;
#140 = CARTESIAN_POINT ( 'NONE',  ( 30.00000000000000000, 0.000000000000000000, 0.000000000000000000 ) ) ;
#141 = CC_DESIGN_APPROVAL ( #130, ( #60 ) ) ;
#142 = PERSON_AND_ORGANIZATION_ROLE ( 'classification_officer' ) ;
#143 = ADVANCED_BREP_SHAPE_REPRESENTATION ( '228-2500-224', ( #73, #11 ), #15 ) ;
#144 = PERSON_AND_ORGANIZATION_ROLE ( 'design_owner' ) ;
#145 = DATE_TIME_ROLE ( 'classification_date' ) ;
#146 = APPROVAL_ROLE ( '' ) ;
#147 = AXIS2_PLACEMENT_3D ( 'NONE', #124, #30, #138 ) ;
#148 = ORIENTED_EDGE ( 'NONE', *, *, #103, .T. ) ;
#149 = VERTEX_POINT ( 'NONE', #121 ) ;
#150 = VERTEX_POINT ( 'NONE', #185 ) ;
#151 = CARTESIAN_POINT ( 'NONE',  ( 0.000000000000000000, 0.000000000000000000, 0.000000000000000000 ) ) ;
#152 = CC_DESIGN_APPROVAL ( #129, ( #86 ) ) ;
#153 = CARTESIAN_POINT ( 'NONE',  ( 0.000000000000000000, 0.000000000000000000, 0.000000000000000000 ) ) ;
#154 = DIRECTION ( 'NONE',  ( 1.224646799147353207E-16, 1.000000000000000000, 0.000000000000000000 ) ) ;
#155 = COORDINATED_UNIVERSAL_TIME_OFFSET ( 6, 0, .BEHIND. ) ;
#156 = CARTESIAN_POINT ( 'NONE',  ( -30.00000000000000000, 3.673940397442059178E-15, 0.000000000000000000 ) ) ;
#157 = AXIS2_PLACEMENT_3D ( 'NONE', #98, #154, #97 ) ;
#158 = PERSON_AND_ORGANIZATION ( #63, #168 ) ;
#159 = CC_DESIGN_PERSON_AND_ORGANIZATION_ASSIGNMENT ( #9, #68, ( #86 ) ) ;
#160 = CIRCLE ( 'NONE', #72, 1.000000000000000888 ) ;
#161 = COORDINATED_UNIVERSAL_TIME_OFFSET ( 6, 0, .BEHIND. ) ;
#162 = AXIS2_PLACEMENT_3D ( 'NONE', #41, #82, #136 ) ;
#163 = ORIENTED_EDGE ( 'NONE', *, *, #172, .F. ) ;
#164 = APPROVAL_PERSON_ORGANIZATION ( #178, #129, #44 ) ;
#165 = ORIENTED_EDGE ( 'NONE', *, *, #117, .T. ) ;
#166 = FACE_OUTER_BOUND ( 'NONE', #77, .T. ) ;
#167 = ADVANCED_FACE ( 'NONE', ( #51 ), #4, .T. ) ;
#168 = ORGANIZATION ( 'UNSPECIFIED', 'UNSPECIFIED', '' ) ;
#169 = CIRCLE ( 'NONE', #174, 28.99999999999999645 ) ;
#170 = COORDINATED_UNIVERSAL_TIME_OFFSET ( 6, 0, .BEHIND. ) ;
#171 = CARTESIAN_POINT ( 'NONE',  ( 31.00000000000000000, 0.000000000000000000, 0.000000000000000000 ) ) ;
#172 = EDGE_CURVE ( 'NONE', #109, #83, #111, .T. ) ;
#173 = MECHANICAL_CONTEXT ( 'NONE', #49, 'mechanical' ) ;
#174 = AXIS2_PLACEMENT_3D ( 'NONE', #67, #123, #80 ) ;
#175 = CARTESIAN_POINT ( 'NONE',  ( 0.000000000000000000, 0.000000000000000000, 0.000000000000000000 ) ) ;
#176 = DATE_AND_TIME ( #127, #58 ) ;
#177 = DIRECTION ( 'NONE',  ( -0.000000000000000000, -0.000000000000000000, 1.000000000000000000 ) ) ;
#178 = PERSON_AND_ORGANIZATION ( #63, #168 ) ;
#179 = LOCAL_TIME ( 14, 56, 55.00000000000000000, #161 ) ;
#180 = ORIENTED_EDGE ( 'NONE', *, *, #10, .F. ) ;
#181 = DATE_AND_TIME ( #76, #115 ) ;
#182 = CLOSED_SHELL ( 'NONE', ( #107, #167, #21, #50 ) ) ;
#183 = ORIENTED_EDGE ( 'NONE', *, *, #137, .F. ) ;
#184 = EDGE_LOOP ( 'NONE', ( #163, #96, #106, #132 ) ) ;
#185 = CARTESIAN_POINT ( 'NONE',  ( -28.99999999999999645, 3.551475717527324030E-15, -1.224646799147354933E-16 ) ) ;
#186 = DIRECTION ( 'NONE',  ( -0.000000000000000000, -0.000000000000000000, 1.000000000000000000 ) ) ;
#187 = ORIENTED_EDGE ( 'NONE', *, *, #191, .F. ) ;
#188 = AXIS2_PLACEMENT_3D ( 'NONE', #25, #66, #122 ) ;
#189 = PERSON_AND_ORGANIZATION_ROLE ( 'creator' ) ;
#190 = AXIS2_PLACEMENT_3D ( 'NONE', #140, #43, #100 ) ;
#191 = EDGE_CURVE ( 'NONE', #150, #149, #131, .T. ) ;
#192 = COORDINATED_UNIVERSAL_TIME_OFFSET ( 6, 0, .BEHIND. ) ;
#193 = DATE_TIME_ROLE ( 'creation_date' ) ;
ENDSEC;
END-ISO-10303-21;
