ISO-10303-21;
HEADER;
FILE_DESCRIPTION (( 'STEP AP214' ),
    '1' );
FILE_NAME ('228-2500-094.STEP',
    '2022-06-13T19:35:20',
    ( '' ),
    ( '' ),
    'SwSTEP 2.0',
    'SolidWorks 2021',
    '' );
FILE_SCHEMA (( 'AUTOMOTIVE_DESIGN' ));
ENDSEC;

DATA;
#1 = CARTESIAN_POINT ( 'NONE',  ( 1.268411506570323866, 1.587500000000000355, -21.33599999999999852 ) ) ;
#2 = ORIENTED_EDGE ( 'NONE', *, *, #514, .F. ) ;
#3 = ORIENTED_EDGE ( 'NONE', *, *, #385, .F. ) ;
#4 = CARTESIAN_POINT ( 'NONE',  ( -1.245064030267288402, 2.006622987633880009E-16, -21.33599999999999497 ) ) ;
#5 = CARTESIAN_POINT ( 'NONE',  ( 1.268411506570323866, 1.587500000000000355, -21.18491914209798210 ) ) ;
#6 = VERTEX_POINT ( 'NONE', #566 ) ;
#7 = DIRECTION ( 'NONE',  ( -0.000000000000000000, -0.000000000000000000, 1.000000000000000000 ) ) ;
#8 = CARTESIAN_POINT ( 'NONE',  ( 1.587500000000000577, -0.8514389605504939507, -21.26636751577920492 ) ) ;
#9 = EDGE_CURVE ( 'NONE', #724, #440, #557, .T. ) ;
#10 = ORIENTED_EDGE ( 'NONE', *, *, #234, .T. ) ;
#11 = EDGE_CURVE ( 'NONE', #130, #64, #838, .T. ) ;
#12 = CARTESIAN_POINT ( 'NONE',  ( -0.8571092511719563545, 1.587500000000000355, -21.28727379706277389 ) ) ;
#13 = CARTESIAN_POINT ( 'NONE',  ( 1.587500000000000355, 1.268411506570323866, -21.33599999999999852 ) ) ;
#14 = APPLICATION_CONTEXT ( 'automotive_design' ) ;
#15 = ORIENTED_EDGE ( 'NONE', *, *, #65, .F. ) ;
#16 = ORIENTED_EDGE ( 'NONE', *, *, #546, .T. ) ;
#17 = DIRECTION ( 'NONE',  ( -0.000000000000000000, -0.000000000000000000, 1.000000000000000000 ) ) ;
#18 = CARTESIAN_POINT ( 'NONE',  ( -1.587500000000000355, 0.8513200635100123259, 21.26637755531811180 ) ) ;
#19 = AXIS2_PLACEMENT_3D ( 'NONE', #616, #474, #529 ) ;
#20 = VERTEX_POINT ( 'NONE', #483 ) ;
#21 = CARTESIAN_POINT ( 'NONE',  ( 0.000000000000000000, 0.000000000000000000, -21.18491914209798210 ) ) ;
#22 = VECTOR ( 'NONE', #162, 1000.000000000000000 ) ;
#23 = DIRECTION ( 'NONE',  ( 1.000000000000000000, 0.000000000000000000, 0.000000000000000000 ) ) ;
#24 = EDGE_CURVE ( 'NONE', #611, #84, #149, .T. ) ;
#25 = EDGE_LOOP ( 'NONE', ( #449, #614, #153, #832 ) ) ;
#26 = ORIENTED_EDGE ( 'NONE', *, *, #24, .T. ) ;
#27 = DIRECTION ( 'NONE',  ( -0.000000000000000000, -0.000000000000000000, 1.000000000000000000 ) ) ;
#28 = DIRECTION ( 'NONE',  ( 0.000000000000000000, 0.000000000000000000, -1.000000000000000000 ) ) ;
#29 = ORIENTED_EDGE ( 'NONE', *, *, #348, .T. ) ;
#30 = CARTESIAN_POINT ( 'NONE',  ( 1.245064030267288402, 0.000000000000000000, -21.33599999999999497 ) ) ;
#31 = CARTESIAN_POINT ( 'NONE',  ( 0.000000000000000000, 0.000000000000000000, 15.07499999999999574 ) ) ;
#32 = CARTESIAN_POINT ( 'NONE',  ( 1.587500000000000355, -1.587500000000000355, 15.87499999999999645 ) ) ;
#33 = CARTESIAN_POINT ( 'NONE',  ( 1.268411506570323866, 1.587500000000000355, -21.18491914209798210 ) ) ;
#34 = AXIS2_PLACEMENT_3D ( 'NONE', #499, #429, #511 ) ;
#35 = VERTEX_POINT ( 'NONE', #515 ) ;
#36 = DIRECTION ( 'NONE',  ( -1.000000000000000000, 0.000000000000000000, 0.000000000000000000 ) ) ;
#37 = VECTOR ( 'NONE', #700, 1000.000000000000000 ) ;
#38 = CIRCLE ( 'NONE', #66, 2.032000000000000028 ) ;
#39 = FILL_AREA_STYLE ('',( #660 ) ) ;
#40 = CARTESIAN_POINT ( 'NONE',  ( -1.268411506570323866, 1.587500000000000355, 15.07499999999999396 ) ) ;
#41 = ORIENTED_EDGE ( 'NONE', *, *, #436, .F. ) ;
#42 = CARTESIAN_POINT ( 'NONE',  ( -1.587500000000000577, -0.8514389605504939507, 21.26636751577920492 ) ) ;
#43 = DIRECTION ( 'NONE',  ( 1.000000000000000000, 0.000000000000000000, 0.000000000000000000 ) ) ;
#44 = ORIENTED_EDGE ( 'NONE', *, *, #531, .F. ) ;
#45 = CARTESIAN_POINT ( 'NONE',  ( -1.587500000000000355, -1.944126793646423534E-16, 21.30822736169286102 ) ) ;
#46 = B_SPLINE_CURVE_WITH_KNOTS ( 'NONE', 3,
 ( #68, #624, #481, #204, #467, #417 ),
 .UNSPECIFIED., .F., .F.,
 ( 4, 2, 4 ),
 ( 0.01485345774306994979, 0.01548163471194352082, 0.01610981168081709186 ),
 .UNSPECIFIED. ) ;
#47 = DIRECTION ( 'NONE',  ( -0.000000000000000000, 1.000000000000000000, 0.000000000000000000 ) ) ;
#48 = DIRECTION ( 'NONE',  ( 1.000000000000000000, 0.000000000000000000, 0.000000000000000000 ) ) ;
#49 = ORIENTED_EDGE ( 'NONE', *, *, #106, .F. ) ;
#50 = CARTESIAN_POINT ( 'NONE',  ( -1.587500000000000355, -1.268411506570323866, 21.18491914209798210 ) ) ;
#51 = AXIS2_PLACEMENT_3D ( 'NONE', #744, #200, #72 ) ;
#52 = PRODUCT_RELATED_PRODUCT_CATEGORY ( 'part', '', ( #325 ) ) ;
#53 = AXIS2_PLACEMENT_3D ( 'NONE', #105, #47, #598 ) ;
#54 = FACE_OUTER_BOUND ( 'NONE', #459, .T. ) ;
#55 = TOROIDAL_SURFACE ( 'NONE', #786, 1.245064030267288402, 2.125000000000022649 ) ;
#56 = CYLINDRICAL_SURFACE ( 'NONE', #836, 2.032000000000000028 ) ;
#57 = EDGE_CURVE ( 'NONE', #87, #206, #887, .T. ) ;
#58 = ORIENTED_EDGE ( 'NONE', *, *, #281, .T. ) ;
#59 = CARTESIAN_POINT ( 'NONE',  ( 0.000000000000000000, 0.000000000000000000, 15.07499999999999396 ) ) ;
#60 = DIRECTION ( 'NONE',  ( 1.000000000000000000, 0.000000000000000000, 0.000000000000000000 ) ) ;
#61 = CARTESIAN_POINT ( 'NONE',  ( -1.587500000000000355, 0.2114796877013869481, -21.30822736169286102 ) ) ;
#62 = ORIENTED_EDGE ( 'NONE', *, *, #134, .F. ) ;
#63 = DIRECTION ( 'NONE',  ( -0.000000000000000000, -0.000000000000000000, 1.000000000000000000 ) ) ;
#64 = VERTEX_POINT ( 'NONE', #184 ) ;
#65 = EDGE_CURVE ( 'NONE', #130, #288, #307, .T. ) ;
#66 = AXIS2_PLACEMENT_3D ( 'NONE', #279, #207, #479 ) ;
#67 = DIRECTION ( 'NONE',  ( 1.000000000000000000, 0.000000000000000000, 0.000000000000000000 ) ) ;
#68 = CARTESIAN_POINT ( 'NONE',  ( 1.587500000000000355, 1.268411506570323866, 21.18491914209798210 ) ) ;
#69 = CIRCLE ( 'NONE', #284, 1.245064030267288402 ) ;
#70 = CIRCLE ( 'NONE', #154, 2.399999999999999911 ) ;
#71 = EDGE_LOOP ( 'NONE', ( #756, #267, #403, #798, #276 ) ) ;
#72 = DIRECTION ( 'NONE',  ( 1.000000000000000000, 1.224646799147353207E-16, 0.000000000000000000 ) ) ;
#73 = ORIENTED_EDGE ( 'NONE', *, *, #57, .F. ) ;
#74 = CARTESIAN_POINT ( 'NONE',  ( 1.587500000000000355, 1.061392899157111325, -21.23643677385166129 ) ) ;
#75 = ORIENTED_EDGE ( 'NONE', *, *, #174, .F. ) ;
#76 = B_SPLINE_CURVE_WITH_KNOTS ( 'NONE', 3,
 ( #50, #669, #42, #181, #596, #45 ),
 .UNSPECIFIED., .F., .F.,
 ( 4, 2, 4 ),
 ( 0.01485345774306994979, 0.01548163471194352082, 0.01610981168081709186 ),
 .UNSPECIFIED. ) ;
#77 = CARTESIAN_POINT ( 'NONE',  ( 1.587500000000000577, 0.4277385810629841800, -21.30198654358311217 ) ) ;
#78 = EDGE_CURVE ( 'NONE', #728, #388, #451, .T. ) ;
#79 = MECHANICAL_DESIGN_GEOMETRIC_PRESENTATION_REPRESENTATION (  '', ( #826 ), #454 ) ;
#80 = PRODUCT_DEFINITION_CONTEXT ( 'detailed design', #14, 'design' ) ;
#81 = EDGE_LOOP ( 'NONE', ( #15, #630, #582, #135, #317, #759, #512, #820 ) ) ;
#82 = DIRECTION ( 'NONE',  ( -1.000000000000000000, 0.000000000000000000, 0.000000000000000000 ) ) ;
#83 = CARTESIAN_POINT ( 'NONE',  ( -1.587500000000000355, -1.587500000000000355, 21.33599999999999852 ) ) ;
#84 = VERTEX_POINT ( 'NONE', #851 ) ;
#85 = DIRECTION ( 'NONE',  ( 1.000000000000000000, 0.000000000000000000, 0.000000000000000000 ) ) ;
#86 = FACE_OUTER_BOUND ( 'NONE', #484, .T. ) ;
#87 = VERTEX_POINT ( 'NONE', #507 ) ;
#88 = DIRECTION ( 'NONE',  ( -1.000000000000000000, 0.000000000000000000, 0.000000000000000000 ) ) ;
#89 = ADVANCED_FACE ( 'NONE', ( #443 ), #721, .T. ) ;
#90 = CARTESIAN_POINT ( 'NONE',  ( -1.587500000000000133, 0.2143109880596210937, 21.30822736169286102 ) ) ;
#91 = AXIS2_PLACEMENT_3D ( 'NONE', #472, #809, #341 ) ;
#92 = CARTESIAN_POINT ( 'NONE',  ( -1.268411506570323644, -1.587500000000000355, 21.18491914209798210 ) ) ;
#93 = TOROIDAL_SURFACE ( 'NONE', #470, 1.245064030267288402, 2.125000000000022649 ) ;
#94 = VERTEX_POINT ( 'NONE', #791 ) ;
#95 = FACE_OUTER_BOUND ( 'NONE', #572, .T. ) ;
#96 = AXIS2_PLACEMENT_3D ( 'NONE', #83, #151, #165 ) ;
#97 = FACE_OUTER_BOUND ( 'NONE', #664, .T. ) ;
#98 = MANIFOLD_SOLID_BREP ( '228-2500-094', #816 ) ;
#99 = ORIENTED_EDGE ( 'NONE', *, *, #348, .F. ) ;
#100 = CARTESIAN_POINT ( 'NONE',  ( 1.268411506570323866, -1.587500000000000355, -21.18491914209798210 ) ) ;
#101 = CARTESIAN_POINT ( 'NONE',  ( 0.000000000000000000, 0.000000000000000000, 21.18491914209798210 ) ) ;
#102 = CARTESIAN_POINT ( 'NONE',  ( 1.587500000000000355, -1.268411506570323644, 21.18491914209798210 ) ) ;
#103 = VERTEX_POINT ( 'NONE', #818 ) ;
#104 = DIRECTION ( 'NONE',  ( 1.000000000000000000, 0.000000000000000000, 0.000000000000000000 ) ) ;
#105 = CARTESIAN_POINT ( 'NONE',  ( 1.245064030267288402, 0.000000000000000000, 19.21099999999997365 ) ) ;
#106 = EDGE_CURVE ( 'NONE', #504, #140, #659, .T. ) ;
#107 = CARTESIAN_POINT ( 'NONE',  ( -1.587500000000000355, -1.587500000000000355, 21.33599999999999852 ) ) ;
#108 = CIRCLE ( 'NONE', #297, 1.245064030267288402 ) ;
#109 = ADVANCED_FACE ( 'NONE', ( #605 ), #671, .T. ) ;
#110 = VERTEX_POINT ( 'NONE', #739 ) ;
#111 = LINE ( 'NONE', #457, #677 ) ;
#112 = AXIS2_PLACEMENT_3D ( 'NONE', #419, #352, #488 ) ;
#113 = CARTESIAN_POINT ( 'NONE',  ( -1.587500000000000355, -1.268411506570323866, -21.18491914209798210 ) ) ;
#114 = ORIENTED_EDGE ( 'NONE', *, *, #369, .T. ) ;
#115 = LINE ( 'NONE', #799, #413 ) ;
#116 = CARTESIAN_POINT ( 'NONE',  ( 1.587500000000000355, 1.268411506570323866, 21.18491914209798210 ) ) ;
#117 = FACE_OUTER_BOUND ( 'NONE', #501, .T. ) ;
#118 = VERTEX_POINT ( 'NONE', #116 ) ;
#119 = CARTESIAN_POINT ( 'NONE',  ( -1.268411506570323866, -1.587500000000000355, 15.07499999999999396 ) ) ;
#120 = EDGE_CURVE ( 'NONE', #592, #288, #329, .T. ) ;
#121 = ADVANCED_FACE ( 'NONE', ( #54 ), #622, .T. ) ;
#122 =( LENGTH_UNIT ( ) NAMED_UNIT ( * ) SI_UNIT ( .MILLI., .METRE. ) );
#123 = CARTESIAN_POINT ( 'NONE',  ( -1.587500000000000355, -1.268411506570323866, -21.33599999999999852 ) ) ;
#124 = VERTEX_POINT ( 'NONE', #137 ) ;
#125 = DIRECTION ( 'NONE',  ( 1.000000000000000000, 0.000000000000000000, 0.000000000000000000 ) ) ;
#126 = CIRCLE ( 'NONE', #439, 1.245064030267288402 ) ;
#127 = CARTESIAN_POINT ( 'NONE',  ( 0.000000000000000000, 0.000000000000000000, 15.87499999999999645 ) ) ;
#128 = AXIS2_PLACEMENT_3D ( 'NONE', #642, #238, #651 ) ;
#129 = CARTESIAN_POINT ( 'NONE',  ( 0.000000000000000000, 0.000000000000000000, 15.07499999999999396 ) ) ;
#130 = VERTEX_POINT ( 'NONE', #262 ) ;
#131 = CARTESIAN_POINT ( 'NONE',  ( -1.587500000000000355, -1.268411506570323866, -21.18491914209798210 ) ) ;
#132 = LINE ( 'NONE', #712, #37 ) ;
#133 = SURFACE_SIDE_STYLE ('',( #547 ) ) ;
#134 = EDGE_CURVE ( 'NONE', #803, #504, #126, .T. ) ;
#135 = ORIENTED_EDGE ( 'NONE', *, *, #174, .T. ) ;
#136 = ORIENTED_EDGE ( 'NONE', *, *, #448, .F. ) ;
#137 = CARTESIAN_POINT ( 'NONE',  ( -1.587500000000000355, 1.268411506570323644, 21.18491914209798210 ) ) ;
#138 =( NAMED_UNIT ( * ) SI_UNIT ( $, .STERADIAN. ) SOLID_ANGLE_UNIT ( ) );
#139 = EDGE_CURVE ( 'NONE', #6, #35, #609, .T. ) ;
#140 = VERTEX_POINT ( 'NONE', #331 ) ;
#141 = AXIS2_PLACEMENT_3D ( 'NONE', #672, #48, #805 ) ;
#142 = CIRCLE ( 'NONE', #646, 2.032000000000000028 ) ;
#143 = AXIS2_PLACEMENT_3D ( 'NONE', #254, #334, #725 ) ;
#144 = ORIENTED_EDGE ( 'NONE', *, *, #202, .T. ) ;
#145 = ORIENTED_EDGE ( 'NONE', *, *, #380, .F. ) ;
#146 = ADVANCED_FACE ( 'NONE', ( #683 ), #485, .F. ) ;
#147 = EDGE_CURVE ( 'NONE', #652, #235, #69, .T. ) ;
#148 = CARTESIAN_POINT ( 'NONE',  ( 1.587500000000000355, 1.268411506570323866, -21.18491914209798210 ) ) ;
#149 = LINE ( 'NONE', #420, #316 ) ;
#150 = CARTESIAN_POINT ( 'NONE',  ( 0.000000000000000000, 0.000000000000000000, 15.87499999999999645 ) ) ;
#151 = DIRECTION ( 'NONE',  ( 0.000000000000000000, 1.000000000000000000, 0.000000000000000000 ) ) ;
#152 = AXIS2_PLACEMENT_3D ( 'NONE', #21, #17, #773 ) ;
#153 = ORIENTED_EDGE ( 'NONE', *, *, #762, .T. ) ;
#154 = AXIS2_PLACEMENT_3D ( 'NONE', #522, #868, #665 ) ;
#155 = VERTEX_POINT ( 'NONE', #743 ) ;
#156 = CARTESIAN_POINT ( 'NONE',  ( 0.000000000000000000, 0.000000000000000000, 15.07499999999999396 ) ) ;
#157 = APPLICATION_CONTEXT ( 'automotive_design' ) ;
#158 = LINE ( 'NONE', #834, #22 ) ;
#159 = ADVANCED_FACE ( 'NONE', ( #400 ), #814, .T. ) ;
#160 = ORIENTED_EDGE ( 'NONE', *, *, #694, .F. ) ;
#161 = LINE ( 'NONE', #431, #381 ) ;
#162 = DIRECTION ( 'NONE',  ( 0.000000000000000000, 0.000000000000000000, -1.000000000000000000 ) ) ;
#163 = CARTESIAN_POINT ( 'NONE',  ( -0.4342314039556041672, -1.587500000000000355, 21.30785171744314610 ) ) ;
#164 = CARTESIAN_POINT ( 'NONE',  ( 0.000000000000000000, 0.000000000000000000, 21.18491914209798210 ) ) ;
#165 = DIRECTION ( 'NONE',  ( 0.000000000000000000, -0.000000000000000000, 1.000000000000000000 ) ) ;
#166 = COLOUR_RGB ( '',0.000000000000000000, 0.6980392156862744724, 0.7254901960784313486 ) ;
#167 = AXIS2_PLACEMENT_3D ( 'NONE', #874, #203, #390 ) ;
#168 = LINE ( 'NONE', #640, #601 ) ;
#169 = CIRCLE ( 'NONE', #883, 2.399999999999999911 ) ;
#170 = CARTESIAN_POINT ( 'NONE',  ( -1.587500000000000355, 1.268411506570323644, 21.18491914209798210 ) ) ;
#171 = CARTESIAN_POINT ( 'NONE',  ( 1.587500000000000355, -0.8513200635100123259, 21.26637755531811180 ) ) ;
#172 = ORIENTED_EDGE ( 'NONE', *, *, #436, .T. ) ;
#173 = LINE ( 'NONE', #318, #526 ) ;
#174 = EDGE_CURVE ( 'NONE', #806, #84, #182, .T. ) ;
#175 = FACE_BOUND ( 'NONE', #532, .T. ) ;
#176 = ORIENTED_EDGE ( 'NONE', *, *, #546, .F. ) ;
#177 = CARTESIAN_POINT ( 'NONE',  ( -2.399999999999999911, 2.939152317953647106E-16, 15.87499999999999645 ) ) ;
#178 = DIRECTION ( 'NONE',  ( 0.000000000000000000, 1.000000000000000000, -0.000000000000000000 ) ) ;
#179 = DIRECTION ( 'NONE',  ( 0.000000000000000000, 0.000000000000000000, -1.000000000000000000 ) ) ;
#180 = ORIENTED_EDGE ( 'NONE', *, *, #465, .T. ) ;
#181 = CARTESIAN_POINT ( 'NONE',  ( -1.587500000000000355, -0.4276219574846464866, 21.30199639200008832 ) ) ;
#182 = CIRCLE ( 'NONE', #412, 2.032000000000000028 ) ;
#183 = CIRCLE ( 'NONE', #732, 2.032000000000000028 ) ;
#184 = CARTESIAN_POINT ( 'NONE',  ( 1.268411506570323866, -1.587500000000000355, 15.87499999999999645 ) ) ;
#185 = FACE_OUTER_BOUND ( 'NONE', #347, .T. ) ;
#186 = VERTEX_POINT ( 'NONE', #471 ) ;
#187 = DIRECTION ( 'NONE',  ( 0.000000000000000000, -1.000000000000000000, 0.000000000000000000 ) ) ;
#188 = EDGE_CURVE ( 'NONE', #94, #84, #132, .T. ) ;
#189 = CARTESIAN_POINT ( 'NONE',  ( -1.060147506033616516, 1.587500000000000133, 21.23674669625517097 ) ) ;
#190 = CARTESIAN_POINT ( 'NONE',  ( 1.587500000000000355, -1.061392899157111769, 21.23643677385166129 ) ) ;
#191 = EDGE_CURVE ( 'NONE', #206, #408, #362, .T. ) ;
#192 = ORIENTED_EDGE ( 'NONE', *, *, #281, .F. ) ;
#193 = CARTESIAN_POINT ( 'NONE',  ( 0.000000000000000000, 0.000000000000000000, 21.33599999999999497 ) ) ;
#194 = DIRECTION ( 'NONE',  ( 1.000000000000000000, 0.000000000000000000, 0.000000000000000000 ) ) ;
#195 = CIRCLE ( 'NONE', #711, 2.032000000000000028 ) ;
#196 = EDGE_LOOP ( 'NONE', ( #477, #478, #888, #366 ) ) ;
#197 = FACE_OUTER_BOUND ( 'NONE', #71, .T. ) ;
#198 = EDGE_CURVE ( 'NONE', #124, #6, #689, .T. ) ;
#199 = DIRECTION ( 'NONE',  ( 1.000000000000000000, 0.000000000000000000, 0.000000000000000000 ) ) ;
#200 = DIRECTION ( 'NONE',  ( 1.224646799147353207E-16, -1.000000000000000000, 0.000000000000000000 ) ) ;
#201 = ORIENTED_EDGE ( 'NONE', *, *, #670, .F. ) ;
#202 = EDGE_CURVE ( 'NONE', #445, #521, #398, .T. ) ;
#203 = DIRECTION ( 'NONE',  ( 0.000000000000000000, -1.000000000000000000, 0.000000000000000000 ) ) ;
#204 = CARTESIAN_POINT ( 'NONE',  ( 1.587500000000000355, 0.4276219574846464866, 21.30199639200008832 ) ) ;
#205 = ORIENTED_EDGE ( 'NONE', *, *, #615, .F. ) ;
#206 = VERTEX_POINT ( 'NONE', #100 ) ;
#207 = DIRECTION ( 'NONE',  ( -0.000000000000000000, -0.000000000000000000, 1.000000000000000000 ) ) ;
#208 = AXIS2_PLACEMENT_3D ( 'NONE', #391, #458, #737 ) ;
#209 = AXIS2_PLACEMENT_3D ( 'NONE', #780, #237, #427 ) ;
#210 = VECTOR ( 'NONE', #63, 1000.000000000000000 ) ;
#211 = ORIENTED_EDGE ( 'NONE', *, *, #24, .F. ) ;
#212 = EDGE_CURVE ( 'NONE', #293, #724, #542, .T. ) ;
#213 = CARTESIAN_POINT ( 'NONE',  ( 1.587500000000000355, 0.000000000000000000, -21.30822736169286102 ) ) ;
#214 = CARTESIAN_POINT ( 'NONE',  ( 0.8486262390323825455, -1.587500000000000577, 21.26676882282394132 ) ) ;
#215 = UNCERTAINTY_MEASURE_WITH_UNIT (LENGTH_MEASURE( 1.000000000000000082E-05 ), #821, 'distance_accuracy_value', 'NONE');
#216 = ORIENTED_EDGE ( 'NONE', *, *, #247, .F. ) ;
#217 = CARTESIAN_POINT ( 'NONE',  ( 1.268411506570323644, 1.587500000000000355, 21.18491914209798210 ) ) ;
#218 = CARTESIAN_POINT ( 'NONE',  ( 0.000000000000000000, 0.000000000000000000, 15.87499999999999645 ) ) ;
#219 = B_SPLINE_CURVE_WITH_KNOTS ( 'NONE', 3,
 ( #562, #831, #8, #220, #828, #213 ),
 .UNSPECIFIED., .F., .F.,
 ( 4, 2, 4 ),
 ( 0.01485345774306994979, 0.01548163471194352082, 0.01610981168081709186 ),
 .UNSPECIFIED. ) ;
#220 = CARTESIAN_POINT ( 'NONE',  ( 1.587500000000000355, -0.4276219574846464866, -21.30199639200008832 ) ) ;
#221 = ORIENTED_EDGE ( 'NONE', *, *, #106, .T. ) ;
#222 = ORIENTED_EDGE ( 'NONE', *, *, #549, .F. ) ;
#223 = DIRECTION ( 'NONE',  ( 1.000000000000000000, 0.000000000000000000, 0.000000000000000000 ) ) ;
#224 = CIRCLE ( 'NONE', #51, 2.125000000000022649 ) ;
#225 = CARTESIAN_POINT ( 'NONE',  ( -1.587500000000000355, 1.061392899157111769, 21.23643677385166129 ) ) ;
#226 = ADVANCED_FACE ( 'NONE', ( #583 ), #296, .F. ) ;
#227 = ADVANCED_FACE ( 'NONE', ( #505 ), #93, .T. ) ;
#228 = AXIS2_PLACEMENT_3D ( 'NONE', #461, #275, #340 ) ;
#229 = CARTESIAN_POINT ( 'NONE',  ( 0.4219230645619490017, -1.587500000000000577, 21.30230730355362212 ) ) ;
#230 = VECTOR ( 'NONE', #36, 1000.000000000000000 ) ;
#231 = ORIENTED_EDGE ( 'NONE', *, *, #371, .F. ) ;
#232 = DIRECTION ( 'NONE',  ( -0.000000000000000000, -0.000000000000000000, -1.000000000000000000 ) ) ;
#233 = CARTESIAN_POINT ( 'NONE',  ( -1.587500000000000355, -1.268411506570323866, 21.18491914209798210 ) ) ;
#234 = EDGE_CURVE ( 'NONE', #752, #20, #405, .T. ) ;
#235 = VERTEX_POINT ( 'NONE', #30 ) ;
#236 = ORIENTED_EDGE ( 'NONE', *, *, #695, .T. ) ;
#237 = DIRECTION ( 'NONE',  ( -1.000000000000000000, 0.000000000000000000, 0.000000000000000000 ) ) ;
#238 = DIRECTION ( 'NONE',  ( -0.000000000000000000, -0.000000000000000000, 1.000000000000000000 ) ) ;
#239 = ORIENTED_EDGE ( 'NONE', *, *, #147, .T. ) ;
#240 = FACE_OUTER_BOUND ( 'NONE', #333, .T. ) ;
#241 = DIRECTION ( 'NONE',  ( 0.000000000000000000, 0.000000000000000000, -1.000000000000000000 ) ) ;
#242 = PRODUCT_DEFINITION_FORMATION_WITH_SPECIFIED_SOURCE ( 'ANY', '', #325, .NOT_KNOWN. ) ;
#243 = DIRECTION ( 'NONE',  ( -0.000000000000000000, -0.000000000000000000, 1.000000000000000000 ) ) ;
#244 = TOROIDAL_SURFACE ( 'NONE', #760, 1.245064030267288402, 2.125000000000022649 ) ;
#245 = EDGE_LOOP ( 'NONE', ( #205, #239, #250, #422, #829, #73, #392, #880 ) ) ;
#246 = PLANE ( 'NONE',  #209 ) ;
#247 = EDGE_CURVE ( 'NONE', #6, #638, #168, .T. ) ;
#248 = DIRECTION ( 'NONE',  ( 1.000000000000000000, 0.000000000000000000, 0.000000000000000000 ) ) ;
#249 = CARTESIAN_POINT ( 'NONE',  ( -1.268411506570323866, -1.587500000000000355, 15.87499999999999645 ) ) ;
#250 = ORIENTED_EDGE ( 'NONE', *, *, #861, .T. ) ;
#251 = DIRECTION ( 'NONE',  ( -0.000000000000000000, -0.000000000000000000, -1.000000000000000000 ) ) ;
#252 = CARTESIAN_POINT ( 'NONE',  ( 1.587500000000000133, -0.2143109880596212047, 21.30822736169286102 ) ) ;
#253 = ORIENTED_EDGE ( 'NONE', *, *, #487, .T. ) ;
#254 = CARTESIAN_POINT ( 'NONE',  ( 0.000000000000000000, 0.000000000000000000, 21.18491914209798210 ) ) ;
#255 = DIRECTION ( 'NONE',  ( 0.000000000000000000, 1.000000000000000000, 0.000000000000000000 ) ) ;
#256 = ADVANCED_FACE ( 'NONE', ( #855 ), #246, .F. ) ;
#257 = AXIS2_PLACEMENT_3D ( 'NONE', #107, #255, #319 ) ;
#258 = ORIENTED_EDGE ( 'NONE', *, *, #11, .F. ) ;
#259 = CARTESIAN_POINT ( 'NONE',  ( -1.587500000000000355, -1.587500000000000355, 15.07499999999999574 ) ) ;
#260 = AXIS2_PLACEMENT_3D ( 'NONE', #704, #497, #88 ) ;
#261 = AXIS2_PLACEMENT_3D ( 'NONE', #404, #537, #811 ) ;
#262 = CARTESIAN_POINT ( 'NONE',  ( 1.587500000000000355, -1.268411506570323866, 15.87499999999999645 ) ) ;
#263 = DIRECTION ( 'NONE',  ( -0.000000000000000000, -0.000000000000000000, 1.000000000000000000 ) ) ;
#264 = ORIENTED_EDGE ( 'NONE', *, *, #751, .F. ) ;
#265 = DIRECTION ( 'NONE',  ( 1.000000000000000000, 0.000000000000000000, 0.000000000000000000 ) ) ;
#266 =( NAMED_UNIT ( * ) PLANE_ANGLE_UNIT ( ) SI_UNIT ( $, .RADIAN. ) );
#267 = ORIENTED_EDGE ( 'NONE', *, *, #487, .F. ) ;
#268 = PLANE ( 'NONE',  #261 ) ;
#269 = CARTESIAN_POINT ( 'NONE',  ( -1.268411506570323866, 1.587500000000000355, 21.18491914209798210 ) ) ;
#270 = DIRECTION ( 'NONE',  ( -0.000000000000000000, -0.000000000000000000, -1.000000000000000000 ) ) ;
#271 = ORIENTED_EDGE ( 'NONE', *, *, #702, .F. ) ;
#272 = PRESENTATION_LAYER_ASSIGNMENT (  '', '', ( #826 ) ) ;
#273 = ADVANCED_FACE ( 'NONE', ( #767 ), #311, .T. ) ;
#274 = VECTOR ( 'NONE', #864, 1000.000000000000000 ) ;
#275 = DIRECTION ( 'NONE',  ( -0.000000000000000000, -0.000000000000000000, 1.000000000000000000 ) ) ;
#276 = ORIENTED_EDGE ( 'NONE', *, *, #291, .F. ) ;
#277 = CARTESIAN_POINT ( 'NONE',  ( -1.587500000000000577, 0.8514389605504939507, -21.26636751577920492 ) ) ;
#278 = ORIENTED_EDGE ( 'NONE', *, *, #600, .F. ) ;
#279 = CARTESIAN_POINT ( 'NONE',  ( 0.000000000000000000, 0.000000000000000000, -21.18491914209798210 ) ) ;
#280 = ADVANCED_FACE ( 'NONE', ( #435, #95 ), #719, .T. ) ;
#281 = EDGE_CURVE ( 'NONE', #388, #764, #142, .T. ) ;
#282 = EDGE_LOOP ( 'NONE', ( #688, #841, #221, #746, #176, #468, #643, #278 ) ) ;
#283 = PRESENTATION_LAYER_ASSIGNMENT (  '', '', ( #313 ) ) ;
#284 = AXIS2_PLACEMENT_3D ( 'NONE', #830, #535, #466 ) ;
#285 = AXIS2_PLACEMENT_3D ( 'NONE', #442, #720, #374 ) ;
#286 = CARTESIAN_POINT ( 'NONE',  ( -0.2043756380772878412, 1.587500000000000133, 21.30840961896379326 ) ) ;
#287 = CARTESIAN_POINT ( 'NONE',  ( 1.587500000000000355, 0.2143109880596212047, -21.30822736169286102 ) ) ;
#288 = VERTEX_POINT ( 'NONE', #578 ) ;
#289 = ORIENTED_EDGE ( 'NONE', *, *, #571, .T. ) ;
#290 = CARTESIAN_POINT ( 'NONE',  ( -1.268411506570323866, 1.587500000000000355, -21.18491914209798210 ) ) ;
#291 = EDGE_CURVE ( 'NONE', #521, #810, #161, .T. ) ;
#292 = CARTESIAN_POINT ( 'NONE',  ( -1.587500000000000355, -1.944126793646423534E-16, 21.30822736169286102 ) ) ;
#293 = VERTEX_POINT ( 'NONE', #575 ) ;
#294 = ORIENTED_EDGE ( 'NONE', *, *, #9, .T. ) ;
#295 = B_SPLINE_CURVE_WITH_KNOTS ( 'NONE', 3,
 ( #769, #287, #77, #763, #74, #148 ),
 .UNSPECIFIED., .F., .F.,
 ( 4, 2, 4 ),
 ( 0.000000000000000000, 0.0006365870327257439716, 0.001273174065451487726 ),
 .UNSPECIFIED. ) ;
#296 = PLANE ( 'NONE',  #771 ) ;
#297 = AXIS2_PLACEMENT_3D ( 'NONE', #520, #802, #395 ) ;
#298 = CARTESIAN_POINT ( 'NONE',  ( -1.587500000000000355, 1.587500000000000355, 21.33599999999999852 ) ) ;
#299 = AXIS2_PLACEMENT_3D ( 'NONE', #650, #441, #568 ) ;
#300 = CIRCLE ( 'NONE', #774, 2.032000000000000028 ) ;
#301 = ORIENTED_EDGE ( 'NONE', *, *, #385, .T. ) ;
#302 = DIRECTION ( 'NONE',  ( 0.000000000000000000, 0.000000000000000000, -1.000000000000000000 ) ) ;
#303 = FACE_OUTER_BOUND ( 'NONE', #196, .T. ) ;
#304 = ORIENTED_EDGE ( 'NONE', *, *, #78, .T. ) ;
#305 = DIRECTION ( 'NONE',  ( 1.000000000000000000, 0.000000000000000000, -0.000000000000000000 ) ) ;
#306 = CARTESIAN_POINT ( 'NONE',  ( 1.268411506570323866, 1.587500000000000355, 15.87499999999999645 ) ) ;
#307 = LINE ( 'NONE', #32, #815 ) ;
#308 = PRODUCT_DEFINITION ( 'UNKNOWN', '', #242, #80 ) ;
#309 = EDGE_CURVE ( 'NONE', #752, #445, #842, .T. ) ;
#310 = ORIENTED_EDGE ( 'NONE', *, *, #212, .F. ) ;
#311 = CYLINDRICAL_SURFACE ( 'NONE', #632, 2.032000000000000028 ) ;
#312 = DIRECTION ( 'NONE',  ( 0.000000000000000000, 0.000000000000000000, 1.000000000000000000 ) ) ;
#313 = STYLED_ITEM ( 'NONE', ( #618 ), #574 ) ;
#314 = CARTESIAN_POINT ( 'NONE',  ( 0.000000000000000000, 0.000000000000000000, -21.33599999999999852 ) ) ;
#315 = LINE ( 'NONE', #462, #687 ) ;
#316 = VECTOR ( 'NONE', #800, 1000.000000000000000 ) ;
#317 = ORIENTED_EDGE ( 'NONE', *, *, #188, .F. ) ;
#318 = CARTESIAN_POINT ( 'NONE',  ( 1.268411506570323866, -1.587500000000000355, -21.33599999999999852 ) ) ;
#319 = DIRECTION ( 'NONE',  ( 0.000000000000000000, -0.000000000000000000, 1.000000000000000000 ) ) ;
#320 = ORIENTED_EDGE ( 'NONE', *, *, #835, .F. ) ;
#321 = DIRECTION ( 'NONE',  ( -0.000000000000000000, -0.000000000000000000, 1.000000000000000000 ) ) ;
#322 = ADVANCED_FACE ( 'NONE', ( #240 ), #244, .T. ) ;
#323 = DIRECTION ( 'NONE',  ( 0.000000000000000000, 0.000000000000000000, 1.000000000000000000 ) ) ;
#324 = EDGE_LOOP ( 'NONE', ( #222, #396 ) ) ;
#325 = PRODUCT ( '228-2500-094', '228-2500-094', '', ( #853 ) ) ;
#326 = LINE ( 'NONE', #599, #489 ) ;
#327 = ORIENTED_EDGE ( 'NONE', *, *, #202, .F. ) ;
#328 = CARTESIAN_POINT ( 'NONE',  ( 0.000000000000000000, 0.000000000000000000, 19.21099999999997365 ) ) ;
#329 = CIRCLE ( 'NONE', #493, 2.032000000000000028 ) ;
#330 = AXIS2_PLACEMENT_3D ( 'NONE', #492, #503, #23 ) ;
#331 = CARTESIAN_POINT ( 'NONE',  ( 1.587500000000000355, 0.000000000000000000, 21.30822736169286102 ) ) ;
#332 = EDGE_CURVE ( 'NONE', #388, #103, #460, .T. ) ;
#333 = EDGE_LOOP ( 'NONE', ( #356, #588, #859, #145, #383, #271, #160, #854 ) ) ;
#334 = DIRECTION ( 'NONE',  ( 0.000000000000000000, 0.000000000000000000, -1.000000000000000000 ) ) ;
#335 = DIRECTION ( 'NONE',  ( -0.000000000000000000, -0.000000000000000000, -1.000000000000000000 ) ) ;
#336 = CARTESIAN_POINT ( 'NONE',  ( -1.587500000000000355, -1.587500000000000355, 15.87499999999999645 ) ) ;
#337 = ORIENTED_EDGE ( 'NONE', *, *, #402, .T. ) ;
#338 = DIRECTION ( 'NONE',  ( 1.000000000000000000, 0.000000000000000000, 0.000000000000000000 ) ) ;
#339 = ADVANCED_FACE ( 'NONE', ( #735 ), #714, .T. ) ;
#340 = DIRECTION ( 'NONE',  ( 1.000000000000000000, 0.000000000000000000, 0.000000000000000000 ) ) ;
#341 = DIRECTION ( 'NONE',  ( 0.000000000000000000, 0.000000000000000000, -1.000000000000000000 ) ) ;
#342 = ORIENTED_EDGE ( 'NONE', *, *, #139, .T. ) ;
#343 = CIRCLE ( 'NONE', #715, 2.032000000000000028 ) ;
#344 = PRESENTATION_STYLE_ASSIGNMENT (( #666 ) ) ;
#345 = EDGE_LOOP ( 'NONE', ( #258, #825, #649, #172 ) ) ;
#346 = EDGE_CURVE ( 'NONE', #681, #607, #70, .T. ) ;
#347 = EDGE_LOOP ( 'NONE', ( #639, #372, #16, #289 ) ) ;
#348 = EDGE_CURVE ( 'NONE', #806, #440, #446, .T. ) ;
#349 = FACE_OUTER_BOUND ( 'NONE', #282, .T. ) ;
#350 = ORIENTED_EDGE ( 'NONE', *, *, #147, .F. ) ;
#351 = ORIENTED_EDGE ( 'NONE', *, *, #847, .T. ) ;
#352 = DIRECTION ( 'NONE',  ( 0.000000000000000000, 0.000000000000000000, 1.000000000000000000 ) ) ;
#353 = EDGE_CURVE ( 'NONE', #440, #611, #661, .T. ) ;
#354 = CARTESIAN_POINT ( 'NONE',  ( 0.4219230645619490017, 1.587500000000000577, -21.30230730355362212 ) ) ;
#355 = DIRECTION ( 'NONE',  ( 0.000000000000000000, 0.000000000000000000, -1.000000000000000000 ) ) ;
#356 = ORIENTED_EDGE ( 'NONE', *, *, #797, .T. ) ;
#357 = CARTESIAN_POINT ( 'NONE',  ( 0.8486262390323825455, 1.587500000000000577, -21.26676882282394132 ) ) ;
#358 = DIRECTION ( 'NONE',  ( -1.000000000000000000, 0.000000000000000000, -0.000000000000000000 ) ) ;
#359 = VERTEX_POINT ( 'NONE', #397 ) ;
#360 = DIRECTION ( 'NONE',  ( 1.000000000000000000, 0.000000000000000000, 0.000000000000000000 ) ) ;
#361 = CARTESIAN_POINT ( 'NONE',  ( -1.587500000000000577, 0.4277385810629842910, 21.30198654358310861 ) ) ;
#362 = CIRCLE ( 'NONE', #152, 2.032000000000000028 ) ;
#363 = B_SPLINE_CURVE_WITH_KNOTS ( 'NONE', 3,
 ( #758, #401, #277, #550, #61, #684 ),
 .UNSPECIFIED., .F., .F.,
 ( 4, 2, 4 ),
 ( 0.01485345774306994979, 0.01548163471194352082, 0.01610981168081709186 ),
 .UNSPECIFIED. ) ;
#364 = CARTESIAN_POINT ( 'NONE',  ( 1.060147506033616516, -1.587500000000000133, 21.23674669625517097 ) ) ;
#365 = VECTOR ( 'NONE', #312, 1000.000000000000000 ) ;
#366 = ORIENTED_EDGE ( 'NONE', *, *, #695, .F. ) ;
#367 = DIRECTION ( 'NONE',  ( 0.000000000000000000, 0.000000000000000000, -1.000000000000000000 ) ) ;
#368 = PLANE ( 'NONE',  #495 ) ;
#369 = EDGE_CURVE ( 'NONE', #764, #20, #115, .T. ) ;
#370 = CARTESIAN_POINT ( 'NONE',  ( -0.8486262390323825455, -1.587500000000000577, -21.26676882282394132 ) ) ;
#371 = EDGE_CURVE ( 'NONE', #415, #103, #343, .T. ) ;
#372 = ORIENTED_EDGE ( 'NONE', *, *, #885, .T. ) ;
#373 = CARTESIAN_POINT ( 'NONE',  ( 0.2043756380772878412, 1.587500000000000133, -21.30840961896379326 ) ) ;
#374 = DIRECTION ( 'NONE',  ( 1.000000000000000000, 0.000000000000000000, 0.000000000000000000 ) ) ;
#375 = LINE ( 'NONE', #655, #881 ) ;
#376 = ORIENTED_EDGE ( 'NONE', *, *, #670, .T. ) ;
#377 = CARTESIAN_POINT ( 'NONE',  ( 0.000000000000000000, 0.000000000000000000, -21.18491914209798210 ) ) ;
#378 = CARTESIAN_POINT ( 'NONE',  ( -0.2043756380772878412, -1.587500000000000133, -21.30840961896379326 ) ) ;
#379 = PLANE ( 'NONE',  #539 ) ;
#380 = EDGE_CURVE ( 'NONE', #20, #728, #690, .T. ) ;
#381 = VECTOR ( 'NONE', #302, 1000.000000000000000 ) ;
#382 = VECTOR ( 'NONE', #705, 1000.000000000000000 ) ;
#383 = ORIENTED_EDGE ( 'NONE', *, *, #234, .F. ) ;
#384 = DIRECTION ( 'NONE',  ( 1.000000000000000000, 0.000000000000000000, 0.000000000000000000 ) ) ;
#385 = EDGE_CURVE ( 'NONE', #611, #155, #76, .T. ) ;
#386 = SURFACE_SIDE_STYLE ('',( #731 ) ) ;
#387 = CARTESIAN_POINT ( 'NONE',  ( 1.587500000000000355, 0.000000000000000000, 21.30822736169286102 ) ) ;
#388 = VERTEX_POINT ( 'NONE', #877 ) ;
#389 = DIRECTION ( 'NONE',  ( -0.000000000000000000, -0.000000000000000000, 1.000000000000000000 ) ) ;
#390 = DIRECTION ( 'NONE',  ( 0.000000000000000000, -0.000000000000000000, -1.000000000000000000 ) ) ;
#391 = CARTESIAN_POINT ( 'NONE',  ( 0.000000000000000000, 0.000000000000000000, -21.33599999999999852 ) ) ;
#392 = ORIENTED_EDGE ( 'NONE', *, *, #500, .F. ) ;
#393 = FACE_OUTER_BOUND ( 'NONE', #867, .T. ) ;
#394 = CARTESIAN_POINT ( 'NONE',  ( 0.8571092511719563545, 1.587500000000000355, 21.28727379706277389 ) ) ;
#395 = DIRECTION ( 'NONE',  ( 1.000000000000000000, 0.000000000000000000, 0.000000000000000000 ) ) ;
#396 = ORIENTED_EDGE ( 'NONE', *, *, #346, .F. ) ;
#397 = CARTESIAN_POINT ( 'NONE',  ( 2.399999999999999911, 0.000000000000000000, 15.87499999999999645 ) ) ;
#398 = CIRCLE ( 'NONE', #299, 2.032000000000000028 ) ;
#399 = CIRCLE ( 'NONE', #112, 2.399999999999999911 ) ;
#400 = FACE_OUTER_BOUND ( 'NONE', #345, .T. ) ;
#401 = CARTESIAN_POINT ( 'NONE',  ( -1.587500000000000133, 1.061532360077855452, -21.23640206829358590 ) ) ;
#402 = EDGE_CURVE ( 'NONE', #445, #764, #111, .T. ) ;
#403 = ORIENTED_EDGE ( 'NONE', *, *, #656, .T. ) ;
#404 = CARTESIAN_POINT ( 'NONE',  ( 1.587500000000000355, -1.587500000000000355, 21.33599999999999852 ) ) ;
#405 = B_SPLINE_CURVE_WITH_KNOTS ( 'NONE', 3,
 ( #5, #778, #357, #354, #373, #636, #12, #290 ),
 .UNSPECIFIED., .F., .F.,
 ( 4, 2, 2, 4 ),
 ( 0.01485345774306994979, 0.01548583974386960604, 0.01611822174466926577, 0.01738298574626857829 ),
 .UNSPECIFIED. ) ;
#406 =( LENGTH_UNIT ( ) NAMED_UNIT ( * ) SI_UNIT ( .MILLI., .METRE. ) );
#407 = ORIENTED_EDGE ( 'NONE', *, *, #402, .F. ) ;
#408 = VERTEX_POINT ( 'NONE', #528 ) ;
#409 = CARTESIAN_POINT ( 'NONE',  ( 0.000000000000000000, 0.000000000000000000, 21.33599999999999497 ) ) ;
#410 = AXIS2_PLACEMENT_3D ( 'NONE', #727, #591, #43 ) ;
#411 = VERTEX_POINT ( 'NONE', #177 ) ;
#412 = AXIS2_PLACEMENT_3D ( 'NONE', #753, #335, #199 ) ;
#413 = VECTOR ( 'NONE', #593, 1000.000000000000000 ) ;
#414 = LINE ( 'NONE', #1, #824 ) ;
#415 = VERTEX_POINT ( 'NONE', #119 ) ;
#416 = FACE_OUTER_BOUND ( 'NONE', #603, .T. ) ;
#417 = CARTESIAN_POINT ( 'NONE',  ( 1.587500000000000355, 0.000000000000000000, 21.30822736169286102 ) ) ;
#418 = CARTESIAN_POINT ( 'NONE',  ( 0.2043756380772878412, -1.587500000000000133, 21.30840961896379326 ) ) ;
#419 = CARTESIAN_POINT ( 'NONE',  ( 0.000000000000000000, 0.000000000000000000, 15.87499999999999645 ) ) ;
#420 = CARTESIAN_POINT ( 'NONE',  ( -1.587500000000000355, -1.268411506570323866, -21.33599999999999852 ) ) ;
#421 = UNCERTAINTY_MEASURE_WITH_UNIT (LENGTH_MEASURE( 1.000000000000000082E-05 ), #406, 'distance_accuracy_value', 'NONE');
#422 = ORIENTED_EDGE ( 'NONE', *, *, #656, .F. ) ;
#423 = DIRECTION ( 'NONE',  ( 0.000000000000000000, 0.000000000000000000, -1.000000000000000000 ) ) ;
#424 = CARTESIAN_POINT ( 'NONE',  ( -1.268411506570323866, 1.587500000000000355, 15.87499999999999645 ) ) ;
#425 = AXIS2_PLACEMENT_3D ( 'NONE', #698, #755, #691 ) ;
#426 = EDGE_CURVE ( 'NONE', #130, #293, #794, .T. ) ;
#427 = DIRECTION ( 'NONE',  ( 0.000000000000000000, 0.000000000000000000, 1.000000000000000000 ) ) ;
#428 = LINE ( 'NONE', #710, #382 ) ;
#429 = DIRECTION ( 'NONE',  ( 0.000000000000000000, 0.000000000000000000, 1.000000000000000000 ) ) ;
#430 = EDGE_LOOP ( 'NONE', ( #62, #685, #3, #817, #577, #310, #863, #49 ) ) ;
#431 = CARTESIAN_POINT ( 'NONE',  ( 1.587500000000000355, 1.268411506570323866, -21.33599999999999852 ) ) ;
#432 = DIRECTION ( 'NONE',  ( 1.000000000000000000, 0.000000000000000000, 0.000000000000000000 ) ) ;
#433 = CARTESIAN_POINT ( 'NONE',  ( -0.8571092511719563545, -1.587500000000000355, 21.28727379706277389 ) ) ;
#434 = EDGE_CURVE ( 'NONE', #592, #638, #658, .T. ) ;
#435 = FACE_BOUND ( 'NONE', #81, .T. ) ;
#436 = EDGE_CURVE ( 'NONE', #724, #64, #173, .T. ) ;
#437 = DIRECTION ( 'NONE',  ( -1.000000000000000000, 0.000000000000000000, 0.000000000000000000 ) ) ;
#438 = CARTESIAN_POINT ( 'NONE',  ( -1.587500000000000355, 1.268411506570323866, -21.33599999999999852 ) ) ;
#439 = AXIS2_PLACEMENT_3D ( 'NONE', #409, #545, #67 ) ;
#440 = VERTEX_POINT ( 'NONE', #860 ) ;
#441 = DIRECTION ( 'NONE',  ( -0.000000000000000000, -0.000000000000000000, -1.000000000000000000 ) ) ;
#442 = CARTESIAN_POINT ( 'NONE',  ( 0.000000000000000000, 0.000000000000000000, 15.07499999999999574 ) ) ;
#443 = FACE_OUTER_BOUND ( 'NONE', #25, .T. ) ;
#444 = CARTESIAN_POINT ( 'NONE',  ( -1.587500000000000355, 1.944126793646423534E-16, -21.30822736169286102 ) ) ;
#445 = VERTEX_POINT ( 'NONE', #604 ) ;
#446 = LINE ( 'NONE', #518, #621 ) ;
#447 = LINE ( 'NONE', #123, #523 ) ;
#448 = EDGE_CURVE ( 'NONE', #607, #359, #450, .T. ) ;
#449 = ORIENTED_EDGE ( 'NONE', *, *, #751, .T. ) ;
#450 = LINE ( 'NONE', #729, #274 ) ;
#451 = LINE ( 'NONE', #438, #554 ) ;
#452 = ADVANCED_FACE ( 'NONE', ( #393 ), #674, .F. ) ;
#453 = CARTESIAN_POINT ( 'NONE',  ( 1.587500000000000355, 1.268411506570323866, -21.18491914209798210 ) ) ;
#454 =( GEOMETRIC_REPRESENTATION_CONTEXT ( 3 ) GLOBAL_UNCERTAINTY_ASSIGNED_CONTEXT ( ( #765 ) ) GLOBAL_UNIT_ASSIGNED_CONTEXT ( ( #122, #610, #808 ) ) REPRESENTATION_CONTEXT ( 'NONE', 'WORKASPACE' ) );
#455 = AXIS2_PLACEMENT_3D ( 'NONE', #328, #464, #125 ) ;
#456 = ORIENTED_EDGE ( 'NONE', *, *, #369, .F. ) ;
#457 = CARTESIAN_POINT ( 'NONE',  ( -1.587500000000000355, 1.587500000000000355, 15.07499999999999574 ) ) ;
#458 = DIRECTION ( 'NONE',  ( -0.000000000000000000, -0.000000000000000000, 1.000000000000000000 ) ) ;
#459 = EDGE_LOOP ( 'NONE', ( #304, #58, #114, #772 ) ) ;
#460 = LINE ( 'NONE', #259, #856 ) ;
#461 = CARTESIAN_POINT ( 'NONE',  ( 0.000000000000000000, 0.000000000000000000, -21.33599999999999852 ) ) ;
#462 = CARTESIAN_POINT ( 'NONE',  ( 1.587500000000000355, -1.587500000000000355, 15.07499999999999574 ) ) ;
#463 = ORIENTED_EDGE ( 'NONE', *, *, #332, .F. ) ;
#464 = DIRECTION ( 'NONE',  ( 0.000000000000000000, 0.000000000000000000, -1.000000000000000000 ) ) ;
#465 = EDGE_CURVE ( 'NONE', #504, #803, #555, .T. ) ;
#466 = DIRECTION ( 'NONE',  ( 1.000000000000000000, 0.000000000000000000, 0.000000000000000000 ) ) ;
#467 = CARTESIAN_POINT ( 'NONE',  ( 1.587500000000000355, 0.2114796877013869481, 21.30822736169286102 ) ) ;
#468 = ORIENTED_EDGE ( 'NONE', *, *, #139, .F. ) ;
#469 = LINE ( 'NONE', #682, #210 ) ;
#470 = AXIS2_PLACEMENT_3D ( 'NONE', #644, #27, #85 ) ;
#471 = CARTESIAN_POINT ( 'NONE',  ( 1.268411506570323199, -1.587500000000000355, 15.07499999999999574 ) ) ;
#472 = CARTESIAN_POINT ( 'NONE',  ( 1.245064030267288402, 0.000000000000000000, -19.21099999999997365 ) ) ;
#473 = VERTEX_POINT ( 'NONE', #613 ) ;
#474 = DIRECTION ( 'NONE',  ( -0.000000000000000000, -0.000000000000000000, 1.000000000000000000 ) ) ;
#475 =( NAMED_UNIT ( * ) PLANE_ANGLE_UNIT ( ) SI_UNIT ( $, .RADIAN. ) );
#476 = ADVANCED_FACE ( 'NONE', ( #197 ), #268, .F. ) ;
#477 = ORIENTED_EDGE ( 'NONE', *, *, #590, .F. ) ;
#478 = ORIENTED_EDGE ( 'NONE', *, *, #346, .T. ) ;
#479 = DIRECTION ( 'NONE',  ( 1.000000000000000000, 0.000000000000000000, 0.000000000000000000 ) ) ;
#480 = AXIS2_PLACEMENT_3D ( 'NONE', #377, #608, #742 ) ;
#481 = CARTESIAN_POINT ( 'NONE',  ( 1.587500000000000577, 0.8514389605504939507, 21.26636751577920492 ) ) ;
#482 = CARTESIAN_POINT ( 'NONE',  ( -2.399999999999999911, 2.939152317953647106E-16, 15.07499999999999574 ) ) ;
#483 = CARTESIAN_POINT ( 'NONE',  ( -1.268411506570323866, 1.587500000000000355, -21.18491914209798210 ) ) ;
#484 = EDGE_LOOP ( 'NONE', ( #75, #29, #623, #26 ) ) ;
#485 = PLANE ( 'NONE',  #167 ) ;
#486 = CARTESIAN_POINT ( 'NONE',  ( 1.245064030267288402, 0.000000000000000000, 21.33599999999999497 ) ) ;
#487 = EDGE_CURVE ( 'NONE', #408, #110, #469, .T. ) ;
#488 = DIRECTION ( 'NONE',  ( 1.000000000000000000, 0.000000000000000000, 0.000000000000000000 ) ) ;
#489 = VECTOR ( 'NONE', #263, 1000.000000000000000 ) ;
#490 = VERTEX_POINT ( 'NONE', #131 ) ;
#491 = DIRECTION ( 'NONE',  ( 0.000000000000000000, 0.000000000000000000, 1.000000000000000000 ) ) ;
#492 = CARTESIAN_POINT ( 'NONE',  ( 0.000000000000000000, 0.000000000000000000, -21.18491914209798210 ) ) ;
#493 = AXIS2_PLACEMENT_3D ( 'NONE', #127, #869, #561 ) ;
#494 = B_SPLINE_CURVE_WITH_KNOTS ( 'NONE', 3,
 ( #444, #723, #509, #787, #667, #113 ),
 .UNSPECIFIED., .F., .F.,
 ( 4, 2, 4 ),
 ( 1.905938025164286877E-19, 0.0006365870327257439716, 0.001273174065451487726 ),
 .UNSPECIFIED. ) ;
#495 = AXIS2_PLACEMENT_3D ( 'NONE', #506, #355, #358 ) ;
#496 = ORIENTED_EDGE ( 'NONE', *, *, #702, .T. ) ;
#497 = DIRECTION ( 'NONE',  ( 0.000000000000000000, 0.000000000000000000, -1.000000000000000000 ) ) ;
#498 = DIRECTION ( 'NONE',  ( 0.000000000000000000, -0.000000000000000000, -1.000000000000000000 ) ) ;
#499 = CARTESIAN_POINT ( 'NONE',  ( 0.000000000000000000, 0.000000000000000000, 0.000000000000000000 ) ) ;
#500 = EDGE_CURVE ( 'NONE', #490, #87, #570, .T. ) ;
#501 = EDGE_LOOP ( 'NONE', ( #463, #536, #351, #706, #631 ) ) ;
#502 = DIRECTION ( 'NONE',  ( -0.000000000000000000, -0.000000000000000000, 1.000000000000000000 ) ) ;
#503 = DIRECTION ( 'NONE',  ( -0.000000000000000000, -0.000000000000000000, 1.000000000000000000 ) ) ;
#504 = VERTEX_POINT ( 'NONE', #486 ) ;
#505 = FACE_OUTER_BOUND ( 'NONE', #245, .T. ) ;
#506 = CARTESIAN_POINT ( 'NONE',  ( -1.587500000000000355, 1.587500000000000355, -21.33599999999999852 ) ) ;
#507 = CARTESIAN_POINT ( 'NONE',  ( -1.268411506570323866, -1.587500000000000355, -21.18491914209798210 ) ) ;
#508 = AXIS2_PLACEMENT_3D ( 'NONE', #164, #367, #82 ) ;
#509 = CARTESIAN_POINT ( 'NONE',  ( -1.587500000000000577, -0.4277385810629846241, -21.30198654358310861 ) ) ;
#510 = CIRCLE ( 'NONE', #425, 2.399999999999999911 ) ;
#511 = DIRECTION ( 'NONE',  ( 1.000000000000000000, 0.000000000000000000, 0.000000000000000000 ) ) ;
#512 = ORIENTED_EDGE ( 'NONE', *, *, #434, .F. ) ;
#513 = CARTESIAN_POINT ( 'NONE',  ( 1.587500000000000355, -1.268411506570323866, -21.33599999999999852 ) ) ;
#514 = EDGE_CURVE ( 'NONE', #94, #638, #183, .T. ) ;
#515 = CARTESIAN_POINT ( 'NONE',  ( 1.268411506570323644, 1.587500000000000355, 21.18491914209798210 ) ) ;
#516 = CARTESIAN_POINT ( 'NONE',  ( -1.587500000000000355, 1.268411506570323866, -21.18491914209798210 ) ) ;
#517 = EDGE_LOOP ( 'NONE', ( #180, #738 ) ) ;
#518 = CARTESIAN_POINT ( 'NONE',  ( -1.268411506570323866, -1.587500000000000355, -21.33599999999999852 ) ) ;
#519 = CARTESIAN_POINT ( 'NONE',  ( -1.060147506033616516, -1.587500000000000133, -21.23674669625517097 ) ) ;
#520 = CARTESIAN_POINT ( 'NONE',  ( 0.000000000000000000, 0.000000000000000000, -21.33599999999999497 ) ) ;
#521 = VERTEX_POINT ( 'NONE', #781 ) ;
#522 = CARTESIAN_POINT ( 'NONE',  ( 0.000000000000000000, 0.000000000000000000, 15.07499999999999574 ) ) ;
#523 = VECTOR ( 'NONE', #179, 1000.000000000000000 ) ;
#524 = CARTESIAN_POINT ( 'NONE',  ( 1.587500000000000355, 0.000000000000000000, -21.30822736169286102 ) ) ;
#525 = AXIS2_PLACEMENT_3D ( 'NONE', #150, #491, #305 ) ;
#526 = VECTOR ( 'NONE', #589, 1000.000000000000000 ) ;
#527 = ORIENTED_EDGE ( 'NONE', *, *, #291, .T. ) ;
#528 = CARTESIAN_POINT ( 'NONE',  ( 1.587500000000000355, -1.268411506570323866, -21.18491914209798210 ) ) ;
#529 = DIRECTION ( 'NONE',  ( 1.000000000000000000, 0.000000000000000000, 0.000000000000000000 ) ) ;
#530 = FACE_OUTER_BOUND ( 'NONE', #548, .T. ) ;
#531 = EDGE_CURVE ( 'NONE', #415, #186, #428, .T. ) ;
#532 = EDGE_LOOP ( 'NONE', ( #848, #734, #327, #337, #192, #668, #231, #625 ) ) ;
#533 = DIRECTION ( 'NONE',  ( -0.000000000000000000, -0.000000000000000000, 1.000000000000000000 ) ) ;
#534 = ADVANCED_FACE ( 'NONE', ( #97 ), #850, .F. ) ;
#535 = DIRECTION ( 'NONE',  ( -0.000000000000000000, -0.000000000000000000, 1.000000000000000000 ) ) ;
#536 = ORIENTED_EDGE ( 'NONE', *, *, #78, .F. ) ;
#537 = DIRECTION ( 'NONE',  ( -1.000000000000000000, 0.000000000000000000, 0.000000000000000000 ) ) ;
#538 = CARTESIAN_POINT ( 'NONE',  ( 0.4342314039556041672, 1.587500000000000355, 21.30785171744314610 ) ) ;
#539 = AXIS2_PLACEMENT_3D ( 'NONE', #662, #323, #594 ) ;
#540 = DIRECTION ( 'NONE',  ( 1.000000000000000000, 0.000000000000000000, 0.000000000000000000 ) ) ;
#541 = ORIENTED_EDGE ( 'NONE', *, *, #871, .T. ) ;
#542 = CIRCLE ( 'NONE', #508, 2.032000000000000028 ) ;
#543 = B_SPLINE_CURVE_WITH_KNOTS ( 'NONE', 3,
 ( #387, #252, #792, #171, #190, #102 ),
 .UNSPECIFIED., .F., .F.,
 ( 4, 2, 4 ),
 ( 0.000000000000000000, 0.0006365870327257437547, 0.001273174065451487509 ),
 .UNSPECIFIED. ) ;
#544 = AXIS2_PLACEMENT_3D ( 'NONE', #873, #265, #807 ) ;
#545 = DIRECTION ( 'NONE',  ( -0.000000000000000000, -0.000000000000000000, 1.000000000000000000 ) ) ;
#546 = EDGE_CURVE ( 'NONE', #35, #118, #300, .T. ) ;
#547 = SURFACE_STYLE_FILL_AREA ( #879 ) ;
#548 = EDGE_LOOP ( 'NONE', ( #253, #563, #872, #619 ) ) ;
#549 = EDGE_CURVE ( 'NONE', #607, #681, #169, .T. ) ;
#550 = CARTESIAN_POINT ( 'NONE',  ( -1.587500000000000355, 0.4276219574846464866, -21.30199639200008832 ) ) ;
#551 = ORIENTED_EDGE ( 'NONE', *, *, #885, .F. ) ;
#552 =( GEOMETRIC_REPRESENTATION_CONTEXT ( 3 ) GLOBAL_UNCERTAINTY_ASSIGNED_CONTEXT ( ( #215 ) ) GLOBAL_UNIT_ASSIGNED_CONTEXT ( ( #821, #475, #696 ) ) REPRESENTATION_CONTEXT ( 'NONE', 'WORKASPACE' ) );
#553 = EDGE_LOOP ( 'NONE', ( #44, #264, #741, #823 ) ) ;
#554 = VECTOR ( 'NONE', #580, 1000.000000000000000 ) ;
#555 = CIRCLE ( 'NONE', #827, 1.245064030267288402 ) ;
#556 = CARTESIAN_POINT ( 'NONE',  ( 0.000000000000000000, 0.000000000000000000, 19.21099999999997365 ) ) ;
#557 = B_SPLINE_CURVE_WITH_KNOTS ( 'NONE', 3,
 ( #837, #364, #214, #229, #418, #163, #433, #92 ),
 .UNSPECIFIED., .F., .F.,
 ( 4, 2, 2, 4 ),
 ( 0.01485345774306994979, 0.01548583974386960604, 0.01611822174466926577, 0.01738298574626857829 ),
 .UNSPECIFIED. ) ;
#558 = DIRECTION ( 'NONE',  ( 1.000000000000000000, 0.000000000000000000, 0.000000000000000000 ) ) ;
#559 = ADVANCED_FACE ( 'NONE', ( #713 ), #368, .T. ) ;
#560 = ADVANCED_FACE ( 'NONE', ( #86 ), #637, .T. ) ;
#561 = DIRECTION ( 'NONE',  ( 1.000000000000000000, 1.332267629550187849E-14, 0.000000000000000000 ) ) ;
#562 = CARTESIAN_POINT ( 'NONE',  ( 1.587500000000000355, -1.268411506570323866, -21.18491914209798210 ) ) ;
#563 = ORIENTED_EDGE ( 'NONE', *, *, #878, .T. ) ;
#564 = CARTESIAN_POINT ( 'NONE',  ( 0.000000000000000000, 0.000000000000000000, -21.33599999999999852 ) ) ;
#565 = CARTESIAN_POINT ( 'NONE',  ( 2.399999999999999911, 0.000000000000000000, 15.07499999999999574 ) ) ;
#566 = CARTESIAN_POINT ( 'NONE',  ( -1.268411506570323866, 1.587500000000000355, 21.18491914209798210 ) ) ;
#567 = ORIENTED_EDGE ( 'NONE', *, *, #426, .F. ) ;
#568 = DIRECTION ( 'NONE',  ( 1.000000000000000000, -2.664535259100375697E-15, 0.000000000000000000 ) ) ;
#569 = CARTESIAN_POINT ( 'NONE',  ( -1.245064030267288402, 1.524763679400337895E-16, -19.21099999999997365 ) ) ;
#570 = CIRCLE ( 'NONE', #330, 2.032000000000000028 ) ;
#571 = EDGE_CURVE ( 'NONE', #118, #288, #785, .T. ) ;
#572 = EDGE_LOOP ( 'NONE', ( #376, #236 ) ) ;
#573 = ORIENTED_EDGE ( 'NONE', *, *, #247, .T. ) ;
#574 = ADVANCED_BREP_SHAPE_REPRESENTATION ( '228-2500-094', ( #98, #34 ), #552 ) ;
#575 = CARTESIAN_POINT ( 'NONE',  ( 1.587500000000000355, -1.268411506570323644, 21.18491914209798210 ) ) ;
#576 = DIRECTION ( 'NONE',  ( 1.224646799147353207E-16, 1.000000000000000000, 0.000000000000000000 ) ) ;
#577 = ORIENTED_EDGE ( 'NONE', *, *, #9, .F. ) ;
#578 = CARTESIAN_POINT ( 'NONE',  ( 1.587500000000000355, 1.268411506570323866, 15.87499999999999645 ) ) ;
#579 = CYLINDRICAL_SURFACE ( 'NONE', #285, 2.399999999999999911 ) ;
#580 = DIRECTION ( 'NONE',  ( -0.000000000000000000, -0.000000000000000000, 1.000000000000000000 ) ) ;
#581 = CARTESIAN_POINT ( 'NONE',  ( 0.000000000000000000, 0.000000000000000000, -21.33599999999999852 ) ) ;
#582 = ORIENTED_EDGE ( 'NONE', *, *, #871, .F. ) ;
#583 = FACE_OUTER_BOUND ( 'NONE', #517, .T. ) ;
#584 = FACE_OUTER_BOUND ( 'NONE', #635, .T. ) ;
#585 = B_SPLINE_CURVE_WITH_KNOTS ( 'NONE', 3,
 ( #292, #90, #361, #18, #225, #170 ),
 .UNSPECIFIED., .F., .F.,
 ( 4, 2, 4 ),
 ( 1.905938025164286877E-19, 0.0006365870327257438632, 0.001273174065451487509 ),
 .UNSPECIFIED. ) ;
#586 = AXIS2_PLACEMENT_3D ( 'NONE', #846, #697, #558 ) ;
#587 = FACE_OUTER_BOUND ( 'NONE', #553, .T. ) ;
#588 = ORIENTED_EDGE ( 'NONE', *, *, #615, .T. ) ;
#589 = DIRECTION ( 'NONE',  ( 0.000000000000000000, 0.000000000000000000, -1.000000000000000000 ) ) ;
#590 = EDGE_CURVE ( 'NONE', #681, #411, #654, .T. ) ;
#591 = DIRECTION ( 'NONE',  ( 0.000000000000000000, 0.000000000000000000, 1.000000000000000000 ) ) ;
#592 = VERTEX_POINT ( 'NONE', #306 ) ;
#593 = DIRECTION ( 'NONE',  ( 0.000000000000000000, 0.000000000000000000, -1.000000000000000000 ) ) ;
#594 = DIRECTION ( 'NONE',  ( 1.000000000000000000, 0.000000000000000000, -0.000000000000000000 ) ) ;
#595 = ORIENTED_EDGE ( 'NONE', *, *, #835, .T. ) ;
#596 = CARTESIAN_POINT ( 'NONE',  ( -1.587500000000000355, -0.2114796877013869481, 21.30822736169286102 ) ) ;
#597 = VECTOR ( 'NONE', #886, 1000.000000000000000 ) ;
#598 = DIRECTION ( 'NONE',  ( 0.000000000000000000, 0.000000000000000000, 1.000000000000000000 ) ) ;
#599 = CARTESIAN_POINT ( 'NONE',  ( -1.587500000000000355, 1.268411506570323866, -21.33599999999999852 ) ) ;
#600 = EDGE_CURVE ( 'NONE', #155, #124, #585, .T. ) ;
#601 = VECTOR ( 'NONE', #423, 1000.000000000000000 ) ;
#602 = AXIS2_PLACEMENT_3D ( 'NONE', #298, #843, #498 ) ;
#603 = EDGE_LOOP ( 'NONE', ( #634, #777, #201, #136 ) ) ;
#604 = CARTESIAN_POINT ( 'NONE',  ( 1.268411506570323199, 1.587500000000000355, 15.07499999999999574 ) ) ;
#605 = FACE_OUTER_BOUND ( 'NONE', #648, .T. ) ;
#606 = FILL_AREA_STYLE_COLOUR ( '', #166 ) ;
#607 = VERTEX_POINT ( 'NONE', #565 ) ;
#608 = DIRECTION ( 'NONE',  ( -0.000000000000000000, -0.000000000000000000, 1.000000000000000000 ) ) ;
#609 = B_SPLINE_CURVE_WITH_KNOTS ( 'NONE', 3,
 ( #269, #189, #749, #686, #286, #538, #394, #217 ),
 .UNSPECIFIED., .F., .F.,
 ( 4, 2, 2, 4 ),
 ( 0.01485345774306994979, 0.01548583974386960604, 0.01611822174466926577, 0.01738298574626857829 ),
 .UNSPECIFIED. ) ;
#610 =( NAMED_UNIT ( * ) PLANE_ANGLE_UNIT ( ) SI_UNIT ( $, .RADIAN. ) );
#611 = VERTEX_POINT ( 'NONE', #233 ) ;
#612 = ADVANCED_FACE ( 'NONE', ( #584 ), #645, .F. ) ;
#613 = CARTESIAN_POINT ( 'NONE',  ( -1.587500000000000355, 1.944126793646423534E-16, -21.30822736169286102 ) ) ;
#614 = ORIENTED_EDGE ( 'NONE', *, *, #371, .T. ) ;
#615 = EDGE_CURVE ( 'NONE', #652, #473, #801, .T. ) ;
#616 = CARTESIAN_POINT ( 'NONE',  ( 0.000000000000000000, 0.000000000000000000, -21.33599999999999852 ) ) ;
#617 = CIRCLE ( 'NONE', #91, 2.125000000000022649 ) ;
#618 = PRESENTATION_STYLE_ASSIGNMENT (( #819 ) ) ;
#619 = ORIENTED_EDGE ( 'NONE', *, *, #191, .T. ) ;
#620 = EDGE_CURVE ( 'NONE', #186, #206, #158, .T. ) ;
#621 = VECTOR ( 'NONE', #321, 1000.000000000000000 ) ;
#622 = CYLINDRICAL_SURFACE ( 'NONE', #228, 2.032000000000000028 ) ;
#623 = ORIENTED_EDGE ( 'NONE', *, *, #353, .T. ) ;
#624 = CARTESIAN_POINT ( 'NONE',  ( 1.587500000000000133, 1.061532360077855452, 21.23640206829358590 ) ) ;
#625 = ORIENTED_EDGE ( 'NONE', *, *, #531, .T. ) ;
#626 = ORIENTED_EDGE ( 'NONE', *, *, #65, .T. ) ;
#627 = DIRECTION ( 'NONE',  ( 1.000000000000000000, 0.000000000000000000, 0.000000000000000000 ) ) ;
#628 = ADVANCED_FACE ( 'NONE', ( #303 ), #579, .T. ) ;
#629 =( GEOMETRIC_REPRESENTATION_CONTEXT ( 3 ) GLOBAL_UNCERTAINTY_ASSIGNED_CONTEXT ( ( #421 ) ) GLOBAL_UNIT_ASSIGNED_CONTEXT ( ( #406, #266, #138 ) ) REPRESENTATION_CONTEXT ( 'NONE', 'WORKASPACE' ) );
#630 = ORIENTED_EDGE ( 'NONE', *, *, #11, .T. ) ;
#631 = ORIENTED_EDGE ( 'NONE', *, *, #762, .F. ) ;
#632 = AXIS2_PLACEMENT_3D ( 'NONE', #564, #833, #223 ) ;
#633 = DIRECTION ( 'NONE',  ( 0.000000000000000000, 0.000000000000000000, -1.000000000000000000 ) ) ;
#634 = ORIENTED_EDGE ( 'NONE', *, *, #549, .T. ) ;
#635 = EDGE_LOOP ( 'NONE', ( #551, #754, #216, #342 ) ) ;
#636 = CARTESIAN_POINT ( 'NONE',  ( -0.4342314039556041672, 1.587500000000000355, -21.30785171744314610 ) ) ;
#637 = CYLINDRICAL_SURFACE ( 'NONE', #128, 2.032000000000000028 ) ;
#638 = VERTEX_POINT ( 'NONE', #424 ) ;
#639 = ORIENTED_EDGE ( 'NONE', *, *, #120, .F. ) ;
#640 = CARTESIAN_POINT ( 'NONE',  ( -1.268411506570323866, 1.587500000000000355, -21.33599999999999852 ) ) ;
#641 = ADVANCED_FACE ( 'NONE', ( #349 ), #55, .T. ) ;
#642 = CARTESIAN_POINT ( 'NONE',  ( 0.000000000000000000, 0.000000000000000000, -21.33599999999999852 ) ) ;
#643 = ORIENTED_EDGE ( 'NONE', *, *, #198, .F. ) ;
#644 = CARTESIAN_POINT ( 'NONE',  ( 0.000000000000000000, 0.000000000000000000, -19.21099999999997365 ) ) ;
#645 = PLANE ( 'NONE',  #602 ) ;
#646 = AXIS2_PLACEMENT_3D ( 'NONE', #156, #232, #360 ) ;
#647 = VECTOR ( 'NONE', #533, 1000.000000000000000 ) ;
#648 = EDGE_LOOP ( 'NONE', ( #2, #595, #718, #573 ) ) ;
#649 = ORIENTED_EDGE ( 'NONE', *, *, #212, .T. ) ;
#650 = CARTESIAN_POINT ( 'NONE',  ( 0.000000000000000000, 0.000000000000000000, 15.07499999999999396 ) ) ;
#651 = DIRECTION ( 'NONE',  ( 1.000000000000000000, 0.000000000000000000, 0.000000000000000000 ) ) ;
#652 = VERTEX_POINT ( 'NONE', #4 ) ;
#653 = CARTESIAN_POINT ( 'NONE',  ( -1.587500000000000355, 1.587500000000000355, 21.33599999999999852 ) ) ;
#654 = LINE ( 'NONE', #768, #365 ) ;
#655 = CARTESIAN_POINT ( 'NONE',  ( -1.268411506570323866, -1.587500000000000355, -21.33599999999999852 ) ) ;
#656 = EDGE_CURVE ( 'NONE', #408, #766, #219, .T. ) ;
#657 = EDGE_LOOP ( 'NONE', ( #407, #783, #10, #456 ) ) ;
#658 = LINE ( 'NONE', #790, #230 ) ;
#659 = CIRCLE ( 'NONE', #53, 2.125000000000022649 ) ;
#660 = FILL_AREA_STYLE_COLOUR ( '', #730 ) ;
#661 = CIRCLE ( 'NONE', #143, 2.032000000000000028 ) ;
#662 = CARTESIAN_POINT ( 'NONE',  ( 0.000000000000000000, 0.000000000000000000, 15.07499999999999574 ) ) ;
#663 = APPLICATION_PROTOCOL_DEFINITION ( 'draft international standard', 'automotive_design', 1998, #14 ) ;
#664 = EDGE_LOOP ( 'NONE', ( #99, #541, #41, #294 ) ) ;
#665 = DIRECTION ( 'NONE',  ( 1.000000000000000000, 0.000000000000000000, 0.000000000000000000 ) ) ;
#666 = SURFACE_STYLE_USAGE ( .BOTH. , #386 ) ;
#667 = CARTESIAN_POINT ( 'NONE',  ( -1.587500000000000355, -1.061392899157111769, -21.23643677385166129 ) ) ;
#668 = ORIENTED_EDGE ( 'NONE', *, *, #332, .T. ) ;
#669 = CARTESIAN_POINT ( 'NONE',  ( -1.587500000000000133, -1.061532360077855452, 21.23640206829358590 ) ) ;
#670 = EDGE_CURVE ( 'NONE', #359, #411, #399, .T. ) ;
#671 = CYLINDRICAL_SURFACE ( 'NONE', #19, 2.032000000000000028 ) ;
#672 = CARTESIAN_POINT ( 'NONE',  ( -1.587500000000000355, -1.587500000000000355, 21.33599999999999852 ) ) ;
#673 = ORIENTED_EDGE ( 'NONE', *, *, #797, .F. ) ;
#674 = PLANE ( 'NONE',  #544 ) ;
#675 = PLANE ( 'NONE',  #141 ) ;
#676 = AXIS2_PLACEMENT_3D ( 'NONE', #680, #7, #60 ) ;
#677 = VECTOR ( 'NONE', #804, 1000.000000000000000 ) ;
#678 = ORIENTED_EDGE ( 'NONE', *, *, #188, .T. ) ;
#679 = CARTESIAN_POINT ( 'NONE',  ( 0.000000000000000000, 0.000000000000000000, -19.21099999999997365 ) ) ;
#680 = CARTESIAN_POINT ( 'NONE',  ( 0.000000000000000000, 0.000000000000000000, -21.33599999999999852 ) ) ;
#681 = VERTEX_POINT ( 'NONE', #482 ) ;
#682 = CARTESIAN_POINT ( 'NONE',  ( 1.587500000000000355, -1.268411506570323866, -21.33599999999999852 ) ) ;
#683 = FACE_OUTER_BOUND ( 'NONE', #657, .T. ) ;
#684 = CARTESIAN_POINT ( 'NONE',  ( -1.587500000000000355, 1.944126793646423534E-16, -21.30822736169286102 ) ) ;
#685 = ORIENTED_EDGE ( 'NONE', *, *, #875, .T. ) ;
#686 = CARTESIAN_POINT ( 'NONE',  ( -0.4219230645619490017, 1.587500000000000577, 21.30230730355362212 ) ) ;
#687 = VECTOR ( 'NONE', #858, 1000.000000000000000 ) ;
#688 = ORIENTED_EDGE ( 'NONE', *, *, #875, .F. ) ;
#689 = CIRCLE ( 'NONE', #260, 2.032000000000000028 ) ;
#690 = CIRCLE ( 'NONE', #480, 2.032000000000000028 ) ;
#691 = DIRECTION ( 'NONE',  ( 1.000000000000000000, 0.000000000000000000, 0.000000000000000000 ) ) ;
#692 = DIRECTION ( 'NONE',  ( -0.000000000000000000, -0.000000000000000000, 1.000000000000000000 ) ) ;
#693 = EDGE_LOOP ( 'NONE', ( #567, #626, #699, #884, #789 ) ) ;
#694 = EDGE_CURVE ( 'NONE', #766, #810, #295, .T. ) ;
#695 = EDGE_CURVE ( 'NONE', #411, #359, #510, .T. ) ;
#696 =( NAMED_UNIT ( * ) SI_UNIT ( $, .STERADIAN. ) SOLID_ANGLE_UNIT ( ) );
#697 = DIRECTION ( 'NONE',  ( -0.000000000000000000, -0.000000000000000000, -1.000000000000000000 ) ) ;
#698 = CARTESIAN_POINT ( 'NONE',  ( 0.000000000000000000, 0.000000000000000000, 15.87499999999999645 ) ) ;
#699 = ORIENTED_EDGE ( 'NONE', *, *, #571, .F. ) ;
#700 = DIRECTION ( 'NONE',  ( 0.000000000000000000, -1.000000000000000000, 0.000000000000000000 ) ) ;
#701 = DIRECTION ( 'NONE',  ( 0.000000000000000000, 0.000000000000000000, 1.000000000000000000 ) ) ;
#702 = EDGE_CURVE ( 'NONE', #810, #752, #38, .T. ) ;
#703 = EDGE_LOOP ( 'NONE', ( #673, #350 ) ) ;
#704 = CARTESIAN_POINT ( 'NONE',  ( 0.000000000000000000, 0.000000000000000000, 21.18491914209798210 ) ) ;
#705 = DIRECTION ( 'NONE',  ( 1.000000000000000000, 0.000000000000000000, 0.000000000000000000 ) ) ;
#706 = ORIENTED_EDGE ( 'NONE', *, *, #722, .T. ) ;
#707 = ADVANCED_FACE ( 'NONE', ( #416 ), #740, .T. ) ;
#708 = ORIENTED_EDGE ( 'NONE', *, *, #309, .T. ) ;
#709 = DIRECTION ( 'NONE',  ( -1.000000000000000000, 0.000000000000000000, -0.000000000000000000 ) ) ;
#710 = CARTESIAN_POINT ( 'NONE',  ( -1.587500000000000355, -1.587500000000000355, 15.07499999999999574 ) ) ;
#711 = AXIS2_PLACEMENT_3D ( 'NONE', #129, #270, #540 ) ;
#712 = CARTESIAN_POINT ( 'NONE',  ( -1.587500000000000355, -1.587500000000000355, 15.87499999999999645 ) ) ;
#713 = FACE_OUTER_BOUND ( 'NONE', #703, .T. ) ;
#714 = TOROIDAL_SURFACE ( 'NONE', #455, 1.245064030267288402, 2.125000000000022649 ) ;
#715 = AXIS2_PLACEMENT_3D ( 'NONE', #59, #251, #384 ) ;
#716 = CARTESIAN_POINT ( 'NONE',  ( -1.268411506570323866, -1.587500000000000355, -21.18491914209798210 ) ) ;
#717 = APPLICATION_PROTOCOL_DEFINITION ( 'draft international standard', 'automotive_design', 1998, #157 ) ;
#718 = ORIENTED_EDGE ( 'NONE', *, *, #198, .T. ) ;
#719 = PLANE ( 'NONE',  #525 ) ;
#720 = DIRECTION ( 'NONE',  ( 0.000000000000000000, 0.000000000000000000, 1.000000000000000000 ) ) ;
#721 = CYLINDRICAL_SURFACE ( 'NONE', #745, 2.032000000000000028 ) ;
#722 = EDGE_CURVE ( 'NONE', #473, #490, #494, .T. ) ;
#723 = CARTESIAN_POINT ( 'NONE',  ( -1.587500000000000133, -0.2143109880596212047, -21.30822736169286102 ) ) ;
#724 = VERTEX_POINT ( 'NONE', #862 ) ;
#725 = DIRECTION ( 'NONE',  ( -1.000000000000000000, 0.000000000000000000, 0.000000000000000000 ) ) ;
#726 = DIRECTION ( 'NONE',  ( -0.000000000000000000, -0.000000000000000000, 1.000000000000000000 ) ) ;
#727 = CARTESIAN_POINT ( 'NONE',  ( 0.000000000000000000, 0.000000000000000000, 15.07499999999999574 ) ) ;
#728 = VERTEX_POINT ( 'NONE', #516 ) ;
#729 = CARTESIAN_POINT ( 'NONE',  ( 2.399999999999999911, 0.000000000000000000, 15.07499999999999574 ) ) ;
#730 = COLOUR_RGB ( '',0.000000000000000000, 0.6980392156862744724, 0.7254901960784313486 ) ;
#731 = SURFACE_STYLE_FILL_AREA ( #39 ) ;
#732 = AXIS2_PLACEMENT_3D ( 'NONE', #218, #775, #432 ) ;
#733 = CARTESIAN_POINT ( 'NONE',  ( -1.245064030267288402, -2.006622987633880009E-16, 21.33599999999999497 ) ) ;
#734 = ORIENTED_EDGE ( 'NONE', *, *, #770, .T. ) ;
#735 = FACE_OUTER_BOUND ( 'NONE', #430, .T. ) ;
#736 = EDGE_CURVE ( 'NONE', #140, #293, #543, .T. ) ;
#737 = DIRECTION ( 'NONE',  ( 1.000000000000000000, 0.000000000000000000, 0.000000000000000000 ) ) ;
#738 = ORIENTED_EDGE ( 'NONE', *, *, #134, .T. ) ;
#739 = CARTESIAN_POINT ( 'NONE',  ( 1.587500000000000355, -1.268411506570323644, 15.07499999999999574 ) ) ;
#740 = CYLINDRICAL_SURFACE ( 'NONE', #410, 2.399999999999999911 ) ;
#741 = ORIENTED_EDGE ( 'NONE', *, *, #57, .T. ) ;
#742 = DIRECTION ( 'NONE',  ( 1.000000000000000000, 0.000000000000000000, 0.000000000000000000 ) ) ;
#743 = CARTESIAN_POINT ( 'NONE',  ( -1.587500000000000355, -1.944126793646423534E-16, 21.30822736169286102 ) ) ;
#744 = CARTESIAN_POINT ( 'NONE',  ( -1.245064030267288402, -1.524763679400337895E-16, 19.21099999999997365 ) ) ;
#745 = AXIS2_PLACEMENT_3D ( 'NONE', #314, #726, #248 ) ;
#746 = ORIENTED_EDGE ( 'NONE', *, *, #865, .F. ) ;
#747 = DIRECTION ( 'NONE',  ( -0.000000000000000000, -0.000000000000000000, 1.000000000000000000 ) ) ;
#748 = ADVANCED_FACE ( 'NONE', ( #175, #870 ), #379, .F. ) ;
#749 = CARTESIAN_POINT ( 'NONE',  ( -0.8486262390323825455, 1.587500000000000577, 21.26676882282394132 ) ) ;
#750 = LINE ( 'NONE', #336, #597 ) ;
#751 = EDGE_CURVE ( 'NONE', #87, #415, #375, .T. ) ;
#752 = VERTEX_POINT ( 'NONE', #33 ) ;
#753 = CARTESIAN_POINT ( 'NONE',  ( 0.000000000000000000, 0.000000000000000000, 15.87499999999999645 ) ) ;
#754 = ORIENTED_EDGE ( 'NONE', *, *, #434, .T. ) ;
#755 = DIRECTION ( 'NONE',  ( 0.000000000000000000, 0.000000000000000000, 1.000000000000000000 ) ) ;
#756 = ORIENTED_EDGE ( 'NONE', *, *, #770, .F. ) ;
#757 = PRODUCT_DEFINITION_SHAPE ( 'NONE', 'NONE',  #308 ) ;
#758 = CARTESIAN_POINT ( 'NONE',  ( -1.587500000000000355, 1.268411506570323866, -21.18491914209798210 ) ) ;
#759 = ORIENTED_EDGE ( 'NONE', *, *, #514, .T. ) ;
#760 = AXIS2_PLACEMENT_3D ( 'NONE', #679, #389, #104 ) ;
#761 = VECTOR ( 'NONE', #28, 1000.000000000000000 ) ;
#762 = EDGE_CURVE ( 'NONE', #103, #490, #447, .T. ) ;
#763 = CARTESIAN_POINT ( 'NONE',  ( 1.587500000000000355, 0.8513200635100124369, -21.26637755531811180 ) ) ;
#764 = VERTEX_POINT ( 'NONE', #40 ) ;
#765 = UNCERTAINTY_MEASURE_WITH_UNIT (LENGTH_MEASURE( 1.000000000000000082E-05 ), #122, 'distance_accuracy_value', 'NONE');
#766 = VERTEX_POINT ( 'NONE', #524 ) ;
#767 = FACE_OUTER_BOUND ( 'NONE', #876, .T. ) ;
#768 = CARTESIAN_POINT ( 'NONE',  ( -2.399999999999999911, 2.939152317953647106E-16, 15.07499999999999574 ) ) ;
#769 = CARTESIAN_POINT ( 'NONE',  ( 1.587500000000000355, 0.000000000000000000, -21.30822736169286102 ) ) ;
#770 = EDGE_CURVE ( 'NONE', #110, #521, #315, .T. ) ;
#771 = AXIS2_PLACEMENT_3D ( 'NONE', #653, #784, #709 ) ;
#772 = ORIENTED_EDGE ( 'NONE', *, *, #380, .T. ) ;
#773 = DIRECTION ( 'NONE',  ( 1.000000000000000000, 0.000000000000000000, 0.000000000000000000 ) ) ;
#774 = AXIS2_PLACEMENT_3D ( 'NONE', #101, #241, #437 ) ;
#775 = DIRECTION ( 'NONE',  ( -0.000000000000000000, -0.000000000000000000, -1.000000000000000000 ) ) ;
#776 = ADVANCED_FACE ( 'NONE', ( #587 ), #866, .F. ) ;
#777 = ORIENTED_EDGE ( 'NONE', *, *, #590, .T. ) ;
#778 = CARTESIAN_POINT ( 'NONE',  ( 1.060147506033616516, 1.587500000000000133, -21.23674669625517097 ) ) ;
#779 = DIRECTION ( 'NONE',  ( -1.000000000000000000, 1.224646799147353207E-16, 0.000000000000000000 ) ) ;
#780 = CARTESIAN_POINT ( 'NONE',  ( 1.587500000000000355, -1.587500000000000355, 21.33599999999999852 ) ) ;
#781 = CARTESIAN_POINT ( 'NONE',  ( 1.587500000000000355, 1.268411506570323866, 15.07499999999999396 ) ) ;
#782 = CARTESIAN_POINT ( 'NONE',  ( 1.268411506570323866, -1.587500000000000355, -21.18491914209798210 ) ) ;
#783 = ORIENTED_EDGE ( 'NONE', *, *, #309, .F. ) ;
#784 = DIRECTION ( 'NONE',  ( 0.000000000000000000, 0.000000000000000000, -1.000000000000000000 ) ) ;
#785 = LINE ( 'NONE', #13, #761 ) ;
#786 = AXIS2_PLACEMENT_3D ( 'NONE', #556, #633, #627 ) ;
#787 = CARTESIAN_POINT ( 'NONE',  ( -1.587500000000000355, -0.8513200635100124369, -21.26637755531811180 ) ) ;
#788 = SHAPE_DEFINITION_REPRESENTATION ( #757, #574 ) ;
#789 = ORIENTED_EDGE ( 'NONE', *, *, #736, .T. ) ;
#790 = CARTESIAN_POINT ( 'NONE',  ( -1.587500000000000355, 1.587500000000000355, 15.87499999999999645 ) ) ;
#791 = CARTESIAN_POINT ( 'NONE',  ( -1.587500000000000355, 1.268411506570323866, 15.87499999999999645 ) ) ;
#792 = CARTESIAN_POINT ( 'NONE',  ( 1.587500000000000577, -0.4277385810629842910, 21.30198654358310861 ) ) ;
#793 = ORIENTED_EDGE ( 'NONE', *, *, #600, .T. ) ;
#794 = LINE ( 'NONE', #513, #647 ) ;
#795 = CARTESIAN_POINT ( 'NONE',  ( 0.4342314039556041672, -1.587500000000000355, -21.30785171744314610 ) ) ;
#796 = DIRECTION ( 'NONE',  ( -0.000000000000000000, -0.000000000000000000, 1.000000000000000000 ) ) ;
#797 = EDGE_CURVE ( 'NONE', #235, #652, #108, .T. ) ;
#798 = ORIENTED_EDGE ( 'NONE', *, *, #694, .T. ) ;
#799 = CARTESIAN_POINT ( 'NONE',  ( -1.268411506570323866, 1.587500000000000355, -21.33599999999999852 ) ) ;
#800 = DIRECTION ( 'NONE',  ( 0.000000000000000000, 0.000000000000000000, -1.000000000000000000 ) ) ;
#801 = CIRCLE ( 'NONE', #839, 2.125000000000022649 ) ;
#802 = DIRECTION ( 'NONE',  ( -0.000000000000000000, -0.000000000000000000, 1.000000000000000000 ) ) ;
#803 = VERTEX_POINT ( 'NONE', #733 ) ;
#804 = DIRECTION ( 'NONE',  ( -1.000000000000000000, 0.000000000000000000, 0.000000000000000000 ) ) ;
#805 = DIRECTION ( 'NONE',  ( 0.000000000000000000, 0.000000000000000000, -1.000000000000000000 ) ) ;
#806 = VERTEX_POINT ( 'NONE', #249 ) ;
#807 = DIRECTION ( 'NONE',  ( 0.000000000000000000, 0.000000000000000000, -1.000000000000000000 ) ) ;
#808 =( NAMED_UNIT ( * ) SI_UNIT ( $, .STERADIAN. ) SOLID_ANGLE_UNIT ( ) );
#809 = DIRECTION ( 'NONE',  ( 0.000000000000000000, -1.000000000000000000, 0.000000000000000000 ) ) ;
#810 = VERTEX_POINT ( 'NONE', #453 ) ;
#811 = DIRECTION ( 'NONE',  ( 0.000000000000000000, 0.000000000000000000, 1.000000000000000000 ) ) ;
#812 = MECHANICAL_DESIGN_GEOMETRIC_PRESENTATION_REPRESENTATION (  '', ( #313 ), #629 ) ;
#813 = ADVANCED_FACE ( 'NONE', ( #185 ), #852, .T. ) ;
#814 = CYLINDRICAL_SURFACE ( 'NONE', #676, 2.032000000000000028 ) ;
#815 = VECTOR ( 'NONE', #178, 1000.000000000000000 ) ;
#816 = CLOSED_SHELL ( 'NONE', ( #339, #707, #322, #822, #776, #476, #146, #89, #845, #273, #121, #227, #559, #628, #748, #280, #226, #641, #109, #813, #612, #159, #256, #560, #534, #452 ) ) ;
#817 = ORIENTED_EDGE ( 'NONE', *, *, #353, .F. ) ;
#818 = CARTESIAN_POINT ( 'NONE',  ( -1.587500000000000355, -1.268411506570323644, 15.07499999999999574 ) ) ;
#819 = SURFACE_STYLE_USAGE ( .BOTH. , #133 ) ;
#820 = ORIENTED_EDGE ( 'NONE', *, *, #120, .T. ) ;
#821 =( LENGTH_UNIT ( ) NAMED_UNIT ( * ) SI_UNIT ( .MILLI., .METRE. ) );
#822 = ADVANCED_FACE ( 'NONE', ( #117 ), #675, .F. ) ;
#823 = ORIENTED_EDGE ( 'NONE', *, *, #620, .F. ) ;
#824 = VECTOR ( 'NONE', #692, 1000.000000000000000 ) ;
#825 = ORIENTED_EDGE ( 'NONE', *, *, #426, .T. ) ;
#826 = STYLED_ITEM ( 'NONE', ( #344 ), #98 ) ;
#827 = AXIS2_PLACEMENT_3D ( 'NONE', #193, #747, #338 ) ;
#828 = CARTESIAN_POINT ( 'NONE',  ( 1.587500000000000355, -0.2114796877013869481, -21.30822736169286102 ) ) ;
#829 = ORIENTED_EDGE ( 'NONE', *, *, #191, .F. ) ;
#830 = CARTESIAN_POINT ( 'NONE',  ( 0.000000000000000000, 0.000000000000000000, -21.33599999999999497 ) ) ;
#831 = CARTESIAN_POINT ( 'NONE',  ( 1.587500000000000133, -1.061532360077855452, -21.23640206829358590 ) ) ;
#832 = ORIENTED_EDGE ( 'NONE', *, *, #500, .T. ) ;
#833 = DIRECTION ( 'NONE',  ( -0.000000000000000000, -0.000000000000000000, 1.000000000000000000 ) ) ;
#834 = CARTESIAN_POINT ( 'NONE',  ( 1.268411506570323866, -1.587500000000000355, -21.33599999999999852 ) ) ;
#835 = EDGE_CURVE ( 'NONE', #94, #124, #326, .T. ) ;
#836 = AXIS2_PLACEMENT_3D ( 'NONE', #581, #243, #194 ) ;
#837 = CARTESIAN_POINT ( 'NONE',  ( 1.268411506570323866, -1.587500000000000355, 21.18491914209798210 ) ) ;
#838 = CIRCLE ( 'NONE', #586, 2.032000000000000028 ) ;
#839 = AXIS2_PLACEMENT_3D ( 'NONE', #569, #576, #779 ) ;
#840 = DIRECTION ( 'NONE',  ( 1.000000000000000000, 0.000000000000000000, 0.000000000000000000 ) ) ;
#841 = ORIENTED_EDGE ( 'NONE', *, *, #465, .F. ) ;
#842 = LINE ( 'NONE', #849, #882 ) ;
#843 = DIRECTION ( 'NONE',  ( 0.000000000000000000, -1.000000000000000000, 0.000000000000000000 ) ) ;
#844 = CARTESIAN_POINT ( 'NONE',  ( -0.4219230645619490017, -1.587500000000000577, -21.30230730355362212 ) ) ;
#845 = ADVANCED_FACE ( 'NONE', ( #530 ), #56, .T. ) ;
#846 = CARTESIAN_POINT ( 'NONE',  ( 0.000000000000000000, 0.000000000000000000, 15.87499999999999645 ) ) ;
#847 = EDGE_CURVE ( 'NONE', #728, #473, #363, .T. ) ;
#848 = ORIENTED_EDGE ( 'NONE', *, *, #878, .F. ) ;
#849 = CARTESIAN_POINT ( 'NONE',  ( 1.268411506570323866, 1.587500000000000355, -21.33599999999999852 ) ) ;
#850 = PLANE ( 'NONE',  #96 ) ;
#851 = CARTESIAN_POINT ( 'NONE',  ( -1.587500000000000355, -1.268411506570323866, 15.87499999999999645 ) ) ;
#852 = CYLINDRICAL_SURFACE ( 'NONE', #208, 2.032000000000000028 ) ;
#853 = PRODUCT_CONTEXT ( 'NONE', #157, 'mechanical' ) ;
#854 = ORIENTED_EDGE ( 'NONE', *, *, #861, .F. ) ;
#855 = FACE_OUTER_BOUND ( 'NONE', #693, .T. ) ;
#856 = VECTOR ( 'NONE', #187, 1000.000000000000000 ) ;
#857 = CARTESIAN_POINT ( 'NONE',  ( 0.8571092511719563545, -1.587500000000000355, -21.28727379706277389 ) ) ;
#858 = DIRECTION ( 'NONE',  ( 0.000000000000000000, 1.000000000000000000, -0.000000000000000000 ) ) ;
#859 = ORIENTED_EDGE ( 'NONE', *, *, #847, .F. ) ;
#860 = CARTESIAN_POINT ( 'NONE',  ( -1.268411506570323644, -1.587500000000000355, 21.18491914209798210 ) ) ;
#861 = EDGE_CURVE ( 'NONE', #235, #766, #617, .T. ) ;
#862 = CARTESIAN_POINT ( 'NONE',  ( 1.268411506570323866, -1.587500000000000355, 21.18491914209798210 ) ) ;
#863 = ORIENTED_EDGE ( 'NONE', *, *, #736, .F. ) ;
#864 = DIRECTION ( 'NONE',  ( 0.000000000000000000, 0.000000000000000000, 1.000000000000000000 ) ) ;
#865 = EDGE_CURVE ( 'NONE', #118, #140, #46, .T. ) ;
#866 = PLANE ( 'NONE',  #257 ) ;
#867 = EDGE_LOOP ( 'NONE', ( #320, #678, #211, #301, #793 ) ) ;
#868 = DIRECTION ( 'NONE',  ( 0.000000000000000000, 0.000000000000000000, 1.000000000000000000 ) ) ;
#869 = DIRECTION ( 'NONE',  ( -0.000000000000000000, -0.000000000000000000, -1.000000000000000000 ) ) ;
#870 = FACE_OUTER_BOUND ( 'NONE', #324, .T. ) ;
#871 = EDGE_CURVE ( 'NONE', #806, #64, #750, .T. ) ;
#872 = ORIENTED_EDGE ( 'NONE', *, *, #620, .T. ) ;
#873 = CARTESIAN_POINT ( 'NONE',  ( -1.587500000000000355, -1.587500000000000355, 21.33599999999999852 ) ) ;
#874 = CARTESIAN_POINT ( 'NONE',  ( -1.587500000000000355, 1.587500000000000355, 21.33599999999999852 ) ) ;
#875 = EDGE_CURVE ( 'NONE', #803, #155, #224, .T. ) ;
#876 = EDGE_LOOP ( 'NONE', ( #708, #144, #527, #496 ) ) ;
#877 = CARTESIAN_POINT ( 'NONE',  ( -1.587500000000000355, 1.268411506570323866, 15.07499999999999396 ) ) ;
#878 = EDGE_CURVE ( 'NONE', #110, #186, #195, .T. ) ;
#879 = FILL_AREA_STYLE ('',( #606 ) ) ;
#880 = ORIENTED_EDGE ( 'NONE', *, *, #722, .F. ) ;
#881 = VECTOR ( 'NONE', #796, 1000.000000000000000 ) ;
#882 = VECTOR ( 'NONE', #502, 1000.000000000000000 ) ;
#883 = AXIS2_PLACEMENT_3D ( 'NONE', #31, #701, #840 ) ;
#884 = ORIENTED_EDGE ( 'NONE', *, *, #865, .T. ) ;
#885 = EDGE_CURVE ( 'NONE', #592, #35, #414, .T. ) ;
#886 = DIRECTION ( 'NONE',  ( 1.000000000000000000, 0.000000000000000000, 0.000000000000000000 ) ) ;
#887 = B_SPLINE_CURVE_WITH_KNOTS ( 'NONE', 3,
 ( #716, #519, #370, #844, #378, #795, #857, #782 ),
 .UNSPECIFIED., .F., .F.,
 ( 4, 2, 2, 4 ),
 ( 0.01485345774306994979, 0.01548583974386960604, 0.01611822174466926577, 0.01738298574626857829 ),
 .UNSPECIFIED. ) ;
#888 = ORIENTED_EDGE ( 'NONE', *, *, #448, .T. ) ;
ENDSEC;
END-ISO-10303-21;
