ISO-10303-21;
HEADER;
FILE_DESCRIPTION (( 'STEP AP203' ),
    '1' );
FILE_NAME ('228-2500-119.step',
    '2022-06-06T19:01:22',
    ( '' ),
    ( '' ),
    'SwSTEP 2.0',
    'SolidWorks 2021',
    '' );
FILE_SCHEMA (( 'CONFIG_CONTROL_DESIGN' ));
ENDSEC;

DATA;
#1 = LINE ( 'NONE', #259, #98 ) ;
#2 = ORIENTED_EDGE ( 'NONE', *, *, #46, .T. ) ;
#3 = CALENDAR_DATE ( 2022, 6, 6 ) ;
#4 = CC_DESIGN_PERSON_AND_ORGANIZATION_ASSIGNMENT ( #273, #45, ( #456 ) ) ;
#5 = FACE_OUTER_BOUND ( 'NONE', #493, .T. ) ;
#6 = VERTEX_POINT ( 'NONE', #51 ) ;
#7 = PERSON_AND_ORGANIZATION ( #186, #448 ) ;
#8 = DIRECTION ( 'NONE',  ( 1.224646799147353207E-16, 1.000000000000000000, 0.000000000000000000 ) ) ;
#9 = VECTOR ( 'NONE', #228, 1000.000000000000000 ) ;
#10 = DIRECTION ( 'NONE',  ( 1.000000000000000000, 0.000000000000000000, 0.000000000000000000 ) ) ;
#11 = CARTESIAN_POINT ( 'NONE',  ( 0.000000000000000000, 0.000000000000000000, -18.16099999999999781 ) ) ;
#12 = DIRECTION ( 'NONE',  ( 0.000000000000000000, 0.000000000000000000, 1.000000000000000000 ) ) ;
#13 = DIRECTION ( 'NONE',  ( -0.000000000000000000, -0.000000000000000000, 1.000000000000000000 ) ) ;
#14 = CARTESIAN_POINT ( 'NONE',  ( -1.268411506570323866, -1.587500000000000355, -18.16100000000000136 ) ) ;
#15 = FACE_OUTER_BOUND ( 'NONE', #48, .T. ) ;
#16 = VECTOR ( 'NONE', #62, 1000.000000000000000 ) ;
#17 = CARTESIAN_POINT ( 'NONE',  ( 1.587500000000000577, -0.8514389605504928404, -18.09136751577921132 ) ) ;
#18 = EDGE_CURVE ( 'NONE', #391, #251, #444, .T. ) ;
#19 = ORIENTED_EDGE ( 'NONE', *, *, #453, .T. ) ;
#20 = CARTESIAN_POINT ( 'NONE',  ( -1.587500000000000355, 1.268411506570323866, -18.00991914209798139 ) ) ;
#21 = DIRECTION ( 'NONE',  ( -1.000000000000000000, 0.000000000000000000, 0.000000000000000000 ) ) ;
#22 = CARTESIAN_POINT ( 'NONE',  ( -1.587500000000000577, 0.8514389605504928404, -18.09136751577921132 ) ) ;
#23 = DIRECTION ( 'NONE',  ( 0.000000000000000000, 0.000000000000000000, -1.000000000000000000 ) ) ;
#24 = EDGE_LOOP ( 'NONE', ( #233, #126, #398, #42, #314, #236, #213, #211 ) ) ;
#25 = PERSON_AND_ORGANIZATION ( #186, #448 ) ;
#26 = CIRCLE ( 'NONE', #203, 2.032000000000000028 ) ;
#27 = SECURITY_CLASSIFICATION ( '', '', #371 ) ;
#28 = DIRECTION ( 'NONE',  ( 0.000000000000000000, -0.000000000000000000, -1.000000000000000000 ) ) ;
#29 = ADVANCED_BREP_SHAPE_REPRESENTATION ( '228-2500-119', ( #422, #61 ), #535 ) ;
#30 = VERTEX_POINT ( 'NONE', #185 ) ;
#31 =( NAMED_UNIT ( * ) SI_UNIT ( $, .STERADIAN. ) SOLID_ANGLE_UNIT ( ) );
#32 = PLANE ( 'NONE',  #516 ) ;
#33 = VERTEX_POINT ( 'NONE', #324 ) ;
#34 = DIRECTION ( 'NONE',  ( 0.000000000000000000, 0.000000000000000000, -1.000000000000000000 ) ) ;
#35 = ORIENTED_EDGE ( 'NONE', *, *, #513, .T. ) ;
#36 = CARTESIAN_POINT ( 'NONE',  ( 1.587500000000000355, 0.8513200635100126590, -18.09137755531811109 ) ) ;
#37 = CIRCLE ( 'NONE', #447, 1.245064030267288402 ) ;
#38 = VERTEX_POINT ( 'NONE', #494 ) ;
#39 = EDGE_CURVE ( 'NONE', #306, #6, #471, .T. ) ;
#40 = DATE_AND_TIME ( #74, #431 ) ;
#41 = DIRECTION ( 'NONE',  ( -0.000000000000000000, -0.000000000000000000, 1.000000000000000000 ) ) ;
#42 = ORIENTED_EDGE ( 'NONE', *, *, #546, .F. ) ;
#43 = DIRECTION ( 'NONE',  ( 1.000000000000000000, 0.000000000000000000, 0.000000000000000000 ) ) ;
#44 = CARTESIAN_POINT ( 'NONE',  ( 1.060147506033615628, -1.587500000000000133, 18.06174669625518092 ) ) ;
#45 = PERSON_AND_ORGANIZATION_ROLE ( 'creator' ) ;
#46 = EDGE_CURVE ( 'NONE', #498, #454, #80, .T. ) ;
#47 = CARTESIAN_POINT ( 'NONE',  ( 1.587500000000000355, -1.587500000000000355, 18.16100000000000136 ) ) ;
#48 = EDGE_LOOP ( 'NONE', ( #311, #19, #344, #207, #430, #354, #427, #260 ) ) ;
#49 = FACE_OUTER_BOUND ( 'NONE', #477, .T. ) ;
#50 = CARTESIAN_POINT ( 'NONE',  ( 0.4342314039556041672, 1.587500000000000355, 18.13285171744314184 ) ) ;
#51 = CARTESIAN_POINT ( 'NONE',  ( 1.245064030267288402, 0.000000000000000000, -18.16099999999999781 ) ) ;
#52 = AXIS2_PLACEMENT_3D ( 'NONE', #508, #511, #559 ) ;
#53 = EDGE_CURVE ( 'NONE', #70, #498, #263, .T. ) ;
#54 = AXIS2_PLACEMENT_3D ( 'NONE', #321, #492, #91 ) ;
#55 = LINE ( 'NONE', #14, #16 ) ;
#56 = PERSON_AND_ORGANIZATION_ROLE ( 'design_supplier' ) ;
#57 = CARTESIAN_POINT ( 'NONE',  ( -1.587500000000000577, -0.4277385810629850682, -18.12698654358311501 ) ) ;
#58 = EDGE_CURVE ( 'NONE', #6, #306, #37, .T. ) ;
#59 = DIRECTION ( 'NONE',  ( 1.000000000000000000, 0.000000000000000000, 0.000000000000000000 ) ) ;
#60 = AXIS2_PLACEMENT_3D ( 'NONE', #348, #438, #75 ) ;
#61 = AXIS2_PLACEMENT_3D ( 'NONE', #110, #299, #194 ) ;
#62 = DIRECTION ( 'NONE',  ( -0.000000000000000000, -0.000000000000000000, 1.000000000000000000 ) ) ;
#63 = DIRECTION ( 'NONE',  ( 0.000000000000000000, 0.000000000000000000, -1.000000000000000000 ) ) ;
#64 = VERTEX_POINT ( 'NONE', #289 ) ;
#65 = CYLINDRICAL_SURFACE ( 'NONE', #52, 2.032000000000000028 ) ;
#66 = ORIENTED_EDGE ( 'NONE', *, *, #131, .T. ) ;
#67 = DIRECTION ( 'NONE',  ( 1.000000000000000000, 0.000000000000000000, 0.000000000000000000 ) ) ;
#68 = EDGE_CURVE ( 'NONE', #30, #169, #293, .T. ) ;
#69 = CARTESIAN_POINT ( 'NONE',  ( 1.268411506570323866, -1.587500000000000355, -18.00991914209798139 ) ) ;
#70 = VERTEX_POINT ( 'NONE', #415 ) ;
#71 = B_SPLINE_CURVE_WITH_KNOTS ( 'NONE', 3,
 ( #20, #425, #22, #149, #462, #146 ),
 .UNSPECIFIED., .F., .F.,
 ( 4, 2, 4 ),
 ( 0.01485345774306977458, 0.01548163471194334562, 0.01610981168081691492 ),
 .UNSPECIFIED. ) ;
#72 = DIRECTION ( 'NONE',  ( 0.000000000000000000, -1.000000000000000000, 0.000000000000000000 ) ) ;
#73 = ORIENTED_EDGE ( 'NONE', *, *, #68, .T. ) ;
#74 = CALENDAR_DATE ( 2022, 6, 6 ) ;
#75 = DIRECTION ( 'NONE',  ( 1.000000000000000000, 0.000000000000000000, 0.000000000000000000 ) ) ;
#76 = EDGE_CURVE ( 'NONE', #33, #393, #405, .T. ) ;
#77 = ORIENTED_EDGE ( 'NONE', *, *, #18, .F. ) ;
#78 = CALENDAR_DATE ( 2022, 6, 6 ) ;
#79 = CARTESIAN_POINT ( 'NONE',  ( -1.587500000000000355, -1.268411506570323866, -18.00991914209798139 ) ) ;
#80 = CIRCLE ( 'NONE', #420, 2.032000000000000028 ) ;
#81 = APPROVAL_PERSON_ORGANIZATION ( #528, #326, #445 ) ;
#82 = ORIENTED_EDGE ( 'NONE', *, *, #58, .F. ) ;
#83 = CARTESIAN_POINT ( 'NONE',  ( -0.4219230645619472253, 1.587500000000000577, 18.12730730355362496 ) ) ;
#84 = APPROVAL_DATE_TIME ( #170, #200 ) ;
#85 = EDGE_CURVE ( 'NONE', #101, #284, #550, .T. ) ;
#86 = DIRECTION ( 'NONE',  ( -1.000000000000000000, 1.224646799147353454E-16, 0.000000000000000000 ) ) ;
#87 = CARTESIAN_POINT ( 'NONE',  ( 0.000000000000000000, 0.000000000000000000, -18.00991914209798139 ) ) ;
#88 = CARTESIAN_POINT ( 'NONE',  ( 0.8486262390323815463, -1.587500000000000577, 18.09176882282394772 ) ) ;
#89 = AXIS2_PLACEMENT_3D ( 'NONE', #527, #183, #318 ) ;
#90 = AXIS2_PLACEMENT_3D ( 'NONE', #135, #404, #361 ) ;
#91 = DIRECTION ( 'NONE',  ( 0.000000000000000000, -0.000000000000000000, 1.000000000000000000 ) ) ;
#92 = ORIENTED_EDGE ( 'NONE', *, *, #122, .F. ) ;
#93 = PERSON_AND_ORGANIZATION ( #186, #448 ) ;
#94 = DIRECTION ( 'NONE',  ( 1.000000000000000000, 0.000000000000000000, 0.000000000000000000 ) ) ;
#95 = CC_DESIGN_PERSON_AND_ORGANIZATION_ASSIGNMENT ( #478, #437, ( #210 ) ) ;
#96 = CARTESIAN_POINT ( 'NONE',  ( -1.268411506570323866, 1.587500000000000355, -18.00991914209798139 ) ) ;
#97 = APPROVAL_ROLE ( '' ) ;
#98 = VECTOR ( 'NONE', #123, 1000.000000000000000 ) ;
#99 = LOCAL_TIME ( 14, 1, 22.00000000000000000, #450 ) ;
#100 = DIRECTION ( 'NONE',  ( 1.000000000000000000, 0.000000000000000000, 0.000000000000000000 ) ) ;
#101 = VERTEX_POINT ( 'NONE', #190 ) ;
#102 = CARTESIAN_POINT ( 'NONE',  ( 1.587500000000000355, 0.000000000000000000, -18.13322736169286387 ) ) ;
#103 = CC_DESIGN_DATE_AND_TIME_ASSIGNMENT ( #440, #403, ( #210 ) ) ;
#104 = CARTESIAN_POINT ( 'NONE',  ( -0.4342314039556041672, -1.587500000000000355, 18.13285171744314184 ) ) ;
#105 = DIRECTION ( 'NONE',  ( -0.000000000000000000, -0.000000000000000000, 1.000000000000000000 ) ) ;
#106 = CARTESIAN_POINT ( 'NONE',  ( -1.268411506570324088, -1.587500000000000355, 18.00991914209798139 ) ) ;
#107 = EDGE_LOOP ( 'NONE', ( #424, #66, #2, #196 ) ) ;
#108 = CARTESIAN_POINT ( 'NONE',  ( 1.587500000000000355, 1.268411506570323866, -18.16100000000000136 ) ) ;
#109 = CARTESIAN_POINT ( 'NONE',  ( 1.587500000000000355, -1.061392899157111325, 18.06143677385166768 ) ) ;
#110 = CARTESIAN_POINT ( 'NONE',  ( 0.000000000000000000, 0.000000000000000000, 0.000000000000000000 ) ) ;
#111 = CARTESIAN_POINT ( 'NONE',  ( -1.587500000000000355, 1.268411506570323866, -18.16100000000000136 ) ) ;
#112 = EDGE_CURVE ( 'NONE', #231, #251, #187, .T. ) ;
#113 = ORIENTED_EDGE ( 'NONE', *, *, #524, .T. ) ;
#114 = CARTESIAN_POINT ( 'NONE',  ( 1.587500000000000577, 0.4277385810629847906, -18.12698654358311501 ) ) ;
#115 = PRODUCT_DEFINITION_SHAPE ( 'NONE', 'NONE',  #210 ) ;
#116 = ORIENTED_EDGE ( 'NONE', *, *, #39, .F. ) ;
#117 = B_SPLINE_CURVE_WITH_KNOTS ( 'NONE', 3,
 ( #397, #392, #441, #166, #387, #206, #262, #157 ),
 .UNSPECIFIED., .F., .F.,
 ( 4, 2, 2, 4 ),
 ( 0.01485345774306977458, 0.01548583974386943084, 0.01611822174466908883, 0.01738298574626840134 ),
 .UNSPECIFIED. ) ;
#118 = CARTESIAN_POINT ( 'NONE',  ( -1.587500000000000133, 0.2143109880596212047, 18.13322736169286387 ) ) ;
#119 = VECTOR ( 'NONE', #212, 1000.000000000000000 ) ;
#120 = LINE ( 'NONE', #479, #277 ) ;
#121 = ORIENTED_EDGE ( 'NONE', *, *, #334, .F. ) ;
#122 = EDGE_CURVE ( 'NONE', #64, #268, #551, .T. ) ;
#123 = DIRECTION ( 'NONE',  ( 0.000000000000000000, 0.000000000000000000, -1.000000000000000000 ) ) ;
#124 = EDGE_LOOP ( 'NONE', ( #82, #116 ) ) ;
#125 = DIRECTION ( 'NONE',  ( -0.000000000000000000, -0.000000000000000000, 1.000000000000000000 ) ) ;
#126 = ORIENTED_EDGE ( 'NONE', *, *, #85, .F. ) ;
#127 = CARTESIAN_POINT ( 'NONE',  ( -1.587500000000000355, -0.2114796877013867815, 18.13322736169286387 ) ) ;
#128 = EDGE_LOOP ( 'NONE', ( #452, #465, #530, #35 ) ) ;
#129 = APPROVAL_STATUS ( 'not_yet_approved' ) ;
#130 = DIRECTION ( 'NONE',  ( -0.000000000000000000, -0.000000000000000000, 1.000000000000000000 ) ) ;
#131 = EDGE_CURVE ( 'NONE', #474, #498, #55, .T. ) ;
#132 = COORDINATED_UNIVERSAL_TIME_OFFSET ( 6, 0, .BEHIND. ) ;
#133 = CARTESIAN_POINT ( 'NONE',  ( -1.587500000000000577, -0.8514389605504928404, 18.09136751577921132 ) ) ;
#134 = ORIENTED_EDGE ( 'NONE', *, *, #112, .F. ) ;
#135 = CARTESIAN_POINT ( 'NONE',  ( 0.000000000000000000, 0.000000000000000000, 16.03600000000000136 ) ) ;
#136 = ORIENTED_EDGE ( 'NONE', *, *, #229, .F. ) ;
#137 = CC_DESIGN_SECURITY_CLASSIFICATION ( #27, ( #456 ) ) ;
#138 = EDGE_CURVE ( 'NONE', #533, #402, #26, .T. ) ;
#139 = CARTESIAN_POINT ( 'NONE',  ( -1.587500000000000355, -0.4276219574846449878, 18.12699639200009116 ) ) ;
#140 = ORIENTED_EDGE ( 'NONE', *, *, #131, .F. ) ;
#141 = DIRECTION ( 'NONE',  ( 1.000000000000000000, 0.000000000000000000, 0.000000000000000000 ) ) ;
#142 = DIRECTION ( 'NONE',  ( 1.224646799147353207E-16, -1.000000000000000000, 0.000000000000000000 ) ) ;
#143 = EDGE_CURVE ( 'NONE', #391, #442, #347, .T. ) ;
#144 = AXIS2_PLACEMENT_3D ( 'NONE', #47, #529, #12 ) ;
#145 = CARTESIAN_POINT ( 'NONE',  ( -0.8571092511719565765, -1.587500000000000355, 18.11227379706277318 ) ) ;
#146 = CARTESIAN_POINT ( 'NONE',  ( -1.587500000000000355, 1.944126793646423534E-16, -18.13322736169286387 ) ) ;
#147 = DIRECTION ( 'NONE',  ( 1.000000000000000000, 0.000000000000000000, 0.000000000000000000 ) ) ;
#148 = ORIENTED_EDGE ( 'NONE', *, *, #513, .F. ) ;
#149 = CARTESIAN_POINT ( 'NONE',  ( -1.587500000000000355, 0.4276219574846449878, -18.12699639200009116 ) ) ;
#150 = DIRECTION ( 'NONE',  ( -0.000000000000000000, -0.000000000000000000, 1.000000000000000000 ) ) ;
#151 = ORIENTED_EDGE ( 'NONE', *, *, #385, .F. ) ;
#152 = CIRCLE ( 'NONE', #481, 1.245064030267288402 ) ;
#153 = CARTESIAN_POINT ( 'NONE',  ( 1.245064030267288402, 0.000000000000000000, 16.03600000000000136 ) ) ;
#154 = ADVANCED_FACE ( 'NONE', ( #375 ), #544, .F. ) ;
#155 = LINE ( 'NONE', #111, #119 ) ;
#156 = CARTESIAN_POINT ( 'NONE',  ( -1.587500000000000355, 1.061392899157111769, 18.06143677385166768 ) ) ;
#157 = CARTESIAN_POINT ( 'NONE',  ( 1.268411506570323866, -1.587500000000000355, -18.00991914209798139 ) ) ;
#158 = ORIENTED_EDGE ( 'NONE', *, *, #174, .T. ) ;
#159 = DIRECTION ( 'NONE',  ( -0.000000000000000000, -0.000000000000000000, 1.000000000000000000 ) ) ;
#160 = CARTESIAN_POINT ( 'NONE',  ( -1.587500000000000355, 1.587500000000000355, 18.16100000000000136 ) ) ;
#161 = ORIENTED_EDGE ( 'NONE', *, *, #504, .T. ) ;
#162 = EDGE_CURVE ( 'NONE', #284, #218, #412, .T. ) ;
#163 = PERSON_AND_ORGANIZATION_ROLE ( 'design_owner' ) ;
#164 = CIRCLE ( 'NONE', #560, 2.032000000000000028 ) ;
#165 = AXIS2_PLACEMENT_3D ( 'NONE', #365, #159, #374 ) ;
#166 = CARTESIAN_POINT ( 'NONE',  ( -0.4219230645619472253, -1.587500000000000577, -18.12730730355362496 ) ) ;
#167 = ORIENTED_EDGE ( 'NONE', *, *, #417, .F. ) ;
#168 = CARTESIAN_POINT ( 'NONE',  ( 1.587500000000000355, 0.000000000000000000, -18.13322736169286387 ) ) ;
#169 = VERTEX_POINT ( 'NONE', #538 ) ;
#170 = DATE_AND_TIME ( #3, #193 ) ;
#171 = ORIENTED_EDGE ( 'NONE', *, *, #53, .T. ) ;
#172 = CARTESIAN_POINT ( 'NONE',  ( -1.268411506570323866, 1.587500000000000355, 18.00991914209798139 ) ) ;
#173 = TOROIDAL_SURFACE ( 'NONE', #252, 1.245064030267288402, 2.124999999999998224 ) ;
#174 = EDGE_CURVE ( 'NONE', #284, #101, #152, .T. ) ;
#175 = CIRCLE ( 'NONE', #464, 2.032000000000000028 ) ;
#176 = ORIENTED_EDGE ( 'NONE', *, *, #174, .F. ) ;
#177 = CARTESIAN_POINT ( 'NONE',  ( 0.000000000000000000, 0.000000000000000000, -18.00991914209798139 ) ) ;
#178 = CC_DESIGN_PERSON_AND_ORGANIZATION_ASSIGNMENT ( #496, #414, ( #27 ) ) ;
#179 = DIRECTION ( 'NONE',  ( 0.000000000000000000, 0.000000000000000000, -1.000000000000000000 ) ) ;
#180 = CARTESIAN_POINT ( 'NONE',  ( -1.587500000000000355, -1.268411506570323866, -18.16100000000000136 ) ) ;
#181 = B_SPLINE_CURVE_WITH_KNOTS ( 'NONE', 3,
 ( #335, #459, #502, #336, #239, #325, #418, #96 ),
 .UNSPECIFIED., .F., .F.,
 ( 4, 2, 2, 4 ),
 ( 0.01485345774306977458, 0.01548583974386943084, 0.01611822174466908883, 0.01738298574626840134 ),
 .UNSPECIFIED. ) ;
#182 = EDGE_CURVE ( 'NONE', #38, #30, #181, .T. ) ;
#183 = DIRECTION ( 'NONE',  ( -0.000000000000000000, -0.000000000000000000, 1.000000000000000000 ) ) ;
#184 = AXIS2_PLACEMENT_3D ( 'NONE', #332, #495, #497 ) ;
#185 = CARTESIAN_POINT ( 'NONE',  ( -1.268411506570323866, 1.587500000000000355, -18.00991914209798139 ) ) ;
#186 = PERSON ( 'UNSPECIFIED', 'UNSPECIFIED', 'UNSPECIFIED', ('UNSPECIFIED'), ('UNSPECIFIED'), ('UNSPECIFIED') ) ;
#187 = B_SPLINE_CURVE_WITH_KNOTS ( 'NONE', 3,
 ( #542, #372, #463, #423, #109, #235 ),
 .UNSPECIFIED., .F., .F.,
 ( 4, 2, 4 ),
 ( 0.000000000000000000, 0.0006365870327257439716, 0.001273174065451487726 ),
 .UNSPECIFIED. ) ;
#188 = ADVANCED_FACE ( 'NONE', ( #15 ), #395, .T. ) ;
#189 = CARTESIAN_POINT ( 'NONE',  ( 0.2043756380772877579, -1.587500000000000133, 18.13340961896379611 ) ) ;
#190 = CARTESIAN_POINT ( 'NONE',  ( 1.245064030267288402, 0.000000000000000000, 18.16099999999999781 ) ) ;
#191 = APPROVAL ( #285, 'UNSPECIFIED' ) ;
#192 = AXIS2_PLACEMENT_3D ( 'NONE', #369, #142, #368 ) ;
#193 = LOCAL_TIME ( 14, 1, 22.00000000000000000, #399 ) ;
#194 = DIRECTION ( 'NONE',  ( 1.000000000000000000, 0.000000000000000000, 0.000000000000000000 ) ) ;
#195 = CARTESIAN_POINT ( 'NONE',  ( 1.587500000000000355, 0.000000000000000000, -18.13322736169286387 ) ) ;
#196 = ORIENTED_EDGE ( 'NONE', *, *, #334, .T. ) ;
#197 = CARTESIAN_POINT ( 'NONE',  ( 1.268411506570324088, 1.587500000000000355, 18.00991914209798139 ) ) ;
#198 = CARTESIAN_POINT ( 'NONE',  ( 0.000000000000000000, 0.000000000000000000, 18.00991914209798139 ) ) ;
#199 = CARTESIAN_POINT ( 'NONE',  ( -1.587500000000000355, 0.8513200635100127700, 18.09137755531811109 ) ) ;
#200 = APPROVAL ( #219, 'UNSPECIFIED' ) ;
#201 = PLANE ( 'NONE',  #232 ) ;
#202 = ORIENTED_EDGE ( 'NONE', *, *, #554, .F. ) ;
#203 = AXIS2_PLACEMENT_3D ( 'NONE', #500, #242, #21 ) ;
#204 = DIRECTION ( 'NONE',  ( -0.000000000000000000, 1.000000000000000000, 0.000000000000000000 ) ) ;
#205 = CIRCLE ( 'NONE', #518, 2.124999999999998224 ) ;
#206 = CARTESIAN_POINT ( 'NONE',  ( 0.4342314039556041672, -1.587500000000000355, -18.13285171744314184 ) ) ;
#207 = ORIENTED_EDGE ( 'NONE', *, *, #68, .F. ) ;
#208 = CARTESIAN_POINT ( 'NONE',  ( 0.000000000000000000, 0.000000000000000000, -18.16100000000000136 ) ) ;
#209 = LINE ( 'NONE', #390, #525 ) ;
#210 = PRODUCT_DEFINITION ( 'UNKNOWN', '', #456, #345 ) ;
#211 = ORIENTED_EDGE ( 'NONE', *, *, #524, .F. ) ;
#212 = DIRECTION ( 'NONE',  ( -0.000000000000000000, -0.000000000000000000, 1.000000000000000000 ) ) ;
#213 = ORIENTED_EDGE ( 'NONE', *, *, #76, .F. ) ;
#214 = AXIS2_PLACEMENT_3D ( 'NONE', #11, #359, #94 ) ;
#215 = AXIS2_PLACEMENT_3D ( 'NONE', #257, #476, #250 ) ;
#216 = TOROIDAL_SURFACE ( 'NONE', #90, 1.245064030267288402, 2.124999999999998224 ) ;
#217 = CARTESIAN_POINT ( 'NONE',  ( 1.587500000000000355, 1.061392899157111103, -18.06143677385166768 ) ) ;
#218 = VERTEX_POINT ( 'NONE', #433 ) ;
#219 = APPROVAL_STATUS ( 'not_yet_approved' ) ;
#220 = PLANE ( 'NONE',  #144 ) ;
#221 = ORIENTED_EDGE ( 'NONE', *, *, #112, .T. ) ;
#222 = ADVANCED_FACE ( 'NONE', ( #435 ), #32, .F. ) ;
#223 = CARTESIAN_POINT ( 'NONE',  ( -1.245064030267288402, 1.524763679400337895E-16, -16.03600000000000136 ) ) ;
#224 = CARTESIAN_POINT ( 'NONE',  ( 1.587500000000000355, -1.268411506570323866, -18.16100000000000136 ) ) ;
#225 = CARTESIAN_POINT ( 'NONE',  ( -0.8486262390323815463, 1.587500000000000577, 18.09176882282394772 ) ) ;
#226 = EDGE_LOOP ( 'NONE', ( #356, #561, #378, #370 ) ) ;
#227 = DATE_TIME_ROLE ( 'classification_date' ) ;
#228 = DIRECTION ( 'NONE',  ( 0.000000000000000000, 0.000000000000000000, -1.000000000000000000 ) ) ;
#229 = EDGE_CURVE ( 'NONE', #38, #533, #120, .T. ) ;
#230 = CARTESIAN_POINT ( 'NONE',  ( -1.268411506570323866, -1.587500000000000355, -18.00991914209798139 ) ) ;
#231 = VERTEX_POINT ( 'NONE', #300 ) ;
#232 = AXIS2_PLACEMENT_3D ( 'NONE', #160, #340, #342 ) ;
#233 = ORIENTED_EDGE ( 'NONE', *, *, #162, .F. ) ;
#234 = PERSON_AND_ORGANIZATION ( #186, #448 ) ;
#235 = CARTESIAN_POINT ( 'NONE',  ( 1.587500000000000355, -1.268411506570324088, 18.00991914209798139 ) ) ;
#236 = ORIENTED_EDGE ( 'NONE', *, *, #411, .F. ) ;
#237 = CALENDAR_DATE ( 2022, 6, 6 ) ;
#238 = ADVANCED_FACE ( 'NONE', ( #310 ), #201, .F. ) ;
#239 = CARTESIAN_POINT ( 'NONE',  ( 0.2043756380772877579, 1.587500000000000133, -18.13340961896379611 ) ) ;
#240 = DIRECTION ( 'NONE',  ( -1.000000000000000000, 0.000000000000000000, 0.000000000000000000 ) ) ;
#241 = CIRCLE ( 'NONE', #215, 2.032000000000000028 ) ;
#242 = DIRECTION ( 'NONE',  ( 0.000000000000000000, 0.000000000000000000, -1.000000000000000000 ) ) ;
#243 = B_SPLINE_CURVE_WITH_KNOTS ( 'NONE', 3,
 ( #253, #118, #389, #199, #156, #339 ),
 .UNSPECIFIED., .F., .F.,
 ( 4, 2, 4 ),
 ( 1.905938025164285192E-19, 0.0006365870327257439716, 0.001273174065451487726 ),
 .UNSPECIFIED. ) ;
#244 = ADVANCED_FACE ( 'NONE', ( #468 ), #65, .T. ) ;
#245 = ORIENTED_EDGE ( 'NONE', *, *, #53, .F. ) ;
#246 = DIRECTION ( 'NONE',  ( -1.000000000000000000, 0.000000000000000000, -0.000000000000000000 ) ) ;
#247 = CARTESIAN_POINT ( 'NONE',  ( 1.587500000000000355, -0.4276219574846449878, -18.12699639200009116 ) ) ;
#248 = ORIENTED_EDGE ( 'NONE', *, *, #76, .T. ) ;
#249 = APPLICATION_PROTOCOL_DEFINITION ( 'international standard', 'config_control_design', 1994, #380 ) ;
#250 = DIRECTION ( 'NONE',  ( 1.000000000000000000, 0.000000000000000000, 0.000000000000000000 ) ) ;
#251 = VERTEX_POINT ( 'NONE', #552 ) ;
#252 = AXIS2_PLACEMENT_3D ( 'NONE', #353, #515, #522 ) ;
#253 = CARTESIAN_POINT ( 'NONE',  ( -1.587500000000000355, -1.944126793646423534E-16, 18.13322736169286387 ) ) ;
#254 = CIRCLE ( 'NONE', #490, 2.124999999999998224 ) ;
#255 = B_SPLINE_CURVE_WITH_KNOTS ( 'NONE', 3,
 ( #168, #305, #114, #36, #217, #557 ),
 .UNSPECIFIED., .F., .F.,
 ( 4, 2, 4 ),
 ( 0.000000000000000000, 0.0006365870327257437547, 0.001273174065451487509 ),
 .UNSPECIFIED. ) ;
#256 = EDGE_CURVE ( 'NONE', #393, #30, #209, .T. ) ;
#257 = CARTESIAN_POINT ( 'NONE',  ( 0.000000000000000000, 0.000000000000000000, -18.00991914209798139 ) ) ;
#258 = ORIENTED_EDGE ( 'NONE', *, *, #302, .F. ) ;
#259 = CARTESIAN_POINT ( 'NONE',  ( 1.268411506570323866, -1.587500000000000355, -18.16100000000000136 ) ) ;
#260 = ORIENTED_EDGE ( 'NONE', *, *, #269, .F. ) ;
#261 = APPROVAL_DATE_TIME ( #40, #326 ) ;
#262 = CARTESIAN_POINT ( 'NONE',  ( 0.8571092511719565765, -1.587500000000000355, -18.11227379706277318 ) ) ;
#263 = B_SPLINE_CURVE_WITH_KNOTS ( 'NONE', 3,
 ( #362, #44, #88, #278, #189, #104, #145, #106 ),
 .UNSPECIFIED., .F., .F.,
 ( 4, 2, 2, 4 ),
 ( 0.01485345774306977458, 0.01548583974386943084, 0.01611822174466908883, 0.01738298574626840134 ),
 .UNSPECIFIED. ) ;
#264 = ORIENTED_EDGE ( 'NONE', *, *, #143, .F. ) ;
#265 = AXIS2_PLACEMENT_3D ( 'NONE', #198, #63, #240 ) ;
#266 = AXIS2_PLACEMENT_3D ( 'NONE', #208, #105, #67 ) ;
#267 = LINE ( 'NONE', #180, #9 ) ;
#268 = VERTEX_POINT ( 'NONE', #79 ) ;
#269 = EDGE_CURVE ( 'NONE', #6, #442, #281, .T. ) ;
#270 = DIRECTION ( 'NONE',  ( -0.000000000000000000, -0.000000000000000000, 1.000000000000000000 ) ) ;
#271 = VERTEX_POINT ( 'NONE', #69 ) ;
#272 = B_SPLINE_CURVE_WITH_KNOTS ( 'NONE', 3,
 ( #304, #379, #514, #384, #545, #290 ),
 .UNSPECIFIED., .F., .F.,
 ( 4, 2, 4 ),
 ( 0.01485345774306977458, 0.01548163471194334562, 0.01610981168081691492 ),
 .UNSPECIFIED. ) ;
#273 = PERSON_AND_ORGANIZATION ( #186, #448 ) ;
#274 = CARTESIAN_POINT ( 'NONE',  ( 0.8571092511719565765, 1.587500000000000355, 18.11227379706277318 ) ) ;
#275 = EDGE_CURVE ( 'NONE', #268, #474, #241, .T. ) ;
#276 = CARTESIAN_POINT ( 'NONE',  ( -1.587500000000000355, -1.268411506570323866, 18.00991914209798139 ) ) ;
#277 = VECTOR ( 'NONE', #125, 1000.000000000000000 ) ;
#278 = CARTESIAN_POINT ( 'NONE',  ( 0.4219230645619472253, -1.587500000000000577, 18.12730730355362496 ) ) ;
#279 = DIRECTION ( 'NONE',  ( 1.000000000000000000, 0.000000000000000000, 0.000000000000000000 ) ) ;
#280 = APPROVAL_DATE_TIME ( #416, #191 ) ;
#281 = CIRCLE ( 'NONE', #307, 2.124999999999998224 ) ;
#282 = CARTESIAN_POINT ( 'NONE',  ( -1.587500000000000355, -1.061392899157111103, -18.06143677385166768 ) ) ;
#283 = CC_DESIGN_APPROVAL ( #200, ( #456 ) ) ;
#284 = VERTEX_POINT ( 'NONE', #473 ) ;
#285 = APPROVAL_STATUS ( 'not_yet_approved' ) ;
#286 = EDGE_CURVE ( 'NONE', #169, #33, #155, .T. ) ;
#287 = CARTESIAN_POINT ( 'NONE',  ( 1.587500000000000355, -0.2114796877013867815, -18.13322736169286387 ) ) ;
#288 = FACE_OUTER_BOUND ( 'NONE', #107, .T. ) ;
#289 = CARTESIAN_POINT ( 'NONE',  ( -1.587500000000000355, 1.944126793646423534E-16, -18.13322736169286387 ) ) ;
#290 = CARTESIAN_POINT ( 'NONE',  ( 1.587500000000000355, 0.000000000000000000, 18.13322736169286387 ) ) ;
#291 = EDGE_CURVE ( 'NONE', #474, #271, #117, .T. ) ;
#292 = CARTESIAN_POINT ( 'NONE',  ( -1.587500000000000355, -1.268411506570323866, -18.00991914209798139 ) ) ;
#293 = CIRCLE ( 'NONE', #184, 2.032000000000000028 ) ;
#294 = ORIENTED_EDGE ( 'NONE', *, *, #122, .T. ) ;
#295 = VECTOR ( 'NONE', #501, 1000.000000000000000 ) ;
#296 = CARTESIAN_POINT ( 'NONE',  ( 0.000000000000000000, 0.000000000000000000, -18.16099999999999781 ) ) ;
#297 = PRODUCT_RELATED_PRODUCT_CATEGORY ( 'detail', '', ( #484 ) ) ;
#298 = ORIENTED_EDGE ( 'NONE', *, *, #46, .F. ) ;
#299 = DIRECTION ( 'NONE',  ( 0.000000000000000000, 0.000000000000000000, 1.000000000000000000 ) ) ;
#300 = CARTESIAN_POINT ( 'NONE',  ( 1.587500000000000355, 0.000000000000000000, 18.13322736169286387 ) ) ;
#301 = ORIENTED_EDGE ( 'NONE', *, *, #291, .F. ) ;
#302 = EDGE_CURVE ( 'NONE', #70, #271, #1, .T. ) ;
#303 = UNCERTAINTY_MEASURE_WITH_UNIT (LENGTH_MEASURE( 1.000000000000000082E-05 ), #460, 'distance_accuracy_value', 'NONE');
#304 = CARTESIAN_POINT ( 'NONE',  ( 1.587500000000000355, 1.268411506570323866, 18.00991914209798139 ) ) ;
#305 = CARTESIAN_POINT ( 'NONE',  ( 1.587500000000000133, 0.2143109880596212047, -18.13322736169286387 ) ) ;
#306 = VERTEX_POINT ( 'NONE', #312 ) ;
#307 = AXIS2_PLACEMENT_3D ( 'NONE', #553, #72, #308 ) ;
#308 = DIRECTION ( 'NONE',  ( 0.000000000000000000, 0.000000000000000000, -1.000000000000000000 ) ) ;
#309 = ORIENTED_EDGE ( 'NONE', *, *, #411, .T. ) ;
#310 = FACE_OUTER_BOUND ( 'NONE', #436, .T. ) ;
#311 = ORIENTED_EDGE ( 'NONE', *, *, #58, .T. ) ;
#312 = CARTESIAN_POINT ( 'NONE',  ( -1.245064030267288402, 2.006622987633880502E-16, -18.16099999999999781 ) ) ;
#313 = EDGE_CURVE ( 'NONE', #442, #548, #255, .T. ) ;
#314 = ORIENTED_EDGE ( 'NONE', *, *, #138, .F. ) ;
#315 = AXIS2_PLACEMENT_3D ( 'NONE', #426, #100, #23 ) ;
#316 = APPROVAL_PERSON_ORGANIZATION ( #93, #191, #97 ) ;
#317 = FACE_OUTER_BOUND ( 'NONE', #128, .T. ) ;
#318 = DIRECTION ( 'NONE',  ( 1.000000000000000000, 0.000000000000000000, 0.000000000000000000 ) ) ;
#319 = ADVANCED_FACE ( 'NONE', ( #350 ), #173, .T. ) ;
#320 = FACE_OUTER_BOUND ( 'NONE', #382, .T. ) ;
#321 = CARTESIAN_POINT ( 'NONE',  ( -1.587500000000000355, -1.587500000000000355, 18.16100000000000136 ) ) ;
#322 = CIRCLE ( 'NONE', #505, 2.032000000000000028 ) ;
#323 = ORIENTED_EDGE ( 'NONE', *, *, #275, .F. ) ;
#324 = CARTESIAN_POINT ( 'NONE',  ( -1.587500000000000355, 1.268411506570324088, 18.00991914209798139 ) ) ;
#325 = CARTESIAN_POINT ( 'NONE',  ( -0.4342314039556041672, 1.587500000000000355, -18.13285171744314184 ) ) ;
#326 = APPROVAL ( #129, 'UNSPECIFIED' ) ;
#327 = CLOSED_SHELL ( 'NONE', ( #319, #188, #154, #458, #343, #222, #491, #428, #541, #238, #360, #244, #367, #531 ) ) ;
#328 = CARTESIAN_POINT ( 'NONE',  ( 0.000000000000000000, 0.000000000000000000, 18.16099999999999781 ) ) ;
#329 = LOCAL_TIME ( 14, 1, 22.00000000000000000, #521 ) ;
#330 = CARTESIAN_POINT ( 'NONE',  ( -1.587500000000000355, -1.268411506570323866, 18.00991914209798139 ) ) ;
#331 = B_SPLINE_CURVE_WITH_KNOTS ( 'NONE', 3,
 ( #172, #483, #225, #83, #487, #50, #274, #443 ),
 .UNSPECIFIED., .F., .F.,
 ( 4, 2, 2, 4 ),
 ( 0.01485345774306977458, 0.01548583974386943084, 0.01611822174466908883, 0.01738298574626840134 ),
 .UNSPECIFIED. ) ;
#332 = CARTESIAN_POINT ( 'NONE',  ( 0.000000000000000000, 0.000000000000000000, -18.00991914209798139 ) ) ;
#333 = LINE ( 'NONE', #108, #295 ) ;
#334 = EDGE_CURVE ( 'NONE', #454, #268, #267, .T. ) ;
#335 = CARTESIAN_POINT ( 'NONE',  ( 1.268411506570323866, 1.587500000000000355, -18.00991914209798139 ) ) ;
#336 = CARTESIAN_POINT ( 'NONE',  ( 0.4219230645619472253, 1.587500000000000577, -18.12730730355362496 ) ) ;
#337 = AXIS2_PLACEMENT_3D ( 'NONE', #506, #461, #59 ) ;
#338 = EDGE_LOOP ( 'NONE', ( #176, #507, #388, #298, #245, #167, #134, #202 ) ) ;
#339 = CARTESIAN_POINT ( 'NONE',  ( -1.587500000000000355, 1.268411506570324088, 18.00991914209798139 ) ) ;
#340 = DIRECTION ( 'NONE',  ( 0.000000000000000000, 0.000000000000000000, -1.000000000000000000 ) ) ;
#341 =( NAMED_UNIT ( * ) PLANE_ANGLE_UNIT ( ) SI_UNIT ( $, .RADIAN. ) );
#342 = DIRECTION ( 'NONE',  ( -1.000000000000000000, 0.000000000000000000, -0.000000000000000000 ) ) ;
#343 = ADVANCED_FACE ( 'NONE', ( #49 ), #220, .F. ) ;
#344 = ORIENTED_EDGE ( 'NONE', *, *, #504, .F. ) ;
#345 = DESIGN_CONTEXT ( 'detailed design', #429, 'design' ) ;
#346 = FACE_OUTER_BOUND ( 'NONE', #419, .T. ) ;
#347 = B_SPLINE_CURVE_WITH_KNOTS ( 'NONE', 3,
 ( #377, #547, #17, #247, #287, #195 ),
 .UNSPECIFIED., .F., .F.,
 ( 4, 2, 4 ),
 ( 0.01485345774306977458, 0.01548163471194334562, 0.01610981168081691492 ),
 .UNSPECIFIED. ) ;
#348 = CARTESIAN_POINT ( 'NONE',  ( 0.000000000000000000, 0.000000000000000000, -16.03600000000000136 ) ) ;
#349 = ORIENTED_EDGE ( 'NONE', *, *, #143, .T. ) ;
#350 = FACE_OUTER_BOUND ( 'NONE', #338, .T. ) ;
#351 = EDGE_LOOP ( 'NONE', ( #480, #161, #294, #121, #469, #113 ) ) ;
#352 = CC_DESIGN_PERSON_AND_ORGANIZATION_ASSIGNMENT ( #25, #163, ( #484 ) ) ;
#353 = CARTESIAN_POINT ( 'NONE',  ( 0.000000000000000000, 0.000000000000000000, 16.03600000000000136 ) ) ;
#354 = ORIENTED_EDGE ( 'NONE', *, *, #373, .F. ) ;
#355 = CARTESIAN_POINT ( 'NONE',  ( -1.268411506570323866, 1.587500000000000355, 18.00991914209798139 ) ) ;
#356 = ORIENTED_EDGE ( 'NONE', *, *, #385, .T. ) ;
#357 = APPROVAL_ROLE ( '' ) ;
#358 = CARTESIAN_POINT ( 'NONE',  ( 1.587500000000000355, 1.268411506570323866, 18.00991914209798139 ) ) ;
#359 = DIRECTION ( 'NONE',  ( -0.000000000000000000, -0.000000000000000000, 1.000000000000000000 ) ) ;
#360 = ADVANCED_FACE ( 'NONE', ( #288 ), #446, .T. ) ;
#361 = DIRECTION ( 'NONE',  ( 1.000000000000000000, 0.000000000000000000, 0.000000000000000000 ) ) ;
#362 = CARTESIAN_POINT ( 'NONE',  ( 1.268411506570323866, -1.587500000000000355, 18.00991914209798139 ) ) ;
#363 = CYLINDRICAL_SURFACE ( 'NONE', #489, 2.032000000000000028 ) ;
#364 = ORIENTED_EDGE ( 'NONE', *, *, #39, .T. ) ;
#365 = CARTESIAN_POINT ( 'NONE',  ( 0.000000000000000000, 0.000000000000000000, -16.03600000000000136 ) ) ;
#366 = CALENDAR_DATE ( 2022, 6, 6 ) ;
#367 = ADVANCED_FACE ( 'NONE', ( #317 ), #363, .T. ) ;
#368 = DIRECTION ( 'NONE',  ( 1.000000000000000000, 1.224646799147353454E-16, 0.000000000000000000 ) ) ;
#369 = CARTESIAN_POINT ( 'NONE',  ( -1.245064030267288402, -1.524763679400337895E-16, 16.03600000000000136 ) ) ;
#370 = ORIENTED_EDGE ( 'NONE', *, *, #302, .T. ) ;
#371 = SECURITY_CLASSIFICATION_LEVEL ( 'unclassified' ) ;
#372 = CARTESIAN_POINT ( 'NONE',  ( 1.587500000000000355, -0.2143109880596213435, 18.13322736169286031 ) ) ;
#373 = EDGE_CURVE ( 'NONE', #548, #38, #164, .T. ) ;
#374 = DIRECTION ( 'NONE',  ( 1.000000000000000000, 0.000000000000000000, 0.000000000000000000 ) ) ;
#375 = FACE_OUTER_BOUND ( 'NONE', #351, .T. ) ;
#376 = FACE_OUTER_BOUND ( 'NONE', #124, .T. ) ;
#377 = CARTESIAN_POINT ( 'NONE',  ( 1.587500000000000355, -1.268411506570323866, -18.00991914209798139 ) ) ;
#378 = ORIENTED_EDGE ( 'NONE', *, *, #417, .T. ) ;
#379 = CARTESIAN_POINT ( 'NONE',  ( 1.587500000000000133, 1.061532360077855230, 18.06140206829358874 ) ) ;
#380 = APPLICATION_CONTEXT ( 'configuration controlled 3d designs of mechanical parts and assemblies' ) ;
#381 = DIRECTION ( 'NONE',  ( 0.000000000000000000, -1.000000000000000000, 0.000000000000000000 ) ) ;
#382 = EDGE_LOOP ( 'NONE', ( #140, #472, #258, #171 ) ) ;
#383 = CC_DESIGN_APPROVAL ( #326, ( #210 ) ) ;
#384 = CARTESIAN_POINT ( 'NONE',  ( 1.587500000000000355, 0.4276219574846449878, 18.12699639200009116 ) ) ;
#385 = EDGE_CURVE ( 'NONE', #271, #391, #322, .T. ) ;
#386 = B_SPLINE_CURVE_WITH_KNOTS ( 'NONE', 3,
 ( #330, #537, #133, #139, #127, #407 ),
 .UNSPECIFIED., .F., .F.,
 ( 4, 2, 4 ),
 ( 0.01485345774306977458, 0.01548163471194334562, 0.01610981168081691492 ),
 .UNSPECIFIED. ) ;
#387 = CARTESIAN_POINT ( 'NONE',  ( -0.2043756380772877579, -1.587500000000000133, -18.13340961896379611 ) ) ;
#388 = ORIENTED_EDGE ( 'NONE', *, *, #394, .F. ) ;
#389 = CARTESIAN_POINT ( 'NONE',  ( -1.587500000000000577, 0.4277385810629848462, 18.12698654358311501 ) ) ;
#390 = CARTESIAN_POINT ( 'NONE',  ( -1.268411506570323866, 1.587500000000000355, -18.16100000000000136 ) ) ;
#391 = VERTEX_POINT ( 'NONE', #451 ) ;
#392 = CARTESIAN_POINT ( 'NONE',  ( -1.060147506033615628, -1.587500000000000133, -18.06174669625518092 ) ) ;
#393 = VERTEX_POINT ( 'NONE', #355 ) ;
#394 = EDGE_CURVE ( 'NONE', #454, #218, #386, .T. ) ;
#395 = TOROIDAL_SURFACE ( 'NONE', #60, 1.245064030267288402, 2.124999999999998224 ) ;
#396 = CC_DESIGN_APPROVAL ( #191, ( #27 ) ) ;
#397 = CARTESIAN_POINT ( 'NONE',  ( -1.268411506570323866, -1.587500000000000355, -18.00991914209798139 ) ) ;
#398 = ORIENTED_EDGE ( 'NONE', *, *, #554, .T. ) ;
#399 = COORDINATED_UNIVERSAL_TIME_OFFSET ( 6, 0, .BEHIND. ) ;
#400 = CC_DESIGN_DATE_AND_TIME_ASSIGNMENT ( #534, #227, ( #27 ) ) ;
#401 = CARTESIAN_POINT ( 'NONE',  ( 0.000000000000000000, 0.000000000000000000, -18.16100000000000136 ) ) ;
#402 = VERTEX_POINT ( 'NONE', #358 ) ;
#403 = DATE_TIME_ROLE ( 'creation_date' ) ;
#404 = DIRECTION ( 'NONE',  ( 0.000000000000000000, 0.000000000000000000, -1.000000000000000000 ) ) ;
#405 = CIRCLE ( 'NONE', #265, 2.032000000000000028 ) ;
#406 = AXIS2_PLACEMENT_3D ( 'NONE', #556, #543, #246 ) ;
#407 = CARTESIAN_POINT ( 'NONE',  ( -1.587500000000000355, -1.944126793646423534E-16, 18.13322736169286387 ) ) ;
#408 = ORIENTED_EDGE ( 'NONE', *, *, #286, .T. ) ;
#409 = FACE_OUTER_BOUND ( 'NONE', #24, .T. ) ;
#410 = CARTESIAN_POINT ( 'NONE',  ( -1.268411506570324088, -1.587500000000000355, 18.00991914209798139 ) ) ;
#411 = EDGE_CURVE ( 'NONE', #393, #533, #331, .T. ) ;
#412 = CIRCLE ( 'NONE', #192, 2.124999999999998224 ) ;
#413 = CARTESIAN_POINT ( 'NONE',  ( 0.000000000000000000, 0.000000000000000000, 18.00991914209798139 ) ) ;
#414 = PERSON_AND_ORGANIZATION_ROLE ( 'classification_officer' ) ;
#415 = CARTESIAN_POINT ( 'NONE',  ( 1.268411506570323866, -1.587500000000000355, 18.00991914209798139 ) ) ;
#416 = DATE_AND_TIME ( #237, #482 ) ;
#417 = EDGE_CURVE ( 'NONE', #251, #70, #175, .T. ) ;
#418 = CARTESIAN_POINT ( 'NONE',  ( -0.8571092511719565765, 1.587500000000000355, -18.11227379706277318 ) ) ;
#419 = EDGE_LOOP ( 'NONE', ( #73, #408, #248, #555 ) ) ;
#420 = AXIS2_PLACEMENT_3D ( 'NONE', #413, #179, #488 ) ;
#421 = DIRECTION ( 'NONE',  ( -0.000000000000000000, -0.000000000000000000, 1.000000000000000000 ) ) ;
#422 = MANIFOLD_SOLID_BREP ( '228-2500-119', #327 ) ;
#423 = CARTESIAN_POINT ( 'NONE',  ( 1.587500000000000355, -0.8513200635100129920, 18.09137755531811464 ) ) ;
#424 = ORIENTED_EDGE ( 'NONE', *, *, #275, .T. ) ;
#425 = CARTESIAN_POINT ( 'NONE',  ( -1.587500000000000133, 1.061532360077855230, -18.06140206829358874 ) ) ;
#426 = CARTESIAN_POINT ( 'NONE',  ( -1.587500000000000355, -1.587500000000000355, 18.16100000000000136 ) ) ;
#427 = ORIENTED_EDGE ( 'NONE', *, *, #313, .F. ) ;
#428 = ADVANCED_FACE ( 'NONE', ( #409 ), #216, .T. ) ;
#429 = APPLICATION_CONTEXT ( 'configuration controlled 3d designs of mechanical parts and assemblies' ) ;
#430 = ORIENTED_EDGE ( 'NONE', *, *, #182, .F. ) ;
#431 = LOCAL_TIME ( 14, 1, 22.00000000000000000, #485 ) ;
#432 = DIRECTION ( 'NONE',  ( 0.000000000000000000, 0.000000000000000000, 1.000000000000000000 ) ) ;
#433 = CARTESIAN_POINT ( 'NONE',  ( -1.587500000000000355, -1.944126793646423534E-16, 18.13322736169286387 ) ) ;
#434 = ORIENTED_EDGE ( 'NONE', *, *, #256, .F. ) ;
#435 = FACE_OUTER_BOUND ( 'NONE', #520, .T. ) ;
#436 = EDGE_LOOP ( 'NONE', ( #439, #158 ) ) ;
#437 = PERSON_AND_ORGANIZATION_ROLE ( 'creator' ) ;
#438 = DIRECTION ( 'NONE',  ( -0.000000000000000000, -0.000000000000000000, 1.000000000000000000 ) ) ;
#439 = ORIENTED_EDGE ( 'NONE', *, *, #85, .T. ) ;
#440 = DATE_AND_TIME ( #78, #329 ) ;
#441 = CARTESIAN_POINT ( 'NONE',  ( -0.8486262390323815463, -1.587500000000000577, -18.09176882282394772 ) ) ;
#442 = VERTEX_POINT ( 'NONE', #102 ) ;
#443 = CARTESIAN_POINT ( 'NONE',  ( 1.268411506570324088, 1.587500000000000355, 18.00991914209798139 ) ) ;
#444 = LINE ( 'NONE', #224, #455 ) ;
#445 = APPROVAL_ROLE ( '' ) ;
#446 = CYLINDRICAL_SURFACE ( 'NONE', #89, 2.032000000000000028 ) ;
#447 = AXIS2_PLACEMENT_3D ( 'NONE', #296, #421, #147 ) ;
#448 = ORGANIZATION ( 'UNSPECIFIED', 'UNSPECIFIED', '' ) ;
#449 = PLANE ( 'NONE',  #54 ) ;
#450 = COORDINATED_UNIVERSAL_TIME_OFFSET ( 6, 0, .BEHIND. ) ;
#451 = CARTESIAN_POINT ( 'NONE',  ( 1.587500000000000355, -1.268411506570323866, -18.00991914209798139 ) ) ;
#452 = ORIENTED_EDGE ( 'NONE', *, *, #373, .T. ) ;
#453 = EDGE_CURVE ( 'NONE', #306, #64, #205, .T. ) ;
#454 = VERTEX_POINT ( 'NONE', #276 ) ;
#455 = VECTOR ( 'NONE', #13, 1000.000000000000000 ) ;
#456 = PRODUCT_DEFINITION_FORMATION_WITH_SPECIFIED_SOURCE ( 'ANY', '', #484, .NOT_KNOWN. ) ;
#457 = CARTESIAN_POINT ( 'NONE',  ( -1.587500000000000355, -0.8513200635100127700, -18.09137755531811109 ) ) ;
#458 = ADVANCED_FACE ( 'NONE', ( #320 ), #449, .F. ) ;
#459 = CARTESIAN_POINT ( 'NONE',  ( 1.060147506033615628, 1.587500000000000133, -18.06174669625518092 ) ) ;
#460 =( LENGTH_UNIT ( ) NAMED_UNIT ( * ) SI_UNIT ( .MILLI., .METRE. ) );
#461 = DIRECTION ( 'NONE',  ( -0.000000000000000000, -0.000000000000000000, 1.000000000000000000 ) ) ;
#462 = CARTESIAN_POINT ( 'NONE',  ( -1.587500000000000355, 0.2114796877013867815, -18.13322736169286387 ) ) ;
#463 = CARTESIAN_POINT ( 'NONE',  ( 1.587500000000000577, -0.4277385810629849017, 18.12698654358311856 ) ) ;
#464 = AXIS2_PLACEMENT_3D ( 'NONE', #499, #532, #486 ) ;
#465 = ORIENTED_EDGE ( 'NONE', *, *, #229, .T. ) ;
#466 = CARTESIAN_POINT ( 'NONE',  ( -1.587500000000000133, -0.2143109880596211492, -18.13322736169286387 ) ) ;
#467 = CC_DESIGN_PERSON_AND_ORGANIZATION_ASSIGNMENT ( #234, #56, ( #456 ) ) ;
#468 = FACE_OUTER_BOUND ( 'NONE', #226, .T. ) ;
#469 = ORIENTED_EDGE ( 'NONE', *, *, #394, .T. ) ;
#470 = CARTESIAN_POINT ( 'NONE',  ( 1.587500000000000355, 1.268411506570323866, -18.00991914209798139 ) ) ;
#471 = CIRCLE ( 'NONE', #214, 1.245064030267288402 ) ;
#472 = ORIENTED_EDGE ( 'NONE', *, *, #291, .T. ) ;
#473 = CARTESIAN_POINT ( 'NONE',  ( -1.245064030267288402, -2.006622987633880502E-16, 18.16099999999999781 ) ) ;
#474 = VERTEX_POINT ( 'NONE', #230 ) ;
#475 = APPLICATION_PROTOCOL_DEFINITION ( 'international standard', 'config_control_design', 1994, #429 ) ;
#476 = DIRECTION ( 'NONE',  ( -0.000000000000000000, -0.000000000000000000, 1.000000000000000000 ) ) ;
#477 = EDGE_LOOP ( 'NONE', ( #77, #349, #509, #148, #523, #221 ) ) ;
#478 = PERSON_AND_ORGANIZATION ( #186, #448 ) ;
#479 = CARTESIAN_POINT ( 'NONE',  ( 1.268411506570323866, 1.587500000000000355, -18.16100000000000136 ) ) ;
#480 = ORIENTED_EDGE ( 'NONE', *, *, #286, .F. ) ;
#481 = AXIS2_PLACEMENT_3D ( 'NONE', #328, #150, #141 ) ;
#482 = LOCAL_TIME ( 14, 1, 22.00000000000000000, #132 ) ;
#483 = CARTESIAN_POINT ( 'NONE',  ( -1.060147506033615628, 1.587500000000000133, 18.06174669625518092 ) ) ;
#484 = PRODUCT ( '228-2500-119', '228-2500-119', '', ( #503 ) ) ;
#485 = COORDINATED_UNIVERSAL_TIME_OFFSET ( 6, 0, .BEHIND. ) ;
#486 = DIRECTION ( 'NONE',  ( -1.000000000000000000, 0.000000000000000000, 0.000000000000000000 ) ) ;
#487 = CARTESIAN_POINT ( 'NONE',  ( -0.2043756380772877579, 1.587500000000000133, 18.13340961896379611 ) ) ;
#488 = DIRECTION ( 'NONE',  ( -1.000000000000000000, 0.000000000000000000, 0.000000000000000000 ) ) ;
#489 = AXIS2_PLACEMENT_3D ( 'NONE', #401, #270, #279 ) ;
#490 = AXIS2_PLACEMENT_3D ( 'NONE', #153, #204, #432 ) ;
#491 = ADVANCED_FACE ( 'NONE', ( #5 ), #536, .T. ) ;
#492 = DIRECTION ( 'NONE',  ( 0.000000000000000000, 1.000000000000000000, 0.000000000000000000 ) ) ;
#493 = EDGE_LOOP ( 'NONE', ( #512, #364, #558, #264, #151, #301, #323, #92 ) ) ;
#494 = CARTESIAN_POINT ( 'NONE',  ( 1.268411506570323866, 1.587500000000000355, -18.00991914209798139 ) ) ;
#495 = DIRECTION ( 'NONE',  ( -0.000000000000000000, -0.000000000000000000, 1.000000000000000000 ) ) ;
#496 = PERSON_AND_ORGANIZATION ( #186, #448 ) ;
#497 = DIRECTION ( 'NONE',  ( 1.000000000000000000, 0.000000000000000000, 0.000000000000000000 ) ) ;
#498 = VERTEX_POINT ( 'NONE', #410 ) ;
#499 = CARTESIAN_POINT ( 'NONE',  ( 0.000000000000000000, 0.000000000000000000, 18.00991914209798139 ) ) ;
#500 = CARTESIAN_POINT ( 'NONE',  ( 0.000000000000000000, 0.000000000000000000, 18.00991914209798139 ) ) ;
#501 = DIRECTION ( 'NONE',  ( 0.000000000000000000, 0.000000000000000000, -1.000000000000000000 ) ) ;
#502 = CARTESIAN_POINT ( 'NONE',  ( 0.8486262390323815463, 1.587500000000000577, -18.09176882282394772 ) ) ;
#503 = MECHANICAL_CONTEXT ( 'NONE', #380, 'mechanical' ) ;
#504 = EDGE_CURVE ( 'NONE', #169, #64, #71, .T. ) ;
#505 = AXIS2_PLACEMENT_3D ( 'NONE', #177, #41, #10 ) ;
#506 = CARTESIAN_POINT ( 'NONE',  ( 0.000000000000000000, 0.000000000000000000, 18.16099999999999781 ) ) ;
#507 = ORIENTED_EDGE ( 'NONE', *, *, #162, .T. ) ;
#508 = CARTESIAN_POINT ( 'NONE',  ( 0.000000000000000000, 0.000000000000000000, -18.16100000000000136 ) ) ;
#509 = ORIENTED_EDGE ( 'NONE', *, *, #313, .T. ) ;
#510 = CYLINDRICAL_SURFACE ( 'NONE', #266, 2.032000000000000028 ) ;
#511 = DIRECTION ( 'NONE',  ( -0.000000000000000000, -0.000000000000000000, 1.000000000000000000 ) ) ;
#512 = ORIENTED_EDGE ( 'NONE', *, *, #453, .F. ) ;
#513 = EDGE_CURVE ( 'NONE', #402, #548, #333, .T. ) ;
#514 = CARTESIAN_POINT ( 'NONE',  ( 1.587500000000000577, 0.8514389605504928404, 18.09136751577921132 ) ) ;
#515 = DIRECTION ( 'NONE',  ( 0.000000000000000000, 0.000000000000000000, -1.000000000000000000 ) ) ;
#516 = AXIS2_PLACEMENT_3D ( 'NONE', #519, #381, #28 ) ;
#517 = ORIENTED_EDGE ( 'NONE', *, *, #182, .T. ) ;
#518 = AXIS2_PLACEMENT_3D ( 'NONE', #223, #8, #86 ) ;
#519 = CARTESIAN_POINT ( 'NONE',  ( -1.587500000000000355, 1.587500000000000355, 18.16100000000000136 ) ) ;
#520 = EDGE_LOOP ( 'NONE', ( #136, #517, #434, #309 ) ) ;
#521 = COORDINATED_UNIVERSAL_TIME_OFFSET ( 6, 0, .BEHIND. ) ;
#522 = DIRECTION ( 'NONE',  ( 1.000000000000000000, 0.000000000000000000, 0.000000000000000000 ) ) ;
#523 = ORIENTED_EDGE ( 'NONE', *, *, #546, .T. ) ;
#524 = EDGE_CURVE ( 'NONE', #218, #33, #243, .T. ) ;
#525 = VECTOR ( 'NONE', #34, 1000.000000000000000 ) ;
#526 = APPROVAL_PERSON_ORGANIZATION ( #7, #200, #357 ) ;
#527 = CARTESIAN_POINT ( 'NONE',  ( 0.000000000000000000, 0.000000000000000000, -18.16100000000000136 ) ) ;
#528 = PERSON_AND_ORGANIZATION ( #186, #448 ) ;
#529 = DIRECTION ( 'NONE',  ( -1.000000000000000000, 0.000000000000000000, 0.000000000000000000 ) ) ;
#530 = ORIENTED_EDGE ( 'NONE', *, *, #138, .T. ) ;
#531 = ADVANCED_FACE ( 'NONE', ( #346 ), #510, .T. ) ;
#532 = DIRECTION ( 'NONE',  ( 0.000000000000000000, 0.000000000000000000, -1.000000000000000000 ) ) ;
#533 = VERTEX_POINT ( 'NONE', #197 ) ;
#534 = DATE_AND_TIME ( #366, #99 ) ;
#535 =( GEOMETRIC_REPRESENTATION_CONTEXT ( 3 ) GLOBAL_UNCERTAINTY_ASSIGNED_CONTEXT ( ( #303 ) ) GLOBAL_UNIT_ASSIGNED_CONTEXT ( ( #460, #341, #31 ) ) REPRESENTATION_CONTEXT ( 'NONE', 'WORKASPACE' ) );
#536 = TOROIDAL_SURFACE ( 'NONE', #165, 1.245064030267288402, 2.124999999999998224 ) ;
#537 = CARTESIAN_POINT ( 'NONE',  ( -1.587500000000000133, -1.061532360077855230, 18.06140206829358874 ) ) ;
#538 = CARTESIAN_POINT ( 'NONE',  ( -1.587500000000000355, 1.268411506570323866, -18.00991914209798139 ) ) ;
#539 = SHAPE_DEFINITION_REPRESENTATION ( #115, #29 ) ;
#540 = CARTESIAN_POINT ( 'NONE',  ( -1.587500000000000355, 1.944126793646423534E-16, -18.13322736169286387 ) ) ;
#541 = ADVANCED_FACE ( 'NONE', ( #376 ), #549, .T. ) ;
#542 = CARTESIAN_POINT ( 'NONE',  ( 1.587500000000000355, 0.000000000000000000, 18.13322736169286387 ) ) ;
#543 = DIRECTION ( 'NONE',  ( 0.000000000000000000, 0.000000000000000000, -1.000000000000000000 ) ) ;
#544 = PLANE ( 'NONE',  #315 ) ;
#545 = CARTESIAN_POINT ( 'NONE',  ( 1.587500000000000355, 0.2114796877013867815, 18.13322736169286387 ) ) ;
#546 = EDGE_CURVE ( 'NONE', #402, #231, #272, .T. ) ;
#547 = CARTESIAN_POINT ( 'NONE',  ( 1.587500000000000133, -1.061532360077855230, -18.06140206829358874 ) ) ;
#548 = VERTEX_POINT ( 'NONE', #470 ) ;
#549 = PLANE ( 'NONE',  #406 ) ;
#550 = CIRCLE ( 'NONE', #337, 1.245064030267288402 ) ;
#551 = B_SPLINE_CURVE_WITH_KNOTS ( 'NONE', 3,
 ( #540, #466, #57, #457, #282, #292 ),
 .UNSPECIFIED., .F., .F.,
 ( 4, 2, 4 ),
 ( 1.905938025164285192E-19, 0.0006365870327257438632, 0.001273174065451487509 ),
 .UNSPECIFIED. ) ;
#552 = CARTESIAN_POINT ( 'NONE',  ( 1.587500000000000355, -1.268411506570324088, 18.00991914209798139 ) ) ;
#553 = CARTESIAN_POINT ( 'NONE',  ( 1.245064030267288402, 0.000000000000000000, -16.03600000000000136 ) ) ;
#554 = EDGE_CURVE ( 'NONE', #101, #231, #254, .T. ) ;
#555 = ORIENTED_EDGE ( 'NONE', *, *, #256, .T. ) ;
#556 = CARTESIAN_POINT ( 'NONE',  ( -1.587500000000000355, 1.587500000000000355, -18.16100000000000136 ) ) ;
#557 = CARTESIAN_POINT ( 'NONE',  ( 1.587500000000000355, 1.268411506570323866, -18.00991914209798139 ) ) ;
#558 = ORIENTED_EDGE ( 'NONE', *, *, #269, .T. ) ;
#559 = DIRECTION ( 'NONE',  ( 1.000000000000000000, 0.000000000000000000, 0.000000000000000000 ) ) ;
#560 = AXIS2_PLACEMENT_3D ( 'NONE', #87, #130, #43 ) ;
#561 = ORIENTED_EDGE ( 'NONE', *, *, #18, .T. ) ;
ENDSEC;
END-ISO-10303-21;
