ISO-10303-21;
HEADER;
FILE_DESCRIPTION (( 'STEP AP203' ),
    '1' );
FILE_NAME ('228-2500-075.step',
    '2022-06-06T18:56:21',
    ( '' ),
    ( '' ),
    'SwSTEP 2.0',
    'SolidWorks 2021',
    '' );
FILE_SCHEMA (( 'CONFIG_CONTROL_DESIGN' ));
ENDSEC;

DATA;
#1 = CARTESIAN_POINT ( 'NONE',  ( 0.000000000000000000, 0.000000000000000000, 16.03600000000000136 ) ) ;
#2 = ORIENTED_EDGE ( 'NONE', *, *, #351, .F. ) ;
#3 = DIRECTION ( 'NONE',  ( 0.000000000000000000, 0.000000000000000000, -1.000000000000000000 ) ) ;
#4 = AXIS2_PLACEMENT_3D ( 'NONE', #538, #25, #102 ) ;
#5 = ORIENTED_EDGE ( 'NONE', *, *, #328, .T. ) ;
#6 = CIRCLE ( 'NONE', #466, 1.245064030267288402 ) ;
#7 = AXIS2_PLACEMENT_3D ( 'NONE', #98, #257, #13 ) ;
#8 = B_SPLINE_CURVE_WITH_KNOTS ( 'NONE', 3,
 ( #469, #461, #247, #426, #85, #96, #56, #126 ),
 .UNSPECIFIED., .F., .F.,
 ( 4, 2, 2, 4 ),
 ( 0.01485345774306977458, 0.01548583974386943084, 0.01611822174466908883, 0.01738298574626840134 ),
 .UNSPECIFIED. ) ;
#9 = FACE_OUTER_BOUND ( 'NONE', #389, .T. ) ;
#10 = ORIENTED_EDGE ( 'NONE', *, *, #112, .T. ) ;
#11 = DIRECTION ( 'NONE',  ( 1.000000000000000000, 0.000000000000000000, 0.000000000000000000 ) ) ;
#12 = VERTEX_POINT ( 'NONE', #134 ) ;
#13 = DIRECTION ( 'NONE',  ( 1.000000000000000000, 0.000000000000000000, 0.000000000000000000 ) ) ;
#14 = VERTEX_POINT ( 'NONE', #173 ) ;
#15 = EDGE_CURVE ( 'NONE', #29, #160, #181, .T. ) ;
#16 = APPROVAL ( #193, 'UNSPECIFIED' ) ;
#17 = DATE_AND_TIME ( #60, #460 ) ;
#18 = DIRECTION ( 'NONE',  ( -0.000000000000000000, -0.000000000000000000, 1.000000000000000000 ) ) ;
#19 = CARTESIAN_POINT ( 'NONE',  ( -1.268411506570323866, -1.587500000000000355, -18.16100000000000136 ) ) ;
#20 = DIRECTION ( 'NONE',  ( 1.000000000000000000, 0.000000000000000000, 0.000000000000000000 ) ) ;
#21 = ADVANCED_BREP_SHAPE_REPRESENTATION ( '228-2500-075', ( #261, #4 ), #80 ) ;
#22 =( NAMED_UNIT ( * ) SI_UNIT ( $, .STERADIAN. ) SOLID_ANGLE_UNIT ( ) );
#23 = DIRECTION ( 'NONE',  ( 0.000000000000000000, 0.000000000000000000, 1.000000000000000000 ) ) ;
#24 = ORIENTED_EDGE ( 'NONE', *, *, #166, .T. ) ;
#25 = DIRECTION ( 'NONE',  ( 0.000000000000000000, 0.000000000000000000, 1.000000000000000000 ) ) ;
#26 = CARTESIAN_POINT ( 'NONE',  ( -1.587500000000000355, -0.2114796877013867815, 18.13322736169286387 ) ) ;
#27 = CARTESIAN_POINT ( 'NONE',  ( 0.000000000000000000, 0.000000000000000000, 18.00991914209798139 ) ) ;
#28 = DIRECTION ( 'NONE',  ( 0.000000000000000000, 1.000000000000000000, 0.000000000000000000 ) ) ;
#29 = VERTEX_POINT ( 'NONE', #520 ) ;
#30 = CALENDAR_DATE ( 2022, 6, 6 ) ;
#31 = CYLINDRICAL_SURFACE ( 'NONE', #178, 2.032000000000000028 ) ;
#32 = ORIENTED_EDGE ( 'NONE', *, *, #130, .F. ) ;
#33 = EDGE_CURVE ( 'NONE', #89, #99, #141, .T. ) ;
#34 = CIRCLE ( 'NONE', #455, 1.245064030267288402 ) ;
#35 = ADVANCED_FACE ( 'NONE', ( #482 ), #303, .F. ) ;
#36 = CARTESIAN_POINT ( 'NONE',  ( -1.587500000000000355, -1.268411506570323866, -18.00991914209798139 ) ) ;
#37 = VERTEX_POINT ( 'NONE', #59 ) ;
#38 = CIRCLE ( 'NONE', #47, 2.032000000000000028 ) ;
#39 = LOCAL_TIME ( 13, 56, 21.00000000000000000, #84 ) ;
#40 = APPROVAL_DATE_TIME ( #498, #240 ) ;
#41 = CARTESIAN_POINT ( 'NONE',  ( 0.4342314039556041672, 1.587500000000000355, 18.13285171744314184 ) ) ;
#42 = PERSON_AND_ORGANIZATION ( #396, #471 ) ;
#43 = CARTESIAN_POINT ( 'NONE',  ( 0.000000000000000000, 0.000000000000000000, -16.03600000000000136 ) ) ;
#44 = FACE_OUTER_BOUND ( 'NONE', #306, .T. ) ;
#45 = CIRCLE ( 'NONE', #148, 1.245064030267288402 ) ;
#46 = ORIENTED_EDGE ( 'NONE', *, *, #115, .F. ) ;
#47 = AXIS2_PLACEMENT_3D ( 'NONE', #223, #414, #373 ) ;
#48 = CC_DESIGN_APPROVAL ( #240, ( #326 ) ) ;
#49 = DIRECTION ( 'NONE',  ( 0.000000000000000000, 0.000000000000000000, -1.000000000000000000 ) ) ;
#50 = ORIENTED_EDGE ( 'NONE', *, *, #351, .T. ) ;
#51 = LINE ( 'NONE', #259, #522 ) ;
#52 = ORIENTED_EDGE ( 'NONE', *, *, #309, .T. ) ;
#53 = ADVANCED_FACE ( 'NONE', ( #258 ), #378, .T. ) ;
#54 = DIRECTION ( 'NONE',  ( -1.000000000000000000, 1.224646799147353454E-16, 0.000000000000000000 ) ) ;
#55 = ORIENTED_EDGE ( 'NONE', *, *, #343, .F. ) ;
#56 = CARTESIAN_POINT ( 'NONE',  ( -0.8571092511719565765, -1.587500000000000355, 18.11227379706277318 ) ) ;
#57 = ADVANCED_FACE ( 'NONE', ( #526 ), #143, .F. ) ;
#58 = DIRECTION ( 'NONE',  ( -0.000000000000000000, -0.000000000000000000, 1.000000000000000000 ) ) ;
#59 = CARTESIAN_POINT ( 'NONE',  ( -1.268411506570323866, -1.587500000000000355, -18.00991914209798139 ) ) ;
#60 = CALENDAR_DATE ( 2022, 6, 6 ) ;
#61 = DIRECTION ( 'NONE',  ( -1.000000000000000000, 0.000000000000000000, 0.000000000000000000 ) ) ;
#62 = PERSON_AND_ORGANIZATION ( #396, #471 ) ;
#63 = TOROIDAL_SURFACE ( 'NONE', #307, 1.245064030267288402, 2.124999999999998224 ) ;
#64 = CYLINDRICAL_SURFACE ( 'NONE', #481, 2.032000000000000028 ) ;
#65 = ORIENTED_EDGE ( 'NONE', *, *, #33, .F. ) ;
#66 = DIRECTION ( 'NONE',  ( 0.000000000000000000, -1.000000000000000000, 0.000000000000000000 ) ) ;
#67 = EDGE_LOOP ( 'NONE', ( #314, #475, #411, #484, #76, #65, #204, #454 ) ) ;
#68 = CARTESIAN_POINT ( 'NONE',  ( -1.587500000000000355, 1.944126793646423534E-16, -18.13322736169286387 ) ) ;
#69 = CARTESIAN_POINT ( 'NONE',  ( 0.8571092511719565765, -1.587500000000000355, -18.11227379706277318 ) ) ;
#70 = ORIENTED_EDGE ( 'NONE', *, *, #151, .T. ) ;
#71 = DIRECTION ( 'NONE',  ( 0.000000000000000000, 0.000000000000000000, -1.000000000000000000 ) ) ;
#72 = AXIS2_PLACEMENT_3D ( 'NONE', #300, #476, #216 ) ;
#73 = CARTESIAN_POINT ( 'NONE',  ( 1.587500000000000355, 0.000000000000000000, 18.13322736169286387 ) ) ;
#74 = ORIENTED_EDGE ( 'NONE', *, *, #168, .F. ) ;
#75 = CARTESIAN_POINT ( 'NONE',  ( -1.060147506033615628, 1.587500000000000133, 18.06174669625518092 ) ) ;
#76 = ORIENTED_EDGE ( 'NONE', *, *, #328, .F. ) ;
#77 = ADVANCED_FACE ( 'NONE', ( #313 ), #64, .T. ) ;
#78 = EDGE_CURVE ( 'NONE', #171, #497, #146, .T. ) ;
#79 = PERSON_AND_ORGANIZATION ( #396, #471 ) ;
#80 =( GEOMETRIC_REPRESENTATION_CONTEXT ( 3 ) GLOBAL_UNCERTAINTY_ASSIGNED_CONTEXT ( ( #274 ) ) GLOBAL_UNIT_ASSIGNED_CONTEXT ( ( #449, #234, #22 ) ) REPRESENTATION_CONTEXT ( 'NONE', 'WORKASPACE' ) );
#81 = CARTESIAN_POINT ( 'NONE',  ( 1.587500000000000355, -1.061392899157111325, 18.06143677385166768 ) ) ;
#82 = CIRCLE ( 'NONE', #525, 2.032000000000000028 ) ;
#83 = DIRECTION ( 'NONE',  ( 1.000000000000000000, 0.000000000000000000, 0.000000000000000000 ) ) ;
#84 = COORDINATED_UNIVERSAL_TIME_OFFSET ( 6, 0, .BEHIND. ) ;
#85 = CARTESIAN_POINT ( 'NONE',  ( 0.2043756380772877579, -1.587500000000000133, 18.13340961896379611 ) ) ;
#86 = EDGE_LOOP ( 'NONE', ( #201, #508, #479, #245 ) ) ;
#87 = CIRCLE ( 'NONE', #537, 2.124999999999998224 ) ;
#88 = CARTESIAN_POINT ( 'NONE',  ( -1.587500000000000355, 1.061392899157111769, 18.06143677385166768 ) ) ;
#89 = VERTEX_POINT ( 'NONE', #153 ) ;
#90 = B_SPLINE_CURVE_WITH_KNOTS ( 'NONE', 3,
 ( #452, #104, #269, #189, #532, #68 ),
 .UNSPECIFIED., .F., .F.,
 ( 4, 2, 4 ),
 ( 0.01485345774306977458, 0.01548163471194334562, 0.01610981168081691492 ),
 .UNSPECIFIED. ) ;
#91 = AXIS2_PLACEMENT_3D ( 'NONE', #113, #28, #529 ) ;
#92 = SECURITY_CLASSIFICATION ( '', '', #421 ) ;
#93 = DIRECTION ( 'NONE',  ( -0.000000000000000000, -0.000000000000000000, 1.000000000000000000 ) ) ;
#94 = DIRECTION ( 'NONE',  ( -0.000000000000000000, -0.000000000000000000, 1.000000000000000000 ) ) ;
#95 = EDGE_CURVE ( 'NONE', #256, #37, #82, .T. ) ;
#96 = CARTESIAN_POINT ( 'NONE',  ( -0.4342314039556041672, -1.587500000000000355, 18.13285171744314184 ) ) ;
#97 = ORIENTED_EDGE ( 'NONE', *, *, #552, .T. ) ;
#98 = CARTESIAN_POINT ( 'NONE',  ( 0.000000000000000000, 0.000000000000000000, -18.00991914209798139 ) ) ;
#99 = VERTEX_POINT ( 'NONE', #410 ) ;
#100 = FACE_OUTER_BOUND ( 'NONE', #116, .T. ) ;
#101 = DIRECTION ( 'NONE',  ( 1.000000000000000000, 0.000000000000000000, 0.000000000000000000 ) ) ;
#102 = DIRECTION ( 'NONE',  ( 1.000000000000000000, 0.000000000000000000, 0.000000000000000000 ) ) ;
#103 = ORIENTED_EDGE ( 'NONE', *, *, #392, .F. ) ;
#104 = CARTESIAN_POINT ( 'NONE',  ( -1.587500000000000133, 1.061532360077855230, -18.06140206829358874 ) ) ;
#105 = CARTESIAN_POINT ( 'NONE',  ( 1.245064030267288402, 0.000000000000000000, -16.03600000000000136 ) ) ;
#106 = DIRECTION ( 'NONE',  ( 0.000000000000000000, -0.000000000000000000, -1.000000000000000000 ) ) ;
#107 = CARTESIAN_POINT ( 'NONE',  ( 1.587500000000000133, -1.061532360077855230, -18.06140206829358874 ) ) ;
#108 = EDGE_LOOP ( 'NONE', ( #329, #24, #436, #395, #292, #254 ) ) ;
#109 = PLANE ( 'NONE',  #356 ) ;
#110 = CARTESIAN_POINT ( 'NONE',  ( -1.587500000000000355, 1.268411506570323866, -18.16100000000000136 ) ) ;
#111 = DIRECTION ( 'NONE',  ( -0.000000000000000000, -0.000000000000000000, 1.000000000000000000 ) ) ;
#112 = EDGE_CURVE ( 'NONE', #207, #288, #237, .T. ) ;
#113 = CARTESIAN_POINT ( 'NONE',  ( -1.587500000000000355, -1.587500000000000355, 18.16100000000000136 ) ) ;
#114 = DIRECTION ( 'NONE',  ( 0.000000000000000000, 0.000000000000000000, -1.000000000000000000 ) ) ;
#115 = EDGE_CURVE ( 'NONE', #518, #281, #540, .T. ) ;
#116 = EDGE_LOOP ( 'NONE', ( #560, #458, #462, #252, #103, #32, #541, #136 ) ) ;
#117 = EDGE_CURVE ( 'NONE', #531, #14, #191, .T. ) ;
#118 = PRODUCT_DEFINITION_SHAPE ( 'NONE', 'NONE',  #457 ) ;
#119 = CARTESIAN_POINT ( 'NONE',  ( -1.587500000000000133, -0.2143109880596211492, -18.13322736169286387 ) ) ;
#120 = ORIENTED_EDGE ( 'NONE', *, *, #555, .T. ) ;
#121 = PERSON_AND_ORGANIZATION_ROLE ( 'creator' ) ;
#122 = CARTESIAN_POINT ( 'NONE',  ( 1.060147506033615628, 1.587500000000000133, -18.06174669625518092 ) ) ;
#123 = ORIENTED_EDGE ( 'NONE', *, *, #523, .T. ) ;
#124 = CARTESIAN_POINT ( 'NONE',  ( 0.000000000000000000, 0.000000000000000000, 18.00991914209798139 ) ) ;
#125 = ORIENTED_EDGE ( 'NONE', *, *, #131, .T. ) ;
#126 = CARTESIAN_POINT ( 'NONE',  ( -1.268411506570324088, -1.587500000000000355, 18.00991914209798139 ) ) ;
#127 = PRODUCT ( '228-2500-075', '228-2500-075', '', ( #402 ) ) ;
#128 = CYLINDRICAL_SURFACE ( 'NONE', #72, 2.032000000000000028 ) ;
#129 = CARTESIAN_POINT ( 'NONE',  ( -1.587500000000000355, 1.587500000000000355, 18.16100000000000136 ) ) ;
#130 = EDGE_CURVE ( 'NONE', #37, #277, #154, .T. ) ;
#131 = EDGE_CURVE ( 'NONE', #535, #171, #38, .T. ) ;
#132 = FACE_OUTER_BOUND ( 'NONE', #431, .T. ) ;
#133 = B_SPLINE_CURVE_WITH_KNOTS ( 'NONE', 3,
 ( #502, #75, #205, #386, #243, #41, #499, #507 ),
 .UNSPECIFIED., .F., .F.,
 ( 4, 2, 2, 4 ),
 ( 0.01485345774306977458, 0.01548583974386943084, 0.01611822174466908883, 0.01738298574626840134 ),
 .UNSPECIFIED. ) ;
#134 = CARTESIAN_POINT ( 'NONE',  ( -1.245064030267288402, 2.006622987633880502E-16, -18.16099999999999781 ) ) ;
#135 = DIRECTION ( 'NONE',  ( 0.000000000000000000, 0.000000000000000000, -1.000000000000000000 ) ) ;
#136 = ORIENTED_EDGE ( 'NONE', *, *, #226, .F. ) ;
#137 = DIRECTION ( 'NONE',  ( 1.000000000000000000, 0.000000000000000000, 0.000000000000000000 ) ) ;
#138 = DIRECTION ( 'NONE',  ( 0.000000000000000000, 0.000000000000000000, 1.000000000000000000 ) ) ;
#139 = AXIS2_PLACEMENT_3D ( 'NONE', #478, #170, #214 ) ;
#140 = B_SPLINE_CURVE_WITH_KNOTS ( 'NONE', 3,
 ( #176, #435, #394, #167, #88, #342 ),
 .UNSPECIFIED., .F., .F.,
 ( 4, 2, 4 ),
 ( 1.905938025164285192E-19, 0.0006365870327257439716, 0.001273174065451487726 ),
 .UNSPECIFIED. ) ;
#141 = CIRCLE ( 'NONE', #459, 2.032000000000000028 ) ;
#142 = COORDINATED_UNIVERSAL_TIME_OFFSET ( 6, 0, .BEHIND. ) ;
#143 = PLANE ( 'NONE',  #324 ) ;
#144 = CARTESIAN_POINT ( 'NONE',  ( 1.587500000000000355, 0.000000000000000000, -18.13322736169286387 ) ) ;
#145 = LINE ( 'NONE', #232, #506 ) ;
#146 = LINE ( 'NONE', #110, #218 ) ;
#147 = ADVANCED_FACE ( 'NONE', ( #543 ), #194, .F. ) ;
#148 = AXIS2_PLACEMENT_3D ( 'NONE', #397, #93, #438 ) ;
#149 = CARTESIAN_POINT ( 'NONE',  ( 1.587500000000000577, 0.4277385810629847906, -18.12698654358311501 ) ) ;
#150 = ORIENTED_EDGE ( 'NONE', *, *, #558, .F. ) ;
#151 = EDGE_CURVE ( 'NONE', #497, #477, #509, .T. ) ;
#152 = PERSON_AND_ORGANIZATION ( #396, #471 ) ;
#153 = CARTESIAN_POINT ( 'NONE',  ( 1.587500000000000355, 1.268411506570323866, -18.00991914209798139 ) ) ;
#154 = B_SPLINE_CURVE_WITH_KNOTS ( 'NONE', 3,
 ( #453, #489, #544, #496, #321, #180, #69, #371 ),
 .UNSPECIFIED., .F., .F.,
 ( 4, 2, 2, 4 ),
 ( 0.01485345774306977458, 0.01548583974386943084, 0.01611822174466908883, 0.01738298574626840134 ),
 .UNSPECIFIED. ) ;
#155 = CARTESIAN_POINT ( 'NONE',  ( -1.587500000000000133, -1.061532360077855230, 18.06140206829358874 ) ) ;
#156 = APPROVAL_STATUS ( 'not_yet_approved' ) ;
#157 = CARTESIAN_POINT ( 'NONE',  ( -1.245064030267288402, -1.524763679400337895E-16, 16.03600000000000136 ) ) ;
#158 = CIRCLE ( 'NONE', #548, 2.124999999999998224 ) ;
#159 = CARTESIAN_POINT ( 'NONE',  ( 1.268411506570323866, 1.587500000000000355, -18.00991914209798139 ) ) ;
#160 = VERTEX_POINT ( 'NONE', #73 ) ;
#161 = APPROVAL_ROLE ( '' ) ;
#162 = CARTESIAN_POINT ( 'NONE',  ( -1.587500000000000355, -0.8513200635100127700, -18.09137755531811109 ) ) ;
#163 = CARTESIAN_POINT ( 'NONE',  ( 1.587500000000000355, 0.000000000000000000, 18.13322736169286387 ) ) ;
#164 = ORIENTED_EDGE ( 'NONE', *, *, #112, .F. ) ;
#165 = CARTESIAN_POINT ( 'NONE',  ( 0.4219230645619472253, 1.587500000000000577, -18.12730730355362496 ) ) ;
#166 = EDGE_CURVE ( 'NONE', #531, #279, #561, .T. ) ;
#167 = CARTESIAN_POINT ( 'NONE',  ( -1.587500000000000355, 0.8513200635100127700, 18.09137755531811109 ) ) ;
#168 = EDGE_CURVE ( 'NONE', #518, #160, #404, .T. ) ;
#169 = EDGE_LOOP ( 'NONE', ( #349, #5, #150, #367 ) ) ;
#170 = DIRECTION ( 'NONE',  ( -0.000000000000000000, -0.000000000000000000, 1.000000000000000000 ) ) ;
#171 = VERTEX_POINT ( 'NONE', #486 ) ;
#172 = CARTESIAN_POINT ( 'NONE',  ( 1.268411506570323866, -1.587500000000000355, 18.00991914209798139 ) ) ;
#173 = CARTESIAN_POINT ( 'NONE',  ( 1.587500000000000355, -1.268411506570324088, 18.00991914209798139 ) ) ;
#174 = CARTESIAN_POINT ( 'NONE',  ( 1.245064030267288402, 0.000000000000000000, -18.16099999999999781 ) ) ;
#175 = ORIENTED_EDGE ( 'NONE', *, *, #117, .T. ) ;
#176 = CARTESIAN_POINT ( 'NONE',  ( -1.587500000000000355, -1.944126793646423534E-16, 18.13322736169286387 ) ) ;
#177 = CARTESIAN_POINT ( 'NONE',  ( 0.000000000000000000, 0.000000000000000000, -18.00991914209798139 ) ) ;
#178 = AXIS2_PLACEMENT_3D ( 'NONE', #419, #200, #383 ) ;
#179 = APPROVAL_DATE_TIME ( #17, #16 ) ;
#180 = CARTESIAN_POINT ( 'NONE',  ( 0.4342314039556041672, -1.587500000000000355, -18.13285171744314184 ) ) ;
#181 = B_SPLINE_CURVE_WITH_KNOTS ( 'NONE', 3,
 ( #515, #353, #260, #215, #439, #301 ),
 .UNSPECIFIED., .F., .F.,
 ( 4, 2, 4 ),
 ( 0.01485345774306977458, 0.01548163471194334562, 0.01610981168081691492 ),
 .UNSPECIFIED. ) ;
#182 = LINE ( 'NONE', #19, #556 ) ;
#183 = CARTESIAN_POINT ( 'NONE',  ( -1.587500000000000355, -1.268411506570323866, 18.00991914209798139 ) ) ;
#184 = EDGE_CURVE ( 'NONE', #427, #279, #225, .T. ) ;
#185 = CARTESIAN_POINT ( 'NONE',  ( 1.587500000000000355, -1.268411506570323866, -18.00991914209798139 ) ) ;
#186 = CIRCLE ( 'NONE', #536, 2.032000000000000028 ) ;
#187 = DIRECTION ( 'NONE',  ( 0.000000000000000000, 0.000000000000000000, -1.000000000000000000 ) ) ;
#188 = ORIENTED_EDGE ( 'NONE', *, *, #523, .F. ) ;
#189 = CARTESIAN_POINT ( 'NONE',  ( -1.587500000000000355, 0.4276219574846449878, -18.12699639200009116 ) ) ;
#190 = VECTOR ( 'NONE', #533, 1000.000000000000000 ) ;
#191 = LINE ( 'NONE', #450, #190 ) ;
#192 = EDGE_CURVE ( 'NONE', #279, #89, #319, .T. ) ;
#193 = APPROVAL_STATUS ( 'not_yet_approved' ) ;
#194 = PLANE ( 'NONE',  #91 ) ;
#195 = ORIENTED_EDGE ( 'NONE', *, *, #409, .F. ) ;
#196 = CALENDAR_DATE ( 2022, 6, 6 ) ;
#197 = DIRECTION ( 'NONE',  ( -0.000000000000000000, -0.000000000000000000, 1.000000000000000000 ) ) ;
#198 = CARTESIAN_POINT ( 'NONE',  ( 1.268411506570323866, -1.587500000000000355, -18.00991914209798139 ) ) ;
#199 = COORDINATED_UNIVERSAL_TIME_OFFSET ( 6, 0, .BEHIND. ) ;
#200 = DIRECTION ( 'NONE',  ( -0.000000000000000000, -0.000000000000000000, 1.000000000000000000 ) ) ;
#201 = ORIENTED_EDGE ( 'NONE', *, *, #552, .F. ) ;
#202 = APPROVAL_STATUS ( 'not_yet_approved' ) ;
#203 = CARTESIAN_POINT ( 'NONE',  ( -1.587500000000000355, -1.944126793646423534E-16, 18.13322736169286387 ) ) ;
#204 = ORIENTED_EDGE ( 'NONE', *, *, #192, .F. ) ;
#205 = CARTESIAN_POINT ( 'NONE',  ( -0.8486262390323815463, 1.587500000000000577, 18.09176882282394772 ) ) ;
#206 = AXIS2_PLACEMENT_3D ( 'NONE', #401, #220, #360 ) ;
#207 = VERTEX_POINT ( 'NONE', #332 ) ;
#208 = APPROVAL_PERSON_ORGANIZATION ( #246, #240, #282 ) ;
#209 = ADVANCED_FACE ( 'NONE', ( #239 ), #63, .T. ) ;
#210 = CC_DESIGN_PERSON_AND_ORGANIZATION_ASSIGNMENT ( #152, #406, ( #127 ) ) ;
#211 = DIRECTION ( 'NONE',  ( -0.000000000000000000, -0.000000000000000000, 1.000000000000000000 ) ) ;
#212 = ORIENTED_EDGE ( 'NONE', *, *, #226, .T. ) ;
#213 = CC_DESIGN_DATE_AND_TIME_ASSIGNMENT ( #382, #553, ( #92 ) ) ;
#214 = DIRECTION ( 'NONE',  ( 1.000000000000000000, 0.000000000000000000, 0.000000000000000000 ) ) ;
#215 = CARTESIAN_POINT ( 'NONE',  ( 1.587500000000000355, 0.4276219574846449878, 18.12699639200009116 ) ) ;
#216 = DIRECTION ( 'NONE',  ( 1.000000000000000000, 0.000000000000000000, 0.000000000000000000 ) ) ;
#217 = ORIENTED_EDGE ( 'NONE', *, *, #168, .T. ) ;
#218 = VECTOR ( 'NONE', #267, 1000.000000000000000 ) ;
#219 = CARTESIAN_POINT ( 'NONE',  ( -1.245064030267288402, 1.524763679400337895E-16, -16.03600000000000136 ) ) ;
#220 = DIRECTION ( 'NONE',  ( 0.000000000000000000, 0.000000000000000000, -1.000000000000000000 ) ) ;
#221 = APPROVAL ( #202, 'UNSPECIFIED' ) ;
#222 = ORIENTED_EDGE ( 'NONE', *, *, #558, .T. ) ;
#223 = CARTESIAN_POINT ( 'NONE',  ( 0.000000000000000000, 0.000000000000000000, -18.00991914209798139 ) ) ;
#224 = APPLICATION_CONTEXT ( 'configuration controlled 3d designs of mechanical parts and assemblies' ) ;
#225 = CIRCLE ( 'NONE', #297, 2.124999999999998224 ) ;
#226 = EDGE_CURVE ( 'NONE', #446, #256, #366, .T. ) ;
#227 = FACE_OUTER_BOUND ( 'NONE', #169, .T. ) ;
#228 = DIRECTION ( 'NONE',  ( 1.000000000000000000, 0.000000000000000000, 0.000000000000000000 ) ) ;
#229 = EDGE_LOOP ( 'NONE', ( #521, #46, #217, #284, #503, #294, #341, #298 ) ) ;
#230 = CARTESIAN_POINT ( 'NONE',  ( 1.587500000000000133, 0.2143109880596212047, -18.13322736169286387 ) ) ;
#231 = DESIGN_CONTEXT ( 'detailed design', #304, 'design' ) ;
#232 = CARTESIAN_POINT ( 'NONE',  ( -1.268411506570323866, 1.587500000000000355, -18.16100000000000136 ) ) ;
#233 = DIRECTION ( 'NONE',  ( 0.000000000000000000, 0.000000000000000000, -1.000000000000000000 ) ) ;
#234 =( NAMED_UNIT ( * ) PLANE_ANGLE_UNIT ( ) SI_UNIT ( $, .RADIAN. ) );
#235 = VECTOR ( 'NONE', #238, 1000.000000000000000 ) ;
#236 = DIRECTION ( 'NONE',  ( 1.000000000000000000, 0.000000000000000000, 0.000000000000000000 ) ) ;
#237 = B_SPLINE_CURVE_WITH_KNOTS ( 'NONE', 3,
 ( #183, #155, #494, #412, #26, #322 ),
 .UNSPECIFIED., .F., .F.,
 ( 4, 2, 4 ),
 ( 0.01485345774306977458, 0.01548163471194334562, 0.01610981168081691492 ),
 .UNSPECIFIED. ) ;
#238 = DIRECTION ( 'NONE',  ( 0.000000000000000000, 0.000000000000000000, -1.000000000000000000 ) ) ;
#239 = FACE_OUTER_BOUND ( 'NONE', #67, .T. ) ;
#240 = APPROVAL ( #156, 'UNSPECIFIED' ) ;
#241 = PERSON_AND_ORGANIZATION_ROLE ( 'classification_officer' ) ;
#242 = ADVANCED_FACE ( 'NONE', ( #44 ), #31, .T. ) ;
#243 = CARTESIAN_POINT ( 'NONE',  ( -0.2043756380772877579, 1.587500000000000133, 18.13340961896379611 ) ) ;
#244 = AXIS2_PLACEMENT_3D ( 'NONE', #310, #441, #138 ) ;
#245 = ORIENTED_EDGE ( 'NONE', *, *, #350, .T. ) ;
#246 = PERSON_AND_ORGANIZATION ( #396, #471 ) ;
#247 = CARTESIAN_POINT ( 'NONE',  ( 0.8486262390323815463, -1.587500000000000577, 18.09176882282394772 ) ) ;
#248 = EDGE_CURVE ( 'NONE', #477, #355, #133, .T. ) ;
#249 = CARTESIAN_POINT ( 'NONE',  ( -1.587500000000000355, 1.944126793646423534E-16, -18.13322736169286387 ) ) ;
#250 = EDGE_LOOP ( 'NONE', ( #271, #97, #545, #52 ) ) ;
#251 = DIRECTION ( 'NONE',  ( 1.000000000000000000, 0.000000000000000000, 0.000000000000000000 ) ) ;
#252 = ORIENTED_EDGE ( 'NONE', *, *, #166, .F. ) ;
#253 = FACE_OUTER_BOUND ( 'NONE', #229, .T. ) ;
#254 = ORIENTED_EDGE ( 'NONE', *, *, #330, .T. ) ;
#255 = DIRECTION ( 'NONE',  ( 0.000000000000000000, 0.000000000000000000, -1.000000000000000000 ) ) ;
#256 = VERTEX_POINT ( 'NONE', #36 ) ;
#257 = DIRECTION ( 'NONE',  ( -0.000000000000000000, -0.000000000000000000, 1.000000000000000000 ) ) ;
#258 = FACE_OUTER_BOUND ( 'NONE', #464, .T. ) ;
#259 = CARTESIAN_POINT ( 'NONE',  ( 1.268411506570323866, -1.587500000000000355, -18.16100000000000136 ) ) ;
#260 = CARTESIAN_POINT ( 'NONE',  ( 1.587500000000000577, 0.8514389605504928404, 18.09136751577921132 ) ) ;
#261 = MANIFOLD_SOLID_BREP ( '228-2500-075', #490 ) ;
#262 = DIRECTION ( 'NONE',  ( -1.000000000000000000, 0.000000000000000000, -0.000000000000000000 ) ) ;
#263 = ORIENTED_EDGE ( 'NONE', *, *, #350, .F. ) ;
#264 = EDGE_CURVE ( 'NONE', #281, #288, #158, .T. ) ;
#265 = CC_DESIGN_DATE_AND_TIME_ASSIGNMENT ( #325, #336, ( #457 ) ) ;
#266 = APPROVAL_ROLE ( '' ) ;
#267 = DIRECTION ( 'NONE',  ( -0.000000000000000000, -0.000000000000000000, 1.000000000000000000 ) ) ;
#268 = ORIENTED_EDGE ( 'NONE', *, *, #433, .T. ) ;
#269 = CARTESIAN_POINT ( 'NONE',  ( -1.587500000000000577, 0.8514389605504928404, -18.09136751577921132 ) ) ;
#270 = CARTESIAN_POINT ( 'NONE',  ( 1.587500000000000577, -0.8514389605504928404, -18.09136751577921132 ) ) ;
#271 = ORIENTED_EDGE ( 'NONE', *, *, #95, .T. ) ;
#272 = CARTESIAN_POINT ( 'NONE',  ( -1.587500000000000355, 1.587500000000000355, 18.16100000000000136 ) ) ;
#273 = CARTESIAN_POINT ( 'NONE',  ( 0.000000000000000000, 0.000000000000000000, -18.16100000000000136 ) ) ;
#274 = UNCERTAINTY_MEASURE_WITH_UNIT (LENGTH_MEASURE( 1.000000000000000082E-05 ), #449, 'distance_accuracy_value', 'NONE');
#275 = ORIENTED_EDGE ( 'NONE', *, *, #550, .T. ) ;
#276 = CARTESIAN_POINT ( 'NONE',  ( 0.000000000000000000, 0.000000000000000000, 18.00991914209798139 ) ) ;
#277 = VERTEX_POINT ( 'NONE', #198 ) ;
#278 = CARTESIAN_POINT ( 'NONE',  ( 1.587500000000000355, 0.000000000000000000, -18.13322736169286387 ) ) ;
#279 = VERTEX_POINT ( 'NONE', #278 ) ;
#280 = LINE ( 'NONE', #335, #235 ) ;
#281 = VERTEX_POINT ( 'NONE', #554 ) ;
#282 = APPROVAL_ROLE ( '' ) ;
#283 = CARTESIAN_POINT ( 'NONE',  ( 1.587500000000000355, 1.061392899157111103, -18.06143677385166768 ) ) ;
#284 = ORIENTED_EDGE ( 'NONE', *, *, #15, .F. ) ;
#285 = AXIS2_PLACEMENT_3D ( 'NONE', #470, #49, #295 ) ;
#286 = PERSON_AND_ORGANIZATION ( #396, #471 ) ;
#287 = CARTESIAN_POINT ( 'NONE',  ( -1.268411506570323866, 1.587500000000000355, -18.00991914209798139 ) ) ;
#288 = VERTEX_POINT ( 'NONE', #203 ) ;
#289 = CC_DESIGN_SECURITY_CLASSIFICATION ( #92, ( #326 ) ) ;
#290 = APPROVAL_DATE_TIME ( #379, #221 ) ;
#291 = CARTESIAN_POINT ( 'NONE',  ( 0.2043756380772877579, 1.587500000000000133, -18.13340961896379611 ) ) ;
#292 = ORIENTED_EDGE ( 'NONE', *, *, #15, .T. ) ;
#293 = CARTESIAN_POINT ( 'NONE',  ( 1.268411506570324088, 1.587500000000000355, 18.00991914209798139 ) ) ;
#294 = ORIENTED_EDGE ( 'NONE', *, *, #248, .F. ) ;
#295 = DIRECTION ( 'NONE',  ( -1.000000000000000000, 0.000000000000000000, 0.000000000000000000 ) ) ;
#296 = AXIS2_PLACEMENT_3D ( 'NONE', #302, #312, #262 ) ;
#297 = AXIS2_PLACEMENT_3D ( 'NONE', #105, #66, #187 ) ;
#298 = ORIENTED_EDGE ( 'NONE', *, *, #473, .F. ) ;
#299 = CIRCLE ( 'NONE', #380, 2.032000000000000028 ) ;
#300 = CARTESIAN_POINT ( 'NONE',  ( 0.000000000000000000, 0.000000000000000000, -18.16100000000000136 ) ) ;
#301 = CARTESIAN_POINT ( 'NONE',  ( 1.587500000000000355, 0.000000000000000000, 18.13322736169286387 ) ) ;
#302 = CARTESIAN_POINT ( 'NONE',  ( -1.587500000000000355, 1.587500000000000355, -18.16100000000000136 ) ) ;
#303 = PLANE ( 'NONE',  #244 ) ;
#304 = APPLICATION_CONTEXT ( 'configuration controlled 3d designs of mechanical parts and assemblies' ) ;
#305 = CARTESIAN_POINT ( 'NONE',  ( -1.587500000000000355, -1.587500000000000355, 18.16100000000000136 ) ) ;
#306 = EDGE_LOOP ( 'NONE', ( #323, #268, #408, #275 ) ) ;
#307 = AXIS2_PLACEMENT_3D ( 'NONE', #43, #197, #327 ) ;
#308 = DIRECTION ( 'NONE',  ( 0.000000000000000000, 0.000000000000000000, -1.000000000000000000 ) ) ;
#309 = EDGE_CURVE ( 'NONE', #207, #256, #280, .T. ) ;
#310 = CARTESIAN_POINT ( 'NONE',  ( 1.587500000000000355, -1.587500000000000355, 18.16100000000000136 ) ) ;
#311 = EDGE_CURVE ( 'NONE', #355, #29, #299, .T. ) ;
#312 = DIRECTION ( 'NONE',  ( 0.000000000000000000, 0.000000000000000000, -1.000000000000000000 ) ) ;
#313 = FACE_OUTER_BOUND ( 'NONE', #344, .T. ) ;
#314 = ORIENTED_EDGE ( 'NONE', *, *, #343, .T. ) ;
#315 = DIRECTION ( 'NONE',  ( -0.000000000000000000, -0.000000000000000000, 1.000000000000000000 ) ) ;
#316 = CIRCLE ( 'NONE', #285, 2.032000000000000028 ) ;
#317 = AXIS2_PLACEMENT_3D ( 'NONE', #400, #359, #137 ) ;
#318 = CARTESIAN_POINT ( 'NONE',  ( 1.587500000000000355, 0.8513200635100126590, -18.09137755531811109 ) ) ;
#319 = B_SPLINE_CURVE_WITH_KNOTS ( 'NONE', 3,
 ( #445, #230, #149, #318, #283, #547 ),
 .UNSPECIFIED., .F., .F.,
 ( 4, 2, 4 ),
 ( 0.000000000000000000, 0.0006365870327257437547, 0.001273174065451487509 ),
 .UNSPECIFIED. ) ;
#320 = PERSON_AND_ORGANIZATION ( #396, #471 ) ;
#321 = CARTESIAN_POINT ( 'NONE',  ( -0.2043756380772877579, -1.587500000000000133, -18.13340961896379611 ) ) ;
#322 = CARTESIAN_POINT ( 'NONE',  ( -1.587500000000000355, -1.944126793646423534E-16, 18.13322736169286387 ) ) ;
#323 = ORIENTED_EDGE ( 'NONE', *, *, #33, .T. ) ;
#324 = AXIS2_PLACEMENT_3D ( 'NONE', #129, #233, #491 ) ;
#325 = DATE_AND_TIME ( #30, #39 ) ;
#326 = PRODUCT_DEFINITION_FORMATION_WITH_SPECIFIED_SOURCE ( 'ANY', '', #127, .NOT_KNOWN. ) ;
#327 = DIRECTION ( 'NONE',  ( 1.000000000000000000, 0.000000000000000000, 0.000000000000000000 ) ) ;
#328 = EDGE_CURVE ( 'NONE', #99, #535, #390, .T. ) ;
#329 = ORIENTED_EDGE ( 'NONE', *, *, #117, .F. ) ;
#330 = EDGE_CURVE ( 'NONE', #160, #14, #425, .T. ) ;
#331 = PERSON_AND_ORGANIZATION_ROLE ( 'design_supplier' ) ;
#332 = CARTESIAN_POINT ( 'NONE',  ( -1.587500000000000355, -1.268411506570323866, 18.00991914209798139 ) ) ;
#333 = ORIENTED_EDGE ( 'NONE', *, *, #399, .F. ) ;
#334 = CALENDAR_DATE ( 2022, 6, 6 ) ;
#335 = CARTESIAN_POINT ( 'NONE',  ( -1.587500000000000355, -1.268411506570323866, -18.16100000000000136 ) ) ;
#336 = DATE_TIME_ROLE ( 'creation_date' ) ;
#337 = CARTESIAN_POINT ( 'NONE',  ( 1.587500000000000355, -0.2143109880596213435, 18.13322736169286031 ) ) ;
#338 = ORIENTED_EDGE ( 'NONE', *, *, #78, .T. ) ;
#339 = LOCAL_TIME ( 13, 56, 21.00000000000000000, #465 ) ;
#340 = CARTESIAN_POINT ( 'NONE',  ( 1.587500000000000355, -0.8513200635100129920, 18.09137755531811464 ) ) ;
#341 = ORIENTED_EDGE ( 'NONE', *, *, #151, .F. ) ;
#342 = CARTESIAN_POINT ( 'NONE',  ( -1.587500000000000355, 1.268411506570324088, 18.00991914209798139 ) ) ;
#343 = EDGE_CURVE ( 'NONE', #427, #12, #34, .T. ) ;
#344 = EDGE_LOOP ( 'NONE', ( #429, #175, #123, #398 ) ) ;
#345 = CIRCLE ( 'NONE', #7, 2.032000000000000028 ) ;
#346 = VECTOR ( 'NONE', #58, 1000.000000000000000 ) ;
#347 = CARTESIAN_POINT ( 'NONE',  ( -1.268411506570324088, -1.587500000000000355, 18.00991914209798139 ) ) ;
#348 = AXIS2_PLACEMENT_3D ( 'NONE', #369, #539, #23 ) ;
#349 = ORIENTED_EDGE ( 'NONE', *, *, #433, .F. ) ;
#350 = EDGE_CURVE ( 'NONE', #387, #417, #8, .T. ) ;
#351 = EDGE_CURVE ( 'NONE', #281, #518, #6, .T. ) ;
#352 = FACE_OUTER_BOUND ( 'NONE', #393, .T. ) ;
#353 = CARTESIAN_POINT ( 'NONE',  ( 1.587500000000000133, 1.061532360077855230, 18.06140206829358874 ) ) ;
#354 = CYLINDRICAL_SURFACE ( 'NONE', #317, 2.032000000000000028 ) ;
#355 = VERTEX_POINT ( 'NONE', #293 ) ;
#356 = AXIS2_PLACEMENT_3D ( 'NONE', #272, #485, #106 ) ;
#357 = CC_DESIGN_PERSON_AND_ORGANIZATION_ASSIGNMENT ( #286, #546, ( #326 ) ) ;
#358 = TOROIDAL_SURFACE ( 'NONE', #495, 1.245064030267288402, 2.124999999999998224 ) ;
#359 = DIRECTION ( 'NONE',  ( -0.000000000000000000, -0.000000000000000000, 1.000000000000000000 ) ) ;
#360 = DIRECTION ( 'NONE',  ( 1.000000000000000000, 0.000000000000000000, 0.000000000000000000 ) ) ;
#361 = AXIS2_PLACEMENT_3D ( 'NONE', #276, #114, #61 ) ;
#362 = CARTESIAN_POINT ( 'NONE',  ( -1.268411506570323866, 1.587500000000000355, -18.00991914209798139 ) ) ;
#363 = CARTESIAN_POINT ( 'NONE',  ( 1.587500000000000355, -0.2114796877013867815, -18.13322736169286387 ) ) ;
#364 = DIRECTION ( 'NONE',  ( -1.000000000000000000, 0.000000000000000000, 0.000000000000000000 ) ) ;
#365 = DIRECTION ( 'NONE',  ( -0.000000000000000000, -0.000000000000000000, 1.000000000000000000 ) ) ;
#366 = B_SPLINE_CURVE_WITH_KNOTS ( 'NONE', 3,
 ( #249, #119, #511, #162, #549, #428 ),
 .UNSPECIFIED., .F., .F.,
 ( 4, 2, 4 ),
 ( 1.905938025164285192E-19, 0.0006365870327257438632, 0.001273174065451487509 ),
 .UNSPECIFIED. ) ;
#367 = ORIENTED_EDGE ( 'NONE', *, *, #248, .T. ) ;
#368 = VECTOR ( 'NONE', #528, 1000.000000000000000 ) ;
#369 = CARTESIAN_POINT ( 'NONE',  ( 1.245064030267288402, 0.000000000000000000, 16.03600000000000136 ) ) ;
#370 = ORIENTED_EDGE ( 'NONE', *, *, #473, .T. ) ;
#371 = CARTESIAN_POINT ( 'NONE',  ( 1.268411506570323866, -1.587500000000000355, -18.00991914209798139 ) ) ;
#372 = EDGE_CURVE ( 'NONE', #12, #446, #87, .T. ) ;
#373 = DIRECTION ( 'NONE',  ( 1.000000000000000000, 0.000000000000000000, 0.000000000000000000 ) ) ;
#374 = ORIENTED_EDGE ( 'NONE', *, *, #115, .T. ) ;
#375 = ADVANCED_FACE ( 'NONE', ( #100 ), #437, .T. ) ;
#376 = CC_DESIGN_PERSON_AND_ORGANIZATION_ASSIGNMENT ( #62, #121, ( #457 ) ) ;
#377 = CARTESIAN_POINT ( 'NONE',  ( 0.8486262390323815463, 1.587500000000000577, -18.09176882282394772 ) ) ;
#378 = TOROIDAL_SURFACE ( 'NONE', #206, 1.245064030267288402, 2.124999999999998224 ) ;
#379 = DATE_AND_TIME ( #334, #483 ) ;
#380 = AXIS2_PLACEMENT_3D ( 'NONE', #124, #381, #416 ) ;
#381 = DIRECTION ( 'NONE',  ( 0.000000000000000000, 0.000000000000000000, -1.000000000000000000 ) ) ;
#382 = DATE_AND_TIME ( #196, #405 ) ;
#383 = DIRECTION ( 'NONE',  ( 1.000000000000000000, 0.000000000000000000, 0.000000000000000000 ) ) ;
#384 = SHAPE_DEFINITION_REPRESENTATION ( #118, #21 ) ;
#385 = CARTESIAN_POINT ( 'NONE',  ( -0.4342314039556041672, 1.587500000000000355, -18.13285171744314184 ) ) ;
#386 = CARTESIAN_POINT ( 'NONE',  ( -0.4219230645619472253, 1.587500000000000577, 18.12730730355362496 ) ) ;
#387 = VERTEX_POINT ( 'NONE', #172 ) ;
#388 = LINE ( 'NONE', #514, #346 ) ;
#389 = EDGE_LOOP ( 'NONE', ( #55, #195 ) ) ;
#390 = B_SPLINE_CURVE_WITH_KNOTS ( 'NONE', 3,
 ( #159, #122, #377, #165, #291, #385, #463, #287 ),
 .UNSPECIFIED., .F., .F.,
 ( 4, 2, 2, 4 ),
 ( 0.01485345774306977458, 0.01548583974386943084, 0.01611822174466908883, 0.01738298574626840134 ),
 .UNSPECIFIED. ) ;
#391 = CARTESIAN_POINT ( 'NONE',  ( 0.000000000000000000, 0.000000000000000000, 18.16099999999999781 ) ) ;
#392 = EDGE_CURVE ( 'NONE', #277, #531, #345, .T. ) ;
#393 = EDGE_LOOP ( 'NONE', ( #125, #338, #70, #222 ) ) ;
#394 = CARTESIAN_POINT ( 'NONE',  ( -1.587500000000000577, 0.4277385810629848462, 18.12698654358311501 ) ) ;
#395 = ORIENTED_EDGE ( 'NONE', *, *, #550, .F. ) ;
#396 = PERSON ( 'UNSPECIFIED', 'UNSPECIFIED', 'UNSPECIFIED', ('UNSPECIFIED'), ('UNSPECIFIED'), ('UNSPECIFIED') ) ;
#397 = CARTESIAN_POINT ( 'NONE',  ( 0.000000000000000000, 0.000000000000000000, -18.16099999999999781 ) ) ;
#398 = ORIENTED_EDGE ( 'NONE', *, *, #432, .T. ) ;
#399 = EDGE_CURVE ( 'NONE', #417, #207, #316, .T. ) ;
#400 = CARTESIAN_POINT ( 'NONE',  ( 0.000000000000000000, 0.000000000000000000, -18.16100000000000136 ) ) ;
#401 = CARTESIAN_POINT ( 'NONE',  ( 0.000000000000000000, 0.000000000000000000, 16.03600000000000136 ) ) ;
#402 = MECHANICAL_CONTEXT ( 'NONE', #224, 'mechanical' ) ;
#403 = CARTESIAN_POINT ( 'NONE',  ( 1.587500000000000355, -0.4276219574846449878, -18.12699639200009116 ) ) ;
#404 = CIRCLE ( 'NONE', #348, 2.124999999999998224 ) ;
#405 = LOCAL_TIME ( 13, 56, 21.00000000000000000, #199 ) ;
#406 = PERSON_AND_ORGANIZATION_ROLE ( 'design_owner' ) ;
#407 = CARTESIAN_POINT ( 'NONE',  ( 0.000000000000000000, 0.000000000000000000, -18.00991914209798139 ) ) ;
#408 = ORIENTED_EDGE ( 'NONE', *, *, #311, .T. ) ;
#409 = EDGE_CURVE ( 'NONE', #12, #427, #45, .T. ) ;
#410 = CARTESIAN_POINT ( 'NONE',  ( 1.268411506570323866, 1.587500000000000355, -18.00991914209798139 ) ) ;
#411 = ORIENTED_EDGE ( 'NONE', *, *, #555, .F. ) ;
#412 = CARTESIAN_POINT ( 'NONE',  ( -1.587500000000000355, -0.4276219574846449878, 18.12699639200009116 ) ) ;
#413 = AXIS2_PLACEMENT_3D ( 'NONE', #443, #18, #228 ) ;
#414 = DIRECTION ( 'NONE',  ( -0.000000000000000000, -0.000000000000000000, 1.000000000000000000 ) ) ;
#415 = ADVANCED_FACE ( 'NONE', ( #253 ), #358, .T. ) ;
#416 = DIRECTION ( 'NONE',  ( -1.000000000000000000, 0.000000000000000000, 0.000000000000000000 ) ) ;
#417 = VERTEX_POINT ( 'NONE', #347 ) ;
#418 = APPROVAL_PERSON_ORGANIZATION ( #320, #16, #266 ) ;
#419 = CARTESIAN_POINT ( 'NONE',  ( 0.000000000000000000, 0.000000000000000000, -18.16100000000000136 ) ) ;
#420 = EDGE_LOOP ( 'NONE', ( #374, #50 ) ) ;
#421 = SECURITY_CLASSIFICATION_LEVEL ( 'unclassified' ) ;
#422 = APPROVAL_PERSON_ORGANIZATION ( #505, #221, #161 ) ;
#423 = CARTESIAN_POINT ( 'NONE',  ( 0.000000000000000000, 0.000000000000000000, -18.16099999999999781 ) ) ;
#424 = COORDINATED_UNIVERSAL_TIME_OFFSET ( 6, 0, .BEHIND. ) ;
#425 = B_SPLINE_CURVE_WITH_KNOTS ( 'NONE', 3,
 ( #163, #337, #467, #340, #81, #513 ),
 .UNSPECIFIED., .F., .F.,
 ( 4, 2, 4 ),
 ( 0.000000000000000000, 0.0006365870327257439716, 0.001273174065451487726 ),
 .UNSPECIFIED. ) ;
#426 = CARTESIAN_POINT ( 'NONE',  ( 0.4219230645619472253, -1.587500000000000577, 18.12730730355362496 ) ) ;
#427 = VERTEX_POINT ( 'NONE', #174 ) ;
#428 = CARTESIAN_POINT ( 'NONE',  ( -1.587500000000000355, -1.268411506570323866, -18.00991914209798139 ) ) ;
#429 = ORIENTED_EDGE ( 'NONE', *, *, #392, .T. ) ;
#430 = DIRECTION ( 'NONE',  ( 1.224646799147353207E-16, 1.000000000000000000, 0.000000000000000000 ) ) ;
#431 = EDGE_LOOP ( 'NONE', ( #472, #120, #212, #500, #10, #370 ) ) ;
#432 = EDGE_CURVE ( 'NONE', #387, #277, #51, .T. ) ;
#433 = EDGE_CURVE ( 'NONE', #99, #355, #388, .T. ) ;
#434 = PLANE ( 'NONE',  #516 ) ;
#435 = CARTESIAN_POINT ( 'NONE',  ( -1.587500000000000133, 0.2143109880596212047, 18.13322736169286387 ) ) ;
#436 = ORIENTED_EDGE ( 'NONE', *, *, #192, .T. ) ;
#437 = TOROIDAL_SURFACE ( 'NONE', #139, 1.245064030267288402, 2.124999999999998224 ) ;
#438 = DIRECTION ( 'NONE',  ( 1.000000000000000000, 0.000000000000000000, 0.000000000000000000 ) ) ;
#439 = CARTESIAN_POINT ( 'NONE',  ( 1.587500000000000355, 0.2114796877013867815, 18.13322736169286387 ) ) ;
#440 = CARTESIAN_POINT ( 'NONE',  ( -1.587500000000000355, 1.944126793646423534E-16, -18.13322736169286387 ) ) ;
#441 = DIRECTION ( 'NONE',  ( -1.000000000000000000, 0.000000000000000000, 0.000000000000000000 ) ) ;
#442 = APPLICATION_PROTOCOL_DEFINITION ( 'international standard', 'config_control_design', 1994, #224 ) ;
#443 = CARTESIAN_POINT ( 'NONE',  ( 0.000000000000000000, 0.000000000000000000, 18.16099999999999781 ) ) ;
#444 = APPLICATION_PROTOCOL_DEFINITION ( 'international standard', 'config_control_design', 1994, #304 ) ;
#445 = CARTESIAN_POINT ( 'NONE',  ( 1.587500000000000355, 0.000000000000000000, -18.13322736169286387 ) ) ;
#446 = VERTEX_POINT ( 'NONE', #440 ) ;
#447 = ADVANCED_FACE ( 'NONE', ( #474 ), #354, .T. ) ;
#448 = ADVANCED_FACE ( 'NONE', ( #132 ), #434, .F. ) ;
#449 =( LENGTH_UNIT ( ) NAMED_UNIT ( * ) SI_UNIT ( .MILLI., .METRE. ) );
#450 = CARTESIAN_POINT ( 'NONE',  ( 1.587500000000000355, -1.268411506570323866, -18.16100000000000136 ) ) ;
#451 = ORIENTED_EDGE ( 'NONE', *, *, #264, .T. ) ;
#452 = CARTESIAN_POINT ( 'NONE',  ( -1.587500000000000355, 1.268411506570323866, -18.00991914209798139 ) ) ;
#453 = CARTESIAN_POINT ( 'NONE',  ( -1.268411506570323866, -1.587500000000000355, -18.00991914209798139 ) ) ;
#454 = ORIENTED_EDGE ( 'NONE', *, *, #184, .F. ) ;
#455 = AXIS2_PLACEMENT_3D ( 'NONE', #423, #468, #83 ) ;
#456 = CARTESIAN_POINT ( 'NONE',  ( 1.587500000000000355, -1.268411506570323866, -18.00991914209798139 ) ) ;
#457 = PRODUCT_DEFINITION ( 'UNKNOWN', '', #326, #231 ) ;
#458 = ORIENTED_EDGE ( 'NONE', *, *, #409, .T. ) ;
#459 = AXIS2_PLACEMENT_3D ( 'NONE', #177, #94, #101 ) ;
#460 = LOCAL_TIME ( 13, 56, 21.00000000000000000, #142 ) ;
#461 = CARTESIAN_POINT ( 'NONE',  ( 1.060147506033615628, -1.587500000000000133, 18.06174669625518092 ) ) ;
#462 = ORIENTED_EDGE ( 'NONE', *, *, #184, .T. ) ;
#463 = CARTESIAN_POINT ( 'NONE',  ( -0.8571092511719565765, 1.587500000000000355, -18.11227379706277318 ) ) ;
#464 = EDGE_LOOP ( 'NONE', ( #2, #451, #164, #333, #263, #188, #551, #74 ) ) ;
#465 = COORDINATED_UNIVERSAL_TIME_OFFSET ( 6, 0, .BEHIND. ) ;
#466 = AXIS2_PLACEMENT_3D ( 'NONE', #391, #211, #251 ) ;
#467 = CARTESIAN_POINT ( 'NONE',  ( 1.587500000000000577, -0.4277385810629849017, 18.12698654358311856 ) ) ;
#468 = DIRECTION ( 'NONE',  ( -0.000000000000000000, -0.000000000000000000, 1.000000000000000000 ) ) ;
#469 = CARTESIAN_POINT ( 'NONE',  ( 1.268411506570323866, -1.587500000000000355, 18.00991914209798139 ) ) ;
#470 = CARTESIAN_POINT ( 'NONE',  ( 0.000000000000000000, 0.000000000000000000, 18.00991914209798139 ) ) ;
#471 = ORGANIZATION ( 'UNSPECIFIED', 'UNSPECIFIED', '' ) ;
#472 = ORIENTED_EDGE ( 'NONE', *, *, #78, .F. ) ;
#473 = EDGE_CURVE ( 'NONE', #288, #497, #140, .T. ) ;
#474 = FACE_OUTER_BOUND ( 'NONE', #250, .T. ) ;
#475 = ORIENTED_EDGE ( 'NONE', *, *, #372, .T. ) ;
#476 = DIRECTION ( 'NONE',  ( -0.000000000000000000, -0.000000000000000000, 1.000000000000000000 ) ) ;
#477 = VERTEX_POINT ( 'NONE', #517 ) ;
#478 = CARTESIAN_POINT ( 'NONE',  ( 0.000000000000000000, 0.000000000000000000, -16.03600000000000136 ) ) ;
#479 = ORIENTED_EDGE ( 'NONE', *, *, #432, .F. ) ;
#480 = DIRECTION ( 'NONE',  ( 1.000000000000000000, 0.000000000000000000, 0.000000000000000000 ) ) ;
#481 = AXIS2_PLACEMENT_3D ( 'NONE', #273, #365, #236 ) ;
#482 = FACE_OUTER_BOUND ( 'NONE', #108, .T. ) ;
#483 = LOCAL_TIME ( 13, 56, 21.00000000000000000, #424 ) ;
#484 = ORIENTED_EDGE ( 'NONE', *, *, #131, .F. ) ;
#485 = DIRECTION ( 'NONE',  ( 0.000000000000000000, -1.000000000000000000, 0.000000000000000000 ) ) ;
#486 = CARTESIAN_POINT ( 'NONE',  ( -1.587500000000000355, 1.268411506570323866, -18.00991914209798139 ) ) ;
#487 = ADVANCED_FACE ( 'NONE', ( #352 ), #128, .T. ) ;
#488 = CARTESIAN_POINT ( 'NONE',  ( -1.587500000000000355, 1.268411506570324088, 18.00991914209798139 ) ) ;
#489 = CARTESIAN_POINT ( 'NONE',  ( -1.060147506033615628, -1.587500000000000133, -18.06174669625518092 ) ) ;
#490 = CLOSED_SHELL ( 'NONE', ( #53, #209, #448, #147, #35, #512, #375, #415, #492, #57, #447, #77, #242, #487 ) ) ;
#491 = DIRECTION ( 'NONE',  ( -1.000000000000000000, 0.000000000000000000, -0.000000000000000000 ) ) ;
#492 = ADVANCED_FACE ( 'NONE', ( #9 ), #519, .T. ) ;
#493 = CARTESIAN_POINT ( 'NONE',  ( 1.587500000000000355, 1.268411506570323866, -18.16100000000000136 ) ) ;
#494 = CARTESIAN_POINT ( 'NONE',  ( -1.587500000000000577, -0.8514389605504928404, 18.09136751577921132 ) ) ;
#495 = AXIS2_PLACEMENT_3D ( 'NONE', #1, #135, #11 ) ;
#496 = CARTESIAN_POINT ( 'NONE',  ( -0.4219230645619472253, -1.587500000000000577, -18.12730730355362496 ) ) ;
#497 = VERTEX_POINT ( 'NONE', #488 ) ;
#498 = DATE_AND_TIME ( #501, #339 ) ;
#499 = CARTESIAN_POINT ( 'NONE',  ( 0.8571092511719565765, 1.587500000000000355, 18.11227379706277318 ) ) ;
#500 = ORIENTED_EDGE ( 'NONE', *, *, #309, .F. ) ;
#501 = CALENDAR_DATE ( 2022, 6, 6 ) ;
#502 = CARTESIAN_POINT ( 'NONE',  ( -1.268411506570323866, 1.587500000000000355, 18.00991914209798139 ) ) ;
#503 = ORIENTED_EDGE ( 'NONE', *, *, #311, .F. ) ;
#504 = CC_DESIGN_PERSON_AND_ORGANIZATION_ASSIGNMENT ( #79, #331, ( #326 ) ) ;
#505 = PERSON_AND_ORGANIZATION ( #396, #471 ) ;
#506 = VECTOR ( 'NONE', #308, 1000.000000000000000 ) ;
#507 = CARTESIAN_POINT ( 'NONE',  ( 1.268411506570324088, 1.587500000000000355, 18.00991914209798139 ) ) ;
#508 = ORIENTED_EDGE ( 'NONE', *, *, #130, .T. ) ;
#509 = CIRCLE ( 'NONE', #361, 2.032000000000000028 ) ;
#510 = CC_DESIGN_APPROVAL ( #221, ( #92 ) ) ;
#511 = CARTESIAN_POINT ( 'NONE',  ( -1.587500000000000577, -0.4277385810629850682, -18.12698654358311501 ) ) ;
#512 = ADVANCED_FACE ( 'NONE', ( #227 ), #109, .F. ) ;
#513 = CARTESIAN_POINT ( 'NONE',  ( 1.587500000000000355, -1.268411506570324088, 18.00991914209798139 ) ) ;
#514 = CARTESIAN_POINT ( 'NONE',  ( 1.268411506570323866, 1.587500000000000355, -18.16100000000000136 ) ) ;
#515 = CARTESIAN_POINT ( 'NONE',  ( 1.587500000000000355, 1.268411506570323866, 18.00991914209798139 ) ) ;
#516 = AXIS2_PLACEMENT_3D ( 'NONE', #305, #480, #3 ) ;
#517 = CARTESIAN_POINT ( 'NONE',  ( -1.268411506570323866, 1.587500000000000355, 18.00991914209798139 ) ) ;
#518 = VERTEX_POINT ( 'NONE', #542 ) ;
#519 = PLANE ( 'NONE',  #296 ) ;
#520 = CARTESIAN_POINT ( 'NONE',  ( 1.587500000000000355, 1.268411506570323866, 18.00991914209798139 ) ) ;
#521 = ORIENTED_EDGE ( 'NONE', *, *, #264, .F. ) ;
#522 = VECTOR ( 'NONE', #255, 1000.000000000000000 ) ;
#523 = EDGE_CURVE ( 'NONE', #14, #387, #186, .T. ) ;
#524 = LINE ( 'NONE', #493, #368 ) ;
#525 = AXIS2_PLACEMENT_3D ( 'NONE', #407, #315, #20 ) ;
#526 = FACE_OUTER_BOUND ( 'NONE', #420, .T. ) ;
#527 = CC_DESIGN_APPROVAL ( #16, ( #457 ) ) ;
#528 = DIRECTION ( 'NONE',  ( 0.000000000000000000, 0.000000000000000000, -1.000000000000000000 ) ) ;
#529 = DIRECTION ( 'NONE',  ( 0.000000000000000000, -0.000000000000000000, 1.000000000000000000 ) ) ;
#530 = CC_DESIGN_PERSON_AND_ORGANIZATION_ASSIGNMENT ( #42, #241, ( #92 ) ) ;
#531 = VERTEX_POINT ( 'NONE', #185 ) ;
#532 = CARTESIAN_POINT ( 'NONE',  ( -1.587500000000000355, 0.2114796877013867815, -18.13322736169286387 ) ) ;
#533 = DIRECTION ( 'NONE',  ( -0.000000000000000000, -0.000000000000000000, 1.000000000000000000 ) ) ;
#534 = PRODUCT_RELATED_PRODUCT_CATEGORY ( 'detail', '', ( #127 ) ) ;
#535 = VERTEX_POINT ( 'NONE', #362 ) ;
#536 = AXIS2_PLACEMENT_3D ( 'NONE', #27, #71, #364 ) ;
#537 = AXIS2_PLACEMENT_3D ( 'NONE', #219, #430, #54 ) ;
#538 = CARTESIAN_POINT ( 'NONE',  ( 0.000000000000000000, 0.000000000000000000, 0.000000000000000000 ) ) ;
#539 = DIRECTION ( 'NONE',  ( -0.000000000000000000, 1.000000000000000000, 0.000000000000000000 ) ) ;
#540 = CIRCLE ( 'NONE', #413, 1.245064030267288402 ) ;
#541 = ORIENTED_EDGE ( 'NONE', *, *, #95, .F. ) ;
#542 = CARTESIAN_POINT ( 'NONE',  ( 1.245064030267288402, 0.000000000000000000, 18.16099999999999781 ) ) ;
#543 = FACE_OUTER_BOUND ( 'NONE', #86, .T. ) ;
#544 = CARTESIAN_POINT ( 'NONE',  ( -0.8486262390323815463, -1.587500000000000577, -18.09176882282394772 ) ) ;
#545 = ORIENTED_EDGE ( 'NONE', *, *, #399, .T. ) ;
#546 = PERSON_AND_ORGANIZATION_ROLE ( 'creator' ) ;
#547 = CARTESIAN_POINT ( 'NONE',  ( 1.587500000000000355, 1.268411506570323866, -18.00991914209798139 ) ) ;
#548 = AXIS2_PLACEMENT_3D ( 'NONE', #157, #559, #557 ) ;
#549 = CARTESIAN_POINT ( 'NONE',  ( -1.587500000000000355, -1.061392899157111103, -18.06143677385166768 ) ) ;
#550 = EDGE_CURVE ( 'NONE', #29, #89, #524, .T. ) ;
#551 = ORIENTED_EDGE ( 'NONE', *, *, #330, .F. ) ;
#552 = EDGE_CURVE ( 'NONE', #37, #417, #182, .T. ) ;
#553 = DATE_TIME_ROLE ( 'classification_date' ) ;
#554 = CARTESIAN_POINT ( 'NONE',  ( -1.245064030267288402, -2.006622987633880502E-16, 18.16099999999999781 ) ) ;
#555 = EDGE_CURVE ( 'NONE', #171, #446, #90, .T. ) ;
#556 = VECTOR ( 'NONE', #111, 1000.000000000000000 ) ;
#557 = DIRECTION ( 'NONE',  ( 1.000000000000000000, 1.224646799147353454E-16, 0.000000000000000000 ) ) ;
#558 = EDGE_CURVE ( 'NONE', #477, #535, #145, .T. ) ;
#559 = DIRECTION ( 'NONE',  ( 1.224646799147353207E-16, -1.000000000000000000, 0.000000000000000000 ) ) ;
#560 = ORIENTED_EDGE ( 'NONE', *, *, #372, .F. ) ;
#561 = B_SPLINE_CURVE_WITH_KNOTS ( 'NONE', 3,
 ( #456, #107, #270, #403, #363, #144 ),
 .UNSPECIFIED., .F., .F.,
 ( 4, 2, 4 ),
 ( 0.01485345774306977458, 0.01548163471194334562, 0.01610981168081691492 ),
 .UNSPECIFIED. ) ;
ENDSEC;
END-ISO-10303-21;
