ISO-10303-21;
HEADER;
FILE_DESCRIPTION (( 'STEP AP203' ),
    '1' );
FILE_NAME ('228-2500-081.step',
    '2022-06-06T18:57:25',
    ( '' ),
    ( '' ),
    'SwSTEP 2.0',
    'SolidWorks 2021',
    '' );
FILE_SCHEMA (( 'CONFIG_CONTROL_DESIGN' ));
ENDSEC;

DATA;
#1 = CARTESIAN_POINT ( 'NONE',  ( 0.000000000000000000, 0.000000000000000000, -18.00991914209798139 ) ) ;
#2 = VERTEX_POINT ( 'NONE', #178 ) ;
#3 = AXIS2_PLACEMENT_3D ( 'NONE', #470, #89, #258 ) ;
#4 = FACE_OUTER_BOUND ( 'NONE', #83, .T. ) ;
#5 = CARTESIAN_POINT ( 'NONE',  ( -1.587500000000000355, 1.268411506570323866, -18.00991914209798139 ) ) ;
#6 = EDGE_CURVE ( 'NONE', #26, #163, #57, .T. ) ;
#7 = CARTESIAN_POINT ( 'NONE',  ( 0.000000000000000000, 0.000000000000000000, 18.16100000000000136 ) ) ;
#8 = DIRECTION ( 'NONE',  ( 1.000000000000000000, 0.000000000000000000, 0.000000000000000000 ) ) ;
#9 = DIRECTION ( 'NONE',  ( -0.000000000000000000, -0.000000000000000000, 1.000000000000000000 ) ) ;
#10 = CC_DESIGN_DATE_AND_TIME_ASSIGNMENT ( #21, #59, ( #91 ) ) ;
#11 = VECTOR ( 'NONE', #111, 1000.000000000000000 ) ;
#12 = CARTESIAN_POINT ( 'NONE',  ( 1.587500000000000355, 0.000000000000000000, -18.13322736169286387 ) ) ;
#13 = EDGE_LOOP ( 'NONE', ( #51, #129, #104, #196, #78, #239, #144, #376 ) ) ;
#14 = APPROVAL_ROLE ( '' ) ;
#15 = CARTESIAN_POINT ( 'NONE',  ( 0.000000000000000000, 0.000000000000000000, 18.16100000000000136 ) ) ;
#16 = EDGE_CURVE ( 'NONE', #248, #274, #455, .T. ) ;
#17 = CARTESIAN_POINT ( 'NONE',  ( -1.587500000000000355, -1.587500000000000355, 18.16100000000000136 ) ) ;
#18 = APPLICATION_PROTOCOL_DEFINITION ( 'international standard', 'config_control_design', 1994, #343 ) ;
#19 = CIRCLE ( 'NONE', #326, 2.032000000000000028 ) ;
#20 = FACE_OUTER_BOUND ( 'NONE', #245, .T. ) ;
#21 = DATE_AND_TIME ( #440, #277 ) ;
#22 = CARTESIAN_POINT ( 'NONE',  ( 0.000000000000000000, 0.000000000000000000, -16.03600000000000136 ) ) ;
#23 = ORIENTED_EDGE ( 'NONE', *, *, #543, .F. ) ;
#24 = PERSON_AND_ORGANIZATION_ROLE ( 'creator' ) ;
#25 = CARTESIAN_POINT ( 'NONE',  ( 1.268411506570324088, -1.587500000000000355, -18.00991914209798139 ) ) ;
#26 = VERTEX_POINT ( 'NONE', #473 ) ;
#27 = EDGE_CURVE ( 'NONE', #203, #43, #225, .T. ) ;
#28 = PERSON_AND_ORGANIZATION ( #384, #235 ) ;
#29 = PLANE ( 'NONE',  #90 ) ;
#30 = CIRCLE ( 'NONE', #369, 1.245064030267288402 ) ;
#31 = ORIENTED_EDGE ( 'NONE', *, *, #536, .T. ) ;
#32 = DIRECTION ( 'NONE',  ( 1.000000000000000000, 0.000000000000000000, -0.000000000000000000 ) ) ;
#33 = ORIENTED_EDGE ( 'NONE', *, *, #116, .T. ) ;
#34 = AXIS2_PLACEMENT_3D ( 'NONE', #139, #177, #300 ) ;
#35 = COORDINATED_UNIVERSAL_TIME_OFFSET ( 6, 0, .BEHIND. ) ;
#36 = EDGE_CURVE ( 'NONE', #337, #26, #545, .T. ) ;
#37 = DIRECTION ( 'NONE',  ( 0.000000000000000000, 0.000000000000000000, 1.000000000000000000 ) ) ;
#38 = EDGE_LOOP ( 'NONE', ( #512, #98, #208, #70 ) ) ;
#39 = CARTESIAN_POINT ( 'NONE',  ( 1.268411506570323866, -1.587500000000000355, -18.16100000000000136 ) ) ;
#40 = ORIENTED_EDGE ( 'NONE', *, *, #6, .T. ) ;
#41 = CIRCLE ( 'NONE', #3, 1.245064030267288402 ) ;
#42 = CARTESIAN_POINT ( 'NONE',  ( -1.587500000000000355, -1.268411506570324088, -18.00991914209798139 ) ) ;
#43 = VERTEX_POINT ( 'NONE', #266 ) ;
#44 = CIRCLE ( 'NONE', #373, 2.032000000000000028 ) ;
#45 = CARTESIAN_POINT ( 'NONE',  ( -0.4219230645619472253, -1.587500000000000577, -18.12730730355362496 ) ) ;
#46 = VERTEX_POINT ( 'NONE', #382 ) ;
#47 = FACE_OUTER_BOUND ( 'NONE', #421, .T. ) ;
#48 = ORIENTED_EDGE ( 'NONE', *, *, #202, .T. ) ;
#49 = DIRECTION ( 'NONE',  ( 1.000000000000000000, 0.000000000000000000, 0.000000000000000000 ) ) ;
#50 = AXIS2_PLACEMENT_3D ( 'NONE', #483, #531, #102 ) ;
#51 = ORIENTED_EDGE ( 'NONE', *, *, #443, .F. ) ;
#52 = LINE ( 'NONE', #96, #438 ) ;
#53 = ADVANCED_FACE ( 'NONE', ( #524, #4 ), #256, .F. ) ;
#54 = CARTESIAN_POINT ( 'NONE',  ( 1.587500000000000355, 0.000000000000000000, -18.13322736169286387 ) ) ;
#55 = DIRECTION ( 'NONE',  ( 1.000000000000000000, 0.000000000000000000, 0.000000000000000000 ) ) ;
#56 = CARTESIAN_POINT ( 'NONE',  ( 1.268411506570323866, 1.587500000000000355, -18.00991914209798139 ) ) ;
#57 = LINE ( 'NONE', #299, #217 ) ;
#58 = ADVANCED_FACE ( 'NONE', ( #181 ), #284, .T. ) ;
#59 = DATE_TIME_ROLE ( 'creation_date' ) ;
#60 = DIRECTION ( 'NONE',  ( -0.000000000000000000, -0.000000000000000000, 1.000000000000000000 ) ) ;
#61 = CARTESIAN_POINT ( 'NONE',  ( 1.587500000000000355, 0.000000000000000000, -18.13322736169286387 ) ) ;
#62 = ORIENTED_EDGE ( 'NONE', *, *, #536, .F. ) ;
#63 = VECTOR ( 'NONE', #67, 1000.000000000000000 ) ;
#64 = DIRECTION ( 'NONE',  ( -0.000000000000000000, -0.000000000000000000, 1.000000000000000000 ) ) ;
#65 = VERTEX_POINT ( 'NONE', #171 ) ;
#66 = EDGE_CURVE ( 'NONE', #357, #242, #500, .T. ) ;
#67 = DIRECTION ( 'NONE',  ( -0.000000000000000000, -0.000000000000000000, -1.000000000000000000 ) ) ;
#68 = LOCAL_TIME ( 13, 57, 25.00000000000000000, #243 ) ;
#69 = CARTESIAN_POINT ( 'NONE',  ( -1.268411506570323866, -1.587500000000000355, 18.16100000000000136 ) ) ;
#70 = ORIENTED_EDGE ( 'NONE', *, *, #363, .F. ) ;
#71 = PERSON_AND_ORGANIZATION ( #384, #235 ) ;
#72 = LINE ( 'NONE', #288, #526 ) ;
#73 = AXIS2_PLACEMENT_3D ( 'NONE', #22, #232, #236 ) ;
#74 = ORIENTED_EDGE ( 'NONE', *, *, #480, .T. ) ;
#75 = EDGE_CURVE ( 'NONE', #365, #120, #475, .T. ) ;
#76 = SHAPE_DEFINITION_REPRESENTATION ( #114, #506 ) ;
#77 = CARTESIAN_POINT ( 'NONE',  ( -1.587500000000000577, -0.4277385810629848462, -18.12698654358311501 ) ) ;
#78 = ORIENTED_EDGE ( 'NONE', *, *, #27, .F. ) ;
#79 = CARTESIAN_POINT ( 'NONE',  ( -1.268411506570323866, -1.587500000000000355, -18.00991914209798139 ) ) ;
#80 = PRODUCT ( '228-2500-081', '228-2500-081', '', ( #397 ) ) ;
#81 = ORIENTED_EDGE ( 'NONE', *, *, #417, .F. ) ;
#82 = CARTESIAN_POINT ( 'NONE',  ( 0.4342314039556041672, -1.587500000000000355, -18.13285171744314184 ) ) ;
#83 = EDGE_LOOP ( 'NONE', ( #351, #361 ) ) ;
#84 = CARTESIAN_POINT ( 'NONE',  ( 0.4219230645619472253, 1.587500000000000577, -18.12730730355362496 ) ) ;
#85 = ORIENTED_EDGE ( 'NONE', *, *, #398, .F. ) ;
#86 = AXIS2_PLACEMENT_3D ( 'NONE', #433, #94, #8 ) ;
#87 = CARTESIAN_POINT ( 'NONE',  ( -1.268411506570323866, 1.587500000000000355, 18.16100000000000136 ) ) ;
#88 = DIRECTION ( 'NONE',  ( -0.000000000000000000, -0.000000000000000000, 1.000000000000000000 ) ) ;
#89 = DIRECTION ( 'NONE',  ( -0.000000000000000000, -0.000000000000000000, 1.000000000000000000 ) ) ;
#90 = AXIS2_PLACEMENT_3D ( 'NONE', #273, #279, #238 ) ;
#91 = PRODUCT_DEFINITION ( 'UNKNOWN', '', #209, #423 ) ;
#92 = DIRECTION ( 'NONE',  ( -0.000000000000000000, -0.000000000000000000, 1.000000000000000000 ) ) ;
#93 = CARTESIAN_POINT ( 'NONE',  ( -1.587500000000000355, 1.587500000000000355, 18.16100000000000136 ) ) ;
#94 = DIRECTION ( 'NONE',  ( -0.000000000000000000, -0.000000000000000000, 1.000000000000000000 ) ) ;
#95 = CARTESIAN_POINT ( 'NONE',  ( 1.587500000000000355, 1.268411506570324088, -18.00991914209798139 ) ) ;
#96 = CARTESIAN_POINT ( 'NONE',  ( -1.587500000000000355, 1.268411506570323866, -18.16100000000000136 ) ) ;
#97 = EDGE_CURVE ( 'NONE', #46, #206, #317, .T. ) ;
#98 = ORIENTED_EDGE ( 'NONE', *, *, #286, .T. ) ;
#99 = VECTOR ( 'NONE', #118, 1000.000000000000000 ) ;
#100 = APPROVAL_ROLE ( '' ) ;
#101 = VECTOR ( 'NONE', #255, 1000.000000000000000 ) ;
#102 = DIRECTION ( 'NONE',  ( 1.000000000000000000, 0.000000000000000000, 0.000000000000000000 ) ) ;
#103 = CARTESIAN_POINT ( 'NONE',  ( -1.245064030267288402, 2.006622987633880502E-16, -18.16099999999999781 ) ) ;
#104 = ORIENTED_EDGE ( 'NONE', *, *, #97, .T. ) ;
#105 = CYLINDRICAL_SURFACE ( 'NONE', #502, 2.032000000000000028 ) ;
#106 = ORIENTED_EDGE ( 'NONE', *, *, #424, .T. ) ;
#107 = EDGE_CURVE ( 'NONE', #46, #190, #41, .T. ) ;
#108 = APPROVAL_DATE_TIME ( #436, #127 ) ;
#109 = AXIS2_PLACEMENT_3D ( 'NONE', #219, #9, #519 ) ;
#110 = LINE ( 'NONE', #276, #176 ) ;
#111 = DIRECTION ( 'NONE',  ( -0.000000000000000000, -1.000000000000000000, -0.000000000000000000 ) ) ;
#112 = CC_DESIGN_APPROVAL ( #127, ( #91 ) ) ;
#113 = EDGE_LOOP ( 'NONE', ( #314, #81, #468, #497 ) ) ;
#114 = PRODUCT_DEFINITION_SHAPE ( 'NONE', 'NONE',  #91 ) ;
#115 = PLANE ( 'NONE',  #425 ) ;
#116 = EDGE_CURVE ( 'NONE', #140, #541, #427, .T. ) ;
#117 = ORIENTED_EDGE ( 'NONE', *, *, #6, .F. ) ;
#118 = DIRECTION ( 'NONE',  ( -0.000000000000000000, -0.000000000000000000, -1.000000000000000000 ) ) ;
#119 = CIRCLE ( 'NONE', #151, 2.399999999999999911 ) ;
#120 = VERTEX_POINT ( 'NONE', #304 ) ;
#121 = DATE_AND_TIME ( #124, #68 ) ;
#122 = CARTESIAN_POINT ( 'NONE',  ( -1.587500000000000355, -1.061392899157111769, -18.06143677385166768 ) ) ;
#123 = ORIENTED_EDGE ( 'NONE', *, *, #27, .T. ) ;
#124 = CALENDAR_DATE ( 2022, 6, 6 ) ;
#125 = CARTESIAN_POINT ( 'NONE',  ( -2.399999999999999911, 0.000000000000000000, 18.96099999999999852 ) ) ;
#126 = EDGE_LOOP ( 'NONE', ( #117, #418, #289, #388 ) ) ;
#127 = APPROVAL ( #530, 'UNSPECIFIED' ) ;
#128 = DIRECTION ( 'NONE',  ( 1.000000000000000000, 0.000000000000000000, 0.000000000000000000 ) ) ;
#129 = ORIENTED_EDGE ( 'NONE', *, *, #334, .T. ) ;
#130 = CARTESIAN_POINT ( 'NONE',  ( -1.587500000000000355, 0.2114796877013867815, -18.13322736169286387 ) ) ;
#131 = ORIENTED_EDGE ( 'NONE', *, *, #511, .F. ) ;
#132 = CARTESIAN_POINT ( 'NONE',  ( 0.000000000000000000, 0.000000000000000000, -18.16100000000000136 ) ) ;
#133 = DIRECTION ( 'NONE',  ( 1.000000000000000000, 0.000000000000000000, -0.000000000000000000 ) ) ;
#134 = EDGE_CURVE ( 'NONE', #206, #120, #472, .T. ) ;
#135 = CARTESIAN_POINT ( 'NONE',  ( 1.587500000000000355, -1.268411506570323866, -18.00991914209798139 ) ) ;
#136 = DIRECTION ( 'NONE',  ( 0.000000000000000000, 0.000000000000000000, 1.000000000000000000 ) ) ;
#137 = TOROIDAL_SURFACE ( 'NONE', #73, 1.245064030267288402, 2.124999999999998224 ) ;
#138 = CARTESIAN_POINT ( 'NONE',  ( 0.000000000000000000, 0.000000000000000000, -18.00991914209798139 ) ) ;
#139 = CARTESIAN_POINT ( 'NONE',  ( 0.000000000000000000, 0.000000000000000000, 18.96099999999999852 ) ) ;
#140 = VERTEX_POINT ( 'NONE', #264 ) ;
#141 = PERSON_AND_ORGANIZATION ( #384, #235 ) ;
#142 = AXIS2_PLACEMENT_3D ( 'NONE', #132, #298, #55 ) ;
#143 = PLANE ( 'NONE',  #415 ) ;
#144 = ORIENTED_EDGE ( 'NONE', *, *, #36, .F. ) ;
#145 = PERSON_AND_ORGANIZATION ( #384, #235 ) ;
#146 = CARTESIAN_POINT ( 'NONE',  ( 1.587500000000000355, -1.268411506570323866, -18.16100000000000136 ) ) ;
#147 = VERTEX_POINT ( 'NONE', #56 ) ;
#148 = PRODUCT_RELATED_PRODUCT_CATEGORY ( 'detail', '', ( #80 ) ) ;
#149 = DIRECTION ( 'NONE',  ( 1.000000000000000000, 0.000000000000000000, 0.000000000000000000 ) ) ;
#150 = CARTESIAN_POINT ( 'NONE',  ( 0.000000000000000000, 0.000000000000000000, -18.16100000000000136 ) ) ;
#151 = AXIS2_PLACEMENT_3D ( 'NONE', #399, #444, #441 ) ;
#152 = CARTESIAN_POINT ( 'NONE',  ( 2.399999999999999911, 2.939152317953647106E-16, 18.16100000000000136 ) ) ;
#153 = ADVANCED_FACE ( 'NONE', ( #360 ), #137, .T. ) ;
#154 = DIRECTION ( 'NONE',  ( 0.000000000000000000, 0.000000000000000000, -1.000000000000000000 ) ) ;
#155 = AXIS2_PLACEMENT_3D ( 'NONE', #183, #349, #149 ) ;
#156 = FACE_OUTER_BOUND ( 'NONE', #113, .T. ) ;
#157 = ORIENTED_EDGE ( 'NONE', *, *, #66, .F. ) ;
#158 = LINE ( 'NONE', #39, #446 ) ;
#159 = AXIS2_PLACEMENT_3D ( 'NONE', #7, #136, #133 ) ;
#160 = ORIENTED_EDGE ( 'NONE', *, *, #309, .T. ) ;
#161 = APPROVAL_STATUS ( 'not_yet_approved' ) ;
#162 = DIRECTION ( 'NONE',  ( 1.000000000000000000, 0.000000000000000000, 0.000000000000000000 ) ) ;
#163 = VERTEX_POINT ( 'NONE', #69 ) ;
#164 = ADVANCED_FACE ( 'NONE', ( #20 ), #29, .F. ) ;
#165 = DIRECTION ( 'NONE',  ( 0.000000000000000000, -1.000000000000000000, 0.000000000000000000 ) ) ;
#166 = ORIENTED_EDGE ( 'NONE', *, *, #527, .F. ) ;
#167 =( NAMED_UNIT ( * ) PLANE_ANGLE_UNIT ( ) SI_UNIT ( $, .RADIAN. ) );
#168 = ORIENTED_EDGE ( 'NONE', *, *, #134, .F. ) ;
#169 = LINE ( 'NONE', #336, #101 ) ;
#170 = ADVANCED_FACE ( 'NONE', ( #188 ), #195, .T. ) ;
#171 = CARTESIAN_POINT ( 'NONE',  ( -1.268411506570324088, 1.587500000000000355, -18.00991914209798139 ) ) ;
#172 = CARTESIAN_POINT ( 'NONE',  ( -1.587500000000000577, 0.8514389605504928404, -18.09136751577921132 ) ) ;
#173 = ORIENTED_EDGE ( 'NONE', *, *, #375, .T. ) ;
#174 =( LENGTH_UNIT ( ) NAMED_UNIT ( * ) SI_UNIT ( .MILLI., .METRE. ) );
#175 = CARTESIAN_POINT ( 'NONE',  ( 1.587500000000000355, 0.8513200635100129920, -18.09137755531811464 ) ) ;
#176 = VECTOR ( 'NONE', #448, 1000.000000000000000 ) ;
#177 = DIRECTION ( 'NONE',  ( -0.000000000000000000, -0.000000000000000000, -1.000000000000000000 ) ) ;
#178 = CARTESIAN_POINT ( 'NONE',  ( -1.587500000000000355, -1.268411506570323866, 18.16100000000000136 ) ) ;
#179 = CC_DESIGN_PERSON_AND_ORGANIZATION_ASSIGNMENT ( #28, #451, ( #513 ) ) ;
#180 = CC_DESIGN_APPROVAL ( #381, ( #513 ) ) ;
#181 = FACE_OUTER_BOUND ( 'NONE', #13, .T. ) ;
#182 = B_SPLINE_CURVE_WITH_KNOTS ( 'NONE', 3,
 ( #546, #452, #77, #498, #122, #42 ),
 .UNSPECIFIED., .F., .F.,
 ( 4, 2, 4 ),
 ( 1.905938025164285192E-19, 0.0006365870327257439716, 0.001273174065451487726 ),
 .UNSPECIFIED. ) ;
#183 = CARTESIAN_POINT ( 'NONE',  ( 0.000000000000000000, 0.000000000000000000, 0.000000000000000000 ) ) ;
#184 = CARTESIAN_POINT ( 'NONE',  ( 0.000000000000000000, 0.000000000000000000, 18.96099999999999852 ) ) ;
#185 = ORIENTED_EDGE ( 'NONE', *, *, #443, .T. ) ;
#186 = CALENDAR_DATE ( 2022, 6, 6 ) ;
#187 = EDGE_CURVE ( 'NONE', #409, #330, #119, .T. ) ;
#188 = FACE_OUTER_BOUND ( 'NONE', #488, .T. ) ;
#189 = AXIS2_PLACEMENT_3D ( 'NONE', #358, #487, #316 ) ;
#190 = VERTEX_POINT ( 'NONE', #103 ) ;
#191 = PERSON_AND_ORGANIZATION ( #384, #235 ) ;
#192 = CYLINDRICAL_SURFACE ( 'NONE', #189, 2.399999999999999911 ) ;
#193 = PLANE ( 'NONE',  #215 ) ;
#194 = ADVANCED_FACE ( 'NONE', ( #402 ), #143, .F. ) ;
#195 = CYLINDRICAL_SURFACE ( 'NONE', #405, 2.032000000000000028 ) ;
#196 = ORIENTED_EDGE ( 'NONE', *, *, #480, .F. ) ;
#197 = SECURITY_CLASSIFICATION_LEVEL ( 'unclassified' ) ;
#198 = DIRECTION ( 'NONE',  ( 0.000000000000000000, -0.000000000000000000, 1.000000000000000000 ) ) ;
#199 = APPROVAL_PERSON_ORGANIZATION ( #191, #278, #14 ) ;
#200 = ORIENTED_EDGE ( 'NONE', *, *, #363, .T. ) ;
#201 = CARTESIAN_POINT ( 'NONE',  ( -0.8486262390323815463, -1.587500000000000577, -18.09176882282394772 ) ) ;
#202 = EDGE_CURVE ( 'NONE', #330, #409, #454, .T. ) ;
#203 = VERTEX_POINT ( 'NONE', #25 ) ;
#204 = PLANE ( 'NONE',  #396 ) ;
#205 = AXIS2_PLACEMENT_3D ( 'NONE', #138, #514, #481 ) ;
#206 = VERTEX_POINT ( 'NONE', #61 ) ;
#207 = DIRECTION ( 'NONE',  ( 1.000000000000000000, 0.000000000000000000, 0.000000000000000000 ) ) ;
#208 = ORIENTED_EDGE ( 'NONE', *, *, #471, .T. ) ;
#209 = PRODUCT_DEFINITION_FORMATION_WITH_SPECIFIED_SOURCE ( 'ANY', '', #80, .NOT_KNOWN. ) ;
#210 = B_SPLINE_CURVE_WITH_KNOTS ( 'NONE', 3,
 ( #79, #247, #201, #45, #329, #82, #211, #537 ),
 .UNSPECIFIED., .F., .F.,
 ( 4, 2, 2, 4 ),
 ( 0.01485345774306977458, 0.01548583974386943084, 0.01611822174466908883, 0.01738298574626840134 ),
 .UNSPECIFIED. ) ;
#211 = CARTESIAN_POINT ( 'NONE',  ( 0.8571092511719565765, -1.587500000000000355, -18.11227379706277318 ) ) ;
#212 = ORIENTED_EDGE ( 'NONE', *, *, #202, .F. ) ;
#213 = CARTESIAN_POINT ( 'NONE',  ( -1.587500000000000133, 1.061532360077855230, -18.06140206829358874 ) ) ;
#214 = DIRECTION ( 'NONE',  ( 1.000000000000000000, 0.000000000000000000, 0.000000000000000000 ) ) ;
#215 = AXIS2_PLACEMENT_3D ( 'NONE', #403, #534, #490 ) ;
#216 = CIRCLE ( 'NONE', #283, 2.399999999999999911 ) ;
#217 = VECTOR ( 'NONE', #261, 1000.000000000000000 ) ;
#218 = CARTESIAN_POINT ( 'NONE',  ( -1.245064030267288402, 1.524763679400337895E-16, -16.03600000000000136 ) ) ;
#219 = CARTESIAN_POINT ( 'NONE',  ( 0.000000000000000000, 0.000000000000000000, -18.00991914209798139 ) ) ;
#220 = CARTESIAN_POINT ( 'NONE',  ( -1.587500000000000355, 0.4276219574846449878, -18.12699639200009116 ) ) ;
#221 = CARTESIAN_POINT ( 'NONE',  ( 1.587500000000000355, 0.2143109880596213435, -18.13322736169286031 ) ) ;
#222 = FACE_OUTER_BOUND ( 'NONE', #499, .T. ) ;
#223 = DIRECTION ( 'NONE',  ( 0.000000000000000000, 0.000000000000000000, -1.000000000000000000 ) ) ;
#224 = CC_DESIGN_PERSON_AND_ORGANIZATION_ASSIGNMENT ( #145, #272, ( #91 ) ) ;
#225 = CIRCLE ( 'NONE', #205, 2.032000000000000028 ) ;
#226 = CARTESIAN_POINT ( 'NONE',  ( 1.587500000000000355, 1.268411506570323866, -18.16100000000000136 ) ) ;
#227 = LOCAL_TIME ( 13, 57, 25.00000000000000000, #447 ) ;
#228 = FACE_OUTER_BOUND ( 'NONE', #38, .T. ) ;
#229 = EDGE_CURVE ( 'NONE', #43, #242, #533, .T. ) ;
#230 = CARTESIAN_POINT ( 'NONE',  ( 0.000000000000000000, 0.000000000000000000, -18.16100000000000136 ) ) ;
#231 = AXIS2_PLACEMENT_3D ( 'NONE', #474, #92, #49 ) ;
#232 = DIRECTION ( 'NONE',  ( -0.000000000000000000, -0.000000000000000000, 1.000000000000000000 ) ) ;
#233 = ORIENTED_EDGE ( 'NONE', *, *, #286, .F. ) ;
#234 = APPROVAL_DATE_TIME ( #486, #278 ) ;
#235 = ORGANIZATION ( 'UNSPECIFIED', 'UNSPECIFIED', '' ) ;
#236 = DIRECTION ( 'NONE',  ( 1.000000000000000000, 0.000000000000000000, 0.000000000000000000 ) ) ;
#237 = ORIENTED_EDGE ( 'NONE', *, *, #334, .F. ) ;
#238 = DIRECTION ( 'NONE',  ( 0.000000000000000000, 0.000000000000000000, -1.000000000000000000 ) ) ;
#239 = ORIENTED_EDGE ( 'NONE', *, *, #356, .F. ) ;
#240 = VECTOR ( 'NONE', #430, 1000.000000000000000 ) ;
#241 = CARTESIAN_POINT ( 'NONE',  ( 1.268411506570323866, -1.587500000000000355, 18.16100000000000136 ) ) ;
#242 = VERTEX_POINT ( 'NONE', #312 ) ;
#243 = COORDINATED_UNIVERSAL_TIME_OFFSET ( 6, 0, .BEHIND. ) ;
#244 = CARTESIAN_POINT ( 'NONE',  ( 2.399999999999999911, 2.939152317953647106E-16, 18.96099999999999852 ) ) ;
#245 = EDGE_LOOP ( 'NONE', ( #166, #494, #453, #254, #504 ) ) ;
#246 = ADVANCED_FACE ( 'NONE', ( #228 ), #192, .T. ) ;
#247 = CARTESIAN_POINT ( 'NONE',  ( -1.060147506033615628, -1.587500000000000133, -18.06174669625518092 ) ) ;
#248 = VERTEX_POINT ( 'NONE', #313 ) ;
#249 = B_SPLINE_CURVE_WITH_KNOTS ( 'NONE', 3,
 ( #5, #213, #172, #220, #130, #295 ),
 .UNSPECIFIED., .F., .F.,
 ( 4, 2, 4 ),
 ( 0.01485345774306977458, 0.01548163471194334562, 0.01610981168081691492 ),
 .UNSPECIFIED. ) ;
#250 = MANIFOLD_SOLID_BREP ( '228-2500-081', #428 ) ;
#251 = CARTESIAN_POINT ( 'NONE',  ( 0.000000000000000000, 0.000000000000000000, 18.16100000000000136 ) ) ;
#252 = EDGE_LOOP ( 'NONE', ( #173, #374, #40, #549 ) ) ;
#253 = CARTESIAN_POINT ( 'NONE',  ( -0.8571092511719565765, 1.587500000000000355, -18.11227379706277318 ) ) ;
#254 = ORIENTED_EDGE ( 'NONE', *, *, #375, .F. ) ;
#255 = DIRECTION ( 'NONE',  ( 0.000000000000000000, 0.000000000000000000, -1.000000000000000000 ) ) ;
#256 = PLANE ( 'NONE',  #159 ) ;
#257 = CARTESIAN_POINT ( 'NONE',  ( 1.587500000000000133, -1.061532360077855230, -18.06140206829358874 ) ) ;
#258 = DIRECTION ( 'NONE',  ( 1.000000000000000000, 0.000000000000000000, 0.000000000000000000 ) ) ;
#259 = AXIS2_PLACEMENT_3D ( 'NONE', #251, #460, #162 ) ;
#260 = CYLINDRICAL_SURFACE ( 'NONE', #142, 2.032000000000000028 ) ;
#261 = DIRECTION ( 'NONE',  ( -0.000000000000000000, -0.000000000000000000, 1.000000000000000000 ) ) ;
#262 = CARTESIAN_POINT ( 'NONE',  ( 1.587500000000000577, -0.8514389605504928404, -18.09136751577921132 ) ) ;
#263 = ADVANCED_FACE ( 'NONE', ( #528 ), #193, .T. ) ;
#264 = CARTESIAN_POINT ( 'NONE',  ( 1.268411506570323866, 1.587500000000000355, 18.16100000000000136 ) ) ;
#265 = DIRECTION ( 'NONE',  ( -1.000000000000000000, 1.224646799147353454E-16, 0.000000000000000000 ) ) ;
#266 = CARTESIAN_POINT ( 'NONE',  ( 1.587500000000000355, -1.268411506570323866, -18.00991914209798139 ) ) ;
#267 = CIRCLE ( 'NONE', #335, 2.032000000000000028 ) ;
#268 = PERSON_AND_ORGANIZATION ( #384, #235 ) ;
#269 = LINE ( 'NONE', #319, #63 ) ;
#270 = ADVANCED_FACE ( 'NONE', ( #395 ), #105, .T. ) ;
#271 = LOCAL_TIME ( 13, 57, 25.00000000000000000, #35 ) ;
#272 = PERSON_AND_ORGANIZATION_ROLE ( 'creator' ) ;
#273 = CARTESIAN_POINT ( 'NONE',  ( -1.587500000000000355, -1.587500000000000355, 18.16100000000000136 ) ) ;
#274 = VERTEX_POINT ( 'NONE', #152 ) ;
#275 = DIRECTION ( 'NONE',  ( 1.000000000000000000, 0.000000000000000000, 0.000000000000000000 ) ) ;
#276 = CARTESIAN_POINT ( 'NONE',  ( -1.587500000000000355, -1.587500000000000355, 18.16100000000000136 ) ) ;
#277 = LOCAL_TIME ( 13, 57, 25.00000000000000000, #391 ) ;
#278 = APPROVAL ( #315, 'UNSPECIFIED' ) ;
#279 = DIRECTION ( 'NONE',  ( 1.000000000000000000, 0.000000000000000000, 0.000000000000000000 ) ) ;
#280 = DIRECTION ( 'NONE',  ( 1.000000000000000000, 0.000000000000000000, 0.000000000000000000 ) ) ;
#281 = CIRCLE ( 'NONE', #259, 2.032000000000000028 ) ;
#282 = CARTESIAN_POINT ( 'NONE',  ( 1.587500000000000355, 1.268411506570323866, 18.16100000000000136 ) ) ;
#283 = AXIS2_PLACEMENT_3D ( 'NONE', #387, #518, #303 ) ;
#284 = TOROIDAL_SURFACE ( 'NONE', #389, 1.245064030267288402, 2.124999999999998224 ) ;
#285 = ORIENTED_EDGE ( 'NONE', *, *, #520, .T. ) ;
#286 = EDGE_CURVE ( 'NONE', #409, #274, #269, .T. ) ;
#287 = DATE_AND_TIME ( #462, #271 ) ;
#288 = CARTESIAN_POINT ( 'NONE',  ( -1.587500000000000355, -1.268411506570323866, -18.16100000000000136 ) ) ;
#289 = ORIENTED_EDGE ( 'NONE', *, *, #424, .F. ) ;
#290 = CARTESIAN_POINT ( 'NONE',  ( -1.587500000000000355, 1.587500000000000355, 18.16100000000000136 ) ) ;
#291 = ORIENTED_EDGE ( 'NONE', *, *, #302, .T. ) ;
#292 = CARTESIAN_POINT ( 'NONE',  ( 1.268411506570323866, 1.587500000000000355, -18.00991914209798139 ) ) ;
#293 = CC_DESIGN_DATE_AND_TIME_ASSIGNMENT ( #287, #320, ( #513 ) ) ;
#294 = ORIENTED_EDGE ( 'NONE', *, *, #75, .F. ) ;
#295 = CARTESIAN_POINT ( 'NONE',  ( -1.587500000000000355, 1.944126793646423534E-16, -18.13322736169286387 ) ) ;
#296 = CARTESIAN_POINT ( 'NONE',  ( 1.245064030267288402, 0.000000000000000000, -16.03600000000000136 ) ) ;
#297 = VECTOR ( 'NONE', #422, 1000.000000000000000 ) ;
#298 = DIRECTION ( 'NONE',  ( -0.000000000000000000, -0.000000000000000000, 1.000000000000000000 ) ) ;
#299 = CARTESIAN_POINT ( 'NONE',  ( -1.268411506570323866, -1.587500000000000355, -18.16100000000000136 ) ) ;
#300 = DIRECTION ( 'NONE',  ( -1.000000000000000000, 0.000000000000000000, 0.000000000000000000 ) ) ;
#301 = DIRECTION ( 'NONE',  ( 1.000000000000000000, 0.000000000000000000, 0.000000000000000000 ) ) ;
#302 = EDGE_CURVE ( 'NONE', #163, #357, #110, .T. ) ;
#303 = DIRECTION ( 'NONE',  ( 1.000000000000000000, 0.000000000000000000, 0.000000000000000000 ) ) ;
#304 = CARTESIAN_POINT ( 'NONE',  ( 1.587500000000000355, 1.268411506570324088, -18.00991914209798139 ) ) ;
#305 = APPROVAL_PERSON_ORGANIZATION ( #268, #127, #100 ) ;
#306 = DIRECTION ( 'NONE',  ( -0.000000000000000000, -0.000000000000000000, 1.000000000000000000 ) ) ;
#307 = ORIENTED_EDGE ( 'NONE', *, *, #398, .T. ) ;
#308 = CALENDAR_DATE ( 2022, 6, 6 ) ;
#309 = EDGE_CURVE ( 'NONE', #392, #2, #493, .T. ) ;
#310 = CARTESIAN_POINT ( 'NONE',  ( 1.587500000000000355, -1.587500000000000355, 18.16100000000000136 ) ) ;
#311 = VECTOR ( 'NONE', #386, 1000.000000000000000 ) ;
#312 = CARTESIAN_POINT ( 'NONE',  ( 1.587500000000000355, -1.268411506570323866, 18.16100000000000136 ) ) ;
#313 = CARTESIAN_POINT ( 'NONE',  ( -2.399999999999999911, 0.000000000000000000, 18.16100000000000136 ) ) ;
#314 = ORIENTED_EDGE ( 'NONE', *, *, #527, .T. ) ;
#315 = APPROVAL_STATUS ( 'not_yet_approved' ) ;
#316 = DIRECTION ( 'NONE',  ( -1.000000000000000000, 0.000000000000000000, 0.000000000000000000 ) ) ;
#317 = CIRCLE ( 'NONE', #482, 2.124999999999998224 ) ;
#318 = ADVANCED_FACE ( 'NONE', ( #362 ), #393, .T. ) ;
#319 = CARTESIAN_POINT ( 'NONE',  ( 2.399999999999999911, 2.939152317953647106E-16, 18.96099999999999852 ) ) ;
#320 = DATE_TIME_ROLE ( 'classification_date' ) ;
#321 = FACE_OUTER_BOUND ( 'NONE', #126, .T. ) ;
#322 = ORIENTED_EDGE ( 'NONE', *, *, #229, .T. ) ;
#323 = CYLINDRICAL_SURFACE ( 'NONE', #231, 2.032000000000000028 ) ;
#324 = CC_DESIGN_PERSON_AND_ORGANIZATION_ASSIGNMENT ( #401, #24, ( #209 ) ) ;
#325 = ORIENTED_EDGE ( 'NONE', *, *, #97, .F. ) ;
#326 = AXIS2_PLACEMENT_3D ( 'NONE', #542, #364, #207 ) ;
#327 = DIRECTION ( 'NONE',  ( 0.000000000000000000, 0.000000000000000000, -1.000000000000000000 ) ) ;
#328 = ORIENTED_EDGE ( 'NONE', *, *, #134, .T. ) ;
#329 = CARTESIAN_POINT ( 'NONE',  ( -0.2043756380772877579, -1.587500000000000133, -18.13340961896379611 ) ) ;
#330 = VERTEX_POINT ( 'NONE', #495 ) ;
#331 = DIRECTION ( 'NONE',  ( 0.000000000000000000, -0.000000000000000000, -1.000000000000000000 ) ) ;
#332 = B_SPLINE_CURVE_WITH_KNOTS ( 'NONE', 3,
 ( #292, #467, #411, #84, #372, #503, #253, #419 ),
 .UNSPECIFIED., .F., .F.,
 ( 4, 2, 2, 4 ),
 ( 0.01485345774306977458, 0.01548583974386943084, 0.01611822174466908883, 0.01738298574626840134 ),
 .UNSPECIFIED. ) ;
#333 = VERTEX_POINT ( 'NONE', #416 ) ;
#334 = EDGE_CURVE ( 'NONE', #190, #46, #30, .T. ) ;
#335 = AXIS2_PLACEMENT_3D ( 'NONE', #509, #37, #128 ) ;
#336 = CARTESIAN_POINT ( 'NONE',  ( -1.268411506570323866, 1.587500000000000355, -18.16100000000000136 ) ) ;
#337 = VERTEX_POINT ( 'NONE', #507 ) ;
#338 = ORIENTED_EDGE ( 'NONE', *, *, #229, .F. ) ;
#339 = CIRCLE ( 'NONE', #86, 2.032000000000000028 ) ;
#340 = CARTESIAN_POINT ( 'NONE',  ( 1.268411506570323866, 1.587500000000000355, -18.16100000000000136 ) ) ;
#341 = EDGE_LOOP ( 'NONE', ( #535, #237 ) ) ;
#342 = EDGE_CURVE ( 'NONE', #2, #163, #267, .T. ) ;
#343 = APPLICATION_CONTEXT ( 'configuration controlled 3d designs of mechanical parts and assemblies' ) ;
#344 = DIRECTION ( 'NONE',  ( 1.000000000000000000, 0.000000000000000000, 0.000000000000000000 ) ) ;
#345 = CARTESIAN_POINT ( 'NONE',  ( 1.587500000000000355, -1.587500000000000355, 18.16100000000000136 ) ) ;
#346 = CARTESIAN_POINT ( 'NONE',  ( 0.000000000000000000, 0.000000000000000000, 18.16100000000000136 ) ) ;
#347 = EDGE_CURVE ( 'NONE', #147, #65, #332, .T. ) ;
#348 = DIRECTION ( 'NONE',  ( 0.000000000000000000, -1.000000000000000000, 0.000000000000000000 ) ) ;
#349 = DIRECTION ( 'NONE',  ( 0.000000000000000000, 0.000000000000000000, 1.000000000000000000 ) ) ;
#350 = DIRECTION ( 'NONE',  ( -0.000000000000000000, -0.000000000000000000, 1.000000000000000000 ) ) ;
#351 = ORIENTED_EDGE ( 'NONE', *, *, #16, .F. ) ;
#352 = AXIS2_PLACEMENT_3D ( 'NONE', #184, #484, #32 ) ;
#353 = VECTOR ( 'NONE', #479, 1000.000000000000000 ) ;
#354 = AXIS2_PLACEMENT_3D ( 'NONE', #15, #434, #214 ) ;
#355 = DIRECTION ( 'NONE',  ( 0.000000000000000000, 0.000000000000000000, 1.000000000000000000 ) ) ;
#356 = EDGE_CURVE ( 'NONE', #26, #203, #210, .T. ) ;
#357 = VERTEX_POINT ( 'NONE', #241 ) ;
#358 = CARTESIAN_POINT ( 'NONE',  ( 0.000000000000000000, 0.000000000000000000, 18.96099999999999852 ) ) ;
#359 = EDGE_CURVE ( 'NONE', #400, #337, #182, .T. ) ;
#360 = FACE_OUTER_BOUND ( 'NONE', #547, .T. ) ;
#361 = ORIENTED_EDGE ( 'NONE', *, *, #471, .F. ) ;
#362 = FACE_OUTER_BOUND ( 'NONE', #538, .T. ) ;
#363 = EDGE_CURVE ( 'NONE', #330, #248, #464, .T. ) ;
#364 = DIRECTION ( 'NONE',  ( 0.000000000000000000, 0.000000000000000000, 1.000000000000000000 ) ) ;
#365 = VERTEX_POINT ( 'NONE', #282 ) ;
#366 = CARTESIAN_POINT ( 'NONE',  ( 0.000000000000000000, 0.000000000000000000, -18.16099999999999781 ) ) ;
#367 = ORIENTED_EDGE ( 'NONE', *, *, #16, .T. ) ;
#368 = APPROVAL_DATE_TIME ( #121, #381 ) ;
#369 = AXIS2_PLACEMENT_3D ( 'NONE', #366, #370, #280 ) ;
#370 = DIRECTION ( 'NONE',  ( -0.000000000000000000, -0.000000000000000000, 1.000000000000000000 ) ) ;
#371 = ORIENTED_EDGE ( 'NONE', *, *, #66, .T. ) ;
#372 = CARTESIAN_POINT ( 'NONE',  ( 0.2043756380772877579, 1.587500000000000133, -18.13340961896379611 ) ) ;
#373 = AXIS2_PLACEMENT_3D ( 'NONE', #1, #306, #521 ) ;
#374 = ORIENTED_EDGE ( 'NONE', *, *, #36, .T. ) ;
#375 = EDGE_CURVE ( 'NONE', #2, #337, #72, .T. ) ;
#376 = ORIENTED_EDGE ( 'NONE', *, *, #359, .F. ) ;
#377 = VECTOR ( 'NONE', #60, 1000.000000000000000 ) ;
#378 =( NAMED_UNIT ( * ) SI_UNIT ( $, .STERADIAN. ) SOLID_ANGLE_UNIT ( ) );
#379 = CARTESIAN_POINT ( 'NONE',  ( 0.000000000000000000, 0.000000000000000000, -16.03600000000000136 ) ) ;
#380 = CYLINDRICAL_SURFACE ( 'NONE', #34, 2.399999999999999911 ) ;
#381 = APPROVAL ( #161, 'UNSPECIFIED' ) ;
#382 = CARTESIAN_POINT ( 'NONE',  ( 1.245064030267288402, 0.000000000000000000, -18.16099999999999781 ) ) ;
#383 = UNCERTAINTY_MEASURE_WITH_UNIT (LENGTH_MEASURE( 1.000000000000000082E-05 ), #174, 'distance_accuracy_value', 'NONE');
#384 = PERSON ( 'UNSPECIFIED', 'UNSPECIFIED', 'UNSPECIFIED', ('UNSPECIFIED'), ('UNSPECIFIED'), ('UNSPECIFIED') ) ;
#385 = DIRECTION ( 'NONE',  ( -0.000000000000000000, -0.000000000000000000, 1.000000000000000000 ) ) ;
#386 = DIRECTION ( 'NONE',  ( 0.000000000000000000, 0.000000000000000000, -1.000000000000000000 ) ) ;
#387 = CARTESIAN_POINT ( 'NONE',  ( 0.000000000000000000, 0.000000000000000000, 18.16100000000000136 ) ) ;
#388 = ORIENTED_EDGE ( 'NONE', *, *, #302, .F. ) ;
#389 = AXIS2_PLACEMENT_3D ( 'NONE', #379, #88, #301 ) ;
#390 = CC_DESIGN_PERSON_AND_ORGANIZATION_ASSIGNMENT ( #141, #489, ( #80 ) ) ;
#391 = COORDINATED_UNIVERSAL_TIME_OFFSET ( 6, 0, .BEHIND. ) ;
#392 = VERTEX_POINT ( 'NONE', #456 ) ;
#393 = PLANE ( 'NONE',  #352 ) ;
#394 = EDGE_LOOP ( 'NONE', ( #404, #544, #442, #457 ) ) ;
#395 = FACE_OUTER_BOUND ( 'NONE', #252, .T. ) ;
#396 = AXIS2_PLACEMENT_3D ( 'NONE', #290, #165, #331 ) ;
#397 = MECHANICAL_CONTEXT ( 'NONE', #478, 'mechanical' ) ;
#398 = EDGE_CURVE ( 'NONE', #365, #140, #281, .T. ) ;
#399 = CARTESIAN_POINT ( 'NONE',  ( 0.000000000000000000, 0.000000000000000000, 18.96099999999999852 ) ) ;
#400 = VERTEX_POINT ( 'NONE', #408 ) ;
#401 = PERSON_AND_ORGANIZATION ( #384, #235 ) ;
#402 = FACE_OUTER_BOUND ( 'NONE', #532, .T. ) ;
#403 = CARTESIAN_POINT ( 'NONE',  ( -1.587500000000000355, 1.587500000000000355, -18.16100000000000136 ) ) ;
#404 = ORIENTED_EDGE ( 'NONE', *, *, #492, .F. ) ;
#405 = AXIS2_PLACEMENT_3D ( 'NONE', #230, #350, #450 ) ;
#406 = ADVANCED_FACE ( 'NONE', ( #321 ), #115, .F. ) ;
#407 = APPROVAL_ROLE ( '' ) ;
#408 = CARTESIAN_POINT ( 'NONE',  ( -1.587500000000000355, 1.944126793646423534E-16, -18.13322736169286387 ) ) ;
#409 = VERTEX_POINT ( 'NONE', #244 ) ;
#410 = CC_DESIGN_APPROVAL ( #278, ( #209 ) ) ;
#411 = CARTESIAN_POINT ( 'NONE',  ( 0.8486262390323815463, 1.587500000000000577, -18.09176882282394772 ) ) ;
#412 = ORIENTED_EDGE ( 'NONE', *, *, #107, .T. ) ;
#413 = DIRECTION ( 'NONE',  ( 0.000000000000000000, 1.000000000000000000, 0.000000000000000000 ) ) ;
#414 = EDGE_LOOP ( 'NONE', ( #508, #291, #371, #285, #307, #33, #529, #160 ) ) ;
#415 = AXIS2_PLACEMENT_3D ( 'NONE', #310, #437, #355 ) ;
#416 = CARTESIAN_POINT ( 'NONE',  ( -1.587500000000000355, 1.268411506570323866, -18.00991914209798139 ) ) ;
#417 = EDGE_CURVE ( 'NONE', #541, #392, #19, .T. ) ;
#418 = ORIENTED_EDGE ( 'NONE', *, *, #356, .T. ) ;
#419 = CARTESIAN_POINT ( 'NONE',  ( -1.268411506570324088, 1.587500000000000355, -18.00991914209798139 ) ) ;
#420 =( GEOMETRIC_REPRESENTATION_CONTEXT ( 3 ) GLOBAL_UNCERTAINTY_ASSIGNED_CONTEXT ( ( #383 ) ) GLOBAL_UNIT_ASSIGNED_CONTEXT ( ( #174, #167, #378 ) ) REPRESENTATION_CONTEXT ( 'NONE', 'WORKASPACE' ) );
#421 = EDGE_LOOP ( 'NONE', ( #233, #212, #200, #367 ) ) ;
#422 = DIRECTION ( 'NONE',  ( 0.000000000000000000, 1.000000000000000000, 0.000000000000000000 ) ) ;
#423 = DESIGN_CONTEXT ( 'detailed design', #343, 'design' ) ;
#424 = EDGE_CURVE ( 'NONE', #357, #203, #158, .T. ) ;
#425 = AXIS2_PLACEMENT_3D ( 'NONE', #548, #413, #198 ) ;
#426 = CARTESIAN_POINT ( 'NONE',  ( 1.587500000000000355, -0.4276219574846449878, -18.12699639200009116 ) ) ;
#427 = LINE ( 'NONE', #93, #240 ) ;
#428 = CLOSED_SHELL ( 'NONE', ( #246, #153, #164, #406, #194, #435, #58, #263, #458, #270, #439, #170, #505, #318, #53 ) ) ;
#429 = LINE ( 'NONE', #345, #297 ) ;
#430 = DIRECTION ( 'NONE',  ( -1.000000000000000000, -0.000000000000000000, -0.000000000000000000 ) ) ;
#431 = DIRECTION ( 'NONE',  ( 1.224646799147353207E-16, 1.000000000000000000, 0.000000000000000000 ) ) ;
#432 = CARTESIAN_POINT ( 'NONE',  ( 1.587500000000000577, 0.4277385810629849017, -18.12698654358311856 ) ) ;
#433 = CARTESIAN_POINT ( 'NONE',  ( 0.000000000000000000, 0.000000000000000000, -18.00991914209798139 ) ) ;
#434 = DIRECTION ( 'NONE',  ( 0.000000000000000000, 0.000000000000000000, 1.000000000000000000 ) ) ;
#435 = ADVANCED_FACE ( 'NONE', ( #540 ), #204, .F. ) ;
#436 = DATE_AND_TIME ( #308, #469 ) ;
#437 = DIRECTION ( 'NONE',  ( -1.000000000000000000, 0.000000000000000000, 0.000000000000000000 ) ) ;
#438 = VECTOR ( 'NONE', #385, 1000.000000000000000 ) ;
#439 = ADVANCED_FACE ( 'NONE', ( #156 ), #323, .T. ) ;
#440 = CALENDAR_DATE ( 2022, 6, 6 ) ;
#441 = DIRECTION ( 'NONE',  ( 1.000000000000000000, 0.000000000000000000, 0.000000000000000000 ) ) ;
#442 = ORIENTED_EDGE ( 'NONE', *, *, #463, .F. ) ;
#443 = EDGE_CURVE ( 'NONE', #190, #400, #491, .T. ) ;
#444 = DIRECTION ( 'NONE',  ( 0.000000000000000000, 0.000000000000000000, 1.000000000000000000 ) ) ;
#445 = ORIENTED_EDGE ( 'NONE', *, *, #75, .T. ) ;
#446 = VECTOR ( 'NONE', #327, 1000.000000000000000 ) ;
#447 = COORDINATED_UNIVERSAL_TIME_OFFSET ( 6, 0, .BEHIND. ) ;
#448 = DIRECTION ( 'NONE',  ( 1.000000000000000000, 0.000000000000000000, 0.000000000000000000 ) ) ;
#449 = COORDINATED_UNIVERSAL_TIME_OFFSET ( 6, 0, .BEHIND. ) ;
#450 = DIRECTION ( 'NONE',  ( 1.000000000000000000, 0.000000000000000000, 0.000000000000000000 ) ) ;
#451 = PERSON_AND_ORGANIZATION_ROLE ( 'classification_officer' ) ;
#452 = CARTESIAN_POINT ( 'NONE',  ( -1.587500000000000133, -0.2143109880596212047, -18.13322736169286387 ) ) ;
#453 = ORIENTED_EDGE ( 'NONE', *, *, #359, .T. ) ;
#454 = CIRCLE ( 'NONE', #50, 2.399999999999999911 ) ;
#455 = CIRCLE ( 'NONE', #466, 2.399999999999999911 ) ;
#456 = CARTESIAN_POINT ( 'NONE',  ( -1.587500000000000355, 1.268411506570323866, 18.16100000000000136 ) ) ;
#457 = ORIENTED_EDGE ( 'NONE', *, *, #116, .F. ) ;
#458 = ADVANCED_FACE ( 'NONE', ( #222 ), #260, .T. ) ;
#459 = PERSON_AND_ORGANIZATION ( #384, #235 ) ;
#460 = DIRECTION ( 'NONE',  ( 0.000000000000000000, 0.000000000000000000, 1.000000000000000000 ) ) ;
#461 = ORIENTED_EDGE ( 'NONE', *, *, #492, .T. ) ;
#462 = CALENDAR_DATE ( 2022, 6, 6 ) ;
#463 = EDGE_CURVE ( 'NONE', #541, #65, #169, .T. ) ;
#464 = LINE ( 'NONE', #125, #99 ) ;
#465 = ORIENTED_EDGE ( 'NONE', *, *, #347, .F. ) ;
#466 = AXIS2_PLACEMENT_3D ( 'NONE', #346, #523, #344 ) ;
#467 = CARTESIAN_POINT ( 'NONE',  ( 1.060147506033615628, 1.587500000000000133, -18.06174669625518092 ) ) ;
#468 = ORIENTED_EDGE ( 'NONE', *, *, #463, .T. ) ;
#469 = LOCAL_TIME ( 13, 57, 25.00000000000000000, #449 ) ;
#470 = CARTESIAN_POINT ( 'NONE',  ( 0.000000000000000000, 0.000000000000000000, -18.16099999999999781 ) ) ;
#471 = EDGE_CURVE ( 'NONE', #274, #248, #216, .T. ) ;
#472 = B_SPLINE_CURVE_WITH_KNOTS ( 'NONE', 3,
 ( #54, #221, #432, #175, #477, #95 ),
 .UNSPECIFIED., .F., .F.,
 ( 4, 2, 4 ),
 ( 0.000000000000000000, 0.0006365870327257439716, 0.001273174065451487726 ),
 .UNSPECIFIED. ) ;
#473 = CARTESIAN_POINT ( 'NONE',  ( -1.268411506570323866, -1.587500000000000355, -18.00991914209798139 ) ) ;
#474 = CARTESIAN_POINT ( 'NONE',  ( 0.000000000000000000, 0.000000000000000000, -18.16100000000000136 ) ) ;
#475 = LINE ( 'NONE', #226, #311 ) ;
#476 = LINE ( 'NONE', #340, #353 ) ;
#477 = CARTESIAN_POINT ( 'NONE',  ( 1.587500000000000355, 1.061392899157111325, -18.06143677385166768 ) ) ;
#478 = APPLICATION_CONTEXT ( 'configuration controlled 3d designs of mechanical parts and assemblies' ) ;
#479 = DIRECTION ( 'NONE',  ( -0.000000000000000000, -0.000000000000000000, 1.000000000000000000 ) ) ;
#480 = EDGE_CURVE ( 'NONE', #43, #206, #496, .T. ) ;
#481 = DIRECTION ( 'NONE',  ( 1.000000000000000000, 0.000000000000000000, 0.000000000000000000 ) ) ;
#482 = AXIS2_PLACEMENT_3D ( 'NONE', #296, #348, #223 ) ;
#483 = CARTESIAN_POINT ( 'NONE',  ( 0.000000000000000000, 0.000000000000000000, 18.96099999999999852 ) ) ;
#484 = DIRECTION ( 'NONE',  ( 0.000000000000000000, 0.000000000000000000, 1.000000000000000000 ) ) ;
#485 = CC_DESIGN_PERSON_AND_ORGANIZATION_ASSIGNMENT ( #459, #501, ( #209 ) ) ;
#486 = DATE_AND_TIME ( #186, #227 ) ;
#487 = DIRECTION ( 'NONE',  ( -0.000000000000000000, -0.000000000000000000, -1.000000000000000000 ) ) ;
#488 = EDGE_LOOP ( 'NONE', ( #445, #31, #461, #85 ) ) ;
#489 = PERSON_AND_ORGANIZATION_ROLE ( 'design_owner' ) ;
#490 = DIRECTION ( 'NONE',  ( -1.000000000000000000, 0.000000000000000000, -0.000000000000000000 ) ) ;
#491 = CIRCLE ( 'NONE', #517, 2.124999999999998224 ) ;
#492 = EDGE_CURVE ( 'NONE', #147, #140, #476, .T. ) ;
#493 = LINE ( 'NONE', #17, #11 ) ;
#494 = ORIENTED_EDGE ( 'NONE', *, *, #511, .T. ) ;
#495 = CARTESIAN_POINT ( 'NONE',  ( -2.399999999999999911, 0.000000000000000000, 18.96099999999999852 ) ) ;
#496 = B_SPLINE_CURVE_WITH_KNOTS ( 'NONE', 3,
 ( #135, #257, #262, #426, #515, #12 ),
 .UNSPECIFIED., .F., .F.,
 ( 4, 2, 4 ),
 ( 0.01485345774306977458, 0.01548163471194334562, 0.01610981168081691492 ),
 .UNSPECIFIED. ) ;
#497 = ORIENTED_EDGE ( 'NONE', *, *, #543, .T. ) ;
#498 = CARTESIAN_POINT ( 'NONE',  ( -1.587500000000000355, -0.8513200635100127700, -18.09137755531811109 ) ) ;
#499 = EDGE_LOOP ( 'NONE', ( #106, #123, #322, #157 ) ) ;
#500 = CIRCLE ( 'NONE', #354, 2.032000000000000028 ) ;
#501 = PERSON_AND_ORGANIZATION_ROLE ( 'design_supplier' ) ;
#502 = AXIS2_PLACEMENT_3D ( 'NONE', #150, #64, #275 ) ;
#503 = CARTESIAN_POINT ( 'NONE',  ( -0.4342314039556041672, 1.587500000000000355, -18.13285171744314184 ) ) ;
#504 = ORIENTED_EDGE ( 'NONE', *, *, #309, .F. ) ;
#505 = ADVANCED_FACE ( 'NONE', ( #47 ), #380, .T. ) ;
#506 = ADVANCED_BREP_SHAPE_REPRESENTATION ( '228-2500-081', ( #250, #155 ), #420 ) ;
#507 = CARTESIAN_POINT ( 'NONE',  ( -1.587500000000000355, -1.268411506570324088, -18.00991914209798139 ) ) ;
#508 = ORIENTED_EDGE ( 'NONE', *, *, #342, .T. ) ;
#509 = CARTESIAN_POINT ( 'NONE',  ( 0.000000000000000000, 0.000000000000000000, 18.16100000000000136 ) ) ;
#510 = ORIENTED_EDGE ( 'NONE', *, *, #520, .F. ) ;
#511 = EDGE_CURVE ( 'NONE', #333, #400, #249, .T. ) ;
#512 = ORIENTED_EDGE ( 'NONE', *, *, #187, .F. ) ;
#513 = SECURITY_CLASSIFICATION ( '', '', #197 ) ;
#514 = DIRECTION ( 'NONE',  ( -0.000000000000000000, -0.000000000000000000, 1.000000000000000000 ) ) ;
#515 = CARTESIAN_POINT ( 'NONE',  ( 1.587500000000000355, -0.2114796877013867815, -18.13322736169286387 ) ) ;
#516 = ORIENTED_EDGE ( 'NONE', *, *, #187, .T. ) ;
#517 = AXIS2_PLACEMENT_3D ( 'NONE', #218, #431, #265 ) ;
#518 = DIRECTION ( 'NONE',  ( 0.000000000000000000, 0.000000000000000000, 1.000000000000000000 ) ) ;
#519 = DIRECTION ( 'NONE',  ( 1.000000000000000000, 0.000000000000000000, 0.000000000000000000 ) ) ;
#520 = EDGE_CURVE ( 'NONE', #242, #365, #429, .T. ) ;
#521 = DIRECTION ( 'NONE',  ( 1.000000000000000000, 0.000000000000000000, 0.000000000000000000 ) ) ;
#522 = APPROVAL_PERSON_ORGANIZATION ( #71, #381, #407 ) ;
#523 = DIRECTION ( 'NONE',  ( 0.000000000000000000, 0.000000000000000000, 1.000000000000000000 ) ) ;
#524 = FACE_BOUND ( 'NONE', #414, .T. ) ;
#525 = APPLICATION_PROTOCOL_DEFINITION ( 'international standard', 'config_control_design', 1994, #478 ) ;
#526 = VECTOR ( 'NONE', #154, 1000.000000000000000 ) ;
#527 = EDGE_CURVE ( 'NONE', #333, #392, #52, .T. ) ;
#528 = FACE_OUTER_BOUND ( 'NONE', #341, .T. ) ;
#529 = ORIENTED_EDGE ( 'NONE', *, *, #417, .T. ) ;
#530 = APPROVAL_STATUS ( 'not_yet_approved' ) ;
#531 = DIRECTION ( 'NONE',  ( 0.000000000000000000, 0.000000000000000000, 1.000000000000000000 ) ) ;
#532 = EDGE_LOOP ( 'NONE', ( #338, #74, #328, #294, #510 ) ) ;
#533 = LINE ( 'NONE', #146, #377 ) ;
#534 = DIRECTION ( 'NONE',  ( 0.000000000000000000, 0.000000000000000000, -1.000000000000000000 ) ) ;
#535 = ORIENTED_EDGE ( 'NONE', *, *, #107, .F. ) ;
#536 = EDGE_CURVE ( 'NONE', #120, #147, #339, .T. ) ;
#537 = CARTESIAN_POINT ( 'NONE',  ( 1.268411506570324088, -1.587500000000000355, -18.00991914209798139 ) ) ;
#538 = EDGE_LOOP ( 'NONE', ( #48, #516 ) ) ;
#539 = CC_DESIGN_SECURITY_CLASSIFICATION ( #513, ( #209 ) ) ;
#540 = FACE_OUTER_BOUND ( 'NONE', #394, .T. ) ;
#541 = VERTEX_POINT ( 'NONE', #87 ) ;
#542 = CARTESIAN_POINT ( 'NONE',  ( 0.000000000000000000, 0.000000000000000000, 18.16100000000000136 ) ) ;
#543 = EDGE_CURVE ( 'NONE', #65, #333, #44, .T. ) ;
#544 = ORIENTED_EDGE ( 'NONE', *, *, #347, .T. ) ;
#545 = CIRCLE ( 'NONE', #109, 2.032000000000000028 ) ;
#546 = CARTESIAN_POINT ( 'NONE',  ( -1.587500000000000355, 1.944126793646423534E-16, -18.13322736169286387 ) ) ;
#547 = EDGE_LOOP ( 'NONE', ( #412, #185, #131, #23, #465, #62, #168, #325 ) ) ;
#548 = CARTESIAN_POINT ( 'NONE',  ( -1.587500000000000355, -1.587500000000000355, 18.16100000000000136 ) ) ;
#549 = ORIENTED_EDGE ( 'NONE', *, *, #342, .F. ) ;
ENDSEC;
END-ISO-10303-21;
