ISO-10303-21;
HEADER;
FILE_DESCRIPTION (( 'STEP AP203' ),
    '1' );
FILE_NAME ('228-2500-2224.step',
    '2022-06-06T19:55:37',
    ( '' ),
    ( '' ),
    'SwSTEP 2.0',
    'SolidWorks 2021',
    '' );
FILE_SCHEMA (( 'CONFIG_CONTROL_DESIGN' ));
ENDSEC;

DATA;
#1 = CARTESIAN_POINT ( 'NONE',  ( 1.587500000000000355, -0.2114796877013868093, -55.34422736169287305 ) ) ;
#2 = DIRECTION ( 'NONE',  ( -1.000000000000000000, 0.000000000000000000, -0.000000000000000000 ) ) ;
#3 = ORIENTED_EDGE ( 'NONE', *, *, #515, .F. ) ;
#4 = TOROIDAL_SURFACE ( 'NONE', #175, 1.245064030267288402, 2.124999999999995115 ) ;
#5 = DIRECTION ( 'NONE',  ( 0.000000000000000000, 0.000000000000000000, 1.000000000000000000 ) ) ;
#6 = B_SPLINE_CURVE_WITH_KNOTS ( 'NONE', 3,
 ( #208, #414, #252, #170, #339, #551, #470, #336 ),
 .UNSPECIFIED., .F., .F.,
 ( 4, 2, 2, 4 ),
 ( 0.01485345774306975376, 0.01548583974386941176, 0.01611822174466906801, 0.01738298574626838400 ),
 .UNSPECIFIED. ) ;
#7 = DIRECTION ( 'NONE',  ( 0.000000000000000000, 0.000000000000000000, 1.000000000000000000 ) ) ;
#8 = CARTESIAN_POINT ( 'NONE',  ( 2.375000000000000000, 2.908536147974963713E-16, 0.8000000000000000444 ) ) ;
#9 = EDGE_CURVE ( 'NONE', #82, #496, #25, .T. ) ;
#10 = DIRECTION ( 'NONE',  ( 1.000000000000000000, 0.000000000000000000, 0.000000000000000000 ) ) ;
#11 = ORIENTED_EDGE ( 'NONE', *, *, #236, .T. ) ;
#12 = APPLICATION_PROTOCOL_DEFINITION ( 'international standard', 'config_control_design', 1994, #426 ) ;
#13 = EDGE_LOOP ( 'NONE', ( #138, #482 ) ) ;
#14 = ORIENTED_EDGE ( 'NONE', *, *, #70, .F. ) ;
#15 = ADVANCED_FACE ( 'NONE', ( #159 ), #326, .F. ) ;
#16 = ORIENTED_EDGE ( 'NONE', *, *, #133, .F. ) ;
#17 = DIRECTION ( 'NONE',  ( -1.000000000000000000, -0.000000000000000000, -0.000000000000000000 ) ) ;
#18 = AXIS2_PLACEMENT_3D ( 'NONE', #258, #522, #85 ) ;
#19 = VERTEX_POINT ( 'NONE', #111 ) ;
#20 = CARTESIAN_POINT ( 'NONE',  ( 0.000000000000000000, 0.000000000000000000, -55.22091914209798347 ) ) ;
#21 = EDGE_CURVE ( 'NONE', #346, #196, #285, .T. ) ;
#22 = ORIENTED_EDGE ( 'NONE', *, *, #133, .T. ) ;
#23 = AXIS2_PLACEMENT_3D ( 'NONE', #367, #185, #319 ) ;
#24 = CARTESIAN_POINT ( 'NONE',  ( 0.000000000000000000, 0.000000000000000000, -55.37200000000000699 ) ) ;
#25 = B_SPLINE_CURVE_WITH_KNOTS ( 'NONE', 3,
 ( #505, #542, #376, #368, #540, #156 ),
 .UNSPECIFIED., .F., .F.,
 ( 4, 2, 4 ),
 ( 0.000000000000000000, 0.0006365870327257441884, 0.001273174065451488160 ),
 .UNSPECIFIED. ) ;
#26 = ORIENTED_EDGE ( 'NONE', *, *, #390, .F. ) ;
#27 = LINE ( 'NONE', #393, #271 ) ;
#28 = AXIS2_PLACEMENT_3D ( 'NONE', #374, #162, #331 ) ;
#29 = ORIENTED_EDGE ( 'NONE', *, *, #194, .F. ) ;
#30 = EDGE_CURVE ( 'NONE', #444, #531, #458, .T. ) ;
#31 = CARTESIAN_POINT ( 'NONE',  ( 1.587500000000000355, 1.268411506570324088, -55.22091914209798347 ) ) ;
#32 = DIRECTION ( 'NONE',  ( -0.000000000000000000, -0.000000000000000000, 1.000000000000000000 ) ) ;
#33 = EDGE_CURVE ( 'NONE', #536, #210, #332, .T. ) ;
#34 = CARTESIAN_POINT ( 'NONE',  ( 0.4219230645619450049, 1.587499999999999911, -55.33830730355360572 ) ) ;
#35 = AXIS2_PLACEMENT_3D ( 'NONE', #126, #291, #384 ) ;
#36 = ORIENTED_EDGE ( 'NONE', *, *, #194, .T. ) ;
#37 = CARTESIAN_POINT ( 'NONE',  ( -1.587500000000000355, -1.587500000000000355, 3.469446951953614189E-15 ) ) ;
#38 = FACE_OUTER_BOUND ( 'NONE', #318, .T. ) ;
#39 = CARTESIAN_POINT ( 'NONE',  ( -1.587500000000000355, 1.587500000000000355, -55.37200000000000699 ) ) ;
#40 = DIRECTION ( 'NONE',  ( -0.000000000000000000, -0.000000000000000000, 1.000000000000000000 ) ) ;
#41 = CARTESIAN_POINT ( 'NONE',  ( 1.587500000000000355, -0.4276219574846453209, -55.33799639200007903 ) ) ;
#42 = LINE ( 'NONE', #340, #386 ) ;
#43 =( NAMED_UNIT ( * ) PLANE_ANGLE_UNIT ( ) SI_UNIT ( $, .RADIAN. ) );
#44 = FACE_OUTER_BOUND ( 'NONE', #192, .T. ) ;
#45 = CIRCLE ( 'NONE', #202, 2.124999999999995115 ) ;
#46 = AXIS2_PLACEMENT_3D ( 'NONE', #123, #345, #2 ) ;
#47 = ADVANCED_FACE ( 'NONE', ( #152 ), #323, .F. ) ;
#48 = CARTESIAN_POINT ( 'NONE',  ( 0.000000000000000000, 0.000000000000000000, -55.22091914209798347 ) ) ;
#49 = DIRECTION ( 'NONE',  ( 1.000000000000000000, 0.000000000000000000, 0.000000000000000000 ) ) ;
#50 = AXIS2_PLACEMENT_3D ( 'NONE', #135, #7, #305 ) ;
#51 = EDGE_LOOP ( 'NONE', ( #100, #526 ) ) ;
#52 = ORIENTED_EDGE ( 'NONE', *, *, #515, .T. ) ;
#53 = EDGE_CURVE ( 'NONE', #104, #444, #413, .T. ) ;
#54 = ORIENTED_EDGE ( 'NONE', *, *, #53, .T. ) ;
#55 = ORIENTED_EDGE ( 'NONE', *, *, #120, .F. ) ;
#56 = AXIS2_PLACEMENT_3D ( 'NONE', #57, #239, #408 ) ;
#57 = CARTESIAN_POINT ( 'NONE',  ( 0.000000000000000000, 0.000000000000000000, 0.8000000000000000444 ) ) ;
#58 = ORIENTED_EDGE ( 'NONE', *, *, #139, .F. ) ;
#59 = FACE_OUTER_BOUND ( 'NONE', #446, .T. ) ;
#60 = ORIENTED_EDGE ( 'NONE', *, *, #557, .F. ) ;
#61 = PRODUCT ( '228-2500-2224', '228-2500-2224', '', ( #344 ) ) ;
#62 = ADVANCED_FACE ( 'NONE', ( #38 ), #110, .F. ) ;
#63 = FACE_OUTER_BOUND ( 'NONE', #288, .T. ) ;
#64 = ORIENTED_EDGE ( 'NONE', *, *, #242, .T. ) ;
#65 = PRODUCT_DEFINITION_FORMATION_WITH_SPECIFIED_SOURCE ( 'ANY', '', #61, .NOT_KNOWN. ) ;
#66 = DIRECTION ( 'NONE',  ( 1.000000000000000000, 0.000000000000000000, 0.000000000000000000 ) ) ;
#67 = EDGE_LOOP ( 'NONE', ( #55, #193, #260, #486 ) ) ;
#68 = DIRECTION ( 'NONE',  ( 0.000000000000000000, 0.000000000000000000, 1.000000000000000000 ) ) ;
#69 = VECTOR ( 'NONE', #32, 1000.000000000000000 ) ;
#70 = EDGE_CURVE ( 'NONE', #191, #496, #42, .T. ) ;
#71 = DIRECTION ( 'NONE',  ( 0.000000000000000000, 1.000000000000000000, 0.000000000000000000 ) ) ;
#72 = DIRECTION ( 'NONE',  ( 0.000000000000000000, 0.000000000000000000, 1.000000000000000000 ) ) ;
#73 = DIRECTION ( 'NONE',  ( 0.000000000000000000, -0.000000000000000000, -1.000000000000000000 ) ) ;
#74 = DIRECTION ( 'NONE',  ( 1.000000000000000000, 0.000000000000000000, 0.000000000000000000 ) ) ;
#75 = ORIENTED_EDGE ( 'NONE', *, *, #445, .F. ) ;
#76 = PERSON_AND_ORGANIZATION ( #506, #160 ) ;
#77 = CARTESIAN_POINT ( 'NONE',  ( -1.245064030267288402, 1.524763679400337895E-16, -53.24700000000000699 ) ) ;
#78 = AXIS2_PLACEMENT_3D ( 'NONE', #48, #172, #136 ) ;
#79 = CARTESIAN_POINT ( 'NONE',  ( -1.268411506570323866, 1.587500000000000355, 3.469446951953614189E-15 ) ) ;
#80 = CARTESIAN_POINT ( 'NONE',  ( 0.000000000000000000, 0.000000000000000000, 0.8000000000000000444 ) ) ;
#81 = LINE ( 'NONE', #481, #357 ) ;
#82 = VERTEX_POINT ( 'NONE', #381 ) ;
#83 = CARTESIAN_POINT ( 'NONE',  ( -1.587500000000000577, -0.4277385810629846241, -55.33798654358314195 ) ) ;
#84 = VECTOR ( 'NONE', #17, 1000.000000000000000 ) ;
#85 = DIRECTION ( 'NONE',  ( 1.000000000000000000, 0.000000000000000000, 0.000000000000000000 ) ) ;
#86 = EDGE_CURVE ( 'NONE', #531, #253, #154, .T. ) ;
#87 = PERSON_AND_ORGANIZATION ( #506, #160 ) ;
#88 = DIRECTION ( 'NONE',  ( 0.000000000000000000, 0.000000000000000000, 1.000000000000000000 ) ) ;
#89 = CIRCLE ( 'NONE', #153, 2.032000000000000028 ) ;
#90 = CC_DESIGN_PERSON_AND_ORGANIZATION_ASSIGNMENT ( #556, #341, ( #65 ) ) ;
#91 = VECTOR ( 'NONE', #555, 1000.000000000000000 ) ;
#92 = CARTESIAN_POINT ( 'NONE',  ( -1.587500000000000133, -0.2143109880596213990, -55.34422736169287305 ) ) ;
#93 = CARTESIAN_POINT ( 'NONE',  ( 1.245064030267288402, 0.000000000000000000, -53.24700000000000699 ) ) ;
#94 = PERSON_AND_ORGANIZATION ( #506, #160 ) ;
#95 = VECTOR ( 'NONE', #500, 1000.000000000000000 ) ;
#96 = ORIENTED_EDGE ( 'NONE', *, *, #86, .T. ) ;
#97 = APPROVAL_ROLE ( '' ) ;
#98 = ADVANCED_FACE ( 'NONE', ( #509 ), #512, .T. ) ;
#99 = ORIENTED_EDGE ( 'NONE', *, *, #557, .T. ) ;
#100 = ORIENTED_EDGE ( 'NONE', *, *, #146, .F. ) ;
#101 = DIRECTION ( 'NONE',  ( 1.000000000000000000, 0.000000000000000000, 0.000000000000000000 ) ) ;
#102 = B_SPLINE_CURVE_WITH_KNOTS ( 'NONE', 3,
 ( #246, #543, #418, #34, #161, #548, #504, #438 ),
 .UNSPECIFIED., .F., .F.,
 ( 4, 2, 2, 4 ),
 ( 0.01485345774306975376, 0.01548583974386941176, 0.01611822174466906801, 0.01738298574626838400 ),
 .UNSPECIFIED. ) ;
#103 = ADVANCED_FACE ( 'NONE', ( #44 ), #4, .T. ) ;
#104 = VERTEX_POINT ( 'NONE', #79 ) ;
#105 = AXIS2_PLACEMENT_3D ( 'NONE', #121, #297, #424 ) ;
#106 = DIRECTION ( 'NONE',  ( -0.000000000000000000, -0.000000000000000000, 1.000000000000000000 ) ) ;
#107 = VERTEX_POINT ( 'NONE', #298 ) ;
#108 = DIRECTION ( 'NONE',  ( -0.000000000000000000, -0.000000000000000000, 1.000000000000000000 ) ) ;
#109 = DESIGN_CONTEXT ( 'detailed design', #426, 'design' ) ;
#110 = PLANE ( 'NONE',  #46 ) ;
#111 = CARTESIAN_POINT ( 'NONE',  ( -1.587500000000000355, -1.268411506570324088, -55.22091914209798347 ) ) ;
#112 = CIRCLE ( 'NONE', #338, 2.032000000000000028 ) ;
#113 = DIRECTION ( 'NONE',  ( -0.000000000000000000, -0.000000000000000000, -1.000000000000000000 ) ) ;
#114 = ORIENTED_EDGE ( 'NONE', *, *, #157, .F. ) ;
#115 = LINE ( 'NONE', #375, #132 ) ;
#116 = ORIENTED_EDGE ( 'NONE', *, *, #242, .F. ) ;
#117 = PERSON_AND_ORGANIZATION_ROLE ( 'design_supplier' ) ;
#118 = DIRECTION ( 'NONE',  ( -1.000000000000000000, 1.224646799147353207E-16, 0.000000000000000000 ) ) ;
#119 = ORIENTED_EDGE ( 'NONE', *, *, #361, .T. ) ;
#120 = EDGE_CURVE ( 'NONE', #359, #407, #343, .T. ) ;
#121 = CARTESIAN_POINT ( 'NONE',  ( 0.000000000000000000, 0.000000000000000000, 3.469446951953614189E-15 ) ) ;
#122 = AXIS2_PLACEMENT_3D ( 'NONE', #37, #468, #514 ) ;
#123 = CARTESIAN_POINT ( 'NONE',  ( -1.587500000000000355, 1.587500000000000355, 3.469446951953614189E-15 ) ) ;
#124 = B_SPLINE_CURVE_WITH_KNOTS ( 'NONE', 3,
 ( #261, #421, #372, #41, #1, #174 ),
 .UNSPECIFIED., .F., .F.,
 ( 4, 2, 4 ),
 ( 0.01485345774306975376, 0.01548163471194332480, 0.01610981168081689410 ),
 .UNSPECIFIED. ) ;
#125 = PRODUCT_RELATED_PRODUCT_CATEGORY ( 'detail', '', ( #61 ) ) ;
#126 = CARTESIAN_POINT ( 'NONE',  ( 0.000000000000000000, 0.000000000000000000, -55.37200000000000699 ) ) ;
#127 = CARTESIAN_POINT ( 'NONE',  ( 1.268411506570323866, 1.587500000000000355, -55.37200000000000699 ) ) ;
#128 = CARTESIAN_POINT ( 'NONE',  ( -1.587500000000000355, -1.268411506570323866, 3.469446951953614189E-15 ) ) ;
#129 = LINE ( 'NONE', #262, #503 ) ;
#130 = VERTEX_POINT ( 'NONE', #265 ) ;
#131 = COORDINATED_UNIVERSAL_TIME_OFFSET ( 6, 0, .BEHIND. ) ;
#132 = VECTOR ( 'NONE', #167, 1000.000000000000000 ) ;
#133 = EDGE_CURVE ( 'NONE', #452, #346, #290, .T. ) ;
#134 = FACE_OUTER_BOUND ( 'NONE', #13, .T. ) ;
#135 = CARTESIAN_POINT ( 'NONE',  ( 0.000000000000000000, 0.000000000000000000, 0.000000000000000000 ) ) ;
#136 = DIRECTION ( 'NONE',  ( 1.000000000000000000, 0.000000000000000000, 0.000000000000000000 ) ) ;
#137 = DATE_AND_TIME ( #523, #306 ) ;
#138 = ORIENTED_EDGE ( 'NONE', *, *, #308, .F. ) ;
#139 = EDGE_CURVE ( 'NONE', #196, #191, #129, .T. ) ;
#140 = AXIS2_PLACEMENT_3D ( 'NONE', #511, #72, #74 ) ;
#141 = ORIENTED_EDGE ( 'NONE', *, *, #390, .T. ) ;
#142 = CC_DESIGN_PERSON_AND_ORGANIZATION_ASSIGNMENT ( #225, #389, ( #61 ) ) ;
#143 = ORIENTED_EDGE ( 'NONE', *, *, #301, .F. ) ;
#144 = CLOSED_SHELL ( 'NONE', ( #103, #529, #15, #398, #47, #62, #365, #402, #311, #281, #460, #98 ) ) ;
#145 = CARTESIAN_POINT ( 'NONE',  ( -2.375000000000000000, 0.000000000000000000, 0.000000000000000000 ) ) ;
#146 = EDGE_CURVE ( 'NONE', #130, #240, #266, .T. ) ;
#147 = ORIENTED_EDGE ( 'NONE', *, *, #139, .T. ) ;
#148 = DIRECTION ( 'NONE',  ( -0.000000000000000000, -0.000000000000000000, 1.000000000000000000 ) ) ;
#149 = APPROVAL ( #484, 'UNSPECIFIED' ) ;
#150 = ORIENTED_EDGE ( 'NONE', *, *, #33, .F. ) ;
#151 = LINE ( 'NONE', #277, #299 ) ;
#152 = FACE_OUTER_BOUND ( 'NONE', #67, .T. ) ;
#153 = AXIS2_PLACEMENT_3D ( 'NONE', #552, #349, #310 ) ;
#154 = CIRCLE ( 'NONE', #358, 2.032000000000000028 ) ;
#155 = DIRECTION ( 'NONE',  ( -0.000000000000000000, -0.000000000000000000, 1.000000000000000000 ) ) ;
#156 = CARTESIAN_POINT ( 'NONE',  ( 1.587500000000000355, 1.268411506570324088, -55.22091914209798347 ) ) ;
#157 = EDGE_CURVE ( 'NONE', #204, #444, #425, .T. ) ;
#158 = DIRECTION ( 'NONE',  ( -0.000000000000000000, -0.000000000000000000, -1.000000000000000000 ) ) ;
#159 = FACE_OUTER_BOUND ( 'NONE', #355, .T. ) ;
#160 = ORGANIZATION ( 'UNSPECIFIED', 'UNSPECIFIED', '' ) ;
#161 = CARTESIAN_POINT ( 'NONE',  ( 0.2043756380772887293, 1.587500000000000133, -55.34440961896379463 ) ) ;
#162 = DIRECTION ( 'NONE',  ( 0.000000000000000000, 0.000000000000000000, 1.000000000000000000 ) ) ;
#163 = APPROVAL_ROLE ( '' ) ;
#164 = DIRECTION ( 'NONE',  ( 0.000000000000000000, 0.000000000000000000, 1.000000000000000000 ) ) ;
#165 = AXIS2_PLACEMENT_3D ( 'NONE', #222, #216, #387 ) ;
#166 = ORIENTED_EDGE ( 'NONE', *, *, #324, .T. ) ;
#167 = DIRECTION ( 'NONE',  ( 0.000000000000000000, 0.000000000000000000, -1.000000000000000000 ) ) ;
#168 = CARTESIAN_POINT ( 'NONE',  ( -1.245064030267288402, 2.006622987633880502E-16, -55.37200000000000699 ) ) ;
#169 = APPROVAL_DATE_TIME ( #259, #149 ) ;
#170 = CARTESIAN_POINT ( 'NONE',  ( -0.4219230645619450049, -1.587499999999999911, -55.33830730355360572 ) ) ;
#171 = CIRCLE ( 'NONE', #140, 2.375000000000000000 ) ;
#172 = DIRECTION ( 'NONE',  ( -0.000000000000000000, -0.000000000000000000, 1.000000000000000000 ) ) ;
#173 = ADVANCED_FACE ( 'NONE', ( #134 ), #437, .F. ) ;
#174 = CARTESIAN_POINT ( 'NONE',  ( 1.587500000000000355, 0.000000000000000000, -55.34422736169287305 ) ) ;
#175 = AXIS2_PLACEMENT_3D ( 'NONE', #176, #471, #479 ) ;
#176 = CARTESIAN_POINT ( 'NONE',  ( 0.000000000000000000, 0.000000000000000000, -53.24700000000000699 ) ) ;
#177 = SECURITY_CLASSIFICATION_LEVEL ( 'unclassified' ) ;
#178 = ORIENTED_EDGE ( 'NONE', *, *, #209, .F. ) ;
#179 = CARTESIAN_POINT ( 'NONE',  ( 0.000000000000000000, 0.000000000000000000, 0.000000000000000000 ) ) ;
#180 = CARTESIAN_POINT ( 'NONE',  ( -1.587500000000000355, 1.944126793646423534E-16, -55.34422736169287305 ) ) ;
#181 = CIRCLE ( 'NONE', #105, 2.032000000000000028 ) ;
#182 = CARTESIAN_POINT ( 'NONE',  ( -1.587500000000000355, 1.268411506570323866, -55.22091914209798347 ) ) ;
#183 = B_SPLINE_CURVE_WITH_KNOTS ( 'NONE', 3,
 ( #180, #92, #83, #518, #220, #478 ),
 .UNSPECIFIED., .F., .F.,
 ( 4, 2, 4 ),
 ( 1.905938025164284470E-19, 0.0006365870327257441884, 0.001273174065451488160 ),
 .UNSPECIFIED. ) ;
#184 = APPROVAL_STATUS ( 'not_yet_approved' ) ;
#185 = DIRECTION ( 'NONE',  ( -0.000000000000000000, -0.000000000000000000, 1.000000000000000000 ) ) ;
#186 = EDGE_CURVE ( 'NONE', #401, #276, #289, .T. ) ;
#187 = AXIS2_PLACEMENT_3D ( 'NONE', #461, #71, #546 ) ;
#188 = ORIENTED_EDGE ( 'NONE', *, *, #445, .T. ) ;
#189 = PERSON_AND_ORGANIZATION ( #506, #160 ) ;
#190 = CC_DESIGN_PERSON_AND_ORGANIZATION_ASSIGNMENT ( #87, #117, ( #65 ) ) ;
#191 = VERTEX_POINT ( 'NONE', #267 ) ;
#192 = EDGE_LOOP ( 'NONE', ( #494, #442, #143, #29, #201, #229, #245, #449 ) ) ;
#193 = ORIENTED_EDGE ( 'NONE', *, *, #535, .T. ) ;
#194 = EDGE_CURVE ( 'NONE', #366, #204, #211, .T. ) ;
#195 = DIRECTION ( 'NONE',  ( 1.000000000000000000, 0.000000000000000000, 0.000000000000000000 ) ) ;
#196 = VERTEX_POINT ( 'NONE', #224 ) ;
#197 = PLANE ( 'NONE',  #373 ) ;
#198 = ORIENTED_EDGE ( 'NONE', *, *, #30, .T. ) ;
#199 = LOCAL_TIME ( 14, 55, 37.00000000000000000, #335 ) ;
#200 = CARTESIAN_POINT ( 'NONE',  ( -1.587500000000000355, -1.268411506570323866, -55.37200000000000699 ) ) ;
#201 = ORIENTED_EDGE ( 'NONE', *, *, #535, .F. ) ;
#202 = AXIS2_PLACEMENT_3D ( 'NONE', #93, #430, #378 ) ;
#203 = DIRECTION ( 'NONE',  ( -0.000000000000000000, -0.000000000000000000, -1.000000000000000000 ) ) ;
#204 = VERTEX_POINT ( 'NONE', #182 ) ;
#205 = CARTESIAN_POINT ( 'NONE',  ( -1.587500000000000355, 1.268411506570323866, 3.469446951953614189E-15 ) ) ;
#206 = CARTESIAN_POINT ( 'NONE',  ( -1.587500000000000355, -1.587500000000000355, 3.469446951953614189E-15 ) ) ;
#207 = LOCAL_TIME ( 14, 55, 37.00000000000000000, #507 ) ;
#208 = CARTESIAN_POINT ( 'NONE',  ( -1.268411506570323866, -1.587500000000000355, -55.22091914209798347 ) ) ;
#209 = EDGE_CURVE ( 'NONE', #253, #351, #81, .T. ) ;
#210 = VERTEX_POINT ( 'NONE', #8 ) ;
#211 = CIRCLE ( 'NONE', #78, 2.032000000000000028 ) ;
#212 = DIRECTION ( 'NONE',  ( 0.000000000000000000, 0.000000000000000000, -1.000000000000000000 ) ) ;
#213 = ORIENTED_EDGE ( 'NONE', *, *, #443, .F. ) ;
#214 = COORDINATED_UNIVERSAL_TIME_OFFSET ( 6, 0, .BEHIND. ) ;
#215 = LINE ( 'NONE', #380, #95 ) ;
#216 = DIRECTION ( 'NONE',  ( 0.000000000000000000, 0.000000000000000000, 1.000000000000000000 ) ) ;
#217 = MANIFOLD_SOLID_BREP ( '<228-2500-2224-01 Rev1>-<Cut-Extrude1>', #144 ) ;
#218 = CARTESIAN_POINT ( 'NONE',  ( 1.268411506570323866, 1.587500000000000355, 3.469446951953614189E-15 ) ) ;
#219 = DIRECTION ( 'NONE',  ( 1.000000000000000000, 0.000000000000000000, 0.000000000000000000 ) ) ;
#220 = CARTESIAN_POINT ( 'NONE',  ( -1.587500000000000355, -1.061392899157111325, -55.27243677385167331 ) ) ;
#221 = CLOSED_SHELL ( 'NONE', ( #320, #292, #422, #173 ) ) ;
#222 = CARTESIAN_POINT ( 'NONE',  ( 0.000000000000000000, 0.000000000000000000, 0.000000000000000000 ) ) ;
#223 = APPLICATION_PROTOCOL_DEFINITION ( 'international standard', 'config_control_design', 1994, #453 ) ;
#224 = CARTESIAN_POINT ( 'NONE',  ( 1.587500000000000355, -1.268411506570323866, 3.469446951953614189E-15 ) ) ;
#225 = PERSON_AND_ORGANIZATION ( #506, #160 ) ;
#226 = EDGE_CURVE ( 'NONE', #496, #359, #89, .T. ) ;
#227 = AXIS2_PLACEMENT_3D ( 'NONE', #457, #148, #66 ) ;
#228 = DIRECTION ( 'NONE',  ( 0.000000000000000000, 0.000000000000000000, 1.000000000000000000 ) ) ;
#229 = ORIENTED_EDGE ( 'NONE', *, *, #226, .F. ) ;
#230 = CIRCLE ( 'NONE', #539, 1.245064030267288402 ) ;
#231 = AXIS2_PLACEMENT_3D ( 'NONE', #520, #475, #307 ) ;
#232 = EDGE_LOOP ( 'NONE', ( #415, #238, #233, #36 ) ) ;
#233 = ORIENTED_EDGE ( 'NONE', *, *, #416, .T. ) ;
#234 = APPROVAL_PERSON_ORGANIZATION ( #314, #149, #97 ) ;
#235 = ORIENTED_EDGE ( 'NONE', *, *, #275, .F. ) ;
#236 = EDGE_CURVE ( 'NONE', #130, #82, #45, .T. ) ;
#237 = CARTESIAN_POINT ( 'NONE',  ( -1.587500000000000355, 1.268411506570323866, -55.22091914209798347 ) ) ;
#238 = ORIENTED_EDGE ( 'NONE', *, *, #53, .F. ) ;
#239 = DIRECTION ( 'NONE',  ( -0.000000000000000000, -0.000000000000000000, -1.000000000000000000 ) ) ;
#240 = VERTEX_POINT ( 'NONE', #168 ) ;
#241 = CARTESIAN_POINT ( 'NONE',  ( -1.587500000000000355, 1.587500000000000355, 3.469446951953614189E-15 ) ) ;
#242 = EDGE_CURVE ( 'NONE', #531, #19, #337, .T. ) ;
#243 = ORIENTED_EDGE ( 'NONE', *, *, #301, .T. ) ;
#244 = DIRECTION ( 'NONE',  ( 1.000000000000000000, 0.000000000000000000, 0.000000000000000000 ) ) ;
#245 = ORIENTED_EDGE ( 'NONE', *, *, #9, .F. ) ;
#246 = CARTESIAN_POINT ( 'NONE',  ( 1.268411506570323866, 1.587500000000000355, -55.22091914209798347 ) ) ;
#247 = CARTESIAN_POINT ( 'NONE',  ( 1.587500000000000355, -1.268411506570323866, -55.37200000000000699 ) ) ;
#248 = FACE_OUTER_BOUND ( 'NONE', #485, .T. ) ;
#249 = CARTESIAN_POINT ( 'NONE',  ( 0.000000000000000000, 0.000000000000000000, 3.469446951953614189E-15 ) ) ;
#250 =( GEOMETRIC_REPRESENTATION_CONTEXT ( 3 ) GLOBAL_UNCERTAINTY_ASSIGNED_CONTEXT ( ( #328 ) ) GLOBAL_UNIT_ASSIGNED_CONTEXT ( ( #480, #43, #268 ) ) REPRESENTATION_CONTEXT ( 'NONE', 'WORKASPACE' ) );
#251 = APPROVAL ( #427, 'UNSPECIFIED' ) ;
#252 = CARTESIAN_POINT ( 'NONE',  ( -0.8486262390323799920, -1.587500000000000799, -55.30276882282397111 ) ) ;
#253 = VERTEX_POINT ( 'NONE', #317 ) ;
#254 = DATE_TIME_ROLE ( 'classification_date' ) ;
#255 = PLANE ( 'NONE',  #431 ) ;
#256 = VECTOR ( 'NONE', #499, 1000.000000000000000 ) ;
#257 = B_SPLINE_CURVE_WITH_KNOTS ( 'NONE', 3,
 ( #237, #360, #459, #538, #448, #541 ),
 .UNSPECIFIED., .F., .F.,
 ( 4, 2, 4 ),
 ( 0.01485345774306975376, 0.01548163471194332480, 0.01610981168081689410 ),
 .UNSPECIFIED. ) ;
#258 = CARTESIAN_POINT ( 'NONE',  ( 0.000000000000000000, 0.000000000000000000, -55.37200000000000699 ) ) ;
#259 = DATE_AND_TIME ( #510, #199 ) ;
#260 = ORIENTED_EDGE ( 'NONE', *, *, #416, .F. ) ;
#261 = CARTESIAN_POINT ( 'NONE',  ( 1.587500000000000355, -1.268411506570323866, -55.22091914209798347 ) ) ;
#262 = CARTESIAN_POINT ( 'NONE',  ( 1.587500000000000355, -1.587500000000000355, 3.469446951953614189E-15 ) ) ;
#263 = CC_DESIGN_SECURITY_CLASSIFICATION ( #440, ( #65 ) ) ;
#264 = EDGE_CURVE ( 'NONE', #240, #130, #230, .T. ) ;
#265 = CARTESIAN_POINT ( 'NONE',  ( 1.245064030267288402, 0.000000000000000000, -55.37200000000000699 ) ) ;
#266 = CIRCLE ( 'NONE', #18, 1.245064030267288402 ) ;
#267 = CARTESIAN_POINT ( 'NONE',  ( 1.587500000000000355, 1.268411506570323866, 3.469446951953614189E-15 ) ) ;
#268 =( NAMED_UNIT ( * ) SI_UNIT ( $, .STERADIAN. ) SOLID_ANGLE_UNIT ( ) );
#269 = DIRECTION ( 'NONE',  ( 0.000000000000000000, 0.000000000000000000, -1.000000000000000000 ) ) ;
#270 = PERSON_AND_ORGANIZATION_ROLE ( 'creator' ) ;
#271 = VECTOR ( 'NONE', #203, 1000.000000000000000 ) ;
#272 = ORIENTED_EDGE ( 'NONE', *, *, #21, .T. ) ;
#273 = AXIS2_PLACEMENT_3D ( 'NONE', #550, #464, #73 ) ;
#274 = ORIENTED_EDGE ( 'NONE', *, *, #308, .T. ) ;
#275 = EDGE_CURVE ( 'NONE', #536, #276, #151, .T. ) ;
#276 = VERTEX_POINT ( 'NONE', #145 ) ;
#277 = CARTESIAN_POINT ( 'NONE',  ( -2.375000000000000000, 0.000000000000000000, 0.8000000000000000444 ) ) ;
#278 = ORIENTED_EDGE ( 'NONE', *, *, #371, .T. ) ;
#279 = CARTESIAN_POINT ( 'NONE',  ( 1.587500000000000355, -1.587500000000000355, 3.469446951953614189E-15 ) ) ;
#280 = ORIENTED_EDGE ( 'NONE', *, *, #361, .F. ) ;
#281 = ADVANCED_FACE ( 'NONE', ( #59 ), #327, .T. ) ;
#282 = CARTESIAN_POINT ( 'NONE',  ( 1.268411506570323866, -1.587500000000000355, 3.469446951953614189E-15 ) ) ;
#283 = ORIENTED_EDGE ( 'NONE', *, *, #264, .T. ) ;
#284 = CARTESIAN_POINT ( 'NONE',  ( -1.268411506570324088, 1.587500000000000355, -55.22091914209798347 ) ) ;
#285 = LINE ( 'NONE', #247, #69 ) ;
#286 = AXIS2_PLACEMENT_3D ( 'NONE', #80, #68, #554 ) ;
#287 = CARTESIAN_POINT ( 'NONE',  ( 0.000000000000000000, 0.000000000000000000, 3.469446951953614189E-15 ) ) ;
#288 = EDGE_LOOP ( 'NONE', ( #370, #283, #11, #472, #16, #75, #293, #60 ) ) ;
#289 = CIRCLE ( 'NONE', #493, 2.375000000000000000 ) ;
#290 = CIRCLE ( 'NONE', #436, 2.032000000000000028 ) ;
#291 = DIRECTION ( 'NONE',  ( -0.000000000000000000, -0.000000000000000000, 1.000000000000000000 ) ) ;
#292 = ADVANCED_FACE ( 'NONE', ( #403 ), #534, .T. ) ;
#293 = ORIENTED_EDGE ( 'NONE', *, *, #371, .F. ) ;
#294 = FACE_OUTER_BOUND ( 'NONE', #51, .T. ) ;
#295 = DIRECTION ( 'NONE',  ( 0.000000000000000000, 0.000000000000000000, 1.000000000000000000 ) ) ;
#296 = CC_DESIGN_APPROVAL ( #524, ( #474 ) ) ;
#297 = DIRECTION ( 'NONE',  ( 0.000000000000000000, 0.000000000000000000, 1.000000000000000000 ) ) ;
#298 = CARTESIAN_POINT ( 'NONE',  ( -1.268411506570323866, -1.587500000000000355, -55.22091914209798347 ) ) ;
#299 = VECTOR ( 'NONE', #158, 1000.000000000000000 ) ;
#300 = DIRECTION ( 'NONE',  ( -1.000000000000000000, 0.000000000000000000, -0.000000000000000000 ) ) ;
#301 = EDGE_CURVE ( 'NONE', #204, #321, #257, .T. ) ;
#302 = CYLINDRICAL_SURFACE ( 'NONE', #35, 2.032000000000000028 ) ;
#303 = DIRECTION ( 'NONE',  ( 0.000000000000000000, 1.000000000000000000, 0.000000000000000000 ) ) ;
#304 = DATE_AND_TIME ( #476, #354 ) ;
#305 = DIRECTION ( 'NONE',  ( 1.000000000000000000, 0.000000000000000000, 0.000000000000000000 ) ) ;
#306 = LOCAL_TIME ( 14, 55, 37.00000000000000000, #131 ) ;
#307 = DIRECTION ( 'NONE',  ( 1.000000000000000000, 0.000000000000000000, 0.000000000000000000 ) ) ;
#308 = EDGE_CURVE ( 'NONE', #276, #401, #477, .T. ) ;
#309 = CARTESIAN_POINT ( 'NONE',  ( -2.375000000000000000, 0.000000000000000000, 0.8000000000000000444 ) ) ;
#310 = DIRECTION ( 'NONE',  ( 1.000000000000000000, 0.000000000000000000, 0.000000000000000000 ) ) ;
#311 = ADVANCED_FACE ( 'NONE', ( #490 ), #406, .T. ) ;
#312 = APPROVAL_DATE_TIME ( #137, #524 ) ;
#313 = ORIENTED_EDGE ( 'NONE', *, *, #70, .T. ) ;
#314 = PERSON_AND_ORGANIZATION ( #506, #160 ) ;
#315 = ORIENTED_EDGE ( 'NONE', *, *, #544, .T. ) ;
#316 = EDGE_LOOP ( 'NONE', ( #52, #22, #272, #280 ) ) ;
#317 = CARTESIAN_POINT ( 'NONE',  ( -1.268411506570323866, -1.587500000000000355, 3.469446951953614189E-15 ) ) ;
#318 = EDGE_LOOP ( 'NONE', ( #54, #198, #96, #399, #119, #147, #329, #166 ) ) ;
#319 = DIRECTION ( 'NONE',  ( 1.000000000000000000, 0.000000000000000000, 0.000000000000000000 ) ) ;
#320 = ADVANCED_FACE ( 'NONE', ( #356 ), #492, .T. ) ;
#321 = VERTEX_POINT ( 'NONE', #495 ) ;
#322 = CARTESIAN_POINT ( 'NONE',  ( 0.000000000000000000, 0.000000000000000000, 0.000000000000000000 ) ) ;
#323 = PLANE ( 'NONE',  #273 ) ;
#324 = EDGE_CURVE ( 'NONE', #407, #104, #487, .T. ) ;
#325 = DIRECTION ( 'NONE',  ( -1.000000000000000000, 0.000000000000000000, 0.000000000000000000 ) ) ;
#326 = PLANE ( 'NONE',  #187 ) ;
#327 = CYLINDRICAL_SURFACE ( 'NONE', #23, 2.032000000000000028 ) ;
#328 = UNCERTAINTY_MEASURE_WITH_UNIT (LENGTH_MEASURE( 1.000000000000000082E-05 ), #480, 'distance_accuracy_value', 'NONE');
#329 = ORIENTED_EDGE ( 'NONE', *, *, #443, .T. ) ;
#330 = CARTESIAN_POINT ( 'NONE',  ( 1.268411506570324088, -1.587500000000000355, -55.22091914209798347 ) ) ;
#331 = DIRECTION ( 'NONE',  ( 1.000000000000000000, 0.000000000000000000, 0.000000000000000000 ) ) ;
#332 = CIRCLE ( 'NONE', #28, 2.375000000000000000 ) ;
#333 = CARTESIAN_POINT ( 'NONE',  ( 2.375000000000000000, 2.908536147974963713E-16, 0.000000000000000000 ) ) ;
#334 = EDGE_LOOP ( 'NONE', ( #313, #533, #456, #213 ) ) ;
#335 = COORDINATED_UNIVERSAL_TIME_OFFSET ( 6, 0, .BEHIND. ) ;
#336 = CARTESIAN_POINT ( 'NONE',  ( 1.268411506570324088, -1.587500000000000355, -55.22091914209798347 ) ) ;
#337 = LINE ( 'NONE', #200, #501 ) ;
#338 = AXIS2_PLACEMENT_3D ( 'NONE', #20, #106, #244 ) ;
#339 = CARTESIAN_POINT ( 'NONE',  ( -0.2043756380772887293, -1.587500000000000133, -55.34440961896379463 ) ) ;
#340 = CARTESIAN_POINT ( 'NONE',  ( 1.587500000000000355, 1.268411506570323866, -55.37200000000000699 ) ) ;
#341 = PERSON_AND_ORGANIZATION_ROLE ( 'creator' ) ;
#342 = FACE_OUTER_BOUND ( 'NONE', #428, .T. ) ;
#343 = LINE ( 'NONE', #127, #462 ) ;
#344 = MECHANICAL_CONTEXT ( 'NONE', #453, 'mechanical' ) ;
#345 = DIRECTION ( 'NONE',  ( 0.000000000000000000, 0.000000000000000000, -1.000000000000000000 ) ) ;
#346 = VERTEX_POINT ( 'NONE', #530 ) ;
#347 = AXIS2_PLACEMENT_3D ( 'NONE', #497, #113, #325 ) ;
#348 = CC_DESIGN_DATE_AND_TIME_ASSIGNMENT ( #547, #254, ( #440 ) ) ;
#349 = DIRECTION ( 'NONE',  ( -0.000000000000000000, -0.000000000000000000, 1.000000000000000000 ) ) ;
#350 = APPROVAL_ROLE ( '' ) ;
#351 = VERTEX_POINT ( 'NONE', #282 ) ;
#352 = DATE_AND_TIME ( #394, #364 ) ;
#353 = ORIENTED_EDGE ( 'NONE', *, *, #33, .T. ) ;
#354 = LOCAL_TIME ( 14, 55, 37.00000000000000000, #214 ) ;
#355 = EDGE_LOOP ( 'NONE', ( #502, #188, #3, #178 ) ) ;
#356 = FACE_OUTER_BOUND ( 'NONE', #388, .T. ) ;
#357 = VECTOR ( 'NONE', #391, 1000.000000000000000 ) ;
#358 = AXIS2_PLACEMENT_3D ( 'NONE', #385, #5, #219 ) ;
#359 = VERTEX_POINT ( 'NONE', #454 ) ;
#360 = CARTESIAN_POINT ( 'NONE',  ( -1.587500000000000133, 1.061532360077855230, -55.27240206829359437 ) ) ;
#361 = EDGE_CURVE ( 'NONE', #351, #196, #392, .T. ) ;
#362 = ORIENTED_EDGE ( 'NONE', *, *, #519, .T. ) ;
#363 = DIRECTION ( 'NONE',  ( 1.000000000000000000, 0.000000000000000000, 0.000000000000000000 ) ) ;
#364 = LOCAL_TIME ( 14, 55, 37.00000000000000000, #441 ) ;
#365 = ADVANCED_FACE ( 'NONE', ( #63 ), #466, .T. ) ;
#366 = VERTEX_POINT ( 'NONE', #284 ) ;
#367 = CARTESIAN_POINT ( 'NONE',  ( 0.000000000000000000, 0.000000000000000000, -55.37200000000000699 ) ) ;
#368 = CARTESIAN_POINT ( 'NONE',  ( 1.587500000000000355, 0.8513200635100126590, -55.30237755531810961 ) ) ;
#369 = FACE_OUTER_BOUND ( 'NONE', #410, .T. ) ;
#370 = ORIENTED_EDGE ( 'NONE', *, *, #434, .F. ) ;
#371 = EDGE_CURVE ( 'NONE', #19, #107, #112, .T. ) ;
#372 = CARTESIAN_POINT ( 'NONE',  ( 1.587500000000000577, -0.8514389605504935066, -55.30236751577921694 ) ) ;
#373 = AXIS2_PLACEMENT_3D ( 'NONE', #279, #463, #164 ) ;
#374 = CARTESIAN_POINT ( 'NONE',  ( 0.000000000000000000, 0.000000000000000000, 0.8000000000000000444 ) ) ;
#375 = CARTESIAN_POINT ( 'NONE',  ( 1.268411506570323866, -1.587500000000000355, -55.37200000000000699 ) ) ;
#376 = CARTESIAN_POINT ( 'NONE',  ( 1.587500000000000577, 0.4277385810629841800, -55.33798654358312774 ) ) ;
#377 = DIRECTION ( 'NONE',  ( 1.224646799147353207E-16, 1.000000000000000000, 0.000000000000000000 ) ) ;
#378 = DIRECTION ( 'NONE',  ( 0.000000000000000000, 0.000000000000000000, -1.000000000000000000 ) ) ;
#379 = APPROVAL_DATE_TIME ( #304, #251 ) ;
#380 = CARTESIAN_POINT ( 'NONE',  ( -1.268411506570323866, 1.587500000000000355, -55.37200000000000699 ) ) ;
#381 = CARTESIAN_POINT ( 'NONE',  ( 1.587500000000000355, 0.000000000000000000, -55.34422736169287305 ) ) ;
#382 = PERSON_AND_ORGANIZATION ( #506, #160 ) ;
#383 = APPROVAL_PERSON_ORGANIZATION ( #382, #251, #163 ) ;
#384 = DIRECTION ( 'NONE',  ( 1.000000000000000000, 0.000000000000000000, 0.000000000000000000 ) ) ;
#385 = CARTESIAN_POINT ( 'NONE',  ( 0.000000000000000000, 0.000000000000000000, 3.469446951953614189E-15 ) ) ;
#386 = VECTOR ( 'NONE', #269, 1000.000000000000000 ) ;
#387 = DIRECTION ( 'NONE',  ( 1.000000000000000000, 0.000000000000000000, -0.000000000000000000 ) ) ;
#388 = EDGE_LOOP ( 'NONE', ( #528, #141, #489, #235 ) ) ;
#389 = PERSON_AND_ORGANIZATION_ROLE ( 'design_owner' ) ;
#390 = EDGE_CURVE ( 'NONE', #210, #401, #27, .T. ) ;
#391 = DIRECTION ( 'NONE',  ( 1.000000000000000000, 0.000000000000000000, 0.000000000000000000 ) ) ;
#392 = CIRCLE ( 'NONE', #400, 2.032000000000000028 ) ;
#393 = CARTESIAN_POINT ( 'NONE',  ( 2.375000000000000000, 2.908536147974963713E-16, 0.8000000000000000444 ) ) ;
#394 = CALENDAR_DATE ( 2022, 6, 6 ) ;
#395 = AXIS2_PLACEMENT_3D ( 'NONE', #249, #295, #467 ) ;
#396 = MANIFOLD_SOLID_BREP ( '<228-2500-2218-02 Rev2>-<Boss-Extrude1>', #221 ) ;
#397 = ORIENTED_EDGE ( 'NONE', *, *, #21, .F. ) ;
#398 = ADVANCED_FACE ( 'NONE', ( #369 ), #197, .F. ) ;
#399 = ORIENTED_EDGE ( 'NONE', *, *, #209, .T. ) ;
#400 = AXIS2_PLACEMENT_3D ( 'NONE', #287, #228, #195 ) ;
#401 = VERTEX_POINT ( 'NONE', #333 ) ;
#402 = ADVANCED_FACE ( 'NONE', ( #294 ), #255, .T. ) ;
#403 = FACE_OUTER_BOUND ( 'NONE', #517, .T. ) ;
#404 = ORIENTED_EDGE ( 'NONE', *, *, #275, .T. ) ;
#405 = CC_DESIGN_PERSON_AND_ORGANIZATION_ASSIGNMENT ( #94, #270, ( #474 ) ) ;
#406 = CYLINDRICAL_SURFACE ( 'NONE', #545, 2.032000000000000028 ) ;
#407 = VERTEX_POINT ( 'NONE', #218 ) ;
#408 = DIRECTION ( 'NONE',  ( -1.000000000000000000, 0.000000000000000000, 0.000000000000000000 ) ) ;
#409 = AXIS2_PLACEMENT_3D ( 'NONE', #77, #377, #118 ) ;
#410 = EDGE_LOOP ( 'NONE', ( #397, #362, #491, #14, #58 ) ) ;
#411 = CARTESIAN_POINT ( 'NONE',  ( 0.000000000000000000, 0.000000000000000000, -55.37200000000000699 ) ) ;
#412 = ORIENTED_EDGE ( 'NONE', *, *, #30, .F. ) ;
#413 = CIRCLE ( 'NONE', #395, 2.032000000000000028 ) ;
#414 = CARTESIAN_POINT ( 'NONE',  ( -1.060147506033615628, -1.587500000000000577, -55.27274669625519010 ) ) ;
#415 = ORIENTED_EDGE ( 'NONE', *, *, #157, .T. ) ;
#416 = EDGE_CURVE ( 'NONE', #104, #366, #215, .T. ) ;
#417 = PERSON_AND_ORGANIZATION_ROLE ( 'classification_officer' ) ;
#418 = CARTESIAN_POINT ( 'NONE',  ( 0.8486262390323799920, 1.587500000000000799, -55.30276882282397111 ) ) ;
#419 = AXIS2_PLACEMENT_3D ( 'NONE', #322, #532, #10 ) ;
#420 = ORIENTED_EDGE ( 'NONE', *, *, #450, .T. ) ;
#421 = CARTESIAN_POINT ( 'NONE',  ( 1.587500000000000133, -1.061532360077855230, -55.27240206829359437 ) ) ;
#422 = ADVANCED_FACE ( 'NONE', ( #248 ), #429, .T. ) ;
#423 = ORIENTED_EDGE ( 'NONE', *, *, #86, .F. ) ;
#424 = DIRECTION ( 'NONE',  ( 1.000000000000000000, 0.000000000000000000, 0.000000000000000000 ) ) ;
#425 = LINE ( 'NONE', #433, #91 ) ;
#426 = APPLICATION_CONTEXT ( 'configuration controlled 3d designs of mechanical parts and assemblies' ) ;
#427 = APPROVAL_STATUS ( 'not_yet_approved' ) ;
#428 = EDGE_LOOP ( 'NONE', ( #114, #243, #99, #116, #412 ) ) ;
#429 = PLANE ( 'NONE',  #286 ) ;
#430 = DIRECTION ( 'NONE',  ( 0.000000000000000000, -1.000000000000000000, 0.000000000000000000 ) ) ;
#431 = AXIS2_PLACEMENT_3D ( 'NONE', #39, #212, #300 ) ;
#432 = DIRECTION ( 'NONE',  ( -0.000000000000000000, -0.000000000000000000, 1.000000000000000000 ) ) ;
#433 = CARTESIAN_POINT ( 'NONE',  ( -1.587500000000000355, 1.268411506570323866, -55.37200000000000699 ) ) ;
#434 = EDGE_CURVE ( 'NONE', #240, #321, #521, .T. ) ;
#435 = LINE ( 'NONE', #473, #483 ) ;
#436 = AXIS2_PLACEMENT_3D ( 'NONE', #516, #40, #469 ) ;
#437 = PLANE ( 'NONE',  #165 ) ;
#438 = CARTESIAN_POINT ( 'NONE',  ( -1.268411506570324088, 1.587500000000000355, -55.22091914209798347 ) ) ;
#439 = DIRECTION ( 'NONE',  ( -0.000000000000000000, -0.000000000000000000, 1.000000000000000000 ) ) ;
#440 = SECURITY_CLASSIFICATION ( '', '', #177 ) ;
#441 = COORDINATED_UNIVERSAL_TIME_OFFSET ( 6, 0, .BEHIND. ) ;
#442 = ORIENTED_EDGE ( 'NONE', *, *, #434, .T. ) ;
#443 = EDGE_CURVE ( 'NONE', #191, #407, #181, .T. ) ;
#444 = VERTEX_POINT ( 'NONE', #205 ) ;
#445 = EDGE_CURVE ( 'NONE', #107, #452, #6, .T. ) ;
#446 = EDGE_LOOP ( 'NONE', ( #64, #278, #315, #423 ) ) ;
#447 = CC_DESIGN_APPROVAL ( #149, ( #65 ) ) ;
#448 = CARTESIAN_POINT ( 'NONE',  ( -1.587500000000000355, 0.2114796877013868093, -55.34422736169287305 ) ) ;
#449 = ORIENTED_EDGE ( 'NONE', *, *, #236, .F. ) ;
#450 = EDGE_CURVE ( 'NONE', #210, #536, #171, .T. ) ;
#451 = DIRECTION ( 'NONE',  ( 0.000000000000000000, 0.000000000000000000, -1.000000000000000000 ) ) ;
#452 = VERTEX_POINT ( 'NONE', #330 ) ;
#453 = APPLICATION_CONTEXT ( 'configuration controlled 3d designs of mechanical parts and assemblies' ) ;
#454 = CARTESIAN_POINT ( 'NONE',  ( 1.268411506570323866, 1.587500000000000355, -55.22091914209798347 ) ) ;
#455 = ADVANCED_BREP_SHAPE_REPRESENTATION ( '228-2500-2224', ( #396, #217, #50 ), #250 ) ;
#456 = ORIENTED_EDGE ( 'NONE', *, *, #120, .T. ) ;
#457 = CARTESIAN_POINT ( 'NONE',  ( 0.000000000000000000, 0.000000000000000000, -53.24700000000000699 ) ) ;
#458 = LINE ( 'NONE', #206, #256 ) ;
#459 = CARTESIAN_POINT ( 'NONE',  ( -1.587500000000000577, 0.8514389605504935066, -55.30236751577921694 ) ) ;
#460 = ADVANCED_FACE ( 'NONE', ( #465 ), #302, .T. ) ;
#461 = CARTESIAN_POINT ( 'NONE',  ( -1.587500000000000355, -1.587500000000000355, 3.469446951953614189E-15 ) ) ;
#462 = VECTOR ( 'NONE', #439, 1000.000000000000000 ) ;
#463 = DIRECTION ( 'NONE',  ( -1.000000000000000000, 0.000000000000000000, 0.000000000000000000 ) ) ;
#464 = DIRECTION ( 'NONE',  ( 0.000000000000000000, -1.000000000000000000, 0.000000000000000000 ) ) ;
#465 = FACE_OUTER_BOUND ( 'NONE', #232, .T. ) ;
#466 = TOROIDAL_SURFACE ( 'NONE', #227, 1.245064030267288402, 2.124999999999995115 ) ;
#467 = DIRECTION ( 'NONE',  ( 1.000000000000000000, 0.000000000000000000, 0.000000000000000000 ) ) ;
#468 = DIRECTION ( 'NONE',  ( 1.000000000000000000, 0.000000000000000000, 0.000000000000000000 ) ) ;
#469 = DIRECTION ( 'NONE',  ( 1.000000000000000000, 0.000000000000000000, 0.000000000000000000 ) ) ;
#470 = CARTESIAN_POINT ( 'NONE',  ( 0.8571092511719591300, -1.587500000000000355, -55.32327379706277526 ) ) ;
#471 = DIRECTION ( 'NONE',  ( -0.000000000000000000, -0.000000000000000000, 1.000000000000000000 ) ) ;
#472 = ORIENTED_EDGE ( 'NONE', *, *, #519, .F. ) ;
#473 = CARTESIAN_POINT ( 'NONE',  ( -1.268411506570323866, -1.587500000000000355, -55.37200000000000699 ) ) ;
#474 = PRODUCT_DEFINITION ( 'UNKNOWN', '', #65, #109 ) ;
#475 = DIRECTION ( 'NONE',  ( -0.000000000000000000, -0.000000000000000000, 1.000000000000000000 ) ) ;
#476 = CALENDAR_DATE ( 2022, 6, 6 ) ;
#477 = CIRCLE ( 'NONE', #419, 2.375000000000000000 ) ;
#478 = CARTESIAN_POINT ( 'NONE',  ( -1.587500000000000355, -1.268411506570324088, -55.22091914209798347 ) ) ;
#479 = DIRECTION ( 'NONE',  ( 1.000000000000000000, 0.000000000000000000, 0.000000000000000000 ) ) ;
#480 =( LENGTH_UNIT ( ) NAMED_UNIT ( * ) SI_UNIT ( .MILLI., .METRE. ) );
#481 = CARTESIAN_POINT ( 'NONE',  ( -1.587500000000000355, -1.587500000000000355, 3.469446951953614189E-15 ) ) ;
#482 = ORIENTED_EDGE ( 'NONE', *, *, #186, .F. ) ;
#483 = VECTOR ( 'NONE', #432, 1000.000000000000000 ) ;
#484 = APPROVAL_STATUS ( 'not_yet_approved' ) ;
#485 = EDGE_LOOP ( 'NONE', ( #353, #420 ) ) ;
#486 = ORIENTED_EDGE ( 'NONE', *, *, #324, .F. ) ;
#487 = LINE ( 'NONE', #241, #84 ) ;
#488 = CC_DESIGN_DATE_AND_TIME_ASSIGNMENT ( #352, #525, ( #474 ) ) ;
#489 = ORIENTED_EDGE ( 'NONE', *, *, #186, .T. ) ;
#490 = FACE_OUTER_BOUND ( 'NONE', #316, .T. ) ;
#491 = ORIENTED_EDGE ( 'NONE', *, *, #9, .T. ) ;
#492 = CYLINDRICAL_SURFACE ( 'NONE', #347, 2.375000000000000000 ) ;
#493 = AXIS2_PLACEMENT_3D ( 'NONE', #179, #88, #49 ) ;
#494 = ORIENTED_EDGE ( 'NONE', *, *, #146, .T. ) ;
#495 = CARTESIAN_POINT ( 'NONE',  ( -1.587500000000000355, 1.944126793646423534E-16, -55.34422736169287305 ) ) ;
#496 = VERTEX_POINT ( 'NONE', #31 ) ;
#497 = CARTESIAN_POINT ( 'NONE',  ( 0.000000000000000000, 0.000000000000000000, 0.8000000000000000444 ) ) ;
#498 = CC_DESIGN_APPROVAL ( #251, ( #440 ) ) ;
#499 = DIRECTION ( 'NONE',  ( -0.000000000000000000, -1.000000000000000000, -0.000000000000000000 ) ) ;
#500 = DIRECTION ( 'NONE',  ( 0.000000000000000000, 0.000000000000000000, -1.000000000000000000 ) ) ;
#501 = VECTOR ( 'NONE', #451, 1000.000000000000000 ) ;
#502 = ORIENTED_EDGE ( 'NONE', *, *, #544, .F. ) ;
#503 = VECTOR ( 'NONE', #303, 1000.000000000000000 ) ;
#504 = CARTESIAN_POINT ( 'NONE',  ( -0.8571092511719591300, 1.587500000000000355, -55.32327379706277526 ) ) ;
#505 = CARTESIAN_POINT ( 'NONE',  ( 1.587500000000000355, 0.000000000000000000, -55.34422736169287305 ) ) ;
#506 = PERSON ( 'UNSPECIFIED', 'UNSPECIFIED', 'UNSPECIFIED', ('UNSPECIFIED'), ('UNSPECIFIED'), ('UNSPECIFIED') ) ;
#507 = COORDINATED_UNIVERSAL_TIME_OFFSET ( 6, 0, .BEHIND. ) ;
#508 = PLANE ( 'NONE',  #122 ) ;
#509 = FACE_OUTER_BOUND ( 'NONE', #334, .T. ) ;
#510 = CALENDAR_DATE ( 2022, 6, 6 ) ;
#511 = CARTESIAN_POINT ( 'NONE',  ( 0.000000000000000000, 0.000000000000000000, 0.8000000000000000444 ) ) ;
#512 = CYLINDRICAL_SURFACE ( 'NONE', #231, 2.032000000000000028 ) ;
#513 = CALENDAR_DATE ( 2022, 6, 6 ) ;
#514 = DIRECTION ( 'NONE',  ( 0.000000000000000000, 0.000000000000000000, -1.000000000000000000 ) ) ;
#515 = EDGE_CURVE ( 'NONE', #351, #452, #115, .T. ) ;
#516 = CARTESIAN_POINT ( 'NONE',  ( 0.000000000000000000, 0.000000000000000000, -55.22091914209798347 ) ) ;
#517 = EDGE_LOOP ( 'NONE', ( #26, #150, #404, #274 ) ) ;
#518 = CARTESIAN_POINT ( 'NONE',  ( -1.587500000000000355, -0.8513200635100126590, -55.30237755531810251 ) ) ;
#519 = EDGE_CURVE ( 'NONE', #346, #82, #124, .T. ) ;
#520 = CARTESIAN_POINT ( 'NONE',  ( 0.000000000000000000, 0.000000000000000000, -55.37200000000000699 ) ) ;
#521 = CIRCLE ( 'NONE', #409, 2.124999999999995115 ) ;
#522 = DIRECTION ( 'NONE',  ( -0.000000000000000000, -0.000000000000000000, 1.000000000000000000 ) ) ;
#523 = CALENDAR_DATE ( 2022, 6, 6 ) ;
#524 = APPROVAL ( #184, 'UNSPECIFIED' ) ;
#525 = DATE_TIME_ROLE ( 'creation_date' ) ;
#526 = ORIENTED_EDGE ( 'NONE', *, *, #264, .F. ) ;
#527 = APPROVAL_PERSON_ORGANIZATION ( #189, #524, #350 ) ;
#528 = ORIENTED_EDGE ( 'NONE', *, *, #450, .F. ) ;
#529 = ADVANCED_FACE ( 'NONE', ( #342 ), #508, .F. ) ;
#530 = CARTESIAN_POINT ( 'NONE',  ( 1.587500000000000355, -1.268411506570323866, -55.22091914209798347 ) ) ;
#531 = VERTEX_POINT ( 'NONE', #128 ) ;
#532 = DIRECTION ( 'NONE',  ( 0.000000000000000000, 0.000000000000000000, 1.000000000000000000 ) ) ;
#533 = ORIENTED_EDGE ( 'NONE', *, *, #226, .T. ) ;
#534 = CYLINDRICAL_SURFACE ( 'NONE', #56, 2.375000000000000000 ) ;
#535 = EDGE_CURVE ( 'NONE', #359, #366, #102, .T. ) ;
#536 = VERTEX_POINT ( 'NONE', #309 ) ;
#537 = PRODUCT_DEFINITION_SHAPE ( 'NONE', 'NONE',  #474 ) ;
#538 = CARTESIAN_POINT ( 'NONE',  ( -1.587500000000000355, 0.4276219574846453209, -55.33799639200007903 ) ) ;
#539 = AXIS2_PLACEMENT_3D ( 'NONE', #411, #108, #101 ) ;
#540 = CARTESIAN_POINT ( 'NONE',  ( 1.587500000000000355, 1.061392899157110881, -55.27243677385168041 ) ) ;
#541 = CARTESIAN_POINT ( 'NONE',  ( -1.587500000000000355, 1.944126793646423534E-16, -55.34422736169287305 ) ) ;
#542 = CARTESIAN_POINT ( 'NONE',  ( 1.587500000000000355, 0.2143109880596213712, -55.34422736169287305 ) ) ;
#543 = CARTESIAN_POINT ( 'NONE',  ( 1.060147506033615628, 1.587500000000000577, -55.27274669625519010 ) ) ;
#544 = EDGE_CURVE ( 'NONE', #107, #253, #435, .T. ) ;
#545 = AXIS2_PLACEMENT_3D ( 'NONE', #24, #155, #363 ) ;
#546 = DIRECTION ( 'NONE',  ( 0.000000000000000000, -0.000000000000000000, 1.000000000000000000 ) ) ;
#547 = DATE_AND_TIME ( #513, #207 ) ;
#548 = CARTESIAN_POINT ( 'NONE',  ( -0.4342314039556041672, 1.587500000000000355, -55.34385171744313681 ) ) ;
#549 = CC_DESIGN_PERSON_AND_ORGANIZATION_ASSIGNMENT ( #76, #417, ( #440 ) ) ;
#550 = CARTESIAN_POINT ( 'NONE',  ( -1.587500000000000355, 1.587500000000000355, 3.469446951953614189E-15 ) ) ;
#551 = CARTESIAN_POINT ( 'NONE',  ( 0.4342314039556041672, -1.587500000000000355, -55.34385171744313681 ) ) ;
#552 = CARTESIAN_POINT ( 'NONE',  ( 0.000000000000000000, 0.000000000000000000, -55.22091914209798347 ) ) ;
#553 = SHAPE_DEFINITION_REPRESENTATION ( #537, #455 ) ;
#554 = DIRECTION ( 'NONE',  ( 1.000000000000000000, 0.000000000000000000, -0.000000000000000000 ) ) ;
#555 = DIRECTION ( 'NONE',  ( -0.000000000000000000, -0.000000000000000000, 1.000000000000000000 ) ) ;
#556 = PERSON_AND_ORGANIZATION ( #506, #160 ) ;
#557 = EDGE_CURVE ( 'NONE', #321, #19, #183, .T. ) ;
ENDSEC;
END-ISO-10303-21;
