ISO-10303-21;
HEADER;
FILE_DESCRIPTION (( 'STEP AP203' ),
    '1' );
FILE_NAME ('228-2500-076.step',
    '2022-06-06T18:56:30',
    ( '' ),
    ( '' ),
    'SwSTEP 2.0',
    'SolidWorks 2021',
    '' );
FILE_SCHEMA (( 'CONFIG_CONTROL_DESIGN' ));
ENDSEC;

DATA;
#1 = DIRECTION ( 'NONE',  ( -1.000000000000000000, 0.000000000000000000, 0.000000000000000000 ) ) ;
#2 = CIRCLE ( 'NONE', #465, 2.032000000000000028 ) ;
#3 = EDGE_CURVE ( 'NONE', #543, #113, #440, .T. ) ;
#4 = CARTESIAN_POINT ( 'NONE',  ( -1.268411506570323866, 1.587500000000000355, -24.35991914209797926 ) ) ;
#5 = COORDINATED_UNIVERSAL_TIME_OFFSET ( 6, 0, .BEHIND. ) ;
#6 = CARTESIAN_POINT ( 'NONE',  ( 0.000000000000000000, 0.000000000000000000, 24.35991914209797926 ) ) ;
#7 = CC_DESIGN_DATE_AND_TIME_ASSIGNMENT ( #181, #496, ( #149 ) ) ;
#8 = PERSON_AND_ORGANIZATION ( #100, #312 ) ;
#9 = LINE ( 'NONE', #93, #171 ) ;
#10 = AXIS2_PLACEMENT_3D ( 'NONE', #207, #45, #257 ) ;
#11 = ADVANCED_FACE ( 'NONE', ( #462 ), #74, .F. ) ;
#12 = PERSON_AND_ORGANIZATION ( #100, #312 ) ;
#13 = DIRECTION ( 'NONE',  ( -0.000000000000000000, -0.000000000000000000, 1.000000000000000000 ) ) ;
#14 = TOROIDAL_SURFACE ( 'NONE', #316, 1.245064030267288402, 2.124999999999998224 ) ;
#15 = B_SPLINE_CURVE_WITH_KNOTS ( 'NONE', 3,
 ( #410, #178, #487, #527, #405, #483 ),
 .UNSPECIFIED., .F., .F.,
 ( 4, 2, 4 ),
 ( 0.01485345774306977458, 0.01548163471194334562, 0.01610981168081691492 ),
 .UNSPECIFIED. ) ;
#16 = PERSON_AND_ORGANIZATION_ROLE ( 'classification_officer' ) ;
#17 = CARTESIAN_POINT ( 'NONE',  ( 0.000000000000000000, 0.000000000000000000, -24.35991914209797926 ) ) ;
#18 = CARTESIAN_POINT ( 'NONE',  ( -1.587500000000000355, -1.587500000000000355, 24.51099999999999923 ) ) ;
#19 = ORIENTED_EDGE ( 'NONE', *, *, #400, .F. ) ;
#20 = CARTESIAN_POINT ( 'NONE',  ( 1.587500000000000355, -1.268411506570323866, -24.35991914209797926 ) ) ;
#21 = ADVANCED_FACE ( 'NONE', ( #112 ), #14, .T. ) ;
#22 = B_SPLINE_CURVE_WITH_KNOTS ( 'NONE', 3,
 ( #58, #268, #533, #486, #133, #142 ),
 .UNSPECIFIED., .F., .F.,
 ( 4, 2, 4 ),
 ( 1.905938025164285192E-19, 0.0006365870327257439716, 0.001273174065451487726 ),
 .UNSPECIFIED. ) ;
#23 = EDGE_CURVE ( 'NONE', #528, #25, #502, .T. ) ;
#24 = FACE_OUTER_BOUND ( 'NONE', #289, .T. ) ;
#25 = VERTEX_POINT ( 'NONE', #245 ) ;
#26 = ORIENTED_EDGE ( 'NONE', *, *, #530, .T. ) ;
#27 = APPROVAL_DATE_TIME ( #104, #302 ) ;
#28 = CARTESIAN_POINT ( 'NONE',  ( -1.587500000000000355, -1.944126793646423534E-16, 24.48322736169286173 ) ) ;
#29 = ORIENTED_EDGE ( 'NONE', *, *, #60, .F. ) ;
#30 = CC_DESIGN_APPROVAL ( #302, ( #149 ) ) ;
#31 = CARTESIAN_POINT ( 'NONE',  ( 1.587500000000000577, -0.4277385810629849017, 24.47698654358311288 ) ) ;
#32 = ORIENTED_EDGE ( 'NONE', *, *, #166, .T. ) ;
#33 = VECTOR ( 'NONE', #458, 1000.000000000000000 ) ;
#34 = ORIENTED_EDGE ( 'NONE', *, *, #190, .T. ) ;
#35 = AXIS2_PLACEMENT_3D ( 'NONE', #358, #412, #52 ) ;
#36 = CC_DESIGN_DATE_AND_TIME_ASSIGNMENT ( #408, #532, ( #329 ) ) ;
#37 = EDGE_CURVE ( 'NONE', #422, #431, #256, .T. ) ;
#38 = CARTESIAN_POINT ( 'NONE',  ( 1.587500000000000355, 0.8513200635100126590, -24.44137755531811251 ) ) ;
#39 = ORIENTED_EDGE ( 'NONE', *, *, #522, .T. ) ;
#40 = DIRECTION ( 'NONE',  ( -0.000000000000000000, -0.000000000000000000, 1.000000000000000000 ) ) ;
#41 = EDGE_LOOP ( 'NONE', ( #368, #29 ) ) ;
#42 = CARTESIAN_POINT ( 'NONE',  ( -1.268411506570323866, -1.587500000000000355, -24.35991914209797926 ) ) ;
#43 = CARTESIAN_POINT ( 'NONE',  ( 0.8486262390323829896, 1.587500000000000577, -24.44176882282394203 ) ) ;
#44 = CARTESIAN_POINT ( 'NONE',  ( -0.8571092511719565765, 1.587500000000000355, -24.46227379706277461 ) ) ;
#45 = DIRECTION ( 'NONE',  ( 0.000000000000000000, 0.000000000000000000, 1.000000000000000000 ) ) ;
#46 = DIRECTION ( 'NONE',  ( -0.000000000000000000, -0.000000000000000000, 1.000000000000000000 ) ) ;
#47 = ADVANCED_FACE ( 'NONE', ( #119 ), #83, .T. ) ;
#48 = CARTESIAN_POINT ( 'NONE',  ( -0.2043756380772877856, 1.587500000000000133, 24.48340961896379042 ) ) ;
#49 = APPROVAL ( #308, 'UNSPECIFIED' ) ;
#50 = PLANE ( 'NONE',  #273 ) ;
#51 = APPROVAL_ROLE ( '' ) ;
#52 = DIRECTION ( 'NONE',  ( 1.000000000000000000, 0.000000000000000000, 0.000000000000000000 ) ) ;
#53 = PLANE ( 'NONE',  #556 ) ;
#54 = EDGE_CURVE ( 'NONE', #25, #551, #224, .T. ) ;
#55 = AXIS2_PLACEMENT_3D ( 'NONE', #191, #538, #70 ) ;
#56 = CARTESIAN_POINT ( 'NONE',  ( -1.268411506570323866, 1.587500000000000355, -24.51099999999999923 ) ) ;
#57 = CIRCLE ( 'NONE', #377, 2.032000000000000028 ) ;
#58 = CARTESIAN_POINT ( 'NONE',  ( -1.587500000000000355, -1.944126793646423534E-16, 24.48322736169286173 ) ) ;
#59 = ORIENTED_EDGE ( 'NONE', *, *, #185, .T. ) ;
#60 = EDGE_CURVE ( 'NONE', #469, #80, #350, .T. ) ;
#61 = CYLINDRICAL_SURFACE ( 'NONE', #297, 2.032000000000000028 ) ;
#62 = APPROVAL_PERSON_ORGANIZATION ( #305, #302, #484 ) ;
#63 = CARTESIAN_POINT ( 'NONE',  ( 0.000000000000000000, 0.000000000000000000, -24.51099999999999923 ) ) ;
#64 = CARTESIAN_POINT ( 'NONE',  ( 1.587500000000000355, 1.061392899157111103, -24.41143677385165844 ) ) ;
#65 = ORIENTED_EDGE ( 'NONE', *, *, #342, .F. ) ;
#66 = DIRECTION ( 'NONE',  ( -0.000000000000000000, -0.000000000000000000, 1.000000000000000000 ) ) ;
#67 = CARTESIAN_POINT ( 'NONE',  ( -1.587500000000000577, 0.8514389605504941727, -24.44136751577920208 ) ) ;
#68 = EDGE_CURVE ( 'NONE', #318, #231, #2, .T. ) ;
#69 = ORIENTED_EDGE ( 'NONE', *, *, #190, .F. ) ;
#70 = DIRECTION ( 'NONE',  ( 0.000000000000000000, -0.000000000000000000, -1.000000000000000000 ) ) ;
#71 = CARTESIAN_POINT ( 'NONE',  ( -1.060147506033617404, 1.587500000000000133, 24.41174669625517524 ) ) ;
#72 = ORIENTED_EDGE ( 'NONE', *, *, #473, .F. ) ;
#73 = APPROVAL_PERSON_ORGANIZATION ( #235, #213, #51 ) ;
#74 = PLANE ( 'NONE',  #396 ) ;
#75 = VERTEX_POINT ( 'NONE', #198 ) ;
#76 = CLOSED_SHELL ( 'NONE', ( #47, #395, #355, #11, #251, #452, #21, #114, #385, #205, #490, #348, #448, #417 ) ) ;
#77 = CIRCLE ( 'NONE', #427, 2.124999999999998224 ) ;
#78 = CYLINDRICAL_SURFACE ( 'NONE', #244, 2.032000000000000028 ) ;
#79 = CARTESIAN_POINT ( 'NONE',  ( 0.000000000000000000, 0.000000000000000000, 24.35991914209797926 ) ) ;
#80 = VERTEX_POINT ( 'NONE', #373 ) ;
#81 = DIRECTION ( 'NONE',  ( 1.000000000000000000, 0.000000000000000000, 0.000000000000000000 ) ) ;
#82 = CARTESIAN_POINT ( 'NONE',  ( 0.000000000000000000, 0.000000000000000000, 24.51099999999999923 ) ) ;
#83 = TOROIDAL_SURFACE ( 'NONE', #182, 1.245064030267288402, 2.124999999999998224 ) ;
#84 = CARTESIAN_POINT ( 'NONE',  ( -1.587500000000000355, -1.268411506570323866, 24.35991914209797926 ) ) ;
#85 = CARTESIAN_POINT ( 'NONE',  ( 0.2043756380772877856, 1.587500000000000133, -24.48340961896379042 ) ) ;
#86 = PRODUCT_RELATED_PRODUCT_CATEGORY ( 'detail', '', ( #391 ) ) ;
#87 = DIRECTION ( 'NONE',  ( 0.000000000000000000, 0.000000000000000000, -1.000000000000000000 ) ) ;
#88 = VECTOR ( 'NONE', #66, 1000.000000000000000 ) ;
#89 = DIRECTION ( 'NONE',  ( -0.000000000000000000, -0.000000000000000000, 1.000000000000000000 ) ) ;
#90 = CALENDAR_DATE ( 2022, 6, 6 ) ;
#91 = DIRECTION ( 'NONE',  ( 1.000000000000000000, 0.000000000000000000, 0.000000000000000000 ) ) ;
#92 = PERSON_AND_ORGANIZATION ( #100, #312 ) ;
#93 = CARTESIAN_POINT ( 'NONE',  ( -1.587500000000000355, 1.268411506570323866, -24.51099999999999923 ) ) ;
#94 = ADVANCED_BREP_SHAPE_REPRESENTATION ( '228-2500-076', ( #266, #10 ), #489 ) ;
#95 = AXIS2_PLACEMENT_3D ( 'NONE', #131, #365, #363 ) ;
#96 = CARTESIAN_POINT ( 'NONE',  ( 0.000000000000000000, 0.000000000000000000, -24.51099999999999923 ) ) ;
#97 = VECTOR ( 'NONE', #559, 1000.000000000000000 ) ;
#98 = DIRECTION ( 'NONE',  ( -0.000000000000000000, -0.000000000000000000, 1.000000000000000000 ) ) ;
#99 = ORIENTED_EDGE ( 'NONE', *, *, #242, .F. ) ;
#100 = PERSON ( 'UNSPECIFIED', 'UNSPECIFIED', 'UNSPECIFIED', ('UNSPECIFIED'), ('UNSPECIFIED'), ('UNSPECIFIED') ) ;
#101 = CARTESIAN_POINT ( 'NONE',  ( 1.587500000000000355, 0.4276219574846464311, 24.47699639200008548 ) ) ;
#102 = ORIENTED_EDGE ( 'NONE', *, *, #261, .T. ) ;
#103 = ORIENTED_EDGE ( 'NONE', *, *, #211, .F. ) ;
#104 = DATE_AND_TIME ( #90, #481 ) ;
#105 = EDGE_CURVE ( 'NONE', #414, #318, #260, .T. ) ;
#106 = FACE_OUTER_BOUND ( 'NONE', #419, .T. ) ;
#107 = EDGE_CURVE ( 'NONE', #231, #113, #216, .T. ) ;
#108 = ORIENTED_EDGE ( 'NONE', *, *, #68, .F. ) ;
#109 = AXIS2_PLACEMENT_3D ( 'NONE', #300, #1, #219 ) ;
#110 = ORIENTED_EDGE ( 'NONE', *, *, #60, .T. ) ;
#111 = CARTESIAN_POINT ( 'NONE',  ( 1.587500000000000355, 0.000000000000000000, 24.48322736169286173 ) ) ;
#112 = FACE_OUTER_BOUND ( 'NONE', #320, .T. ) ;
#113 = VERTEX_POINT ( 'NONE', #387 ) ;
#114 = ADVANCED_FACE ( 'NONE', ( #349 ), #407, .T. ) ;
#115 = CARTESIAN_POINT ( 'NONE',  ( 1.245064030267288402, 0.000000000000000000, 24.51099999999999923 ) ) ;
#116 = ORIENTED_EDGE ( 'NONE', *, *, #442, .F. ) ;
#117 = ORIENTED_EDGE ( 'NONE', *, *, #107, .F. ) ;
#118 = CARTESIAN_POINT ( 'NONE',  ( 1.587500000000000355, 0.2114796877013867260, 24.48322736169286173 ) ) ;
#119 = FACE_OUTER_BOUND ( 'NONE', #432, .T. ) ;
#120 = VERTEX_POINT ( 'NONE', #394 ) ;
#121 = CARTESIAN_POINT ( 'NONE',  ( 1.268411506570323866, -1.587500000000000355, 24.35991914209797926 ) ) ;
#122 = CARTESIAN_POINT ( 'NONE',  ( -1.587500000000000355, -1.268411506570323866, 24.35991914209797926 ) ) ;
#123 = CARTESIAN_POINT ( 'NONE',  ( -1.587500000000000355, 1.587500000000000355, 24.51099999999999923 ) ) ;
#124 = AXIS2_PLACEMENT_3D ( 'NONE', #361, #175, #531 ) ;
#125 = AXIS2_PLACEMENT_3D ( 'NONE', #221, #534, #402 ) ;
#126 = DIRECTION ( 'NONE',  ( -1.000000000000000000, 0.000000000000000000, 0.000000000000000000 ) ) ;
#127 = CARTESIAN_POINT ( 'NONE',  ( -1.587500000000000355, 1.944126793646423534E-16, -24.48322736169286173 ) ) ;
#128 = CARTESIAN_POINT ( 'NONE',  ( 1.268411506570323866, 1.587500000000000355, -24.35991914209797926 ) ) ;
#129 = B_SPLINE_CURVE_WITH_KNOTS ( 'NONE', 3,
 ( #42, #472, #215, #293, #343, #393, #470, #254 ),
 .UNSPECIFIED., .F., .F.,
 ( 4, 2, 2, 4 ),
 ( 0.01485345774306977458, 0.01548583974386943084, 0.01611822174466908883, 0.01738298574626840134 ),
 .UNSPECIFIED. ) ;
#130 = PRODUCT_DEFINITION_SHAPE ( 'NONE', 'NONE',  #329 ) ;
#131 = CARTESIAN_POINT ( 'NONE',  ( 0.000000000000000000, 0.000000000000000000, -22.38599999999999923 ) ) ;
#132 = EDGE_CURVE ( 'NONE', #334, #528, #466, .T. ) ;
#133 = CARTESIAN_POINT ( 'NONE',  ( -1.587500000000000355, 1.061392899157111769, 24.41143677385165844 ) ) ;
#134 = B_SPLINE_CURVE_WITH_KNOTS ( 'NONE', 3,
 ( #284, #369, #464, #415, #147, #323 ),
 .UNSPECIFIED., .F., .F.,
 ( 4, 2, 4 ),
 ( 1.905938025164285192E-19, 0.0006365870327257438632, 0.001273174065451487509 ),
 .UNSPECIFIED. ) ;
#135 = SECURITY_CLASSIFICATION_LEVEL ( 'unclassified' ) ;
#136 = PLANE ( 'NONE',  #272 ) ;
#137 = APPROVAL_DATE_TIME ( #264, #49 ) ;
#138 = LOCAL_TIME ( 13, 56, 30.00000000000000000, #174 ) ;
#139 = DIRECTION ( 'NONE',  ( -0.000000000000000000, -0.000000000000000000, 1.000000000000000000 ) ) ;
#140 = EDGE_CURVE ( 'NONE', #540, #75, #77, .T. ) ;
#141 = EDGE_CURVE ( 'NONE', #548, #250, #447, .T. ) ;
#142 = CARTESIAN_POINT ( 'NONE',  ( -1.587500000000000355, 1.268411506570324088, 24.35991914209797926 ) ) ;
#143 = VECTOR ( 'NONE', #46, 1000.000000000000000 ) ;
#144 = ORIENTED_EDGE ( 'NONE', *, *, #54, .F. ) ;
#145 = DIRECTION ( 'NONE',  ( 1.000000000000000000, 0.000000000000000000, 0.000000000000000000 ) ) ;
#146 = EDGE_CURVE ( 'NONE', #334, #318, #301, .T. ) ;
#147 = CARTESIAN_POINT ( 'NONE',  ( -1.587500000000000355, -1.061392899157111103, -24.41143677385165844 ) ) ;
#148 = ORIENTED_EDGE ( 'NONE', *, *, #389, .F. ) ;
#149 = SECURITY_CLASSIFICATION ( '', '', #135 ) ;
#150 = VERTEX_POINT ( 'NONE', #344 ) ;
#151 = CARTESIAN_POINT ( 'NONE',  ( 1.587500000000000133, 1.061532360077856119, 24.41140206829359016 ) ) ;
#152 = ORIENTED_EDGE ( 'NONE', *, *, #360, .T. ) ;
#153 = AXIS2_PLACEMENT_3D ( 'NONE', #173, #165, #351 ) ;
#154 = ORIENTED_EDGE ( 'NONE', *, *, #409, .F. ) ;
#155 = CARTESIAN_POINT ( 'NONE',  ( -1.587500000000000355, 1.268411506570323866, -24.35991914209797926 ) ) ;
#156 = ORIENTED_EDGE ( 'NONE', *, *, #409, .T. ) ;
#157 = ORIENTED_EDGE ( 'NONE', *, *, #140, .F. ) ;
#158 = CARTESIAN_POINT ( 'NONE',  ( -1.245064030267288402, 2.006622987633880502E-16, -24.51099999999999923 ) ) ;
#159 = CARTESIAN_POINT ( 'NONE',  ( 1.587500000000000355, 1.268411506570323866, -24.35991914209797926 ) ) ;
#160 = ORIENTED_EDGE ( 'NONE', *, *, #442, .T. ) ;
#161 = ORIENTED_EDGE ( 'NONE', *, *, #141, .F. ) ;
#162 = PERSON_AND_ORGANIZATION ( #100, #312 ) ;
#163 = CARTESIAN_POINT ( 'NONE',  ( -1.268411506570323866, 1.587500000000000355, 24.35991914209797926 ) ) ;
#164 = ORIENTED_EDGE ( 'NONE', *, *, #366, .T. ) ;
#165 = DIRECTION ( 'NONE',  ( 0.000000000000000000, 0.000000000000000000, -1.000000000000000000 ) ) ;
#166 = EDGE_CURVE ( 'NONE', #206, #431, #380, .T. ) ;
#167 = CARTESIAN_POINT ( 'NONE',  ( 1.587500000000000355, -1.268411506570324088, 24.35991914209797926 ) ) ;
#168 = CARTESIAN_POINT ( 'NONE',  ( 1.245064030267288402, 0.000000000000000000, 22.38599999999999923 ) ) ;
#169 = CARTESIAN_POINT ( 'NONE',  ( -1.587500000000000355, -0.2114796877013867260, 24.48322736169286173 ) ) ;
#170 = VECTOR ( 'NONE', #461, 1000.000000000000000 ) ;
#171 = VECTOR ( 'NONE', #89, 1000.000000000000000 ) ;
#172 =( NAMED_UNIT ( * ) PLANE_ANGLE_UNIT ( ) SI_UNIT ( $, .RADIAN. ) );
#173 = CARTESIAN_POINT ( 'NONE',  ( 0.000000000000000000, 0.000000000000000000, 24.35991914209797926 ) ) ;
#174 = COORDINATED_UNIVERSAL_TIME_OFFSET ( 6, 0, .BEHIND. ) ;
#175 = DIRECTION ( 'NONE',  ( -0.000000000000000000, -0.000000000000000000, 1.000000000000000000 ) ) ;
#176 = CALENDAR_DATE ( 2022, 6, 6 ) ;
#177 = CC_DESIGN_APPROVAL ( #49, ( #329 ) ) ;
#178 = CARTESIAN_POINT ( 'NONE',  ( 1.587500000000000133, -1.061532360077856119, -24.41140206829359016 ) ) ;
#179 = B_SPLINE_CURVE_WITH_KNOTS ( 'NONE', 3,
 ( #423, #541, #327, #503, #239, #200, #545, #332 ),
 .UNSPECIFIED., .F., .F.,
 ( 4, 2, 2, 4 ),
 ( 0.01485345774306977458, 0.01548583974386943084, 0.01611822174466908883, 0.01738298574626840134 ),
 .UNSPECIFIED. ) ;
#180 = CIRCLE ( 'NONE', #124, 1.245064030267288402 ) ;
#181 = DATE_AND_TIME ( #267, #269 ) ;
#182 = AXIS2_PLACEMENT_3D ( 'NONE', #279, #282, #233 ) ;
#183 = DIRECTION ( 'NONE',  ( 1.000000000000000000, 0.000000000000000000, 0.000000000000000000 ) ) ;
#184 = APPROVAL_STATUS ( 'not_yet_approved' ) ;
#185 = EDGE_CURVE ( 'NONE', #469, #551, #226, .T. ) ;
#186 = CARTESIAN_POINT ( 'NONE',  ( -1.587500000000000355, -1.268411506570323866, -24.35991914209797926 ) ) ;
#187 = DIRECTION ( 'NONE',  ( 0.000000000000000000, 0.000000000000000000, -1.000000000000000000 ) ) ;
#188 = ORIENTED_EDGE ( 'NONE', *, *, #105, .F. ) ;
#189 = CARTESIAN_POINT ( 'NONE',  ( -1.268411506570323866, -1.587500000000000355, -24.51099999999999923 ) ) ;
#190 = EDGE_CURVE ( 'NONE', #422, #540, #359, .T. ) ;
#191 = CARTESIAN_POINT ( 'NONE',  ( -1.587500000000000355, 1.587500000000000355, 24.51099999999999923 ) ) ;
#192 = EDGE_LOOP ( 'NONE', ( #505, #507, #148, #463 ) ) ;
#193 = VERTEX_POINT ( 'NONE', #255 ) ;
#194 = CC_DESIGN_PERSON_AND_ORGANIZATION_ASSIGNMENT ( #321, #352, ( #322 ) ) ;
#195 = PERSON_AND_ORGANIZATION_ROLE ( 'design_supplier' ) ;
#196 = APPLICATION_CONTEXT ( 'configuration controlled 3d designs of mechanical parts and assemblies' ) ;
#197 = CARTESIAN_POINT ( 'NONE',  ( -1.268411506570323866, -1.587500000000000355, -24.35991914209797926 ) ) ;
#198 = CARTESIAN_POINT ( 'NONE',  ( 1.587500000000000355, 0.000000000000000000, 24.48322736169286173 ) ) ;
#199 = ORIENTED_EDGE ( 'NONE', *, *, #37, .F. ) ;
#200 = CARTESIAN_POINT ( 'NONE',  ( -0.4342314039556041672, -1.587500000000000355, 24.48285171744313260 ) ) ;
#201 = DIRECTION ( 'NONE',  ( 1.000000000000000000, 0.000000000000000000, 0.000000000000000000 ) ) ;
#202 = CIRCLE ( 'NONE', #35, 1.245064030267288402 ) ;
#203 = ORIENTED_EDGE ( 'NONE', *, *, #530, .F. ) ;
#204 = LINE ( 'NONE', #278, #170 ) ;
#205 = ADVANCED_FACE ( 'NONE', ( #518 ), #50, .F. ) ;
#206 = VERTEX_POINT ( 'NONE', #84 ) ;
#207 = CARTESIAN_POINT ( 'NONE',  ( 0.000000000000000000, 0.000000000000000000, 0.000000000000000000 ) ) ;
#208 = CARTESIAN_POINT ( 'NONE',  ( -1.587500000000000355, 0.2114796877013867260, -24.48322736169286173 ) ) ;
#209 = ORIENTED_EDGE ( 'NONE', *, *, #400, .T. ) ;
#210 = CARTESIAN_POINT ( 'NONE',  ( -0.4342314039556041672, 1.587500000000000355, -24.48285171744313260 ) ) ;
#211 = EDGE_CURVE ( 'NONE', #150, #206, #57, .T. ) ;
#212 = CARTESIAN_POINT ( 'NONE',  ( 1.268411506570323866, 1.587500000000000355, -24.51099999999999923 ) ) ;
#213 = APPROVAL ( #184, 'UNSPECIFIED' ) ;
#214 = FACE_OUTER_BOUND ( 'NONE', #271, .T. ) ;
#215 = CARTESIAN_POINT ( 'NONE',  ( -0.8486262390323829896, -1.587500000000000577, -24.44176882282394203 ) ) ;
#216 = LINE ( 'NONE', #388, #97 ) ;
#217 = CIRCLE ( 'NONE', #536, 2.032000000000000028 ) ;
#218 = CALENDAR_DATE ( 2022, 6, 6 ) ;
#219 = DIRECTION ( 'NONE',  ( 0.000000000000000000, 0.000000000000000000, 1.000000000000000000 ) ) ;
#220 = PERSON_AND_ORGANIZATION ( #100, #312 ) ;
#221 = CARTESIAN_POINT ( 'NONE',  ( 1.245064030267288402, 0.000000000000000000, -22.38599999999999923 ) ) ;
#222 = DIRECTION ( 'NONE',  ( 1.000000000000000000, 0.000000000000000000, 0.000000000000000000 ) ) ;
#223 = APPLICATION_CONTEXT ( 'configuration controlled 3d designs of mechanical parts and assemblies' ) ;
#224 = B_SPLINE_CURVE_WITH_KNOTS ( 'NONE', 3,
 ( #155, #456, #67, #384, #208, #378 ),
 .UNSPECIFIED., .F., .F.,
 ( 4, 2, 4 ),
 ( 0.01485345774306977458, 0.01548163471194334562, 0.01610981168081691492 ),
 .UNSPECIFIED. ) ;
#225 = APPROVAL_DATE_TIME ( #401, #213 ) ;
#226 = CIRCLE ( 'NONE', #544, 2.124999999999998224 ) ;
#227 = FACE_OUTER_BOUND ( 'NONE', #468, .T. ) ;
#228 = CARTESIAN_POINT ( 'NONE',  ( 1.268411506570323866, 1.587500000000000355, -24.35991914209797926 ) ) ;
#229 = ORIENTED_EDGE ( 'NONE', *, *, #146, .T. ) ;
#230 = FACE_OUTER_BOUND ( 'NONE', #238, .T. ) ;
#231 = VERTEX_POINT ( 'NONE', #436 ) ;
#232 = PLANE ( 'NONE',  #55 ) ;
#233 = DIRECTION ( 'NONE',  ( 1.000000000000000000, 0.000000000000000000, 0.000000000000000000 ) ) ;
#234 = ORIENTED_EDGE ( 'NONE', *, *, #306, .F. ) ;
#235 = PERSON_AND_ORGANIZATION ( #100, #312 ) ;
#236 = LINE ( 'NONE', #420, #33 ) ;
#237 = DIRECTION ( 'NONE',  ( -0.000000000000000000, -0.000000000000000000, 1.000000000000000000 ) ) ;
#238 = EDGE_LOOP ( 'NONE', ( #253, #428, #367, #275 ) ) ;
#239 = CARTESIAN_POINT ( 'NONE',  ( 0.2043756380772877856, -1.587500000000000133, 24.48340961896379042 ) ) ;
#240 = CARTESIAN_POINT ( 'NONE',  ( -0.8486262390323829896, 1.587500000000000577, 24.44176882282394203 ) ) ;
#241 = ORIENTED_EDGE ( 'NONE', *, *, #366, .F. ) ;
#242 = EDGE_CURVE ( 'NONE', #120, #414, #217, .T. ) ;
#243 = DIRECTION ( 'NONE',  ( 1.000000000000000000, 0.000000000000000000, 0.000000000000000000 ) ) ;
#244 = AXIS2_PLACEMENT_3D ( 'NONE', #248, #281, #145 ) ;
#245 = CARTESIAN_POINT ( 'NONE',  ( -1.587500000000000355, 1.268411506570323866, -24.35991914209797926 ) ) ;
#246 = AXIS2_PLACEMENT_3D ( 'NONE', #291, #237, #467 ) ;
#247 = ORIENTED_EDGE ( 'NONE', *, *, #261, .F. ) ;
#248 = CARTESIAN_POINT ( 'NONE',  ( 0.000000000000000000, 0.000000000000000000, -24.51099999999999923 ) ) ;
#249 = EDGE_LOOP ( 'NONE', ( #553, #425, #339, #26 ) ) ;
#250 = VERTEX_POINT ( 'NONE', #121 ) ;
#251 = ADVANCED_FACE ( 'NONE', ( #214 ), #392, .F. ) ;
#252 = CARTESIAN_POINT ( 'NONE',  ( 0.4219230645619491682, 1.587500000000000577, -24.47730730355361928 ) ) ;
#253 = ORIENTED_EDGE ( 'NONE', *, *, #23, .T. ) ;
#254 = CARTESIAN_POINT ( 'NONE',  ( 1.268411506570323866, -1.587500000000000355, -24.35991914209797926 ) ) ;
#255 = CARTESIAN_POINT ( 'NONE',  ( 1.268411506570323866, -1.587500000000000355, -24.35991914209797926 ) ) ;
#256 = CIRCLE ( 'NONE', #476, 2.124999999999998224 ) ;
#257 = DIRECTION ( 'NONE',  ( 1.000000000000000000, 0.000000000000000000, 0.000000000000000000 ) ) ;
#258 = DIRECTION ( 'NONE',  ( -1.000000000000000000, 0.000000000000000000, 0.000000000000000000 ) ) ;
#259 = CARTESIAN_POINT ( 'NONE',  ( 0.4342314039556041672, 1.587500000000000355, 24.48285171744313260 ) ) ;
#260 = B_SPLINE_CURVE_WITH_KNOTS ( 'NONE', 3,
 ( #163, #71, #240, #333, #48, #259, #516, #471 ),
 .UNSPECIFIED., .F., .F.,
 ( 4, 2, 2, 4 ),
 ( 0.01485345774306977458, 0.01548583974386943084, 0.01611822174466908883, 0.01738298574626840134 ),
 .UNSPECIFIED. ) ;
#261 = EDGE_CURVE ( 'NONE', #80, #543, #519, .T. ) ;
#262 = COORDINATED_UNIVERSAL_TIME_OFFSET ( 6, 0, .BEHIND. ) ;
#263 = DIRECTION ( 'NONE',  ( 0.000000000000000000, 0.000000000000000000, -1.000000000000000000 ) ) ;
#264 = DATE_AND_TIME ( #218, #404 ) ;
#265 = FACE_OUTER_BOUND ( 'NONE', #41, .T. ) ;
#266 = MANIFOLD_SOLID_BREP ( '228-2500-076', #76 ) ;
#267 = CALENDAR_DATE ( 2022, 6, 6 ) ;
#268 = CARTESIAN_POINT ( 'NONE',  ( -1.587500000000000133, 0.2143109880596212047, 24.48322736169285818 ) ) ;
#269 = LOCAL_TIME ( 13, 56, 30.00000000000000000, #523 ) ;
#270 = DIRECTION ( 'NONE',  ( -1.000000000000000000, 0.000000000000000000, -0.000000000000000000 ) ) ;
#271 = EDGE_LOOP ( 'NONE', ( #501, #324, #511, #117, #311, #160 ) ) ;
#272 = AXIS2_PLACEMENT_3D ( 'NONE', #310, #317, #270 ) ;
#273 = AXIS2_PLACEMENT_3D ( 'NONE', #123, #296, #477 ) ;
#274 = DIRECTION ( 'NONE',  ( 0.000000000000000000, 0.000000000000000000, -1.000000000000000000 ) ) ;
#275 = ORIENTED_EDGE ( 'NONE', *, *, #389, .T. ) ;
#276 = DIRECTION ( 'NONE',  ( 1.000000000000000000, 0.000000000000000000, 0.000000000000000000 ) ) ;
#277 = ORIENTED_EDGE ( 'NONE', *, *, #37, .T. ) ;
#278 = CARTESIAN_POINT ( 'NONE',  ( 1.587500000000000355, -1.268411506570323866, -24.51099999999999923 ) ) ;
#279 = CARTESIAN_POINT ( 'NONE',  ( 0.000000000000000000, 0.000000000000000000, 22.38599999999999923 ) ) ;
#280 = ORIENTED_EDGE ( 'NONE', *, *, #166, .F. ) ;
#281 = DIRECTION ( 'NONE',  ( -0.000000000000000000, -0.000000000000000000, 1.000000000000000000 ) ) ;
#282 = DIRECTION ( 'NONE',  ( 0.000000000000000000, 0.000000000000000000, -1.000000000000000000 ) ) ;
#283 = ORIENTED_EDGE ( 'NONE', *, *, #482, .T. ) ;
#284 = CARTESIAN_POINT ( 'NONE',  ( -1.587500000000000355, 1.944126793646423534E-16, -24.48322736169286173 ) ) ;
#285 = DIRECTION ( 'NONE',  ( 0.000000000000000000, 0.000000000000000000, -1.000000000000000000 ) ) ;
#286 = VERTEX_POINT ( 'NONE', #186 ) ;
#287 = CYLINDRICAL_SURFACE ( 'NONE', #375, 2.032000000000000028 ) ;
#288 = CARTESIAN_POINT ( 'NONE',  ( 0.000000000000000000, 0.000000000000000000, -22.38599999999999923 ) ) ;
#289 = EDGE_LOOP ( 'NONE', ( #152, #457, #386, #39 ) ) ;
#290 = CARTESIAN_POINT ( 'NONE',  ( 1.587500000000000355, 0.000000000000000000, 24.48322736169286173 ) ) ;
#291 = CARTESIAN_POINT ( 'NONE',  ( 0.000000000000000000, 0.000000000000000000, -24.51099999999999923 ) ) ;
#292 = EDGE_CURVE ( 'NONE', #80, #469, #202, .T. ) ;
#293 = CARTESIAN_POINT ( 'NONE',  ( -0.4219230645619491682, -1.587500000000000577, -24.47730730355361928 ) ) ;
#294 = DIRECTION ( 'NONE',  ( -0.000000000000000000, -0.000000000000000000, 1.000000000000000000 ) ) ;
#295 = CARTESIAN_POINT ( 'NONE',  ( -1.587500000000000133, -1.061532360077856119, 24.41140206829359016 ) ) ;
#296 = DIRECTION ( 'NONE',  ( 0.000000000000000000, 0.000000000000000000, -1.000000000000000000 ) ) ;
#297 = AXIS2_PLACEMENT_3D ( 'NONE', #353, #524, #426 ) ;
#298 = AXIS2_PLACEMENT_3D ( 'NONE', #82, #294, #521 ) ;
#299 = CARTESIAN_POINT ( 'NONE',  ( 1.587500000000000355, 0.000000000000000000, -24.48322736169286173 ) ) ;
#300 = CARTESIAN_POINT ( 'NONE',  ( 1.587500000000000355, -1.587500000000000355, 24.51099999999999923 ) ) ;
#301 = LINE ( 'NONE', #212, #143 ) ;
#302 = APPROVAL ( #525, 'UNSPECIFIED' ) ;
#303 = CARTESIAN_POINT ( 'NONE',  ( 1.268411506570324088, 1.587500000000000355, 24.35991914209797926 ) ) ;
#304 = TOROIDAL_SURFACE ( 'NONE', #95, 1.245064030267288402, 2.124999999999998224 ) ;
#305 = PERSON_AND_ORGANIZATION ( #100, #312 ) ;
#306 = EDGE_CURVE ( 'NONE', #25, #120, #9, .T. ) ;
#307 = FACE_OUTER_BOUND ( 'NONE', #371, .T. ) ;
#308 = APPROVAL_STATUS ( 'not_yet_approved' ) ;
#309 = CC_DESIGN_PERSON_AND_ORGANIZATION_ASSIGNMENT ( #220, #398, ( #329 ) ) ;
#310 = CARTESIAN_POINT ( 'NONE',  ( -1.587500000000000355, 1.587500000000000355, -24.51099999999999923 ) ) ;
#311 = ORIENTED_EDGE ( 'NONE', *, *, #473, .T. ) ;
#312 = ORGANIZATION ( 'UNSPECIFIED', 'UNSPECIFIED', '' ) ;
#313 = DIRECTION ( 'NONE',  ( -0.000000000000000000, -0.000000000000000000, 1.000000000000000000 ) ) ;
#314 = EDGE_CURVE ( 'NONE', #495, #543, #15, .T. ) ;
#315 = AXIS2_PLACEMENT_3D ( 'NONE', #96, #139, #91 ) ;
#316 = AXIS2_PLACEMENT_3D ( 'NONE', #288, #40, #539 ) ;
#317 = DIRECTION ( 'NONE',  ( 0.000000000000000000, 0.000000000000000000, -1.000000000000000000 ) ) ;
#318 = VERTEX_POINT ( 'NONE', #303 ) ;
#319 = CARTESIAN_POINT ( 'NONE',  ( 1.587500000000000355, -1.268411506570324088, 24.35991914209797926 ) ) ;
#320 = EDGE_LOOP ( 'NONE', ( #554, #110, #102, #492, #154, #416, #537, #338 ) ) ;
#321 = PERSON_AND_ORGANIZATION ( #100, #312 ) ;
#322 = PRODUCT_DEFINITION_FORMATION_WITH_SPECIFIED_SOURCE ( 'ANY', '', #391, .NOT_KNOWN. ) ;
#323 = CARTESIAN_POINT ( 'NONE',  ( -1.587500000000000355, -1.268411506570323866, -24.35991914209797926 ) ) ;
#324 = ORIENTED_EDGE ( 'NONE', *, *, #314, .T. ) ;
#325 = EDGE_LOOP ( 'NONE', ( #234, #508, #283, #535, #32, #421 ) ) ;
#326 = AXIS2_PLACEMENT_3D ( 'NONE', #17, #313, #449 ) ;
#327 = CARTESIAN_POINT ( 'NONE',  ( 0.8486262390323829896, -1.587500000000000577, 24.44176882282394203 ) ) ;
#328 = AXIS2_PLACEMENT_3D ( 'NONE', #341, #433, #81 ) ;
#329 = PRODUCT_DEFINITION ( 'UNKNOWN', '', #322, #335 ) ;
#330 = CARTESIAN_POINT ( 'NONE',  ( -1.587500000000000355, -1.587500000000000355, 24.51099999999999923 ) ) ;
#331 = ORIENTED_EDGE ( 'NONE', *, *, #23, .F. ) ;
#332 = CARTESIAN_POINT ( 'NONE',  ( -1.268411506570324088, -1.587500000000000355, 24.35991914209797926 ) ) ;
#333 = CARTESIAN_POINT ( 'NONE',  ( -0.4219230645619491682, 1.587500000000000577, 24.47730730355361928 ) ) ;
#334 = VERTEX_POINT ( 'NONE', #228 ) ;
#335 = DESIGN_CONTEXT ( 'detailed design', #223, 'design' ) ;
#336 = CARTESIAN_POINT ( 'NONE',  ( 1.587500000000000355, -0.2143109880596213435, 24.48322736169286173 ) ) ;
#337 = DIRECTION ( 'NONE',  ( -0.000000000000000000, -0.000000000000000000, 1.000000000000000000 ) ) ;
#338 = ORIENTED_EDGE ( 'NONE', *, *, #482, .F. ) ;
#339 = ORIENTED_EDGE ( 'NONE', *, *, #555, .F. ) ;
#340 = PERSON_AND_ORGANIZATION_ROLE ( 'design_owner' ) ;
#341 = CARTESIAN_POINT ( 'NONE',  ( 0.000000000000000000, 0.000000000000000000, 22.38599999999999923 ) ) ;
#342 = EDGE_CURVE ( 'NONE', #431, #120, #22, .T. ) ;
#343 = CARTESIAN_POINT ( 'NONE',  ( -0.2043756380772877856, -1.587500000000000133, -24.48340961896379042 ) ) ;
#344 = CARTESIAN_POINT ( 'NONE',  ( -1.268411506570324088, -1.587500000000000355, 24.35991914209797926 ) ) ;
#345 = LINE ( 'NONE', #515, #413 ) ;
#346 = CARTESIAN_POINT ( 'NONE',  ( -1.587500000000000577, -0.8514389605504941727, 24.44136751577920208 ) ) ;
#347 = APPLICATION_PROTOCOL_DEFINITION ( 'international standard', 'config_control_design', 1994, #196 ) ;
#348 = ADVANCED_FACE ( 'NONE', ( #307 ), #485, .T. ) ;
#349 = FACE_OUTER_BOUND ( 'NONE', #374, .T. ) ;
#350 = CIRCLE ( 'NONE', #246, 1.245064030267288402 ) ;
#351 = DIRECTION ( 'NONE',  ( -1.000000000000000000, 0.000000000000000000, 0.000000000000000000 ) ) ;
#352 = PERSON_AND_ORGANIZATION_ROLE ( 'creator' ) ;
#353 = CARTESIAN_POINT ( 'NONE',  ( 0.000000000000000000, 0.000000000000000000, -24.51099999999999923 ) ) ;
#354 = B_SPLINE_CURVE_WITH_KNOTS ( 'NONE', 3,
 ( #111, #336, #31, #451, #549, #319 ),
 .UNSPECIFIED., .F., .F.,
 ( 4, 2, 4 ),
 ( 0.000000000000000000, 0.0006365870327257439716, 0.001273174065451487726 ),
 .UNSPECIFIED. ) ;
#355 = ADVANCED_FACE ( 'NONE', ( #444 ), #53, .F. ) ;
#356 = CC_DESIGN_SECURITY_CLASSIFICATION ( #149, ( #322 ) ) ;
#357 = COORDINATED_UNIVERSAL_TIME_OFFSET ( 6, 0, .BEHIND. ) ;
#358 = CARTESIAN_POINT ( 'NONE',  ( 0.000000000000000000, 0.000000000000000000, -24.51099999999999923 ) ) ;
#359 = CIRCLE ( 'NONE', #298, 1.245064030267288402 ) ;
#360 = EDGE_CURVE ( 'NONE', #286, #494, #434, .T. ) ;
#361 = CARTESIAN_POINT ( 'NONE',  ( 0.000000000000000000, 0.000000000000000000, 24.51099999999999923 ) ) ;
#362 = ORIENTED_EDGE ( 'NONE', *, *, #140, .T. ) ;
#363 = DIRECTION ( 'NONE',  ( 1.000000000000000000, 0.000000000000000000, 0.000000000000000000 ) ) ;
#364 = APPROVAL_PERSON_ORGANIZATION ( #92, #49, #438 ) ;
#365 = DIRECTION ( 'NONE',  ( -0.000000000000000000, -0.000000000000000000, 1.000000000000000000 ) ) ;
#366 = EDGE_CURVE ( 'NONE', #540, #422, #180, .T. ) ;
#367 = ORIENTED_EDGE ( 'NONE', *, *, #242, .T. ) ;
#368 = ORIENTED_EDGE ( 'NONE', *, *, #292, .F. ) ;
#369 = CARTESIAN_POINT ( 'NONE',  ( -1.587500000000000133, -0.2143109880596211492, -24.48322736169285818 ) ) ;
#370 = DIRECTION ( 'NONE',  ( 0.000000000000000000, 1.000000000000000000, 0.000000000000000000 ) ) ;
#371 = EDGE_LOOP ( 'NONE', ( #156, #460, #550, #454 ) ) ;
#372 = SHAPE_DEFINITION_REPRESENTATION ( #130, #94 ) ;
#373 = CARTESIAN_POINT ( 'NONE',  ( 1.245064030267288402, 0.000000000000000000, -24.51099999999999923 ) ) ;
#374 = EDGE_LOOP ( 'NONE', ( #199, #241, #362, #72, #108, #188, #99, #65 ) ) ;
#375 = AXIS2_PLACEMENT_3D ( 'NONE', #63, #498, #243 ) ;
#376 = CARTESIAN_POINT ( 'NONE',  ( -1.268411506570323866, 1.587500000000000355, -24.35991914209797926 ) ) ;
#377 = AXIS2_PLACEMENT_3D ( 'NONE', #478, #87, #258 ) ;
#378 = CARTESIAN_POINT ( 'NONE',  ( -1.587500000000000355, 1.944126793646423534E-16, -24.48322736169286173 ) ) ;
#379 = ORIENTED_EDGE ( 'NONE', *, *, #132, .F. ) ;
#380 = B_SPLINE_CURVE_WITH_KNOTS ( 'NONE', 3,
 ( #122, #295, #346, #513, #169, #399 ),
 .UNSPECIFIED., .F., .F.,
 ( 4, 2, 4 ),
 ( 0.01485345774306977458, 0.01548163471194334562, 0.01610981168081691492 ),
 .UNSPECIFIED. ) ;
#381 = CARTESIAN_POINT ( 'NONE',  ( -1.245064030267288402, -2.006622987633880502E-16, 24.51099999999999923 ) ) ;
#382 = CARTESIAN_POINT ( 'NONE',  ( 1.587500000000000133, 0.2143109880596212047, -24.48322736169285818 ) ) ;
#383 = ORIENTED_EDGE ( 'NONE', *, *, #292, .T. ) ;
#384 = CARTESIAN_POINT ( 'NONE',  ( -1.587500000000000355, 0.4276219574846464311, -24.47699639200008548 ) ) ;
#385 = ADVANCED_FACE ( 'NONE', ( #265 ), #136, .T. ) ;
#386 = ORIENTED_EDGE ( 'NONE', *, *, #211, .T. ) ;
#387 = CARTESIAN_POINT ( 'NONE',  ( 1.587500000000000355, 1.268411506570323866, -24.35991914209797926 ) ) ;
#388 = CARTESIAN_POINT ( 'NONE',  ( 1.587500000000000355, 1.268411506570323866, -24.51099999999999923 ) ) ;
#389 = EDGE_CURVE ( 'NONE', #414, #528, #445, .T. ) ;
#390 =( NAMED_UNIT ( * ) SI_UNIT ( $, .STERADIAN. ) SOLID_ANGLE_UNIT ( ) );
#391 = PRODUCT ( '228-2500-076', '228-2500-076', '', ( #479 ) ) ;
#392 = PLANE ( 'NONE',  #109 ) ;
#393 = CARTESIAN_POINT ( 'NONE',  ( 0.4342314039556041672, -1.587500000000000355, -24.48285171744313260 ) ) ;
#394 = CARTESIAN_POINT ( 'NONE',  ( -1.587500000000000355, 1.268411506570324088, 24.35991914209797926 ) ) ;
#395 = ADVANCED_FACE ( 'NONE', ( #227 ), #304, .T. ) ;
#396 = AXIS2_PLACEMENT_3D ( 'NONE', #330, #370, #504 ) ;
#397 = AXIS2_PLACEMENT_3D ( 'NONE', #510, #337, #201 ) ;
#398 = PERSON_AND_ORGANIZATION_ROLE ( 'creator' ) ;
#399 = CARTESIAN_POINT ( 'NONE',  ( -1.587500000000000355, -1.944126793646423534E-16, 24.48322736169286173 ) ) ;
#400 = EDGE_CURVE ( 'NONE', #113, #334, #500, .T. ) ;
#401 = DATE_AND_TIME ( #176, #138 ) ;
#402 = DIRECTION ( 'NONE',  ( 0.000000000000000000, 0.000000000000000000, -1.000000000000000000 ) ) ;
#403 = EDGE_LOOP ( 'NONE', ( #164, #34 ) ) ;
#404 = LOCAL_TIME ( 13, 56, 30.00000000000000000, #5 ) ;
#405 = CARTESIAN_POINT ( 'NONE',  ( 1.587500000000000355, -0.2114796877013867260, -24.48322736169286173 ) ) ;
#406 = ORIENTED_EDGE ( 'NONE', *, *, #3, .F. ) ;
#407 = TOROIDAL_SURFACE ( 'NONE', #328, 1.245064030267288402, 2.124999999999998224 ) ;
#408 = DATE_AND_TIME ( #529, #561 ) ;
#409 = EDGE_CURVE ( 'NONE', #193, #495, #446, .T. ) ;
#410 = CARTESIAN_POINT ( 'NONE',  ( 1.587500000000000355, -1.268411506570323866, -24.35991914209797926 ) ) ;
#411 = CC_DESIGN_APPROVAL ( #213, ( #322 ) ) ;
#412 = DIRECTION ( 'NONE',  ( -0.000000000000000000, -0.000000000000000000, 1.000000000000000000 ) ) ;
#413 = VECTOR ( 'NONE', #552, 1000.000000000000000 ) ;
#414 = VERTEX_POINT ( 'NONE', #450 ) ;
#415 = CARTESIAN_POINT ( 'NONE',  ( -1.587500000000000355, -0.8513200635100127700, -24.44137755531811251 ) ) ;
#416 = ORIENTED_EDGE ( 'NONE', *, *, #546, .F. ) ;
#417 = ADVANCED_FACE ( 'NONE', ( #230 ), #61, .T. ) ;
#418 = EDGE_CURVE ( 'NONE', #495, #548, #204, .T. ) ;
#419 = EDGE_LOOP ( 'NONE', ( #209, #229, #542, #429 ) ) ;
#420 = CARTESIAN_POINT ( 'NONE',  ( -1.587500000000000355, -1.268411506570323866, -24.51099999999999923 ) ) ;
#421 = ORIENTED_EDGE ( 'NONE', *, *, #342, .T. ) ;
#422 = VERTEX_POINT ( 'NONE', #381 ) ;
#423 = CARTESIAN_POINT ( 'NONE',  ( 1.268411506570323866, -1.587500000000000355, 24.35991914209797926 ) ) ;
#424 = CARTESIAN_POINT ( 'NONE',  ( 1.587500000000000577, 0.4277385810629847906, -24.47698654358310932 ) ) ;
#425 = ORIENTED_EDGE ( 'NONE', *, *, #546, .T. ) ;
#426 = DIRECTION ( 'NONE',  ( 1.000000000000000000, 0.000000000000000000, 0.000000000000000000 ) ) ;
#427 = AXIS2_PLACEMENT_3D ( 'NONE', #168, #439, #437 ) ;
#428 = ORIENTED_EDGE ( 'NONE', *, *, #306, .T. ) ;
#429 = ORIENTED_EDGE ( 'NONE', *, *, #107, .T. ) ;
#430 = DIRECTION ( 'NONE',  ( -1.000000000000000000, 0.000000000000000000, 0.000000000000000000 ) ) ;
#431 = VERTEX_POINT ( 'NONE', #28 ) ;
#432 = EDGE_LOOP ( 'NONE', ( #69, #277, #280, #103, #203, #161, #116, #157 ) ) ;
#433 = DIRECTION ( 'NONE',  ( 0.000000000000000000, 0.000000000000000000, -1.000000000000000000 ) ) ;
#434 = CIRCLE ( 'NONE', #526, 2.032000000000000028 ) ;
#435 = CC_DESIGN_PERSON_AND_ORGANIZATION_ASSIGNMENT ( #162, #340, ( #391 ) ) ;
#436 = CARTESIAN_POINT ( 'NONE',  ( 1.587500000000000355, 1.268411506570323866, 24.35991914209797926 ) ) ;
#437 = DIRECTION ( 'NONE',  ( 0.000000000000000000, 0.000000000000000000, 1.000000000000000000 ) ) ;
#438 = APPROVAL_ROLE ( '' ) ;
#439 = DIRECTION ( 'NONE',  ( -0.000000000000000000, 1.000000000000000000, 0.000000000000000000 ) ) ;
#440 = B_SPLINE_CURVE_WITH_KNOTS ( 'NONE', 3,
 ( #453, #382, #424, #38, #64, #159 ),
 .UNSPECIFIED., .F., .F.,
 ( 4, 2, 4 ),
 ( 0.000000000000000000, 0.0006365870327257437547, 0.001273174065451487509 ),
 .UNSPECIFIED. ) ;
#441 = APPLICATION_PROTOCOL_DEFINITION ( 'international standard', 'config_control_design', 1994, #223 ) ;
#442 = EDGE_CURVE ( 'NONE', #75, #548, #354, .T. ) ;
#443 = CARTESIAN_POINT ( 'NONE',  ( 0.000000000000000000, 0.000000000000000000, -24.35991914209797926 ) ) ;
#444 = FACE_OUTER_BOUND ( 'NONE', #325, .T. ) ;
#445 = LINE ( 'NONE', #56, #488 ) ;
#446 = CIRCLE ( 'NONE', #475, 2.032000000000000028 ) ;
#447 = CIRCLE ( 'NONE', #153, 2.032000000000000028 ) ;
#448 = ADVANCED_FACE ( 'NONE', ( #106 ), #287, .T. ) ;
#449 = DIRECTION ( 'NONE',  ( 1.000000000000000000, 0.000000000000000000, 0.000000000000000000 ) ) ;
#450 = CARTESIAN_POINT ( 'NONE',  ( -1.268411506570323866, 1.587500000000000355, 24.35991914209797926 ) ) ;
#451 = CARTESIAN_POINT ( 'NONE',  ( 1.587500000000000355, -0.8513200635100129920, 24.44137755531811962 ) ) ;
#452 = ADVANCED_FACE ( 'NONE', ( #506 ), #232, .F. ) ;
#453 = CARTESIAN_POINT ( 'NONE',  ( 1.587500000000000355, 0.000000000000000000, -24.48322736169286173 ) ) ;
#454 = ORIENTED_EDGE ( 'NONE', *, *, #555, .T. ) ;
#455 = LINE ( 'NONE', #189, #88 ) ;
#456 = CARTESIAN_POINT ( 'NONE',  ( -1.587500000000000133, 1.061532360077856119, -24.41140206829359016 ) ) ;
#457 = ORIENTED_EDGE ( 'NONE', *, *, #514, .T. ) ;
#458 = DIRECTION ( 'NONE',  ( 0.000000000000000000, 0.000000000000000000, -1.000000000000000000 ) ) ;
#459 = DIRECTION ( 'NONE',  ( 1.000000000000000000, 1.224646799147353454E-16, 0.000000000000000000 ) ) ;
#460 = ORIENTED_EDGE ( 'NONE', *, *, #418, .T. ) ;
#461 = DIRECTION ( 'NONE',  ( -0.000000000000000000, -0.000000000000000000, 1.000000000000000000 ) ) ;
#462 = FACE_OUTER_BOUND ( 'NONE', #249, .T. ) ;
#463 = ORIENTED_EDGE ( 'NONE', *, *, #105, .T. ) ;
#464 = CARTESIAN_POINT ( 'NONE',  ( -1.587500000000000577, -0.4277385810629850682, -24.47698654358310932 ) ) ;
#465 = AXIS2_PLACEMENT_3D ( 'NONE', #79, #285, #430 ) ;
#466 = B_SPLINE_CURVE_WITH_KNOTS ( 'NONE', 3,
 ( #128, #558, #43, #252, #85, #210, #44, #4 ),
 .UNSPECIFIED., .F., .F.,
 ( 4, 2, 2, 4 ),
 ( 0.01485345774306977458, 0.01548583974386943084, 0.01611822174466908883, 0.01738298574626840134 ),
 .UNSPECIFIED. ) ;
#467 = DIRECTION ( 'NONE',  ( 1.000000000000000000, 0.000000000000000000, 0.000000000000000000 ) ) ;
#468 = EDGE_LOOP ( 'NONE', ( #383, #59, #144, #331, #379, #19, #406, #247 ) ) ;
#469 = VERTEX_POINT ( 'NONE', #158 ) ;
#470 = CARTESIAN_POINT ( 'NONE',  ( 0.8571092511719565765, -1.587500000000000355, -24.46227379706277461 ) ) ;
#471 = CARTESIAN_POINT ( 'NONE',  ( 1.268411506570324088, 1.587500000000000355, 24.35991914209797926 ) ) ;
#472 = CARTESIAN_POINT ( 'NONE',  ( -1.060147506033617404, -1.587500000000000133, -24.41174669625517524 ) ) ;
#473 = EDGE_CURVE ( 'NONE', #231, #75, #557, .T. ) ;
#474 = DIRECTION ( 'NONE',  ( -1.000000000000000000, 1.224646799147353454E-16, 0.000000000000000000 ) ) ;
#475 = AXIS2_PLACEMENT_3D ( 'NONE', #491, #98, #276 ) ;
#476 = AXIS2_PLACEMENT_3D ( 'NONE', #547, #499, #459 ) ;
#477 = DIRECTION ( 'NONE',  ( -1.000000000000000000, 0.000000000000000000, -0.000000000000000000 ) ) ;
#478 = CARTESIAN_POINT ( 'NONE',  ( 0.000000000000000000, 0.000000000000000000, 24.35991914209797926 ) ) ;
#479 = MECHANICAL_CONTEXT ( 'NONE', #196, 'mechanical' ) ;
#480 = CARTESIAN_POINT ( 'NONE',  ( -1.245064030267288402, 1.524763679400337895E-16, -22.38599999999999923 ) ) ;
#481 = LOCAL_TIME ( 13, 56, 30.00000000000000000, #262 ) ;
#482 = EDGE_CURVE ( 'NONE', #551, #286, #134, .T. ) ;
#483 = CARTESIAN_POINT ( 'NONE',  ( 1.587500000000000355, 0.000000000000000000, -24.48322736169286173 ) ) ;
#484 = APPROVAL_ROLE ( '' ) ;
#485 = CYLINDRICAL_SURFACE ( 'NONE', #315, 2.032000000000000028 ) ;
#486 = CARTESIAN_POINT ( 'NONE',  ( -1.587500000000000355, 0.8513200635100127700, 24.44137755531811251 ) ) ;
#487 = CARTESIAN_POINT ( 'NONE',  ( 1.587500000000000577, -0.8514389605504941727, -24.44136751577920208 ) ) ;
#488 = VECTOR ( 'NONE', #187, 1000.000000000000000 ) ;
#489 =( GEOMETRIC_REPRESENTATION_CONTEXT ( 3 ) GLOBAL_UNCERTAINTY_ASSIGNED_CONTEXT ( ( #517 ) ) GLOBAL_UNIT_ASSIGNED_CONTEXT ( ( #560, #172, #390 ) ) REPRESENTATION_CONTEXT ( 'NONE', 'WORKASPACE' ) );
#490 = ADVANCED_FACE ( 'NONE', ( #24 ), #78, .T. ) ;
#491 = CARTESIAN_POINT ( 'NONE',  ( 0.000000000000000000, 0.000000000000000000, -24.35991914209797926 ) ) ;
#492 = ORIENTED_EDGE ( 'NONE', *, *, #314, .F. ) ;
#493 = CARTESIAN_POINT ( 'NONE',  ( 1.587500000000000355, 1.268411506570323866, 24.35991914209797926 ) ) ;
#494 = VERTEX_POINT ( 'NONE', #197 ) ;
#495 = VERTEX_POINT ( 'NONE', #20 ) ;
#496 = DATE_TIME_ROLE ( 'classification_date' ) ;
#497 = CC_DESIGN_PERSON_AND_ORGANIZATION_ASSIGNMENT ( #8, #195, ( #322 ) ) ;
#498 = DIRECTION ( 'NONE',  ( -0.000000000000000000, -0.000000000000000000, 1.000000000000000000 ) ) ;
#499 = DIRECTION ( 'NONE',  ( 1.224646799147353207E-16, -1.000000000000000000, 0.000000000000000000 ) ) ;
#500 = CIRCLE ( 'NONE', #326, 2.032000000000000028 ) ;
#501 = ORIENTED_EDGE ( 'NONE', *, *, #418, .F. ) ;
#502 = CIRCLE ( 'NONE', #397, 2.032000000000000028 ) ;
#503 = CARTESIAN_POINT ( 'NONE',  ( 0.4219230645619491682, -1.587500000000000577, 24.47730730355361928 ) ) ;
#504 = DIRECTION ( 'NONE',  ( 0.000000000000000000, -0.000000000000000000, 1.000000000000000000 ) ) ;
#505 = ORIENTED_EDGE ( 'NONE', *, *, #146, .F. ) ;
#506 = FACE_OUTER_BOUND ( 'NONE', #192, .T. ) ;
#507 = ORIENTED_EDGE ( 'NONE', *, *, #132, .T. ) ;
#508 = ORIENTED_EDGE ( 'NONE', *, *, #54, .T. ) ;
#509 = CARTESIAN_POINT ( 'NONE',  ( 1.587500000000000577, 0.8514389605504941727, 24.44136751577920208 ) ) ;
#510 = CARTESIAN_POINT ( 'NONE',  ( 0.000000000000000000, 0.000000000000000000, -24.35991914209797926 ) ) ;
#511 = ORIENTED_EDGE ( 'NONE', *, *, #3, .T. ) ;
#512 = CC_DESIGN_PERSON_AND_ORGANIZATION_ASSIGNMENT ( #12, #16, ( #149 ) ) ;
#513 = CARTESIAN_POINT ( 'NONE',  ( -1.587500000000000355, -0.4276219574846464311, 24.47699639200008548 ) ) ;
#514 = EDGE_CURVE ( 'NONE', #494, #150, #455, .T. ) ;
#515 = CARTESIAN_POINT ( 'NONE',  ( 1.268411506570323866, -1.587500000000000355, -24.51099999999999923 ) ) ;
#516 = CARTESIAN_POINT ( 'NONE',  ( 0.8571092511719565765, 1.587500000000000355, 24.46227379706277461 ) ) ;
#517 = UNCERTAINTY_MEASURE_WITH_UNIT (LENGTH_MEASURE( 1.000000000000000082E-05 ), #560, 'distance_accuracy_value', 'NONE');
#518 = FACE_OUTER_BOUND ( 'NONE', #403, .T. ) ;
#519 = CIRCLE ( 'NONE', #125, 2.124999999999998224 ) ;
#520 = DIRECTION ( 'NONE',  ( 1.224646799147353207E-16, 1.000000000000000000, 0.000000000000000000 ) ) ;
#521 = DIRECTION ( 'NONE',  ( 1.000000000000000000, 0.000000000000000000, 0.000000000000000000 ) ) ;
#522 = EDGE_CURVE ( 'NONE', #206, #286, #236, .T. ) ;
#523 = COORDINATED_UNIVERSAL_TIME_OFFSET ( 6, 0, .BEHIND. ) ;
#524 = DIRECTION ( 'NONE',  ( -0.000000000000000000, -0.000000000000000000, 1.000000000000000000 ) ) ;
#525 = APPROVAL_STATUS ( 'not_yet_approved' ) ;
#526 = AXIS2_PLACEMENT_3D ( 'NONE', #443, #13, #183 ) ;
#527 = CARTESIAN_POINT ( 'NONE',  ( 1.587500000000000355, -0.4276219574846464311, -24.47699639200008548 ) ) ;
#528 = VERTEX_POINT ( 'NONE', #376 ) ;
#529 = CALENDAR_DATE ( 2022, 6, 6 ) ;
#530 = EDGE_CURVE ( 'NONE', #250, #150, #179, .T. ) ;
#531 = DIRECTION ( 'NONE',  ( 1.000000000000000000, 0.000000000000000000, 0.000000000000000000 ) ) ;
#532 = DATE_TIME_ROLE ( 'creation_date' ) ;
#533 = CARTESIAN_POINT ( 'NONE',  ( -1.587500000000000577, 0.4277385810629848462, 24.47698654358310932 ) ) ;
#534 = DIRECTION ( 'NONE',  ( 0.000000000000000000, -1.000000000000000000, 0.000000000000000000 ) ) ;
#535 = ORIENTED_EDGE ( 'NONE', *, *, #522, .F. ) ;
#536 = AXIS2_PLACEMENT_3D ( 'NONE', #6, #263, #126 ) ;
#537 = ORIENTED_EDGE ( 'NONE', *, *, #360, .F. ) ;
#538 = DIRECTION ( 'NONE',  ( 0.000000000000000000, -1.000000000000000000, 0.000000000000000000 ) ) ;
#539 = DIRECTION ( 'NONE',  ( 1.000000000000000000, 0.000000000000000000, 0.000000000000000000 ) ) ;
#540 = VERTEX_POINT ( 'NONE', #115 ) ;
#541 = CARTESIAN_POINT ( 'NONE',  ( 1.060147506033617404, -1.587500000000000133, 24.41174669625517524 ) ) ;
#542 = ORIENTED_EDGE ( 'NONE', *, *, #68, .T. ) ;
#543 = VERTEX_POINT ( 'NONE', #299 ) ;
#544 = AXIS2_PLACEMENT_3D ( 'NONE', #480, #520, #474 ) ;
#545 = CARTESIAN_POINT ( 'NONE',  ( -0.8571092511719565765, -1.587500000000000355, 24.46227379706277461 ) ) ;
#546 = EDGE_CURVE ( 'NONE', #494, #193, #129, .T. ) ;
#547 = CARTESIAN_POINT ( 'NONE',  ( -1.245064030267288402, -1.524763679400337895E-16, 22.38599999999999923 ) ) ;
#548 = VERTEX_POINT ( 'NONE', #167 ) ;
#549 = CARTESIAN_POINT ( 'NONE',  ( 1.587500000000000355, -1.061392899157111325, 24.41143677385166200 ) ) ;
#550 = ORIENTED_EDGE ( 'NONE', *, *, #141, .T. ) ;
#551 = VERTEX_POINT ( 'NONE', #127 ) ;
#552 = DIRECTION ( 'NONE',  ( 0.000000000000000000, 0.000000000000000000, -1.000000000000000000 ) ) ;
#553 = ORIENTED_EDGE ( 'NONE', *, *, #514, .F. ) ;
#554 = ORIENTED_EDGE ( 'NONE', *, *, #185, .F. ) ;
#555 = EDGE_CURVE ( 'NONE', #250, #193, #345, .T. ) ;
#556 = AXIS2_PLACEMENT_3D ( 'NONE', #18, #222, #274 ) ;
#557 = B_SPLINE_CURVE_WITH_KNOTS ( 'NONE', 3,
 ( #493, #151, #509, #101, #118, #290 ),
 .UNSPECIFIED., .F., .F.,
 ( 4, 2, 4 ),
 ( 0.01485345774306977458, 0.01548163471194334562, 0.01610981168081691492 ),
 .UNSPECIFIED. ) ;
#558 = CARTESIAN_POINT ( 'NONE',  ( 1.060147506033617404, 1.587500000000000133, -24.41174669625517524 ) ) ;
#559 = DIRECTION ( 'NONE',  ( 0.000000000000000000, 0.000000000000000000, -1.000000000000000000 ) ) ;
#560 =( LENGTH_UNIT ( ) NAMED_UNIT ( * ) SI_UNIT ( .MILLI., .METRE. ) );
#561 = LOCAL_TIME ( 13, 56, 30.00000000000000000, #357 ) ;
ENDSEC;
END-ISO-10303-21;
