ISO-10303-21;
HEADER;
FILE_DESCRIPTION (( 'STEP AP203' ),
    '1' );
FILE_NAME ('228-2500-079.step',
    '2022-06-06T18:57:09',
    ( '' ),
    ( '' ),
    'SwSTEP 2.0',
    'SolidWorks 2021',
    '' );
FILE_SCHEMA (( 'CONFIG_CONTROL_DESIGN' ));
ENDSEC;

DATA;
#1 = EDGE_CURVE ( 'NONE', #141, #253, #682, .T. ) ;
#2 = CARTESIAN_POINT ( 'NONE',  ( 0.000000000000000000, 0.000000000000000000, -25.56099999999997507 ) ) ;
#3 = ORIENTED_EDGE ( 'NONE', *, *, #201, .F. ) ;
#4 = LINE ( 'NONE', #162, #852 ) ;
#5 = EDGE_CURVE ( 'NONE', #109, #75, #66, .T. ) ;
#6 = EDGE_CURVE ( 'NONE', #556, #790, #481, .T. ) ;
#7 = ORGANIZATION ( 'UNSPECIFIED', 'UNSPECIFIED', '' ) ;
#8 = DIRECTION ( 'NONE',  ( -0.000000000000000000, -0.000000000000000000, 1.000000000000000000 ) ) ;
#9 = VERTEX_POINT ( 'NONE', #355 ) ;
#10 = CARTESIAN_POINT ( 'NONE',  ( -2.399999999999999911, 2.939152317953647106E-16, 21.42500000000000071 ) ) ;
#11 = CARTESIAN_POINT ( 'NONE',  ( 1.587500000000000355, 0.000000000000000000, 27.65822736169286244 ) ) ;
#12 = VERTEX_POINT ( 'NONE', #48 ) ;
#13 = CARTESIAN_POINT ( 'NONE',  ( 1.587500000000000355, -1.268411506570323866, 22.22499999999999787 ) ) ;
#14 = CARTESIAN_POINT ( 'NONE',  ( 1.587500000000000355, 0.000000000000000000, -27.65822736169286244 ) ) ;
#15 = VECTOR ( 'NONE', #825, 1000.000000000000000 ) ;
#16 = CARTESIAN_POINT ( 'NONE',  ( 1.587500000000000355, 1.268411506570323866, -27.68599999999999994 ) ) ;
#17 = CARTESIAN_POINT ( 'NONE',  ( -1.268411506570323866, -1.587500000000000355, -27.53491914209798352 ) ) ;
#18 = CC_DESIGN_PERSON_AND_ORGANIZATION_ASSIGNMENT ( #757, #774, ( #587 ) ) ;
#19 = CYLINDRICAL_SURFACE ( 'NONE', #710, 2.032000000000000028 ) ;
#20 = AXIS2_PLACEMENT_3D ( 'NONE', #893, #663, #531 ) ;
#21 = CARTESIAN_POINT ( 'NONE',  ( -1.587500000000000577, 0.4277385810629842910, 27.65198654358310648 ) ) ;
#22 = DIRECTION ( 'NONE',  ( 1.224646799147353207E-16, -1.000000000000000000, 0.000000000000000000 ) ) ;
#23 = EDGE_CURVE ( 'NONE', #147, #778, #627, .T. ) ;
#24 = CARTESIAN_POINT ( 'NONE',  ( 0.000000000000000000, 0.000000000000000000, 21.42500000000000426 ) ) ;
#25 = ORIENTED_EDGE ( 'NONE', *, *, #1, .T. ) ;
#26 = AXIS2_PLACEMENT_3D ( 'NONE', #306, #397, #472 ) ;
#27 = CARTESIAN_POINT ( 'NONE',  ( 0.4342314039556041672, 1.587500000000000355, 27.65785171744313331 ) ) ;
#28 = CARTESIAN_POINT ( 'NONE',  ( 1.268411506570323866, -1.587500000000000355, 22.22499999999999787 ) ) ;
#29 = VERTEX_POINT ( 'NONE', #762 ) ;
#30 = CARTESIAN_POINT ( 'NONE',  ( -0.8486262390323825455, -1.587500000000000577, -27.61676882282394629 ) ) ;
#31 = CARTESIAN_POINT ( 'NONE',  ( -0.8486262390323825455, 1.587500000000000577, 27.61676882282394629 ) ) ;
#32 = DIRECTION ( 'NONE',  ( -0.000000000000000000, -0.000000000000000000, -1.000000000000000000 ) ) ;
#33 = ADVANCED_FACE ( 'NONE', ( #414 ), #454, .T. ) ;
#34 = AXIS2_PLACEMENT_3D ( 'NONE', #484, #851, #909 ) ;
#35 = VERTEX_POINT ( 'NONE', #54 ) ;
#36 = B_SPLINE_CURVE_WITH_KNOTS ( 'NONE', 3,
 ( #166, #451, #31, #92, #314, #27, #468, #726 ),
 .UNSPECIFIED., .F., .F.,
 ( 4, 2, 2, 4 ),
 ( 0.01485345774306994979, 0.01548583974386960604, 0.01611822174466926577, 0.01738298574626857829 ),
 .UNSPECIFIED. ) ;
#37 = CARTESIAN_POINT ( 'NONE',  ( 1.587500000000000355, -1.268411506570323644, 27.53491914209798352 ) ) ;
#38 = CARTESIAN_POINT ( 'NONE',  ( 0.000000000000000000, 0.000000000000000000, 22.22499999999999787 ) ) ;
#39 = CARTESIAN_POINT ( 'NONE',  ( 1.587500000000000355, -0.4276219574846464866, -27.65199639200008264 ) ) ;
#40 = ORIENTED_EDGE ( 'NONE', *, *, #88, .F. ) ;
#41 = ORIENTED_EDGE ( 'NONE', *, *, #129, .F. ) ;
#42 = DIRECTION ( 'NONE',  ( 1.000000000000000000, 0.000000000000000000, -0.000000000000000000 ) ) ;
#43 = CARTESIAN_POINT ( 'NONE',  ( 1.587500000000000355, 1.268411506570323866, 21.42500000000000426 ) ) ;
#44 = ORIENTED_EDGE ( 'NONE', *, *, #725, .T. ) ;
#45 = CALENDAR_DATE ( 2022, 6, 6 ) ;
#46 = PLANE ( 'NONE',  #266 ) ;
#47 = CARTESIAN_POINT ( 'NONE',  ( -1.587500000000000355, -1.268411506570323866, 21.42500000000000071 ) ) ;
#48 = CARTESIAN_POINT ( 'NONE',  ( -1.587500000000000355, 1.268411506570323866, -27.53491914209798352 ) ) ;
#49 = VECTOR ( 'NONE', #443, 1000.000000000000000 ) ;
#50 = DIRECTION ( 'NONE',  ( 1.000000000000000000, 0.000000000000000000, 0.000000000000000000 ) ) ;
#51 = ORIENTED_EDGE ( 'NONE', *, *, #869, .T. ) ;
#52 = DIRECTION ( 'NONE',  ( 1.000000000000000000, 0.000000000000000000, 0.000000000000000000 ) ) ;
#53 = CARTESIAN_POINT ( 'NONE',  ( 1.245064030267288402, 0.000000000000000000, -27.68600000000000350 ) ) ;
#54 = CARTESIAN_POINT ( 'NONE',  ( -1.587500000000000355, 1.268411506570323644, 21.42500000000000426 ) ) ;
#55 = PERSON_AND_ORGANIZATION_ROLE ( 'creator' ) ;
#56 = ORIENTED_EDGE ( 'NONE', *, *, #801, .F. ) ;
#57 = PLANE ( 'NONE',  #311 ) ;
#58 = AXIS2_PLACEMENT_3D ( 'NONE', #123, #621, #483 ) ;
#59 = DIRECTION ( 'NONE',  ( 1.000000000000000000, 0.000000000000000000, 0.000000000000000000 ) ) ;
#60 = ADVANCED_FACE ( 'NONE', ( #408 ), #344, .F. ) ;
#61 = ORIENTED_EDGE ( 'NONE', *, *, #1, .F. ) ;
#62 = CALENDAR_DATE ( 2022, 6, 6 ) ;
#63 = ORIENTED_EDGE ( 'NONE', *, *, #328, .T. ) ;
#64 = CARTESIAN_POINT ( 'NONE',  ( 0.000000000000000000, 0.000000000000000000, 27.68600000000000350 ) ) ;
#65 = DIRECTION ( 'NONE',  ( 0.000000000000000000, 0.000000000000000000, 1.000000000000000000 ) ) ;
#66 = CIRCLE ( 'NONE', #290, 1.245064030267288402 ) ;
#67 = ORIENTED_EDGE ( 'NONE', *, *, #523, .F. ) ;
#68 = DIRECTION ( 'NONE',  ( -0.000000000000000000, -0.000000000000000000, 1.000000000000000000 ) ) ;
#69 = EDGE_LOOP ( 'NONE', ( #222, #738, #625, #555, #560 ) ) ;
#70 = PERSON ( 'UNSPECIFIED', 'UNSPECIFIED', 'UNSPECIFIED', ('UNSPECIFIED'), ('UNSPECIFIED'), ('UNSPECIFIED') ) ;
#71 = EDGE_CURVE ( 'NONE', #482, #29, #535, .T. ) ;
#72 = ORIENTED_EDGE ( 'NONE', *, *, #410, .T. ) ;
#73 = CARTESIAN_POINT ( 'NONE',  ( 1.587500000000000355, 0.8513200635100124369, -27.61637755531811322 ) ) ;
#74 = LINE ( 'NONE', #373, #797 ) ;
#75 = VERTEX_POINT ( 'NONE', #868 ) ;
#76 = EDGE_CURVE ( 'NONE', #432, #134, #636, .T. ) ;
#77 = CARTESIAN_POINT ( 'NONE',  ( 1.587500000000000577, 0.8514389605504939507, 27.61636751577920634 ) ) ;
#78 = CARTESIAN_POINT ( 'NONE',  ( 0.000000000000000000, 0.000000000000000000, -27.53491914209798352 ) ) ;
#79 = VERTEX_POINT ( 'NONE', #149 ) ;
#80 = VECTOR ( 'NONE', #360, 1000.000000000000000 ) ;
#81 = DIRECTION ( 'NONE',  ( -1.000000000000000000, 0.000000000000000000, 0.000000000000000000 ) ) ;
#82 = DIRECTION ( 'NONE',  ( 1.000000000000000000, 0.000000000000000000, 0.000000000000000000 ) ) ;
#83 = EDGE_CURVE ( 'NONE', #540, #890, #210, .T. ) ;
#84 = VERTEX_POINT ( 'NONE', #86 ) ;
#85 = DIRECTION ( 'NONE',  ( -0.000000000000000000, -0.000000000000000000, -1.000000000000000000 ) ) ;
#86 = CARTESIAN_POINT ( 'NONE',  ( -1.587500000000000355, -1.268411506570323866, 22.22499999999999787 ) ) ;
#87 = CIRCLE ( 'NONE', #787, 1.245064030267288402 ) ;
#88 = EDGE_CURVE ( 'NONE', #533, #890, #74, .T. ) ;
#89 =( GEOMETRIC_REPRESENTATION_CONTEXT ( 3 ) GLOBAL_UNCERTAINTY_ASSIGNED_CONTEXT ( ( #294 ) ) GLOBAL_UNIT_ASSIGNED_CONTEXT ( ( #729, #185, #819 ) ) REPRESENTATION_CONTEXT ( 'NONE', 'WORKASPACE' ) );
#90 = CARTESIAN_POINT ( 'NONE',  ( 0.000000000000000000, 0.000000000000000000, 21.42500000000000426 ) ) ;
#91 = DIRECTION ( 'NONE',  ( 1.000000000000000000, 0.000000000000000000, 0.000000000000000000 ) ) ;
#92 = CARTESIAN_POINT ( 'NONE',  ( -0.4219230645619490017, 1.587500000000000577, 27.65230730355362354 ) ) ;
#93 = CIRCLE ( 'NONE', #796, 2.032000000000000028 ) ;
#94 = AXIS2_PLACEMENT_3D ( 'NONE', #64, #489, #692 ) ;
#95 = CARTESIAN_POINT ( 'NONE',  ( -1.587500000000000355, -0.2114796877013869481, 27.65822736169286244 ) ) ;
#96 = DIRECTION ( 'NONE',  ( -0.000000000000000000, -0.000000000000000000, 1.000000000000000000 ) ) ;
#97 = EDGE_CURVE ( 'NONE', #820, #141, #667, .T. ) ;
#98 = DIRECTION ( 'NONE',  ( 0.000000000000000000, 0.000000000000000000, -1.000000000000000000 ) ) ;
#99 = ORIENTED_EDGE ( 'NONE', *, *, #71, .T. ) ;
#100 = AXIS2_PLACEMENT_3D ( 'NONE', #901, #913, #831 ) ;
#101 = DIRECTION ( 'NONE',  ( 0.000000000000000000, 0.000000000000000000, 1.000000000000000000 ) ) ;
#102 = ORIENTED_EDGE ( 'NONE', *, *, #617, .F. ) ;
#103 = DIRECTION ( 'NONE',  ( 1.000000000000000000, 0.000000000000000000, 0.000000000000000000 ) ) ;
#104 = DIRECTION ( 'NONE',  ( -0.000000000000000000, -0.000000000000000000, 1.000000000000000000 ) ) ;
#105 = CIRCLE ( 'NONE', #764, 2.399999999999999911 ) ;
#106 = EDGE_CURVE ( 'NONE', #915, #84, #718, .T. ) ;
#107 = ORIENTED_EDGE ( 'NONE', *, *, #165, .F. ) ;
#108 = LINE ( 'NONE', #876, #437 ) ;
#109 = VERTEX_POINT ( 'NONE', #289 ) ;
#110 = DIRECTION ( 'NONE',  ( 0.000000000000000000, 0.000000000000000000, 1.000000000000000000 ) ) ;
#111 = CARTESIAN_POINT ( 'NONE',  ( 0.000000000000000000, 0.000000000000000000, 22.22499999999999787 ) ) ;
#112 = ORIENTED_EDGE ( 'NONE', *, *, #83, .F. ) ;
#113 = DIRECTION ( 'NONE',  ( 0.000000000000000000, -1.000000000000000000, 0.000000000000000000 ) ) ;
#114 = VECTOR ( 'NONE', #708, 1000.000000000000000 ) ;
#115 = VERTEX_POINT ( 'NONE', #874 ) ;
#116 = CARTESIAN_POINT ( 'NONE',  ( 0.000000000000000000, 0.000000000000000000, -27.68599999999999994 ) ) ;
#117 = LINE ( 'NONE', #538, #394 ) ;
#118 = DIRECTION ( 'NONE',  ( 0.000000000000000000, 0.000000000000000000, -1.000000000000000000 ) ) ;
#119 = DATE_TIME_ROLE ( 'classification_date' ) ;
#120 = LOCAL_TIME ( 13, 57, 9.000000000000000000, #196 ) ;
#121 = PRODUCT_DEFINITION_FORMATION_WITH_SPECIFIED_SOURCE ( 'ANY', '', #131, .NOT_KNOWN. ) ;
#122 = ORIENTED_EDGE ( 'NONE', *, *, #518, .F. ) ;
#123 = CARTESIAN_POINT ( 'NONE',  ( -1.245064030267288402, 1.524763679400337895E-16, -25.56099999999997507 ) ) ;
#124 = CARTESIAN_POINT ( 'NONE',  ( 0.000000000000000000, 0.000000000000000000, -27.68599999999999994 ) ) ;
#125 = ORIENTED_EDGE ( 'NONE', *, *, #368, .F. ) ;
#126 = AXIS2_PLACEMENT_3D ( 'NONE', #841, #485, #204 ) ;
#127 = ORIENTED_EDGE ( 'NONE', *, *, #368, .T. ) ;
#128 = DIRECTION ( 'NONE',  ( 0.000000000000000000, -0.000000000000000000, -1.000000000000000000 ) ) ;
#129 = EDGE_CURVE ( 'NONE', #147, #251, #713, .T. ) ;
#130 = FACE_OUTER_BOUND ( 'NONE', #530, .T. ) ;
#131 = PRODUCT ( '228-2500-079', '228-2500-079', '', ( #339 ) ) ;
#132 = ORIENTED_EDGE ( 'NONE', *, *, #328, .F. ) ;
#133 = SECURITY_CLASSIFICATION_LEVEL ( 'unclassified' ) ;
#134 = VERTEX_POINT ( 'NONE', #566 ) ;
#135 = CYLINDRICAL_SURFACE ( 'NONE', #309, 2.032000000000000028 ) ;
#136 = VECTOR ( 'NONE', #68, 1000.000000000000000 ) ;
#137 = CIRCLE ( 'NONE', #100, 2.399999999999999911 ) ;
#138 = CARTESIAN_POINT ( 'NONE',  ( -0.8571092511719563545, 1.587500000000000355, -27.63727379706277532 ) ) ;
#139 = CARTESIAN_POINT ( 'NONE',  ( -2.399999999999999911, 2.939152317953647106E-16, 21.42500000000000071 ) ) ;
#140 = DATE_TIME_ROLE ( 'creation_date' ) ;
#141 = VERTEX_POINT ( 'NONE', #221 ) ;
#142 = CARTESIAN_POINT ( 'NONE',  ( 1.587500000000000355, -1.268411506570323866, -27.68599999999999994 ) ) ;
#143 = ORIENTED_EDGE ( 'NONE', *, *, #76, .T. ) ;
#144 = ADVANCED_FACE ( 'NONE', ( #579 ), #575, .T. ) ;
#145 = APPROVAL_ROLE ( '' ) ;
#146 = AXIS2_PLACEMENT_3D ( 'NONE', #806, #177, #101 ) ;
#147 = VERTEX_POINT ( 'NONE', #798 ) ;
#148 = CARTESIAN_POINT ( 'NONE',  ( -1.587500000000000355, -1.587500000000000355, 27.68599999999999994 ) ) ;
#149 = CARTESIAN_POINT ( 'NONE',  ( -1.587500000000000355, 1.944126793646423534E-16, -27.65822736169286244 ) ) ;
#150 = ORIENTED_EDGE ( 'NONE', *, *, #794, .F. ) ;
#151 = CARTESIAN_POINT ( 'NONE',  ( 1.587500000000000355, 1.268411506570323866, 27.53491914209798352 ) ) ;
#152 = CARTESIAN_POINT ( 'NONE',  ( -1.587500000000000355, 1.061392899157111769, 27.58643677385166271 ) ) ;
#153 = VERTEX_POINT ( 'NONE', #14 ) ;
#154 = APPROVAL_PERSON_ORGANIZATION ( #683, #308, #145 ) ;
#155 = DIRECTION ( 'NONE',  ( 0.000000000000000000, 0.000000000000000000, -1.000000000000000000 ) ) ;
#156 = CARTESIAN_POINT ( 'NONE',  ( -0.4342314039556041672, -1.587500000000000355, 27.65785171744313331 ) ) ;
#157 = ORIENTED_EDGE ( 'NONE', *, *, #262, .T. ) ;
#158 = AXIS2_PLACEMENT_3D ( 'NONE', #2, #689, #612 ) ;
#159 = DIRECTION ( 'NONE',  ( 1.000000000000000000, 0.000000000000000000, 0.000000000000000000 ) ) ;
#160 = ADVANCED_FACE ( 'NONE', ( #300 ), #648, .T. ) ;
#161 = CARTESIAN_POINT ( 'NONE',  ( 1.587500000000000133, -0.2143109880596212047, 27.65822736169286600 ) ) ;
#162 = CARTESIAN_POINT ( 'NONE',  ( 1.587500000000000355, -1.587500000000000355, 21.42500000000000071 ) ) ;
#163 = DIRECTION ( 'NONE',  ( 0.000000000000000000, 0.000000000000000000, -1.000000000000000000 ) ) ;
#164 = VECTOR ( 'NONE', #155, 1000.000000000000000 ) ;
#165 = EDGE_CURVE ( 'NONE', #115, #440, #356, .T. ) ;
#166 = CARTESIAN_POINT ( 'NONE',  ( -1.268411506570323866, 1.587500000000000355, 27.53491914209798352 ) ) ;
#167 = DIRECTION ( 'NONE',  ( 1.000000000000000000, 1.332267629550187849E-14, 0.000000000000000000 ) ) ;
#168 = CARTESIAN_POINT ( 'NONE',  ( 0.000000000000000000, 0.000000000000000000, -25.56099999999997507 ) ) ;
#169 = CARTESIAN_POINT ( 'NONE',  ( 1.268411506570323866, 1.587500000000000355, -27.53491914209798352 ) ) ;
#170 = VECTOR ( 'NONE', #98, 1000.000000000000000 ) ;
#171 = ADVANCED_BREP_SHAPE_REPRESENTATION ( '228-2500-079', ( #175, #599 ), #89 ) ;
#172 = CARTESIAN_POINT ( 'NONE',  ( -1.587500000000000355, -1.587500000000000355, 27.68599999999999994 ) ) ;
#173 = ORIENTED_EDGE ( 'NONE', *, *, #562, .F. ) ;
#174 = CARTESIAN_POINT ( 'NONE',  ( 1.268411506570323866, -1.587500000000000355, -27.53491914209798352 ) ) ;
#175 = MANIFOLD_SOLID_BREP ( '228-2500-079', #189 ) ;
#176 = CC_DESIGN_DATE_AND_TIME_ASSIGNMENT ( #264, #119, ( #587 ) ) ;
#177 = DIRECTION ( 'NONE',  ( -1.000000000000000000, 0.000000000000000000, 0.000000000000000000 ) ) ;
#178 = ORIENTED_EDGE ( 'NONE', *, *, #334, .F. ) ;
#179 = AXIS2_PLACEMENT_3D ( 'NONE', #329, #333, #760 ) ;
#180 = LINE ( 'NONE', #327, #619 ) ;
#181 = DIRECTION ( 'NONE',  ( 1.000000000000000000, 0.000000000000000000, 0.000000000000000000 ) ) ;
#182 = EDGE_CURVE ( 'NONE', #219, #790, #105, .T. ) ;
#183 = CARTESIAN_POINT ( 'NONE',  ( -1.587500000000000577, -0.8514389605504939507, 27.61636751577920634 ) ) ;
#184 = ORIENTED_EDGE ( 'NONE', *, *, #617, .T. ) ;
#185 =( NAMED_UNIT ( * ) PLANE_ANGLE_UNIT ( ) SI_UNIT ( $, .RADIAN. ) );
#186 = CARTESIAN_POINT ( 'NONE',  ( 0.000000000000000000, 0.000000000000000000, -27.68600000000000350 ) ) ;
#187 = CYLINDRICAL_SURFACE ( 'NONE', #20, 2.032000000000000028 ) ;
#188 = EDGE_CURVE ( 'NONE', #602, #778, #532, .T. ) ;
#189 = CLOSED_SHELL ( 'NONE', ( #644, #458, #844, #350, #716, #60, #736, #671, #363, #378, #245, #33, #649, #804, #372, #687, #664, #771, #144, #160, #814, #701, #335, #278, #551, #235 ) ) ;
#190 = ORIENTED_EDGE ( 'NONE', *, *, #295, .T. ) ;
#191 = CARTESIAN_POINT ( 'NONE',  ( 0.000000000000000000, 0.000000000000000000, 0.000000000000000000 ) ) ;
#192 = DIRECTION ( 'NONE',  ( 0.000000000000000000, 1.000000000000000000, 0.000000000000000000 ) ) ;
#193 = DIRECTION ( 'NONE',  ( -0.000000000000000000, 1.000000000000000000, 0.000000000000000000 ) ) ;
#194 = ORIENTED_EDGE ( 'NONE', *, *, #6, .T. ) ;
#195 = EDGE_CURVE ( 'NONE', #134, #200, #354, .T. ) ;
#196 = COORDINATED_UNIVERSAL_TIME_OFFSET ( 6, 0, .BEHIND. ) ;
#197 = VERTEX_POINT ( 'NONE', #369 ) ;
#198 = DIRECTION ( 'NONE',  ( 0.000000000000000000, 0.000000000000000000, 1.000000000000000000 ) ) ;
#199 = DIRECTION ( 'NONE',  ( 0.000000000000000000, 0.000000000000000000, -1.000000000000000000 ) ) ;
#200 = VERTEX_POINT ( 'NONE', #17 ) ;
#201 = EDGE_CURVE ( 'NONE', #29, #153, #608, .T. ) ;
#202 = FACE_OUTER_BOUND ( 'NONE', #430, .T. ) ;
#203 = FACE_OUTER_BOUND ( 'NONE', #398, .T. ) ;
#204 = DIRECTION ( 'NONE',  ( 0.000000000000000000, 0.000000000000000000, 1.000000000000000000 ) ) ;
#205 = PERSON_AND_ORGANIZATION ( #70, #7 ) ;
#206 = ORIENTED_EDGE ( 'NONE', *, *, #195, .T. ) ;
#207 = CYLINDRICAL_SURFACE ( 'NONE', #224, 2.399999999999999911 ) ;
#208 = CARTESIAN_POINT ( 'NONE',  ( 0.000000000000000000, 0.000000000000000000, 21.42500000000000071 ) ) ;
#209 = ORIENTED_EDGE ( 'NONE', *, *, #97, .F. ) ;
#210 = B_SPLINE_CURVE_WITH_KNOTS ( 'NONE', 3,
 ( #11, #161, #225, #651, #434, #709 ),
 .UNSPECIFIED., .F., .F.,
 ( 4, 2, 4 ),
 ( 0.000000000000000000, 0.0006365870327257437547, 0.001273174065451487509 ),
 .UNSPECIFIED. ) ;
#211 = ORIENTED_EDGE ( 'NONE', *, *, #577, .T. ) ;
#212 = AXIS2_PLACEMENT_3D ( 'NONE', #446, #715, #81 ) ;
#213 = CARTESIAN_POINT ( 'NONE',  ( 1.245064030267288402, 0.000000000000000000, 25.56099999999997507 ) ) ;
#214 = ORIENTED_EDGE ( 'NONE', *, *, #659, .F. ) ;
#215 = ORIENTED_EDGE ( 'NONE', *, *, #419, .T. ) ;
#216 = CARTESIAN_POINT ( 'NONE',  ( 0.000000000000000000, 0.000000000000000000, 22.22499999999999787 ) ) ;
#217 = ORIENTED_EDGE ( 'NONE', *, *, #106, .T. ) ;
#218 = AXIS2_PLACEMENT_3D ( 'NONE', #208, #761, #431 ) ;
#219 = VERTEX_POINT ( 'NONE', #655 ) ;
#220 = DIRECTION ( 'NONE',  ( 1.000000000000000000, 0.000000000000000000, 0.000000000000000000 ) ) ;
#221 = CARTESIAN_POINT ( 'NONE',  ( 1.587500000000000355, 1.268411506570323866, 27.53491914209798352 ) ) ;
#222 = ORIENTED_EDGE ( 'NONE', *, *, #262, .F. ) ;
#223 = CARTESIAN_POINT ( 'NONE',  ( -1.587500000000000355, -1.268411506570323866, -27.53491914209798352 ) ) ;
#224 = AXIS2_PLACEMENT_3D ( 'NONE', #753, #110, #906 ) ;
#225 = CARTESIAN_POINT ( 'NONE',  ( 1.587500000000000577, -0.4277385810629842910, 27.65198654358310648 ) ) ;
#226 = ORIENTED_EDGE ( 'NONE', *, *, #794, .T. ) ;
#227 = CARTESIAN_POINT ( 'NONE',  ( -1.587500000000000355, -1.061392899157111769, -27.58643677385166271 ) ) ;
#228 = CARTESIAN_POINT ( 'NONE',  ( -1.587500000000000355, -1.944126793646423534E-16, 27.65822736169286244 ) ) ;
#229 = AXIS2_PLACEMENT_3D ( 'NONE', #172, #456, #528 ) ;
#230 = EDGE_CURVE ( 'NONE', #197, #482, #658, .T. ) ;
#231 = CARTESIAN_POINT ( 'NONE',  ( 1.587500000000000355, 0.2143109880596212047, -27.65822736169286600 ) ) ;
#232 = CARTESIAN_POINT ( 'NONE',  ( -1.587500000000000355, -1.268411506570323866, -27.68599999999999994 ) ) ;
#233 = CARTESIAN_POINT ( 'NONE',  ( -1.587500000000000355, 1.587500000000000355, -27.68599999999999994 ) ) ;
#234 = FACE_OUTER_BOUND ( 'NONE', #493, .T. ) ;
#235 = ADVANCED_FACE ( 'NONE', ( #731 ), #884, .F. ) ;
#236 = CIRCLE ( 'NONE', #734, 2.032000000000000028 ) ;
#237 = B_SPLINE_CURVE_WITH_KNOTS ( 'NONE', 3,
 ( #568, #723, #720, #864, #227, #223 ),
 .UNSPECIFIED., .F., .F.,
 ( 4, 2, 4 ),
 ( 1.905938025164286877E-19, 0.0006365870327257439716, 0.001273174065451487726 ),
 .UNSPECIFIED. ) ;
#238 = CARTESIAN_POINT ( 'NONE',  ( -1.245064030267288402, -1.524763679400337895E-16, 25.56099999999997507 ) ) ;
#239 = CARTESIAN_POINT ( 'NONE',  ( -1.268411506570323866, 1.587500000000000355, 22.22499999999999787 ) ) ;
#240 = ORIENTED_EDGE ( 'NONE', *, *, #918, .F. ) ;
#241 = CARTESIAN_POINT ( 'NONE',  ( -1.587500000000000355, 1.587500000000000355, 27.68599999999999994 ) ) ;
#242 = CARTESIAN_POINT ( 'NONE',  ( -1.587500000000000355, -1.944126793646423534E-16, 27.65822736169286244 ) ) ;
#243 = ORIENTED_EDGE ( 'NONE', *, *, #654, .T. ) ;
#244 = CARTESIAN_POINT ( 'NONE',  ( -1.268411506570323866, 1.587500000000000355, 27.53491914209798352 ) ) ;
#245 = ADVANCED_FACE ( 'NONE', ( #669 ), #187, .T. ) ;
#246 = B_SPLINE_CURVE_WITH_KNOTS ( 'NONE', 3,
 ( #324, #586, #30, #534, #519, #594, #891, #174 ),
 .UNSPECIFIED., .F., .F.,
 ( 4, 2, 2, 4 ),
 ( 0.01485345774306994979, 0.01548583974386960604, 0.01611822174466926577, 0.01738298574626857829 ),
 .UNSPECIFIED. ) ;
#247 = LINE ( 'NONE', #883, #476 ) ;
#248 = CARTESIAN_POINT ( 'NONE',  ( 1.587500000000000355, 1.268411506570323866, 22.22499999999999787 ) ) ;
#249 = VERTEX_POINT ( 'NONE', #521 ) ;
#250 = VECTOR ( 'NONE', #383, 1000.000000000000000 ) ;
#251 = VERTEX_POINT ( 'NONE', #28 ) ;
#252 = DIRECTION ( 'NONE',  ( 1.000000000000000000, 0.000000000000000000, 0.000000000000000000 ) ) ;
#253 = VERTEX_POINT ( 'NONE', #248 ) ;
#254 = ORIENTED_EDGE ( 'NONE', *, *, #888, .F. ) ;
#255 = CARTESIAN_POINT ( 'NONE',  ( 1.268411506570323866, 1.587500000000000355, -27.68599999999999994 ) ) ;
#256 = CARTESIAN_POINT ( 'NONE',  ( 1.268411506570323866, -1.587500000000000355, -27.53491914209798352 ) ) ;
#257 = AXIS2_PLACEMENT_3D ( 'NONE', #914, #199, #826 ) ;
#258 = ORIENTED_EDGE ( 'NONE', *, *, #76, .F. ) ;
#259 = DATE_AND_TIME ( #45, #120 ) ;
#260 = PLANE ( 'NONE',  #696 ) ;
#261 = FACE_BOUND ( 'NONE', #401, .T. ) ;
#262 = EDGE_CURVE ( 'NONE', #919, #440, #316, .T. ) ;
#263 = ORIENTED_EDGE ( 'NONE', *, *, #510, .T. ) ;
#264 = DATE_AND_TIME ( #62, #680 ) ;
#265 = CIRCLE ( 'NONE', #58, 2.125000000000022649 ) ;
#266 = AXIS2_PLACEMENT_3D ( 'NONE', #543, #839, #128 ) ;
#267 = ORIENTED_EDGE ( 'NONE', *, *, #827, .F. ) ;
#268 = FACE_OUTER_BOUND ( 'NONE', #910, .T. ) ;
#269 = CARTESIAN_POINT ( 'NONE',  ( 0.4219230645619490017, 1.587500000000000577, -27.65230730355362354 ) ) ;
#270 = ORIENTED_EDGE ( 'NONE', *, *, #725, .F. ) ;
#271 = PERSON_AND_ORGANIZATION ( #70, #7 ) ;
#272 = EDGE_LOOP ( 'NONE', ( #56, #830 ) ) ;
#273 = CARTESIAN_POINT ( 'NONE',  ( 0.000000000000000000, 0.000000000000000000, 22.22499999999999787 ) ) ;
#274 = DIRECTION ( 'NONE',  ( 1.000000000000000000, 0.000000000000000000, 0.000000000000000000 ) ) ;
#275 = AXIS2_PLACEMENT_3D ( 'NONE', #111, #802, #167 ) ;
#276 = ORIENTED_EDGE ( 'NONE', *, *, #903, .T. ) ;
#277 = DATE_AND_TIME ( #415, #576 ) ;
#278 = ADVANCED_FACE ( 'NONE', ( #749 ), #598, .T. ) ;
#279 = VERTEX_POINT ( 'NONE', #239 ) ;
#280 = FACE_OUTER_BOUND ( 'NONE', #465, .T. ) ;
#281 = PRODUCT_DEFINITION_SHAPE ( 'NONE', 'NONE',  #835 ) ;
#282 = ORIENTED_EDGE ( 'NONE', *, *, #803, .T. ) ;
#283 = ORIENTED_EDGE ( 'NONE', *, *, #442, .F. ) ;
#284 = CIRCLE ( 'NONE', #492, 2.032000000000000028 ) ;
#285 = FACE_OUTER_BOUND ( 'NONE', #711, .T. ) ;
#286 = DIRECTION ( 'NONE',  ( -0.000000000000000000, -0.000000000000000000, 1.000000000000000000 ) ) ;
#287 = ORIENTED_EDGE ( 'NONE', *, *, #759, .F. ) ;
#288 = DIRECTION ( 'NONE',  ( 0.000000000000000000, 1.000000000000000000, -0.000000000000000000 ) ) ;
#289 = CARTESIAN_POINT ( 'NONE',  ( -1.245064030267288402, -2.006622987633880009E-16, 27.68600000000000350 ) ) ;
#290 = AXIS2_PLACEMENT_3D ( 'NONE', #495, #420, #772 ) ;
#291 = ORIENTED_EDGE ( 'NONE', *, *, #410, .F. ) ;
#292 = DIRECTION ( 'NONE',  ( -0.000000000000000000, -0.000000000000000000, 1.000000000000000000 ) ) ;
#293 = DIRECTION ( 'NONE',  ( -1.000000000000000000, 0.000000000000000000, 0.000000000000000000 ) ) ;
#294 = UNCERTAINTY_MEASURE_WITH_UNIT (LENGTH_MEASURE( 1.000000000000000082E-05 ), #729, 'distance_accuracy_value', 'NONE');
#295 = EDGE_CURVE ( 'NONE', #695, #253, #899, .T. ) ;
#296 = ORIENTED_EDGE ( 'NONE', *, *, #862, .T. ) ;
#297 = B_SPLINE_CURVE_WITH_KNOTS ( 'NONE', 3,
 ( #846, #681, #755, #269, #425, #548, #138, #920 ),
 .UNSPECIFIED., .F., .F.,
 ( 4, 2, 2, 4 ),
 ( 0.01485345774306994979, 0.01548583974386960604, 0.01611822174466926577, 0.01738298574626857829 ),
 .UNSPECIFIED. ) ;
#298 = DIRECTION ( 'NONE',  ( -0.000000000000000000, -0.000000000000000000, 1.000000000000000000 ) ) ;
#299 = AXIS2_PLACEMENT_3D ( 'NONE', #273, #679, #845 ) ;
#300 = FACE_OUTER_BOUND ( 'NONE', #863, .T. ) ;
#301 = FACE_OUTER_BOUND ( 'NONE', #589, .T. ) ;
#302 = CARTESIAN_POINT ( 'NONE',  ( 1.587500000000000355, -1.268411506570323866, -27.53491914209798352 ) ) ;
#303 = AXIS2_PLACEMENT_3D ( 'NONE', #569, #640, #800 ) ;
#304 = EDGE_CURVE ( 'NONE', #600, #432, #93, .T. ) ;
#305 = CARTESIAN_POINT ( 'NONE',  ( 0.4219230645619490017, -1.587500000000000577, 27.65230730355362354 ) ) ;
#306 = CARTESIAN_POINT ( 'NONE',  ( 0.000000000000000000, 0.000000000000000000, 21.42500000000000426 ) ) ;
#307 = PLANE ( 'NONE',  #448 ) ;
#308 = APPROVAL ( #351, 'UNSPECIFIED' ) ;
#309 = AXIS2_PLACEMENT_3D ( 'NONE', #116, #406, #52 ) ;
#310 = CARTESIAN_POINT ( 'NONE',  ( -1.587500000000000355, -0.4276219574846464866, 27.65199639200008264 ) ) ;
#311 = AXIS2_PLACEMENT_3D ( 'NONE', #610, #192, #896 ) ;
#312 = ORIENTED_EDGE ( 'NONE', *, *, #570, .F. ) ;
#313 = DIRECTION ( 'NONE',  ( -0.000000000000000000, -0.000000000000000000, 1.000000000000000000 ) ) ;
#314 = CARTESIAN_POINT ( 'NONE',  ( -0.2043756380772878412, 1.587500000000000133, 27.65840961896379468 ) ) ;
#315 = APPROVAL_PERSON_ORGANIZATION ( #491, #526, #541 ) ;
#316 = LINE ( 'NONE', #727, #717 ) ;
#317 = ORIENTED_EDGE ( 'NONE', *, *, #470, .T. ) ;
#318 = CARTESIAN_POINT ( 'NONE',  ( -1.587500000000000355, -1.268411506570323866, 27.53491914209798352 ) ) ;
#319 = FACE_BOUND ( 'NONE', #881, .T. ) ;
#320 = AXIS2_PLACEMENT_3D ( 'NONE', #474, #699, #348 ) ;
#321 = PLANE ( 'NONE',  #146 ) ;
#322 = ORIENTED_EDGE ( 'NONE', *, *, #590, .T. ) ;
#323 = EDGE_CURVE ( 'NONE', #915, #115, #921, .T. ) ;
#324 = CARTESIAN_POINT ( 'NONE',  ( -1.268411506570323866, -1.587500000000000355, -27.53491914209798352 ) ) ;
#325 = CARTESIAN_POINT ( 'NONE',  ( 1.268411506570323866, -1.587500000000000355, -27.68599999999999994 ) ) ;
#326 = VERTEX_POINT ( 'NONE', #400 ) ;
#327 = CARTESIAN_POINT ( 'NONE',  ( -1.587500000000000355, 1.268411506570323866, -27.68599999999999994 ) ) ;
#328 = EDGE_CURVE ( 'NONE', #249, #898, #675, .T. ) ;
#329 = CARTESIAN_POINT ( 'NONE',  ( 1.245064030267288402, 0.000000000000000000, -25.56099999999997507 ) ) ;
#330 = LINE ( 'NONE', #737, #684 ) ;
#331 = VERTEX_POINT ( 'NONE', #43 ) ;
#332 = APPROVAL_STATUS ( 'not_yet_approved' ) ;
#333 = DIRECTION ( 'NONE',  ( 0.000000000000000000, -1.000000000000000000, 0.000000000000000000 ) ) ;
#334 = EDGE_CURVE ( 'NONE', #533, #253, #330, .T. ) ;
#335 = ADVANCED_FACE ( 'NONE', ( #234 ), #321, .F. ) ;
#336 = LINE ( 'NONE', #142, #136 ) ;
#337 = AXIS2_PLACEMENT_3D ( 'NONE', #213, #193, #557 ) ;
#338 = ORIENTED_EDGE ( 'NONE', *, *, #195, .F. ) ;
#339 = MECHANICAL_CONTEXT ( 'NONE', #635, 'mechanical' ) ;
#340 = ORIENTED_EDGE ( 'NONE', *, *, #129, .T. ) ;
#341 = FACE_OUTER_BOUND ( 'NONE', #641, .T. ) ;
#342 = CARTESIAN_POINT ( 'NONE',  ( -1.587500000000000355, 0.4276219574846464866, -27.65199639200008264 ) ) ;
#343 = EDGE_CURVE ( 'NONE', #637, #197, #917, .T. ) ;
#344 = PLANE ( 'NONE',  #126 ) ;
#345 = VECTOR ( 'NONE', #313, 1000.000000000000000 ) ;
#346 = ORIENTED_EDGE ( 'NONE', *, *, #488, .F. ) ;
#347 = CARTESIAN_POINT ( 'NONE',  ( -2.399999999999999911, 2.939152317953647106E-16, 22.22499999999999787 ) ) ;
#348 = DIRECTION ( 'NONE',  ( 1.000000000000000000, 0.000000000000000000, 0.000000000000000000 ) ) ;
#349 = EDGE_LOOP ( 'NONE', ( #509, #211, #63, #690 ) ) ;
#350 = ADVANCED_FACE ( 'NONE', ( #584 ), #889, .F. ) ;
#351 = APPROVAL_STATUS ( 'not_yet_approved' ) ;
#352 = ORIENTED_EDGE ( 'NONE', *, *, #71, .F. ) ;
#353 = DIRECTION ( 'NONE',  ( 0.000000000000000000, 0.000000000000000000, 1.000000000000000000 ) ) ;
#354 = CIRCLE ( 'NONE', #824, 2.032000000000000028 ) ;
#355 = CARTESIAN_POINT ( 'NONE',  ( 1.268411506570323644, 1.587500000000000355, 21.42500000000000071 ) ) ;
#356 = B_SPLINE_CURVE_WITH_KNOTS ( 'NONE', 3,
 ( #228, #504, #21, #786, #152, #450 ),
 .UNSPECIFIED., .F., .F.,
 ( 4, 2, 4 ),
 ( 1.905938025164286877E-19, 0.0006365870327257438632, 0.001273174065451487509 ),
 .UNSPECIFIED. ) ;
#357 = PRODUCT_RELATED_PRODUCT_CATEGORY ( 'detail', '', ( #131 ) ) ;
#358 = ORIENTED_EDGE ( 'NONE', *, *, #230, .F. ) ;
#359 = DIRECTION ( 'NONE',  ( 0.000000000000000000, 0.000000000000000000, 1.000000000000000000 ) ) ;
#360 = DIRECTION ( 'NONE',  ( -0.000000000000000000, -0.000000000000000000, 1.000000000000000000 ) ) ;
#361 = ORIENTED_EDGE ( 'NONE', *, *, #801, .T. ) ;
#362 = AXIS2_PLACEMENT_3D ( 'NONE', #186, #516, #181 ) ;
#363 = ADVANCED_FACE ( 'NONE', ( #280 ), #611, .T. ) ;
#364 = CARTESIAN_POINT ( 'NONE',  ( 0.000000000000000000, 0.000000000000000000, -27.68600000000000350 ) ) ;
#365 = CARTESIAN_POINT ( 'NONE',  ( -0.8571092511719563545, -1.587500000000000355, 27.63727379706277532 ) ) ;
#366 = ORIENTED_EDGE ( 'NONE', *, *, #523, .T. ) ;
#367 = CARTESIAN_POINT ( 'NONE',  ( 1.587500000000000133, 1.061532360077855452, 27.58640206829358732 ) ) ;
#368 = EDGE_CURVE ( 'NONE', #790, #219, #607, .T. ) ;
#369 = CARTESIAN_POINT ( 'NONE',  ( 1.268411506570323644, -1.587500000000000355, 21.42500000000000071 ) ) ;
#370 = VERTEX_POINT ( 'NONE', #53 ) ;
#371 = CARTESIAN_POINT ( 'NONE',  ( 0.000000000000000000, 0.000000000000000000, -27.53491914209798352 ) ) ;
#372 = ADVANCED_FACE ( 'NONE', ( #261, #407 ), #688, .F. ) ;
#373 = CARTESIAN_POINT ( 'NONE',  ( 1.587500000000000355, -1.268411506570323866, -27.68599999999999994 ) ) ;
#374 = EDGE_CURVE ( 'NONE', #778, #915, #652, .T. ) ;
#375 = CIRCLE ( 'NONE', #559, 2.399999999999999911 ) ;
#376 = CARTESIAN_POINT ( 'NONE',  ( 1.268411506570323866, -1.587500000000000355, 27.53491914209798352 ) ) ;
#377 = CARTESIAN_POINT ( 'NONE',  ( -1.268411506570323644, -1.587500000000000355, 27.53491914209798352 ) ) ;
#378 = ADVANCED_FACE ( 'NONE', ( #203 ), #833, .T. ) ;
#379 = CARTESIAN_POINT ( 'NONE',  ( -1.587500000000000355, -1.268411506570323866, -27.68599999999999994 ) ) ;
#380 = VECTOR ( 'NONE', #118, 1000.000000000000000 ) ;
#381 = CARTESIAN_POINT ( 'NONE',  ( 1.587500000000000577, -0.8514389605504939507, -27.61636751577920634 ) ) ;
#382 = ORIENTED_EDGE ( 'NONE', *, *, #654, .F. ) ;
#383 = DIRECTION ( 'NONE',  ( -0.000000000000000000, -0.000000000000000000, 1.000000000000000000 ) ) ;
#384 = CARTESIAN_POINT ( 'NONE',  ( 2.399999999999999911, 0.000000000000000000, 21.42500000000000071 ) ) ;
#385 = EDGE_CURVE ( 'NONE', #12, #79, #885, .T. ) ;
#386 = CIRCLE ( 'NONE', #597, 2.032000000000000028 ) ;
#387 = CARTESIAN_POINT ( 'NONE',  ( -1.587500000000000355, -1.268411506570323866, 27.53491914209798352 ) ) ;
#388 = CIRCLE ( 'NONE', #26, 2.032000000000000028 ) ;
#389 = ORIENTED_EDGE ( 'NONE', *, *, #653, .T. ) ;
#390 = CARTESIAN_POINT ( 'NONE',  ( 0.000000000000000000, 0.000000000000000000, 21.42500000000000426 ) ) ;
#391 = ORIENTED_EDGE ( 'NONE', *, *, #653, .F. ) ;
#392 = LINE ( 'NONE', #751, #345 ) ;
#393 = FACE_OUTER_BOUND ( 'NONE', #496, .T. ) ;
#394 = VECTOR ( 'NONE', #770, 1000.000000000000000 ) ;
#395 = DIRECTION ( 'NONE',  ( 0.000000000000000000, 0.000000000000000000, -1.000000000000000000 ) ) ;
#396 = ORIENTED_EDGE ( 'NONE', *, *, #374, .T. ) ;
#397 = DIRECTION ( 'NONE',  ( -0.000000000000000000, -0.000000000000000000, -1.000000000000000000 ) ) ;
#398 = EDGE_LOOP ( 'NONE', ( #698, #51, #750, #700 ) ) ;
#399 = FACE_OUTER_BOUND ( 'NONE', #423, .T. ) ;
#400 = CARTESIAN_POINT ( 'NONE',  ( -1.245064030267288402, 2.006622987633880009E-16, -27.68600000000000350 ) ) ;
#401 = EDGE_LOOP ( 'NONE', ( #572, #849, #894, #72, #767, #366, #673, #670 ) ) ;
#402 = VECTOR ( 'NONE', #441, 1000.000000000000000 ) ;
#403 = DIRECTION ( 'NONE',  ( -0.000000000000000000, -0.000000000000000000, 1.000000000000000000 ) ) ;
#404 = EDGE_CURVE ( 'NONE', #75, #540, #746, .T. ) ;
#405 = ORIENTED_EDGE ( 'NONE', *, *, #188, .F. ) ;
#406 = DIRECTION ( 'NONE',  ( -0.000000000000000000, -0.000000000000000000, 1.000000000000000000 ) ) ;
#407 = FACE_OUTER_BOUND ( 'NONE', #272, .T. ) ;
#408 = FACE_OUTER_BOUND ( 'NONE', #892, .T. ) ;
#409 = APPROVAL_ROLE ( '' ) ;
#410 = EDGE_CURVE ( 'NONE', #9, #249, #480, .T. ) ;
#411 = ORIENTED_EDGE ( 'NONE', *, *, #789, .T. ) ;
#412 = CARTESIAN_POINT ( 'NONE',  ( -1.587500000000000133, 1.061532360077855452, -27.58640206829358732 ) ) ;
#413 = VECTOR ( 'NONE', #395, 1000.000000000000000 ) ;
#414 = FACE_OUTER_BOUND ( 'NONE', #522, .T. ) ;
#415 = CALENDAR_DATE ( 2022, 6, 6 ) ;
#416 = ORIENTED_EDGE ( 'NONE', *, *, #759, .T. ) ;
#417 = LINE ( 'NONE', #255, #573 ) ;
#418 = CARTESIAN_POINT ( 'NONE',  ( -1.587500000000000355, 1.944126793646423534E-16, -27.65822736169286244 ) ) ;
#419 = EDGE_CURVE ( 'NONE', #890, #602, #859, .T. ) ;
#420 = DIRECTION ( 'NONE',  ( -0.000000000000000000, -0.000000000000000000, 1.000000000000000000 ) ) ;
#421 = COORDINATED_UNIVERSAL_TIME_OFFSET ( 6, 0, .BEHIND. ) ;
#422 = AXIS2_PLACEMENT_3D ( 'NONE', #809, #403, #103 ) ;
#423 = EDGE_LOOP ( 'NONE', ( #436, #618, #267, #243 ) ) ;
#424 = DIRECTION ( 'NONE',  ( 0.000000000000000000, 0.000000000000000000, -1.000000000000000000 ) ) ;
#425 = CARTESIAN_POINT ( 'NONE',  ( 0.2043756380772878412, 1.587500000000000133, -27.65840961896379468 ) ) ;
#426 = CC_DESIGN_PERSON_AND_ORGANIZATION_ASSIGNMENT ( #550, #842, ( #121 ) ) ;
#427 = CARTESIAN_POINT ( 'NONE',  ( 1.587500000000000355, 1.268411506570323866, -27.68599999999999994 ) ) ;
#428 = DATE_AND_TIME ( #613, #880 ) ;
#429 = CC_DESIGN_APPROVAL ( #526, ( #121 ) ) ;
#430 = EDGE_LOOP ( 'NONE', ( #719, #676, #596, #525, #209, #382, #633, #107 ) ) ;
#431 = DIRECTION ( 'NONE',  ( 1.000000000000000000, 0.000000000000000000, -0.000000000000000000 ) ) ;
#432 = VERTEX_POINT ( 'NONE', #47 ) ;
#433 = DIRECTION ( 'NONE',  ( 0.000000000000000000, 1.000000000000000000, 0.000000000000000000 ) ) ;
#434 = CARTESIAN_POINT ( 'NONE',  ( 1.587500000000000355, -1.061392899157111769, 27.58643677385166271 ) ) ;
#435 = EDGE_CURVE ( 'NONE', #75, #109, #500, .T. ) ;
#436 = ORIENTED_EDGE ( 'NONE', *, *, #789, .F. ) ;
#437 = VECTOR ( 'NONE', #733, 1000.000000000000000 ) ;
#438 = CARTESIAN_POINT ( 'NONE',  ( 1.587500000000000355, 0.4276219574846464866, 27.65199639200008264 ) ) ;
#439 = CARTESIAN_POINT ( 'NONE',  ( 1.268411506570323866, -1.587500000000000355, 27.53491914209798352 ) ) ;
#440 = VERTEX_POINT ( 'NONE', #766 ) ;
#441 = DIRECTION ( 'NONE',  ( 1.000000000000000000, 0.000000000000000000, 0.000000000000000000 ) ) ;
#442 = EDGE_CURVE ( 'NONE', #919, #84, #117, .T. ) ;
#443 = DIRECTION ( 'NONE',  ( 1.000000000000000000, 0.000000000000000000, 0.000000000000000000 ) ) ;
#444 = AXIS2_PLACEMENT_3D ( 'NONE', #588, #592, #459 ) ;
#445 = ORIENTED_EDGE ( 'NONE', *, *, #514, .T. ) ;
#446 = CARTESIAN_POINT ( 'NONE',  ( 0.000000000000000000, 0.000000000000000000, 27.53491914209798352 ) ) ;
#447 = DIRECTION ( 'NONE',  ( 0.000000000000000000, 0.000000000000000000, -1.000000000000000000 ) ) ;
#448 = AXIS2_PLACEMENT_3D ( 'NONE', #233, #662, #650 ) ;
#449 = CARTESIAN_POINT ( 'NONE',  ( 1.587500000000000355, -1.268411506570323866, 21.42500000000000071 ) ) ;
#450 = CARTESIAN_POINT ( 'NONE',  ( -1.587500000000000355, 1.268411506570323644, 27.53491914209798352 ) ) ;
#451 = CARTESIAN_POINT ( 'NONE',  ( -1.060147506033616516, 1.587500000000000133, 27.58674669625517595 ) ) ;
#452 = DIRECTION ( 'NONE',  ( 0.000000000000000000, 0.000000000000000000, -1.000000000000000000 ) ) ;
#453 = CARTESIAN_POINT ( 'NONE',  ( -1.587500000000000355, 1.268411506570323866, 22.22499999999999787 ) ) ;
#454 = TOROIDAL_SURFACE ( 'NONE', #158, 1.245064030267288402, 2.125000000000022649 ) ;
#455 = DIRECTION ( 'NONE',  ( 1.000000000000000000, 0.000000000000000000, 0.000000000000000000 ) ) ;
#456 = DIRECTION ( 'NONE',  ( 1.000000000000000000, 0.000000000000000000, 0.000000000000000000 ) ) ;
#457 = EDGE_LOOP ( 'NONE', ( #490, #536, #396, #217 ) ) ;
#458 = ADVANCED_FACE ( 'NONE', ( #130 ), #902, .T. ) ;
#459 = DIRECTION ( 'NONE',  ( 1.000000000000000000, 0.000000000000000000, 0.000000000000000000 ) ) ;
#460 = CIRCLE ( 'NONE', #422, 2.032000000000000028 ) ;
#461 = ORIENTED_EDGE ( 'NONE', *, *, #822, .F. ) ;
#462 = DIRECTION ( 'NONE',  ( -0.000000000000000000, -0.000000000000000000, 1.000000000000000000 ) ) ;
#463 = CC_DESIGN_PERSON_AND_ORGANIZATION_ASSIGNMENT ( #205, #477, ( #121 ) ) ;
#464 = CARTESIAN_POINT ( 'NONE',  ( -1.587500000000000355, -1.587500000000000355, 27.68599999999999994 ) ) ;
#465 = EDGE_LOOP ( 'NONE', ( #823, #609, #775, #99 ) ) ;
#466 = CARTESIAN_POINT ( 'NONE',  ( 1.268411506570323644, 1.587500000000000355, 27.53491914209798352 ) ) ;
#467 = ORIENTED_EDGE ( 'NONE', *, *, #323, .F. ) ;
#468 = CARTESIAN_POINT ( 'NONE',  ( 0.8571092511719563545, 1.587500000000000355, 27.63727379706277532 ) ) ;
#469 = CARTESIAN_POINT ( 'NONE',  ( 1.587500000000000133, -1.061532360077855452, -27.58640206829358732 ) ) ;
#470 = EDGE_CURVE ( 'NONE', #665, #898, #297, .T. ) ;
#471 = ORIENTED_EDGE ( 'NONE', *, *, #304, .T. ) ;
#472 = DIRECTION ( 'NONE',  ( 1.000000000000000000, -5.329070518200751394E-15, 0.000000000000000000 ) ) ;
#473 = DIRECTION ( 'NONE',  ( -0.000000000000000000, -0.000000000000000000, 1.000000000000000000 ) ) ;
#474 = CARTESIAN_POINT ( 'NONE',  ( 0.000000000000000000, 0.000000000000000000, -27.68599999999999994 ) ) ;
#475 = VERTEX_POINT ( 'NONE', #776 ) ;
#476 = VECTOR ( 'NONE', #748, 1000.000000000000000 ) ;
#477 = PERSON_AND_ORGANIZATION_ROLE ( 'design_supplier' ) ;
#478 = ORIENTED_EDGE ( 'NONE', *, *, #374, .F. ) ;
#479 = LINE ( 'NONE', #686, #15 ) ;
#480 = LINE ( 'NONE', #626, #843 ) ;
#481 = LINE ( 'NONE', #139, #886 ) ;
#482 = VERTEX_POINT ( 'NONE', #256 ) ;
#483 = DIRECTION ( 'NONE',  ( -1.000000000000000000, 1.224646799147353207E-16, 0.000000000000000000 ) ) ;
#484 = CARTESIAN_POINT ( 'NONE',  ( 0.000000000000000000, 0.000000000000000000, 27.53491914209798352 ) ) ;
#485 = DIRECTION ( 'NONE',  ( -1.000000000000000000, 0.000000000000000000, 0.000000000000000000 ) ) ;
#486 = APPROVAL_DATE_TIME ( #702, #693 ) ;
#487 = CARTESIAN_POINT ( 'NONE',  ( 1.268411506570323866, 1.587500000000000355, 22.22499999999999787 ) ) ;
#488 = EDGE_CURVE ( 'NONE', #29, #637, #336, .T. ) ;
#489 = DIRECTION ( 'NONE',  ( -0.000000000000000000, -0.000000000000000000, 1.000000000000000000 ) ) ;
#490 = ORIENTED_EDGE ( 'NONE', *, *, #514, .F. ) ;
#491 = PERSON_AND_ORGANIZATION ( #70, #7 ) ;
#492 = AXIS2_PLACEMENT_3D ( 'NONE', #216, #855, #220 ) ;
#493 = EDGE_LOOP ( 'NONE', ( #40, #858, #61, #818, #685 ) ) ;
#494 = CARTESIAN_POINT ( 'NONE',  ( 0.000000000000000000, 0.000000000000000000, 22.22499999999999787 ) ) ;
#495 = CARTESIAN_POINT ( 'NONE',  ( 0.000000000000000000, 0.000000000000000000, 27.68600000000000350 ) ) ;
#496 = EDGE_LOOP ( 'NONE', ( #564, #471, #143, #206 ) ) ;
#497 = LINE ( 'NONE', #503, #402 ) ;
#498 = AXIS2_PLACEMENT_3D ( 'NONE', #124, #544, #706 ) ;
#499 = CARTESIAN_POINT ( 'NONE',  ( 0.2043756380772878412, -1.587500000000000133, 27.65840961896379468 ) ) ;
#500 = CIRCLE ( 'NONE', #94, 1.245064030267288402 ) ;
#501 = EDGE_CURVE ( 'NONE', #331, #475, #561, .T. ) ;
#502 = ORIENTED_EDGE ( 'NONE', *, *, #419, .F. ) ;
#503 = CARTESIAN_POINT ( 'NONE',  ( -1.587500000000000355, -1.587500000000000355, 21.42500000000000071 ) ) ;
#504 = CARTESIAN_POINT ( 'NONE',  ( -1.587500000000000133, 0.2143109880596210937, 27.65822736169286600 ) ) ;
#505 = ORIENTED_EDGE ( 'NONE', *, *, #888, .T. ) ;
#506 = AXIS2_PLACEMENT_3D ( 'NONE', #553, #424, #537 ) ;
#507 = CARTESIAN_POINT ( 'NONE',  ( 0.000000000000000000, 0.000000000000000000, 21.42500000000000071 ) ) ;
#508 = DIRECTION ( 'NONE',  ( 1.000000000000000000, 0.000000000000000000, 0.000000000000000000 ) ) ;
#509 = ORIENTED_EDGE ( 'NONE', *, *, #822, .T. ) ;
#510 = EDGE_CURVE ( 'NONE', #556, #678, #375, .T. ) ;
#511 = DIRECTION ( 'NONE',  ( 1.000000000000000000, 0.000000000000000000, 0.000000000000000000 ) ) ;
#512 = CARTESIAN_POINT ( 'NONE',  ( 0.000000000000000000, 0.000000000000000000, 22.22499999999999787 ) ) ;
#513 = CARTESIAN_POINT ( 'NONE',  ( 1.587500000000000577, 0.4277385810629841800, -27.65198654358311003 ) ) ;
#514 = EDGE_CURVE ( 'NONE', #147, #84, #284, .T. ) ;
#515 = CARTESIAN_POINT ( 'NONE',  ( -1.587500000000000355, -1.587500000000000355, 22.22499999999999787 ) ) ;
#516 = DIRECTION ( 'NONE',  ( -0.000000000000000000, -0.000000000000000000, 1.000000000000000000 ) ) ;
#517 = DIRECTION ( 'NONE',  ( -0.000000000000000000, -0.000000000000000000, -1.000000000000000000 ) ) ;
#518 = EDGE_CURVE ( 'NONE', #600, #197, #497, .T. ) ;
#519 = CARTESIAN_POINT ( 'NONE',  ( -0.2043756380772878412, -1.587500000000000133, -27.65840961896379468 ) ) ;
#520 = DIRECTION ( 'NONE',  ( -0.000000000000000000, -0.000000000000000000, 1.000000000000000000 ) ) ;
#521 = CARTESIAN_POINT ( 'NONE',  ( -1.268411506570323866, 1.587500000000000355, 21.42500000000000426 ) ) ;
#522 = EDGE_LOOP ( 'NONE', ( #270, #780, #416, #3, #352, #752, #338, #312 ) ) ;
#523 = EDGE_CURVE ( 'NONE', #35, #432, #782, .T. ) ;
#524 = DIRECTION ( 'NONE',  ( 1.000000000000000000, 0.000000000000000000, 0.000000000000000000 ) ) ;
#525 = ORIENTED_EDGE ( 'NONE', *, *, #539, .F. ) ;
#526 = APPROVAL ( #900, 'UNSPECIFIED' ) ;
#527 = DIRECTION ( 'NONE',  ( 1.000000000000000000, 0.000000000000000000, 0.000000000000000000 ) ) ;
#528 = DIRECTION ( 'NONE',  ( 0.000000000000000000, 0.000000000000000000, -1.000000000000000000 ) ) ;
#529 = AXIS2_PLACEMENT_3D ( 'NONE', #666, #895, #582 ) ;
#530 = EDGE_LOOP ( 'NONE', ( #361, #194, #756, #150 ) ) ;
#531 = DIRECTION ( 'NONE',  ( 1.000000000000000000, 0.000000000000000000, 0.000000000000000000 ) ) ;
#532 = B_SPLINE_CURVE_WITH_KNOTS ( 'NONE', 3,
 ( #439, #783, #872, #305, #499, #156, #365, #377 ),
 .UNSPECIFIED., .F., .F.,
 ( 4, 2, 2, 4 ),
 ( 0.01485345774306994979, 0.01548583974386960604, 0.01611822174466926577, 0.01738298574626857829 ),
 .UNSPECIFIED. ) ;
#533 = VERTEX_POINT ( 'NONE', #13 ) ;
#534 = CARTESIAN_POINT ( 'NONE',  ( -0.4219230645619490017, -1.587500000000000577, -27.65230730355362354 ) ) ;
#535 = CIRCLE ( 'NONE', #728, 2.032000000000000028 ) ;
#536 = ORIENTED_EDGE ( 'NONE', *, *, #23, .T. ) ;
#537 = DIRECTION ( 'NONE',  ( 1.000000000000000000, 0.000000000000000000, 0.000000000000000000 ) ) ;
#538 = CARTESIAN_POINT ( 'NONE',  ( -1.587500000000000355, -1.587500000000000355, 22.22499999999999787 ) ) ;
#539 = EDGE_CURVE ( 'NONE', #141, #540, #703, .T. ) ;
#540 = VERTEX_POINT ( 'NONE', #791 ) ;
#541 = APPROVAL_ROLE ( '' ) ;
#542 = ORIENTED_EDGE ( 'NONE', *, *, #628, .F. ) ;
#543 = CARTESIAN_POINT ( 'NONE',  ( -1.587500000000000355, 1.587500000000000355, 27.68599999999999994 ) ) ;
#544 = DIRECTION ( 'NONE',  ( -0.000000000000000000, -0.000000000000000000, 1.000000000000000000 ) ) ;
#545 = ORIENTED_EDGE ( 'NONE', *, *, #23, .F. ) ;
#546 = CIRCLE ( 'NONE', #773, 2.125000000000022649 ) ;
#547 = CARTESIAN_POINT ( 'NONE',  ( 2.399999999999999911, 0.000000000000000000, 21.42500000000000071 ) ) ;
#548 = CARTESIAN_POINT ( 'NONE',  ( -0.4342314039556041672, 1.587500000000000355, -27.65785171744313331 ) ) ;
#549 = EDGE_LOOP ( 'NONE', ( #254, #157, #322, #563 ) ) ;
#550 = PERSON_AND_ORGANIZATION ( #70, #7 ) ;
#551 = ADVANCED_FACE ( 'NONE', ( #301 ), #574, .F. ) ;
#552 = EDGE_LOOP ( 'NONE', ( #623, #296, #467, #478, #405, #502, #112, #714 ) ) ;
#553 = CARTESIAN_POINT ( 'NONE',  ( 0.000000000000000000, 0.000000000000000000, 25.56099999999997507 ) ) ;
#554 = CARTESIAN_POINT ( 'NONE',  ( -1.587500000000000355, 1.268411506570323866, -27.53491914209798352 ) ) ;
#555 = ORIENTED_EDGE ( 'NONE', *, *, #323, .T. ) ;
#556 = VERTEX_POINT ( 'NONE', #10 ) ;
#557 = DIRECTION ( 'NONE',  ( 0.000000000000000000, 0.000000000000000000, 1.000000000000000000 ) ) ;
#558 = EDGE_LOOP ( 'NONE', ( #656, #127 ) ) ;
#559 = AXIS2_PLACEMENT_3D ( 'NONE', #507, #712, #578 ) ;
#560 = ORIENTED_EDGE ( 'NONE', *, *, #165, .T. ) ;
#561 = LINE ( 'NONE', #16, #164 ) ;
#562 = EDGE_CURVE ( 'NONE', #326, #370, #87, .T. ) ;
#563 = ORIENTED_EDGE ( 'NONE', *, *, #827, .T. ) ;
#564 = ORIENTED_EDGE ( 'NONE', *, *, #875, .T. ) ;
#565 = CARTESIAN_POINT ( 'NONE',  ( 0.000000000000000000, 0.000000000000000000, 25.56099999999997507 ) ) ;
#566 = CARTESIAN_POINT ( 'NONE',  ( -1.587500000000000355, -1.268411506570323866, -27.53491914209798352 ) ) ;
#567 = EDGE_LOOP ( 'NONE', ( #745, #585, #215, #660 ) ) ;
#568 = CARTESIAN_POINT ( 'NONE',  ( -1.587500000000000355, 1.944126793646423534E-16, -27.65822736169286244 ) ) ;
#569 = CARTESIAN_POINT ( 'NONE',  ( 0.000000000000000000, 0.000000000000000000, -27.68599999999999994 ) ) ;
#570 = EDGE_CURVE ( 'NONE', #79, #134, #237, .T. ) ;
#571 = AXIS2_PLACEMENT_3D ( 'NONE', #241, #668, #877 ) ;
#572 = ORIENTED_EDGE ( 'NONE', *, *, #343, .F. ) ;
#573 = VECTOR ( 'NONE', #473, 1000.000000000000000 ) ;
#574 = PLANE ( 'NONE',  #632 ) ;
#575 = CYLINDRICAL_SURFACE ( 'NONE', #303, 2.032000000000000028 ) ;
#576 = LOCAL_TIME ( 13, 57, 9.000000000000000000, #779 ) ;
#577 = EDGE_CURVE ( 'NONE', #35, #249, #386, .T. ) ;
#578 = DIRECTION ( 'NONE',  ( 1.000000000000000000, 0.000000000000000000, 0.000000000000000000 ) ) ;
#579 = FACE_OUTER_BOUND ( 'NONE', #549, .T. ) ;
#580 = VECTOR ( 'NONE', #163, 1000.000000000000000 ) ;
#581 = DIRECTION ( 'NONE',  ( 0.000000000000000000, 0.000000000000000000, -1.000000000000000000 ) ) ;
#582 = DIRECTION ( 'NONE',  ( 1.000000000000000000, 0.000000000000000000, 0.000000000000000000 ) ) ;
#583 = FACE_OUTER_BOUND ( 'NONE', #808, .T. ) ;
#584 = FACE_OUTER_BOUND ( 'NONE', #857, .T. ) ;
#585 = ORIENTED_EDGE ( 'NONE', *, *, #88, .T. ) ;
#586 = CARTESIAN_POINT ( 'NONE',  ( -1.060147506033616516, -1.587500000000000133, -27.58674669625517595 ) ) ;
#587 = SECURITY_CLASSIFICATION ( '', '', #133 ) ;
#588 = CARTESIAN_POINT ( 'NONE',  ( 0.000000000000000000, 0.000000000000000000, -27.68599999999999994 ) ) ;
#589 = EDGE_LOOP ( 'NONE', ( #545, #340, #214, #904 ) ) ;
#590 = EDGE_CURVE ( 'NONE', #440, #834, #645, .T. ) ;
#591 = AXIS2_PLACEMENT_3D ( 'NONE', #494, #359, #274 ) ;
#592 = DIRECTION ( 'NONE',  ( -0.000000000000000000, -0.000000000000000000, 1.000000000000000000 ) ) ;
#593 = ORIENTED_EDGE ( 'NONE', *, *, #435, .T. ) ;
#594 = CARTESIAN_POINT ( 'NONE',  ( 0.4342314039556041672, -1.587500000000000355, -27.65785171744313331 ) ) ;
#595 = EDGE_CURVE ( 'NONE', #898, #12, #236, .T. ) ;
#596 = ORIENTED_EDGE ( 'NONE', *, *, #404, .T. ) ;
#597 = AXIS2_PLACEMENT_3D ( 'NONE', #90, #85, #159 ) ;
#598 = CYLINDRICAL_SURFACE ( 'NONE', #444, 2.032000000000000028 ) ;
#599 = AXIS2_PLACEMENT_3D ( 'NONE', #191, #620, #50 ) ;
#600 = VERTEX_POINT ( 'NONE', #795 ) ;
#601 = APPLICATION_PROTOCOL_DEFINITION ( 'international standard', 'config_control_design', 1994, #635 ) ;
#602 = VERTEX_POINT ( 'NONE', #376 ) ;
#603 = CARTESIAN_POINT ( 'NONE',  ( -1.268411506570323644, -1.587500000000000355, 27.53491914209798352 ) ) ;
#604 = DIRECTION ( 'NONE',  ( 0.000000000000000000, 1.000000000000000000, -0.000000000000000000 ) ) ;
#605 = EDGE_LOOP ( 'NONE', ( #291, #240, #317, #132 ) ) ;
#606 = PERSON_AND_ORGANIZATION_ROLE ( 'design_owner' ) ;
#607 = CIRCLE ( 'NONE', #591, 2.399999999999999911 ) ;
#608 = B_SPLINE_CURVE_WITH_KNOTS ( 'NONE', 3,
 ( #302, #469, #381, #39, #742, #878 ),
 .UNSPECIFIED., .F., .F.,
 ( 4, 2, 4 ),
 ( 0.01485345774306994979, 0.01548163471194352082, 0.01610981168081709186 ),
 .UNSPECIFIED. ) ;
#609 = ORIENTED_EDGE ( 'NONE', *, *, #343, .T. ) ;
#610 = CARTESIAN_POINT ( 'NONE',  ( -1.587500000000000355, -1.587500000000000355, 27.68599999999999994 ) ) ;
#611 = CYLINDRICAL_SURFACE ( 'NONE', #498, 2.032000000000000028 ) ;
#612 = DIRECTION ( 'NONE',  ( 1.000000000000000000, 0.000000000000000000, 0.000000000000000000 ) ) ;
#613 = CALENDAR_DATE ( 2022, 6, 6 ) ;
#614 = LINE ( 'NONE', #547, #815 ) ;
#615 = CARTESIAN_POINT ( 'NONE',  ( -1.587500000000000577, 0.8514389605504939507, -27.61636751577920634 ) ) ;
#616 = AXIS2_PLACEMENT_3D ( 'NONE', #622, #353, #59 ) ;
#617 = EDGE_CURVE ( 'NONE', #153, #475, #758, .T. ) ;
#618 = ORIENTED_EDGE ( 'NONE', *, *, #763, .T. ) ;
#619 = VECTOR ( 'NONE', #462, 1000.000000000000000 ) ;
#620 = DIRECTION ( 'NONE',  ( 0.000000000000000000, 0.000000000000000000, 1.000000000000000000 ) ) ;
#621 = DIRECTION ( 'NONE',  ( 1.224646799147353207E-16, 1.000000000000000000, 0.000000000000000000 ) ) ;
#622 = CARTESIAN_POINT ( 'NONE',  ( 0.000000000000000000, 0.000000000000000000, 21.42500000000000071 ) ) ;
#623 = ORIENTED_EDGE ( 'NONE', *, *, #5, .F. ) ;
#624 = CC_DESIGN_PERSON_AND_ORGANIZATION_ASSIGNMENT ( #271, #606, ( #131 ) ) ;
#625 = ORIENTED_EDGE ( 'NONE', *, *, #106, .F. ) ;
#626 = CARTESIAN_POINT ( 'NONE',  ( -1.587500000000000355, 1.587500000000000355, 21.42500000000000071 ) ) ;
#627 = LINE ( 'NONE', #922, #80 ) ;
#628 = EDGE_CURVE ( 'NONE', #637, #331, #4, .T. ) ;
#629 = ORIENTED_EDGE ( 'NONE', *, *, #201, .T. ) ;
#630 = FACE_OUTER_BOUND ( 'NONE', #552, .T. ) ;
#631 = CARTESIAN_POINT ( 'NONE',  ( 0.000000000000000000, 0.000000000000000000, -27.53491914209798352 ) ) ;
#632 = AXIS2_PLACEMENT_3D ( 'NONE', #148, #433, #638 ) ;
#633 = ORIENTED_EDGE ( 'NONE', *, *, #590, .F. ) ;
#634 = CARTESIAN_POINT ( 'NONE',  ( 1.587500000000000355, 1.061392899157111325, -27.58643677385166271 ) ) ;
#635 = APPLICATION_CONTEXT ( 'configuration controlled 3d designs of mechanical parts and assemblies' ) ;
#636 = LINE ( 'NONE', #379, #580 ) ;
#637 = VERTEX_POINT ( 'NONE', #449 ) ;
#638 = DIRECTION ( 'NONE',  ( 0.000000000000000000, -0.000000000000000000, 1.000000000000000000 ) ) ;
#639 = AXIS2_PLACEMENT_3D ( 'NONE', #861, #447, #293 ) ;
#640 = DIRECTION ( 'NONE',  ( -0.000000000000000000, -0.000000000000000000, 1.000000000000000000 ) ) ;
#641 = EDGE_LOOP ( 'NONE', ( #784, #263, #226, #125 ) ) ;
#642 = DIRECTION ( 'NONE',  ( 1.000000000000000000, 0.000000000000000000, 0.000000000000000000 ) ) ;
#643 = DIRECTION ( 'NONE',  ( 1.000000000000000000, 0.000000000000000000, 0.000000000000000000 ) ) ;
#644 = ADVANCED_FACE ( 'NONE', ( #630 ), #694, .T. ) ;
#645 = CIRCLE ( 'NONE', #212, 2.032000000000000028 ) ;
#646 = CIRCLE ( 'NONE', #529, 2.032000000000000028 ) ;
#647 = CARTESIAN_POINT ( 'NONE',  ( 1.587500000000000355, 0.000000000000000000, -27.65822736169286244 ) ) ;
#648 = CYLINDRICAL_SURFACE ( 'NONE', #705, 2.032000000000000028 ) ;
#649 = ADVANCED_FACE ( 'NONE', ( #285 ), #307, .T. ) ;
#650 = DIRECTION ( 'NONE',  ( -1.000000000000000000, 0.000000000000000000, -0.000000000000000000 ) ) ;
#651 = CARTESIAN_POINT ( 'NONE',  ( 1.587500000000000355, -0.8513200635100123259, 27.61637755531811322 ) ) ;
#652 = CIRCLE ( 'NONE', #257, 2.032000000000000028 ) ;
#653 = EDGE_CURVE ( 'NONE', #370, #326, #754, .T. ) ;
#654 = EDGE_CURVE ( 'NONE', #834, #820, #36, .T. ) ;
#655 = CARTESIAN_POINT ( 'NONE',  ( 2.399999999999999911, 0.000000000000000000, 22.22499999999999787 ) ) ;
#656 = ORIENTED_EDGE ( 'NONE', *, *, #182, .T. ) ;
#657 = AXIS2_PLACEMENT_3D ( 'NONE', #168, #96, #813 ) ;
#658 = LINE ( 'NONE', #325, #170 ) ;
#659 = EDGE_CURVE ( 'NONE', #602, #251, #247, .T. ) ;
#660 = ORIENTED_EDGE ( 'NONE', *, *, #659, .T. ) ;
#661 = DIRECTION ( 'NONE',  ( 1.000000000000000000, 1.224646799147353207E-16, 0.000000000000000000 ) ) ;
#662 = DIRECTION ( 'NONE',  ( 0.000000000000000000, 0.000000000000000000, -1.000000000000000000 ) ) ;
#663 = DIRECTION ( 'NONE',  ( -0.000000000000000000, -0.000000000000000000, 1.000000000000000000 ) ) ;
#664 = ADVANCED_FACE ( 'NONE', ( #583 ), #730, .F. ) ;
#665 = VERTEX_POINT ( 'NONE', #169 ) ;
#666 = CARTESIAN_POINT ( 'NONE',  ( 0.000000000000000000, 0.000000000000000000, 22.22499999999999787 ) ) ;
#667 = CIRCLE ( 'NONE', #639, 2.032000000000000028 ) ;
#668 = DIRECTION ( 'NONE',  ( 0.000000000000000000, 0.000000000000000000, -1.000000000000000000 ) ) ;
#669 = FACE_OUTER_BOUND ( 'NONE', #349, .T. ) ;
#670 = ORIENTED_EDGE ( 'NONE', *, *, #518, .T. ) ;
#671 = ADVANCED_FACE ( 'NONE', ( #393 ), #19, .T. ) ;
#672 = LINE ( 'NONE', #805, #250 ) ;
#673 = ORIENTED_EDGE ( 'NONE', *, *, #304, .F. ) ;
#674 = CARTESIAN_POINT ( 'NONE',  ( -1.587500000000000355, 1.587500000000000355, 27.68599999999999994 ) ) ;
#675 = LINE ( 'NONE', #811, #413 ) ;
#676 = ORIENTED_EDGE ( 'NONE', *, *, #435, .F. ) ;
#677 = COORDINATED_UNIVERSAL_TIME_OFFSET ( 6, 0, .BEHIND. ) ;
#678 = VERTEX_POINT ( 'NONE', #384 ) ;
#679 = DIRECTION ( 'NONE',  ( -0.000000000000000000, -0.000000000000000000, -1.000000000000000000 ) ) ;
#680 = LOCAL_TIME ( 13, 57, 9.000000000000000000, #421 ) ;
#681 = CARTESIAN_POINT ( 'NONE',  ( 1.060147506033616516, 1.587500000000000133, -27.58674669625517595 ) ) ;
#682 = LINE ( 'NONE', #427, #380 ) ;
#683 = PERSON_AND_ORGANIZATION ( #70, #7 ) ;
#684 = VECTOR ( 'NONE', #604, 1000.000000000000000 ) ;
#685 = ORIENTED_EDGE ( 'NONE', *, *, #83, .T. ) ;
#686 = CARTESIAN_POINT ( 'NONE',  ( -1.587500000000000355, 1.587500000000000355, 22.22499999999999787 ) ) ;
#687 = ADVANCED_FACE ( 'NONE', ( #319, #816 ), #741, .T. ) ;
#688 = PLANE ( 'NONE',  #218 ) ;
#689 = DIRECTION ( 'NONE',  ( -0.000000000000000000, -0.000000000000000000, 1.000000000000000000 ) ) ;
#690 = ORIENTED_EDGE ( 'NONE', *, *, #595, .T. ) ;
#691 = FACE_OUTER_BOUND ( 'NONE', #605, .T. ) ;
#692 = DIRECTION ( 'NONE',  ( 1.000000000000000000, 0.000000000000000000, 0.000000000000000000 ) ) ;
#693 = APPROVAL ( #332, 'UNSPECIFIED' ) ;
#694 = TOROIDAL_SURFACE ( 'NONE', #832, 1.245064030267288402, 2.125000000000022649 ) ;
#695 = VERTEX_POINT ( 'NONE', #487 ) ;
#696 = AXIS2_PLACEMENT_3D ( 'NONE', #674, #113, #882 ) ;
#697 = APPROVAL_DATE_TIME ( #277, #526 ) ;
#698 = ORIENTED_EDGE ( 'NONE', *, *, #918, .T. ) ;
#699 = DIRECTION ( 'NONE',  ( -0.000000000000000000, -0.000000000000000000, 1.000000000000000000 ) ) ;
#700 = ORIENTED_EDGE ( 'NONE', *, *, #850, .T. ) ;
#701 = ADVANCED_FACE ( 'NONE', ( #769 ), #135, .T. ) ;
#702 = DATE_AND_TIME ( #768, #838 ) ;
#703 = B_SPLINE_CURVE_WITH_KNOTS ( 'NONE', 3,
 ( #151, #367, #77, #438, #785, #867 ),
 .UNSPECIFIED., .F., .F.,
 ( 4, 2, 4 ),
 ( 0.01485345774306994979, 0.01548163471194352082, 0.01610981168081709186 ),
 .UNSPECIFIED. ) ;
#704 = ORIENTED_EDGE ( 'NONE', *, *, #97, .T. ) ;
#705 = AXIS2_PLACEMENT_3D ( 'NONE', #865, #721, #508 ) ;
#706 = DIRECTION ( 'NONE',  ( 1.000000000000000000, 0.000000000000000000, 0.000000000000000000 ) ) ;
#707 = ORIENTED_EDGE ( 'NONE', *, *, #875, .F. ) ;
#708 = DIRECTION ( 'NONE',  ( 0.000000000000000000, -1.000000000000000000, 0.000000000000000000 ) ) ;
#709 = CARTESIAN_POINT ( 'NONE',  ( 1.587500000000000355, -1.268411506570323644, 27.53491914209798352 ) ) ;
#710 = AXIS2_PLACEMENT_3D ( 'NONE', #810, #520, #455 ) ;
#711 = EDGE_LOOP ( 'NONE', ( #391, #173 ) ) ;
#712 = DIRECTION ( 'NONE',  ( 0.000000000000000000, 0.000000000000000000, 1.000000000000000000 ) ) ;
#713 = LINE ( 'NONE', #515, #49 ) ;
#714 = ORIENTED_EDGE ( 'NONE', *, *, #404, .F. ) ;
#715 = DIRECTION ( 'NONE',  ( 0.000000000000000000, 0.000000000000000000, -1.000000000000000000 ) ) ;
#716 = ADVANCED_FACE ( 'NONE', ( #268 ), #57, .F. ) ;
#717 = VECTOR ( 'NONE', #104, 1000.000000000000000 ) ;
#718 = LINE ( 'NONE', #232, #807 ) ;
#719 = ORIENTED_EDGE ( 'NONE', *, *, #862, .F. ) ;
#720 = CARTESIAN_POINT ( 'NONE',  ( -1.587500000000000577, -0.4277385810629846241, -27.65198654358310648 ) ) ;
#721 = DIRECTION ( 'NONE',  ( -0.000000000000000000, -0.000000000000000000, 1.000000000000000000 ) ) ;
#722 = TOROIDAL_SURFACE ( 'NONE', #506, 1.245064030267288402, 2.125000000000022649 ) ;
#723 = CARTESIAN_POINT ( 'NONE',  ( -1.587500000000000133, -0.2143109880596212047, -27.65822736169286600 ) ) ;
#724 = DIRECTION ( 'NONE',  ( -0.000000000000000000, -0.000000000000000000, 1.000000000000000000 ) ) ;
#725 = EDGE_CURVE ( 'NONE', #326, #79, #265, .T. ) ;
#726 = CARTESIAN_POINT ( 'NONE',  ( 1.268411506570323644, 1.587500000000000355, 27.53491914209798352 ) ) ;
#727 = CARTESIAN_POINT ( 'NONE',  ( -1.587500000000000355, 1.268411506570323866, -27.68599999999999994 ) ) ;
#728 = AXIS2_PLACEMENT_3D ( 'NONE', #631, #286, #643 ) ;
#729 =( LENGTH_UNIT ( ) NAMED_UNIT ( * ) SI_UNIT ( .MILLI., .METRE. ) );
#730 = PLANE ( 'NONE',  #571 ) ;
#731 = FACE_OUTER_BOUND ( 'NONE', #69, .T. ) ;
#732 = ORIENTED_EDGE ( 'NONE', *, *, #385, .F. ) ;
#733 = DIRECTION ( 'NONE',  ( 0.000000000000000000, 0.000000000000000000, -1.000000000000000000 ) ) ;
#734 = AXIS2_PLACEMENT_3D ( 'NONE', #371, #298, #511 ) ;
#735 = TOROIDAL_SURFACE ( 'NONE', #657, 1.245064030267288402, 2.125000000000022649 ) ;
#736 = ADVANCED_FACE ( 'NONE', ( #691 ), #46, .F. ) ;
#737 = CARTESIAN_POINT ( 'NONE',  ( 1.587500000000000355, -1.587500000000000355, 22.22499999999999787 ) ) ;
#738 = ORIENTED_EDGE ( 'NONE', *, *, #442, .T. ) ;
#739 = FACE_OUTER_BOUND ( 'NONE', #854, .T. ) ;
#740 = CC_DESIGN_SECURITY_CLASSIFICATION ( #587, ( #121 ) ) ;
#741 = PLANE ( 'NONE',  #907 ) ;
#742 = CARTESIAN_POINT ( 'NONE',  ( 1.587500000000000355, -0.2114796877013869481, -27.65822736169286244 ) ) ;
#743 = CC_DESIGN_PERSON_AND_ORGANIZATION_ASSIGNMENT ( #905, #55, ( #835 ) ) ;
#744 = DESIGN_CONTEXT ( 'detailed design', #879, 'design' ) ;
#745 = ORIENTED_EDGE ( 'NONE', *, *, #803, .F. ) ;
#746 = CIRCLE ( 'NONE', #337, 2.125000000000022649 ) ;
#747 = CARTESIAN_POINT ( 'NONE',  ( -1.268411506570323866, 1.587500000000000355, -27.53491914209798352 ) ) ;
#748 = DIRECTION ( 'NONE',  ( 0.000000000000000000, 0.000000000000000000, -1.000000000000000000 ) ) ;
#749 = FACE_OUTER_BOUND ( 'NONE', #457, .T. ) ;
#750 = ORIENTED_EDGE ( 'NONE', *, *, #501, .T. ) ;
#751 = CARTESIAN_POINT ( 'NONE',  ( -1.268411506570323866, -1.587500000000000355, -27.68599999999999994 ) ) ;
#752 = ORIENTED_EDGE ( 'NONE', *, *, #903, .F. ) ;
#753 = CARTESIAN_POINT ( 'NONE',  ( 0.000000000000000000, 0.000000000000000000, 21.42500000000000071 ) ) ;
#754 = CIRCLE ( 'NONE', #362, 1.245064030267288402 ) ;
#755 = CARTESIAN_POINT ( 'NONE',  ( 0.8486262390323825455, 1.587500000000000577, -27.61676882282394629 ) ) ;
#756 = ORIENTED_EDGE ( 'NONE', *, *, #182, .F. ) ;
#757 = PERSON_AND_ORGANIZATION ( #70, #7 ) ;
#758 = B_SPLINE_CURVE_WITH_KNOTS ( 'NONE', 3,
 ( #647, #231, #513, #73, #634, #799 ),
 .UNSPECIFIED., .F., .F.,
 ( 4, 2, 4 ),
 ( 0.000000000000000000, 0.0006365870327257439716, 0.001273174065451487726 ),
 .UNSPECIFIED. ) ;
#759 = EDGE_CURVE ( 'NONE', #370, #153, #908, .T. ) ;
#760 = DIRECTION ( 'NONE',  ( 0.000000000000000000, 0.000000000000000000, -1.000000000000000000 ) ) ;
#761 = DIRECTION ( 'NONE',  ( 0.000000000000000000, 0.000000000000000000, 1.000000000000000000 ) ) ;
#762 = CARTESIAN_POINT ( 'NONE',  ( 1.587500000000000355, -1.268411506570323866, -27.53491914209798352 ) ) ;
#763 = EDGE_CURVE ( 'NONE', #695, #279, #479, .T. ) ;
#764 = AXIS2_PLACEMENT_3D ( 'NONE', #512, #792, #82 ) ;
#765 = DIRECTION ( 'NONE',  ( 0.000000000000000000, 0.000000000000000000, 1.000000000000000000 ) ) ;
#766 = CARTESIAN_POINT ( 'NONE',  ( -1.587500000000000355, 1.268411506570323644, 27.53491914209798352 ) ) ;
#767 = ORIENTED_EDGE ( 'NONE', *, *, #577, .F. ) ;
#768 = CALENDAR_DATE ( 2022, 6, 6 ) ;
#769 = FACE_OUTER_BOUND ( 'NONE', #567, .T. ) ;
#770 = DIRECTION ( 'NONE',  ( 0.000000000000000000, -1.000000000000000000, 0.000000000000000000 ) ) ;
#771 = ADVANCED_FACE ( 'NONE', ( #202 ), #722, .T. ) ;
#772 = DIRECTION ( 'NONE',  ( 1.000000000000000000, 0.000000000000000000, 0.000000000000000000 ) ) ;
#773 = AXIS2_PLACEMENT_3D ( 'NONE', #238, #22, #661 ) ;
#774 = PERSON_AND_ORGANIZATION_ROLE ( 'classification_officer' ) ;
#775 = ORIENTED_EDGE ( 'NONE', *, *, #230, .T. ) ;
#776 = CARTESIAN_POINT ( 'NONE',  ( 1.587500000000000355, 1.268411506570323866, -27.53491914209798352 ) ) ;
#777 = CC_DESIGN_APPROVAL ( #308, ( #587 ) ) ;
#778 = VERTEX_POINT ( 'NONE', #603 ) ;
#779 = COORDINATED_UNIVERSAL_TIME_OFFSET ( 6, 0, .BEHIND. ) ;
#780 = ORIENTED_EDGE ( 'NONE', *, *, #562, .T. ) ;
#781 = AXIS2_PLACEMENT_3D ( 'NONE', #390, #32, #817 ) ;
#782 = LINE ( 'NONE', #870, #114 ) ;
#783 = CARTESIAN_POINT ( 'NONE',  ( 1.060147506033616516, -1.587500000000000133, 27.58674669625517595 ) ) ;
#784 = ORIENTED_EDGE ( 'NONE', *, *, #6, .F. ) ;
#785 = CARTESIAN_POINT ( 'NONE',  ( 1.587500000000000355, 0.2114796877013869481, 27.65822736169286244 ) ) ;
#786 = CARTESIAN_POINT ( 'NONE',  ( -1.587500000000000355, 0.8513200635100123259, 27.61637755531811322 ) ) ;
#787 = AXIS2_PLACEMENT_3D ( 'NONE', #364, #292, #642 ) ;
#788 = CIRCLE ( 'NONE', #299, 2.032000000000000028 ) ;
#789 = EDGE_CURVE ( 'NONE', #695, #820, #417, .T. ) ;
#790 = VERTEX_POINT ( 'NONE', #347 ) ;
#791 = CARTESIAN_POINT ( 'NONE',  ( 1.587500000000000355, 0.000000000000000000, 27.65822736169286244 ) ) ;
#792 = DIRECTION ( 'NONE',  ( 0.000000000000000000, 0.000000000000000000, 1.000000000000000000 ) ) ;
#793 = ORIENTED_EDGE ( 'NONE', *, *, #385, .T. ) ;
#794 = EDGE_CURVE ( 'NONE', #678, #219, #614, .T. ) ;
#795 = CARTESIAN_POINT ( 'NONE',  ( -1.268411506570323644, -1.587500000000000355, 21.42500000000000426 ) ) ;
#796 = AXIS2_PLACEMENT_3D ( 'NONE', #24, #517, #252 ) ;
#797 = VECTOR ( 'NONE', #8, 1000.000000000000000 ) ;
#798 = CARTESIAN_POINT ( 'NONE',  ( -1.268411506570323866, -1.587500000000000355, 22.22499999999999787 ) ) ;
#799 = CARTESIAN_POINT ( 'NONE',  ( 1.587500000000000355, 1.268411506570323866, -27.53491914209798352 ) ) ;
#800 = DIRECTION ( 'NONE',  ( 1.000000000000000000, 0.000000000000000000, 0.000000000000000000 ) ) ;
#801 = EDGE_CURVE ( 'NONE', #678, #556, #137, .T. ) ;
#802 = DIRECTION ( 'NONE',  ( -0.000000000000000000, -0.000000000000000000, -1.000000000000000000 ) ) ;
#803 = EDGE_CURVE ( 'NONE', #533, #251, #788, .T. ) ;
#804 = ADVANCED_FACE ( 'NONE', ( #341 ), #207, .T. ) ;
#805 = CARTESIAN_POINT ( 'NONE',  ( 1.268411506570323866, 1.587500000000000355, -27.68599999999999994 ) ) ;
#806 = CARTESIAN_POINT ( 'NONE',  ( 1.587500000000000355, -1.587500000000000355, 27.68599999999999994 ) ) ;
#807 = VECTOR ( 'NONE', #581, 1000.000000000000000 ) ;
#808 = EDGE_LOOP ( 'NONE', ( #593, #923 ) ) ;
#809 = CARTESIAN_POINT ( 'NONE',  ( 0.000000000000000000, 0.000000000000000000, -27.53491914209798352 ) ) ;
#810 = CARTESIAN_POINT ( 'NONE',  ( 0.000000000000000000, 0.000000000000000000, -27.68599999999999994 ) ) ;
#811 = CARTESIAN_POINT ( 'NONE',  ( -1.268411506570323866, 1.587500000000000355, -27.68599999999999994 ) ) ;
#812 = ORIENTED_EDGE ( 'NONE', *, *, #295, .F. ) ;
#813 = DIRECTION ( 'NONE',  ( 1.000000000000000000, 0.000000000000000000, 0.000000000000000000 ) ) ;
#814 = ADVANCED_FACE ( 'NONE', ( #399 ), #260, .F. ) ;
#815 = VECTOR ( 'NONE', #765, 1000.000000000000000 ) ;
#816 = FACE_OUTER_BOUND ( 'NONE', #558, .T. ) ;
#817 = DIRECTION ( 'NONE',  ( 1.000000000000000000, 0.000000000000000000, 0.000000000000000000 ) ) ;
#818 = ORIENTED_EDGE ( 'NONE', *, *, #539, .T. ) ;
#819 =( NAMED_UNIT ( * ) SI_UNIT ( $, .STERADIAN. ) SOLID_ANGLE_UNIT ( ) );
#820 = VERTEX_POINT ( 'NONE', #466 ) ;
#821 = CARTESIAN_POINT ( 'NONE',  ( -1.587500000000000133, -1.061532360077855452, 27.58640206829358732 ) ) ;
#822 = EDGE_CURVE ( 'NONE', #12, #35, #180, .T. ) ;
#823 = ORIENTED_EDGE ( 'NONE', *, *, #488, .T. ) ;
#824 = AXIS2_PLACEMENT_3D ( 'NONE', #78, #724, #91 ) ;
#825 = DIRECTION ( 'NONE',  ( -1.000000000000000000, 0.000000000000000000, 0.000000000000000000 ) ) ;
#826 = DIRECTION ( 'NONE',  ( -1.000000000000000000, 0.000000000000000000, 0.000000000000000000 ) ) ;
#827 = EDGE_CURVE ( 'NONE', #834, #279, #108, .T. ) ;
#828 = ORIENTED_EDGE ( 'NONE', *, *, #763, .F. ) ;
#829 = PERSON_AND_ORGANIZATION ( #70, #7 ) ;
#830 = ORIENTED_EDGE ( 'NONE', *, *, #510, .F. ) ;
#831 = DIRECTION ( 'NONE',  ( 1.000000000000000000, 0.000000000000000000, 0.000000000000000000 ) ) ;
#832 = AXIS2_PLACEMENT_3D ( 'NONE', #565, #860, #527 ) ;
#833 = CYLINDRICAL_SURFACE ( 'NONE', #320, 2.032000000000000028 ) ;
#834 = VERTEX_POINT ( 'NONE', #244 ) ;
#835 = PRODUCT_DEFINITION ( 'UNKNOWN', '', #121, #744 ) ;
#836 = APPROVAL_DATE_TIME ( #428, #308 ) ;
#837 = ORIENTED_EDGE ( 'NONE', *, *, #850, .F. ) ;
#838 = LOCAL_TIME ( 13, 57, 9.000000000000000000, #911 ) ;
#839 = DIRECTION ( 'NONE',  ( 0.000000000000000000, -1.000000000000000000, 0.000000000000000000 ) ) ;
#840 = DIRECTION ( 'NONE',  ( -1.000000000000000000, 0.000000000000000000, 0.000000000000000000 ) ) ;
#841 = CARTESIAN_POINT ( 'NONE',  ( 1.587500000000000355, -1.587500000000000355, 27.68599999999999994 ) ) ;
#842 = PERSON_AND_ORGANIZATION_ROLE ( 'creator' ) ;
#843 = VECTOR ( 'NONE', #840, 1000.000000000000000 ) ;
#844 = ADVANCED_FACE ( 'NONE', ( #739 ), #735, .T. ) ;
#845 = DIRECTION ( 'NONE',  ( 1.000000000000000000, 0.000000000000000000, 0.000000000000000000 ) ) ;
#846 = CARTESIAN_POINT ( 'NONE',  ( 1.268411506570323866, 1.587500000000000355, -27.53491914209798352 ) ) ;
#847 = ORIENTED_EDGE ( 'NONE', *, *, #501, .F. ) ;
#848 = SHAPE_DEFINITION_REPRESENTATION ( #281, #171 ) ;
#849 = ORIENTED_EDGE ( 'NONE', *, *, #628, .T. ) ;
#850 = EDGE_CURVE ( 'NONE', #475, #665, #460, .T. ) ;
#851 = DIRECTION ( 'NONE',  ( 0.000000000000000000, 0.000000000000000000, -1.000000000000000000 ) ) ;
#852 = VECTOR ( 'NONE', #288, 1000.000000000000000 ) ;
#853 = ORIENTED_EDGE ( 'NONE', *, *, #470, .F. ) ;
#854 = EDGE_LOOP ( 'NONE', ( #389, #44, #732, #887, #853, #837, #102, #287 ) ) ;
#855 = DIRECTION ( 'NONE',  ( -0.000000000000000000, -0.000000000000000000, -1.000000000000000000 ) ) ;
#856 = APPROVAL_PERSON_ORGANIZATION ( #829, #693, #409 ) ;
#857 = EDGE_LOOP ( 'NONE', ( #67, #461, #793, #866, #258 ) ) ;
#858 = ORIENTED_EDGE ( 'NONE', *, *, #334, .T. ) ;
#859 = CIRCLE ( 'NONE', #34, 2.032000000000000028 ) ;
#860 = DIRECTION ( 'NONE',  ( 0.000000000000000000, 0.000000000000000000, -1.000000000000000000 ) ) ;
#861 = CARTESIAN_POINT ( 'NONE',  ( 0.000000000000000000, 0.000000000000000000, 27.53491914209798352 ) ) ;
#862 = EDGE_CURVE ( 'NONE', #109, #115, #546, .T. ) ;
#863 = EDGE_LOOP ( 'NONE', ( #812, #411, #704, #25 ) ) ;
#864 = CARTESIAN_POINT ( 'NONE',  ( -1.587500000000000355, -0.8513200635100124369, -27.61637755531811322 ) ) ;
#865 = CARTESIAN_POINT ( 'NONE',  ( 0.000000000000000000, 0.000000000000000000, -27.68599999999999994 ) ) ;
#866 = ORIENTED_EDGE ( 'NONE', *, *, #570, .T. ) ;
#867 = CARTESIAN_POINT ( 'NONE',  ( 1.587500000000000355, 0.000000000000000000, 27.65822736169286244 ) ) ;
#868 = CARTESIAN_POINT ( 'NONE',  ( 1.245064030267288402, 0.000000000000000000, 27.68600000000000350 ) ) ;
#869 = EDGE_CURVE ( 'NONE', #9, #331, #388, .T. ) ;
#870 = CARTESIAN_POINT ( 'NONE',  ( -1.587500000000000355, -1.587500000000000355, 21.42500000000000071 ) ) ;
#871 = AXIS2_PLACEMENT_3D ( 'NONE', #464, #524, #452 ) ;
#872 = CARTESIAN_POINT ( 'NONE',  ( 0.8486262390323825455, -1.587500000000000577, 27.61676882282394629 ) ) ;
#873 = CC_DESIGN_DATE_AND_TIME_ASSIGNMENT ( #259, #140, ( #835 ) ) ;
#874 = CARTESIAN_POINT ( 'NONE',  ( -1.587500000000000355, -1.944126793646423534E-16, 27.65822736169286244 ) ) ;
#875 = EDGE_CURVE ( 'NONE', #200, #600, #392, .T. ) ;
#876 = CARTESIAN_POINT ( 'NONE',  ( -1.268411506570323866, 1.587500000000000355, -27.68599999999999994 ) ) ;
#877 = DIRECTION ( 'NONE',  ( -1.000000000000000000, 0.000000000000000000, -0.000000000000000000 ) ) ;
#878 = CARTESIAN_POINT ( 'NONE',  ( 1.587500000000000355, 0.000000000000000000, -27.65822736169286244 ) ) ;
#879 = APPLICATION_CONTEXT ( 'configuration controlled 3d designs of mechanical parts and assemblies' ) ;
#880 = LOCAL_TIME ( 13, 57, 9.000000000000000000, #677 ) ;
#881 = EDGE_LOOP ( 'NONE', ( #178, #282, #41, #445, #283, #505, #828, #190 ) ) ;
#882 = DIRECTION ( 'NONE',  ( 0.000000000000000000, -0.000000000000000000, -1.000000000000000000 ) ) ;
#883 = CARTESIAN_POINT ( 'NONE',  ( 1.268411506570323866, -1.587500000000000355, -27.68599999999999994 ) ) ;
#884 = PLANE ( 'NONE',  #871 ) ;
#885 = B_SPLINE_CURVE_WITH_KNOTS ( 'NONE', 3,
 ( #554, #412, #615, #342, #897, #418 ),
 .UNSPECIFIED., .F., .F.,
 ( 4, 2, 4 ),
 ( 0.01485345774306994979, 0.01548163471194352082, 0.01610981168081709186 ),
 .UNSPECIFIED. ) ;
#886 = VECTOR ( 'NONE', #65, 1000.000000000000000 ) ;
#887 = ORIENTED_EDGE ( 'NONE', *, *, #595, .F. ) ;
#888 = EDGE_CURVE ( 'NONE', #919, #279, #646, .T. ) ;
#889 = PLANE ( 'NONE',  #229 ) ;
#890 = VERTEX_POINT ( 'NONE', #37 ) ;
#891 = CARTESIAN_POINT ( 'NONE',  ( 0.8571092511719563545, -1.587500000000000355, -27.63727379706277532 ) ) ;
#892 = EDGE_LOOP ( 'NONE', ( #542, #346, #629, #184, #847 ) ) ;
#893 = CARTESIAN_POINT ( 'NONE',  ( 0.000000000000000000, 0.000000000000000000, -27.68599999999999994 ) ) ;
#894 = ORIENTED_EDGE ( 'NONE', *, *, #869, .F. ) ;
#895 = DIRECTION ( 'NONE',  ( -0.000000000000000000, -0.000000000000000000, -1.000000000000000000 ) ) ;
#896 = DIRECTION ( 'NONE',  ( 0.000000000000000000, -0.000000000000000000, 1.000000000000000000 ) ) ;
#897 = CARTESIAN_POINT ( 'NONE',  ( -1.587500000000000355, 0.2114796877013869481, -27.65822736169286244 ) ) ;
#898 = VERTEX_POINT ( 'NONE', #747 ) ;
#899 = CIRCLE ( 'NONE', #275, 2.032000000000000028 ) ;
#900 = APPROVAL_STATUS ( 'not_yet_approved' ) ;
#901 = CARTESIAN_POINT ( 'NONE',  ( 0.000000000000000000, 0.000000000000000000, 21.42500000000000071 ) ) ;
#902 = CYLINDRICAL_SURFACE ( 'NONE', #616, 2.399999999999999911 ) ;
#903 = EDGE_CURVE ( 'NONE', #200, #482, #246, .T. ) ;
#904 = ORIENTED_EDGE ( 'NONE', *, *, #188, .T. ) ;
#905 = PERSON_AND_ORGANIZATION ( #70, #7 ) ;
#906 = DIRECTION ( 'NONE',  ( 1.000000000000000000, 0.000000000000000000, 0.000000000000000000 ) ) ;
#907 = AXIS2_PLACEMENT_3D ( 'NONE', #38, #198, #42 ) ;
#908 = CIRCLE ( 'NONE', #179, 2.125000000000022649 ) ;
#909 = DIRECTION ( 'NONE',  ( -1.000000000000000000, 0.000000000000000000, 0.000000000000000000 ) ) ;
#910 = EDGE_LOOP ( 'NONE', ( #122, #707, #276, #358 ) ) ;
#911 = COORDINATED_UNIVERSAL_TIME_OFFSET ( 6, 0, .BEHIND. ) ;
#912 = CC_DESIGN_APPROVAL ( #693, ( #835 ) ) ;
#913 = DIRECTION ( 'NONE',  ( 0.000000000000000000, 0.000000000000000000, 1.000000000000000000 ) ) ;
#914 = CARTESIAN_POINT ( 'NONE',  ( 0.000000000000000000, 0.000000000000000000, 27.53491914209798352 ) ) ;
#915 = VERTEX_POINT ( 'NONE', #318 ) ;
#916 = APPLICATION_PROTOCOL_DEFINITION ( 'international standard', 'config_control_design', 1994, #879 ) ;
#917 = CIRCLE ( 'NONE', #781, 2.032000000000000028 ) ;
#918 = EDGE_CURVE ( 'NONE', #665, #9, #672, .T. ) ;
#919 = VERTEX_POINT ( 'NONE', #453 ) ;
#920 = CARTESIAN_POINT ( 'NONE',  ( -1.268411506570323866, 1.587500000000000355, -27.53491914209798352 ) ) ;
#921 = B_SPLINE_CURVE_WITH_KNOTS ( 'NONE', 3,
 ( #387, #821, #183, #310, #95, #242 ),
 .UNSPECIFIED., .F., .F.,
 ( 4, 2, 4 ),
 ( 0.01485345774306994979, 0.01548163471194352082, 0.01610981168081709186 ),
 .UNSPECIFIED. ) ;
#922 = CARTESIAN_POINT ( 'NONE',  ( -1.268411506570323866, -1.587500000000000355, -27.68599999999999994 ) ) ;
#923 = ORIENTED_EDGE ( 'NONE', *, *, #5, .T. ) ;
ENDSEC;
END-ISO-10303-21;
