ISO-10303-21;
HEADER;
FILE_DESCRIPTION (( 'STEP AP203' ),
    '1' );
FILE_NAME ('228-2500-082.step',
    '2022-06-06T18:57:34',
    ( '' ),
    ( '' ),
    'SwSTEP 2.0',
    'SolidWorks 2021',
    '' );
FILE_SCHEMA (( 'CONFIG_CONTROL_DESIGN' ));
ENDSEC;

DATA;
#1 = CARTESIAN_POINT ( 'NONE',  ( -1.587500000000000355, -1.268411506570324088, -24.35991914209798637 ) ) ;
#2 = DIRECTION ( 'NONE',  ( -0.000000000000000000, -0.000000000000000000, 1.000000000000000000 ) ) ;
#3 = AXIS2_PLACEMENT_3D ( 'NONE', #99, #353, #264 ) ;
#4 = AXIS2_PLACEMENT_3D ( 'NONE', #254, #349, #14 ) ;
#5 = ORIENTED_EDGE ( 'NONE', *, *, #393, .T. ) ;
#6 = AXIS2_PLACEMENT_3D ( 'NONE', #114, #438, #311 ) ;
#7 = CARTESIAN_POINT ( 'NONE',  ( -1.060147506033616516, -1.587500000000000133, -24.41174669625518234 ) ) ;
#8 = ORIENTED_EDGE ( 'NONE', *, *, #291, .F. ) ;
#9 = CARTESIAN_POINT ( 'NONE',  ( -2.399999999999999911, 0.000000000000000000, 24.51100000000000279 ) ) ;
#10 = ORIENTED_EDGE ( 'NONE', *, *, #121, .T. ) ;
#11 = AXIS2_PLACEMENT_3D ( 'NONE', #267, #202, #435 ) ;
#12 = EDGE_CURVE ( 'NONE', #324, #272, #199, .T. ) ;
#13 = PRODUCT_DEFINITION_FORMATION_WITH_SPECIFIED_SOURCE ( 'ANY', '', #299, .NOT_KNOWN. ) ;
#14 = DIRECTION ( 'NONE',  ( 1.000000000000000000, 0.000000000000000000, 0.000000000000000000 ) ) ;
#15 = VERTEX_POINT ( 'NONE', #489 ) ;
#16 = DIRECTION ( 'NONE',  ( 0.000000000000000000, 0.000000000000000000, 1.000000000000000000 ) ) ;
#17 = ORIENTED_EDGE ( 'NONE', *, *, #517, .F. ) ;
#18 = DIRECTION ( 'NONE',  ( 0.000000000000000000, 0.000000000000000000, 1.000000000000000000 ) ) ;
#19 = CARTESIAN_POINT ( 'NONE',  ( 0.000000000000000000, 0.000000000000000000, -24.51100000000000634 ) ) ;
#20 = AXIS2_PLACEMENT_3D ( 'NONE', #546, #167, #204 ) ;
#21 = VERTEX_POINT ( 'NONE', #73 ) ;
#22 = DESIGN_CONTEXT ( 'detailed design', #337, 'design' ) ;
#23 = APPROVAL_DATE_TIME ( #151, #225 ) ;
#24 = FACE_OUTER_BOUND ( 'NONE', #395, .T. ) ;
#25 = VERTEX_POINT ( 'NONE', #406 ) ;
#26 = APPROVAL ( #63, 'UNSPECIFIED' ) ;
#27 = PERSON_AND_ORGANIZATION_ROLE ( 'design_supplier' ) ;
#28 = APPLICATION_CONTEXT ( 'configuration controlled 3d designs of mechanical parts and assemblies' ) ;
#29 = DIRECTION ( 'NONE',  ( 1.000000000000000000, 0.000000000000000000, -0.000000000000000000 ) ) ;
#30 = VERTEX_POINT ( 'NONE', #34 ) ;
#31 = PERSON_AND_ORGANIZATION_ROLE ( 'creator' ) ;
#32 = EDGE_CURVE ( 'NONE', #30, #475, #483, .T. ) ;
#33 = DIRECTION ( 'NONE',  ( 0.000000000000000000, 0.000000000000000000, 1.000000000000000000 ) ) ;
#34 = CARTESIAN_POINT ( 'NONE',  ( -1.268411506570324088, 1.587500000000000355, -24.35991914209798637 ) ) ;
#35 = CC_DESIGN_DATE_AND_TIME_ASSIGNMENT ( #487, #113, ( #173 ) ) ;
#36 = CARTESIAN_POINT ( 'NONE',  ( 1.587500000000000355, -0.2114796877013869481, -24.48322736169286529 ) ) ;
#37 = CARTESIAN_POINT ( 'NONE',  ( -1.268411506570324088, 1.587500000000000355, -24.35991914209798637 ) ) ;
#38 = CYLINDRICAL_SURFACE ( 'NONE', #20, 2.399999999999999911 ) ;
#39 = CARTESIAN_POINT ( 'NONE',  ( 1.587500000000000355, 0.000000000000000000, -24.48322736169286884 ) ) ;
#40 = CARTESIAN_POINT ( 'NONE',  ( 1.587500000000000355, -1.268411506570323866, -24.35991914209798637 ) ) ;
#41 = CLOSED_SHELL ( 'NONE', ( #401, #347, #279, #263, #247, #499, #91, #341, #315, #378, #141, #133, #323, #441, #373 ) ) ;
#42 = DIRECTION ( 'NONE',  ( 1.000000000000000000, 0.000000000000000000, 0.000000000000000000 ) ) ;
#43 = PRODUCT_DEFINITION_SHAPE ( 'NONE', 'NONE',  #381 ) ;
#44 = FACE_OUTER_BOUND ( 'NONE', #476, .T. ) ;
#45 = AXIS2_PLACEMENT_3D ( 'NONE', #192, #392, #530 ) ;
#46 = CARTESIAN_POINT ( 'NONE',  ( 0.000000000000000000, 0.000000000000000000, 24.51100000000000279 ) ) ;
#47 = B_SPLINE_CURVE_WITH_KNOTS ( 'NONE', 3,
 ( #331, #374, #334, #500, #36, #117 ),
 .UNSPECIFIED., .F., .F.,
 ( 4, 2, 4 ),
 ( 0.01485345774306997407, 0.01548163471194354511, 0.01610981168081711615 ),
 .UNSPECIFIED. ) ;
#48 = CARTESIAN_POINT ( 'NONE',  ( 0.000000000000000000, 0.000000000000000000, 25.31099999999999994 ) ) ;
#49 = ORIENTED_EDGE ( 'NONE', *, *, #71, .F. ) ;
#50 = LOCAL_TIME ( 13, 57, 34.00000000000000000, #273 ) ;
#51 = LINE ( 'NONE', #471, #409 ) ;
#52 = ORIENTED_EDGE ( 'NONE', *, *, #213, .T. ) ;
#53 = DIRECTION ( 'NONE',  ( 0.000000000000000000, 0.000000000000000000, 1.000000000000000000 ) ) ;
#54 = ORIENTED_EDGE ( 'NONE', *, *, #32, .F. ) ;
#55 = EDGE_CURVE ( 'NONE', #21, #182, #321, .T. ) ;
#56 = CARTESIAN_POINT ( 'NONE',  ( 1.587500000000000355, -1.587500000000000355, 24.51100000000000279 ) ) ;
#57 = ORIENTED_EDGE ( 'NONE', *, *, #291, .T. ) ;
#58 = AXIS2_PLACEMENT_3D ( 'NONE', #72, #33, #201 ) ;
#59 = CARTESIAN_POINT ( 'NONE',  ( -1.587500000000000577, -0.4277385810629846241, -24.47698654358311998 ) ) ;
#60 = VERTEX_POINT ( 'NONE', #81 ) ;
#61 = CARTESIAN_POINT ( 'NONE',  ( -1.587499999999999911, 1.268411506570324088, -24.51100000000000989 ) ) ;
#62 = ORIENTED_EDGE ( 'NONE', *, *, #108, .T. ) ;
#63 = APPROVAL_STATUS ( 'not_yet_approved' ) ;
#64 = EDGE_CURVE ( 'NONE', #138, #106, #503, .T. ) ;
#65 = EDGE_LOOP ( 'NONE', ( #8, #346, #275, #305, #115, #482, #93, #317 ) ) ;
#66 = DIRECTION ( 'NONE',  ( 1.000000000000000000, 0.000000000000000000, 0.000000000000000000 ) ) ;
#67 = ORIENTED_EDGE ( 'NONE', *, *, #55, .F. ) ;
#68 = PERSON_AND_ORGANIZATION ( #520, #525 ) ;
#69 = CIRCLE ( 'NONE', #78, 2.399999999999999911 ) ;
#70 = ORIENTED_EDGE ( 'NONE', *, *, #83, .F. ) ;
#71 = EDGE_CURVE ( 'NONE', #475, #391, #388, .T. ) ;
#72 = CARTESIAN_POINT ( 'NONE',  ( 0.000000000000000000, 0.000000000000000000, 25.31099999999999994 ) ) ;
#73 = CARTESIAN_POINT ( 'NONE',  ( -1.245064030267288402, 2.006622987633880502E-16, -24.51100000000000634 ) ) ;
#74 = DATE_TIME_ROLE ( 'creation_date' ) ;
#75 = CARTESIAN_POINT ( 'NONE',  ( 1.587500000000000355, 1.061392899157111769, -24.41143677385166555 ) ) ;
#76 = APPROVAL_PERSON_ORGANIZATION ( #449, #225, #480 ) ;
#77 = DIRECTION ( 'NONE',  ( 1.000000000000000000, 0.000000000000000000, 0.000000000000000000 ) ) ;
#78 = AXIS2_PLACEMENT_3D ( 'NONE', #329, #491, #118 ) ;
#79 = AXIS2_PLACEMENT_3D ( 'NONE', #218, #134, #382 ) ;
#80 = DIRECTION ( 'NONE',  ( 1.000000000000000000, 0.000000000000000000, 0.000000000000000000 ) ) ;
#81 = CARTESIAN_POINT ( 'NONE',  ( 1.587500000000000355, 1.268411506570324088, -24.35991914209798637 ) ) ;
#82 = DIRECTION ( 'NONE',  ( -0.000000000000000000, -0.000000000000000000, 1.000000000000000000 ) ) ;
#83 = EDGE_CURVE ( 'NONE', #182, #21, #380, .T. ) ;
#84 = CARTESIAN_POINT ( 'NONE',  ( 1.060147506033616516, 1.587500000000000133, -24.41174669625518234 ) ) ;
#85 = DIRECTION ( 'NONE',  ( 0.000000000000000000, 0.000000000000000000, 1.000000000000000000 ) ) ;
#86 = CARTESIAN_POINT ( 'NONE',  ( -2.399999999999999911, 0.000000000000000000, 25.31099999999999994 ) ) ;
#87 = AXIS2_PLACEMENT_3D ( 'NONE', #245, #369, #492 ) ;
#88 = CARTESIAN_POINT ( 'NONE',  ( -1.587499999999999911, -1.268411506570324088, -24.51100000000000989 ) ) ;
#89 = EDGE_CURVE ( 'NONE', #368, #431, #338, .T. ) ;
#90 = CARTESIAN_POINT ( 'NONE',  ( -1.245064030267288402, 1.524763679400337895E-16, -22.38599999999997792 ) ) ;
#91 = ADVANCED_FACE ( 'NONE', ( #125 ), #142, .T. ) ;
#92 = DIRECTION ( 'NONE',  ( 1.224646799147353207E-16, 1.000000000000000000, 0.000000000000000000 ) ) ;
#93 = ORIENTED_EDGE ( 'NONE', *, *, #453, .F. ) ;
#94 = VECTOR ( 'NONE', #508, 1000.000000000000000 ) ;
#95 = PLANE ( 'NONE',  #3 ) ;
#96 = ORIENTED_EDGE ( 'NONE', *, *, #510, .F. ) ;
#97 = FACE_OUTER_BOUND ( 'NONE', #217, .T. ) ;
#98 = ORIENTED_EDGE ( 'NONE', *, *, #327, .F. ) ;
#99 = CARTESIAN_POINT ( 'NONE',  ( -1.587500000000000355, -1.587500000000000355, 24.51100000000000279 ) ) ;
#100 = ORIENTED_EDGE ( 'NONE', *, *, #205, .T. ) ;
#101 = CARTESIAN_POINT ( 'NONE',  ( -1.587500000000000355, 1.944126793646423534E-16, -24.48322736169286884 ) ) ;
#102 = APPROVAL_PERSON_ORGANIZATION ( #143, #26, #310 ) ;
#103 = ORIENTED_EDGE ( 'NONE', *, *, #211, .T. ) ;
#104 = EDGE_CURVE ( 'NONE', #60, #15, #283, .T. ) ;
#105 = DIRECTION ( 'NONE',  ( 1.000000000000000000, 0.000000000000000000, 0.000000000000000000 ) ) ;
#106 = VERTEX_POINT ( 'NONE', #458 ) ;
#107 = COORDINATED_UNIVERSAL_TIME_OFFSET ( 6, 0, .BEHIND. ) ;
#108 = EDGE_CURVE ( 'NONE', #131, #25, #286, .T. ) ;
#109 = ORIENTED_EDGE ( 'NONE', *, *, #539, .T. ) ;
#110 = CARTESIAN_POINT ( 'NONE',  ( -1.587500000000000355, 1.587500000000000355, -24.51100000000000279 ) ) ;
#111 = EDGE_CURVE ( 'NONE', #15, #30, #187, .T. ) ;
#112 = VERTEX_POINT ( 'NONE', #39 ) ;
#113 = DATE_TIME_ROLE ( 'classification_date' ) ;
#114 = CARTESIAN_POINT ( 'NONE',  ( 1.245064030267288402, 0.000000000000000000, -22.38599999999997792 ) ) ;
#115 = ORIENTED_EDGE ( 'NONE', *, *, #89, .F. ) ;
#116 = PERSON_AND_ORGANIZATION ( #520, #525 ) ;
#117 = CARTESIAN_POINT ( 'NONE',  ( 1.587500000000000355, 0.000000000000000000, -24.48322736169286884 ) ) ;
#118 = DIRECTION ( 'NONE',  ( 1.000000000000000000, 0.000000000000000000, 0.000000000000000000 ) ) ;
#119 = FACE_OUTER_BOUND ( 'NONE', #226, .T. ) ;
#120 = CARTESIAN_POINT ( 'NONE',  ( -1.587500000000000133, 1.061532360077855897, -24.41140206829358661 ) ) ;
#121 = EDGE_CURVE ( 'NONE', #469, #522, #377, .T. ) ;
#122 = CARTESIAN_POINT ( 'NONE',  ( 0.000000000000000000, 0.000000000000000000, -24.35991914209798637 ) ) ;
#123 = CYLINDRICAL_SURFACE ( 'NONE', #314, 2.032000000000000028 ) ;
#124 = CARTESIAN_POINT ( 'NONE',  ( -1.268411506570323866, -1.587500000000000355, -24.35991914209798637 ) ) ;
#125 = FACE_OUTER_BOUND ( 'NONE', #65, .T. ) ;
#126 = CARTESIAN_POINT ( 'NONE',  ( -1.587500000000000577, 0.8514389605504942837, -24.44136751577921274 ) ) ;
#127 = DIRECTION ( 'NONE',  ( -0.000000000000000000, -0.000000000000000000, -1.000000000000000000 ) ) ;
#128 = CARTESIAN_POINT ( 'NONE',  ( -1.268411506570323866, 1.587500000000000355, 24.51100000000000279 ) ) ;
#129 = ORIENTED_EDGE ( 'NONE', *, *, #412, .T. ) ;
#130 = FACE_OUTER_BOUND ( 'NONE', #344, .T. ) ;
#131 = VERTEX_POINT ( 'NONE', #544 ) ;
#132 = CIRCLE ( 'NONE', #513, 2.032000000000000028 ) ;
#133 = ADVANCED_FACE ( 'NONE', ( #168 ), #166, .T. ) ;
#134 = DIRECTION ( 'NONE',  ( 0.000000000000000000, 1.000000000000000000, 0.000000000000000000 ) ) ;
#135 = CIRCLE ( 'NONE', #6, 2.125000000000026201 ) ;
#136 = VERTEX_POINT ( 'NONE', #86 ) ;
#137 = CARTESIAN_POINT ( 'NONE',  ( 1.268411506570324088, -1.587500000000000355, -24.35991914209798637 ) ) ;
#138 = VERTEX_POINT ( 'NONE', #160 ) ;
#139 = DIRECTION ( 'NONE',  ( -0.000000000000000000, -0.000000000000000000, 1.000000000000000000 ) ) ;
#140 = ORIENTED_EDGE ( 'NONE', *, *, #163, .F. ) ;
#141 = ADVANCED_FACE ( 'NONE', ( #44 ), #123, .T. ) ;
#142 = TOROIDAL_SURFACE ( 'NONE', #451, 1.245064030267288402, 2.125000000000024425 ) ;
#143 = PERSON_AND_ORGANIZATION ( #520, #525 ) ;
#144 = VECTOR ( 'NONE', #325, 1000.000000000000000 ) ;
#145 = DIRECTION ( 'NONE',  ( 1.000000000000000000, 0.000000000000000000, 0.000000000000000000 ) ) ;
#146 = AXIS2_PLACEMENT_3D ( 'NONE', #153, #16, #29 ) ;
#147 = DATE_AND_TIME ( #232, #50 ) ;
#148 = AXIS2_PLACEMENT_3D ( 'NONE', #501, #249, #498 ) ;
#149 = CARTESIAN_POINT ( 'NONE',  ( 2.399999999999999911, 2.939152317953647106E-16, 25.31099999999999994 ) ) ;
#150 = ORIENTED_EDGE ( 'NONE', *, *, #71, .T. ) ;
#151 = DATE_AND_TIME ( #440, #495 ) ;
#152 = EDGE_CURVE ( 'NONE', #272, #423, #516, .T. ) ;
#153 = CARTESIAN_POINT ( 'NONE',  ( 0.000000000000000000, 0.000000000000000000, 24.51100000000000279 ) ) ;
#154 = ORIENTED_EDGE ( 'NONE', *, *, #470, .T. ) ;
#155 = AXIS2_PLACEMENT_3D ( 'NONE', #19, #358, #145 ) ;
#156 =( NAMED_UNIT ( * ) PLANE_ANGLE_UNIT ( ) SI_UNIT ( $, .RADIAN. ) );
#157 = DIRECTION ( 'NONE',  ( -1.000000000000000000, -0.000000000000000000, -0.000000000000000000 ) ) ;
#158 = COORDINATED_UNIVERSAL_TIME_OFFSET ( 6, 0, .BEHIND. ) ;
#159 = CARTESIAN_POINT ( 'NONE',  ( -2.399999999999999911, 0.000000000000000000, 25.31099999999999994 ) ) ;
#160 = CARTESIAN_POINT ( 'NONE',  ( 1.268411506570323866, -1.587500000000000355, 24.51100000000000279 ) ) ;
#161 = CARTESIAN_POINT ( 'NONE',  ( 1.587500000000000355, 1.268411506570324088, -24.35991914209798637 ) ) ;
#162 = CARTESIAN_POINT ( 'NONE',  ( 0.8486262390323815463, 1.587500000000000577, -24.44176882282395269 ) ) ;
#163 = EDGE_CURVE ( 'NONE', #307, #219, #69, .T. ) ;
#164 = APPROVAL_DATE_TIME ( #227, #26 ) ;
#165 = DIRECTION ( 'NONE',  ( 0.000000000000000000, -0.000000000000000000, -1.000000000000000000 ) ) ;
#166 = CYLINDRICAL_SURFACE ( 'NONE', #148, 2.032000000000000028 ) ;
#167 = DIRECTION ( 'NONE',  ( -0.000000000000000000, -0.000000000000000000, -1.000000000000000000 ) ) ;
#168 = FACE_OUTER_BOUND ( 'NONE', #197, .T. ) ;
#169 = CARTESIAN_POINT ( 'NONE',  ( 0.2043756380772883685, 1.587500000000000133, -24.48340961896379753 ) ) ;
#170 = AXIS2_PLACEMENT_3D ( 'NONE', #416, #332, #288 ) ;
#171 = CC_DESIGN_PERSON_AND_ORGANIZATION_ASSIGNMENT ( #116, #316, ( #381 ) ) ;
#172 = CARTESIAN_POINT ( 'NONE',  ( -1.268411506570324088, 1.587499999999999911, -24.51100000000000989 ) ) ;
#173 = SECURITY_CLASSIFICATION ( '', '', #318 ) ;
#174 = CIRCLE ( 'NONE', #443, 2.032000000000000028 ) ;
#175 = LOCAL_TIME ( 13, 57, 34.00000000000000000, #478 ) ;
#176 = CARTESIAN_POINT ( 'NONE',  ( 2.399999999999999911, 2.939152317953647106E-16, 24.51100000000000279 ) ) ;
#177 = ORIENTED_EDGE ( 'NONE', *, *, #213, .F. ) ;
#178 = PLANE ( 'NONE',  #79 ) ;
#179 = EDGE_LOOP ( 'NONE', ( #385, #313, #446, #364 ) ) ;
#180 = UNCERTAINTY_MEASURE_WITH_UNIT (LENGTH_MEASURE( 1.000000000000000082E-05 ), #198, 'distance_accuracy_value', 'NONE');
#181 = FACE_OUTER_BOUND ( 'NONE', #257, .T. ) ;
#182 = VERTEX_POINT ( 'NONE', #282 ) ;
#183 = CARTESIAN_POINT ( 'NONE',  ( -1.587500000000000355, -1.061392899157111769, -24.41143677385166555 ) ) ;
#184 = ORIENTED_EDGE ( 'NONE', *, *, #242, .T. ) ;
#185 = EDGE_CURVE ( 'NONE', #138, #368, #452, .T. ) ;
#186 = EDGE_LOOP ( 'NONE', ( #154, #52, #278, #103, #350, #224, #394, #467 ) ) ;
#187 = B_SPLINE_CURVE_WITH_KNOTS ( 'NONE', 3,
 ( #335, #84, #162, #456, #169, #413, #375, #37 ),
 .UNSPECIFIED., .F., .F.,
 ( 4, 2, 2, 4 ),
 ( 0.01485345774306997407, 0.01548583974386963207, 0.01611822174466929006, 0.01738298574626860604 ),
 .UNSPECIFIED. ) ;
#188 = PERSON_AND_ORGANIZATION ( #520, #525 ) ;
#189 = CARTESIAN_POINT ( 'NONE',  ( 0.000000000000000000, 0.000000000000000000, 24.51100000000000279 ) ) ;
#190 = AXIS2_PLACEMENT_3D ( 'NONE', #336, #246, #502 ) ;
#191 = ORIENTED_EDGE ( 'NONE', *, *, #64, .F. ) ;
#192 = CARTESIAN_POINT ( 'NONE',  ( 0.000000000000000000, 0.000000000000000000, -22.38599999999997792 ) ) ;
#193 = VECTOR ( 'NONE', #261, 1000.000000000000000 ) ;
#194 = ORIENTED_EDGE ( 'NONE', *, *, #211, .F. ) ;
#195 = CALENDAR_DATE ( 2022, 6, 6 ) ;
#196 = PLANE ( 'NONE',  #146 ) ;
#197 = EDGE_LOOP ( 'NONE', ( #265, #420, #237, #98 ) ) ;
#198 =( LENGTH_UNIT ( ) NAMED_UNIT ( * ) SI_UNIT ( .MILLI., .METRE. ) );
#199 = LINE ( 'NONE', #366, #348 ) ;
#200 = APPLICATION_PROTOCOL_DEFINITION ( 'international standard', 'config_control_design', 1994, #28 ) ;
#201 = DIRECTION ( 'NONE',  ( 1.000000000000000000, 0.000000000000000000, 0.000000000000000000 ) ) ;
#202 = DIRECTION ( 'NONE',  ( -0.000000000000000000, -0.000000000000000000, 1.000000000000000000 ) ) ;
#203 = SHAPE_DEFINITION_REPRESENTATION ( #43, #398 ) ;
#204 = DIRECTION ( 'NONE',  ( -1.000000000000000000, 0.000000000000000000, 0.000000000000000000 ) ) ;
#205 = EDGE_CURVE ( 'NONE', #391, #25, #234, .T. ) ;
#206 = CARTESIAN_POINT ( 'NONE',  ( -1.268411506570324088, -1.587499999999999911, -24.51100000000000989 ) ) ;
#207 = FACE_OUTER_BOUND ( 'NONE', #179, .T. ) ;
#208 = DIRECTION ( 'NONE',  ( 1.000000000000000000, 0.000000000000000000, 0.000000000000000000 ) ) ;
#209 = DIRECTION ( 'NONE',  ( -0.000000000000000000, -0.000000000000000000, 1.000000000000000000 ) ) ;
#210 = DIRECTION ( 'NONE',  ( -0.000000000000000000, -0.000000000000000000, 1.000000000000000000 ) ) ;
#211 = EDGE_CURVE ( 'NONE', #106, #302, #339, .T. ) ;
#212 = DIRECTION ( 'NONE',  ( -0.000000000000000000, -0.000000000000000000, 1.000000000000000000 ) ) ;
#213 = EDGE_CURVE ( 'NONE', #522, #138, #473, .T. ) ;
#214 = CARTESIAN_POINT ( 'NONE',  ( -1.587500000000000355, 1.268411506570323866, -24.35991914209798637 ) ) ;
#215 = CARTESIAN_POINT ( 'NONE',  ( -1.587500000000000133, -0.2143109880596212047, -24.48322736169286529 ) ) ;
#216 = AXIS2_PLACEMENT_3D ( 'NONE', #529, #18, #66 ) ;
#217 = EDGE_LOOP ( 'NONE', ( #536, #150, #100, #231, #96 ) ) ;
#218 = CARTESIAN_POINT ( 'NONE',  ( -1.587500000000000355, -1.587500000000000355, 24.51100000000000279 ) ) ;
#219 = VERTEX_POINT ( 'NONE', #176 ) ;
#220 = DIRECTION ( 'NONE',  ( 0.000000000000000000, 0.000000000000000000, 1.000000000000000000 ) ) ;
#221 = ORIENTED_EDGE ( 'NONE', *, *, #32, .T. ) ;
#222 = CARTESIAN_POINT ( 'NONE',  ( 0.4342314039556045557, -1.587500000000000355, -24.48285171744315036 ) ) ;
#223 = ORIENTED_EDGE ( 'NONE', *, *, #271, .T. ) ;
#224 = ORIENTED_EDGE ( 'NONE', *, *, #12, .T. ) ;
#225 = APPROVAL ( #276, 'UNSPECIFIED' ) ;
#226 = EDGE_LOOP ( 'NONE', ( #235, #512 ) ) ;
#227 = DATE_AND_TIME ( #436, #175 ) ;
#228 = DIRECTION ( 'NONE',  ( -1.000000000000000000, 0.000000000000000000, -0.000000000000000000 ) ) ;
#229 = ORIENTED_EDGE ( 'NONE', *, *, #271, .F. ) ;
#230 = MECHANICAL_CONTEXT ( 'NONE', #28, 'mechanical' ) ;
#231 = ORIENTED_EDGE ( 'NONE', *, *, #108, .F. ) ;
#232 = CALENDAR_DATE ( 2022, 6, 6 ) ;
#233 = CARTESIAN_POINT ( 'NONE',  ( 0.000000000000000000, 0.000000000000000000, -24.51100000000000989 ) ) ;
#234 = B_SPLINE_CURVE_WITH_KNOTS ( 'NONE', 3,
 ( #494, #215, #59, #474, #183, #1 ),
 .UNSPECIFIED., .F., .F.,
 ( 4, 2, 4 ),
 ( 1.905938025164286877E-19, 0.0006365870327257441884, 0.001273174065451488160 ),
 .UNSPECIFIED. ) ;
#235 = ORIENTED_EDGE ( 'NONE', *, *, #303, .T. ) ;
#236 = DIRECTION ( 'NONE',  ( -0.000000000000000000, -1.000000000000000000, -0.000000000000000000 ) ) ;
#237 = ORIENTED_EDGE ( 'NONE', *, *, #417, .T. ) ;
#238 = PERSON_AND_ORGANIZATION_ROLE ( 'design_owner' ) ;
#239 = CIRCLE ( 'NONE', #58, 2.399999999999999911 ) ;
#240 = PLANE ( 'NONE',  #396 ) ;
#241 = CARTESIAN_POINT ( 'NONE',  ( 0.000000000000000000, 0.000000000000000000, -24.51100000000000634 ) ) ;
#242 = EDGE_CURVE ( 'NONE', #469, #368, #289, .T. ) ;
#243 = FACE_OUTER_BOUND ( 'NONE', #320, .T. ) ;
#244 = DIRECTION ( 'NONE',  ( -0.000000000000000000, -0.000000000000000000, 1.000000000000000000 ) ) ;
#245 = CARTESIAN_POINT ( 'NONE',  ( 0.000000000000000000, 0.000000000000000000, 24.51100000000000279 ) ) ;
#246 = DIRECTION ( 'NONE',  ( 0.000000000000000000, 0.000000000000000000, 1.000000000000000000 ) ) ;
#247 = ADVANCED_FACE ( 'NONE', ( #514 ), #422, .F. ) ;
#248 = CARTESIAN_POINT ( 'NONE',  ( -1.587500000000000355, -1.587500000000000355, 24.51100000000000279 ) ) ;
#249 = DIRECTION ( 'NONE',  ( -0.000000000000000000, -0.000000000000000000, 1.000000000000000000 ) ) ;
#250 = LOCAL_TIME ( 13, 57, 34.00000000000000000, #158 ) ;
#251 = CC_DESIGN_PERSON_AND_ORGANIZATION_ASSIGNMENT ( #402, #31, ( #13 ) ) ;
#252 = VECTOR ( 'NONE', #370, 1000.000000000000000 ) ;
#253 = DIRECTION ( 'NONE',  ( 0.000000000000000000, 0.000000000000000000, -1.000000000000000000 ) ) ;
#254 = CARTESIAN_POINT ( 'NONE',  ( 0.000000000000000000, 0.000000000000000000, -24.51100000000000989 ) ) ;
#255 = ORIENTED_EDGE ( 'NONE', *, *, #453, .T. ) ;
#256 = LINE ( 'NONE', #172, #506 ) ;
#257 = EDGE_LOOP ( 'NONE', ( #448, #260, #223, #191 ) ) ;
#258 = EDGE_CURVE ( 'NONE', #272, #30, #256, .T. ) ;
#259 = DIRECTION ( 'NONE',  ( -1.000000000000000000, 1.224646799147353207E-16, 0.000000000000000000 ) ) ;
#260 = ORIENTED_EDGE ( 'NONE', *, *, #89, .T. ) ;
#261 = DIRECTION ( 'NONE',  ( 0.000000000000000000, 0.000000000000000000, -1.000000000000000000 ) ) ;
#262 = ORIENTED_EDGE ( 'NONE', *, *, #297, .F. ) ;
#263 = ADVANCED_FACE ( 'NONE', ( #130 ), #178, .F. ) ;
#264 = DIRECTION ( 'NONE',  ( 0.000000000000000000, 0.000000000000000000, -1.000000000000000000 ) ) ;
#265 = ORIENTED_EDGE ( 'NONE', *, *, #297, .T. ) ;
#266 = PLANE ( 'NONE',  #312 ) ;
#267 = CARTESIAN_POINT ( 'NONE',  ( 0.000000000000000000, 0.000000000000000000, -24.35991914209798637 ) ) ;
#268 = CARTESIAN_POINT ( 'NONE',  ( 1.268411506570323866, 1.587500000000000355, 24.51100000000000279 ) ) ;
#269 = ORIENTED_EDGE ( 'NONE', *, *, #461, .T. ) ;
#270 = APPLICATION_PROTOCOL_DEFINITION ( 'international standard', 'config_control_design', 1994, #337 ) ;
#271 = EDGE_CURVE ( 'NONE', #431, #106, #306, .T. ) ;
#272 = VERTEX_POINT ( 'NONE', #128 ) ;
#273 = COORDINATED_UNIVERSAL_TIME_OFFSET ( 6, 0, .BEHIND. ) ;
#274 = EDGE_CURVE ( 'NONE', #362, #219, #51, .T. ) ;
#275 = ORIENTED_EDGE ( 'NONE', *, *, #333, .T. ) ;
#276 = APPROVAL_STATUS ( 'not_yet_approved' ) ;
#277 = FACE_BOUND ( 'NONE', #186, .T. ) ;
#278 = ORIENTED_EDGE ( 'NONE', *, *, #64, .T. ) ;
#279 = ADVANCED_FACE ( 'NONE', ( #97 ), #95, .F. ) ;
#280 = PERSON_AND_ORGANIZATION_ROLE ( 'classification_officer' ) ;
#281 = CARTESIAN_POINT ( 'NONE',  ( 1.268411506570324088, 1.587499999999999911, -24.51100000000000989 ) ) ;
#282 = CARTESIAN_POINT ( 'NONE',  ( 1.245064030267288402, 0.000000000000000000, -24.51100000000000634 ) ) ;
#283 = CIRCLE ( 'NONE', #421, 2.032000000000000028 ) ;
#284 = APPROVAL_PERSON_ORGANIZATION ( #363, #437, #397 ) ;
#285 = DIRECTION ( 'NONE',  ( 0.000000000000000000, 0.000000000000000000, 1.000000000000000000 ) ) ;
#286 = LINE ( 'NONE', #88, #493 ) ;
#287 = LINE ( 'NONE', #248, #462 ) ;
#288 = DIRECTION ( 'NONE',  ( 1.000000000000000000, 0.000000000000000000, 0.000000000000000000 ) ) ;
#289 = B_SPLINE_CURVE_WITH_KNOTS ( 'NONE', 3,
 ( #518, #7, #428, #511, #468, #222, #384, #137 ),
 .UNSPECIFIED., .F., .F.,
 ( 4, 2, 2, 4 ),
 ( 0.01485345774306997407, 0.01548583974386963207, 0.01611822174466929006, 0.01738298574626860604 ),
 .UNSPECIFIED. ) ;
#290 = DIRECTION ( 'NONE',  ( -0.000000000000000000, -0.000000000000000000, 1.000000000000000000 ) ) ;
#291 = EDGE_CURVE ( 'NONE', #21, #391, #527, .T. ) ;
#292 = DIRECTION ( 'NONE',  ( -0.000000000000000000, -0.000000000000000000, 1.000000000000000000 ) ) ;
#293 = CARTESIAN_POINT ( 'NONE',  ( -1.587500000000000355, 0.2114796877013869481, -24.48322736169286529 ) ) ;
#294 = AXIS2_PLACEMENT_3D ( 'NONE', #46, #542, #326 ) ;
#295 = CARTESIAN_POINT ( 'NONE',  ( 1.587500000000000355, 1.268411506570323866, 24.51100000000000279 ) ) ;
#296 = ORIENTED_EDGE ( 'NONE', *, *, #426, .T. ) ;
#297 = EDGE_CURVE ( 'NONE', #302, #60, #389, .T. ) ;
#298 = CARTESIAN_POINT ( 'NONE',  ( 0.000000000000000000, 0.000000000000000000, 25.31099999999999994 ) ) ;
#299 = PRODUCT ( '228-2500-082', '228-2500-082', '', ( #230 ) ) ;
#300 = ORIENTED_EDGE ( 'NONE', *, *, #412, .F. ) ;
#301 = CARTESIAN_POINT ( 'NONE',  ( 1.587500000000000355, -1.587500000000000355, 24.51100000000000279 ) ) ;
#302 = VERTEX_POINT ( 'NONE', #295 ) ;
#303 = EDGE_CURVE ( 'NONE', #136, #362, #496, .T. ) ;
#304 = CARTESIAN_POINT ( 'NONE',  ( 1.587499999999999911, 1.268411506570324088, -24.51100000000000989 ) ) ;
#305 = ORIENTED_EDGE ( 'NONE', *, *, #461, .F. ) ;
#306 = LINE ( 'NONE', #505, #545 ) ;
#307 = VERTEX_POINT ( 'NONE', #9 ) ;
#308 = DIRECTION ( 'NONE',  ( 1.000000000000000000, 0.000000000000000000, 0.000000000000000000 ) ) ;
#309 = EDGE_LOOP ( 'NONE', ( #229, #269, #296, #262, #194 ) ) ;
#310 = APPROVAL_ROLE ( '' ) ;
#311 = DIRECTION ( 'NONE',  ( 0.000000000000000000, 0.000000000000000000, -1.000000000000000000 ) ) ;
#312 = AXIS2_PLACEMENT_3D ( 'NONE', #110, #357, #228 ) ;
#313 = ORIENTED_EDGE ( 'NONE', *, *, #111, .T. ) ;
#314 = AXIS2_PLACEMENT_3D ( 'NONE', #418, #292, #77 ) ;
#315 = ADVANCED_FACE ( 'NONE', ( #181 ), #466, .T. ) ;
#316 = PERSON_AND_ORGANIZATION_ROLE ( 'creator' ) ;
#317 = ORIENTED_EDGE ( 'NONE', *, *, #205, .F. ) ;
#318 = SECURITY_CLASSIFICATION_LEVEL ( 'unclassified' ) ;
#319 = FACE_OUTER_BOUND ( 'NONE', #404, .T. ) ;
#320 = EDGE_LOOP ( 'NONE', ( #17, #442, #129, #479 ) ) ;
#321 = CIRCLE ( 'NONE', #155, 1.245064030267288402 ) ;
#322 = CC_DESIGN_APPROVAL ( #225, ( #13 ) ) ;
#323 = ADVANCED_FACE ( 'NONE', ( #419 ), #432, .T. ) ;
#324 = VERTEX_POINT ( 'NONE', #268 ) ;
#325 = DIRECTION ( 'NONE',  ( -0.000000000000000000, -0.000000000000000000, -1.000000000000000000 ) ) ;
#326 = DIRECTION ( 'NONE',  ( 1.000000000000000000, 0.000000000000000000, 0.000000000000000000 ) ) ;
#327 = EDGE_CURVE ( 'NONE', #302, #324, #455, .T. ) ;
#328 = CARTESIAN_POINT ( 'NONE',  ( 1.587500000000000355, 0.8513200635100126590, -24.44137755531811607 ) ) ;
#329 = CARTESIAN_POINT ( 'NONE',  ( 0.000000000000000000, 0.000000000000000000, 24.51100000000000279 ) ) ;
#330 = CIRCLE ( 'NONE', #87, 2.399999999999999911 ) ;
#331 = CARTESIAN_POINT ( 'NONE',  ( 1.587500000000000355, -1.268411506570323866, -24.35991914209798637 ) ) ;
#332 = DIRECTION ( 'NONE',  ( -0.000000000000000000, -0.000000000000000000, 1.000000000000000000 ) ) ;
#333 = EDGE_CURVE ( 'NONE', #182, #112, #135, .T. ) ;
#334 = CARTESIAN_POINT ( 'NONE',  ( 1.587500000000000577, -0.8514389605504942837, -24.44136751577921274 ) ) ;
#335 = CARTESIAN_POINT ( 'NONE',  ( 1.268411506570323866, 1.587500000000000355, -24.35991914209798637 ) ) ;
#336 = CARTESIAN_POINT ( 'NONE',  ( 0.000000000000000000, 0.000000000000000000, 24.51100000000000279 ) ) ;
#337 = APPLICATION_CONTEXT ( 'configuration controlled 3d designs of mechanical parts and assemblies' ) ;
#338 = CIRCLE ( 'NONE', #170, 2.032000000000000028 ) ;
#339 = LINE ( 'NONE', #301, #351 ) ;
#340 =( GEOMETRIC_REPRESENTATION_CONTEXT ( 3 ) GLOBAL_UNCERTAINTY_ASSIGNED_CONTEXT ( ( #180 ) ) GLOBAL_UNIT_ASSIGNED_CONTEXT ( ( #198, #156, #360 ) ) REPRESENTATION_CONTEXT ( 'NONE', 'WORKASPACE' ) );
#341 = ADVANCED_FACE ( 'NONE', ( #447 ), #266, .T. ) ;
#342 = TOROIDAL_SURFACE ( 'NONE', #45, 1.245064030267288402, 2.125000000000024425 ) ;
#343 = DIRECTION ( 'NONE',  ( -1.000000000000000000, 0.000000000000000000, 0.000000000000000000 ) ) ;
#344 = EDGE_LOOP ( 'NONE', ( #519, #184, #383, #177 ) ) ;
#345 = CARTESIAN_POINT ( 'NONE',  ( -1.587500000000000355, -1.587500000000000355, 24.51100000000000279 ) ) ;
#346 = ORIENTED_EDGE ( 'NONE', *, *, #55, .T. ) ;
#347 = ADVANCED_FACE ( 'NONE', ( #481 ), #342, .T. ) ;
#348 = VECTOR ( 'NONE', #157, 1000.000000000000000 ) ;
#349 = DIRECTION ( 'NONE',  ( -0.000000000000000000, -0.000000000000000000, 1.000000000000000000 ) ) ;
#350 = ORIENTED_EDGE ( 'NONE', *, *, #327, .T. ) ;
#351 = VECTOR ( 'NONE', #379, 1000.000000000000000 ) ;
#352 = VECTOR ( 'NONE', #290, 1000.000000000000000 ) ;
#353 = DIRECTION ( 'NONE',  ( 1.000000000000000000, 0.000000000000000000, 0.000000000000000000 ) ) ;
#354 = ORIENTED_EDGE ( 'NONE', *, *, #111, .F. ) ;
#355 = EDGE_LOOP ( 'NONE', ( #533, #57, #49, #54, #354, #485, #526, #531 ) ) ;
#356 = COORDINATED_UNIVERSAL_TIME_OFFSET ( 6, 0, .BEHIND. ) ;
#357 = DIRECTION ( 'NONE',  ( 0.000000000000000000, 0.000000000000000000, -1.000000000000000000 ) ) ;
#358 = DIRECTION ( 'NONE',  ( -0.000000000000000000, -0.000000000000000000, 1.000000000000000000 ) ) ;
#359 = CC_DESIGN_APPROVAL ( #437, ( #381 ) ) ;
#360 =( NAMED_UNIT ( * ) SI_UNIT ( $, .STERADIAN. ) SOLID_ANGLE_UNIT ( ) );
#361 = AXIS2_PLACEMENT_3D ( 'NONE', #90, #92, #259 ) ;
#362 = VERTEX_POINT ( 'NONE', #149 ) ;
#363 = PERSON_AND_ORGANIZATION ( #520, #525 ) ;
#364 = ORIENTED_EDGE ( 'NONE', *, *, #12, .F. ) ;
#365 = APPROVAL_STATUS ( 'not_yet_approved' ) ;
#366 = CARTESIAN_POINT ( 'NONE',  ( -1.587500000000000355, 1.587500000000000355, 24.51100000000000279 ) ) ;
#367 = CARTESIAN_POINT ( 'NONE',  ( -1.268411506570323866, -1.587500000000000355, 24.51100000000000279 ) ) ;
#368 = VERTEX_POINT ( 'NONE', #399 ) ;
#369 = DIRECTION ( 'NONE',  ( 0.000000000000000000, 0.000000000000000000, 1.000000000000000000 ) ) ;
#370 = DIRECTION ( 'NONE',  ( 0.000000000000000000, 0.000000000000000000, -1.000000000000000000 ) ) ;
#371 = PLANE ( 'NONE',  #390 ) ;
#372 = AXIS2_PLACEMENT_3D ( 'NONE', #241, #244, #42 ) ;
#373 = ADVANCED_FACE ( 'NONE', ( #277, #24 ), #196, .F. ) ;
#374 = CARTESIAN_POINT ( 'NONE',  ( 1.587500000000000133, -1.061532360077855897, -24.41140206829358661 ) ) ;
#375 = CARTESIAN_POINT ( 'NONE',  ( -0.8571092511719592411, 1.587500000000000355, -24.46227379706277816 ) ) ;
#376 = PRODUCT_RELATED_PRODUCT_CATEGORY ( 'detail', '', ( #299 ) ) ;
#377 = LINE ( 'NONE', #206, #507 ) ;
#378 = ADVANCED_FACE ( 'NONE', ( #319 ), #445, .T. ) ;
#379 = DIRECTION ( 'NONE',  ( 0.000000000000000000, 1.000000000000000000, 0.000000000000000000 ) ) ;
#380 = CIRCLE ( 'NONE', #372, 1.245064030267288402 ) ;
#381 = PRODUCT_DEFINITION ( 'UNKNOWN', '', #13, #22 ) ;
#382 = DIRECTION ( 'NONE',  ( 0.000000000000000000, -0.000000000000000000, 1.000000000000000000 ) ) ;
#383 = ORIENTED_EDGE ( 'NONE', *, *, #185, .F. ) ;
#384 = CARTESIAN_POINT ( 'NONE',  ( 0.8571092511719592411, -1.587500000000000355, -24.46227379706277816 ) ) ;
#385 = ORIENTED_EDGE ( 'NONE', *, *, #417, .F. ) ;
#386 = DIRECTION ( 'NONE',  ( 1.000000000000000000, 0.000000000000000000, 0.000000000000000000 ) ) ;
#387 = ORIENTED_EDGE ( 'NONE', *, *, #258, .T. ) ;
#388 = B_SPLINE_CURVE_WITH_KNOTS ( 'NONE', 3,
 ( #214, #120, #126, #415, #293, #540 ),
 .UNSPECIFIED., .F., .F.,
 ( 4, 2, 4 ),
 ( 0.01485345774306997407, 0.01548163471194354511, 0.01610981168081711615 ),
 .UNSPECIFIED. ) ;
#389 = LINE ( 'NONE', #304, #193 ) ;
#390 = AXIS2_PLACEMENT_3D ( 'NONE', #543, #490, #165 ) ;
#391 = VERTEX_POINT ( 'NONE', #101 ) ;
#392 = DIRECTION ( 'NONE',  ( -0.000000000000000000, -0.000000000000000000, 1.000000000000000000 ) ) ;
#393 = EDGE_CURVE ( 'NONE', #475, #423, #434, .T. ) ;
#394 = ORIENTED_EDGE ( 'NONE', *, *, #152, .T. ) ;
#395 = EDGE_LOOP ( 'NONE', ( #140, #300 ) ) ;
#396 = AXIS2_PLACEMENT_3D ( 'NONE', #408, #285, #497 ) ;
#397 = APPROVAL_ROLE ( '' ) ;
#398 = ADVANCED_BREP_SHAPE_REPRESENTATION ( '228-2500-082', ( #429, #216 ), #340 ) ;
#399 = CARTESIAN_POINT ( 'NONE',  ( 1.268411506570324088, -1.587500000000000355, -24.35991914209798637 ) ) ;
#400 = ORIENTED_EDGE ( 'NONE', *, *, #152, .F. ) ;
#401 = ADVANCED_FACE ( 'NONE', ( #243 ), #38, .T. ) ;
#402 = PERSON_AND_ORGANIZATION ( #520, #525 ) ;
#403 = DIRECTION ( 'NONE',  ( -1.000000000000000000, 0.000000000000000000, 0.000000000000000000 ) ) ;
#404 = EDGE_LOOP ( 'NONE', ( #62, #255, #10, #509 ) ) ;
#405 = CARTESIAN_POINT ( 'NONE',  ( -1.587500000000000355, 1.268411506570323866, -24.35991914209798637 ) ) ;
#406 = CARTESIAN_POINT ( 'NONE',  ( -1.587500000000000355, -1.268411506570324088, -24.35991914209798637 ) ) ;
#407 = VECTOR ( 'NONE', #82, 1000.000000000000000 ) ;
#408 = CARTESIAN_POINT ( 'NONE',  ( 0.000000000000000000, 0.000000000000000000, 25.31099999999999994 ) ) ;
#409 = VECTOR ( 'NONE', #127, 1000.000000000000000 ) ;
#410 = CARTESIAN_POINT ( 'NONE',  ( 1.268411506570324088, -1.587499999999999911, -24.51100000000000989 ) ) ;
#411 = CARTESIAN_POINT ( 'NONE',  ( 1.587500000000000133, 0.2143109880596213435, -24.48322736169286529 ) ) ;
#412 = EDGE_CURVE ( 'NONE', #219, #307, #330, .T. ) ;
#413 = CARTESIAN_POINT ( 'NONE',  ( -0.4342314039556045557, 1.587500000000000355, -24.48285171744315036 ) ) ;
#414 = LINE ( 'NONE', #281, #407 ) ;
#415 = CARTESIAN_POINT ( 'NONE',  ( -1.587500000000000355, 0.4276219574846467086, -24.47699639200008903 ) ) ;
#416 = CARTESIAN_POINT ( 'NONE',  ( 0.000000000000000000, 0.000000000000000000, -24.35991914209798637 ) ) ;
#417 = EDGE_CURVE ( 'NONE', #15, #324, #414, .T. ) ;
#418 = CARTESIAN_POINT ( 'NONE',  ( 0.000000000000000000, 0.000000000000000000, -24.51100000000000989 ) ) ;
#419 = FACE_OUTER_BOUND ( 'NONE', #433, .T. ) ;
#420 = ORIENTED_EDGE ( 'NONE', *, *, #104, .T. ) ;
#421 = AXIS2_PLACEMENT_3D ( 'NONE', #548, #210, #208 ) ;
#422 = PLANE ( 'NONE',  #465 ) ;
#423 = VERTEX_POINT ( 'NONE', #457 ) ;
#424 = AXIS2_PLACEMENT_3D ( 'NONE', #189, #484, #105 ) ;
#425 = DIRECTION ( 'NONE',  ( 0.000000000000000000, 0.000000000000000000, -1.000000000000000000 ) ) ;
#426 = EDGE_CURVE ( 'NONE', #112, #60, #549, .T. ) ;
#427 = ORIENTED_EDGE ( 'NONE', *, *, #303, .F. ) ;
#428 = CARTESIAN_POINT ( 'NONE',  ( -0.8486262390323815463, -1.587500000000000577, -24.44176882282395269 ) ) ;
#429 = MANIFOLD_SOLID_BREP ( '228-2500-082', #41 ) ;
#430 = CC_DESIGN_PERSON_AND_ORGANIZATION_ASSIGNMENT ( #188, #280, ( #173 ) ) ;
#431 = VERTEX_POINT ( 'NONE', #40 ) ;
#432 = CYLINDRICAL_SURFACE ( 'NONE', #528, 2.399999999999999911 ) ;
#433 = EDGE_LOOP ( 'NONE', ( #472, #427, #109, #515 ) ) ;
#434 = LINE ( 'NONE', #61, #352 ) ;
#435 = DIRECTION ( 'NONE',  ( 1.000000000000000000, 0.000000000000000000, 0.000000000000000000 ) ) ;
#436 = CALENDAR_DATE ( 2022, 6, 6 ) ;
#437 = APPROVAL ( #365, 'UNSPECIFIED' ) ;
#438 = DIRECTION ( 'NONE',  ( 0.000000000000000000, -1.000000000000000000, 0.000000000000000000 ) ) ;
#439 = EDGE_LOOP ( 'NONE', ( #70, #67 ) ) ;
#440 = CALENDAR_DATE ( 2022, 6, 6 ) ;
#441 = ADVANCED_FACE ( 'NONE', ( #119 ), #240, .T. ) ;
#442 = ORIENTED_EDGE ( 'NONE', *, *, #274, .T. ) ;
#443 = AXIS2_PLACEMENT_3D ( 'NONE', #122, #209, #459 ) ;
#444 = AXIS2_PLACEMENT_3D ( 'NONE', #298, #220, #386 ) ;
#445 = CYLINDRICAL_SURFACE ( 'NONE', #488, 2.032000000000000028 ) ;
#446 = ORIENTED_EDGE ( 'NONE', *, *, #258, .F. ) ;
#447 = FACE_OUTER_BOUND ( 'NONE', #439, .T. ) ;
#448 = ORIENTED_EDGE ( 'NONE', *, *, #185, .T. ) ;
#449 = PERSON_AND_ORGANIZATION ( #520, #525 ) ;
#450 = CARTESIAN_POINT ( 'NONE',  ( 1.587500000000000355, 0.000000000000000000, -24.48322736169286884 ) ) ;
#451 = AXIS2_PLACEMENT_3D ( 'NONE', #460, #212, #464 ) ;
#452 = LINE ( 'NONE', #410, #252 ) ;
#453 = EDGE_CURVE ( 'NONE', #25, #469, #174, .T. ) ;
#454 = CARTESIAN_POINT ( 'NONE',  ( 0.000000000000000000, 0.000000000000000000, 24.51100000000000279 ) ) ;
#455 = CIRCLE ( 'NONE', #424, 2.032000000000000028 ) ;
#456 = CARTESIAN_POINT ( 'NONE',  ( 0.4219230645619470588, 1.587500000000000577, -24.47730730355362994 ) ) ;
#457 = CARTESIAN_POINT ( 'NONE',  ( -1.587500000000000355, 1.268411506570323866, 24.51100000000000279 ) ) ;
#458 = CARTESIAN_POINT ( 'NONE',  ( 1.587500000000000355, -1.268411506570323866, 24.51100000000000279 ) ) ;
#459 = DIRECTION ( 'NONE',  ( 1.000000000000000000, 0.000000000000000000, 0.000000000000000000 ) ) ;
#460 = CARTESIAN_POINT ( 'NONE',  ( 0.000000000000000000, 0.000000000000000000, -22.38599999999997792 ) ) ;
#461 = EDGE_CURVE ( 'NONE', #431, #112, #47, .T. ) ;
#462 = VECTOR ( 'NONE', #236, 1000.000000000000000 ) ;
#463 = LOCAL_TIME ( 13, 57, 34.00000000000000000, #356 ) ;
#464 = DIRECTION ( 'NONE',  ( 1.000000000000000000, 0.000000000000000000, 0.000000000000000000 ) ) ;
#465 = AXIS2_PLACEMENT_3D ( 'NONE', #56, #343, #53 ) ;
#466 = CYLINDRICAL_SURFACE ( 'NONE', #4, 2.032000000000000028 ) ;
#467 = ORIENTED_EDGE ( 'NONE', *, *, #510, .T. ) ;
#468 = CARTESIAN_POINT ( 'NONE',  ( -0.2043756380772883685, -1.587500000000000133, -24.48340961896379753 ) ) ;
#469 = VERTEX_POINT ( 'NONE', #124 ) ;
#470 = EDGE_CURVE ( 'NONE', #131, #522, #132, .T. ) ;
#471 = CARTESIAN_POINT ( 'NONE',  ( 2.399999999999999911, 2.939152317953647106E-16, 25.31099999999999994 ) ) ;
#472 = ORIENTED_EDGE ( 'NONE', *, *, #274, .F. ) ;
#473 = LINE ( 'NONE', #345, #94 ) ;
#474 = CARTESIAN_POINT ( 'NONE',  ( -1.587500000000000355, -0.8513200635100127700, -24.44137755531811607 ) ) ;
#475 = VERTEX_POINT ( 'NONE', #405 ) ;
#476 = EDGE_LOOP ( 'NONE', ( #5, #400, #387, #221 ) ) ;
#477 = CC_DESIGN_DATE_AND_TIME_ASSIGNMENT ( #532, #74, ( #381 ) ) ;
#478 = COORDINATED_UNIVERSAL_TIME_OFFSET ( 6, 0, .BEHIND. ) ;
#479 = ORIENTED_EDGE ( 'NONE', *, *, #539, .F. ) ;
#480 = APPROVAL_ROLE ( '' ) ;
#481 = FACE_OUTER_BOUND ( 'NONE', #355, .T. ) ;
#482 = ORIENTED_EDGE ( 'NONE', *, *, #242, .F. ) ;
#483 = CIRCLE ( 'NONE', #11, 2.032000000000000028 ) ;
#484 = DIRECTION ( 'NONE',  ( 0.000000000000000000, 0.000000000000000000, 1.000000000000000000 ) ) ;
#485 = ORIENTED_EDGE ( 'NONE', *, *, #104, .F. ) ;
#486 = CC_DESIGN_SECURITY_CLASSIFICATION ( #173, ( #13 ) ) ;
#487 = DATE_AND_TIME ( #523, #463 ) ;
#488 = AXIS2_PLACEMENT_3D ( 'NONE', #233, #139, #308 ) ;
#489 = CARTESIAN_POINT ( 'NONE',  ( 1.268411506570323866, 1.587500000000000355, -24.35991914209798637 ) ) ;
#490 = DIRECTION ( 'NONE',  ( 0.000000000000000000, -1.000000000000000000, 0.000000000000000000 ) ) ;
#491 = DIRECTION ( 'NONE',  ( 0.000000000000000000, 0.000000000000000000, 1.000000000000000000 ) ) ;
#492 = DIRECTION ( 'NONE',  ( 1.000000000000000000, 0.000000000000000000, 0.000000000000000000 ) ) ;
#493 = VECTOR ( 'NONE', #253, 1000.000000000000000 ) ;
#494 = CARTESIAN_POINT ( 'NONE',  ( -1.587500000000000355, 1.944126793646423534E-16, -24.48322736169286884 ) ) ;
#495 = LOCAL_TIME ( 13, 57, 34.00000000000000000, #107 ) ;
#496 = CIRCLE ( 'NONE', #444, 2.399999999999999911 ) ;
#497 = DIRECTION ( 'NONE',  ( 1.000000000000000000, 0.000000000000000000, -0.000000000000000000 ) ) ;
#498 = DIRECTION ( 'NONE',  ( 1.000000000000000000, 0.000000000000000000, 0.000000000000000000 ) ) ;
#499 = ADVANCED_FACE ( 'NONE', ( #207 ), #371, .F. ) ;
#500 = CARTESIAN_POINT ( 'NONE',  ( 1.587500000000000355, -0.4276219574846467086, -24.47699639200008903 ) ) ;
#501 = CARTESIAN_POINT ( 'NONE',  ( 0.000000000000000000, 0.000000000000000000, -24.51100000000000989 ) ) ;
#502 = DIRECTION ( 'NONE',  ( 1.000000000000000000, 0.000000000000000000, 0.000000000000000000 ) ) ;
#503 = CIRCLE ( 'NONE', #190, 2.032000000000000028 ) ;
#504 = CC_DESIGN_APPROVAL ( #26, ( #173 ) ) ;
#505 = CARTESIAN_POINT ( 'NONE',  ( 1.587499999999999911, -1.268411506570324088, -24.51100000000000989 ) ) ;
#506 = VECTOR ( 'NONE', #425, 1000.000000000000000 ) ;
#507 = VECTOR ( 'NONE', #547, 1000.000000000000000 ) ;
#508 = DIRECTION ( 'NONE',  ( 1.000000000000000000, 0.000000000000000000, 0.000000000000000000 ) ) ;
#509 = ORIENTED_EDGE ( 'NONE', *, *, #470, .F. ) ;
#510 = EDGE_CURVE ( 'NONE', #423, #131, #287, .T. ) ;
#511 = CARTESIAN_POINT ( 'NONE',  ( -0.4219230645619470588, -1.587500000000000577, -24.47730730355362994 ) ) ;
#512 = ORIENTED_EDGE ( 'NONE', *, *, #517, .T. ) ;
#513 = AXIS2_PLACEMENT_3D ( 'NONE', #454, #85, #80 ) ;
#514 = FACE_OUTER_BOUND ( 'NONE', #309, .T. ) ;
#515 = ORIENTED_EDGE ( 'NONE', *, *, #163, .T. ) ;
#516 = CIRCLE ( 'NONE', #294, 2.032000000000000028 ) ;
#517 = EDGE_CURVE ( 'NONE', #362, #136, #239, .T. ) ;
#518 = CARTESIAN_POINT ( 'NONE',  ( -1.268411506570323866, -1.587500000000000355, -24.35991914209798637 ) ) ;
#519 = ORIENTED_EDGE ( 'NONE', *, *, #121, .F. ) ;
#520 = PERSON ( 'UNSPECIFIED', 'UNSPECIFIED', 'UNSPECIFIED', ('UNSPECIFIED'), ('UNSPECIFIED'), ('UNSPECIFIED') ) ;
#521 = CC_DESIGN_PERSON_AND_ORGANIZATION_ASSIGNMENT ( #68, #238, ( #299 ) ) ;
#522 = VERTEX_POINT ( 'NONE', #367 ) ;
#523 = CALENDAR_DATE ( 2022, 6, 6 ) ;
#524 = DIRECTION ( 'NONE',  ( -0.000000000000000000, -0.000000000000000000, -1.000000000000000000 ) ) ;
#525 = ORGANIZATION ( 'UNSPECIFIED', 'UNSPECIFIED', '' ) ;
#526 = ORIENTED_EDGE ( 'NONE', *, *, #426, .F. ) ;
#527 = CIRCLE ( 'NONE', #361, 2.125000000000024425 ) ;
#528 = AXIS2_PLACEMENT_3D ( 'NONE', #48, #524, #403 ) ;
#529 = CARTESIAN_POINT ( 'NONE',  ( 0.000000000000000000, 0.000000000000000000, 0.000000000000000000 ) ) ;
#530 = DIRECTION ( 'NONE',  ( 1.000000000000000000, 0.000000000000000000, 0.000000000000000000 ) ) ;
#531 = ORIENTED_EDGE ( 'NONE', *, *, #333, .F. ) ;
#532 = DATE_AND_TIME ( #195, #250 ) ;
#533 = ORIENTED_EDGE ( 'NONE', *, *, #83, .T. ) ;
#534 = APPROVAL_DATE_TIME ( #147, #437 ) ;
#535 = CC_DESIGN_PERSON_AND_ORGANIZATION_ASSIGNMENT ( #537, #27, ( #13 ) ) ;
#536 = ORIENTED_EDGE ( 'NONE', *, *, #393, .F. ) ;
#537 = PERSON_AND_ORGANIZATION ( #520, #525 ) ;
#538 = LINE ( 'NONE', #159, #144 ) ;
#539 = EDGE_CURVE ( 'NONE', #136, #307, #538, .T. ) ;
#540 = CARTESIAN_POINT ( 'NONE',  ( -1.587500000000000355, 1.944126793646423534E-16, -24.48322736169286884 ) ) ;
#541 = CARTESIAN_POINT ( 'NONE',  ( 1.587500000000000577, 0.4277385810629845686, -24.47698654358311998 ) ) ;
#542 = DIRECTION ( 'NONE',  ( 0.000000000000000000, 0.000000000000000000, 1.000000000000000000 ) ) ;
#543 = CARTESIAN_POINT ( 'NONE',  ( -1.587500000000000355, 1.587500000000000355, 24.51100000000000279 ) ) ;
#544 = CARTESIAN_POINT ( 'NONE',  ( -1.587500000000000355, -1.268411506570323866, 24.51100000000000279 ) ) ;
#545 = VECTOR ( 'NONE', #2, 1000.000000000000000 ) ;
#546 = CARTESIAN_POINT ( 'NONE',  ( 0.000000000000000000, 0.000000000000000000, 25.31099999999999994 ) ) ;
#547 = DIRECTION ( 'NONE',  ( -0.000000000000000000, -0.000000000000000000, 1.000000000000000000 ) ) ;
#548 = CARTESIAN_POINT ( 'NONE',  ( 0.000000000000000000, 0.000000000000000000, -24.35991914209798637 ) ) ;
#549 = B_SPLINE_CURVE_WITH_KNOTS ( 'NONE', 3,
 ( #450, #411, #541, #328, #75, #161 ),
 .UNSPECIFIED., .F., .F.,
 ( 4, 2, 4 ),
 ( 0.000000000000000000, 0.0006365870327257440800, 0.001273174065451488160 ),
 .UNSPECIFIED. ) ;
ENDSEC;
END-ISO-10303-21;
