ISO-10303-21;
HEADER;
FILE_DESCRIPTION (( 'STEP AP203' ),
    '1' );
FILE_NAME ('228-2500-120.step',
    '2022-06-06T19:01:55',
    ( '' ),
    ( '' ),
    'SwSTEP 2.0',
    'SolidWorks 2021',
    '' );
FILE_SCHEMA (( 'CONFIG_CONTROL_DESIGN' ));
ENDSEC;

DATA;
#1 = CARTESIAN_POINT ( 'NONE',  ( -1.587500000000000355, -1.587500000000000355, 24.51099999999999923 ) ) ;
#2 = DIRECTION ( 'NONE',  ( 0.000000000000000000, 0.000000000000000000, -1.000000000000000000 ) ) ;
#3 = VERTEX_POINT ( 'NONE', #211 ) ;
#4 = DATE_AND_TIME ( #103, #325 ) ;
#5 = VECTOR ( 'NONE', #385, 1000.000000000000000 ) ;
#6 = ORIENTED_EDGE ( 'NONE', *, *, #545, .F. ) ;
#7 = ORIENTED_EDGE ( 'NONE', *, *, #116, .F. ) ;
#8 = CARTESIAN_POINT ( 'NONE',  ( 1.587500000000000355, -1.268411506570323866, -24.35991914209797926 ) ) ;
#9 = DIRECTION ( 'NONE',  ( 1.000000000000000000, 0.000000000000000000, 0.000000000000000000 ) ) ;
#10 = VERTEX_POINT ( 'NONE', #217 ) ;
#11 = DIRECTION ( 'NONE',  ( -1.000000000000000000, 0.000000000000000000, 0.000000000000000000 ) ) ;
#12 = ORIENTED_EDGE ( 'NONE', *, *, #520, .T. ) ;
#13 = APPROVAL_STATUS ( 'not_yet_approved' ) ;
#14 = FACE_OUTER_BOUND ( 'NONE', #254, .T. ) ;
#15 = EDGE_CURVE ( 'NONE', #354, #100, #32, .T. ) ;
#16 = AXIS2_PLACEMENT_3D ( 'NONE', #237, #498, #279 ) ;
#17 = AXIS2_PLACEMENT_3D ( 'NONE', #202, #78, #513 ) ;
#18 = APPROVAL_DATE_TIME ( #401, #72 ) ;
#19 = DIRECTION ( 'NONE',  ( 1.000000000000000000, 0.000000000000000000, 0.000000000000000000 ) ) ;
#20 = EDGE_CURVE ( 'NONE', #130, #541, #24, .T. ) ;
#21 = CARTESIAN_POINT ( 'NONE',  ( 1.587500000000000577, 0.8514389605504941727, 24.44136751577920208 ) ) ;
#22 = EDGE_CURVE ( 'NONE', #219, #367, #276, .T. ) ;
#23 = CYLINDRICAL_SURFACE ( 'NONE', #523, 2.032000000000000028 ) ;
#24 = B_SPLINE_CURVE_WITH_KNOTS ( 'NONE', 3,
 ( #133, #527, #203, #468, #337, #166, #389, #206 ),
 .UNSPECIFIED., .F., .F.,
 ( 4, 2, 2, 4 ),
 ( 0.01485345774306977458, 0.01548583974386943084, 0.01611822174466908883, 0.01738298574626840134 ),
 .UNSPECIFIED. ) ;
#25 = VECTOR ( 'NONE', #91, 1000.000000000000000 ) ;
#26 = CARTESIAN_POINT ( 'NONE',  ( 1.268411506570323866, -1.587500000000000355, 24.35991914209797926 ) ) ;
#27 = ORIENTED_EDGE ( 'NONE', *, *, #352, .T. ) ;
#28 = CARTESIAN_POINT ( 'NONE',  ( 0.000000000000000000, 0.000000000000000000, -24.51099999999999923 ) ) ;
#29 = EDGE_CURVE ( 'NONE', #137, #126, #461, .T. ) ;
#30 = DIRECTION ( 'NONE',  ( -1.000000000000000000, 0.000000000000000000, -0.000000000000000000 ) ) ;
#31 = EDGE_CURVE ( 'NONE', #291, #541, #41, .T. ) ;
#32 = CIRCLE ( 'NONE', #497, 1.245064030267288402 ) ;
#33 = DIRECTION ( 'NONE',  ( -0.000000000000000000, -0.000000000000000000, 1.000000000000000000 ) ) ;
#34 =( GEOMETRIC_REPRESENTATION_CONTEXT ( 3 ) GLOBAL_UNCERTAINTY_ASSIGNED_CONTEXT ( ( #94 ) ) GLOBAL_UNIT_ASSIGNED_CONTEXT ( ( #135, #492, #350 ) ) REPRESENTATION_CONTEXT ( 'NONE', 'WORKASPACE' ) );
#35 = CARTESIAN_POINT ( 'NONE',  ( 0.000000000000000000, 0.000000000000000000, 24.35991914209797926 ) ) ;
#36 = VERTEX_POINT ( 'NONE', #296 ) ;
#37 = LINE ( 'NONE', #476, #404 ) ;
#38 = ORIENTED_EDGE ( 'NONE', *, *, #357, .F. ) ;
#39 = CIRCLE ( 'NONE', #323, 2.032000000000000028 ) ;
#40 = CARTESIAN_POINT ( 'NONE',  ( -1.587500000000000355, -1.268411506570323866, -24.35991914209797926 ) ) ;
#41 = LINE ( 'NONE', #175, #207 ) ;
#42 = CIRCLE ( 'NONE', #60, 1.245064030267288402 ) ;
#43 = EDGE_LOOP ( 'NONE', ( #65, #86 ) ) ;
#44 = CARTESIAN_POINT ( 'NONE',  ( -1.587500000000000577, -0.8514389605504941727, 24.44136751577920208 ) ) ;
#45 = LINE ( 'NONE', #85, #5 ) ;
#46 = ORIENTED_EDGE ( 'NONE', *, *, #15, .F. ) ;
#47 = DIRECTION ( 'NONE',  ( 0.000000000000000000, 0.000000000000000000, -1.000000000000000000 ) ) ;
#48 = ORIENTED_EDGE ( 'NONE', *, *, #347, .T. ) ;
#49 = VERTEX_POINT ( 'NONE', #477 ) ;
#50 = AXIS2_PLACEMENT_3D ( 'NONE', #444, #316, #56 ) ;
#51 = DIRECTION ( 'NONE',  ( 1.224646799147353207E-16, 1.000000000000000000, 0.000000000000000000 ) ) ;
#52 = ORIENTED_EDGE ( 'NONE', *, *, #494, .T. ) ;
#53 = CARTESIAN_POINT ( 'NONE',  ( 0.4219230645619491682, 1.587500000000000577, -24.47730730355361928 ) ) ;
#54 = VERTEX_POINT ( 'NONE', #560 ) ;
#55 = B_SPLINE_CURVE_WITH_KNOTS ( 'NONE', 3,
 ( #318, #412, #197, #504, #114, #193 ),
 .UNSPECIFIED., .F., .F.,
 ( 4, 2, 4 ),
 ( 0.000000000000000000, 0.0006365870327257439716, 0.001273174065451487726 ),
 .UNSPECIFIED. ) ;
#56 = DIRECTION ( 'NONE',  ( 1.000000000000000000, 0.000000000000000000, 0.000000000000000000 ) ) ;
#57 = MECHANICAL_CONTEXT ( 'NONE', #272, 'mechanical' ) ;
#58 = CARTESIAN_POINT ( 'NONE',  ( 0.000000000000000000, 0.000000000000000000, 22.38599999999999923 ) ) ;
#59 = EDGE_CURVE ( 'NONE', #49, #130, #39, .T. ) ;
#60 = AXIS2_PLACEMENT_3D ( 'NONE', #109, #414, #234 ) ;
#61 = PERSON_AND_ORGANIZATION_ROLE ( 'classification_officer' ) ;
#62 = EDGE_LOOP ( 'NONE', ( #46, #257 ) ) ;
#63 = DIRECTION ( 'NONE',  ( 0.000000000000000000, 0.000000000000000000, -1.000000000000000000 ) ) ;
#64 = PRODUCT_RELATED_PRODUCT_CATEGORY ( 'detail', '', ( #328 ) ) ;
#65 = ORIENTED_EDGE ( 'NONE', *, *, #278, .T. ) ;
#66 = DIRECTION ( 'NONE',  ( 1.000000000000000000, 0.000000000000000000, 0.000000000000000000 ) ) ;
#67 = CARTESIAN_POINT ( 'NONE',  ( 1.587500000000000355, -1.268411506570324088, 24.35991914209797926 ) ) ;
#68 = COORDINATED_UNIVERSAL_TIME_OFFSET ( 6, 0, .BEHIND. ) ;
#69 = ORIENTED_EDGE ( 'NONE', *, *, #29, .F. ) ;
#70 = VECTOR ( 'NONE', #454, 1000.000000000000000 ) ;
#71 = DIRECTION ( 'NONE',  ( -0.000000000000000000, -0.000000000000000000, 1.000000000000000000 ) ) ;
#72 = APPROVAL ( #358, 'UNSPECIFIED' ) ;
#73 = CARTESIAN_POINT ( 'NONE',  ( 0.000000000000000000, 0.000000000000000000, -24.35991914209797926 ) ) ;
#74 = DIRECTION ( 'NONE',  ( -0.000000000000000000, -0.000000000000000000, 1.000000000000000000 ) ) ;
#75 = EDGE_CURVE ( 'NONE', #177, #367, #122, .T. ) ;
#76 = B_SPLINE_CURVE_WITH_KNOTS ( 'NONE', 3,
 ( #539, #146, #355, #53, #351, #228, #312, #96 ),
 .UNSPECIFIED., .F., .F.,
 ( 4, 2, 2, 4 ),
 ( 0.01485345774306977458, 0.01548583974386943084, 0.01611822174466908883, 0.01738298574626840134 ),
 .UNSPECIFIED. ) ;
#77 = AXIS2_PLACEMENT_3D ( 'NONE', #335, #340, #293 ) ;
#78 = DIRECTION ( 'NONE',  ( -0.000000000000000000, -0.000000000000000000, 1.000000000000000000 ) ) ;
#79 = CIRCLE ( 'NONE', #176, 2.032000000000000028 ) ;
#80 = CARTESIAN_POINT ( 'NONE',  ( 1.587500000000000355, 1.268411506570323866, -24.35991914209797926 ) ) ;
#81 = CARTESIAN_POINT ( 'NONE',  ( -1.587500000000000355, 1.587500000000000355, -24.51099999999999923 ) ) ;
#82 = CARTESIAN_POINT ( 'NONE',  ( -1.587500000000000355, 0.4276219574846464311, -24.47699639200008548 ) ) ;
#83 = ORIENTED_EDGE ( 'NONE', *, *, #201, .F. ) ;
#84 = CARTESIAN_POINT ( 'NONE',  ( 0.000000000000000000, 0.000000000000000000, 22.38599999999999923 ) ) ;
#85 = CARTESIAN_POINT ( 'NONE',  ( -1.268411506570323866, 1.587500000000000355, -24.51099999999999923 ) ) ;
#86 = ORIENTED_EDGE ( 'NONE', *, *, #357, .T. ) ;
#87 = CYLINDRICAL_SURFACE ( 'NONE', #17, 2.032000000000000028 ) ;
#88 = CARTESIAN_POINT ( 'NONE',  ( -1.587500000000000577, 0.8514389605504941727, -24.44136751577920208 ) ) ;
#89 = LOCAL_TIME ( 14, 1, 55.00000000000000000, #532 ) ;
#90 = ORIENTED_EDGE ( 'NONE', *, *, #22, .T. ) ;
#91 = DIRECTION ( 'NONE',  ( -0.000000000000000000, -0.000000000000000000, 1.000000000000000000 ) ) ;
#92 = CC_DESIGN_PERSON_AND_ORGANIZATION_ASSIGNMENT ( #145, #270, ( #326 ) ) ;
#93 = CARTESIAN_POINT ( 'NONE',  ( 1.587500000000000355, 0.000000000000000000, -24.48322736169286173 ) ) ;
#94 = UNCERTAINTY_MEASURE_WITH_UNIT (LENGTH_MEASURE( 1.000000000000000082E-05 ), #135, 'distance_accuracy_value', 'NONE');
#95 = ORIENTED_EDGE ( 'NONE', *, *, #256, .T. ) ;
#96 = CARTESIAN_POINT ( 'NONE',  ( -1.268411506570323866, 1.587500000000000355, -24.35991914209797926 ) ) ;
#97 = ORIENTED_EDGE ( 'NONE', *, *, #152, .T. ) ;
#98 = CYLINDRICAL_SURFACE ( 'NONE', #111, 2.032000000000000028 ) ;
#99 = B_SPLINE_CURVE_WITH_KNOTS ( 'NONE', 3,
 ( #8, #443, #353, #489, #398, #535 ),
 .UNSPECIFIED., .F., .F.,
 ( 4, 2, 4 ),
 ( 0.01485345774306977458, 0.01548163471194334562, 0.01610981168081691492 ),
 .UNSPECIFIED. ) ;
#100 = VERTEX_POINT ( 'NONE', #470 ) ;
#101 = DIRECTION ( 'NONE',  ( 0.000000000000000000, 0.000000000000000000, 1.000000000000000000 ) ) ;
#102 = CARTESIAN_POINT ( 'NONE',  ( 0.000000000000000000, 0.000000000000000000, -24.51099999999999923 ) ) ;
#103 = CALENDAR_DATE ( 2022, 6, 6 ) ;
#104 = ORIENTED_EDGE ( 'NONE', *, *, #256, .F. ) ;
#105 = PERSON_AND_ORGANIZATION_ROLE ( 'design_supplier' ) ;
#106 = DIRECTION ( 'NONE',  ( 1.000000000000000000, 0.000000000000000000, 0.000000000000000000 ) ) ;
#107 = AXIS2_PLACEMENT_3D ( 'NONE', #35, #47, #213 ) ;
#108 = CARTESIAN_POINT ( 'NONE',  ( 1.268411506570323866, 1.587500000000000355, -24.35991914209797926 ) ) ;
#109 = CARTESIAN_POINT ( 'NONE',  ( 0.000000000000000000, 0.000000000000000000, 24.51099999999999923 ) ) ;
#110 = CARTESIAN_POINT ( 'NONE',  ( 1.587500000000000355, 1.268411506570323866, -24.35991914209797926 ) ) ;
#111 = AXIS2_PLACEMENT_3D ( 'NONE', #359, #530, #9 ) ;
#112 = EDGE_CURVE ( 'NONE', #130, #485, #45, .T. ) ;
#113 = DIRECTION ( 'NONE',  ( 0.000000000000000000, 0.000000000000000000, -1.000000000000000000 ) ) ;
#114 = CARTESIAN_POINT ( 'NONE',  ( 1.587500000000000355, -1.061392899157111325, 24.41143677385166200 ) ) ;
#115 = CARTESIAN_POINT ( 'NONE',  ( -1.587500000000000355, 1.268411506570324088, 24.35991914209797926 ) ) ;
#116 = EDGE_CURVE ( 'NONE', #541, #177, #317, .T. ) ;
#117 = AXIS2_PLACEMENT_3D ( 'NONE', #58, #496, #106 ) ;
#118 = PERSON ( 'UNSPECIFIED', 'UNSPECIFIED', 'UNSPECIFIED', ('UNSPECIFIED'), ('UNSPECIFIED'), ('UNSPECIFIED') ) ;
#119 = CARTESIAN_POINT ( 'NONE',  ( -1.587500000000000355, -0.2114796877013867260, 24.48322736169286173 ) ) ;
#120 = TOROIDAL_SURFACE ( 'NONE', #426, 1.245064030267288402, 2.124999999999998224 ) ;
#121 = DIRECTION ( 'NONE',  ( -0.000000000000000000, -0.000000000000000000, 1.000000000000000000 ) ) ;
#122 = LINE ( 'NONE', #377, #466 ) ;
#123 = VERTEX_POINT ( 'NONE', #473 ) ;
#124 = DIRECTION ( 'NONE',  ( 1.000000000000000000, 0.000000000000000000, 0.000000000000000000 ) ) ;
#125 = CARTESIAN_POINT ( 'NONE',  ( -1.587500000000000355, 1.944126793646423534E-16, -24.48322736169286173 ) ) ;
#126 = VERTEX_POINT ( 'NONE', #252 ) ;
#127 = EDGE_CURVE ( 'NONE', #100, #354, #408, .T. ) ;
#128 = CIRCLE ( 'NONE', #342, 1.245064030267288402 ) ;
#129 = DIRECTION ( 'NONE',  ( 0.000000000000000000, 0.000000000000000000, -1.000000000000000000 ) ) ;
#130 = VERTEX_POINT ( 'NONE', #309 ) ;
#131 = ORIENTED_EDGE ( 'NONE', *, *, #20, .T. ) ;
#132 = PERSON_AND_ORGANIZATION ( #118, #140 ) ;
#133 = CARTESIAN_POINT ( 'NONE',  ( -1.268411506570323866, 1.587500000000000355, 24.35991914209797926 ) ) ;
#134 = ORIENTED_EDGE ( 'NONE', *, *, #491, .T. ) ;
#135 =( LENGTH_UNIT ( ) NAMED_UNIT ( * ) SI_UNIT ( .MILLI., .METRE. ) );
#136 = PLANE ( 'NONE',  #236 ) ;
#137 = VERTEX_POINT ( 'NONE', #306 ) ;
#138 = CALENDAR_DATE ( 2022, 6, 6 ) ;
#139 = CARTESIAN_POINT ( 'NONE',  ( 0.4342314039556041672, -1.587500000000000355, -24.48285171744313260 ) ) ;
#140 = ORGANIZATION ( 'UNSPECIFIED', 'UNSPECIFIED', '' ) ;
#141 = ADVANCED_FACE ( 'NONE', ( #14 ), #136, .F. ) ;
#142 = PERSON_AND_ORGANIZATION_ROLE ( 'design_owner' ) ;
#143 = CARTESIAN_POINT ( 'NONE',  ( -1.268411506570323866, -1.587500000000000355, -24.35991914209797926 ) ) ;
#144 = EDGE_CURVE ( 'NONE', #10, #123, #356, .T. ) ;
#145 = PERSON_AND_ORGANIZATION ( #118, #140 ) ;
#146 = CARTESIAN_POINT ( 'NONE',  ( 1.060147506033617404, 1.587500000000000133, -24.41174669625517524 ) ) ;
#147 = DIRECTION ( 'NONE',  ( 1.000000000000000000, 0.000000000000000000, 0.000000000000000000 ) ) ;
#148 = CIRCLE ( 'NONE', #253, 2.032000000000000028 ) ;
#149 = LOCAL_TIME ( 14, 1, 55.00000000000000000, #308 ) ;
#150 = APPROVAL_DATE_TIME ( #319, #386 ) ;
#151 = CARTESIAN_POINT ( 'NONE',  ( -1.587500000000000355, 1.587500000000000355, 24.51099999999999923 ) ) ;
#152 = EDGE_CURVE ( 'NONE', #322, #167, #549, .T. ) ;
#153 = APPROVAL_ROLE ( '' ) ;
#154 = DIRECTION ( 'NONE',  ( 1.000000000000000000, 0.000000000000000000, 0.000000000000000000 ) ) ;
#155 = DIRECTION ( 'NONE',  ( -0.000000000000000000, -0.000000000000000000, 1.000000000000000000 ) ) ;
#156 = PRODUCT_DEFINITION_FORMATION_WITH_SPECIFIED_SOURCE ( 'ANY', '', #328, .NOT_KNOWN. ) ;
#157 = CARTESIAN_POINT ( 'NONE',  ( 1.268411506570323866, -1.587500000000000355, -24.51099999999999923 ) ) ;
#158 = EDGE_LOOP ( 'NONE', ( #172, #48, #266, #440 ) ) ;
#159 = ADVANCED_FACE ( 'NONE', ( #441 ), #98, .T. ) ;
#160 = FACE_OUTER_BOUND ( 'NONE', #284, .T. ) ;
#161 = FACE_OUTER_BOUND ( 'NONE', #345, .T. ) ;
#162 = DIRECTION ( 'NONE',  ( 1.000000000000000000, 0.000000000000000000, 0.000000000000000000 ) ) ;
#163 = AXIS2_PLACEMENT_3D ( 'NONE', #407, #321, #113 ) ;
#164 = CARTESIAN_POINT ( 'NONE',  ( -1.245064030267288402, -1.524763679400337895E-16, 22.38599999999999923 ) ) ;
#165 = AXIS2_PLACEMENT_3D ( 'NONE', #81, #216, #521 ) ;
#166 = CARTESIAN_POINT ( 'NONE',  ( 0.4342314039556041672, 1.587500000000000355, 24.48285171744313260 ) ) ;
#167 = VERTEX_POINT ( 'NONE', #265 ) ;
#168 = CC_DESIGN_DATE_AND_TIME_ASSIGNMENT ( #395, #445, ( #326 ) ) ;
#169 = ORIENTED_EDGE ( 'NONE', *, *, #152, .F. ) ;
#170 = CARTESIAN_POINT ( 'NONE',  ( -1.587500000000000355, 1.061392899157111769, 24.41143677385165844 ) ) ;
#171 = CARTESIAN_POINT ( 'NONE',  ( 1.587500000000000133, 0.2143109880596212047, -24.48322736169285818 ) ) ;
#172 = ORIENTED_EDGE ( 'NONE', *, *, #506, .T. ) ;
#173 = EDGE_CURVE ( 'NONE', #100, #126, #502, .T. ) ;
#174 = CALENDAR_DATE ( 2022, 6, 6 ) ;
#175 = CARTESIAN_POINT ( 'NONE',  ( 1.268411506570323866, 1.587500000000000355, -24.51099999999999923 ) ) ;
#176 = AXIS2_PLACEMENT_3D ( 'NONE', #547, #71, #154 ) ;
#177 = VERTEX_POINT ( 'NONE', #225 ) ;
#178 = CC_DESIGN_DATE_AND_TIME_ASSIGNMENT ( #304, #196, ( #232 ) ) ;
#179 = DIRECTION ( 'NONE',  ( 0.000000000000000000, 0.000000000000000000, 1.000000000000000000 ) ) ;
#180 = EDGE_LOOP ( 'NONE', ( #478, #261, #69, #204, #83, #465, #361, #514 ) ) ;
#181 = APPROVAL_ROLE ( '' ) ;
#182 = ORIENTED_EDGE ( 'NONE', *, *, #494, .F. ) ;
#183 = DIRECTION ( 'NONE',  ( -0.000000000000000000, 1.000000000000000000, 0.000000000000000000 ) ) ;
#184 = EDGE_LOOP ( 'NONE', ( #338, #452, #503, #397 ) ) ;
#185 = APPROVAL_ROLE ( '' ) ;
#186 = AXIS2_PLACEMENT_3D ( 'NONE', #362, #51, #483 ) ;
#187 = DIRECTION ( 'NONE',  ( 0.000000000000000000, 0.000000000000000000, -1.000000000000000000 ) ) ;
#188 = CC_DESIGN_APPROVAL ( #72, ( #156 ) ) ;
#189 = APPLICATION_CONTEXT ( 'configuration controlled 3d designs of mechanical parts and assemblies' ) ;
#190 = CARTESIAN_POINT ( 'NONE',  ( -0.4219230645619491682, -1.587500000000000577, -24.47730730355361928 ) ) ;
#191 = EDGE_CURVE ( 'NONE', #382, #218, #148, .T. ) ;
#192 = CARTESIAN_POINT ( 'NONE',  ( 1.587500000000000355, 0.4276219574846464311, 24.47699639200008548 ) ) ;
#193 = CARTESIAN_POINT ( 'NONE',  ( 1.587500000000000355, -1.268411506570324088, 24.35991914209797926 ) ) ;
#194 = AXIS2_PLACEMENT_3D ( 'NONE', #274, #450, #63 ) ;
#195 = CARTESIAN_POINT ( 'NONE',  ( -0.4342314039556041672, -1.587500000000000355, 24.48285171744313260 ) ) ;
#196 = DATE_TIME_ROLE ( 'classification_date' ) ;
#197 = CARTESIAN_POINT ( 'NONE',  ( 1.587500000000000577, -0.4277385810629849017, 24.47698654358311288 ) ) ;
#198 = CIRCLE ( 'NONE', #313, 2.032000000000000028 ) ;
#199 = DIRECTION ( 'NONE',  ( 1.000000000000000000, 0.000000000000000000, 0.000000000000000000 ) ) ;
#200 = EDGE_LOOP ( 'NONE', ( #222, #402, #533, #6, #518, #524, #561, #303 ) ) ;
#201 = EDGE_CURVE ( 'NONE', #291, #485, #76, .T. ) ;
#202 = CARTESIAN_POINT ( 'NONE',  ( 0.000000000000000000, 0.000000000000000000, -24.51099999999999923 ) ) ;
#203 = CARTESIAN_POINT ( 'NONE',  ( -0.8486262390323829896, 1.587500000000000577, 24.44176882282394203 ) ) ;
#204 = ORIENTED_EDGE ( 'NONE', *, *, #285, .F. ) ;
#205 = CARTESIAN_POINT ( 'NONE',  ( -1.587500000000000355, 1.268411506570323866, -24.51099999999999923 ) ) ;
#206 = CARTESIAN_POINT ( 'NONE',  ( 1.268411506570324088, 1.587500000000000355, 24.35991914209797926 ) ) ;
#207 = VECTOR ( 'NONE', #301, 1000.000000000000000 ) ;
#208 = CARTESIAN_POINT ( 'NONE',  ( 1.587500000000000355, -1.268411506570323866, -24.35991914209797926 ) ) ;
#209 = CIRCLE ( 'NONE', #107, 2.032000000000000028 ) ;
#210 = ADVANCED_FACE ( 'NONE', ( #490 ), #436, .T. ) ;
#211 = CARTESIAN_POINT ( 'NONE',  ( -1.587500000000000355, -1.268411506570323866, -24.35991914209797926 ) ) ;
#212 = ORIENTED_EDGE ( 'NONE', *, *, #201, .T. ) ;
#213 = DIRECTION ( 'NONE',  ( -1.000000000000000000, 0.000000000000000000, 0.000000000000000000 ) ) ;
#214 = CARTESIAN_POINT ( 'NONE',  ( 1.587500000000000355, 1.061392899157111103, -24.41143677385165844 ) ) ;
#215 = ORIENTED_EDGE ( 'NONE', *, *, #31, .F. ) ;
#216 = DIRECTION ( 'NONE',  ( 0.000000000000000000, 0.000000000000000000, -1.000000000000000000 ) ) ;
#217 = CARTESIAN_POINT ( 'NONE',  ( -1.268411506570323866, -1.587500000000000355, -24.35991914209797926 ) ) ;
#218 = VERTEX_POINT ( 'NONE', #536 ) ;
#219 = VERTEX_POINT ( 'NONE', #230 ) ;
#220 = DIRECTION ( 'NONE',  ( 1.000000000000000000, 0.000000000000000000, 0.000000000000000000 ) ) ;
#221 = AXIS2_PLACEMENT_3D ( 'NONE', #258, #553, #290 ) ;
#222 = ORIENTED_EDGE ( 'NONE', *, *, #173, .F. ) ;
#223 = B_SPLINE_CURVE_WITH_KNOTS ( 'NONE', 3,
 ( #517, #251, #559, #295, #170, #115 ),
 .UNSPECIFIED., .F., .F.,
 ( 4, 2, 4 ),
 ( 1.905938025164285192E-19, 0.0006365870327257439716, 0.001273174065451487726 ),
 .UNSPECIFIED. ) ;
#224 = PERSON_AND_ORGANIZATION ( #118, #140 ) ;
#225 = CARTESIAN_POINT ( 'NONE',  ( 1.587500000000000355, 1.268411506570323866, 24.35991914209797926 ) ) ;
#226 = ORIENTED_EDGE ( 'NONE', *, *, #475, .T. ) ;
#227 = PERSON_AND_ORGANIZATION ( #118, #140 ) ;
#228 = CARTESIAN_POINT ( 'NONE',  ( -0.4342314039556041672, 1.587500000000000355, -24.48285171744313260 ) ) ;
#229 = PERSON_AND_ORGANIZATION ( #118, #140 ) ;
#230 = CARTESIAN_POINT ( 'NONE',  ( 1.587500000000000355, 0.000000000000000000, -24.48322736169286173 ) ) ;
#231 = EDGE_CURVE ( 'NONE', #3, #10, #297, .T. ) ;
#232 = SECURITY_CLASSIFICATION ( '', '', #273 ) ;
#233 = CARTESIAN_POINT ( 'NONE',  ( 1.587500000000000355, 1.268411506570323866, 24.35991914209797926 ) ) ;
#234 = DIRECTION ( 'NONE',  ( 1.000000000000000000, 0.000000000000000000, 0.000000000000000000 ) ) ;
#235 = CARTESIAN_POINT ( 'NONE',  ( -1.268411506570324088, -1.587500000000000355, 24.35991914209797926 ) ) ;
#236 = AXIS2_PLACEMENT_3D ( 'NONE', #403, #348, #393 ) ;
#237 = CARTESIAN_POINT ( 'NONE',  ( 0.000000000000000000, 0.000000000000000000, -22.38599999999999923 ) ) ;
#238 = CARTESIAN_POINT ( 'NONE',  ( 0.4219230645619491682, -1.587500000000000577, 24.47730730355361928 ) ) ;
#239 = ADVANCED_FACE ( 'NONE', ( #315 ), #363, .T. ) ;
#240 = ORIENTED_EDGE ( 'NONE', *, *, #459, .F. ) ;
#241 = FACE_OUTER_BOUND ( 'NONE', #442, .T. ) ;
#242 = EDGE_CURVE ( 'NONE', #354, #219, #437, .T. ) ;
#243 = ORIENTED_EDGE ( 'NONE', *, *, #500, .T. ) ;
#244 = PRODUCT_DEFINITION_SHAPE ( 'NONE', 'NONE',  #326 ) ;
#245 = LOCAL_TIME ( 14, 1, 55.00000000000000000, #388 ) ;
#246 = CARTESIAN_POINT ( 'NONE',  ( -1.587500000000000355, -1.268411506570323866, 24.35991914209797926 ) ) ;
#247 = CARTESIAN_POINT ( 'NONE',  ( 1.587500000000000355, 0.8513200635100126590, -24.44137755531811251 ) ) ;
#248 = EDGE_CURVE ( 'NONE', #177, #167, #431, .T. ) ;
#249 = PLANE ( 'NONE',  #488 ) ;
#250 = DIRECTION ( 'NONE',  ( -0.000000000000000000, -0.000000000000000000, 1.000000000000000000 ) ) ;
#251 = CARTESIAN_POINT ( 'NONE',  ( -1.587500000000000133, 0.2143109880596212047, 24.48322736169285818 ) ) ;
#252 = CARTESIAN_POINT ( 'NONE',  ( -1.587500000000000355, 1.944126793646423534E-16, -24.48322736169286173 ) ) ;
#253 = AXIS2_PLACEMENT_3D ( 'NONE', #396, #187, #11 ) ;
#254 = EDGE_LOOP ( 'NONE', ( #215, #212, #446, #131 ) ) ;
#255 = DIRECTION ( 'NONE',  ( 0.000000000000000000, 1.000000000000000000, 0.000000000000000000 ) ) ;
#256 = EDGE_CURVE ( 'NONE', #167, #305, #55, .T. ) ;
#257 = ORIENTED_EDGE ( 'NONE', *, *, #127, .F. ) ;
#258 = CARTESIAN_POINT ( 'NONE',  ( 0.000000000000000000, 0.000000000000000000, -24.35991914209797926 ) ) ;
#259 = DIRECTION ( 'NONE',  ( 0.000000000000000000, 0.000000000000000000, -1.000000000000000000 ) ) ;
#260 = ADVANCED_FACE ( 'NONE', ( #241 ), #373, .F. ) ;
#261 = ORIENTED_EDGE ( 'NONE', *, *, #173, .T. ) ;
#262 = CARTESIAN_POINT ( 'NONE',  ( -0.8486262390323829896, -1.587500000000000577, -24.44176882282394203 ) ) ;
#263 = AXIS2_PLACEMENT_3D ( 'NONE', #522, #534, #19 ) ;
#264 = DIRECTION ( 'NONE',  ( 1.000000000000000000, 0.000000000000000000, 0.000000000000000000 ) ) ;
#265 = CARTESIAN_POINT ( 'NONE',  ( 1.587500000000000355, 0.000000000000000000, 24.48322736169286173 ) ) ;
#266 = ORIENTED_EDGE ( 'NONE', *, *, #464, .T. ) ;
#267 = ADVANCED_FACE ( 'NONE', ( #499 ), #400, .T. ) ;
#268 = DIRECTION ( 'NONE',  ( -0.000000000000000000, -0.000000000000000000, 1.000000000000000000 ) ) ;
#269 = ADVANCED_FACE ( 'NONE', ( #368 ), #23, .T. ) ;
#270 = PERSON_AND_ORGANIZATION_ROLE ( 'creator' ) ;
#271 = CARTESIAN_POINT ( 'NONE',  ( 1.268411506570323866, -1.587500000000000355, -24.35991914209797926 ) ) ;
#272 = APPLICATION_CONTEXT ( 'configuration controlled 3d designs of mechanical parts and assemblies' ) ;
#273 = SECURITY_CLASSIFICATION_LEVEL ( 'unclassified' ) ;
#274 = CARTESIAN_POINT ( 'NONE',  ( 1.245064030267288402, 0.000000000000000000, -22.38599999999999923 ) ) ;
#275 = TOROIDAL_SURFACE ( 'NONE', #505, 1.245064030267288402, 2.124999999999998224 ) ;
#276 = B_SPLINE_CURVE_WITH_KNOTS ( 'NONE', 3,
 ( #93, #171, #421, #247, #214, #80 ),
 .UNSPECIFIED., .F., .F.,
 ( 4, 2, 4 ),
 ( 0.000000000000000000, 0.0006365870327257437547, 0.001273174065451487509 ),
 .UNSPECIFIED. ) ;
#277 = CARTESIAN_POINT ( 'NONE',  ( 1.060147506033617404, -1.587500000000000133, 24.41174669625517524 ) ) ;
#278 = EDGE_CURVE ( 'NONE', #322, #531, #128, .T. ) ;
#279 = DIRECTION ( 'NONE',  ( 1.000000000000000000, 0.000000000000000000, 0.000000000000000000 ) ) ;
#280 = CARTESIAN_POINT ( 'NONE',  ( 1.245064030267288402, 0.000000000000000000, 24.51099999999999923 ) ) ;
#281 = B_SPLINE_CURVE_WITH_KNOTS ( 'NONE', 3,
 ( #287, #467, #336, #420, #418, #40 ),
 .UNSPECIFIED., .F., .F.,
 ( 4, 2, 4 ),
 ( 1.905938025164285192E-19, 0.0006365870327257438632, 0.001273174065451487509 ),
 .UNSPECIFIED. ) ;
#282 = ORIENTED_EDGE ( 'NONE', *, *, #20, .F. ) ;
#283 = DIRECTION ( 'NONE',  ( 1.000000000000000000, 0.000000000000000000, 0.000000000000000000 ) ) ;
#284 = EDGE_LOOP ( 'NONE', ( #516, #430, #90, #298, #294, #95 ) ) ;
#285 = EDGE_CURVE ( 'NONE', #485, #137, #198, .T. ) ;
#286 = CARTESIAN_POINT ( 'NONE',  ( -1.268411506570324088, -1.587500000000000355, 24.35991914209797926 ) ) ;
#287 = CARTESIAN_POINT ( 'NONE',  ( -1.587500000000000355, 1.944126793646423534E-16, -24.48322736169286173 ) ) ;
#288 = AXIS2_PLACEMENT_3D ( 'NONE', #493, #183, #179 ) ;
#289 = CC_DESIGN_APPROVAL ( #386, ( #232 ) ) ;
#290 = DIRECTION ( 'NONE',  ( 1.000000000000000000, 0.000000000000000000, 0.000000000000000000 ) ) ;
#291 = VERTEX_POINT ( 'NONE', #108 ) ;
#292 = DIRECTION ( 'NONE',  ( 1.000000000000000000, 1.224646799147353454E-16, 0.000000000000000000 ) ) ;
#293 = DIRECTION ( 'NONE',  ( -1.000000000000000000, 0.000000000000000000, 0.000000000000000000 ) ) ;
#294 = ORIENTED_EDGE ( 'NONE', *, *, #248, .T. ) ;
#295 = CARTESIAN_POINT ( 'NONE',  ( -1.587500000000000355, 0.8513200635100127700, 24.44137755531811251 ) ) ;
#296 = CARTESIAN_POINT ( 'NONE',  ( -1.587500000000000355, -1.944126793646423534E-16, 24.48322736169286173 ) ) ;
#297 = CIRCLE ( 'NONE', #50, 2.032000000000000028 ) ;
#298 = ORIENTED_EDGE ( 'NONE', *, *, #75, .F. ) ;
#299 = PLANE ( 'NONE',  #479 ) ;
#300 = CIRCLE ( 'NONE', #525, 2.124999999999998224 ) ;
#301 = DIRECTION ( 'NONE',  ( -0.000000000000000000, -0.000000000000000000, 1.000000000000000000 ) ) ;
#302 = B_SPLINE_CURVE_WITH_KNOTS ( 'NONE', 3,
 ( #26, #277, #453, #238, #460, #195, #550, #286 ),
 .UNSPECIFIED., .F., .F.,
 ( 4, 2, 2, 4 ),
 ( 0.01485345774306977458, 0.01548583974386943084, 0.01611822174466908883, 0.01738298574626840134 ),
 .UNSPECIFIED. ) ;
#303 = ORIENTED_EDGE ( 'NONE', *, *, #475, .F. ) ;
#304 = DATE_AND_TIME ( #526, #245 ) ;
#305 = VERTEX_POINT ( 'NONE', #67 ) ;
#306 = CARTESIAN_POINT ( 'NONE',  ( -1.587500000000000355, 1.268411506570323866, -24.35991914209797926 ) ) ;
#307 = ORIENTED_EDGE ( 'NONE', *, *, #191, .T. ) ;
#308 = COORDINATED_UNIVERSAL_TIME_OFFSET ( 6, 0, .BEHIND. ) ;
#309 = CARTESIAN_POINT ( 'NONE',  ( -1.268411506570323866, 1.587500000000000355, 24.35991914209797926 ) ) ;
#310 = EDGE_LOOP ( 'NONE', ( #424, #243, #307, #341 ) ) ;
#311 = PERSON_AND_ORGANIZATION_ROLE ( 'creator' ) ;
#312 = CARTESIAN_POINT ( 'NONE',  ( -0.8571092511719565765, 1.587500000000000355, -24.46227379706277461 ) ) ;
#313 = AXIS2_PLACEMENT_3D ( 'NONE', #73, #324, #66 ) ;
#314 = APPROVAL_DATE_TIME ( #4, #331 ) ;
#315 = FACE_OUTER_BOUND ( 'NONE', #417, .T. ) ;
#316 = DIRECTION ( 'NONE',  ( -0.000000000000000000, -0.000000000000000000, 1.000000000000000000 ) ) ;
#317 = CIRCLE ( 'NONE', #77, 2.032000000000000028 ) ;
#318 = CARTESIAN_POINT ( 'NONE',  ( 1.587500000000000355, 0.000000000000000000, 24.48322736169286173 ) ) ;
#319 = DATE_AND_TIME ( #543, #551 ) ;
#320 = SHAPE_DEFINITION_REPRESENTATION ( #244, #346 ) ;
#321 = DIRECTION ( 'NONE',  ( 1.000000000000000000, 0.000000000000000000, 0.000000000000000000 ) ) ;
#322 = VERTEX_POINT ( 'NONE', #280 ) ;
#323 = AXIS2_PLACEMENT_3D ( 'NONE', #429, #259, #344 ) ;
#324 = DIRECTION ( 'NONE',  ( -0.000000000000000000, -0.000000000000000000, 1.000000000000000000 ) ) ;
#325 = LOCAL_TIME ( 14, 1, 55.00000000000000000, #343 ) ;
#326 = PRODUCT_DEFINITION ( 'UNKNOWN', '', #156, #434 ) ;
#327 = CARTESIAN_POINT ( 'NONE',  ( 0.000000000000000000, 0.000000000000000000, -22.38599999999999923 ) ) ;
#328 = PRODUCT ( '228-2500-120', '228-2500-120', '', ( #57 ) ) ;
#329 = CARTESIAN_POINT ( 'NONE',  ( 1.587500000000000355, -1.587500000000000355, 24.51099999999999923 ) ) ;
#330 = DIRECTION ( 'NONE',  ( 0.000000000000000000, -0.000000000000000000, 1.000000000000000000 ) ) ;
#331 = APPROVAL ( #13, 'UNSPECIFIED' ) ;
#332 = CARTESIAN_POINT ( 'NONE',  ( -1.587500000000000355, 0.2114796877013867260, -24.48322736169286173 ) ) ;
#333 = APPROVAL_PERSON_ORGANIZATION ( #229, #72, #181 ) ;
#334 = DIRECTION ( 'NONE',  ( 1.224646799147353207E-16, -1.000000000000000000, 0.000000000000000000 ) ) ;
#335 = CARTESIAN_POINT ( 'NONE',  ( 0.000000000000000000, 0.000000000000000000, 24.35991914209797926 ) ) ;
#336 = CARTESIAN_POINT ( 'NONE',  ( -1.587500000000000577, -0.4277385810629850682, -24.47698654358310932 ) ) ;
#337 = CARTESIAN_POINT ( 'NONE',  ( -0.2043756380772877856, 1.587500000000000133, 24.48340961896379042 ) ) ;
#338 = ORIENTED_EDGE ( 'NONE', *, *, #409, .T. ) ;
#339 = FACE_OUTER_BOUND ( 'NONE', #515, .T. ) ;
#340 = DIRECTION ( 'NONE',  ( 0.000000000000000000, 0.000000000000000000, -1.000000000000000000 ) ) ;
#341 = ORIENTED_EDGE ( 'NONE', *, *, #484, .T. ) ;
#342 = AXIS2_PLACEMENT_3D ( 'NONE', #548, #155, #147 ) ;
#343 = COORDINATED_UNIVERSAL_TIME_OFFSET ( 6, 0, .BEHIND. ) ;
#344 = DIRECTION ( 'NONE',  ( -1.000000000000000000, 0.000000000000000000, 0.000000000000000000 ) ) ;
#345 = EDGE_LOOP ( 'NONE', ( #379, #519, #97, #474, #7, #282, #425, #240 ) ) ;
#346 = ADVANCED_BREP_SHAPE_REPRESENTATION ( '228-2500-120', ( #471, #451 ), #34 ) ;
#347 = EDGE_CURVE ( 'NONE', #413, #305, #410, .T. ) ;
#348 = DIRECTION ( 'NONE',  ( 0.000000000000000000, -1.000000000000000000, 0.000000000000000000 ) ) ;
#349 = ORIENTED_EDGE ( 'NONE', *, *, #491, .F. ) ;
#350 =( NAMED_UNIT ( * ) SI_UNIT ( $, .STERADIAN. ) SOLID_ANGLE_UNIT ( ) );
#351 = CARTESIAN_POINT ( 'NONE',  ( 0.2043756380772877856, 1.587500000000000133, -24.48340961896379042 ) ) ;
#352 = EDGE_CURVE ( 'NONE', #54, #382, #302, .T. ) ;
#353 = CARTESIAN_POINT ( 'NONE',  ( 1.587500000000000577, -0.8514389605504941727, -24.44136751577920208 ) ) ;
#354 = VERTEX_POINT ( 'NONE', #364 ) ;
#355 = CARTESIAN_POINT ( 'NONE',  ( 0.8486262390323829896, 1.587500000000000577, -24.44176882282394203 ) ) ;
#356 = B_SPLINE_CURVE_WITH_KNOTS ( 'NONE', 3,
 ( #143, #399, #262, #190, #447, #139, #487, #271 ),
 .UNSPECIFIED., .F., .F.,
 ( 4, 2, 2, 4 ),
 ( 0.01485345774306977458, 0.01548583974386943084, 0.01611822174466908883, 0.01738298574626840134 ),
 .UNSPECIFIED. ) ;
#357 = EDGE_CURVE ( 'NONE', #531, #322, #42, .T. ) ;
#358 = APPROVAL_STATUS ( 'not_yet_approved' ) ;
#359 = CARTESIAN_POINT ( 'NONE',  ( 0.000000000000000000, 0.000000000000000000, -24.51099999999999923 ) ) ;
#360 = ADVANCED_FACE ( 'NONE', ( #416 ), #546, .F. ) ;
#361 = ORIENTED_EDGE ( 'NONE', *, *, #22, .F. ) ;
#362 = CARTESIAN_POINT ( 'NONE',  ( -1.245064030267288402, 1.524763679400337895E-16, -22.38599999999999923 ) ) ;
#363 = TOROIDAL_SURFACE ( 'NONE', #117, 1.245064030267288402, 2.124999999999998224 ) ;
#364 = CARTESIAN_POINT ( 'NONE',  ( 1.245064030267288402, 0.000000000000000000, -24.51099999999999923 ) ) ;
#365 = CC_DESIGN_APPROVAL ( #331, ( #326 ) ) ;
#366 = FACE_OUTER_BOUND ( 'NONE', #180, .T. ) ;
#367 = VERTEX_POINT ( 'NONE', #110 ) ;
#368 = FACE_OUTER_BOUND ( 'NONE', #184, .T. ) ;
#369 = ADVANCED_FACE ( 'NONE', ( #366 ), #275, .T. ) ;
#370 = AXIS2_PLACEMENT_3D ( 'NONE', #102, #268, #220 ) ;
#371 = CARTESIAN_POINT ( 'NONE',  ( 1.587500000000000355, 0.000000000000000000, 24.48322736169286173 ) ) ;
#372 = CIRCLE ( 'NONE', #221, 2.032000000000000028 ) ;
#373 = PLANE ( 'NONE',  #163 ) ;
#374 = ORIENTED_EDGE ( 'NONE', *, *, #191, .F. ) ;
#375 = EDGE_CURVE ( 'NONE', #54, #123, #456, .T. ) ;
#376 = LINE ( 'NONE', #378, #25 ) ;
#377 = CARTESIAN_POINT ( 'NONE',  ( 1.587500000000000355, 1.268411506570323866, -24.51099999999999923 ) ) ;
#378 = CARTESIAN_POINT ( 'NONE',  ( -1.268411506570323866, -1.587500000000000355, -24.51099999999999923 ) ) ;
#379 = ORIENTED_EDGE ( 'NONE', *, *, #520, .F. ) ;
#380 = VECTOR ( 'NONE', #121, 1000.000000000000000 ) ;
#381 = FACE_OUTER_BOUND ( 'NONE', #158, .T. ) ;
#382 = VERTEX_POINT ( 'NONE', #235 ) ;
#383 = ORIENTED_EDGE ( 'NONE', *, *, #459, .T. ) ;
#384 = CARTESIAN_POINT ( 'NONE',  ( -1.587500000000000355, -0.4276219574846464311, 24.47699639200008548 ) ) ;
#385 = DIRECTION ( 'NONE',  ( 0.000000000000000000, 0.000000000000000000, -1.000000000000000000 ) ) ;
#386 = APPROVAL ( #457, 'UNSPECIFIED' ) ;
#387 = ORIENTED_EDGE ( 'NONE', *, *, #464, .F. ) ;
#388 = COORDINATED_UNIVERSAL_TIME_OFFSET ( 6, 0, .BEHIND. ) ;
#389 = CARTESIAN_POINT ( 'NONE',  ( 0.8571092511719565765, 1.587500000000000355, 24.46227379706277461 ) ) ;
#390 = ORIENTED_EDGE ( 'NONE', *, *, #375, .F. ) ;
#391 = VECTOR ( 'NONE', #74, 1000.000000000000000 ) ;
#392 = APPROVAL_PERSON_ORGANIZATION ( #455, #386, #153 ) ;
#393 = DIRECTION ( 'NONE',  ( 0.000000000000000000, -0.000000000000000000, -1.000000000000000000 ) ) ;
#394 = ORIENTED_EDGE ( 'NONE', *, *, #112, .T. ) ;
#395 = DATE_AND_TIME ( #174, #149 ) ;
#396 = CARTESIAN_POINT ( 'NONE',  ( 0.000000000000000000, 0.000000000000000000, 24.35991914209797926 ) ) ;
#397 = ORIENTED_EDGE ( 'NONE', *, *, #75, .T. ) ;
#398 = CARTESIAN_POINT ( 'NONE',  ( 1.587500000000000355, -0.2114796877013867260, -24.48322736169286173 ) ) ;
#399 = CARTESIAN_POINT ( 'NONE',  ( -1.060147506033617404, -1.587500000000000133, -24.41174669625517524 ) ) ;
#400 = TOROIDAL_SURFACE ( 'NONE', #16, 1.245064030267288402, 2.124999999999998224 ) ;
#401 = DATE_AND_TIME ( #138, #89 ) ;
#402 = ORIENTED_EDGE ( 'NONE', *, *, #127, .T. ) ;
#403 = CARTESIAN_POINT ( 'NONE',  ( -1.587500000000000355, 1.587500000000000355, 24.51099999999999923 ) ) ;
#404 = VECTOR ( 'NONE', #129, 1000.000000000000000 ) ;
#405 = CARTESIAN_POINT ( 'NONE',  ( 1.587500000000000133, 1.061532360077856119, 24.41140206829359016 ) ) ;
#406 = CC_DESIGN_PERSON_AND_ORGANIZATION_ASSIGNMENT ( #449, #61, ( #232 ) ) ;
#407 = CARTESIAN_POINT ( 'NONE',  ( -1.587500000000000355, -1.587500000000000355, 24.51099999999999923 ) ) ;
#408 = CIRCLE ( 'NONE', #263, 1.245064030267288402 ) ;
#409 = EDGE_CURVE ( 'NONE', #367, #291, #79, .T. ) ;
#410 = LINE ( 'NONE', #463, #391 ) ;
#411 = ADVANCED_FACE ( 'NONE', ( #339 ), #299, .F. ) ;
#412 = CARTESIAN_POINT ( 'NONE',  ( 1.587500000000000355, -0.2143109880596213435, 24.48322736169286173 ) ) ;
#413 = VERTEX_POINT ( 'NONE', #208 ) ;
#414 = DIRECTION ( 'NONE',  ( -0.000000000000000000, -0.000000000000000000, 1.000000000000000000 ) ) ;
#415 = ADVANCED_FACE ( 'NONE', ( #161 ), #120, .T. ) ;
#416 = FACE_OUTER_BOUND ( 'NONE', #43, .T. ) ;
#417 = EDGE_LOOP ( 'NONE', ( #38, #12, #182, #374, #555, #387, #104, #169 ) ) ;
#418 = CARTESIAN_POINT ( 'NONE',  ( -1.587500000000000355, -1.061392899157111103, -24.41143677385165844 ) ) ;
#419 = CARTESIAN_POINT ( 'NONE',  ( -1.587500000000000355, 1.268411506570323866, -24.35991914209797926 ) ) ;
#420 = CARTESIAN_POINT ( 'NONE',  ( -1.587500000000000355, -0.8513200635100127700, -24.44137755531811251 ) ) ;
#421 = CARTESIAN_POINT ( 'NONE',  ( 1.587500000000000577, 0.4277385810629847906, -24.47698654358310932 ) ) ;
#422 = ADVANCED_FACE ( 'NONE', ( #554 ), #423, .T. ) ;
#423 = PLANE ( 'NONE',  #165 ) ;
#424 = ORIENTED_EDGE ( 'NONE', *, *, #231, .T. ) ;
#425 = ORIENTED_EDGE ( 'NONE', *, *, #59, .F. ) ;
#426 = AXIS2_PLACEMENT_3D ( 'NONE', #84, #432, #124 ) ;
#427 = CARTESIAN_POINT ( 'NONE',  ( -1.587500000000000133, -1.061532360077856119, 24.41140206829359016 ) ) ;
#428 = CC_DESIGN_PERSON_AND_ORGANIZATION_ASSIGNMENT ( #132, #105, ( #156 ) ) ;
#429 = CARTESIAN_POINT ( 'NONE',  ( 0.000000000000000000, 0.000000000000000000, 24.35991914209797926 ) ) ;
#430 = ORIENTED_EDGE ( 'NONE', *, *, #545, .T. ) ;
#431 = B_SPLINE_CURVE_WITH_KNOTS ( 'NONE', 3,
 ( #233, #405, #21, #192, #542, #371 ),
 .UNSPECIFIED., .F., .F.,
 ( 4, 2, 4 ),
 ( 0.01485345774306977458, 0.01548163471194334562, 0.01610981168081691492 ),
 .UNSPECIFIED. ) ;
#432 = DIRECTION ( 'NONE',  ( 0.000000000000000000, 0.000000000000000000, -1.000000000000000000 ) ) ;
#433 = ORIENTED_EDGE ( 'NONE', *, *, #500, .F. ) ;
#434 = DESIGN_CONTEXT ( 'detailed design', #189, 'design' ) ;
#435 = ORIENTED_EDGE ( 'NONE', *, *, #59, .T. ) ;
#436 = CYLINDRICAL_SURFACE ( 'NONE', #370, 2.032000000000000028 ) ;
#437 = CIRCLE ( 'NONE', #194, 2.124999999999998224 ) ;
#438 = ORIENTED_EDGE ( 'NONE', *, *, #29, .T. ) ;
#439 = CARTESIAN_POINT ( 'NONE',  ( 1.268411506570324088, 1.587500000000000355, 24.35991914209797926 ) ) ;
#440 = ORIENTED_EDGE ( 'NONE', *, *, #375, .T. ) ;
#441 = FACE_OUTER_BOUND ( 'NONE', #310, .T. ) ;
#442 = EDGE_LOOP ( 'NONE', ( #349, #438, #226, #528, #52, #383 ) ) ;
#443 = CARTESIAN_POINT ( 'NONE',  ( 1.587500000000000133, -1.061532360077856119, -24.41140206829359016 ) ) ;
#444 = CARTESIAN_POINT ( 'NONE',  ( 0.000000000000000000, 0.000000000000000000, -24.35991914209797926 ) ) ;
#445 = DATE_TIME_ROLE ( 'creation_date' ) ;
#446 = ORIENTED_EDGE ( 'NONE', *, *, #112, .F. ) ;
#447 = CARTESIAN_POINT ( 'NONE',  ( -0.2043756380772877856, -1.587500000000000133, -24.48340961896379042 ) ) ;
#448 = CLOSED_SHELL ( 'NONE', ( #239, #369, #260, #411, #511, #141, #267, #415, #422, #360, #159, #481, #269, #210 ) ) ;
#449 = PERSON_AND_ORGANIZATION ( #118, #140 ) ;
#450 = DIRECTION ( 'NONE',  ( 0.000000000000000000, -1.000000000000000000, 0.000000000000000000 ) ) ;
#451 = AXIS2_PLACEMENT_3D ( 'NONE', #486, #101, #264 ) ;
#452 = ORIENTED_EDGE ( 'NONE', *, *, #31, .T. ) ;
#453 = CARTESIAN_POINT ( 'NONE',  ( 0.8486262390323829896, -1.587500000000000577, 24.44176882282394203 ) ) ;
#454 = DIRECTION ( 'NONE',  ( 0.000000000000000000, 0.000000000000000000, -1.000000000000000000 ) ) ;
#455 = PERSON_AND_ORGANIZATION ( #118, #140 ) ;
#456 = LINE ( 'NONE', #157, #70 ) ;
#457 = APPROVAL_STATUS ( 'not_yet_approved' ) ;
#458 = EDGE_LOOP ( 'NONE', ( #462, #134, #435, #394 ) ) ;
#459 = EDGE_CURVE ( 'NONE', #36, #49, #223, .T. ) ;
#460 = CARTESIAN_POINT ( 'NONE',  ( 0.2043756380772877856, -1.587500000000000133, 24.48340961896379042 ) ) ;
#461 = B_SPLINE_CURVE_WITH_KNOTS ( 'NONE', 3,
 ( #419, #557, #88, #82, #332, #125 ),
 .UNSPECIFIED., .F., .F.,
 ( 4, 2, 4 ),
 ( 0.01485345774306977458, 0.01548163471194334562, 0.01610981168081691492 ),
 .UNSPECIFIED. ) ;
#462 = ORIENTED_EDGE ( 'NONE', *, *, #285, .T. ) ;
#463 = CARTESIAN_POINT ( 'NONE',  ( 1.587500000000000355, -1.268411506570323866, -24.51099999999999923 ) ) ;
#464 = EDGE_CURVE ( 'NONE', #305, #54, #209, .T. ) ;
#465 = ORIENTED_EDGE ( 'NONE', *, *, #409, .F. ) ;
#466 = VECTOR ( 'NONE', #2, 1000.000000000000000 ) ;
#467 = CARTESIAN_POINT ( 'NONE',  ( -1.587500000000000133, -0.2143109880596211492, -24.48322736169285818 ) ) ;
#468 = CARTESIAN_POINT ( 'NONE',  ( -0.4219230645619491682, 1.587500000000000577, 24.47730730355361928 ) ) ;
#469 = DIRECTION ( 'NONE',  ( 0.000000000000000000, 0.000000000000000000, 1.000000000000000000 ) ) ;
#470 = CARTESIAN_POINT ( 'NONE',  ( -1.245064030267288402, 2.006622987633880502E-16, -24.51099999999999923 ) ) ;
#471 = MANIFOLD_SOLID_BREP ( '228-2500-120', #448 ) ;
#472 = CARTESIAN_POINT ( 'NONE',  ( -1.245064030267288402, -2.006622987633880502E-16, 24.51099999999999923 ) ) ;
#473 = CARTESIAN_POINT ( 'NONE',  ( 1.268411506570323866, -1.587500000000000355, -24.35991914209797926 ) ) ;
#474 = ORIENTED_EDGE ( 'NONE', *, *, #248, .F. ) ;
#475 = EDGE_CURVE ( 'NONE', #126, #3, #281, .T. ) ;
#476 = CARTESIAN_POINT ( 'NONE',  ( -1.587500000000000355, -1.268411506570323866, -24.51099999999999923 ) ) ;
#477 = CARTESIAN_POINT ( 'NONE',  ( -1.587500000000000355, 1.268411506570324088, 24.35991914209797926 ) ) ;
#478 = ORIENTED_EDGE ( 'NONE', *, *, #15, .T. ) ;
#479 = AXIS2_PLACEMENT_3D ( 'NONE', #1, #255, #330 ) ;
#480 = CARTESIAN_POINT ( 'NONE',  ( -1.587500000000000355, -1.944126793646423534E-16, 24.48322736169286173 ) ) ;
#481 = ADVANCED_FACE ( 'NONE', ( #381 ), #87, .T. ) ;
#482 = CARTESIAN_POINT ( 'NONE',  ( 0.000000000000000000, 0.000000000000000000, -24.51099999999999923 ) ) ;
#483 = DIRECTION ( 'NONE',  ( -1.000000000000000000, 1.224646799147353454E-16, 0.000000000000000000 ) ) ;
#484 = EDGE_CURVE ( 'NONE', #218, #3, #37, .T. ) ;
#485 = VERTEX_POINT ( 'NONE', #509 ) ;
#486 = CARTESIAN_POINT ( 'NONE',  ( 0.000000000000000000, 0.000000000000000000, 0.000000000000000000 ) ) ;
#487 = CARTESIAN_POINT ( 'NONE',  ( 0.8571092511719565765, -1.587500000000000355, -24.46227379706277461 ) ) ;
#488 = AXIS2_PLACEMENT_3D ( 'NONE', #329, #508, #469 ) ;
#489 = CARTESIAN_POINT ( 'NONE',  ( 1.587500000000000355, -0.4276219574846464311, -24.47699639200008548 ) ) ;
#490 = FACE_OUTER_BOUND ( 'NONE', #458, .T. ) ;
#491 = EDGE_CURVE ( 'NONE', #137, #49, #556, .T. ) ;
#492 =( NAMED_UNIT ( * ) PLANE_ANGLE_UNIT ( ) SI_UNIT ( $, .RADIAN. ) );
#493 = CARTESIAN_POINT ( 'NONE',  ( 1.245064030267288402, 0.000000000000000000, 22.38599999999999923 ) ) ;
#494 = EDGE_CURVE ( 'NONE', #218, #36, #540, .T. ) ;
#495 = PERSON_AND_ORGANIZATION ( #118, #140 ) ;
#496 = DIRECTION ( 'NONE',  ( 0.000000000000000000, 0.000000000000000000, -1.000000000000000000 ) ) ;
#497 = AXIS2_PLACEMENT_3D ( 'NONE', #482, #250, #162 ) ;
#498 = DIRECTION ( 'NONE',  ( -0.000000000000000000, -0.000000000000000000, 1.000000000000000000 ) ) ;
#499 = FACE_OUTER_BOUND ( 'NONE', #200, .T. ) ;
#500 = EDGE_CURVE ( 'NONE', #10, #382, #376, .T. ) ;
#501 = DIRECTION ( 'NONE',  ( 0.000000000000000000, 0.000000000000000000, -1.000000000000000000 ) ) ;
#502 = CIRCLE ( 'NONE', #186, 2.124999999999998224 ) ;
#503 = ORIENTED_EDGE ( 'NONE', *, *, #116, .T. ) ;
#504 = CARTESIAN_POINT ( 'NONE',  ( 1.587500000000000355, -0.8513200635100129920, 24.44137755531811962 ) ) ;
#505 = AXIS2_PLACEMENT_3D ( 'NONE', #327, #507, #199 ) ;
#506 = EDGE_CURVE ( 'NONE', #123, #413, #372, .T. ) ;
#507 = DIRECTION ( 'NONE',  ( -0.000000000000000000, -0.000000000000000000, 1.000000000000000000 ) ) ;
#508 = DIRECTION ( 'NONE',  ( -1.000000000000000000, 0.000000000000000000, 0.000000000000000000 ) ) ;
#509 = CARTESIAN_POINT ( 'NONE',  ( -1.268411506570323866, 1.587500000000000355, -24.35991914209797926 ) ) ;
#510 = ORIENTED_EDGE ( 'NONE', *, *, #144, .T. ) ;
#511 = ADVANCED_FACE ( 'NONE', ( #160 ), #249, .F. ) ;
#512 = CC_DESIGN_SECURITY_CLASSIFICATION ( #232, ( #156 ) ) ;
#513 = DIRECTION ( 'NONE',  ( 1.000000000000000000, 0.000000000000000000, 0.000000000000000000 ) ) ;
#514 = ORIENTED_EDGE ( 'NONE', *, *, #242, .F. ) ;
#515 = EDGE_LOOP ( 'NONE', ( #433, #510, #390, #27 ) ) ;
#516 = ORIENTED_EDGE ( 'NONE', *, *, #347, .F. ) ;
#517 = CARTESIAN_POINT ( 'NONE',  ( -1.587500000000000355, -1.944126793646423534E-16, 24.48322736169286173 ) ) ;
#518 = ORIENTED_EDGE ( 'NONE', *, *, #506, .F. ) ;
#519 = ORIENTED_EDGE ( 'NONE', *, *, #278, .F. ) ;
#520 = EDGE_CURVE ( 'NONE', #531, #36, #300, .T. ) ;
#521 = DIRECTION ( 'NONE',  ( -1.000000000000000000, 0.000000000000000000, -0.000000000000000000 ) ) ;
#522 = CARTESIAN_POINT ( 'NONE',  ( 0.000000000000000000, 0.000000000000000000, -24.51099999999999923 ) ) ;
#523 = AXIS2_PLACEMENT_3D ( 'NONE', #28, #33, #283 ) ;
#524 = ORIENTED_EDGE ( 'NONE', *, *, #144, .F. ) ;
#525 = AXIS2_PLACEMENT_3D ( 'NONE', #164, #334, #292 ) ;
#526 = CALENDAR_DATE ( 2022, 6, 6 ) ;
#527 = CARTESIAN_POINT ( 'NONE',  ( -1.060147506033617404, 1.587500000000000133, 24.41174669625517524 ) ) ;
#528 = ORIENTED_EDGE ( 'NONE', *, *, #484, .F. ) ;
#529 = APPLICATION_PROTOCOL_DEFINITION ( 'international standard', 'config_control_design', 1994, #189 ) ;
#530 = DIRECTION ( 'NONE',  ( -0.000000000000000000, -0.000000000000000000, 1.000000000000000000 ) ) ;
#531 = VERTEX_POINT ( 'NONE', #472 ) ;
#532 = COORDINATED_UNIVERSAL_TIME_OFFSET ( 6, 0, .BEHIND. ) ;
#533 = ORIENTED_EDGE ( 'NONE', *, *, #242, .T. ) ;
#534 = DIRECTION ( 'NONE',  ( -0.000000000000000000, -0.000000000000000000, 1.000000000000000000 ) ) ;
#535 = CARTESIAN_POINT ( 'NONE',  ( 1.587500000000000355, 0.000000000000000000, -24.48322736169286173 ) ) ;
#536 = CARTESIAN_POINT ( 'NONE',  ( -1.587500000000000355, -1.268411506570323866, 24.35991914209797926 ) ) ;
#537 = CC_DESIGN_PERSON_AND_ORGANIZATION_ASSIGNMENT ( #224, #142, ( #328 ) ) ;
#538 = APPLICATION_PROTOCOL_DEFINITION ( 'international standard', 'config_control_design', 1994, #272 ) ;
#539 = CARTESIAN_POINT ( 'NONE',  ( 1.268411506570323866, 1.587500000000000355, -24.35991914209797926 ) ) ;
#540 = B_SPLINE_CURVE_WITH_KNOTS ( 'NONE', 3,
 ( #246, #427, #44, #384, #119, #480 ),
 .UNSPECIFIED., .F., .F.,
 ( 4, 2, 4 ),
 ( 0.01485345774306977458, 0.01548163471194334562, 0.01610981168081691492 ),
 .UNSPECIFIED. ) ;
#541 = VERTEX_POINT ( 'NONE', #439 ) ;
#542 = CARTESIAN_POINT ( 'NONE',  ( 1.587500000000000355, 0.2114796877013867260, 24.48322736169286173 ) ) ;
#543 = CALENDAR_DATE ( 2022, 6, 6 ) ;
#544 = APPROVAL_PERSON_ORGANIZATION ( #227, #331, #185 ) ;
#545 = EDGE_CURVE ( 'NONE', #413, #219, #99, .T. ) ;
#546 = PLANE ( 'NONE',  #558 ) ;
#547 = CARTESIAN_POINT ( 'NONE',  ( 0.000000000000000000, 0.000000000000000000, -24.35991914209797926 ) ) ;
#548 = CARTESIAN_POINT ( 'NONE',  ( 0.000000000000000000, 0.000000000000000000, 24.51099999999999923 ) ) ;
#549 = CIRCLE ( 'NONE', #288, 2.124999999999998224 ) ;
#550 = CARTESIAN_POINT ( 'NONE',  ( -0.8571092511719565765, -1.587500000000000355, 24.46227379706277461 ) ) ;
#551 = LOCAL_TIME ( 14, 1, 55.00000000000000000, #68 ) ;
#552 = CC_DESIGN_PERSON_AND_ORGANIZATION_ASSIGNMENT ( #495, #311, ( #156 ) ) ;
#553 = DIRECTION ( 'NONE',  ( -0.000000000000000000, -0.000000000000000000, 1.000000000000000000 ) ) ;
#554 = FACE_OUTER_BOUND ( 'NONE', #62, .T. ) ;
#555 = ORIENTED_EDGE ( 'NONE', *, *, #352, .F. ) ;
#556 = LINE ( 'NONE', #205, #380 ) ;
#557 = CARTESIAN_POINT ( 'NONE',  ( -1.587500000000000133, 1.061532360077856119, -24.41140206829359016 ) ) ;
#558 = AXIS2_PLACEMENT_3D ( 'NONE', #151, #501, #30 ) ;
#559 = CARTESIAN_POINT ( 'NONE',  ( -1.587500000000000577, 0.4277385810629848462, 24.47698654358310932 ) ) ;
#560 = CARTESIAN_POINT ( 'NONE',  ( 1.268411506570323866, -1.587500000000000355, 24.35991914209797926 ) ) ;
#561 = ORIENTED_EDGE ( 'NONE', *, *, #231, .F. ) ;
ENDSEC;
END-ISO-10303-21;
