ISO-10303-21;
HEADER;
FILE_DESCRIPTION (( 'STEP AP203' ),
    '1' );
FILE_NAME ('228-2500-077.step',
    '2022-06-06T18:56:47',
    ( '' ),
    ( '' ),
    'SwSTEP 2.0',
    'SolidWorks 2021',
    '' );
FILE_SCHEMA (( 'CONFIG_CONTROL_DESIGN' ));
ENDSEC;

DATA;
#1 = DIRECTION ( 'NONE',  ( 0.000000000000000000, 0.000000000000000000, -1.000000000000000000 ) ) ;
#2 = CARTESIAN_POINT ( 'NONE',  ( 1.587500000000000355, -0.8513200635100129920, 30.79137755531811749 ) ) ;
#3 = CARTESIAN_POINT ( 'NONE',  ( 1.060147506033617404, 1.587500000000000133, -30.76174669625517666 ) ) ;
#4 = CARTESIAN_POINT ( 'NONE',  ( -1.587500000000000577, 0.8514389605504941727, -30.79136751577920350 ) ) ;
#5 = B_SPLINE_CURVE_WITH_KNOTS ( 'NONE', 3,
 ( #44, #394, #4, #208, #172, #133 ),
 .UNSPECIFIED., .F., .F.,
 ( 4, 2, 4 ),
 ( 0.01485345774306977458, 0.01548163471194334562, 0.01610981168081691492 ),
 .UNSPECIFIED. ) ;
#6 = CARTESIAN_POINT ( 'NONE',  ( -1.587500000000000355, 1.268411506570323866, -30.70991914209798068 ) ) ;
#7 = DIRECTION ( 'NONE',  ( 0.000000000000000000, 0.000000000000000000, -1.000000000000000000 ) ) ;
#8 = CARTESIAN_POINT ( 'NONE',  ( 1.587500000000000355, -1.268411506570323866, -30.70991914209798068 ) ) ;
#9 = DESIGN_CONTEXT ( 'detailed design', #316, 'design' ) ;
#10 = CARTESIAN_POINT ( 'NONE',  ( 1.587500000000000355, 0.000000000000000000, -30.83322736169286316 ) ) ;
#11 = CIRCLE ( 'NONE', #306, 2.032000000000000028 ) ;
#12 = DIRECTION ( 'NONE',  ( 1.000000000000000000, 0.000000000000000000, 0.000000000000000000 ) ) ;
#13 = ORIENTED_EDGE ( 'NONE', *, *, #486, .T. ) ;
#14 = DATE_TIME_ROLE ( 'creation_date' ) ;
#15 = CARTESIAN_POINT ( 'NONE',  ( 1.587500000000000133, -1.061532360077856119, -30.76140206829359158 ) ) ;
#16 = B_SPLINE_CURVE_WITH_KNOTS ( 'NONE', 3,
 ( #110, #545, #184, #359, #536, #144, #57, #18 ),
 .UNSPECIFIED., .F., .F.,
 ( 4, 2, 2, 4 ),
 ( 0.01485345774306977458, 0.01548583974386943084, 0.01611822174466908883, 0.01738298574626840134 ),
 .UNSPECIFIED. ) ;
#17 = VERTEX_POINT ( 'NONE', #483 ) ;
#18 = CARTESIAN_POINT ( 'NONE',  ( 1.268411506570324088, 1.587500000000000355, 30.70991914209798068 ) ) ;
#19 = APPROVAL_ROLE ( '' ) ;
#20 = CARTESIAN_POINT ( 'NONE',  ( -1.587500000000000355, 1.944126793646423534E-16, -30.83322736169286316 ) ) ;
#21 = PRODUCT_DEFINITION ( 'UNKNOWN', '', #369, #9 ) ;
#22 = COORDINATED_UNIVERSAL_TIME_OFFSET ( 6, 0, .BEHIND. ) ;
#23 = CARTESIAN_POINT ( 'NONE',  ( 1.587500000000000355, -1.268411506570324088, 30.70991914209798068 ) ) ;
#24 = ORIENTED_EDGE ( 'NONE', *, *, #298, .T. ) ;
#25 = DIRECTION ( 'NONE',  ( 0.000000000000000000, 0.000000000000000000, 1.000000000000000000 ) ) ;
#26 = CARTESIAN_POINT ( 'NONE',  ( 0.000000000000000000, 0.000000000000000000, -30.86100000000000065 ) ) ;
#27 = ORIENTED_EDGE ( 'NONE', *, *, #196, .T. ) ;
#28 = CYLINDRICAL_SURFACE ( 'NONE', #276, 2.032000000000000028 ) ;
#29 = VECTOR ( 'NONE', #1, 1000.000000000000000 ) ;
#30 = ORIENTED_EDGE ( 'NONE', *, *, #511, .F. ) ;
#31 = CARTESIAN_POINT ( 'NONE',  ( 0.000000000000000000, 0.000000000000000000, -30.86100000000000065 ) ) ;
#32 = EDGE_LOOP ( 'NONE', ( #543, #159, #142, #192 ) ) ;
#33 = EDGE_CURVE ( 'NONE', #282, #246, #249, .T. ) ;
#34 = DIRECTION ( 'NONE',  ( 0.000000000000000000, 0.000000000000000000, -1.000000000000000000 ) ) ;
#35 = ORIENTED_EDGE ( 'NONE', *, *, #431, .F. ) ;
#36 = CARTESIAN_POINT ( 'NONE',  ( 1.060147506033617404, -1.587500000000000133, 30.76174669625517666 ) ) ;
#37 = AXIS2_PLACEMENT_3D ( 'NONE', #438, #478, #12 ) ;
#38 = LINE ( 'NONE', #475, #328 ) ;
#39 = DIRECTION ( 'NONE',  ( -0.000000000000000000, 1.000000000000000000, 0.000000000000000000 ) ) ;
#40 = DIRECTION ( 'NONE',  ( 0.000000000000000000, 0.000000000000000000, -1.000000000000000000 ) ) ;
#41 = CARTESIAN_POINT ( 'NONE',  ( 1.268411506570323866, 1.587500000000000355, -30.70991914209798068 ) ) ;
#42 = CARTESIAN_POINT ( 'NONE',  ( 1.587500000000000355, 0.2114796877013867260, 30.83322736169286671 ) ) ;
#43 = DIRECTION ( 'NONE',  ( -0.000000000000000000, -0.000000000000000000, 1.000000000000000000 ) ) ;
#44 = CARTESIAN_POINT ( 'NONE',  ( -1.587500000000000355, 1.268411506570323866, -30.70991914209798068 ) ) ;
#45 = AXIS2_PLACEMENT_3D ( 'NONE', #86, #262, #433 ) ;
#46 = CARTESIAN_POINT ( 'NONE',  ( 1.587500000000000355, 1.268411506570323866, -30.70991914209798068 ) ) ;
#47 = DIRECTION ( 'NONE',  ( 0.000000000000000000, 1.000000000000000000, 0.000000000000000000 ) ) ;
#48 = CARTESIAN_POINT ( 'NONE',  ( 0.000000000000000000, 0.000000000000000000, 30.70991914209798068 ) ) ;
#49 = APPROVAL_PERSON_ORGANIZATION ( #141, #357, #280 ) ;
#50 = CARTESIAN_POINT ( 'NONE',  ( -0.8571092511719565765, 1.587500000000000355, -30.81227379706276892 ) ) ;
#51 = ORIENTED_EDGE ( 'NONE', *, *, #224, .T. ) ;
#52 = AXIS2_PLACEMENT_3D ( 'NONE', #287, #409, #187 ) ;
#53 = CIRCLE ( 'NONE', #122, 1.245064030267288402 ) ;
#54 = SECURITY_CLASSIFICATION_LEVEL ( 'unclassified' ) ;
#55 = ORIENTED_EDGE ( 'NONE', *, *, #396, .T. ) ;
#56 =( NAMED_UNIT ( * ) SI_UNIT ( $, .STERADIAN. ) SOLID_ANGLE_UNIT ( ) );
#57 = CARTESIAN_POINT ( 'NONE',  ( 0.8571092511719565765, 1.587500000000000355, 30.81227379706276892 ) ) ;
#58 = ORIENTED_EDGE ( 'NONE', *, *, #224, .F. ) ;
#59 = APPROVAL_STATUS ( 'not_yet_approved' ) ;
#60 = DIRECTION ( 'NONE',  ( -0.000000000000000000, -0.000000000000000000, 1.000000000000000000 ) ) ;
#61 = ORIENTED_EDGE ( 'NONE', *, *, #326, .T. ) ;
#62 = PERSON_AND_ORGANIZATION ( #347, #482 ) ;
#63 = CIRCLE ( 'NONE', #136, 2.124999999999998224 ) ;
#64 = DIRECTION ( 'NONE',  ( 1.000000000000000000, 0.000000000000000000, 0.000000000000000000 ) ) ;
#65 = ORIENTED_EDGE ( 'NONE', *, *, #473, .F. ) ;
#66 = CARTESIAN_POINT ( 'NONE',  ( 1.587500000000000355, -0.2114796877013867260, -30.83322736169286671 ) ) ;
#67 = CC_DESIGN_APPROVAL ( #203, ( #369 ) ) ;
#68 = ORIENTED_EDGE ( 'NONE', *, *, #326, .F. ) ;
#69 = CARTESIAN_POINT ( 'NONE',  ( -0.8486262390323829896, -1.587500000000000577, -30.79176882282394700 ) ) ;
#70 = CC_DESIGN_PERSON_AND_ORGANIZATION_ASSIGNMENT ( #407, #143, ( #207 ) ) ;
#71 = ORIENTED_EDGE ( 'NONE', *, *, #123, .F. ) ;
#72 = LINE ( 'NONE', #336, #211 ) ;
#73 = EDGE_LOOP ( 'NONE', ( #153, #290, #140, #243, #201, #443, #445, #137 ) ) ;
#74 = APPROVAL_DATE_TIME ( #151, #265 ) ;
#75 = DIRECTION ( 'NONE',  ( -0.000000000000000000, -0.000000000000000000, 1.000000000000000000 ) ) ;
#76 = ORIENTED_EDGE ( 'NONE', *, *, #123, .T. ) ;
#77 = AXIS2_PLACEMENT_3D ( 'NONE', #283, #25, #413 ) ;
#78 = DIRECTION ( 'NONE',  ( -0.000000000000000000, -0.000000000000000000, 1.000000000000000000 ) ) ;
#79 = EDGE_CURVE ( 'NONE', #116, #17, #388, .T. ) ;
#80 = CARTESIAN_POINT ( 'NONE',  ( 1.587500000000000577, 0.8514389605504941727, 30.79136751577920350 ) ) ;
#81 = CARTESIAN_POINT ( 'NONE',  ( 0.4219230645619491682, -1.587500000000000577, 30.82730730355362425 ) ) ;
#82 = CIRCLE ( 'NONE', #99, 2.032000000000000028 ) ;
#83 = CARTESIAN_POINT ( 'NONE',  ( 1.587500000000000577, -0.4277385810629849017, 30.82698654358311430 ) ) ;
#84 = CARTESIAN_POINT ( 'NONE',  ( -0.4342314039556041672, 1.587500000000000355, -30.83285171744313757 ) ) ;
#85 = ADVANCED_FACE ( 'NONE', ( #300 ), #125, .F. ) ;
#86 = CARTESIAN_POINT ( 'NONE',  ( 0.000000000000000000, 0.000000000000000000, -30.86100000000000065 ) ) ;
#87 = DIRECTION ( 'NONE',  ( -0.000000000000000000, -0.000000000000000000, 1.000000000000000000 ) ) ;
#88 = CARTESIAN_POINT ( 'NONE',  ( -1.587500000000000355, 1.587500000000000355, -30.86100000000000065 ) ) ;
#89 = CC_DESIGN_PERSON_AND_ORGANIZATION_ASSIGNMENT ( #147, #499, ( #369 ) ) ;
#90 = EDGE_CURVE ( 'NONE', #181, #512, #38, .T. ) ;
#91 = DIRECTION ( 'NONE',  ( 1.000000000000000000, 0.000000000000000000, 0.000000000000000000 ) ) ;
#92 = FACE_OUTER_BOUND ( 'NONE', #416, .T. ) ;
#93 = AXIS2_PLACEMENT_3D ( 'NONE', #222, #7, #255 ) ;
#94 = ADVANCED_FACE ( 'NONE', ( #164 ), #350, .T. ) ;
#95 = DIRECTION ( 'NONE',  ( -0.000000000000000000, -0.000000000000000000, 1.000000000000000000 ) ) ;
#96 = EDGE_LOOP ( 'NONE', ( #390, #364, #24, #204, #309, #68, #277, #58 ) ) ;
#97 = CARTESIAN_POINT ( 'NONE',  ( -1.587500000000000355, -1.268411506570323866, 30.70991914209798068 ) ) ;
#98 = DATE_AND_TIME ( #456, #165 ) ;
#99 = AXIS2_PLACEMENT_3D ( 'NONE', #334, #78, #464 ) ;
#100 = PERSON_AND_ORGANIZATION ( #347, #482 ) ;
#101 = CARTESIAN_POINT ( 'NONE',  ( 1.587500000000000577, -0.8514389605504941727, -30.79136751577920350 ) ) ;
#102 =( NAMED_UNIT ( * ) PLANE_ANGLE_UNIT ( ) SI_UNIT ( $, .RADIAN. ) );
#103 = CARTESIAN_POINT ( 'NONE',  ( -1.587500000000000355, 0.8513200635100127700, 30.79137755531811749 ) ) ;
#104 = ORIENTED_EDGE ( 'NONE', *, *, #310, .F. ) ;
#105 = ADVANCED_FACE ( 'NONE', ( #92 ), #412, .T. ) ;
#106 = PERSON_AND_ORGANIZATION_ROLE ( 'classification_officer' ) ;
#107 = DIRECTION ( 'NONE',  ( 1.000000000000000000, 0.000000000000000000, 0.000000000000000000 ) ) ;
#108 = VERTEX_POINT ( 'NONE', #343 ) ;
#109 = CIRCLE ( 'NONE', #549, 1.245064030267288402 ) ;
#110 = CARTESIAN_POINT ( 'NONE',  ( -1.268411506570323866, 1.587500000000000355, 30.70991914209798068 ) ) ;
#111 = EDGE_LOOP ( 'NONE', ( #403, #539, #51, #425, #451, #27 ) ) ;
#112 = CARTESIAN_POINT ( 'NONE',  ( -1.587500000000000355, -1.587500000000000355, 30.86100000000000065 ) ) ;
#113 = LOCAL_TIME ( 13, 56, 47.00000000000000000, #323 ) ;
#114 = ORIENTED_EDGE ( 'NONE', *, *, #542, .T. ) ;
#115 = CYLINDRICAL_SURFACE ( 'NONE', #376, 2.032000000000000028 ) ;
#116 = VERTEX_POINT ( 'NONE', #520 ) ;
#117 = CARTESIAN_POINT ( 'NONE',  ( 0.000000000000000000, 0.000000000000000000, -30.70991914209798068 ) ) ;
#118 = ORIENTED_EDGE ( 'NONE', *, *, #344, .T. ) ;
#119 = EDGE_CURVE ( 'NONE', #108, #170, #528, .T. ) ;
#120 = PLANE ( 'NONE',  #314 ) ;
#121 = CARTESIAN_POINT ( 'NONE',  ( 1.587500000000000133, 1.061532360077856119, 30.76140206829359158 ) ) ;
#122 = AXIS2_PLACEMENT_3D ( 'NONE', #487, #95, #268 ) ;
#123 = EDGE_CURVE ( 'NONE', #170, #116, #514, .T. ) ;
#124 = DIRECTION ( 'NONE',  ( 0.000000000000000000, 0.000000000000000000, -1.000000000000000000 ) ) ;
#125 = PLANE ( 'NONE',  #530 ) ;
#126 = CARTESIAN_POINT ( 'NONE',  ( -1.060147506033617404, -1.587500000000000133, -30.76174669625517666 ) ) ;
#127 = ADVANCED_FACE ( 'NONE', ( #525 ), #472, .T. ) ;
#128 = CARTESIAN_POINT ( 'NONE',  ( 0.000000000000000000, 0.000000000000000000, 30.70991914209798068 ) ) ;
#129 = CARTESIAN_POINT ( 'NONE',  ( -1.268411506570324088, -1.587500000000000355, 30.70991914209798068 ) ) ;
#130 = EDGE_CURVE ( 'NONE', #537, #108, #174, .T. ) ;
#131 = CARTESIAN_POINT ( 'NONE',  ( -1.245064030267288402, -1.524763679400337895E-16, 28.73600000000000065 ) ) ;
#132 = CARTESIAN_POINT ( 'NONE',  ( -0.8571092511719565765, -1.587500000000000355, 30.81227379706276892 ) ) ;
#133 = CARTESIAN_POINT ( 'NONE',  ( -1.587500000000000355, 1.944126793646423534E-16, -30.83322736169286316 ) ) ;
#134 = APPLICATION_CONTEXT ( 'configuration controlled 3d designs of mechanical parts and assemblies' ) ;
#135 = CARTESIAN_POINT ( 'NONE',  ( -1.268411506570323866, -1.587500000000000355, -30.70991914209798068 ) ) ;
#136 = AXIS2_PLACEMENT_3D ( 'NONE', #148, #414, #34 ) ;
#137 = ORIENTED_EDGE ( 'NONE', *, *, #298, .F. ) ;
#138 = CC_DESIGN_PERSON_AND_ORGANIZATION_ASSIGNMENT ( #62, #370, ( #21 ) ) ;
#139 = CARTESIAN_POINT ( 'NONE',  ( 0.000000000000000000, 0.000000000000000000, 30.86100000000000065 ) ) ;
#140 = ORIENTED_EDGE ( 'NONE', *, *, #145, .F. ) ;
#141 = PERSON_AND_ORGANIZATION ( #347, #482 ) ;
#142 = ORIENTED_EDGE ( 'NONE', *, *, #332, .F. ) ;
#143 = PERSON_AND_ORGANIZATION_ROLE ( 'design_owner' ) ;
#144 = CARTESIAN_POINT ( 'NONE',  ( 0.4342314039556041672, 1.587500000000000355, 30.83285171744313757 ) ) ;
#145 = EDGE_CURVE ( 'NONE', #496, #246, #5, .T. ) ;
#146 = ORIENTED_EDGE ( 'NONE', *, *, #206, .F. ) ;
#147 = PERSON_AND_ORGANIZATION ( #347, #482 ) ;
#148 = CARTESIAN_POINT ( 'NONE',  ( 1.245064030267288402, 0.000000000000000000, -28.73600000000000065 ) ) ;
#149 = FACE_OUTER_BOUND ( 'NONE', #337, .T. ) ;
#150 = ORIENTED_EDGE ( 'NONE', *, *, #166, .F. ) ;
#151 = DATE_AND_TIME ( #540, #518 ) ;
#152 = CARTESIAN_POINT ( 'NONE',  ( 1.587500000000000355, -1.268411506570323866, -30.70991914209798068 ) ) ;
#153 = ORIENTED_EDGE ( 'NONE', *, *, #206, .T. ) ;
#154 = CIRCLE ( 'NONE', #476, 1.245064030267288402 ) ;
#155 = CIRCLE ( 'NONE', #239, 2.032000000000000028 ) ;
#156 = FACE_OUTER_BOUND ( 'NONE', #288, .T. ) ;
#157 = ORIENTED_EDGE ( 'NONE', *, *, #79, .T. ) ;
#158 = LINE ( 'NONE', #341, #523 ) ;
#159 = ORIENTED_EDGE ( 'NONE', *, *, #452, .T. ) ;
#160 = PLANE ( 'NONE',  #446 ) ;
#161 = ORIENTED_EDGE ( 'NONE', *, *, #79, .F. ) ;
#162 = CARTESIAN_POINT ( 'NONE',  ( -1.268411506570323866, 1.587500000000000355, -30.86100000000000065 ) ) ;
#163 = DIRECTION ( 'NONE',  ( 0.000000000000000000, 0.000000000000000000, -1.000000000000000000 ) ) ;
#164 = FACE_OUTER_BOUND ( 'NONE', #552, .T. ) ;
#165 = LOCAL_TIME ( 13, 56, 47.00000000000000000, #22 ) ;
#166 = EDGE_CURVE ( 'NONE', #251, #325, #178, .T. ) ;
#167 = DIRECTION ( 'NONE',  ( 0.000000000000000000, -0.000000000000000000, -1.000000000000000000 ) ) ;
#168 = CARTESIAN_POINT ( 'NONE',  ( 1.587500000000000355, -1.268411506570324088, 30.70991914209798068 ) ) ;
#169 = CARTESIAN_POINT ( 'NONE',  ( -1.587500000000000355, -0.4276219574846464311, 30.82699639200009400 ) ) ;
#170 = VERTEX_POINT ( 'NONE', #23 ) ;
#171 = CARTESIAN_POINT ( 'NONE',  ( 0.000000000000000000, 0.000000000000000000, 30.70991914209798068 ) ) ;
#172 = CARTESIAN_POINT ( 'NONE',  ( -1.587500000000000355, 0.2114796877013867260, -30.83322736169286671 ) ) ;
#173 = B_SPLINE_CURVE_WITH_KNOTS ( 'NONE', 3,
 ( #398, #393, #354, #169, #348, #524 ),
 .UNSPECIFIED., .F., .F.,
 ( 4, 2, 4 ),
 ( 0.01485345774306977458, 0.01548163471194334562, 0.01610981168081691492 ),
 .UNSPECIFIED. ) ;
#174 = B_SPLINE_CURVE_WITH_KNOTS ( 'NONE', 3,
 ( #339, #121, #80, #427, #42, #267 ),
 .UNSPECIFIED., .F., .F.,
 ( 4, 2, 4 ),
 ( 0.01485345774306977458, 0.01548163471194334562, 0.01610981168081691492 ),
 .UNSPECIFIED. ) ;
#175 = CARTESIAN_POINT ( 'NONE',  ( 1.587500000000000355, 0.000000000000000000, -30.83322736169286316 ) ) ;
#176 = ADVANCED_FACE ( 'NONE', ( #156 ), #244, .T. ) ;
#177 = CARTESIAN_POINT ( 'NONE',  ( 0.000000000000000000, 0.000000000000000000, -30.70991914209798068 ) ) ;
#178 = CIRCLE ( 'NONE', #505, 2.124999999999998224 ) ;
#179 = AXIS2_PLACEMENT_3D ( 'NONE', #435, #43, #395 ) ;
#180 = CARTESIAN_POINT ( 'NONE',  ( 0.4219230645619491682, 1.587500000000000577, -30.82730730355362425 ) ) ;
#181 = VERTEX_POINT ( 'NONE', #411 ) ;
#182 = EDGE_CURVE ( 'NONE', #517, #550, #261, .T. ) ;
#183 = DATE_AND_TIME ( #237, #195 ) ;
#184 = CARTESIAN_POINT ( 'NONE',  ( -0.8486262390323829896, 1.587500000000000577, 30.79176882282394700 ) ) ;
#185 = ORIENTED_EDGE ( 'NONE', *, *, #542, .F. ) ;
#186 = CALENDAR_DATE ( 2022, 6, 6 ) ;
#187 = DIRECTION ( 'NONE',  ( -1.000000000000000000, 0.000000000000000000, -0.000000000000000000 ) ) ;
#188 = VERTEX_POINT ( 'NONE', #279 ) ;
#189 = AXIS2_PLACEMENT_3D ( 'NONE', #128, #264, #479 ) ;
#190 = COORDINATED_UNIVERSAL_TIME_OFFSET ( 6, 0, .BEHIND. ) ;
#191 = CARTESIAN_POINT ( 'NONE',  ( 0.000000000000000000, 0.000000000000000000, -28.73600000000000065 ) ) ;
#192 = ORIENTED_EDGE ( 'NONE', *, *, #230, .T. ) ;
#193 = APPROVAL_STATUS ( 'not_yet_approved' ) ;
#194 = DIRECTION ( 'NONE',  ( 1.000000000000000000, 0.000000000000000000, 0.000000000000000000 ) ) ;
#195 = LOCAL_TIME ( 13, 56, 47.00000000000000000, #453 ) ;
#196 = EDGE_CURVE ( 'NONE', #325, #421, #391, .T. ) ;
#197 = EDGE_LOOP ( 'NONE', ( #555, #507, #382, #467 ) ) ;
#198 = DIRECTION ( 'NONE',  ( 1.000000000000000000, 0.000000000000000000, 0.000000000000000000 ) ) ;
#199 = VERTEX_POINT ( 'NONE', #547 ) ;
#200 = FACE_OUTER_BOUND ( 'NONE', #501, .T. ) ;
#201 = ORIENTED_EDGE ( 'NONE', *, *, #452, .F. ) ;
#202 = DIRECTION ( 'NONE',  ( -1.000000000000000000, 0.000000000000000000, 0.000000000000000000 ) ) ;
#203 = APPROVAL ( #240, 'UNSPECIFIED' ) ;
#204 = ORIENTED_EDGE ( 'NONE', *, *, #182, .F. ) ;
#205 = CARTESIAN_POINT ( 'NONE',  ( -0.4219230645619491682, -1.587500000000000577, -30.82730730355362425 ) ) ;
#206 = EDGE_CURVE ( 'NONE', #509, #282, #154, .T. ) ;
#207 = PRODUCT ( '228-2500-077', '228-2500-077', '', ( #235 ) ) ;
#208 = CARTESIAN_POINT ( 'NONE',  ( -1.587500000000000355, 0.4276219574846464311, -30.82699639200009400 ) ) ;
#209 = VECTOR ( 'NONE', #40, 1000.000000000000000 ) ;
#210 = CARTESIAN_POINT ( 'NONE',  ( 0.8571092511719565765, -1.587500000000000355, -30.81227379706276892 ) ) ;
#211 = VECTOR ( 'NONE', #163, 1000.000000000000000 ) ;
#212 = ORIENTED_EDGE ( 'NONE', *, *, #119, .T. ) ;
#213 = B_SPLINE_CURVE_WITH_KNOTS ( 'NONE', 3,
 ( #175, #401, #305, #227, #221, #46 ),
 .UNSPECIFIED., .F., .F.,
 ( 4, 2, 4 ),
 ( 0.000000000000000000, 0.0006365870327257437547, 0.001273174065451487509 ),
 .UNSPECIFIED. ) ;
#214 = SHAPE_DEFINITION_REPRESENTATION ( #436, #274 ) ;
#215 = LINE ( 'NONE', #162, #29 ) ;
#216 = CARTESIAN_POINT ( 'NONE',  ( 1.587500000000000355, -0.2143109880596213435, 30.83322736169287026 ) ) ;
#217 = CC_DESIGN_SECURITY_CLASSIFICATION ( #553, ( #369 ) ) ;
#218 = ADVANCED_FACE ( 'NONE', ( #149 ), #331, .F. ) ;
#219 = DIRECTION ( 'NONE',  ( -0.000000000000000000, -0.000000000000000000, 1.000000000000000000 ) ) ;
#220 = DIRECTION ( 'NONE',  ( -1.000000000000000000, 0.000000000000000000, -0.000000000000000000 ) ) ;
#221 = CARTESIAN_POINT ( 'NONE',  ( 1.587500000000000355, 1.061392899157111103, -30.76143677385166342 ) ) ;
#222 = CARTESIAN_POINT ( 'NONE',  ( 0.000000000000000000, 0.000000000000000000, 28.73600000000000065 ) ) ;
#223 = CARTESIAN_POINT ( 'NONE',  ( -1.268411506570323866, 1.587500000000000355, -30.70991914209798068 ) ) ;
#224 = EDGE_CURVE ( 'NONE', #246, #463, #480, .T. ) ;
#225 = AXIS2_PLACEMENT_3D ( 'NONE', #177, #355, #489 ) ;
#226 = CARTESIAN_POINT ( 'NONE',  ( 0.8486262390323829896, 1.587500000000000577, -30.79176882282394700 ) ) ;
#227 = CARTESIAN_POINT ( 'NONE',  ( 1.587500000000000355, 0.8513200635100126590, -30.79137755531811749 ) ) ;
#228 = AXIS2_PLACEMENT_3D ( 'NONE', #88, #259, #220 ) ;
#229 = VECTOR ( 'NONE', #481, 1000.000000000000000 ) ;
#230 = EDGE_CURVE ( 'NONE', #199, #512, #16, .T. ) ;
#231 = PERSON_AND_ORGANIZATION ( #347, #482 ) ;
#232 = CARTESIAN_POINT ( 'NONE',  ( -1.587500000000000577, -0.4277385810629850682, -30.82698654358311074 ) ) ;
#233 = EDGE_CURVE ( 'NONE', #282, #509, #304, .T. ) ;
#234 = APPROVAL_PERSON_ORGANIZATION ( #100, #203, #361 ) ;
#235 = MECHANICAL_CONTEXT ( 'NONE', #134, 'mechanical' ) ;
#236 = PLANE ( 'NONE',  #52 ) ;
#237 = CALENDAR_DATE ( 2022, 6, 6 ) ;
#238 = DIRECTION ( 'NONE',  ( 0.000000000000000000, -0.000000000000000000, 1.000000000000000000 ) ) ;
#239 = AXIS2_PLACEMENT_3D ( 'NONE', #466, #124, #202 ) ;
#240 = APPROVAL_STATUS ( 'not_yet_approved' ) ;
#241 = FACE_OUTER_BOUND ( 'NONE', #248, .T. ) ;
#242 = ADVANCED_FACE ( 'NONE', ( #241 ), #236, .F. ) ;
#243 = ORIENTED_EDGE ( 'NONE', *, *, #495, .F. ) ;
#244 = CYLINDRICAL_SURFACE ( 'NONE', #402, 2.032000000000000028 ) ;
#245 = CC_DESIGN_APPROVAL ( #357, ( #21 ) ) ;
#246 = VERTEX_POINT ( 'NONE', #327 ) ;
#247 = FACE_OUTER_BOUND ( 'NONE', #197, .T. ) ;
#248 = EDGE_LOOP ( 'NONE', ( #114, #488 ) ) ;
#249 = CIRCLE ( 'NONE', #458, 2.124999999999998224 ) ;
#250 = CARTESIAN_POINT ( 'NONE',  ( -0.2043756380772877856, -1.587500000000000133, -30.83340961896379540 ) ) ;
#251 = VERTEX_POINT ( 'NONE', #366 ) ;
#252 = CARTESIAN_POINT ( 'NONE',  ( 0.000000000000000000, 0.000000000000000000, -30.86100000000000065 ) ) ;
#253 = ORIENTED_EDGE ( 'NONE', *, *, #233, .F. ) ;
#254 = DIRECTION ( 'NONE',  ( 1.000000000000000000, 0.000000000000000000, 0.000000000000000000 ) ) ;
#255 = DIRECTION ( 'NONE',  ( 1.000000000000000000, 0.000000000000000000, 0.000000000000000000 ) ) ;
#256 = CARTESIAN_POINT ( 'NONE',  ( 0.2043756380772877856, -1.587500000000000133, 30.83340961896379540 ) ) ;
#257 = AXIS2_PLACEMENT_3D ( 'NONE', #171, #266, #315 ) ;
#258 = CC_DESIGN_PERSON_AND_ORGANIZATION_ASSIGNMENT ( #231, #106, ( #553 ) ) ;
#259 = DIRECTION ( 'NONE',  ( 0.000000000000000000, 0.000000000000000000, -1.000000000000000000 ) ) ;
#260 = FACE_OUTER_BOUND ( 'NONE', #96, .T. ) ;
#261 = B_SPLINE_CURVE_WITH_KNOTS ( 'NONE', 3,
 ( #152, #15, #101, #508, #66, #417 ),
 .UNSPECIFIED., .F., .F.,
 ( 4, 2, 4 ),
 ( 0.01485345774306977458, 0.01548163471194334562, 0.01610981168081691492 ),
 .UNSPECIFIED. ) ;
#262 = DIRECTION ( 'NONE',  ( -0.000000000000000000, -0.000000000000000000, 1.000000000000000000 ) ) ;
#263 = DIRECTION ( 'NONE',  ( 1.000000000000000000, 0.000000000000000000, 0.000000000000000000 ) ) ;
#264 = DIRECTION ( 'NONE',  ( 0.000000000000000000, 0.000000000000000000, -1.000000000000000000 ) ) ;
#265 = APPROVAL ( #59, 'UNSPECIFIED' ) ;
#266 = DIRECTION ( 'NONE',  ( 0.000000000000000000, 0.000000000000000000, -1.000000000000000000 ) ) ;
#267 = CARTESIAN_POINT ( 'NONE',  ( 1.587500000000000355, 0.000000000000000000, 30.83322736169286316 ) ) ;
#268 = DIRECTION ( 'NONE',  ( 1.000000000000000000, 0.000000000000000000, 0.000000000000000000 ) ) ;
#269 = MANIFOLD_SOLID_BREP ( '228-2500-077', #493 ) ;
#270 = EDGE_LOOP ( 'NONE', ( #104, #379, #319, #297, #515, #212 ) ) ;
#271 = CIRCLE ( 'NONE', #225, 2.032000000000000028 ) ;
#272 = FACE_OUTER_BOUND ( 'NONE', #535, .T. ) ;
#273 = VERTEX_POINT ( 'NONE', #324 ) ;
#274 = ADVANCED_BREP_SHAPE_REPRESENTATION ( '228-2500-077', ( #269, #77 ), #352 ) ;
#275 = ADVANCED_FACE ( 'NONE', ( #541 ), #374, .T. ) ;
#276 = AXIS2_PLACEMENT_3D ( 'NONE', #252, #551, #510 ) ;
#277 = ORIENTED_EDGE ( 'NONE', *, *, #557, .F. ) ;
#278 = APPROVAL_DATE_TIME ( #98, #203 ) ;
#279 = CARTESIAN_POINT ( 'NONE',  ( 1.587500000000000355, 1.268411506570323866, -30.70991914209798068 ) ) ;
#280 = APPROVAL_ROLE ( '' ) ;
#281 = DIRECTION ( 'NONE',  ( 1.224646799147353207E-16, -1.000000000000000000, 0.000000000000000000 ) ) ;
#282 = VERTEX_POINT ( 'NONE', #462 ) ;
#283 = CARTESIAN_POINT ( 'NONE',  ( 0.000000000000000000, 0.000000000000000000, 0.000000000000000000 ) ) ;
#284 = CARTESIAN_POINT ( 'NONE',  ( -1.587500000000000355, -1.268411506570323866, -30.70991914209798068 ) ) ;
#285 = ORIENTED_EDGE ( 'NONE', *, *, #332, .T. ) ;
#286 = TOROIDAL_SURFACE ( 'NONE', #37, 1.245064030267288402, 2.124999999999998224 ) ;
#287 = CARTESIAN_POINT ( 'NONE',  ( -1.587500000000000355, 1.587500000000000355, 30.86100000000000065 ) ) ;
#288 = EDGE_LOOP ( 'NONE', ( #455, #118, #419, #285 ) ) ;
#289 = CARTESIAN_POINT ( 'NONE',  ( -1.587500000000000355, -1.944126793646423534E-16, 30.83322736169286316 ) ) ;
#290 = ORIENTED_EDGE ( 'NONE', *, *, #33, .T. ) ;
#291 = DIRECTION ( 'NONE',  ( -0.000000000000000000, -0.000000000000000000, 1.000000000000000000 ) ) ;
#292 = CC_DESIGN_DATE_AND_TIME_ASSIGNMENT ( #490, #14, ( #21 ) ) ;
#293 = ORIENTED_EDGE ( 'NONE', *, *, #230, .F. ) ;
#294 = AXIS2_PLACEMENT_3D ( 'NONE', #191, #457, #64 ) ;
#295 = CARTESIAN_POINT ( 'NONE',  ( 1.587500000000000355, -1.268411506570323866, -30.86100000000000065 ) ) ;
#296 = B_SPLINE_CURVE_WITH_KNOTS ( 'NONE', 3,
 ( #378, #126, #69, #205, #250, #474, #210, #383 ),
 .UNSPECIFIED., .F., .F.,
 ( 4, 2, 2, 4 ),
 ( 0.01485345774306977458, 0.01548583974386943084, 0.01611822174466908883, 0.01738298574626840134 ),
 .UNSPECIFIED. ) ;
#297 = ORIENTED_EDGE ( 'NONE', *, *, #486, .F. ) ;
#298 = EDGE_CURVE ( 'NONE', #509, #550, #63, .T. ) ;
#299 = CARTESIAN_POINT ( 'NONE',  ( -1.587500000000000355, 1.587500000000000355, 30.86100000000000065 ) ) ;
#300 = FACE_OUTER_BOUND ( 'NONE', #270, .T. ) ;
#301 = CARTESIAN_POINT ( 'NONE',  ( -1.587500000000000355, 1.268411506570324088, 30.70991914209798068 ) ) ;
#302 = CC_DESIGN_PERSON_AND_ORGANIZATION_ASSIGNMENT ( #461, #544, ( #369 ) ) ;
#303 = DIRECTION ( 'NONE',  ( -1.000000000000000000, 0.000000000000000000, 0.000000000000000000 ) ) ;
#304 = CIRCLE ( 'NONE', #363, 1.245064030267288402 ) ;
#305 = CARTESIAN_POINT ( 'NONE',  ( 1.587500000000000577, 0.4277385810629847906, -30.82698654358311074 ) ) ;
#306 = AXIS2_PLACEMENT_3D ( 'NONE', #48, #526, #311 ) ;
#307 = DIRECTION ( 'NONE',  ( 1.224646799147353207E-16, 1.000000000000000000, 0.000000000000000000 ) ) ;
#308 = CARTESIAN_POINT ( 'NONE',  ( 1.587500000000000355, 1.268411506570323866, -30.86100000000000065 ) ) ;
#309 = ORIENTED_EDGE ( 'NONE', *, *, #377, .F. ) ;
#310 = EDGE_CURVE ( 'NONE', #517, #170, #426, .T. ) ;
#311 = DIRECTION ( 'NONE',  ( -1.000000000000000000, 0.000000000000000000, 0.000000000000000000 ) ) ;
#312 = DIRECTION ( 'NONE',  ( -1.000000000000000000, 1.224646799147353454E-16, 0.000000000000000000 ) ) ;
#313 = CARTESIAN_POINT ( 'NONE',  ( 1.587500000000000355, 1.268411506570323866, 30.70991914209798068 ) ) ;
#314 = AXIS2_PLACEMENT_3D ( 'NONE', #299, #471, #167 ) ;
#315 = DIRECTION ( 'NONE',  ( -1.000000000000000000, 0.000000000000000000, 0.000000000000000000 ) ) ;
#316 = APPLICATION_CONTEXT ( 'configuration controlled 3d designs of mechanical parts and assemblies' ) ;
#317 = DATE_AND_TIME ( #186, #450 ) ;
#318 = DIRECTION ( 'NONE',  ( -0.000000000000000000, -0.000000000000000000, 1.000000000000000000 ) ) ;
#319 = ORIENTED_EDGE ( 'NONE', *, *, #441, .T. ) ;
#320 = CALENDAR_DATE ( 2022, 6, 6 ) ;
#321 = CARTESIAN_POINT ( 'NONE',  ( -1.587500000000000355, 1.268411506570324088, 30.70991914209798068 ) ) ;
#322 = EDGE_CURVE ( 'NONE', #533, #527, #338, .T. ) ;
#323 = COORDINATED_UNIVERSAL_TIME_OFFSET ( 6, 0, .BEHIND. ) ;
#324 = CARTESIAN_POINT ( 'NONE',  ( 1.245064030267288402, 0.000000000000000000, 30.86100000000000065 ) ) ;
#325 = VERTEX_POINT ( 'NONE', #521 ) ;
#326 = EDGE_CURVE ( 'NONE', #533, #17, #296, .T. ) ;
#327 = CARTESIAN_POINT ( 'NONE',  ( -1.587500000000000355, 1.944126793646423534E-16, -30.83322736169286316 ) ) ;
#328 = VECTOR ( 'NONE', #437, 1000.000000000000000 ) ;
#329 = ORIENTED_EDGE ( 'NONE', *, *, #196, .F. ) ;
#330 = AXIS2_PLACEMENT_3D ( 'NONE', #117, #291, #422 ) ;
#331 = PLANE ( 'NONE',  #548 ) ;
#332 = EDGE_CURVE ( 'NONE', #199, #360, #215, .T. ) ;
#333 = ORIENTED_EDGE ( 'NONE', *, *, #400, .F. ) ;
#334 = CARTESIAN_POINT ( 'NONE',  ( 0.000000000000000000, 0.000000000000000000, -30.70991914209798068 ) ) ;
#335 = ORIENTED_EDGE ( 'NONE', *, *, #431, .T. ) ;
#336 = CARTESIAN_POINT ( 'NONE',  ( -1.587500000000000355, -1.268411506570323866, -30.86100000000000065 ) ) ;
#337 = EDGE_LOOP ( 'NONE', ( #358, #61, #161, #335 ) ) ;
#338 = LINE ( 'NONE', #420, #459 ) ;
#339 = CARTESIAN_POINT ( 'NONE',  ( 1.587500000000000355, 1.268411506570323866, 30.70991914209798068 ) ) ;
#340 = ADVANCED_FACE ( 'NONE', ( #200 ), #115, .T. ) ;
#341 = CARTESIAN_POINT ( 'NONE',  ( -1.587500000000000355, 1.268411506570323866, -30.86100000000000065 ) ) ;
#342 = CC_DESIGN_APPROVAL ( #265, ( #553 ) ) ;
#343 = CARTESIAN_POINT ( 'NONE',  ( 1.587500000000000355, 0.000000000000000000, 30.83322736169286316 ) ) ;
#344 = EDGE_CURVE ( 'NONE', #496, #421, #158, .T. ) ;
#345 = CARTESIAN_POINT ( 'NONE',  ( -1.268411506570323866, 1.587500000000000355, -30.70991914209798068 ) ) ;
#346 = ORIENTED_EDGE ( 'NONE', *, *, #400, .T. ) ;
#347 = PERSON ( 'UNSPECIFIED', 'UNSPECIFIED', 'UNSPECIFIED', ('UNSPECIFIED'), ('UNSPECIFIED'), ('UNSPECIFIED') ) ;
#348 = CARTESIAN_POINT ( 'NONE',  ( -1.587500000000000355, -0.2114796877013867260, 30.83322736169286671 ) ) ;
#349 = VECTOR ( 'NONE', #513, 1000.000000000000000 ) ;
#350 = PLANE ( 'NONE',  #228 ) ;
#351 = CARTESIAN_POINT ( 'NONE',  ( 1.245064030267288402, 0.000000000000000000, -30.86100000000000065 ) ) ;
#352 =( GEOMETRIC_REPRESENTATION_CONTEXT ( 3 ) GLOBAL_UNCERTAINTY_ASSIGNED_CONTEXT ( ( #444 ) ) GLOBAL_UNIT_ASSIGNED_CONTEXT ( ( #497, #102, #56 ) ) REPRESENTATION_CONTEXT ( 'NONE', 'WORKASPACE' ) );
#353 = CARTESIAN_POINT ( 'NONE',  ( 1.587500000000000355, -1.061392899157111325, 30.76143677385166342 ) ) ;
#354 = CARTESIAN_POINT ( 'NONE',  ( -1.587500000000000577, -0.8514389605504941727, 30.79136751577920350 ) ) ;
#355 = DIRECTION ( 'NONE',  ( -0.000000000000000000, -0.000000000000000000, 1.000000000000000000 ) ) ;
#356 = TOROIDAL_SURFACE ( 'NONE', #477, 1.245064030267288402, 2.124999999999998224 ) ;
#357 = APPROVAL ( #193, 'UNSPECIFIED' ) ;
#358 = ORIENTED_EDGE ( 'NONE', *, *, #322, .F. ) ;
#359 = CARTESIAN_POINT ( 'NONE',  ( -0.4219230645619491682, 1.587500000000000577, 30.82730730355362425 ) ) ;
#360 = VERTEX_POINT ( 'NONE', #345 ) ;
#361 = APPROVAL_ROLE ( '' ) ;
#362 = ADVANCED_FACE ( 'NONE', ( #389 ), #120, .F. ) ;
#363 = AXIS2_PLACEMENT_3D ( 'NONE', #500, #318, #107 ) ;
#364 = ORIENTED_EDGE ( 'NONE', *, *, #233, .T. ) ;
#365 = APPLICATION_PROTOCOL_DEFINITION ( 'international standard', 'config_control_design', 1994, #134 ) ;
#366 = CARTESIAN_POINT ( 'NONE',  ( -1.245064030267288402, -2.006622987633880502E-16, 30.86100000000000065 ) ) ;
#367 = EDGE_CURVE ( 'NONE', #559, #463, #72, .T. ) ;
#368 = ORIENTED_EDGE ( 'NONE', *, *, #377, .T. ) ;
#369 = PRODUCT_DEFINITION_FORMATION_WITH_SPECIFIED_SOURCE ( 'ANY', '', #207, .NOT_KNOWN. ) ;
#370 = PERSON_AND_ORGANIZATION_ROLE ( 'creator' ) ;
#371 = CARTESIAN_POINT ( 'NONE',  ( -1.587500000000000355, -1.061392899157111103, -30.76143677385166342 ) ) ;
#372 = ORIENTED_EDGE ( 'NONE', *, *, #130, .F. ) ;
#373 = CARTESIAN_POINT ( 'NONE',  ( -1.587500000000000355, 1.061392899157111769, 30.76143677385166342 ) ) ;
#374 = TOROIDAL_SURFACE ( 'NONE', #294, 1.245064030267288402, 2.124999999999998224 ) ;
#375 = ORIENTED_EDGE ( 'NONE', *, *, #415, .F. ) ;
#376 = AXIS2_PLACEMENT_3D ( 'NONE', #31, #516, #519 ) ;
#377 = EDGE_CURVE ( 'NONE', #17, #517, #82, .T. ) ;
#378 = CARTESIAN_POINT ( 'NONE',  ( -1.268411506570323866, -1.587500000000000355, -30.70991914209798068 ) ) ;
#379 = ORIENTED_EDGE ( 'NONE', *, *, #182, .T. ) ;
#380 = APPROVAL_PERSON_ORGANIZATION ( #448, #265, #19 ) ;
#381 = CARTESIAN_POINT ( 'NONE',  ( 1.245064030267288402, 0.000000000000000000, 28.73600000000000065 ) ) ;
#382 = ORIENTED_EDGE ( 'NONE', *, *, #511, .T. ) ;
#383 = CARTESIAN_POINT ( 'NONE',  ( 1.268411506570323866, -1.587500000000000355, -30.70991914209798068 ) ) ;
#384 = PRODUCT_RELATED_PRODUCT_CATEGORY ( 'detail', '', ( #207 ) ) ;
#385 = EDGE_LOOP ( 'NONE', ( #55, #465, #346, #13 ) ) ;
#386 = CIRCLE ( 'NONE', #330, 2.032000000000000028 ) ;
#387 = CARTESIAN_POINT ( 'NONE',  ( 0.8486262390323829896, -1.587500000000000577, 30.79176882282394700 ) ) ;
#388 = LINE ( 'NONE', #561, #209 ) ;
#389 = FACE_OUTER_BOUND ( 'NONE', #32, .T. ) ;
#390 = ORIENTED_EDGE ( 'NONE', *, *, #33, .F. ) ;
#391 = B_SPLINE_CURVE_WITH_KNOTS ( 'NONE', 3,
 ( #289, #454, #449, #103, #373, #321 ),
 .UNSPECIFIED., .F., .F.,
 ( 4, 2, 4 ),
 ( 1.905938025164285192E-19, 0.0006365870327257439716, 0.001273174065451487726 ),
 .UNSPECIFIED. ) ;
#392 = ADVANCED_FACE ( 'NONE', ( #247 ), #28, .T. ) ;
#393 = CARTESIAN_POINT ( 'NONE',  ( -1.587500000000000133, -1.061532360077856119, 30.76140206829359158 ) ) ;
#394 = CARTESIAN_POINT ( 'NONE',  ( -1.587500000000000133, 1.061532360077856119, -30.76140206829359158 ) ) ;
#395 = DIRECTION ( 'NONE',  ( 1.000000000000000000, 0.000000000000000000, 0.000000000000000000 ) ) ;
#396 = EDGE_CURVE ( 'NONE', #188, #181, #386, .T. ) ;
#397 = DIRECTION ( 'NONE',  ( 0.000000000000000000, 0.000000000000000000, 1.000000000000000000 ) ) ;
#398 = CARTESIAN_POINT ( 'NONE',  ( -1.587500000000000355, -1.268411506570323866, 30.70991914209798068 ) ) ;
#399 = LINE ( 'NONE', #308, #229 ) ;
#400 = EDGE_CURVE ( 'NONE', #512, #537, #155, .T. ) ;
#401 = CARTESIAN_POINT ( 'NONE',  ( 1.587500000000000133, 0.2143109880596212047, -30.83322736169286671 ) ) ;
#402 = AXIS2_PLACEMENT_3D ( 'NONE', #26, #498, #198 ) ;
#403 = ORIENTED_EDGE ( 'NONE', *, *, #344, .F. ) ;
#404 = APPLICATION_PROTOCOL_DEFINITION ( 'international standard', 'config_control_design', 1994, #316 ) ;
#405 = CARTESIAN_POINT ( 'NONE',  ( -1.587500000000000355, -0.8513200635100127700, -30.79137755531811749 ) ) ;
#406 = ORIENTED_EDGE ( 'NONE', *, *, #503, .F. ) ;
#407 = PERSON_AND_ORGANIZATION ( #347, #482 ) ;
#408 = CC_DESIGN_DATE_AND_TIME_ASSIGNMENT ( #183, #410, ( #553 ) ) ;
#409 = DIRECTION ( 'NONE',  ( 0.000000000000000000, 0.000000000000000000, -1.000000000000000000 ) ) ;
#410 = DATE_TIME_ROLE ( 'classification_date' ) ;
#411 = CARTESIAN_POINT ( 'NONE',  ( 1.268411506570323866, 1.587500000000000355, -30.70991914209798068 ) ) ;
#412 = TOROIDAL_SURFACE ( 'NONE', #93, 1.245064030267288402, 2.124999999999998224 ) ;
#413 = DIRECTION ( 'NONE',  ( 1.000000000000000000, 0.000000000000000000, 0.000000000000000000 ) ) ;
#414 = DIRECTION ( 'NONE',  ( 0.000000000000000000, -1.000000000000000000, 0.000000000000000000 ) ) ;
#415 = EDGE_CURVE ( 'NONE', #273, #108, #531, .T. ) ;
#416 = EDGE_LOOP ( 'NONE', ( #423, #546, #65, #30, #35, #71, #470, #375 ) ) ;
#417 = CARTESIAN_POINT ( 'NONE',  ( 1.587500000000000355, 0.000000000000000000, -30.83322736169286316 ) ) ;
#418 = ADVANCED_FACE ( 'NONE', ( #554 ), #160, .F. ) ;
#419 = ORIENTED_EDGE ( 'NONE', *, *, #503, .T. ) ;
#420 = CARTESIAN_POINT ( 'NONE',  ( -1.268411506570323866, -1.587500000000000355, -30.86100000000000065 ) ) ;
#421 = VERTEX_POINT ( 'NONE', #301 ) ;
#422 = DIRECTION ( 'NONE',  ( 1.000000000000000000, 0.000000000000000000, 0.000000000000000000 ) ) ;
#423 = ORIENTED_EDGE ( 'NONE', *, *, #491, .F. ) ;
#424 = DIRECTION ( 'NONE',  ( 0.000000000000000000, 0.000000000000000000, 1.000000000000000000 ) ) ;
#425 = ORIENTED_EDGE ( 'NONE', *, *, #367, .F. ) ;
#426 = LINE ( 'NONE', #295, #349 ) ;
#427 = CARTESIAN_POINT ( 'NONE',  ( 1.587500000000000355, 0.4276219574846464311, 30.82699639200009400 ) ) ;
#428 = B_SPLINE_CURVE_WITH_KNOTS ( 'NONE', 3,
 ( #41, #3, #226, #180, #532, #84, #50, #223 ),
 .UNSPECIFIED., .F., .F.,
 ( 4, 2, 2, 4 ),
 ( 0.01485345774306977458, 0.01548583974386943084, 0.01611822174466908883, 0.01738298574626840134 ),
 .UNSPECIFIED. ) ;
#429 = CIRCLE ( 'NONE', #179, 2.032000000000000028 ) ;
#430 = CARTESIAN_POINT ( 'NONE',  ( 1.268411506570323866, -1.587500000000000355, 30.70991914209798068 ) ) ;
#431 = EDGE_CURVE ( 'NONE', #116, #527, #442, .T. ) ;
#432 = CARTESIAN_POINT ( 'NONE',  ( 0.000000000000000000, 0.000000000000000000, -28.73600000000000065 ) ) ;
#433 = DIRECTION ( 'NONE',  ( 1.000000000000000000, 0.000000000000000000, 0.000000000000000000 ) ) ;
#434 = ADVANCED_FACE ( 'NONE', ( #272 ), #286, .T. ) ;
#435 = CARTESIAN_POINT ( 'NONE',  ( 0.000000000000000000, 0.000000000000000000, -30.70991914209798068 ) ) ;
#436 = PRODUCT_DEFINITION_SHAPE ( 'NONE', 'NONE',  #21 ) ;
#437 = DIRECTION ( 'NONE',  ( -0.000000000000000000, -0.000000000000000000, 1.000000000000000000 ) ) ;
#438 = CARTESIAN_POINT ( 'NONE',  ( 0.000000000000000000, 0.000000000000000000, 28.73600000000000065 ) ) ;
#439 = CARTESIAN_POINT ( 'NONE',  ( 1.587500000000000355, 0.000000000000000000, 30.83322736169286316 ) ) ;
#440 = CARTESIAN_POINT ( 'NONE',  ( -1.587500000000000355, -1.268411506570323866, -30.70991914209798068 ) ) ;
#441 = EDGE_CURVE ( 'NONE', #550, #188, #213, .T. ) ;
#442 = B_SPLINE_CURVE_WITH_KNOTS ( 'NONE', 3,
 ( #430, #36, #387, #81, #256, #534, #132, #129 ),
 .UNSPECIFIED., .F., .F.,
 ( 4, 2, 2, 4 ),
 ( 0.01485345774306977458, 0.01548583974386943084, 0.01611822174466908883, 0.01738298574626840134 ),
 .UNSPECIFIED. ) ;
#443 = ORIENTED_EDGE ( 'NONE', *, *, #396, .F. ) ;
#444 = UNCERTAINTY_MEASURE_WITH_UNIT (LENGTH_MEASURE( 1.000000000000000082E-05 ), #497, 'distance_accuracy_value', 'NONE');
#445 = ORIENTED_EDGE ( 'NONE', *, *, #441, .F. ) ;
#446 = AXIS2_PLACEMENT_3D ( 'NONE', #469, #254, #560 ) ;
#447 = ORIENTED_EDGE ( 'NONE', *, *, #310, .T. ) ;
#448 = PERSON_AND_ORGANIZATION ( #347, #482 ) ;
#449 = CARTESIAN_POINT ( 'NONE',  ( -1.587500000000000577, 0.4277385810629848462, 30.82698654358311074 ) ) ;
#450 = LOCAL_TIME ( 13, 56, 47.00000000000000000, #502 ) ;
#451 = ORIENTED_EDGE ( 'NONE', *, *, #473, .T. ) ;
#452 = EDGE_CURVE ( 'NONE', #181, #360, #428, .T. ) ;
#453 = COORDINATED_UNIVERSAL_TIME_OFFSET ( 6, 0, .BEHIND. ) ;
#454 = CARTESIAN_POINT ( 'NONE',  ( -1.587500000000000133, 0.2143109880596212047, 30.83322736169286671 ) ) ;
#455 = ORIENTED_EDGE ( 'NONE', *, *, #495, .T. ) ;
#456 = CALENDAR_DATE ( 2022, 6, 6 ) ;
#457 = DIRECTION ( 'NONE',  ( -0.000000000000000000, -0.000000000000000000, 1.000000000000000000 ) ) ;
#458 = AXIS2_PLACEMENT_3D ( 'NONE', #522, #307, #312 ) ;
#459 = VECTOR ( 'NONE', #556, 1000.000000000000000 ) ;
#460 = ORIENTED_EDGE ( 'NONE', *, *, #415, .T. ) ;
#461 = PERSON_AND_ORGANIZATION ( #347, #482 ) ;
#462 = CARTESIAN_POINT ( 'NONE',  ( -1.245064030267288402, 2.006622987633880502E-16, -30.86100000000000065 ) ) ;
#463 = VERTEX_POINT ( 'NONE', #440 ) ;
#464 = DIRECTION ( 'NONE',  ( 1.000000000000000000, 0.000000000000000000, 0.000000000000000000 ) ) ;
#465 = ORIENTED_EDGE ( 'NONE', *, *, #90, .T. ) ;
#466 = CARTESIAN_POINT ( 'NONE',  ( 0.000000000000000000, 0.000000000000000000, 30.70991914209798068 ) ) ;
#467 = ORIENTED_EDGE ( 'NONE', *, *, #367, .T. ) ;
#468 = ADVANCED_FACE ( 'NONE', ( #260 ), #356, .T. ) ;
#469 = CARTESIAN_POINT ( 'NONE',  ( -1.587500000000000355, -1.587500000000000355, 30.86100000000000065 ) ) ;
#470 = ORIENTED_EDGE ( 'NONE', *, *, #119, .F. ) ;
#471 = DIRECTION ( 'NONE',  ( 0.000000000000000000, -1.000000000000000000, 0.000000000000000000 ) ) ;
#472 = CYLINDRICAL_SURFACE ( 'NONE', #45, 2.032000000000000028 ) ;
#473 = EDGE_CURVE ( 'NONE', #559, #325, #173, .T. ) ;
#474 = CARTESIAN_POINT ( 'NONE',  ( 0.4342314039556041672, -1.587500000000000355, -30.83285171744313757 ) ) ;
#475 = CARTESIAN_POINT ( 'NONE',  ( 1.268411506570323866, 1.587500000000000355, -30.86100000000000065 ) ) ;
#476 = AXIS2_PLACEMENT_3D ( 'NONE', #494, #60, #194 ) ;
#477 = AXIS2_PLACEMENT_3D ( 'NONE', #432, #219, #91 ) ;
#478 = DIRECTION ( 'NONE',  ( 0.000000000000000000, 0.000000000000000000, -1.000000000000000000 ) ) ;
#479 = DIRECTION ( 'NONE',  ( -1.000000000000000000, 0.000000000000000000, 0.000000000000000000 ) ) ;
#480 = B_SPLINE_CURVE_WITH_KNOTS ( 'NONE', 3,
 ( #20, #538, #232, #405, #371, #284 ),
 .UNSPECIFIED., .F., .F.,
 ( 4, 2, 4 ),
 ( 1.905938025164285192E-19, 0.0006365870327257438632, 0.001273174065451487509 ),
 .UNSPECIFIED. ) ;
#481 = DIRECTION ( 'NONE',  ( 0.000000000000000000, 0.000000000000000000, -1.000000000000000000 ) ) ;
#482 = ORGANIZATION ( 'UNSPECIFIED', 'UNSPECIFIED', '' ) ;
#483 = CARTESIAN_POINT ( 'NONE',  ( 1.268411506570323866, -1.587500000000000355, -30.70991914209798068 ) ) ;
#484 = CARTESIAN_POINT ( 'NONE',  ( 1.268411506570324088, 1.587500000000000355, 30.70991914209798068 ) ) ;
#485 = CARTESIAN_POINT ( 'NONE',  ( 1.587500000000000355, -1.587500000000000355, 30.86100000000000065 ) ) ;
#486 = EDGE_CURVE ( 'NONE', #537, #188, #399, .T. ) ;
#487 = CARTESIAN_POINT ( 'NONE',  ( 0.000000000000000000, 0.000000000000000000, 30.86100000000000065 ) ) ;
#488 = ORIENTED_EDGE ( 'NONE', *, *, #491, .T. ) ;
#489 = DIRECTION ( 'NONE',  ( 1.000000000000000000, 0.000000000000000000, 0.000000000000000000 ) ) ;
#490 = DATE_AND_TIME ( #320, #113 ) ;
#491 = EDGE_CURVE ( 'NONE', #251, #273, #109, .T. ) ;
#492 = APPROVAL_DATE_TIME ( #317, #357 ) ;
#493 = CLOSED_SHELL ( 'NONE', ( #105, #275, #418, #218, #85, #362, #468, #434, #94, #242, #392, #340, #127, #176 ) ) ;
#494 = CARTESIAN_POINT ( 'NONE',  ( 0.000000000000000000, 0.000000000000000000, -30.86100000000000065 ) ) ;
#495 = EDGE_CURVE ( 'NONE', #360, #496, #429, .T. ) ;
#496 = VERTEX_POINT ( 'NONE', #6 ) ;
#497 =( LENGTH_UNIT ( ) NAMED_UNIT ( * ) SI_UNIT ( .MILLI., .METRE. ) );
#498 = DIRECTION ( 'NONE',  ( -0.000000000000000000, -0.000000000000000000, 1.000000000000000000 ) ) ;
#499 = PERSON_AND_ORGANIZATION_ROLE ( 'design_supplier' ) ;
#500 = CARTESIAN_POINT ( 'NONE',  ( 0.000000000000000000, 0.000000000000000000, -30.86100000000000065 ) ) ;
#501 = EDGE_LOOP ( 'NONE', ( #368, #447, #76, #157 ) ) ;
#502 = COORDINATED_UNIVERSAL_TIME_OFFSET ( 6, 0, .BEHIND. ) ;
#503 = EDGE_CURVE ( 'NONE', #421, #199, #506, .T. ) ;
#504 = DIRECTION ( 'NONE',  ( 1.000000000000000000, 1.224646799147353454E-16, 0.000000000000000000 ) ) ;
#505 = AXIS2_PLACEMENT_3D ( 'NONE', #131, #281, #504 ) ;
#506 = CIRCLE ( 'NONE', #257, 2.032000000000000028 ) ;
#507 = ORIENTED_EDGE ( 'NONE', *, *, #322, .T. ) ;
#508 = CARTESIAN_POINT ( 'NONE',  ( 1.587500000000000355, -0.4276219574846464311, -30.82699639200009400 ) ) ;
#509 = VERTEX_POINT ( 'NONE', #351 ) ;
#510 = DIRECTION ( 'NONE',  ( 1.000000000000000000, 0.000000000000000000, 0.000000000000000000 ) ) ;
#511 = EDGE_CURVE ( 'NONE', #527, #559, #11, .T. ) ;
#512 = VERTEX_POINT ( 'NONE', #484 ) ;
#513 = DIRECTION ( 'NONE',  ( -0.000000000000000000, -0.000000000000000000, 1.000000000000000000 ) ) ;
#514 = CIRCLE ( 'NONE', #189, 2.032000000000000028 ) ;
#515 = ORIENTED_EDGE ( 'NONE', *, *, #130, .T. ) ;
#516 = DIRECTION ( 'NONE',  ( -0.000000000000000000, -0.000000000000000000, 1.000000000000000000 ) ) ;
#517 = VERTEX_POINT ( 'NONE', #8 ) ;
#518 = LOCAL_TIME ( 13, 56, 47.00000000000000000, #190 ) ;
#519 = DIRECTION ( 'NONE',  ( 1.000000000000000000, 0.000000000000000000, 0.000000000000000000 ) ) ;
#520 = CARTESIAN_POINT ( 'NONE',  ( 1.268411506570323866, -1.587500000000000355, 30.70991914209798068 ) ) ;
#521 = CARTESIAN_POINT ( 'NONE',  ( -1.587500000000000355, -1.944126793646423534E-16, 30.83322736169286316 ) ) ;
#522 = CARTESIAN_POINT ( 'NONE',  ( -1.245064030267288402, 1.524763679400337895E-16, -28.73600000000000065 ) ) ;
#523 = VECTOR ( 'NONE', #75, 1000.000000000000000 ) ;
#524 = CARTESIAN_POINT ( 'NONE',  ( -1.587500000000000355, -1.944126793646423534E-16, 30.83322736169286316 ) ) ;
#525 = FACE_OUTER_BOUND ( 'NONE', #385, .T. ) ;
#526 = DIRECTION ( 'NONE',  ( 0.000000000000000000, 0.000000000000000000, -1.000000000000000000 ) ) ;
#527 = VERTEX_POINT ( 'NONE', #529 ) ;
#528 = B_SPLINE_CURVE_WITH_KNOTS ( 'NONE', 3,
 ( #439, #216, #83, #2, #353, #168 ),
 .UNSPECIFIED., .F., .F.,
 ( 4, 2, 4 ),
 ( 0.000000000000000000, 0.0006365870327257439716, 0.001273174065451487726 ),
 .UNSPECIFIED. ) ;
#529 = CARTESIAN_POINT ( 'NONE',  ( -1.268411506570324088, -1.587500000000000355, 30.70991914209798068 ) ) ;
#530 = AXIS2_PLACEMENT_3D ( 'NONE', #485, #303, #397 ) ;
#531 = CIRCLE ( 'NONE', #558, 2.124999999999998224 ) ;
#532 = CARTESIAN_POINT ( 'NONE',  ( 0.2043756380772877856, 1.587500000000000133, -30.83340961896379540 ) ) ;
#533 = VERTEX_POINT ( 'NONE', #135 ) ;
#534 = CARTESIAN_POINT ( 'NONE',  ( -0.4342314039556041672, -1.587500000000000355, 30.83285171744313757 ) ) ;
#535 = EDGE_LOOP ( 'NONE', ( #150, #185, #460, #372, #333, #293, #406, #329 ) ) ;
#536 = CARTESIAN_POINT ( 'NONE',  ( -0.2043756380772877856, 1.587500000000000133, 30.83340961896379540 ) ) ;
#537 = VERTEX_POINT ( 'NONE', #313 ) ;
#538 = CARTESIAN_POINT ( 'NONE',  ( -1.587500000000000133, -0.2143109880596211492, -30.83322736169286671 ) ) ;
#539 = ORIENTED_EDGE ( 'NONE', *, *, #145, .T. ) ;
#540 = CALENDAR_DATE ( 2022, 6, 6 ) ;
#541 = FACE_OUTER_BOUND ( 'NONE', #73, .T. ) ;
#542 = EDGE_CURVE ( 'NONE', #273, #251, #53, .T. ) ;
#543 = ORIENTED_EDGE ( 'NONE', *, *, #90, .F. ) ;
#544 = PERSON_AND_ORGANIZATION_ROLE ( 'creator' ) ;
#545 = CARTESIAN_POINT ( 'NONE',  ( -1.060147506033617404, 1.587500000000000133, 30.76174669625517666 ) ) ;
#546 = ORIENTED_EDGE ( 'NONE', *, *, #166, .T. ) ;
#547 = CARTESIAN_POINT ( 'NONE',  ( -1.268411506570323866, 1.587500000000000355, 30.70991914209798068 ) ) ;
#548 = AXIS2_PLACEMENT_3D ( 'NONE', #112, #47, #238 ) ;
#549 = AXIS2_PLACEMENT_3D ( 'NONE', #139, #87, #263 ) ;
#550 = VERTEX_POINT ( 'NONE', #10 ) ;
#551 = DIRECTION ( 'NONE',  ( -0.000000000000000000, -0.000000000000000000, 1.000000000000000000 ) ) ;
#552 = EDGE_LOOP ( 'NONE', ( #146, #253 ) ) ;
#553 = SECURITY_CLASSIFICATION ( '', '', #54 ) ;
#554 = FACE_OUTER_BOUND ( 'NONE', #111, .T. ) ;
#555 = ORIENTED_EDGE ( 'NONE', *, *, #557, .T. ) ;
#556 = DIRECTION ( 'NONE',  ( -0.000000000000000000, -0.000000000000000000, 1.000000000000000000 ) ) ;
#557 = EDGE_CURVE ( 'NONE', #463, #533, #271, .T. ) ;
#558 = AXIS2_PLACEMENT_3D ( 'NONE', #381, #39, #424 ) ;
#559 = VERTEX_POINT ( 'NONE', #97 ) ;
#560 = DIRECTION ( 'NONE',  ( 0.000000000000000000, 0.000000000000000000, -1.000000000000000000 ) ) ;
#561 = CARTESIAN_POINT ( 'NONE',  ( 1.268411506570323866, -1.587500000000000355, -30.86100000000000065 ) ) ;
ENDSEC;
END-ISO-10303-21;
