ISO-10303-21;
HEADER;
FILE_DESCRIPTION (( 'STEP AP203' ),
    '1' );
FILE_NAME ('228-2500-083.step',
    '2022-06-06T18:57:41',
    ( '' ),
    ( '' ),
    'SwSTEP 2.0',
    'SolidWorks 2021',
    '' );
FILE_SCHEMA (( 'CONFIG_CONTROL_DESIGN' ));
ENDSEC;

DATA;
#1 = ORIENTED_EDGE ( 'NONE', *, *, #534, .T. ) ;
#2 = APPROVAL_STATUS ( 'not_yet_approved' ) ;
#3 = VERTEX_POINT ( 'NONE', #450 ) ;
#4 = APPLICATION_CONTEXT ( 'configuration controlled 3d designs of mechanical parts and assemblies' ) ;
#5 = LINE ( 'NONE', #475, #213 ) ;
#6 = ORIENTED_EDGE ( 'NONE', *, *, #125, .T. ) ;
#7 = CARTESIAN_POINT ( 'NONE',  ( -1.587500000000000355, 1.268411506570323866, 30.86099999999999710 ) ) ;
#8 = EDGE_LOOP ( 'NONE', ( #474, #265, #542, #512 ) ) ;
#9 = ADVANCED_FACE ( 'NONE', ( #391 ), #408, .T. ) ;
#10 = SECURITY_CLASSIFICATION ( '', '', #274 ) ;
#11 = VERTEX_POINT ( 'NONE', #318 ) ;
#12 = CARTESIAN_POINT ( 'NONE',  ( 1.268411506570323866, 1.587500000000000355, -30.70991914209797713 ) ) ;
#13 = AXIS2_PLACEMENT_3D ( 'NONE', #441, #143, #486 ) ;
#14 = DIRECTION ( 'NONE',  ( 0.000000000000000000, 0.000000000000000000, 1.000000000000000000 ) ) ;
#15 = ADVANCED_FACE ( 'NONE', ( #311 ), #437, .T. ) ;
#16 = APPROVAL_DATE_TIME ( #490, #234 ) ;
#17 = FACE_OUTER_BOUND ( 'NONE', #157, .T. ) ;
#18 = CARTESIAN_POINT ( 'NONE',  ( 1.268411506570323866, 1.587500000000000355, -30.86100000000000421 ) ) ;
#19 = DIRECTION ( 'NONE',  ( 0.000000000000000000, -1.000000000000000000, 0.000000000000000000 ) ) ;
#20 = DIRECTION ( 'NONE',  ( 1.000000000000000000, 0.000000000000000000, 0.000000000000000000 ) ) ;
#21 = VECTOR ( 'NONE', #498, 1000.000000000000000 ) ;
#22 = SHAPE_DEFINITION_REPRESENTATION ( #222, #239 ) ;
#23 = CARTESIAN_POINT ( 'NONE',  ( 1.587500000000000355, 0.8513200635100127700, -30.79137755531811749 ) ) ;
#24 = ORIENTED_EDGE ( 'NONE', *, *, #171, .T. ) ;
#25 = CARTESIAN_POINT ( 'NONE',  ( 1.268411506570324088, -1.587500000000000355, -30.70991914209797713 ) ) ;
#26 = CARTESIAN_POINT ( 'NONE',  ( -1.587500000000000355, 1.268411506570323866, -30.70991914209797713 ) ) ;
#27 = CARTESIAN_POINT ( 'NONE',  ( 1.268411506570323866, -1.587500000000000355, -30.86100000000000421 ) ) ;
#28 = CARTESIAN_POINT ( 'NONE',  ( -1.268411506570323866, -1.587500000000000355, -30.70991914209797713 ) ) ;
#29 = ORIENTED_EDGE ( 'NONE', *, *, #446, .T. ) ;
#30 = FACE_OUTER_BOUND ( 'NONE', #472, .T. ) ;
#31 = AXIS2_PLACEMENT_3D ( 'NONE', #277, #19, #448 ) ;
#32 = CARTESIAN_POINT ( 'NONE',  ( -1.268411506570323866, 1.587500000000000355, 30.86099999999999710 ) ) ;
#33 = CYLINDRICAL_SURFACE ( 'NONE', #345, 2.032000000000000028 ) ;
#34 = DIRECTION ( 'NONE',  ( -0.000000000000000000, -0.000000000000000000, 1.000000000000000000 ) ) ;
#35 = AXIS2_PLACEMENT_3D ( 'NONE', #539, #499, #501 ) ;
#36 = ORIENTED_EDGE ( 'NONE', *, *, #321, .F. ) ;
#37 = CARTESIAN_POINT ( 'NONE',  ( 0.000000000000000000, 0.000000000000000000, -30.86100000000000421 ) ) ;
#38 = ORIENTED_EDGE ( 'NONE', *, *, #280, .T. ) ;
#39 = DIRECTION ( 'NONE',  ( 0.000000000000000000, 0.000000000000000000, -1.000000000000000000 ) ) ;
#40 = CIRCLE ( 'NONE', #110, 2.124999999999972466 ) ;
#41 = ORIENTED_EDGE ( 'NONE', *, *, #197, .F. ) ;
#42 = ORIENTED_EDGE ( 'NONE', *, *, #442, .F. ) ;
#43 = CALENDAR_DATE ( 2022, 6, 6 ) ;
#44 = EDGE_LOOP ( 'NONE', ( #29, #223, #1, #302 ) ) ;
#45 = PRODUCT ( '228-2500-083', '228-2500-083', '', ( #344 ) ) ;
#46 = CARTESIAN_POINT ( 'NONE',  ( 0.8486262390323812133, 1.587500000000000577, -30.79176882282394345 ) ) ;
#47 = AXIS2_PLACEMENT_3D ( 'NONE', #161, #327, #119 ) ;
#48 = ORIENTED_EDGE ( 'NONE', *, *, #492, .T. ) ;
#49 = ADVANCED_FACE ( 'NONE', ( #193 ), #354, .F. ) ;
#50 = CARTESIAN_POINT ( 'NONE',  ( 1.587500000000000355, -1.268411506570323866, -30.86100000000000421 ) ) ;
#51 = ORIENTED_EDGE ( 'NONE', *, *, #359, .F. ) ;
#52 = CARTESIAN_POINT ( 'NONE',  ( 1.060147506033616738, 1.587500000000000133, -30.76174669625517666 ) ) ;
#53 = CC_DESIGN_APPROVAL ( #234, ( #10 ) ) ;
#54 = ORIENTED_EDGE ( 'NONE', *, *, #524, .F. ) ;
#55 = APPROVAL_DATE_TIME ( #436, #192 ) ;
#56 = CARTESIAN_POINT ( 'NONE',  ( 0.000000000000000000, 0.000000000000000000, -30.86100000000000421 ) ) ;
#57 = CIRCLE ( 'NONE', #421, 2.399999999999999911 ) ;
#58 = CARTESIAN_POINT ( 'NONE',  ( -0.8486262390323812133, -1.587500000000000577, -30.79176882282394345 ) ) ;
#59 = APPROVAL_PERSON_ORGANIZATION ( #316, #192, #63 ) ;
#60 = CYLINDRICAL_SURFACE ( 'NONE', #341, 2.399999999999999911 ) ;
#61 = CARTESIAN_POINT ( 'NONE',  ( -1.587500000000000355, 1.944126793646423534E-16, -30.83322736169286316 ) ) ;
#62 = EDGE_CURVE ( 'NONE', #80, #417, #232, .T. ) ;
#63 = APPROVAL_ROLE ( '' ) ;
#64 = CARTESIAN_POINT ( 'NONE',  ( 0.000000000000000000, 0.000000000000000000, 30.86099999999999710 ) ) ;
#65 = CARTESIAN_POINT ( 'NONE',  ( -1.587500000000000355, 1.587500000000000355, 30.86099999999999710 ) ) ;
#66 = DIRECTION ( 'NONE',  ( -1.000000000000000000, 0.000000000000000000, -0.000000000000000000 ) ) ;
#67 = LINE ( 'NONE', #504, #291 ) ;
#68 = ORIENTED_EDGE ( 'NONE', *, *, #288, .F. ) ;
#69 = CARTESIAN_POINT ( 'NONE',  ( 1.587500000000000355, 1.203706215242022408E-32, -30.83322736169286316 ) ) ;
#70 = EDGE_CURVE ( 'NONE', #92, #538, #392, .T. ) ;
#71 = FACE_OUTER_BOUND ( 'NONE', #348, .T. ) ;
#72 = FACE_OUTER_BOUND ( 'NONE', #423, .T. ) ;
#73 = APPROVAL ( #2, 'UNSPECIFIED' ) ;
#74 = CARTESIAN_POINT ( 'NONE',  ( 2.399999999999999911, 2.939152317953647106E-16, 31.66099999999999426 ) ) ;
#75 = ORIENTED_EDGE ( 'NONE', *, *, #509, .T. ) ;
#76 = APPLICATION_CONTEXT ( 'configuration controlled 3d designs of mechanical parts and assemblies' ) ;
#77 = FACE_OUTER_BOUND ( 'NONE', #459, .T. ) ;
#78 = DIRECTION ( 'NONE',  ( 1.000000000000000000, 0.000000000000000000, -0.000000000000000000 ) ) ;
#79 = CIRCLE ( 'NONE', #262, 1.245064030267288402 ) ;
#80 = VERTEX_POINT ( 'NONE', #445 ) ;
#81 = CARTESIAN_POINT ( 'NONE',  ( -1.268411506570323866, 1.587500000000000355, -30.86100000000000421 ) ) ;
#82 = VERTEX_POINT ( 'NONE', #537 ) ;
#83 = LINE ( 'NONE', #27, #308 ) ;
#84 = AXIS2_PLACEMENT_3D ( 'NONE', #397, #523, #440 ) ;
#85 = AXIS2_PLACEMENT_3D ( 'NONE', #281, #353, #401 ) ;
#86 = VERTEX_POINT ( 'NONE', #544 ) ;
#87 = PERSON_AND_ORGANIZATION ( #420, #183 ) ;
#88 = DESIGN_CONTEXT ( 'detailed design', #76, 'design' ) ;
#89 = VERTEX_POINT ( 'NONE', #294 ) ;
#90 = LOCAL_TIME ( 13, 57, 41.00000000000000000, #356 ) ;
#91 = ORIENTED_EDGE ( 'NONE', *, *, #187, .T. ) ;
#92 = VERTEX_POINT ( 'NONE', #32 ) ;
#93 = ORIENTED_EDGE ( 'NONE', *, *, #156, .F. ) ;
#94 = MANIFOLD_SOLID_BREP ( '228-2500-083', #429 ) ;
#95 = ADVANCED_FACE ( 'NONE', ( #71 ), #206, .F. ) ;
#96 = COORDINATED_UNIVERSAL_TIME_OFFSET ( 6, 0, .BEHIND. ) ;
#97 = ORIENTED_EDGE ( 'NONE', *, *, #249, .T. ) ;
#98 = CARTESIAN_POINT ( 'NONE',  ( 1.587500000000000355, 1.061392899157111991, -30.76143677385165986 ) ) ;
#99 = DIRECTION ( 'NONE',  ( -0.000000000000000000, -0.000000000000000000, 1.000000000000000000 ) ) ;
#100 = VECTOR ( 'NONE', #256, 1000.000000000000000 ) ;
#101 = FACE_OUTER_BOUND ( 'NONE', #478, .T. ) ;
#102 = APPROVAL_PERSON_ORGANIZATION ( #264, #73, #347 ) ;
#103 = CARTESIAN_POINT ( 'NONE',  ( 0.8571092511719577978, -1.587500000000000355, -30.81227379706276892 ) ) ;
#104 = DIRECTION ( 'NONE',  ( 1.000000000000000000, 0.000000000000000000, 0.000000000000000000 ) ) ;
#105 = PERSON_AND_ORGANIZATION ( #420, #183 ) ;
#106 = DIRECTION ( 'NONE',  ( 0.000000000000000000, 0.000000000000000000, -1.000000000000000000 ) ) ;
#107 = ORIENTED_EDGE ( 'NONE', *, *, #70, .F. ) ;
#108 = CC_DESIGN_PERSON_AND_ORGANIZATION_ASSIGNMENT ( #362, #393, ( #395 ) ) ;
#109 = CIRCLE ( 'NONE', #271, 2.032000000000000028 ) ;
#110 = AXIS2_PLACEMENT_3D ( 'NONE', #444, #525, #355 ) ;
#111 = CARTESIAN_POINT ( 'NONE',  ( 1.268411506570323866, -1.587500000000000355, 30.86099999999999710 ) ) ;
#112 = LINE ( 'NONE', #413, #419 ) ;
#113 = ORIENTED_EDGE ( 'NONE', *, *, #329, .T. ) ;
#114 = DIRECTION ( 'NONE',  ( -0.000000000000000000, -0.000000000000000000, 1.000000000000000000 ) ) ;
#115 = DIRECTION ( 'NONE',  ( -0.000000000000000000, -0.000000000000000000, 1.000000000000000000 ) ) ;
#116 = B_SPLINE_CURVE_WITH_KNOTS ( 'NONE', 3,
 ( #28, #530, #58, #276, #144, #494, #103, #522 ),
 .UNSPECIFIED., .F., .F.,
 ( 4, 2, 2, 4 ),
 ( 0.01485345774306958029, 0.01548583974386923655, 0.01611822174466889107, 0.01738298574626820359 ),
 .UNSPECIFIED. ) ;
#117 = EDGE_CURVE ( 'NONE', #368, #383, #67, .T. ) ;
#118 = CARTESIAN_POINT ( 'NONE',  ( 0.000000000000000000, 0.000000000000000000, 30.86099999999999710 ) ) ;
#119 = DIRECTION ( 'NONE',  ( 1.000000000000000000, 0.000000000000000000, 0.000000000000000000 ) ) ;
#120 = ORIENTED_EDGE ( 'NONE', *, *, #203, .F. ) ;
#121 = CARTESIAN_POINT ( 'NONE',  ( -1.587500000000000355, 1.587500000000000355, 30.86099999999999710 ) ) ;
#122 = DIRECTION ( 'NONE',  ( 0.000000000000000000, -1.000000000000000000, 0.000000000000000000 ) ) ;
#123 = EDGE_LOOP ( 'NONE', ( #48, #463, #346, #456, #138, #93, #466, #36 ) ) ;
#124 = CARTESIAN_POINT ( 'NONE',  ( -2.399999999999999911, 0.000000000000000000, 30.86099999999999710 ) ) ;
#125 = EDGE_CURVE ( 'NONE', #389, #273, #503, .T. ) ;
#126 = VERTEX_POINT ( 'NONE', #245 ) ;
#127 = DIRECTION ( 'NONE',  ( -1.000000000000000000, -0.000000000000000000, -0.000000000000000000 ) ) ;
#128 = CC_DESIGN_PERSON_AND_ORGANIZATION_ASSIGNMENT ( #87, #260, ( #380 ) ) ;
#129 = ORIENTED_EDGE ( 'NONE', *, *, #142, .F. ) ;
#130 = CALENDAR_DATE ( 2022, 6, 6 ) ;
#131 = ORIENTED_EDGE ( 'NONE', *, *, #329, .F. ) ;
#132 = ADVANCED_FACE ( 'NONE', ( #253 ), #168, .F. ) ;
#133 = DIRECTION ( 'NONE',  ( 1.000000000000000000, 0.000000000000000000, 0.000000000000000000 ) ) ;
#134 = VERTEX_POINT ( 'NONE', #541 ) ;
#135 = AXIS2_PLACEMENT_3D ( 'NONE', #267, #303, #136 ) ;
#136 = DIRECTION ( 'NONE',  ( 1.000000000000000000, 0.000000000000000000, 0.000000000000000000 ) ) ;
#137 = EDGE_CURVE ( 'NONE', #82, #368, #405, .T. ) ;
#138 = ORIENTED_EDGE ( 'NONE', *, *, #509, .F. ) ;
#139 = TOROIDAL_SURFACE ( 'NONE', #547, 1.245064030267288402, 2.124999999999972466 ) ;
#140 = ORIENTED_EDGE ( 'NONE', *, *, #249, .F. ) ;
#141 = CARTESIAN_POINT ( 'NONE',  ( 0.000000000000000000, 0.000000000000000000, -28.73600000000002552 ) ) ;
#142 = EDGE_CURVE ( 'NONE', #343, #305, #158, .T. ) ;
#143 = DIRECTION ( 'NONE',  ( 0.000000000000000000, 0.000000000000000000, 1.000000000000000000 ) ) ;
#144 = CARTESIAN_POINT ( 'NONE',  ( -0.2043756380772878967, -1.587500000000000133, -30.83340961896378829 ) ) ;
#145 = DIRECTION ( 'NONE',  ( 0.000000000000000000, 0.000000000000000000, 1.000000000000000000 ) ) ;
#146 = ADVANCED_FACE ( 'NONE', ( #535 ), #282, .T. ) ;
#147 = DIRECTION ( 'NONE',  ( -0.000000000000000000, -0.000000000000000000, 1.000000000000000000 ) ) ;
#148 = ORIENTED_EDGE ( 'NONE', *, *, #125, .F. ) ;
#149 = PERSON_AND_ORGANIZATION ( #420, #183 ) ;
#150 = AXIS2_PLACEMENT_3D ( 'NONE', #427, #387, #422 ) ;
#151 = CARTESIAN_POINT ( 'NONE',  ( -1.587500000000000355, -1.587500000000000355, 30.86099999999999710 ) ) ;
#152 = PRODUCT_RELATED_PRODUCT_CATEGORY ( 'detail', '', ( #45 ) ) ;
#153 = CALENDAR_DATE ( 2022, 6, 6 ) ;
#154 = DIRECTION ( 'NONE',  ( -0.000000000000000000, -1.000000000000000000, -0.000000000000000000 ) ) ;
#155 = CARTESIAN_POINT ( 'NONE',  ( 0.000000000000000000, 0.000000000000000000, -30.70991914209797713 ) ) ;
#156 = EDGE_CURVE ( 'NONE', #383, #80, #109, .T. ) ;
#157 = EDGE_LOOP ( 'NONE', ( #519, #414 ) ) ;
#158 = CIRCLE ( 'NONE', #511, 2.032000000000000028 ) ;
#159 = AXIS2_PLACEMENT_3D ( 'NONE', #118, #160, #212 ) ;
#160 = DIRECTION ( 'NONE',  ( 0.000000000000000000, 0.000000000000000000, 1.000000000000000000 ) ) ;
#161 = CARTESIAN_POINT ( 'NONE',  ( 0.000000000000000000, 0.000000000000000000, 30.86099999999999710 ) ) ;
#162 = ORIENTED_EDGE ( 'NONE', *, *, #518, .F. ) ;
#163 = DIRECTION ( 'NONE',  ( 0.000000000000000000, 0.000000000000000000, 1.000000000000000000 ) ) ;
#164 = CC_DESIGN_SECURITY_CLASSIFICATION ( #10, ( #395 ) ) ;
#165 = CARTESIAN_POINT ( 'NONE',  ( 0.000000000000000000, 0.000000000000000000, -30.70991914209797713 ) ) ;
#166 = EDGE_LOOP ( 'NONE', ( #148, #131 ) ) ;
#167 = DIRECTION ( 'NONE',  ( -0.000000000000000000, -0.000000000000000000, 1.000000000000000000 ) ) ;
#168 = PLANE ( 'NONE',  #178 ) ;
#169 = AXIS2_PLACEMENT_3D ( 'NONE', #141, #484, #314 ) ;
#170 = CYLINDRICAL_SURFACE ( 'NONE', #469, 2.032000000000000028 ) ;
#171 = EDGE_CURVE ( 'NONE', #89, #3, #366, .T. ) ;
#172 = FACE_BOUND ( 'NONE', #508, .T. ) ;
#173 = ORIENTED_EDGE ( 'NONE', *, *, #203, .T. ) ;
#174 = LINE ( 'NONE', #50, #443 ) ;
#175 = EDGE_LOOP ( 'NONE', ( #266, #75, #378, #42 ) ) ;
#176 = EDGE_CURVE ( 'NONE', #11, #273, #458, .T. ) ;
#177 = CARTESIAN_POINT ( 'NONE',  ( 0.4219230645619466147, 1.587500000000000577, -30.82730730355362070 ) ) ;
#178 = AXIS2_PLACEMENT_3D ( 'NONE', #65, #122, #334 ) ;
#179 = ORIENTED_EDGE ( 'NONE', *, *, #219, .F. ) ;
#180 = CC_DESIGN_PERSON_AND_ORGANIZATION_ASSIGNMENT ( #149, #235, ( #395 ) ) ;
#181 = CARTESIAN_POINT ( 'NONE',  ( -1.587500000000000355, -1.587500000000000355, 30.86099999999999710 ) ) ;
#182 = VERTEX_POINT ( 'NONE', #496 ) ;
#183 = ORGANIZATION ( 'UNSPECIFIED', 'UNSPECIFIED', '' ) ;
#184 = PERSON_AND_ORGANIZATION ( #420, #183 ) ;
#185 = VERTEX_POINT ( 'NONE', #248 ) ;
#186 = DIRECTION ( 'NONE',  ( -0.000000000000000000, -0.000000000000000000, 1.000000000000000000 ) ) ;
#187 = EDGE_CURVE ( 'NONE', #89, #538, #112, .T. ) ;
#188 = VECTOR ( 'NONE', #364, 1000.000000000000000 ) ;
#189 = CIRCLE ( 'NONE', #375, 2.032000000000000028 ) ;
#190 = PERSON_AND_ORGANIZATION ( #420, #183 ) ;
#191 = DIRECTION ( 'NONE',  ( 1.000000000000000000, 0.000000000000000000, 0.000000000000000000 ) ) ;
#192 = APPROVAL ( #485, 'UNSPECIFIED' ) ;
#193 = FACE_OUTER_BOUND ( 'NONE', #268, .T. ) ;
#194 = CALENDAR_DATE ( 2022, 6, 6 ) ;
#195 = DIRECTION ( 'NONE',  ( 1.000000000000000000, 0.000000000000000000, 0.000000000000000000 ) ) ;
#196 = DIRECTION ( 'NONE',  ( -0.000000000000000000, -0.000000000000000000, 1.000000000000000000 ) ) ;
#197 = EDGE_CURVE ( 'NONE', #134, #126, #246, .T. ) ;
#198 = PERSON_AND_ORGANIZATION_ROLE ( 'classification_officer' ) ;
#199 = CARTESIAN_POINT ( 'NONE',  ( -1.587500000000000133, -0.2143109880596213435, -30.83322736169286671 ) ) ;
#200 = ORIENTED_EDGE ( 'NONE', *, *, #215, .F. ) ;
#201 = CARTESIAN_POINT ( 'NONE',  ( -1.587500000000000355, -1.061392899157111991, -30.76143677385165986 ) ) ;
#202 = CARTESIAN_POINT ( 'NONE',  ( 0.000000000000000000, 0.000000000000000000, -30.86100000000000065 ) ) ;
#203 = EDGE_CURVE ( 'NONE', #126, #343, #116, .T. ) ;
#204 = CARTESIAN_POINT ( 'NONE',  ( -1.587500000000000355, 0.2114796877013862819, -30.83322736169286671 ) ) ;
#205 = CARTESIAN_POINT ( 'NONE',  ( 1.587500000000000355, -1.268411506570323866, -30.70991914209797713 ) ) ;
#206 = PLANE ( 'NONE',  #208 ) ;
#207 = ORIENTED_EDGE ( 'NONE', *, *, #137, .F. ) ;
#208 = AXIS2_PLACEMENT_3D ( 'NONE', #211, #367, #369 ) ;
#209 = VECTOR ( 'NONE', #396, 1000.000000000000000 ) ;
#210 = CYLINDRICAL_SURFACE ( 'NONE', #35, 2.032000000000000028 ) ;
#211 = CARTESIAN_POINT ( 'NONE',  ( -1.587500000000000355, -1.587500000000000355, 30.86099999999999710 ) ) ;
#212 = DIRECTION ( 'NONE',  ( 1.000000000000000000, 0.000000000000000000, -0.000000000000000000 ) ) ;
#213 = VECTOR ( 'NONE', #514, 1000.000000000000000 ) ;
#214 = CARTESIAN_POINT ( 'NONE',  ( 0.000000000000000000, 0.000000000000000000, -30.70991914209797713 ) ) ;
#215 = EDGE_CURVE ( 'NONE', #11, #299, #230, .T. ) ;
#216 = DIRECTION ( 'NONE',  ( 1.000000000000000000, 0.000000000000000000, 0.000000000000000000 ) ) ;
#217 = DIRECTION ( 'NONE',  ( -0.000000000000000000, -0.000000000000000000, -1.000000000000000000 ) ) ;
#218 = PERSON_AND_ORGANIZATION_ROLE ( 'design_owner' ) ;
#219 = EDGE_CURVE ( 'NONE', #428, #3, #40, .T. ) ;
#220 = ORIENTED_EDGE ( 'NONE', *, *, #534, .F. ) ;
#221 = DATE_AND_TIME ( #43, #488 ) ;
#222 = PRODUCT_DEFINITION_SHAPE ( 'NONE', 'NONE',  #380 ) ;
#223 = ORIENTED_EDGE ( 'NONE', *, *, #142, .T. ) ;
#224 = CARTESIAN_POINT ( 'NONE',  ( -0.4342314039556035010, 1.587500000000000355, -30.83285171744313757 ) ) ;
#225 = ORIENTED_EDGE ( 'NONE', *, *, #137, .T. ) ;
#226 = ORIENTED_EDGE ( 'NONE', *, *, #359, .T. ) ;
#227 = EDGE_CURVE ( 'NONE', #428, #263, #410, .T. ) ;
#228 = CARTESIAN_POINT ( 'NONE',  ( -1.268411506570324088, 1.587500000000000355, -30.70991914209797713 ) ) ;
#229 = AXIS2_PLACEMENT_3D ( 'NONE', #489, #145, #20 ) ;
#230 = CIRCLE ( 'NONE', #13, 2.399999999999999911 ) ;
#231 = PLANE ( 'NONE',  #495 ) ;
#232 = LINE ( 'NONE', #18, #528 ) ;
#233 = LINE ( 'NONE', #151, #351 ) ;
#234 = APPROVAL ( #358, 'UNSPECIFIED' ) ;
#235 = PERSON_AND_ORGANIZATION_ROLE ( 'creator' ) ;
#236 = CARTESIAN_POINT ( 'NONE',  ( -1.587500000000000577, -0.4277385810629846241, -30.82698654358311074 ) ) ;
#237 = ORIENTED_EDGE ( 'NONE', *, *, #442, .T. ) ;
#238 = VECTOR ( 'NONE', #127, 1000.000000000000000 ) ;
#239 = ADVANCED_BREP_SHAPE_REPRESENTATION ( '228-2500-083', ( #94, #150 ), #330 ) ;
#240 = DIRECTION ( 'NONE',  ( 1.000000000000000000, 0.000000000000000000, 0.000000000000000000 ) ) ;
#241 = DIRECTION ( 'NONE',  ( 1.000000000000000000, 0.000000000000000000, 0.000000000000000000 ) ) ;
#242 = DIRECTION ( 'NONE',  ( -0.000000000000000000, -0.000000000000000000, 1.000000000000000000 ) ) ;
#243 = DIRECTION ( 'NONE',  ( 1.000000000000000000, 0.000000000000000000, 0.000000000000000000 ) ) ;
#244 = FACE_OUTER_BOUND ( 'NONE', #44, .T. ) ;
#245 = CARTESIAN_POINT ( 'NONE',  ( -1.268411506570323866, -1.587500000000000355, -30.70991914209797713 ) ) ;
#246 = CIRCLE ( 'NONE', #493, 2.032000000000000028 ) ;
#247 = CARTESIAN_POINT ( 'NONE',  ( 1.587500000000000355, -1.587500000000000355, 30.86099999999999710 ) ) ;
#248 = CARTESIAN_POINT ( 'NONE',  ( -1.268411506570323866, -1.587500000000000355, 30.86099999999999710 ) ) ;
#249 = EDGE_CURVE ( 'NONE', #3, #134, #540, .T. ) ;
#250 = ORIENTED_EDGE ( 'NONE', *, *, #479, .T. ) ;
#251 = CARTESIAN_POINT ( 'NONE',  ( 0.000000000000000000, 0.000000000000000000, -28.73600000000002552 ) ) ;
#252 = LOCAL_TIME ( 13, 57, 41.00000000000000000, #517 ) ;
#253 = FACE_OUTER_BOUND ( 'NONE', #175, .T. ) ;
#254 = CC_DESIGN_DATE_AND_TIME_ASSIGNMENT ( #529, #521, ( #10 ) ) ;
#255 = ORIENTED_EDGE ( 'NONE', *, *, #197, .T. ) ;
#256 = DIRECTION ( 'NONE',  ( 0.000000000000000000, 0.000000000000000000, -1.000000000000000000 ) ) ;
#257 = EDGE_CURVE ( 'NONE', #290, #383, #292, .T. ) ;
#258 = CIRCLE ( 'NONE', #31, 2.124999999999974243 ) ;
#259 = ORIENTED_EDGE ( 'NONE', *, *, #337, .T. ) ;
#260 = PERSON_AND_ORGANIZATION_ROLE ( 'creator' ) ;
#261 = CC_DESIGN_DATE_AND_TIME_ASSIGNMENT ( #221, #382, ( #380 ) ) ;
#262 = AXIS2_PLACEMENT_3D ( 'NONE', #287, #543, #457 ) ;
#263 = VERTEX_POINT ( 'NONE', #313 ) ;
#264 = PERSON_AND_ORGANIZATION ( #420, #183 ) ;
#265 = ORIENTED_EDGE ( 'NONE', *, *, #156, .T. ) ;
#266 = ORIENTED_EDGE ( 'NONE', *, *, #62, .F. ) ;
#267 = CARTESIAN_POINT ( 'NONE',  ( 0.000000000000000000, 0.000000000000000000, 31.66099999999999426 ) ) ;
#268 = EDGE_LOOP ( 'NONE', ( #468, #24, #97, #54, #68 ) ) ;
#269 = EDGE_LOOP ( 'NONE', ( #91, #107, #328, #283 ) ) ;
#270 = CARTESIAN_POINT ( 'NONE',  ( 0.000000000000000000, 0.000000000000000000, 30.86099999999999710 ) ) ;
#271 = AXIS2_PLACEMENT_3D ( 'NONE', #155, #323, #241 ) ;
#272 = AXIS2_PLACEMENT_3D ( 'NONE', #270, #14, #191 ) ;
#273 = VERTEX_POINT ( 'NONE', #317 ) ;
#274 = SECURITY_CLASSIFICATION_LEVEL ( 'unclassified' ) ;
#275 = LINE ( 'NONE', #315, #209 ) ;
#276 = CARTESIAN_POINT ( 'NONE',  ( -0.4219230645619466147, -1.587500000000000577, -30.82730730355362070 ) ) ;
#277 = CARTESIAN_POINT ( 'NONE',  ( 1.245064030267288402, 0.000000000000000000, -28.73600000000002552 ) ) ;
#278 = ORIENTED_EDGE ( 'NONE', *, *, #518, .T. ) ;
#279 = AXIS2_PLACEMENT_3D ( 'NONE', #333, #217, #506 ) ;
#280 = EDGE_CURVE ( 'NONE', #368, #417, #324, .T. ) ;
#281 = CARTESIAN_POINT ( 'NONE',  ( 0.000000000000000000, 0.000000000000000000, 30.86099999999999710 ) ) ;
#282 = PLANE ( 'NONE',  #349 ) ;
#283 = ORIENTED_EDGE ( 'NONE', *, *, #352, .T. ) ;
#284 = CARTESIAN_POINT ( 'NONE',  ( 1.587500000000000355, -0.2114796877013862819, -30.83322736169286671 ) ) ;
#285 = DIRECTION ( 'NONE',  ( 0.000000000000000000, 0.000000000000000000, -1.000000000000000000 ) ) ;
#286 = ORIENTED_EDGE ( 'NONE', *, *, #446, .F. ) ;
#287 = CARTESIAN_POINT ( 'NONE',  ( 0.000000000000000000, 0.000000000000000000, -30.86100000000000065 ) ) ;
#288 = EDGE_CURVE ( 'NONE', #538, #86, #233, .T. ) ;
#289 = CARTESIAN_POINT ( 'NONE',  ( -1.587500000000000355, 1.944126793646423534E-16, -30.83322736169286316 ) ) ;
#290 = VERTEX_POINT ( 'NONE', #439 ) ;
#291 = VECTOR ( 'NONE', #285, 1000.000000000000000 ) ;
#292 = B_SPLINE_CURVE_WITH_KNOTS ( 'NONE', 3,
 ( #531, #399, #357, #23, #98, #360 ),
 .UNSPECIFIED., .F., .F.,
 ( 4, 2, 4 ),
 ( 1.180061637056783379E-35, 0.0006365870327257440800, 0.001273174065451488160 ),
 .UNSPECIFIED. ) ;
#293 = PLANE ( 'NONE',  #433 ) ;
#294 = CARTESIAN_POINT ( 'NONE',  ( -1.587500000000000355, 1.268411506570323866, -30.70991914209797713 ) ) ;
#295 = ORIENTED_EDGE ( 'NONE', *, *, #404, .T. ) ;
#296 = PLANE ( 'NONE',  #159 ) ;
#297 = CC_DESIGN_APPROVAL ( #73, ( #380 ) ) ;
#298 = DIRECTION ( 'NONE',  ( -1.000000000000000000, 0.000000000000000000, 0.000000000000000000 ) ) ;
#299 = VERTEX_POINT ( 'NONE', #322 ) ;
#300 = CIRCLE ( 'NONE', #513, 2.032000000000000028 ) ;
#301 = DATE_AND_TIME ( #130, #252 ) ;
#302 = ORIENTED_EDGE ( 'NONE', *, *, #337, .F. ) ;
#303 = DIRECTION ( 'NONE',  ( 0.000000000000000000, 0.000000000000000000, 1.000000000000000000 ) ) ;
#304 = CC_DESIGN_APPROVAL ( #192, ( #395 ) ) ;
#305 = VERTEX_POINT ( 'NONE', #320 ) ;
#306 = ORIENTED_EDGE ( 'NONE', *, *, #404, .F. ) ;
#307 = CARTESIAN_POINT ( 'NONE',  ( -1.587500000000000355, -1.268411506570323866, -30.86100000000000421 ) ) ;
#308 = VECTOR ( 'NONE', #39, 1000.000000000000000 ) ;
#309 = VERTEX_POINT ( 'NONE', #111 ) ;
#310 = CARTESIAN_POINT ( 'NONE',  ( 0.2043756380772878967, 1.587500000000000133, -30.83340961896378829 ) ) ;
#311 = FACE_OUTER_BOUND ( 'NONE', #269, .T. ) ;
#312 = ADVANCED_FACE ( 'NONE', ( #17 ), #231, .T. ) ;
#313 = CARTESIAN_POINT ( 'NONE',  ( 1.245064030267288402, 0.000000000000000000, -30.86100000000000065 ) ) ;
#314 = DIRECTION ( 'NONE',  ( 1.000000000000000000, 0.000000000000000000, 0.000000000000000000 ) ) ;
#315 = CARTESIAN_POINT ( 'NONE',  ( -2.399999999999999911, 0.000000000000000000, 31.66099999999999426 ) ) ;
#316 = PERSON_AND_ORGANIZATION ( #420, #183 ) ;
#317 = CARTESIAN_POINT ( 'NONE',  ( 2.399999999999999911, 2.939152317953647106E-16, 30.86099999999999710 ) ) ;
#318 = CARTESIAN_POINT ( 'NONE',  ( 2.399999999999999911, 2.939152317953647106E-16, 31.66099999999999426 ) ) ;
#319 = CIRCLE ( 'NONE', #135, 2.399999999999999911 ) ;
#320 = CARTESIAN_POINT ( 'NONE',  ( 1.587500000000000355, -1.268411506570323866, -30.70991914209797713 ) ) ;
#321 = EDGE_CURVE ( 'NONE', #263, #290, #258, .T. ) ;
#322 = CARTESIAN_POINT ( 'NONE',  ( -2.399999999999999911, 0.000000000000000000, 31.66099999999999426 ) ) ;
#323 = DIRECTION ( 'NONE',  ( -0.000000000000000000, -0.000000000000000000, 1.000000000000000000 ) ) ;
#324 = CIRCLE ( 'NONE', #272, 2.032000000000000028 ) ;
#325 = EDGE_LOOP ( 'NONE', ( #278, #505 ) ) ;
#326 = CARTESIAN_POINT ( 'NONE',  ( -1.245064030267288402, 2.006622987633880502E-16, -30.86100000000000065 ) ) ;
#327 = DIRECTION ( 'NONE',  ( 0.000000000000000000, 0.000000000000000000, 1.000000000000000000 ) ) ;
#328 = ORIENTED_EDGE ( 'NONE', *, *, #435, .T. ) ;
#329 = EDGE_CURVE ( 'NONE', #273, #389, #57, .T. ) ;
#330 =( GEOMETRIC_REPRESENTATION_CONTEXT ( 3 ) GLOBAL_UNCERTAINTY_ASSIGNED_CONTEXT ( ( #374 ) ) GLOBAL_UNIT_ASSIGNED_CONTEXT ( ( #432, #510, #350 ) ) REPRESENTATION_CONTEXT ( 'NONE', 'WORKASPACE' ) );
#331 = FACE_OUTER_BOUND ( 'NONE', #8, .T. ) ;
#332 = DIRECTION ( 'NONE',  ( 1.000000000000000000, 0.000000000000000000, 0.000000000000000000 ) ) ;
#333 = CARTESIAN_POINT ( 'NONE',  ( 0.000000000000000000, 0.000000000000000000, 31.66099999999999426 ) ) ;
#334 = DIRECTION ( 'NONE',  ( 0.000000000000000000, -0.000000000000000000, -1.000000000000000000 ) ) ;
#335 = CARTESIAN_POINT ( 'NONE',  ( 0.000000000000000000, 0.000000000000000000, 31.66099999999999426 ) ) ;
#336 = CARTESIAN_POINT ( 'NONE',  ( 0.000000000000000000, 0.000000000000000000, 30.86099999999999710 ) ) ;
#337 = EDGE_CURVE ( 'NONE', #309, #82, #438, .T. ) ;
#338 = ORIENTED_EDGE ( 'NONE', *, *, #321, .T. ) ;
#339 = APPLICATION_PROTOCOL_DEFINITION ( 'international standard', 'config_control_design', 1994, #4 ) ;
#340 = ORIENTED_EDGE ( 'NONE', *, *, #288, .T. ) ;
#341 = AXIS2_PLACEMENT_3D ( 'NONE', #335, #376, #298 ) ;
#342 = LINE ( 'NONE', #181, #415 ) ;
#343 = VERTEX_POINT ( 'NONE', #25 ) ;
#344 = MECHANICAL_CONTEXT ( 'NONE', #4, 'mechanical' ) ;
#345 = AXIS2_PLACEMENT_3D ( 'NONE', #37, #114, #548 ) ;
#346 = ORIENTED_EDGE ( 'NONE', *, *, #171, .F. ) ;
#347 = APPROVAL_ROLE ( '' ) ;
#348 = EDGE_LOOP ( 'NONE', ( #431, #173, #286, #406 ) ) ;
#349 = AXIS2_PLACEMENT_3D ( 'NONE', #461, #402, #78 ) ;
#350 =( NAMED_UNIT ( * ) SI_UNIT ( $, .STERADIAN. ) SOLID_ANGLE_UNIT ( ) );
#351 = VECTOR ( 'NONE', #154, 1000.000000000000000 ) ;
#352 = EDGE_CURVE ( 'NONE', #182, #89, #189, .T. ) ;
#353 = DIRECTION ( 'NONE',  ( 0.000000000000000000, 0.000000000000000000, 1.000000000000000000 ) ) ;
#354 = PLANE ( 'NONE',  #84 ) ;
#355 = DIRECTION ( 'NONE',  ( -1.000000000000000000, 1.224646799147353207E-16, 0.000000000000000000 ) ) ;
#356 = COORDINATED_UNIVERSAL_TIME_OFFSET ( 6, 0, .BEHIND. ) ;
#357 = CARTESIAN_POINT ( 'NONE',  ( 1.587500000000000577, 0.4277385810629846241, -30.82698654358311074 ) ) ;
#358 = APPROVAL_STATUS ( 'not_yet_approved' ) ;
#359 = EDGE_CURVE ( 'NONE', #299, #389, #275, .T. ) ;
#360 = CARTESIAN_POINT ( 'NONE',  ( 1.587500000000000355, 1.268411506570324088, -30.70991914209797713 ) ) ;
#361 = VECTOR ( 'NONE', #477, 1000.000000000000000 ) ;
#362 = PERSON_AND_ORGANIZATION ( #420, #183 ) ;
#363 = DIRECTION ( 'NONE',  ( 1.000000000000000000, 0.000000000000000000, 0.000000000000000000 ) ) ;
#364 = DIRECTION ( 'NONE',  ( -0.000000000000000000, -0.000000000000000000, -1.000000000000000000 ) ) ;
#365 = CARTESIAN_POINT ( 'NONE',  ( 1.587500000000000133, -1.061532360077856341, -30.76140206829358803 ) ) ;
#366 = B_SPLINE_CURVE_WITH_KNOTS ( 'NONE', 3,
 ( #26, #455, #500, #452, #204, #289 ),
 .UNSPECIFIED., .F., .F.,
 ( 4, 2, 4 ),
 ( 0.01485345774306958029, 0.01548163471194314786, 0.01610981168081671716 ),
 .UNSPECIFIED. ) ;
#367 = DIRECTION ( 'NONE',  ( 0.000000000000000000, 1.000000000000000000, 0.000000000000000000 ) ) ;
#368 = VERTEX_POINT ( 'NONE', #483 ) ;
#369 = DIRECTION ( 'NONE',  ( 0.000000000000000000, -0.000000000000000000, 1.000000000000000000 ) ) ;
#370 = EDGE_LOOP ( 'NONE', ( #179, #426, #338, #381, #129, #120, #41, #140 ) ) ;
#371 = DIRECTION ( 'NONE',  ( 0.000000000000000000, 0.000000000000000000, 1.000000000000000000 ) ) ;
#372 = DIRECTION ( 'NONE',  ( -0.000000000000000000, -0.000000000000000000, 1.000000000000000000 ) ) ;
#373 = CARTESIAN_POINT ( 'NONE',  ( 1.268411506570323866, 1.587500000000000355, 30.86099999999999710 ) ) ;
#374 = UNCERTAINTY_MEASURE_WITH_UNIT (LENGTH_MEASURE( 1.000000000000000082E-05 ), #432, 'distance_accuracy_value', 'NONE');
#375 = AXIS2_PLACEMENT_3D ( 'NONE', #451, #242, #195 ) ;
#376 = DIRECTION ( 'NONE',  ( -0.000000000000000000, -0.000000000000000000, -1.000000000000000000 ) ) ;
#377 = ADVANCED_FACE ( 'NONE', ( #101 ), #60, .T. ) ;
#378 = ORIENTED_EDGE ( 'NONE', *, *, #435, .F. ) ;
#379 = APPLICATION_PROTOCOL_DEFINITION ( 'international standard', 'config_control_design', 1994, #76 ) ;
#380 = PRODUCT_DEFINITION ( 'UNKNOWN', '', #395, #88 ) ;
#381 = ORIENTED_EDGE ( 'NONE', *, *, #479, .F. ) ;
#382 = DATE_TIME_ROLE ( 'creation_date' ) ;
#383 = VERTEX_POINT ( 'NONE', #460 ) ;
#384 = ADVANCED_FACE ( 'NONE', ( #77 ), #170, .T. ) ;
#385 = CARTESIAN_POINT ( 'NONE',  ( -0.8571092511719577978, 1.587500000000000355, -30.81227379706276892 ) ) ;
#386 = ORIENTED_EDGE ( 'NONE', *, *, #545, .T. ) ;
#387 = DIRECTION ( 'NONE',  ( 0.000000000000000000, 0.000000000000000000, 1.000000000000000000 ) ) ;
#388 = LOCAL_TIME ( 13, 57, 41.00000000000000000, #398 ) ;
#389 = VERTEX_POINT ( 'NONE', #124 ) ;
#390 = ADVANCED_FACE ( 'NONE', ( #172, #403 ), #296, .F. ) ;
#391 = FACE_OUTER_BOUND ( 'NONE', #370, .T. ) ;
#392 = CIRCLE ( 'NONE', #229, 2.032000000000000028 ) ;
#393 = PERSON_AND_ORGANIZATION_ROLE ( 'design_supplier' ) ;
#394 = DIRECTION ( 'NONE',  ( 0.000000000000000000, 0.000000000000000000, 1.000000000000000000 ) ) ;
#395 = PRODUCT_DEFINITION_FORMATION_WITH_SPECIFIED_SOURCE ( 'ANY', '', #45, .NOT_KNOWN. ) ;
#396 = DIRECTION ( 'NONE',  ( -0.000000000000000000, -0.000000000000000000, -1.000000000000000000 ) ) ;
#397 = CARTESIAN_POINT ( 'NONE',  ( -1.587500000000000355, -1.587500000000000355, 30.86099999999999710 ) ) ;
#398 = COORDINATED_UNIVERSAL_TIME_OFFSET ( 6, 0, .BEHIND. ) ;
#399 = CARTESIAN_POINT ( 'NONE',  ( 1.587500000000000133, 0.2143109880596214545, -30.83322736169286671 ) ) ;
#400 = ORIENTED_EDGE ( 'NONE', *, *, #176, .F. ) ;
#401 = DIRECTION ( 'NONE',  ( 1.000000000000000000, 0.000000000000000000, 0.000000000000000000 ) ) ;
#402 = DIRECTION ( 'NONE',  ( 0.000000000000000000, 0.000000000000000000, 1.000000000000000000 ) ) ;
#403 = FACE_OUTER_BOUND ( 'NONE', #166, .T. ) ;
#404 = EDGE_CURVE ( 'NONE', #86, #185, #300, .T. ) ;
#405 = LINE ( 'NONE', #409, #21 ) ;
#406 = ORIENTED_EDGE ( 'NONE', *, *, #549, .F. ) ;
#407 = DIRECTION ( 'NONE',  ( 1.000000000000000000, 0.000000000000000000, 0.000000000000000000 ) ) ;
#408 = TOROIDAL_SURFACE ( 'NONE', #169, 1.245064030267288402, 2.124999999999972466 ) ;
#409 = CARTESIAN_POINT ( 'NONE',  ( 1.587500000000000355, -1.587500000000000355, 30.86099999999999710 ) ) ;
#410 = CIRCLE ( 'NONE', #449, 1.245064030267288402 ) ;
#411 = B_SPLINE_CURVE_WITH_KNOTS ( 'NONE', 3,
 ( #12, #52, #46, #177, #310, #224, #385, #228 ),
 .UNSPECIFIED., .F., .F.,
 ( 4, 2, 2, 4 ),
 ( 0.01485345774306958029, 0.01548583974386923655, 0.01611822174466889107, 0.01738298574626820359 ),
 .UNSPECIFIED. ) ;
#412 = DIRECTION ( 'NONE',  ( -1.000000000000000000, 0.000000000000000000, 0.000000000000000000 ) ) ;
#413 = CARTESIAN_POINT ( 'NONE',  ( -1.587500000000000355, 1.268411506570323866, -30.86100000000000421 ) ) ;
#414 = ORIENTED_EDGE ( 'NONE', *, *, #227, .F. ) ;
#415 = VECTOR ( 'NONE', #133, 1000.000000000000000 ) ;
#416 = CARTESIAN_POINT ( 'NONE',  ( 0.000000000000000000, 0.000000000000000000, -30.86100000000000421 ) ) ;
#417 = VERTEX_POINT ( 'NONE', #373 ) ;
#418 = LINE ( 'NONE', #81, #100 ) ;
#419 = VECTOR ( 'NONE', #34, 1000.000000000000000 ) ;
#420 = PERSON ( 'UNSPECIFIED', 'UNSPECIFIED', 'UNSPECIFIED', ('UNSPECIFIED'), ('UNSPECIFIED'), ('UNSPECIFIED') ) ;
#421 = AXIS2_PLACEMENT_3D ( 'NONE', #64, #394, #240 ) ;
#422 = DIRECTION ( 'NONE',  ( 1.000000000000000000, 0.000000000000000000, 0.000000000000000000 ) ) ;
#423 = EDGE_LOOP ( 'NONE', ( #220, #250, #516, #434, #207 ) ) ;
#424 = COORDINATED_UNIVERSAL_TIME_OFFSET ( 6, 0, .BEHIND. ) ;
#425 = ADVANCED_FACE ( 'NONE', ( #467 ), #139, .T. ) ;
#426 = ORIENTED_EDGE ( 'NONE', *, *, #227, .T. ) ;
#427 = CARTESIAN_POINT ( 'NONE',  ( 0.000000000000000000, 0.000000000000000000, 0.000000000000000000 ) ) ;
#428 = VERTEX_POINT ( 'NONE', #326 ) ;
#429 = CLOSED_SHELL ( 'NONE', ( #462, #425, #49, #95, #502, #132, #9, #312, #482, #384, #15, #470, #377, #146, #390 ) ) ;
#430 = LINE ( 'NONE', #307, #361 ) ;
#431 = ORIENTED_EDGE ( 'NONE', *, *, #545, .F. ) ;
#432 =( LENGTH_UNIT ( ) NAMED_UNIT ( * ) SI_UNIT ( .MILLI., .METRE. ) );
#433 = AXIS2_PLACEMENT_3D ( 'NONE', #247, #412, #371 ) ;
#434 = ORIENTED_EDGE ( 'NONE', *, *, #117, .F. ) ;
#435 = EDGE_CURVE ( 'NONE', #92, #182, #418, .T. ) ;
#436 = DATE_AND_TIME ( #194, #90 ) ;
#437 = CYLINDRICAL_SURFACE ( 'NONE', #520, 2.032000000000000028 ) ;
#438 = CIRCLE ( 'NONE', #85, 2.032000000000000028 ) ;
#439 = CARTESIAN_POINT ( 'NONE',  ( 1.587500000000000355, 1.203706215242022408E-32, -30.83322736169286316 ) ) ;
#440 = DIRECTION ( 'NONE',  ( 0.000000000000000000, 0.000000000000000000, -1.000000000000000000 ) ) ;
#441 = CARTESIAN_POINT ( 'NONE',  ( 0.000000000000000000, 0.000000000000000000, 31.66099999999999426 ) ) ;
#442 = EDGE_CURVE ( 'NONE', #417, #92, #546, .T. ) ;
#443 = VECTOR ( 'NONE', #186, 1000.000000000000000 ) ;
#444 = CARTESIAN_POINT ( 'NONE',  ( -1.245064030267288402, 1.524763679400337895E-16, -28.73600000000002552 ) ) ;
#445 = CARTESIAN_POINT ( 'NONE',  ( 1.268411506570323866, 1.587500000000000355, -30.70991914209797713 ) ) ;
#446 = EDGE_CURVE ( 'NONE', #309, #343, #83, .T. ) ;
#447 = CALENDAR_DATE ( 2022, 6, 6 ) ;
#448 = DIRECTION ( 'NONE',  ( 0.000000000000000000, 0.000000000000000000, -1.000000000000000000 ) ) ;
#449 = AXIS2_PLACEMENT_3D ( 'NONE', #202, #147, #363 ) ;
#450 = CARTESIAN_POINT ( 'NONE',  ( -1.587500000000000355, 1.944126793646423534E-16, -30.83322736169286316 ) ) ;
#451 = CARTESIAN_POINT ( 'NONE',  ( 0.000000000000000000, 0.000000000000000000, -30.70991914209797713 ) ) ;
#452 = CARTESIAN_POINT ( 'NONE',  ( -1.587500000000000355, 0.4276219574846481519, -30.82699639200009045 ) ) ;
#453 = ORIENTED_EDGE ( 'NONE', *, *, #176, .T. ) ;
#454 = CARTESIAN_POINT ( 'NONE',  ( 1.587500000000000577, -0.8514389605504957270, -30.79136751577919995 ) ) ;
#455 = CARTESIAN_POINT ( 'NONE',  ( -1.587500000000000133, 1.061532360077856341, -30.76140206829358803 ) ) ;
#456 = ORIENTED_EDGE ( 'NONE', *, *, #352, .F. ) ;
#457 = DIRECTION ( 'NONE',  ( 1.000000000000000000, 0.000000000000000000, 0.000000000000000000 ) ) ;
#458 = LINE ( 'NONE', #74, #188 ) ;
#459 = EDGE_LOOP ( 'NONE', ( #526, #255, #386, #306 ) ) ;
#460 = CARTESIAN_POINT ( 'NONE',  ( 1.587500000000000355, 1.268411506570324088, -30.70991914209797713 ) ) ;
#461 = CARTESIAN_POINT ( 'NONE',  ( 0.000000000000000000, 0.000000000000000000, 31.66099999999999426 ) ) ;
#462 = ADVANCED_FACE ( 'NONE', ( #30 ), #497, .T. ) ;
#463 = ORIENTED_EDGE ( 'NONE', *, *, #219, .T. ) ;
#464 = APPROVAL_PERSON_ORGANIZATION ( #105, #234, #480 ) ;
#465 = DIRECTION ( 'NONE',  ( 1.000000000000000000, 0.000000000000000000, 0.000000000000000000 ) ) ;
#466 = ORIENTED_EDGE ( 'NONE', *, *, #257, .F. ) ;
#467 = FACE_OUTER_BOUND ( 'NONE', #123, .T. ) ;
#468 = ORIENTED_EDGE ( 'NONE', *, *, #187, .F. ) ;
#469 = AXIS2_PLACEMENT_3D ( 'NONE', #416, #167, #216 ) ;
#470 = ADVANCED_FACE ( 'NONE', ( #331 ), #33, .T. ) ;
#471 = APPROVAL_DATE_TIME ( #301, #73 ) ;
#472 = EDGE_LOOP ( 'NONE', ( #200, #453, #113, #51 ) ) ;
#473 = CC_DESIGN_PERSON_AND_ORGANIZATION_ASSIGNMENT ( #184, #218, ( #45 ) ) ;
#474 = ORIENTED_EDGE ( 'NONE', *, *, #117, .T. ) ;
#475 = CARTESIAN_POINT ( 'NONE',  ( -1.268411506570323866, -1.587500000000000355, -30.86100000000000421 ) ) ;
#476 = ORIENTED_EDGE ( 'NONE', *, *, #549, .T. ) ;
#477 = DIRECTION ( 'NONE',  ( 0.000000000000000000, 0.000000000000000000, -1.000000000000000000 ) ) ;
#478 = EDGE_LOOP ( 'NONE', ( #400, #162, #226, #6 ) ) ;
#479 = EDGE_CURVE ( 'NONE', #305, #290, #527, .T. ) ;
#480 = APPROVAL_ROLE ( '' ) ;
#481 = CARTESIAN_POINT ( 'NONE',  ( -1.587500000000000355, -0.8513200635100126590, -30.79137755531811749 ) ) ;
#482 = ADVANCED_FACE ( 'NONE', ( #244 ), #210, .T. ) ;
#483 = CARTESIAN_POINT ( 'NONE',  ( 1.587500000000000355, 1.268411506570323866, 30.86099999999999710 ) ) ;
#484 = DIRECTION ( 'NONE',  ( -0.000000000000000000, -0.000000000000000000, 1.000000000000000000 ) ) ;
#485 = APPROVAL_STATUS ( 'not_yet_approved' ) ;
#486 = DIRECTION ( 'NONE',  ( 1.000000000000000000, 0.000000000000000000, 0.000000000000000000 ) ) ;
#487 = CC_DESIGN_PERSON_AND_ORGANIZATION_ASSIGNMENT ( #190, #198, ( #10 ) ) ;
#488 = LOCAL_TIME ( 13, 57, 41.00000000000000000, #424 ) ;
#489 = CARTESIAN_POINT ( 'NONE',  ( 0.000000000000000000, 0.000000000000000000, 30.86099999999999710 ) ) ;
#490 = DATE_AND_TIME ( #447, #532 ) ;
#491 = CARTESIAN_POINT ( 'NONE',  ( -1.587500000000000355, 1.587500000000000355, -30.86099999999999710 ) ) ;
#492 = EDGE_CURVE ( 'NONE', #263, #428, #79, .T. ) ;
#493 = AXIS2_PLACEMENT_3D ( 'NONE', #214, #372, #243 ) ;
#494 = CARTESIAN_POINT ( 'NONE',  ( 0.4342314039556035010, -1.587500000000000355, -30.83285171744313757 ) ) ;
#495 = AXIS2_PLACEMENT_3D ( 'NONE', #491, #106, #66 ) ;
#496 = CARTESIAN_POINT ( 'NONE',  ( -1.268411506570324088, 1.587500000000000355, -30.70991914209797713 ) ) ;
#497 = CYLINDRICAL_SURFACE ( 'NONE', #279, 2.399999999999999911 ) ;
#498 = DIRECTION ( 'NONE',  ( 0.000000000000000000, 1.000000000000000000, 0.000000000000000000 ) ) ;
#499 = DIRECTION ( 'NONE',  ( -0.000000000000000000, -0.000000000000000000, 1.000000000000000000 ) ) ;
#500 = CARTESIAN_POINT ( 'NONE',  ( -1.587500000000000577, 0.8514389605504957270, -30.79136751577919995 ) ) ;
#501 = DIRECTION ( 'NONE',  ( 1.000000000000000000, 0.000000000000000000, 0.000000000000000000 ) ) ;
#502 = ADVANCED_FACE ( 'NONE', ( #72 ), #293, .F. ) ;
#503 = CIRCLE ( 'NONE', #47, 2.399999999999999911 ) ;
#504 = CARTESIAN_POINT ( 'NONE',  ( 1.587500000000000355, 1.268411506570323866, -30.86100000000000421 ) ) ;
#505 = ORIENTED_EDGE ( 'NONE', *, *, #215, .T. ) ;
#506 = DIRECTION ( 'NONE',  ( -1.000000000000000000, 0.000000000000000000, 0.000000000000000000 ) ) ;
#507 = DIRECTION ( 'NONE',  ( -0.000000000000000000, -0.000000000000000000, 1.000000000000000000 ) ) ;
#508 = EDGE_LOOP ( 'NONE', ( #295, #476, #259, #225, #38, #237, #515, #340 ) ) ;
#509 = EDGE_CURVE ( 'NONE', #80, #182, #411, .T. ) ;
#510 =( NAMED_UNIT ( * ) PLANE_ANGLE_UNIT ( ) SI_UNIT ( $, .RADIAN. ) );
#511 = AXIS2_PLACEMENT_3D ( 'NONE', #165, #115, #332 ) ;
#512 = ORIENTED_EDGE ( 'NONE', *, *, #280, .F. ) ;
#513 = AXIS2_PLACEMENT_3D ( 'NONE', #336, #163, #465 ) ;
#514 = DIRECTION ( 'NONE',  ( -0.000000000000000000, -0.000000000000000000, 1.000000000000000000 ) ) ;
#515 = ORIENTED_EDGE ( 'NONE', *, *, #70, .T. ) ;
#516 = ORIENTED_EDGE ( 'NONE', *, *, #257, .T. ) ;
#517 = COORDINATED_UNIVERSAL_TIME_OFFSET ( 6, 0, .BEHIND. ) ;
#518 = EDGE_CURVE ( 'NONE', #299, #11, #319, .T. ) ;
#519 = ORIENTED_EDGE ( 'NONE', *, *, #492, .F. ) ;
#520 = AXIS2_PLACEMENT_3D ( 'NONE', #56, #99, #104 ) ;
#521 = DATE_TIME_ROLE ( 'classification_date' ) ;
#522 = CARTESIAN_POINT ( 'NONE',  ( 1.268411506570324088, -1.587500000000000355, -30.70991914209797713 ) ) ;
#523 = DIRECTION ( 'NONE',  ( 1.000000000000000000, 0.000000000000000000, 0.000000000000000000 ) ) ;
#524 = EDGE_CURVE ( 'NONE', #86, #134, #430, .T. ) ;
#525 = DIRECTION ( 'NONE',  ( 1.224646799147353207E-16, 1.000000000000000000, 0.000000000000000000 ) ) ;
#526 = ORIENTED_EDGE ( 'NONE', *, *, #524, .T. ) ;
#527 = B_SPLINE_CURVE_WITH_KNOTS ( 'NONE', 3,
 ( #205, #365, #454, #536, #284, #69 ),
 .UNSPECIFIED., .F., .F.,
 ( 4, 2, 4 ),
 ( 0.01485345774306958029, 0.01548163471194314786, 0.01610981168081671716 ),
 .UNSPECIFIED. ) ;
#528 = VECTOR ( 'NONE', #196, 1000.000000000000000 ) ;
#529 = DATE_AND_TIME ( #153, #388 ) ;
#530 = CARTESIAN_POINT ( 'NONE',  ( -1.060147506033616738, -1.587500000000000133, -30.76174669625517666 ) ) ;
#531 = CARTESIAN_POINT ( 'NONE',  ( 1.587500000000000355, 1.203706215242022408E-32, -30.83322736169286316 ) ) ;
#532 = LOCAL_TIME ( 13, 57, 41.00000000000000000, #96 ) ;
#533 = CARTESIAN_POINT ( 'NONE',  ( -1.587500000000000355, -1.268411506570324088, -30.70991914209797713 ) ) ;
#534 = EDGE_CURVE ( 'NONE', #305, #82, #174, .T. ) ;
#535 = FACE_OUTER_BOUND ( 'NONE', #325, .T. ) ;
#536 = CARTESIAN_POINT ( 'NONE',  ( 1.587500000000000355, -0.4276219574846481519, -30.82699639200009045 ) ) ;
#537 = CARTESIAN_POINT ( 'NONE',  ( 1.587500000000000355, -1.268411506570323866, 30.86099999999999710 ) ) ;
#538 = VERTEX_POINT ( 'NONE', #7 ) ;
#539 = CARTESIAN_POINT ( 'NONE',  ( 0.000000000000000000, 0.000000000000000000, -30.86100000000000421 ) ) ;
#540 = B_SPLINE_CURVE_WITH_KNOTS ( 'NONE', 3,
 ( #61, #199, #236, #481, #201, #533 ),
 .UNSPECIFIED., .F., .F.,
 ( 4, 2, 4 ),
 ( 1.905938025164283266E-19, 0.0006365870327257441884, 0.001273174065451488160 ),
 .UNSPECIFIED. ) ;
#541 = CARTESIAN_POINT ( 'NONE',  ( -1.587500000000000355, -1.268411506570324088, -30.70991914209797713 ) ) ;
#542 = ORIENTED_EDGE ( 'NONE', *, *, #62, .T. ) ;
#543 = DIRECTION ( 'NONE',  ( -0.000000000000000000, -0.000000000000000000, 1.000000000000000000 ) ) ;
#544 = CARTESIAN_POINT ( 'NONE',  ( -1.587500000000000355, -1.268411506570323866, 30.86099999999999710 ) ) ;
#545 = EDGE_CURVE ( 'NONE', #126, #185, #5, .T. ) ;
#546 = LINE ( 'NONE', #121, #238 ) ;
#547 = AXIS2_PLACEMENT_3D ( 'NONE', #251, #507, #407 ) ;
#548 = DIRECTION ( 'NONE',  ( 1.000000000000000000, 0.000000000000000000, 0.000000000000000000 ) ) ;
#549 = EDGE_CURVE ( 'NONE', #185, #309, #342, .T. ) ;
ENDSEC;
END-ISO-10303-21;
