ISO-10303-21;
HEADER;
FILE_DESCRIPTION (( 'STEP AP203' ),
    '1' );
FILE_NAME ('228-2500-122.step',
    '2022-06-06T19:02:47',
    ( '' ),
    ( '' ),
    'SwSTEP 2.0',
    'SolidWorks 2021',
    '' );
FILE_SCHEMA (( 'CONFIG_CONTROL_DESIGN' ));
ENDSEC;

DATA;
#1 = VERTEX_POINT ( 'NONE', #252 ) ;
#2 = VECTOR ( 'NONE', #32, 1000.000000000000000 ) ;
#3 = DIRECTION ( 'NONE',  ( -0.000000000000000000, -0.000000000000000000, 1.000000000000000000 ) ) ;
#4 = ORIENTED_EDGE ( 'NONE', *, *, #339, .T. ) ;
#5 = EDGE_CURVE ( 'NONE', #262, #75, #489, .T. ) ;
#6 = CARTESIAN_POINT ( 'NONE',  ( -1.268411506570324088, -1.587500000000000355, 37.05991914209798210 ) ) ;
#7 = ORIENTED_EDGE ( 'NONE', *, *, #470, .F. ) ;
#8 = PLANE ( 'NONE',  #483 ) ;
#9 = EDGE_LOOP ( 'NONE', ( #309, #51, #129, #419 ) ) ;
#10 = ORIENTED_EDGE ( 'NONE', *, *, #5, .T. ) ;
#11 = CIRCLE ( 'NONE', #409, 2.124999999999995115 ) ;
#12 = ADVANCED_FACE ( 'NONE', ( #43 ), #40, .F. ) ;
#13 = DIRECTION ( 'NONE',  ( 0.000000000000000000, 0.000000000000000000, -1.000000000000000000 ) ) ;
#14 = DIRECTION ( 'NONE',  ( -0.000000000000000000, -0.000000000000000000, 1.000000000000000000 ) ) ;
#15 = CARTESIAN_POINT ( 'NONE',  ( 1.587499999999999911, -1.268411506570324088, -37.05991914209798210 ) ) ;
#16 = AXIS2_PLACEMENT_3D ( 'NONE', #471, #251, #121 ) ;
#17 = CC_DESIGN_PERSON_AND_ORGANIZATION_ASSIGNMENT ( #249, #153, ( #264 ) ) ;
#18 = CARTESIAN_POINT ( 'NONE',  ( -1.587500000000000355, -0.4276219574846462090, 37.17699639200009187 ) ) ;
#19 = CARTESIAN_POINT ( 'NONE',  ( -1.587500000000000133, 1.061532360077857007, -37.11140206829359300 ) ) ;
#20 = CARTESIAN_POINT ( 'NONE',  ( -1.587499999999999911, 1.268411506570324088, -37.21099999999999852 ) ) ;
#21 = CARTESIAN_POINT ( 'NONE',  ( 0.4342314039556052774, 1.587500000000000355, 37.18285171744313544 ) ) ;
#22 = CARTESIAN_POINT ( 'NONE',  ( -1.587500000000000355, -0.2114796877013871146, 37.18322736169286458 ) ) ;
#23 = DIRECTION ( 'NONE',  ( 0.000000000000000000, 0.000000000000000000, -1.000000000000000000 ) ) ;
#24 = DIRECTION ( 'NONE',  ( 0.000000000000000000, 0.000000000000000000, -1.000000000000000000 ) ) ;
#25 = CIRCLE ( 'NONE', #403, 2.032000000000000028 ) ;
#26 = CC_DESIGN_PERSON_AND_ORGANIZATION_ASSIGNMENT ( #195, #467, ( #504 ) ) ;
#27 = CARTESIAN_POINT ( 'NONE',  ( 1.268411506570324088, -1.587499999999999911, -37.05991914209798210 ) ) ;
#28 = EDGE_LOOP ( 'NONE', ( #457, #257, #147, #286, #214, #242 ) ) ;
#29 = PERSON_AND_ORGANIZATION ( #293, #371 ) ;
#30 = CARTESIAN_POINT ( 'NONE',  ( -1.587499999999999911, -1.268411506570324088, -37.21099999999999852 ) ) ;
#31 = APPROVAL_STATUS ( 'not_yet_approved' ) ;
#32 = DIRECTION ( 'NONE',  ( 0.000000000000000000, 0.000000000000000000, -1.000000000000000000 ) ) ;
#33 = ORIENTED_EDGE ( 'NONE', *, *, #72, .F. ) ;
#34 = ADVANCED_FACE ( 'NONE', ( #450 ), #274, .F. ) ;
#35 = AXIS2_PLACEMENT_3D ( 'NONE', #82, #255, #60 ) ;
#36 = LOCAL_TIME ( 14, 2, 47.00000000000000000, #114 ) ;
#37 = FACE_OUTER_BOUND ( 'NONE', #125, .T. ) ;
#38 = DATE_TIME_ROLE ( 'classification_date' ) ;
#39 = CARTESIAN_POINT ( 'NONE',  ( 0.000000000000000000, 0.000000000000000000, -37.21099999999999852 ) ) ;
#40 = PLANE ( 'NONE',  #35 ) ;
#41 = APPROVAL_DATE_TIME ( #503, #193 ) ;
#42 = DIRECTION ( 'NONE',  ( 1.000000000000000000, 0.000000000000000000, 0.000000000000000000 ) ) ;
#43 = FACE_OUTER_BOUND ( 'NONE', #260, .T. ) ;
#44 = DIRECTION ( 'NONE',  ( -1.000000000000000000, 0.000000000000000000, -0.000000000000000000 ) ) ;
#45 = APPROVAL_PERSON_ORGANIZATION ( #126, #145, #207 ) ;
#46 = EDGE_LOOP ( 'NONE', ( #197, #312, #518, #62, #478, #83 ) ) ;
#47 = AXIS2_PLACEMENT_3D ( 'NONE', #353, #389, #48 ) ;
#48 = DIRECTION ( 'NONE',  ( 0.000000000000000000, 0.000000000000000000, -1.000000000000000000 ) ) ;
#49 = ORIENTED_EDGE ( 'NONE', *, *, #327, .F. ) ;
#50 =( LENGTH_UNIT ( ) NAMED_UNIT ( * ) SI_UNIT ( .MILLI., .METRE. ) );
#51 = ORIENTED_EDGE ( 'NONE', *, *, #474, .T. ) ;
#52 = CC_DESIGN_PERSON_AND_ORGANIZATION_ASSIGNMENT ( #199, #380, ( #481 ) ) ;
#53 = CARTESIAN_POINT ( 'NONE',  ( 1.587500000000000355, -1.587500000000000355, 37.21099999999999852 ) ) ;
#54 = AXIS2_PLACEMENT_3D ( 'NONE', #533, #412, #278 ) ;
#55 = CARTESIAN_POINT ( 'NONE',  ( -1.587500000000000355, 0.2114796877013871146, -37.18322736169286458 ) ) ;
#56 = CARTESIAN_POINT ( 'NONE',  ( 0.000000000000000000, 0.000000000000000000, -37.21099999999999852 ) ) ;
#57 = CARTESIAN_POINT ( 'NONE',  ( 1.587500000000000355, 0.000000000000000000, -37.18322736169287168 ) ) ;
#58 = CARTESIAN_POINT ( 'NONE',  ( 1.587500000000000355, 0.2114796877013871146, 37.18322736169286458 ) ) ;
#59 = CIRCLE ( 'NONE', #410, 2.032000000000000028 ) ;
#60 = DIRECTION ( 'NONE',  ( 0.000000000000000000, -0.000000000000000000, 1.000000000000000000 ) ) ;
#61 = CARTESIAN_POINT ( 'NONE',  ( -1.245064030267288402, 1.524763679400337895E-16, -35.08600000000000563 ) ) ;
#62 = ORIENTED_EDGE ( 'NONE', *, *, #263, .F. ) ;
#63 =( NAMED_UNIT ( * ) SI_UNIT ( $, .STERADIAN. ) SOLID_ANGLE_UNIT ( ) );
#64 = EDGE_CURVE ( 'NONE', #75, #354, #527, .T. ) ;
#65 = CARTESIAN_POINT ( 'NONE',  ( 0.4342314039556052774, -1.587500000000000355, -37.18285171744313544 ) ) ;
#66 = VERTEX_POINT ( 'NONE', #407 ) ;
#67 = CIRCLE ( 'NONE', #484, 1.245064030267288402 ) ;
#68 = CARTESIAN_POINT ( 'NONE',  ( -1.587500000000000355, -1.587500000000000355, 37.21099999999999852 ) ) ;
#69 = VERTEX_POINT ( 'NONE', #15 ) ;
#70 = APPLICATION_PROTOCOL_DEFINITION ( 'international standard', 'config_control_design', 1994, #103 ) ;
#71 = FACE_OUTER_BOUND ( 'NONE', #28, .T. ) ;
#72 = EDGE_CURVE ( 'NONE', #354, #1, #395, .T. ) ;
#73 = CALENDAR_DATE ( 2022, 6, 6 ) ;
#74 = LINE ( 'NONE', #415, #220 ) ;
#75 = VERTEX_POINT ( 'NONE', #447 ) ;
#76 = APPROVAL_ROLE ( '' ) ;
#77 = AXIS2_PLACEMENT_3D ( 'NONE', #488, #13, #313 ) ;
#78 = DIRECTION ( 'NONE',  ( -0.000000000000000000, -0.000000000000000000, 1.000000000000000000 ) ) ;
#79 = VERTEX_POINT ( 'NONE', #492 ) ;
#80 = EDGE_CURVE ( 'NONE', #486, #119, #355, .T. ) ;
#81 = CARTESIAN_POINT ( 'NONE',  ( -1.245064030267288402, -1.524763679400337895E-16, 35.08600000000000563 ) ) ;
#82 = CARTESIAN_POINT ( 'NONE',  ( -1.587500000000000355, -1.587500000000000355, 37.21099999999999852 ) ) ;
#83 = ORIENTED_EDGE ( 'NONE', *, *, #514, .T. ) ;
#84 = AXIS2_PLACEMENT_3D ( 'NONE', #68, #502, #192 ) ;
#85 = FACE_OUTER_BOUND ( 'NONE', #549, .T. ) ;
#86 = CC_DESIGN_APPROVAL ( #145, ( #504 ) ) ;
#87 = ORIENTED_EDGE ( 'NONE', *, *, #296, .T. ) ;
#88 = CARTESIAN_POINT ( 'NONE',  ( -0.8571092511719587970, -1.587500000000000799, 37.16227379706278100 ) ) ;
#89 = ORIENTED_EDGE ( 'NONE', *, *, #327, .T. ) ;
#90 = EDGE_CURVE ( 'NONE', #473, #390, #394, .T. ) ;
#91 = CC_DESIGN_DATE_AND_TIME_ASSIGNMENT ( #427, #38, ( #517 ) ) ;
#92 = CARTESIAN_POINT ( 'NONE',  ( 0.000000000000000000, 0.000000000000000000, -37.21099999999999852 ) ) ;
#93 = B_SPLINE_CURVE_WITH_KNOTS ( 'NONE', 3,
 ( #311, #302, #475, #130, #396, #477, #88, #6 ),
 .UNSPECIFIED., .F., .F.,
 ( 4, 2, 2, 4 ),
 ( 0.01485345774306975203, 0.01548583974386941002, 0.01611822174466906801, 0.01738298574626838400 ),
 .UNSPECIFIED. ) ;
#94 = TOROIDAL_SURFACE ( 'NONE', #248, 1.245064030267288402, 2.124999999999995115 ) ;
#95 = CARTESIAN_POINT ( 'NONE',  ( 1.587500000000000133, 1.061532360077857007, 37.11140206829359300 ) ) ;
#96 = CC_DESIGN_SECURITY_CLASSIFICATION ( #517, ( #504 ) ) ;
#97 = CARTESIAN_POINT ( 'NONE',  ( 1.587500000000000355, 0.4276219574846462090, 37.17699639200009187 ) ) ;
#98 = CARTESIAN_POINT ( 'NONE',  ( 1.587499999999999911, -1.268411506570324088, -37.21099999999999852 ) ) ;
#99 = DIRECTION ( 'NONE',  ( -1.000000000000000000, 0.000000000000000000, 0.000000000000000000 ) ) ;
#100 = CARTESIAN_POINT ( 'NONE',  ( -0.8486262390323824345, 1.587500000000000355, 37.14176882282394843 ) ) ;
#101 = CIRCLE ( 'NONE', #47, 2.124999999999995115 ) ;
#102 = ADVANCED_FACE ( 'NONE', ( #324 ), #134, .T. ) ;
#103 = APPLICATION_CONTEXT ( 'configuration controlled 3d designs of mechanical parts and assemblies' ) ;
#104 =( NAMED_UNIT ( * ) PLANE_ANGLE_UNIT ( ) SI_UNIT ( $, .RADIAN. ) );
#105 = DIRECTION ( 'NONE',  ( -1.000000000000000000, 0.000000000000000000, -0.000000000000000000 ) ) ;
#106 = ADVANCED_FACE ( 'NONE', ( #530 ), #404, .F. ) ;
#107 = APPLICATION_PROTOCOL_DEFINITION ( 'international standard', 'config_control_design', 1994, #510 ) ;
#108 = CARTESIAN_POINT ( 'NONE',  ( -0.2043756380772888126, -1.587500000000000799, -37.18340961896380747 ) ) ;
#109 = ORIENTED_EDGE ( 'NONE', *, *, #263, .T. ) ;
#110 = DIRECTION ( 'NONE',  ( -1.000000000000000000, 0.000000000000000000, 0.000000000000000000 ) ) ;
#111 = PRODUCT_DEFINITION_SHAPE ( 'NONE', 'NONE',  #481 ) ;
#112 = FACE_OUTER_BOUND ( 'NONE', #280, .T. ) ;
#113 = AXIS2_PLACEMENT_3D ( 'NONE', #449, #118, #372 ) ;
#114 = COORDINATED_UNIVERSAL_TIME_OFFSET ( 6, 0, .BEHIND. ) ;
#115 = CARTESIAN_POINT ( 'NONE',  ( 1.587499999999999911, -1.268411506570324088, -37.05991914209798210 ) ) ;
#116 = ORIENTED_EDGE ( 'NONE', *, *, #334, .T. ) ;
#117 = APPROVAL_STATUS ( 'not_yet_approved' ) ;
#118 = DIRECTION ( 'NONE',  ( -0.000000000000000000, -0.000000000000000000, 1.000000000000000000 ) ) ;
#119 = VERTEX_POINT ( 'NONE', #317 ) ;
#120 = APPROVAL_DATE_TIME ( #435, #145 ) ;
#121 = DIRECTION ( 'NONE',  ( 0.000000000000000000, 0.000000000000000000, 1.000000000000000000 ) ) ;
#122 = ORIENTED_EDGE ( 'NONE', *, *, #339, .F. ) ;
#123 = B_SPLINE_CURVE_WITH_KNOTS ( 'NONE', 3,
 ( #351, #343, #212, #516, #124, #170 ),
 .UNSPECIFIED., .F., .F.,
 ( 4, 2, 4 ),
 ( 1.905938025164284470E-19, 0.0006365870327257441884, 0.001273174065451488160 ),
 .UNSPECIFIED. ) ;
#124 = CARTESIAN_POINT ( 'NONE',  ( -1.587500000000000355, 1.061392899157111325, 37.11143677385165773 ) ) ;
#125 = EDGE_LOOP ( 'NONE', ( #49, #482, #240, #507, #206, #295, #132, #500 ) ) ;
#126 = PERSON_AND_ORGANIZATION ( #293, #371 ) ;
#127 = CARTESIAN_POINT ( 'NONE',  ( 1.587500000000000355, 0.000000000000000000, 37.18322736169287168 ) ) ;
#128 = EDGE_LOOP ( 'NONE', ( #374, #397, #116, #379, #523, #150, #158, #33 ) ) ;
#129 = ORIENTED_EDGE ( 'NONE', *, *, #440, .T. ) ;
#130 = CARTESIAN_POINT ( 'NONE',  ( 0.4219230645619472253, -1.587500000000000133, 37.17730730355361857 ) ) ;
#131 = EDGE_CURVE ( 'NONE', #393, #194, #554, .T. ) ;
#132 = ORIENTED_EDGE ( 'NONE', *, *, #162, .F. ) ;
#133 = DIRECTION ( 'NONE',  ( 0.000000000000000000, 0.000000000000000000, 1.000000000000000000 ) ) ;
#134 = CYLINDRICAL_SURFACE ( 'NONE', #506, 2.032000000000000028 ) ;
#135 = AXIS2_PLACEMENT_3D ( 'NONE', #61, #235, #277 ) ;
#136 = CARTESIAN_POINT ( 'NONE',  ( 0.8571092511719587970, 1.587500000000000799, 37.16227379706278100 ) ) ;
#137 = CARTESIAN_POINT ( 'NONE',  ( 1.587500000000000577, 0.4277385810629841800, -37.17698654358312638 ) ) ;
#138 = DIRECTION ( 'NONE',  ( -0.000000000000000000, -0.000000000000000000, 1.000000000000000000 ) ) ;
#139 = CARTESIAN_POINT ( 'NONE',  ( 1.587500000000000355, 0.000000000000000000, -37.18322736169287168 ) ) ;
#140 = CARTESIAN_POINT ( 'NONE',  ( 1.587500000000000355, -0.8513200635100126590, 37.14137755531812246 ) ) ;
#141 = DIRECTION ( 'NONE',  ( -0.000000000000000000, -0.000000000000000000, 1.000000000000000000 ) ) ;
#142 = APPROVAL ( #117, 'UNSPECIFIED' ) ;
#143 = AXIS2_PLACEMENT_3D ( 'NONE', #56, #14, #531 ) ;
#144 = CARTESIAN_POINT ( 'NONE',  ( 0.000000000000000000, 0.000000000000000000, 37.21099999999999852 ) ) ;
#145 = APPROVAL ( #385, 'UNSPECIFIED' ) ;
#146 = CARTESIAN_POINT ( 'NONE',  ( 1.587500000000000355, 0.000000000000000000, -37.18322736169287168 ) ) ;
#147 = ORIENTED_EDGE ( 'NONE', *, *, #72, .T. ) ;
#148 = DIRECTION ( 'NONE',  ( 1.000000000000000000, 0.000000000000000000, 0.000000000000000000 ) ) ;
#149 = DIRECTION ( 'NONE',  ( 0.000000000000000000, 0.000000000000000000, -1.000000000000000000 ) ) ;
#150 = ORIENTED_EDGE ( 'NONE', *, *, #305, .F. ) ;
#151 = CARTESIAN_POINT ( 'NONE',  ( 1.060147506033618070, 1.587500000000000355, -37.11174669625518163 ) ) ;
#152 = ORIENTED_EDGE ( 'NONE', *, *, #362, .F. ) ;
#153 = PERSON_AND_ORGANIZATION_ROLE ( 'design_owner' ) ;
#154 = VECTOR ( 'NONE', #24, 1000.000000000000000 ) ;
#155 = CARTESIAN_POINT ( 'NONE',  ( 1.268411506570324088, 1.587500000000000355, 37.05991914209798210 ) ) ;
#156 = VERTEX_POINT ( 'NONE', #322 ) ;
#157 = DIRECTION ( 'NONE',  ( 1.000000000000000000, 1.224646799147353207E-16, 0.000000000000000000 ) ) ;
#158 = ORIENTED_EDGE ( 'NONE', *, *, #180, .F. ) ;
#159 = COORDINATED_UNIVERSAL_TIME_OFFSET ( 6, 0, .BEHIND. ) ;
#160 = CARTESIAN_POINT ( 'NONE',  ( -1.587500000000000355, 1.587500000000000355, 37.21099999999999852 ) ) ;
#161 = ORIENTED_EDGE ( 'NONE', *, *, #452, .T. ) ;
#162 = EDGE_CURVE ( 'NONE', #357, #393, #402, .T. ) ;
#163 = CALENDAR_DATE ( 2022, 6, 6 ) ;
#164 = CIRCLE ( 'NONE', #135, 2.124999999999995115 ) ;
#165 = CARTESIAN_POINT ( 'NONE',  ( 0.000000000000000000, 0.000000000000000000, -35.08600000000000563 ) ) ;
#166 = ORIENTED_EDGE ( 'NONE', *, *, #440, .F. ) ;
#167 = DIRECTION ( 'NONE',  ( 1.000000000000000000, 0.000000000000000000, 0.000000000000000000 ) ) ;
#168 = VERTEX_POINT ( 'NONE', #227 ) ;
#169 = EDGE_CURVE ( 'NONE', #156, #399, #188, .T. ) ;
#170 = CARTESIAN_POINT ( 'NONE',  ( -1.587500000000000355, 1.268411506570324088, 37.05991914209798210 ) ) ;
#171 = ORIENTED_EDGE ( 'NONE', *, *, #521, .T. ) ;
#172 = AXIS2_PLACEMENT_3D ( 'NONE', #553, #23, #105 ) ;
#173 = ORIENTED_EDGE ( 'NONE', *, *, #80, .F. ) ;
#174 = CARTESIAN_POINT ( 'NONE',  ( 1.587500000000000355, 1.268411506570323866, 37.05991914209798210 ) ) ;
#175 = MANIFOLD_SOLID_BREP ( '228-2500-122', #258 ) ;
#176 = CARTESIAN_POINT ( 'NONE',  ( -1.587500000000000355, 1.944126793646423534E-16, -37.18322736169287168 ) ) ;
#177 = DIRECTION ( 'NONE',  ( -0.000000000000000000, -0.000000000000000000, 1.000000000000000000 ) ) ;
#178 = DIRECTION ( 'NONE',  ( 1.000000000000000000, 0.000000000000000000, 0.000000000000000000 ) ) ;
#179 = CARTESIAN_POINT ( 'NONE',  ( -1.587500000000000355, -1.944126793646423534E-16, 37.18322736169287168 ) ) ;
#180 = EDGE_CURVE ( 'NONE', #1, #168, #347, .T. ) ;
#181 = CARTESIAN_POINT ( 'NONE',  ( -1.587500000000000133, -0.2143109880596213990, -37.18322736169287168 ) ) ;
#182 = CARTESIAN_POINT ( 'NONE',  ( 1.587500000000000355, 0.000000000000000000, 37.18322736169287168 ) ) ;
#183 = CARTESIAN_POINT ( 'NONE',  ( -0.2043756380772888126, 1.587500000000000799, 37.18340961896380747 ) ) ;
#184 = CARTESIAN_POINT ( 'NONE',  ( -0.8486262390323824345, -1.587500000000000355, -37.14176882282394843 ) ) ;
#185 = LOCAL_TIME ( 14, 2, 47.00000000000000000, #159 ) ;
#186 = ORIENTED_EDGE ( 'NONE', *, *, #215, .T. ) ;
#187 = DIRECTION ( 'NONE',  ( 0.000000000000000000, 0.000000000000000000, -1.000000000000000000 ) ) ;
#188 = B_SPLINE_CURVE_WITH_KNOTS ( 'NONE', 3,
 ( #174, #95, #267, #97, #58, #411 ),
 .UNSPECIFIED., .F., .F.,
 ( 4, 2, 4 ),
 ( 0.01485345774306975203, 0.01548163471194332307, 0.01610981168081689410 ),
 .UNSPECIFIED. ) ;
#189 = CARTESIAN_POINT ( 'NONE',  ( 0.8571092511719587970, -1.587500000000000799, -37.16227379706278100 ) ) ;
#190 = ORIENTED_EDGE ( 'NONE', *, *, #400, .F. ) ;
#191 = DESIGN_CONTEXT ( 'detailed design', #103, 'design' ) ;
#192 = DIRECTION ( 'NONE',  ( 0.000000000000000000, 0.000000000000000000, -1.000000000000000000 ) ) ;
#193 = APPROVAL ( #31, 'UNSPECIFIED' ) ;
#194 = VERTEX_POINT ( 'NONE', #155 ) ;
#195 = PERSON_AND_ORGANIZATION ( #293, #371 ) ;
#196 = LINE ( 'NONE', #539, #463 ) ;
#197 = ORIENTED_EDGE ( 'NONE', *, *, #474, .F. ) ;
#198 = AXIS2_PLACEMENT_3D ( 'NONE', #476, #434, #436 ) ;
#199 = PERSON_AND_ORGANIZATION ( #293, #371 ) ;
#200 = VECTOR ( 'NONE', #226, 1000.000000000000000 ) ;
#201 = FACE_OUTER_BOUND ( 'NONE', #469, .T. ) ;
#202 = ORIENTED_EDGE ( 'NONE', *, *, #362, .T. ) ;
#203 = APPROVAL_ROLE ( '' ) ;
#204 = ADVANCED_FACE ( 'NONE', ( #37 ), #94, .T. ) ;
#205 = DIRECTION ( 'NONE',  ( 0.000000000000000000, 0.000000000000000000, -1.000000000000000000 ) ) ;
#206 = ORIENTED_EDGE ( 'NONE', *, *, #521, .F. ) ;
#207 = APPROVAL_ROLE ( '' ) ;
#208 = CARTESIAN_POINT ( 'NONE',  ( 1.268411506570324088, 1.587499999999999911, -37.21099999999999852 ) ) ;
#209 = ORIENTED_EDGE ( 'NONE', *, *, #290, .T. ) ;
#210 = VECTOR ( 'NONE', #141, 1000.000000000000000 ) ;
#211 =( GEOMETRIC_REPRESENTATION_CONTEXT ( 3 ) GLOBAL_UNCERTAINTY_ASSIGNED_CONTEXT ( ( #441 ) ) GLOBAL_UNIT_ASSIGNED_CONTEXT ( ( #50, #104, #63 ) ) REPRESENTATION_CONTEXT ( 'NONE', 'WORKASPACE' ) );
#212 = CARTESIAN_POINT ( 'NONE',  ( -1.587500000000000577, 0.4277385810629846241, 37.17698654358312638 ) ) ;
#213 = AXIS2_PLACEMENT_3D ( 'NONE', #244, #425, #548 ) ;
#214 = ORIENTED_EDGE ( 'NONE', *, *, #557, .T. ) ;
#215 = EDGE_CURVE ( 'NONE', #393, #262, #74, .T. ) ;
#216 = ADVANCED_BREP_SHAPE_REPRESENTATION ( '228-2500-122', ( #175, #448 ), #211 ) ;
#217 = CYLINDRICAL_SURFACE ( 'NONE', #229, 2.032000000000000028 ) ;
#218 = EDGE_LOOP ( 'NONE', ( #122, #431 ) ) ;
#219 = ORIENTED_EDGE ( 'NONE', *, *, #266, .T. ) ;
#220 = VECTOR ( 'NONE', #294, 1000.000000000000000 ) ;
#221 = ADVANCED_FACE ( 'NONE', ( #238 ), #421, .T. ) ;
#222 = AXIS2_PLACEMENT_3D ( 'NONE', #368, #138, #323 ) ;
#223 = CARTESIAN_POINT ( 'NONE',  ( 1.587500000000000355, 0.8513200635100126590, -37.14137755531812246 ) ) ;
#224 = B_SPLINE_CURVE_WITH_KNOTS ( 'NONE', 3,
 ( #182, #276, #491, #140, #536, #269 ),
 .UNSPECIFIED., .F., .F.,
 ( 4, 2, 4 ),
 ( 0.000000000000000000, 0.0006365870327257441884, 0.001273174065451488160 ),
 .UNSPECIFIED. ) ;
#225 = CARTESIAN_POINT ( 'NONE',  ( -1.587499999999999911, -1.268411506570324088, -37.05991914209798210 ) ) ;
#226 = DIRECTION ( 'NONE',  ( -0.000000000000000000, -0.000000000000000000, 1.000000000000000000 ) ) ;
#227 = CARTESIAN_POINT ( 'NONE',  ( -1.268411506570324088, -1.587499999999999911, -37.05991914209798210 ) ) ;
#228 = DIRECTION ( 'NONE',  ( -0.000000000000000000, -0.000000000000000000, 1.000000000000000000 ) ) ;
#229 = AXIS2_PLACEMENT_3D ( 'NONE', #433, #3, #256 ) ;
#230 = DIRECTION ( 'NONE',  ( -0.000000000000000000, -0.000000000000000000, 1.000000000000000000 ) ) ;
#231 = APPROVAL_PERSON_ORGANIZATION ( #288, #193, #203 ) ;
#232 = EDGE_CURVE ( 'NONE', #79, #1, #246, .T. ) ;
#233 = CARTESIAN_POINT ( 'NONE',  ( 0.000000000000000000, 0.000000000000000000, 37.05991914209798210 ) ) ;
#234 = CARTESIAN_POINT ( 'NONE',  ( -1.587500000000000355, 1.587500000000000355, 37.21099999999999852 ) ) ;
#235 = DIRECTION ( 'NONE',  ( 1.224646799147353207E-16, 1.000000000000000000, 0.000000000000000000 ) ) ;
#236 = CARTESIAN_POINT ( 'NONE',  ( -1.587500000000000577, -0.8514389605504948388, 37.14136751577920137 ) ) ;
#237 = ADVANCED_FACE ( 'NONE', ( #71 ), #340, .F. ) ;
#238 = FACE_OUTER_BOUND ( 'NONE', #218, .T. ) ;
#239 = CIRCLE ( 'NONE', #16, 2.124999999999995115 ) ;
#240 = ORIENTED_EDGE ( 'NONE', *, *, #358, .T. ) ;
#241 = CARTESIAN_POINT ( 'NONE',  ( -0.8571092511719587970, 1.587500000000000799, -37.16227379706278100 ) ) ;
#242 = ORIENTED_EDGE ( 'NONE', *, *, #381, .T. ) ;
#243 = SECURITY_CLASSIFICATION_LEVEL ( 'unclassified' ) ;
#244 = CARTESIAN_POINT ( 'NONE',  ( 0.000000000000000000, 0.000000000000000000, -37.21099999999999852 ) ) ;
#245 = ORIENTED_EDGE ( 'NONE', *, *, #358, .F. ) ;
#246 = LINE ( 'NONE', #30, #2 ) ;
#247 = ORIENTED_EDGE ( 'NONE', *, *, #232, .T. ) ;
#248 = AXIS2_PLACEMENT_3D ( 'NONE', #468, #543, #498 ) ;
#249 = PERSON_AND_ORGANIZATION ( #293, #371 ) ;
#250 = EDGE_CURVE ( 'NONE', #69, #486, #479, .T. ) ;
#251 = DIRECTION ( 'NONE',  ( -0.000000000000000000, 1.000000000000000000, 0.000000000000000000 ) ) ;
#252 = CARTESIAN_POINT ( 'NONE',  ( -1.587499999999999911, -1.268411506570324088, -37.05991914209798210 ) ) ;
#253 = DATE_AND_TIME ( #333, #185 ) ;
#254 = FACE_OUTER_BOUND ( 'NONE', #387, .T. ) ;
#255 = DIRECTION ( 'NONE',  ( 0.000000000000000000, 1.000000000000000000, 0.000000000000000000 ) ) ;
#256 = DIRECTION ( 'NONE',  ( 1.000000000000000000, 0.000000000000000000, 0.000000000000000000 ) ) ;
#257 = ORIENTED_EDGE ( 'NONE', *, *, #64, .T. ) ;
#258 = CLOSED_SHELL ( 'NONE', ( #321, #349, #237, #12, #34, #106, #455, #204, #221, #373, #314, #271, #102, #369 ) ) ;
#259 = DIRECTION ( 'NONE',  ( -0.000000000000000000, -0.000000000000000000, 1.000000000000000000 ) ) ;
#260 = EDGE_LOOP ( 'NONE', ( #401, #307, #300, #525 ) ) ;
#261 = DIRECTION ( 'NONE',  ( 1.000000000000000000, 0.000000000000000000, 0.000000000000000000 ) ) ;
#262 = VERTEX_POINT ( 'NONE', #465 ) ;
#263 = EDGE_CURVE ( 'NONE', #156, #119, #196, .T. ) ;
#264 = PRODUCT ( '228-2500-122', '228-2500-122', '', ( #556 ) ) ;
#265 = CARTESIAN_POINT ( 'NONE',  ( -1.587500000000000577, -0.4277385810629846241, -37.17698654358312638 ) ) ;
#266 = EDGE_CURVE ( 'NONE', #473, #354, #164, .T. ) ;
#267 = CARTESIAN_POINT ( 'NONE',  ( 1.587500000000000577, 0.8514389605504948388, 37.14136751577920137 ) ) ;
#268 = CARTESIAN_POINT ( 'NONE',  ( -1.587500000000000355, 1.944126793646423534E-16, -37.18322736169287168 ) ) ;
#269 = CARTESIAN_POINT ( 'NONE',  ( 1.587500000000000355, -1.268411506570324088, 37.05991914209798210 ) ) ;
#270 = CARTESIAN_POINT ( 'NONE',  ( 1.268411506570324088, 1.587500000000000355, 37.05991914209798210 ) ) ;
#271 = ADVANCED_FACE ( 'NONE', ( #378 ), #331, .T. ) ;
#272 = FACE_OUTER_BOUND ( 'NONE', #128, .T. ) ;
#273 = CC_DESIGN_DATE_AND_TIME_ASSIGNMENT ( #253, #338, ( #481 ) ) ;
#274 = PLANE ( 'NONE',  #497 ) ;
#275 = AXIS2_PLACEMENT_3D ( 'NONE', #408, #177, #148 ) ;
#276 = CARTESIAN_POINT ( 'NONE',  ( 1.587500000000000355, -0.2143109880596213712, 37.18322736169287168 ) ) ;
#277 = DIRECTION ( 'NONE',  ( -1.000000000000000000, 1.224646799147353207E-16, 0.000000000000000000 ) ) ;
#278 = DIRECTION ( 'NONE',  ( 1.000000000000000000, 0.000000000000000000, 0.000000000000000000 ) ) ;
#279 = CARTESIAN_POINT ( 'NONE',  ( 1.587500000000000577, -0.8514389605504948388, -37.14136751577920137 ) ) ;
#280 = EDGE_LOOP ( 'NONE', ( #559, #209, #511, #247 ) ) ;
#281 = CC_DESIGN_PERSON_AND_ORGANIZATION_ASSIGNMENT ( #432, #342, ( #504 ) ) ;
#282 = CARTESIAN_POINT ( 'NONE',  ( -1.587500000000000355, -1.268411506570323866, 37.05991914209798210 ) ) ;
#283 = CYLINDRICAL_SURFACE ( 'NONE', #284, 2.032000000000000028 ) ;
#284 = AXIS2_PLACEMENT_3D ( 'NONE', #462, #445, #167 ) ;
#285 = CC_DESIGN_APPROVAL ( #142, ( #481 ) ) ;
#286 = ORIENTED_EDGE ( 'NONE', *, *, #232, .F. ) ;
#287 = AXIS2_PLACEMENT_3D ( 'NONE', #165, #259, #42 ) ;
#288 = PERSON_AND_ORGANIZATION ( #293, #371 ) ;
#289 = CARTESIAN_POINT ( 'NONE',  ( -0.4219230645619472253, -1.587500000000000133, -37.17730730355361857 ) ) ;
#290 = EDGE_CURVE ( 'NONE', #168, #544, #459, .T. ) ;
#291 = ORIENTED_EDGE ( 'NONE', *, *, #537, .F. ) ;
#292 = CALENDAR_DATE ( 2022, 6, 6 ) ;
#293 = PERSON ( 'UNSPECIFIED', 'UNSPECIFIED', 'UNSPECIFIED', ('UNSPECIFIED'), ('UNSPECIFIED'), ('UNSPECIFIED') ) ;
#294 = DIRECTION ( 'NONE',  ( 0.000000000000000000, 0.000000000000000000, -1.000000000000000000 ) ) ;
#295 = ORIENTED_EDGE ( 'NONE', *, *, #131, .F. ) ;
#296 = EDGE_CURVE ( 'NONE', #555, #262, #304, .T. ) ;
#297 = APPROVAL_DATE_TIME ( #550, #142 ) ;
#298 = CARTESIAN_POINT ( 'NONE',  ( -1.245064030267288402, -2.006622987633880502E-16, 37.21099999999999852 ) ) ;
#299 = CC_DESIGN_PERSON_AND_ORGANIZATION_ASSIGNMENT ( #29, #344, ( #517 ) ) ;
#300 = ORIENTED_EDGE ( 'NONE', *, *, #529, .F. ) ;
#301 = AXIS2_PLACEMENT_3D ( 'NONE', #501, #187, #110 ) ;
#302 = CARTESIAN_POINT ( 'NONE',  ( 1.060147506033618070, -1.587500000000000355, 37.11174669625518163 ) ) ;
#303 = ORIENTED_EDGE ( 'NONE', *, *, #334, .F. ) ;
#304 = B_SPLINE_CURVE_WITH_KNOTS ( 'NONE', 3,
 ( #382, #151, #328, #509, #335, #326, #241, #499 ),
 .UNSPECIFIED., .F., .F.,
 ( 4, 2, 2, 4 ),
 ( 0.01485345774306975203, 0.01548583974386941002, 0.01611822174466906801, 0.01738298574626838400 ),
 .UNSPECIFIED. ) ;
#305 = EDGE_CURVE ( 'NONE', #168, #66, #406, .T. ) ;
#306 = CARTESIAN_POINT ( 'NONE',  ( 0.000000000000000000, 0.000000000000000000, -37.05991914209798210 ) ) ;
#307 = ORIENTED_EDGE ( 'NONE', *, *, #305, .T. ) ;
#308 = DIRECTION ( 'NONE',  ( 1.224646799147353207E-16, -1.000000000000000000, 0.000000000000000000 ) ) ;
#309 = ORIENTED_EDGE ( 'NONE', *, *, #444, .T. ) ;
#310 = AXIS2_PLACEMENT_3D ( 'NONE', #306, #524, #261 ) ;
#311 = CARTESIAN_POINT ( 'NONE',  ( 1.268411506570323866, -1.587500000000000355, 37.05991914209798210 ) ) ;
#312 = ORIENTED_EDGE ( 'NONE', *, *, #250, .T. ) ;
#313 = DIRECTION ( 'NONE',  ( -1.000000000000000000, 0.000000000000000000, 0.000000000000000000 ) ) ;
#314 = ADVANCED_FACE ( 'NONE', ( #112 ), #283, .T. ) ;
#315 = B_SPLINE_CURVE_WITH_KNOTS ( 'NONE', 3,
 ( #282, #453, #236, #18, #22, #179 ),
 .UNSPECIFIED., .F., .F.,
 ( 4, 2, 4 ),
 ( 0.01485345774306975203, 0.01548163471194332307, 0.01610981168081689410 ),
 .UNSPECIFIED. ) ;
#316 = PRODUCT_RELATED_PRODUCT_CATEGORY ( 'detail', '', ( #264 ) ) ;
#317 = CARTESIAN_POINT ( 'NONE',  ( 1.587499999999999911, 1.268411506570324088, -37.05991914209798210 ) ) ;
#318 = CIRCLE ( 'NONE', #301, 2.032000000000000028 ) ;
#319 = CARTESIAN_POINT ( 'NONE',  ( -1.587500000000000355, -0.8513200635100126590, -37.14137755531811536 ) ) ;
#320 = DIRECTION ( 'NONE',  ( -1.000000000000000000, 0.000000000000000000, 0.000000000000000000 ) ) ;
#321 = ADVANCED_FACE ( 'NONE', ( #254 ), #429, .T. ) ;
#322 = CARTESIAN_POINT ( 'NONE',  ( 1.587500000000000355, 1.268411506570323866, 37.05991914209798210 ) ) ;
#323 = DIRECTION ( 'NONE',  ( 1.000000000000000000, 0.000000000000000000, 0.000000000000000000 ) ) ;
#324 = FACE_OUTER_BOUND ( 'NONE', #546, .T. ) ;
#325 = LINE ( 'NONE', #540, #154 ) ;
#326 = CARTESIAN_POINT ( 'NONE',  ( -0.4342314039556052774, 1.587500000000000355, -37.18285171744313544 ) ) ;
#327 = EDGE_CURVE ( 'NONE', #332, #384, #11, .T. ) ;
#328 = CARTESIAN_POINT ( 'NONE',  ( 0.8486262390323824345, 1.587500000000000355, -37.14176882282394843 ) ) ;
#329 = ORIENTED_EDGE ( 'NONE', *, *, #215, .F. ) ;
#330 = LINE ( 'NONE', #98, #542 ) ;
#331 = CYLINDRICAL_SURFACE ( 'NONE', #213, 2.032000000000000028 ) ;
#332 = VERTEX_POINT ( 'NONE', #298 ) ;
#333 = CALENDAR_DATE ( 2022, 6, 6 ) ;
#334 = EDGE_CURVE ( 'NONE', #390, #486, #101, .T. ) ;
#335 = CARTESIAN_POINT ( 'NONE',  ( 0.2043756380772888126, 1.587500000000000799, -37.18340961896380747 ) ) ;
#336 = VECTOR ( 'NONE', #561, 1000.000000000000000 ) ;
#337 = LOCAL_TIME ( 14, 2, 47.00000000000000000, #350 ) ;
#338 = DATE_TIME_ROLE ( 'creation_date' ) ;
#339 = EDGE_CURVE ( 'NONE', #390, #473, #439, .T. ) ;
#340 = PLANE ( 'NONE',  #84 ) ;
#341 = ORIENTED_EDGE ( 'NONE', *, *, #131, .T. ) ;
#342 = PERSON_AND_ORGANIZATION_ROLE ( 'creator' ) ;
#343 = CARTESIAN_POINT ( 'NONE',  ( -1.587500000000000133, 0.2143109880596213990, 37.18322736169287168 ) ) ;
#344 = PERSON_AND_ORGANIZATION_ROLE ( 'classification_officer' ) ;
#345 = DIRECTION ( 'NONE',  ( 0.000000000000000000, 0.000000000000000000, -1.000000000000000000 ) ) ;
#346 = ORIENTED_EDGE ( 'NONE', *, *, #514, .F. ) ;
#347 = CIRCLE ( 'NONE', #113, 2.032000000000000028 ) ;
#348 = LOCAL_TIME ( 14, 2, 47.00000000000000000, #424 ) ;
#349 = ADVANCED_FACE ( 'NONE', ( #201 ), #534, .T. ) ;
#350 = COORDINATED_UNIVERSAL_TIME_OFFSET ( 6, 0, .BEHIND. ) ;
#351 = CARTESIAN_POINT ( 'NONE',  ( -1.587500000000000355, -1.944126793646423534E-16, 37.18322736169287168 ) ) ;
#352 = ORIENTED_EDGE ( 'NONE', *, *, #537, .T. ) ;
#353 = CARTESIAN_POINT ( 'NONE',  ( 1.245064030267288402, 0.000000000000000000, -35.08600000000000563 ) ) ;
#354 = VERTEX_POINT ( 'NONE', #437 ) ;
#355 = B_SPLINE_CURVE_WITH_KNOTS ( 'NONE', 3,
 ( #139, #405, #137, #223, #487, #454 ),
 .UNSPECIFIED., .F., .F.,
 ( 4, 2, 4 ),
 ( 0.000000000000000000, 0.0006365870327257441884, 0.001273174065451488160 ),
 .UNSPECIFIED. ) ;
#356 = CARTESIAN_POINT ( 'NONE',  ( 1.245064030267288402, 0.000000000000000000, -37.21099999999999852 ) ) ;
#357 = VERTEX_POINT ( 'NONE', #485 ) ;
#358 = EDGE_CURVE ( 'NONE', #460, #399, #239, .T. ) ;
#359 = ORIENTED_EDGE ( 'NONE', *, *, #423, .F. ) ;
#360 = CARTESIAN_POINT ( 'NONE',  ( -1.587500000000000355, 0.4276219574846462090, -37.17699639200009187 ) ) ;
#361 = CARTESIAN_POINT ( 'NONE',  ( -1.587500000000000577, 0.8514389605504948388, -37.14136751577920137 ) ) ;
#362 = EDGE_CURVE ( 'NONE', #555, #194, #398, .T. ) ;
#363 = DIRECTION ( 'NONE',  ( 0.000000000000000000, 0.000000000000000000, -1.000000000000000000 ) ) ;
#364 = AXIS2_PLACEMENT_3D ( 'NONE', #558, #205, #442 ) ;
#365 = CARTESIAN_POINT ( 'NONE',  ( -1.268411506570323866, 1.587500000000000355, 37.05991914209798210 ) ) ;
#366 = DIRECTION ( 'NONE',  ( 0.000000000000000000, 0.000000000000000000, -1.000000000000000000 ) ) ;
#367 = CARTESIAN_POINT ( 'NONE',  ( -1.587500000000000355, -1.061392899157111325, -37.11143677385165773 ) ) ;
#368 = CARTESIAN_POINT ( 'NONE',  ( 0.000000000000000000, 0.000000000000000000, -35.08600000000000563 ) ) ;
#369 = ADVANCED_FACE ( 'NONE', ( #480 ), #217, .T. ) ;
#370 = CARTESIAN_POINT ( 'NONE',  ( 1.587500000000000355, -0.2114796877013871146, -37.18322736169286458 ) ) ;
#371 = ORGANIZATION ( 'UNSPECIFIED', 'UNSPECIFIED', '' ) ;
#372 = DIRECTION ( 'NONE',  ( 1.000000000000000000, 0.000000000000000000, 0.000000000000000000 ) ) ;
#373 = ADVANCED_FACE ( 'NONE', ( #85 ), #8, .F. ) ;
#374 = ORIENTED_EDGE ( 'NONE', *, *, #266, .F. ) ;
#375 = DIRECTION ( 'NONE',  ( 1.000000000000000000, 0.000000000000000000, 0.000000000000000000 ) ) ;
#376 = CARTESIAN_POINT ( 'NONE',  ( -1.268411506570324088, -1.587499999999999911, -37.21099999999999852 ) ) ;
#377 = EDGE_LOOP ( 'NONE', ( #152, #87, #329, #341 ) ) ;
#378 = FACE_OUTER_BOUND ( 'NONE', #9, .T. ) ;
#379 = ORIENTED_EDGE ( 'NONE', *, *, #250, .F. ) ;
#380 = PERSON_AND_ORGANIZATION_ROLE ( 'creator' ) ;
#381 = EDGE_CURVE ( 'NONE', #384, #357, #123, .T. ) ;
#382 = CARTESIAN_POINT ( 'NONE',  ( 1.268411506570324088, 1.587499999999999911, -37.05991914209798210 ) ) ;
#383 = AXIS2_PLACEMENT_3D ( 'NONE', #39, #78, #512 ) ;
#384 = VERTEX_POINT ( 'NONE', #392 ) ;
#385 = APPROVAL_STATUS ( 'not_yet_approved' ) ;
#386 = CARTESIAN_POINT ( 'NONE',  ( 0.000000000000000000, 0.000000000000000000, 37.05991914209798210 ) ) ;
#387 = EDGE_LOOP ( 'NONE', ( #291, #89, #416, #7, #359, #166, #346, #245 ) ) ;
#388 = CARTESIAN_POINT ( 'NONE',  ( 0.000000000000000000, 0.000000000000000000, 0.000000000000000000 ) ) ;
#389 = DIRECTION ( 'NONE',  ( 0.000000000000000000, -1.000000000000000000, 0.000000000000000000 ) ) ;
#390 = VERTEX_POINT ( 'NONE', #356 ) ;
#391 = SHAPE_DEFINITION_REPRESENTATION ( #111, #216 ) ;
#392 = CARTESIAN_POINT ( 'NONE',  ( -1.587500000000000355, -1.944126793646423534E-16, 37.18322736169287168 ) ) ;
#393 = VERTEX_POINT ( 'NONE', #519 ) ;
#394 = CIRCLE ( 'NONE', #143, 1.245064030267288402 ) ;
#395 = B_SPLINE_CURVE_WITH_KNOTS ( 'NONE', 3,
 ( #176, #181, #265, #319, #367, #225 ),
 .UNSPECIFIED., .F., .F.,
 ( 4, 2, 4 ),
 ( 1.905938025164284470E-19, 0.0006365870327257441884, 0.001273174065451488160 ),
 .UNSPECIFIED. ) ;
#396 = CARTESIAN_POINT ( 'NONE',  ( 0.2043756380772888126, -1.587500000000000799, 37.18340961896380747 ) ) ;
#397 = ORIENTED_EDGE ( 'NONE', *, *, #90, .T. ) ;
#398 = LINE ( 'NONE', #208, #336 ) ;
#399 = VERTEX_POINT ( 'NONE', #127 ) ;
#400 = EDGE_CURVE ( 'NONE', #119, #555, #551, .T. ) ;
#401 = ORIENTED_EDGE ( 'NONE', *, *, #290, .F. ) ;
#402 = CIRCLE ( 'NONE', #77, 2.032000000000000028 ) ;
#403 = AXIS2_PLACEMENT_3D ( 'NONE', #233, #366, #320 ) ;
#404 = PLANE ( 'NONE',  #472 ) ;
#405 = CARTESIAN_POINT ( 'NONE',  ( 1.587500000000000355, 0.2143109880596213712, -37.18322736169287168 ) ) ;
#406 = B_SPLINE_CURVE_WITH_KNOTS ( 'NONE', 3,
 ( #505, #456, #184, #289, #108, #65, #189, #27 ),
 .UNSPECIFIED., .F., .F.,
 ( 4, 2, 2, 4 ),
 ( 0.01485345774306975203, 0.01548583974386941002, 0.01611822174466906801, 0.01738298574626838400 ),
 .UNSPECIFIED. ) ;
#407 = CARTESIAN_POINT ( 'NONE',  ( 1.268411506570324088, -1.587499999999999911, -37.05991914209798210 ) ) ;
#408 = CARTESIAN_POINT ( 'NONE',  ( 0.000000000000000000, 0.000000000000000000, -37.05991914209798210 ) ) ;
#409 = AXIS2_PLACEMENT_3D ( 'NONE', #81, #308, #157 ) ;
#410 = AXIS2_PLACEMENT_3D ( 'NONE', #386, #363, #493 ) ;
#411 = CARTESIAN_POINT ( 'NONE',  ( 1.587500000000000355, 0.000000000000000000, 37.18322736169287168 ) ) ;
#412 = DIRECTION ( 'NONE',  ( -0.000000000000000000, -0.000000000000000000, 1.000000000000000000 ) ) ;
#413 = CARTESIAN_POINT ( 'NONE',  ( -0.4219230645619472253, 1.587500000000000133, 37.17730730355361857 ) ) ;
#414 = CARTESIAN_POINT ( 'NONE',  ( -1.245064030267288402, 2.006622987633880502E-16, -37.21099999999999852 ) ) ;
#415 = CARTESIAN_POINT ( 'NONE',  ( -1.268411506570324088, 1.587499999999999911, -37.21099999999999852 ) ) ;
#416 = ORIENTED_EDGE ( 'NONE', *, *, #557, .F. ) ;
#417 = CARTESIAN_POINT ( 'NONE',  ( 1.245064030267288402, 0.000000000000000000, 37.21099999999999852 ) ) ;
#418 = CARTESIAN_POINT ( 'NONE',  ( 1.587500000000000133, -1.061532360077857007, -37.11140206829359300 ) ) ;
#419 = ORIENTED_EDGE ( 'NONE', *, *, #529, .T. ) ;
#420 = DIRECTION ( 'NONE',  ( 1.000000000000000000, 0.000000000000000000, 0.000000000000000000 ) ) ;
#421 = PLANE ( 'NONE',  #172 ) ;
#422 = EDGE_LOOP ( 'NONE', ( #10, #438, #520, #186 ) ) ;
#423 = EDGE_CURVE ( 'NONE', #426, #544, #93, .T. ) ;
#424 = COORDINATED_UNIVERSAL_TIME_OFFSET ( 6, 0, .BEHIND. ) ;
#425 = DIRECTION ( 'NONE',  ( -0.000000000000000000, -0.000000000000000000, 1.000000000000000000 ) ) ;
#426 = VERTEX_POINT ( 'NONE', #522 ) ;
#427 = DATE_AND_TIME ( #515, #348 ) ;
#428 = CARTESIAN_POINT ( 'NONE',  ( 1.587500000000000355, -0.4276219574846462090, -37.17699639200009187 ) ) ;
#429 = TOROIDAL_SURFACE ( 'NONE', #364, 1.245064030267288402, 2.124999999999995115 ) ;
#430 = CIRCLE ( 'NONE', #54, 1.245064030267288402 ) ;
#431 = ORIENTED_EDGE ( 'NONE', *, *, #90, .F. ) ;
#432 = PERSON_AND_ORGANIZATION ( #293, #371 ) ;
#433 = CARTESIAN_POINT ( 'NONE',  ( 0.000000000000000000, 0.000000000000000000, -37.21099999999999852 ) ) ;
#434 = DIRECTION ( 'NONE',  ( -0.000000000000000000, -0.000000000000000000, 1.000000000000000000 ) ) ;
#435 = DATE_AND_TIME ( #292, #526 ) ;
#436 = DIRECTION ( 'NONE',  ( 1.000000000000000000, 0.000000000000000000, 0.000000000000000000 ) ) ;
#437 = CARTESIAN_POINT ( 'NONE',  ( -1.587500000000000355, 1.944126793646423534E-16, -37.18322736169287168 ) ) ;
#438 = ORIENTED_EDGE ( 'NONE', *, *, #495, .T. ) ;
#439 = CIRCLE ( 'NONE', #383, 1.245064030267288402 ) ;
#440 = EDGE_CURVE ( 'NONE', #466, #426, #59, .T. ) ;
#441 = UNCERTAINTY_MEASURE_WITH_UNIT (LENGTH_MEASURE( 1.000000000000000082E-05 ), #50, 'distance_accuracy_value', 'NONE');
#442 = DIRECTION ( 'NONE',  ( 1.000000000000000000, 0.000000000000000000, 0.000000000000000000 ) ) ;
#443 = ORIENTED_EDGE ( 'NONE', *, *, #5, .F. ) ;
#444 = EDGE_CURVE ( 'NONE', #66, #69, #541, .T. ) ;
#445 = DIRECTION ( 'NONE',  ( -0.000000000000000000, -0.000000000000000000, 1.000000000000000000 ) ) ;
#446 = ORIENTED_EDGE ( 'NONE', *, *, #296, .F. ) ;
#447 = CARTESIAN_POINT ( 'NONE',  ( -1.587499999999999911, 1.268411506570324088, -37.05991914209798210 ) ) ;
#448 = AXIS2_PLACEMENT_3D ( 'NONE', #388, #560, #420 ) ;
#449 = CARTESIAN_POINT ( 'NONE',  ( 0.000000000000000000, 0.000000000000000000, -37.05991914209798210 ) ) ;
#450 = FACE_OUTER_BOUND ( 'NONE', #46, .T. ) ;
#451 = CARTESIAN_POINT ( 'NONE',  ( -1.268411506570324088, -1.587500000000000355, 37.05991914209798210 ) ) ;
#452 = EDGE_CURVE ( 'NONE', #460, #332, #430, .T. ) ;
#453 = CARTESIAN_POINT ( 'NONE',  ( -1.587500000000000133, -1.061532360077857007, 37.11140206829359300 ) ) ;
#454 = CARTESIAN_POINT ( 'NONE',  ( 1.587499999999999911, 1.268411506570324088, -37.05991914209798210 ) ) ;
#455 = ADVANCED_FACE ( 'NONE', ( #272 ), #461, .T. ) ;
#456 = CARTESIAN_POINT ( 'NONE',  ( -1.060147506033618070, -1.587500000000000355, -37.11174669625518163 ) ) ;
#457 = ORIENTED_EDGE ( 'NONE', *, *, #495, .F. ) ;
#458 = LINE ( 'NONE', #20, #200 ) ;
#459 = LINE ( 'NONE', #376, #210 ) ;
#460 = VERTEX_POINT ( 'NONE', #417 ) ;
#461 = TOROIDAL_SURFACE ( 'NONE', #222, 1.245064030267288402, 2.124999999999995115 ) ;
#462 = CARTESIAN_POINT ( 'NONE',  ( 0.000000000000000000, 0.000000000000000000, -37.21099999999999852 ) ) ;
#463 = VECTOR ( 'NONE', #149, 1000.000000000000000 ) ;
#464 = ORIENTED_EDGE ( 'NONE', *, *, #64, .F. ) ;
#465 = CARTESIAN_POINT ( 'NONE',  ( -1.268411506570324088, 1.587499999999999911, -37.05991914209798210 ) ) ;
#466 = VERTEX_POINT ( 'NONE', #538 ) ;
#467 = PERSON_AND_ORGANIZATION_ROLE ( 'design_supplier' ) ;
#468 = CARTESIAN_POINT ( 'NONE',  ( 0.000000000000000000, 0.000000000000000000, 35.08600000000000563 ) ) ;
#469 = EDGE_LOOP ( 'NONE', ( #4, #219, #464, #443, #446, #190, #173, #303 ) ) ;
#470 = EDGE_CURVE ( 'NONE', #544, #79, #25, .T. ) ;
#471 = CARTESIAN_POINT ( 'NONE',  ( 1.245064030267288402, 0.000000000000000000, 35.08600000000000563 ) ) ;
#472 = AXIS2_PLACEMENT_3D ( 'NONE', #234, #535, #528 ) ;
#473 = VERTEX_POINT ( 'NONE', #414 ) ;
#474 = EDGE_CURVE ( 'NONE', #69, #466, #330, .T. ) ;
#475 = CARTESIAN_POINT ( 'NONE',  ( 0.8486262390323824345, -1.587500000000000355, 37.14176882282394843 ) ) ;
#476 = CARTESIAN_POINT ( 'NONE',  ( 0.000000000000000000, 0.000000000000000000, -37.05991914209798210 ) ) ;
#477 = CARTESIAN_POINT ( 'NONE',  ( -0.4342314039556052774, -1.587500000000000355, 37.18285171744313544 ) ) ;
#478 = ORIENTED_EDGE ( 'NONE', *, *, #169, .T. ) ;
#479 = B_SPLINE_CURVE_WITH_KNOTS ( 'NONE', 3,
 ( #115, #418, #279, #428, #370, #146 ),
 .UNSPECIFIED., .F., .F.,
 ( 4, 2, 4 ),
 ( 0.01485345774306975203, 0.01548163471194332307, 0.01610981168081689410 ),
 .UNSPECIFIED. ) ;
#480 = FACE_OUTER_BOUND ( 'NONE', #422, .T. ) ;
#481 = PRODUCT_DEFINITION ( 'UNKNOWN', '', #504, #191 ) ;
#482 = ORIENTED_EDGE ( 'NONE', *, *, #452, .F. ) ;
#483 = AXIS2_PLACEMENT_3D ( 'NONE', #160, #345, #44 ) ;
#484 = AXIS2_PLACEMENT_3D ( 'NONE', #144, #228, #375 ) ;
#485 = CARTESIAN_POINT ( 'NONE',  ( -1.587500000000000355, 1.268411506570324088, 37.05991914209798210 ) ) ;
#486 = VERTEX_POINT ( 'NONE', #57 ) ;
#487 = CARTESIAN_POINT ( 'NONE',  ( 1.587500000000000355, 1.061392899157110881, -37.11143677385165063 ) ) ;
#488 = CARTESIAN_POINT ( 'NONE',  ( 0.000000000000000000, 0.000000000000000000, 37.05991914209798210 ) ) ;
#489 = CIRCLE ( 'NONE', #198, 2.032000000000000028 ) ;
#490 = CARTESIAN_POINT ( 'NONE',  ( -1.587499999999999911, 1.268411506570324088, -37.05991914209798210 ) ) ;
#491 = CARTESIAN_POINT ( 'NONE',  ( 1.587500000000000577, -0.4277385810629841800, 37.17698654358312638 ) ) ;
#492 = CARTESIAN_POINT ( 'NONE',  ( -1.587500000000000355, -1.268411506570323866, 37.05991914209798210 ) ) ;
#493 = DIRECTION ( 'NONE',  ( -1.000000000000000000, 0.000000000000000000, 0.000000000000000000 ) ) ;
#494 = CARTESIAN_POINT ( 'NONE',  ( -1.060147506033618070, 1.587500000000000355, 37.11174669625518163 ) ) ;
#495 = EDGE_CURVE ( 'NONE', #75, #357, #458, .T. ) ;
#496 = CARTESIAN_POINT ( 'NONE',  ( 1.268411506570324088, 1.587499999999999911, -37.05991914209798210 ) ) ;
#497 = AXIS2_PLACEMENT_3D ( 'NONE', #53, #99, #133 ) ;
#498 = DIRECTION ( 'NONE',  ( 1.000000000000000000, 0.000000000000000000, 0.000000000000000000 ) ) ;
#499 = CARTESIAN_POINT ( 'NONE',  ( -1.268411506570324088, 1.587499999999999911, -37.05991914209798210 ) ) ;
#500 = ORIENTED_EDGE ( 'NONE', *, *, #381, .F. ) ;
#501 = CARTESIAN_POINT ( 'NONE',  ( 0.000000000000000000, 0.000000000000000000, 37.05991914209798210 ) ) ;
#502 = DIRECTION ( 'NONE',  ( 1.000000000000000000, 0.000000000000000000, 0.000000000000000000 ) ) ;
#503 = DATE_AND_TIME ( #73, #36 ) ;
#504 = PRODUCT_DEFINITION_FORMATION_WITH_SPECIFIED_SOURCE ( 'ANY', '', #264, .NOT_KNOWN. ) ;
#505 = CARTESIAN_POINT ( 'NONE',  ( -1.268411506570324088, -1.587499999999999911, -37.05991914209798210 ) ) ;
#506 = AXIS2_PLACEMENT_3D ( 'NONE', #92, #230, #178 ) ;
#507 = ORIENTED_EDGE ( 'NONE', *, *, #169, .F. ) ;
#508 = COORDINATED_UNIVERSAL_TIME_OFFSET ( 6, 0, .BEHIND. ) ;
#509 = CARTESIAN_POINT ( 'NONE',  ( 0.4219230645619472253, 1.587500000000000133, -37.17730730355361857 ) ) ;
#510 = APPLICATION_CONTEXT ( 'configuration controlled 3d designs of mechanical parts and assemblies' ) ;
#511 = ORIENTED_EDGE ( 'NONE', *, *, #470, .T. ) ;
#512 = DIRECTION ( 'NONE',  ( 1.000000000000000000, 0.000000000000000000, 0.000000000000000000 ) ) ;
#513 = ORIENTED_EDGE ( 'NONE', *, *, #400, .T. ) ;
#514 = EDGE_CURVE ( 'NONE', #399, #466, #224, .T. ) ;
#515 = CALENDAR_DATE ( 2022, 6, 6 ) ;
#516 = CARTESIAN_POINT ( 'NONE',  ( -1.587500000000000355, 0.8513200635100126590, 37.14137755531811536 ) ) ;
#517 = SECURITY_CLASSIFICATION ( '', '', #243 ) ;
#518 = ORIENTED_EDGE ( 'NONE', *, *, #80, .T. ) ;
#519 = CARTESIAN_POINT ( 'NONE',  ( -1.268411506570323866, 1.587500000000000355, 37.05991914209798210 ) ) ;
#520 = ORIENTED_EDGE ( 'NONE', *, *, #162, .T. ) ;
#521 = EDGE_CURVE ( 'NONE', #194, #156, #318, .T. ) ;
#522 = CARTESIAN_POINT ( 'NONE',  ( 1.268411506570323866, -1.587500000000000355, 37.05991914209798210 ) ) ;
#523 = ORIENTED_EDGE ( 'NONE', *, *, #444, .F. ) ;
#524 = DIRECTION ( 'NONE',  ( -0.000000000000000000, -0.000000000000000000, 1.000000000000000000 ) ) ;
#525 = ORIENTED_EDGE ( 'NONE', *, *, #423, .T. ) ;
#526 = LOCAL_TIME ( 14, 2, 47.00000000000000000, #508 ) ;
#527 = B_SPLINE_CURVE_WITH_KNOTS ( 'NONE', 3,
 ( #490, #19, #361, #360, #55, #268 ),
 .UNSPECIFIED., .F., .F.,
 ( 4, 2, 4 ),
 ( 0.01485345774306975203, 0.01548163471194332307, 0.01610981168081689410 ),
 .UNSPECIFIED. ) ;
#528 = DIRECTION ( 'NONE',  ( 0.000000000000000000, -0.000000000000000000, -1.000000000000000000 ) ) ;
#529 = EDGE_CURVE ( 'NONE', #426, #66, #325, .T. ) ;
#530 = FACE_OUTER_BOUND ( 'NONE', #377, .T. ) ;
#531 = DIRECTION ( 'NONE',  ( 1.000000000000000000, 0.000000000000000000, 0.000000000000000000 ) ) ;
#532 = APPROVAL_PERSON_ORGANIZATION ( #547, #142, #76 ) ;
#533 = CARTESIAN_POINT ( 'NONE',  ( 0.000000000000000000, 0.000000000000000000, 37.21099999999999852 ) ) ;
#534 = TOROIDAL_SURFACE ( 'NONE', #287, 1.245064030267288402, 2.124999999999995115 ) ;
#535 = DIRECTION ( 'NONE',  ( 0.000000000000000000, -1.000000000000000000, 0.000000000000000000 ) ) ;
#536 = CARTESIAN_POINT ( 'NONE',  ( 1.587500000000000355, -1.061392899157110881, 37.11143677385165063 ) ) ;
#537 = EDGE_CURVE ( 'NONE', #332, #460, #67, .T. ) ;
#538 = CARTESIAN_POINT ( 'NONE',  ( 1.587500000000000355, -1.268411506570324088, 37.05991914209798210 ) ) ;
#539 = CARTESIAN_POINT ( 'NONE',  ( 1.587499999999999911, 1.268411506570324088, -37.21099999999999852 ) ) ;
#540 = CARTESIAN_POINT ( 'NONE',  ( 1.268411506570324088, -1.587499999999999911, -37.21099999999999852 ) ) ;
#541 = CIRCLE ( 'NONE', #275, 2.032000000000000028 ) ;
#542 = VECTOR ( 'NONE', #545, 1000.000000000000000 ) ;
#543 = DIRECTION ( 'NONE',  ( 0.000000000000000000, 0.000000000000000000, -1.000000000000000000 ) ) ;
#544 = VERTEX_POINT ( 'NONE', #451 ) ;
#545 = DIRECTION ( 'NONE',  ( -0.000000000000000000, -0.000000000000000000, 1.000000000000000000 ) ) ;
#546 = EDGE_LOOP ( 'NONE', ( #513, #202, #171, #109 ) ) ;
#547 = PERSON_AND_ORGANIZATION ( #293, #371 ) ;
#548 = DIRECTION ( 'NONE',  ( 1.000000000000000000, 0.000000000000000000, 0.000000000000000000 ) ) ;
#549 = EDGE_LOOP ( 'NONE', ( #161, #352 ) ) ;
#550 = DATE_AND_TIME ( #163, #337 ) ;
#551 = CIRCLE ( 'NONE', #310, 2.032000000000000028 ) ;
#552 = CC_DESIGN_APPROVAL ( #193, ( #517 ) ) ;
#553 = CARTESIAN_POINT ( 'NONE',  ( -1.587500000000000355, 1.587500000000000355, -37.21099999999999852 ) ) ;
#554 = B_SPLINE_CURVE_WITH_KNOTS ( 'NONE', 3,
 ( #365, #494, #100, #413, #183, #21, #136, #270 ),
 .UNSPECIFIED., .F., .F.,
 ( 4, 2, 2, 4 ),
 ( 0.01485345774306975203, 0.01548583974386941002, 0.01611822174466906801, 0.01738298574626838400 ),
 .UNSPECIFIED. ) ;
#555 = VERTEX_POINT ( 'NONE', #496 ) ;
#556 = MECHANICAL_CONTEXT ( 'NONE', #510, 'mechanical' ) ;
#557 = EDGE_CURVE ( 'NONE', #79, #384, #315, .T. ) ;
#558 = CARTESIAN_POINT ( 'NONE',  ( 0.000000000000000000, 0.000000000000000000, 35.08600000000000563 ) ) ;
#559 = ORIENTED_EDGE ( 'NONE', *, *, #180, .T. ) ;
#560 = DIRECTION ( 'NONE',  ( 0.000000000000000000, 0.000000000000000000, 1.000000000000000000 ) ) ;
#561 = DIRECTION ( 'NONE',  ( -0.000000000000000000, -0.000000000000000000, 1.000000000000000000 ) ) ;
ENDSEC;
END-ISO-10303-21;
