ISO-10303-21;
HEADER;
FILE_DESCRIPTION (( 'STEP AP203' ),
    '1' );
FILE_NAME ('228-2500-123.step',
    '2022-06-06T19:03:02',
    ( '' ),
    ( '' ),
    'SwSTEP 2.0',
    'SolidWorks 2021',
    '' );
FILE_SCHEMA (( 'CONFIG_CONTROL_DESIGN' ));
ENDSEC;

DATA;
#1 = PERSON ( 'UNSPECIFIED', 'UNSPECIFIED', 'UNSPECIFIED', ('UNSPECIFIED'), ('UNSPECIFIED'), ('UNSPECIFIED') ) ;
#2 = ORIENTED_EDGE ( 'NONE', *, *, #403, .T. ) ;
#3 = CARTESIAN_POINT ( 'NONE',  ( -1.268411506570324088, -1.587500000000000355, 43.40991914209798352 ) ) ;
#4 = CC_DESIGN_DATE_AND_TIME_ASSIGNMENT ( #350, #95, ( #259 ) ) ;
#5 = CARTESIAN_POINT ( 'NONE',  ( 1.587500000000000577, -0.8514389605504935066, -43.49136751577921700 ) ) ;
#6 = PRODUCT_DEFINITION_FORMATION_WITH_SPECIFIED_SOURCE ( 'ANY', '', #462, .NOT_KNOWN. ) ;
#7 = ORIENTED_EDGE ( 'NONE', *, *, #80, .T. ) ;
#8 = CARTESIAN_POINT ( 'NONE',  ( 1.587500000000000355, 0.000000000000000000, 43.53322736169287310 ) ) ;
#9 = VERTEX_POINT ( 'NONE', #332 ) ;
#10 = APPLICATION_CONTEXT ( 'configuration controlled 3d designs of mechanical parts and assemblies' ) ;
#11 = DIRECTION ( 'NONE',  ( -1.000000000000000000, 0.000000000000000000, 0.000000000000000000 ) ) ;
#12 = ORIENTED_EDGE ( 'NONE', *, *, #143, .T. ) ;
#13 = APPROVAL_DATE_TIME ( #101, #52 ) ;
#14 = ORIENTED_EDGE ( 'NONE', *, *, #330, .T. ) ;
#15 = AXIS2_PLACEMENT_3D ( 'NONE', #250, #496, #329 ) ;
#16 = AXIS2_PLACEMENT_3D ( 'NONE', #423, #372, #197 ) ;
#17 = CARTESIAN_POINT ( 'NONE',  ( 0.8486262390323799920, -1.587500000000000799, 43.49176882282395695 ) ) ;
#18 = CARTESIAN_POINT ( 'NONE',  ( 1.268411506570323866, -1.587500000000000355, 43.40991914209798352 ) ) ;
#19 = CARTESIAN_POINT ( 'NONE',  ( -0.2043756380772883685, -1.587500000000000799, -43.53340961896380179 ) ) ;
#20 = CARTESIAN_POINT ( 'NONE',  ( 1.587500000000000355, -1.268411506570323866, -43.40991914209798352 ) ) ;
#21 = DIRECTION ( 'NONE',  ( -0.000000000000000000, 1.000000000000000000, 0.000000000000000000 ) ) ;
#22 = CARTESIAN_POINT ( 'NONE',  ( 1.587500000000000355, 0.8513200635100126590, -43.49137755531811678 ) ) ;
#23 = EDGE_CURVE ( 'NONE', #370, #488, #230, .T. ) ;
#24 = PRODUCT_DEFINITION_SHAPE ( 'NONE', 'NONE',  #259 ) ;
#25 = CARTESIAN_POINT ( 'NONE',  ( -1.587500000000000355, 0.8513200635100126590, 43.49137755531811678 ) ) ;
#26 = ORIENTED_EDGE ( 'NONE', *, *, #143, .F. ) ;
#27 = FACE_OUTER_BOUND ( 'NONE', #226, .T. ) ;
#28 = CARTESIAN_POINT ( 'NONE',  ( 1.268411506570323866, 1.587500000000000355, -43.56099999999999994 ) ) ;
#29 = CARTESIAN_POINT ( 'NONE',  ( 1.587500000000000355, 1.268411506570323866, 43.40991914209798352 ) ) ;
#30 = CIRCLE ( 'NONE', #361, 2.032000000000000028 ) ;
#31 = CC_DESIGN_APPROVAL ( #52, ( #369 ) ) ;
#32 = ADVANCED_FACE ( 'NONE', ( #325 ), #110, .F. ) ;
#33 = CARTESIAN_POINT ( 'NONE',  ( -1.587500000000000577, 0.8514389605504935066, -43.49136751577921700 ) ) ;
#34 = CALENDAR_DATE ( 2022, 6, 6 ) ;
#35 = B_SPLINE_CURVE_WITH_KNOTS ( 'NONE', 3,
 ( #249, #74, #418, #156, #546, #114, #167, #251 ),
 .UNSPECIFIED., .F., .F.,
 ( 4, 2, 2, 4 ),
 ( 0.01485345774306975376, 0.01548583974386941002, 0.01611822174466906801, 0.01738298574626838053 ),
 .UNSPECIFIED. ) ;
#36 = ADVANCED_FACE ( 'NONE', ( #455 ), #239, .F. ) ;
#37 = CARTESIAN_POINT ( 'NONE',  ( 0.000000000000000000, 0.000000000000000000, -43.40991914209798352 ) ) ;
#38 = ORIENTED_EDGE ( 'NONE', *, *, #48, .F. ) ;
#39 = DATE_TIME_ROLE ( 'classification_date' ) ;
#40 = DIRECTION ( 'NONE',  ( -0.000000000000000000, -0.000000000000000000, 1.000000000000000000 ) ) ;
#41 = ORIENTED_EDGE ( 'NONE', *, *, #338, .F. ) ;
#42 = CIRCLE ( 'NONE', #297, 2.032000000000000028 ) ;
#43 = DIRECTION ( 'NONE',  ( -0.000000000000000000, -0.000000000000000000, 1.000000000000000000 ) ) ;
#44 = B_SPLINE_CURVE_WITH_KNOTS ( 'NONE', 3,
 ( #450, #67, #202, #25, #208, #159 ),
 .UNSPECIFIED., .F., .F.,
 ( 4, 2, 4 ),
 ( 1.905938025164284470E-19, 0.0006365870327257441884, 0.001273174065451488160 ),
 .UNSPECIFIED. ) ;
#45 = PERSON_AND_ORGANIZATION_ROLE ( 'design_owner' ) ;
#46 = CARTESIAN_POINT ( 'NONE',  ( -1.268411506570323866, 1.587500000000000355, 43.40991914209798352 ) ) ;
#47 = VERTEX_POINT ( 'NONE', #537 ) ;
#48 = EDGE_CURVE ( 'NONE', #551, #304, #56, .T. ) ;
#49 = CALENDAR_DATE ( 2022, 6, 6 ) ;
#50 = CARTESIAN_POINT ( 'NONE',  ( 0.000000000000000000, 0.000000000000000000, 43.40991914209798352 ) ) ;
#51 = ORIENTED_EDGE ( 'NONE', *, *, #58, .T. ) ;
#52 = APPROVAL ( #557, 'UNSPECIFIED' ) ;
#53 = DIRECTION ( 'NONE',  ( 0.000000000000000000, 0.000000000000000000, -1.000000000000000000 ) ) ;
#54 = CIRCLE ( 'NONE', #63, 2.032000000000000028 ) ;
#55 = ORIENTED_EDGE ( 'NONE', *, *, #65, .T. ) ;
#56 = CIRCLE ( 'NONE', #15, 2.032000000000000028 ) ;
#57 = DIRECTION ( 'NONE',  ( -0.000000000000000000, -0.000000000000000000, 1.000000000000000000 ) ) ;
#58 = EDGE_CURVE ( 'NONE', #9, #551, #244, .T. ) ;
#59 = ORIENTED_EDGE ( 'NONE', *, *, #279, .F. ) ;
#60 = CARTESIAN_POINT ( 'NONE',  ( 0.000000000000000000, 0.000000000000000000, 41.43600000000000705 ) ) ;
#61 = ORIENTED_EDGE ( 'NONE', *, *, #502, .F. ) ;
#62 = CARTESIAN_POINT ( 'NONE',  ( -1.268411506570323866, -1.587500000000000355, -43.56099999999999994 ) ) ;
#63 = AXIS2_PLACEMENT_3D ( 'NONE', #89, #43, #291 ) ;
#64 = CARTESIAN_POINT ( 'NONE',  ( 0.000000000000000000, 0.000000000000000000, 43.56099999999999994 ) ) ;
#65 = EDGE_CURVE ( 'NONE', #231, #9, #127, .T. ) ;
#66 = DIRECTION ( 'NONE',  ( -1.000000000000000000, 0.000000000000000000, 0.000000000000000000 ) ) ;
#67 = CARTESIAN_POINT ( 'NONE',  ( -1.587500000000000133, 0.2143109880596213990, 43.53322736169287310 ) ) ;
#68 = DIRECTION ( 'NONE',  ( 0.000000000000000000, 1.000000000000000000, 0.000000000000000000 ) ) ;
#69 = AXIS2_PLACEMENT_3D ( 'NONE', #512, #306, #175 ) ;
#70 = APPROVAL_PERSON_ORGANIZATION ( #170, #112, #356 ) ;
#71 = DIRECTION ( 'NONE',  ( 1.000000000000000000, 0.000000000000000000, 0.000000000000000000 ) ) ;
#72 = EDGE_CURVE ( 'NONE', #528, #139, #464, .T. ) ;
#73 = DIRECTION ( 'NONE',  ( 1.000000000000000000, 0.000000000000000000, 0.000000000000000000 ) ) ;
#74 = CARTESIAN_POINT ( 'NONE',  ( 1.060147506033616072, 1.587500000000000355, -43.46174669625518305 ) ) ;
#75 = CARTESIAN_POINT ( 'NONE',  ( 1.245064030267288402, 0.000000000000000000, -41.43600000000000705 ) ) ;
#76 = ORIENTED_EDGE ( 'NONE', *, *, #23, .F. ) ;
#77 = DIRECTION ( 'NONE',  ( -1.000000000000000000, 0.000000000000000000, 0.000000000000000000 ) ) ;
#78 = DIRECTION ( 'NONE',  ( 1.000000000000000000, 0.000000000000000000, 0.000000000000000000 ) ) ;
#79 = EDGE_LOOP ( 'NONE', ( #373, #184, #261, #14 ) ) ;
#80 = EDGE_CURVE ( 'NONE', #304, #100, #155, .T. ) ;
#81 = CALENDAR_DATE ( 2022, 6, 6 ) ;
#82 = CIRCLE ( 'NONE', #470, 1.245064030267288402 ) ;
#83 = APPROVAL_PERSON_ORGANIZATION ( #217, #52, #396 ) ;
#84 = CARTESIAN_POINT ( 'NONE',  ( -1.587500000000000133, 1.061532360077855230, -43.46140206829358021 ) ) ;
#85 = ORIENTED_EDGE ( 'NONE', *, *, #475, .F. ) ;
#86 = CALENDAR_DATE ( 2022, 6, 6 ) ;
#87 = CARTESIAN_POINT ( 'NONE',  ( 0.000000000000000000, 0.000000000000000000, -43.56099999999999994 ) ) ;
#88 = VERTEX_POINT ( 'NONE', #20 ) ;
#89 = CARTESIAN_POINT ( 'NONE',  ( 0.000000000000000000, 0.000000000000000000, -43.40991914209798352 ) ) ;
#90 = EDGE_CURVE ( 'NONE', #370, #100, #360, .T. ) ;
#91 = ORIENTED_EDGE ( 'NONE', *, *, #543, .F. ) ;
#92 = CARTESIAN_POINT ( 'NONE',  ( -1.587500000000000355, 1.944126793646423534E-16, -43.53322736169287310 ) ) ;
#93 = EDGE_CURVE ( 'NONE', #130, #551, #268, .T. ) ;
#94 = ORIENTED_EDGE ( 'NONE', *, *, #453, .F. ) ;
#95 = DATE_TIME_ROLE ( 'creation_date' ) ;
#96 = DIRECTION ( 'NONE',  ( -0.000000000000000000, -0.000000000000000000, 1.000000000000000000 ) ) ;
#97 = ORIENTED_EDGE ( 'NONE', *, *, #502, .T. ) ;
#98 = CALENDAR_DATE ( 2022, 6, 6 ) ;
#99 = CARTESIAN_POINT ( 'NONE',  ( 0.000000000000000000, 0.000000000000000000, -43.56099999999999994 ) ) ;
#100 = VERTEX_POINT ( 'NONE', #113 ) ;
#101 = DATE_AND_TIME ( #98, #238 ) ;
#102 = EDGE_CURVE ( 'NONE', #257, #307, #454, .T. ) ;
#103 = DIRECTION ( 'NONE',  ( 0.000000000000000000, 0.000000000000000000, -1.000000000000000000 ) ) ;
#104 = CIRCLE ( 'NONE', #218, 1.245064030267288402 ) ;
#105 = EDGE_LOOP ( 'NONE', ( #191, #137, #280, #504 ) ) ;
#106 = DIRECTION ( 'NONE',  ( 0.000000000000000000, 0.000000000000000000, -1.000000000000000000 ) ) ;
#107 = ORIENTED_EDGE ( 'NONE', *, *, #458, .T. ) ;
#108 = EDGE_LOOP ( 'NONE', ( #525, #26 ) ) ;
#109 = B_SPLINE_CURVE_WITH_KNOTS ( 'NONE', 3,
 ( #8, #225, #407, #515, #229, #222 ),
 .UNSPECIFIED., .F., .F.,
 ( 4, 2, 4 ),
 ( 0.000000000000000000, 0.0006365870327257441884, 0.001273174065451488160 ),
 .UNSPECIFIED. ) ;
#110 = PLANE ( 'NONE',  #300 ) ;
#111 = AXIS2_PLACEMENT_3D ( 'NONE', #315, #103, #439 ) ;
#112 = APPROVAL ( #511, 'UNSPECIFIED' ) ;
#113 = CARTESIAN_POINT ( 'NONE',  ( -1.587500000000000355, -1.944126793646423534E-16, 43.53322736169287310 ) ) ;
#114 = CARTESIAN_POINT ( 'NONE',  ( -0.4342314039556042782, 1.587500000000000355, -43.53285171744313686 ) ) ;
#115 = CARTESIAN_POINT ( 'NONE',  ( -1.587500000000000355, -1.268411506570323866, 43.40991914209798352 ) ) ;
#116 = DIRECTION ( 'NONE',  ( 0.000000000000000000, 0.000000000000000000, -1.000000000000000000 ) ) ;
#117 = CARTESIAN_POINT ( 'NONE',  ( 0.000000000000000000, 0.000000000000000000, -43.40991914209798352 ) ) ;
#118 = CARTESIAN_POINT ( 'NONE',  ( -0.8486262390323815463, -1.587500000000000355, -43.49176882282394985 ) ) ;
#119 = CARTESIAN_POINT ( 'NONE',  ( -1.587500000000000355, -1.268411506570323866, -43.40991914209798352 ) ) ;
#120 = CARTESIAN_POINT ( 'NONE',  ( -1.587500000000000355, -1.587500000000000355, 43.56099999999999994 ) ) ;
#121 = DIRECTION ( 'NONE',  ( 0.000000000000000000, 0.000000000000000000, -1.000000000000000000 ) ) ;
#122 = ORIENTED_EDGE ( 'NONE', *, *, #334, .F. ) ;
#123 = DIRECTION ( 'NONE',  ( 0.000000000000000000, 0.000000000000000000, -1.000000000000000000 ) ) ;
#124 = FACE_OUTER_BOUND ( 'NONE', #223, .T. ) ;
#125 = PERSON_AND_ORGANIZATION ( #1, #480 ) ;
#126 = AXIS2_PLACEMENT_3D ( 'NONE', #120, #497, #116 ) ;
#127 = CIRCLE ( 'NONE', #199, 2.032000000000000028 ) ;
#128 = B_SPLINE_CURVE_WITH_KNOTS ( 'NONE', 3,
 ( #219, #478, #5, #182, #363, #521 ),
 .UNSPECIFIED., .F., .F.,
 ( 4, 2, 4 ),
 ( 0.01485345774306975376, 0.01548163471194332480, 0.01610981168081689410 ),
 .UNSPECIFIED. ) ;
#129 = FACE_OUTER_BOUND ( 'NONE', #401, .T. ) ;
#130 = VERTEX_POINT ( 'NONE', #549 ) ;
#131 = CARTESIAN_POINT ( 'NONE',  ( -1.587500000000000355, -1.061392899157111325, -43.46143677385166626 ) ) ;
#132 = EDGE_CURVE ( 'NONE', #149, #47, #42, .T. ) ;
#133 = DIRECTION ( 'NONE',  ( 1.000000000000000000, 0.000000000000000000, 0.000000000000000000 ) ) ;
#134 = APPROVAL_STATUS ( 'not_yet_approved' ) ;
#135 = CC_DESIGN_PERSON_AND_ORGANIZATION_ASSIGNMENT ( #224, #508, ( #6 ) ) ;
#136 = CARTESIAN_POINT ( 'NONE',  ( 1.587500000000000355, -1.268411506570324088, 43.40991914209798352 ) ) ;
#137 = ORIENTED_EDGE ( 'NONE', *, *, #526, .T. ) ;
#138 = CARTESIAN_POINT ( 'NONE',  ( -1.587500000000000355, -1.268411506570323866, 43.40991914209798352 ) ) ;
#139 = VERTEX_POINT ( 'NONE', #466 ) ;
#140 = APPLICATION_PROTOCOL_DEFINITION ( 'international standard', 'config_control_design', 1994, #10 ) ;
#141 = CARTESIAN_POINT ( 'NONE',  ( -1.245064030267288402, -2.006622987633880502E-16, 43.56099999999999994 ) ) ;
#142 = VERTEX_POINT ( 'NONE', #547 ) ;
#143 = EDGE_CURVE ( 'NONE', #516, #186, #248, .T. ) ;
#144 = CARTESIAN_POINT ( 'NONE',  ( 0.000000000000000000, 0.000000000000000000, -41.43600000000000705 ) ) ;
#145 = ORIENTED_EDGE ( 'NONE', *, *, #102, .T. ) ;
#146 = FACE_OUTER_BOUND ( 'NONE', #387, .T. ) ;
#147 = AXIS2_PLACEMENT_3D ( 'NONE', #503, #121, #404 ) ;
#148 = LOCAL_TIME ( 14, 3, 2.000000000000000000, #302 ) ;
#149 = VERTEX_POINT ( 'NONE', #383 ) ;
#150 = VERTEX_POINT ( 'NONE', #296 ) ;
#151 = EDGE_CURVE ( 'NONE', #47, #352, #371, .T. ) ;
#152 = ORIENTED_EDGE ( 'NONE', *, *, #348, .F. ) ;
#153 = DIRECTION ( 'NONE',  ( -0.000000000000000000, -0.000000000000000000, 1.000000000000000000 ) ) ;
#154 = AXIS2_PLACEMENT_3D ( 'NONE', #258, #212, #432 ) ;
#155 = B_SPLINE_CURVE_WITH_KNOTS ( 'NONE', 3,
 ( #115, #417, #489, #413, #530, #380 ),
 .UNSPECIFIED., .F., .F.,
 ( 4, 2, 4 ),
 ( 0.01485345774306975376, 0.01548163471194332480, 0.01610981168081689410 ),
 .UNSPECIFIED. ) ;
#156 = CARTESIAN_POINT ( 'NONE',  ( 0.4219230645619471698, 1.587500000000000133, -43.52730730355361999 ) ) ;
#157 = CARTESIAN_POINT ( 'NONE',  ( -1.587500000000000355, 1.587500000000000355, 43.56099999999999994 ) ) ;
#158 = APPROVAL ( #134, 'UNSPECIFIED' ) ;
#159 = CARTESIAN_POINT ( 'NONE',  ( -1.587500000000000355, 1.268411506570324088, 43.40991914209798352 ) ) ;
#160 = CARTESIAN_POINT ( 'NONE',  ( 1.060147506033615628, -1.587500000000000577, 43.46174669625518305 ) ) ;
#161 = CARTESIAN_POINT ( 'NONE',  ( -1.587500000000000355, 1.944126793646423534E-16, -43.53322736169287310 ) ) ;
#162 = CARTESIAN_POINT ( 'NONE',  ( -1.587500000000000355, 0.2114796877013868093, -43.53322736169287310 ) ) ;
#163 = TOROIDAL_SURFACE ( 'NONE', #428, 1.245064030267288402, 2.124999999999995115 ) ;
#164 = CARTESIAN_POINT ( 'NONE',  ( -0.4219230645619471698, -1.587500000000000133, -43.52730730355361999 ) ) ;
#165 = CARTESIAN_POINT ( 'NONE',  ( 0.000000000000000000, 0.000000000000000000, -43.56099999999999994 ) ) ;
#166 = ORIENTED_EDGE ( 'NONE', *, *, #183, .T. ) ;
#167 = CARTESIAN_POINT ( 'NONE',  ( -0.8571092511719562435, 1.587500000000000799, -43.51227379706277532 ) ) ;
#168 = ADVANCED_FACE ( 'NONE', ( #169 ), #303, .T. ) ;
#169 = FACE_OUTER_BOUND ( 'NONE', #314, .T. ) ;
#170 = PERSON_AND_ORGANIZATION ( #1, #480 ) ;
#171 = CARTESIAN_POINT ( 'NONE',  ( 0.000000000000000000, 0.000000000000000000, -41.43600000000000705 ) ) ;
#172 = CC_DESIGN_DATE_AND_TIME_ASSIGNMENT ( #438, #39, ( #369 ) ) ;
#173 = ORIENTED_EDGE ( 'NONE', *, *, #90, .T. ) ;
#174 = CIRCLE ( 'NONE', #529, 2.124999999999995115 ) ;
#175 = DIRECTION ( 'NONE',  ( 1.000000000000000000, 0.000000000000000000, 0.000000000000000000 ) ) ;
#176 = SECURITY_CLASSIFICATION_LEVEL ( 'unclassified' ) ;
#177 = DIRECTION ( 'NONE',  ( -1.000000000000000000, 0.000000000000000000, 0.000000000000000000 ) ) ;
#178 = PERSON_AND_ORGANIZATION ( #1, #480 ) ;
#179 = CARTESIAN_POINT ( 'NONE',  ( -1.060147506033615628, 1.587500000000000577, 43.46174669625518305 ) ) ;
#180 = ORIENTED_EDGE ( 'NONE', *, *, #453, .T. ) ;
#181 = VECTOR ( 'NONE', #427, 1000.000000000000000 ) ;
#182 = CARTESIAN_POINT ( 'NONE',  ( 1.587500000000000355, -0.4276219574846453209, -43.52699639200009329 ) ) ;
#183 = EDGE_CURVE ( 'NONE', #316, #257, #340, .T. ) ;
#184 = ORIENTED_EDGE ( 'NONE', *, *, #320, .T. ) ;
#185 = CARTESIAN_POINT ( 'NONE',  ( -0.8486262390323799920, 1.587500000000000799, 43.49176882282395695 ) ) ;
#186 = VERTEX_POINT ( 'NONE', #463 ) ;
#187 = FACE_OUTER_BOUND ( 'NONE', #108, .T. ) ;
#188 = ORIENTED_EDGE ( 'NONE', *, *, #151, .F. ) ;
#189 = CLOSED_SHELL ( 'NONE', ( #522, #357, #431, #32, #436, #36, #194, #414, #381, #290, #209, #243, #398, #168 ) ) ;
#190 = VECTOR ( 'NONE', #53, 1000.000000000000000 ) ;
#191 = ORIENTED_EDGE ( 'NONE', *, *, #58, .F. ) ;
#192 = CARTESIAN_POINT ( 'NONE',  ( -0.8571092511719591300, -1.587500000000000355, 43.51227379706276821 ) ) ;
#193 = COORDINATED_UNIVERSAL_TIME_OFFSET ( 6, 0, .BEHIND. ) ;
#194 = ADVANCED_FACE ( 'NONE', ( #124 ), #419, .T. ) ;
#195 = ORIENTED_EDGE ( 'NONE', *, *, #216, .F. ) ;
#196 = CARTESIAN_POINT ( 'NONE',  ( 1.587500000000000577, 0.8514389605504935066, 43.49136751577921700 ) ) ;
#197 = DIRECTION ( 'NONE',  ( 1.000000000000000000, 1.224646799147353207E-16, 0.000000000000000000 ) ) ;
#198 = AXIS2_PLACEMENT_3D ( 'NONE', #60, #123, #384 ) ;
#199 = AXIS2_PLACEMENT_3D ( 'NONE', #117, #421, #73 ) ;
#200 = CARTESIAN_POINT ( 'NONE',  ( 0.4342314039556042782, -1.587500000000000355, -43.53285171744313686 ) ) ;
#201 = VERTEX_POINT ( 'NONE', #429 ) ;
#202 = CARTESIAN_POINT ( 'NONE',  ( -1.587500000000000577, 0.4277385810629846241, 43.52698654358312780 ) ) ;
#203 = DIRECTION ( 'NONE',  ( 0.000000000000000000, -0.000000000000000000, 1.000000000000000000 ) ) ;
#204 = CARTESIAN_POINT ( 'NONE',  ( -1.245064030267288402, 2.006622987633880502E-16, -43.56099999999999994 ) ) ;
#205 = DIRECTION ( 'NONE',  ( 0.000000000000000000, 0.000000000000000000, -1.000000000000000000 ) ) ;
#206 = AXIS2_PLACEMENT_3D ( 'NONE', #165, #510, #78 ) ;
#207 = VERTEX_POINT ( 'NONE', #210 ) ;
#208 = CARTESIAN_POINT ( 'NONE',  ( -1.587500000000000355, 1.061392899157111325, 43.46143677385166626 ) ) ;
#209 = ADVANCED_FACE ( 'NONE', ( #129 ), #215, .T. ) ;
#210 = CARTESIAN_POINT ( 'NONE',  ( 1.268411506570323866, -1.587500000000000355, -43.40991914209798352 ) ) ;
#211 =( NAMED_UNIT ( * ) PLANE_ANGLE_UNIT ( ) SI_UNIT ( $, .RADIAN. ) );
#212 = DIRECTION ( 'NONE',  ( -0.000000000000000000, -0.000000000000000000, 1.000000000000000000 ) ) ;
#213 = EDGE_LOOP ( 'NONE', ( #76, #173, #531, #38, #410, #411, #467, #556 ) ) ;
#214 = PERSON_AND_ORGANIZATION_ROLE ( 'design_supplier' ) ;
#215 = CYLINDRICAL_SURFACE ( 'NONE', #154, 2.032000000000000028 ) ;
#216 = EDGE_CURVE ( 'NONE', #207, #88, #341, .T. ) ;
#217 = PERSON_AND_ORGANIZATION ( #1, #480 ) ;
#218 = AXIS2_PLACEMENT_3D ( 'NONE', #260, #252, #433 ) ;
#219 = CARTESIAN_POINT ( 'NONE',  ( 1.587500000000000355, -1.268411506570323866, -43.40991914209798352 ) ) ;
#220 = ORIENTED_EDGE ( 'NONE', *, *, #283, .F. ) ;
#221 = DATE_AND_TIME ( #49, #328 ) ;
#222 = CARTESIAN_POINT ( 'NONE',  ( 1.587500000000000355, -1.268411506570324088, 43.40991914209798352 ) ) ;
#223 = EDGE_LOOP ( 'NONE', ( #122, #12, #359, #152, #195, #275, #318, #91 ) ) ;
#224 = PERSON_AND_ORGANIZATION ( #1, #480 ) ;
#225 = CARTESIAN_POINT ( 'NONE',  ( 1.587500000000000355, -0.2143109880596213712, 43.53322736169286600 ) ) ;
#226 = EDGE_LOOP ( 'NONE', ( #355, #405, #513, #366, #180, #482 ) ) ;
#227 = EDGE_CURVE ( 'NONE', #186, #516, #104, .T. ) ;
#228 = CC_DESIGN_SECURITY_CLASSIFICATION ( #369, ( #6 ) ) ;
#229 = CARTESIAN_POINT ( 'NONE',  ( 1.587500000000000355, -1.061392899157110881, 43.46143677385165205 ) ) ;
#230 = CIRCLE ( 'NONE', #264, 1.245064030267288402 ) ;
#231 = VERTEX_POINT ( 'NONE', #119 ) ;
#232 = DIRECTION ( 'NONE',  ( 1.000000000000000000, 0.000000000000000000, 0.000000000000000000 ) ) ;
#233 = EDGE_CURVE ( 'NONE', #304, #231, #540, .T. ) ;
#234 = ORIENTED_EDGE ( 'NONE', *, *, #334, .T. ) ;
#235 = EDGE_LOOP ( 'NONE', ( #426, #166, #145, #107 ) ) ;
#236 = CC_DESIGN_PERSON_AND_ORGANIZATION_ASSIGNMENT ( #477, #305, ( #259 ) ) ;
#237 = CIRCLE ( 'NONE', #376, 2.032000000000000028 ) ;
#238 = LOCAL_TIME ( 14, 3, 2.000000000000000000, #193 ) ;
#239 = PLANE ( 'NONE',  #446 ) ;
#240 = B_SPLINE_CURVE_WITH_KNOTS ( 'NONE', 3,
 ( #161, #292, #505, #295, #131, #514 ),
 .UNSPECIFIED., .F., .F.,
 ( 4, 2, 4 ),
 ( 1.905938025164284470E-19, 0.0006365870327257440800, 0.001273174065451487943 ),
 .UNSPECIFIED. ) ;
#241 = CARTESIAN_POINT ( 'NONE',  ( 1.587500000000000133, 0.2143109880596213990, -43.53322736169287310 ) ) ;
#242 = CARTESIAN_POINT ( 'NONE',  ( -1.060147506033616072, -1.587500000000000355, -43.46174669625518305 ) ) ;
#243 = ADVANCED_FACE ( 'NONE', ( #263 ), #555, .T. ) ;
#244 = LINE ( 'NONE', #62, #339 ) ;
#245 = CARTESIAN_POINT ( 'NONE',  ( 1.587500000000000355, -1.587500000000000355, 43.56099999999999994 ) ) ;
#246 = CC_DESIGN_PERSON_AND_ORGANIZATION_ASSIGNMENT ( #517, #402, ( #369 ) ) ;
#247 = DIRECTION ( 'NONE',  ( -0.000000000000000000, -0.000000000000000000, 1.000000000000000000 ) ) ;
#248 = CIRCLE ( 'NONE', #206, 1.245064030267288402 ) ;
#249 = CARTESIAN_POINT ( 'NONE',  ( 1.268411506570323866, 1.587500000000000355, -43.40991914209798352 ) ) ;
#250 = CARTESIAN_POINT ( 'NONE',  ( 0.000000000000000000, 0.000000000000000000, 43.40991914209798352 ) ) ;
#251 = CARTESIAN_POINT ( 'NONE',  ( -1.268411506570323866, 1.587500000000000355, -43.40991914209798352 ) ) ;
#252 = DIRECTION ( 'NONE',  ( -0.000000000000000000, -0.000000000000000000, 1.000000000000000000 ) ) ;
#253 = ORIENTED_EDGE ( 'NONE', *, *, #533, .F. ) ;
#254 = LINE ( 'NONE', #388, #542 ) ;
#255 = DIRECTION ( 'NONE',  ( -0.000000000000000000, -0.000000000000000000, 1.000000000000000000 ) ) ;
#256 = AXIS2_PLACEMENT_3D ( 'NONE', #75, #545, #205 ) ;
#257 = VERTEX_POINT ( 'NONE', #500 ) ;
#258 = CARTESIAN_POINT ( 'NONE',  ( 0.000000000000000000, 0.000000000000000000, -43.56099999999999994 ) ) ;
#259 = PRODUCT_DEFINITION ( 'UNKNOWN', '', #6, #448 ) ;
#260 = CARTESIAN_POINT ( 'NONE',  ( 0.000000000000000000, 0.000000000000000000, -43.56099999999999994 ) ) ;
#261 = ORIENTED_EDGE ( 'NONE', *, *, #301, .T. ) ;
#262 = PERSON_AND_ORGANIZATION ( #1, #480 ) ;
#263 = FACE_OUTER_BOUND ( 'NONE', #79, .T. ) ;
#264 = AXIS2_PLACEMENT_3D ( 'NONE', #64, #153, #452 ) ;
#265 = DIRECTION ( 'NONE',  ( 0.000000000000000000, 0.000000000000000000, 1.000000000000000000 ) ) ;
#266 = VECTOR ( 'NONE', #394, 1000.000000000000000 ) ;
#267 = APPROVAL_PERSON_ORGANIZATION ( #178, #158, #548 ) ;
#268 = B_SPLINE_CURVE_WITH_KNOTS ( 'NONE', 3,
 ( #18, #160, #17, #336, #415, #460, #192, #493 ),
 .UNSPECIFIED., .F., .F.,
 ( 4, 2, 2, 4 ),
 ( 0.01485345774306975376, 0.01548583974386941176, 0.01611822174466906801, 0.01738298574626838400 ),
 .UNSPECIFIED. ) ;
#269 = PLANE ( 'NONE',  #111 ) ;
#270 = ORIENTED_EDGE ( 'NONE', *, *, #420, .F. ) ;
#271 = COORDINATED_UNIVERSAL_TIME_OFFSET ( 6, 0, .BEHIND. ) ;
#272 = CARTESIAN_POINT ( 'NONE',  ( 0.000000000000000000, 0.000000000000000000, 43.40991914209798352 ) ) ;
#273 = ORIENTED_EDGE ( 'NONE', *, *, #23, .T. ) ;
#274 = DIRECTION ( 'NONE',  ( 1.000000000000000000, 0.000000000000000000, 0.000000000000000000 ) ) ;
#275 = ORIENTED_EDGE ( 'NONE', *, *, #526, .F. ) ;
#276 = CARTESIAN_POINT ( 'NONE',  ( 0.8571092511719591300, 1.587500000000000355, 43.51227379706276821 ) ) ;
#277 = ORIENTED_EDGE ( 'NONE', *, *, #233, .T. ) ;
#278 = CARTESIAN_POINT ( 'NONE',  ( -1.245064030267288402, 1.524763679400337895E-16, -41.43600000000000705 ) ) ;
#279 = EDGE_CURVE ( 'NONE', #139, #316, #54, .T. ) ;
#280 = ORIENTED_EDGE ( 'NONE', *, *, #330, .F. ) ;
#281 = CARTESIAN_POINT ( 'NONE',  ( 1.587500000000000355, 1.061392899157111325, -43.46143677385166626 ) ) ;
#282 = CARTESIAN_POINT ( 'NONE',  ( 1.587500000000000355, 0.000000000000000000, -43.53322736169287310 ) ) ;
#283 = EDGE_CURVE ( 'NONE', #186, #528, #487, .T. ) ;
#284 = CARTESIAN_POINT ( 'NONE',  ( 0.000000000000000000, 0.000000000000000000, 43.40991914209798352 ) ) ;
#285 = CARTESIAN_POINT ( 'NONE',  ( 0.000000000000000000, 0.000000000000000000, 43.56099999999999994 ) ) ;
#286 = CARTESIAN_POINT ( 'NONE',  ( 1.587500000000000355, 1.268411506570323866, -43.40991914209798352 ) ) ;
#287 = DIRECTION ( 'NONE',  ( 0.000000000000000000, 0.000000000000000000, 1.000000000000000000 ) ) ;
#288 = CARTESIAN_POINT ( 'NONE',  ( 1.587500000000000577, 0.4277385810629840135, -43.52698654358312780 ) ) ;
#289 = AXIS2_PLACEMENT_3D ( 'NONE', #393, #265, #399 ) ;
#290 = ADVANCED_FACE ( 'NONE', ( #386 ), #344, .F. ) ;
#291 = DIRECTION ( 'NONE',  ( 1.000000000000000000, 0.000000000000000000, 0.000000000000000000 ) ) ;
#292 = CARTESIAN_POINT ( 'NONE',  ( -1.587500000000000133, -0.2143109880596212047, -43.53322736169287310 ) ) ;
#293 = CARTESIAN_POINT ( 'NONE',  ( 0.000000000000000000, 0.000000000000000000, -43.40991914209798352 ) ) ;
#294 = ORIENTED_EDGE ( 'NONE', *, *, #443, .T. ) ;
#295 = CARTESIAN_POINT ( 'NONE',  ( -1.587500000000000355, -0.8513200635100126590, -43.49137755531811678 ) ) ;
#296 = CARTESIAN_POINT ( 'NONE',  ( 1.587500000000000355, 0.000000000000000000, 43.53322736169287310 ) ) ;
#297 = AXIS2_PLACEMENT_3D ( 'NONE', #293, #347, #435 ) ;
#298 = ORIENTED_EDGE ( 'NONE', *, *, #475, .T. ) ;
#299 = LOCAL_TIME ( 14, 3, 2.000000000000000000, #271 ) ;
#301 = EDGE_CURVE ( 'NONE', #323, #130, #30, .T. ) ;
#300 = AXIS2_PLACEMENT_3D ( 'NONE', #498, #68, #203 ) ;
#302 = COORDINATED_UNIVERSAL_TIME_OFFSET ( 6, 0, .BEHIND. ) ;
#303 = CYLINDRICAL_SURFACE ( 'NONE', #412, 2.032000000000000028 ) ;
#304 = VERTEX_POINT ( 'NONE', #138 ) ;
#305 = PERSON_AND_ORGANIZATION_ROLE ( 'creator' ) ;
#306 = DIRECTION ( 'NONE',  ( -0.000000000000000000, -0.000000000000000000, 1.000000000000000000 ) ) ;
#307 = VERTEX_POINT ( 'NONE', #485 ) ;
#308 = CARTESIAN_POINT ( 'NONE',  ( 1.268411506570323866, -1.587500000000000355, -43.56099999999999994 ) ) ;
#309 = ORIENTED_EDGE ( 'NONE', *, *, #443, .F. ) ;
#310 = APPROVAL_DATE_TIME ( #221, #112 ) ;
#311 = TOROIDAL_SURFACE ( 'NONE', #327, 1.245064030267288402, 2.124999999999995115 ) ;
#312 = CARTESIAN_POINT ( 'NONE',  ( 1.268411506570323866, 1.587500000000000355, -43.40991914209798352 ) ) ;
#313 = EDGE_CURVE ( 'NONE', #150, #323, #109, .T. ) ;
#314 = EDGE_LOOP ( 'NONE', ( #534, #294, #473, #449 ) ) ;
#315 = CARTESIAN_POINT ( 'NONE',  ( -1.587500000000000355, 1.587500000000000355, -43.56099999999999994 ) ) ;
#316 = VERTEX_POINT ( 'NONE', #312 ) ;
#317 = CARTESIAN_POINT ( 'NONE',  ( 1.268411506570324088, 1.587500000000000355, 43.40991914209798352 ) ) ;
#318 = ORIENTED_EDGE ( 'NONE', *, *, #65, .F. ) ;
#319 = SHAPE_DEFINITION_REPRESENTATION ( #24, #333 ) ;
#320 = EDGE_CURVE ( 'NONE', #88, #323, #481, .T. ) ;
#321 = AXIS2_PLACEMENT_3D ( 'NONE', #37, #391, #133 ) ;
#322 = DIRECTION ( 'NONE',  ( 0.000000000000000000, 0.000000000000000000, -1.000000000000000000 ) ) ;
#323 = VERTEX_POINT ( 'NONE', #136 ) ;
#324 = ORIENTED_EDGE ( 'NONE', *, *, #227, .T. ) ;
#325 = FACE_OUTER_BOUND ( 'NONE', #105, .T. ) ;
#326 = APPLICATION_CONTEXT ( 'configuration controlled 3d designs of mechanical parts and assemblies' ) ;
#327 = AXIS2_PLACEMENT_3D ( 'NONE', #397, #358, #518 ) ;
#328 = LOCAL_TIME ( 14, 3, 2.000000000000000000, #390 ) ;
#329 = DIRECTION ( 'NONE',  ( -1.000000000000000000, 0.000000000000000000, 0.000000000000000000 ) ) ;
#330 = EDGE_CURVE ( 'NONE', #130, #207, #444, .T. ) ;
#331 = DIRECTION ( 'NONE',  ( 0.000000000000000000, 0.000000000000000000, -1.000000000000000000 ) ) ;
#332 = CARTESIAN_POINT ( 'NONE',  ( -1.268411506570323866, -1.587500000000000355, -43.40991914209798352 ) ) ;
#333 = ADVANCED_BREP_SHAPE_REPRESENTATION ( '228-2500-123', ( #558, #289 ), #492 ) ;
#334 = EDGE_CURVE ( 'NONE', #516, #352, #174, .T. ) ;
#335 = CARTESIAN_POINT ( 'NONE',  ( 1.587500000000000355, 0.000000000000000000, -43.53322736169287310 ) ) ;
#336 = CARTESIAN_POINT ( 'NONE',  ( 0.4219230645619450049, -1.587499999999999911, 43.52730730355361999 ) ) ;
#337 = CARTESIAN_POINT ( 'NONE',  ( 1.587500000000000133, 1.061532360077855230, 43.46140206829358021 ) ) ;
#338 = EDGE_CURVE ( 'NONE', #201, #142, #237, .T. ) ;
#339 = VECTOR ( 'NONE', #247, 1000.000000000000000 ) ;
#340 = LINE ( 'NONE', #28, #544 ) ;
#341 = CIRCLE ( 'NONE', #321, 2.032000000000000028 ) ;
#342 = CC_DESIGN_APPROVAL ( #158, ( #6 ) ) ;
#343 = CARTESIAN_POINT ( 'NONE',  ( 0.8571092511719562435, -1.587500000000000799, -43.51227379706277532 ) ) ;
#344 = PLANE ( 'NONE',  #147 ) ;
#345 = ORIENTED_EDGE ( 'NONE', *, *, #48, .T. ) ;
#346 = CARTESIAN_POINT ( 'NONE',  ( 1.245064030267288402, 0.000000000000000000, 43.56099999999999994 ) ) ;
#347 = DIRECTION ( 'NONE',  ( -0.000000000000000000, -0.000000000000000000, 1.000000000000000000 ) ) ;
#348 = EDGE_CURVE ( 'NONE', #88, #528, #128, .T. ) ;
#349 = DIRECTION ( 'NONE',  ( 1.000000000000000000, 0.000000000000000000, 0.000000000000000000 ) ) ;
#350 = DATE_AND_TIME ( #34, #148 ) ;
#351 = CARTESIAN_POINT ( 'NONE',  ( -1.587500000000000355, -1.268411506570323866, -43.56099999999999994 ) ) ;
#352 = VERTEX_POINT ( 'NONE', #92 ) ;
#353 =( LENGTH_UNIT ( ) NAMED_UNIT ( * ) SI_UNIT ( .MILLI., .METRE. ) );
#354 = CARTESIAN_POINT ( 'NONE',  ( 1.587500000000000355, -1.268411506570323866, -43.56099999999999994 ) ) ;
#355 = ORIENTED_EDGE ( 'NONE', *, *, #320, .F. ) ;
#356 = APPROVAL_ROLE ( '' ) ;
#357 = ADVANCED_FACE ( 'NONE', ( #447 ), #163, .T. ) ;
#358 = DIRECTION ( 'NONE',  ( 0.000000000000000000, 0.000000000000000000, -1.000000000000000000 ) ) ;
#359 = ORIENTED_EDGE ( 'NONE', *, *, #283, .T. ) ;
#360 = CIRCLE ( 'NONE', #16, 2.124999999999995115 ) ;
#361 = AXIS2_PLACEMENT_3D ( 'NONE', #272, #106, #11 ) ;
#362 = LOCAL_TIME ( 14, 3, 2.000000000000000000, #474 ) ;
#363 = CARTESIAN_POINT ( 'NONE',  ( 1.587500000000000355, -0.2114796877013868093, -43.53322736169287310 ) ) ;
#364 = ORIENTED_EDGE ( 'NONE', *, *, #403, .F. ) ;
#365 = CARTESIAN_POINT ( 'NONE',  ( -0.4219230645619450049, 1.587499999999999911, 43.52730730355361999 ) ) ;
#366 = ORIENTED_EDGE ( 'NONE', *, *, #458, .F. ) ;
#367 = EDGE_LOOP ( 'NONE', ( #309, #484, #523, #442, #7, #440 ) ) ;
#368 = AXIS2_PLACEMENT_3D ( 'NONE', #245, #77, #287 ) ;
#369 = SECURITY_CLASSIFICATION ( '', '', #176 ) ;
#370 = VERTEX_POINT ( 'NONE', #141 ) ;
#371 = B_SPLINE_CURVE_WITH_KNOTS ( 'NONE', 3,
 ( #389, #84, #33, #425, #162, #476 ),
 .UNSPECIFIED., .F., .F.,
 ( 4, 2, 4 ),
 ( 0.01485345774306975376, 0.01548163471194332480, 0.01610981168081689410 ),
 .UNSPECIFIED. ) ;
#372 = DIRECTION ( 'NONE',  ( 1.224646799147353207E-16, -1.000000000000000000, 0.000000000000000000 ) ) ;
#373 = ORIENTED_EDGE ( 'NONE', *, *, #216, .T. ) ;
#374 = CARTESIAN_POINT ( 'NONE',  ( 1.587500000000000355, 0.4276219574846453209, 43.52699639200009329 ) ) ;
#375 = B_SPLINE_CURVE_WITH_KNOTS ( 'NONE', 3,
 ( #29, #337, #196, #374, #495, #416 ),
 .UNSPECIFIED., .F., .F.,
 ( 4, 2, 4 ),
 ( 0.01485345774306975376, 0.01548163471194332480, 0.01610981168081689410 ),
 .UNSPECIFIED. ) ;
#376 = AXIS2_PLACEMENT_3D ( 'NONE', #50, #322, #177 ) ;
#377 = PRODUCT_RELATED_PRODUCT_CATEGORY ( 'detail', '', ( #462 ) ) ;
#378 = DIRECTION ( 'NONE',  ( 0.000000000000000000, -1.000000000000000000, 0.000000000000000000 ) ) ;
#379 = CARTESIAN_POINT ( 'NONE',  ( 1.268411506570323866, -1.587500000000000355, -43.40991914209798352 ) ) ;
#380 = CARTESIAN_POINT ( 'NONE',  ( -1.587500000000000355, -1.944126793646423534E-16, 43.53322736169287310 ) ) ;
#381 = ADVANCED_FACE ( 'NONE', ( #187 ), #269, .T. ) ;
#382 = DIRECTION ( 'NONE',  ( 0.000000000000000000, 0.000000000000000000, 1.000000000000000000 ) ) ;
#383 = CARTESIAN_POINT ( 'NONE',  ( -1.268411506570323866, 1.587500000000000355, -43.40991914209798352 ) ) ;
#384 = DIRECTION ( 'NONE',  ( 1.000000000000000000, 0.000000000000000000, 0.000000000000000000 ) ) ;
#385 = AXIS2_PLACEMENT_3D ( 'NONE', #424, #21, #382 ) ;
#386 = FACE_OUTER_BOUND ( 'NONE', #507, .T. ) ;
#387 = EDGE_LOOP ( 'NONE', ( #445, #61, #486, #94, #451, #364, #41, #270 ) ) ;
#388 = CARTESIAN_POINT ( 'NONE',  ( 1.587500000000000355, 1.268411506570323866, -43.56099999999999994 ) ) ;
#389 = CARTESIAN_POINT ( 'NONE',  ( -1.587500000000000355, 1.268411506570323866, -43.40991914209798352 ) ) ;
#390 = COORDINATED_UNIVERSAL_TIME_OFFSET ( 6, 0, .BEHIND. ) ;
#391 = DIRECTION ( 'NONE',  ( -0.000000000000000000, -0.000000000000000000, 1.000000000000000000 ) ) ;
#392 = ORIENTED_EDGE ( 'NONE', *, *, #132, .F. ) ;
#393 = CARTESIAN_POINT ( 'NONE',  ( 0.000000000000000000, 0.000000000000000000, 0.000000000000000000 ) ) ;
#394 = DIRECTION ( 'NONE',  ( 0.000000000000000000, 0.000000000000000000, -1.000000000000000000 ) ) ;
#395 = AXIS2_PLACEMENT_3D ( 'NONE', #99, #57, #274 ) ;
#396 = APPROVAL_ROLE ( '' ) ;
#397 = CARTESIAN_POINT ( 'NONE',  ( 0.000000000000000000, 0.000000000000000000, 41.43600000000000705 ) ) ;
#398 = ADVANCED_FACE ( 'NONE', ( #527 ), #409, .T. ) ;
#399 = DIRECTION ( 'NONE',  ( 1.000000000000000000, 0.000000000000000000, 0.000000000000000000 ) ) ;
#400 = DIRECTION ( 'NONE',  ( -0.000000000000000000, -0.000000000000000000, 1.000000000000000000 ) ) ;
#401 = EDGE_LOOP ( 'NONE', ( #55, #51, #345, #277 ) ) ;
#402 = PERSON_AND_ORGANIZATION_ROLE ( 'classification_officer' ) ;
#403 = EDGE_CURVE ( 'NONE', #142, #257, #406, .T. ) ;
#404 = DIRECTION ( 'NONE',  ( -1.000000000000000000, 0.000000000000000000, -0.000000000000000000 ) ) ;
#405 = ORIENTED_EDGE ( 'NONE', *, *, #348, .T. ) ;
#406 = B_SPLINE_CURVE_WITH_KNOTS ( 'NONE', 3,
 ( #46, #179, #185, #365, #524, #561, #276, #317 ),
 .UNSPECIFIED., .F., .F.,
 ( 4, 2, 2, 4 ),
 ( 0.01485345774306975376, 0.01548583974386941176, 0.01611822174466906801, 0.01738298574626838400 ),
 .UNSPECIFIED. ) ;
#407 = CARTESIAN_POINT ( 'NONE',  ( 1.587500000000000577, -0.4277385810629841800, 43.52698654358313490 ) ) ;
#408 = EDGE_LOOP ( 'NONE', ( #324, #234, #188, #392, #85, #59, #434, #220 ) ) ;
#409 = CYLINDRICAL_SURFACE ( 'NONE', #395, 2.032000000000000028 ) ;
#410 = ORIENTED_EDGE ( 'NONE', *, *, #93, .F. ) ;
#411 = ORIENTED_EDGE ( 'NONE', *, *, #301, .F. ) ;
#412 = AXIS2_PLACEMENT_3D ( 'NONE', #87, #255, #506 ) ;
#413 = CARTESIAN_POINT ( 'NONE',  ( -1.587500000000000355, -0.4276219574846453209, 43.52699639200009329 ) ) ;
#414 = ADVANCED_FACE ( 'NONE', ( #146 ), #311, .T. ) ;
#415 = CARTESIAN_POINT ( 'NONE',  ( 0.2043756380772887293, -1.587500000000000133, 43.53340961896378758 ) ) ;
#416 = CARTESIAN_POINT ( 'NONE',  ( 1.587500000000000355, 0.000000000000000000, 43.53322736169287310 ) ) ;
#417 = CARTESIAN_POINT ( 'NONE',  ( -1.587500000000000133, -1.061532360077855230, 43.46140206829358021 ) ) ;
#418 = CARTESIAN_POINT ( 'NONE',  ( 0.8486262390323815463, 1.587500000000000355, -43.49176882282394985 ) ) ;
#419 = TOROIDAL_SURFACE ( 'NONE', #491, 1.245064030267288402, 2.124999999999995115 ) ;
#420 = EDGE_CURVE ( 'NONE', #100, #201, #44, .T. ) ;
#421 = DIRECTION ( 'NONE',  ( -0.000000000000000000, -0.000000000000000000, 1.000000000000000000 ) ) ;
#422 = FACE_OUTER_BOUND ( 'NONE', #213, .T. ) ;
#423 = CARTESIAN_POINT ( 'NONE',  ( -1.245064030267288402, -1.524763679400337895E-16, 41.43600000000000705 ) ) ;
#424 = CARTESIAN_POINT ( 'NONE',  ( 1.245064030267288402, 0.000000000000000000, 41.43600000000000705 ) ) ;
#425 = CARTESIAN_POINT ( 'NONE',  ( -1.587500000000000355, 0.4276219574846453209, -43.52699639200009329 ) ) ;
#426 = ORIENTED_EDGE ( 'NONE', *, *, #279, .T. ) ;
#427 = DIRECTION ( 'NONE',  ( -0.000000000000000000, -0.000000000000000000, 1.000000000000000000 ) ) ;
#428 = AXIS2_PLACEMENT_3D ( 'NONE', #144, #400, #232 ) ;
#429 = CARTESIAN_POINT ( 'NONE',  ( -1.587500000000000355, 1.268411506570324088, 43.40991914209798352 ) ) ;
#430 = APPROVAL_DATE_TIME ( #441, #158 ) ;
#431 = ADVANCED_FACE ( 'NONE', ( #461 ), #536, .F. ) ;
#432 = DIRECTION ( 'NONE',  ( 1.000000000000000000, 0.000000000000000000, 0.000000000000000000 ) ) ;
#433 = DIRECTION ( 'NONE',  ( 1.000000000000000000, 0.000000000000000000, 0.000000000000000000 ) ) ;
#434 = ORIENTED_EDGE ( 'NONE', *, *, #72, .F. ) ;
#435 = DIRECTION ( 'NONE',  ( 1.000000000000000000, 0.000000000000000000, 0.000000000000000000 ) ) ;
#436 = ADVANCED_FACE ( 'NONE', ( #27 ), #541, .F. ) ;
#437 = VECTOR ( 'NONE', #96, 1000.000000000000000 ) ;
#438 = DATE_AND_TIME ( #86, #362 ) ;
#439 = DIRECTION ( 'NONE',  ( -1.000000000000000000, 0.000000000000000000, -0.000000000000000000 ) ) ;
#440 = ORIENTED_EDGE ( 'NONE', *, *, #420, .T. ) ;
#441 = DATE_AND_TIME ( #81, #299 ) ;
#442 = ORIENTED_EDGE ( 'NONE', *, *, #233, .F. ) ;
#443 = EDGE_CURVE ( 'NONE', #47, #201, #459, .T. ) ;
#444 = LINE ( 'NONE', #308, #190 ) ;
#445 = ORIENTED_EDGE ( 'NONE', *, *, #90, .F. ) ;
#446 = AXIS2_PLACEMENT_3D ( 'NONE', #157, #378, #490 ) ;
#447 = FACE_OUTER_BOUND ( 'NONE', #408, .T. ) ;
#448 = DESIGN_CONTEXT ( 'detailed design', #10, 'design' ) ;
#449 = ORIENTED_EDGE ( 'NONE', *, *, #533, .T. ) ;
#450 = CARTESIAN_POINT ( 'NONE',  ( -1.587500000000000355, -1.944126793646423534E-16, 43.53322736169287310 ) ) ;
#451 = ORIENTED_EDGE ( 'NONE', *, *, #102, .F. ) ;
#452 = DIRECTION ( 'NONE',  ( 1.000000000000000000, 0.000000000000000000, 0.000000000000000000 ) ) ;
#453 = EDGE_CURVE ( 'NONE', #307, #150, #375, .T. ) ;
#454 = CIRCLE ( 'NONE', #554, 2.032000000000000028 ) ;
#455 = FACE_OUTER_BOUND ( 'NONE', #479, .T. ) ;
#456 = DIRECTION ( 'NONE',  ( 0.000000000000000000, 0.000000000000000000, -1.000000000000000000 ) ) ;
#457 = CARTESIAN_POINT ( 'NONE',  ( -1.587500000000000355, 1.268411506570323866, -43.56099999999999994 ) ) ;
#458 = EDGE_CURVE ( 'NONE', #307, #139, #254, .T. ) ;
#459 = LINE ( 'NONE', #457, #181 ) ;
#460 = CARTESIAN_POINT ( 'NONE',  ( -0.4342314039556041672, -1.587500000000000355, 43.53285171744313686 ) ) ;
#461 = FACE_OUTER_BOUND ( 'NONE', #367, .T. ) ;
#462 = PRODUCT ( '228-2500-123', '228-2500-123', '', ( #560 ) ) ;
#463 = CARTESIAN_POINT ( 'NONE',  ( 1.245064030267288402, 0.000000000000000000, -43.56099999999999994 ) ) ;
#464 = B_SPLINE_CURVE_WITH_KNOTS ( 'NONE', 3,
 ( #282, #241, #288, #22, #281, #286 ),
 .UNSPECIFIED., .F., .F.,
 ( 4, 2, 4 ),
 ( 0.000000000000000000, 0.0006365870327257439716, 0.001273174065451487943 ),
 .UNSPECIFIED. ) ;
#465 = DIRECTION ( 'NONE',  ( -0.000000000000000000, -0.000000000000000000, 1.000000000000000000 ) ) ;
#466 = CARTESIAN_POINT ( 'NONE',  ( 1.587500000000000355, 1.268411506570323866, -43.40991914209798352 ) ) ;
#467 = ORIENTED_EDGE ( 'NONE', *, *, #313, .F. ) ;
#468 = CC_DESIGN_PERSON_AND_ORGANIZATION_ASSIGNMENT ( #125, #214, ( #6 ) ) ;
#469 =( NAMED_UNIT ( * ) SI_UNIT ( $, .STERADIAN. ) SOLID_ANGLE_UNIT ( ) );
#470 = AXIS2_PLACEMENT_3D ( 'NONE', #285, #465, #71 ) ;
#471 = DIRECTION ( 'NONE',  ( -0.000000000000000000, -0.000000000000000000, 1.000000000000000000 ) ) ;
#472 = CC_DESIGN_APPROVAL ( #112, ( #259 ) ) ;
#473 = ORIENTED_EDGE ( 'NONE', *, *, #338, .T. ) ;
#474 = COORDINATED_UNIVERSAL_TIME_OFFSET ( 6, 0, .BEHIND. ) ;
#475 = EDGE_CURVE ( 'NONE', #316, #149, #35, .T. ) ;
#476 = CARTESIAN_POINT ( 'NONE',  ( -1.587500000000000355, 1.944126793646423534E-16, -43.53322736169287310 ) ) ;
#477 = PERSON_AND_ORGANIZATION ( #1, #480 ) ;
#478 = CARTESIAN_POINT ( 'NONE',  ( 1.587500000000000133, -1.061532360077855230, -43.46140206829358021 ) ) ;
#479 = EDGE_LOOP ( 'NONE', ( #520, #298, #253, #2 ) ) ;
#480 = ORGANIZATION ( 'UNSPECIFIED', 'UNSPECIFIED', '' ) ;
#481 = LINE ( 'NONE', #354, #437 ) ;
#482 = ORIENTED_EDGE ( 'NONE', *, *, #313, .T. ) ;
#483 = DIRECTION ( 'NONE',  ( -1.000000000000000000, 1.224646799147353207E-16, 0.000000000000000000 ) ) ;
#484 = ORIENTED_EDGE ( 'NONE', *, *, #151, .T. ) ;
#485 = CARTESIAN_POINT ( 'NONE',  ( 1.587500000000000355, 1.268411506570323866, 43.40991914209798352 ) ) ;
#486 = ORIENTED_EDGE ( 'NONE', *, *, #494, .T. ) ;
#487 = CIRCLE ( 'NONE', #256, 2.124999999999995115 ) ;
#488 = VERTEX_POINT ( 'NONE', #346 ) ;
#489 = CARTESIAN_POINT ( 'NONE',  ( -1.587500000000000577, -0.8514389605504935066, 43.49136751577921700 ) ) ;
#490 = DIRECTION ( 'NONE',  ( 0.000000000000000000, -0.000000000000000000, -1.000000000000000000 ) ) ;
#491 = AXIS2_PLACEMENT_3D ( 'NONE', #171, #471, #349 ) ;
#492 =( GEOMETRIC_REPRESENTATION_CONTEXT ( 3 ) GLOBAL_UNCERTAINTY_ASSIGNED_CONTEXT ( ( #532 ) ) GLOBAL_UNIT_ASSIGNED_CONTEXT ( ( #353, #211, #469 ) ) REPRESENTATION_CONTEXT ( 'NONE', 'WORKASPACE' ) );
#493 = CARTESIAN_POINT ( 'NONE',  ( -1.268411506570324088, -1.587500000000000355, 43.40991914209798352 ) ) ;
#494 = EDGE_CURVE ( 'NONE', #488, #150, #519, .T. ) ;
#495 = CARTESIAN_POINT ( 'NONE',  ( 1.587500000000000355, 0.2114796877013868093, 43.53322736169287310 ) ) ;
#496 = DIRECTION ( 'NONE',  ( 0.000000000000000000, 0.000000000000000000, -1.000000000000000000 ) ) ;
#497 = DIRECTION ( 'NONE',  ( 1.000000000000000000, 0.000000000000000000, 0.000000000000000000 ) ) ;
#498 = CARTESIAN_POINT ( 'NONE',  ( -1.587500000000000355, -1.587500000000000355, 43.56099999999999994 ) ) ;
#499 = CARTESIAN_POINT ( 'NONE',  ( -1.268411506570323866, -1.587500000000000355, -43.40991914209798352 ) ) ;
#500 = CARTESIAN_POINT ( 'NONE',  ( 1.268411506570324088, 1.587500000000000355, 43.40991914209798352 ) ) ;
#501 = DIRECTION ( 'NONE',  ( 0.000000000000000000, 0.000000000000000000, -1.000000000000000000 ) ) ;
#502 = EDGE_CURVE ( 'NONE', #488, #370, #82, .T. ) ;
#503 = CARTESIAN_POINT ( 'NONE',  ( -1.587500000000000355, 1.587500000000000355, 43.56099999999999994 ) ) ;
#504 = ORIENTED_EDGE ( 'NONE', *, *, #93, .T. ) ;
#505 = CARTESIAN_POINT ( 'NONE',  ( -1.587500000000000577, -0.4277385810629843466, -43.52698654358312780 ) ) ;
#506 = DIRECTION ( 'NONE',  ( 1.000000000000000000, 0.000000000000000000, 0.000000000000000000 ) ) ;
#507 = EDGE_LOOP ( 'NONE', ( #97, #273 ) ) ;
#508 = PERSON_AND_ORGANIZATION_ROLE ( 'creator' ) ;
#509 = VECTOR ( 'NONE', #501, 1000.000000000000000 ) ;
#510 = DIRECTION ( 'NONE',  ( -0.000000000000000000, -0.000000000000000000, 1.000000000000000000 ) ) ;
#511 = APPROVAL_STATUS ( 'not_yet_approved' ) ;
#512 = CARTESIAN_POINT ( 'NONE',  ( 0.000000000000000000, 0.000000000000000000, -43.56099999999999994 ) ) ;
#513 = ORIENTED_EDGE ( 'NONE', *, *, #72, .T. ) ;
#514 = CARTESIAN_POINT ( 'NONE',  ( -1.587500000000000355, -1.268411506570323866, -43.40991914209798352 ) ) ;
#515 = CARTESIAN_POINT ( 'NONE',  ( 1.587500000000000355, -0.8513200635100126590, 43.49137755531811678 ) ) ;
#516 = VERTEX_POINT ( 'NONE', #204 ) ;
#517 = PERSON_AND_ORGANIZATION ( #1, #480 ) ;
#518 = DIRECTION ( 'NONE',  ( 1.000000000000000000, 0.000000000000000000, 0.000000000000000000 ) ) ;
#519 = CIRCLE ( 'NONE', #385, 2.124999999999995115 ) ;
#520 = ORIENTED_EDGE ( 'NONE', *, *, #183, .F. ) ;
#521 = CARTESIAN_POINT ( 'NONE',  ( 1.587500000000000355, 0.000000000000000000, -43.53322736169287310 ) ) ;
#522 = ADVANCED_FACE ( 'NONE', ( #422 ), #535, .T. ) ;
#523 = ORIENTED_EDGE ( 'NONE', *, *, #543, .T. ) ;
#524 = CARTESIAN_POINT ( 'NONE',  ( -0.2043756380772887293, 1.587500000000000133, 43.53340961896378758 ) ) ;
#525 = ORIENTED_EDGE ( 'NONE', *, *, #227, .F. ) ;
#526 = EDGE_CURVE ( 'NONE', #9, #207, #553, .T. ) ;
#527 = FACE_OUTER_BOUND ( 'NONE', #235, .T. ) ;
#528 = VERTEX_POINT ( 'NONE', #335 ) ;
#529 = AXIS2_PLACEMENT_3D ( 'NONE', #278, #559, #483 ) ;
#530 = CARTESIAN_POINT ( 'NONE',  ( -1.587500000000000355, -0.2114796877013868093, 43.53322736169287310 ) ) ;
#531 = ORIENTED_EDGE ( 'NONE', *, *, #80, .F. ) ;
#532 = UNCERTAINTY_MEASURE_WITH_UNIT (LENGTH_MEASURE( 1.000000000000000082E-05 ), #353, 'distance_accuracy_value', 'NONE');
#533 = EDGE_CURVE ( 'NONE', #142, #149, #538, .T. ) ;
#534 = ORIENTED_EDGE ( 'NONE', *, *, #132, .T. ) ;
#535 = TOROIDAL_SURFACE ( 'NONE', #198, 1.245064030267288402, 2.124999999999995115 ) ;
#536 = PLANE ( 'NONE',  #126 ) ;
#537 = CARTESIAN_POINT ( 'NONE',  ( -1.587500000000000355, 1.268411506570323866, -43.40991914209798352 ) ) ;
#538 = LINE ( 'NONE', #539, #509 ) ;
#539 = CARTESIAN_POINT ( 'NONE',  ( -1.268411506570323866, 1.587500000000000355, -43.56099999999999994 ) ) ;
#540 = LINE ( 'NONE', #351, #266 ) ;
#541 = PLANE ( 'NONE',  #368 ) ;
#542 = VECTOR ( 'NONE', #331, 1000.000000000000000 ) ;
#543 = EDGE_CURVE ( 'NONE', #352, #231, #240, .T. ) ;
#544 = VECTOR ( 'NONE', #40, 1000.000000000000000 ) ;
#545 = DIRECTION ( 'NONE',  ( 0.000000000000000000, -1.000000000000000000, 0.000000000000000000 ) ) ;
#546 = CARTESIAN_POINT ( 'NONE',  ( 0.2043756380772883685, 1.587500000000000799, -43.53340961896380179 ) ) ;
#547 = CARTESIAN_POINT ( 'NONE',  ( -1.268411506570323866, 1.587500000000000355, 43.40991914209798352 ) ) ;
#548 = APPROVAL_ROLE ( '' ) ;
#549 = CARTESIAN_POINT ( 'NONE',  ( 1.268411506570323866, -1.587500000000000355, 43.40991914209798352 ) ) ;
#550 = CC_DESIGN_PERSON_AND_ORGANIZATION_ASSIGNMENT ( #262, #45, ( #462 ) ) ;
#551 = VERTEX_POINT ( 'NONE', #3 ) ;
#552 = APPLICATION_PROTOCOL_DEFINITION ( 'international standard', 'config_control_design', 1994, #326 ) ;
#553 = B_SPLINE_CURVE_WITH_KNOTS ( 'NONE', 3,
 ( #499, #242, #118, #164, #19, #200, #343, #379 ),
 .UNSPECIFIED., .F., .F.,
 ( 4, 2, 2, 4 ),
 ( 0.01485345774306975376, 0.01548583974386941002, 0.01611822174466906801, 0.01738298574626838053 ),
 .UNSPECIFIED. ) ;
#554 = AXIS2_PLACEMENT_3D ( 'NONE', #284, #456, #66 ) ;
#555 = CYLINDRICAL_SURFACE ( 'NONE', #69, 2.032000000000000028 ) ;
#556 = ORIENTED_EDGE ( 'NONE', *, *, #494, .F. ) ;
#557 = APPROVAL_STATUS ( 'not_yet_approved' ) ;
#558 = MANIFOLD_SOLID_BREP ( '228-2500-123', #189 ) ;
#559 = DIRECTION ( 'NONE',  ( 1.224646799147353207E-16, 1.000000000000000000, 0.000000000000000000 ) ) ;
#560 = MECHANICAL_CONTEXT ( 'NONE', #326, 'mechanical' ) ;
#561 = CARTESIAN_POINT ( 'NONE',  ( 0.4342314039556041672, 1.587500000000000355, 43.53285171744313686 ) ) ;
ENDSEC;
END-ISO-10303-21;
