ISO-10303-21;
HEADER;
FILE_DESCRIPTION (( 'STEP AP203' ),
    '1' );
FILE_NAME ('228-2500-124.step',
    '2022-06-06T19:03:09',
    ( '' ),
    ( '' ),
    'SwSTEP 2.0',
    'SolidWorks 2021',
    '' );
FILE_SCHEMA (( 'CONFIG_CONTROL_DESIGN' ));
ENDSEC;

DATA;
#1 = VERTEX_POINT ( 'NONE', #18 ) ;
#2 = CARTESIAN_POINT ( 'NONE',  ( -1.245064030267288402, -1.524763679400337895E-16, 47.78600000000000136 ) ) ;
#3 = FACE_OUTER_BOUND ( 'NONE', #276, .T. ) ;
#4 = VERTEX_POINT ( 'NONE', #493 ) ;
#5 = CARTESIAN_POINT ( 'NONE',  ( -1.245064030267288402, -2.006622987633880502E-16, 49.91099999999999426 ) ) ;
#6 = APPROVAL ( #133, 'UNSPECIFIED' ) ;
#7 = EDGE_LOOP ( 'NONE', ( #255, #514, #273, #57 ) ) ;
#8 = AXIS2_PLACEMENT_3D ( 'NONE', #209, #374, #465 ) ;
#9 = CARTESIAN_POINT ( 'NONE',  ( -1.268411506570323866, 1.587500000000000355, 49.75991914209797784 ) ) ;
#10 = ORIENTED_EDGE ( 'NONE', *, *, #323, .T. ) ;
#11 = VERTEX_POINT ( 'NONE', #366 ) ;
#12 = SHAPE_DEFINITION_REPRESENTATION ( #287, #61 ) ;
#13 = EDGE_CURVE ( 'NONE', #210, #11, #188, .T. ) ;
#14 = DIRECTION ( 'NONE',  ( -0.000000000000000000, -0.000000000000000000, 1.000000000000000000 ) ) ;
#15 = CC_DESIGN_APPROVAL ( #383, ( #477 ) ) ;
#16 = AXIS2_PLACEMENT_3D ( 'NONE', #432, #437, #347 ) ;
#17 = DIRECTION ( 'NONE',  ( 1.000000000000000000, 0.000000000000000000, 0.000000000000000000 ) ) ;
#18 = CARTESIAN_POINT ( 'NONE',  ( 1.245064030267288402, 0.000000000000000000, -49.91099999999999426 ) ) ;
#19 = B_SPLINE_CURVE_WITH_KNOTS ( 'NONE', 3,
 ( #40, #467, #160, #120, #295, #544, #243, #75 ),
 .UNSPECIFIED., .F., .F.,
 ( 4, 2, 2, 4 ),
 ( 0.01485345774306975376, 0.01548583974386941176, 0.01611822174466906801, 0.01738298574626838400 ),
 .UNSPECIFIED. ) ;
#20 = EDGE_CURVE ( 'NONE', #11, #202, #59, .T. ) ;
#21 = CARTESIAN_POINT ( 'NONE',  ( -1.587500000000000355, -1.268411506570323866, -49.75991914209797784 ) ) ;
#22 = DIRECTION ( 'NONE',  ( 0.000000000000000000, 0.000000000000000000, -1.000000000000000000 ) ) ;
#23 = CC_DESIGN_DATE_AND_TIME_ASSIGNMENT ( #379, #249, ( #477 ) ) ;
#24 = DIRECTION ( 'NONE',  ( 1.000000000000000000, 0.000000000000000000, 0.000000000000000000 ) ) ;
#25 = CIRCLE ( 'NONE', #224, 2.124999999999995115 ) ;
#26 = TOROIDAL_SURFACE ( 'NONE', #325, 1.245064030267288402, 2.124999999999995115 ) ;
#27 = ORIENTED_EDGE ( 'NONE', *, *, #141, .T. ) ;
#28 = FACE_OUTER_BOUND ( 'NONE', #48, .T. ) ;
#29 = DIRECTION ( 'NONE',  ( 0.000000000000000000, 0.000000000000000000, -1.000000000000000000 ) ) ;
#30 = DIRECTION ( 'NONE',  ( -0.000000000000000000, -0.000000000000000000, 1.000000000000000000 ) ) ;
#31 = CC_DESIGN_PERSON_AND_ORGANIZATION_ASSIGNMENT ( #553, #421, ( #190 ) ) ;
#32 = CARTESIAN_POINT ( 'NONE',  ( 0.000000000000000000, 0.000000000000000000, -47.78600000000000136 ) ) ;
#33 = CARTESIAN_POINT ( 'NONE',  ( 0.000000000000000000, 0.000000000000000000, 49.75991914209797784 ) ) ;
#34 = AXIS2_PLACEMENT_3D ( 'NONE', #33, #78, #343 ) ;
#35 = CARTESIAN_POINT ( 'NONE',  ( 1.587500000000000577, -0.8514389605504935066, -49.84136751577921842 ) ) ;
#36 = AXIS2_PLACEMENT_3D ( 'NONE', #105, #238, #335 ) ;
#37 = CARTESIAN_POINT ( 'NONE',  ( 1.587500000000000355, -1.587500000000000355, 49.91099999999999426 ) ) ;
#38 = ORIENTED_EDGE ( 'NONE', *, *, #257, .T. ) ;
#39 = ADVANCED_FACE ( 'NONE', ( #447 ), #537, .F. ) ;
#40 = CARTESIAN_POINT ( 'NONE',  ( 1.268411506570323866, -1.587500000000000355, 49.75991914209797784 ) ) ;
#41 = CC_DESIGN_PERSON_AND_ORGANIZATION_ASSIGNMENT ( #471, #217, ( #406 ) ) ;
#42 = DATE_AND_TIME ( #431, #478 ) ;
#43 = CARTESIAN_POINT ( 'NONE',  ( 1.587500000000000133, 1.061532360077855230, 49.81140206829356032 ) ) ;
#44 = LOCAL_TIME ( 14, 3, 9.000000000000000000, #403 ) ;
#45 = ORIENTED_EDGE ( 'NONE', *, *, #417, .T. ) ;
#46 = CALENDAR_DATE ( 2022, 6, 6 ) ;
#47 = FACE_OUTER_BOUND ( 'NONE', #317, .T. ) ;
#48 = EDGE_LOOP ( 'NONE', ( #170, #236 ) ) ;
#49 = LINE ( 'NONE', #131, #434 ) ;
#50 = ORIENTED_EDGE ( 'NONE', *, *, #340, .T. ) ;
#51 = LINE ( 'NONE', #314, #452 ) ;
#52 = EDGE_LOOP ( 'NONE', ( #216, #529, #460, #10 ) ) ;
#53 = SECURITY_CLASSIFICATION ( '', '', #303 ) ;
#54 = APPLICATION_CONTEXT ( 'configuration controlled 3d designs of mechanical parts and assemblies' ) ;
#55 = TOROIDAL_SURFACE ( 'NONE', #560, 1.245064030267288402, 2.124999999999995115 ) ;
#56 = DIRECTION ( 'NONE',  ( -0.000000000000000000, -0.000000000000000000, 1.000000000000000000 ) ) ;
#57 = ORIENTED_EDGE ( 'NONE', *, *, #58, .T. ) ;
#58 = EDGE_CURVE ( 'NONE', #246, #227, #100, .T. ) ;
#59 = LINE ( 'NONE', #229, #250 ) ;
#60 = VERTEX_POINT ( 'NONE', #145 ) ;
#61 = ADVANCED_BREP_SHAPE_REPRESENTATION ( '228-2500-124', ( #558, #262 ), #90 ) ;
#62 = AXIS2_PLACEMENT_3D ( 'NONE', #411, #56, #233 ) ;
#63 = AXIS2_PLACEMENT_3D ( 'NONE', #200, #119, #74 ) ;
#64 = DIRECTION ( 'NONE',  ( 0.000000000000000000, -1.000000000000000000, 0.000000000000000000 ) ) ;
#65 = LINE ( 'NONE', #454, #377 ) ;
#66 = DIRECTION ( 'NONE',  ( 1.000000000000000000, 0.000000000000000000, 0.000000000000000000 ) ) ;
#67 = DIRECTION ( 'NONE',  ( 0.000000000000000000, 0.000000000000000000, -1.000000000000000000 ) ) ;
#68 = B_SPLINE_CURVE_WITH_KNOTS ( 'NONE', 3,
 ( #215, #350, #524, #472, #92, #223 ),
 .UNSPECIFIED., .F., .F.,
 ( 4, 2, 4 ),
 ( 0.000000000000000000, 0.0006365870327257441884, 0.001273174065451488160 ),
 .UNSPECIFIED. ) ;
#69 = CARTESIAN_POINT ( 'NONE',  ( -0.2043756380772883685, -1.587500000000000799, -49.88340961896379611 ) ) ;
#70 = CARTESIAN_POINT ( 'NONE',  ( 0.4342314039556041672, 1.587500000000000355, 49.88285171744313118 ) ) ;
#71 = LOCAL_TIME ( 14, 3, 9.000000000000000000, #428 ) ;
#72 = DIRECTION ( 'NONE',  ( -0.000000000000000000, -0.000000000000000000, 1.000000000000000000 ) ) ;
#73 = VERTEX_POINT ( 'NONE', #101 ) ;
#74 = DIRECTION ( 'NONE',  ( 1.000000000000000000, 0.000000000000000000, 0.000000000000000000 ) ) ;
#75 = CARTESIAN_POINT ( 'NONE',  ( -1.268411506570324088, -1.587500000000000355, 49.75991914209797784 ) ) ;
#76 = VERTEX_POINT ( 'NONE', #412 ) ;
#77 = B_SPLINE_CURVE_WITH_KNOTS ( 'NONE', 3,
 ( #561, #97, #521, #267, #485, #272, #480, #557 ),
 .UNSPECIFIED., .F., .F.,
 ( 4, 2, 2, 4 ),
 ( 0.01485345774306975376, 0.01548583974386941002, 0.01611822174466906801, 0.01738298574626838053 ),
 .UNSPECIFIED. ) ;
#78 = DIRECTION ( 'NONE',  ( 0.000000000000000000, 0.000000000000000000, -1.000000000000000000 ) ) ;
#79 = CARTESIAN_POINT ( 'NONE',  ( 0.000000000000000000, 0.000000000000000000, 49.75991914209797784 ) ) ;
#80 = APPROVAL_DATE_TIME ( #297, #383 ) ;
#81 = CARTESIAN_POINT ( 'NONE',  ( -1.587500000000000133, 1.061532360077855230, -49.81140206829356032 ) ) ;
#82 = EDGE_LOOP ( 'NONE', ( #142, #91, #301, #184 ) ) ;
#83 = AXIS2_PLACEMENT_3D ( 'NONE', #168, #128, #344 ) ;
#84 = APPLICATION_CONTEXT ( 'configuration controlled 3d designs of mechanical parts and assemblies' ) ;
#85 = CARTESIAN_POINT ( 'NONE',  ( -1.587500000000000355, 1.944126793646423534E-16, -49.88322736169286742 ) ) ;
#86 = CARTESIAN_POINT ( 'NONE',  ( 1.587500000000000355, 0.4276219574846453209, 49.87699639200008761 ) ) ;
#87 = ORIENTED_EDGE ( 'NONE', *, *, #13, .F. ) ;
#88 = PERSON_AND_ORGANIZATION_ROLE ( 'creator' ) ;
#89 = CARTESIAN_POINT ( 'NONE',  ( 1.587500000000000355, 0.000000000000000000, -49.88322736169286742 ) ) ;
#90 =( GEOMETRIC_REPRESENTATION_CONTEXT ( 3 ) GLOBAL_UNCERTAINTY_ASSIGNED_CONTEXT ( ( #178 ) ) GLOBAL_UNIT_ASSIGNED_CONTEXT ( ( #387, #523, #346 ) ) REPRESENTATION_CONTEXT ( 'NONE', 'WORKASPACE' ) );
#91 = ORIENTED_EDGE ( 'NONE', *, *, #313, .T. ) ;
#92 = CARTESIAN_POINT ( 'NONE',  ( 1.587500000000000355, -1.061392899157110881, 49.81143677385166768 ) ) ;
#93 = ORIENTED_EDGE ( 'NONE', *, *, #526, .T. ) ;
#94 = DIRECTION ( 'NONE',  ( 0.000000000000000000, 0.000000000000000000, -1.000000000000000000 ) ) ;
#95 = ORIENTED_EDGE ( 'NONE', *, *, #380, .F. ) ;
#96 = APPROVAL_ROLE ( '' ) ;
#97 = CARTESIAN_POINT ( 'NONE',  ( 1.060147506033616072, 1.587500000000000355, -49.81174669625517026 ) ) ;
#98 = ORIENTED_EDGE ( 'NONE', *, *, #182, .F. ) ;
#99 = EDGE_CURVE ( 'NONE', #227, #4, #196, .T. ) ;
#100 = LINE ( 'NONE', #489, #126 ) ;
#101 = CARTESIAN_POINT ( 'NONE',  ( -1.245064030267288402, 2.006622987633880502E-16, -49.91099999999999426 ) ) ;
#102 = CARTESIAN_POINT ( 'NONE',  ( 0.000000000000000000, 0.000000000000000000, -49.91099999999999426 ) ) ;
#103 = ORGANIZATION ( 'UNSPECIFIED', 'UNSPECIFIED', '' ) ;
#104 = EDGE_CURVE ( 'NONE', #315, #210, #509, .T. ) ;
#105 = CARTESIAN_POINT ( 'NONE',  ( 0.000000000000000000, 0.000000000000000000, -49.91099999999999426 ) ) ;
#106 = CIRCLE ( 'NONE', #495, 2.124999999999995115 ) ;
#107 = AXIS2_PLACEMENT_3D ( 'NONE', #241, #235, #365 ) ;
#108 = CARTESIAN_POINT ( 'NONE',  ( 1.245064030267288402, 0.000000000000000000, -47.78600000000000136 ) ) ;
#109 = DIRECTION ( 'NONE',  ( -0.000000000000000000, -0.000000000000000000, 1.000000000000000000 ) ) ;
#110 = ORIENTED_EDGE ( 'NONE', *, *, #302, .F. ) ;
#111 = PLANE ( 'NONE',  #214 ) ;
#112 = FACE_OUTER_BOUND ( 'NONE', #342, .T. ) ;
#113 = B_SPLINE_CURVE_WITH_KNOTS ( 'NONE', 3,
 ( #258, #43, #475, #86, #171, #442 ),
 .UNSPECIFIED., .F., .F.,
 ( 4, 2, 4 ),
 ( 0.01485345774306975376, 0.01548163471194332480, 0.01610981168081689410 ),
 .UNSPECIFIED. ) ;
#114 = ADVANCED_FACE ( 'NONE', ( #321 ), #318, .T. ) ;
#115 = CYLINDRICAL_SURFACE ( 'NONE', #36, 2.032000000000000028 ) ;
#116 = DIRECTION ( 'NONE',  ( -1.000000000000000000, 0.000000000000000000, 0.000000000000000000 ) ) ;
#117 = ADVANCED_FACE ( 'NONE', ( #320 ), #353, .T. ) ;
#118 = ORIENTED_EDGE ( 'NONE', *, *, #319, .F. ) ;
#119 = DIRECTION ( 'NONE',  ( -0.000000000000000000, -0.000000000000000000, 1.000000000000000000 ) ) ;
#120 = CARTESIAN_POINT ( 'NONE',  ( 0.4219230645619450049, -1.587499999999999911, 49.87730730355361430 ) ) ;
#121 = APPLICATION_PROTOCOL_DEFINITION ( 'international standard', 'config_control_design', 1994, #84 ) ;
#122 = PERSON ( 'UNSPECIFIED', 'UNSPECIFIED', 'UNSPECIFIED', ('UNSPECIFIED'), ('UNSPECIFIED'), ('UNSPECIFIED') ) ;
#123 = EDGE_CURVE ( 'NONE', #538, #430, #333, .T. ) ;
#124 = ORIENTED_EDGE ( 'NONE', *, *, #371, .T. ) ;
#125 = APPLICATION_PROTOCOL_DEFINITION ( 'international standard', 'config_control_design', 1994, #54 ) ;
#126 = VECTOR ( 'NONE', #22, 1000.000000000000000 ) ;
#127 = APPROVAL_ROLE ( '' ) ;
#128 = DIRECTION ( 'NONE',  ( 0.000000000000000000, 0.000000000000000000, -1.000000000000000000 ) ) ;
#129 = ORIENTED_EDGE ( 'NONE', *, *, #147, .T. ) ;
#130 = PERSON_AND_ORGANIZATION ( #122, #103 ) ;
#131 = CARTESIAN_POINT ( 'NONE',  ( 1.268411506570323866, 1.587500000000000355, -49.91099999999999426 ) ) ;
#132 = EDGE_LOOP ( 'NONE', ( #290, #265, #358, #382, #486, #522, #312, #348 ) ) ;
#133 = APPROVAL_STATUS ( 'not_yet_approved' ) ;
#134 = CARTESIAN_POINT ( 'NONE',  ( -1.245064030267288402, 1.524763679400337895E-16, -47.78600000000000136 ) ) ;
#135 = LOCAL_TIME ( 14, 3, 9.000000000000000000, #520 ) ;
#136 = ORIENTED_EDGE ( 'NONE', *, *, #284, .F. ) ;
#137 = AXIS2_PLACEMENT_3D ( 'NONE', #451, #328, #66 ) ;
#138 = CARTESIAN_POINT ( 'NONE',  ( 1.587500000000000355, 0.000000000000000000, -49.88322736169286742 ) ) ;
#139 = VERTEX_POINT ( 'NONE', #363 ) ;
#140 = CARTESIAN_POINT ( 'NONE',  ( -1.060147506033615628, 1.587500000000000577, 49.81174669625518447 ) ) ;
#141 = EDGE_CURVE ( 'NONE', #1, #293, #106, .T. ) ;
#142 = ORIENTED_EDGE ( 'NONE', *, *, #393, .F. ) ;
#143 = CC_DESIGN_PERSON_AND_ORGANIZATION_ASSIGNMENT ( #130, #256, ( #53 ) ) ;
#144 = CARTESIAN_POINT ( 'NONE',  ( 1.268411506570323866, -1.587500000000000355, -49.75991914209797784 ) ) ;
#145 = CARTESIAN_POINT ( 'NONE',  ( 1.268411506570323866, -1.587500000000000355, 49.75991914209797784 ) ) ;
#146 = ORIENTED_EDGE ( 'NONE', *, *, #444, .F. ) ;
#147 = EDGE_CURVE ( 'NONE', #445, #139, #278, .T. ) ;
#148 = CARTESIAN_POINT ( 'NONE',  ( 0.8571092511719591300, 1.587500000000000355, 49.86227379706276963 ) ) ;
#149 = ORIENTED_EDGE ( 'NONE', *, *, #319, .T. ) ;
#150 = LINE ( 'NONE', #327, #264 ) ;
#151 = VERTEX_POINT ( 'NONE', #201 ) ;
#152 = FACE_OUTER_BOUND ( 'NONE', #397, .T. ) ;
#153 = CARTESIAN_POINT ( 'NONE',  ( -1.587500000000000355, -1.268411506570323866, -49.75991914209797784 ) ) ;
#154 = EDGE_CURVE ( 'NONE', #338, #466, #242, .T. ) ;
#155 = DIRECTION ( 'NONE',  ( -0.000000000000000000, -0.000000000000000000, 1.000000000000000000 ) ) ;
#156 = CARTESIAN_POINT ( 'NONE',  ( -1.587500000000000355, -1.061392899157111325, -49.81143677385166058 ) ) ;
#157 = CARTESIAN_POINT ( 'NONE',  ( -1.587500000000000355, 1.268411506570323866, -49.75991914209797784 ) ) ;
#158 = CC_DESIGN_APPROVAL ( #6, ( #406 ) ) ;
#159 = CIRCLE ( 'NONE', #63, 1.245064030267288402 ) ;
#160 = CARTESIAN_POINT ( 'NONE',  ( 0.8486262390323799920, -1.587500000000000799, 49.84176882282395837 ) ) ;
#161 = PERSON_AND_ORGANIZATION ( #122, #103 ) ;
#162 = DIRECTION ( 'NONE',  ( 0.000000000000000000, 0.000000000000000000, -1.000000000000000000 ) ) ;
#163 = VERTEX_POINT ( 'NONE', #245 ) ;
#164 = DIRECTION ( 'NONE',  ( 1.000000000000000000, 0.000000000000000000, 0.000000000000000000 ) ) ;
#165 = CARTESIAN_POINT ( 'NONE',  ( -1.587500000000000133, 0.2143109880596213990, 49.88322736169285321 ) ) ;
#166 = ORIENTED_EDGE ( 'NONE', *, *, #257, .F. ) ;
#167 = DATE_AND_TIME ( #384, #135 ) ;
#168 = CARTESIAN_POINT ( 'NONE',  ( -1.587500000000000355, 1.587500000000000355, 49.91099999999999426 ) ) ;
#169 = VECTOR ( 'NONE', #355, 1000.000000000000000 ) ;
#170 = ORIENTED_EDGE ( 'NONE', *, *, #526, .F. ) ;
#171 = CARTESIAN_POINT ( 'NONE',  ( 1.587500000000000355, 0.2114796877013868093, 49.88322736169286031 ) ) ;
#172 = ORIENTED_EDGE ( 'NONE', *, *, #502, .F. ) ;
#173 = ADVANCED_FACE ( 'NONE', ( #112 ), #26, .T. ) ;
#174 = COORDINATED_UNIVERSAL_TIME_OFFSET ( 6, 0, .BEHIND. ) ;
#175 = CARTESIAN_POINT ( 'NONE',  ( 1.587500000000000133, 0.2143109880596213990, -49.88322736169285321 ) ) ;
#176 = ORIENTED_EDGE ( 'NONE', *, *, #141, .F. ) ;
#177 = FACE_OUTER_BOUND ( 'NONE', #7, .T. ) ;
#178 = UNCERTAINTY_MEASURE_WITH_UNIT (LENGTH_MEASURE( 1.000000000000000082E-05 ), #387, 'distance_accuracy_value', 'NONE');
#179 = ORIENTED_EDGE ( 'NONE', *, *, #551, .T. ) ;
#180 = CALENDAR_DATE ( 2022, 6, 6 ) ;
#181 = AXIS2_PLACEMENT_3D ( 'NONE', #369, #507, #191 ) ;
#182 = EDGE_CURVE ( 'NONE', #76, #538, #468, .T. ) ;
#183 = DIRECTION ( 'NONE',  ( 0.000000000000000000, 0.000000000000000000, -1.000000000000000000 ) ) ;
#184 = ORIENTED_EDGE ( 'NONE', *, *, #404, .T. ) ;
#185 = ORIENTED_EDGE ( 'NONE', *, *, #371, .F. ) ;
#186 = CARTESIAN_POINT ( 'NONE',  ( -1.587500000000000355, -0.2114796877013868093, 49.88322736169286031 ) ) ;
#187 = CIRCLE ( 'NONE', #62, 1.245064030267288402 ) ;
#188 = CIRCLE ( 'NONE', #137, 2.032000000000000028 ) ;
#189 = DIRECTION ( 'NONE',  ( 1.000000000000000000, 0.000000000000000000, 0.000000000000000000 ) ) ;
#190 = PRODUCT ( '228-2500-124', '228-2500-124', '', ( #559 ) ) ;
#191 = DIRECTION ( 'NONE',  ( 1.000000000000000000, 0.000000000000000000, 0.000000000000000000 ) ) ;
#192 = CARTESIAN_POINT ( 'NONE',  ( -1.587500000000000355, -1.944126793646423534E-16, 49.88322736169286742 ) ) ;
#193 = CARTESIAN_POINT ( 'NONE',  ( -1.587500000000000355, -1.268411506570323866, 49.75991914209797784 ) ) ;
#194 = CARTESIAN_POINT ( 'NONE',  ( -1.268411506570323866, -1.587500000000000355, -49.75991914209797784 ) ) ;
#195 = CARTESIAN_POINT ( 'NONE',  ( 1.587500000000000355, 0.000000000000000000, 49.88322736169286742 ) ) ;
#196 = CIRCLE ( 'NONE', #450, 2.032000000000000028 ) ;
#197 = CARTESIAN_POINT ( 'NONE',  ( -0.8486262390323815463, -1.587500000000000355, -49.84176882282395127 ) ) ;
#198 = DIRECTION ( 'NONE',  ( -1.000000000000000000, 0.000000000000000000, -0.000000000000000000 ) ) ;
#199 = CARTESIAN_POINT ( 'NONE',  ( 1.587500000000000355, -1.268411506570324088, 49.75991914209797784 ) ) ;
#200 = CARTESIAN_POINT ( 'NONE',  ( 0.000000000000000000, 0.000000000000000000, 49.91099999999999426 ) ) ;
#201 = CARTESIAN_POINT ( 'NONE',  ( -1.587500000000000355, 1.268411506570324088, 49.75991914209797784 ) ) ;
#202 = VERTEX_POINT ( 'NONE', #199 ) ;
#203 = DIRECTION ( 'NONE',  ( 1.000000000000000000, 1.224646799147353207E-16, 0.000000000000000000 ) ) ;
#204 = AXIS2_PLACEMENT_3D ( 'NONE', #102, #540, #279 ) ;
#205 = VECTOR ( 'NONE', #280, 1000.000000000000000 ) ;
#206 = FACE_OUTER_BOUND ( 'NONE', #436, .T. ) ;
#207 = CC_DESIGN_PERSON_AND_ORGANIZATION_ASSIGNMENT ( #161, #88, ( #477 ) ) ;
#208 = PERSON_AND_ORGANIZATION ( #122, #103 ) ;
#209 = CARTESIAN_POINT ( 'NONE',  ( 1.245064030267288402, 0.000000000000000000, 47.78600000000000136 ) ) ;
#210 = VERTEX_POINT ( 'NONE', #503 ) ;
#211 = CALENDAR_DATE ( 2022, 6, 6 ) ;
#212 = PLANE ( 'NONE',  #479 ) ;
#213 = DATE_TIME_ROLE ( 'classification_date' ) ;
#214 = AXIS2_PLACEMENT_3D ( 'NONE', #286, #457, #198 ) ;
#215 = CARTESIAN_POINT ( 'NONE',  ( 1.587500000000000355, 0.000000000000000000, 49.88322736169286742 ) ) ;
#216 = ORIENTED_EDGE ( 'NONE', *, *, #13, .T. ) ;
#217 = PERSON_AND_ORGANIZATION_ROLE ( 'creator' ) ;
#218 = CARTESIAN_POINT ( 'NONE',  ( 1.587500000000000355, 0.8513200635100126590, -49.84137755531811109 ) ) ;
#219 = ORIENTED_EDGE ( 'NONE', *, *, #20, .F. ) ;
#220 = CARTESIAN_POINT ( 'NONE',  ( 1.587500000000000355, 1.061392899157111325, -49.81143677385166058 ) ) ;
#221 = ORIENTED_EDGE ( 'NONE', *, *, #147, .F. ) ;
#222 = ADVANCED_FACE ( 'NONE', ( #458 ), #55, .T. ) ;
#223 = CARTESIAN_POINT ( 'NONE',  ( 1.587500000000000355, -1.268411506570324088, 49.75991914209797784 ) ) ;
#224 = AXIS2_PLACEMENT_3D ( 'NONE', #2, #261, #203 ) ;
#225 = EDGE_LOOP ( 'NONE', ( #324, #149, #179, #360 ) ) ;
#226 = CIRCLE ( 'NONE', #16, 2.032000000000000028 ) ;
#227 = VERTEX_POINT ( 'NONE', #339 ) ;
#228 = APPROVAL_DATE_TIME ( #400, #491 ) ;
#229 = CARTESIAN_POINT ( 'NONE',  ( 1.587500000000000355, -1.268411506570323866, -49.91099999999999426 ) ) ;
#230 = CARTESIAN_POINT ( 'NONE',  ( -1.587500000000000355, 1.587500000000000355, 49.91099999999999426 ) ) ;
#231 = CC_DESIGN_APPROVAL ( #491, ( #53 ) ) ;
#232 = CIRCLE ( 'NONE', #469, 2.124999999999995115 ) ;
#233 = DIRECTION ( 'NONE',  ( 1.000000000000000000, 0.000000000000000000, 0.000000000000000000 ) ) ;
#234 = CARTESIAN_POINT ( 'NONE',  ( -1.587500000000000355, -1.268411506570323866, 49.75991914209797784 ) ) ;
#235 = DIRECTION ( 'NONE',  ( 0.000000000000000000, 1.000000000000000000, 0.000000000000000000 ) ) ;
#236 = ORIENTED_EDGE ( 'NONE', *, *, #448, .F. ) ;
#237 = EDGE_CURVE ( 'NONE', #60, #76, #19, .T. ) ;
#238 = DIRECTION ( 'NONE',  ( -0.000000000000000000, -0.000000000000000000, 1.000000000000000000 ) ) ;
#239 = EDGE_LOOP ( 'NONE', ( #372, #308, #476, #433 ) ) ;
#240 = EDGE_CURVE ( 'NONE', #473, #246, #415, .T. ) ;
#241 = CARTESIAN_POINT ( 'NONE',  ( -1.587500000000000355, -1.587500000000000355, 49.91099999999999426 ) ) ;
#242 = CIRCLE ( 'NONE', #8, 2.124999999999995115 ) ;
#243 = CARTESIAN_POINT ( 'NONE',  ( -0.8571092511719591300, -1.587500000000000355, 49.86227379706276963 ) ) ;
#244 = CARTESIAN_POINT ( 'NONE',  ( -1.587500000000000355, -1.944126793646423534E-16, 49.88322736169286742 ) ) ;
#245 = CARTESIAN_POINT ( 'NONE',  ( -1.268411506570323866, 1.587500000000000355, 49.75991914209797784 ) ) ;
#246 = VERTEX_POINT ( 'NONE', #418 ) ;
#247 = PERSON_AND_ORGANIZATION ( #122, #103 ) ;
#248 = CARTESIAN_POINT ( 'NONE',  ( 1.587500000000000133, -1.061532360077855230, -49.81140206829356032 ) ) ;
#249 = DATE_TIME_ROLE ( 'creation_date' ) ;
#250 = VECTOR ( 'NONE', #14, 1000.000000000000000 ) ;
#251 = CIRCLE ( 'NONE', #408, 1.245064030267288402 ) ;
#252 = CARTESIAN_POINT ( 'NONE',  ( 1.587500000000000355, -1.268411506570323866, -49.75991914209797784 ) ) ;
#253 = CARTESIAN_POINT ( 'NONE',  ( 0.000000000000000000, 0.000000000000000000, 0.000000000000000000 ) ) ;
#254 = CARTESIAN_POINT ( 'NONE',  ( -1.587500000000000355, 0.4276219574846453209, -49.87699639200008761 ) ) ;
#255 = ORIENTED_EDGE ( 'NONE', *, *, #99, .T. ) ;
#256 = PERSON_AND_ORGANIZATION_ROLE ( 'classification_officer' ) ;
#257 = EDGE_CURVE ( 'NONE', #11, #293, #532, .T. ) ;
#258 = CARTESIAN_POINT ( 'NONE',  ( 1.587500000000000355, 1.268411506570323866, 49.75991914209797784 ) ) ;
#259 = ORIENTED_EDGE ( 'NONE', *, *, #530, .F. ) ;
#260 = CC_DESIGN_PERSON_AND_ORGANIZATION_ASSIGNMENT ( #392, #424, ( #406 ) ) ;
#261 = DIRECTION ( 'NONE',  ( 1.224646799147353207E-16, -1.000000000000000000, 0.000000000000000000 ) ) ;
#262 = AXIS2_PLACEMENT_3D ( 'NONE', #253, #306, #164 ) ;
#263 = CARTESIAN_POINT ( 'NONE',  ( -1.587500000000000355, 1.268411506570323866, -49.91099999999999426 ) ) ;
#264 = VECTOR ( 'NONE', #539, 1000.000000000000000 ) ;
#265 = ORIENTED_EDGE ( 'NONE', *, *, #417, .F. ) ;
#266 = APPROVAL_STATUS ( 'not_yet_approved' ) ;
#267 = CARTESIAN_POINT ( 'NONE',  ( 0.4219230645619471698, 1.587500000000000133, -49.87730730355362141 ) ) ;
#268 = ORIENTED_EDGE ( 'NONE', *, *, #323, .F. ) ;
#269 = CC_DESIGN_DATE_AND_TIME_ASSIGNMENT ( #42, #213, ( #53 ) ) ;
#270 = CYLINDRICAL_SURFACE ( 'NONE', #311, 2.032000000000000028 ) ;
#271 = ORIENTED_EDGE ( 'NONE', *, *, #237, .T. ) ;
#272 = CARTESIAN_POINT ( 'NONE',  ( -0.4342314039556042782, 1.587500000000000355, -49.88285171744314539 ) ) ;
#273 = ORIENTED_EDGE ( 'NONE', *, *, #240, .T. ) ;
#274 = CARTESIAN_POINT ( 'NONE',  ( -1.587500000000000577, -0.8514389605504935066, 49.84136751577921842 ) ) ;
#275 = ADVANCED_FACE ( 'NONE', ( #206 ), #426, .F. ) ;
#276 = EDGE_LOOP ( 'NONE', ( #118, #129, #525, #510, #506, #402 ) ) ;
#277 = B_SPLINE_CURVE_WITH_KNOTS ( 'NONE', 3,
 ( #89, #175, #390, #218, #220, #528 ),
 .UNSPECIFIED., .F., .F.,
 ( 4, 2, 4 ),
 ( 0.000000000000000000, 0.0006365870327257439716, 0.001273174065451487943 ),
 .UNSPECIFIED. ) ;
#278 = B_SPLINE_CURVE_WITH_KNOTS ( 'NONE', 3,
 ( #422, #81, #505, #254, #513, #555 ),
 .UNSPECIFIED., .F., .F.,
 ( 4, 2, 4 ),
 ( 0.01485345774306975376, 0.01548163471194332480, 0.01610981168081689410 ),
 .UNSPECIFIED. ) ;
#279 = DIRECTION ( 'NONE',  ( 1.000000000000000000, 0.000000000000000000, 0.000000000000000000 ) ) ;
#280 = DIRECTION ( 'NONE',  ( -0.000000000000000000, -0.000000000000000000, 1.000000000000000000 ) ) ;
#281 = CARTESIAN_POINT ( 'NONE',  ( 0.8571092511719562435, -1.587500000000000799, -49.86227379706278384 ) ) ;
#282 = EDGE_CURVE ( 'NONE', #430, #151, #547, .T. ) ;
#283 = CARTESIAN_POINT ( 'NONE',  ( 1.268411506570324088, 1.587500000000000355, 49.75991914209797784 ) ) ;
#284 = EDGE_CURVE ( 'NONE', #139, #463, #492, .T. ) ;
#285 = CARTESIAN_POINT ( 'NONE',  ( 0.000000000000000000, 0.000000000000000000, -49.75991914209797784 ) ) ;
#286 = CARTESIAN_POINT ( 'NONE',  ( -1.587500000000000355, 1.587500000000000355, -49.91099999999999426 ) ) ;
#287 = PRODUCT_DEFINITION_SHAPE ( 'NONE', 'NONE',  #477 ) ;
#288 = CARTESIAN_POINT ( 'NONE',  ( 0.000000000000000000, 0.000000000000000000, -47.78600000000000136 ) ) ;
#289 = APPROVAL_PERSON_ORGANIZATION ( #247, #6, #127 ) ;
#290 = ORIENTED_EDGE ( 'NONE', *, *, #556, .F. ) ;
#291 = PLANE ( 'NONE',  #107 ) ;
#292 = CARTESIAN_POINT ( 'NONE',  ( 1.587500000000000355, -0.2114796877013868093, -49.88322736169286031 ) ) ;
#293 = VERTEX_POINT ( 'NONE', #138 ) ;
#294 = CARTESIAN_POINT ( 'NONE',  ( 0.000000000000000000, 0.000000000000000000, -49.91099999999999426 ) ) ;
#295 = CARTESIAN_POINT ( 'NONE',  ( 0.2043756380772887293, -1.587500000000000133, 49.88340961896377479 ) ) ;
#296 = DIRECTION ( 'NONE',  ( 0.000000000000000000, -1.000000000000000000, 0.000000000000000000 ) ) ;
#297 = DATE_AND_TIME ( #211, #71 ) ;
#298 = CIRCLE ( 'NONE', #388, 2.032000000000000028 ) ;
#299 = AXIS2_PLACEMENT_3D ( 'NONE', #337, #550, #330 ) ;
#300 = CARTESIAN_POINT ( 'NONE',  ( -1.587500000000000355, 0.8513200635100126590, 49.84137755531811109 ) ) ;
#301 = ORIENTED_EDGE ( 'NONE', *, *, #423, .F. ) ;
#302 = EDGE_CURVE ( 'NONE', #293, #227, #277, .T. ) ;
#303 = SECURITY_CLASSIFICATION_LEVEL ( 'unclassified' ) ;
#304 = PLANE ( 'NONE',  #83 ) ;
#305 = ORIENTED_EDGE ( 'NONE', *, *, #313, .F. ) ;
#306 = DIRECTION ( 'NONE',  ( 0.000000000000000000, 0.000000000000000000, 1.000000000000000000 ) ) ;
#307 = CARTESIAN_POINT ( 'NONE',  ( -1.268411506570323866, -1.587500000000000355, -49.75991914209797784 ) ) ;
#308 = ORIENTED_EDGE ( 'NONE', *, *, #444, .T. ) ;
#309 = CIRCLE ( 'NONE', #34, 2.032000000000000028 ) ;
#310 = DIRECTION ( 'NONE',  ( 1.224646799147353207E-16, 1.000000000000000000, 0.000000000000000000 ) ) ;
#311 = AXIS2_PLACEMENT_3D ( 'NONE', #439, #352, #398 ) ;
#312 = ORIENTED_EDGE ( 'NONE', *, *, #551, .F. ) ;
#313 = EDGE_CURVE ( 'NONE', #4, #484, #77, .T. ) ;
#314 = CARTESIAN_POINT ( 'NONE',  ( 1.268411506570323866, -1.587500000000000355, -49.91099999999999426 ) ) ;
#315 = VERTEX_POINT ( 'NONE', #307 ) ;
#316 = CARTESIAN_POINT ( 'NONE',  ( -0.8486262390323799920, 1.587500000000000799, 49.84176882282395837 ) ) ;
#317 = EDGE_LOOP ( 'NONE', ( #45, #395 ) ) ;
#318 = CYLINDRICAL_SURFACE ( 'NONE', #204, 2.032000000000000028 ) ;
#319 = EDGE_CURVE ( 'NONE', #445, #151, #394, .T. ) ;
#320 = FACE_OUTER_BOUND ( 'NONE', #518, .T. ) ;
#321 = FACE_OUTER_BOUND ( 'NONE', #239, .T. ) ;
#322 = CARTESIAN_POINT ( 'NONE',  ( 0.000000000000000000, 0.000000000000000000, 49.75991914209797784 ) ) ;
#323 = EDGE_CURVE ( 'NONE', #60, #210, #51, .T. ) ;
#324 = ORIENTED_EDGE ( 'NONE', *, *, #380, .T. ) ;
#325 = AXIS2_PLACEMENT_3D ( 'NONE', #32, #420, #508 ) ;
#326 = B_SPLINE_CURVE_WITH_KNOTS ( 'NONE', 3,
 ( #9, #140, #316, #413, #453, #70, #148, #545 ),
 .UNSPECIFIED., .F., .F.,
 ( 4, 2, 2, 4 ),
 ( 0.01485345774306975376, 0.01548583974386941176, 0.01611822174466906801, 0.01738298574626838400 ),
 .UNSPECIFIED. ) ;
#327 = CARTESIAN_POINT ( 'NONE',  ( -1.587500000000000355, -1.268411506570323866, -49.91099999999999426 ) ) ;
#328 = DIRECTION ( 'NONE',  ( -0.000000000000000000, -0.000000000000000000, 1.000000000000000000 ) ) ;
#329 = CYLINDRICAL_SURFACE ( 'NONE', #336, 2.032000000000000028 ) ;
#330 = DIRECTION ( 'NONE',  ( -1.000000000000000000, 0.000000000000000000, 0.000000000000000000 ) ) ;
#331 = LINE ( 'NONE', #498, #205 ) ;
#332 = DIRECTION ( 'NONE',  ( 0.000000000000000000, 0.000000000000000000, 1.000000000000000000 ) ) ;
#333 = B_SPLINE_CURVE_WITH_KNOTS ( 'NONE', 3,
 ( #234, #361, #274, #410, #186, #192 ),
 .UNSPECIFIED., .F., .F.,
 ( 4, 2, 4 ),
 ( 0.01485345774306975376, 0.01548163471194332480, 0.01610981168081689410 ),
 .UNSPECIFIED. ) ;
#334 = LOCAL_TIME ( 14, 3, 9.000000000000000000, #174 ) ;
#335 = DIRECTION ( 'NONE',  ( 1.000000000000000000, 0.000000000000000000, 0.000000000000000000 ) ) ;
#336 = AXIS2_PLACEMENT_3D ( 'NONE', #409, #155, #548 ) ;
#337 = CARTESIAN_POINT ( 'NONE',  ( 0.000000000000000000, 0.000000000000000000, 49.75991914209797784 ) ) ;
#338 = VERTEX_POINT ( 'NONE', #517 ) ;
#339 = CARTESIAN_POINT ( 'NONE',  ( 1.587500000000000355, 1.268411506570323866, -49.75991914209797784 ) ) ;
#340 = EDGE_CURVE ( 'NONE', #246, #466, #113, .T. ) ;
#341 = CARTESIAN_POINT ( 'NONE',  ( -1.587500000000000577, 0.4277385810629846241, 49.87698654358312922 ) ) ;
#342 = EDGE_LOOP ( 'NONE', ( #405, #438, #27, #166, #87, #533, #172, #136 ) ) ;
#343 = DIRECTION ( 'NONE',  ( -1.000000000000000000, 0.000000000000000000, 0.000000000000000000 ) ) ;
#344 = DIRECTION ( 'NONE',  ( -1.000000000000000000, 0.000000000000000000, -0.000000000000000000 ) ) ;
#345 = ORIENTED_EDGE ( 'NONE', *, *, #154, .F. ) ;
#346 =( NAMED_UNIT ( * ) SI_UNIT ( $, .STERADIAN. ) SOLID_ANGLE_UNIT ( ) );
#347 = DIRECTION ( 'NONE',  ( 1.000000000000000000, 0.000000000000000000, 0.000000000000000000 ) ) ;
#348 = ORIENTED_EDGE ( 'NONE', *, *, #282, .F. ) ;
#349 = APPROVAL_DATE_TIME ( #167, #6 ) ;
#350 = CARTESIAN_POINT ( 'NONE',  ( 1.587500000000000355, -0.2143109880596213712, 49.88322736169286031 ) ) ;
#351 = ORIENTED_EDGE ( 'NONE', *, *, #104, .T. ) ;
#352 = DIRECTION ( 'NONE',  ( -0.000000000000000000, -0.000000000000000000, 1.000000000000000000 ) ) ;
#353 = TOROIDAL_SURFACE ( 'NONE', #488, 1.245064030267288402, 2.124999999999995115 ) ;
#354 = ORIENTED_EDGE ( 'NONE', *, *, #237, .F. ) ;
#355 = DIRECTION ( 'NONE',  ( -0.000000000000000000, -0.000000000000000000, 1.000000000000000000 ) ) ;
#356 = ORIENTED_EDGE ( 'NONE', *, *, #58, .F. ) ;
#357 = ADVANCED_FACE ( 'NONE', ( #47 ), #304, .F. ) ;
#358 = ORIENTED_EDGE ( 'NONE', *, *, #154, .T. ) ;
#359 = ADVANCED_FACE ( 'NONE', ( #3 ), #212, .F. ) ;
#360 = ORIENTED_EDGE ( 'NONE', *, *, #423, .T. ) ;
#361 = CARTESIAN_POINT ( 'NONE',  ( -1.587500000000000133, -1.061532360077855230, 49.81140206829356032 ) ) ;
#362 = CARTESIAN_POINT ( 'NONE',  ( 0.000000000000000000, 0.000000000000000000, 49.91099999999999426 ) ) ;
#363 = CARTESIAN_POINT ( 'NONE',  ( -1.587500000000000355, 1.944126793646423534E-16, -49.88322736169286742 ) ) ;
#364 = EDGE_CURVE ( 'NONE', #73, #139, #232, .T. ) ;
#365 = DIRECTION ( 'NONE',  ( 0.000000000000000000, -0.000000000000000000, 1.000000000000000000 ) ) ;
#366 = CARTESIAN_POINT ( 'NONE',  ( 1.587500000000000355, -1.268411506570323866, -49.75991914209797784 ) ) ;
#367 = CARTESIAN_POINT ( 'NONE',  ( 0.000000000000000000, 0.000000000000000000, 47.78600000000000136 ) ) ;
#368 = CARTESIAN_POINT ( 'NONE',  ( -1.587500000000000355, -0.8513200635100126590, -49.84137755531811109 ) ) ;
#369 = CARTESIAN_POINT ( 'NONE',  ( 0.000000000000000000, 0.000000000000000000, -49.75991914209797784 ) ) ;
#370 = CARTESIAN_POINT ( 'NONE',  ( -1.587500000000000355, 1.061392899157111325, 49.81143677385166058 ) ) ;
#371 = EDGE_CURVE ( 'NONE', #466, #202, #68, .T. ) ;
#372 = ORIENTED_EDGE ( 'NONE', *, *, #502, .T. ) ;
#373 = CARTESIAN_POINT ( 'NONE',  ( -1.268411506570323866, 1.587500000000000355, -49.75991914209797784 ) ) ;
#374 = DIRECTION ( 'NONE',  ( -0.000000000000000000, 1.000000000000000000, 0.000000000000000000 ) ) ;
#375 = ORIENTED_EDGE ( 'NONE', *, *, #556, .T. ) ;
#376 = CLOSED_SHELL ( 'NONE', ( #117, #222, #359, #500, #275, #39, #173, #519, #542, #357, #114, #483, #401, #474 ) ) ;
#377 = VECTOR ( 'NONE', #494, 1000.000000000000000 ) ;
#378 = CARTESIAN_POINT ( 'NONE',  ( 1.587500000000000355, -0.4276219574846453209, -49.87699639200008761 ) ) ;
#379 = DATE_AND_TIME ( #46, #334 ) ;
#380 = EDGE_CURVE ( 'NONE', #484, #445, #226, .T. ) ;
#381 = CARTESIAN_POINT ( 'NONE',  ( -1.587500000000000355, -1.944126793646423534E-16, 49.88322736169286742 ) ) ;
#382 = ORIENTED_EDGE ( 'NONE', *, *, #340, .F. ) ;
#383 = APPROVAL ( #512, 'UNSPECIFIED' ) ;
#384 = CALENDAR_DATE ( 2022, 6, 6 ) ;
#385 = DIRECTION ( 'NONE',  ( -1.000000000000000000, 1.224646799147353207E-16, 0.000000000000000000 ) ) ;
#386 = ORIENTED_EDGE ( 'NONE', *, *, #456, .F. ) ;
#387 =( LENGTH_UNIT ( ) NAMED_UNIT ( * ) SI_UNIT ( .MILLI., .METRE. ) );
#388 = AXIS2_PLACEMENT_3D ( 'NONE', #322, #67, #501 ) ;
#389 = AXIS2_PLACEMENT_3D ( 'NONE', #230, #64, #496 ) ;
#390 = CARTESIAN_POINT ( 'NONE',  ( 1.587500000000000577, 0.4277385810629840135, -49.87698654358312922 ) ) ;
#391 = ORIENTED_EDGE ( 'NONE', *, *, #99, .F. ) ;
#392 = PERSON_AND_ORGANIZATION ( #122, #103 ) ;
#393 = EDGE_CURVE ( 'NONE', #4, #473, #49, .T. ) ;
#394 = LINE ( 'NONE', #263, #169 ) ;
#395 = ORIENTED_EDGE ( 'NONE', *, *, #456, .T. ) ;
#396 = DIRECTION ( 'NONE',  ( -0.000000000000000000, -0.000000000000000000, 1.000000000000000000 ) ) ;
#397 = EDGE_LOOP ( 'NONE', ( #146, #351, #268, #271 ) ) ;
#398 = DIRECTION ( 'NONE',  ( 1.000000000000000000, 0.000000000000000000, 0.000000000000000000 ) ) ;
#399 = VERTEX_POINT ( 'NONE', #5 ) ;
#400 = DATE_AND_TIME ( #180, #44 ) ;
#401 = ADVANCED_FACE ( 'NONE', ( #177 ), #270, .T. ) ;
#402 = ORIENTED_EDGE ( 'NONE', *, *, #282, .T. ) ;
#403 = COORDINATED_UNIVERSAL_TIME_OFFSET ( 6, 0, .BEHIND. ) ;
#404 = EDGE_CURVE ( 'NONE', #163, #473, #326, .T. ) ;
#405 = ORIENTED_EDGE ( 'NONE', *, *, #364, .F. ) ;
#406 = PRODUCT_DEFINITION_FORMATION_WITH_SPECIFIED_SOURCE ( 'ANY', '', #190, .NOT_KNOWN. ) ;
#407 = CARTESIAN_POINT ( 'NONE',  ( -1.060147506033616072, -1.587500000000000355, -49.81174669625517026 ) ) ;
#408 = AXIS2_PLACEMENT_3D ( 'NONE', #362, #30, #17 ) ;
#409 = CARTESIAN_POINT ( 'NONE',  ( 0.000000000000000000, 0.000000000000000000, -49.91099999999999426 ) ) ;
#410 = CARTESIAN_POINT ( 'NONE',  ( -1.587500000000000355, -0.4276219574846453209, 49.87699639200008761 ) ) ;
#411 = CARTESIAN_POINT ( 'NONE',  ( 0.000000000000000000, 0.000000000000000000, -49.91099999999999426 ) ) ;
#412 = CARTESIAN_POINT ( 'NONE',  ( -1.268411506570324088, -1.587500000000000355, 49.75991914209797784 ) ) ;
#413 = CARTESIAN_POINT ( 'NONE',  ( -0.4219230645619450049, 1.587499999999999911, 49.87730730355361430 ) ) ;
#414 = DIRECTION ( 'NONE',  ( 1.000000000000000000, 0.000000000000000000, 0.000000000000000000 ) ) ;
#415 = CIRCLE ( 'NONE', #443, 2.032000000000000028 ) ;
#416 = DIRECTION ( 'NONE',  ( 0.000000000000000000, 0.000000000000000000, -1.000000000000000000 ) ) ;
#417 = EDGE_CURVE ( 'NONE', #338, #399, #159, .T. ) ;
#418 = CARTESIAN_POINT ( 'NONE',  ( 1.587500000000000355, 1.268411506570323866, 49.75991914209797784 ) ) ;
#419 = PRODUCT_RELATED_PRODUCT_CATEGORY ( 'detail', '', ( #190 ) ) ;
#420 = DIRECTION ( 'NONE',  ( -0.000000000000000000, -0.000000000000000000, 1.000000000000000000 ) ) ;
#421 = PERSON_AND_ORGANIZATION_ROLE ( 'design_owner' ) ;
#422 = CARTESIAN_POINT ( 'NONE',  ( -1.587500000000000355, 1.268411506570323866, -49.75991914209797784 ) ) ;
#423 = EDGE_CURVE ( 'NONE', #163, #484, #65, .T. ) ;
#424 = PERSON_AND_ORGANIZATION_ROLE ( 'design_supplier' ) ;
#425 = CIRCLE ( 'NONE', #181, 2.032000000000000028 ) ;
#426 = PLANE ( 'NONE',  #516 ) ;
#427 = ORIENTED_EDGE ( 'NONE', *, *, #123, .F. ) ;
#428 = COORDINATED_UNIVERSAL_TIME_OFFSET ( 6, 0, .BEHIND. ) ;
#429 = CARTESIAN_POINT ( 'NONE',  ( -1.587500000000000133, -0.2143109880596212047, -49.88322736169285321 ) ) ;
#430 = VERTEX_POINT ( 'NONE', #244 ) ;
#431 = CALENDAR_DATE ( 2022, 6, 6 ) ;
#432 = CARTESIAN_POINT ( 'NONE',  ( 0.000000000000000000, 0.000000000000000000, -49.75991914209797784 ) ) ;
#433 = ORIENTED_EDGE ( 'NONE', *, *, #441, .T. ) ;
#434 = VECTOR ( 'NONE', #396, 1000.000000000000000 ) ;
#435 = DESIGN_CONTEXT ( 'detailed design', #84, 'design' ) ;
#436 = EDGE_LOOP ( 'NONE', ( #219, #38, #440, #356, #50, #124 ) ) ;
#437 = DIRECTION ( 'NONE',  ( -0.000000000000000000, -0.000000000000000000, 1.000000000000000000 ) ) ;
#438 = ORIENTED_EDGE ( 'NONE', *, *, #448, .T. ) ;
#439 = CARTESIAN_POINT ( 'NONE',  ( 0.000000000000000000, 0.000000000000000000, -49.91099999999999426 ) ) ;
#440 = ORIENTED_EDGE ( 'NONE', *, *, #302, .T. ) ;
#441 = EDGE_CURVE ( 'NONE', #538, #463, #150, .T. ) ;
#442 = CARTESIAN_POINT ( 'NONE',  ( 1.587500000000000355, 0.000000000000000000, 49.88322736169286742 ) ) ;
#443 = AXIS2_PLACEMENT_3D ( 'NONE', #79, #29, #116 ) ;
#444 = EDGE_CURVE ( 'NONE', #315, #76, #331, .T. ) ;
#445 = VERTEX_POINT ( 'NONE', #157 ) ;
#446 = CARTESIAN_POINT ( 'NONE',  ( 0.000000000000000000, 0.000000000000000000, 47.78600000000000136 ) ) ;
#447 = FACE_OUTER_BOUND ( 'NONE', #82, .T. ) ;
#448 = EDGE_CURVE ( 'NONE', #73, #1, #527, .T. ) ;
#449 = CC_DESIGN_SECURITY_CLASSIFICATION ( #53, ( #406 ) ) ;
#450 = AXIS2_PLACEMENT_3D ( 'NONE', #285, #499, #414 ) ;
#451 = CARTESIAN_POINT ( 'NONE',  ( 0.000000000000000000, 0.000000000000000000, -49.75991914209797784 ) ) ;
#452 = VECTOR ( 'NONE', #183, 1000.000000000000000 ) ;
#453 = CARTESIAN_POINT ( 'NONE',  ( -0.2043756380772887293, 1.587500000000000133, 49.88340961896377479 ) ) ;
#454 = CARTESIAN_POINT ( 'NONE',  ( -1.268411506570323866, 1.587500000000000355, -49.91099999999999426 ) ) ;
#455 = CARTESIAN_POINT ( 'NONE',  ( -0.4219230645619471698, -1.587500000000000133, -49.87730730355362141 ) ) ;
#456 = EDGE_CURVE ( 'NONE', #399, #338, #251, .T. ) ;
#457 = DIRECTION ( 'NONE',  ( 0.000000000000000000, 0.000000000000000000, -1.000000000000000000 ) ) ;
#458 = FACE_OUTER_BOUND ( 'NONE', #481, .T. ) ;
#459 = TOROIDAL_SURFACE ( 'NONE', #549, 1.245064030267288402, 2.124999999999995115 ) ;
#460 = ORIENTED_EDGE ( 'NONE', *, *, #530, .T. ) ;
#461 = FACE_OUTER_BOUND ( 'NONE', #132, .T. ) ;
#462 = DIRECTION ( 'NONE',  ( -1.000000000000000000, 0.000000000000000000, 0.000000000000000000 ) ) ;
#463 = VERTEX_POINT ( 'NONE', #21 ) ;
#464 = COORDINATED_UNIVERSAL_TIME_OFFSET ( 6, 0, .BEHIND. ) ;
#465 = DIRECTION ( 'NONE',  ( 0.000000000000000000, 0.000000000000000000, 1.000000000000000000 ) ) ;
#466 = VERTEX_POINT ( 'NONE', #195 ) ;
#467 = CARTESIAN_POINT ( 'NONE',  ( 1.060147506033615628, -1.587500000000000577, 49.81174669625518447 ) ) ;
#468 = CIRCLE ( 'NONE', #299, 2.032000000000000028 ) ;
#469 = AXIS2_PLACEMENT_3D ( 'NONE', #134, #310, #385 ) ;
#470 = CARTESIAN_POINT ( 'NONE',  ( -1.587500000000000355, 1.268411506570324088, 49.75991914209797784 ) ) ;
#471 = PERSON_AND_ORGANIZATION ( #122, #103 ) ;
#472 = CARTESIAN_POINT ( 'NONE',  ( 1.587500000000000355, -0.8513200635100126590, 49.84137755531810399 ) ) ;
#473 = VERTEX_POINT ( 'NONE', #283 ) ;
#474 = ADVANCED_FACE ( 'NONE', ( #504 ), #329, .T. ) ;
#475 = CARTESIAN_POINT ( 'NONE',  ( 1.587500000000000577, 0.8514389605504935066, 49.84136751577921842 ) ) ;
#476 = ORIENTED_EDGE ( 'NONE', *, *, #182, .T. ) ;
#477 = PRODUCT_DEFINITION ( 'UNKNOWN', '', #406, #435 ) ;
#478 = LOCAL_TIME ( 14, 3, 9.000000000000000000, #464 ) ;
#479 = AXIS2_PLACEMENT_3D ( 'NONE', #531, #482, #94 ) ;
#480 = CARTESIAN_POINT ( 'NONE',  ( -0.8571092511719562435, 1.587500000000000799, -49.86227379706278384 ) ) ;
#481 = EDGE_LOOP ( 'NONE', ( #93, #552, #221, #95, #305, #391, #110, #176 ) ) ;
#482 = DIRECTION ( 'NONE',  ( 1.000000000000000000, 0.000000000000000000, 0.000000000000000000 ) ) ;
#483 = ADVANCED_FACE ( 'NONE', ( #541 ), #115, .T. ) ;
#484 = VERTEX_POINT ( 'NONE', #373 ) ;
#485 = CARTESIAN_POINT ( 'NONE',  ( 0.2043756380772883685, 1.587500000000000799, -49.88340961896379611 ) ) ;
#486 = ORIENTED_EDGE ( 'NONE', *, *, #240, .F. ) ;
#487 = APPROVAL_PERSON_ORGANIZATION ( #534, #491, #96 ) ;
#488 = AXIS2_PLACEMENT_3D ( 'NONE', #446, #490, #189 ) ;
#489 = CARTESIAN_POINT ( 'NONE',  ( 1.587500000000000355, 1.268411506570323866, -49.91099999999999426 ) ) ;
#490 = DIRECTION ( 'NONE',  ( 0.000000000000000000, 0.000000000000000000, -1.000000000000000000 ) ) ;
#491 = APPROVAL ( #266, 'UNSPECIFIED' ) ;
#492 = B_SPLINE_CURVE_WITH_KNOTS ( 'NONE', 3,
 ( #85, #429, #546, #368, #156, #153 ),
 .UNSPECIFIED., .F., .F.,
 ( 4, 2, 4 ),
 ( 1.905938025164284470E-19, 0.0006365870327257440800, 0.001273174065451487943 ),
 .UNSPECIFIED. ) ;
#493 = CARTESIAN_POINT ( 'NONE',  ( 1.268411506570323866, 1.587500000000000355, -49.75991914209797784 ) ) ;
#494 = DIRECTION ( 'NONE',  ( 0.000000000000000000, 0.000000000000000000, -1.000000000000000000 ) ) ;
#495 = AXIS2_PLACEMENT_3D ( 'NONE', #108, #296, #162 ) ;
#496 = DIRECTION ( 'NONE',  ( 0.000000000000000000, -0.000000000000000000, -1.000000000000000000 ) ) ;
#497 = AXIS2_PLACEMENT_3D ( 'NONE', #294, #109, #24 ) ;
#498 = CARTESIAN_POINT ( 'NONE',  ( -1.268411506570323866, -1.587500000000000355, -49.91099999999999426 ) ) ;
#499 = DIRECTION ( 'NONE',  ( -0.000000000000000000, -0.000000000000000000, 1.000000000000000000 ) ) ;
#500 = ADVANCED_FACE ( 'NONE', ( #152 ), #291, .F. ) ;
#501 = DIRECTION ( 'NONE',  ( -1.000000000000000000, 0.000000000000000000, 0.000000000000000000 ) ) ;
#502 = EDGE_CURVE ( 'NONE', #463, #315, #425, .T. ) ;
#503 = CARTESIAN_POINT ( 'NONE',  ( 1.268411506570323866, -1.587500000000000355, -49.75991914209797784 ) ) ;
#504 = FACE_OUTER_BOUND ( 'NONE', #225, .T. ) ;
#505 = CARTESIAN_POINT ( 'NONE',  ( -1.587500000000000577, 0.8514389605504935066, -49.84136751577921842 ) ) ;
#506 = ORIENTED_EDGE ( 'NONE', *, *, #123, .T. ) ;
#507 = DIRECTION ( 'NONE',  ( -0.000000000000000000, -0.000000000000000000, 1.000000000000000000 ) ) ;
#508 = DIRECTION ( 'NONE',  ( 1.000000000000000000, 0.000000000000000000, 0.000000000000000000 ) ) ;
#509 = B_SPLINE_CURVE_WITH_KNOTS ( 'NONE', 3,
 ( #194, #407, #197, #455, #69, #535, #281, #144 ),
 .UNSPECIFIED., .F., .F.,
 ( 4, 2, 2, 4 ),
 ( 0.01485345774306975376, 0.01548583974386941002, 0.01611822174466906801, 0.01738298574626838053 ),
 .UNSPECIFIED. ) ;
#510 = ORIENTED_EDGE ( 'NONE', *, *, #441, .F. ) ;
#511 = CARTESIAN_POINT ( 'NONE',  ( 1.587500000000000355, 0.000000000000000000, -49.88322736169286742 ) ) ;
#512 = APPROVAL_STATUS ( 'not_yet_approved' ) ;
#513 = CARTESIAN_POINT ( 'NONE',  ( -1.587500000000000355, 0.2114796877013868093, -49.88322736169286031 ) ) ;
#514 = ORIENTED_EDGE ( 'NONE', *, *, #393, .T. ) ;
#515 = APPROVAL_ROLE ( '' ) ;
#516 = AXIS2_PLACEMENT_3D ( 'NONE', #37, #462, #332 ) ;
#517 = CARTESIAN_POINT ( 'NONE',  ( 1.245064030267288402, 0.000000000000000000, 49.91099999999999426 ) ) ;
#518 = EDGE_LOOP ( 'NONE', ( #386, #375, #427, #98, #354, #259, #185, #345 ) ) ;
#519 = ADVANCED_FACE ( 'NONE', ( #461 ), #459, .T. ) ;
#520 = COORDINATED_UNIVERSAL_TIME_OFFSET ( 6, 0, .BEHIND. ) ;
#521 = CARTESIAN_POINT ( 'NONE',  ( 0.8486262390323815463, 1.587500000000000355, -49.84176882282395127 ) ) ;
#522 = ORIENTED_EDGE ( 'NONE', *, *, #404, .F. ) ;
#523 =( NAMED_UNIT ( * ) PLANE_ANGLE_UNIT ( ) SI_UNIT ( $, .RADIAN. ) );
#524 = CARTESIAN_POINT ( 'NONE',  ( 1.587500000000000577, -0.4277385810629841800, 49.87698654358312922 ) ) ;
#525 = ORIENTED_EDGE ( 'NONE', *, *, #284, .T. ) ;
#526 = EDGE_CURVE ( 'NONE', #1, #73, #187, .T. ) ;
#527 = CIRCLE ( 'NONE', #497, 1.245064030267288402 ) ;
#528 = CARTESIAN_POINT ( 'NONE',  ( 1.587500000000000355, 1.268411506570323866, -49.75991914209797784 ) ) ;
#529 = ORIENTED_EDGE ( 'NONE', *, *, #20, .T. ) ;
#530 = EDGE_CURVE ( 'NONE', #202, #60, #298, .T. ) ;
#531 = CARTESIAN_POINT ( 'NONE',  ( -1.587500000000000355, -1.587500000000000355, 49.91099999999999426 ) ) ;
#532 = B_SPLINE_CURVE_WITH_KNOTS ( 'NONE', 3,
 ( #252, #248, #35, #378, #292, #511 ),
 .UNSPECIFIED., .F., .F.,
 ( 4, 2, 4 ),
 ( 0.01485345774306975376, 0.01548163471194332480, 0.01610981168081689410 ),
 .UNSPECIFIED. ) ;
#533 = ORIENTED_EDGE ( 'NONE', *, *, #104, .F. ) ;
#534 = PERSON_AND_ORGANIZATION ( #122, #103 ) ;
#535 = CARTESIAN_POINT ( 'NONE',  ( 0.4342314039556042782, -1.587500000000000355, -49.88285171744314539 ) ) ;
#536 = APPROVAL_PERSON_ORGANIZATION ( #208, #383, #515 ) ;
#537 = PLANE ( 'NONE',  #389 ) ;
#538 = VERTEX_POINT ( 'NONE', #193 ) ;
#539 = DIRECTION ( 'NONE',  ( 0.000000000000000000, 0.000000000000000000, -1.000000000000000000 ) ) ;
#540 = DIRECTION ( 'NONE',  ( -0.000000000000000000, -0.000000000000000000, 1.000000000000000000 ) ) ;
#541 = FACE_OUTER_BOUND ( 'NONE', #52, .T. ) ;
#542 = ADVANCED_FACE ( 'NONE', ( #28 ), #111, .T. ) ;
#543 = DIRECTION ( 'NONE',  ( 1.000000000000000000, 0.000000000000000000, 0.000000000000000000 ) ) ;
#544 = CARTESIAN_POINT ( 'NONE',  ( -0.4342314039556041672, -1.587500000000000355, 49.88285171744313118 ) ) ;
#545 = CARTESIAN_POINT ( 'NONE',  ( 1.268411506570324088, 1.587500000000000355, 49.75991914209797784 ) ) ;
#546 = CARTESIAN_POINT ( 'NONE',  ( -1.587500000000000577, -0.4277385810629843466, -49.87698654358312922 ) ) ;
#547 = B_SPLINE_CURVE_WITH_KNOTS ( 'NONE', 3,
 ( #381, #165, #341, #300, #370, #470 ),
 .UNSPECIFIED., .F., .F.,
 ( 4, 2, 4 ),
 ( 1.905938025164284470E-19, 0.0006365870327257441884, 0.001273174065451488160 ),
 .UNSPECIFIED. ) ;
#548 = DIRECTION ( 'NONE',  ( 1.000000000000000000, 0.000000000000000000, 0.000000000000000000 ) ) ;
#549 = AXIS2_PLACEMENT_3D ( 'NONE', #367, #416, #543 ) ;
#550 = DIRECTION ( 'NONE',  ( 0.000000000000000000, 0.000000000000000000, -1.000000000000000000 ) ) ;
#551 = EDGE_CURVE ( 'NONE', #151, #163, #309, .T. ) ;
#552 = ORIENTED_EDGE ( 'NONE', *, *, #364, .T. ) ;
#553 = PERSON_AND_ORGANIZATION ( #122, #103 ) ;
#554 = DIRECTION ( 'NONE',  ( 1.000000000000000000, 0.000000000000000000, 0.000000000000000000 ) ) ;
#555 = CARTESIAN_POINT ( 'NONE',  ( -1.587500000000000355, 1.944126793646423534E-16, -49.88322736169286742 ) ) ;
#556 = EDGE_CURVE ( 'NONE', #399, #430, #25, .T. ) ;
#557 = CARTESIAN_POINT ( 'NONE',  ( -1.268411506570323866, 1.587500000000000355, -49.75991914209797784 ) ) ;
#558 = MANIFOLD_SOLID_BREP ( '228-2500-124', #376 ) ;
#559 = MECHANICAL_CONTEXT ( 'NONE', #54, 'mechanical' ) ;
#560 = AXIS2_PLACEMENT_3D ( 'NONE', #288, #72, #554 ) ;
#561 = CARTESIAN_POINT ( 'NONE',  ( 1.268411506570323866, 1.587500000000000355, -49.75991914209797784 ) ) ;
ENDSEC;
END-ISO-10303-21;
