ISO-10303-21;
HEADER;
FILE_DESCRIPTION (( 'STEP AP203' ),
    '1' );
FILE_NAME ('228-2500-260.step',
    '2022-06-06T20:02:09',
    ( '' ),
    ( '' ),
    'SwSTEP 2.0',
    'SolidWorks 2021',
    '' );
FILE_SCHEMA (( 'CONFIG_CONTROL_DESIGN' ));
ENDSEC;

DATA;
#1 = CIRCLE ( 'NONE', #399, 2.032000000000000028 ) ;
#2 = DIRECTION ( 'NONE',  ( 0.000000000000000000, 0.000000000000000000, -1.000000000000000000 ) ) ;
#3 = CARTESIAN_POINT ( 'NONE',  ( -0.8486262390323815463, -1.587500000000000355, -56.19176882282395269 ) ) ;
#4 = CARTESIAN_POINT ( 'NONE',  ( -1.587500000000000355, -1.944126793646423534E-16, 56.23322736169287595 ) ) ;
#5 = CYLINDRICAL_SURFACE ( 'NONE', #105, 2.032000000000000028 ) ;
#6 = CYLINDRICAL_SURFACE ( 'NONE', #78, 2.032000000000000028 ) ;
#7 = CLOSED_SHELL ( 'NONE', ( #441, #220, #271, #275, #157, #380, #30, #313, #353, #469, #501, #120, #101, #90 ) ) ;
#8 = CIRCLE ( 'NONE', #525, 2.032000000000000028 ) ;
#9 = CARTESIAN_POINT ( 'NONE',  ( 0.8486262390323799920, -1.587500000000000799, 56.19176882282397401 ) ) ;
#10 = PRODUCT_RELATED_PRODUCT_CATEGORY ( 'detail', '', ( #449 ) ) ;
#11 = DIRECTION ( 'NONE',  ( 1.000000000000000000, 0.000000000000000000, 0.000000000000000000 ) ) ;
#12 = ORIENTED_EDGE ( 'NONE', *, *, #409, .T. ) ;
#13 = CARTESIAN_POINT ( 'NONE',  ( -0.2043756380772883685, -1.587500000000000799, -56.23340961896380463 ) ) ;
#14 = EDGE_CURVE ( 'NONE', #372, #27, #348, .T. ) ;
#15 = ADVANCED_BREP_SHAPE_REPRESENTATION ( '228-2500-260', ( #538, #474 ), #447 ) ;
#16 = VERTEX_POINT ( 'NONE', #131 ) ;
#17 = VECTOR ( 'NONE', #182, 1000.000000000000000 ) ;
#18 = EDGE_LOOP ( 'NONE', ( #362, #326, #426, #404, #383, #535, #467, #208 ) ) ;
#19 = EDGE_CURVE ( 'NONE', #553, #545, #175, .T. ) ;
#20 = CARTESIAN_POINT ( 'NONE',  ( -1.245064030267288402, -1.524763679400337895E-16, 54.13600000000000989 ) ) ;
#21 = CARTESIAN_POINT ( 'NONE',  ( 0.000000000000000000, 0.000000000000000000, -56.26100000000000279 ) ) ;
#22 = DIRECTION ( 'NONE',  ( 0.000000000000000000, 0.000000000000000000, 1.000000000000000000 ) ) ;
#23 = EDGE_LOOP ( 'NONE', ( #560, #136, #280, #332, #418, #305, #470, #530 ) ) ;
#24 = CARTESIAN_POINT ( 'NONE',  ( -1.587500000000000355, -0.4276219574846453209, 56.22699639200009614 ) ) ;
#25 = CARTESIAN_POINT ( 'NONE',  ( -1.587500000000000355, 1.268411506570324088, 56.10991914209798637 ) ) ;
#26 = AXIS2_PLACEMENT_3D ( 'NONE', #216, #218, #389 ) ;
#27 = VERTEX_POINT ( 'NONE', #300 ) ;
#28 = COORDINATED_UNIVERSAL_TIME_OFFSET ( 6, 0, .BEHIND. ) ;
#29 = CARTESIAN_POINT ( 'NONE',  ( 1.587500000000000355, 1.061392899157111325, -56.16143677385166910 ) ) ;
#30 = ADVANCED_FACE ( 'NONE', ( #168 ), #462, .T. ) ;
#31 = EDGE_LOOP ( 'NONE', ( #244, #407, #189, #429 ) ) ;
#32 = DIRECTION ( 'NONE',  ( 1.000000000000000000, 0.000000000000000000, 0.000000000000000000 ) ) ;
#33 = DIRECTION ( 'NONE',  ( 1.000000000000000000, 0.000000000000000000, 0.000000000000000000 ) ) ;
#34 = VERTEX_POINT ( 'NONE', #125 ) ;
#35 = VECTOR ( 'NONE', #119, 1000.000000000000000 ) ;
#36 = EDGE_CURVE ( 'NONE', #553, #489, #339, .T. ) ;
#37 = CARTESIAN_POINT ( 'NONE',  ( -1.268411506570323866, 1.587500000000000355, 56.10991914209798637 ) ) ;
#38 = DIRECTION ( 'NONE',  ( 1.000000000000000000, 0.000000000000000000, 0.000000000000000000 ) ) ;
#39 = CALENDAR_DATE ( 2022, 6, 6 ) ;
#40 = DIRECTION ( 'NONE',  ( 0.000000000000000000, 0.000000000000000000, -1.000000000000000000 ) ) ;
#41 = ORIENTED_EDGE ( 'NONE', *, *, #556, .T. ) ;
#42 = FACE_OUTER_BOUND ( 'NONE', #91, .T. ) ;
#43 = ORIENTED_EDGE ( 'NONE', *, *, #301, .T. ) ;
#44 = APPROVAL_PERSON_ORGANIZATION ( #173, #337, #423 ) ;
#45 = DIRECTION ( 'NONE',  ( 0.000000000000000000, 0.000000000000000000, -1.000000000000000000 ) ) ;
#46 = ORIENTED_EDGE ( 'NONE', *, *, #47, .T. ) ;
#47 = EDGE_CURVE ( 'NONE', #97, #34, #472, .T. ) ;
#48 = CARTESIAN_POINT ( 'NONE',  ( 1.268411506570323866, -1.587500000000000355, -56.10991914209798637 ) ) ;
#49 = CARTESIAN_POINT ( 'NONE',  ( -1.587500000000000355, 1.061392899157111325, 56.16143677385166910 ) ) ;
#50 = DIRECTION ( 'NONE',  ( -0.000000000000000000, -0.000000000000000000, 1.000000000000000000 ) ) ;
#51 = AXIS2_PLACEMENT_3D ( 'NONE', #139, #50, #11 ) ;
#52 = CARTESIAN_POINT ( 'NONE',  ( 0.000000000000000000, 0.000000000000000000, 56.10991914209798637 ) ) ;
#53 = EDGE_CURVE ( 'NONE', #500, #272, #532, .T. ) ;
#54 = CARTESIAN_POINT ( 'NONE',  ( -1.268411506570323866, 1.587500000000000355, 56.10991914209798637 ) ) ;
#55 = DIRECTION ( 'NONE',  ( 1.000000000000000000, 1.224646799147353207E-16, 0.000000000000000000 ) ) ;
#56 = CC_DESIGN_PERSON_AND_ORGANIZATION_ASSIGNMENT ( #245, #81, ( #324 ) ) ;
#57 = CARTESIAN_POINT ( 'NONE',  ( 1.587500000000000577, -0.8514389605504935066, -56.19136751577921274 ) ) ;
#58 = TOROIDAL_SURFACE ( 'NONE', #379, 1.245064030267288402, 2.124999999999995115 ) ;
#59 = ORIENTED_EDGE ( 'NONE', *, *, #531, .T. ) ;
#60 = DIRECTION ( 'NONE',  ( 1.224646799147353207E-16, -1.000000000000000000, 0.000000000000000000 ) ) ;
#61 = DIRECTION ( 'NONE',  ( -0.000000000000000000, -0.000000000000000000, 1.000000000000000000 ) ) ;
#62 = ORIENTED_EDGE ( 'NONE', *, *, #252, .T. ) ;
#63 = CARTESIAN_POINT ( 'NONE',  ( 1.587500000000000355, 0.000000000000000000, -56.23322736169287595 ) ) ;
#64 = ORIENTED_EDGE ( 'NONE', *, *, #427, .T. ) ;
#65 = DATE_AND_TIME ( #39, #408 ) ;
#66 = FACE_OUTER_BOUND ( 'NONE', #18, .T. ) ;
#67 = EDGE_CURVE ( 'NONE', #215, #323, #260, .T. ) ;
#68 = VECTOR ( 'NONE', #519, 1000.000000000000000 ) ;
#69 = ORIENTED_EDGE ( 'NONE', *, *, #496, .F. ) ;
#70 = APPROVAL_DATE_TIME ( #287, #528 ) ;
#71 = CARTESIAN_POINT ( 'NONE',  ( -1.268411506570323866, 1.587500000000000355, -56.10991914209798637 ) ) ;
#72 = ORIENTED_EDGE ( 'NONE', *, *, #14, .F. ) ;
#73 = PERSON_AND_ORGANIZATION ( #521, #128 ) ;
#74 = CARTESIAN_POINT ( 'NONE',  ( 1.268411506570323866, 1.587500000000000355, -56.10991914209798637 ) ) ;
#75 = VERTEX_POINT ( 'NONE', #482 ) ;
#76 = EDGE_CURVE ( 'NONE', #232, #545, #155, .T. ) ;
#77 = DIRECTION ( 'NONE',  ( 0.000000000000000000, 1.000000000000000000, 0.000000000000000000 ) ) ;
#78 = AXIS2_PLACEMENT_3D ( 'NONE', #111, #366, #233 ) ;
#79 = AXIS2_PLACEMENT_3D ( 'NONE', #479, #77, #84 ) ;
#80 = ORIENTED_EDGE ( 'NONE', *, *, #181, .F. ) ;
#81 = PERSON_AND_ORGANIZATION_ROLE ( 'classification_officer' ) ;
#82 = CARTESIAN_POINT ( 'NONE',  ( 1.587500000000000355, 0.000000000000000000, -56.23322736169287595 ) ) ;
#83 = DIRECTION ( 'NONE',  ( -0.000000000000000000, -0.000000000000000000, 1.000000000000000000 ) ) ;
#84 = DIRECTION ( 'NONE',  ( 0.000000000000000000, -0.000000000000000000, 1.000000000000000000 ) ) ;
#85 = CARTESIAN_POINT ( 'NONE',  ( -1.587500000000000355, 1.944126793646423534E-16, -56.23322736169287595 ) ) ;
#86 = CARTESIAN_POINT ( 'NONE',  ( -1.587500000000000355, -1.268411506570323866, -56.26100000000000279 ) ) ;
#87 = CARTESIAN_POINT ( 'NONE',  ( -1.587500000000000133, 0.2143109880596213990, 56.23322736169286884 ) ) ;
#88 = AXIS2_PLACEMENT_3D ( 'NONE', #170, #40, #32 ) ;
#89 = CARTESIAN_POINT ( 'NONE',  ( 0.000000000000000000, 0.000000000000000000, -56.10991914209798637 ) ) ;
#90 = ADVANCED_FACE ( 'NONE', ( #325 ), #281, .T. ) ;
#91 = EDGE_LOOP ( 'NONE', ( #237, #364, #250, #43 ) ) ;
#92 = DIRECTION ( 'NONE',  ( -0.000000000000000000, -0.000000000000000000, 1.000000000000000000 ) ) ;
#93 = PLANE ( 'NONE',  #334 ) ;
#94 = EDGE_CURVE ( 'NONE', #16, #142, #492, .T. ) ;
#95 = DIRECTION ( 'NONE',  ( 0.000000000000000000, 0.000000000000000000, -1.000000000000000000 ) ) ;
#96 = CIRCLE ( 'NONE', #453, 2.032000000000000028 ) ;
#97 = VERTEX_POINT ( 'NONE', #411 ) ;
#98 = APPLICATION_PROTOCOL_DEFINITION ( 'international standard', 'config_control_design', 1994, #382 ) ;
#99 = CARTESIAN_POINT ( 'NONE',  ( 1.587500000000000133, 1.061532360077855230, 56.16140206829357595 ) ) ;
#100 = CARTESIAN_POINT ( 'NONE',  ( -1.245064030267288402, -2.006622987633880502E-16, 56.26100000000000279 ) ) ;
#101 = ADVANCED_FACE ( 'NONE', ( #503 ), #104, .T. ) ;
#102 = AXIS2_PLACEMENT_3D ( 'NONE', #351, #133, #2 ) ;
#103 = CARTESIAN_POINT ( 'NONE',  ( -1.587500000000000355, 1.268411506570324088, 56.10991914209798637 ) ) ;
#104 = CYLINDRICAL_SURFACE ( 'NONE', #247, 2.032000000000000028 ) ;
#105 = AXIS2_PLACEMENT_3D ( 'NONE', #180, #542, #235 ) ;
#106 = CC_DESIGN_APPROVAL ( #118, ( #390 ) ) ;
#107 = ORIENTED_EDGE ( 'NONE', *, *, #181, .T. ) ;
#108 = CARTESIAN_POINT ( 'NONE',  ( 1.587500000000000355, 0.2114796877013868093, 56.23322736169286884 ) ) ;
#109 = CARTESIAN_POINT ( 'NONE',  ( 1.587500000000000355, -0.2114796877013868093, -56.23322736169286884 ) ) ;
#110 = ORIENTED_EDGE ( 'NONE', *, *, #19, .F. ) ;
#111 = CARTESIAN_POINT ( 'NONE',  ( 0.000000000000000000, 0.000000000000000000, -56.26100000000000279 ) ) ;
#112 = ORIENTED_EDGE ( 'NONE', *, *, #319, .F. ) ;
#113 = SECURITY_CLASSIFICATION_LEVEL ( 'unclassified' ) ;
#114 = CARTESIAN_POINT ( 'NONE',  ( -1.268411506570323866, 1.587500000000000355, -56.26100000000000279 ) ) ;
#115 = AXIS2_PLACEMENT_3D ( 'NONE', #236, #517, #432 ) ;
#116 = APPROVAL_PERSON_ORGANIZATION ( #293, #528, #386 ) ;
#117 = MECHANICAL_CONTEXT ( 'NONE', #382, 'mechanical' ) ;
#118 = APPROVAL ( #158, 'UNSPECIFIED' ) ;
#119 = DIRECTION ( 'NONE',  ( -0.000000000000000000, -0.000000000000000000, 1.000000000000000000 ) ) ;
#120 = ADVANCED_FACE ( 'NONE', ( #327 ), #6, .T. ) ;
#121 = VERTEX_POINT ( 'NONE', #156 ) ;
#122 = DATE_TIME_ROLE ( 'classification_date' ) ;
#123 = DIRECTION ( 'NONE',  ( -0.000000000000000000, -0.000000000000000000, 1.000000000000000000 ) ) ;
#124 = PRODUCT_DEFINITION ( 'UNKNOWN', '', #390, #199 ) ;
#125 = CARTESIAN_POINT ( 'NONE',  ( 1.268411506570323866, -1.587500000000000355, -56.10991914209798637 ) ) ;
#126 = APPROVAL_DATE_TIME ( #200, #337 ) ;
#127 = CARTESIAN_POINT ( 'NONE',  ( 0.000000000000000000, 0.000000000000000000, -56.26100000000000279 ) ) ;
#128 = ORGANIZATION ( 'UNSPECIFIED', 'UNSPECIFIED', '' ) ;
#129 = EDGE_LOOP ( 'NONE', ( #541, #308, #486, #459, #442, #320, #438, #414 ) ) ;
#130 = LINE ( 'NONE', #421, #35 ) ;
#131 = CARTESIAN_POINT ( 'NONE',  ( 1.587500000000000355, 1.268411506570323866, 56.10991914209798637 ) ) ;
#132 = CARTESIAN_POINT ( 'NONE',  ( 1.060147506033615628, -1.587500000000000577, 56.16174669625520721 ) ) ;
#133 = DIRECTION ( 'NONE',  ( 0.000000000000000000, -1.000000000000000000, 0.000000000000000000 ) ) ;
#134 = DIRECTION ( 'NONE',  ( 1.000000000000000000, 0.000000000000000000, 0.000000000000000000 ) ) ;
#135 = PRODUCT_DEFINITION_SHAPE ( 'NONE', 'NONE',  #124 ) ;
#136 = ORIENTED_EDGE ( 'NONE', *, *, #192, .F. ) ;
#137 = VECTOR ( 'NONE', #289, 1000.000000000000000 ) ;
#138 = CARTESIAN_POINT ( 'NONE',  ( -1.587500000000000355, 1.944126793646423534E-16, -56.23322736169287595 ) ) ;
#139 = CARTESIAN_POINT ( 'NONE',  ( 0.000000000000000000, 0.000000000000000000, 56.26100000000000279 ) ) ;
#140 = CARTESIAN_POINT ( 'NONE',  ( -1.060147506033616072, -1.587500000000000355, -56.16174669625520721 ) ) ;
#141 = CARTESIAN_POINT ( 'NONE',  ( -1.587500000000000355, 1.587500000000000355, 56.26100000000000279 ) ) ;
#142 = VERTEX_POINT ( 'NONE', #370 ) ;
#143 = AXIS2_PLACEMENT_3D ( 'NONE', #439, #45, #184 ) ;
#144 = CC_DESIGN_APPROVAL ( #528, ( #324 ) ) ;
#145 = EDGE_CURVE ( 'NONE', #436, #276, #322, .T. ) ;
#146 = CARTESIAN_POINT ( 'NONE',  ( -1.587500000000000355, -1.944126793646423534E-16, 56.23322736169287595 ) ) ;
#147 = CARTESIAN_POINT ( 'NONE',  ( 1.268411506570323866, 1.587500000000000355, -56.26100000000000279 ) ) ;
#148 = ORIENTED_EDGE ( 'NONE', *, *, #496, .T. ) ;
#149 =( NAMED_UNIT ( * ) SI_UNIT ( $, .STERADIAN. ) SOLID_ANGLE_UNIT ( ) );
#150 = CIRCLE ( 'NONE', #226, 2.124999999999995115 ) ;
#151 = CARTESIAN_POINT ( 'NONE',  ( -1.268411506570323866, -1.587500000000000355, -56.10991914209798637 ) ) ;
#152 = CC_DESIGN_APPROVAL ( #337, ( #124 ) ) ;
#153 = EDGE_CURVE ( 'NONE', #121, #422, #284, .T. ) ;
#154 = CARTESIAN_POINT ( 'NONE',  ( 1.587500000000000355, 0.000000000000000000, 56.23322736169287595 ) ) ;
#155 = B_SPLINE_CURVE_WITH_KNOTS ( 'NONE', 3,
 ( #4, #87, #262, #444, #49, #25 ),
 .UNSPECIFIED., .F., .F.,
 ( 4, 2, 4 ),
 ( 1.905938025164284470E-19, 0.0006365870327257441884, 0.001273174065451488160 ),
 .UNSPECIFIED. ) ;
#156 = CARTESIAN_POINT ( 'NONE',  ( 1.268411506570323866, 1.587500000000000355, -56.10991914209798637 ) ) ;
#157 = ADVANCED_FACE ( 'NONE', ( #185 ), #93, .F. ) ;
#158 = APPROVAL_STATUS ( 'not_yet_approved' ) ;
#159 = DIRECTION ( 'NONE',  ( -1.000000000000000000, 0.000000000000000000, -0.000000000000000000 ) ) ;
#160 = ORIENTED_EDGE ( 'NONE', *, *, #427, .F. ) ;
#161 = CC_DESIGN_PERSON_AND_ORGANIZATION_ASSIGNMENT ( #166, #333, ( #390 ) ) ;
#162 = CARTESIAN_POINT ( 'NONE',  ( 0.000000000000000000, 0.000000000000000000, -56.26100000000000279 ) ) ;
#163 = B_SPLINE_CURVE_WITH_KNOTS ( 'NONE', 3,
 ( #240, #526, #539, #534, #318, #311 ),
 .UNSPECIFIED., .F., .F.,
 ( 4, 2, 4 ),
 ( 0.000000000000000000, 0.0006365870327257441884, 0.001273174065451488160 ),
 .UNSPECIFIED. ) ;
#164 = CIRCLE ( 'NONE', #440, 2.032000000000000028 ) ;
#165 = ORIENTED_EDGE ( 'NONE', *, *, #398, .T. ) ;
#166 = PERSON_AND_ORGANIZATION ( #521, #128 ) ;
#167 = CARTESIAN_POINT ( 'NONE',  ( 1.587500000000000355, 0.000000000000000000, 56.23322736169287595 ) ) ;
#168 = FACE_OUTER_BOUND ( 'NONE', #129, .T. ) ;
#169 = CALENDAR_DATE ( 2022, 6, 6 ) ;
#170 = CARTESIAN_POINT ( 'NONE',  ( 0.000000000000000000, 0.000000000000000000, 54.13600000000000989 ) ) ;
#171 = CC_DESIGN_DATE_AND_TIME_ASSIGNMENT ( #510, #475, ( #124 ) ) ;
#172 = CARTESIAN_POINT ( 'NONE',  ( -1.587500000000000355, 0.2114796877013868093, -56.23322736169286884 ) ) ;
#173 = PERSON_AND_ORGANIZATION ( #521, #128 ) ;
#174 = DIRECTION ( 'NONE',  ( 0.000000000000000000, 0.000000000000000000, -1.000000000000000000 ) ) ;
#175 = LINE ( 'NONE', #212, #452 ) ;
#176 = DIRECTION ( 'NONE',  ( 0.000000000000000000, 0.000000000000000000, -1.000000000000000000 ) ) ;
#177 = ORIENTED_EDGE ( 'NONE', *, *, #14, .T. ) ;
#178 = CARTESIAN_POINT ( 'NONE',  ( -0.4219230645619471698, -1.587500000000000133, -56.22730730355363704 ) ) ;
#179 = CARTESIAN_POINT ( 'NONE',  ( 1.268411506570323866, -1.587500000000000355, -56.26100000000000279 ) ) ;
#180 = CARTESIAN_POINT ( 'NONE',  ( 0.000000000000000000, 0.000000000000000000, -56.26100000000000279 ) ) ;
#181 = EDGE_CURVE ( 'NONE', #195, #436, #299, .T. ) ;
#182 = DIRECTION ( 'NONE',  ( -0.000000000000000000, -0.000000000000000000, 1.000000000000000000 ) ) ;
#183 = LOCAL_TIME ( 15, 2, 9.000000000000000000, #28 ) ;
#184 = DIRECTION ( 'NONE',  ( 1.000000000000000000, 0.000000000000000000, 0.000000000000000000 ) ) ;
#185 = FACE_OUTER_BOUND ( 'NONE', #187, .T. ) ;
#186 = CARTESIAN_POINT ( 'NONE',  ( -1.587500000000000577, -0.4277385810629843466, -56.22698654358313775 ) ) ;
#187 = EDGE_LOOP ( 'NONE', ( #72, #191, #376, #198, #393, #457 ) ) ;
#188 = DIRECTION ( 'NONE',  ( 0.000000000000000000, 0.000000000000000000, 1.000000000000000000 ) ) ;
#189 = ORIENTED_EDGE ( 'NONE', *, *, #392, .T. ) ;
#190 = CIRCLE ( 'NONE', #549, 2.124999999999995115 ) ;
#191 = ORIENTED_EDGE ( 'NONE', *, *, #243, .T. ) ;
#192 = EDGE_CURVE ( 'NONE', #436, #195, #249, .T. ) ;
#193 = DIRECTION ( 'NONE',  ( 1.000000000000000000, 0.000000000000000000, 0.000000000000000000 ) ) ;
#194 = DIRECTION ( 'NONE',  ( 1.224646799147353207E-16, 1.000000000000000000, 0.000000000000000000 ) ) ;
#195 = VERTEX_POINT ( 'NONE', #100 ) ;
#196 =( NAMED_UNIT ( * ) PLANE_ANGLE_UNIT ( ) SI_UNIT ( $, .RADIAN. ) );
#197 = DIRECTION ( 'NONE',  ( 0.000000000000000000, 0.000000000000000000, 1.000000000000000000 ) ) ;
#198 = ORIENTED_EDGE ( 'NONE', *, *, #94, .F. ) ;
#199 = DESIGN_CONTEXT ( 'detailed design', #425, 'design' ) ;
#200 = DATE_AND_TIME ( #169, #464 ) ;
#201 = CARTESIAN_POINT ( 'NONE',  ( 0.000000000000000000, 0.000000000000000000, -56.10991914209798637 ) ) ;
#202 = B_SPLINE_CURVE_WITH_KNOTS ( 'NONE', 3,
 ( #37, #435, #547, #511, #246, #211, #428, #344 ),
 .UNSPECIFIED., .F., .F.,
 ( 4, 2, 2, 4 ),
 ( 0.01485345774306975376, 0.01548583974386941176, 0.01611822174466906801, 0.01738298574626838400 ),
 .UNSPECIFIED. ) ;
#203 = PLANE ( 'NONE',  #79 ) ;
#204 = ORIENTED_EDGE ( 'NONE', *, *, #409, .F. ) ;
#205 = CARTESIAN_POINT ( 'NONE',  ( -0.4342314039556042782, 1.587500000000000355, -56.23285171744314681 ) ) ;
#206 = AXIS2_PLACEMENT_3D ( 'NONE', #225, #321, #400 ) ;
#207 = AXIS2_PLACEMENT_3D ( 'NONE', #89, #92, #134 ) ;
#208 = ORIENTED_EDGE ( 'NONE', *, *, #67, .F. ) ;
#209 = PERSON_AND_ORGANIZATION ( #521, #128 ) ;
#210 = EDGE_CURVE ( 'NONE', #75, #489, #190, .T. ) ;
#211 = CARTESIAN_POINT ( 'NONE',  ( 0.4342314039556041672, 1.587500000000000355, 56.23285171744313971 ) ) ;
#212 = CARTESIAN_POINT ( 'NONE',  ( -1.587500000000000355, 1.268411506570323866, -56.26100000000000279 ) ) ;
#213 = COORDINATED_UNIVERSAL_TIME_OFFSET ( 6, 0, .BEHIND. ) ;
#214 = CARTESIAN_POINT ( 'NONE',  ( -1.587500000000000355, -1.268411506570323866, 56.10991914209798637 ) ) ;
#215 = VERTEX_POINT ( 'NONE', #359 ) ;
#216 = CARTESIAN_POINT ( 'NONE',  ( -1.587500000000000355, 1.587500000000000355, 56.26100000000000279 ) ) ;
#217 = VERTEX_POINT ( 'NONE', #151 ) ;
#218 = DIRECTION ( 'NONE',  ( 0.000000000000000000, -1.000000000000000000, 0.000000000000000000 ) ) ;
#219 = CARTESIAN_POINT ( 'NONE',  ( 1.587500000000000355, -1.268411506570323866, -56.26100000000000279 ) ) ;
#220 = ADVANCED_FACE ( 'NONE', ( #66 ), #58, .T. ) ;
#221 = DIRECTION ( 'NONE',  ( -1.000000000000000000, 0.000000000000000000, 0.000000000000000000 ) ) ;
#222 = ORIENTED_EDGE ( 'NONE', *, *, #47, .F. ) ;
#223 = UNCERTAINTY_MEASURE_WITH_UNIT (LENGTH_MEASURE( 1.000000000000000082E-05 ), #415, 'distance_accuracy_value', 'NONE');
#224 = EDGE_CURVE ( 'NONE', #276, #27, #163, .T. ) ;
#225 = CARTESIAN_POINT ( 'NONE',  ( 0.000000000000000000, 0.000000000000000000, -56.26100000000000279 ) ) ;
#226 = AXIS2_PLACEMENT_3D ( 'NONE', #20, #60, #55 ) ;
#227 = DIRECTION ( 'NONE',  ( 0.000000000000000000, 0.000000000000000000, -1.000000000000000000 ) ) ;
#228 = CARTESIAN_POINT ( 'NONE',  ( 1.587500000000000577, 0.8514389605504935066, 56.19136751577921274 ) ) ;
#229 = ORIENTED_EDGE ( 'NONE', *, *, #478, .T. ) ;
#230 = AXIS2_PLACEMENT_3D ( 'NONE', #456, #494, #461 ) ;
#231 = CARTESIAN_POINT ( 'NONE',  ( 1.587500000000000355, -0.4276219574846453209, -56.22699639200009614 ) ) ;
#232 = VERTEX_POINT ( 'NONE', #146 ) ;
#233 = DIRECTION ( 'NONE',  ( 1.000000000000000000, 0.000000000000000000, 0.000000000000000000 ) ) ;
#234 = ORIENTED_EDGE ( 'NONE', *, *, #145, .F. ) ;
#235 = DIRECTION ( 'NONE',  ( 1.000000000000000000, 0.000000000000000000, 0.000000000000000000 ) ) ;
#236 = CARTESIAN_POINT ( 'NONE',  ( 0.000000000000000000, 0.000000000000000000, -56.10991914209798637 ) ) ;
#237 = ORIENTED_EDGE ( 'NONE', *, *, #153, .F. ) ;
#238 = CALENDAR_DATE ( 2022, 6, 6 ) ;
#239 = AXIS2_PLACEMENT_3D ( 'NONE', #555, #375, #174 ) ;
#240 = CARTESIAN_POINT ( 'NONE',  ( 1.587500000000000355, 0.000000000000000000, 56.23322736169287595 ) ) ;
#241 = ORIENTED_EDGE ( 'NONE', *, *, #508, .T. ) ;
#242 = CARTESIAN_POINT ( 'NONE',  ( 1.060147506033616072, 1.587500000000000355, -56.16174669625520721 ) ) ;
#243 = EDGE_CURVE ( 'NONE', #372, #323, #330, .T. ) ;
#244 = ORIENTED_EDGE ( 'NONE', *, *, #310, .T. ) ;
#245 = PERSON_AND_ORGANIZATION ( #521, #128 ) ;
#246 = CARTESIAN_POINT ( 'NONE',  ( -0.2043756380772887293, 1.587500000000000133, 56.23340961896379042 ) ) ;
#247 = AXIS2_PLACEMENT_3D ( 'NONE', #21, #61, #193 ) ;
#248 = CARTESIAN_POINT ( 'NONE',  ( 1.587500000000000133, 0.2143109880596213990, -56.23322736169286884 ) ) ;
#249 = CIRCLE ( 'NONE', #230, 1.245064030267288402 ) ;
#250 = ORIENTED_EDGE ( 'NONE', *, *, #358, .F. ) ;
#251 = PERSON_AND_ORGANIZATION_ROLE ( 'design_supplier' ) ;
#252 = EDGE_CURVE ( 'NONE', #34, #372, #288, .T. ) ;
#253 = PLANE ( 'NONE',  #533 ) ;
#254 = DIRECTION ( 'NONE',  ( -1.000000000000000000, 0.000000000000000000, 0.000000000000000000 ) ) ;
#255 = B_SPLINE_CURVE_WITH_KNOTS ( 'NONE', 3,
 ( #312, #132, #9, #481, #266, #268, #264, #259 ),
 .UNSPECIFIED., .F., .F.,
 ( 4, 2, 2, 4 ),
 ( 0.01485345774306975376, 0.01548583974386941176, 0.01611822174466906801, 0.01738298574626838400 ),
 .UNSPECIFIED. ) ;
#256 = CARTESIAN_POINT ( 'NONE',  ( -1.587500000000000355, -0.8513200635100126590, -56.19137755531811251 ) ) ;
#257 = EDGE_CURVE ( 'NONE', #75, #215, #430, .T. ) ;
#258 = DIRECTION ( 'NONE',  ( 0.000000000000000000, 0.000000000000000000, -1.000000000000000000 ) ) ;
#259 = CARTESIAN_POINT ( 'NONE',  ( -1.268411506570324088, -1.587500000000000355, 56.10991914209798637 ) ) ;
#260 = CIRCLE ( 'NONE', #102, 2.124999999999995115 ) ;
#261 = AXIS2_PLACEMENT_3D ( 'NONE', #267, #413, #197 ) ;
#262 = CARTESIAN_POINT ( 'NONE',  ( -1.587500000000000577, 0.4277385810629846241, 56.22698654358313775 ) ) ;
#263 = B_SPLINE_CURVE_WITH_KNOTS ( 'NONE', 3,
 ( #74, #242, #381, #387, #302, #205, #373, #513 ),
 .UNSPECIFIED., .F., .F.,
 ( 4, 2, 2, 4 ),
 ( 0.01485345774306975376, 0.01548583974386941002, 0.01611822174466906801, 0.01738298574626838053 ),
 .UNSPECIFIED. ) ;
#264 = CARTESIAN_POINT ( 'NONE',  ( -0.8571092511719591300, -1.587500000000000355, 56.21227379706277816 ) ) ;
#265 = CARTESIAN_POINT ( 'NONE',  ( -1.587500000000000355, 0.4276219574846453209, -56.22699639200009614 ) ) ;
#266 = CARTESIAN_POINT ( 'NONE',  ( 0.2043756380772887293, -1.587500000000000133, 56.23340961896379042 ) ) ;
#267 = CARTESIAN_POINT ( 'NONE',  ( 1.245064030267288402, 0.000000000000000000, 54.13600000000000989 ) ) ;
#268 = CARTESIAN_POINT ( 'NONE',  ( -0.4342314039556041672, -1.587500000000000355, 56.23285171744313971 ) ) ;
#269 = TOROIDAL_SURFACE ( 'NONE', #88, 1.245064030267288402, 2.124999999999995115 ) ;
#270 = CARTESIAN_POINT ( 'NONE',  ( -1.587500000000000355, -0.2114796877013868093, 56.23322736169286884 ) ) ;
#271 = ADVANCED_FACE ( 'NONE', ( #294 ), #291, .F. ) ;
#272 = VERTEX_POINT ( 'NONE', #214 ) ;
#273 = CARTESIAN_POINT ( 'NONE',  ( -1.587500000000000355, 1.268411506570323866, -56.10991914209798637 ) ) ;
#274 = DIRECTION ( 'NONE',  ( -1.000000000000000000, 1.224646799147353207E-16, 0.000000000000000000 ) ) ;
#275 = ADVANCED_FACE ( 'NONE', ( #471 ), #203, .F. ) ;
#276 = VERTEX_POINT ( 'NONE', #167 ) ;
#277 = AXIS2_PLACEMENT_3D ( 'NONE', #127, #123, #552 ) ;
#278 = LOCAL_TIME ( 15, 2, 9.000000000000000000, #502 ) ;
#279 = CARTESIAN_POINT ( 'NONE',  ( 1.587500000000000133, -1.061532360077855230, -56.16140206829357595 ) ) ;
#280 = ORIENTED_EDGE ( 'NONE', *, *, #145, .T. ) ;
#281 = CYLINDRICAL_SURFACE ( 'NONE', #206, 2.032000000000000028 ) ;
#282 = ORIENTED_EDGE ( 'NONE', *, *, #36, .T. ) ;
#283 = CALENDAR_DATE ( 2022, 6, 6 ) ;
#284 = LINE ( 'NONE', #147, #17 ) ;
#285 = ORIENTED_EDGE ( 'NONE', *, *, #307, .T. ) ;
#286 = AXIS2_PLACEMENT_3D ( 'NONE', #391, #258, #254 ) ;
#287 = DATE_AND_TIME ( #238, #419 ) ;
#288 = CIRCLE ( 'NONE', #115, 2.032000000000000028 ) ;
#289 = DIRECTION ( 'NONE',  ( 0.000000000000000000, 0.000000000000000000, -1.000000000000000000 ) ) ;
#290 = EDGE_LOOP ( 'NONE', ( #388, #229, #222, #64 ) ) ;
#291 = PLANE ( 'NONE',  #239 ) ;
#292 = EDGE_LOOP ( 'NONE', ( #241, #336, #165, #497 ) ) ;
#293 = PERSON_AND_ORGANIZATION ( #521, #128 ) ;
#294 = FACE_OUTER_BOUND ( 'NONE', #340, .T. ) ;
#295 = CARTESIAN_POINT ( 'NONE',  ( -1.587500000000000133, 1.061532360077855230, -56.16140206829357595 ) ) ;
#296 = EDGE_CURVE ( 'NONE', #323, #142, #448, .T. ) ;
#297 = CALENDAR_DATE ( 2022, 6, 6 ) ;
#298 = CARTESIAN_POINT ( 'NONE',  ( 1.587500000000000355, 0.8513200635100126590, -56.19137755531811251 ) ) ;
#299 = CIRCLE ( 'NONE', #51, 1.245064030267288402 ) ;
#300 = CARTESIAN_POINT ( 'NONE',  ( 1.587500000000000355, -1.268411506570324088, 56.10991914209798637 ) ) ;
#301 = EDGE_CURVE ( 'NONE', #509, #422, #202, .T. ) ;
#302 = CARTESIAN_POINT ( 'NONE',  ( 0.2043756380772883685, 1.587500000000000799, -56.23340961896380463 ) ) ;
#303 = ORIENTED_EDGE ( 'NONE', *, *, #394, .T. ) ;
#304 = CARTESIAN_POINT ( 'NONE',  ( -1.587500000000000133, -0.2143109880596212047, -56.23322736169286884 ) ) ;
#305 = ORIENTED_EDGE ( 'NONE', *, *, #301, .F. ) ;
#306 = CARTESIAN_POINT ( 'NONE',  ( 0.8571092511719562435, -1.587500000000000799, -56.21227379706279947 ) ) ;
#307 = EDGE_CURVE ( 'NONE', #217, #500, #130, .T. ) ;
#308 = ORIENTED_EDGE ( 'NONE', *, *, #257, .T. ) ;
#309 = CARTESIAN_POINT ( 'NONE',  ( -1.587500000000000355, -1.268411506570323866, -56.10991914209798637 ) ) ;
#310 = EDGE_CURVE ( 'NONE', #142, #121, #164, .T. ) ;
#311 = CARTESIAN_POINT ( 'NONE',  ( 1.587500000000000355, -1.268411506570324088, 56.10991914209798637 ) ) ;
#312 = CARTESIAN_POINT ( 'NONE',  ( 1.268411506570323866, -1.587500000000000355, 56.10991914209798637 ) ) ;
#313 = ADVANCED_FACE ( 'NONE', ( #384 ), #269, .T. ) ;
#314 = CARTESIAN_POINT ( 'NONE',  ( -1.268411506570323866, -1.587500000000000355, -56.10991914209798637 ) ) ;
#315 = CIRCLE ( 'NONE', #495, 2.032000000000000028 ) ;
#316 = ORIENTED_EDGE ( 'NONE', *, *, #224, .F. ) ;
#317 = CARTESIAN_POINT ( 'NONE',  ( 1.587500000000000355, 0.4276219574846453209, 56.22699639200009614 ) ) ;
#318 = CARTESIAN_POINT ( 'NONE',  ( 1.587500000000000355, -1.061392899157110881, 56.16143677385167621 ) ) ;
#319 = EDGE_CURVE ( 'NONE', #215, #75, #406, .T. ) ;
#320 = ORIENTED_EDGE ( 'NONE', *, *, #478, .F. ) ;
#321 = DIRECTION ( 'NONE',  ( -0.000000000000000000, -0.000000000000000000, 1.000000000000000000 ) ) ;
#322 = CIRCLE ( 'NONE', #261, 2.124999999999995115 ) ;
#323 = VERTEX_POINT ( 'NONE', #342 ) ;
#324 = SECURITY_CLASSIFICATION ( '', '', #113 ) ;
#325 = FACE_OUTER_BOUND ( 'NONE', #292, .T. ) ;
#326 = ORIENTED_EDGE ( 'NONE', *, *, #210, .T. ) ;
#327 = FACE_OUTER_BOUND ( 'NONE', #374, .T. ) ;
#328 = ORIENTED_EDGE ( 'NONE', *, *, #417, .T. ) ;
#329 = PERSON_AND_ORGANIZATION_ROLE ( 'creator' ) ;
#330 = B_SPLINE_CURVE_WITH_KNOTS ( 'NONE', 3,
 ( #451, #279, #57, #231, #109, #63 ),
 .UNSPECIFIED., .F., .F.,
 ( 4, 2, 4 ),
 ( 0.01485345774306975376, 0.01548163471194332480, 0.01610981168081689410 ),
 .UNSPECIFIED. ) ;
#331 = CARTESIAN_POINT ( 'NONE',  ( 1.587500000000000577, 0.4277385810629840135, -56.22698654358313775 ) ) ;
#332 = ORIENTED_EDGE ( 'NONE', *, *, #551, .F. ) ;
#333 = PERSON_AND_ORGANIZATION_ROLE ( 'creator' ) ;
#334 = AXIS2_PLACEMENT_3D ( 'NONE', #543, #416, #22 ) ;
#335 = CARTESIAN_POINT ( 'NONE',  ( 1.587500000000000355, 1.268411506570323866, -56.10991914209798637 ) ) ;
#336 = ORIENTED_EDGE ( 'NONE', *, *, #19, .T. ) ;
#337 = APPROVAL ( #434, 'UNSPECIFIED' ) ;
#338 = CARTESIAN_POINT ( 'NONE',  ( -1.587500000000000355, 1.587500000000000355, -56.26100000000000279 ) ) ;
#339 = B_SPLINE_CURVE_WITH_KNOTS ( 'NONE', 3,
 ( #385, #295, #518, #265, #172, #85 ),
 .UNSPECIFIED., .F., .F.,
 ( 4, 2, 4 ),
 ( 0.01485345774306975376, 0.01548163471194332480, 0.01610981168081689410 ),
 .UNSPECIFIED. ) ;
#340 = EDGE_LOOP ( 'NONE', ( #110, #282, #303, #204, #41, #514 ) ) ;
#341 = APPROVAL_STATUS ( 'not_yet_approved' ) ;
#342 = CARTESIAN_POINT ( 'NONE',  ( 1.587500000000000355, 0.000000000000000000, -56.23322736169287595 ) ) ;
#343 = EDGE_LOOP ( 'NONE', ( #557, #107 ) ) ;
#344 = CARTESIAN_POINT ( 'NONE',  ( 1.268411506570324088, 1.587500000000000355, 56.10991914209798637 ) ) ;
#345 = CIRCLE ( 'NONE', #207, 2.032000000000000028 ) ;
#346 = DIRECTION ( 'NONE',  ( -0.000000000000000000, -0.000000000000000000, 1.000000000000000000 ) ) ;
#347 = LINE ( 'NONE', #86, #68 ) ;
#348 = LINE ( 'NONE', #219, #473 ) ;
#349 = EDGE_CURVE ( 'NONE', #121, #368, #263, .T. ) ;
#350 = CARTESIAN_POINT ( 'NONE',  ( 0.4342314039556042782, -1.587500000000000355, -56.23285171744314681 ) ) ;
#351 = CARTESIAN_POINT ( 'NONE',  ( 1.245064030267288402, 0.000000000000000000, -54.13600000000000989 ) ) ;
#352 = CARTESIAN_POINT ( 'NONE',  ( 1.245064030267288402, 0.000000000000000000, 56.26100000000000279 ) ) ;
#353 = ADVANCED_FACE ( 'NONE', ( #559 ), #253, .T. ) ;
#354 = VECTOR ( 'NONE', #477, 1000.000000000000000 ) ;
#355 = AXIS2_PLACEMENT_3D ( 'NONE', #162, #466, #476 ) ;
#356 = CARTESIAN_POINT ( 'NONE',  ( -1.245064030267288402, 1.524763679400337895E-16, -54.13600000000000989 ) ) ;
#357 = DIRECTION ( 'NONE',  ( -1.000000000000000000, 0.000000000000000000, -0.000000000000000000 ) ) ;
#358 = EDGE_CURVE ( 'NONE', #509, #368, #505, .T. ) ;
#359 = CARTESIAN_POINT ( 'NONE',  ( 1.245064030267288402, 0.000000000000000000, -56.26100000000000279 ) ) ;
#360 = CARTESIAN_POINT ( 'NONE',  ( 0.000000000000000000, 0.000000000000000000, 56.10991914209798637 ) ) ;
#361 = B_SPLINE_CURVE_WITH_KNOTS ( 'NONE', 3,
 ( #491, #99, #228, #317, #108, #154 ),
 .UNSPECIFIED., .F., .F.,
 ( 4, 2, 4 ),
 ( 0.01485345774306975376, 0.01548163471194332480, 0.01610981168081689410 ),
 .UNSPECIFIED. ) ;
#362 = ORIENTED_EDGE ( 'NONE', *, *, #319, .T. ) ;
#363 = DIRECTION ( 'NONE',  ( -0.000000000000000000, -0.000000000000000000, 1.000000000000000000 ) ) ;
#364 = ORIENTED_EDGE ( 'NONE', *, *, #349, .T. ) ;
#365 = CARTESIAN_POINT ( 'NONE',  ( -1.587500000000000133, -1.061532360077855230, 56.16140206829357595 ) ) ;
#366 = DIRECTION ( 'NONE',  ( -0.000000000000000000, -0.000000000000000000, 1.000000000000000000 ) ) ;
#367 = EDGE_LOOP ( 'NONE', ( #112, #463 ) ) ;
#368 = VERTEX_POINT ( 'NONE', #71 ) ;
#369 = TOROIDAL_SURFACE ( 'NONE', #143, 1.245064030267288402, 2.124999999999995115 ) ;
#370 = CARTESIAN_POINT ( 'NONE',  ( 1.587500000000000355, 1.268411506570323866, -56.10991914209798637 ) ) ;
#371 = B_SPLINE_CURVE_WITH_KNOTS ( 'NONE', 3,
 ( #314, #140, #3, #178, #13, #350, #306, #48 ),
 .UNSPECIFIED., .F., .F.,
 ( 4, 2, 2, 4 ),
 ( 0.01485345774306975376, 0.01548583974386941002, 0.01611822174466906801, 0.01738298574626838053 ),
 .UNSPECIFIED. ) ;
#372 = VERTEX_POINT ( 'NONE', #424 ) ;
#373 = CARTESIAN_POINT ( 'NONE',  ( -0.8571092511719562435, 1.587500000000000799, -56.21227379706279947 ) ) ;
#374 = EDGE_LOOP ( 'NONE', ( #62, #177, #148, #46 ) ) ;
#375 = DIRECTION ( 'NONE',  ( 1.000000000000000000, 0.000000000000000000, 0.000000000000000000 ) ) ;
#376 = ORIENTED_EDGE ( 'NONE', *, *, #296, .T. ) ;
#377 = CC_DESIGN_PERSON_AND_ORGANIZATION_ASSIGNMENT ( #558, #329, ( #124 ) ) ;
#378 = DIRECTION ( 'NONE',  ( 1.000000000000000000, 0.000000000000000000, 0.000000000000000000 ) ) ;
#379 = AXIS2_PLACEMENT_3D ( 'NONE', #499, #445, #458 ) ;
#380 = ADVANCED_FACE ( 'NONE', ( #42 ), #402, .F. ) ;
#381 = CARTESIAN_POINT ( 'NONE',  ( 0.8486262390323815463, 1.587500000000000355, -56.19176882282395269 ) ) ;
#382 = APPLICATION_CONTEXT ( 'configuration controlled 3d designs of mechanical parts and assemblies' ) ;
#383 = ORIENTED_EDGE ( 'NONE', *, *, #349, .F. ) ;
#384 = FACE_OUTER_BOUND ( 'NONE', #23, .T. ) ;
#385 = CARTESIAN_POINT ( 'NONE',  ( -1.587500000000000355, 1.268411506570323866, -56.10991914209798637 ) ) ;
#386 = APPROVAL_ROLE ( '' ) ;
#387 = CARTESIAN_POINT ( 'NONE',  ( 0.4219230645619471698, 1.587500000000000133, -56.22730730355363704 ) ) ;
#388 = ORIENTED_EDGE ( 'NONE', *, *, #307, .F. ) ;
#389 = DIRECTION ( 'NONE',  ( 0.000000000000000000, -0.000000000000000000, -1.000000000000000000 ) ) ;
#390 = PRODUCT_DEFINITION_FORMATION_WITH_SPECIFIED_SOURCE ( 'ANY', '', #449, .NOT_KNOWN. ) ;
#391 = CARTESIAN_POINT ( 'NONE',  ( 0.000000000000000000, 0.000000000000000000, 56.10991914209798637 ) ) ;
#392 = EDGE_CURVE ( 'NONE', #422, #16, #1, .T. ) ;
#393 = ORIENTED_EDGE ( 'NONE', *, *, #551, .T. ) ;
#394 = EDGE_CURVE ( 'NONE', #489, #520, #554, .T. ) ;
#395 = CARTESIAN_POINT ( 'NONE',  ( -1.268411506570324088, -1.587500000000000355, 56.10991914209798637 ) ) ;
#396 = EDGE_LOOP ( 'NONE', ( #328, #285, #483, #12 ) ) ;
#397 = FACE_OUTER_BOUND ( 'NONE', #548, .T. ) ;
#398 = EDGE_CURVE ( 'NONE', #545, #509, #96, .T. ) ;
#399 = AXIS2_PLACEMENT_3D ( 'NONE', #488, #484, #524 ) ;
#400 = DIRECTION ( 'NONE',  ( 1.000000000000000000, 0.000000000000000000, 0.000000000000000000 ) ) ;
#401 = ORIENTED_EDGE ( 'NONE', *, *, #53, .F. ) ;
#402 = PLANE ( 'NONE',  #26 ) ;
#403 = CC_DESIGN_PERSON_AND_ORGANIZATION_ASSIGNMENT ( #73, #512, ( #449 ) ) ;
#404 = ORIENTED_EDGE ( 'NONE', *, *, #508, .F. ) ;
#405 = B_SPLINE_CURVE_WITH_KNOTS ( 'NONE', 3,
 ( #410, #365, #490, #24, #270, #537 ),
 .UNSPECIFIED., .F., .F.,
 ( 4, 2, 4 ),
 ( 0.01485345774306975376, 0.01548163471194332480, 0.01610981168081689410 ),
 .UNSPECIFIED. ) ;
#406 = CIRCLE ( 'NONE', #355, 1.245064030267288402 ) ;
#407 = ORIENTED_EDGE ( 'NONE', *, *, #153, .T. ) ;
#408 = LOCAL_TIME ( 15, 2, 9.000000000000000000, #546 ) ;
#409 = EDGE_CURVE ( 'NONE', #272, #520, #347, .T. ) ;
#410 = CARTESIAN_POINT ( 'NONE',  ( -1.587500000000000355, -1.268411506570323866, 56.10991914209798637 ) ) ;
#411 = CARTESIAN_POINT ( 'NONE',  ( 1.268411506570323866, -1.587500000000000355, 56.10991914209798637 ) ) ;
#412 = CARTESIAN_POINT ( 'NONE',  ( 0.000000000000000000, 0.000000000000000000, -56.10991914209798637 ) ) ;
#413 = DIRECTION ( 'NONE',  ( -0.000000000000000000, 1.000000000000000000, 0.000000000000000000 ) ) ;
#414 = ORIENTED_EDGE ( 'NONE', *, *, #394, .F. ) ;
#415 =( LENGTH_UNIT ( ) NAMED_UNIT ( * ) SI_UNIT ( .MILLI., .METRE. ) );
#416 = DIRECTION ( 'NONE',  ( -1.000000000000000000, 0.000000000000000000, 0.000000000000000000 ) ) ;
#417 = EDGE_CURVE ( 'NONE', #520, #217, #345, .T. ) ;
#418 = ORIENTED_EDGE ( 'NONE', *, *, #392, .F. ) ;
#419 = LOCAL_TIME ( 15, 2, 9.000000000000000000, #213 ) ;
#420 = APPROVAL_DATE_TIME ( #65, #118 ) ;
#421 = CARTESIAN_POINT ( 'NONE',  ( -1.268411506570323866, -1.587500000000000355, -56.26100000000000279 ) ) ;
#422 = VERTEX_POINT ( 'NONE', #437 ) ;
#423 = APPROVAL_ROLE ( '' ) ;
#424 = CARTESIAN_POINT ( 'NONE',  ( 1.587500000000000355, -1.268411506570323866, -56.10991914209798637 ) ) ;
#425 = APPLICATION_CONTEXT ( 'configuration controlled 3d designs of mechanical parts and assemblies' ) ;
#426 = ORIENTED_EDGE ( 'NONE', *, *, #36, .F. ) ;
#427 = EDGE_CURVE ( 'NONE', #97, #500, #255, .T. ) ;
#428 = CARTESIAN_POINT ( 'NONE',  ( 0.8571092511719591300, 1.587500000000000355, 56.21227379706277816 ) ) ;
#429 = ORIENTED_EDGE ( 'NONE', *, *, #94, .T. ) ;
#430 = CIRCLE ( 'NONE', #277, 1.245064030267288402 ) ;
#431 = SHAPE_DEFINITION_REPRESENTATION ( #135, #15 ) ;
#432 = DIRECTION ( 'NONE',  ( 1.000000000000000000, 0.000000000000000000, 0.000000000000000000 ) ) ;
#433 = DIRECTION ( 'NONE',  ( -0.000000000000000000, -0.000000000000000000, 1.000000000000000000 ) ) ;
#434 = APPROVAL_STATUS ( 'not_yet_approved' ) ;
#435 = CARTESIAN_POINT ( 'NONE',  ( -1.060147506033615628, 1.587500000000000577, 56.16174669625520721 ) ) ;
#436 = VERTEX_POINT ( 'NONE', #352 ) ;
#437 = CARTESIAN_POINT ( 'NONE',  ( 1.268411506570324088, 1.587500000000000355, 56.10991914209798637 ) ) ;
#438 = ORIENTED_EDGE ( 'NONE', *, *, #417, .F. ) ;
#439 = CARTESIAN_POINT ( 'NONE',  ( 0.000000000000000000, 0.000000000000000000, 54.13600000000000989 ) ) ;
#440 = AXIS2_PLACEMENT_3D ( 'NONE', #201, #507, #33 ) ;
#441 = ADVANCED_FACE ( 'NONE', ( #397 ), #369, .T. ) ;
#442 = ORIENTED_EDGE ( 'NONE', *, *, #252, .F. ) ;
#443 = FACE_OUTER_BOUND ( 'NONE', #343, .T. ) ;
#444 = CARTESIAN_POINT ( 'NONE',  ( -1.587500000000000355, 0.8513200635100126590, 56.19137755531811251 ) ) ;
#445 = DIRECTION ( 'NONE',  ( -0.000000000000000000, -0.000000000000000000, 1.000000000000000000 ) ) ;
#446 = FACE_OUTER_BOUND ( 'NONE', #396, .T. ) ;
#447 =( GEOMETRIC_REPRESENTATION_CONTEXT ( 3 ) GLOBAL_UNCERTAINTY_ASSIGNED_CONTEXT ( ( #223 ) ) GLOBAL_UNIT_ASSIGNED_CONTEXT ( ( #415, #196, #149 ) ) REPRESENTATION_CONTEXT ( 'NONE', 'WORKASPACE' ) );
#448 = B_SPLINE_CURVE_WITH_KNOTS ( 'NONE', 3,
 ( #82, #248, #331, #298, #29, #335 ),
 .UNSPECIFIED., .F., .F.,
 ( 4, 2, 4 ),
 ( 0.000000000000000000, 0.0006365870327257439716, 0.001273174065451487943 ),
 .UNSPECIFIED. ) ;
#449 = PRODUCT ( '228-2500-260', '228-2500-260', '', ( #117 ) ) ;
#450 = CARTESIAN_POINT ( 'NONE',  ( 0.000000000000000000, 0.000000000000000000, 0.000000000000000000 ) ) ;
#451 = CARTESIAN_POINT ( 'NONE',  ( 1.587500000000000355, -1.268411506570323866, -56.10991914209798637 ) ) ;
#452 = VECTOR ( 'NONE', #346, 1000.000000000000000 ) ;
#453 = AXIS2_PLACEMENT_3D ( 'NONE', #360, #176, #523 ) ;
#454 = ORIENTED_EDGE ( 'NONE', *, *, #556, .F. ) ;
#455 = CARTESIAN_POINT ( 'NONE',  ( -1.587500000000000355, -1.268411506570323866, -56.10991914209798637 ) ) ;
#456 = CARTESIAN_POINT ( 'NONE',  ( 0.000000000000000000, 0.000000000000000000, 56.26100000000000279 ) ) ;
#457 = ORIENTED_EDGE ( 'NONE', *, *, #224, .T. ) ;
#458 = DIRECTION ( 'NONE',  ( 1.000000000000000000, 0.000000000000000000, 0.000000000000000000 ) ) ;
#459 = ORIENTED_EDGE ( 'NONE', *, *, #243, .F. ) ;
#460 = APPROVAL_ROLE ( '' ) ;
#461 = DIRECTION ( 'NONE',  ( 1.000000000000000000, 0.000000000000000000, 0.000000000000000000 ) ) ;
#462 = TOROIDAL_SURFACE ( 'NONE', #561, 1.245064030267288402, 2.124999999999995115 ) ;
#463 = ORIENTED_EDGE ( 'NONE', *, *, #257, .F. ) ;
#464 = LOCAL_TIME ( 15, 2, 9.000000000000000000, #465 ) ;
#465 = COORDINATED_UNIVERSAL_TIME_OFFSET ( 6, 0, .BEHIND. ) ;
#466 = DIRECTION ( 'NONE',  ( -0.000000000000000000, -0.000000000000000000, 1.000000000000000000 ) ) ;
#467 = ORIENTED_EDGE ( 'NONE', *, *, #296, .F. ) ;
#468 = DATE_AND_TIME ( #297, #183 ) ;
#469 = ADVANCED_FACE ( 'NONE', ( #443 ), #529, .F. ) ;
#470 = ORIENTED_EDGE ( 'NONE', *, *, #398, .F. ) ;
#471 = FACE_OUTER_BOUND ( 'NONE', #290, .T. ) ;
#472 = LINE ( 'NONE', #179, #354 ) ;
#473 = VECTOR ( 'NONE', #83, 1000.000000000000000 ) ;
#474 = AXIS2_PLACEMENT_3D ( 'NONE', #450, #188, #378 ) ;
#475 = DATE_TIME_ROLE ( 'creation_date' ) ;
#476 = DIRECTION ( 'NONE',  ( 1.000000000000000000, 0.000000000000000000, 0.000000000000000000 ) ) ;
#477 = DIRECTION ( 'NONE',  ( 0.000000000000000000, 0.000000000000000000, -1.000000000000000000 ) ) ;
#478 = EDGE_CURVE ( 'NONE', #217, #34, #371, .T. ) ;
#479 = CARTESIAN_POINT ( 'NONE',  ( -1.587500000000000355, -1.587500000000000355, 56.26100000000000279 ) ) ;
#480 = CARTESIAN_POINT ( 'NONE',  ( 0.000000000000000000, 0.000000000000000000, -54.13600000000000989 ) ) ;
#481 = CARTESIAN_POINT ( 'NONE',  ( 0.4219230645619450049, -1.587499999999999911, 56.22730730355360862 ) ) ;
#482 = CARTESIAN_POINT ( 'NONE',  ( -1.245064030267288402, 2.006622987633880502E-16, -56.26100000000000279 ) ) ;
#483 = ORIENTED_EDGE ( 'NONE', *, *, #53, .T. ) ;
#484 = DIRECTION ( 'NONE',  ( 0.000000000000000000, 0.000000000000000000, -1.000000000000000000 ) ) ;
#485 = DIRECTION ( 'NONE',  ( 0.000000000000000000, 0.000000000000000000, -1.000000000000000000 ) ) ;
#486 = ORIENTED_EDGE ( 'NONE', *, *, #67, .T. ) ;
#487 = CARTESIAN_POINT ( 'NONE',  ( -1.587500000000000355, 1.944126793646423534E-16, -56.23322736169287595 ) ) ;
#488 = CARTESIAN_POINT ( 'NONE',  ( 0.000000000000000000, 0.000000000000000000, 56.10991914209798637 ) ) ;
#489 = VERTEX_POINT ( 'NONE', #487 ) ;
#490 = CARTESIAN_POINT ( 'NONE',  ( -1.587500000000000577, -0.8514389605504935066, 56.19136751577921274 ) ) ;
#491 = CARTESIAN_POINT ( 'NONE',  ( 1.587500000000000355, 1.268411506570323866, 56.10991914209798637 ) ) ;
#492 = LINE ( 'NONE', #536, #540 ) ;
#493 = DIRECTION ( 'NONE',  ( 1.000000000000000000, 0.000000000000000000, 0.000000000000000000 ) ) ;
#494 = DIRECTION ( 'NONE',  ( -0.000000000000000000, -0.000000000000000000, 1.000000000000000000 ) ) ;
#495 = AXIS2_PLACEMENT_3D ( 'NONE', #52, #95, #221 ) ;
#496 = EDGE_CURVE ( 'NONE', #27, #97, #315, .T. ) ;
#497 = ORIENTED_EDGE ( 'NONE', *, *, #358, .T. ) ;
#498 = CC_DESIGN_SECURITY_CLASSIFICATION ( #324, ( #390 ) ) ;
#499 = CARTESIAN_POINT ( 'NONE',  ( 0.000000000000000000, 0.000000000000000000, -54.13600000000000989 ) ) ;
#500 = VERTEX_POINT ( 'NONE', #395 ) ;
#501 = ADVANCED_FACE ( 'NONE', ( #446 ), #5, .T. ) ;
#502 = COORDINATED_UNIVERSAL_TIME_OFFSET ( 6, 0, .BEHIND. ) ;
#503 = FACE_OUTER_BOUND ( 'NONE', #31, .T. ) ;
#504 = CC_DESIGN_PERSON_AND_ORGANIZATION_ASSIGNMENT ( #506, #251, ( #390 ) ) ;
#505 = LINE ( 'NONE', #114, #137 ) ;
#506 = PERSON_AND_ORGANIZATION ( #521, #128 ) ;
#507 = DIRECTION ( 'NONE',  ( -0.000000000000000000, -0.000000000000000000, 1.000000000000000000 ) ) ;
#508 = EDGE_CURVE ( 'NONE', #368, #553, #8, .T. ) ;
#509 = VERTEX_POINT ( 'NONE', #54 ) ;
#510 = DATE_AND_TIME ( #283, #278 ) ;
#511 = CARTESIAN_POINT ( 'NONE',  ( -0.4219230645619450049, 1.587499999999999911, 56.22730730355360862 ) ) ;
#512 = PERSON_AND_ORGANIZATION_ROLE ( 'design_owner' ) ;
#513 = CARTESIAN_POINT ( 'NONE',  ( -1.268411506570323866, 1.587500000000000355, -56.10991914209798637 ) ) ;
#514 = ORIENTED_EDGE ( 'NONE', *, *, #76, .T. ) ;
#515 = AXIS2_PLACEMENT_3D ( 'NONE', #141, #227, #357 ) ;
#516 = APPROVAL_PERSON_ORGANIZATION ( #209, #118, #460 ) ;
#517 = DIRECTION ( 'NONE',  ( -0.000000000000000000, -0.000000000000000000, 1.000000000000000000 ) ) ;
#518 = CARTESIAN_POINT ( 'NONE',  ( -1.587500000000000577, 0.8514389605504935066, -56.19136751577921274 ) ) ;
#519 = DIRECTION ( 'NONE',  ( 0.000000000000000000, 0.000000000000000000, -1.000000000000000000 ) ) ;
#520 = VERTEX_POINT ( 'NONE', #455 ) ;
#521 = PERSON ( 'UNSPECIFIED', 'UNSPECIFIED', 'UNSPECIFIED', ('UNSPECIFIED'), ('UNSPECIFIED'), ('UNSPECIFIED') ) ;
#522 = CC_DESIGN_DATE_AND_TIME_ASSIGNMENT ( #468, #122, ( #324 ) ) ;
#523 = DIRECTION ( 'NONE',  ( -1.000000000000000000, 0.000000000000000000, 0.000000000000000000 ) ) ;
#524 = DIRECTION ( 'NONE',  ( -1.000000000000000000, 0.000000000000000000, 0.000000000000000000 ) ) ;
#525 = AXIS2_PLACEMENT_3D ( 'NONE', #412, #363, #493 ) ;
#526 = CARTESIAN_POINT ( 'NONE',  ( 1.587500000000000355, -0.2143109880596213712, 56.23322736169287595 ) ) ;
#527 = CARTESIAN_POINT ( 'NONE',  ( -1.587500000000000355, -1.061392899157111325, -56.16143677385166910 ) ) ;
#528 = APPROVAL ( #341, 'UNSPECIFIED' ) ;
#529 = PLANE ( 'NONE',  #515 ) ;
#530 = ORIENTED_EDGE ( 'NONE', *, *, #76, .F. ) ;
#531 = EDGE_CURVE ( 'NONE', #195, #232, #150, .T. ) ;
#532 = CIRCLE ( 'NONE', #286, 2.032000000000000028 ) ;
#533 = AXIS2_PLACEMENT_3D ( 'NONE', #338, #544, #159 ) ;
#534 = CARTESIAN_POINT ( 'NONE',  ( 1.587500000000000355, -0.8513200635100126590, 56.19137755531811962 ) ) ;
#535 = ORIENTED_EDGE ( 'NONE', *, *, #310, .F. ) ;
#536 = CARTESIAN_POINT ( 'NONE',  ( 1.587500000000000355, 1.268411506570323866, -56.26100000000000279 ) ) ;
#537 = CARTESIAN_POINT ( 'NONE',  ( -1.587500000000000355, -1.944126793646423534E-16, 56.23322736169287595 ) ) ;
#538 = MANIFOLD_SOLID_BREP ( '228-2500-260', #7 ) ;
#539 = CARTESIAN_POINT ( 'NONE',  ( 1.587500000000000577, -0.4277385810629841800, 56.22698654358313064 ) ) ;
#540 = VECTOR ( 'NONE', #485, 1000.000000000000000 ) ;
#541 = ORIENTED_EDGE ( 'NONE', *, *, #210, .F. ) ;
#542 = DIRECTION ( 'NONE',  ( -0.000000000000000000, -0.000000000000000000, 1.000000000000000000 ) ) ;
#543 = CARTESIAN_POINT ( 'NONE',  ( 1.587500000000000355, -1.587500000000000355, 56.26100000000000279 ) ) ;
#544 = DIRECTION ( 'NONE',  ( 0.000000000000000000, 0.000000000000000000, -1.000000000000000000 ) ) ;
#545 = VERTEX_POINT ( 'NONE', #103 ) ;
#546 = COORDINATED_UNIVERSAL_TIME_OFFSET ( 6, 0, .BEHIND. ) ;
#547 = CARTESIAN_POINT ( 'NONE',  ( -0.8486262390323799920, 1.587500000000000799, 56.19176882282397401 ) ) ;
#548 = EDGE_LOOP ( 'NONE', ( #80, #59, #454, #401, #160, #69, #316, #234 ) ) ;
#549 = AXIS2_PLACEMENT_3D ( 'NONE', #356, #194, #274 ) ;
#550 = APPLICATION_PROTOCOL_DEFINITION ( 'international standard', 'config_control_design', 1994, #425 ) ;
#551 = EDGE_CURVE ( 'NONE', #16, #276, #361, .T. ) ;
#552 = DIRECTION ( 'NONE',  ( 1.000000000000000000, 0.000000000000000000, 0.000000000000000000 ) ) ;
#553 = VERTEX_POINT ( 'NONE', #273 ) ;
#554 = B_SPLINE_CURVE_WITH_KNOTS ( 'NONE', 3,
 ( #138, #304, #186, #256, #527, #309 ),
 .UNSPECIFIED., .F., .F.,
 ( 4, 2, 4 ),
 ( 1.905938025164284470E-19, 0.0006365870327257440800, 0.001273174065451487943 ),
 .UNSPECIFIED. ) ;
#555 = CARTESIAN_POINT ( 'NONE',  ( -1.587500000000000355, -1.587500000000000355, 56.26100000000000279 ) ) ;
#556 = EDGE_CURVE ( 'NONE', #272, #232, #405, .T. ) ;
#557 = ORIENTED_EDGE ( 'NONE', *, *, #192, .T. ) ;
#558 = PERSON_AND_ORGANIZATION ( #521, #128 ) ;
#559 = FACE_OUTER_BOUND ( 'NONE', #367, .T. ) ;
#560 = ORIENTED_EDGE ( 'NONE', *, *, #531, .F. ) ;
#561 = AXIS2_PLACEMENT_3D ( 'NONE', #480, #433, #38 ) ;
ENDSEC;
END-ISO-10303-21;
