ISO-10303-21;
HEADER;
FILE_DESCRIPTION (( 'STEP AP203' ),
    '1' );
FILE_NAME ('228-2500-1660.step',
    '2022-06-06T19:21:09',
    ( '' ),
    ( '' ),
    'SwSTEP 2.0',
    'SolidWorks 2021',
    '' );
FILE_SCHEMA (( 'CONFIG_CONTROL_DESIGN' ));
ENDSEC;

DATA;
#1 = ORIENTED_EDGE ( 'NONE', *, *, #252, .T. ) ;
#2 = CC_DESIGN_PERSON_AND_ORGANIZATION_ASSIGNMENT ( #231, #450, ( #164 ) ) ;
#3 = DIRECTION ( 'NONE',  ( 0.000000000000000000, 0.000000000000000000, -1.000000000000000000 ) ) ;
#4 = APPROVAL_STATUS ( 'not_yet_approved' ) ;
#5 = AXIS2_PLACEMENT_3D ( 'NONE', #457, #14, #415 ) ;
#6 = ORIENTED_EDGE ( 'NONE', *, *, #297, .F. ) ;
#7 = DIRECTION ( 'NONE',  ( 1.000000000000000000, 0.000000000000000000, 1.224646799147352961E-16 ) ) ;
#8 = VERTEX_POINT ( 'NONE', #101 ) ;
#9 = CYLINDRICAL_SURFACE ( 'NONE', #23, 3.225000000000000533 ) ;
#10 = EDGE_LOOP ( 'NONE', ( #96, #46, #469, #382 ) ) ;
#11 = LINE ( 'NONE', #238, #199 ) ;
#12 = EDGE_CURVE ( 'NONE', #337, #130, #15, .T. ) ;
#13 = ORIENTED_EDGE ( 'NONE', *, *, #83, .F. ) ;
#14 = DIRECTION ( 'NONE',  ( -0.000000000000000000, 0.000000000000000000, 1.000000000000000000 ) ) ;
#15 = CIRCLE ( 'NONE', #287, 3.225000000000000533 ) ;
#16 = AXIS2_PLACEMENT_3D ( 'NONE', #26, #176, #479 ) ;
#17 = EDGE_CURVE ( 'NONE', #136, #121, #188, .T. ) ;
#18 = ORIENTED_EDGE ( 'NONE', *, *, #83, .T. ) ;
#19 = EDGE_CURVE ( 'NONE', #58, #153, #197, .T. ) ;
#20 = DIRECTION ( 'NONE',  ( 0.000000000000000000, 0.000000000000000000, -1.000000000000000000 ) ) ;
#21 = ORIENTED_EDGE ( 'NONE', *, *, #79, .F. ) ;
#22 = ORIENTED_EDGE ( 'NONE', *, *, #416, .T. ) ;
#23 = AXIS2_PLACEMENT_3D ( 'NONE', #90, #311, #377 ) ;
#24 = ORIENTED_EDGE ( 'NONE', *, *, #113, .T. ) ;
#25 = ADVANCED_FACE ( 'NONE', ( #404 ), #446, .T. ) ;
#26 = CARTESIAN_POINT ( 'NONE',  ( 0.000000000000000000, -2.599879804914066117, 0.000000000000000000 ) ) ;
#27 = CARTESIAN_POINT ( 'NONE',  ( 0.000000000000000000, -2.599879804914066117, 3.225000000000000533 ) ) ;
#28 = DIRECTION ( 'NONE',  ( 0.000000000000000000, 0.000000000000000000, -1.000000000000000000 ) ) ;
#29 = FACE_OUTER_BOUND ( 'NONE', #191, .T. ) ;
#30 = DIRECTION ( 'NONE',  ( 0.000000000000000000, 0.000000000000000000, 1.000000000000000000 ) ) ;
#31 = FACE_OUTER_BOUND ( 'NONE', #305, .T. ) ;
#32 = FACE_BOUND ( 'NONE', #167, .T. ) ;
#33 = APPLICATION_PROTOCOL_DEFINITION ( 'international standard', 'config_control_design', 1994, #107 ) ;
#34 = AXIS2_PLACEMENT_3D ( 'NONE', #174, #210, #124 ) ;
#35 = APPROVAL_STATUS ( 'not_yet_approved' ) ;
#36 = CIRCLE ( 'NONE', #253, 2.100000000000000089 ) ;
#37 = ORIENTED_EDGE ( 'NONE', *, *, #19, .F. ) ;
#38 = EDGE_CURVE ( 'NONE', #127, #215, #445, .T. ) ;
#39 = PERSON_AND_ORGANIZATION_ROLE ( 'classification_officer' ) ;
#40 = DIRECTION ( 'NONE',  ( 0.000000000000000000, 0.000000000000000000, 1.000000000000000000 ) ) ;
#41 = APPROVAL_DATE_TIME ( #114, #52 ) ;
#42 = DIRECTION ( 'NONE',  ( 0.000000000000000000, -1.000000000000000000, 0.000000000000000000 ) ) ;
#43 = AXIS2_PLACEMENT_3D ( 'NONE', #118, #7, #301 ) ;
#44 = ORIENTED_EDGE ( 'NONE', *, *, #460, .F. ) ;
#45 = CARTESIAN_POINT ( 'NONE',  ( 0.000000000000000000, 2.720804447003090321, 0.000000000000000000 ) ) ;
#46 = ORIENTED_EDGE ( 'NONE', *, *, #99, .T. ) ;
#47 = ORIENTED_EDGE ( 'NONE', *, *, #358, .T. ) ;
#48 = CARTESIAN_POINT ( 'NONE',  ( 0.000000000000000000, -2.720804447003090321, 0.000000000000000000 ) ) ;
#49 = EDGE_LOOP ( 'NONE', ( #310, #91, #205, #161, #86, #432 ) ) ;
#50 = TOROIDAL_SURFACE ( 'NONE', #268, 3.425000000000000711, 0.2000000000000000111 ) ;
#51 = AXIS2_PLACEMENT_3D ( 'NONE', #362, #180, #146 ) ;
#52 = APPROVAL ( #4, 'UNSPECIFIED' ) ;
#53 = CARTESIAN_POINT ( 'NONE',  ( 0.000000000000000000, -2.286000000000000032, 0.000000000000000000 ) ) ;
#54 = ORIENTED_EDGE ( 'NONE', *, *, #212, .F. ) ;
#55 = LINE ( 'NONE', #424, #370 ) ;
#56 = ORIENTED_EDGE ( 'NONE', *, *, #38, .T. ) ;
#57 = EDGE_CURVE ( 'NONE', #138, #298, #394, .T. ) ;
#58 = VERTEX_POINT ( 'NONE', #288 ) ;
#59 = AXIS2_PLACEMENT_3D ( 'NONE', #67, #485, #390 ) ;
#60 = LOCAL_TIME ( 14, 21, 9.000000000000000000, #265 ) ;
#61 = DIRECTION ( 'NONE',  ( 1.000000000000000000, 0.000000000000000000, 0.000000000000000000 ) ) ;
#62 = CARTESIAN_POINT ( 'NONE',  ( 0.000000000000000000, -2.720804447003090321, 0.000000000000000000 ) ) ;
#63 = CARTESIAN_POINT ( 'NONE',  ( 0.000000000000000000, -4.500000000000000000, 0.000000000000000000 ) ) ;
#64 = FACE_BOUND ( 'NONE', #300, .T. ) ;
#65 = LINE ( 'NONE', #69, #227 ) ;
#66 = DIRECTION ( 'NONE',  ( 0.000000000000000000, 1.000000000000000000, 0.000000000000000000 ) ) ;
#67 = CARTESIAN_POINT ( 'NONE',  ( 0.000000000000000000, -2.286000000000000032, 0.000000000000000000 ) ) ;
#68 = CIRCLE ( 'NONE', #216, 2.100000000000000089 ) ;
#69 = CARTESIAN_POINT ( 'NONE',  ( 3.949485927250213853E-16, 3.979949748426479417, 3.225000000000000533 ) ) ;
#70 = DIRECTION ( 'NONE',  ( -1.224646799147353207E-16, 0.000000000000000000, -1.000000000000000000 ) ) ;
#71 = FACE_OUTER_BOUND ( 'NONE', #373, .T. ) ;
#72 = ADVANCED_FACE ( 'NONE', ( #400, #64 ), #327, .T. ) ;
#73 = CIRCLE ( 'NONE', #149, 2.100000000000000089 ) ;
#74 = PERSON_AND_ORGANIZATION_ROLE ( 'creator' ) ;
#75 = ORIENTED_EDGE ( 'NONE', *, *, #478, .T. ) ;
#76 = APPLICATION_CONTEXT ( 'configuration controlled 3d designs of mechanical parts and assemblies' ) ;
#77 = CALENDAR_DATE ( 2022, 6, 6 ) ;
#78 = CARTESIAN_POINT ( 'NONE',  ( 0.000000000000000000, -2.720804447003090321, 3.584302325581395721 ) ) ;
#79 = EDGE_CURVE ( 'NONE', #298, #98, #452, .T. ) ;
#80 = COORDINATED_UNIVERSAL_TIME_OFFSET ( 6, 0, .BEHIND. ) ;
#81 = ORIENTED_EDGE ( 'NONE', *, *, #230, .T. ) ;
#82 = CARTESIAN_POINT ( 'NONE',  ( 4.389504370199669309E-16, -2.720804447003090321, -3.584302325581395721 ) ) ;
#83 = EDGE_CURVE ( 'NONE', #202, #420, #73, .T. ) ;
#84 = TOROIDAL_SURFACE ( 'NONE', #110, 3.425000000000000711, 0.2000000000000000111 ) ;
#85 = LOCAL_TIME ( 14, 21, 9.000000000000000000, #80 ) ;
#86 = ORIENTED_EDGE ( 'NONE', *, *, #57, .T. ) ;
#87 = DIRECTION ( 'NONE',  ( 0.000000000000000000, 0.000000000000000000, -1.000000000000000000 ) ) ;
#88 = DIRECTION ( 'NONE',  ( -0.000000000000000000, 1.000000000000000000, -0.000000000000000000 ) ) ;
#89 = ORIENTED_EDGE ( 'NONE', *, *, #266, .T. ) ;
#90 = CARTESIAN_POINT ( 'NONE',  ( 0.000000000000000000, 3.979949748426479417, 0.000000000000000000 ) ) ;
#91 = ORIENTED_EDGE ( 'NONE', *, *, #410, .T. ) ;
#92 = APPROVAL ( #35, 'UNSPECIFIED' ) ;
#93 = ORIENTED_EDGE ( 'NONE', *, *, #252, .F. ) ;
#94 = AXIS2_PLACEMENT_3D ( 'NONE', #306, #270, #196 ) ;
#95 = VECTOR ( 'NONE', #256, 1000.000000000000000 ) ;
#96 = ORIENTED_EDGE ( 'NONE', *, *, #17, .T. ) ;
#97 = DIRECTION ( 'NONE',  ( 0.000000000000000000, -1.000000000000000000, 0.000000000000000000 ) ) ;
#98 = VERTEX_POINT ( 'NONE', #317 ) ;
#99 = EDGE_CURVE ( 'NONE', #121, #130, #55, .T. ) ;
#100 = CARTESIAN_POINT ( 'NONE',  ( 2.571758278209441957E-16, -2.286000000000000032, -2.100000000000000089 ) ) ;
#101 = CARTESIAN_POINT ( 'NONE',  ( 3.949485927250213853E-16, 2.599879804914066117, 3.225000000000000533 ) ) ;
#102 = CIRCLE ( 'NONE', #473, 3.225000000000000533 ) ;
#103 = DIRECTION ( 'NONE',  ( 0.000000000000000000, 0.000000000000000000, 1.000000000000000000 ) ) ;
#104 = EDGE_CURVE ( 'NONE', #136, #337, #250, .T. ) ;
#105 = CARTESIAN_POINT ( 'NONE',  ( 0.000000000000000000, 0.000000000000000000, 0.000000000000000000 ) ) ;
#106 = FACE_OUTER_BOUND ( 'NONE', #169, .T. ) ;
#107 = APPLICATION_CONTEXT ( 'configuration controlled 3d designs of mechanical parts and assemblies' ) ;
#108 = ADVANCED_FACE ( 'NONE', ( #106 ), #137, .F. ) ;
#109 = FACE_OUTER_BOUND ( 'NONE', #474, .T. ) ;
#110 = AXIS2_PLACEMENT_3D ( 'NONE', #217, #331, #438 ) ;
#111 =( GEOMETRIC_REPRESENTATION_CONTEXT ( 3 ) GLOBAL_UNCERTAINTY_ASSIGNED_CONTEXT ( ( #312 ) ) GLOBAL_UNIT_ASSIGNED_CONTEXT ( ( #223, #483, #489 ) ) REPRESENTATION_CONTEXT ( 'NONE', 'WORKASPACE' ) );
#112 = CARTESIAN_POINT ( 'NONE',  ( 0.000000000000000000, -3.979949748426479417, 0.000000000000000000 ) ) ;
#113 = EDGE_CURVE ( 'NONE', #168, #8, #142, .T. ) ;
#114 = DATE_AND_TIME ( #372, #85 ) ;
#115 = DATE_AND_TIME ( #77, #447 ) ;
#116 = ORIENTED_EDGE ( 'NONE', *, *, #335, .F. ) ;
#117 = AXIS2_PLACEMENT_3D ( 'NONE', #419, #248, #40 ) ;
#118 = CARTESIAN_POINT ( 'NONE',  ( 4.194415287079684445E-16, -2.599879804914066117, -3.425000000000000711 ) ) ;
#119 = PERSON_AND_ORGANIZATION_ROLE ( 'design_supplier' ) ;
#120 = CARTESIAN_POINT ( 'NONE',  ( 0.000000000000000000, -2.720804447003090321, 0.000000000000000000 ) ) ;
#121 = VERTEX_POINT ( 'NONE', #147 ) ;
#122 = FACE_OUTER_BOUND ( 'NONE', #213, .T. ) ;
#123 = AXIS2_PLACEMENT_3D ( 'NONE', #185, #322, #284 ) ;
#124 = DIRECTION ( 'NONE',  ( 0.000000000000000000, 0.000000000000000000, 1.000000000000000000 ) ) ;
#125 = VECTOR ( 'NONE', #219, 1000.000000000000000 ) ;
#126 = AXIS2_PLACEMENT_3D ( 'NONE', #105, #396, #61 ) ;
#127 = VERTEX_POINT ( 'NONE', #221 ) ;
#128 = DIRECTION ( 'NONE',  ( -0.000000000000000000, 1.000000000000000000, -0.000000000000000000 ) ) ;
#129 = EDGE_CURVE ( 'NONE', #8, #344, #319, .T. ) ;
#130 = VERTEX_POINT ( 'NONE', #441 ) ;
#131 = CARTESIAN_POINT ( 'NONE',  ( 4.389504370199669309E-16, 2.720804447003090321, 3.584302325581395721 ) ) ;
#132 = ORIENTED_EDGE ( 'NONE', *, *, #460, .T. ) ;
#133 = ORIENTED_EDGE ( 'NONE', *, *, #104, .T. ) ;
#134 = TOROIDAL_SURFACE ( 'NONE', #407, 3.425000000000000711, 0.2000000000000000111 ) ;
#135 = ADVANCED_FACE ( 'NONE', ( #109, #32 ), #259, .T. ) ;
#136 = VERTEX_POINT ( 'NONE', #27 ) ;
#137 = CYLINDRICAL_SURFACE ( 'NONE', #348, 2.100000000000000089 ) ;
#138 = VERTEX_POINT ( 'NONE', #326 ) ;
#139 = MECHANICAL_CONTEXT ( 'NONE', #76, 'mechanical' ) ;
#140 = DIRECTION ( 'NONE',  ( 0.000000000000000000, 1.000000000000000000, 0.000000000000000000 ) ) ;
#141 = DIRECTION ( 'NONE',  ( 0.000000000000000000, 0.000000000000000000, 1.000000000000000000 ) ) ;
#142 = CIRCLE ( 'NONE', #294, 3.225000000000000533 ) ;
#143 = DIRECTION ( 'NONE',  ( 0.000000000000000000, 0.000000000000000000, 1.000000000000000000 ) ) ;
#144 = DIRECTION ( 'NONE',  ( 1.000000000000000000, 0.000000000000000000, -1.224646799147352961E-16 ) ) ;
#145 = ADVANCED_FACE ( 'NONE', ( #29 ), #264, .F. ) ;
#146 = DIRECTION ( 'NONE',  ( -1.000000000000000000, 0.000000000000000000, 1.224646799147352961E-16 ) ) ;
#147 = CARTESIAN_POINT ( 'NONE',  ( 3.949485927250213853E-16, -2.599879804914066117, -3.225000000000000533 ) ) ;
#148 = LINE ( 'NONE', #399, #125 ) ;
#149 = AXIS2_PLACEMENT_3D ( 'NONE', #53, #88, #20 ) ;
#150 = LOCAL_TIME ( 14, 21, 9.000000000000000000, #156 ) ;
#151 = DATE_TIME_ROLE ( 'classification_date' ) ;
#152 = DIRECTION ( 'NONE',  ( -1.000000000000000000, 0.000000000000000000, 0.000000000000000000 ) ) ;
#153 = VERTEX_POINT ( 'NONE', #406 ) ;
#154 = DIRECTION ( 'NONE',  ( -0.000000000000000000, -1.000000000000000000, -0.000000000000000000 ) ) ;
#155 = AXIS2_PLACEMENT_3D ( 'NONE', #206, #273, #347 ) ;
#156 = COORDINATED_UNIVERSAL_TIME_OFFSET ( 6, 0, .BEHIND. ) ;
#157 = PRODUCT_DEFINITION_FORMATION_WITH_SPECIFIED_SOURCE ( 'ANY', '', #158, .NOT_KNOWN. ) ;
#158 = PRODUCT ( '228-2500-1660', '228-2500-1660', '', ( #139 ) ) ;
#159 = ORIENTED_EDGE ( 'NONE', *, *, #297, .T. ) ;
#160 = DIRECTION ( 'NONE',  ( 0.000000000000000000, 0.000000000000000000, 1.000000000000000000 ) ) ;
#161 = ORIENTED_EDGE ( 'NONE', *, *, #283, .T. ) ;
#162 = DIRECTION ( 'NONE',  ( -0.000000000000000000, 1.000000000000000000, -0.000000000000000000 ) ) ;
#163 = FACE_OUTER_BOUND ( 'NONE', #166, .T. ) ;
#164 = PRODUCT_DEFINITION ( 'UNKNOWN', '', #157, #351 ) ;
#165 = AXIS2_PLACEMENT_3D ( 'NONE', #360, #293, #408 ) ;
#166 = EDGE_LOOP ( 'NONE', ( #470, #81, #465, #267 ) ) ;
#167 = EDGE_LOOP ( 'NONE', ( #22, #232 ) ) ;
#168 = VERTEX_POINT ( 'NONE', #444 ) ;
#169 = EDGE_LOOP ( 'NONE', ( #44, #6, #47, #237 ) ) ;
#170 = AXIS2_PLACEMENT_3D ( 'NONE', #333, #493, #152 ) ;
#171 = ADVANCED_FACE ( 'NONE', ( #484 ), #257, .T. ) ;
#172 = CIRCLE ( 'NONE', #464, 3.584302325581393944 ) ;
#173 = LINE ( 'NONE', #329, #95 ) ;
#174 = CARTESIAN_POINT ( 'NONE',  ( 0.000000000000000000, -2.720804447003090321, 0.000000000000000000 ) ) ;
#175 = ORIENTED_EDGE ( 'NONE', *, *, #12, .T. ) ;
#176 = DIRECTION ( 'NONE',  ( -0.000000000000000000, 1.000000000000000000, -0.000000000000000000 ) ) ;
#177 = DIRECTION ( 'NONE',  ( 0.000000000000000000, 1.000000000000000000, 0.000000000000000000 ) ) ;
#178 = DIRECTION ( 'NONE',  ( -0.000000000000000000, 1.000000000000000000, -0.000000000000000000 ) ) ;
#179 = ADVANCED_FACE ( 'NONE', ( #475 ), #84, .T. ) ;
#180 = DIRECTION ( 'NONE',  ( -1.224646799147353207E-16, 0.000000000000000000, -1.000000000000000000 ) ) ;
#181 = CARTESIAN_POINT ( 'NONE',  ( 0.000000000000000000, -4.500000000000000000, 0.000000000000000000 ) ) ;
#182 = AXIS2_PLACEMENT_3D ( 'NONE', #477, #443, #260 ) ;
#183 = CARTESIAN_POINT ( 'NONE',  ( 0.000000000000000000, -2.599879804914066117, 3.425000000000000711 ) ) ;
#184 = DIRECTION ( 'NONE',  ( 0.000000000000000000, 0.000000000000000000, -1.000000000000000000 ) ) ;
#185 = CARTESIAN_POINT ( 'NONE',  ( 0.000000000000000000, 0.000000000000000000, 0.000000000000000000 ) ) ;
#186 = PERSON_AND_ORGANIZATION ( #476, #328 ) ;
#187 = CC_DESIGN_PERSON_AND_ORGANIZATION_ASSIGNMENT ( #263, #39, ( #222 ) ) ;
#188 = CIRCLE ( 'NONE', #251, 3.225000000000000533 ) ;
#189 = CIRCLE ( 'NONE', #398, 3.584302325581393944 ) ;
#190 = PERSON_AND_ORGANIZATION ( #476, #328 ) ;
#191 = EDGE_LOOP ( 'NONE', ( #13, #132, #456, #461 ) ) ;
#192 = ORIENTED_EDGE ( 'NONE', *, *, #283, .F. ) ;
#193 = CARTESIAN_POINT ( 'NONE',  ( 0.000000000000000000, -2.286000000000000032, 0.000000000000000000 ) ) ;
#194 = DATE_AND_TIME ( #455, #150 ) ;
#195 = ORIENTED_EDGE ( 'NONE', *, *, #57, .F. ) ;
#196 = DIRECTION ( 'NONE',  ( 0.000000000000000000, 0.000000000000000000, 1.000000000000000000 ) ) ;
#197 = CIRCLE ( 'NONE', #182, 3.225000000000000533 ) ;
#198 = SHAPE_DEFINITION_REPRESENTATION ( #428, #365 ) ;
#199 = VECTOR ( 'NONE', #235, 1000.000000000000000 ) ;
#200 = ORIENTED_EDGE ( 'NONE', *, *, #262, .T. ) ;
#201 = DIRECTION ( 'NONE',  ( -0.000000000000000000, -1.000000000000000000, -0.000000000000000000 ) ) ;
#202 = VERTEX_POINT ( 'NONE', #100 ) ;
#203 = CARTESIAN_POINT ( 'NONE',  ( 0.000000000000000000, -2.286000000000000032, 0.000000000000000000 ) ) ;
#204 = ADVANCED_FACE ( 'NONE', ( #31 ), #50, .T. ) ;
#205 = ORIENTED_EDGE ( 'NONE', *, *, #448, .T. ) ;
#206 = CARTESIAN_POINT ( 'NONE',  ( 0.000000000000000000, 2.599879804914066117, -3.425000000000000711 ) ) ;
#207 = VECTOR ( 'NONE', #140, 1000.000000000000000 ) ;
#208 = CIRCLE ( 'NONE', #43, 0.2000000000000000944 ) ;
#209 = ORIENTED_EDGE ( 'NONE', *, *, #17, .F. ) ;
#210 = DIRECTION ( 'NONE',  ( -0.000000000000000000, 1.000000000000000000, -0.000000000000000000 ) ) ;
#211 = DIRECTION ( 'NONE',  ( 0.000000000000000000, 0.000000000000000000, 1.000000000000000000 ) ) ;
#212 = EDGE_CURVE ( 'NONE', #168, #58, #148, .T. ) ;
#213 = EDGE_LOOP ( 'NONE', ( #276, #229, #133, #175 ) ) ;
#214 = DIRECTION ( 'NONE',  ( -0.000000000000000000, -1.000000000000000000, -0.000000000000000000 ) ) ;
#215 = VERTEX_POINT ( 'NONE', #330 ) ;
#216 = AXIS2_PLACEMENT_3D ( 'NONE', #203, #162, #87 ) ;
#217 = CARTESIAN_POINT ( 'NONE',  ( 0.000000000000000000, 2.599879804914066117, 0.000000000000000000 ) ) ;
#218 = ADVANCED_FACE ( 'NONE', ( #289 ), #487, .F. ) ;
#219 = DIRECTION ( 'NONE',  ( 0.000000000000000000, -1.000000000000000000, 0.000000000000000000 ) ) ;
#220 = DIRECTION ( 'NONE',  ( 0.000000000000000000, -1.000000000000000000, 0.000000000000000000 ) ) ;
#221 = CARTESIAN_POINT ( 'NONE',  ( 0.000000000000000000, 2.720804447003090321, -3.584302325581395721 ) ) ;
#222 = SECURITY_CLASSIFICATION ( '', '', #458 ) ;
#223 =( LENGTH_UNIT ( ) NAMED_UNIT ( * ) SI_UNIT ( .MILLI., .METRE. ) );
#224 = CARTESIAN_POINT ( 'NONE',  ( 0.000000000000000000, -3.979949748426479417, 3.225000000000000533 ) ) ;
#225 = CALENDAR_DATE ( 2022, 6, 6 ) ;
#226 = DIRECTION ( 'NONE',  ( 0.000000000000000000, 0.000000000000000000, 1.000000000000000000 ) ) ;
#227 = VECTOR ( 'NONE', #220, 1000.000000000000000 ) ;
#228 = APPROVAL_DATE_TIME ( #115, #92 ) ;
#229 = ORIENTED_EDGE ( 'NONE', *, *, #386, .T. ) ;
#230 = EDGE_CURVE ( 'NONE', #8, #168, #341, .T. ) ;
#231 = PERSON_AND_ORGANIZATION ( #476, #328 ) ;
#232 = ORIENTED_EDGE ( 'NONE', *, *, #374, .T. ) ;
#233 = DIRECTION ( 'NONE',  ( 0.000000000000000000, 0.000000000000000000, 1.000000000000000000 ) ) ;
#234 = DATE_AND_TIME ( #271, #371 ) ;
#235 = DIRECTION ( 'NONE',  ( -0.000000000000000000, 1.000000000000000000, -0.000000000000000000 ) ) ;
#236 = CC_DESIGN_APPROVAL ( #92, ( #164 ) ) ;
#237 = ORIENTED_EDGE ( 'NONE', *, *, #374, .F. ) ;
#238 = CARTESIAN_POINT ( 'NONE',  ( 0.000000000000000000, -4.500000000000000000, 2.100000000000000089 ) ) ;
#239 = DIRECTION ( 'NONE',  ( 0.000000000000000000, 1.000000000000000000, 0.000000000000000000 ) ) ;
#240 = ORIENTED_EDGE ( 'NONE', *, *, #12, .F. ) ;
#241 = DIRECTION ( 'NONE',  ( 0.000000000000000000, 0.000000000000000000, 1.000000000000000000 ) ) ;
#242 = ORIENTED_EDGE ( 'NONE', *, *, #401, .F. ) ;
#243 = AXIS2_PLACEMENT_3D ( 'NONE', #181, #286, #103 ) ;
#244 = CIRCLE ( 'NONE', #295, 3.225000000000000533 ) ;
#245 = EDGE_LOOP ( 'NONE', ( #247, #313, #93, #21, #321 ) ) ;
#246 = ADVANCED_FACE ( 'NONE', ( #71 ), #325, .F. ) ;
#247 = ORIENTED_EDGE ( 'NONE', *, *, #386, .F. ) ;
#248 = DIRECTION ( 'NONE',  ( -0.000000000000000000, -1.000000000000000000, -0.000000000000000000 ) ) ;
#249 = ORIENTED_EDGE ( 'NONE', *, *, #335, .T. ) ;
#250 = LINE ( 'NONE', #224, #207 ) ;
#251 = AXIS2_PLACEMENT_3D ( 'NONE', #434, #323, #211 ) ;
#252 = EDGE_CURVE ( 'NONE', #98, #425, #395, .T. ) ;
#253 = AXIS2_PLACEMENT_3D ( 'NONE', #385, #154, #160 ) ;
#254 = DIRECTION ( 'NONE',  ( 0.000000000000000000, -0.000000000000000000, 1.000000000000000000 ) ) ;
#255 = DIRECTION ( 'NONE',  ( -0.000000000000000000, -1.000000000000000000, -0.000000000000000000 ) ) ;
#256 = DIRECTION ( 'NONE',  ( -0.000000000000000000, 1.000000000000000000, -0.000000000000000000 ) ) ;
#257 = SPHERICAL_SURFACE ( 'NONE', #123, 4.500000000000000000 ) ;
#258 = CYLINDRICAL_SURFACE ( 'NONE', #269, 3.225000000000000533 ) ;
#259 = PLANE ( 'NONE',  #279 ) ;
#260 = DIRECTION ( 'NONE',  ( 0.000000000000000000, 0.000000000000000000, 1.000000000000000000 ) ) ;
#261 = TOROIDAL_SURFACE ( 'NONE', #16, 3.425000000000000711, 0.2000000000000000111 ) ;
#262 = EDGE_CURVE ( 'NONE', #153, #58, #302, .T. ) ;
#263 = PERSON_AND_ORGANIZATION ( #476, #328 ) ;
#264 = CYLINDRICAL_SURFACE ( 'NONE', #243, 2.100000000000000089 ) ;
#265 = COORDINATED_UNIVERSAL_TIME_OFFSET ( 6, 0, .BEHIND. ) ;
#266 = EDGE_CURVE ( 'NONE', #168, #127, #364, .T. ) ;
#267 = ORIENTED_EDGE ( 'NONE', *, *, #262, .F. ) ;
#268 = AXIS2_PLACEMENT_3D ( 'NONE', #366, #357, #403 ) ;
#269 = AXIS2_PLACEMENT_3D ( 'NONE', #290, #405, #30 ) ;
#270 = DIRECTION ( 'NONE',  ( 0.000000000000000000, 1.000000000000000000, 0.000000000000000000 ) ) ;
#271 = CALENDAR_DATE ( 2022, 6, 6 ) ;
#272 = DIRECTION ( 'NONE',  ( 0.000000000000000000, 0.000000000000000000, 1.000000000000000000 ) ) ;
#273 = DIRECTION ( 'NONE',  ( -1.000000000000000000, 0.000000000000000000, 0.000000000000000000 ) ) ;
#274 = AXIS2_PLACEMENT_3D ( 'NONE', #367, #97, #281 ) ;
#275 = CARTESIAN_POINT ( 'NONE',  ( 0.000000000000000000, -2.286000000000000032, 2.100000000000000089 ) ) ;
#276 = ORIENTED_EDGE ( 'NONE', *, *, #99, .F. ) ;
#277 = ORIENTED_EDGE ( 'NONE', *, *, #129, .F. ) ;
#278 = PRODUCT_RELATED_PRODUCT_CATEGORY ( 'detail', '', ( #158 ) ) ;
#279 = AXIS2_PLACEMENT_3D ( 'NONE', #363, #66, #254 ) ;
#280 = ORIENTED_EDGE ( 'NONE', *, *, #230, .F. ) ;
#281 = DIRECTION ( 'NONE',  ( 0.000000000000000000, 0.000000000000000000, -1.000000000000000000 ) ) ;
#282 = DIRECTION ( 'NONE',  ( -0.000000000000000000, 1.000000000000000000, -0.000000000000000000 ) ) ;
#283 = EDGE_CURVE ( 'NONE', #353, #138, #430, .T. ) ;
#284 = DIRECTION ( 'NONE',  ( -1.000000000000000000, 0.000000000000000000, 0.000000000000000000 ) ) ;
#285 = ORIENTED_EDGE ( 'NONE', *, *, #349, .T. ) ;
#286 = DIRECTION ( 'NONE',  ( -0.000000000000000000, 1.000000000000000000, -0.000000000000000000 ) ) ;
#287 = AXIS2_PLACEMENT_3D ( 'NONE', #391, #282, #429 ) ;
#288 = CARTESIAN_POINT ( 'NONE',  ( 0.000000000000000000, 2.286000000000000032, -3.225000000000000533 ) ) ;
#289 = FACE_OUTER_BOUND ( 'NONE', #10, .T. ) ;
#290 = CARTESIAN_POINT ( 'NONE',  ( 0.000000000000000000, -3.979949748426479417, 0.000000000000000000 ) ) ;
#291 = DIRECTION ( 'NONE',  ( -0.000000000000000000, 1.000000000000000000, -0.000000000000000000 ) ) ;
#292 = CC_DESIGN_DATE_AND_TIME_ASSIGNMENT ( #194, #151, ( #222 ) ) ;
#293 = DIRECTION ( 'NONE',  ( 0.000000000000000000, 1.000000000000000000, 0.000000000000000000 ) ) ;
#294 = AXIS2_PLACEMENT_3D ( 'NONE', #435, #480, #184 ) ;
#295 = AXIS2_PLACEMENT_3D ( 'NONE', #193, #128, #241 ) ;
#296 = CARTESIAN_POINT ( 'NONE',  ( 0.000000000000000000, 2.720804447003090321, 0.000000000000000000 ) ) ;
#297 = EDGE_CURVE ( 'NONE', #420, #202, #68, .T. ) ;
#298 = VERTEX_POINT ( 'NONE', #78 ) ;
#299 = PERSON_AND_ORGANIZATION ( #476, #328 ) ;
#300 = EDGE_LOOP ( 'NONE', ( #159, #18 ) ) ;
#301 = DIRECTION ( 'NONE',  ( 1.224646799147353207E-16, 0.000000000000000000, -1.000000000000000000 ) ) ;
#302 = CIRCLE ( 'NONE', #94, 3.225000000000000533 ) ;
#303 = CC_DESIGN_APPROVAL ( #361, ( #222 ) ) ;
#304 = COORDINATED_UNIVERSAL_TIME_OFFSET ( 6, 0, .BEHIND. ) ;
#305 = EDGE_LOOP ( 'NONE', ( #280, #393, #427, #307, #414 ) ) ;
#306 = CARTESIAN_POINT ( 'NONE',  ( 0.000000000000000000, 2.286000000000000032, 0.000000000000000000 ) ) ;
#307 = ORIENTED_EDGE ( 'NONE', *, *, #38, .F. ) ;
#308 = CARTESIAN_POINT ( 'NONE',  ( 0.000000000000000000, 2.720804447003090321, 0.000000000000000000 ) ) ;
#309 = ADVANCED_FACE ( 'NONE', ( #340 ), #134, .T. ) ;
#310 = ORIENTED_EDGE ( 'NONE', *, *, #468, .F. ) ;
#311 = DIRECTION ( 'NONE',  ( 0.000000000000000000, -1.000000000000000000, 0.000000000000000000 ) ) ;
#312 = UNCERTAINTY_MEASURE_WITH_UNIT (LENGTH_MEASURE( 1.000000000000000082E-05 ), #223, 'distance_accuracy_value', 'NONE');
#313 = ORIENTED_EDGE ( 'NONE', *, *, #423, .T. ) ;
#314 = DIRECTION ( 'NONE',  ( 0.000000000000000000, 0.000000000000000000, 1.000000000000000000 ) ) ;
#315 = CC_DESIGN_DATE_AND_TIME_ASSIGNMENT ( #375, #413, ( #164 ) ) ;
#316 = EDGE_LOOP ( 'NONE', ( #346, #209, #75, #195, #384 ) ) ;
#317 = CARTESIAN_POINT ( 'NONE',  ( 3.584302325581393944, -2.720804447003090321, -4.389504370199669309E-16 ) ) ;
#318 = EDGE_LOOP ( 'NONE', ( #249, #56, #376, #1, #285, #192 ) ) ;
#319 = CIRCLE ( 'NONE', #411, 0.2000000000000000944 ) ;
#320 = CIRCLE ( 'NONE', #51, 4.500000000000000000 ) ;
#321 = ORIENTED_EDGE ( 'NONE', *, *, #478, .F. ) ;
#322 = DIRECTION ( 'NONE',  ( -0.000000000000000000, -0.000000000000000000, -1.000000000000000000 ) ) ;
#323 = DIRECTION ( 'NONE',  ( 0.000000000000000000, -1.000000000000000000, 0.000000000000000000 ) ) ;
#324 = APPLICATION_PROTOCOL_DEFINITION ( 'international standard', 'config_control_design', 1994, #76 ) ;
#325 = CYLINDRICAL_SURFACE ( 'NONE', #274, 3.225000000000000533 ) ;
#326 = CARTESIAN_POINT ( 'NONE',  ( -3.584302325581393944, -2.720804447003090321, 0.000000000000000000 ) ) ;
#327 = PLANE ( 'NONE',  #59 ) ;
#328 = ORGANIZATION ( 'UNSPECIFIED', 'UNSPECIFIED', '' ) ;
#329 = CARTESIAN_POINT ( 'NONE',  ( 2.571758278209441957E-16, -4.500000000000000000, -2.100000000000000089 ) ) ;
#330 = CARTESIAN_POINT ( 'NONE',  ( 3.584302325581393944, 2.720804447003090321, -4.389504370199669309E-16 ) ) ;
#331 = DIRECTION ( 'NONE',  ( -0.000000000000000000, -1.000000000000000000, -0.000000000000000000 ) ) ;
#332 = APPROVAL_STATUS ( 'not_yet_approved' ) ;
#333 = CARTESIAN_POINT ( 'NONE',  ( 0.000000000000000000, 0.000000000000000000, 0.000000000000000000 ) ) ;
#334 = CC_DESIGN_SECURITY_CLASSIFICATION ( #222, ( #157 ) ) ;
#335 = EDGE_CURVE ( 'NONE', #353, #127, #472, .T. ) ;
#336 = APPROVAL_DATE_TIME ( #234, #361 ) ;
#337 = VERTEX_POINT ( 'NONE', #383 ) ;
#338 = DIRECTION ( 'NONE',  ( -0.000000000000000000, 1.000000000000000000, -0.000000000000000000 ) ) ;
#339 = APPROVAL_ROLE ( '' ) ;
#340 = FACE_OUTER_BOUND ( 'NONE', #245, .T. ) ;
#341 = CIRCLE ( 'NONE', #165, 3.225000000000000533 ) ;
#342 = EDGE_LOOP ( 'NONE', ( #277, #387, #89, #116, #352 ) ) ;
#343 = CARTESIAN_POINT ( 'NONE',  ( 0.000000000000000000, 2.286000000000000032, 2.100000000000000089 ) ) ;
#344 = VERTEX_POINT ( 'NONE', #131 ) ;
#345 = DIRECTION ( 'NONE',  ( -0.000000000000000000, 1.000000000000000000, -0.000000000000000000 ) ) ;
#346 = ORIENTED_EDGE ( 'NONE', *, *, #423, .F. ) ;
#347 = DIRECTION ( 'NONE',  ( 0.000000000000000000, 0.000000000000000000, 1.000000000000000000 ) ) ;
#348 = AXIS2_PLACEMENT_3D ( 'NONE', #63, #291, #397 ) ;
#349 = EDGE_CURVE ( 'NONE', #425, #138, #437, .T. ) ;
#350 = APPROVAL_PERSON_ORGANIZATION ( #409, #52, #379 ) ;
#351 = DESIGN_CONTEXT ( 'detailed design', #107, 'design' ) ;
#352 = ORIENTED_EDGE ( 'NONE', *, *, #448, .F. ) ;
#353 = VERTEX_POINT ( 'NONE', #454 ) ;
#354 = AXIS2_PLACEMENT_3D ( 'NONE', #112, #177, #226 ) ;
#355 = CC_DESIGN_APPROVAL ( #52, ( #157 ) ) ;
#356 = ORIENTED_EDGE ( 'NONE', *, *, #19, .T. ) ;
#357 = DIRECTION ( 'NONE',  ( -0.000000000000000000, -1.000000000000000000, -0.000000000000000000 ) ) ;
#358 = EDGE_CURVE ( 'NONE', #420, #436, #11, .T. ) ;
#359 = CARTESIAN_POINT ( 'NONE',  ( 0.000000000000000000, 2.720804447003090321, 0.000000000000000000 ) ) ;
#360 = CARTESIAN_POINT ( 'NONE',  ( 0.000000000000000000, 2.599879804914066117, 0.000000000000000000 ) ) ;
#361 = APPROVAL ( #332, 'UNSPECIFIED' ) ;
#362 = CARTESIAN_POINT ( 'NONE',  ( 0.000000000000000000, 0.000000000000000000, 0.000000000000000000 ) ) ;
#363 = CARTESIAN_POINT ( 'NONE',  ( 0.000000000000000000, 2.286000000000000032, 0.000000000000000000 ) ) ;
#364 = CIRCLE ( 'NONE', #155, 0.2000000000000000944 ) ;
#365 = ADVANCED_BREP_SHAPE_REPRESENTATION ( '228-2500-1660', ( #467, #126 ), #111 ) ;
#366 = CARTESIAN_POINT ( 'NONE',  ( 0.000000000000000000, 2.599879804914066117, 0.000000000000000000 ) ) ;
#367 = CARTESIAN_POINT ( 'NONE',  ( 0.000000000000000000, 3.979949748426479417, 0.000000000000000000 ) ) ;
#368 = ADVANCED_FACE ( 'NONE', ( #163 ), #9, .F. ) ;
#369 = PERSON_AND_ORGANIZATION ( #476, #328 ) ;
#370 = VECTOR ( 'NONE', #239, 1000.000000000000000 ) ;
#371 = LOCAL_TIME ( 14, 21, 9.000000000000000000, #304 ) ;
#372 = CALENDAR_DATE ( 2022, 6, 6 ) ;
#373 = EDGE_LOOP ( 'NONE', ( #24, #451, #37, #54 ) ) ;
#374 = EDGE_CURVE ( 'NONE', #418, #436, #412, .T. ) ;
#375 = DATE_AND_TIME ( #225, #60 ) ;
#376 = ORIENTED_EDGE ( 'NONE', *, *, #468, .T. ) ;
#377 = DIRECTION ( 'NONE',  ( 0.000000000000000000, 0.000000000000000000, -1.000000000000000000 ) ) ;
#378 = CC_DESIGN_PERSON_AND_ORGANIZATION_ASSIGNMENT ( #299, #74, ( #157 ) ) ;
#379 = APPROVAL_ROLE ( '' ) ;
#380 = DIRECTION ( 'NONE',  ( 0.000000000000000000, 0.000000000000000000, 1.000000000000000000 ) ) ;
#381 = AXIS2_PLACEMENT_3D ( 'NONE', #45, #466, #421 ) ;
#382 = ORIENTED_EDGE ( 'NONE', *, *, #104, .F. ) ;
#383 = CARTESIAN_POINT ( 'NONE',  ( 0.000000000000000000, -2.286000000000000032, 3.225000000000000533 ) ) ;
#384 = ORIENTED_EDGE ( 'NONE', *, *, #349, .F. ) ;
#385 = CARTESIAN_POINT ( 'NONE',  ( 0.000000000000000000, 2.286000000000000032, 0.000000000000000000 ) ) ;
#386 = EDGE_CURVE ( 'NONE', #121, #136, #102, .T. ) ;
#387 = ORIENTED_EDGE ( 'NONE', *, *, #113, .F. ) ;
#388 = CLOSED_SHELL ( 'NONE', ( #309, #204, #218, #246, #171, #145, #108, #25, #135, #368, #72, #439, #179, #488 ) ) ;
#389 = APPROVAL_PERSON_ORGANIZATION ( #369, #92, #417 ) ;
#390 = DIRECTION ( 'NONE',  ( 0.000000000000000000, 0.000000000000000000, 1.000000000000000000 ) ) ;
#391 = CARTESIAN_POINT ( 'NONE',  ( 0.000000000000000000, -2.286000000000000032, 0.000000000000000000 ) ) ;
#392 = EDGE_LOOP ( 'NONE', ( #240, #242 ) ) ;
#393 = ORIENTED_EDGE ( 'NONE', *, *, #129, .T. ) ;
#394 = CIRCLE ( 'NONE', #481, 3.584302325581393944 ) ;
#395 = CIRCLE ( 'NONE', #463, 3.584302325581393944 ) ;
#396 = DIRECTION ( 'NONE',  ( 0.000000000000000000, 0.000000000000000000, 1.000000000000000000 ) ) ;
#397 = DIRECTION ( 'NONE',  ( 0.000000000000000000, 0.000000000000000000, 1.000000000000000000 ) ) ;
#398 = AXIS2_PLACEMENT_3D ( 'NONE', #359, #214, #28 ) ;
#399 = CARTESIAN_POINT ( 'NONE',  ( 0.000000000000000000, 3.979949748426479417, -3.225000000000000533 ) ) ;
#400 = FACE_OUTER_BOUND ( 'NONE', #392, .T. ) ;
#401 = EDGE_CURVE ( 'NONE', #130, #337, #244, .T. ) ;
#402 = DIRECTION ( 'NONE',  ( -1.000000000000000000, 0.000000000000000000, 0.000000000000000000 ) ) ;
#403 = DIRECTION ( 'NONE',  ( 0.000000000000000000, 0.000000000000000000, -1.000000000000000000 ) ) ;
#404 = FACE_OUTER_BOUND ( 'NONE', #49, .T. ) ;
#405 = DIRECTION ( 'NONE',  ( 0.000000000000000000, 1.000000000000000000, 0.000000000000000000 ) ) ;
#406 = CARTESIAN_POINT ( 'NONE',  ( 3.949485927250213853E-16, 2.286000000000000032, 3.225000000000000533 ) ) ;
#407 = AXIS2_PLACEMENT_3D ( 'NONE', #426, #345, #314 ) ;
#408 = DIRECTION ( 'NONE',  ( 0.000000000000000000, 0.000000000000000000, -1.000000000000000000 ) ) ;
#409 = PERSON_AND_ORGANIZATION ( #476, #328 ) ;
#410 = EDGE_CURVE ( 'NONE', #215, #344, #172, .T. ) ;
#411 = AXIS2_PLACEMENT_3D ( 'NONE', #442, #144, #70 ) ;
#412 = CIRCLE ( 'NONE', #117, 2.100000000000000089 ) ;
#413 = DATE_TIME_ROLE ( 'creation_date' ) ;
#414 = ORIENTED_EDGE ( 'NONE', *, *, #266, .F. ) ;
#415 = DIRECTION ( 'NONE',  ( 1.000000000000000000, 0.000000000000000000, 0.000000000000000000 ) ) ;
#416 = EDGE_CURVE ( 'NONE', #436, #418, #36, .T. ) ;
#417 = APPROVAL_ROLE ( '' ) ;
#418 = VERTEX_POINT ( 'NONE', #459 ) ;
#419 = CARTESIAN_POINT ( 'NONE',  ( 0.000000000000000000, 2.286000000000000032, 0.000000000000000000 ) ) ;
#420 = VERTEX_POINT ( 'NONE', #275 ) ;
#421 = DIRECTION ( 'NONE',  ( 0.000000000000000000, 0.000000000000000000, -1.000000000000000000 ) ) ;
#422 = APPROVAL_PERSON_ORGANIZATION ( #186, #361, #339 ) ;
#423 = EDGE_CURVE ( 'NONE', #121, #425, #208, .T. ) ;
#424 = CARTESIAN_POINT ( 'NONE',  ( 3.949485927250213853E-16, -3.979949748426479417, -3.225000000000000533 ) ) ;
#425 = VERTEX_POINT ( 'NONE', #82 ) ;
#426 = CARTESIAN_POINT ( 'NONE',  ( 0.000000000000000000, -2.599879804914066117, 0.000000000000000000 ) ) ;
#427 = ORIENTED_EDGE ( 'NONE', *, *, #410, .F. ) ;
#428 = PRODUCT_DEFINITION_SHAPE ( 'NONE', 'NONE',  #164 ) ;
#429 = DIRECTION ( 'NONE',  ( 0.000000000000000000, 0.000000000000000000, 1.000000000000000000 ) ) ;
#430 = CIRCLE ( 'NONE', #5, 4.500000000000000000 ) ;
#431 = AXIS2_PLACEMENT_3D ( 'NONE', #183, #402, #143 ) ;
#432 = ORIENTED_EDGE ( 'NONE', *, *, #79, .T. ) ;
#433 = DIRECTION ( 'NONE',  ( -0.000000000000000000, 1.000000000000000000, -0.000000000000000000 ) ) ;
#434 = CARTESIAN_POINT ( 'NONE',  ( 0.000000000000000000, -2.599879804914066117, 0.000000000000000000 ) ) ;
#435 = CARTESIAN_POINT ( 'NONE',  ( 0.000000000000000000, 2.599879804914066117, 0.000000000000000000 ) ) ;
#436 = VERTEX_POINT ( 'NONE', #343 ) ;
#437 = CIRCLE ( 'NONE', #482, 3.584302325581393944 ) ;
#438 = DIRECTION ( 'NONE',  ( 0.000000000000000000, 0.000000000000000000, -1.000000000000000000 ) ) ;
#439 = ADVANCED_FACE ( 'NONE', ( #122 ), #258, .F. ) ;
#440 = PERSON_AND_ORGANIZATION ( #476, #328 ) ;
#441 = CARTESIAN_POINT ( 'NONE',  ( 3.949485927250213853E-16, -2.286000000000000032, -3.225000000000000533 ) ) ;
#442 = CARTESIAN_POINT ( 'NONE',  ( 4.194415287079684445E-16, 2.599879804914066117, 3.425000000000000711 ) ) ;
#443 = DIRECTION ( 'NONE',  ( 0.000000000000000000, 1.000000000000000000, 0.000000000000000000 ) ) ;
#444 = CARTESIAN_POINT ( 'NONE',  ( 0.000000000000000000, 2.599879804914066117, -3.225000000000000533 ) ) ;
#445 = CIRCLE ( 'NONE', #492, 3.584302325581393944 ) ;
#446 = SPHERICAL_SURFACE ( 'NONE', #170, 4.500000000000000000 ) ;
#447 = LOCAL_TIME ( 14, 21, 9.000000000000000000, #491 ) ;
#448 = EDGE_CURVE ( 'NONE', #344, #353, #189, .T. ) ;
#449 = DIRECTION ( 'NONE',  ( 0.000000000000000000, 0.000000000000000000, -1.000000000000000000 ) ) ;
#450 = PERSON_AND_ORGANIZATION_ROLE ( 'creator' ) ;
#451 = ORIENTED_EDGE ( 'NONE', *, *, #471, .T. ) ;
#452 = CIRCLE ( 'NONE', #34, 3.584302325581393944 ) ;
#453 = CC_DESIGN_PERSON_AND_ORGANIZATION_ASSIGNMENT ( #190, #119, ( #157 ) ) ;
#454 = CARTESIAN_POINT ( 'NONE',  ( -3.584302325581393944, 2.720804447003090321, 0.000000000000000000 ) ) ;
#455 = CALENDAR_DATE ( 2022, 6, 6 ) ;
#456 = ORIENTED_EDGE ( 'NONE', *, *, #416, .F. ) ;
#457 = CARTESIAN_POINT ( 'NONE',  ( 0.000000000000000000, 0.000000000000000000, 0.000000000000000000 ) ) ;
#458 = SECURITY_CLASSIFICATION_LEVEL ( 'unclassified' ) ;
#459 = CARTESIAN_POINT ( 'NONE',  ( 2.571758278209441957E-16, 2.286000000000000032, -2.100000000000000089 ) ) ;
#460 = EDGE_CURVE ( 'NONE', #202, #418, #173, .T. ) ;
#461 = ORIENTED_EDGE ( 'NONE', *, *, #358, .F. ) ;
#462 = CARTESIAN_POINT ( 'NONE',  ( 0.000000000000000000, -2.599879804914066117, 0.000000000000000000 ) ) ;
#463 = AXIS2_PLACEMENT_3D ( 'NONE', #48, #338, #272 ) ;
#464 = AXIS2_PLACEMENT_3D ( 'NONE', #308, #201, #3 ) ;
#465 = ORIENTED_EDGE ( 'NONE', *, *, #212, .T. ) ;
#466 = DIRECTION ( 'NONE',  ( -0.000000000000000000, -1.000000000000000000, -0.000000000000000000 ) ) ;
#467 = MANIFOLD_SOLID_BREP ( '228-2500-1660', #388 ) ;
#468 = EDGE_CURVE ( 'NONE', #215, #98, #320, .T. ) ;
#469 = ORIENTED_EDGE ( 'NONE', *, *, #401, .T. ) ;
#470 = ORIENTED_EDGE ( 'NONE', *, *, #471, .F. ) ;
#471 = EDGE_CURVE ( 'NONE', #8, #153, #65, .T. ) ;
#472 = CIRCLE ( 'NONE', #381, 3.584302325581393944 ) ;
#473 = AXIS2_PLACEMENT_3D ( 'NONE', #462, #42, #380 ) ;
#474 = EDGE_LOOP ( 'NONE', ( #356, #200 ) ) ;
#475 = FACE_OUTER_BOUND ( 'NONE', #342, .T. ) ;
#476 = PERSON ( 'UNSPECIFIED', 'UNSPECIFIED', 'UNSPECIFIED', ('UNSPECIFIED'), ('UNSPECIFIED'), ('UNSPECIFIED') ) ;
#477 = CARTESIAN_POINT ( 'NONE',  ( 0.000000000000000000, 2.286000000000000032, 0.000000000000000000 ) ) ;
#478 = EDGE_CURVE ( 'NONE', #136, #298, #494, .T. ) ;
#479 = DIRECTION ( 'NONE',  ( 0.000000000000000000, 0.000000000000000000, 1.000000000000000000 ) ) ;
#480 = DIRECTION ( 'NONE',  ( 0.000000000000000000, 1.000000000000000000, 0.000000000000000000 ) ) ;
#481 = AXIS2_PLACEMENT_3D ( 'NONE', #62, #178, #141 ) ;
#482 = AXIS2_PLACEMENT_3D ( 'NONE', #120, #433, #233 ) ;
#483 =( NAMED_UNIT ( * ) PLANE_ANGLE_UNIT ( ) SI_UNIT ( $, .RADIAN. ) );
#484 = FACE_OUTER_BOUND ( 'NONE', #318, .T. ) ;
#485 = DIRECTION ( 'NONE',  ( 0.000000000000000000, -1.000000000000000000, 0.000000000000000000 ) ) ;
#486 = FACE_OUTER_BOUND ( 'NONE', #316, .T. ) ;
#487 = CYLINDRICAL_SURFACE ( 'NONE', #354, 3.225000000000000533 ) ;
#488 = ADVANCED_FACE ( 'NONE', ( #486 ), #261, .T. ) ;
#489 =( NAMED_UNIT ( * ) SI_UNIT ( $, .STERADIAN. ) SOLID_ANGLE_UNIT ( ) );
#490 = CC_DESIGN_PERSON_AND_ORGANIZATION_ASSIGNMENT ( #440, #495, ( #158 ) ) ;
#491 = COORDINATED_UNIVERSAL_TIME_OFFSET ( 6, 0, .BEHIND. ) ;
#492 = AXIS2_PLACEMENT_3D ( 'NONE', #296, #255, #449 ) ;
#493 = DIRECTION ( 'NONE',  ( -0.000000000000000000, -0.000000000000000000, -1.000000000000000000 ) ) ;
#494 = CIRCLE ( 'NONE', #431, 0.2000000000000000944 ) ;
#495 = PERSON_AND_ORGANIZATION_ROLE ( 'design_owner' ) ;
ENDSEC;
END-ISO-10303-21;
