ISO-10303-21;
HEADER;
FILE_DESCRIPTION (( 'STEP AP203' ),
    '1' );
FILE_NAME ('228-2500-158.step',
    '2022-06-06T19:18:26',
    ( '' ),
    ( '' ),
    'SwSTEP 2.0',
    'SolidWorks 2021',
    '' );
FILE_SCHEMA (( 'CONFIG_CONTROL_DESIGN' ));
ENDSEC;

DATA;
#1 = CALENDAR_DATE ( 2022, 6, 6 ) ;
#2 = DIRECTION ( 'NONE',  ( 1.365923996832131609E-16, -1.000000000000000000, 0.000000000000000000 ) ) ;
#3 = VERTEX_POINT ( 'NONE', #487 ) ;
#4 = ORIENTED_EDGE ( 'NONE', *, *, #56, .F. ) ;
#5 = EDGE_CURVE ( 'NONE', #599, #224, #492, .T. ) ;
#6 = PERSON_AND_ORGANIZATION ( #329, #340 ) ;
#7 = LINE ( 'NONE', #806, #197 ) ;
#8 = VERTEX_POINT ( 'NONE', #102 ) ;
#9 = VERTEX_POINT ( 'NONE', #179 ) ;
#10 = VECTOR ( 'NONE', #401, 1000.000000000000000 ) ;
#11 = CARTESIAN_POINT ( 'NONE',  ( -6.350000000000001421, 2.286000000000000032, 0.000000000000000000 ) ) ;
#12 = FACE_OUTER_BOUND ( 'NONE', #902, .T. ) ;
#13 = CARTESIAN_POINT ( 'NONE',  ( 2.300000000000001155, 1.425000000000001377, 4.000000000000000000 ) ) ;
#14 = ORIENTED_EDGE ( 'NONE', *, *, #208, .T. ) ;
#15 = CYLINDRICAL_SURFACE ( 'NONE', #375, 4.000000000000000000 ) ;
#16 = COORDINATED_UNIVERSAL_TIME_OFFSET ( 6, 0, .BEHIND. ) ;
#17 = EDGE_CURVE ( 'NONE', #621, #915, #557, .T. ) ;
#18 = DIRECTION ( 'NONE',  ( -0.000000000000000000, -0.000000000000000000, -1.000000000000000000 ) ) ;
#19 = CYLINDRICAL_SURFACE ( 'NONE', #560, 2.099999999999997424 ) ;
#20 = VERTEX_POINT ( 'NONE', #635 ) ;
#21 = PRODUCT_DEFINITION_SHAPE ( 'NONE', 'NONE',  #647 ) ;
#22 = DIRECTION ( 'NONE',  ( -0.000000000000000000, -1.000000000000000000, -0.000000000000000000 ) ) ;
#23 = VECTOR ( 'NONE', #920, 1000.000000000000000 ) ;
#24 = CARTESIAN_POINT ( 'NONE',  ( 6.349999999999997868, 2.286000000000000032, 2.099999999999997424 ) ) ;
#25 = EDGE_CURVE ( 'NONE', #153, #273, #711, .T. ) ;
#26 = LINE ( 'NONE', #255, #908 ) ;
#27 = ORIENTED_EDGE ( 'NONE', *, *, #724, .T. ) ;
#28 = MANIFOLD_SOLID_BREP ( '228-2500-158', #195 ) ;
#29 = AXIS2_PLACEMENT_3D ( 'NONE', #480, #412, #701 ) ;
#30 = CARTESIAN_POINT ( 'NONE',  ( -6.350000000000001421, -2.286000000000000032, 0.000000000000000000 ) ) ;
#31 = ORIENTED_EDGE ( 'NONE', *, *, #228, .T. ) ;
#32 = CARTESIAN_POINT ( 'NONE',  ( -6.350000000000001421, 2.286000000000000032, 0.000000000000000000 ) ) ;
#33 = CARTESIAN_POINT ( 'NONE',  ( 6.349999999999997868, 2.286000000000000032, 2.749999999999998224 ) ) ;
#34 = ORIENTED_EDGE ( 'NONE', *, *, #5, .T. ) ;
#35 = EDGE_CURVE ( 'NONE', #838, #174, #77, .T. ) ;
#36 = LINE ( 'NONE', #430, #760 ) ;
#37 = DIRECTION ( 'NONE',  ( -0.000000000000000000, -0.000000000000000000, -1.000000000000000000 ) ) ;
#38 = CARTESIAN_POINT ( 'NONE',  ( 3.174999999999996270, 2.286000000000000032, -4.000000000000000000 ) ) ;
#39 = VECTOR ( 'NONE', #461, 1000.000000000000000 ) ;
#40 = DIRECTION ( 'NONE',  ( 0.000000000000000000, 0.000000000000000000, 1.000000000000000000 ) ) ;
#41 = FACE_OUTER_BOUND ( 'NONE', #757, .T. ) ;
#42 = AXIS2_PLACEMENT_3D ( 'NONE', #437, #719, #361 ) ;
#43 = AXIS2_PLACEMENT_3D ( 'NONE', #847, #633, #188 ) ;
#44 = DIRECTION ( 'NONE',  ( 0.000000000000000000, 0.000000000000000000, 1.000000000000000000 ) ) ;
#45 = DIRECTION ( 'NONE',  ( -1.000000000000000000, 0.000000000000000000, -0.000000000000000000 ) ) ;
#46 = ADVANCED_FACE ( 'NONE', ( #12 ), #614, .F. ) ;
#47 = CARTESIAN_POINT ( 'NONE',  ( 3.175000000000000266, 6.524999999999998579, 4.000000000000000000 ) ) ;
#48 = CARTESIAN_POINT ( 'NONE',  ( 6.349999999999997868, -2.286000000000000032, 0.000000000000000000 ) ) ;
#49 = EDGE_CURVE ( 'NONE', #730, #456, #483, .T. ) ;
#50 = VERTEX_POINT ( 'NONE', #625 ) ;
#51 = CARTESIAN_POINT ( 'NONE',  ( -3.174999999999999378, 6.524999999999997691, -4.000000000000000000 ) ) ;
#52 = LINE ( 'NONE', #640, #663 ) ;
#53 = PLANE ( 'NONE',  #925 ) ;
#54 = DIRECTION ( 'NONE',  ( 0.000000000000000000, 0.000000000000000000, -1.000000000000000000 ) ) ;
#55 = ORIENTED_EDGE ( 'NONE', *, *, #814, .T. ) ;
#56 = EDGE_CURVE ( 'NONE', #476, #50, #278, .T. ) ;
#57 = CARTESIAN_POINT ( 'NONE',  ( -6.350000000000001421, 2.286000000000000032, 2.750000000000000000 ) ) ;
#58 = AXIS2_PLACEMENT_3D ( 'NONE', #204, #366, #801 ) ;
#59 = PLANE ( 'NONE',  #402 ) ;
#60 = DIRECTION ( 'NONE',  ( 1.000000000000000000, 0.000000000000000000, 0.000000000000000000 ) ) ;
#61 = ORIENTED_EDGE ( 'NONE', *, *, #589, .F. ) ;
#62 = VECTOR ( 'NONE', #864, 1000.000000000000000 ) ;
#63 = CARTESIAN_POINT ( 'NONE',  ( 2.299999999999998934, 3.524999999999997247, -4.000000000000000000 ) ) ;
#64 = VERTEX_POINT ( 'NONE', #24 ) ;
#65 = LINE ( 'NONE', #587, #359 ) ;
#66 = EDGE_LOOP ( 'NONE', ( #709, #670, #317, #937, #256, #578, #104, #290, #811, #959, #528, #795, #181, #916 ) ) ;
#67 = ADVANCED_FACE ( 'NONE', ( #407, #172 ), #473, .F. ) ;
#68 = LINE ( 'NONE', #669, #245 ) ;
#69 = VERTEX_POINT ( 'NONE', #698 ) ;
#70 = ORIENTED_EDGE ( 'NONE', *, *, #863, .T. ) ;
#71 = CIRCLE ( 'NONE', #171, 2.099999999999997424 ) ;
#72 = PRODUCT_DEFINITION_FORMATION_WITH_SPECIFIED_SOURCE ( 'ANY', '', #253, .NOT_KNOWN. ) ;
#73 = DIRECTION ( 'NONE',  ( 0.000000000000000000, 0.000000000000000000, -1.000000000000000000 ) ) ;
#74 = VERTEX_POINT ( 'NONE', #336 ) ;
#75 = CYLINDRICAL_SURFACE ( 'NONE', #605, 4.000000000000000000 ) ;
#76 = VERTEX_POINT ( 'NONE', #630 ) ;
#77 = CIRCLE ( 'NONE', #836, 2.099999999999997424 ) ;
#78 = COORDINATED_UNIVERSAL_TIME_OFFSET ( 6, 0, .BEHIND. ) ;
#79 = CARTESIAN_POINT ( 'NONE',  ( -2.300000000000001155, 1.425000000000003153, 4.000000000000000000 ) ) ;
#80 = CC_DESIGN_PERSON_AND_ORGANIZATION_ASSIGNMENT ( #597, #888, ( #72 ) ) ;
#81 = EDGE_CURVE ( 'NONE', #673, #74, #146, .T. ) ;
#82 = ORIENTED_EDGE ( 'NONE', *, *, #56, .T. ) ;
#83 = PERSON_AND_ORGANIZATION ( #329, #340 ) ;
#84 = DIRECTION ( 'NONE',  ( 0.000000000000000000, 0.000000000000000000, 1.000000000000000000 ) ) ;
#85 = ORIENTED_EDGE ( 'NONE', *, *, #17, .F. ) ;
#86 = EDGE_LOOP ( 'NONE', ( #248, #201, #736, #187 ) ) ;
#87 = EDGE_CURVE ( 'NONE', #744, #688, #345, .T. ) ;
#88 = PERSON_AND_ORGANIZATION_ROLE ( 'creator' ) ;
#89 = CC_DESIGN_APPROVAL ( #504, ( #805 ) ) ;
#90 = EDGE_LOOP ( 'NONE', ( #457, #424, #61, #694 ) ) ;
#91 = CARTESIAN_POINT ( 'NONE',  ( 2.299999999999998934, 3.524999999999997247, 4.000000000000000000 ) ) ;
#92 = ORIENTED_EDGE ( 'NONE', *, *, #848, .F. ) ;
#93 = FACE_OUTER_BOUND ( 'NONE', #514, .T. ) ;
#94 = ADVANCED_FACE ( 'NONE', ( #771 ), #108, .F. ) ;
#95 = VECTOR ( 'NONE', #222, 1000.000000000000000 ) ;
#96 = VECTOR ( 'NONE', #676, 1000.000000000000000 ) ;
#97 = DIRECTION ( 'NONE',  ( 0.000000000000000000, -0.000000000000000000, 1.000000000000000000 ) ) ;
#98 = CARTESIAN_POINT ( 'NONE',  ( -6.350000000000001421, -2.286000000000000032, 0.000000000000000000 ) ) ;
#99 = ORIENTED_EDGE ( 'NONE', *, *, #634, .T. ) ;
#100 = FACE_OUTER_BOUND ( 'NONE', #379, .T. ) ;
#101 = ADVANCED_FACE ( 'NONE', ( #426 ), #800, .F. ) ;
#102 = CARTESIAN_POINT ( 'NONE',  ( -2.300000000000001155, 1.425000000000003153, -4.000000000000000000 ) ) ;
#103 = CARTESIAN_POINT ( 'NONE',  ( 3.174999999999996270, 1.425000000000000933, 4.000000000000000000 ) ) ;
#104 = ORIENTED_EDGE ( 'NONE', *, *, #881, .F. ) ;
#105 = DIRECTION ( 'NONE',  ( -0.000000000000000000, -0.000000000000000000, -1.000000000000000000 ) ) ;
#106 = CC_DESIGN_PERSON_AND_ORGANIZATION_ASSIGNMENT ( #6, #314, ( #72 ) ) ;
#107 = LOCAL_TIME ( 14, 18, 26.00000000000000000, #746 ) ;
#108 = CYLINDRICAL_SURFACE ( 'NONE', #227, 2.099999999999997424 ) ;
#109 = DIRECTION ( 'NONE',  ( 0.000000000000000000, 0.000000000000000000, -1.000000000000000000 ) ) ;
#110 = EDGE_LOOP ( 'NONE', ( #610, #14, #239, #844, #261, #125 ) ) ;
#111 = VECTOR ( 'NONE', #185, 1000.000000000000000 ) ;
#112 = VECTOR ( 'NONE', #302, 1000.000000000000000 ) ;
#113 = ORIENTED_EDGE ( 'NONE', *, *, #387, .T. ) ;
#114 = CYLINDRICAL_SURFACE ( 'NONE', #277, 2.749999999999998224 ) ;
#115 = ORIENTED_EDGE ( 'NONE', *, *, #954, .F. ) ;
#116 = FACE_OUTER_BOUND ( 'NONE', #485, .T. ) ;
#117 = DIRECTION ( 'NONE',  ( -0.000000000000000000, -0.000000000000000000, -1.000000000000000000 ) ) ;
#118 = DIRECTION ( 'NONE',  ( 0.000000000000000000, 1.000000000000000000, 0.000000000000000000 ) ) ;
#119 = CARTESIAN_POINT ( 'NONE',  ( 2.300000000000001155, 1.425000000000001377, 4.000000000000000000 ) ) ;
#120 = EDGE_LOOP ( 'NONE', ( #331, #555 ) ) ;
#121 = LINE ( 'NONE', #583, #505 ) ;
#122 = ADVANCED_FACE ( 'NONE', ( #725 ), #496, .F. ) ;
#123 = CARTESIAN_POINT ( 'NONE',  ( 6.349999999999997868, -2.286000000000000032, 0.000000000000000000 ) ) ;
#124 = CARTESIAN_POINT ( 'NONE',  ( 2.175000000000001155, 6.524999999999998579, -3.000000000000000000 ) ) ;
#125 = ORIENTED_EDGE ( 'NONE', *, *, #789, .T. ) ;
#126 = VECTOR ( 'NONE', #267, 1000.000000000000000 ) ;
#127 = CARTESIAN_POINT ( 'NONE',  ( -6.349999999999999645, -2.286000000000000032, -4.000000000000000000 ) ) ;
#128 = CC_DESIGN_PERSON_AND_ORGANIZATION_ASSIGNMENT ( #467, #826, ( #805 ) ) ;
#129 = CARTESIAN_POINT ( 'NONE',  ( 3.174999999999996270, -2.286000000000000032, 4.000000000000000000 ) ) ;
#130 = EDGE_CURVE ( 'NONE', #273, #20, #714, .T. ) ;
#131 = LINE ( 'NONE', #791, #759 ) ;
#132 = AXIS2_PLACEMENT_3D ( 'NONE', #123, #118, #942 ) ;
#133 = CIRCLE ( 'NONE', #566, 2.099999999999997424 ) ;
#134 = ORIENTED_EDGE ( 'NONE', *, *, #49, .F. ) ;
#135 = CARTESIAN_POINT ( 'NONE',  ( -6.349999999999999645, 2.286000000000000032, 4.000000000000000000 ) ) ;
#136 = ORIENTED_EDGE ( 'NONE', *, *, #671, .F. ) ;
#137 = EDGE_CURVE ( 'NONE', #768, #599, #294, .T. ) ;
#138 = CARTESIAN_POINT ( 'NONE',  ( -6.350000000000001421, 6.524999999999998579, 0.000000000000000000 ) ) ;
#139 = DIRECTION ( 'NONE',  ( 0.000000000000000000, 1.000000000000000000, 0.000000000000000000 ) ) ;
#140 = FACE_OUTER_BOUND ( 'NONE', #110, .T. ) ;
#141 = DIRECTION ( 'NONE',  ( 0.000000000000000000, 0.000000000000000000, 1.000000000000000000 ) ) ;
#142 = VERTEX_POINT ( 'NONE', #509 ) ;
#143 = CARTESIAN_POINT ( 'NONE',  ( -3.175000000000000711, 2.286000000000000032, 4.000000000000000000 ) ) ;
#144 = VECTOR ( 'NONE', #284, 1000.000000000000000 ) ;
#145 = LINE ( 'NONE', #899, #96 ) ;
#146 = CIRCLE ( 'NONE', #357, 4.000000000000000000 ) ;
#147 = ORIENTED_EDGE ( 'NONE', *, *, #167, .T. ) ;
#148 = AXIS2_PLACEMENT_3D ( 'NONE', #292, #938, #783 ) ;
#149 = PLANE ( 'NONE',  #436 ) ;
#150 = ORIENTED_EDGE ( 'NONE', *, *, #411, .F. ) ;
#151 = ORIENTED_EDGE ( 'NONE', *, *, #954, .T. ) ;
#152 = DIRECTION ( 'NONE',  ( 1.000000000000000000, 1.885568995626964287E-16, 0.000000000000000000 ) ) ;
#153 = VERTEX_POINT ( 'NONE', #374 ) ;
#154 = PRODUCT_RELATED_PRODUCT_CATEGORY ( 'detail', '', ( #253 ) ) ;
#155 = APPROVAL_ROLE ( '' ) ;
#156 = DIRECTION ( 'NONE',  ( 1.000000000000000000, -4.956352788505188906E-16, 0.000000000000000000 ) ) ;
#157 = EDGE_CURVE ( 'NONE', #76, #447, #675, .T. ) ;
#158 = ORIENTED_EDGE ( 'NONE', *, *, #945, .F. ) ;
#159 = CARTESIAN_POINT ( 'NONE',  ( -2.174999999999999378, 5.524999999999997691, -3.000000000000000000 ) ) ;
#160 = ORIENTED_EDGE ( 'NONE', *, *, #595, .T. ) ;
#161 = AXIS2_PLACEMENT_3D ( 'NONE', #512, #581, #304 ) ;
#162 = DIRECTION ( 'NONE',  ( -0.000000000000000000, -0.000000000000000000, -1.000000000000000000 ) ) ;
#163 = ADVANCED_FACE ( 'NONE', ( #140 ), #874, .F. ) ;
#164 = ORIENTED_EDGE ( 'NONE', *, *, #619, .T. ) ;
#165 = CARTESIAN_POINT ( 'NONE',  ( 2.175000000000000266, 5.524999999999997691, -3.000000000000000000 ) ) ;
#166 = ORIENTED_EDGE ( 'NONE', *, *, #360, .F. ) ;
#167 = EDGE_CURVE ( 'NONE', #948, #955, #651, .T. ) ;
#168 = CARTESIAN_POINT ( 'NONE',  ( -2.300000000000000711, 3.524999999999996358, 4.000000000000000000 ) ) ;
#169 = VERTEX_POINT ( 'NONE', #664 ) ;
#170 = LINE ( 'NONE', #552, #691 ) ;
#171 = AXIS2_PLACEMENT_3D ( 'NONE', #98, #408, #180 ) ;
#172 = FACE_BOUND ( 'NONE', #120, .T. ) ;
#173 = CARTESIAN_POINT ( 'NONE',  ( -6.350000000000001421, 2.286000000000000032, 0.000000000000000000 ) ) ;
#174 = VERTEX_POINT ( 'NONE', #353 ) ;
#175 = ADVANCED_FACE ( 'NONE', ( #732, #946 ), #59, .T. ) ;
#176 = VECTOR ( 'NONE', #105, 1000.000000000000000 ) ;
#177 = COORDINATED_UNIVERSAL_TIME_OFFSET ( 6, 0, .BEHIND. ) ;
#178 = DIRECTION ( 'NONE',  ( 0.000000000000000000, 1.000000000000000000, 0.000000000000000000 ) ) ;
#179 = CARTESIAN_POINT ( 'NONE',  ( 6.349999999999999645, 2.286000000000000032, 4.000000000000000000 ) ) ;
#180 = DIRECTION ( 'NONE',  ( 0.000000000000000000, 0.000000000000000000, 1.000000000000000000 ) ) ;
#181 = ORIENTED_EDGE ( 'NONE', *, *, #307, .T. ) ;
#182 = LINE ( 'NONE', #306, #677 ) ;
#183 =( BOUNDED_CURVE ( )  B_SPLINE_CURVE ( 3, ( #564, #943, #296, #33 ),
 .UNSPECIFIED., .F., .T. ) 
 B_SPLINE_CURVE_WITH_KNOTS ( ( 4, 4 ),
 ( 1.570796326794896780, 4.712388980384689674 ),
 .UNSPECIFIED. ) 
 CURVE ( )  GEOMETRIC_REPRESENTATION_ITEM ( )  RATIONAL_B_SPLINE_CURVE ( ( 1.000000000000000000, 0.3333333333333333703, 0.3333333333333333703, 1.000000000000000000 ) ) 
 REPRESENTATION_ITEM ( '' )  );
#184 = ADVANCED_FACE ( 'NONE', ( #41 ), #53, .F. ) ;
#185 = DIRECTION ( 'NONE',  ( -1.000000000000000000, -0.000000000000000000, -0.000000000000000000 ) ) ;
#186 = CARTESIAN_POINT ( 'NONE',  ( -3.175000000000000711, -2.286000000000000032, -4.000000000000000000 ) ) ;
#187 = ORIENTED_EDGE ( 'NONE', *, *, #208, .F. ) ;
#188 = DIRECTION ( 'NONE',  ( 0.000000000000000000, 0.000000000000000000, 1.000000000000000000 ) ) ;
#189 = EDGE_CURVE ( 'NONE', #447, #637, #879, .T. ) ;
#190 = AXIS2_PLACEMENT_3D ( 'NONE', #438, #855, #510 ) ;
#191 = EDGE_CURVE ( 'NONE', #915, #673, #131, .T. ) ;
#192 = ORIENTED_EDGE ( 'NONE', *, *, #521, .T. ) ;
#193 = CARTESIAN_POINT ( 'NONE',  ( 6.349999999999997868, 2.286000000000000032, 4.000000000000000000 ) ) ;
#194 = ORIENTED_EDGE ( 'NONE', *, *, #802, .F. ) ;
#195 = CLOSED_SHELL ( 'NONE', ( #878, #94, #163, #46, #175, #465, #67, #700, #668, #122, #808, #199, #776, #184, #235, #683, #101, #960, #904, #310, #479, #765, #223, #817, #654, #525, #365, #494, #303 ) ) ;
#196 = FACE_OUTER_BOUND ( 'NONE', #298, .T. ) ;
#197 = VECTOR ( 'NONE', #527, 1000.000000000000000 ) ;
#198 = CARTESIAN_POINT ( 'NONE',  ( -2.174999999999999378, 5.524999999999997691, 3.000000000000000000 ) ) ;
#199 = ADVANCED_FACE ( 'NONE', ( #568 ), #575, .F. ) ;
#200 = PLANE ( 'NONE',  #190 ) ;
#201 = ORIENTED_EDGE ( 'NONE', *, *, #789, .F. ) ;
#202 = CARTESIAN_POINT ( 'NONE',  ( 6.349999999999997868, 2.286000000000000032, 2.749999999999998224 ) ) ;
#203 = DIRECTION ( 'NONE',  ( -1.000000000000000000, -1.885568995626964533E-16, 0.000000000000000000 ) ) ;
#204 = CARTESIAN_POINT ( 'NONE',  ( 6.349999999999997868, 2.286000000000000032, 0.000000000000000000 ) ) ;
#205 = EDGE_LOOP ( 'NONE', ( #653, #404 ) ) ;
#206 = EDGE_CURVE ( 'NONE', #250, #142, #474, .T. ) ;
#207 = CARTESIAN_POINT ( 'NONE',  ( 3.175000000000000266, 6.524999999999998579, 4.000000000000000000 ) ) ;
#208 = EDGE_CURVE ( 'NONE', #856, #3, #210, .T. ) ;
#209 = UNCERTAINTY_MEASURE_WITH_UNIT (LENGTH_MEASURE( 1.000000000000000082E-05 ), #652, 'distance_accuracy_value', 'NONE');
#210 = LINE ( 'NONE', #501, #591 ) ;
#211 = CIRCLE ( 'NONE', #225, 2.099999999999997424 ) ;
#212 = ORIENTED_EDGE ( 'NONE', *, *, #291, .T. ) ;
#213 = DIRECTION ( 'NONE',  ( -0.000000000000000000, -1.000000000000000000, -0.000000000000000000 ) ) ;
#214 = DIRECTION ( 'NONE',  ( -0.000000000000000000, -0.000000000000000000, -1.000000000000000000 ) ) ;
#215 = AXIS2_PLACEMENT_3D ( 'NONE', #30, #341, #97 ) ;
#216 = DIRECTION ( 'NONE',  ( -0.000000000000000000, -1.000000000000000000, -0.000000000000000000 ) ) ;
#217 = ORIENTED_EDGE ( 'NONE', *, *, #843, .F. ) ;
#218 = FACE_OUTER_BOUND ( 'NONE', #418, .T. ) ;
#219 = DIRECTION ( 'NONE',  ( -0.8003850168991147873, -0.5994863006970247987, 0.000000000000000000 ) ) ;
#220 = LINE ( 'NONE', #119, #486 ) ;
#221 = DIRECTION ( 'NONE',  ( -0.000000000000000000, -1.000000000000000000, -0.000000000000000000 ) ) ;
#222 = DIRECTION ( 'NONE',  ( -1.000000000000000000, 0.000000000000000000, 0.000000000000000000 ) ) ;
#223 = ADVANCED_FACE ( 'NONE', ( #506 ), #797, .F. ) ;
#224 = VERTEX_POINT ( 'NONE', #309 ) ;
#225 = AXIS2_PLACEMENT_3D ( 'NONE', #48, #289, #44 ) ;
#226 = CARTESIAN_POINT ( 'NONE',  ( 1.365923996832131609E-16, 5.524999999999997691, 0.000000000000000000 ) ) ;
#227 = AXIS2_PLACEMENT_3D ( 'NONE', #417, #706, #299 ) ;
#228 = EDGE_CURVE ( 'NONE', #327, #8, #381, .T. ) ;
#229 = VECTOR ( 'NONE', #152, 1000.000000000000000 ) ;
#230 = CARTESIAN_POINT ( 'NONE',  ( 3.174999999999996714, 1.425000000000000933, 4.000000000000000000 ) ) ;
#231 = DIRECTION ( 'NONE',  ( 1.000000000000000000, 1.885568995626964287E-16, 0.000000000000000000 ) ) ;
#232 = ORIENTED_EDGE ( 'NONE', *, *, #262, .T. ) ;
#233 = CC_DESIGN_PERSON_AND_ORGANIZATION_ASSIGNMENT ( #696, #324, ( #253 ) ) ;
#234 = VERTEX_POINT ( 'NONE', #685 ) ;
#235 = ADVANCED_FACE ( 'NONE', ( #532, #247 ), #463, .F. ) ;
#236 = PERSON_AND_ORGANIZATION ( #329, #340 ) ;
#237 = CARTESIAN_POINT ( 'NONE',  ( 2.300000000000001155, 1.425000000000001377, -4.000000000000000000 ) ) ;
#238 = ORIENTED_EDGE ( 'NONE', *, *, #130, .F. ) ;
#239 = ORIENTED_EDGE ( 'NONE', *, *, #812, .T. ) ;
#240 = VECTOR ( 'NONE', #767, 1000.000000000000000 ) ;
#241 = EDGE_CURVE ( 'NONE', #50, #612, #133, .T. ) ;
#242 = DIRECTION ( 'NONE',  ( -0.000000000000000000, -1.000000000000000000, -0.000000000000000000 ) ) ;
#243 = EDGE_LOOP ( 'NONE', ( #772, #891 ) ) ;
#244 = ORIENTED_EDGE ( 'NONE', *, *, #360, .T. ) ;
#245 = VECTOR ( 'NONE', #953, 1000.000000000000000 ) ;
#246 = EDGE_CURVE ( 'NONE', #174, #838, #822, .T. ) ;
#247 = FACE_OUTER_BOUND ( 'NONE', #890, .T. ) ;
#248 = ORIENTED_EDGE ( 'NONE', *, *, #910, .T. ) ;
#249 = LINE ( 'NONE', #168, #126 ) ;
#250 = VERTEX_POINT ( 'NONE', #396 ) ;
#251 = DATE_AND_TIME ( #733, #107 ) ;
#252 = CARTESIAN_POINT ( 'NONE',  ( 3.174999999999996270, 2.286000000000000032, 4.000000000000000000 ) ) ;
#253 = PRODUCT ( '228-2500-158', '228-2500-158', '', ( #758 ) ) ;
#254 = EDGE_CURVE ( 'NONE', #64, #476, #957, .T. ) ;
#255 = CARTESIAN_POINT ( 'NONE',  ( 2.175000000000000266, 5.524999999999997691, 3.000000000000000000 ) ) ;
#256 = ORIENTED_EDGE ( 'NONE', *, *, #697, .T. ) ;
#257 = DIRECTION ( 'NONE',  ( -0.000000000000000000, 0.000000000000000000, 1.000000000000000000 ) ) ;
#258 = COORDINATED_UNIVERSAL_TIME_OFFSET ( 6, 0, .BEHIND. ) ;
#259 = ORIENTED_EDGE ( 'NONE', *, *, #25, .F. ) ;
#260 = FACE_OUTER_BOUND ( 'NONE', #666, .T. ) ;
#261 = ORIENTED_EDGE ( 'NONE', *, *, #569, .F. ) ;
#262 = EDGE_CURVE ( 'NONE', #673, #688, #7, .T. ) ;
#263 = AXIS2_PLACEMENT_3D ( 'NONE', #522, #2, #516 ) ;
#264 = VECTOR ( 'NONE', #231, 1000.000000000000000 ) ;
#265 = DIRECTION ( 'NONE',  ( 1.365923996832131609E-16, -1.000000000000000000, 0.000000000000000000 ) ) ;
#266 = DIRECTION ( 'NONE',  ( 0.000000000000000000, 0.000000000000000000, 1.000000000000000000 ) ) ;
#267 = DIRECTION ( 'NONE',  ( -0.000000000000000000, -0.000000000000000000, -1.000000000000000000 ) ) ;
#268 = ORIENTED_EDGE ( 'NONE', *, *, #191, .T. ) ;
#269 = CARTESIAN_POINT ( 'NONE',  ( 6.349999999999997868, 2.286000000000000032, -2.099999999999997424 ) ) ;
#270 = EDGE_CURVE ( 'NONE', #169, #768, #325, .T. ) ;
#271 = ORIENTED_EDGE ( 'NONE', *, *, #814, .F. ) ;
#272 = CARTESIAN_POINT ( 'NONE',  ( 2.299999999999998934, 3.524999999999997247, 4.000000000000000000 ) ) ;
#273 = VERTEX_POINT ( 'NONE', #455 ) ;
#274 = CARTESIAN_POINT ( 'NONE',  ( 2.175000000000000266, 5.524999999999997691, 3.000000000000000000 ) ) ;
#275 = CARTESIAN_POINT ( 'NONE',  ( -3.175000000000001599, 1.425000000000003597, 4.000000000000000000 ) ) ;
#276 = EDGE_CURVE ( 'NONE', #900, #599, #451, .T. ) ;
#277 = AXIS2_PLACEMENT_3D ( 'NONE', #484, #620, #627 ) ;
#278 = LINE ( 'NONE', #905, #533 ) ;
#279 = CARTESIAN_POINT ( 'NONE',  ( -3.175000000000000711, 2.286000000000000032, 4.000000000000000000 ) ) ;
#280 = EDGE_LOOP ( 'NONE', ( #713, #311, #383, #680 ) ) ;
#281 = PLANE ( 'NONE',  #809 ) ;
#282 = VECTOR ( 'NONE', #731, 1000.000000000000000 ) ;
#283 = DIRECTION ( 'NONE',  ( -0.5994863006970254649, -0.8003850168991142322, 0.000000000000000000 ) ) ;
#284 = DIRECTION ( 'NONE',  ( -0.000000000000000000, -1.000000000000000000, -0.000000000000000000 ) ) ;
#285 = ORIENTED_EDGE ( 'NONE', *, *, #629, .T. ) ;
#286 = DIRECTION ( 'NONE',  ( 4.956352788505161296E-16, 1.000000000000000000, -0.000000000000000000 ) ) ;
#287 = CARTESIAN_POINT ( 'NONE',  ( -6.350000000000001421, 2.286000000000000032, -2.750000000000000000 ) ) ;
#288 = CARTESIAN_POINT ( 'NONE',  ( 2.175000000000000266, 6.524999999999997691, -3.000000000000000000 ) ) ;
#289 = DIRECTION ( 'NONE',  ( 0.000000000000000000, 1.000000000000000000, 0.000000000000000000 ) ) ;
#290 = ORIENTED_EDGE ( 'NONE', *, *, #348, .F. ) ;
#291 = EDGE_CURVE ( 'NONE', #750, #730, #145, .T. ) ;
#292 = CARTESIAN_POINT ( 'NONE',  ( 2.175000000000000266, 5.524999999999997691, 3.000000000000000000 ) ) ;
#293 = LINE ( 'NONE', #129, #646 ) ;
#294 = LINE ( 'NONE', #573, #662 ) ;
#295 = VECTOR ( 'NONE', #600, 1000.000000000000000 ) ;
#296 = CARTESIAN_POINT ( 'NONE',  ( 0.8500000000000017542, 9.629149606299208131, 2.749999999999997335 ) ) ;
#297 = LINE ( 'NONE', #503, #534 ) ;
#298 = EDGE_LOOP ( 'NONE', ( #535, #462, #544, #876 ) ) ;
#299 = DIRECTION ( 'NONE',  ( 0.000000000000000000, 0.000000000000000000, -1.000000000000000000 ) ) ;
#300 = CARTESIAN_POINT ( 'NONE',  ( -2.300000000000000711, 3.524999999999996358, -4.000000000000000000 ) ) ;
#301 = ORIENTED_EDGE ( 'NONE', *, *, #254, .T. ) ;
#302 = DIRECTION ( 'NONE',  ( -1.000000000000000000, -1.365923996832131609E-16, -0.000000000000000000 ) ) ;
#303 = ADVANCED_FACE ( 'NONE', ( #741 ), #149, .T. ) ;
#304 = DIRECTION ( 'NONE',  ( -2.065146995210491351E-16, -1.000000000000000000, 0.000000000000000000 ) ) ;
#305 = VERTEX_POINT ( 'NONE', #740 ) ;
#306 = CARTESIAN_POINT ( 'NONE',  ( -2.300000000000001155, 1.425000000000003153, -4.000000000000000000 ) ) ;
#307 = EDGE_CURVE ( 'NONE', #305, #744, #65, .T. ) ;
#308 = DIRECTION ( 'NONE',  ( -0.000000000000000000, -1.000000000000000000, -0.000000000000000000 ) ) ;
#309 = CARTESIAN_POINT ( 'NONE',  ( 2.300000000000001155, 1.425000000000001377, -4.000000000000000000 ) ) ;
#310 = ADVANCED_FACE ( 'NONE', ( #747, #380 ), #880, .F. ) ;
#311 = ORIENTED_EDGE ( 'NONE', *, *, #35, .T. ) ;
#312 = AXIS2_PLACEMENT_3D ( 'NONE', #459, #592, #448 ) ;
#313 = ORIENTED_EDGE ( 'NONE', *, *, #595, .F. ) ;
#314 = PERSON_AND_ORGANIZATION_ROLE ( 'creator' ) ;
#315 = CARTESIAN_POINT ( 'NONE',  ( 6.349999999999997868, -2.286000000000000032, 0.000000000000000000 ) ) ;
#316 = ORIENTED_EDGE ( 'NONE', *, *, #748, .F. ) ;
#317 = ORIENTED_EDGE ( 'NONE', *, *, #629, .F. ) ;
#318 = DIRECTION ( 'NONE',  ( 0.000000000000000000, 0.000000000000000000, 1.000000000000000000 ) ) ;
#319 = PLANE ( 'NONE',  #328 ) ;
#320 = ORIENTED_EDGE ( 'NONE', *, *, #330, .F. ) ;
#321 = DIRECTION ( 'NONE',  ( 0.000000000000000000, 0.000000000000000000, -1.000000000000000000 ) ) ;
#322 = EDGE_LOOP ( 'NONE', ( #34, #92, #320, #754 ) ) ;
#323 = LOCAL_TIME ( 14, 18, 26.00000000000000000, #258 ) ;
#324 = PERSON_AND_ORGANIZATION_ROLE ( 'design_owner' ) ;
#325 = LINE ( 'NONE', #893, #264 ) ;
#326 = DIRECTION ( 'NONE',  ( -0.000000000000000000, -1.000000000000000000, -0.000000000000000000 ) ) ;
#327 = VERTEX_POINT ( 'NONE', #598 ) ;
#328 = AXIS2_PLACEMENT_3D ( 'NONE', #604, #421, #265 ) ;
#329 = PERSON ( 'UNSPECIFIED', 'UNSPECIFIED', 'UNSPECIFIED', ('UNSPECIFIED'), ('UNSPECIFIED'), ('UNSPECIFIED') ) ;
#330 = EDGE_CURVE ( 'NONE', #768, #750, #68, .T. ) ;
#331 = ORIENTED_EDGE ( 'NONE', *, *, #843, .T. ) ;
#332 = CARTESIAN_POINT ( 'NONE',  ( -6.350000000000001421, 2.286000000000000032, 2.099999999999997424 ) ) ;
#333 = ORIENTED_EDGE ( 'NONE', *, *, #641, .T. ) ;
#334 = LINE ( 'NONE', #616, #551 ) ;
#335 = DATE_AND_TIME ( #947, #788 ) ;
#336 = CARTESIAN_POINT ( 'NONE',  ( -6.350000000000001421, 2.286000000000000032, 4.000000000000000000 ) ) ;
#337 = LINE ( 'NONE', #423, #940 ) ;
#338 = ORIENTED_EDGE ( 'NONE', *, *, #707, .T. ) ;
#339 = DIRECTION ( 'NONE',  ( -1.000000000000000000, 0.000000000000000000, 0.000000000000000000 ) ) ;
#340 = ORGANIZATION ( 'UNSPECIFIED', 'UNSPECIFIED', '' ) ;
#341 = DIRECTION ( 'NONE',  ( 0.000000000000000000, 1.000000000000000000, 0.000000000000000000 ) ) ;
#342 = CC_DESIGN_DATE_AND_TIME_ASSIGNMENT ( #546, #835, ( #647 ) ) ;
#343 = DIRECTION ( 'NONE',  ( -0.5994863006970247987, 0.8003850168991147873, -0.000000000000000000 ) ) ;
#344 = ORIENTED_EDGE ( 'NONE', *, *, #641, .F. ) ;
#345 = LINE ( 'NONE', #553, #111 ) ;
#346 = LINE ( 'NONE', #712, #371 ) ;
#347 = ORIENTED_EDGE ( 'NONE', *, *, #270, .T. ) ;
#348 = EDGE_CURVE ( 'NONE', #224, #547, #889, .T. ) ;
#349 = DIRECTION ( 'NONE',  ( 0.000000000000000000, 1.000000000000000000, 0.000000000000000000 ) ) ;
#350 = DIRECTION ( 'NONE',  ( 0.000000000000000000, 0.000000000000000000, 1.000000000000000000 ) ) ;
#351 = EDGE_LOOP ( 'NONE', ( #468, #851, #217, #316 ) ) ;
#352 = DIRECTION ( 'NONE',  ( 0.000000000000000000, 0.000000000000000000, 1.000000000000000000 ) ) ;
#353 = CARTESIAN_POINT ( 'NONE',  ( -6.350000000000001421, 2.286000000000000032, -2.099999999999997424 ) ) ;
#354 = DIRECTION ( 'NONE',  ( 0.000000000000000000, 0.000000000000000000, -1.000000000000000000 ) ) ;
#355 = ORIENTED_EDGE ( 'NONE', *, *, #537, .T. ) ;
#356 = FACE_OUTER_BOUND ( 'NONE', #90, .T. ) ;
#357 = AXIS2_PLACEMENT_3D ( 'NONE', #618, #913, #266 ) ;
#358 = CARTESIAN_POINT ( 'NONE',  ( -3.175000000000000711, -2.286000000000000032, 4.000000000000000000 ) ) ;
#359 = VECTOR ( 'NONE', #242, 1000.000000000000000 ) ;
#360 = EDGE_CURVE ( 'NONE', #327, #169, #819, .T. ) ;
#361 = DIRECTION ( 'NONE',  ( 0.000000000000000000, 0.000000000000000000, 1.000000000000000000 ) ) ;
#362 = ORIENTED_EDGE ( 'NONE', *, *, #429, .T. ) ;
#363 = LINE ( 'NONE', #868, #385 ) ;
#364 = DIRECTION ( 'NONE',  ( 1.000000000000000000, 0.000000000000000000, 0.000000000000000000 ) ) ;
#365 = ADVANCED_FACE ( 'NONE', ( #681 ), #319, .F. ) ;
#366 = DIRECTION ( 'NONE',  ( 0.000000000000000000, 1.000000000000000000, 0.000000000000000000 ) ) ;
#367 = EDGE_LOOP ( 'NONE', ( #394, #939, #816, #846 ) ) ;
#368 = DIRECTION ( 'NONE',  ( -0.5994863006970254649, -0.8003850168991142322, 0.000000000000000000 ) ) ;
#369 = DIRECTION ( 'NONE',  ( -0.000000000000000000, -1.000000000000000000, -0.000000000000000000 ) ) ;
#370 = CARTESIAN_POINT ( 'NONE',  ( -6.349999999999999645, 2.286000000000000032, -4.000000000000000000 ) ) ;
#371 = VECTOR ( 'NONE', #839, 1000.000000000000000 ) ;
#372 = FACE_OUTER_BOUND ( 'NONE', #393, .T. ) ;
#373 = CARTESIAN_POINT ( 'NONE',  ( 2.175000000000000266, 5.524999999999997691, -3.000000000000000000 ) ) ;
#374 = CARTESIAN_POINT ( 'NONE',  ( -2.174999999999999378, 5.524999999999997691, 3.000000000000000000 ) ) ;
#375 = AXIS2_PLACEMENT_3D ( 'NONE', #638, #556, #764 ) ;
#376 = DATE_AND_TIME ( #898, #399 ) ;
#377 = ORIENTED_EDGE ( 'NONE', *, *, #81, .F. ) ;
#378 = DIRECTION ( 'NONE',  ( 2.065146995210491104E-16, 1.000000000000000000, 0.000000000000000000 ) ) ;
#379 = EDGE_LOOP ( 'NONE', ( #147, #827, #559, #453 ) ) ;
#380 = FACE_BOUND ( 'NONE', #828, .T. ) ;
#381 = LINE ( 'NONE', #752, #956 ) ;
#382 = EDGE_CURVE ( 'NONE', #793, #409, #490, .T. ) ;
#383 = ORIENTED_EDGE ( 'NONE', *, *, #748, .T. ) ;
#384 = ORIENTED_EDGE ( 'NONE', *, *, #81, .T. ) ;
#385 = VECTOR ( 'NONE', #213, 1000.000000000000000 ) ;
#386 = CARTESIAN_POINT ( 'NONE',  ( 6.349999999999997868, -2.286000000000000032, 0.000000000000000000 ) ) ;
#387 = EDGE_CURVE ( 'NONE', #601, #621, #52, .T. ) ;
#388 = ORIENTED_EDGE ( 'NONE', *, *, #382, .F. ) ;
#389 = VECTOR ( 'NONE', #392, 1000.000000000000000 ) ;
#390 = ORIENTED_EDGE ( 'NONE', *, *, #697, .F. ) ;
#391 = SECURITY_CLASSIFICATION_LEVEL ( 'unclassified' ) ;
#392 = DIRECTION ( 'NONE',  ( 2.065146995210491104E-16, 1.000000000000000000, 0.000000000000000000 ) ) ;
#393 = EDGE_LOOP ( 'NONE', ( #834, #813, #643, #4 ) ) ;
#394 = ORIENTED_EDGE ( 'NONE', *, *, #276, .T. ) ;
#395 = APPROVAL_STATUS ( 'not_yet_approved' ) ;
#396 = CARTESIAN_POINT ( 'NONE',  ( -6.350000000000001421, -2.286000000000000032, 2.099999999999997424 ) ) ;
#397 = LINE ( 'NONE', #230, #295 ) ;
#398 = EDGE_LOOP ( 'NONE', ( #539, #27, #452, #99 ) ) ;
#399 = LOCAL_TIME ( 14, 18, 26.00000000000000000, #177 ) ;
#400 = EDGE_CURVE ( 'NONE', #409, #673, #36, .T. ) ;
#401 = DIRECTION ( 'NONE',  ( -1.365923996832131609E-16, 1.000000000000000000, -0.000000000000000000 ) ) ;
#402 = AXIS2_PLACEMENT_3D ( 'NONE', #648, #642, #929 ) ;
#403 = DIRECTION ( 'NONE',  ( -0.000000000000000000, -0.000000000000000000, -1.000000000000000000 ) ) ;
#404 = ORIENTED_EDGE ( 'NONE', *, *, #910, .F. ) ;
#405 = VECTOR ( 'NONE', #944, 1000.000000000000000 ) ;
#406 = CARTESIAN_POINT ( 'NONE',  ( -2.174999999999999378, 5.524999999999997691, 3.000000000000000000 ) ) ;
#407 = FACE_OUTER_BOUND ( 'NONE', #780, .T. ) ;
#408 = DIRECTION ( 'NONE',  ( 0.000000000000000000, 1.000000000000000000, 0.000000000000000000 ) ) ;
#409 = VERTEX_POINT ( 'NONE', #287 ) ;
#410 = DIRECTION ( 'NONE',  ( -0.000000000000000000, 0.000000000000000000, -1.000000000000000000 ) ) ;
#411 = EDGE_CURVE ( 'NONE', #64, #612, #865, .T. ) ;
#412 = DIRECTION ( 'NONE',  ( 0.8003850168991143432, -0.5994863006970254649, 0.000000000000000000 ) ) ;
#413 = CARTESIAN_POINT ( 'NONE',  ( -6.350000000000001421, 2.286000000000000032, 2.750000000000000000 ) ) ;
#414 = ORIENTED_EDGE ( 'NONE', *, *, #348, .T. ) ;
#415 = DIRECTION ( 'NONE',  ( 0.000000000000000000, 0.000000000000000000, -1.000000000000000000 ) ) ;
#416 = AXIS2_PLACEMENT_3D ( 'NONE', #173, #693, #475 ) ;
#417 = CARTESIAN_POINT ( 'NONE',  ( -6.350000000000001421, 2.286000000000000032, 0.000000000000000000 ) ) ;
#418 = EDGE_LOOP ( 'NONE', ( #524, #686, #882, #244, #347, #450, #212, #493, #821, #825, #585, #113, #333, #786 ) ) ;
#419 = VECTOR ( 'NONE', #497, 1000.000000000000000 ) ;
#420 = ADVANCED_BREP_SHAPE_REPRESENTATION ( '228-2500-158', ( #28, #529 ), #742 ) ;
#421 = DIRECTION ( 'NONE',  ( -1.000000000000000000, -1.365923996832131609E-16, 0.000000000000000000 ) ) ;
#422 = VERTEX_POINT ( 'NONE', #358 ) ;
#423 = CARTESIAN_POINT ( 'NONE',  ( 3.175000000000000266, 6.524999999999998579, -4.000000000000000000 ) ) ;
#424 = ORIENTED_EDGE ( 'NONE', *, *, #228, .F. ) ;
#425 = PLANE ( 'NONE',  #897 ) ;
#426 = FACE_OUTER_BOUND ( 'NONE', #753, .T. ) ;
#427 = LINE ( 'NONE', #660, #23 ) ;
#428 = CARTESIAN_POINT ( 'NONE',  ( -3.175000000000000711, -2.286000000000000032, -4.000000000000000000 ) ) ;
#429 = EDGE_CURVE ( 'NONE', #637, #456, #499, .T. ) ;
#430 = CARTESIAN_POINT ( 'NONE',  ( -6.350000000000001421, 2.286000000000000032, 4.000000000000000000 ) ) ;
#431 = VECTOR ( 'NONE', #54, 1000.000000000000000 ) ;
#432 = DIRECTION ( 'NONE',  ( -1.000000000000000000, 4.956352788505188906E-16, 0.000000000000000000 ) ) ;
#433 = PLANE ( 'NONE',  #471 ) ;
#434 = LINE ( 'NONE', #803, #912 ) ;
#435 = DIRECTION ( 'NONE',  ( 1.000000000000000000, 0.000000000000000000, 0.000000000000000000 ) ) ;
#436 = AXIS2_PLACEMENT_3D ( 'NONE', #226, #958, #739 ) ;
#437 = CARTESIAN_POINT ( 'NONE',  ( -6.350000000000001421, -2.286000000000000032, 0.000000000000000000 ) ) ;
#438 = CARTESIAN_POINT ( 'NONE',  ( 6.349999999999997868, 2.286000000000000032, 0.000000000000000000 ) ) ;
#439 = CARTESIAN_POINT ( 'NONE',  ( 3.175000000000000266, 6.524999999999998579, 4.000000000000000000 ) ) ;
#440 = DIRECTION ( 'NONE',  ( 0.000000000000000000, -1.000000000000000000, 0.000000000000000000 ) ) ;
#441 = LINE ( 'NONE', #428, #282 ) ;
#442 = DIRECTION ( 'NONE',  ( 0.5994863006970247987, -0.8003850168991147873, 0.000000000000000000 ) ) ;
#443 = CARTESIAN_POINT ( 'NONE',  ( 6.349999999999997868, 2.286000000000000032, 0.000000000000000000 ) ) ;
#444 = ORIENTED_EDGE ( 'NONE', *, *, #521, .F. ) ;
#445 = EDGE_CURVE ( 'NONE', #456, #76, #293, .T. ) ;
#446 = CARTESIAN_POINT ( 'NONE',  ( -6.350000000000001421, 2.286000000000000032, -4.000000000000000000 ) ) ;
#447 = VERTEX_POINT ( 'NONE', #922 ) ;
#448 = DIRECTION ( 'NONE',  ( 0.000000000000000000, 0.000000000000000000, 1.000000000000000000 ) ) ;
#449 = CIRCLE ( 'NONE', #43, 2.099999999999997424 ) ;
#450 = ORIENTED_EDGE ( 'NONE', *, *, #330, .T. ) ;
#451 = LINE ( 'NONE', #815, #229 ) ;
#452 = ORIENTED_EDGE ( 'NONE', *, *, #710, .T. ) ;
#453 = ORIENTED_EDGE ( 'NONE', *, *, #679, .T. ) ;
#454 = EDGE_CURVE ( 'NONE', #69, #955, #934, .T. ) ;
#455 = CARTESIAN_POINT ( 'NONE',  ( -2.174999999999999378, 6.524999999999997691, 3.000000000000000000 ) ) ;
#456 = VERTEX_POINT ( 'NONE', #580 ) ;
#457 = ORIENTED_EDGE ( 'NONE', *, *, #770, .T. ) ;
#458 = CC_DESIGN_DATE_AND_TIME_ASSIGNMENT ( #376, #665, ( #805 ) ) ;
#459 = CARTESIAN_POINT ( 'NONE',  ( -6.350000000000001421, 2.286000000000000032, 0.000000000000000000 ) ) ;
#460 = VERTEX_POINT ( 'NONE', #275 ) ;
#461 = DIRECTION ( 'NONE',  ( 0.000000000000000000, 0.000000000000000000, 1.000000000000000000 ) ) ;
#462 = ORIENTED_EDGE ( 'NONE', *, *, #930, .T. ) ;
#463 = PLANE ( 'NONE',  #263 ) ;
#464 = EDGE_LOOP ( 'NONE', ( #703, #444, #238, #313 ) ) ;
#465 = ADVANCED_FACE ( 'NONE', ( #196 ), #281, .F. ) ;
#466 = ORIENTED_EDGE ( 'NONE', *, *, #429, .F. ) ;
#467 = PERSON_AND_ORGANIZATION ( #329, #340 ) ;
#468 = ORIENTED_EDGE ( 'NONE', *, *, #246, .T. ) ;
#469 = ORIENTED_EDGE ( 'NONE', *, *, #291, .F. ) ;
#470 = CARTESIAN_POINT ( 'NONE',  ( 2.175000000000000266, 5.524999999999997691, -3.000000000000000000 ) ) ;
#471 = AXIS2_PLACEMENT_3D ( 'NONE', #931, #720, #861 ) ;
#472 = CARTESIAN_POINT ( 'NONE',  ( 0.000000000000000000, 0.000000000000000000, 0.000000000000000000 ) ) ;
#473 = PLANE ( 'NONE',  #215 ) ;
#474 = CIRCLE ( 'NONE', #42, 2.099999999999997424 ) ;
#475 = DIRECTION ( 'NONE',  ( 0.000000000000000000, 0.000000000000000000, -1.000000000000000000 ) ) ;
#476 = VERTEX_POINT ( 'NONE', #269 ) ;
#477 = VECTOR ( 'NONE', #369, 1000.000000000000000 ) ;
#478 = CC_DESIGN_PERSON_AND_ORGANIZATION_ASSIGNMENT ( #607, #88, ( #647 ) ) ;
#479 = ADVANCED_FACE ( 'NONE', ( #116 ), #15, .T. ) ;
#480 = CARTESIAN_POINT ( 'NONE',  ( -3.174999999999999378, 6.524999999999997691, 4.000000000000000000 ) ) ;
#481 = DIRECTION ( 'NONE',  ( -1.000000000000000000, 0.000000000000000000, 0.000000000000000000 ) ) ;
#482 = EDGE_CURVE ( 'NONE', #476, #64, #449, .T. ) ;
#483 = LINE ( 'NONE', #252, #626 ) ;
#484 = CARTESIAN_POINT ( 'NONE',  ( 6.349999999999997868, 6.524999999999998579, 0.000000000000000000 ) ) ;
#485 = EDGE_LOOP ( 'NONE', ( #518, #390, #951, #355 ) ) ;
#486 = VECTOR ( 'NONE', #715, 1000.000000000000000 ) ;
#487 = CARTESIAN_POINT ( 'NONE',  ( 6.349999999999997868, 2.286000000000000032, -4.000000000000000000 ) ) ;
#488 = FACE_OUTER_BOUND ( 'NONE', #280, .T. ) ;
#489 = VERTEX_POINT ( 'NONE', #274 ) ;
#490 = CIRCLE ( 'NONE', #884, 2.750000000000000000 ) ;
#491 = CARTESIAN_POINT ( 'NONE',  ( 3.174999999999996270, -2.286000000000000032, -4.000000000000000000 ) ) ;
#492 = LINE ( 'NONE', #831, #721 ) ;
#493 = ORIENTED_EDGE ( 'NONE', *, *, #49, .T. ) ;
#494 = ADVANCED_FACE ( 'NONE', ( #100 ), #425, .F. ) ;
#495 = CARTESIAN_POINT ( 'NONE',  ( -0.8500000000000017542, 9.629149606299202802, 2.749999999999999556 ) ) ;
#496 = PLANE ( 'NONE',  #708 ) ;
#497 = DIRECTION ( 'NONE',  ( -0.000000000000000000, -1.000000000000000000, -0.000000000000000000 ) ) ;
#498 = EDGE_CURVE ( 'NONE', #460, #305, #769, .T. ) ;
#499 = LINE ( 'NONE', #491, #777 ) ;
#500 = CC_DESIGN_APPROVAL ( #689, ( #647 ) ) ;
#501 = CARTESIAN_POINT ( 'NONE',  ( 6.349999999999997868, 2.286000000000000032, 4.000000000000000000 ) ) ;
#502 =( NAMED_UNIT ( * ) PLANE_ANGLE_UNIT ( ) SI_UNIT ( $, .RADIAN. ) );
#503 = CARTESIAN_POINT ( 'NONE',  ( -2.174999999999999378, 6.524999999999997691, -3.000000000000000000 ) ) ;
#504 = APPROVAL ( #526, 'UNSPECIFIED' ) ;
#505 = VECTOR ( 'NONE', #857, 1000.000000000000000 ) ;
#506 = FACE_OUTER_BOUND ( 'NONE', #745, .T. ) ;
#507 = FACE_BOUND ( 'NONE', #862, .T. ) ;
#508 = PLANE ( 'NONE',  #854 ) ;
#509 = CARTESIAN_POINT ( 'NONE',  ( -6.350000000000001421, -2.286000000000000032, -2.099999999999997424 ) ) ;
#510 = DIRECTION ( 'NONE',  ( 0.000000000000000000, -0.000000000000000000, 1.000000000000000000 ) ) ;
#511 = DIRECTION ( 'NONE',  ( 1.000000000000000000, 0.000000000000000000, 0.000000000000000000 ) ) ;
#512 = CARTESIAN_POINT ( 'NONE',  ( -2.300000000000001155, 1.425000000000003153, 4.000000000000000000 ) ) ;
#513 = LOCAL_TIME ( 14, 18, 26.00000000000000000, #78 ) ;
#514 = EDGE_LOOP ( 'NONE', ( #906, #271, #716, #590 ) ) ;
#515 = AXIS2_PLACEMENT_3D ( 'NONE', #47, #219, #442 ) ;
#516 = DIRECTION ( 'NONE',  ( 1.000000000000000000, 1.365923996832131609E-16, 0.000000000000000000 ) ) ;
#517 = AXIS2_PLACEMENT_3D ( 'NONE', #645, #286, #787 ) ;
#518 = ORIENTED_EDGE ( 'NONE', *, *, #157, .T. ) ;
#519 = LINE ( 'NONE', #159, #39 ) ;
#520 = VERTEX_POINT ( 'NONE', #911 ) ;
#521 = EDGE_CURVE ( 'NONE', #20, #948, #170, .T. ) ;
#522 = CARTESIAN_POINT ( 'NONE',  ( -3.174999999999999378, 6.524999999999997691, 4.000000000000000000 ) ) ;
#523 = FACE_OUTER_BOUND ( 'NONE', #571, .T. ) ;
#524 = ORIENTED_EDGE ( 'NONE', *, *, #842, .T. ) ;
#525 = ADVANCED_FACE ( 'NONE', ( #93 ), #705, .F. ) ;
#526 = APPROVAL_STATUS ( 'not_yet_approved' ) ;
#527 = DIRECTION ( 'NONE',  ( -0.000000000000000000, -1.000000000000000000, -0.000000000000000000 ) ) ;
#528 = ORIENTED_EDGE ( 'NONE', *, *, #562, .F. ) ;
#529 = AXIS2_PLACEMENT_3D ( 'NONE', #472, #318, #60 ) ;
#530 = ORIENTED_EDGE ( 'NONE', *, *, #87, .F. ) ;
#531 = DATE_AND_TIME ( #1, #513 ) ;
#532 = FACE_BOUND ( 'NONE', #464, .T. ) ;
#533 = VECTOR ( 'NONE', #542, 1000.000000000000000 ) ;
#534 = VECTOR ( 'NONE', #40, 1000.000000000000000 ) ;
#535 = ORIENTED_EDGE ( 'NONE', *, *, #498, .F. ) ;
#536 = APPROVAL_DATE_TIME ( #531, #504 ) ;
#537 = EDGE_CURVE ( 'NONE', #9, #76, #334, .T. ) ;
#538 = EDGE_LOOP ( 'NONE', ( #160, #259, #932, #961 ) ) ;
#539 = ORIENTED_EDGE ( 'NONE', *, *, #873, .T. ) ;
#540 = APPROVAL_DATE_TIME ( #251, #678 ) ;
#541 = DIRECTION ( 'NONE',  ( 0.000000000000000000, 0.000000000000000000, 1.000000000000000000 ) ) ;
#542 = DIRECTION ( 'NONE',  ( -0.000000000000000000, -1.000000000000000000, -0.000000000000000000 ) ) ;
#543 = DIRECTION ( 'NONE',  ( 1.000000000000000000, -0.000000000000000000, -0.000000000000000000 ) ) ;
#544 = ORIENTED_EDGE ( 'NONE', *, *, #671, .T. ) ;
#545 = AXIS2_PLACEMENT_3D ( 'NONE', #443, #139, #141 ) ;
#546 = DATE_AND_TIME ( #603, #323 ) ;
#547 = VERTEX_POINT ( 'NONE', #841 ) ;
#548 = AXIS2_PLACEMENT_3D ( 'NONE', #138, #440, #73 ) ;
#549 = LINE ( 'NONE', #611, #240 ) ;
#550 = EDGE_LOOP ( 'NONE', ( #192, #779, #749, #55 ) ) ;
#551 = VECTOR ( 'NONE', #22, 1000.000000000000000 ) ;
#552 = CARTESIAN_POINT ( 'NONE',  ( 2.175000000000000266, 6.524999999999997691, 3.000000000000000000 ) ) ;
#553 = CARTESIAN_POINT ( 'NONE',  ( -6.349999999999999645, -2.286000000000000032, -4.000000000000000000 ) ) ;
#554 = DIRECTION ( 'NONE',  ( 1.000000000000000000, 1.032573497605244394E-15, -0.000000000000000000 ) ) ;
#555 = ORIENTED_EDGE ( 'NONE', *, *, #206, .T. ) ;
#556 = DIRECTION ( 'NONE',  ( -0.000000000000000000, -1.000000000000000000, -0.000000000000000000 ) ) ;
#557 = LINE ( 'NONE', #849, #737 ) ;
#558 = DIRECTION ( 'NONE',  ( -0.000000000000000000, -0.000000000000000000, -1.000000000000000000 ) ) ;
#559 = ORIENTED_EDGE ( 'NONE', *, *, #724, .F. ) ;
#560 = AXIS2_PLACEMENT_3D ( 'NONE', #631, #326, #109 ) ;
#561 = DIRECTION ( 'NONE',  ( -1.000000000000000000, -1.365923996832131609E-16, -0.000000000000000000 ) ) ;
#562 = EDGE_CURVE ( 'NONE', #8, #900, #182, .T. ) ;
#563 = EDGE_LOOP ( 'NONE', ( #134, #338, #804, #362 ) ) ;
#564 = CARTESIAN_POINT ( 'NONE',  ( 6.349999999999997868, 2.286000000000000032, -2.749999999999998224 ) ) ;
#565 = ORIENTED_EDGE ( 'NONE', *, *, #743, .F. ) ;
#566 = AXIS2_PLACEMENT_3D ( 'NONE', #386, #823, #84 ) ;
#567 = CARTESIAN_POINT ( 'NONE',  ( -3.175000000000000711, 2.286000000000000032, -4.000000000000000000 ) ) ;
#568 = FACE_OUTER_BOUND ( 'NONE', #367, .T. ) ;
#569 = EDGE_CURVE ( 'NONE', #9, #601, #877, .T. ) ;
#570 = CARTESIAN_POINT ( 'NONE',  ( -2.174999999999999378, 6.524999999999997691, -3.000000000000000000 ) ) ;
#571 = EDGE_LOOP ( 'NONE', ( #871, #632, #377, #232 ) ) ;
#572 = PLANE ( 'NONE',  #517 ) ;
#573 = CARTESIAN_POINT ( 'NONE',  ( 2.299999999999998934, 3.524999999999997247, 4.000000000000000000 ) ) ;
#574 = LINE ( 'NONE', #38, #144 ) ;
#575 = PLANE ( 'NONE',  #883 ) ;
#576 = CYLINDRICAL_SURFACE ( 'NONE', #718, 2.099999999999997424 ) ;
#577 = LINE ( 'NONE', #51, #112 ) ;
#578 = ORIENTED_EDGE ( 'NONE', *, *, #189, .T. ) ;
#579 = EDGE_CURVE ( 'NONE', #838, #250, #434, .T. ) ;
#580 = CARTESIAN_POINT ( 'NONE',  ( 3.174999999999996270, -2.286000000000000032, 4.000000000000000000 ) ) ;
#581 = DIRECTION ( 'NONE',  ( -1.000000000000000000, 2.065146995210491351E-16, 0.000000000000000000 ) ) ;
#582 = FACE_OUTER_BOUND ( 'NONE', #86, .T. ) ;
#583 = CARTESIAN_POINT ( 'NONE',  ( -3.175000000000001599, 1.425000000000003597, 4.000000000000000000 ) ) ;
#584 = DIRECTION ( 'NONE',  ( 0.000000000000000000, 0.000000000000000000, 1.000000000000000000 ) ) ;
#585 = ORIENTED_EDGE ( 'NONE', *, *, #569, .T. ) ;
#586 = CARTESIAN_POINT ( 'NONE',  ( -6.350000000000001421, 2.286000000000000032, 0.000000000000000000 ) ) ;
#587 = CARTESIAN_POINT ( 'NONE',  ( -3.175000000000000711, 2.286000000000000032, -4.000000000000000000 ) ) ;
#588 = APPROVAL_PERSON_ORGANIZATION ( #83, #678, #903 ) ;
#589 = EDGE_CURVE ( 'NONE', #460, #327, #121, .T. ) ;
#590 = ORIENTED_EDGE ( 'NONE', *, *, #25, .T. ) ;
#591 = VECTOR ( 'NONE', #214, 1000.000000000000000 ) ;
#592 = DIRECTION ( 'NONE',  ( 0.000000000000000000, 1.000000000000000000, 0.000000000000000000 ) ) ;
#593 = VECTOR ( 'NONE', #941, 1000.000000000000000 ) ;
#594 = ORIENTED_EDGE ( 'NONE', *, *, #382, .T. ) ;
#595 = EDGE_CURVE ( 'NONE', #955, #273, #297, .T. ) ;
#596 = ORIENTED_EDGE ( 'NONE', *, *, #619, .F. ) ;
#597 = PERSON_AND_ORGANIZATION ( #329, #340 ) ;
#598 = CARTESIAN_POINT ( 'NONE',  ( -2.300000000000001155, 1.425000000000003153, 4.000000000000000000 ) ) ;
#599 = VERTEX_POINT ( 'NONE', #63 ) ;
#600 = DIRECTION ( 'NONE',  ( -0.000000000000000000, -0.000000000000000000, -1.000000000000000000 ) ) ;
#601 = VERTEX_POINT ( 'NONE', #207 ) ;
#602 = EDGE_CURVE ( 'NONE', #74, #234, #794, .T. ) ;
#603 = CALENDAR_DATE ( 2022, 6, 6 ) ;
#604 = CARTESIAN_POINT ( 'NONE',  ( -2.174999999999999378, 5.524999999999997691, -3.000000000000000000 ) ) ;
#605 = AXIS2_PLACEMENT_3D ( 'NONE', #586, #308, #321 ) ;
#606 = VERTEX_POINT ( 'NONE', #202 ) ;
#607 = PERSON_AND_ORGANIZATION ( #329, #340 ) ;
#608 = CARTESIAN_POINT ( 'NONE',  ( 6.349999999999997868, 2.286000000000000032, 0.000000000000000000 ) ) ;
#609 = VECTOR ( 'NONE', #511, 1000.000000000000000 ) ;
#610 = ORIENTED_EDGE ( 'NONE', *, *, #887, .F. ) ;
#611 = CARTESIAN_POINT ( 'NONE',  ( -3.175000000000001599, 1.425000000000003597, -4.000000000000000000 ) ) ;
#612 = VERTEX_POINT ( 'NONE', #727 ) ;
#613 =( NAMED_UNIT ( * ) SI_UNIT ( $, .STERADIAN. ) SOLID_ANGLE_UNIT ( ) );
#614 = PLANE ( 'NONE',  #29 ) ;
#615 = LINE ( 'NONE', #762, #622 ) ;
#616 = CARTESIAN_POINT ( 'NONE',  ( 6.349999999999999645, 2.286000000000000032, 4.000000000000000000 ) ) ;
#617 = APPROVAL_DATE_TIME ( #335, #689 ) ;
#618 = CARTESIAN_POINT ( 'NONE',  ( -6.350000000000001421, 2.286000000000000032, 0.000000000000000000 ) ) ;
#619 = EDGE_CURVE ( 'NONE', #793, #409, #830, .T. ) ;
#620 = DIRECTION ( 'NONE',  ( 0.000000000000000000, -1.000000000000000000, 0.000000000000000000 ) ) ;
#621 = VERTEX_POINT ( 'NONE', #735 ) ;
#622 = VECTOR ( 'NONE', #543, 1000.000000000000000 ) ;
#623 = CARTESIAN_POINT ( 'NONE',  ( -3.175000000000001599, 1.425000000000003597, 4.000000000000000000 ) ) ;
#624 = CIRCLE ( 'NONE', #58, 2.749999999999998224 ) ;
#625 = CARTESIAN_POINT ( 'NONE',  ( 6.349999999999997868, -2.286000000000000032, -2.099999999999997424 ) ) ;
#626 = VECTOR ( 'NONE', #761, 1000.000000000000000 ) ;
#627 = DIRECTION ( 'NONE',  ( 0.000000000000000000, 0.000000000000000000, -1.000000000000000000 ) ) ;
#628 = EDGE_LOOP ( 'NONE', ( #699, #734, #466, #909 ) ) ;
#629 = EDGE_CURVE ( 'NONE', #921, #915, #577, .T. ) ;
#630 = CARTESIAN_POINT ( 'NONE',  ( 6.349999999999999645, -2.286000000000000032, 4.000000000000000000 ) ) ;
#631 = CARTESIAN_POINT ( 'NONE',  ( 6.349999999999997868, 2.286000000000000032, 0.000000000000000000 ) ) ;
#632 = ORIENTED_EDGE ( 'NONE', *, *, #602, .F. ) ;
#633 = DIRECTION ( 'NONE',  ( 0.000000000000000000, 1.000000000000000000, 0.000000000000000000 ) ) ;
#634 = EDGE_CURVE ( 'NONE', #153, #489, #933, .T. ) ;
#635 = CARTESIAN_POINT ( 'NONE',  ( 2.175000000000000266, 6.524999999999997691, 3.000000000000000000 ) ) ;
#636 = FACE_OUTER_BOUND ( 'NONE', #563, .T. ) ;
#637 = VERTEX_POINT ( 'NONE', #717 ) ;
#638 = CARTESIAN_POINT ( 'NONE',  ( 6.349999999999997868, 2.286000000000000032, 0.000000000000000000 ) ) ;
#639 = CC_DESIGN_SECURITY_CLASSIFICATION ( #805, ( #72 ) ) ;
#640 = CARTESIAN_POINT ( 'NONE',  ( -3.174999999999999378, 6.524999999999997691, 4.000000000000000000 ) ) ;
#641 = EDGE_CURVE ( 'NONE', #621, #74, #799, .T. ) ;
#642 = DIRECTION ( 'NONE',  ( 0.000000000000000000, 1.000000000000000000, 0.000000000000000000 ) ) ;
#643 = ORIENTED_EDGE ( 'NONE', *, *, #241, .F. ) ;
#644 = VECTOR ( 'NONE', #364, 1000.000000000000000 ) ;
#645 = CARTESIAN_POINT ( 'NONE',  ( -3.175000000000001599, 1.425000000000003597, 4.000000000000000000 ) ) ;
#646 = VECTOR ( 'NONE', #435, 1000.000000000000000 ) ;
#647 = PRODUCT_DEFINITION ( 'UNKNOWN', '', #72, #859 ) ;
#648 = CARTESIAN_POINT ( 'NONE',  ( -6.350000000000001421, 2.286000000000000032, 0.000000000000000000 ) ) ;
#649 = CARTESIAN_POINT ( 'NONE',  ( 6.349999999999997868, 2.286000000000000032, 0.000000000000000000 ) ) ;
#650 = CARTESIAN_POINT ( 'NONE',  ( -6.350000000000001421, 2.286000000000000032, -2.750000000000000000 ) ) ;
#651 = LINE ( 'NONE', #288, #690 ) ;
#652 =( LENGTH_UNIT ( ) NAMED_UNIT ( * ) SI_UNIT ( .MILLI., .METRE. ) );
#653 = ORIENTED_EDGE ( 'NONE', *, *, #887, .T. ) ;
#654 = ADVANCED_FACE ( 'NONE', ( #655 ), #661, .F. ) ;
#655 = FACE_OUTER_BOUND ( 'NONE', #550, .T. ) ;
#656 = APPLICATION_CONTEXT ( 'configuration controlled 3d designs of mechanical parts and assemblies' ) ;
#657 = CARTESIAN_POINT ( 'NONE',  ( -2.174999999999999378, 5.524999999999997691, -3.000000000000000000 ) ) ;
#658 = APPROVAL_PERSON_ORGANIZATION ( #236, #504, #155 ) ;
#659 = CARTESIAN_POINT ( 'NONE',  ( 6.349999999999999645, -2.286000000000000032, -4.000000000000000000 ) ) ;
#660 = CARTESIAN_POINT ( 'NONE',  ( 3.175000000000000266, 6.524999999999998579, 4.000000000000000000 ) ) ;
#661 = PLANE ( 'NONE',  #148 ) ;
#662 = VECTOR ( 'NONE', #37, 1000.000000000000000 ) ;
#663 = VECTOR ( 'NONE', #561, 1000.000000000000000 ) ;
#664 = CARTESIAN_POINT ( 'NONE',  ( -2.300000000000000711, 3.524999999999996358, 4.000000000000000000 ) ) ;
#665 = DATE_TIME_ROLE ( 'classification_date' ) ;
#666 = EDGE_LOOP ( 'NONE', ( #150, #301, #82, #115 ) ) ;
#667 = DIRECTION ( 'NONE',  ( 0.000000000000000000, 0.000000000000000000, -1.000000000000000000 ) ) ;
#668 = ADVANCED_FACE ( 'NONE', ( #218 ), #508, .F. ) ;
#669 = CARTESIAN_POINT ( 'NONE',  ( 2.299999999999998934, 3.524999999999997247, 4.000000000000000000 ) ) ;
#670 = ORIENTED_EDGE ( 'NONE', *, *, #191, .F. ) ;
#671 = EDGE_CURVE ( 'NONE', #422, #744, #441, .T. ) ;
#672 = DIRECTION ( 'NONE',  ( 0.000000000000000000, 1.000000000000000000, 0.000000000000000000 ) ) ;
#673 = VERTEX_POINT ( 'NONE', #446 ) ;
#674 = ORIENTED_EDGE ( 'NONE', *, *, #387, .F. ) ;
#675 = CIRCLE ( 'NONE', #132, 4.000000000000000000 ) ;
#676 = DIRECTION ( 'NONE',  ( 1.000000000000000000, -4.956352788505188906E-16, 0.000000000000000000 ) ) ;
#677 = VECTOR ( 'NONE', #378, 1000.000000000000000 ) ;
#678 = APPROVAL ( #395, 'UNSPECIFIED' ) ;
#679 = EDGE_CURVE ( 'NONE', #520, #948, #949, .T. ) ;
#680 = ORIENTED_EDGE ( 'NONE', *, *, #206, .F. ) ;
#681 = FACE_OUTER_BOUND ( 'NONE', #538, .T. ) ;
#682 = ORIENTED_EDGE ( 'NONE', *, *, #482, .F. ) ;
#683 = ADVANCED_FACE ( 'NONE', ( #356 ), #572, .F. ) ;
#684 = APPROVAL_STATUS ( 'not_yet_approved' ) ;
#685 = CARTESIAN_POINT ( 'NONE',  ( -6.349999999999999645, -2.286000000000000032, 4.000000000000000000 ) ) ;
#686 = ORIENTED_EDGE ( 'NONE', *, *, #930, .F. ) ;
#687 = VECTOR ( 'NONE', #785, 1000.000000000000000 ) ;
#688 = VERTEX_POINT ( 'NONE', #127 ) ;
#689 = APPROVAL ( #684, 'UNSPECIFIED' ) ;
#690 = VECTOR ( 'NONE', #935, 1000.000000000000000 ) ;
#691 = VECTOR ( 'NONE', #415, 1000.000000000000000 ) ;
#692 = ORIENTED_EDGE ( 'NONE', *, *, #17, .T. ) ;
#693 = DIRECTION ( 'NONE',  ( -0.000000000000000000, -1.000000000000000000, -0.000000000000000000 ) ) ;
#694 = ORIENTED_EDGE ( 'NONE', *, *, #498, .T. ) ;
#695 = DIRECTION ( 'NONE',  ( 1.000000000000000000, 0.000000000000000000, 0.000000000000000000 ) ) ;
#696 = PERSON_AND_ORGANIZATION ( #329, #340 ) ;
#697 = EDGE_CURVE ( 'NONE', #3, #447, #363, .T. ) ;
#698 = CARTESIAN_POINT ( 'NONE',  ( -2.174999999999999378, 5.524999999999997691, -3.000000000000000000 ) ) ;
#699 = ORIENTED_EDGE ( 'NONE', *, *, #157, .F. ) ;
#700 = ADVANCED_FACE ( 'NONE', ( #523 ), #75, .T. ) ;
#701 = DIRECTION ( 'NONE',  ( 0.5994863006970254649, 0.8003850168991143432, 0.000000000000000000 ) ) ;
#702 = CARTESIAN_POINT ( 'NONE',  ( -6.350000000000001421, 2.286000000000000032, 4.000000000000000000 ) ) ;
#703 = ORIENTED_EDGE ( 'NONE', *, *, #167, .F. ) ;
#704 = CC_DESIGN_APPROVAL ( #678, ( #72 ) ) ;
#705 = PLANE ( 'NONE',  #723 ) ;
#706 = DIRECTION ( 'NONE',  ( -0.000000000000000000, -1.000000000000000000, -0.000000000000000000 ) ) ;
#707 = EDGE_CURVE ( 'NONE', #730, #547, #397, .T. ) ;
#708 = AXIS2_PLACEMENT_3D ( 'NONE', #370, #584, #784 ) ;
#709 = ORIENTED_EDGE ( 'NONE', *, *, #262, .F. ) ;
#710 = EDGE_CURVE ( 'NONE', #69, #153, #519, .T. ) ;
#711 = LINE ( 'NONE', #198, #10 ) ;
#712 = CARTESIAN_POINT ( 'NONE',  ( -6.350000000000001421, 2.286000000000000032, -2.099999999999997424 ) ) ;
#713 = ORIENTED_EDGE ( 'NONE', *, *, #579, .F. ) ;
#714 = LINE ( 'NONE', #728, #644 ) ;
#715 = DIRECTION ( 'NONE',  ( -0.000000000000000000, -0.000000000000000000, -1.000000000000000000 ) ) ;
#716 = ORIENTED_EDGE ( 'NONE', *, *, #634, .F. ) ;
#717 = CARTESIAN_POINT ( 'NONE',  ( 3.174999999999996270, -2.286000000000000032, -4.000000000000000000 ) ) ;
#718 = AXIS2_PLACEMENT_3D ( 'NONE', #649, #216, #354 ) ;
#719 = DIRECTION ( 'NONE',  ( 0.000000000000000000, 1.000000000000000000, 0.000000000000000000 ) ) ;
#720 = DIRECTION ( 'NONE',  ( 1.000000000000000000, 0.000000000000000000, 0.000000000000000000 ) ) ;
#721 = VECTOR ( 'NONE', #775, 1000.000000000000000 ) ;
#722 = CARTESIAN_POINT ( 'NONE',  ( -2.174999999999999378, 5.524999999999997691, 3.000000000000000000 ) ) ;
#723 = AXIS2_PLACEMENT_3D ( 'NONE', #406, #257, #695 ) ;
#724 = EDGE_CURVE ( 'NONE', #520, #69, #824, .T. ) ;
#725 = FACE_OUTER_BOUND ( 'NONE', #66, .T. ) ;
#726 = CARTESIAN_POINT ( 'NONE',  ( -6.350000000000001421, -2.286000000000000032, 0.000000000000000000 ) ) ;
#727 = CARTESIAN_POINT ( 'NONE',  ( 6.349999999999997868, -2.286000000000000032, 2.099999999999997424 ) ) ;
#728 = CARTESIAN_POINT ( 'NONE',  ( -2.174999999999999378, 6.524999999999997691, 3.000000000000000000 ) ) ;
#729 = LINE ( 'NONE', #875, #431 ) ;
#730 = VERTEX_POINT ( 'NONE', #103 ) ;
#731 = DIRECTION ( 'NONE',  ( -0.000000000000000000, -0.000000000000000000, -1.000000000000000000 ) ) ;
#732 = FACE_OUTER_BOUND ( 'NONE', #766, .T. ) ;
#733 = CALENDAR_DATE ( 2022, 6, 6 ) ;
#734 = ORIENTED_EDGE ( 'NONE', *, *, #445, .F. ) ;
#735 = CARTESIAN_POINT ( 'NONE',  ( -3.174999999999999378, 6.524999999999997691, 4.000000000000000000 ) ) ;
#736 = ORIENTED_EDGE ( 'NONE', *, *, #923, .T. ) ;
#737 = VECTOR ( 'NONE', #18, 1000.000000000000000 ) ;
#738 = VECTOR ( 'NONE', #368, 1000.000000000000114 ) ;
#739 = DIRECTION ( 'NONE',  ( 0.000000000000000000, -0.000000000000000000, 1.000000000000000000 ) ) ;
#740 = CARTESIAN_POINT ( 'NONE',  ( -3.175000000000001599, 1.425000000000003597, -4.000000000000000000 ) ) ;
#741 = FACE_OUTER_BOUND ( 'NONE', #398, .T. ) ;
#742 =( GEOMETRIC_REPRESENTATION_CONTEXT ( 3 ) GLOBAL_UNCERTAINTY_ASSIGNED_CONTEXT ( ( #209 ) ) GLOBAL_UNIT_ASSIGNED_CONTEXT ( ( #652, #502, #613 ) ) REPRESENTATION_CONTEXT ( 'NONE', 'WORKASPACE' ) );
#743 = EDGE_CURVE ( 'NONE', #169, #900, #249, .T. ) ;
#744 = VERTEX_POINT ( 'NONE', #186 ) ;
#745 = EDGE_LOOP ( 'NONE', ( #164, #388 ) ) ;
#746 = COORDINATED_UNIVERSAL_TIME_OFFSET ( 6, 0, .BEHIND. ) ;
#747 = FACE_OUTER_BOUND ( 'NONE', #628, .T. ) ;
#748 = EDGE_CURVE ( 'NONE', #174, #142, #346, .T. ) ;
#749 = ORIENTED_EDGE ( 'NONE', *, *, #873, .F. ) ;
#750 = VERTEX_POINT ( 'NONE', #13 ) ;
#751 = APPLICATION_PROTOCOL_DEFINITION ( 'international standard', 'config_control_design', 1994, #656 ) ;
#752 = CARTESIAN_POINT ( 'NONE',  ( -2.300000000000001155, 1.425000000000003153, 4.000000000000000000 ) ) ;
#753 = EDGE_LOOP ( 'NONE', ( #763, #565, #166, #31 ) ) ;
#754 = ORIENTED_EDGE ( 'NONE', *, *, #137, .T. ) ;
#755 = APPROVAL_PERSON_ORGANIZATION ( #829, #689, #907 ) ;
#756 = PLANE ( 'NONE',  #773 ) ;
#757 = EDGE_LOOP ( 'NONE', ( #414, #807, #469, #853 ) ) ;
#758 = MECHANICAL_CONTEXT ( 'NONE', #896, 'mechanical' ) ;
#759 = VECTOR ( 'NONE', #283, 1000.000000000000114 ) ;
#760 = VECTOR ( 'NONE', #117, 1000.000000000000000 ) ;
#761 = DIRECTION ( 'NONE',  ( -0.000000000000000000, -1.000000000000000000, -0.000000000000000000 ) ) ;
#762 = CARTESIAN_POINT ( 'NONE',  ( -3.175000000000000711, -2.286000000000000032, 4.000000000000000000 ) ) ;
#763 = ORIENTED_EDGE ( 'NONE', *, *, #562, .T. ) ;
#764 = DIRECTION ( 'NONE',  ( 0.000000000000000000, 0.000000000000000000, -1.000000000000000000 ) ) ;
#765 = ADVANCED_FACE ( 'NONE', ( #260 ), #19, .F. ) ;
#766 = EDGE_LOOP ( 'NONE', ( #594, #918, #384, #895 ) ) ;
#767 = DIRECTION ( 'NONE',  ( 1.000000000000000000, -4.956352788505161296E-16, 0.000000000000000000 ) ) ;
#768 = VERTEX_POINT ( 'NONE', #91 ) ;
#769 = LINE ( 'NONE', #623, #176 ) ;
#770 = EDGE_CURVE ( 'NONE', #305, #8, #549, .T. ) ;
#771 = FACE_OUTER_BOUND ( 'NONE', #351, .T. ) ;
#772 = ORIENTED_EDGE ( 'NONE', *, *, #246, .F. ) ;
#773 = AXIS2_PLACEMENT_3D ( 'NONE', #272, #554, #901 ) ;
#774 = DIRECTION ( 'NONE',  ( -1.000000000000000000, 0.000000000000000000, 0.000000000000000000 ) ) ;
#775 = DIRECTION ( 'NONE',  ( 1.032573497605244394E-15, -1.000000000000000000, 0.000000000000000000 ) ) ;
#776 = ADVANCED_FACE ( 'NONE', ( #833 ), #756, .F. ) ;
#777 = VECTOR ( 'NONE', #790, 1000.000000000000000 ) ;
#778 = CYLINDRICAL_SURFACE ( 'NONE', #416, 2.099999999999997424 ) ;
#779 = ORIENTED_EDGE ( 'NONE', *, *, #679, .F. ) ;
#780 = EDGE_LOOP ( 'NONE', ( #158, #530, #136, #886 ) ) ;
#781 = CARTESIAN_POINT ( 'NONE',  ( 3.175000000000000266, 6.524999999999998579, -4.000000000000000000 ) ) ;
#782 = ORIENTED_EDGE ( 'NONE', *, *, #241, .T. ) ;
#783 = DIRECTION ( 'NONE',  ( -1.365923996832131609E-16, 1.000000000000000000, 0.000000000000000000 ) ) ;
#784 = DIRECTION ( 'NONE',  ( 1.000000000000000000, 0.000000000000000000, -0.000000000000000000 ) ) ;
#785 = DIRECTION ( 'NONE',  ( -0.000000000000000000, -1.000000000000000000, -0.000000000000000000 ) ) ;
#786 = ORIENTED_EDGE ( 'NONE', *, *, #602, .T. ) ;
#787 = DIRECTION ( 'NONE',  ( -1.000000000000000000, 4.956352788505161296E-16, 0.000000000000000000 ) ) ;
#788 = LOCAL_TIME ( 14, 18, 26.00000000000000000, #16 ) ;
#789 = EDGE_CURVE ( 'NONE', #9, #606, #917, .T. ) ;
#790 = DIRECTION ( 'NONE',  ( 0.000000000000000000, 0.000000000000000000, 1.000000000000000000 ) ) ;
#791 = CARTESIAN_POINT ( 'NONE',  ( -3.174999999999999378, 6.524999999999997691, -4.000000000000000000 ) ) ;
#792 = CARTESIAN_POINT ( 'NONE',  ( 6.349999999999997868, 2.286000000000000032, -2.749999999999998224 ) ) ;
#793 = VERTEX_POINT ( 'NONE', #413 ) ;
#794 = LINE ( 'NONE', #135, #419 ) ;
#795 = ORIENTED_EDGE ( 'NONE', *, *, #770, .F. ) ;
#796 = AXIS2_PLACEMENT_3D ( 'NONE', #315, #950, #810 ) ;
#797 = CYLINDRICAL_SURFACE ( 'NONE', #548, 2.750000000000000000 ) ;
#798 = CARTESIAN_POINT ( 'NONE',  ( -3.174999999999999378, 6.524999999999997691, -4.000000000000000000 ) ) ;
#799 = LINE ( 'NONE', #872, #738 ) ;
#800 = PLANE ( 'NONE',  #161 ) ;
#801 = DIRECTION ( 'NONE',  ( 0.000000000000000000, 0.000000000000000000, 1.000000000000000000 ) ) ;
#802 = EDGE_CURVE ( 'NONE', #74, #793, #850, .T. ) ;
#803 = CARTESIAN_POINT ( 'NONE',  ( -6.350000000000001421, 2.286000000000000032, 2.099999999999997424 ) ) ;
#804 = ORIENTED_EDGE ( 'NONE', *, *, #881, .T. ) ;
#805 = SECURITY_CLASSIFICATION ( '', '', #391 ) ;
#806 = CARTESIAN_POINT ( 'NONE',  ( -6.349999999999999645, 2.286000000000000032, -4.000000000000000000 ) ) ;
#807 = ORIENTED_EDGE ( 'NONE', *, *, #707, .F. ) ;
#808 = ADVANCED_FACE ( 'NONE', ( #488 ), #778, .F. ) ;
#809 = AXIS2_PLACEMENT_3D ( 'NONE', #567, #774, #352 ) ;
#810 = DIRECTION ( 'NONE',  ( 0.000000000000000000, -0.000000000000000000, 1.000000000000000000 ) ) ;
#811 = ORIENTED_EDGE ( 'NONE', *, *, #5, .F. ) ;
#812 = EDGE_CURVE ( 'NONE', #3, #921, #337, .T. ) ;
#813 = ORIENTED_EDGE ( 'NONE', *, *, #411, .T. ) ;
#814 = EDGE_CURVE ( 'NONE', #489, #20, #26, .T. ) ;
#815 = CARTESIAN_POINT ( 'NONE',  ( -2.300000000000000711, 3.524999999999996358, -4.000000000000000000 ) ) ;
#816 = ORIENTED_EDGE ( 'NONE', *, *, #270, .F. ) ;
#817 = ADVANCED_FACE ( 'NONE', ( #914 ), #114, .F. ) ;
#818 = APPLICATION_PROTOCOL_DEFINITION ( 'international standard', 'config_control_design', 1994, #896 ) ;
#819 = LINE ( 'NONE', #79, #389 ) ;
#820 = VECTOR ( 'NONE', #481, 1000.000000000000000 ) ;
#821 = ORIENTED_EDGE ( 'NONE', *, *, #445, .T. ) ;
#822 = CIRCLE ( 'NONE', #312, 2.099999999999997424 ) ;
#823 = DIRECTION ( 'NONE',  ( 0.000000000000000000, 1.000000000000000000, 0.000000000000000000 ) ) ;
#824 = LINE ( 'NONE', #165, #820 ) ;
#825 = ORIENTED_EDGE ( 'NONE', *, *, #537, .F. ) ;
#826 = PERSON_AND_ORGANIZATION_ROLE ( 'classification_officer' ) ;
#827 = ORIENTED_EDGE ( 'NONE', *, *, #454, .F. ) ;
#828 = EDGE_LOOP ( 'NONE', ( #782, #151 ) ) ;
#829 = PERSON_AND_ORGANIZATION ( #329, #340 ) ;
#830 =( BOUNDED_CURVE ( )  B_SPLINE_CURVE ( 3, ( #57, #495, #928, #650 ),
 .UNSPECIFIED., .F., .T. ) 
 B_SPLINE_CURVE_WITH_KNOTS ( ( 4, 4 ),
 ( 1.570796326794896780, 4.712388980384689674 ),
 .UNSPECIFIED. ) 
 CURVE ( )  GEOMETRIC_REPRESENTATION_ITEM ( )  RATIONAL_B_SPLINE_CURVE ( ( 1.000000000000000000, 0.3333333333333333703, 0.3333333333333333703, 1.000000000000000000 ) ) 
 REPRESENTATION_ITEM ( '' )  );
#831 = CARTESIAN_POINT ( 'NONE',  ( 2.299999999999998934, 3.524999999999997247, -4.000000000000000000 ) ) ;
#832 = VECTOR ( 'NONE', #558, 1000.000000000000000 ) ;
#833 = FACE_OUTER_BOUND ( 'NONE', #322, .T. ) ;
#834 = ORIENTED_EDGE ( 'NONE', *, *, #482, .T. ) ;
#835 = DATE_TIME_ROLE ( 'creation_date' ) ;
#836 = AXIS2_PLACEMENT_3D ( 'NONE', #32, #349, #919 ) ;
#837 = AXIS2_PLACEMENT_3D ( 'NONE', #608, #672, #885 ) ;
#838 = VERTEX_POINT ( 'NONE', #332 ) ;
#839 = DIRECTION ( 'NONE',  ( -0.000000000000000000, -1.000000000000000000, -0.000000000000000000 ) ) ;
#840 = ORIENTED_EDGE ( 'NONE', *, *, #254, .F. ) ;
#841 = CARTESIAN_POINT ( 'NONE',  ( 3.174999999999996270, 1.425000000000000933, -4.000000000000000000 ) ) ;
#842 = EDGE_CURVE ( 'NONE', #234, #422, #615, .T. ) ;
#843 = EDGE_CURVE ( 'NONE', #142, #250, #71, .T. ) ;
#844 = ORIENTED_EDGE ( 'NONE', *, *, #863, .F. ) ;
#845 = DIRECTION ( 'NONE',  ( -1.365923996832131609E-16, 1.000000000000000000, -0.000000000000000000 ) ) ;
#846 = ORIENTED_EDGE ( 'NONE', *, *, #743, .T. ) ;
#847 = CARTESIAN_POINT ( 'NONE',  ( 6.349999999999997868, 2.286000000000000032, 0.000000000000000000 ) ) ;
#848 = EDGE_CURVE ( 'NONE', #750, #224, #220, .T. ) ;
#849 = CARTESIAN_POINT ( 'NONE',  ( -3.174999999999999378, 6.524999999999997691, 4.000000000000000000 ) ) ;
#850 = LINE ( 'NONE', #702, #869 ) ;
#851 = ORIENTED_EDGE ( 'NONE', *, *, #579, .T. ) ;
#852 = CIRCLE ( 'NONE', #894, 4.000000000000000000 ) ;
#853 = ORIENTED_EDGE ( 'NONE', *, *, #848, .T. ) ;
#854 = AXIS2_PLACEMENT_3D ( 'NONE', #143, #667, #45 ) ;
#855 = DIRECTION ( 'NONE',  ( 0.000000000000000000, 1.000000000000000000, 0.000000000000000000 ) ) ;
#856 = VERTEX_POINT ( 'NONE', #792 ) ;
#857 = DIRECTION ( 'NONE',  ( 1.000000000000000000, -4.956352788505161296E-16, 0.000000000000000000 ) ) ;
#858 = CARTESIAN_POINT ( 'NONE',  ( 6.349999999999997868, 2.286000000000000032, 2.099999999999997424 ) ) ;
#859 = DESIGN_CONTEXT ( 'detailed design', #656, 'design' ) ;
#860 = DIRECTION ( 'NONE',  ( -1.885568995626964533E-16, 1.000000000000000000, 0.000000000000000000 ) ) ;
#861 = DIRECTION ( 'NONE',  ( 0.000000000000000000, 0.000000000000000000, -1.000000000000000000 ) ) ;
#862 = EDGE_LOOP ( 'NONE', ( #682, #840 ) ) ;
#863 = EDGE_CURVE ( 'NONE', #601, #921, #427, .T. ) ;
#864 = DIRECTION ( 'NONE',  ( -0.5994863006970247987, 0.8003850168991147873, -0.000000000000000000 ) ) ;
#865 = LINE ( 'NONE', #858, #477 ) ;
#866 = CARTESIAN_POINT ( 'NONE',  ( 2.300000000000001155, 1.425000000000001377, 4.000000000000000000 ) ) ;
#867 = ORIENTED_EDGE ( 'NONE', *, *, #400, .F. ) ;
#868 = CARTESIAN_POINT ( 'NONE',  ( 6.349999999999999645, 2.286000000000000032, -4.000000000000000000 ) ) ;
#869 = VECTOR ( 'NONE', #403, 1000.000000000000000 ) ;
#870 = CARTESIAN_POINT ( 'NONE',  ( -2.300000000000000711, 3.524999999999996358, 4.000000000000000000 ) ) ;
#871 = ORIENTED_EDGE ( 'NONE', *, *, #945, .T. ) ;
#872 = CARTESIAN_POINT ( 'NONE',  ( -3.174999999999999378, 6.524999999999997691, 4.000000000000000000 ) ) ;
#873 = EDGE_CURVE ( 'NONE', #489, #520, #729, .T. ) ;
#874 = PLANE ( 'NONE',  #515 ) ;
#875 = CARTESIAN_POINT ( 'NONE',  ( 2.175000000000000266, 5.524999999999997691, 3.000000000000000000 ) ) ;
#876 = ORIENTED_EDGE ( 'NONE', *, *, #307, .F. ) ;
#877 = LINE ( 'NONE', #439, #62 ) ;
#878 = ADVANCED_FACE ( 'NONE', ( #372 ), #576, .F. ) ;
#879 = LINE ( 'NONE', #659, #95 ) ;
#880 = PLANE ( 'NONE',  #796 ) ;
#881 = EDGE_CURVE ( 'NONE', #547, #637, #574, .T. ) ;
#882 = ORIENTED_EDGE ( 'NONE', *, *, #589, .T. ) ;
#883 = AXIS2_PLACEMENT_3D ( 'NONE', #870, #860, #203 ) ;
#884 = AXIS2_PLACEMENT_3D ( 'NONE', #11, #178, #541 ) ;
#885 = DIRECTION ( 'NONE',  ( 0.000000000000000000, 0.000000000000000000, 1.000000000000000000 ) ) ;
#886 = ORIENTED_EDGE ( 'NONE', *, *, #842, .F. ) ;
#887 = EDGE_CURVE ( 'NONE', #856, #606, #183, .T. ) ;
#888 = PERSON_AND_ORGANIZATION_ROLE ( 'design_supplier' ) ;
#889 = LINE ( 'NONE', #237, #926 ) ;
#890 = EDGE_LOOP ( 'NONE', ( #285, #85, #674, #70 ) ) ;
#891 = ORIENTED_EDGE ( 'NONE', *, *, #35, .F. ) ;
#892 = SHAPE_DEFINITION_REPRESENTATION ( #21, #420 ) ;
#893 = CARTESIAN_POINT ( 'NONE',  ( -2.300000000000000711, 3.524999999999996358, 4.000000000000000000 ) ) ;
#894 = AXIS2_PLACEMENT_3D ( 'NONE', #726, #936, #350 ) ;
#895 = ORIENTED_EDGE ( 'NONE', *, *, #802, .T. ) ;
#896 = APPLICATION_CONTEXT ( 'configuration controlled 3d designs of mechanical parts and assemblies' ) ;
#897 = AXIS2_PLACEMENT_3D ( 'NONE', #470, #410, #339 ) ;
#898 = CALENDAR_DATE ( 2022, 6, 6 ) ;
#899 = CARTESIAN_POINT ( 'NONE',  ( 2.300000000000001155, 1.425000000000001377, 4.000000000000000000 ) ) ;
#900 = VERTEX_POINT ( 'NONE', #300 ) ;
#901 = DIRECTION ( 'NONE',  ( -1.032573497605244394E-15, 1.000000000000000000, 0.000000000000000000 ) ) ;
#902 = EDGE_LOOP ( 'NONE', ( #596, #194, #344, #692, #268, #867 ) ) ;
#903 = APPROVAL_ROLE ( '' ) ;
#904 = ADVANCED_FACE ( 'NONE', ( #507, #582 ), #200, .T. ) ;
#905 = CARTESIAN_POINT ( 'NONE',  ( 6.349999999999997868, 2.286000000000000032, -2.099999999999997424 ) ) ;
#906 = ORIENTED_EDGE ( 'NONE', *, *, #130, .T. ) ;
#907 = APPROVAL_ROLE ( '' ) ;
#908 = VECTOR ( 'NONE', #845, 1000.000000000000000 ) ;
#909 = ORIENTED_EDGE ( 'NONE', *, *, #189, .F. ) ;
#910 = EDGE_CURVE ( 'NONE', #856, #606, #624, .T. ) ;
#911 = CARTESIAN_POINT ( 'NONE',  ( 2.175000000000000266, 5.524999999999997691, -3.000000000000000000 ) ) ;
#912 = VECTOR ( 'NONE', #221, 1000.000000000000000 ) ;
#913 = DIRECTION ( 'NONE',  ( 0.000000000000000000, 1.000000000000000000, 0.000000000000000000 ) ) ;
#914 = FACE_OUTER_BOUND ( 'NONE', #205, .T. ) ;
#915 = VERTEX_POINT ( 'NONE', #798 ) ;
#916 = ORIENTED_EDGE ( 'NONE', *, *, #87, .T. ) ;
#917 = LINE ( 'NONE', #193, #832 ) ;
#918 = ORIENTED_EDGE ( 'NONE', *, *, #400, .T. ) ;
#919 = DIRECTION ( 'NONE',  ( 0.000000000000000000, 0.000000000000000000, 1.000000000000000000 ) ) ;
#920 = DIRECTION ( 'NONE',  ( -0.000000000000000000, -0.000000000000000000, -1.000000000000000000 ) ) ;
#921 = VERTEX_POINT ( 'NONE', #781 ) ;
#922 = CARTESIAN_POINT ( 'NONE',  ( 6.349999999999999645, -2.286000000000000032, -4.000000000000000000 ) ) ;
#923 = EDGE_CURVE ( 'NONE', #9, #3, #952, .T. ) ;
#924 = DIRECTION ( 'NONE',  ( 4.956352788505188906E-16, 1.000000000000000000, -0.000000000000000000 ) ) ;
#925 = AXIS2_PLACEMENT_3D ( 'NONE', #866, #924, #432 ) ;
#926 = VECTOR ( 'NONE', #156, 1000.000000000000000 ) ;
#927 = LINE ( 'NONE', #279, #687 ) ;
#928 = CARTESIAN_POINT ( 'NONE',  ( -0.8500000000000017542, 9.629149606299202802, -2.749999999999999556 ) ) ;
#929 = DIRECTION ( 'NONE',  ( 0.000000000000000000, -0.000000000000000000, 1.000000000000000000 ) ) ;
#930 = EDGE_CURVE ( 'NONE', #460, #422, #927, .T. ) ;
#931 = CARTESIAN_POINT ( 'NONE',  ( 3.174999999999996270, 2.286000000000000032, -4.000000000000000000 ) ) ;
#932 = ORIENTED_EDGE ( 'NONE', *, *, #710, .F. ) ;
#933 = LINE ( 'NONE', #722, #609 ) ;
#934 = LINE ( 'NONE', #657, #593 ) ;
#935 = DIRECTION ( 'NONE',  ( -1.000000000000000000, 0.000000000000000000, 0.000000000000000000 ) ) ;
#936 = DIRECTION ( 'NONE',  ( 0.000000000000000000, 1.000000000000000000, 0.000000000000000000 ) ) ;
#937 = ORIENTED_EDGE ( 'NONE', *, *, #812, .F. ) ;
#938 = DIRECTION ( 'NONE',  ( 1.000000000000000000, 1.365923996832131609E-16, 0.000000000000000000 ) ) ;
#939 = ORIENTED_EDGE ( 'NONE', *, *, #137, .F. ) ;
#940 = VECTOR ( 'NONE', #343, 1000.000000000000000 ) ;
#941 = DIRECTION ( 'NONE',  ( -1.365923996832131609E-16, 1.000000000000000000, -0.000000000000000000 ) ) ;
#942 = DIRECTION ( 'NONE',  ( 0.000000000000000000, 0.000000000000000000, 1.000000000000000000 ) ) ;
#943 = CARTESIAN_POINT ( 'NONE',  ( 0.8500000000000017542, 9.629149606299208131, -2.749999999999997335 ) ) ;
#944 = DIRECTION ( 'NONE',  ( -1.365923996832131609E-16, 1.000000000000000000, -0.000000000000000000 ) ) ;
#945 = EDGE_CURVE ( 'NONE', #688, #234, #852, .T. ) ;
#946 = FACE_BOUND ( 'NONE', #243, .T. ) ;
#947 = CALENDAR_DATE ( 2022, 6, 6 ) ;
#948 = VERTEX_POINT ( 'NONE', #124 ) ;
#949 = LINE ( 'NONE', #373, #405 ) ;
#950 = DIRECTION ( 'NONE',  ( 0.000000000000000000, 1.000000000000000000, 0.000000000000000000 ) ) ;
#951 = ORIENTED_EDGE ( 'NONE', *, *, #923, .F. ) ;
#952 = CIRCLE ( 'NONE', #545, 4.000000000000000000 ) ;
#953 = DIRECTION ( 'NONE',  ( 1.032573497605244394E-15, -1.000000000000000000, 0.000000000000000000 ) ) ;
#954 = EDGE_CURVE ( 'NONE', #612, #50, #211, .T. ) ;
#955 = VERTEX_POINT ( 'NONE', #570 ) ;
#956 = VECTOR ( 'NONE', #162, 1000.000000000000000 ) ;
#957 = CIRCLE ( 'NONE', #837, 2.099999999999997424 ) ;
#958 = DIRECTION ( 'NONE',  ( 0.000000000000000000, 1.000000000000000000, 0.000000000000000000 ) ) ;
#959 = ORIENTED_EDGE ( 'NONE', *, *, #276, .F. ) ;
#960 = ADVANCED_FACE ( 'NONE', ( #636 ), #433, .F. ) ;
#961 = ORIENTED_EDGE ( 'NONE', *, *, #454, .T. ) ;
ENDSEC;
END-ISO-10303-21;
