ISO-10303-21;
HEADER;
FILE_DESCRIPTION (( 'STEP AP203' ),
    '1' );
FILE_NAME ('228-2500-172.step',
    '2022-06-06T19:23:15',
    ( '' ),
    ( '' ),
    'SwSTEP 2.0',
    'SolidWorks 2021',
    '' );
FILE_SCHEMA (( 'CONFIG_CONTROL_DESIGN' ));
ENDSEC;

DATA;
#1 = DIRECTION ( 'NONE',  ( 0.000000000000000000, 0.000000000000000000, -1.000000000000000000 ) ) ;
#2 = CARTESIAN_POINT ( 'NONE',  ( 4.000000000000000000, -2.286000000000000032, 1.000000000000000000 ) ) ;
#3 = CARTESIAN_POINT ( 'NONE',  ( 11.78606419829726804, 3.125000000000000000, 0.4497298289852749154 ) ) ;
#4 = VECTOR ( 'NONE', #761, 1000.000000000000000 ) ;
#5 = AXIS2_PLACEMENT_3D ( 'NONE', #401, #564, #908 ) ;
#6 = FACE_OUTER_BOUND ( 'NONE', #498, .T. ) ;
#7 = CARTESIAN_POINT ( 'NONE',  ( 4.000000000000000000, 2.286000000000000032, -1.000000000000000000 ) ) ;
#8 = CARTESIAN_POINT ( 'NONE',  ( 11.81099999999999639, 3.125000000000001332, 0.2232063648917764764 ) ) ;
#9 = EDGE_CURVE ( 'NONE', #867, #562, #477, .T. ) ;
#10 = EDGE_CURVE ( 'NONE', #606, #23, #602, .T. ) ;
#11 = CARTESIAN_POINT ( 'NONE',  ( 0.000000000000000000, 0.000000000000000000, 0.000000000000000000 ) ) ;
#12 = CYLINDRICAL_SURFACE ( 'NONE', #986, 4.000000000000000000 ) ;
#13 = DIRECTION ( 'NONE',  ( 0.000000000000000000, 0.000000000000000000, 1.000000000000000000 ) ) ;
#14 = EDGE_LOOP ( 'NONE', ( #460, #301, #490, #1022, #668, #426 ) ) ;
#15 = LOCAL_TIME ( 14, 23, 15.00000000000000000, #343 ) ;
#16 = CARTESIAN_POINT ( 'NONE',  ( 11.81099999999999817, 2.286000000000000032, -4.000000000000000000 ) ) ;
#17 = CARTESIAN_POINT ( 'NONE',  ( 7.664874308713905293, 3.125000000000000000, 1.729920089908544067 ) ) ;
#18 = CYLINDRICAL_SURFACE ( 'NONE', #824, 1.500000000000000000 ) ;
#19 = ORIENTED_EDGE ( 'NONE', *, *, #225, .F. ) ;
#20 = CARTESIAN_POINT ( 'NONE',  ( 7.238999999999998991, 0.000000000000000000, -2.561102371845258180E-15 ) ) ;
#21 = AXIS2_PLACEMENT_3D ( 'NONE', #376, #648, #809 ) ;
#22 = CYLINDRICAL_SURFACE ( 'NONE', #400, 4.000000000000000000 ) ;
#23 = VERTEX_POINT ( 'NONE', #887 ) ;
#24 = ORIENTED_EDGE ( 'NONE', *, *, #181, .F. ) ;
#25 = CARTESIAN_POINT ( 'NONE',  ( 7.238999999999998991, 2.286000000000000032, 2.130687447750153396 ) ) ;
#26 = DIRECTION ( 'NONE',  ( 0.000000000000000000, 0.000000000000000000, 1.000000000000000000 ) ) ;
#27 = ORIENTED_EDGE ( 'NONE', *, *, #461, .T. ) ;
#28 = ORIENTED_EDGE ( 'NONE', *, *, #213, .F. ) ;
#29 = ORIENTED_EDGE ( 'NONE', *, *, #1034, .T. ) ;
#30 = CARTESIAN_POINT ( 'NONE',  ( 7.238999999999998991, 2.286000000000000032, 4.000000000000000000 ) ) ;
#31 = CIRCLE ( 'NONE', #21, 4.000000000000000000 ) ;
#32 = EDGE_LOOP ( 'NONE', ( #992, #118, #641, #723 ) ) ;
#33 = AXIS2_PLACEMENT_3D ( 'NONE', #659, #245, #902 ) ;
#34 = PRODUCT_DEFINITION ( 'UNKNOWN', '', #803, #507 ) ;
#35 = DIRECTION ( 'NONE',  ( 0.000000000000000000, 0.000000000000000000, -1.000000000000000000 ) ) ;
#36 = B_SPLINE_CURVE_WITH_KNOTS ( 'NONE', 3,
 ( #525, #960, #260, #107, #518, #439, #356, #596 ),
 .UNSPECIFIED., .F., .F.,
 ( 4, 2, 2, 4 ),
 ( 0.004306813263422359060, 0.005641627878251350738, 0.006309035185665846576, 0.006976442493080341548 ),
 .UNSPECIFIED. ) ;
#37 = CARTESIAN_POINT ( 'NONE',  ( 2.571758278209441957E-16, -2.286000000000000032, 2.100000000000000089 ) ) ;
#38 = ORIENTED_EDGE ( 'NONE', *, *, #247, .F. ) ;
#39 = CARTESIAN_POINT ( 'NONE',  ( -8.673617379884037444E-16, 0.000000000000000000, -4.000000000000000000 ) ) ;
#40 = ADVANCED_FACE ( 'NONE', ( #582, #1087 ), #1003, .T. ) ;
#41 = EDGE_LOOP ( 'NONE', ( #745, #164, #630, #795 ) ) ;
#42 = LOCAL_TIME ( 14, 23, 15.00000000000000000, #592 ) ;
#43 = LINE ( 'NONE', #469, #872 ) ;
#44 = ORIENTED_EDGE ( 'NONE', *, *, #421, .F. ) ;
#45 = DIRECTION ( 'NONE',  ( 0.000000000000000000, 0.000000000000000000, 1.000000000000000000 ) ) ;
#46 = LINE ( 'NONE', #149, #825 ) ;
#47 = ORIENTED_EDGE ( 'NONE', *, *, #709, .F. ) ;
#48 = ADVANCED_FACE ( 'NONE', ( #487 ), #897, .T. ) ;
#49 = CARTESIAN_POINT ( 'NONE',  ( 8.113999999977750122, -2.285999999999998256, 3.282408262236737428 ) ) ;
#50 = CIRCLE ( 'NONE', #771, 4.000000000000000000 ) ;
#51 = CARTESIAN_POINT ( 'NONE',  ( 8.113999999977750122, 2.286000000000000476, -3.282408262236739205 ) ) ;
#52 = VECTOR ( 'NONE', #1039, 1000.000000000000000 ) ;
#53 = LOCAL_TIME ( 14, 23, 15.00000000000000000, #578 ) ;
#54 = PLANE ( 'NONE',  #513 ) ;
#55 = ORIENTED_EDGE ( 'NONE', *, *, #233, .T. ) ;
#56 = FACE_OUTER_BOUND ( 'NONE', #632, .T. ) ;
#57 = CARTESIAN_POINT ( 'NONE',  ( 0.000000000000000000, 2.286000000000000032, 0.000000000000000000 ) ) ;
#58 = CARTESIAN_POINT ( 'NONE',  ( 7.354479329310644964, 3.124999999999999556, -0.8838817584268494620 ) ) ;
#59 = PLANE ( 'NONE',  #385 ) ;
#60 = ORIENTED_EDGE ( 'NONE', *, *, #956, .F. ) ;
#61 = CYLINDRICAL_SURFACE ( 'NONE', #601, 4.000000000000000000 ) ;
#62 = DIRECTION ( 'NONE',  ( 1.000000000000000000, 0.000000000000000000, -2.168404344971009115E-16 ) ) ;
#63 = CARTESIAN_POINT ( 'NONE',  ( 11.69450932676275023, -3.124999999999999556, 0.8873686657273938128 ) ) ;
#64 = EDGE_CURVE ( 'NONE', #574, #551, #282, .T. ) ;
#65 = CARTESIAN_POINT ( 'NONE',  ( 8.113999999977750122, 2.286000000000000032, 3.282408262236736096 ) ) ;
#66 = ORIENTED_EDGE ( 'NONE', *, *, #191, .F. ) ;
#67 = CARTESIAN_POINT ( 'NONE',  ( 7.238999999999998991, 3.125000000000000000, 1.275531967629994103E-15 ) ) ;
#68 = DIRECTION ( 'NONE',  ( -0.000000000000000000, -1.000000000000000000, 0.000000000000000000 ) ) ;
#69 = LINE ( 'NONE', #230, #614 ) ;
#70 = EDGE_CURVE ( 'NONE', #913, #453, #974, .T. ) ;
#71 = AXIS2_PLACEMENT_3D ( 'NONE', #979, #1064, #244 ) ;
#72 = ORIENTED_EDGE ( 'NONE', *, *, #454, .T. ) ;
#73 = CIRCLE ( 'NONE', #782, 4.000000000000000000 ) ;
#74 = DIRECTION ( 'NONE',  ( -0.000000000000000000, -1.000000000000000000, -0.000000000000000000 ) ) ;
#75 = CARTESIAN_POINT ( 'NONE',  ( 10.93600000000000882, 0.000000000000000000, 0.000000000000000000 ) ) ;
#76 = CARTESIAN_POINT ( 'NONE',  ( 10.93600000001515582, 3.124999999999999556, 2.496873044429769983 ) ) ;
#77 = APPLICATION_PROTOCOL_DEFINITION ( 'international standard', 'config_control_design', 1994, #437 ) ;
#78 = EDGE_CURVE ( 'NONE', #1057, #703, #747, .T. ) ;
#79 = CARTESIAN_POINT ( 'NONE',  ( 11.69552067068934420, -3.125000000000000444, -0.8838817584268507943 ) ) ;
#80 = PRODUCT_DEFINITION_SHAPE ( 'NONE', 'NONE',  #34 ) ;
#81 = CARTESIAN_POINT ( 'NONE',  ( 2.286000000017800016, -2.286000000000000032, 3.282408262224341566 ) ) ;
#82 = LINE ( 'NONE', #416, #799 ) ;
#83 = APPROVAL_STATUS ( 'not_yet_approved' ) ;
#84 = ADVANCED_FACE ( 'NONE', ( #654 ), #569, .T. ) ;
#85 = CARTESIAN_POINT ( 'NONE',  ( 7.238999999999998991, -2.286000000000000032, -2.130687447750153396 ) ) ;
#86 = CARTESIAN_POINT ( 'NONE',  ( 7.238999999999990109, 3.125000000000000444, 0.2232063648924666466 ) ) ;
#87 = FACE_OUTER_BOUND ( 'NONE', #690, .T. ) ;
#88 = ORIENTED_EDGE ( 'NONE', *, *, #605, .F. ) ;
#89 =( NAMED_UNIT ( * ) SI_UNIT ( $, .STERADIAN. ) SOLID_ANGLE_UNIT ( ) );
#90 = CIRCLE ( 'NONE', #889, 2.100000000000000089 ) ;
#91 = AXIS2_PLACEMENT_3D ( 'NONE', #307, #320, #226 ) ;
#92 = VECTOR ( 'NONE', #559, 1000.000000000000000 ) ;
#93 = CARTESIAN_POINT ( 'NONE',  ( 10.93600000000000882, 0.000000000000000000, 0.000000000000000000 ) ) ;
#94 = FACE_OUTER_BOUND ( 'NONE', #907, .T. ) ;
#95 = EDGE_CURVE ( 'NONE', #967, #567, #321, .T. ) ;
#96 = ORIENTED_EDGE ( 'NONE', *, *, #285, .T. ) ;
#97 = APPROVAL_DATE_TIME ( #572, #473 ) ;
#98 = CARTESIAN_POINT ( 'NONE',  ( 2.571758278209441957E-16, 2.286000000000000032, 2.100000000000000089 ) ) ;
#99 = DIRECTION ( 'NONE',  ( 0.000000000000000000, 0.000000000000000000, 1.000000000000000000 ) ) ;
#100 = CARTESIAN_POINT ( 'NONE',  ( 5.500000000000000000, 2.286000000000000032, -2.500000000000000444 ) ) ;
#101 = ORIENTED_EDGE ( 'NONE', *, *, #995, .T. ) ;
#102 = EDGE_CURVE ( 'NONE', #967, #408, #1025, .T. ) ;
#103 = ADVANCED_FACE ( 'NONE', ( #147 ), #482, .F. ) ;
#104 = DIRECTION ( 'NONE',  ( 1.000000000000000000, 0.000000000000000000, -1.338934451973454508E-16 ) ) ;
#105 = AXIS2_PLACEMENT_3D ( 'NONE', #940, #272, #435 ) ;
#106 = ORIENTED_EDGE ( 'NONE', *, *, #884, .T. ) ;
#107 = CARTESIAN_POINT ( 'NONE',  ( 7.421307783238385802, -3.124999999999999112, -1.099739490966598288 ) ) ;
#108 = APPROVAL_PERSON_ORGANIZATION ( #750, #931, #337 ) ;
#109 = DIRECTION ( 'NONE',  ( 0.000000000000000000, 1.000000000000000000, 0.000000000000000000 ) ) ;
#110 = ORIENTED_EDGE ( 'NONE', *, *, #154, .F. ) ;
#111 = VERTEX_POINT ( 'NONE', #996 ) ;
#112 = VERTEX_POINT ( 'NONE', #51 ) ;
#113 = EDGE_CURVE ( 'NONE', #871, #562, #241, .T. ) ;
#114 = ORIENTED_EDGE ( 'NONE', *, *, #345, .F. ) ;
#115 = ORIENTED_EDGE ( 'NONE', *, *, #778, .T. ) ;
#116 = ADVANCED_FACE ( 'NONE', ( #828 ), #691, .T. ) ;
#117 = DIRECTION ( 'NONE',  ( 0.000000000000000000, 0.000000000000000000, 1.000000000000000000 ) ) ;
#118 = ORIENTED_EDGE ( 'NONE', *, *, #247, .T. ) ;
#119 = CARTESIAN_POINT ( 'NONE',  ( 7.808075955043124239, 2.286000000000000032, -2.909603881408553416 ) ) ;
#120 = VECTOR ( 'NONE', #679, 1000.000000000000000 ) ;
#121 = CARTESIAN_POINT ( 'NONE',  ( 4.000000000000000000, 2.286000000000000032, 1.000000000000000000 ) ) ;
#122 = CIRCLE ( 'NONE', #874, 4.000000000000000000 ) ;
#123 = ORIENTED_EDGE ( 'NONE', *, *, #587, .F. ) ;
#124 = CIRCLE ( 'NONE', #649, 1.500000000000000000 ) ;
#125 = CARTESIAN_POINT ( 'NONE',  ( 8.113999999999998991, 0.000000000000000000, 0.000000000000000000 ) ) ;
#126 = ADVANCED_FACE ( 'NONE', ( #339 ), #519, .F. ) ;
#127 = EDGE_LOOP ( 'NONE', ( #377, #349, #306, #24, #379, #536, #791, #190, #389, #1027, #969, #918, #1033, #204 ) ) ;
#128 = DIRECTION ( 'NONE',  ( -1.000000000000000000, 0.000000000000000000, -0.000000000000000000 ) ) ;
#129 = ORIENTED_EDGE ( 'NONE', *, *, #225, .T. ) ;
#130 = VERTEX_POINT ( 'NONE', #422 ) ;
#131 = CARTESIAN_POINT ( 'NONE',  ( 5.500000000000000000, 3.125000000000000000, 1.000000000000000000 ) ) ;
#132 = ORIENTED_EDGE ( 'NONE', *, *, #421, .T. ) ;
#133 = CARTESIAN_POINT ( 'NONE',  ( 7.238999999999998991, 0.000000000000000000, -2.100000000000002753 ) ) ;
#134 = VERTEX_POINT ( 'NONE', #2 ) ;
#135 = CARTESIAN_POINT ( 'NONE',  ( 7.238999999999998991, 3.125000000000000000, 1.275531967629994103E-15 ) ) ;
#136 = ORIENTED_EDGE ( 'NONE', *, *, #998, .F. ) ;
#137 = CARTESIAN_POINT ( 'NONE',  ( 0.000000000000000000, 2.286000000000000032, 0.000000000000000000 ) ) ;
#138 = VECTOR ( 'NONE', #695, 1000.000000000000000 ) ;
#139 = AXIS2_PLACEMENT_3D ( 'NONE', #746, #390, #896 ) ;
#140 = ORIENTED_EDGE ( 'NONE', *, *, #342, .F. ) ;
#141 = CARTESIAN_POINT ( 'NONE',  ( 0.000000000000000000, 2.286000000000000032, 0.000000000000000000 ) ) ;
#142 = AXIS2_PLACEMENT_3D ( 'NONE', #814, #391, #313 ) ;
#143 = CARTESIAN_POINT ( 'NONE',  ( 8.113999999977750122, -2.286000000000000032, -3.282408262236739205 ) ) ;
#144 = ORIENTED_EDGE ( 'NONE', *, *, #9, .T. ) ;
#145 = EDGE_CURVE ( 'NONE', #530, #810, #220, .T. ) ;
#146 = CARTESIAN_POINT ( 'NONE',  ( 11.81099999999999817, 0.000000000000000000, -2.100000000000002753 ) ) ;
#147 = FACE_OUTER_BOUND ( 'NONE', #1089, .T. ) ;
#148 = DIRECTION ( 'NONE',  ( -0.000000000000000000, 1.000000000000000000, -0.000000000000000000 ) ) ;
#149 = CARTESIAN_POINT ( 'NONE',  ( 10.93600000000000882, 0.000000000000000000, 4.000000000000000000 ) ) ;
#150 = ORIENTED_EDGE ( 'NONE', *, *, #199, .T. ) ;
#151 = PRODUCT ( '228-2500-172', '228-2500-172', '', ( #919 ) ) ;
#152 =( BOUNDED_CURVE ( )  B_SPLINE_CURVE ( 3, ( #168, #254, #990, #736 ),
 .UNSPECIFIED., .F., .T. ) 
 B_SPLINE_CURVE_WITH_KNOTS ( ( 4, 4 ),
 ( 0.9624637064188992230, 1.570796326794896780 ),
 .UNSPECIFIED. ) 
 CURVE ( )  GEOMETRIC_REPRESENTATION_ITEM ( )  RATIONAL_B_SPLINE_CURVE ( ( 1.000000000000000000, 0.9693979816128379667, 0.9693979816128379667, 1.000000000000000000 ) ) 
 REPRESENTATION_ITEM ( '' )  );
#153 = DIRECTION ( 'NONE',  ( 0.000000000000000000, 0.000000000000000000, -1.000000000000000000 ) ) ;
#154 = EDGE_CURVE ( 'NONE', #696, #232, #683, .T. ) ;
#155 = DIRECTION ( 'NONE',  ( 0.000000000000000000, -0.000000000000000000, 1.000000000000000000 ) ) ;
#156 = DIRECTION ( 'NONE',  ( 0.000000000000000000, 0.000000000000000000, -1.000000000000000000 ) ) ;
#157 = PERSON_AND_ORGANIZATION ( #1028, #583 ) ;
#158 = VERTEX_POINT ( 'NONE', #854 ) ;
#159 = EDGE_LOOP ( 'NONE', ( #310, #865, #372, #123 ) ) ;
#160 = CARTESIAN_POINT ( 'NONE',  ( 7.355490673236221966, -3.124999999999998668, 0.8873686657234864938 ) ) ;
#161 = DIRECTION ( 'NONE',  ( 0.000000000000000000, 1.000000000000000000, 0.000000000000000000 ) ) ;
#162 = CARTESIAN_POINT ( 'NONE',  ( 7.238999999999998991, 3.125000000000000000, -2.500000000000000000 ) ) ;
#163 = AXIS2_PLACEMENT_3D ( 'NONE', #711, #787, #128 ) ;
#164 = ORIENTED_EDGE ( 'NONE', *, *, #806, .T. ) ;
#165 = ORIENTED_EDGE ( 'NONE', *, *, #240, .T. ) ;
#166 = CARTESIAN_POINT ( 'NONE',  ( 8.113999999999998991, 0.000000000000000000, 0.000000000000000000 ) ) ;
#167 = CARTESIAN_POINT ( 'NONE',  ( 8.673617379884037444E-16, 0.000000000000000000, 4.000000000000000000 ) ) ;
#168 = CARTESIAN_POINT ( 'NONE',  ( 2.285999999999999144, 2.286000000000000032, -3.282408262236737873 ) ) ;
#169 = APPLICATION_PROTOCOL_DEFINITION ( 'international standard', 'config_control_design', 1994, #514 ) ;
#170 = ADVANCED_FACE ( 'NONE', ( #415 ), #332, .F. ) ;
#171 = CARTESIAN_POINT ( 'NONE',  ( 7.421606146539909687, -3.125000000000000000, 1.100917099932849252 ) ) ;
#172 = EDGE_CURVE ( 'NONE', #358, #879, #182, .T. ) ;
#173 = CARTESIAN_POINT ( 'NONE',  ( 8.113999999999998991, 3.124999999999999556, 2.496873044429772648 ) ) ;
#174 = CARTESIAN_POINT ( 'NONE',  ( 7.238999999999998991, 0.000000000000000000, 0.000000000000000000 ) ) ;
#175 = B_SPLINE_CURVE_WITH_KNOTS ( 'NONE', 3,
 ( #492, #832, #503, #79, #588, #234, #671, #826 ),
 .UNSPECIFIED., .F., .F.,
 ( 4, 2, 2, 4 ),
 ( 0.004664318911951834991, 0.005328744778934932022, 0.005993170645918029053, 0.007322022379884225718 ),
 .UNSPECIFIED. ) ;
#176 = APPROVAL_ROLE ( '' ) ;
#177 = CARTESIAN_POINT ( 'NONE',  ( 7.807719256151965048, 2.286000000000000032, 2.909169201913837988 ) ) ;
#178 = CARTESIAN_POINT ( 'NONE',  ( 4.000000000000000000, 2.286000000000000032, 4.000000000000000000 ) ) ;
#179 = PERSON_AND_ORGANIZATION ( #1028, #583 ) ;
#180 = DIRECTION ( 'NONE',  ( 0.000000000000000000, 1.000000000000000000, 0.000000000000000000 ) ) ;
#181 = EDGE_CURVE ( 'NONE', #606, #358, #510, .T. ) ;
#182 = LINE ( 'NONE', #589, #316 ) ;
#183 = ORIENTED_EDGE ( 'NONE', *, *, #211, .F. ) ;
#184 = CARTESIAN_POINT ( 'NONE',  ( 7.238999999999998991, -2.286000000000000032, 2.130687447750136521 ) ) ;
#185 = CARTESIAN_POINT ( 'NONE',  ( 7.355490673237238042, 3.125000000000000444, 0.8873686657273990308 ) ) ;
#186 = FACE_OUTER_BOUND ( 'NONE', #215, .T. ) ;
#187 = ORIENTED_EDGE ( 'NONE', *, *, #831, .F. ) ;
#188 = FACE_OUTER_BOUND ( 'NONE', #666, .T. ) ;
#189 = FACE_OUTER_BOUND ( 'NONE', #159, .T. ) ;
#190 = ORIENTED_EDGE ( 'NONE', *, *, #1023, .F. ) ;
#191 = EDGE_CURVE ( 'NONE', #847, #1049, #253, .T. ) ;
#192 = CONICAL_SURFACE ( 'NONE', #424, 3.125000000000009770, 0.7853981633974423948 ) ;
#193 = VECTOR ( 'NONE', #653, 1000.000000000000000 ) ;
#194 = ORIENTED_EDGE ( 'NONE', *, *, #181, .T. ) ;
#195 = CIRCLE ( 'NONE', #91, 4.000000000000000000 ) ;
#196 = CIRCLE ( 'NONE', #229, 3.125000000000000000 ) ;
#197 = LINE ( 'NONE', #348, #138 ) ;
#198 = ORIENTED_EDGE ( 'NONE', *, *, #489, .T. ) ;
#199 = EDGE_CURVE ( 'NONE', #232, #491, #124, .T. ) ;
#200 = CARTESIAN_POINT ( 'NONE',  ( 5.500000000000000000, -2.286000000000000032, -2.499999999999999556 ) ) ;
#201 = ORIENTED_EDGE ( 'NONE', *, *, #481, .T. ) ;
#202 = ADVANCED_FACE ( 'NONE', ( #922 ), #22, .T. ) ;
#203 = DIRECTION ( 'NONE',  ( 0.000000000000000000, -0.000000000000000000, 1.000000000000000000 ) ) ;
#204 = ORIENTED_EDGE ( 'NONE', *, *, #856, .T. ) ;
#205 = CARTESIAN_POINT ( 'NONE',  ( -500000.0000000000582, 2.286000000000000476, -3.282408262128317489 ) ) ;
#206 = CARTESIAN_POINT ( 'NONE',  ( 7.238999999999998991, 0.000000000000000000, -2.100000000000002753 ) ) ;
#207 = VECTOR ( 'NONE', #351, 1000.000000000000000 ) ;
#208 = CIRCLE ( 'NONE', #800, 4.000000000000000000 ) ;
#209 = CARTESIAN_POINT ( 'NONE',  ( -4.000000000000000000, -2.286000000000000032, 0.000000000000000000 ) ) ;
#210 = CONICAL_SURFACE ( 'NONE', #948, 3.125000000000009770, 0.7853981633974423948 ) ;
#211 = EDGE_CURVE ( 'NONE', #562, #696, #541, .T. ) ;
#212 = EDGE_LOOP ( 'NONE', ( #989, #961, #1077, #101 ) ) ;
#213 = EDGE_CURVE ( 'NONE', #158, #818, #329, .T. ) ;
#214 = DIRECTION ( 'NONE',  ( -0.7071067811865436870, 0.000000000000000000, 0.7071067811865513475 ) ) ;
#215 = EDGE_LOOP ( 'NONE', ( #1051, #201, #904, #635, #318 ) ) ;
#216 = CARTESIAN_POINT ( 'NONE',  ( 8.673617379884037444E-16, 0.000000000000000000, 4.000000000000000000 ) ) ;
#217 = ORIENTED_EDGE ( 'NONE', *, *, #1042, .T. ) ;
#218 = CARTESIAN_POINT ( 'NONE',  ( 7.263141336201462295, 3.125000000000000444, -0.4445580215932306567 ) ) ;
#219 = ORIENTED_EDGE ( 'NONE', *, *, #831, .T. ) ;
#220 =( BOUNDED_CURVE ( )  B_SPLINE_CURVE ( 3, ( #81, #694, #850, #167 ),
 .UNSPECIFIED., .F., .T. ) 
 B_SPLINE_CURVE_WITH_KNOTS ( ( 4, 4 ),
 ( 0.9624637064153028776, 1.570796326794896780 ),
 .UNSPECIFIED. ) 
 CURVE ( )  GEOMETRIC_REPRESENTATION_ITEM ( )  RATIONAL_B_SPLINE_CURVE ( ( 1.000000000000000000, 0.9693979816124788096, 0.9693979816124788096, 1.000000000000000000 ) ) 
 REPRESENTATION_ITEM ( '' )  );
#221 = CARTESIAN_POINT ( 'NONE',  ( 10.93600000000000882, 0.000000000000000000, 0.000000000000000000 ) ) ;
#222 = CARTESIAN_POINT ( 'NONE',  ( 7.238999999999998991, 2.286000000000000032, -2.500000000000000000 ) ) ;
#223 = EDGE_CURVE ( 'NONE', #134, #23, #505, .T. ) ;
#224 = EDGE_LOOP ( 'NONE', ( #237, #382, #906, #788, #129, #106 ) ) ;
#225 = EDGE_CURVE ( 'NONE', #764, #628, #759, .T. ) ;
#226 = DIRECTION ( 'NONE',  ( 0.000000000000000000, 0.000000000000000000, 1.000000000000000000 ) ) ;
#227 = AXIS2_PLACEMENT_3D ( 'NONE', #533, #378, #384 ) ;
#228 = ORIENTED_EDGE ( 'NONE', *, *, #1059, .F. ) ;
#229 = AXIS2_PLACEMENT_3D ( 'NONE', #20, #594, #627 ) ;
#230 = CARTESIAN_POINT ( 'NONE',  ( 11.81099999999999639, 2.286000000000000032, -2.500000000000001332 ) ) ;
#231 = VECTOR ( 'NONE', #62, 1000.000000000000000 ) ;
#232 = VERTEX_POINT ( 'NONE', #7 ) ;
#233 = EDGE_CURVE ( 'NONE', #273, #111, #73, .T. ) ;
#234 = CARTESIAN_POINT ( 'NONE',  ( 11.38799275944339051, -3.124999999999999556, -1.723310499803241802 ) ) ;
#235 = DIRECTION ( 'NONE',  ( 0.000000000000000000, -0.000000000000000000, 1.000000000000000000 ) ) ;
#236 = B_SPLINE_CURVE_WITH_KNOTS ( 'NONE', 3,
 ( #143, #899, #878, #388 ),
 .UNSPECIFIED., .F., .F.,
 ( 4, 4 ),
 ( 0.007130284501259641187, 0.008576976222637132732 ),
 .UNSPECIFIED. ) ;
#237 = ORIENTED_EDGE ( 'NONE', *, *, #1052, .F. ) ;
#238 = ORIENTED_EDGE ( 'NONE', *, *, #863, .F. ) ;
#239 = DIRECTION ( 'NONE',  ( 1.000000000000000000, 0.000000000000000000, -2.168404344971009115E-16 ) ) ;
#240 = EDGE_CURVE ( 'NONE', #628, #938, #687, .T. ) ;
#241 = LINE ( 'NONE', #576, #738 ) ;
#242 = DATE_AND_TIME ( #330, #1009 ) ;
#243 = ORIENTED_EDGE ( 'NONE', *, *, #895, .F. ) ;
#244 = DIRECTION ( 'NONE',  ( 0.000000000000000000, 0.000000000000000000, -1.000000000000000000 ) ) ;
#245 = DIRECTION ( 'NONE',  ( -0.000000000000000000, -1.000000000000000000, -0.000000000000000000 ) ) ;
#246 = DIRECTION ( 'NONE',  ( 1.000000000000000000, 0.000000000000000000, 0.000000000000000000 ) ) ;
#247 = EDGE_CURVE ( 'NONE', #818, #764, #920, .T. ) ;
#248 = VECTOR ( 'NONE', #397, 1000.000000000000000 ) ;
#249 = AXIS2_PLACEMENT_3D ( 'NONE', #166, #1010, #312 ) ;
#250 = EDGE_CURVE ( 'NONE', #623, #847, #744, .T. ) ;
#251 = DIRECTION ( 'NONE',  ( 1.000000000000000000, 0.000000000000000000, 0.000000000000000000 ) ) ;
#252 = LINE ( 'NONE', #325, #193 ) ;
#253 = LINE ( 'NONE', #516, #1078 ) ;
#254 = CARTESIAN_POINT ( 'NONE',  ( 1.609928002211360676, 1.609928002211361564, -3.753251759898320383 ) ) ;
#255 = CALENDAR_DATE ( 2022, 6, 6 ) ;
#256 = CARTESIAN_POINT ( 'NONE',  ( 10.93600000001515582, 3.124999999999999556, 2.496873044429769983 ) ) ;
#257 = CARTESIAN_POINT ( 'NONE',  ( -500000.0000000000582, 0.000000000000000000, 1.084202172485504693E-10 ) ) ;
#258 = CARTESIAN_POINT ( 'NONE',  ( 10.93600000000000882, 0.000000000000000000, 4.000000000000000000 ) ) ;
#259 = DATE_AND_TIME ( #835, #53 ) ;
#260 = CARTESIAN_POINT ( 'NONE',  ( 7.662007240552764387, -3.125000000000000444, -1.723310499795002837 ) ) ;
#261 = EDGE_CURVE ( 'NONE', #947, #112, #1046, .T. ) ;
#262 = CARTESIAN_POINT ( 'NONE',  ( 10.93600000001515582, 3.125000000000000444, -2.496873044429773536 ) ) ;
#263 = ORIENTED_EDGE ( 'NONE', *, *, #1030, .F. ) ;
#264 = APPROVAL_DATE_TIME ( #1018, #522 ) ;
#265 = AXIS2_PLACEMENT_3D ( 'NONE', #702, #624, #283 ) ;
#266 = AXIS2_PLACEMENT_3D ( 'NONE', #595, #268, #13 ) ;
#267 = DIRECTION ( 'NONE',  ( 2.168404344971008868E-16, 0.000000000000000000, 1.000000000000000000 ) ) ;
#268 = DIRECTION ( 'NONE',  ( -0.000000000000000000, -1.000000000000000000, -0.000000000000000000 ) ) ;
#269 = ADVANCED_FACE ( 'NONE', ( #789 ), #975, .F. ) ;
#270 = ORIENTED_EDGE ( 'NONE', *, *, #895, .T. ) ;
#271 = CARTESIAN_POINT ( 'NONE',  ( 0.000000000000000000, 2.286000000000000032, -4.000000000000000000 ) ) ;
#272 = DIRECTION ( 'NONE',  ( -0.000000000000000000, -1.000000000000000000, 0.000000000000000000 ) ) ;
#273 = VERTEX_POINT ( 'NONE', #873 ) ;
#274 = DIRECTION ( 'NONE',  ( 1.000000000000000000, 0.000000000000000000, -2.168404344971009115E-16 ) ) ;
#275 = CARTESIAN_POINT ( 'NONE',  ( 7.238999999999998991, 0.000000000000000000, 0.000000000000000000 ) ) ;
#276 = VERTEX_POINT ( 'NONE', #222 ) ;
#277 = CC_DESIGN_PERSON_AND_ORGANIZATION_ASSIGNMENT ( #829, #1006, ( #803 ) ) ;
#278 = EDGE_CURVE ( 'NONE', #1057, #517, #827, .T. ) ;
#279 = AXIS2_PLACEMENT_3D ( 'NONE', #288, #794, #631 ) ;
#280 = CIRCLE ( 'NONE', #983, 2.100000000000000089 ) ;
#281 = AXIS2_PLACEMENT_3D ( 'NONE', #350, #180, #420 ) ;
#282 = CIRCLE ( 'NONE', #894, 2.100000000000000089 ) ;
#283 = DIRECTION ( 'NONE',  ( 0.000000000000000000, 0.000000000000000000, 1.000000000000000000 ) ) ;
#284 = ORIENTED_EDGE ( 'NONE', *, *, #240, .F. ) ;
#285 = EDGE_CURVE ( 'NONE', #574, #130, #466, .T. ) ;
#286 = CARTESIAN_POINT ( 'NONE',  ( 8.113999999999998991, 0.000000000000000000, 0.000000000000000000 ) ) ;
#287 = VERTEX_POINT ( 'NONE', #731 ) ;
#288 = CARTESIAN_POINT ( 'NONE',  ( 11.81099999999999817, 0.000000000000000000, -2.561102371845258180E-15 ) ) ;
#289 = APPROVAL_PERSON_ORGANIZATION ( #157, #522, #508 ) ;
#290 = EDGE_CURVE ( 'NONE', #893, #938, #455, .T. ) ;
#291 = CARTESIAN_POINT ( 'NONE',  ( 10.93600000001515582, 3.125000000000000444, -2.496873044429773536 ) ) ;
#292 = EDGE_LOOP ( 'NONE', ( #140, #1045, #115, #528, #1083, #219, #823, #972, #964, #644, #1037, #150, #363, #697 ) ) ;
#293 = CARTESIAN_POINT ( 'NONE',  ( 7.877182893150454390, 3.125000000000000444, -2.117491149338466716 ) ) ;
#294 = CARTESIAN_POINT ( 'NONE',  ( 8.113999999977750122, -2.286000000000000032, -3.282408262236739205 ) ) ;
#295 = ORIENTED_EDGE ( 'NONE', *, *, #676, .F. ) ;
#296 = CIRCLE ( 'NONE', #840, 4.000000000000000000 ) ;
#297 = DIRECTION ( 'NONE',  ( 1.000000000000000000, 0.000000000000000000, -2.168404344971009115E-16 ) ) ;
#298 = ORIENTED_EDGE ( 'NONE', *, *, #790, .F. ) ;
#299 = DIRECTION ( 'NONE',  ( 1.000000000000000000, 0.000000000000000000, 0.000000000000000000 ) ) ;
#300 = DIRECTION ( 'NONE',  ( 0.000000000000000000, 0.000000000000000000, -1.000000000000000000 ) ) ;
#301 = ORIENTED_EDGE ( 'NONE', *, *, #851, .F. ) ;
#302 = DIRECTION ( 'NONE',  ( 0.000000000000000000, 0.000000000000000000, -1.000000000000000000 ) ) ;
#303 = DIRECTION ( 'NONE',  ( 0.000000000000000000, 1.000000000000000000, 0.000000000000000000 ) ) ;
#304 = EDGE_CURVE ( 'NONE', #764, #112, #50, .T. ) ;
#305 = DIRECTION ( 'NONE',  ( -1.000000000000000000, 0.000000000000000000, 0.000000000000000000 ) ) ;
#306 = ORIENTED_EDGE ( 'NONE', *, *, #172, .F. ) ;
#307 = CARTESIAN_POINT ( 'NONE',  ( 0.000000000000000000, 2.286000000000000032, 0.000000000000000000 ) ) ;
#308 = VERTEX_POINT ( 'NONE', #1055 ) ;
#309 = LINE ( 'NONE', #883, #457 ) ;
#310 = ORIENTED_EDGE ( 'NONE', *, *, #199, .F. ) ;
#311 = AXIS2_PLACEMENT_3D ( 'NONE', #141, #647, #981 ) ;
#312 = DIRECTION ( 'NONE',  ( 0.000000000000000000, 0.000000000000000000, 1.000000000000000000 ) ) ;
#313 = DIRECTION ( 'NONE',  ( 0.000000000000000000, 0.000000000000000000, 1.000000000000000000 ) ) ;
#314 = AXIS2_PLACEMENT_3D ( 'NONE', #762, #360, #935 ) ;
#315 = LINE ( 'NONE', #162, #1038 ) ;
#316 = VECTOR ( 'NONE', #430, 1000.000000000000000 ) ;
#317 = ORIENTED_EDGE ( 'NONE', *, *, #319, .F. ) ;
#318 = ORIENTED_EDGE ( 'NONE', *, *, #78, .F. ) ;
#319 = EDGE_CURVE ( 'NONE', #774, #308, #90, .T. ) ;
#320 = DIRECTION ( 'NONE',  ( 0.000000000000000000, 1.000000000000000000, 0.000000000000000000 ) ) ;
#321 = LINE ( 'NONE', #1070, #1072 ) ;
#322 = CARTESIAN_POINT ( 'NONE',  ( 7.509995482612345619, 2.286000000000000032, -2.528146438771592841 ) ) ;
#323 = ORIENTED_EDGE ( 'NONE', *, *, #812, .F. ) ;
#324 = CC_DESIGN_PERSON_AND_ORGANIZATION_ASSIGNMENT ( #677, #1013, ( #1035 ) ) ;
#325 = CARTESIAN_POINT ( 'NONE',  ( 4.000000000000000000, -2.286000000000000032, 1.000000000000000000 ) ) ;
#326 = EDGE_CURVE ( 'NONE', #111, #733, #369, .T. ) ;
#327 = ORIENTED_EDGE ( 'NONE', *, *, #863, .T. ) ;
#328 = CARTESIAN_POINT ( 'NONE',  ( 11.17055694622021100, 3.124999999999999112, 2.121111935159324169 ) ) ;
#329 = B_SPLINE_CURVE_WITH_KNOTS ( 'NONE', 3,
 ( #173, #928, #17, #609, #185, #772, #86, #440 ),
 .UNSPECIFIED., .F., .F.,
 ( 4, 2, 2, 4 ),
 ( 0.002006768925131977889, 0.003335543918541739906, 0.003999931415246621783, 0.004664318911951503659 ),
 .UNSPECIFIED. ) ;
#330 = CALENDAR_DATE ( 2022, 6, 6 ) ;
#331 = CARTESIAN_POINT ( 'NONE',  ( 8.113999999977750122, -3.124999999999999556, -2.496873044429773980 ) ) ;
#332 = CYLINDRICAL_SURFACE ( 'NONE', #597, 2.100000000000000089 ) ;
#333 = PLANE ( 'NONE',  #943 ) ;
#334 = VECTOR ( 'NONE', #1004, 1000.000000000000000 ) ;
#335 = CIRCLE ( 'NONE', #404, 4.000000000000000000 ) ;
#336 = EDGE_LOOP ( 'NONE', ( #136, #270, #96, #524 ) ) ;
#337 = APPROVAL_ROLE ( '' ) ;
#338 = DIRECTION ( 'NONE',  ( 0.000000000000000000, 0.000000000000000000, -1.000000000000000000 ) ) ;
#339 = FACE_OUTER_BOUND ( 'NONE', #663, .T. ) ;
#340 = CARTESIAN_POINT ( 'NONE',  ( 7.238999999999998991, -3.125000000000000000, 1.275531967629994103E-15 ) ) ;
#341 = UNCERTAINTY_MEASURE_WITH_UNIT (LENGTH_MEASURE( 1.000000000000000082E-05 ), #977, 'distance_accuracy_value', 'NONE');
#342 = EDGE_CURVE ( 'NONE', #112, #999, #1017, .T. ) ;
#343 = COORDINATED_UNIVERSAL_TIME_OFFSET ( 6, 0, .BEHIND. ) ;
#344 = B_SPLINE_CURVE_WITH_KNOTS ( 'NONE', 3,
 ( #25, #926, #177, #509 ),
 .UNSPECIFIED., .F., .F.,
 ( 4, 4 ),
 ( 0.01321107536429059516, 0.01466212569143870992 ),
 .UNSPECIFIED. ) ;
#345 = EDGE_CURVE ( 'NONE', #308, #774, #383, .T. ) ;
#346 = DIRECTION ( 'NONE',  ( -1.000000000000000000, 0.000000000000000000, 2.168404344971008868E-16 ) ) ;
#347 = DIRECTION ( 'NONE',  ( 0.000000000000000000, 0.000000000000000000, 1.000000000000000000 ) ) ;
#348 = CARTESIAN_POINT ( 'NONE',  ( 7.238999999999998991, 2.571758278209441957E-16, 2.099999999999997868 ) ) ;
#349 = ORIENTED_EDGE ( 'NONE', *, *, #1030, .T. ) ;
#350 = CARTESIAN_POINT ( 'NONE',  ( 0.000000000000000000, 2.286000000000000032, 0.000000000000000000 ) ) ;
#351 = DIRECTION ( 'NONE',  ( 0.000000000000000000, 0.000000000000000000, -1.000000000000000000 ) ) ;
#352 = CARTESIAN_POINT ( 'NONE',  ( 2.286000000017800460, 2.286000000000000032, 3.282408262224340678 ) ) ;
#353 = AXIS2_PLACEMENT_3D ( 'NONE', #1016, #754, #833 ) ;
#354 = AXIS2_PLACEMENT_3D ( 'NONE', #612, #945, #779 ) ;
#355 = VECTOR ( 'NONE', #357, 1000.000000000000000 ) ;
#356 = CARTESIAN_POINT ( 'NONE',  ( 7.238999999999988333, -3.124999999999999556, -0.2232192556973141007 ) ) ;
#357 = DIRECTION ( 'NONE',  ( 1.000000000000000000, 0.000000000000000000, -2.168404344971009115E-16 ) ) ;
#358 = VERTEX_POINT ( 'NONE', #577 ) ;
#359 = EDGE_LOOP ( 'NONE', ( #611, #877, #194, #44 ) ) ;
#360 = DIRECTION ( 'NONE',  ( 0.000000000000000000, 1.000000000000000000, 0.000000000000000000 ) ) ;
#361 = EDGE_CURVE ( 'NONE', #938, #953, #955, .T. ) ;
#362 = CARTESIAN_POINT ( 'NONE',  ( 2.571758278209441957E-16, 2.286000000000000032, 2.100000000000000089 ) ) ;
#363 = ORIENTED_EDGE ( 'NONE', *, *, #438, .T. ) ;
#364 = ORIENTED_EDGE ( 'NONE', *, *, #409, .T. ) ;
#365 = VECTOR ( 'NONE', #868, 1000.000000000000000 ) ;
#366 = VECTOR ( 'NONE', #950, 1000.000000000000000 ) ;
#367 = LINE ( 'NONE', #968, #366 ) ;
#368 = EDGE_LOOP ( 'NONE', ( #374, #323 ) ) ;
#369 = LINE ( 'NONE', #636, #365 ) ;
#370 = ORIENTED_EDGE ( 'NONE', *, *, #1052, .T. ) ;
#371 = ADVANCED_FACE ( 'NONE', ( #87 ), #1007, .T. ) ;
#372 = ORIENTED_EDGE ( 'NONE', *, *, #10, .F. ) ;
#373 = CARTESIAN_POINT ( 'NONE',  ( 1.609928002220739618, 1.609928002220738730, 3.753251759895401385 ) ) ;
#374 = ORIENTED_EDGE ( 'NONE', *, *, #822, .F. ) ;
#375 = CARTESIAN_POINT ( 'NONE',  ( 11.81099999999999284, 3.124999999999999112, -0.2232192556976779207 ) ) ;
#376 = CARTESIAN_POINT ( 'NONE',  ( 10.93600000000000882, 0.000000000000000000, 0.000000000000000000 ) ) ;
#377 = ORIENTED_EDGE ( 'NONE', *, *, #191, .T. ) ;
#378 = DIRECTION ( 'NONE',  ( 0.000000000000000000, -1.000000000000000000, 0.000000000000000000 ) ) ;
#379 = ORIENTED_EDGE ( 'NONE', *, *, #10, .T. ) ;
#380 = CARTESIAN_POINT ( 'NONE',  ( 7.421307783240150613, 3.125000000000000000, -1.099739490972025724 ) ) ;
#381 = DIRECTION ( 'NONE',  ( -0.000000000000000000, -1.000000000000000000, -0.000000000000000000 ) ) ;
#382 = ORIENTED_EDGE ( 'NONE', *, *, #409, .F. ) ;
#383 = CIRCLE ( 'NONE', #982, 2.100000000000000089 ) ;
#384 = DIRECTION ( 'NONE',  ( 0.000000000000000000, 0.000000000000000000, -1.000000000000000000 ) ) ;
#385 = AXIS2_PLACEMENT_3D ( 'NONE', #985, #393, #721 ) ;
#386 = ORIENTED_EDGE ( 'NONE', *, *, #751, .F. ) ;
#387 = CARTESIAN_POINT ( 'NONE',  ( 0.000000000000000000, 2.286000000000000032, 0.000000000000000000 ) ) ;
#388 = CARTESIAN_POINT ( 'NONE',  ( 7.238999999999998991, -2.286000000000000032, -2.130687447750153396 ) ) ;
#389 = ORIENTED_EDGE ( 'NONE', *, *, #95, .F. ) ;
#390 = DIRECTION ( 'NONE',  ( 1.000000000000000000, -0.000000000000000000, -0.000000000000000000 ) ) ;
#391 = DIRECTION ( 'NONE',  ( 0.000000000000000000, 1.000000000000000000, 0.000000000000000000 ) ) ;
#392 = CARTESIAN_POINT ( 'NONE',  ( 7.662007240556610199, 3.125000000000000444, -1.723310499803240914 ) ) ;
#393 = DIRECTION ( 'NONE',  ( 1.000000000000000000, 0.000000000000000000, 0.000000000000000000 ) ) ;
#394 = ORIENTED_EDGE ( 'NONE', *, *, #822, .T. ) ;
#395 = DIRECTION ( 'NONE',  ( -2.212695248606658855E-32, -1.000000000000000000, -1.020425574104003999E-16 ) ) ;
#396 = DIRECTION ( 'NONE',  ( 2.212695248606658855E-32, 1.000000000000000000, 1.020425574104003999E-16 ) ) ;
#397 = DIRECTION ( 'NONE',  ( -1.000000000000000000, -0.000000000000000000, 2.168404344971009115E-16 ) ) ;
#398 = CARTESIAN_POINT ( 'NONE',  ( 0.000000000000000000, 2.286000000000000032, -4.000000000000000000 ) ) ;
#399 = ORIENTED_EDGE ( 'NONE', *, *, #699, .T. ) ;
#400 = AXIS2_PLACEMENT_3D ( 'NONE', #257, #767, #936 ) ;
#401 = CARTESIAN_POINT ( 'NONE',  ( 0.000000000000000000, -2.286000000000000032, 0.000000000000000000 ) ) ;
#402 = VECTOR ( 'NONE', #870, 1000.000000000000000 ) ;
#403 = EDGE_LOOP ( 'NONE', ( #441, #217, #537, #72, #295, #187, #47, #571, #27, #540 ) ) ;
#404 = AXIS2_PLACEMENT_3D ( 'NONE', #1015, #766, #542 ) ;
#405 = DIRECTION ( 'NONE',  ( 1.000000000000000000, 0.000000000000000000, -1.338934451973454508E-16 ) ) ;
#406 = AXIS2_PLACEMENT_3D ( 'NONE', #798, #396, #735 ) ;
#407 = ADVANCED_FACE ( 'NONE', ( #412 ), #192, .T. ) ;
#408 = VERTEX_POINT ( 'NONE', #340 ) ;
#409 = EDGE_CURVE ( 'NONE', #947, #623, #152, .T. ) ;
#410 = PLANE ( 'NONE',  #861 ) ;
#411 = DIRECTION ( 'NONE',  ( -1.000000000000000000, -0.000000000000000000, -0.000000000000000000 ) ) ;
#412 = FACE_OUTER_BOUND ( 'NONE', #212, .T. ) ;
#413 = DIRECTION ( 'NONE',  ( 0.000000000000000000, 0.000000000000000000, 1.000000000000000000 ) ) ;
#414 = CARTESIAN_POINT ( 'NONE',  ( 7.238999999999997215, -3.124999999999999556, -4.250000000000002665 ) ) ;
#415 = FACE_OUTER_BOUND ( 'NONE', #725, .T. ) ;
#416 = CARTESIAN_POINT ( 'NONE',  ( 4.000000000000000000, 2.286000000000000032, -0.9999999999999997780 ) ) ;
#417 = ORIENTED_EDGE ( 'NONE', *, *, #792, .T. ) ;
#418 = SECURITY_CLASSIFICATION_LEVEL ( 'unclassified' ) ;
#419 = ADVANCED_BREP_SHAPE_REPRESENTATION ( '228-2500-172', ( #813, #758 ), #914 ) ;
#420 = DIRECTION ( 'NONE',  ( 0.000000000000000000, 0.000000000000000000, 1.000000000000000000 ) ) ;
#421 = EDGE_CURVE ( 'NONE', #276, #358, #315, .T. ) ;
#422 = CARTESIAN_POINT ( 'NONE',  ( 0.000000000000000000, -2.286000000000000032, -2.100000000000000089 ) ) ;
#423 = CARTESIAN_POINT ( 'NONE',  ( 0.000000000000000000, 2.286000000000000032, -4.000000000000000000 ) ) ;
#424 = AXIS2_PLACEMENT_3D ( 'NONE', #174, #246, #821 ) ;
#425 = CIRCLE ( 'NONE', #281, 2.100000000000000089 ) ;
#426 = ORIENTED_EDGE ( 'NONE', *, *, #976, .F. ) ;
#427 = CALENDAR_DATE ( 2022, 6, 6 ) ;
#428 = AXIS2_PLACEMENT_3D ( 'NONE', #1065, #980, #470 ) ;
#429 = CARTESIAN_POINT ( 'NONE',  ( 2.285999999999999144, 2.286000000000000032, -3.282408262236737873 ) ) ;
#430 = DIRECTION ( 'NONE',  ( 0.000000000000000000, -0.000000000000000000, 1.000000000000000000 ) ) ;
#431 = CYLINDRICAL_SURFACE ( 'NONE', #227, 4.000000000000000000 ) ;
#432 = PERSON_AND_ORGANIZATION ( #1028, #583 ) ;
#433 = CARTESIAN_POINT ( 'NONE',  ( 5.500000000000000000, -2.286000000000000032, 2.500000000000000000 ) ) ;
#434 = DIRECTION ( 'NONE',  ( 0.000000000000000000, 0.000000000000000000, 1.000000000000000000 ) ) ;
#435 = DIRECTION ( 'NONE',  ( 0.000000000000000000, 0.000000000000000000, -1.000000000000000000 ) ) ;
#436 = ORIENTED_EDGE ( 'NONE', *, *, #452, .T. ) ;
#437 = APPLICATION_CONTEXT ( 'configuration controlled 3d designs of mechanical parts and assemblies' ) ;
#438 = EDGE_CURVE ( 'NONE', #491, #276, #69, .T. ) ;
#439 = CARTESIAN_POINT ( 'NONE',  ( 7.263141336201212717, -3.125000000000000444, -0.4445580215909726296 ) ) ;
#440 = CARTESIAN_POINT ( 'NONE',  ( 7.238999999999998991, 3.125000000000000000, 1.275531967629994103E-15 ) ) ;
#441 = ORIENTED_EDGE ( 'NONE', *, *, #70, .T. ) ;
#442 = CIRCLE ( 'NONE', #581, 4.000000000000000000 ) ;
#443 = CIRCLE ( 'NONE', #965, 4.000000000000000000 ) ;
#444 = ORIENTED_EDGE ( 'NONE', *, *, #998, .T. ) ;
#445 = CARTESIAN_POINT ( 'NONE',  ( 0.000000000000000000, -2.286000000000000032, -4.000000000000000000 ) ) ;
#446 = EDGE_CURVE ( 'NONE', #23, #232, #82, .T. ) ;
#447 = CYLINDRICAL_SURFACE ( 'NONE', #105, 4.000000000000000000 ) ;
#448 = ORIENTED_EDGE ( 'NONE', *, *, #95, .T. ) ;
#449 = DIRECTION ( 'NONE',  ( 1.000000000000000000, 0.000000000000000000, 0.000000000000000000 ) ) ;
#450 = EDGE_LOOP ( 'NONE', ( #399, #417 ) ) ;
#451 = DIRECTION ( 'NONE',  ( 0.000000000000000000, 1.000000000000000000, 0.000000000000000000 ) ) ;
#452 = EDGE_CURVE ( 'NONE', #453, #893, #643, .T. ) ;
#453 = VERTEX_POINT ( 'NONE', #1088 ) ;
#454 = EDGE_CURVE ( 'NONE', #953, #158, #815, .T. ) ;
#455 = CIRCLE ( 'NONE', #279, 3.125000000000000000 ) ;
#456 = AXIS2_PLACEMENT_3D ( 'NONE', #275, #449, #610 ) ;
#457 = VECTOR ( 'NONE', #305, 1000.000000000000000 ) ;
#458 = VECTOR ( 'NONE', #104, 1000.000000000000000 ) ;
#459 = CARTESIAN_POINT ( 'NONE',  ( 0.8238731367707011755, 0.8238731367707001763, 3.999999999999999112 ) ) ;
#460 = ORIENTED_EDGE ( 'NONE', *, *, #326, .F. ) ;
#461 = EDGE_CURVE ( 'NONE', #530, #656, #590, .T. ) ;
#462 = CARTESIAN_POINT ( 'NONE',  ( 11.78685866379869829, 3.125000000000001332, -0.4445580215916933309 ) ) ;
#463 = DIRECTION ( 'NONE',  ( 0.000000000000000000, 1.000000000000000000, 0.000000000000000000 ) ) ;
#464 = DIRECTION ( 'NONE',  ( -1.000000000000000000, -0.000000000000000000, -0.000000000000000000 ) ) ;
#465 = VERTEX_POINT ( 'NONE', #997 ) ;
#466 = LINE ( 'NONE', #713, #930 ) ;
#467 = DIRECTION ( 'NONE',  ( 0.000000000000000000, 0.000000000000000000, 1.000000000000000000 ) ) ;
#468 = ORIENTED_EDGE ( 'NONE', *, *, #851, .T. ) ;
#469 = CARTESIAN_POINT ( 'NONE',  ( 7.238999999999998991, 3.125000000000000000, 2.500000000000000000 ) ) ;
#470 = DIRECTION ( 'NONE',  ( 0.000000000000000000, 0.000000000000000000, 1.000000000000000000 ) ) ;
#471 = CARTESIAN_POINT ( 'NONE',  ( 0.8238731367694619445, -0.8238731367694628327, -3.999999999999999112 ) ) ;
#472 = ORIENTED_EDGE ( 'NONE', *, *, #660, .F. ) ;
#473 = APPROVAL ( #83, 'UNSPECIFIED' ) ;
#474 = APPROVAL_PERSON_ORGANIZATION ( #179, #473, #176 ) ;
#475 = ADVANCED_FACE ( 'NONE', ( #742 ), #333, .T. ) ;
#476 = DIRECTION ( 'NONE',  ( 0.000000000000000000, 0.000000000000000000, 1.000000000000000000 ) ) ;
#477 = LINE ( 'NONE', #493, #92 ) ;
#478 = CARTESIAN_POINT ( 'NONE',  ( -4.000000000000000000, 2.286000000000000032, 0.000000000000000000 ) ) ;
#479 = ORIENTED_EDGE ( 'NONE', *, *, #778, .F. ) ;
#480 = DIRECTION ( 'NONE',  ( -1.000000000000000000, 0.000000000000000000, 0.000000000000000000 ) ) ;
#481 = EDGE_CURVE ( 'NONE', #1001, #623, #1071, .T. ) ;
#482 = CYLINDRICAL_SURFACE ( 'NONE', #33, 2.100000000000000089 ) ;
#483 = CARTESIAN_POINT ( 'NONE',  ( 11.78606419829710639, -3.124999999999999556, 0.4497298289866547005 ) ) ;
#484 = LINE ( 'NONE', #398, #892 ) ;
#485 = VERTEX_POINT ( 'NONE', #511 ) ;
#486 = DIRECTION ( 'NONE',  ( 0.000000000000000000, 0.000000000000000000, 1.000000000000000000 ) ) ;
#487 = FACE_OUTER_BOUND ( 'NONE', #526, .T. ) ;
#488 = CARTESIAN_POINT ( 'NONE',  ( 11.62839385345958476, 3.125000000000000444, 1.100917099934384025 ) ) ;
#489 = EDGE_CURVE ( 'NONE', #465, #308, #197, .T. ) ;
#490 = ORIENTED_EDGE ( 'NONE', *, *, #452, .F. ) ;
#491 = VERTEX_POINT ( 'NONE', #100 ) ;
#492 = CARTESIAN_POINT ( 'NONE',  ( 11.81099999999999817, -3.125000000000000000, -1.785744754682025192E-15 ) ) ;
#493 = CARTESIAN_POINT ( 'NONE',  ( 5.500000000000000000, 2.286000000000000032, 2.500000000000000000 ) ) ;
#494 = AXIS2_PLACEMENT_3D ( 'NONE', #939, #1024, #1036 ) ;
#495 = CARTESIAN_POINT ( 'NONE',  ( 10.93600000000000882, -3.125000000000000444, 2.496873044429771760 ) ) ;
#496 = AXIS2_PLACEMENT_3D ( 'NONE', #387, #719, #35 ) ;
#497 = APPROVAL_STATUS ( 'not_yet_approved' ) ;
#498 = EDGE_LOOP ( 'NONE', ( #743, #370, #55, #534, #728, #66 ) ) ;
#499 = CARTESIAN_POINT ( 'NONE',  ( 8.673617379884037444E-16, 0.000000000000000000, 4.000000000000000000 ) ) ;
#500 = DIRECTION ( 'NONE',  ( 0.000000000000000000, 0.000000000000000000, -1.000000000000000000 ) ) ;
#501 = APPROVAL_DATE_TIME ( #242, #931 ) ;
#502 = ADVANCED_FACE ( 'NONE', ( #186 ), #447, .T. ) ;
#503 = CARTESIAN_POINT ( 'NONE',  ( 11.78685866379852776, -3.125000000000000444, -0.4445580215932325441 ) ) ;
#504 = ADVANCED_FACE ( 'NONE', ( #768 ), #720, .T. ) ;
#505 = LINE ( 'NONE', #837, #207 ) ;
#506 = DIRECTION ( 'NONE',  ( 0.000000000000000000, -1.000000000000000000, 0.000000000000000000 ) ) ;
#507 = DESIGN_CONTEXT ( 'detailed design', #514, 'design' ) ;
#508 = APPROVAL_ROLE ( '' ) ;
#509 = CARTESIAN_POINT ( 'NONE',  ( 8.113999999977750122, 2.286000000000000032, 3.282408262236736096 ) ) ;
#510 = LINE ( 'NONE', #673, #458 ) ;
#511 = CARTESIAN_POINT ( 'NONE',  ( 11.81099999999999817, 0.000000000000000000, 3.124999999999997780 ) ) ;
#512 = CIRCLE ( 'NONE', #1040, 2.100000000000000089 ) ;
#513 = AXIS2_PLACEMENT_3D ( 'NONE', #1067, #463, #991 ) ;
#514 = APPLICATION_CONTEXT ( 'configuration controlled 3d designs of mechanical parts and assemblies' ) ;
#515 = LINE ( 'NONE', #98, #842 ) ;
#516 = CARTESIAN_POINT ( 'NONE',  ( -500000.0000000000582, -2.286000000000000032, -3.282408262128317489 ) ) ;
#517 = VERTEX_POINT ( 'NONE', #352 ) ;
#518 = CARTESIAN_POINT ( 'NONE',  ( 7.354479329309493885, -3.124999999999999556, -0.8838817584223828128 ) ) ;
#519 = CYLINDRICAL_SURFACE ( 'NONE', #353, 2.100000000000000089 ) ;
#520 = CARTESIAN_POINT ( 'NONE',  ( 2.286000000017800016, -2.286000000000000032, 3.282408262224341566 ) ) ;
#521 = ORIENTED_EDGE ( 'NONE', *, *, #233, .F. ) ;
#522 = APPROVAL ( #497, 'UNSPECIFIED' ) ;
#523 = B_SPLINE_CURVE_WITH_KNOTS ( 'NONE', 3,
 ( #682, #757, #1029, #841 ),
 .UNSPECIFIED., .F., .F.,
 ( 4, 4 ),
 ( 0.01321107536429058128, 0.01466212569143871165 ),
 .UNSPECIFIED. ) ;
#524 = ORIENTED_EDGE ( 'NONE', *, *, #792, .F. ) ;
#525 = CARTESIAN_POINT ( 'NONE',  ( 8.113999999977750122, -3.124999999999999556, -2.496873044429773980 ) ) ;
#526 = EDGE_LOOP ( 'NONE', ( #1076, #479, #364 ) ) ;
#527 = CC_DESIGN_APPROVAL ( #931, ( #34 ) ) ;
#528 = ORIENTED_EDGE ( 'NONE', *, *, #593, .T. ) ;
#529 = ORIENTED_EDGE ( 'NONE', *, *, #1034, .F. ) ;
#530 = VERTEX_POINT ( 'NONE', #520 ) ;
#531 = ADVANCED_FACE ( 'NONE', ( #1032 ), #890, .T. ) ;
#532 = ADVANCED_FACE ( 'NONE', ( #189 ), #18, .F. ) ;
#533 = CARTESIAN_POINT ( 'NONE',  ( 0.000000000000000000, 2.286000000000000032, 0.000000000000000000 ) ) ;
#534 = ORIENTED_EDGE ( 'NONE', *, *, #326, .T. ) ;
#535 = DIRECTION ( 'NONE',  ( 0.000000000000000000, 0.000000000000000000, -1.000000000000000000 ) ) ;
#536 = ORIENTED_EDGE ( 'NONE', *, *, #223, .F. ) ;
#537 = ORIENTED_EDGE ( 'NONE', *, *, #637, .T. ) ;
#538 = CC_DESIGN_DATE_AND_TIME_ASSIGNMENT ( #905, #681, ( #1035 ) ) ;
#539 = FACE_OUTER_BOUND ( 'NONE', #403, .T. ) ;
#540 = ORIENTED_EDGE ( 'NONE', *, *, #622, .F. ) ;
#541 = CIRCLE ( 'NONE', #266, 1.500000000000000000 ) ;
#542 = DIRECTION ( 'NONE',  ( 0.000000000000000000, 0.000000000000000000, 1.000000000000000000 ) ) ;
#543 = AXIS2_PLACEMENT_3D ( 'NONE', #131, #817, #891 ) ;
#544 = AXIS2_PLACEMENT_3D ( 'NONE', #75, #411, #99 ) ;
#545 = DIRECTION ( 'NONE',  ( -1.000000000000000000, -0.000000000000000000, -0.000000000000000000 ) ) ;
#546 = VERTEX_POINT ( 'NONE', #258 ) ;
#547 = CARTESIAN_POINT ( 'NONE',  ( 2.286000000026433554, -2.286000000000000032, -3.282408262236737873 ) ) ;
#548 = CARTESIAN_POINT ( 'NONE',  ( 0.000000000000000000, -2.286000000000000032, 0.000000000000000000 ) ) ;
#549 = ORIENTED_EDGE ( 'NONE', *, *, #145, .T. ) ;
#550 = LINE ( 'NONE', #133, #52 ) ;
#551 = VERTEX_POINT ( 'NONE', #362 ) ;
#552 = CARTESIAN_POINT ( 'NONE',  ( 11.69552067069012757, 3.125000000000000444, -0.8838817584238077840 ) ) ;
#553 = LOCAL_TIME ( 14, 23, 15.00000000000000000, #839 ) ;
#554 = ADVANCED_FACE ( 'NONE', ( #844, #864 ), #689, .F. ) ;
#555 = FACE_OUTER_BOUND ( 'NONE', #127, .T. ) ;
#556 = ADVANCED_FACE ( 'NONE', ( #94 ), #431, .T. ) ;
#557 = ORIENTED_EDGE ( 'NONE', *, *, #1043, .F. ) ;
#558 = LINE ( 'NONE', #30, #1073 ) ;
#559 = DIRECTION ( 'NONE',  ( -0.000000000000000000, 1.000000000000000000, -0.000000000000000000 ) ) ;
#560 = DIRECTION ( 'NONE',  ( -0.000000000000000000, -1.000000000000000000, -0.000000000000000000 ) ) ;
#561 = DIRECTION ( 'NONE',  ( 1.000000000000000000, 0.000000000000000000, 0.000000000000000000 ) ) ;
#562 = VERTEX_POINT ( 'NONE', #866 ) ;
#563 = VECTOR ( 'NONE', #239, 1000.000000000000000 ) ;
#564 = DIRECTION ( 'NONE',  ( 0.000000000000000000, 1.000000000000000000, 0.000000000000000000 ) ) ;
#565 = DIRECTION ( 'NONE',  ( 1.000000000000000000, 0.000000000000000000, 0.000000000000000000 ) ) ;
#566 = FACE_BOUND ( 'NONE', #450, .T. ) ;
#567 = VERTEX_POINT ( 'NONE', #620 ) ;
#568 = CARTESIAN_POINT ( 'NONE',  ( 0.000000000000000000, -2.286000000000000032, 0.000000000000000000 ) ) ;
#569 = PLANE ( 'NONE',  #406 ) ;
#570 = CARTESIAN_POINT ( 'NONE',  ( 11.62839385345852250, -3.124999999999999556, 1.100917099937657628 ) ) ;
#571 = ORIENTED_EDGE ( 'NONE', *, *, #145, .F. ) ;
#572 = DATE_AND_TIME ( #255, #15 ) ;
#573 = ORIENTED_EDGE ( 'NONE', *, *, #361, .T. ) ;
#574 = VERTEX_POINT ( 'NONE', #797 ) ;
#575 = DIRECTION ( 'NONE',  ( 0.000000000000000000, -1.000000000000000000, 0.000000000000000000 ) ) ;
#576 = CARTESIAN_POINT ( 'NONE',  ( 11.81099999999999817, 2.286000000000000032, 2.500000000000000000 ) ) ;
#577 = CARTESIAN_POINT ( 'NONE',  ( 7.238999999999998991, -2.286000000000000032, -2.500000000000000000 ) ) ;
#578 = COORDINATED_UNIVERSAL_TIME_OFFSET ( 6, 0, .BEHIND. ) ;
#579 = EDGE_LOOP ( 'NONE', ( #529, #386, #573, #1085 ) ) ;
#580 = CARTESIAN_POINT ( 'NONE',  ( 7.238999999999990109, -3.125000000000000444, 0.2232063648914566212 ) ) ;
#581 = AXIS2_PLACEMENT_3D ( 'NONE', #1058, #707, #1048 ) ;
#582 = FACE_OUTER_BOUND ( 'NONE', #292, .T. ) ;
#583 = ORGANIZATION ( 'UNSPECIFIED', 'UNSPECIFIED', '' ) ;
#584 = CARTESIAN_POINT ( 'NONE',  ( 11.81099999999999817, 3.125000000000000000, -9.183830166936216444E-16 ) ) ;
#585 = ADVANCED_FACE ( 'NONE', ( #539 ), #886, .T. ) ;
#586 =( NAMED_UNIT ( * ) PLANE_ANGLE_UNIT ( ) SI_UNIT ( $, .RADIAN. ) );
#587 = EDGE_CURVE ( 'NONE', #491, #606, #640, .T. ) ;
#588 = CARTESIAN_POINT ( 'NONE',  ( 11.62869221675984477, -3.125000000000000444, -1.099739490972026168 ) ) ;
#589 = CARTESIAN_POINT ( 'NONE',  ( 7.238999999999998991, -2.286000000000000032, 4.000000000000000000 ) ) ;
#590 = LINE ( 'NONE', #923, #334 ) ;
#591 = EDGE_LOOP ( 'NONE', ( #705, #243 ) ) ;
#592 = COORDINATED_UNIVERSAL_TIME_OFFSET ( 6, 0, .BEHIND. ) ;
#593 = EDGE_CURVE ( 'NONE', #1001, #1057, #704, .T. ) ;
#594 = DIRECTION ( 'NONE',  ( 1.000000000000000000, -0.000000000000000000, -0.000000000000000000 ) ) ;
#595 = CARTESIAN_POINT ( 'NONE',  ( 5.500000000000000000, 2.286000000000000032, 1.000000000000000000 ) ) ;
#596 = CARTESIAN_POINT ( 'NONE',  ( 7.238999999999998991, -3.125000000000000000, 1.275531967629994103E-15 ) ) ;
#597 = AXIS2_PLACEMENT_3D ( 'NONE', #1021, #1011, #500 ) ;
#598 = CARTESIAN_POINT ( 'NONE',  ( 11.17281710685335305, 3.124999999999999556, -2.117491149331633071 ) ) ;
#599 = CIRCLE ( 'NONE', #756, 4.000000000000000000 ) ;
#600 = EDGE_LOOP ( 'NONE', ( #183, #1054, #60, #298 ) ) ;
#601 = AXIS2_PLACEMENT_3D ( 'NONE', #921, #1086, #1069 ) ;
#602 = CIRCLE ( 'NONE', #142, 1.500000000000000000 ) ;
#603 = DIRECTION ( 'NONE',  ( 0.000000000000000000, 0.000000000000000000, -1.000000000000000000 ) ) ;
#604 = DIRECTION ( 'NONE',  ( 1.000000000000000000, 0.000000000000000000, -2.168404344971009115E-16 ) ) ;
#605 = EDGE_CURVE ( 'NONE', #881, #774, #550, .T. ) ;
#606 = VERTEX_POINT ( 'NONE', #1044 ) ;
#607 = EDGE_CURVE ( 'NONE', #703, #1005, #208, .T. ) ;
#608 = CARTESIAN_POINT ( 'NONE',  ( 11.81099999999999817, -3.125000000000000000, -1.785744754682025192E-15 ) ) ;
#609 = CARTESIAN_POINT ( 'NONE',  ( 7.421606146541471105, 3.124999999999999556, 1.100917099937662291 ) ) ;
#610 = DIRECTION ( 'NONE',  ( 0.000000000000000000, 0.000000000000000000, -1.000000000000000000 ) ) ;
#611 = ORIENTED_EDGE ( 'NONE', *, *, #438, .F. ) ;
#612 = CARTESIAN_POINT ( 'NONE',  ( 7.238999999999998991, 0.000000000000000000, -2.500000000000000000 ) ) ;
#613 = ORIENTED_EDGE ( 'NONE', *, *, #710, .F. ) ;
#614 = VECTOR ( 'NONE', #405, 1000.000000000000000 ) ;
#615 = CIRCLE ( 'NONE', #139, 3.125000000000000000 ) ;
#616 = CIRCLE ( 'NONE', #314, 1.500000000000000000 ) ;
#617 = ADVANCED_FACE ( 'NONE', ( #634 ), #781, .T. ) ;
#618 = CLOSED_SHELL ( 'NONE', ( #502, #48, #126, #103, #504, #911, #585, #202, #927, #371, #942, #619, #116, #407, #531, #1019, #40, #1061, #269, #170, #554, #475, #617, #845, #556, #84, #765, #1014, #532 ) ) ;
#619 = ADVANCED_FACE ( 'NONE', ( #56 ), #773, .T. ) ;
#620 = CARTESIAN_POINT ( 'NONE',  ( 7.238999999999998991, -2.286000000000000032, 2.500000000000000000 ) ) ;
#621 = EDGE_LOOP ( 'NONE', ( #317, #114 ) ) ;
#622 = EDGE_CURVE ( 'NONE', #913, #656, #296, .T. ) ;
#623 = VERTEX_POINT ( 'NONE', #1053 ) ;
#624 = DIRECTION ( 'NONE',  ( 0.000000000000000000, 1.000000000000000000, 0.000000000000000000 ) ) ;
#625 = CC_DESIGN_SECURITY_CLASSIFICATION ( #1035, ( #803 ) ) ;
#626 = EDGE_LOOP ( 'NONE', ( #958, #144, #639, #769 ) ) ;
#627 = DIRECTION ( 'NONE',  ( 0.000000000000000000, 1.776356839400250465E-15, 1.000000000000000000 ) ) ;
#628 = VERTEX_POINT ( 'NONE', #291 ) ;
#629 = DIRECTION ( 'NONE',  ( 0.000000000000000000, 0.000000000000000000, 1.000000000000000000 ) ) ;
#630 = ORIENTED_EDGE ( 'NONE', *, *, #622, .T. ) ;
#631 = DIRECTION ( 'NONE',  ( 0.000000000000000000, 0.000000000000000000, -1.000000000000000000 ) ) ;
#632 = EDGE_LOOP ( 'NONE', ( #852, #165, #951, #468, #521 ) ) ;
#633 = CIRCLE ( 'NONE', #652, 3.125000000000000000 ) ;
#634 = FACE_OUTER_BOUND ( 'NONE', #626, .T. ) ;
#635 = ORIENTED_EDGE ( 'NONE', *, *, #607, .F. ) ;
#636 = CARTESIAN_POINT ( 'NONE',  ( -500000.0000000000582, -3.124999999999999556, -2.496873044321351820 ) ) ;
#637 = EDGE_CURVE ( 'NONE', #546, #953, #442, .T. ) ;
#638 = DIRECTION ( 'NONE',  ( 1.000000000000000000, 0.000000000000000000, -2.168404344971009115E-16 ) ) ;
#639 = ORIENTED_EDGE ( 'NONE', *, *, #113, .F. ) ;
#640 = LINE ( 'NONE', #200, #402 ) ;
#641 = ORIENTED_EDGE ( 'NONE', *, *, #304, .T. ) ;
#642 = CARTESIAN_POINT ( 'NONE',  ( 7.238999999999990109, 3.125000000000000444, -0.2232192556984530230 ) ) ;
#643 = B_SPLINE_CURVE_WITH_KNOTS ( 'NONE', 3,
 ( #495, #898, #917, #570, #63, #483, #755, #748 ),
 .UNSPECIFIED., .F., .F.,
 ( 4, 2, 2, 4 ),
 ( 0.002006768925132316594, 0.003335543918542074708, 0.003999931415246954849, 0.004664318911951834991 ),
 .UNSPECIFIED. ) ;
#644 = ORIENTED_EDGE ( 'NONE', *, *, #211, .T. ) ;
#645 = CARTESIAN_POINT ( 'NONE',  ( 8.113999999977750122, -3.125000000000000444, 2.496873044429769539 ) ) ;
#646 = DIRECTION ( 'NONE',  ( 0.000000000000000000, 0.000000000000000000, 1.000000000000000000 ) ) ;
#647 = DIRECTION ( 'NONE',  ( 0.000000000000000000, 1.000000000000000000, 0.000000000000000000 ) ) ;
#648 = DIRECTION ( 'NONE',  ( -1.000000000000000000, -0.000000000000000000, -0.000000000000000000 ) ) ;
#649 = AXIS2_PLACEMENT_3D ( 'NONE', #1031, #688, #434 ) ;
#650 = ORIENTED_EDGE ( 'NONE', *, *, #1079, .T. ) ;
#651 = AXIS2_PLACEMENT_3D ( 'NONE', #962, #297, #302 ) ;
#652 = AXIS2_PLACEMENT_3D ( 'NONE', #1056, #561, #300 ) ;
#653 = DIRECTION ( 'NONE',  ( 0.000000000000000000, -1.000000000000000000, 0.000000000000000000 ) ) ;
#654 = FACE_OUTER_BOUND ( 'NONE', #885, .T. ) ;
#655 = ORIENTED_EDGE ( 'NONE', *, *, #250, .T. ) ;
#656 = VERTEX_POINT ( 'NONE', #49 ) ;
#657 = CC_DESIGN_DATE_AND_TIME_ASSIGNMENT ( #259, #929, ( #34 ) ) ;
#658 = CARTESIAN_POINT ( 'NONE',  ( 7.238999999999998991, 0.000000000000000000, -2.561102371845258180E-15 ) ) ;
#659 = CARTESIAN_POINT ( 'NONE',  ( 0.000000000000000000, 2.286000000000000032, 0.000000000000000000 ) ) ;
#660 = EDGE_CURVE ( 'NONE', #287, #871, #558, .T. ) ;
#661 = CARTESIAN_POINT ( 'NONE',  ( -500000.0000000000582, 3.124999999999999556, 2.496873044538192143 ) ) ;
#662 = PERSON_AND_ORGANIZATION_ROLE ( 'design_owner' ) ;
#663 = EDGE_LOOP ( 'NONE', ( #394, #198, #987, #88 ) ) ;
#664 = CARTESIAN_POINT ( 'NONE',  ( 7.238999999999998991, -3.125000000000000000, 1.275531967629994103E-15 ) ) ;
#665 = EDGE_CURVE ( 'NONE', #276, #999, #367, .T. ) ;
#666 = EDGE_LOOP ( 'NONE', ( #777, #650, #718 ) ) ;
#667 = CARTESIAN_POINT ( 'NONE',  ( 7.238999999999998991, 0.000000000000000000, 0.000000000000000000 ) ) ;
#668 = ORIENTED_EDGE ( 'NONE', *, *, #806, .F. ) ;
#669 = PERSON_AND_ORGANIZATION_ROLE ( 'creator' ) ;
#670 = AXIS2_PLACEMENT_3D ( 'NONE', #667, #565, #910 ) ;
#671 = CARTESIAN_POINT ( 'NONE',  ( 11.17281710684954454, -3.125000000000000000, -2.117491149338466716 ) ) ;
#672 = CIRCLE ( 'NONE', #249, 4.000000000000000000 ) ;
#673 = CARTESIAN_POINT ( 'NONE',  ( 11.81099999999999639, -2.286000000000000032, -2.500000000000001332 ) ) ;
#674 = VECTOR ( 'NONE', #638, 1000.000000000000000 ) ;
#675 = CARTESIAN_POINT ( 'NONE',  ( 7.238999999999998991, 3.125000000000000000, -2.500000000000000000 ) ) ;
#676 = EDGE_CURVE ( 'NONE', #1041, #158, #599, .T. ) ;
#677 = PERSON_AND_ORGANIZATION ( #1028, #583 ) ;
#678 = CARTESIAN_POINT ( 'NONE',  ( 7.238999999999998991, 0.000000000000000000, 0.000000000000000000 ) ) ;
#679 = DIRECTION ( 'NONE',  ( 0.000000000000000000, 0.000000000000000000, -1.000000000000000000 ) ) ;
#680 = CARTESIAN_POINT ( 'NONE',  ( 7.238999999999998991, 2.286000000000000032, -2.130687447750142294 ) ) ;
#681 = DATE_TIME_ROLE ( 'classification_date' ) ;
#682 = CARTESIAN_POINT ( 'NONE',  ( 7.238999999999998991, -2.286000000000000032, 2.130687447750136521 ) ) ;
#683 = LINE ( 'NONE', #178, #120 ) ;
#684 = DIRECTION ( 'NONE',  ( -1.000000000000000000, -0.000000000000000000, -0.000000000000000000 ) ) ;
#685 = ORIENTED_EDGE ( 'NONE', *, *, #361, .F. ) ;
#686 = CARTESIAN_POINT ( 'NONE',  ( 11.81099999999999817, 3.125000000000000000, -9.183830166936216444E-16 ) ) ;
#687 = B_SPLINE_CURVE_WITH_KNOTS ( 'NONE', 3,
 ( #262, #598, #933, #808, #552, #462, #375, #959 ),
 .UNSPECIFIED., .F., .F.,
 ( 4, 2, 2, 4 ),
 ( 0.004306813263418002302, 0.005641627878249163251, 0.006309035185664744159, 0.006976442493080324200 ),
 .UNSPECIFIED. ) ;
#688 = DIRECTION ( 'NONE',  ( -0.000000000000000000, -1.000000000000000000, -0.000000000000000000 ) ) ;
#689 = PLANE ( 'NONE',  #354 ) ;
#690 = EDGE_LOOP ( 'NONE', ( #978, #739, #327, #263 ) ) ;
#691 = CONICAL_SURFACE ( 'NONE', #544, 4.000000000000000000, 0.7853981633974537191 ) ;
#692 = ORIENTED_EDGE ( 'NONE', *, *, #804, .F. ) ;
#693 = DIRECTION ( 'NONE',  ( -0.000000000000000000, -1.000000000000000000, -0.000000000000000000 ) ) ;
#694 = CARTESIAN_POINT ( 'NONE',  ( 1.609928002220737842, -1.609928002220736731, 3.753251759895402273 ) ) ;
#695 = DIRECTION ( 'NONE',  ( 1.000000000000000000, -0.000000000000000000, -0.000000000000000000 ) ) ;
#696 = VERTEX_POINT ( 'NONE', #121 ) ;
#697 = ORIENTED_EDGE ( 'NONE', *, *, #665, .T. ) ;
#698 = DIRECTION ( 'NONE',  ( 1.000000000000000000, 0.000000000000000000, 0.000000000000000000 ) ) ;
#699 = EDGE_CURVE ( 'NONE', #130, #700, #722, .T. ) ;
#700 = VERTEX_POINT ( 'NONE', #37 ) ;
#701 = ORIENTED_EDGE ( 'NONE', *, *, #856, .F. ) ;
#702 = CARTESIAN_POINT ( 'NONE',  ( 0.000000000000000000, -2.286000000000000032, 0.000000000000000000 ) ) ;
#703 = VERTEX_POINT ( 'NONE', #209 ) ;
#704 = CIRCLE ( 'NONE', #801, 4.000000000000000000 ) ;
#705 = ORIENTED_EDGE ( 'NONE', *, *, #64, .F. ) ;
#706 = AXIS2_PLACEMENT_3D ( 'NONE', #57, #68, #741 ) ;
#707 = DIRECTION ( 'NONE',  ( -1.000000000000000000, -0.000000000000000000, -0.000000000000000000 ) ) ;
#708 = ORIENTED_EDGE ( 'NONE', *, *, #319, .T. ) ;
#709 = EDGE_CURVE ( 'NONE', #810, #517, #1047, .T. ) ;
#710 = EDGE_CURVE ( 'NONE', #871, #567, #43, .T. ) ;
#711 = CARTESIAN_POINT ( 'NONE',  ( 4.000000000000000000, 3.125000000000000000, 2.500000000000000000 ) ) ;
#712 = ORIENTED_EDGE ( 'NONE', *, *, #790, .T. ) ;
#713 = CARTESIAN_POINT ( 'NONE',  ( 0.000000000000000000, 2.286000000000000032, -2.100000000000000089 ) ) ;
#714 = DIRECTION ( 'NONE',  ( -0.000000000000000000, -1.000000000000000000, 0.000000000000000000 ) ) ;
#715 = ORIENTED_EDGE ( 'NONE', *, *, #454, .F. ) ;
#716 = CC_DESIGN_PERSON_AND_ORGANIZATION_ASSIGNMENT ( #1084, #662, ( #151 ) ) ;
#717 = CARTESIAN_POINT ( 'NONE',  ( 8.113999999999998991, 0.000000000000000000, 0.000000000000000000 ) ) ;
#718 = ORIENTED_EDGE ( 'NONE', *, *, #290, .T. ) ;
#719 = DIRECTION ( 'NONE',  ( -0.000000000000000000, -1.000000000000000000, -0.000000000000000000 ) ) ;
#720 = CONICAL_SURFACE ( 'NONE', #859, 4.000000000000000000, 0.7853981633974537191 ) ;
#721 = DIRECTION ( 'NONE',  ( 0.000000000000000000, 0.000000000000000000, -1.000000000000000000 ) ) ;
#722 = CIRCLE ( 'NONE', #265, 2.100000000000000089 ) ;
#723 = ORIENTED_EDGE ( 'NONE', *, *, #342, .T. ) ;
#724 = CARTESIAN_POINT ( 'NONE',  ( 0.000000000000000000, -2.286000000000000032, 0.000000000000000000 ) ) ;
#725 = EDGE_LOOP ( 'NONE', ( #783, #749, #802, #708 ) ) ;
#726 = CARTESIAN_POINT ( 'NONE',  ( 1.609928002218428800, -1.609928002218430132, -3.753251759896120365 ) ) ;
#727 = LINE ( 'NONE', #1074, #674 ) ;
#728 = ORIENTED_EDGE ( 'NONE', *, *, #753, .F. ) ;
#729 = CARTESIAN_POINT ( 'NONE',  ( 8.113999999999998991, 3.125000000000000444, -2.496873044429771316 ) ) ;
#730 = CARTESIAN_POINT ( 'NONE',  ( -4.000000000000000000, 2.286000000000000032, 0.000000000000000000 ) ) ;
#731 = CARTESIAN_POINT ( 'NONE',  ( 7.238999999999998991, 2.286000000000000032, 2.130687447750153396 ) ) ;
#732 = FACE_OUTER_BOUND ( 'NONE', #600, .T. ) ;
#733 = VERTEX_POINT ( 'NONE', #331 ) ;
#734 = LINE ( 'NONE', #836, #563 ) ;
#735 = DIRECTION ( 'NONE',  ( 0.000000000000000000, -1.020425574104003999E-16, 1.000000000000000000 ) ) ;
#736 = CARTESIAN_POINT ( 'NONE',  ( -8.673617379884037444E-16, 0.000000000000000000, -4.000000000000000000 ) ) ;
#737 = CC_DESIGN_PERSON_AND_ORGANIZATION_ASSIGNMENT ( #848, #912, ( #803 ) ) ;
#738 = VECTOR ( 'NONE', #909, 1000.000000000000000 ) ;
#739 = ORIENTED_EDGE ( 'NONE', *, *, #976, .T. ) ;
#740 = DIRECTION ( 'NONE',  ( 0.000000000000000000, 1.020425574104003999E-16, -1.000000000000000000 ) ) ;
#741 = DIRECTION ( 'NONE',  ( 0.000000000000000000, 0.000000000000000000, -1.000000000000000000 ) ) ;
#742 = FACE_OUTER_BOUND ( 'NONE', #359, .T. ) ;
#743 = ORIENTED_EDGE ( 'NONE', *, *, #250, .F. ) ;
#744 =( BOUNDED_CURVE ( )  B_SPLINE_CURVE ( 3, ( #39, #471, #726, #547 ),
 .UNSPECIFIED., .F., .T. ) 
 B_SPLINE_CURVE_WITH_KNOTS ( ( 4, 4 ),
 ( 4.712388980384689674, 5.320721600763398840 ),
 .UNSPECIFIED. ) 
 CURVE ( )  GEOMETRIC_REPRESENTATION_ITEM ( )  RATIONAL_B_SPLINE_CURVE ( ( 1.000000000000000000, 0.9693979816125671833, 0.9693979816125671833, 1.000000000000000000 ) ) 
 REPRESENTATION_ITEM ( '' )  );
#745 = ORIENTED_EDGE ( 'NONE', *, *, #102, .T. ) ;
#746 = CARTESIAN_POINT ( 'NONE',  ( 7.238999999999998991, 0.000000000000000000, -2.561102371845258180E-15 ) ) ;
#747 = LINE ( 'NONE', #730, #875 ) ;
#748 = CARTESIAN_POINT ( 'NONE',  ( 11.81099999999999817, -3.125000000000000000, -1.785744754682025192E-15 ) ) ;
#749 = ORIENTED_EDGE ( 'NONE', *, *, #812, .T. ) ;
#750 = PERSON_AND_ORGANIZATION ( #1028, #583 ) ;
#751 = EDGE_CURVE ( 'NONE', #938, #485, #784, .T. ) ;
#752 = DIRECTION ( 'NONE',  ( -1.000000000000000000, 0.000000000000000000, 0.000000000000000000 ) ) ;
#753 = EDGE_CURVE ( 'NONE', #1049, #733, #672, .T. ) ;
#754 = DIRECTION ( 'NONE',  ( 1.000000000000000000, -0.000000000000000000, -0.000000000000000000 ) ) ;
#755 = CARTESIAN_POINT ( 'NONE',  ( 11.81099999999999461, -3.125000000000000000, 0.2232063648924626220 ) ) ;
#756 = AXIS2_PLACEMENT_3D ( 'NONE', #286, #464, #476 ) ;
#757 = CARTESIAN_POINT ( 'NONE',  ( 7.510695347393389731, -2.286000000000000032, 2.529172904404469513 ) ) ;
#758 = AXIS2_PLACEMENT_3D ( 'NONE', #11, #413, #251 ) ;
#759 = LINE ( 'NONE', #843, #355 ) ;
#760 = AXIS2_PLACEMENT_3D ( 'NONE', #820, #303, #155 ) ;
#761 = DIRECTION ( 'NONE',  ( -0.000000000000000000, -1.000000000000000000, 0.000000000000000000 ) ) ;
#762 = CARTESIAN_POINT ( 'NONE',  ( 5.500000000000000000, -2.286000000000000032, 1.000000000000000000 ) ) ;
#763 = DIRECTION ( 'NONE',  ( -1.000000000000000000, -0.000000000000000000, -0.000000000000000000 ) ) ;
#764 = VERTEX_POINT ( 'NONE', #729 ) ;
#765 = ADVANCED_FACE ( 'NONE', ( #1080 ), #410, .T. ) ;
#766 = DIRECTION ( 'NONE',  ( -1.000000000000000000, -0.000000000000000000, -0.000000000000000000 ) ) ;
#767 = DIRECTION ( 'NONE',  ( 1.000000000000000000, 0.000000000000000000, -2.168404344971009115E-16 ) ) ;
#768 = FACE_OUTER_BOUND ( 'NONE', #1063, .T. ) ;
#769 = ORIENTED_EDGE ( 'NONE', *, *, #710, .T. ) ;
#770 = CARTESIAN_POINT ( 'NONE',  ( 8.113999999977750122, -3.125000000000000444, 2.496873044429769539 ) ) ;
#771 = AXIS2_PLACEMENT_3D ( 'NONE', #125, #1050, #45 ) ;
#772 = CARTESIAN_POINT ( 'NONE',  ( 7.263935801702878337, 3.125000000000000444, 0.4497298289866588639 ) ) ;
#773 = CONICAL_SURFACE ( 'NONE', #1008, 4.000000000000000000, 0.7853981633974537191 ) ;
#774 = VERTEX_POINT ( 'NONE', #146 ) ;
#775 = CARTESIAN_POINT ( 'NONE',  ( 7.238999999999998991, 2.286000000000000032, -2.130687447750142294 ) ) ;
#776 = ORIENTED_EDGE ( 'NONE', *, *, #64, .T. ) ;
#777 = ORIENTED_EDGE ( 'NONE', *, *, #751, .T. ) ;
#778 = EDGE_CURVE ( 'NONE', #947, #1001, #195, .T. ) ;
#779 = DIRECTION ( 'NONE',  ( -0.000000000000000000, 0.000000000000000000, -1.000000000000000000 ) ) ;
#780 = ORIENTED_EDGE ( 'NONE', *, *, #172, .T. ) ;
#781 = PLANE ( 'NONE',  #163 ) ;
#782 = AXIS2_PLACEMENT_3D ( 'NONE', #93, #763, #347 ) ;
#783 = ORIENTED_EDGE ( 'NONE', *, *, #489, .F. ) ;
#784 = CIRCLE ( 'NONE', #71, 3.125000000000000000 ) ;
#785 = CARTESIAN_POINT ( 'NONE',  ( 11.81099999999999817, 0.000000000000000000, -2.561102371845258180E-15 ) ) ;
#786 = CIRCLE ( 'NONE', #494, 3.125000000000000000 ) ;
#787 = DIRECTION ( 'NONE',  ( 0.000000000000000000, 0.000000000000000000, -1.000000000000000000 ) ) ;
#788 = ORIENTED_EDGE ( 'NONE', *, *, #304, .F. ) ;
#789 = FACE_OUTER_BOUND ( 'NONE', #336, .T. ) ;
#790 = EDGE_CURVE ( 'NONE', #696, #134, #252, .T. ) ;
#791 = ORIENTED_EDGE ( 'NONE', *, *, #956, .T. ) ;
#792 = EDGE_CURVE ( 'NONE', #700, #130, #944, .T. ) ;
#793 = ORIENTED_EDGE ( 'NONE', *, *, #665, .F. ) ;
#794 = DIRECTION ( 'NONE',  ( 1.000000000000000000, 0.000000000000000000, 0.000000000000000000 ) ) ;
#795 = ORIENTED_EDGE ( 'NONE', *, *, #901, .F. ) ;
#796 = ORIENTED_EDGE ( 'NONE', *, *, #102, .F. ) ;
#797 = CARTESIAN_POINT ( 'NONE',  ( 0.000000000000000000, 2.286000000000000032, -2.100000000000000089 ) ) ;
#798 = CARTESIAN_POINT ( 'NONE',  ( 7.238999999999997215, 3.125000000000000444, -4.250000000000002665 ) ) ;
#799 = VECTOR ( 'NONE', #148, 1000.000000000000000 ) ;
#800 = AXIS2_PLACEMENT_3D ( 'NONE', #724, #805, #957 ) ;
#801 = AXIS2_PLACEMENT_3D ( 'NONE', #137, #451, #629 ) ;
#802 = ORIENTED_EDGE ( 'NONE', *, *, #605, .T. ) ;
#803 = PRODUCT_DEFINITION_FORMATION_WITH_SPECIFIED_SOURCE ( 'ANY', '', #151, .NOT_KNOWN. ) ;
#804 = EDGE_CURVE ( 'NONE', #818, #287, #615, .T. ) ;
#805 = DIRECTION ( 'NONE',  ( -0.000000000000000000, -1.000000000000000000, -0.000000000000000000 ) ) ;
#806 = EDGE_CURVE ( 'NONE', #408, #913, #984, .T. ) ;
#807 = CARTESIAN_POINT ( 'NONE',  ( -500000.0000000000582, -3.125000000000000444, 2.496873044538191255 ) ) ;
#808 = CARTESIAN_POINT ( 'NONE',  ( 11.62869221676104026, 3.125000000000000000, -1.099739490968328903 ) ) ;
#809 = DIRECTION ( 'NONE',  ( 0.000000000000000000, 0.000000000000000000, 1.000000000000000000 ) ) ;
#810 = VERTEX_POINT ( 'NONE', #499 ) ;
#811 = FACE_OUTER_BOUND ( 'NONE', #846, .T. ) ;
#812 = EDGE_CURVE ( 'NONE', #465, #881, #280, .T. ) ;
#813 = MANIFOLD_SOLID_BREP ( '228-2500-172', #618 ) ;
#814 = CARTESIAN_POINT ( 'NONE',  ( 5.500000000000000000, -2.286000000000000032, -0.9999999999999997780 ) ) ;
#815 = LINE ( 'NONE', #661, #248 ) ;
#816 = CC_DESIGN_APPROVAL ( #522, ( #1035 ) ) ;
#817 = DIRECTION ( 'NONE',  ( -0.000000000000000000, 1.000000000000000000, 0.000000000000000000 ) ) ;
#818 = VERTEX_POINT ( 'NONE', #67 ) ;
#819 = CARTESIAN_POINT ( 'NONE',  ( 7.263935801702647410, -3.125000000000000444, 0.4497298289846312636 ) ) ;
#820 = CARTESIAN_POINT ( 'NONE',  ( 11.81099999999999817, 2.286000000000000032, 4.000000000000000000 ) ) ;
#821 = DIRECTION ( 'NONE',  ( 0.000000000000000000, 0.000000000000000000, -1.000000000000000000 ) ) ;
#822 = EDGE_CURVE ( 'NONE', #881, #465, #512, .T. ) ;
#823 = ORIENTED_EDGE ( 'NONE', *, *, #995, .F. ) ;
#824 = AXIS2_PLACEMENT_3D ( 'NONE', #860, #109, #26 ) ;
#825 = VECTOR ( 'NONE', #214, 1000.000000000000000 ) ;
#826 = CARTESIAN_POINT ( 'NONE',  ( 10.93600000000000882, -3.124999999999999556, -2.496873044429772204 ) ) ;
#827 = CIRCLE ( 'NONE', #311, 4.000000000000000000 ) ;
#828 = FACE_OUTER_BOUND ( 'NONE', #579, .T. ) ;
#829 = PERSON_AND_ORGANIZATION ( #1028, #583 ) ;
#830 = PRODUCT_RELATED_PRODUCT_CATEGORY ( 'detail', '', ( #151 ) ) ;
#831 = EDGE_CURVE ( 'NONE', #517, #1041, #734, .T. ) ;
#832 = CARTESIAN_POINT ( 'NONE',  ( 11.81100000000000350, -3.125000000000001332, -0.2232192556984549103 ) ) ;
#833 = DIRECTION ( 'NONE',  ( 0.000000000000000000, 0.000000000000000000, -1.000000000000000000 ) ) ;
#834 = DIRECTION ( 'NONE',  ( 1.000000000000000000, 0.000000000000000000, 0.000000000000000000 ) ) ;
#835 = CALENDAR_DATE ( 2022, 6, 6 ) ;
#836 = CARTESIAN_POINT ( 'NONE',  ( -500000.0000000000582, 2.286000000000000032, 3.282408262345157812 ) ) ;
#837 = CARTESIAN_POINT ( 'NONE',  ( 4.000000000000000000, -2.286000000000000032, 4.000000000000000000 ) ) ;
#838 = CARTESIAN_POINT ( 'NONE',  ( 11.69450932676344301, 3.125000000000000444, 0.8873686657247319420 ) ) ;
#839 = COORDINATED_UNIVERSAL_TIME_OFFSET ( 6, 0, .BEHIND. ) ;
#840 = AXIS2_PLACEMENT_3D ( 'NONE', #717, #876, #117 ) ;
#841 = CARTESIAN_POINT ( 'NONE',  ( 8.113999999977750122, -2.285999999999998256, 3.282408262236737428 ) ) ;
#842 = VECTOR ( 'NONE', #693, 1000.000000000000000 ) ;
#843 = CARTESIAN_POINT ( 'NONE',  ( -500000.0000000000582, 3.125000000000000444, -2.496873044321350932 ) ) ;
#844 = FACE_OUTER_BOUND ( 'NONE', #941, .T. ) ;
#845 = ADVANCED_FACE ( 'NONE', ( #811 ), #61, .T. ) ;
#846 = EDGE_LOOP ( 'NONE', ( #557, #655, #701 ) ) ;
#847 = VERTEX_POINT ( 'NONE', #988 ) ;
#848 = PERSON_AND_ORGANIZATION ( #1028, #583 ) ;
#849 = PLANE ( 'NONE',  #946 ) ;
#850 = CARTESIAN_POINT ( 'NONE',  ( 0.8238731367707000652, -0.8238731367706991771, 3.999999999999999112 ) ) ;
#851 = EDGE_CURVE ( 'NONE', #893, #111, #175, .T. ) ;
#852 = ORIENTED_EDGE ( 'NONE', *, *, #884, .F. ) ;
#853 = CARTESIAN_POINT ( 'NONE',  ( -500000.0000000000582, 0.000000000000000000, 1.084202172485504693E-10 ) ) ;
#854 = CARTESIAN_POINT ( 'NONE',  ( 8.113999999999998991, 3.124999999999999556, 2.496873044429772648 ) ) ;
#855 = ORIENTED_EDGE ( 'NONE', *, *, #1079, .F. ) ;
#856 = EDGE_CURVE ( 'NONE', #1005, #847, #122, .T. ) ;
#857 = ORIENTED_EDGE ( 'NONE', *, *, #223, .T. ) ;
#858 = CARTESIAN_POINT ( 'NONE',  ( 7.238999999999998991, 2.286000000000000032, 2.500000000000000000 ) ) ;
#859 = AXIS2_PLACEMENT_3D ( 'NONE', #937, #684, #1026 ) ;
#860 = CARTESIAN_POINT ( 'NONE',  ( 5.500000000000000000, 3.125000000000000000, -0.9999999999999997780 ) ) ;
#861 = AXIS2_PLACEMENT_3D ( 'NONE', #414, #395, #740 ) ;
#862 = EDGE_LOOP ( 'NONE', ( #110, #712, #857, #1068 ) ) ;
#863 = EDGE_CURVE ( 'NONE', #408, #879, #786, .T. ) ;
#864 = FACE_BOUND ( 'NONE', #368, .T. ) ;
#865 = ORIENTED_EDGE ( 'NONE', *, *, #446, .F. ) ;
#866 = CARTESIAN_POINT ( 'NONE',  ( 5.500000000000000000, 2.286000000000000032, 2.500000000000000000 ) ) ;
#867 = VERTEX_POINT ( 'NONE', #433 ) ;
#868 = DIRECTION ( 'NONE',  ( -1.000000000000000000, -0.000000000000000000, 2.168404344971009115E-16 ) ) ;
#869 = ORIENTED_EDGE ( 'NONE', *, *, #78, .T. ) ;
#870 = DIRECTION ( 'NONE',  ( 0.000000000000000000, -1.000000000000000000, 0.000000000000000000 ) ) ;
#871 = VERTEX_POINT ( 'NONE', #858 ) ;
#872 = VECTOR ( 'NONE', #575, 1000.000000000000000 ) ;
#873 = CARTESIAN_POINT ( 'NONE',  ( 10.93600000000000882, 0.000000000000000000, -4.000000000000000000 ) ) ;
#874 = AXIS2_PLACEMENT_3D ( 'NONE', #568, #74, #486 ) ;
#875 = VECTOR ( 'NONE', #1081, 1000.000000000000000 ) ;
#876 = DIRECTION ( 'NONE',  ( -1.000000000000000000, -0.000000000000000000, -0.000000000000000000 ) ) ;
#877 = ORIENTED_EDGE ( 'NONE', *, *, #587, .T. ) ;
#878 = CARTESIAN_POINT ( 'NONE',  ( 7.509995482612349171, -2.286000000000000032, -2.528146438771598614 ) ) ;
#879 = VERTEX_POINT ( 'NONE', #85 ) ;
#880 = CARTESIAN_POINT ( 'NONE',  ( 2.286000000017800460, 2.286000000000000032, 3.282408262224340678 ) ) ;
#881 = VERTEX_POINT ( 'NONE', #206 ) ;
#882 = CARTESIAN_POINT ( 'NONE',  ( 8.113999999999998991, 3.125000000000000444, -2.496873044429771316 ) ) ;
#883 = CARTESIAN_POINT ( 'NONE',  ( 11.81099999999999817, -2.286000000000000032, 2.500000000000000000 ) ) ;
#884 = EDGE_CURVE ( 'NONE', #628, #273, #335, .T. ) ;
#885 = EDGE_LOOP ( 'NONE', ( #19, #38, #28, #715, #685, #284 ) ) ;
#886 = CYLINDRICAL_SURFACE ( 'NONE', #651, 4.000000000000000000 ) ;
#887 = CARTESIAN_POINT ( 'NONE',  ( 4.000000000000000000, -2.286000000000000032, -1.000000000000000000 ) ) ;
#888 = DIRECTION ( 'NONE',  ( 1.000000000000000000, 0.000000000000000000, -2.168404344971009115E-16 ) ) ;
#889 = AXIS2_PLACEMENT_3D ( 'NONE', #1066, #299, #535 ) ;
#890 = CONICAL_SURFACE ( 'NONE', #456, 3.125000000000009770, 0.7853981633974423948 ) ;
#891 = DIRECTION ( 'NONE',  ( 0.000000000000000000, 0.000000000000000000, 1.000000000000000000 ) ) ;
#892 = VECTOR ( 'NONE', #714, 1000.000000000000000 ) ;
#893 = VERTEX_POINT ( 'NONE', #608 ) ;
#894 = AXIS2_PLACEMENT_3D ( 'NONE', #916, #161, #646 ) ;
#895 = EDGE_CURVE ( 'NONE', #551, #574, #425, .T. ) ;
#896 = DIRECTION ( 'NONE',  ( 0.000000000000000000, 8.881784197001252323E-16, 1.000000000000000000 ) ) ;
#897 = CYLINDRICAL_SURFACE ( 'NONE', #706, 4.000000000000000000 ) ;
#898 = CARTESIAN_POINT ( 'NONE',  ( 11.17055694621688744, -3.125000000000000444, 2.121111935165292284 ) ) ;
#899 = CARTESIAN_POINT ( 'NONE',  ( 7.808075955043126015, -2.286000000000000032, -2.909603881408556081 ) ) ;
#900 = ORIENTED_EDGE ( 'NONE', *, *, #971, .F. ) ;
#901 = EDGE_CURVE ( 'NONE', #967, #656, #523, .T. ) ;
#902 = DIRECTION ( 'NONE',  ( 0.000000000000000000, 0.000000000000000000, -1.000000000000000000 ) ) ;
#903 = DIRECTION ( 'NONE',  ( 1.000000000000000000, 0.000000000000000000, -1.338934451973454508E-16 ) ) ;
#904 = ORIENTED_EDGE ( 'NONE', *, *, #1043, .T. ) ;
#905 = DATE_AND_TIME ( #925, #42 ) ;
#906 = ORIENTED_EDGE ( 'NONE', *, *, #261, .T. ) ;
#907 = EDGE_LOOP ( 'NONE', ( #924, #934, #869, #228, #549 ) ) ;
#908 = DIRECTION ( 'NONE',  ( 0.000000000000000000, 0.000000000000000000, 1.000000000000000000 ) ) ;
#909 = DIRECTION ( 'NONE',  ( -1.000000000000000000, 0.000000000000000000, 0.000000000000000000 ) ) ;
#910 = DIRECTION ( 'NONE',  ( 0.000000000000000000, 0.000000000000000000, -1.000000000000000000 ) ) ;
#911 = ADVANCED_FACE ( 'NONE', ( #6 ), #12, .T. ) ;
#912 = PERSON_AND_ORGANIZATION_ROLE ( 'design_supplier' ) ;
#913 = VERTEX_POINT ( 'NONE', #770 ) ;
#914 =( GEOMETRIC_REPRESENTATION_CONTEXT ( 3 ) GLOBAL_UNCERTAINTY_ASSIGNED_CONTEXT ( ( #341 ) ) GLOBAL_UNIT_ASSIGNED_CONTEXT ( ( #977, #586, #89 ) ) REPRESENTATION_CONTEXT ( 'NONE', 'WORKASPACE' ) );
#915 = CARTESIAN_POINT ( 'NONE',  ( 7.879443053778235395, -3.125000000000001332, 2.121111935156528183 ) ) ;
#916 = CARTESIAN_POINT ( 'NONE',  ( 0.000000000000000000, 2.286000000000000032, 0.000000000000000000 ) ) ;
#917 = CARTESIAN_POINT ( 'NONE',  ( 11.38512569128609897, -3.125000000000000888, 1.729920089908538294 ) ) ;
#918 = ORIENTED_EDGE ( 'NONE', *, *, #1059, .T. ) ;
#919 = MECHANICAL_CONTEXT ( 'NONE', #437, 'mechanical' ) ;
#920 = B_SPLINE_CURVE_WITH_KNOTS ( 'NONE', 3,
 ( #135, #642, #218, #58, #380, #392, #293, #882 ),
 .UNSPECIFIED., .F., .F.,
 ( 4, 2, 2, 4 ),
 ( 0.004664318911951503659, 0.005328744778934602425, 0.005993170645917702058, 0.007322022379883900457 ),
 .UNSPECIFIED. ) ;
#921 = CARTESIAN_POINT ( 'NONE',  ( 0.000000000000000000, 2.286000000000000032, 0.000000000000000000 ) ) ;
#922 = FACE_OUTER_BOUND ( 'NONE', #224, .T. ) ;
#923 = CARTESIAN_POINT ( 'NONE',  ( -500000.0000000000582, -2.285999999999998256, 3.282408262345159145 ) ) ;
#924 = ORIENTED_EDGE ( 'NONE', *, *, #709, .T. ) ;
#925 = CALENDAR_DATE ( 2022, 6, 6 ) ;
#926 = CARTESIAN_POINT ( 'NONE',  ( 7.510695347393395060, 2.286000000000000032, 2.529172904404476174 ) ) ;
#927 = ADVANCED_FACE ( 'NONE', ( #932, #188 ), #849, .F. ) ;
#928 = CARTESIAN_POINT ( 'NONE',  ( 7.879443053783122153, 3.124999999999999556, 2.121111935165294060 ) ) ;
#929 = DATE_TIME_ROLE ( 'creation_date' ) ;
#930 = VECTOR ( 'NONE', #560, 1000.000000000000000 ) ;
#931 = APPROVAL ( #1090, 'UNSPECIFIED' ) ;
#932 = FACE_BOUND ( 'NONE', #621, .T. ) ;
#933 = CARTESIAN_POINT ( 'NONE',  ( 11.38799275944600531, 3.125000000000000444, -1.723310499797629625 ) ) ;
#934 = ORIENTED_EDGE ( 'NONE', *, *, #278, .F. ) ;
#935 = DIRECTION ( 'NONE',  ( 0.000000000000000000, 0.000000000000000000, 1.000000000000000000 ) ) ;
#936 = DIRECTION ( 'NONE',  ( 0.000000000000000000, 0.000000000000000000, -1.000000000000000000 ) ) ;
#937 = CARTESIAN_POINT ( 'NONE',  ( 10.93600000000000882, 0.000000000000000000, 0.000000000000000000 ) ) ;
#938 = VERTEX_POINT ( 'NONE', #686 ) ;
#939 = CARTESIAN_POINT ( 'NONE',  ( 7.238999999999998991, 0.000000000000000000, -2.561102371845258180E-15 ) ) ;
#940 = CARTESIAN_POINT ( 'NONE',  ( 0.000000000000000000, 2.286000000000000032, 0.000000000000000000 ) ) ;
#941 = EDGE_LOOP ( 'NONE', ( #780, #238, #796, #448, #613, #472, #692, #900, #793, #132 ) ) ;
#942 = ADVANCED_FACE ( 'NONE', ( #1020 ), #210, .T. ) ;
#943 = AXIS2_PLACEMENT_3D ( 'NONE', #675, #1082, #903 ) ;
#944 = CIRCLE ( 'NONE', #5, 2.100000000000000089 ) ;
#945 = DIRECTION ( 'NONE',  ( 1.000000000000000000, 0.000000000000000000, -0.000000000000000000 ) ) ;
#946 = AXIS2_PLACEMENT_3D ( 'NONE', #16, #346, #267 ) ;
#947 = VERTEX_POINT ( 'NONE', #429 ) ;
#948 = AXIS2_PLACEMENT_3D ( 'NONE', #678, #698, #603 ) ;
#949 = ORIENTED_EDGE ( 'NONE', *, *, #285, .F. ) ;
#950 = DIRECTION ( 'NONE',  ( 0.000000000000000000, -0.000000000000000000, 1.000000000000000000 ) ) ;
#951 = ORIENTED_EDGE ( 'NONE', *, *, #290, .F. ) ;
#952 = SHAPE_DEFINITION_REPRESENTATION ( #80, #419 ) ;
#953 = VERTEX_POINT ( 'NONE', #256 ) ;
#954 = CC_DESIGN_APPROVAL ( #473, ( #803 ) ) ;
#955 = B_SPLINE_CURVE_WITH_KNOTS ( 'NONE', 3,
 ( #584, #8, #3, #838, #488, #1012, #328, #76 ),
 .UNSPECIFIED., .F., .F.,
 ( 4, 2, 2, 4 ),
 ( 0.006976442493080324200, 0.007643811258041183394, 0.008311180023002042588, 0.009645917552923759242 ),
 .UNSPECIFIED. ) ;
#956 = EDGE_CURVE ( 'NONE', #134, #867, #616, .T. ) ;
#957 = DIRECTION ( 'NONE',  ( 0.000000000000000000, 0.000000000000000000, 1.000000000000000000 ) ) ;
#958 = ORIENTED_EDGE ( 'NONE', *, *, #1023, .T. ) ;
#959 = CARTESIAN_POINT ( 'NONE',  ( 11.81099999999999817, 3.125000000000000000, -9.183830166936216444E-16 ) ) ;
#960 = CARTESIAN_POINT ( 'NONE',  ( 7.877182893144866860, -3.125000000000001776, -2.117491149328435629 ) ) ;
#961 = ORIENTED_EDGE ( 'NONE', *, *, #213, .T. ) ;
#962 = CARTESIAN_POINT ( 'NONE',  ( -500000.0000000000582, 0.000000000000000000, 1.084202172485504693E-10 ) ) ;
#963 = VECTOR ( 'NONE', #888, 1000.000000000000000 ) ;
#964 = ORIENTED_EDGE ( 'NONE', *, *, #113, .T. ) ;
#965 = AXIS2_PLACEMENT_3D ( 'NONE', #548, #381, #467 ) ;
#966 = CYLINDRICAL_SURFACE ( 'NONE', #543, 1.500000000000000000 ) ;
#967 = VERTEX_POINT ( 'NONE', #184 ) ;
#968 = CARTESIAN_POINT ( 'NONE',  ( 7.238999999999998991, 2.286000000000000032, 4.000000000000000000 ) ) ;
#969 = ORIENTED_EDGE ( 'NONE', *, *, #461, .F. ) ;
#970 = CARTESIAN_POINT ( 'NONE',  ( 8.113999999977750122, 2.286000000000000476, -3.282408262236739205 ) ) ;
#971 = EDGE_CURVE ( 'NONE', #999, #818, #196, .T. ) ;
#972 = ORIENTED_EDGE ( 'NONE', *, *, #660, .T. ) ;
#973 = DIRECTION ( 'NONE',  ( 0.000000000000000000, 0.000000000000000000, 1.000000000000000000 ) ) ;
#974 = LINE ( 'NONE', #807, #231 ) ;
#975 = CYLINDRICAL_SURFACE ( 'NONE', #496, 2.100000000000000089 ) ;
#976 = EDGE_CURVE ( 'NONE', #733, #408, #36, .T. ) ;
#977 =( LENGTH_UNIT ( ) NAMED_UNIT ( * ) SI_UNIT ( .MILLI., .METRE. ) );
#978 = ORIENTED_EDGE ( 'NONE', *, *, #753, .T. ) ;
#979 = CARTESIAN_POINT ( 'NONE',  ( 11.81099999999999817, 0.000000000000000000, -2.561102371845258180E-15 ) ) ;
#980 = DIRECTION ( 'NONE',  ( 1.000000000000000000, -0.000000000000000000, -0.000000000000000000 ) ) ;
#981 = DIRECTION ( 'NONE',  ( 0.000000000000000000, 0.000000000000000000, 1.000000000000000000 ) ) ;
#982 = AXIS2_PLACEMENT_3D ( 'NONE', #785, #834, #156 ) ;
#983 = AXIS2_PLACEMENT_3D ( 'NONE', #658, #752, #153 ) ;
#984 = B_SPLINE_CURVE_WITH_KNOTS ( 'NONE', 3,
 ( #664, #580, #819, #160, #171, #1002, #915, #645 ),
 .UNSPECIFIED., .F., .F.,
 ( 4, 2, 2, 4 ),
 ( 0.006976442493080341548, 0.007643811258040237970, 0.008311180023000134393, 0.009645917552919928972 ),
 .UNSPECIFIED. ) ;
#985 = CARTESIAN_POINT ( 'NONE',  ( 4.000000000000000000, 3.125000000000000000, 2.500000000000000000 ) ) ;
#986 = AXIS2_PLACEMENT_3D ( 'NONE', #853, #274, #338 ) ;
#987 = ORIENTED_EDGE ( 'NONE', *, *, #345, .T. ) ;
#988 = CARTESIAN_POINT ( 'NONE',  ( 2.286000000026433554, -2.286000000000000032, -3.282408262236737873 ) ) ;
#989 = ORIENTED_EDGE ( 'NONE', *, *, #676, .T. ) ;
#990 = CARTESIAN_POINT ( 'NONE',  ( 0.8238731367656734195, 0.8238731367656743076, -3.999999999999999112 ) ) ;
#991 = DIRECTION ( 'NONE',  ( 0.000000000000000000, -0.000000000000000000, 1.000000000000000000 ) ) ;
#992 = ORIENTED_EDGE ( 'NONE', *, *, #971, .T. ) ;
#993 = ORIENTED_EDGE ( 'NONE', *, *, #699, .F. ) ;
#994 = CARTESIAN_POINT ( 'NONE',  ( 7.238999999999998991, 0.000000000000000000, -2.561102371845258180E-15 ) ) ;
#995 = EDGE_CURVE ( 'NONE', #287, #1041, #344, .T. ) ;
#996 = CARTESIAN_POINT ( 'NONE',  ( 10.93600000000000882, -3.124999999999999556, -2.496873044429772204 ) ) ;
#997 = CARTESIAN_POINT ( 'NONE',  ( 7.238999999999998991, 2.571758278209441957E-16, 2.099999999999997868 ) ) ;
#998 = EDGE_CURVE ( 'NONE', #551, #700, #515, .T. ) ;
#999 = VERTEX_POINT ( 'NONE', #775 ) ;
#1000 = COORDINATED_UNIVERSAL_TIME_OFFSET ( 6, 0, .BEHIND. ) ;
#1001 = VERTEX_POINT ( 'NONE', #271 ) ;
#1002 = CARTESIAN_POINT ( 'NONE',  ( 7.664874308710424522, -3.125000000000000444, 1.729920089901096913 ) ) ;
#1003 = PLANE ( 'NONE',  #760 ) ;
#1004 = DIRECTION ( 'NONE',  ( 1.000000000000000000, 0.000000000000000000, -2.168404344971009115E-16 ) ) ;
#1005 = VERTEX_POINT ( 'NONE', #445 ) ;
#1006 = PERSON_AND_ORGANIZATION_ROLE ( 'creator' ) ;
#1007 = CONICAL_SURFACE ( 'NONE', #670, 3.125000000000009770, 0.7853981633974423948 ) ;
#1008 = AXIS2_PLACEMENT_3D ( 'NONE', #221, #545, #973 ) ;
#1009 = LOCAL_TIME ( 14, 23, 15.00000000000000000, #1000 ) ;
#1010 = DIRECTION ( 'NONE',  ( -1.000000000000000000, -0.000000000000000000, -0.000000000000000000 ) ) ;
#1011 = DIRECTION ( 'NONE',  ( 1.000000000000000000, -0.000000000000000000, -0.000000000000000000 ) ) ;
#1012 = CARTESIAN_POINT ( 'NONE',  ( 11.38512569128846152, 3.125000000000000444, 1.729920089903471236 ) ) ;
#1013 = PERSON_AND_ORGANIZATION_ROLE ( 'classification_officer' ) ;
#1014 = ADVANCED_FACE ( 'NONE', ( #732 ), #966, .F. ) ;
#1015 = CARTESIAN_POINT ( 'NONE',  ( 10.93600000000000882, 0.000000000000000000, 0.000000000000000000 ) ) ;
#1016 = CARTESIAN_POINT ( 'NONE',  ( 7.238999999999998991, 0.000000000000000000, -2.561102371845258180E-15 ) ) ;
#1017 = B_SPLINE_CURVE_WITH_KNOTS ( 'NONE', 3,
 ( #970, #119, #322, #680 ),
 .UNSPECIFIED., .F., .F.,
 ( 4, 4 ),
 ( 0.007130284501259641187, 0.008576976222637143141 ),
 .UNSPECIFIED. ) ;
#1018 = DATE_AND_TIME ( #427, #553 ) ;
#1019 = ADVANCED_FACE ( 'NONE', ( #555, #566 ), #54, .F. ) ;
#1020 = FACE_OUTER_BOUND ( 'NONE', #41, .T. ) ;
#1021 = CARTESIAN_POINT ( 'NONE',  ( 7.238999999999998991, 0.000000000000000000, -2.561102371845258180E-15 ) ) ;
#1022 = ORIENTED_EDGE ( 'NONE', *, *, #70, .F. ) ;
#1023 = EDGE_CURVE ( 'NONE', #567, #867, #309, .T. ) ;
#1024 = DIRECTION ( 'NONE',  ( 1.000000000000000000, -0.000000000000000000, -0.000000000000000000 ) ) ;
#1025 = CIRCLE ( 'NONE', #428, 3.125000000000000000 ) ;
#1026 = DIRECTION ( 'NONE',  ( 0.000000000000000000, 0.000000000000000000, 1.000000000000000000 ) ) ;
#1027 = ORIENTED_EDGE ( 'NONE', *, *, #901, .T. ) ;
#1028 = PERSON ( 'UNSPECIFIED', 'UNSPECIFIED', 'UNSPECIFIED', ('UNSPECIFIED'), ('UNSPECIFIED'), ('UNSPECIFIED') ) ;
#1029 = CARTESIAN_POINT ( 'NONE',  ( 7.807719256151962384, -2.286000000000000032, 2.909169201913835323 ) ) ;
#1030 = EDGE_CURVE ( 'NONE', #1049, #879, #236, .T. ) ;
#1031 = CARTESIAN_POINT ( 'NONE',  ( 5.500000000000000000, 2.286000000000000032, -0.9999999999999997780 ) ) ;
#1032 = FACE_OUTER_BOUND ( 'NONE', #32, .T. ) ;
#1033 = ORIENTED_EDGE ( 'NONE', *, *, #607, .T. ) ;
#1034 = EDGE_CURVE ( 'NONE', #485, #546, #46, .T. ) ;
#1035 = SECURITY_CLASSIFICATION ( '', '', #418 ) ;
#1036 = DIRECTION ( 'NONE',  ( 0.000000000000000000, 0.000000000000000000, 1.000000000000000000 ) ) ;
#1037 = ORIENTED_EDGE ( 'NONE', *, *, #154, .T. ) ;
#1038 = VECTOR ( 'NONE', #506, 1000.000000000000000 ) ;
#1039 = DIRECTION ( 'NONE',  ( 1.000000000000000000, -0.000000000000000000, -0.000000000000000000 ) ) ;
#1040 = AXIS2_PLACEMENT_3D ( 'NONE', #994, #480, #1 ) ;
#1041 = VERTEX_POINT ( 'NONE', #65 ) ;
#1042 = EDGE_CURVE ( 'NONE', #453, #546, #31, .T. ) ;
#1043 = EDGE_CURVE ( 'NONE', #623, #1005, #484, .T. ) ;
#1044 = CARTESIAN_POINT ( 'NONE',  ( 5.500000000000000000, -2.286000000000000032, -2.500000000000000444 ) ) ;
#1045 = ORIENTED_EDGE ( 'NONE', *, *, #261, .F. ) ;
#1046 = LINE ( 'NONE', #205, #963 ) ;
#1047 =( BOUNDED_CURVE ( )  B_SPLINE_CURVE ( 3, ( #216, #459, #373, #880 ),
 .UNSPECIFIED., .F., .T. ) 
 B_SPLINE_CURVE_WITH_KNOTS ( ( 4, 4 ),
 ( 4.712388980384689674, 5.320721600764284354 ),
 .UNSPECIFIED. ) 
 CURVE ( )  GEOMETRIC_REPRESENTATION_ITEM ( )  RATIONAL_B_SPLINE_CURVE ( ( 1.000000000000000000, 0.9693979816124788096, 0.9693979816124788096, 1.000000000000000000 ) ) 
 REPRESENTATION_ITEM ( '' )  );
#1048 = DIRECTION ( 'NONE',  ( 0.000000000000000000, 0.000000000000000000, 1.000000000000000000 ) ) ;
#1049 = VERTEX_POINT ( 'NONE', #294 ) ;
#1050 = DIRECTION ( 'NONE',  ( -1.000000000000000000, -0.000000000000000000, -0.000000000000000000 ) ) ;
#1051 = ORIENTED_EDGE ( 'NONE', *, *, #593, .F. ) ;
#1052 = EDGE_CURVE ( 'NONE', #623, #273, #727, .T. ) ;
#1053 = CARTESIAN_POINT ( 'NONE',  ( -8.673617379884037444E-16, 0.000000000000000000, -4.000000000000000000 ) ) ;
#1054 = ORIENTED_EDGE ( 'NONE', *, *, #9, .F. ) ;
#1055 = CARTESIAN_POINT ( 'NONE',  ( 11.81099999999999817, 2.571758278209441957E-16, 2.099999999999997868 ) ) ;
#1056 = CARTESIAN_POINT ( 'NONE',  ( 11.81099999999999817, 0.000000000000000000, -2.561102371845258180E-15 ) ) ;
#1057 = VERTEX_POINT ( 'NONE', #478 ) ;
#1058 = CARTESIAN_POINT ( 'NONE',  ( 10.93600000000000882, 0.000000000000000000, 0.000000000000000000 ) ) ;
#1059 = EDGE_CURVE ( 'NONE', #530, #703, #443, .T. ) ;
#1060 = ORIENTED_EDGE ( 'NONE', *, *, #1042, .F. ) ;
#1061 = ADVANCED_FACE ( 'NONE', ( #1062 ), #59, .T. ) ;
#1062 = FACE_OUTER_BOUND ( 'NONE', #862, .T. ) ;
#1063 = EDGE_LOOP ( 'NONE', ( #855, #29, #1060, #436 ) ) ;
#1064 = DIRECTION ( 'NONE',  ( 1.000000000000000000, 0.000000000000000000, 0.000000000000000000 ) ) ;
#1065 = CARTESIAN_POINT ( 'NONE',  ( 7.238999999999998991, 0.000000000000000000, -2.561102371845258180E-15 ) ) ;
#1066 = CARTESIAN_POINT ( 'NONE',  ( 11.81099999999999817, 0.000000000000000000, -2.561102371845258180E-15 ) ) ;
#1067 = CARTESIAN_POINT ( 'NONE',  ( 11.81099999999999817, -2.286000000000000032, 4.000000000000000000 ) ) ;
#1068 = ORIENTED_EDGE ( 'NONE', *, *, #446, .T. ) ;
#1069 = DIRECTION ( 'NONE',  ( 0.000000000000000000, 0.000000000000000000, -1.000000000000000000 ) ) ;
#1070 = CARTESIAN_POINT ( 'NONE',  ( 7.238999999999998991, -2.286000000000000032, 4.000000000000000000 ) ) ;
#1071 = LINE ( 'NONE', #423, #4 ) ;
#1072 = VECTOR ( 'NONE', #235, 1000.000000000000000 ) ;
#1073 = VECTOR ( 'NONE', #203, 1000.000000000000000 ) ;
#1074 = CARTESIAN_POINT ( 'NONE',  ( -500000.0000000000582, 0.000000000000000000, -3.999999999891580060 ) ) ;
#1075 = CC_DESIGN_PERSON_AND_ORGANIZATION_ASSIGNMENT ( #432, #669, ( #34 ) ) ;
#1076 = ORIENTED_EDGE ( 'NONE', *, *, #481, .F. ) ;
#1077 = ORIENTED_EDGE ( 'NONE', *, *, #804, .T. ) ;
#1078 = VECTOR ( 'NONE', #604, 1000.000000000000000 ) ;
#1079 = EDGE_CURVE ( 'NONE', #485, #893, #633, .T. ) ;
#1080 = FACE_OUTER_BOUND ( 'NONE', #14, .T. ) ;
#1081 = DIRECTION ( 'NONE',  ( -0.000000000000000000, -1.000000000000000000, 0.000000000000000000 ) ) ;
#1082 = DIRECTION ( 'NONE',  ( 1.338934451973454508E-16, 0.000000000000000000, 1.000000000000000000 ) ) ;
#1083 = ORIENTED_EDGE ( 'NONE', *, *, #278, .T. ) ;
#1084 = PERSON_AND_ORGANIZATION ( #1028, #583 ) ;
#1085 = ORIENTED_EDGE ( 'NONE', *, *, #637, .F. ) ;
#1086 = DIRECTION ( 'NONE',  ( -0.000000000000000000, -1.000000000000000000, 0.000000000000000000 ) ) ;
#1087 = FACE_BOUND ( 'NONE', #591, .T. ) ;
#1088 = CARTESIAN_POINT ( 'NONE',  ( 10.93600000000000882, -3.125000000000000444, 2.496873044429771760 ) ) ;
#1089 = EDGE_LOOP ( 'NONE', ( #776, #444, #993, #949 ) ) ;
#1090 = APPROVAL_STATUS ( 'not_yet_approved' ) ;
ENDSEC;
END-ISO-10303-21;
