ISO-10303-21;
HEADER;
FILE_DESCRIPTION (( 'STEP AP203' ),
    '1' );
FILE_NAME ('228-2500-1853.step',
    '2022-06-06T19:24:44',
    ( '' ),
    ( '' ),
    'SwSTEP 2.0',
    'SolidWorks 2021',
    '' );
FILE_SCHEMA (( 'CONFIG_CONTROL_DESIGN' ));
ENDSEC;

DATA;
#1 = B_SPLINE_CURVE_WITH_KNOTS ( 'NONE', 3,
 ( #486, #118, #500, #414 ),
 .UNSPECIFIED., .F., .F.,
 ( 4, 4 ),
 ( 0.003029541235337116726, 0.003249628748158715167 ),
 .UNSPECIFIED. ) ;
#2 = VERTEX_POINT ( 'NONE', #468 ) ;
#3 = CARTESIAN_POINT ( 'NONE',  ( -0.4980973490458727726, -3.174999999999999822, 2.595422128626173830 ) ) ;
#4 = VERTEX_POINT ( 'NONE', #11 ) ;
#5 = FACE_OUTER_BOUND ( 'NONE', #132, .T. ) ;
#6 = AXIS2_PLACEMENT_3D ( 'NONE', #1132, #687, #402 ) ;
#7 = ADVANCED_FACE ( 'NONE', ( #651 ), #570, .T. ) ;
#8 = VERTEX_POINT ( 'NONE', #658 ) ;
#9 = ORIENTED_EDGE ( 'NONE', *, *, #650, .T. ) ;
#10 = CARTESIAN_POINT ( 'NONE',  ( 0.000000000000000000, -4.290847461650918682, -1.042914774485699025 ) ) ;
#11 = CARTESIAN_POINT ( 'NONE',  ( -2.100000000000000089, 0.000000000000000000, 0.8890000000000000124 ) ) ;
#12 = B_SPLINE_CURVE_WITH_KNOTS ( 'NONE', 3,
 ( #631, #891, #241, #357, #159, #1063, #980, #521, #1145, #782 ),
 .UNSPECIFIED., .F., .F.,
 ( 4, 2, 2, 2, 4 ),
 ( 0.000000000000000000, 0.0003704147845104415349, 0.0007408295690208830699, 0.001111244353531324388, 0.001481659138041765706 ),
 .UNSPECIFIED. ) ;
#13 = DIRECTION ( 'NONE',  ( -1.000000000000000000, 0.000000000000000000, 0.000000000000000000 ) ) ;
#14 = ORIENTED_EDGE ( 'NONE', *, *, #732, .F. ) ;
#15 = DIRECTION ( 'NONE',  ( -1.000000000000000000, 0.000000000000000000, 0.000000000000000000 ) ) ;
#16 = CARTESIAN_POINT ( 'NONE',  ( 0.4000000000000000222, 2.061423388508800247, 5.138999999999999346 ) ) ;
#17 = EDGE_CURVE ( 'NONE', #866, #288, #1015, .T. ) ;
#18 = CARTESIAN_POINT ( 'NONE',  ( 0.4000000000000000222, -2.061552812808830737, 4.439000000000000057 ) ) ;
#19 = ORIENTED_EDGE ( 'NONE', *, *, #987, .T. ) ;
#20 = CARTESIAN_POINT ( 'NONE',  ( -1.425751516850333633, 0.4145752655988301782, -4.644086781435629696 ) ) ;
#21 = DIRECTION ( 'NONE',  ( -0.000000000000000000, -0.000000000000000000, 1.000000000000000000 ) ) ;
#22 = CC_DESIGN_APPROVAL ( #586, ( #802 ) ) ;
#23 = AXIS2_PLACEMENT_3D ( 'NONE', #31, #774, #48 ) ;
#24 = CARTESIAN_POINT ( 'NONE',  ( -1.299446473204656005, 1.444610811988646493, -5.810936663114357970 ) ) ;
#25 = CC_DESIGN_DATE_AND_TIME_ASSIGNMENT ( #889, #971, ( #824 ) ) ;
#26 = ORIENTED_EDGE ( 'NONE', *, *, #863, .T. ) ;
#27 = CARTESIAN_POINT ( 'NONE',  ( -1.184868684420349982, 0.6582714783008217774, -4.750657835333341517 ) ) ;
#28 = AXIS2_PLACEMENT_3D ( 'NONE', #835, #925, #15 ) ;
#29 = CARTESIAN_POINT ( 'NONE',  ( -0.4000000000000000222, -2.061552812808830737, 4.439000000000000057 ) ) ;
#30 = DIRECTION ( 'NONE',  ( -1.000000000000000000, 0.000000000000000000, 0.000000000000000000 ) ) ;
#31 = CARTESIAN_POINT ( 'NONE',  ( 0.000000000000000000, 0.000000000000000000, 1.734723475976807094E-15 ) ) ;
#32 = DIRECTION ( 'NONE',  ( -0.000000000000000000, -0.000000000000000000, -1.000000000000000000 ) ) ;
#33 = CARTESIAN_POINT ( 'NONE',  ( 1.750000000000000000, -1.100738071343660085, -5.588247491104408660 ) ) ;
#34 = DIRECTION ( 'NONE',  ( 0.000000000000000000, -0.08715574274765837404, -0.9961946980917455452 ) ) ;
#35 = ADVANCED_FACE ( 'NONE', ( #922 ), #1091, .T. ) ;
#36 = CARTESIAN_POINT ( 'NONE',  ( -1.750000000000171418, -1.100738071352511893, -5.588247491103635944 ) ) ;
#37 = PERSON_AND_ORGANIZATION ( #481, #235 ) ;
#38 = VERTEX_POINT ( 'NONE', #16 ) ;
#39 = CARTESIAN_POINT ( 'NONE',  ( 1.546956033448393608, 0.2284594528661775259, -4.559606705238058666 ) ) ;
#40 = CARTESIAN_POINT ( 'NONE',  ( -1.750000000000000000, -2.582918713489515739, -2.949023893760703174 ) ) ;
#41 = CARTESIAN_POINT ( 'NONE',  ( -0.4980973490458727726, 2.040073290564207831, 2.595422128626173830 ) ) ;
#42 = AXIS2_PLACEMENT_3D ( 'NONE', #593, #585, #30 ) ;
#43 = CALENDAR_DATE ( 2022, 6, 6 ) ;
#44 = VERTEX_POINT ( 'NONE', #389 ) ;
#45 = CARTESIAN_POINT ( 'NONE',  ( 1.182215235691155497, 0.6606228599514477606, -4.751668885952920363 ) ) ;
#46 = CARTESIAN_POINT ( 'NONE',  ( -1.706339959818599539, -2.765793646919213256, -2.485441630892613052 ) ) ;
#47 = EDGE_CURVE ( 'NONE', #1082, #44, #373, .T. ) ;
#48 = DIRECTION ( 'NONE',  ( 1.000000000000000000, 0.000000000000000000, 0.000000000000000000 ) ) ;
#49 = ORIENTED_EDGE ( 'NONE', *, *, #485, .T. ) ;
#50 = CARTESIAN_POINT ( 'NONE',  ( -0.4000000000000000222, 2.129368205736810626, 4.466985055468135180 ) ) ;
#51 = DIRECTION ( 'NONE',  ( -1.000000000000000000, -0.000000000000000000, -0.000000000000000000 ) ) ;
#52 = FACE_OUTER_BOUND ( 'NONE', #182, .T. ) ;
#53 = VERTEX_POINT ( 'NONE', #1020 ) ;
#54 = ADVANCED_FACE ( 'NONE', ( #87 ), #464, .F. ) ;
#55 = PLANE ( 'NONE',  #713 ) ;
#56 = CARTESIAN_POINT ( 'NONE',  ( 0.5435249378548495658, -2.028981845142147300, 3.114661844701149374 ) ) ;
#57 = LINE ( 'NONE', #965, #612 ) ;
#58 = PERSON_AND_ORGANIZATION_ROLE ( 'classification_officer' ) ;
#59 = APPROVAL_PERSON_ORGANIZATION ( #779, #368, #247 ) ;
#60 = ORIENTED_EDGE ( 'NONE', *, *, #597, .F. ) ;
#61 = CARTESIAN_POINT ( 'NONE',  ( 0.4000000000000000222, -2.264950330581225302, 4.523072258617639285 ) ) ;
#62 = CARTESIAN_POINT ( 'NONE',  ( 0.4000000000000001887, -2.061423388508800247, 5.138999999999999346 ) ) ;
#63 = CIRCLE ( 'NONE', #213, 3.174999999999999822 ) ;
#64 = AXIS2_PLACEMENT_3D ( 'NONE', #1072, #685, #626 ) ;
#65 = CARTESIAN_POINT ( 'NONE',  ( -0.5435249378548495658, 2.028981845142147300, 3.114661844701151594 ) ) ;
#66 = ORIENTED_EDGE ( 'NONE', *, *, #542, .T. ) ;
#67 = CARTESIAN_POINT ( 'NONE',  ( 0.000000000000000000, 0.000000000000000000, 4.439000000000000057 ) ) ;
#68 = DIRECTION ( 'NONE',  ( 0.9961946980917461003, 0.000000000000000000, -0.08715574274765129636 ) ) ;
#69 = CARTESIAN_POINT ( 'NONE',  ( 0.4000000000000000222, -3.174999999999999822, 4.139000000000000234 ) ) ;
#70 = PRODUCT ( '228-2500-1853', '228-2500-1853', '', ( #933 ) ) ;
#71 = ORIENTED_EDGE ( 'NONE', *, *, #1141, .T. ) ;
#72 = CARTESIAN_POINT ( 'NONE',  ( 0.6331429140605492334, -2.002281211612124245, 4.139000000000000234 ) ) ;
#73 = EDGE_CURVE ( 'NONE', #462, #8, #331, .T. ) ;
#74 = CARTESIAN_POINT ( 'NONE',  ( 8.225407354640128323E-16, 3.358277407153972938, -2.553262504005645805 ) ) ;
#75 = CARTESIAN_POINT ( 'NONE',  ( 0.6331429140605492334, -2.002281211612124245, 4.139000000000000234 ) ) ;
#76 = CARTESIAN_POINT ( 'NONE',  ( -2.321073837815537623E-16, -1.895300620090265786, -5.874386325765247996 ) ) ;
#77 = DIRECTION ( 'NONE',  ( -0.000000000000000000, -0.000000000000000000, 1.000000000000000000 ) ) ;
#78 = DIRECTION ( 'NONE',  ( 0.000000000000000000, 0.000000000000000000, 1.000000000000000000 ) ) ;
#79 = VERTEX_POINT ( 'NONE', #41 ) ;
#80 = VECTOR ( 'NONE', #939, 1000.000000000000000 ) ;
#81 = VECTOR ( 'NONE', #664, 1000.000000000000000 ) ;
#82 = CARTESIAN_POINT ( 'NONE',  ( 0.000000000000000000, 3.749999999999999556, 1.734723475976807094E-15 ) ) ;
#83 = AXIS2_PLACEMENT_3D ( 'NONE', #254, #261, #1152 ) ;
#84 = VERTEX_POINT ( 'NONE', #580 ) ;
#85 = EDGE_CURVE ( 'NONE', #698, #248, #457, .T. ) ;
#86 = VECTOR ( 'NONE', #106, 1000.000000000000000 ) ;
#87 = FACE_OUTER_BOUND ( 'NONE', #859, .T. ) ;
#88 = CARTESIAN_POINT ( 'NONE',  ( -0.4000000000000000222, 2.197199101532723908, 4.728411515496787842 ) ) ;
#89 = CARTESIAN_POINT ( 'NONE',  ( 1.903605898198451607, -0.7848091556974127192, -5.615887689703493280 ) ) ;
#90 = EDGE_LOOP ( 'NONE', ( #748, #259, #589, #643, #367, #388 ) ) ;
#91 = DIRECTION ( 'NONE',  ( -0.000000000000000000, 1.000000000000000000, -0.000000000000000000 ) ) ;
#92 = EDGE_CURVE ( 'NONE', #326, #855, #207, .T. ) ;
#93 = ORIENTED_EDGE ( 'NONE', *, *, #193, .F. ) ;
#94 = CARTESIAN_POINT ( 'NONE',  ( 2.014843030557703862, -0.2736901468441216845, -5.660604808690764322 ) ) ;
#95 = APPLICATION_CONTEXT ( 'configuration controlled 3d designs of mechanical parts and assemblies' ) ;
#96 = DIRECTION ( 'NONE',  ( -0.000000000000000000, -0.000000000000000000, 1.000000000000000000 ) ) ;
#97 = CARTESIAN_POINT ( 'NONE',  ( 0.4000000000000000222, -2.129368205736810626, 4.466985055468135180 ) ) ;
#98 = B_SPLINE_CURVE_WITH_KNOTS ( 'NONE', 3,
 ( #186, #563, #553, #812 ),
 .UNSPECIFIED., .F., .F.,
 ( 4, 4 ),
 ( 0.003029541235337116726, 0.003249628748158715167 ),
 .UNSPECIFIED. ) ;
#99 = ORIENTED_EDGE ( 'NONE', *, *, #912, .F. ) ;
#100 = DIRECTION ( 'NONE',  ( -1.000000000000000000, 0.000000000000000000, -0.000000000000000000 ) ) ;
#101 = AXIS2_PLACEMENT_3D ( 'NONE', #501, #305, #423 ) ;
#102 = AXIS2_PLACEMENT_3D ( 'NONE', #480, #833, #13 ) ;
#103 = EDGE_LOOP ( 'NONE', ( #983, #142, #296, #231 ) ) ;
#104 = CYLINDRICAL_SURFACE ( 'NONE', #102, 2.100000000000000089 ) ;
#105 = EDGE_LOOP ( 'NONE', ( #616, #780, #722, #807 ) ) ;
#106 = DIRECTION ( 'NONE',  ( 0.000000000000000000, -0.08715574274765837404, -0.9961946980917455452 ) ) ;
#107 = EDGE_CURVE ( 'NONE', #53, #1008, #498, .T. ) ;
#108 =( BOUNDED_CURVE ( )  B_SPLINE_CURVE ( 3, ( #919, #680, #497, #578 ),
 .UNSPECIFIED., .F., .T. ) 
 B_SPLINE_CURVE_WITH_KNOTS ( ( 4, 4 ),
 ( 1.810267798689539243, 1.877058258758234732 ),
 .UNSPECIFIED. ) 
 CURVE ( )  GEOMETRIC_REPRESENTATION_ITEM ( )  RATIONAL_B_SPLINE_CURVE ( ( 1.000000000000000000, 0.9996282874180153488, 0.9996282874180153488, 1.000000000000000000 ) ) 
 REPRESENTATION_ITEM ( '' )  );
#109 = EDGE_LOOP ( 'NONE', ( #152, #209, #820, #453 ) ) ;
#110 = COORDINATED_UNIVERSAL_TIME_OFFSET ( 6, 0, .BEHIND. ) ;
#111 = ORIENTED_EDGE ( 'NONE', *, *, #670, .T. ) ;
#112 = PLANE ( 'NONE',  #701 ) ;
#113 = CARTESIAN_POINT ( 'NONE',  ( -0.6899110958210303846, 1.796060339567778108, -5.841684512579067068 ) ) ;
#114 = PERSON_AND_ORGANIZATION_ROLE ( 'creator' ) ;
#115 = EDGE_LOOP ( 'NONE', ( #220, #245 ) ) ;
#116 = CYLINDRICAL_SURFACE ( 'NONE', #592, 1.750000000000000222 ) ;
#117 = LINE ( 'NONE', #747, #1113 ) ;
#118 = CARTESIAN_POINT ( 'NONE',  ( 0.4000000000000000222, 2.197165962000668049, 4.495012552331537847 ) ) ;
#119 = CIRCLE ( 'NONE', #499, 1.114955156048887730 ) ;
#120 = DIRECTION ( 'NONE',  ( -0.000000000000000000, 0.000000000000000000, 1.000000000000000000 ) ) ;
#121 = DIRECTION ( 'NONE',  ( 0.000000000000000000, 0.000000000000000000, 1.000000000000000000 ) ) ;
#122 = ORIENTED_EDGE ( 'NONE', *, *, #1102, .F. ) ;
#123 = CARTESIAN_POINT ( 'NONE',  ( 1.423704875328445807, 0.4172969264370606224, -4.645310685955446495 ) ) ;
#124 = AXIS2_PLACEMENT_3D ( 'NONE', #1095, #561, #100 ) ;
#125 = FACE_OUTER_BOUND ( 'NONE', #351, .T. ) ;
#126 = ORIENTED_EDGE ( 'NONE', *, *, #160, .F. ) ;
#127 = DIRECTION ( 'NONE',  ( 1.000000000000000000, 0.000000000000000000, -0.000000000000000000 ) ) ;
#128 = ORIENTED_EDGE ( 'NONE', *, *, #327, .F. ) ;
#129 = CARTESIAN_POINT ( 'NONE',  ( 0.9023691819870948150, 0.8623858583595707117, -4.836841310213952916 ) ) ;
#130 = ADVANCED_FACE ( 'NONE', ( #1042 ), #953, .T. ) ;
#131 = CARTESIAN_POINT ( 'NONE',  ( -1.749999999999999556, -1.872198538823775404, -4.574576807818799828 ) ) ;
#132 = EDGE_LOOP ( 'NONE', ( #834, #337 ) ) ;
#133 = CARTESIAN_POINT ( 'NONE',  ( -2.099872945368625121, 0.000000000000000000, 5.139000000000000234 ) ) ;
#134 = DATE_TIME_ROLE ( 'creation_date' ) ;
#135 = EDGE_LOOP ( 'NONE', ( #227, #320, #1076, #609 ) ) ;
#136 = CARTESIAN_POINT ( 'NONE',  ( 0.000000000000000000, 0.000000000000000000, 8.673617379884035472E-16 ) ) ;
#137 = EDGE_CURVE ( 'NONE', #84, #53, #398, .T. ) ;
#138 = LOCAL_TIME ( 14, 24, 44.00000000000000000, #253 ) ;
#139 = FACE_OUTER_BOUND ( 'NONE', #1084, .T. ) ;
#140 = AXIS2_PLACEMENT_3D ( 'NONE', #692, #858, #765 ) ;
#141 = APPROVAL_STATUS ( 'not_yet_approved' ) ;
#142 = ORIENTED_EDGE ( 'NONE', *, *, #1148, .F. ) ;
#143 = VECTOR ( 'NONE', #727, 1000.000000000000000 ) ;
#144 = CARTESIAN_POINT ( 'NONE',  ( 1.699929784105535635, -0.1740695435784844480, -4.358070756352139696 ) ) ;
#145 = CARTESIAN_POINT ( 'NONE',  ( -1.543965832612166356, -2.979424435899316936, -2.058684929104305450 ) ) ;
#146 = EDGE_CURVE ( 'NONE', #433, #420, #1035, .T. ) ;
#147 = CARTESIAN_POINT ( 'NONE',  ( 1.750000000000000000, -1.114955156048887730, -3.174999999999999822 ) ) ;
#148 = VERTEX_POINT ( 'NONE', #1137 ) ;
#149 = FACE_OUTER_BOUND ( 'NONE', #872, .T. ) ;
#150 = CARTESIAN_POINT ( 'NONE',  ( -1.750000000000000000, -2.582918713489515739, -2.949023893760703174 ) ) ;
#151 = PRODUCT_RELATED_PRODUCT_CATEGORY ( 'detail', '', ( #70 ) ) ;
#152 = ORIENTED_EDGE ( 'NONE', *, *, #1045, .T. ) ;
#153 = CARTESIAN_POINT ( 'NONE',  ( -0.6331429140605493444, -3.174999999999999822, 4.139000000000000234 ) ) ;
#154 = PLANE ( 'NONE',  #461 ) ;
#155 = CARTESIAN_POINT ( 'NONE',  ( 0.4980973490458732167, 2.040073290564206943, 2.595422128626173830 ) ) ;
#156 = CARTESIAN_POINT ( 'NONE',  ( -0.6331429140605493444, 2.002281211612124245, 4.139000000000000234 ) ) ;
#157 = CIRCLE ( 'NONE', #1126, 2.100000000000000089 ) ;
#158 = CARTESIAN_POINT ( 'NONE',  ( 1.535569587899247690, -2.979513055703983060, -2.064749864320492900 ) ) ;
#159 = CARTESIAN_POINT ( 'NONE',  ( 0.1236690215010803201, -2.099990463092003878, 2.139040055015565489 ) ) ;
#160 = EDGE_CURVE ( 'NONE', #84, #2, #690, .T. ) ;
#161 = DIRECTION ( 'NONE',  ( 0.000000000000000000, 0.08715574274765829077, 0.9961946980917455452 ) ) ;
#162 = CARTESIAN_POINT ( 'NONE',  ( 5.434281881165725636, 2.717140940582646547, -4.583932990539880237 ) ) ;
#163 = CARTESIAN_POINT ( 'NONE',  ( -0.1236690215010801536, 2.099990463092004322, 2.139040055015565933 ) ) ;
#164 = CARTESIAN_POINT ( 'NONE',  ( 1.830726609818730477, 0.7539137548047384341, -5.750508500680050261 ) ) ;
#165 = ORIENTED_EDGE ( 'NONE', *, *, #1045, .F. ) ;
#166 = CARTESIAN_POINT ( 'NONE',  ( 0.4000000000000001887, -2.061423388508800247, 5.138999999999999346 ) ) ;
#167 = CARTESIAN_POINT ( 'NONE',  ( -0.4000000000000000222, 2.264950330581225302, 4.523072258617639285 ) ) ;
#168 = CARTESIAN_POINT ( 'NONE',  ( 0.4000000000000000222, 2.061552812808830737, 4.439000000000000057 ) ) ;
#169 = ADVANCED_FACE ( 'NONE', ( #139 ), #946, .F. ) ;
#170 = CARTESIAN_POINT ( 'NONE',  ( 0.6091160902033718738, -3.484586358654222948, -1.218951644741486540 ) ) ;
#171 = LOCAL_TIME ( 14, 24, 44.00000000000000000, #601 ) ;
#172 =( BOUNDED_CURVE ( )  B_SPLINE_CURVE ( 3, ( #574, #836, #65, #339 ),
 .UNSPECIFIED., .F., .T. ) 
 B_SPLINE_CURVE_WITH_KNOTS ( ( 4, 4 ),
 ( 4.406127048421351944, 4.472917508490047211 ),
 .UNSPECIFIED. ) 
 CURVE ( )  GEOMETRIC_REPRESENTATION_ITEM ( )  RATIONAL_B_SPLINE_CURVE ( ( 1.000000000000000000, 0.9996282874180153488, 0.9996282874180153488, 1.000000000000000000 ) ) 
 REPRESENTATION_ITEM ( '' )  );
#173 = AXIS2_PLACEMENT_3D ( 'NONE', #587, #120, #1034 ) ;
#174 = ORIENTED_EDGE ( 'NONE', *, *, #218, .F. ) ;
#175 = CARTESIAN_POINT ( 'NONE',  ( -0.9287841601273830738, -3.377763705481236833, -1.386203369019703313 ) ) ;
#176 = ADVANCED_FACE ( 'NONE', ( #682 ), #941, .T. ) ;
#177 = AXIS2_PLACEMENT_3D ( 'NONE', #992, #376, #738 ) ;
#178 = DIRECTION ( 'NONE',  ( -1.000000000000000000, 0.000000000000000000, 0.000000000000000000 ) ) ;
#179 = DIRECTION ( 'NONE',  ( 1.000000000000000000, 0.000000000000000000, -0.000000000000000000 ) ) ;
#180 = ORIENTED_EDGE ( 'NONE', *, *, #1052, .T. ) ;
#181 = ADVANCED_BREP_SHAPE_REPRESENTATION ( '228-2500-1853', ( #790, #416 ), #916 ) ;
#182 = EDGE_LOOP ( 'NONE', ( #1054, #191, #1062, #647 ) ) ;
#183 = CARTESIAN_POINT ( 'NONE',  ( -0.8258482067032367757, -3.418162335617343839, -1.322550805109854233 ) ) ;
#184 = ORIENTED_EDGE ( 'NONE', *, *, #226, .T. ) ;
#185 = CC_DESIGN_DATE_AND_TIME_ASSIGNMENT ( #301, #134, ( #802 ) ) ;
#186 = CARTESIAN_POINT ( 'NONE',  ( -0.4000000000000000222, -2.264950330581225302, 4.523072258617639285 ) ) ;
#187 = VERTEX_POINT ( 'NONE', #677 ) ;
#188 = CARTESIAN_POINT ( 'NONE',  ( 0.000000000000000000, 1.895300620090265786, -5.874386325765247996 ) ) ;
#189 = ORIENTED_EDGE ( 'NONE', *, *, #516, .F. ) ;
#190 = DIRECTION ( 'NONE',  ( 0.000000000000000000, 0.08715574274765847118, 0.9961946980917454342 ) ) ;
#191 = ORIENTED_EDGE ( 'NONE', *, *, #964, .F. ) ;
#192 = CIRCLE ( 'NONE', #83, 2.299999999999999822 ) ;
#193 = EDGE_CURVE ( 'NONE', #1101, #44, #809, .T. ) ;
#194 = DIRECTION ( 'NONE',  ( 1.000000000000000000, 0.000000000000000000, 0.000000000000000000 ) ) ;
#195 = CONICAL_SURFACE ( 'NONE', #355, 2.100000000000000089, 1.172861257340191976 ) ;
#196 = FACE_OUTER_BOUND ( 'NONE', #654, .T. ) ;
#197 = VECTOR ( 'NONE', #675, 1000.000000000000000 ) ;
#198 = ORIENTED_EDGE ( 'NONE', *, *, #516, .T. ) ;
#199 = VERTEX_POINT ( 'NONE', #1066 ) ;
#200 = DIRECTION ( 'NONE',  ( 0.000000000000000000, 0.000000000000000000, 1.000000000000000000 ) ) ;
#201 = EDGE_CURVE ( 'NONE', #187, #1099, #157, .T. ) ;
#202 = CARTESIAN_POINT ( 'NONE',  ( -0.8547053895798837342, 1.727820230171145832, -5.835714276609097695 ) ) ;
#203 =( NAMED_UNIT ( * ) PLANE_ANGLE_UNIT ( ) SI_UNIT ( $, .RADIAN. ) );
#204 = ORIENTED_EDGE ( 'NONE', *, *, #773, .T. ) ;
#205 = CARTESIAN_POINT ( 'NONE',  ( 0.7977463030637189645, 0.9186741916082116211, -4.860032396180709924 ) ) ;
#206 = LINE ( 'NONE', #853, #81 ) ;
#207 = LINE ( 'NONE', #760, #215 ) ;
#208 = CARTESIAN_POINT ( 'NONE',  ( -1.750000000000000000, -2.582918713489515739, -2.949023893760703174 ) ) ;
#209 = ORIENTED_EDGE ( 'NONE', *, *, #340, .T. ) ;
#210 = FACE_OUTER_BOUND ( 'NONE', #1107, .T. ) ;
#211 = B_SPLINE_CURVE_WITH_KNOTS ( 'NONE', 3,
 ( #618, #635, #541, #624 ),
 .UNSPECIFIED., .F., .F.,
 ( 4, 4 ),
 ( 0.003110171547250671544, 0.003758849537120528047 ),
 .UNSPECIFIED. ) ;
#212 = FACE_OUTER_BOUND ( 'NONE', #109, .T. ) ;
#213 = AXIS2_PLACEMENT_3D ( 'NONE', #449, #330, #257 ) ;
#214 = CARTESIAN_POINT ( 'NONE',  ( 1.750000000000000000, -0.7159867059150192281, -5.621908873855535838 ) ) ;
#215 = VECTOR ( 'NONE', #850, 1000.000000000000000 ) ;
#216 = CIRCLE ( 'NONE', #1075, 1.114955156048887286 ) ;
#217 = DIRECTION ( 'NONE',  ( -0.000000000000000000, -0.000000000000000000, 1.000000000000000000 ) ) ;
#218 = EDGE_CURVE ( 'NONE', #1151, #528, #394, .T. ) ;
#219 = CARTESIAN_POINT ( 'NONE',  ( 2.100000000000000089, 2.571758278209441957E-16, 4.439000000000000057 ) ) ;
#220 = ORIENTED_EDGE ( 'NONE', *, *, #1148, .T. ) ;
#221 = CARTESIAN_POINT ( 'NONE',  ( 0.000000000000000000, -0.8923814506468883412, -7.638110032073035072 ) ) ;
#222 = AXIS2_PLACEMENT_3D ( 'NONE', #1040, #938, #742 ) ;
#223 = CARTESIAN_POINT ( 'NONE',  ( 0.000000000000000000, 0.000000000000000000, 4.139000000000000234 ) ) ;
#224 = CARTESIAN_POINT ( 'NONE',  ( 0.000000000000000000, 1.909724419751212210, -5.851628831045224466 ) ) ;
#225 =( NAMED_UNIT ( * ) SI_UNIT ( $, .STERADIAN. ) SOLID_ANGLE_UNIT ( ) );
#226 = EDGE_CURVE ( 'NONE', #199, #1008, #988, .T. ) ;
#227 = ORIENTED_EDGE ( 'NONE', *, *, #542, .F. ) ;
#228 = CARTESIAN_POINT ( 'NONE',  ( 1.749999999999999334, -1.288753246014498810, -5.412305903748964475 ) ) ;
#229 = CARTESIAN_POINT ( 'NONE',  ( 9.184850993605313605E-16, 3.749999999999999556, 1.734723475976807094E-15 ) ) ;
#230 = DIRECTION ( 'NONE',  ( -0.000000000000000000, -0.000000000000000000, -1.000000000000000000 ) ) ;
#231 = ORIENTED_EDGE ( 'NONE', *, *, #764, .F. ) ;
#232 = DIRECTION ( 'NONE',  ( 0.000000000000000000, 0.08715574274765829077, 0.9961946980917455452 ) ) ;
#233 = EDGE_CURVE ( 'NONE', #948, #187, #57, .T. ) ;
#234 = DIRECTION ( 'NONE',  ( -0.000000000000000000, -0.000000000000000000, -1.000000000000000000 ) ) ;
#235 = ORGANIZATION ( 'UNSPECIFIED', 'UNSPECIFIED', '' ) ;
#236 = CARTESIAN_POINT ( 'NONE',  ( 0.000000000000000000, 0.000000000000000000, 4.439000000000000057 ) ) ;
#237 = AXIS2_PLACEMENT_3D ( 'NONE', #1136, #51, #432 ) ;
#238 = APPROVAL_DATE_TIME ( #450, #368 ) ;
#239 = EDGE_LOOP ( 'NONE', ( #382, #66, #707, #710 ) ) ;
#240 = AXIS2_PLACEMENT_3D ( 'NONE', #740, #549, #362 ) ;
#241 = CARTESIAN_POINT ( 'NONE',  ( 0.4286119346557871190, -2.057850353472996385, 2.353605336466521702 ) ) ;
#242 = CONICAL_SURFACE ( 'NONE', #849, 2.100000000000000089, 1.172861257340191976 ) ;
#243 = CC_DESIGN_PERSON_AND_ORGANIZATION_ASSIGNMENT ( #530, #58, ( #824 ) ) ;
#244 = LINE ( 'NONE', #535, #999 ) ;
#245 = ORIENTED_EDGE ( 'NONE', *, *, #852, .T. ) ;
#246 = DIRECTION ( 'NONE',  ( -0.000000000000000000, 1.000000000000000000, 0.000000000000000000 ) ) ;
#247 = APPROVAL_ROLE ( '' ) ;
#248 = VERTEX_POINT ( 'NONE', #156 ) ;
#249 = FACE_OUTER_BOUND ( 'NONE', #683, .T. ) ;
#250 = B_SPLINE_CURVE_WITH_KNOTS ( 'NONE', 3,
 ( #930, #304, #405, #315, #131, #509, #669, #40 ),
 .UNSPECIFIED., .F., .F.,
 ( 4, 2, 2, 4 ),
 ( 0.001261898943478841073, 0.002028168875904008510, 0.002794438808329175947, 0.004326978673179510820 ),
 .UNSPECIFIED. ) ;
#251 = LINE ( 'NONE', #887, #1164 ) ;
#252 = CARTESIAN_POINT ( 'NONE',  ( -4.521296021165095544E-16, -3.691918375414852793, -0.3785782003216713321 ) ) ;
#253 = COORDINATED_UNIVERSAL_TIME_OFFSET ( 6, 0, .BEHIND. ) ;
#254 = CARTESIAN_POINT ( 'NONE',  ( 0.000000000000000000, 0.000000000000000000, 4.523072258617639285 ) ) ;
#255 = DIRECTION ( 'NONE',  ( 0.000000000000000000, 0.08715574274765847118, 0.9961946980917454342 ) ) ;
#256 = VERTEX_POINT ( 'NONE', #625 ) ;
#257 = DIRECTION ( 'NONE',  ( 1.000000000000000000, 0.000000000000000000, 0.000000000000000000 ) ) ;
#258 = LOCAL_TIME ( 14, 24, 44.00000000000000000, #871 ) ;
#259 = ORIENTED_EDGE ( 'NONE', *, *, #363, .T. ) ;
#260 = AXIS2_PLACEMENT_3D ( 'NONE', #996, #931, #127 ) ;
#261 = DIRECTION ( 'NONE',  ( -0.000000000000000000, -0.000000000000000000, -1.000000000000000000 ) ) ;
#262 = CC_DESIGN_PERSON_AND_ORGANIZATION_ASSIGNMENT ( #576, #502, ( #70 ) ) ;
#263 = DIRECTION ( 'NONE',  ( 0.000000000000000000, 0.000000000000000000, 1.000000000000000000 ) ) ;
#264 = CARTESIAN_POINT ( 'NONE',  ( -5.434281881165294870, -2.717140940582647435, -4.583932990539880237 ) ) ;
#265 = CARTESIAN_POINT ( 'NONE',  ( 1.750000000000000000, -2.582918713489516627, -2.949023893760702730 ) ) ;
#266 = CARTESIAN_POINT ( 'NONE',  ( 0.1233449203368014863, 2.100009524403048111, 2.138959997505217814 ) ) ;
#267 = EDGE_CURVE ( 'NONE', #38, #954, #914, .T. ) ;
#268 = EDGE_CURVE ( 'NONE', #954, #38, #529, .T. ) ;
#269 = CARTESIAN_POINT ( 'NONE',  ( -4.592425496802573972E-16, -3.749999999999999556, 1.734723475976807094E-15 ) ) ;
#270 = LINE ( 'NONE', #638, #735 ) ;
#271 = DIRECTION ( 'NONE',  ( 0.000000000000000000, -0.9961946980917455452, 0.08715574274765847118 ) ) ;
#272 = ORIENTED_EDGE ( 'NONE', *, *, #431, .F. ) ;
#273 = CARTESIAN_POINT ( 'NONE',  ( -2.800803085042443579E-13, -3.557648069663811974, -1.107061409388670592 ) ) ;
#274 = ADVANCED_FACE ( 'NONE', ( #336 ), #195, .T. ) ;
#275 = B_SPLINE_CURVE_WITH_KNOTS ( 'NONE', 3,
 ( #458, #771, #793, #446, #170, #343, #548, #972, #439, #158, #630, #322, #634, #265 ),
 .UNSPECIFIED., .F., .F.,
 ( 4, 2, 2, 2, 2, 2, 4 ),
 ( 0.002987488256297597677, 0.003359910469655097171, 0.003732332683012597099, 0.004477177109727595652, 0.004849599323085095580, 0.005222021536442595507, 0.005966865963157596230 ),
 .UNSPECIFIED. ) ;
#276 = DIRECTION ( 'NONE',  ( 0.000000000000000000, 4.440892098500626162E-15, 1.000000000000000000 ) ) ;
#277 = CARTESIAN_POINT ( 'NONE',  ( -1.750000000000000000, -1.110712415065956638, -3.077825255244228231 ) ) ;
#278 = ORIENTED_EDGE ( 'NONE', *, *, #406, .T. ) ;
#279 = VECTOR ( 'NONE', #349, 1000.000000000000000 ) ;
#280 = VERTEX_POINT ( 'NONE', #147 ) ;
#281 = CARTESIAN_POINT ( 'NONE',  ( 0.000000000000000000, 0.000000000000000000, -3.174999999999999822 ) ) ;
#282 = VECTOR ( 'NONE', #393, 1000.000000000000227 ) ;
#283 = ORIENTED_EDGE ( 'NONE', *, *, #547, .F. ) ;
#284 = CYLINDRICAL_SURFACE ( 'NONE', #1038, 1.750000000000000222 ) ;
#285 = ORIENTED_EDGE ( 'NONE', *, *, #671, .F. ) ;
#286 = FACE_OUTER_BOUND ( 'NONE', #751, .T. ) ;
#287 = DESIGN_CONTEXT ( 'detailed design', #95, 'design' ) ;
#288 = VERTEX_POINT ( 'NONE', #522 ) ;
#289 = ADVANCED_FACE ( 'NONE', ( #52 ), #784, .F. ) ;
#290 = CARTESIAN_POINT ( 'NONE',  ( 0.4980973490458732167, -3.174999999999999822, 2.595422128626173830 ) ) ;
#291 = VERTEX_POINT ( 'NONE', #1105 ) ;
#292 = CARTESIAN_POINT ( 'NONE',  ( -0.4000000000000000222, 2.264950330581225302, 4.523072258617639285 ) ) ;
#293 = DIRECTION ( 'NONE',  ( -0.000000000000000000, -0.000000000000000000, -1.000000000000000000 ) ) ;
#294 = CARTESIAN_POINT ( 'NONE',  ( 0.000000000000000000, 0.000000000000000000, 4.439000000000000057 ) ) ;
#295 = EDGE_CURVE ( 'NONE', #646, #698, #672, .T. ) ;
#296 = ORIENTED_EDGE ( 'NONE', *, *, #547, .T. ) ;
#297 = DIRECTION ( 'NONE',  ( -0.000000000000000000, 0.9961946980917455452, -0.08715574274765836016 ) ) ;
#298 = CIRCLE ( 'NONE', #753, 3.174999999999999822 ) ;
#299 = DIRECTION ( 'NONE',  ( 1.000000000000000000, 0.000000000000000000, -0.000000000000000000 ) ) ;
#300 = AXIS2_PLACEMENT_3D ( 'NONE', #629, #952, #976 ) ;
#301 = DATE_AND_TIME ( #1109, #1033 ) ;
#302 = ORIENTED_EDGE ( 'NONE', *, *, #886, .T. ) ;
#303 = CARTESIAN_POINT ( 'NONE',  ( -1.097014696641481768, 0.7311702760114133781, -4.781721022025171131 ) ) ;
#304 = CARTESIAN_POINT ( 'NONE',  ( -1.750000000000000000, -1.287531180946130505, -5.413449492654545558 ) ) ;
#305 = DIRECTION ( 'NONE',  ( 0.000000000000000000, 0.000000000000000000, 1.000000000000000000 ) ) ;
#306 = DIRECTION ( 'NONE',  ( -1.000000000000000000, 0.000000000000000000, 0.000000000000000000 ) ) ;
#307 = ORIENTED_EDGE ( 'NONE', *, *, #1025, .T. ) ;
#308 = CARTESIAN_POINT ( 'NONE',  ( 1.740142214401936283, -0.3796054690114588070, -4.246224837734476232 ) ) ;
#309 = CARTESIAN_POINT ( 'NONE',  ( -2.299999999999999822, 0.000000000000000000, 4.523072258617639285 ) ) ;
#310 = EDGE_CURVE ( 'NONE', #256, #674, #934, .T. ) ;
#311 = CARTESIAN_POINT ( 'NONE',  ( -2.014972688945593671, -0.2699718108489968516, -5.660930120937513799 ) ) ;
#312 = DATE_AND_TIME ( #43, #171 ) ;
#313 = ORIENTED_EDGE ( 'NONE', *, *, #456, .F. ) ;
#314 = CARTESIAN_POINT ( 'NONE',  ( 0.000000000000000000, -1.110712415065956638, -3.077825255244228231 ) ) ;
#315 = CARTESIAN_POINT ( 'NONE',  ( -1.749999999999999778, -1.743146153627046724, -4.794065660940412421 ) ) ;
#316 = AXIS2_PLACEMENT_3D ( 'NONE', #236, #791, #1053 ) ;
#317 = CIRCLE ( 'NONE', #1166, 3.174999999999999822 ) ;
#318 = CARTESIAN_POINT ( 'NONE',  ( 0.000000000000000000, 3.360699637737184275, -2.537474314513599172 ) ) ;
#319 = B_SPLINE_CURVE_WITH_KNOTS ( 'NONE', 3,
 ( #167, #88, #817, #459 ),
 .UNSPECIFIED., .F., .F.,
 ( 4, 4 ),
 ( 0.002832913685900422668, 0.003481596577318057072 ),
 .UNSPECIFIED. ) ;
#320 = ORIENTED_EDGE ( 'NONE', *, *, #146, .T. ) ;
#321 = CARTESIAN_POINT ( 'NONE',  ( 1.750000000000000666, -2.225731706343529126, -3.899858772537863061 ) ) ;
#322 = CARTESIAN_POINT ( 'NONE',  ( 1.706024479318319242, -2.766192099977552221, -2.484655159196412111 ) ) ;
#323 = CARTESIAN_POINT ( 'NONE',  ( 2.100000000000000089, 0.000000000000000000, 4.439000000000000057 ) ) ;
#324 = CARTESIAN_POINT ( 'NONE',  ( -0.1773374421844961524, 1.909724419751212432, -5.851628831045223578 ) ) ;
#325 = APPROVAL_DATE_TIME ( #775, #334 ) ;
#326 = VERTEX_POINT ( 'NONE', #214 ) ;
#327 = EDGE_CURVE ( 'NONE', #730, #528, #1, .T. ) ;
#328 = CARTESIAN_POINT ( 'NONE',  ( 1.094050698570674163, 0.7334977087970349086, -4.782709622344403222 ) ) ;
#329 = VECTOR ( 'NONE', #297, 1000.000000000000000 ) ;
#330 = DIRECTION ( 'NONE',  ( -0.000000000000000000, -0.000000000000000000, 1.000000000000000000 ) ) ;
#331 = LINE ( 'NONE', #506, #956 ) ;
#332 = ORIENTED_EDGE ( 'NONE', *, *, #465, .T. ) ;
#333 = CARTESIAN_POINT ( 'NONE',  ( 0.4871800118523830769, 2.042738830444500664, 2.470636393497688044 ) ) ;
#334 = APPROVAL ( #512, 'UNSPECIFIED' ) ;
#335 = ORIENTED_EDGE ( 'NONE', *, *, #906, .F. ) ;
#336 = FACE_OUTER_BOUND ( 'NONE', #90, .T. ) ;
#337 = ORIENTED_EDGE ( 'NONE', *, *, #764, .T. ) ;
#338 = DIRECTION ( 'NONE',  ( -0.9961946980917461003, 0.000000000000000000, -0.08715574274765165719 ) ) ;
#339 = CARTESIAN_POINT ( 'NONE',  ( -0.4980973490458727726, 2.040073290564207831, 2.595422128626173830 ) ) ;
#340 = EDGE_CURVE ( 'NONE', #1151, #1011, #1131, .T. ) ;
#341 = DIRECTION ( 'NONE',  ( -0.000000000000000000, -0.000000000000000000, -1.000000000000000000 ) ) ;
#342 = EDGE_LOOP ( 'NONE', ( #1139, #438, #313 ) ) ;
#343 = CARTESIAN_POINT ( 'NONE',  ( 0.9354771550366306476, -3.384489603570655536, -1.375074422514645178 ) ) ;
#344 = CARTESIAN_POINT ( 'NONE',  ( -0.4980973490458727726, 2.040073290564207831, 2.595422128626173830 ) ) ;
#345 = ORIENTED_EDGE ( 'NONE', *, *, #92, .F. ) ;
#346 = CARTESIAN_POINT ( 'NONE',  ( 0.6331429140605492334, 2.002281211612124245, 4.139000000000000234 ) ) ;
#347 = EDGE_CURVE ( 'NONE', #248, #79, #172, .T. ) ;
#348 = CARTESIAN_POINT ( 'NONE',  ( 5.434281881165510697, -2.717140940583078645, -4.583932990539880237 ) ) ;
#349 = DIRECTION ( 'NONE',  ( -0.000000000000000000, -0.000000000000000000, -1.000000000000000000 ) ) ;
#350 = CARTESIAN_POINT ( 'NONE',  ( 1.547384457230518429, 1.197083588477426908, -5.789280837143076397 ) ) ;
#351 = EDGE_LOOP ( 'NONE', ( #918, #688, #640, #739, #1037, #623 ) ) ;
#352 = AXIS2_PLACEMENT_3D ( 'NONE', #69, #426, #800 ) ;
#353 = ADVANCED_FACE ( 'NONE', ( #196 ), #708, .F. ) ;
#354 = APPROVAL_PERSON_ORGANIZATION ( #37, #586, #761 ) ;
#355 = AXIS2_PLACEMENT_3D ( 'NONE', #67, #960, #622 ) ;
#356 = DIRECTION ( 'NONE',  ( 1.000000000000000000, 0.000000000000000000, 0.000000000000000000 ) ) ;
#357 = CARTESIAN_POINT ( 'NONE',  ( 0.2470917478819855129, -2.087439085565598429, 2.187221323398957473 ) ) ;
#358 = CONICAL_SURFACE ( 'NONE', #64, 2.100000000000000089, 1.172861257340191976 ) ;
#359 = CARTESIAN_POINT ( 'NONE',  ( -6.716554814307944099, 3.358277407153973382, -2.553262504005645805 ) ) ;
#360 = ORIENTED_EDGE ( 'NONE', *, *, #267, .T. ) ;
#361 = CARTESIAN_POINT ( 'NONE',  ( 6.716554814308477894, 3.358277407153971605, -2.553262504005645805 ) ) ;
#362 = DIRECTION ( 'NONE',  ( 1.000000000000000000, 0.000000000000000000, 0.000000000000000000 ) ) ;
#363 = EDGE_CURVE ( 'NONE', #374, #256, #1146, .T. ) ;
#364 = CARTESIAN_POINT ( 'NONE',  ( 1.899159650056764681, 0.5895995799829084616, -5.736132873126519982 ) ) ;
#365 = ORIENTED_EDGE ( 'NONE', *, *, #485, .F. ) ;
#366 = CARTESIAN_POINT ( 'NONE',  ( 0.4000000000000000222, -2.264950330581225302, 4.523072258617639285 ) ) ;
#367 = ORIENTED_EDGE ( 'NONE', *, *, #1065, .T. ) ;
#368 = APPROVAL ( #141, 'UNSPECIFIED' ) ;
#369 = ORIENTED_EDGE ( 'NONE', *, *, #1079, .F. ) ;
#370 = CARTESIAN_POINT ( 'NONE',  ( -7.499999999999996447, 3.749999999999999556, 1.734723475976807094E-15 ) ) ;
#371 = ORIENTED_EDGE ( 'NONE', *, *, #1112, .F. ) ;
#372 = DIRECTION ( 'NONE',  ( 0.000000000000000000, 0.000000000000000000, 1.000000000000000000 ) ) ;
#373 = CIRCLE ( 'NONE', #1056, 1.114955156048887730 ) ;
#374 = VERTEX_POINT ( 'NONE', #704 ) ;
#375 = AXIS2_PLACEMENT_3D ( 'NONE', #997, #907, #179 ) ;
#376 = DIRECTION ( 'NONE',  ( 0.000000000000000000, 0.000000000000000000, -1.000000000000000000 ) ) ;
#377 = B_SPLINE_CURVE_WITH_KNOTS ( 'NONE', 3,
 ( #344, #706, #712, #1068, #163, #266, #525, #985, #333, #694 ),
 .UNSPECIFIED., .F., .F.,
 ( 4, 2, 2, 2, 4 ),
 ( 0.000000000000000000, 0.0003704147845104414265, 0.0007408295690208828530, 0.001111244353531324388, 0.001481659138041765706 ),
 .UNSPECIFIED. ) ;
#378 = EDGE_CURVE ( 'NONE', #2, #488, #251, .T. ) ;
#379 = VERTEX_POINT ( 'NONE', #422 ) ;
#380 = DIRECTION ( 'NONE',  ( -0.000000000000000000, 1.000000000000000000, -0.000000000000000000 ) ) ;
#381 = ORIENTED_EDGE ( 'NONE', *, *, #662, .T. ) ;
#382 = ORIENTED_EDGE ( 'NONE', *, *, #456, .T. ) ;
#383 = CARTESIAN_POINT ( 'NONE',  ( 0.000000000000000000, 0.000000000000000000, 4.439000000000000057 ) ) ;
#384 = EDGE_CURVE ( 'NONE', #948, #476, #526, .T. ) ;
#385 = ORIENTED_EDGE ( 'NONE', *, *, #870, .F. ) ;
#386 = CARTESIAN_POINT ( 'NONE',  ( 0.000000000000000000, -0.7159867059150187840, -5.621908873855534949 ) ) ;
#387 = DIRECTION ( 'NONE',  ( 0.000000000000000000, 0.000000000000000000, 1.000000000000000000 ) ) ;
#388 = ORIENTED_EDGE ( 'NONE', *, *, #572, .T. ) ;
#389 = CARTESIAN_POINT ( 'NONE',  ( -1.750000000000000000, -1.114955156048887730, -3.174999999999999822 ) ) ;
#390 = APPROVAL_STATUS ( 'not_yet_approved' ) ;
#391 = ORIENTED_EDGE ( 'NONE', *, *, #1141, .F. ) ;
#392 = CARTESIAN_POINT ( 'NONE',  ( 1.750000000000000000, 0.000000000000000000, -3.174999999999999822 ) ) ;
#393 = DIRECTION ( 'NONE',  ( -0.3090169943749450643, 0.000000000000000000, -0.9510565162951543083 ) ) ;
#394 = CIRCLE ( 'NONE', #316, 2.100000000000000089 ) ;
#395 = CARTESIAN_POINT ( 'NONE',  ( -1.546859869599783943, 1.197701810007679724, -5.789334924518523273 ) ) ;
#396 = DIRECTION ( 'NONE',  ( 1.000000000000000000, 0.000000000000000000, 0.000000000000000000 ) ) ;
#397 = ORIENTED_EDGE ( 'NONE', *, *, #572, .F. ) ;
#398 =( BOUNDED_CURVE ( )  B_SPLINE_CURVE ( 3, ( #224, #418, #318, #600 ),
 .UNSPECIFIED., .F., .T. ) 
 B_SPLINE_CURVE_WITH_KNOTS ( ( 4, 4 ),
 ( 0.4794305714850625733, 1.133201251008030264 ),
 .UNSPECIFIED. ) 
 CURVE ( )  GEOMETRIC_REPRESENTATION_ITEM ( )  RATIONAL_B_SPLINE_CURVE ( ( 1.000000000000000000, 0.9646980246711210905, 0.9646980246711210905, 1.000000000000000000 ) ) 
 REPRESENTATION_ITEM ( '' )  );
#399 = CARTESIAN_POINT ( 'NONE',  ( 1.749999999999870548, -1.744819443855408547, -4.791293935086723188 ) ) ;
#400 = EDGE_CURVE ( 'NONE', #280, #288, #642, .T. ) ;
#401 = CARTESIAN_POINT ( 'NONE',  ( 1.750000000000000000, -4.443370011459320423, -2.786255496146254007 ) ) ;
#402 = DIRECTION ( 'NONE',  ( -1.000000000000000000, 0.000000000000000000, 0.000000000000000000 ) ) ;
#403 = ORIENTED_EDGE ( 'NONE', *, *, #1120, .T. ) ;
#404 = CARTESIAN_POINT ( 'NONE',  ( -0.9063073342492836693, 0.8600603528090607908, -4.835875331022632118 ) ) ;
#405 = CARTESIAN_POINT ( 'NONE',  ( -1.750000000000000222, -1.448993326293495976, -5.215683910207030927 ) ) ;
#406 = EDGE_CURVE ( 'NONE', #730, #1011, #435, .T. ) ;
#407 = B_SPLINE_CURVE_WITH_KNOTS ( 'NONE', 3,
 ( #1114, #505, #945, #758 ),
 .UNSPECIFIED., .F., .F.,
 ( 4, 4 ),
 ( 0.003110171547250671544, 0.003758849537120528047 ),
 .UNSPECIFIED. ) ;
#408 = CARTESIAN_POINT ( 'NONE',  ( -1.831038141925660501, 0.7535751150426369671, -5.750478873539843327 ) ) ;
#409 = PERSON_AND_ORGANIZATION_ROLE ( 'creator' ) ;
#410 = EDGE_LOOP ( 'NONE', ( #560, #483 ) ) ;
#411 = CARTESIAN_POINT ( 'NONE',  ( -1.750000000000089040, -0.3814360295368808829, -4.249607421616025782 ) ) ;
#412 = FACE_OUTER_BOUND ( 'NONE', #582, .T. ) ;
#413 = VECTOR ( 'NONE', #246, 1000.000000000000000 ) ;
#414 = CARTESIAN_POINT ( 'NONE',  ( 0.4000000000000000222, 2.061552812808830737, 4.439000000000000057 ) ) ;
#415 = EDGE_CURVE ( 'NONE', #429, #187, #726, .T. ) ;
#416 = AXIS2_PLACEMENT_3D ( 'NONE', #588, #121, #396 ) ;
#417 = ORIENTED_EDGE ( 'NONE', *, *, #650, .F. ) ;
#418 = CARTESIAN_POINT ( 'NONE',  ( 0.000000000000000000, 2.724826879911866673, -4.559395054267066705 ) ) ;
#419 = APPROVAL_ROLE ( '' ) ;
#420 = VERTEX_POINT ( 'NONE', #1070 ) ;
#421 = CARTESIAN_POINT ( 'NONE',  ( 1.750000000000000000, -2.582918713489516627, -2.949023893760702730 ) ) ;
#422 = CARTESIAN_POINT ( 'NONE',  ( -0.6331429140605493444, -2.002281211612123801, 4.139000000000000234 ) ) ;
#423 = DIRECTION ( 'NONE',  ( 1.000000000000000000, 0.000000000000000000, 0.000000000000000000 ) ) ;
#424 = ADVANCED_FACE ( 'NONE', ( #543 ), #733, .T. ) ;
#425 = ORIENTED_EDGE ( 'NONE', *, *, #671, .T. ) ;
#426 = DIRECTION ( 'NONE',  ( 1.000000000000000000, 0.000000000000000000, -0.000000000000000000 ) ) ;
#427 = CARTESIAN_POINT ( 'NONE',  ( -1.427994689627262614, -3.088757255594567042, -1.864893809684650572 ) ) ;
#428 = CARTESIAN_POINT ( 'NONE',  ( -4.592425496802573972E-16, -3.749999999999999556, 1.734723475976807094E-15 ) ) ;
#429 = VERTEX_POINT ( 'NONE', #155 ) ;
#430 = CARTESIAN_POINT ( 'NONE',  ( -0.6331429140605493444, -3.174999999999999822, 4.139000000000000234 ) ) ;
#431 = EDGE_CURVE ( 'NONE', #1163, #8, #63, .T. ) ;
#432 = DIRECTION ( 'NONE',  ( 0.000000000000000000, -3.552713678800502507E-15, -1.000000000000000000 ) ) ;
#433 = VERTEX_POINT ( 'NONE', #969 ) ;
#434 = CARTESIAN_POINT ( 'NONE',  ( -4.442710431699784118E-16, -3.627748371851354570, -0.7479019417643507639 ) ) ;
#435 = CIRCLE ( 'NONE', #1089, 2.299999999999999822 ) ;
#436 = SECURITY_CLASSIFICATION_LEVEL ( 'unclassified' ) ;
#437 = CIRCLE ( 'NONE', #1128, 2.100000000000000089 ) ;
#438 = ORIENTED_EDGE ( 'NONE', *, *, #146, .F. ) ;
#439 = CARTESIAN_POINT ( 'NONE',  ( 1.419268693319671426, -3.086307489163944151, -1.871512719758473775 ) ) ;
#440 = B_SPLINE_CURVE_WITH_KNOTS ( 'NONE', 3,
 ( #478, #641, #89, #546, #94, #467, #1170, #364, #164, #823, #350, #723, #1006, #1080, #1085, #648, #1001, #729 ),
 .UNSPECIFIED., .F., .F.,
 ( 4, 2, 2, 2, 2, 2, 2, 2, 4 ),
 ( 0.008421504127842097814, 0.008945774728737608539, 0.009470045329633120998, 0.009994315930528631722, 0.01051858653142414245, 0.01104285713231965491, 0.01156712773321516563, 0.01209139833411067635, 0.01261566893500618881 ),
 .UNSPECIFIED. ) ;
#441 = DIRECTION ( 'NONE',  ( -1.000000000000000000, 0.000000000000000000, 0.000000000000000000 ) ) ;
#442 = EDGE_CURVE ( 'NONE', #420, #665, #244, .T. ) ;
#443 = CIRCLE ( 'NONE', #594, 2.100000000000000089 ) ;
#444 = DIRECTION ( 'NONE',  ( 0.000000000000000000, -1.000000000000000000, 0.000000000000000000 ) ) ;
#445 = ORIENTED_EDGE ( 'NONE', *, *, #632, .T. ) ;
#446 = CARTESIAN_POINT ( 'NONE',  ( 0.4917582482886019291, -3.511661059228323278, -1.177348753087157585 ) ) ;
#447 = DIRECTION ( 'NONE',  ( -0.000000000000000000, -0.000000000000000000, 1.000000000000000000 ) ) ;
#448 = ORIENTED_EDGE ( 'NONE', *, *, #964, .T. ) ;
#449 = CARTESIAN_POINT ( 'NONE',  ( 0.000000000000000000, 0.000000000000000000, 0.8890000000000000124 ) ) ;
#450 = DATE_AND_TIME ( #803, #258 ) ;
#451 = CARTESIAN_POINT ( 'NONE',  ( 0.4000000000000000222, 2.264950330581225302, 4.523072258617639285 ) ) ;
#452 = CARTESIAN_POINT ( 'NONE',  ( 0.000000000000000000, 0.000000000000000000, 0.8890000000000000124 ) ) ;
#453 = ORIENTED_EDGE ( 'NONE', *, *, #1096, .F. ) ;
#454 = PLANE ( 'NONE',  #177 ) ;
#455 = CC_DESIGN_APPROVAL ( #368, ( #824 ) ) ;
#456 = EDGE_CURVE ( 'NONE', #665, #433, #649, .T. ) ;
#457 = CIRCLE ( 'NONE', #101, 2.100000000000000089 ) ;
#458 = CARTESIAN_POINT ( 'NONE',  ( -2.800803085042443579E-13, -3.557648069663811974, -1.107061409388670592 ) ) ;
#459 = CARTESIAN_POINT ( 'NONE',  ( -0.4000000000000000222, 2.061423388508800247, 5.138999999999999346 ) ) ;
#460 = EDGE_LOOP ( 'NONE', ( #417, #365, #111, #785 ) ) ;
#461 = AXIS2_PLACEMENT_3D ( 'NONE', #1073, #806, #263 ) ;
#462 = VERTEX_POINT ( 'NONE', #517 ) ;
#463 = CARTESIAN_POINT ( 'NONE',  ( -0.4000000000000000222, -3.174999999999999822, 5.138999999999999346 ) ) ;
#464 = PLANE ( 'NONE',  #260 ) ;
#465 = EDGE_CURVE ( 'NONE', #724, #1082, #940, .T. ) ;
#466 = ORIENTED_EDGE ( 'NONE', *, *, #818, .F. ) ;
#467 = CARTESIAN_POINT ( 'NONE',  ( 2.013704378834935138, 0.07921505684397928126, -5.691480013312777864 ) ) ;
#468 = CARTESIAN_POINT ( 'NONE',  ( -1.750000000000171418, -1.100738071352511893, -5.588247491103635944 ) ) ;
#469 = LINE ( 'NONE', #290, #143 ) ;
#470 = ORIENTED_EDGE ( 'NONE', *, *, #870, .T. ) ;
#471 = CARTESIAN_POINT ( 'NONE',  ( -1.750000000000000000, -0.7159867059150192281, -5.621908873855535838 ) ) ;
#472 = UNCERTAINTY_MEASURE_WITH_UNIT (LENGTH_MEASURE( 1.000000000000000082E-05 ), #595, 'distance_accuracy_value', 'NONE');
#473 = VERTEX_POINT ( 'NONE', #801 ) ;
#474 = CARTESIAN_POINT ( 'NONE',  ( 0.4000000000000000222, -2.197165961088449748, 4.495012551953920799 ) ) ;
#475 = AXIS2_PLACEMENT_3D ( 'NONE', #1086, #96, #562 ) ;
#476 = VERTEX_POINT ( 'NONE', #1157 ) ;
#477 = VECTOR ( 'NONE', #91, 1000.000000000000000 ) ;
#478 = CARTESIAN_POINT ( 'NONE',  ( 1.750000000000000000, -1.100738071343660085, -5.588247491104408660 ) ) ;
#479 = ORIENTED_EDGE ( 'NONE', *, *, #831, .F. ) ;
#480 = CARTESIAN_POINT ( 'NONE',  ( 0.000000000000000000, 0.000000000000000000, 4.439000000000000057 ) ) ;
#481 = PERSON ( 'UNSPECIFIED', 'UNSPECIFIED', 'UNSPECIFIED', ('UNSPECIFIED'), ('UNSPECIFIED'), ('UNSPECIFIED') ) ;
#482 = ORIENTED_EDGE ( 'NONE', *, *, #1112, .T. ) ;
#483 = ORIENTED_EDGE ( 'NONE', *, *, #906, .T. ) ;
#484 = FACE_OUTER_BOUND ( 'NONE', #767, .T. ) ;
#485 = EDGE_CURVE ( 'NONE', #1169, #199, #981, .T. ) ;
#486 = CARTESIAN_POINT ( 'NONE',  ( 0.4000000000000000222, 2.264950330581225302, 4.523072258617639285 ) ) ;
#487 = ADVANCED_FACE ( 'NONE', ( #566, #904 ), #551, .F. ) ;
#488 = VERTEX_POINT ( 'NONE', #471 ) ;
#489 = DIRECTION ( 'NONE',  ( 0.000000000000000000, 0.000000000000000000, -1.000000000000000000 ) ) ;
#490 = DIRECTION ( 'NONE',  ( 1.000000000000000000, 0.000000000000000000, 0.000000000000000000 ) ) ;
#491 = CARTESIAN_POINT ( 'NONE',  ( -1.157415721266516373, 1.553372224770797283, -5.820452053761859368 ) ) ;
#492 = ADVANCED_FACE ( 'NONE', ( #286 ), #731, .F. ) ;
#493 = PERSON_AND_ORGANIZATION ( #481, #235 ) ;
#494 = ORIENTED_EDGE ( 'NONE', *, *, #831, .T. ) ;
#495 = APPROVAL_PERSON_ORGANIZATION ( #923, #334, #419 ) ;
#496 = DIRECTION ( 'NONE',  ( 0.000000000000000000, 0.000000000000000000, 1.000000000000000000 ) ) ;
#497 = CARTESIAN_POINT ( 'NONE',  ( -0.5885568651270329799, -2.016379801153143525, 3.629379128716394565 ) ) ;
#498 = CIRCLE ( 'NONE', #23, 3.749999999999999556 ) ;
#499 = AXIS2_PLACEMENT_3D ( 'NONE', #504, #769, #496 ) ;
#500 = CARTESIAN_POINT ( 'NONE',  ( 0.4000000000000000222, 2.129368206736822255, 4.466985055880805078 ) ) ;
#501 = CARTESIAN_POINT ( 'NONE',  ( 0.000000000000000000, 0.000000000000000000, 4.139000000000000234 ) ) ;
#502 = PERSON_AND_ORGANIZATION_ROLE ( 'design_owner' ) ;
#503 = CC_DESIGN_PERSON_AND_ORGANIZATION_ASSIGNMENT ( #1021, #114, ( #536 ) ) ;
#504 = CARTESIAN_POINT ( 'NONE',  ( -1.750000000000000000, 0.000000000000000000, -3.174999999999999822 ) ) ;
#505 = CARTESIAN_POINT ( 'NONE',  ( 0.4000000000000000222, 2.129365715064823750, 4.933723820215354827 ) ) ;
#506 = CARTESIAN_POINT ( 'NONE',  ( -3.174999999999999822, 3.888253587292846081E-16, 0.000000000000000000 ) ) ;
#507 = ORIENTED_EDGE ( 'NONE', *, *, #267, .F. ) ;
#508 = DIRECTION ( 'NONE',  ( 0.000000000000000000, 0.000000000000000000, -1.000000000000000000 ) ) ;
#509 = CARTESIAN_POINT ( 'NONE',  ( -1.749999999999999778, -2.225460645895022349, -3.900653801742660409 ) ) ;
#510 = EDGE_CURVE ( 'NONE', #1101, #280, #794, .T. ) ;
#511 = CARTESIAN_POINT ( 'NONE',  ( -0.4000000000000000222, -3.174999999999999822, 4.139000000000000234 ) ) ;
#512 = APPROVAL_STATUS ( 'not_yet_approved' ) ;
#513 = ORIENTED_EDGE ( 'NONE', *, *, #47, .F. ) ;
#514 = CARTESIAN_POINT ( 'NONE',  ( 1.750000000000000000, -0.4839785760447796736, -4.186413762853371523 ) ) ;
#515 = AXIS2_PLACEMENT_3D ( 'NONE', #880, #1059, #697 ) ;
#516 = EDGE_CURVE ( 'NONE', #855, #84, #440, .T. ) ;
#517 = CARTESIAN_POINT ( 'NONE',  ( -3.174999999999999822, 3.888253587292846081E-16, 8.673617379884035472E-16 ) ) ;
#518 = CIRCLE ( 'NONE', #718, 2.100000000000000089 ) ;
#519 = CARTESIAN_POINT ( 'NONE',  ( -1.903812768479369533, -0.7840531501041442253, -5.615953831622462644 ) ) ;
#520 = ORIENTED_EDGE ( 'NONE', *, *, #442, .T. ) ;
#521 = CARTESIAN_POINT ( 'NONE',  ( -0.4282819678817714193, -2.057911970479199937, 2.353224001008318300 ) ) ;
#522 = CARTESIAN_POINT ( 'NONE',  ( 1.750000000000000000, -1.110712415065956638, -3.077825255244228231 ) ) ;
#523 = ADVANCED_FACE ( 'NONE', ( #5, #633 ), #454, .F. ) ;
#524 = ORIENTED_EDGE ( 'NONE', *, *, #378, .F. ) ;
#525 = CARTESIAN_POINT ( 'NONE',  ( 0.2470723783330722734, 2.087434397081523674, 2.187282604411545428 ) ) ;
#526 =( BOUNDED_CURVE ( )  B_SPLINE_CURVE ( 3, ( #72, #868, #56, #958 ),
 .UNSPECIFIED., .F., .T. ) 
 B_SPLINE_CURVE_WITH_KNOTS ( ( 4, 4 ),
 ( 4.406127048421351944, 4.472917508490047211 ),
 .UNSPECIFIED. ) 
 CURVE ( )  GEOMETRIC_REPRESENTATION_ITEM ( )  RATIONAL_B_SPLINE_CURVE ( ( 1.000000000000000000, 0.9996282874180153488, 0.9996282874180153488, 1.000000000000000000 ) ) 
 REPRESENTATION_ITEM ( '' )  );
#527 = CARTESIAN_POINT ( 'NONE',  ( 0.000000000000000000, 0.000000000000000000, -3.174999999999999822 ) ) ;
#528 = VERTEX_POINT ( 'NONE', #168 ) ;
#529 = LINE ( 'NONE', #538, #413 ) ;
#530 = PERSON_AND_ORGANIZATION ( #481, #235 ) ;
#531 = EDGE_LOOP ( 'NONE', ( #122, #762, #1050, #975 ) ) ;
#532 = DIRECTION ( 'NONE',  ( -0.000000000000000000, 1.000000000000000000, -0.000000000000000000 ) ) ;
#533 = ADVANCED_FACE ( 'NONE', ( #814 ), #714, .F. ) ;
#534 = FACE_OUTER_BOUND ( 'NONE', #656, .T. ) ;
#535 = CARTESIAN_POINT ( 'NONE',  ( -0.3999999999999999667, 0.000000000000000000, 5.139000000000000234 ) ) ;
#536 = PRODUCT_DEFINITION_FORMATION_WITH_SPECIFIED_SOURCE ( 'ANY', '', #70, .NOT_KNOWN. ) ;
#537 = AXIS2_PLACEMENT_3D ( 'NONE', #673, #230, #1026 ) ;
#538 = CARTESIAN_POINT ( 'NONE',  ( 0.4000000000000001887, 0.000000000000000000, 5.139000000000000234 ) ) ;
#539 = VECTOR ( 'NONE', #32, 1000.000000000000000 ) ;
#540 = CARTESIAN_POINT ( 'NONE',  ( 0.000000000000000000, -0.9581898652575547848, -1.334484533583673249 ) ) ;
#541 = CARTESIAN_POINT ( 'NONE',  ( -0.4000000000000000222, -2.197199111018618645, 4.728411486747101655 ) ) ;
#542 = EDGE_CURVE ( 'NONE', #433, #256, #986, .T. ) ;
#543 = FACE_OUTER_BOUND ( 'NONE', #135, .T. ) ;
#544 = CARTESIAN_POINT ( 'NONE',  ( -0.4000000000000000222, 2.061552812808830737, 4.139000000000000234 ) ) ;
#545 = DIRECTION ( 'NONE',  ( -0.000000000000000000, 0.9961946980917455452, -0.08715574274765836016 ) ) ;
#546 = CARTESIAN_POINT ( 'NONE',  ( 1.992587946507386354, -0.4464569780345954420, -5.645489669528297227 ) ) ;
#547 = EDGE_CURVE ( 'NONE', #1018, #1163, #117, .T. ) ;
#548 = CARTESIAN_POINT ( 'NONE',  ( 1.123564184561698820, -3.291868368006749090, -1.521888731817418794 ) ) ;
#549 = DIRECTION ( 'NONE',  ( 0.000000000000000000, 0.000000000000000000, 1.000000000000000000 ) ) ;
#550 = ORIENTED_EDGE ( 'NONE', *, *, #781, .T. ) ;
#551 = PLANE ( 'NONE',  #124 ) ;
#552 = CARTESIAN_POINT ( 'NONE',  ( -1.750000000000000000, 0.000000000000000000, -3.174999999999999822 ) ) ;
#553 = CARTESIAN_POINT ( 'NONE',  ( -0.4000000000000000222, -2.129368206736822255, 4.466985055880805078 ) ) ;
#554 =( BOUNDED_SURFACE ( )  B_SPLINE_SURFACE ( 3, 3, ( 
 ( #799, #725, #720, #811 ),
 ( #1155, #348, #162, #890 ),
 ( #894, #605, #361, #74 ),
 ( #1130, #805, #876, #229 ) ),
 .UNSPECIFIED., .F., .F., .F. ) 
 B_SPLINE_SURFACE_WITH_KNOTS ( ( 4, 4 ),
 ( 4, 4 ),
 ( 0.000000000000000000, 1.000000000000000000 ),
 ( 0.000000000000000000, 1.000000000000000000 ),
 .UNSPECIFIED. ) 
 GEOMETRIC_REPRESENTATION_ITEM ( )  RATIONAL_B_SPLINE_SURFACE ( (
 ( 1.000000000000000000, 0.3333333333333070025, 0.3333333333333070025, 1.000000000000000000),
 ( 0.9642769657804209915, 0.3214256552601149619, 0.3214256552601149619, 0.9642769657804209915),
 ( 0.9642769657804209915, 0.3214256552601149619, 0.3214256552601149619, 0.9642769657804209915),
 ( 1.000000000000000000, 0.3333333333333070025, 0.3333333333333070025, 1.000000000000000000) ) ) 
 REPRESENTATION_ITEM ( '' )  SURFACE ( )  );
#555 = CARTESIAN_POINT ( 'NONE',  ( -0.4992433433931923736, -3.518186469821195317, -1.166552227489222604 ) ) ;
#556 = VECTOR ( 'NONE', #200, 1000.000000000000000 ) ;
#557 = ORIENTED_EDGE ( 'NONE', *, *, #378, .T. ) ;
#558 = EDGE_CURVE ( 'NONE', #978, #379, #108, .T. ) ;
#559 = CARTESIAN_POINT ( 'NONE',  ( 0.4000000000000000222, -3.174999999999999822, 4.139000000000000234 ) ) ;
#560 = ORIENTED_EDGE ( 'NONE', *, *, #107, .T. ) ;
#561 = DIRECTION ( 'NONE',  ( 0.000000000000000000, 0.000000000000000000, -1.000000000000000000 ) ) ;
#562 = DIRECTION ( 'NONE',  ( 1.000000000000000000, 0.000000000000000000, 0.000000000000000000 ) ) ;
#563 = CARTESIAN_POINT ( 'NONE',  ( -0.4000000000000000222, -2.197165962000668049, 4.495012552331537847 ) ) ;
#564 = ADVANCED_FACE ( 'NONE', ( #847 ), #1013, .T. ) ;
#565 = ORIENTED_EDGE ( 'NONE', *, *, #201, .F. ) ;
#566 = FACE_BOUND ( 'NONE', #115, .T. ) ;
#567 = AXIS2_PLACEMENT_3D ( 'NONE', #314, #841, #232 ) ;
#568 = ORIENTED_EDGE ( 'NONE', *, *, #268, .T. ) ;
#569 = CARTESIAN_POINT ( 'NONE',  ( 0.4000000000000000222, -2.061552812808830737, 4.439000000000000057 ) ) ;
#570 = CONICAL_SURFACE ( 'NONE', #878, 2.299999999999999822, 0.3141592653589768691 ) ;
#571 = ORIENTED_EDGE ( 'NONE', *, *, #932, .F. ) ;
#572 = EDGE_CURVE ( 'NONE', #908, #717, #443, .T. ) ;
#573 = LINE ( 'NONE', #1104, #86 ) ;
#574 = CARTESIAN_POINT ( 'NONE',  ( -0.6331429140605493444, 2.002281211612124245, 4.139000000000000234 ) ) ;
#575 = CARTESIAN_POINT ( 'NONE',  ( 1.750000000000000000, -4.443370011459320423, -2.786255496146254007 ) ) ;
#576 = PERSON_AND_ORGANIZATION ( #481, #235 ) ;
#577 = EDGE_LOOP ( 'NONE', ( #60, #466, #425, #307 ) ) ;
#578 = CARTESIAN_POINT ( 'NONE',  ( -0.6331429140605493444, -2.002281211612123801, 4.139000000000000234 ) ) ;
#579 = ADVANCED_FACE ( 'NONE', ( #212 ), #242, .T. ) ;
#580 = CARTESIAN_POINT ( 'NONE',  ( 0.000000000000000000, 1.909724419751212210, -5.851628831045224466 ) ) ;
#581 = APPLICATION_PROTOCOL_DEFINITION ( 'international standard', 'config_control_design', 1994, #95 ) ;
#582 = EDGE_LOOP ( 'NONE', ( #602, #991, #1158, #198, #900, #335 ) ) ;
#583 = CARTESIAN_POINT ( 'NONE',  ( -0.4000000000000000222, 2.061552812808830737, 4.439000000000000057 ) ) ;
#584 = CARTESIAN_POINT ( 'NONE',  ( -1.750000000000000000, 0.2523380088299957413, 5.446093261736414171 ) ) ;
#585 = DIRECTION ( 'NONE',  ( -0.000000000000000000, -0.000000000000000000, -1.000000000000000000 ) ) ;
#586 = APPROVAL ( #390, 'UNSPECIFIED' ) ;
#587 = CARTESIAN_POINT ( 'NONE',  ( 0.000000000000000000, 0.000000000000000000, -3.174999999999999822 ) ) ;
#588 = CARTESIAN_POINT ( 'NONE',  ( 0.000000000000000000, 0.000000000000000000, 0.000000000000000000 ) ) ;
#589 = ORIENTED_EDGE ( 'NONE', *, *, #310, .T. ) ;
#590 = DIRECTION ( 'NONE',  ( -0.000000000000000000, -0.000000000000000000, 1.000000000000000000 ) ) ;
#591 = DIRECTION ( 'NONE',  ( 1.000000000000000000, 0.000000000000000000, 0.000000000000000000 ) ) ;
#592 = AXIS2_PLACEMENT_3D ( 'NONE', #221, #949, #778 ) ;
#593 = CARTESIAN_POINT ( 'NONE',  ( 0.000000000000000000, 0.000000000000000000, 4.523072258617639285 ) ) ;
#594 = AXIS2_PLACEMENT_3D ( 'NONE', #657, #842, #591 ) ;
#595 =( LENGTH_UNIT ( ) NAMED_UNIT ( * ) SI_UNIT ( .MILLI., .METRE. ) );
#596 = ORIENTED_EDGE ( 'NONE', *, *, #47, .T. ) ;
#597 = EDGE_CURVE ( 'NONE', #473, #326, #573, .T. ) ;
#598 = PLANE ( 'NONE',  #861 ) ;
#599 = DIRECTION ( 'NONE',  ( 0.000000000000000000, 0.000000000000000000, -1.000000000000000000 ) ) ;
#600 = CARTESIAN_POINT ( 'NONE',  ( 0.000000000000000000, 3.749999999999999556, 1.734723475976807094E-15 ) ) ;
#601 = COORDINATED_UNIVERSAL_TIME_OFFSET ( 6, 0, .BEHIND. ) ;
#602 = ORIENTED_EDGE ( 'NONE', *, *, #226, .F. ) ;
#603 = ORIENTED_EDGE ( 'NONE', *, *, #696, .F. ) ;
#604 = LINE ( 'NONE', #583, #197 ) ;
#605 = CARTESIAN_POINT ( 'NONE',  ( 6.716554814308210553, -3.358277407154504512, -2.553262504005645805 ) ) ;
#606 = CARTESIAN_POINT ( 'NONE',  ( 0.5435249378548500099, 2.028981845142147300, 3.114661844701153370 ) ) ;
#607 = DIRECTION ( 'NONE',  ( 0.000000000000000000, 0.000000000000000000, 1.000000000000000000 ) ) ;
#608 = CALENDAR_DATE ( 2022, 6, 6 ) ;
#609 = ORIENTED_EDGE ( 'NONE', *, *, #310, .F. ) ;
#610 = CARTESIAN_POINT ( 'NONE',  ( -0.4732496415217776198, 1.041710963993725647, -4.910121425444912369 ) ) ;
#611 = EDGE_CURVE ( 'NONE', #379, #646, #1094, .T. ) ;
#612 = VECTOR ( 'NONE', #615, 1000.000000000000000 ) ;
#613 = DIRECTION ( 'NONE',  ( -0.000000000000000000, -0.000000000000000000, -1.000000000000000000 ) ) ;
#614 = VECTOR ( 'NONE', #34, 1000.000000000000000 ) ;
#615 = DIRECTION ( 'NONE',  ( -0.000000000000000000, 1.000000000000000000, -0.000000000000000000 ) ) ;
#616 = ORIENTED_EDGE ( 'NONE', *, *, #1060, .T. ) ;
#617 = AXIS2_PLACEMENT_3D ( 'NONE', #281, #1165, #892 ) ;
#618 = CARTESIAN_POINT ( 'NONE',  ( -0.4000000000000000222, -2.061423388508800247, 5.138999999999999346 ) ) ;
#619 = CARTESIAN_POINT ( 'NONE',  ( 0.000000000000000000, -1.110712415065956638, -3.077825255244228231 ) ) ;
#620 = ADVANCED_FACE ( 'NONE', ( #484 ), #1024, .T. ) ;
#621 = ORIENTED_EDGE ( 'NONE', *, *, #1065, .F. ) ;
#622 = DIRECTION ( 'NONE',  ( 1.000000000000000000, 0.000000000000000000, 0.000000000000000000 ) ) ;
#623 = ORIENTED_EDGE ( 'NONE', *, *, #886, .F. ) ;
#624 = CARTESIAN_POINT ( 'NONE',  ( -0.4000000000000000222, -2.264950330581225302, 4.523072258617639285 ) ) ;
#625 = CARTESIAN_POINT ( 'NONE',  ( -2.299999999999999822, 0.000000000000000000, 4.523072258617639285 ) ) ;
#626 = DIRECTION ( 'NONE',  ( 1.000000000000000000, 0.000000000000000000, 0.000000000000000000 ) ) ;
#627 = PLANE ( 'NONE',  #352 ) ;
#628 = ORIENTED_EDGE ( 'NONE', *, *, #662, .F. ) ;
#629 = CARTESIAN_POINT ( 'NONE',  ( 0.000000000000000000, 0.000000000000000000, 5.138999999999999346 ) ) ;
#630 = CARTESIAN_POINT ( 'NONE',  ( 1.584785149521825032, -2.925727980546728446, -2.165946195959478793 ) ) ;
#631 = CARTESIAN_POINT ( 'NONE',  ( 0.4980973490458732167, -2.040073290564207831, 2.595422128626173830 ) ) ;
#632 = EDGE_CURVE ( 'NONE', #646, #717, #754, .T. ) ;
#633 = FACE_BOUND ( 'NONE', #667, .T. ) ;
#634 = CARTESIAN_POINT ( 'NONE',  ( 1.749999999999999556, -2.665365146779761663, -2.710410423186566664 ) ) ;
#635 = CARTESIAN_POINT ( 'NONE',  ( -0.4000000000000000222, -2.129365715064823750, 4.933723820215354827 ) ) ;
#636 = ADVANCED_FACE ( 'NONE', ( #125 ), #112, .F. ) ;
#637 = CARTESIAN_POINT ( 'NONE',  ( -7.499999999999998224, -3.749999999999998224, 1.734723475976807094E-15 ) ) ;
#638 = CARTESIAN_POINT ( 'NONE',  ( -2.100000000000000089, 0.000000000000000000, 4.439000000000000057 ) ) ;
#639 = PLANE ( 'NONE',  #375 ) ;
#640 = ORIENTED_EDGE ( 'NONE', *, *, #837, .F. ) ;
#641 = CARTESIAN_POINT ( 'NONE',  ( 1.836331865259298368, -0.9493283631968558733, -5.601494124115023787 ) ) ;
#642 = CIRCLE ( 'NONE', #237, 1.114955156048887286 ) ;
#643 = ORIENTED_EDGE ( 'NONE', *, *, #966, .F. ) ;
#644 = AXIS2_PLACEMENT_3D ( 'NONE', #452, #447, #441 ) ;
#645 = LINE ( 'NONE', #821, #681 ) ;
#646 = VERTEX_POINT ( 'NONE', #1119 ) ;
#647 = ORIENTED_EDGE ( 'NONE', *, *, #987, .F. ) ;
#648 = CARTESIAN_POINT ( 'NONE',  ( 0.3538505703890514886, 1.886195159466572235, -5.849570287509168409 ) ) ;
#649 = CIRCLE ( 'NONE', #300, 2.099872945368625121 ) ;
#650 = EDGE_CURVE ( 'NONE', #199, #724, #676, .T. ) ;
#651 = FACE_OUTER_BOUND ( 'NONE', #239, .T. ) ;
#652 = CARTESIAN_POINT ( 'NONE',  ( 0.000000000000000000, -4.443370011459320423, -2.786255496146254007 ) ) ;
#653 = ORIENTED_EDGE ( 'NONE', *, *, #1159, .T. ) ;
#654 = EDGE_LOOP ( 'NONE', ( #93, #903, #661, #26, #332, #596 ) ) ;
#655 = FACE_OUTER_BOUND ( 'NONE', #460, .T. ) ;
#656 = EDGE_LOOP ( 'NONE', ( #843, #204, #568, #381, #840, #371, #369, #961 ) ) ;
#657 = CARTESIAN_POINT ( 'NONE',  ( 0.000000000000000000, 0.000000000000000000, 4.439000000000000057 ) ) ;
#658 = CARTESIAN_POINT ( 'NONE',  ( -3.174999999999999822, 3.888253587292846081E-16, 0.8890000000000000124 ) ) ;
#659 = FACE_OUTER_BOUND ( 'NONE', #746, .T. ) ;
#660 = AXIS2_PLACEMENT_3D ( 'NONE', #1150, #341, #869 ) ;
#661 = ORIENTED_EDGE ( 'NONE', *, *, #400, .T. ) ;
#662 = EDGE_CURVE ( 'NONE', #38, #730, #407, .T. ) ;
#663 = AXIS2_PLACEMENT_3D ( 'NONE', #711, #68, #979 ) ;
#664 = DIRECTION ( 'NONE',  ( -0.000000000000000000, 0.9961946980917455452, -0.08715574274765836016 ) ) ;
#665 = VERTEX_POINT ( 'NONE', #1100 ) ;
#666 = CALENDAR_DATE ( 2022, 6, 6 ) ;
#667 = EDGE_LOOP ( 'NONE', ( #391, #99 ) ) ;
#668 = CARTESIAN_POINT ( 'NONE',  ( 0.4730878775234121369, 1.053563732002013698, -4.915143317367778764 ) ) ;
#669 = CARTESIAN_POINT ( 'NONE',  ( -1.749999999999998890, -2.416522431356137091, -3.430601965557980026 ) ) ;
#670 = EDGE_CURVE ( 'NONE', #1169, #1082, #206, .T. ) ;
#671 = EDGE_CURVE ( 'NONE', #928, #488, #1019, .T. ) ;
#672 = LINE ( 'NONE', #511, #1106 ) ;
#673 = CARTESIAN_POINT ( 'NONE',  ( 0.000000000000000000, 0.000000000000000000, -3.174999999999999822 ) ) ;
#674 = VERTEX_POINT ( 'NONE', #292 ) ;
#675 = DIRECTION ( 'NONE',  ( -0.000000000000000000, -0.000000000000000000, -1.000000000000000000 ) ) ;
#676 = LINE ( 'NONE', #10, #329 ) ;
#677 = CARTESIAN_POINT ( 'NONE',  ( 0.6331429140605492334, 2.002281211612124245, 4.139000000000000234 ) ) ;
#678 = APPROVAL_DATE_TIME ( #312, #586 ) ;
#679 = CARTESIAN_POINT ( 'NONE',  ( 1.750000000000000444, -2.416612769212967748, -3.430340513016220338 ) ) ;
#680 = CARTESIAN_POINT ( 'NONE',  ( -0.5435249378548496768, -2.028981845142147300, 3.114661844701153370 ) ) ;
#681 = VECTOR ( 'NONE', #372, 1000.000000000000000 ) ;
#682 = FACE_OUTER_BOUND ( 'NONE', #911, .T. ) ;
#683 = EDGE_LOOP ( 'NONE', ( #557, #285, #479, #513, #882, #603 ) ) ;
#684 = CARTESIAN_POINT ( 'NONE',  ( 1.750000000000000000, -2.582918713489516627, -2.949023893760702730 ) ) ;
#685 = DIRECTION ( 'NONE',  ( 0.000000000000000000, 0.000000000000000000, 1.000000000000000000 ) ) ;
#686 = CARTESIAN_POINT ( 'NONE',  ( 0.000000000000000000, 0.000000000000000000, 4.523072258617639285 ) ) ;
#687 = DIRECTION ( 'NONE',  ( -0.000000000000000000, -0.000000000000000000, -1.000000000000000000 ) ) ;
#688 = ORIENTED_EDGE ( 'NONE', *, *, #92, .T. ) ;
#689 = DIRECTION ( 'NONE',  ( 0.000000000000000000, 0.08715574274765836016, 0.9961946980917455452 ) ) ;
#690 = B_SPLINE_CURVE_WITH_KNOTS ( 'NONE', 3,
 ( #864, #324, #927, #113, #202, #491, #24, #395, #1049, #408, #844, #1121, #1125, #311, #854, #519, #756, #36 ),
 .UNSPECIFIED., .F., .F.,
 ( 4, 2, 2, 2, 2, 2, 2, 2, 4 ),
 ( 8.226044263953086608E-20, 0.0005244555553275307650, 0.001048911110655061313, 0.001573366665982591861, 0.002097822221310122626, 0.002622277776637653608, 0.003146733331965184590, 0.003671188887292715572, 0.004195644442620246987 ),
 .UNSPECIFIED. ) ;
#691 = DIRECTION ( 'NONE',  ( 0.000000000000000000, -0.9961946980917456562, 0.08715574274765827689 ) ) ;
#692 = CARTESIAN_POINT ( 'NONE',  ( 0.000000000000000000, 0.000000000000000000, 0.000000000000000000 ) ) ;
#693 = ORIENTED_EDGE ( 'NONE', *, *, #193, .T. ) ;
#694 = CARTESIAN_POINT ( 'NONE',  ( 0.4980973490458732167, 2.040073290564206943, 2.595422128626173830 ) ) ;
#695 = CC_DESIGN_APPROVAL ( #334, ( #536 ) ) ;
#696 = EDGE_CURVE ( 'NONE', #2, #1169, #250, .T. ) ;
#697 = DIRECTION ( 'NONE',  ( -1.000000000000000000, 0.000000000000000000, 0.000000000000000000 ) ) ;
#698 = VERTEX_POINT ( 'NONE', #544 ) ;
#699 = DIRECTION ( 'NONE',  ( -0.000000000000000000, 1.000000000000000000, -0.000000000000000000 ) ) ;
#700 = ORIENTED_EDGE ( 'NONE', *, *, #632, .F. ) ;
#701 = AXIS2_PLACEMENT_3D ( 'NONE', #401, #490, #599 ) ;
#702 = DIRECTION ( 'NONE',  ( -0.08715574274765165719, 0.000000000000000000, 0.9961946980917461003 ) ) ;
#703 = B_SPLINE_CURVE_WITH_KNOTS ( 'NONE', 3,
 ( #1156, #50, #873, #1140 ),
 .UNSPECIFIED., .F., .F.,
 ( 4, 4 ),
 ( 0.007647354141962996350, 0.007869202712918578826 ),
 .UNSPECIFIED. ) ;
#704 = CARTESIAN_POINT ( 'NONE',  ( -0.4000000000000000222, -2.264950330581225302, 4.523072258617639285 ) ) ;
#705 = DIRECTION ( 'NONE',  ( 0.000000000000000000, 0.000000000000000000, 1.000000000000000000 ) ) ;
#706 = CARTESIAN_POINT ( 'NONE',  ( -0.4871798639138826270, 2.042738866564660416, 2.470634702552898521 ) ) ;
#707 = ORIENTED_EDGE ( 'NONE', *, *, #363, .F. ) ;
#708 = SPHERICAL_SURFACE ( 'NONE', #993, 2.075000000000000178 ) ;
#709 = ADVANCED_FACE ( 'NONE', ( #857 ), #1067, .F. ) ;
#710 = ORIENTED_EDGE ( 'NONE', *, *, #973, .F. ) ;
#711 = CARTESIAN_POINT ( 'NONE',  ( 0.4980973490458732167, -3.174999999999999822, 2.595422128626173830 ) ) ;
#712 = CARTESIAN_POINT ( 'NONE',  ( -0.4286119346557868415, 2.057850353472996385, 2.353605336466521702 ) ) ;
#713 = AXIS2_PLACEMENT_3D ( 'NONE', #430, #338, #702 ) ;
#714 =( BOUNDED_SURFACE ( )  B_SPLINE_SURFACE ( 3, 3, ( 
 ( #188, #819, #715, #76 ),
 ( #913, #1074, #264, #982 ),
 ( #808, #359, #830, #1174 ),
 ( #82, #370, #637, #269 ) ),
 .UNSPECIFIED., .F., .F., .F. ) 
 B_SPLINE_SURFACE_WITH_KNOTS ( ( 4, 4 ),
 ( 4, 4 ),
 ( 0.000000000000000000, 1.000000000000000000 ),
 ( 0.000000000000000000, 1.000000000000000000 ),
 .UNSPECIFIED. ) 
 GEOMETRIC_REPRESENTATION_ITEM ( )  RATIONAL_B_SPLINE_SURFACE ( (
 ( 1.000000000000000000, 0.3333333333333334259, 0.3333333333333334259, 1.000000000000000000),
 ( 0.9642769657804209915, 0.3214256552601404415, 0.3214256552601404415, 0.9642769657804209915),
 ( 0.9642769657804209915, 0.3214256552601404415, 0.3214256552601404415, 0.9642769657804209915),
 ( 1.000000000000000000, 0.3333333333333334259, 0.3333333333333334259, 1.000000000000000000) ) ) 
 REPRESENTATION_ITEM ( '' )  SURFACE ( )  );
#715 = CARTESIAN_POINT ( 'NONE',  ( -3.790601240180531573, -1.895300620090265342, -5.874386325765247996 ) ) ;
#716 = CLOSED_SHELL ( 'NONE', ( #533, #353, #942, #579, #620, #130, #7, #636, #274, #424, #564, #523, #35, #1138, #728, #951, #176, #54, #994, #289, #709, #1003, #492, #926, #487, #759, #1124, #920, #169, #893, #898 ) ) ;
#717 = VERTEX_POINT ( 'NONE', #989 ) ;
#718 = AXIS2_PLACEMENT_3D ( 'NONE', #294, #78, #745 ) ;
#719 = VERTEX_POINT ( 'NONE', #1077 ) ;
#720 = CARTESIAN_POINT ( 'NONE',  ( 3.790601240180831777, 1.895300620090264676, -5.874386325765247996 ) ) ;
#721 = CARTESIAN_POINT ( 'NONE',  ( -1.749999999999999556, -0.5849529772162767038, -4.124186501403078076 ) ) ;
#722 = ORIENTED_EDGE ( 'NONE', *, *, #781, .F. ) ;
#723 = CARTESIAN_POINT ( 'NONE',  ( 1.300012534258303543, 1.444140191764067271, -5.810895489179880080 ) ) ;
#724 = VERTEX_POINT ( 'NONE', #540 ) ;
#725 = CARTESIAN_POINT ( 'NONE',  ( 3.790601240180681231, -1.895300620090565769, -5.874386325765247996 ) ) ;
#726 =( BOUNDED_CURVE ( )  B_SPLINE_CURVE ( 3, ( #1149, #606, #796, #346 ),
 .UNSPECIFIED., .F., .T. ) 
 B_SPLINE_CURVE_WITH_KNOTS ( ( 4, 4 ),
 ( 1.810267798689539465, 1.877058258758234732 ),
 .UNSPECIFIED. ) 
 CURVE ( )  GEOMETRIC_REPRESENTATION_ITEM ( )  RATIONAL_B_SPLINE_CURVE ( ( 1.000000000000000000, 0.9996282874180153488, 0.9996282874180153488, 1.000000000000000000 ) ) 
 REPRESENTATION_ITEM ( '' )  );
#727 = DIRECTION ( 'NONE',  ( -0.000000000000000000, 1.000000000000000000, -0.000000000000000000 ) ) ;
#728 = ADVANCED_FACE ( 'NONE', ( #884 ), #358, .T. ) ;
#729 = CARTESIAN_POINT ( 'NONE',  ( 0.000000000000000000, 1.909724419751212210, -5.851628831045224466 ) ) ;
#730 = VERTEX_POINT ( 'NONE', #451 ) ;
#731 = PLANE ( 'NONE',  #755 ) ;
#732 = EDGE_CURVE ( 'NONE', #199, #866, #275, .T. ) ;
#733 = CONICAL_SURFACE ( 'NONE', #879, 2.299999999999999822, 0.3141592653589768691 ) ;
#734 = VERTEX_POINT ( 'NONE', #1047 ) ;
#735 = VECTOR ( 'NONE', #1023, 1000.000000000000000 ) ;
#736 = CARTESIAN_POINT ( 'NONE',  ( 0.000000000000000000, 0.000000000000000000, 4.139000000000000234 ) ) ;
#737 = ORIENTED_EDGE ( 'NONE', *, *, #340, .F. ) ;
#738 = DIRECTION ( 'NONE',  ( -1.000000000000000000, 0.000000000000000000, -0.000000000000000000 ) ) ;
#739 = ORIENTED_EDGE ( 'NONE', *, *, #17, .T. ) ;
#740 = CARTESIAN_POINT ( 'NONE',  ( 0.000000000000000000, 0.000000000000000000, 4.439000000000000057 ) ) ;
#741 = ORIENTED_EDGE ( 'NONE', *, *, #268, .F. ) ;
#742 = DIRECTION ( 'NONE',  ( 1.000000000000000000, 0.000000000000000000, -0.000000000000000000 ) ) ;
#743 = CARTESIAN_POINT ( 'NONE',  ( 0.000000000000000000, 0.000000000000000000, 4.523072258617639285 ) ) ;
#744 = EDGE_CURVE ( 'NONE', #1011, #719, #192, .T. ) ;
#745 = DIRECTION ( 'NONE',  ( 1.000000000000000000, 0.000000000000000000, 0.000000000000000000 ) ) ;
#746 = EDGE_LOOP ( 'NONE', ( #804, #816, #905, #565 ) ) ;
#747 = CARTESIAN_POINT ( 'NONE',  ( 3.174999999999999822, 0.000000000000000000, 0.000000000000000000 ) ) ;
#748 = ORIENTED_EDGE ( 'NONE', *, *, #1052, .F. ) ;
#749 = DIRECTION ( 'NONE',  ( -1.000000000000000000, 0.000000000000000000, 0.000000000000000000 ) ) ;
#750 = VECTOR ( 'NONE', #1171, 1000.000000000000000 ) ;
#751 = EDGE_LOOP ( 'NONE', ( #896, #385, #1103, #1093, #520, #888, #180, #700 ) ) ;
#752 = CARTESIAN_POINT ( 'NONE',  ( -1.711461894002802797, -0.1749363389563587390, -4.359594669976256220 ) ) ;
#753 = AXIS2_PLACEMENT_3D ( 'NONE', #136, #508, #1122 ) ;
#754 = LINE ( 'NONE', #29, #556 ) ;
#755 = AXIS2_PLACEMENT_3D ( 'NONE', #463, #909, #897 ) ;
#756 = CARTESIAN_POINT ( 'NONE',  ( -1.836790710688379846, -0.9485236353923528485, -5.601564528675138099 ) ) ;
#757 = DIRECTION ( 'NONE',  ( 0.000000000000000000, -0.9961946980917455452, 0.08715574274765836016 ) ) ;
#758 = CARTESIAN_POINT ( 'NONE',  ( 0.4000000000000000222, 2.264950330581225302, 4.523072258617639285 ) ) ;
#759 = ADVANCED_FACE ( 'NONE', ( #412 ), #554, .F. ) ;
#760 = CARTESIAN_POINT ( 'NONE',  ( 1.750000000000000000, -4.661259368328466657, -5.276742241375618647 ) ) ;
#761 = APPROVAL_ROLE ( '' ) ;
#762 = ORIENTED_EDGE ( 'NONE', *, *, #384, .F. ) ;
#763 = CARTESIAN_POINT ( 'NONE',  ( 1.749999999999999778, -1.873390710707004470, -4.572440662838689995 ) ) ;
#764 = EDGE_CURVE ( 'NONE', #8, #1163, #317, .T. ) ;
#765 = DIRECTION ( 'NONE',  ( 1.000000000000000000, 0.000000000000000000, 0.000000000000000000 ) ) ;
#766 = CARTESIAN_POINT ( 'NONE',  ( 0.000000000000000000, 0.000000000000000000, 0.8890000000000000124 ) ) ;
#767 = EDGE_LOOP ( 'NONE', ( #174, #832, #935, #924, #621, #470, #1044, #838, #19, #776, #998, #482 ) ) ;
#768 = CC_DESIGN_SECURITY_CLASSIFICATION ( #824, ( #536 ) ) ;
#769 = DIRECTION ( 'NONE',  ( 1.000000000000000000, 0.000000000000000000, -0.000000000000000000 ) ) ;
#770 = AXIS2_PLACEMENT_3D ( 'NONE', #133, #607, #1115 ) ;
#771 = CARTESIAN_POINT ( 'NONE',  ( 0.1247939238593995942, -3.557648069663826629, -1.107061409388651940 ) ) ;
#772 = CIRCLE ( 'NONE', #1058, 2.100000000000000089 ) ;
#773 = EDGE_CURVE ( 'NONE', #719, #954, #1007, .T. ) ;
#774 = DIRECTION ( 'NONE',  ( -0.000000000000000000, -0.000000000000000000, 1.000000000000000000 ) ) ;
#775 = DATE_AND_TIME ( #666, #1162 ) ;
#776 = ORIENTED_EDGE ( 'NONE', *, *, #415, .T. ) ;
#777 = EDGE_LOOP ( 'NONE', ( #1022, #1097, #798, #628, #360 ) ) ;
#778 = DIRECTION ( 'NONE',  ( 0.000000000000000000, -0.9961946980917454342, 0.08715574274765847118 ) ) ;
#779 = PERSON_AND_ORGANIZATION ( #481, #235 ) ;
#780 = ORIENTED_EDGE ( 'NONE', *, *, #347, .F. ) ;
#781 = EDGE_CURVE ( 'NONE', #379, #248, #1167, .T. ) ;
#782 = CARTESIAN_POINT ( 'NONE',  ( -0.4980973490458727726, -2.040073290564207831, 2.595422128626173830 ) ) ;
#783 = DIRECTION ( 'NONE',  ( -1.000000000000000000, 0.000000000000000000, 0.000000000000000000 ) ) ;
#784 = CYLINDRICAL_SURFACE ( 'NONE', #787, 0.5000000000000000000 ) ;
#785 = ORIENTED_EDGE ( 'NONE', *, *, #465, .F. ) ;
#786 = DIRECTION ( 'NONE',  ( -1.000000000000000000, 0.000000000000000000, 0.000000000000000000 ) ) ;
#787 = AXIS2_PLACEMENT_3D ( 'NONE', #1143, #699, #848 ) ;
#788 = DIRECTION ( 'NONE',  ( -1.000000000000000000, 0.000000000000000000, 0.000000000000000000 ) ) ;
#789 = CIRCLE ( 'NONE', #957, 3.749999999999999556 ) ;
#790 = MANIFOLD_SOLID_BREP ( '228-2500-1853', #716 ) ;
#791 = DIRECTION ( 'NONE',  ( 0.000000000000000000, 0.000000000000000000, 1.000000000000000000 ) ) ;
#792 = ORIENTED_EDGE ( 'NONE', *, *, #218, .T. ) ;
#793 = CARTESIAN_POINT ( 'NONE',  ( 0.2512600120758520239, -3.547987384334129413, -1.121724564250715872 ) ) ;
#794 = CIRCLE ( 'NONE', #617, 2.075000000000000178 ) ;
#795 = CYLINDRICAL_SURFACE ( 'NONE', #827, 1.750000000000000222 ) ;
#796 = CARTESIAN_POINT ( 'NONE',  ( 0.5885568651270333129, 2.016379801153143525, 3.629379128716395897 ) ) ;
#797 = EDGE_CURVE ( 'NONE', #908, #4, #270, .T. ) ;
#798 = ORIENTED_EDGE ( 'NONE', *, *, #406, .F. ) ;
#799 = CARTESIAN_POINT ( 'NONE',  ( -1.500516021389326970E-13, -1.895300620090265786, -5.874386325765247996 ) ) ;
#800 = DIRECTION ( 'NONE',  ( -0.000000000000000000, 0.000000000000000000, -1.000000000000000000 ) ) ;
#801 = CARTESIAN_POINT ( 'NONE',  ( 1.749999999999999112, -0.5849529772162769259, -4.124186501403078964 ) ) ;
#802 = PRODUCT_DEFINITION ( 'UNKNOWN', '', #536, #287 ) ;
#803 = CALENDAR_DATE ( 2022, 6, 6 ) ;
#804 = ORIENTED_EDGE ( 'NONE', *, *, #233, .F. ) ;
#805 = CARTESIAN_POINT ( 'NONE',  ( 7.500000000000295763, -3.750000000000592859, 1.734723475976807094E-15 ) ) ;
#806 = DIRECTION ( 'NONE',  ( -1.000000000000000000, -0.000000000000000000, 0.000000000000000000 ) ) ;
#807 = ORIENTED_EDGE ( 'NONE', *, *, #558, .F. ) ;
#808 = CARTESIAN_POINT ( 'NONE',  ( 0.000000000000000000, 3.358277407153972938, -2.553262504005645805 ) ) ;
#809 = CIRCLE ( 'NONE', #173, 2.075000000000000178 ) ;
#810 = CIRCLE ( 'NONE', #881, 3.174999999999999822 ) ;
#811 = CARTESIAN_POINT ( 'NONE',  ( 4.642147675631124550E-16, 1.895300620090265786, -5.874386325765247996 ) ) ;
#812 = CARTESIAN_POINT ( 'NONE',  ( -0.4000000000000000222, -2.061552812808830737, 4.439000000000000057 ) ) ;
#813 = EDGE_LOOP ( 'NONE', ( #49, #184, #1134, #1002, #915, #943 ) ) ;
#814 = FACE_OUTER_BOUND ( 'NONE', #813, .T. ) ;
#815 = ORIENTED_EDGE ( 'NONE', *, *, #863, .F. ) ;
#816 = ORIENTED_EDGE ( 'NONE', *, *, #1120, .F. ) ;
#817 = CARTESIAN_POINT ( 'NONE',  ( -0.4000000000000000222, 2.129365657193787342, 4.933723995062845091 ) ) ;
#818 = EDGE_CURVE ( 'NONE', #928, #473, #921, .T. ) ;
#819 = CARTESIAN_POINT ( 'NONE',  ( -3.790601240180530684, 1.895300620090265786, -5.874386325765247996 ) ) ;
#820 = ORIENTED_EDGE ( 'NONE', *, *, #744, .T. ) ;
#821 = CARTESIAN_POINT ( 'NONE',  ( 0.4000000000000000222, 2.061552812808830737, 4.439000000000000057 ) ) ;
#822 = ORIENTED_EDGE ( 'NONE', *, *, #797, .T. ) ;
#823 = CARTESIAN_POINT ( 'NONE',  ( 1.656132178327059057, 1.055510043235933004, -5.776894756879274340 ) ) ;
#824 = SECURITY_CLASSIFICATION ( '', '', #436 ) ;
#825 = EDGE_LOOP ( 'NONE', ( #1173, #875, #272, #283 ) ) ;
#826 = B_SPLINE_CURVE_WITH_KNOTS ( 'NONE', 3,
 ( #684, #679, #321, #763, #399, #1046, #228, #33 ),
 .UNSPECIFIED., .F., .F.,
 ( 4, 2, 2, 4 ),
 ( 0.0001994228208456368123, 0.001717060822041478795, 0.002475879822639399583, 0.003234698823237319720 ),
 .UNSPECIFIED. ) ;
#827 = AXIS2_PLACEMENT_3D ( 'NONE', #974, #545, #255 ) ;
#828 = CARTESIAN_POINT ( 'NONE',  ( 0.4000000000000000222, 2.061552812808831181, 4.139000000000000234 ) ) ;
#829 = EDGE_LOOP ( 'NONE', ( #571, #165, #653, #403, #1071, #448, #1127, #1000, #445, #397, #822, #71 ) ) ;
#830 = CARTESIAN_POINT ( 'NONE',  ( -6.716554814307944099, -3.358277407153972050, -2.553262504005645805 ) ) ;
#831 = EDGE_CURVE ( 'NONE', #44, #928, #119, .T. ) ;
#832 = ORIENTED_EDGE ( 'NONE', *, *, #932, .T. ) ;
#833 = DIRECTION ( 'NONE',  ( -0.000000000000000000, -0.000000000000000000, -1.000000000000000000 ) ) ;
#834 = ORIENTED_EDGE ( 'NONE', *, *, #431, .T. ) ;
#835 = CARTESIAN_POINT ( 'NONE',  ( 0.000000000000000000, 0.000000000000000000, 4.439000000000000057 ) ) ;
#836 = CARTESIAN_POINT ( 'NONE',  ( -0.5885568651270326468, 2.016379801153143969, 3.629379128716391012 ) ) ;
#837 = EDGE_CURVE ( 'NONE', #866, #855, #826, .T. ) ;
#838 = ORIENTED_EDGE ( 'NONE', *, *, #347, .T. ) ;
#839 = LINE ( 'NONE', #18, #539 ) ;
#840 = ORIENTED_EDGE ( 'NONE', *, *, #327, .T. ) ;
#841 = DIRECTION ( 'NONE',  ( 0.000000000000000000, -0.9961946980917456562, 0.08715574274765827689 ) ) ;
#842 = DIRECTION ( 'NONE',  ( 0.000000000000000000, 0.000000000000000000, 1.000000000000000000 ) ) ;
#843 = ORIENTED_EDGE ( 'NONE', *, *, #1096, .T. ) ;
#844 = CARTESIAN_POINT ( 'NONE',  ( -1.898090326599769506, 0.5927377378527609597, -5.736407426364489304 ) ) ;
#845 = PERSON_AND_ORGANIZATION_ROLE ( 'design_supplier' ) ;
#846 = CARTESIAN_POINT ( 'NONE',  ( 0.2343080957413481435, 1.101205526281791025, -4.934005510958270335 ) ) ;
#847 = FACE_OUTER_BOUND ( 'NONE', #342, .T. ) ;
#848 = DIRECTION ( 'NONE',  ( 0.000000000000000000, 0.000000000000000000, 1.000000000000000000 ) ) ;
#849 = AXIS2_PLACEMENT_3D ( 'NONE', #383, #387, #194 ) ;
#850 = DIRECTION ( 'NONE',  ( 0.000000000000000000, -0.9961946980917455452, 0.08715574274765836016 ) ) ;
#851 = CARTESIAN_POINT ( 'NONE',  ( 1.669754532970897376, -0.07227882250984560275, -4.410522126974608881 ) ) ;
#852 = EDGE_CURVE ( 'NONE', #462, #1018, #298, .T. ) ;
#853 = CARTESIAN_POINT ( 'NONE',  ( -1.750000000000000000, -4.443370011459320423, -2.786255496146254007 ) ) ;
#854 = CARTESIAN_POINT ( 'NONE',  ( -1.992426838744581374, -0.4470389569002199970, -5.645438752975142194 ) ) ;
#855 = VERTEX_POINT ( 'NONE', #856 ) ;
#856 = CARTESIAN_POINT ( 'NONE',  ( 1.750000000000000000, -1.100738071343660085, -5.588247491104408660 ) ) ;
#857 = FACE_OUTER_BOUND ( 'NONE', #531, .T. ) ;
#858 = DIRECTION ( 'NONE',  ( -0.000000000000000000, -0.000000000000000000, 1.000000000000000000 ) ) ;
#859 = EDGE_LOOP ( 'NONE', ( #1012, #1069, #550, #1144 ) ) ;
#860 = CARTESIAN_POINT ( 'NONE',  ( -0.1207491214054605827, 1.100733901388794456, -4.933816888882829765 ) ) ;
#861 = AXIS2_PLACEMENT_3D ( 'NONE', #1135, #689, #757 ) ;
#862 = CARTESIAN_POINT ( 'NONE',  ( -1.749999999999999334, -2.665521718677332785, -2.709957278491486932 ) ) ;
#863 = EDGE_CURVE ( 'NONE', #288, #724, #1090, .T. ) ;
#864 = CARTESIAN_POINT ( 'NONE',  ( 0.000000000000000000, 1.909724419751212210, -5.851628831045224466 ) ) ;
#865 = SHAPE_DEFINITION_REPRESENTATION ( #1133, #181 ) ;
#866 = VERTEX_POINT ( 'NONE', #421 ) ;
#867 = CARTESIAN_POINT ( 'NONE',  ( 0.000000000000000000, 0.000000000000000000, 4.523072258617639285 ) ) ;
#868 = CARTESIAN_POINT ( 'NONE',  ( 0.5885568651270326468, -2.016379801153143969, 3.629379128716390124 ) ) ;
#869 = DIRECTION ( 'NONE',  ( -1.000000000000000000, 0.000000000000000000, 0.000000000000000000 ) ) ;
#870 = EDGE_CURVE ( 'NONE', #148, #698, #604, .T. ) ;
#871 = COORDINATED_UNIVERSAL_TIME_OFFSET ( 6, 0, .BEHIND. ) ;
#872 = EDGE_LOOP ( 'NONE', ( #14, #9, #815, #1117 ) ) ;
#873 = CARTESIAN_POINT ( 'NONE',  ( -0.4000000000000000222, 2.197165961088449748, 4.495012551953920799 ) ) ;
#874 = DIRECTION ( 'NONE',  ( 0.000000000000000000, 0.9961946980917455452, -0.08715574274765836016 ) ) ;
#875 = ORIENTED_EDGE ( 'NONE', *, *, #73, .T. ) ;
#876 = CARTESIAN_POINT ( 'NONE',  ( 7.500000000000592415, 3.749999999999998668, 1.734723475976807094E-15 ) ) ;
#877 = LINE ( 'NONE', #1153, #279 ) ;
#878 = AXIS2_PLACEMENT_3D ( 'NONE', #743, #293, #178 ) ;
#879 = AXIS2_PLACEMENT_3D ( 'NONE', #686, #613, #783 ) ;
#880 = CARTESIAN_POINT ( 'NONE',  ( 0.000000000000000000, 0.000000000000000000, 4.523072258617639285 ) ) ;
#881 = AXIS2_PLACEMENT_3D ( 'NONE', #1116, #489, #306 ) ;
#882 = ORIENTED_EDGE ( 'NONE', *, *, #670, .F. ) ;
#883 = CARTESIAN_POINT ( 'NONE',  ( -2.800803085042443579E-13, -3.557648069663811974, -1.107061409388670592 ) ) ;
#884 = FACE_OUTER_BOUND ( 'NONE', #910, .T. ) ;
#885 = CARTESIAN_POINT ( 'NONE',  ( -2.100000000000000089, 0.000000000000000000, 4.439000000000000057 ) ) ;
#886 = EDGE_CURVE ( 'NONE', #473, #280, #216, .T. ) ;
#887 = CARTESIAN_POINT ( 'NONE',  ( -1.750000000000000000, -4.661259368328466657, -5.276742241375618647 ) ) ;
#888 = ORIENTED_EDGE ( 'NONE', *, *, #973, .T. ) ;
#889 = DATE_AND_TIME ( #608, #138 ) ;
#890 = CARTESIAN_POINT ( 'NONE',  ( 6.655075911433515085E-16, 2.717140940582647879, -4.583932990539879349 ) ) ;
#891 = CARTESIAN_POINT ( 'NONE',  ( 0.4871798639138831266, -2.042738866564660416, 2.470634702552898077 ) ) ;
#892 = DIRECTION ( 'NONE',  ( -1.000000000000000000, 0.000000000000000000, 2.090028284309405995E-16 ) ) ;
#893 = ADVANCED_FACE ( 'NONE', ( #929 ), #116, .F. ) ;
#894 = CARTESIAN_POINT ( 'NONE',  ( -2.658759776833898842E-13, -3.358277407153972938, -2.553262504005645805 ) ) ;
#895 = CARTESIAN_POINT ( 'NONE',  ( 2.299999999999999822, 0.000000000000000000, 4.523072258617639285 ) ) ;
#896 = ORIENTED_EDGE ( 'NONE', *, *, #295, .T. ) ;
#897 = DIRECTION ( 'NONE',  ( -0.000000000000000000, 0.000000000000000000, 1.000000000000000000 ) ) ;
#898 = ADVANCED_FACE ( 'NONE', ( #210 ), #598, .F. ) ;
#899 = CIRCLE ( 'NONE', #240, 2.100000000000000089 ) ;
#900 = ORIENTED_EDGE ( 'NONE', *, *, #137, .T. ) ;
#901 = CARTESIAN_POINT ( 'NONE',  ( 3.174999999999999822, 0.000000000000000000, 8.673617379884035472E-16 ) ) ;
#902 = AXIS2_PLACEMENT_3D ( 'NONE', #223, #1030, #1123 ) ;
#903 = ORIENTED_EDGE ( 'NONE', *, *, #510, .T. ) ;
#904 = FACE_OUTER_BOUND ( 'NONE', #410, .T. ) ;
#905 = ORIENTED_EDGE ( 'NONE', *, *, #1079, .T. ) ;
#906 = EDGE_CURVE ( 'NONE', #1008, #53, #789, .T. ) ;
#907 = DIRECTION ( 'NONE',  ( 0.000000000000000000, 0.000000000000000000, 1.000000000000000000 ) ) ;
#908 = VERTEX_POINT ( 'NONE', #885 ) ;
#909 = DIRECTION ( 'NONE',  ( -1.000000000000000000, 0.000000000000000000, -0.000000000000000000 ) ) ;
#910 = EDGE_LOOP ( 'NONE', ( #737, #792, #128, #278 ) ) ;
#911 = EDGE_LOOP ( 'NONE', ( #741, #507 ) ) ;
#912 = EDGE_CURVE ( 'NONE', #734, #4, #1108, .T. ) ;
#913 = CARTESIAN_POINT ( 'NONE',  ( 0.000000000000000000, 2.717140940582647879, -4.583932990539879349 ) ) ;
#914 = CIRCLE ( 'NONE', #660, 2.099872945368625121 ) ;
#915 = ORIENTED_EDGE ( 'NONE', *, *, #160, .T. ) ;
#916 =( GEOMETRIC_REPRESENTATION_CONTEXT ( 3 ) GLOBAL_UNCERTAINTY_ASSIGNED_CONTEXT ( ( #472 ) ) GLOBAL_UNIT_ASSIGNED_CONTEXT ( ( #595, #203, #225 ) ) REPRESENTATION_CONTEXT ( 'NONE', 'WORKASPACE' ) );
#917 = FACE_OUTER_BOUND ( 'NONE', #829, .T. ) ;
#918 = ORIENTED_EDGE ( 'NONE', *, *, #597, .T. ) ;
#919 = CARTESIAN_POINT ( 'NONE',  ( -0.4980973490458727726, -2.040073290564207831, 2.595422128626173830 ) ) ;
#920 = ADVANCED_FACE ( 'NONE', ( #249 ), #154, .F. ) ;
#921 = B_SPLINE_CURVE_WITH_KNOTS ( 'NONE', 3,
 ( #944, #411, #752, #1129, #20, #27, #303, #404, #1029, #955, #610, #1051, #860, #846, #668, #205, #129, #328, #45, #123, #39, #851, #144, #308, #514, #937 ),
 .UNSPECIFIED., .F., .F.,
 ( 4, 2, 2, 2, 2, 2, 2, 2, 2, 2, 2, 2, 4 ),
 ( 0.0006632708320942435351, 0.001372008027761678454, 0.002080745223429113482, 0.002435113821262831213, 0.002789482419096548076, 0.003143851016930265807, 0.003498219614763983104, 0.004206956810431418566, 0.004561325408265135863, 0.004915694006098853160, 0.005624431201766288621, 0.005978799799600006785, 0.006333168397433724083 ),
 .UNSPECIFIED. ) ;
#922 = FACE_OUTER_BOUND ( 'NONE', #103, .T. ) ;
#923 = PERSON_AND_ORGANIZATION ( #481, #235 ) ;
#924 = ORIENTED_EDGE ( 'NONE', *, *, #797, .F. ) ;
#925 = DIRECTION ( 'NONE',  ( -0.000000000000000000, -0.000000000000000000, -1.000000000000000000 ) ) ;
#926 = ADVANCED_FACE ( 'NONE', ( #534 ), #627, .F. ) ;
#927 = CARTESIAN_POINT ( 'NONE',  ( -0.3507398619784357630, 1.886715096921683266, -5.849615776142229606 ) ) ;
#928 = VERTEX_POINT ( 'NONE', #721 ) ;
#929 = FACE_OUTER_BOUND ( 'NONE', #577, .T. ) ;
#930 = CARTESIAN_POINT ( 'NONE',  ( -1.750000000000171418, -1.100738071352511893, -5.588247491103635944 ) ) ;
#931 = DIRECTION ( 'NONE',  ( 0.000000000000000000, 0.000000000000000000, 1.000000000000000000 ) ) ;
#932 = EDGE_CURVE ( 'NONE', #1151, #734, #877, .T. ) ;
#933 = MECHANICAL_CONTEXT ( 'NONE', #1009, 'mechanical' ) ;
#934 = CIRCLE ( 'NONE', #42, 2.299999999999999822 ) ;
#935 = ORIENTED_EDGE ( 'NONE', *, *, #912, .T. ) ;
#936 = VECTOR ( 'NONE', #380, 1000.000000000000000 ) ;
#937 = CARTESIAN_POINT ( 'NONE',  ( 1.749999999999999112, -0.5849529772162769259, -4.124186501403078964 ) ) ;
#938 = DIRECTION ( 'NONE',  ( 0.000000000000000000, 0.000000000000000000, 1.000000000000000000 ) ) ;
#939 = DIRECTION ( 'NONE',  ( 0.9218631515885015171, 0.000000000000000000, 0.3875155864521006577 ) ) ;
#940 = CIRCLE ( 'NONE', #959, 1.750000000000000222 ) ;
#941 = PLANE ( 'NONE',  #770 ) ;
#942 = ADVANCED_FACE ( 'NONE', ( #149 ), #795, .F. ) ;
#943 = ORIENTED_EDGE ( 'NONE', *, *, #696, .T. ) ;
#944 = CARTESIAN_POINT ( 'NONE',  ( -1.749999999999999556, -0.5849529772162767038, -4.124186501403078076 ) ) ;
#945 = CARTESIAN_POINT ( 'NONE',  ( 0.4000000000000000222, 2.197199111018618645, 4.728411486747101655 ) ) ;
#946 = SPHERICAL_SURFACE ( 'NONE', #537, 2.075000000000000178 ) ;
#947 = COORDINATED_UNIVERSAL_TIME_OFFSET ( 6, 0, .BEHIND. ) ;
#948 = VERTEX_POINT ( 'NONE', #75 ) ;
#949 = DIRECTION ( 'NONE',  ( -0.000000000000000000, 0.08715574274765836016, 0.9961946980917455452 ) ) ;
#950 = CARTESIAN_POINT ( 'NONE',  ( 0.4000000000000000222, -2.197199101532723908, 4.728411515496787842 ) ) ;
#951 = ADVANCED_FACE ( 'NONE', ( #1055 ), #977, .T. ) ;
#952 = DIRECTION ( 'NONE',  ( -0.000000000000000000, -0.000000000000000000, -1.000000000000000000 ) ) ;
#953 = CYLINDRICAL_SURFACE ( 'NONE', #140, 3.174999999999999822 ) ;
#954 = VERTEX_POINT ( 'NONE', #62 ) ;
#955 = CARTESIAN_POINT ( 'NONE',  ( -0.5854721510693308151, 1.007190383868771688, -4.896201995963092024 ) ) ;
#956 = VECTOR ( 'NONE', #217, 1000.000000000000000 ) ;
#957 = AXIS2_PLACEMENT_3D ( 'NONE', #1118, #590, #1161 ) ;
#958 = CARTESIAN_POINT ( 'NONE',  ( 0.4980973490458732167, -2.040073290564207831, 2.595422128626173830 ) ) ;
#959 = AXIS2_PLACEMENT_3D ( 'NONE', #619, #691, #161 ) ;
#960 = DIRECTION ( 'NONE',  ( 0.000000000000000000, 0.000000000000000000, 1.000000000000000000 ) ) ;
#961 = ORIENTED_EDGE ( 'NONE', *, *, #1159, .F. ) ;
#962 = FACE_OUTER_BOUND ( 'NONE', #105, .T. ) ;
#963 = CARTESIAN_POINT ( 'NONE',  ( -1.114552437345398772, -3.289696745304128367, -1.527999965079229971 ) ) ;
#964 = EDGE_CURVE ( 'NONE', #476, #978, #12, .T. ) ;
#965 = CARTESIAN_POINT ( 'NONE',  ( 0.6331429140605492334, -3.174999999999999822, 4.139000000000000234 ) ) ;
#966 = EDGE_CURVE ( 'NONE', #148, #674, #703, .T. ) ;
#967 = ORIENTED_EDGE ( 'NONE', *, *, #1025, .F. ) ;
#968 = CARTESIAN_POINT ( 'NONE',  ( -0.4980973490458727726, -2.040073290564207831, 2.595422128626173830 ) ) ;
#969 = CARTESIAN_POINT ( 'NONE',  ( -2.099872945368625121, 0.000000000000000000, 5.138999999999999346 ) ) ;
#970 = DIRECTION ( 'NONE',  ( 1.000000000000000000, 0.000000000000000000, 0.000000000000000000 ) ) ;
#971 = DATE_TIME_ROLE ( 'classification_date' ) ;
#972 = CARTESIAN_POINT ( 'NONE',  ( 1.351511531727394910, -3.139746849342986312, -1.778796480650312040 ) ) ;
#973 = EDGE_CURVE ( 'NONE', #665, #374, #211, .T. ) ;
#974 = CARTESIAN_POINT ( 'NONE',  ( 0.000000000000000000, -4.443370011459320423, -2.786255496146254007 ) ) ;
#975 = ORIENTED_EDGE ( 'NONE', *, *, #415, .F. ) ;
#976 = DIRECTION ( 'NONE',  ( -1.000000000000000000, 0.000000000000000000, 0.000000000000000000 ) ) ;
#977 = CONICAL_SURFACE ( 'NONE', #995, 2.299999999999999822, 0.3141592653589768691 ) ;
#978 = VERTEX_POINT ( 'NONE', #968 ) ;
#979 = DIRECTION ( 'NONE',  ( -0.08715574274765129636, 0.000000000000000000, -0.9961946980917461003 ) ) ;
#980 = CARTESIAN_POINT ( 'NONE',  ( -0.2470723783330721623, -2.087434397081524118, 2.187282604411545872 ) ) ;
#981 = B_SPLINE_CURVE_WITH_KNOTS ( 'NONE', 3,
 ( #150, #862, #46, #145, #427, #1142, #963, #175, #183, #555, #1088, #273 ),
 .UNSPECIFIED., .F., .F.,
 ( 4, 2, 2, 2, 2, 4 ),
 ( 9.936877048100783612E-19, 0.0007468720640744007204, 0.001493744128148800573, 0.001867180160186000066, 0.002240616192223199125, 0.002987488256297597677 ),
 .UNSPECIFIED. ) ;
#982 = CARTESIAN_POINT ( 'NONE',  ( -3.327537955716768389E-16, -2.717140940582647879, -4.583932990539879349 ) ) ;
#983 = ORIENTED_EDGE ( 'NONE', *, *, #73, .F. ) ;
#984 = CARTESIAN_POINT ( 'NONE',  ( 0.4000000000000000222, -2.129365657193787342, 4.933723995062845091 ) ) ;
#985 = CARTESIAN_POINT ( 'NONE',  ( 0.4282819678817716413, 2.057911970479199493, 2.353224001008317856 ) ) ;
#986 = LINE ( 'NONE', #309, #282 ) ;
#987 = EDGE_CURVE ( 'NONE', #79, #429, #377, .T. ) ;
#988 =( BOUNDED_CURVE ( )  B_SPLINE_CURVE ( 3, ( #883, #434, #252, #428 ),
 .UNSPECIFIED., .F., .T. ) 
 B_SPLINE_CURVE_WITH_KNOTS ( ( 4, 4 ),
 ( 1.033924512243710181, 1.133201251008030264 ),
 .UNSPECIFIED. ) 
 CURVE ( )  GEOMETRIC_REPRESENTATION_ITEM ( )  RATIONAL_B_SPLINE_CURVE ( ( 1.000000000000000000, 0.9991788460572014197, 0.9991788460572014197, 1.000000000000000000 ) ) 
 REPRESENTATION_ITEM ( '' )  );
#989 = CARTESIAN_POINT ( 'NONE',  ( -0.4000000000000000222, -2.061552812808830737, 4.439000000000000057 ) ) ;
#990 = CARTESIAN_POINT ( 'NONE',  ( -4.592425496802573972E-16, -3.749999999999999556, 1.734723475976807094E-15 ) ) ;
#991 = ORIENTED_EDGE ( 'NONE', *, *, #732, .T. ) ;
#992 = CARTESIAN_POINT ( 'NONE',  ( 0.000000000000000000, -9.092978597543523083E-17, 0.8890000000000000124 ) ) ;
#993 = AXIS2_PLACEMENT_3D ( 'NONE', #527, #234, #1154 ) ;
#994 = ADVANCED_FACE ( 'NONE', ( #962 ), #55, .F. ) ;
#995 = AXIS2_PLACEMENT_3D ( 'NONE', #867, #1078, #786 ) ;
#996 = CARTESIAN_POINT ( 'NONE',  ( -0.4000000000000000222, -3.174999999999999822, 4.139000000000000234 ) ) ;
#997 = CARTESIAN_POINT ( 'NONE',  ( 0.6331429140605492334, -3.174999999999999822, 4.139000000000000234 ) ) ;
#998 = ORIENTED_EDGE ( 'NONE', *, *, #201, .T. ) ;
#999 = VECTOR ( 'NONE', #444, 1000.000000000000000 ) ;
#1000 = ORIENTED_EDGE ( 'NONE', *, *, #611, .T. ) ;
#1001 = CARTESIAN_POINT ( 'NONE',  ( 0.1772749023838174343, 1.909724419751212654, -5.851628831045222690 ) ) ;
#1002 = ORIENTED_EDGE ( 'NONE', *, *, #137, .F. ) ;
#1003 = ADVANCED_FACE ( 'NONE', ( #659 ), #639, .F. ) ;
#1004 = DIRECTION ( 'NONE',  ( -0.000000000000000000, -0.08715574274765836016, -0.9961946980917455452 ) ) ;
#1005 = VERTEX_POINT ( 'NONE', #1168 ) ;
#1006 = CARTESIAN_POINT ( 'NONE',  ( 1.160449680009977946, 1.551435622231926104, -5.820282622993953048 ) ) ;
#1007 = B_SPLINE_CURVE_WITH_KNOTS ( 'NONE', 3,
 ( #61, #950, #984, #166 ),
 .UNSPECIFIED., .F., .F.,
 ( 4, 4 ),
 ( 0.002832913685900422668, 0.003481596577318057072 ),
 .UNSPECIFIED. ) ;
#1008 = VERTEX_POINT ( 'NONE', #990 ) ;
#1009 = APPLICATION_CONTEXT ( 'configuration controlled 3d designs of mechanical parts and assemblies' ) ;
#1010 = DIRECTION ( 'NONE',  ( -0.000000000000000000, 0.9961946980917455452, -0.08715574274765836016 ) ) ;
#1011 = VERTEX_POINT ( 'NONE', #895 ) ;
#1012 = ORIENTED_EDGE ( 'NONE', *, *, #295, .F. ) ;
#1013 = PLANE ( 'NONE',  #222 ) ;
#1014 = AXIS2_PLACEMENT_3D ( 'NONE', #386, #1004, #271 ) ;
#1015 = LINE ( 'NONE', #575, #750 ) ;
#1016 = VECTOR ( 'NONE', #532, 1000.000000000000000 ) ;
#1017 = CARTESIAN_POINT ( 'NONE',  ( 3.174999999999999822, 0.000000000000000000, 0.8890000000000000124 ) ) ;
#1018 = VERTEX_POINT ( 'NONE', #901 ) ;
#1019 = LINE ( 'NONE', #584, #614 ) ;
#1020 = CARTESIAN_POINT ( 'NONE',  ( 0.000000000000000000, 3.749999999999999556, 1.734723475976807094E-15 ) ) ;
#1021 = PERSON_AND_ORGANIZATION ( #481, #235 ) ;
#1022 = ORIENTED_EDGE ( 'NONE', *, *, #773, .F. ) ;
#1023 = DIRECTION ( 'NONE',  ( -0.000000000000000000, -0.000000000000000000, -1.000000000000000000 ) ) ;
#1024 = CYLINDRICAL_SURFACE ( 'NONE', #28, 2.100000000000000089 ) ;
#1025 = EDGE_CURVE ( 'NONE', #488, #326, #1147, .T. ) ;
#1026 = DIRECTION ( 'NONE',  ( -1.000000000000000000, 0.000000000000000000, 0.000000000000000000 ) ) ;
#1027 = APPLICATION_PROTOCOL_DEFINITION ( 'international standard', 'config_control_design', 1994, #1009 ) ;
#1028 = ORIENTED_EDGE ( 'NONE', *, *, #510, .F. ) ;
#1029 = CARTESIAN_POINT ( 'NONE',  ( -0.8020356551642384701, 0.9165590747011527206, -4.859162904938545857 ) ) ;
#1030 = DIRECTION ( 'NONE',  ( 0.000000000000000000, 0.000000000000000000, 1.000000000000000000 ) ) ;
#1031 = DIRECTION ( 'NONE',  ( -0.000000000000000000, 1.000000000000000000, -0.000000000000000000 ) ) ;
#1032 = CC_DESIGN_PERSON_AND_ORGANIZATION_ASSIGNMENT ( #1036, #409, ( #802 ) ) ;
#1033 = LOCAL_TIME ( 14, 24, 44.00000000000000000, #947 ) ;
#1034 = DIRECTION ( 'NONE',  ( 1.000000000000000000, 0.000000000000000000, 0.000000000000000000 ) ) ;
#1035 = CIRCLE ( 'NONE', #6, 2.099872945368625121 ) ;
#1036 = PERSON_AND_ORGANIZATION ( #481, #235 ) ;
#1037 = ORIENTED_EDGE ( 'NONE', *, *, #400, .F. ) ;
#1038 = AXIS2_PLACEMENT_3D ( 'NONE', #652, #1010, #190 ) ;
#1039 = DIRECTION ( 'NONE',  ( 0.000000000000000000, 0.000000000000000000, -1.000000000000000000 ) ) ;
#1040 = CARTESIAN_POINT ( 'NONE',  ( -2.099872945368625121, 0.000000000000000000, 5.139000000000000234 ) ) ;
#1041 = B_SPLINE_CURVE_WITH_KNOTS ( 'NONE', 3,
 ( #569, #97, #474, #366 ),
 .UNSPECIFIED., .F., .F.,
 ( 4, 4 ),
 ( 0.007647354141962996350, 0.007869202712918578826 ),
 .UNSPECIFIED. ) ;
#1042 = FACE_OUTER_BOUND ( 'NONE', #825, .T. ) ;
#1043 = DIRECTION ( 'NONE',  ( -0.000000000000000000, -0.000000000000000000, 1.000000000000000000 ) ) ;
#1044 = ORIENTED_EDGE ( 'NONE', *, *, #85, .T. ) ;
#1045 = EDGE_CURVE ( 'NONE', #1005, #1151, #518, .T. ) ;
#1046 = CARTESIAN_POINT ( 'NONE',  ( 1.749999999999870548, -1.451931875537878502, -5.211839513482811270 ) ) ;
#1047 = CARTESIAN_POINT ( 'NONE',  ( 2.100000000000000089, 2.571758278209441957E-16, 0.8890000000000000124 ) ) ;
#1048 = CARTESIAN_POINT ( 'NONE',  ( 0.000000000000000000, 0.000000000000000000, 4.523072258617639285 ) ) ;
#1049 = CARTESIAN_POINT ( 'NONE',  ( -1.654669633783530047, 1.057835647284981473, -5.777098220869413936 ) ) ;
#1050 = ORIENTED_EDGE ( 'NONE', *, *, #233, .T. ) ;
#1051 = CARTESIAN_POINT ( 'NONE',  ( -0.2408061612511709082, 1.088684453208522918, -4.929010225394583777 ) ) ;
#1052 = EDGE_CURVE ( 'NONE', #374, #717, #98, .T. ) ;
#1053 = DIRECTION ( 'NONE',  ( 1.000000000000000000, 0.000000000000000000, 0.000000000000000000 ) ) ;
#1054 = ORIENTED_EDGE ( 'NONE', *, *, #1060, .F. ) ;
#1055 = FACE_OUTER_BOUND ( 'NONE', #777, .T. ) ;
#1056 = AXIS2_PLACEMENT_3D ( 'NONE', #552, #299, #276 ) ;
#1057 = EDGE_CURVE ( 'NONE', #674, #420, #319, .T. ) ;
#1058 = AXIS2_PLACEMENT_3D ( 'NONE', #766, #1043, #749 ) ;
#1059 = DIRECTION ( 'NONE',  ( -0.000000000000000000, -0.000000000000000000, -1.000000000000000000 ) ) ;
#1060 = EDGE_CURVE ( 'NONE', #978, #79, #1172, .T. ) ;
#1061 = CARTESIAN_POINT ( 'NONE',  ( 0.000000000000000000, 0.000000000000000000, 4.139000000000000234 ) ) ;
#1062 = ORIENTED_EDGE ( 'NONE', *, *, #1102, .T. ) ;
#1063 = CARTESIAN_POINT ( 'NONE',  ( -0.1233449203368010283, -2.100009524403047223, 2.138959997505217370 ) ) ;
#1064 = DIRECTION ( 'NONE',  ( -0.000000000000000000, -0.000000000000000000, -1.000000000000000000 ) ) ;
#1065 = EDGE_CURVE ( 'NONE', #148, #908, #899, .T. ) ;
#1066 = CARTESIAN_POINT ( 'NONE',  ( -2.800803085042443579E-13, -3.557648069663811974, -1.107061409388670592 ) ) ;
#1067 = PLANE ( 'NONE',  #663 ) ;
#1068 = CARTESIAN_POINT ( 'NONE',  ( -0.2470917478819852353, 2.087439085565598429, 2.187221323398957029 ) ) ;
#1069 = ORIENTED_EDGE ( 'NONE', *, *, #611, .F. ) ;
#1070 = CARTESIAN_POINT ( 'NONE',  ( -0.4000000000000000222, 2.061423388508800247, 5.138999999999999346 ) ) ;
#1071 = ORIENTED_EDGE ( 'NONE', *, *, #384, .T. ) ;
#1072 = CARTESIAN_POINT ( 'NONE',  ( 0.000000000000000000, 0.000000000000000000, 4.439000000000000057 ) ) ;
#1073 = CARTESIAN_POINT ( 'NONE',  ( -1.750000000000000000, -4.443370011459320423, -2.786255496146254007 ) ) ;
#1074 = CARTESIAN_POINT ( 'NONE',  ( -5.434281881165294870, 2.717140940582647879, -4.583932990539880237 ) ) ;
#1075 = AXIS2_PLACEMENT_3D ( 'NONE', #392, #1111, #1039 ) ;
#1076 = ORIENTED_EDGE ( 'NONE', *, *, #1057, .F. ) ;
#1077 = CARTESIAN_POINT ( 'NONE',  ( 0.4000000000000000222, -2.264950330581225302, 4.523072258617639285 ) ) ;
#1078 = DIRECTION ( 'NONE',  ( -0.000000000000000000, -0.000000000000000000, -1.000000000000000000 ) ) ;
#1079 = EDGE_CURVE ( 'NONE', #291, #1099, #1087, .T. ) ;
#1080 = CARTESIAN_POINT ( 'NONE',  ( 0.8548794875282460515, 1.727906106888383198, -5.835721789848318686 ) ) ;
#1081 = DIRECTION ( 'NONE',  ( 1.000000000000000000, 0.000000000000000000, 0.000000000000000000 ) ) ;
#1082 = VERTEX_POINT ( 'NONE', #277 ) ;
#1083 = CC_DESIGN_PERSON_AND_ORGANIZATION_ASSIGNMENT ( #493, #845, ( #536 ) ) ;
#1084 = EDGE_LOOP ( 'NONE', ( #1028, #693, #494, #1110, #302 ) ) ;
#1085 = CARTESIAN_POINT ( 'NONE',  ( 0.6935268489696463368, 1.794776178381157106, -5.841572163033102782 ) ) ;
#1086 = CARTESIAN_POINT ( 'NONE',  ( 0.000000000000000000, 0.000000000000000000, 0.000000000000000000 ) ) ;
#1087 = LINE ( 'NONE', #559, #477 ) ;
#1088 = CARTESIAN_POINT ( 'NONE',  ( -0.2502672830840416696, -3.557648069663783552, -1.107061409388716111 ) ) ;
#1089 = AXIS2_PLACEMENT_3D ( 'NONE', #1048, #1064, #788 ) ;
#1090 = CIRCLE ( 'NONE', #567, 1.750000000000000222 ) ;
#1091 = CYLINDRICAL_SURFACE ( 'NONE', #475, 3.174999999999999822 ) ;
#1092 = DIRECTION ( 'NONE',  ( 0.000000000000000000, 0.000000000000000000, 1.000000000000000000 ) ) ;
#1093 = ORIENTED_EDGE ( 'NONE', *, *, #1057, .T. ) ;
#1094 = CIRCLE ( 'NONE', #902, 2.100000000000000089 ) ;
#1095 = CARTESIAN_POINT ( 'NONE',  ( 0.000000000000000000, 0.000000000000000000, 8.673617379884035472E-16 ) ) ;
#1096 = EDGE_CURVE ( 'NONE', #1005, #719, #1041, .T. ) ;
#1097 = ORIENTED_EDGE ( 'NONE', *, *, #744, .F. ) ;
#1098 = CARTESIAN_POINT ( 'NONE',  ( -1.270571054115378789E-16, 2.075000000000000178, -3.174999999999999822 ) ) ;
#1099 = VERTEX_POINT ( 'NONE', #828 ) ;
#1100 = CARTESIAN_POINT ( 'NONE',  ( -0.4000000000000000222, -2.061423388508800247, 5.138999999999999346 ) ) ;
#1101 = VERTEX_POINT ( 'NONE', #1098 ) ;
#1102 = EDGE_CURVE ( 'NONE', #476, #429, #469, .T. ) ;
#1103 = ORIENTED_EDGE ( 'NONE', *, *, #966, .T. ) ;
#1104 = CARTESIAN_POINT ( 'NONE',  ( 1.749999999999999556, 0.2523380088299957413, 5.446093261736414171 ) ) ;
#1105 = CARTESIAN_POINT ( 'NONE',  ( 0.4000000000000000222, -2.061552812808830737, 4.139000000000000234 ) ) ;
#1106 = VECTOR ( 'NONE', #1031, 1000.000000000000000 ) ;
#1107 = EDGE_LOOP ( 'NONE', ( #345, #967, #524, #126, #189 ) ) ;
#1108 = CIRCLE ( 'NONE', #644, 2.100000000000000089 ) ;
#1109 = CALENDAR_DATE ( 2022, 6, 6 ) ;
#1110 = ORIENTED_EDGE ( 'NONE', *, *, #818, .T. ) ;
#1111 = DIRECTION ( 'NONE',  ( -1.000000000000000000, -0.000000000000000000, -0.000000000000000000 ) ) ;
#1112 = EDGE_CURVE ( 'NONE', #1099, #528, #645, .T. ) ;
#1113 = VECTOR ( 'NONE', #21, 1000.000000000000000 ) ;
#1114 = CARTESIAN_POINT ( 'NONE',  ( 0.4000000000000000222, 2.061423388508800247, 5.138999999999999346 ) ) ;
#1115 = DIRECTION ( 'NONE',  ( 1.000000000000000000, 0.000000000000000000, -0.000000000000000000 ) ) ;
#1116 = CARTESIAN_POINT ( 'NONE',  ( 0.000000000000000000, 0.000000000000000000, 8.673617379884035472E-16 ) ) ;
#1117 = ORIENTED_EDGE ( 'NONE', *, *, #17, .F. ) ;
#1118 = CARTESIAN_POINT ( 'NONE',  ( 0.000000000000000000, 0.000000000000000000, 1.734723475976807094E-15 ) ) ;
#1119 = CARTESIAN_POINT ( 'NONE',  ( -0.4000000000000000222, -2.061552812808830737, 4.139000000000000234 ) ) ;
#1120 = EDGE_CURVE ( 'NONE', #291, #948, #437, .T. ) ;
#1121 = CARTESIAN_POINT ( 'NONE',  ( -1.990062962217225451, 0.2537033165980018268, -5.706745757959623688 ) ) ;
#1122 = DIRECTION ( 'NONE',  ( -1.000000000000000000, 0.000000000000000000, 0.000000000000000000 ) ) ;
#1123 = DIRECTION ( 'NONE',  ( 1.000000000000000000, 0.000000000000000000, 0.000000000000000000 ) ) ;
#1124 = ADVANCED_FACE ( 'NONE', ( #655 ), #284, .F. ) ;
#1125 = CARTESIAN_POINT ( 'NONE',  ( -2.013562779537157788, 0.07878205828224550678, -5.691442130847302217 ) ) ;
#1126 = AXIS2_PLACEMENT_3D ( 'NONE', #1061, #705, #970 ) ;
#1127 = ORIENTED_EDGE ( 'NONE', *, *, #558, .T. ) ;
#1128 = AXIS2_PLACEMENT_3D ( 'NONE', #736, #1092, #1081 ) ;
#1129 = CARTESIAN_POINT ( 'NONE',  ( -1.547295607331039102, 0.2281389227871722936, -4.559484743466263978 ) ) ;
#1130 = CARTESIAN_POINT ( 'NONE',  ( -2.968887901245970468E-13, -3.749999999999999556, 1.734723475976807094E-15 ) ) ;
#1131 = LINE ( 'NONE', #323, #80 ) ;
#1132 = CARTESIAN_POINT ( 'NONE',  ( 0.000000000000000000, 0.000000000000000000, 5.138999999999999346 ) ) ;
#1133 = PRODUCT_DEFINITION_SHAPE ( 'NONE', 'NONE',  #802 ) ;
#1134 = ORIENTED_EDGE ( 'NONE', *, *, #107, .F. ) ;
#1135 = CARTESIAN_POINT ( 'NONE',  ( 0.000000000000000000, -0.4935558389153984482, -5.641369053136244816 ) ) ;
#1136 = CARTESIAN_POINT ( 'NONE',  ( 1.750000000000000000, 0.000000000000000000, -3.174999999999999822 ) ) ;
#1137 = CARTESIAN_POINT ( 'NONE',  ( -0.4000000000000000222, 2.061552812808830737, 4.439000000000000057 ) ) ;
#1138 = ADVANCED_FACE ( 'NONE', ( #917 ), #104, .T. ) ;
#1139 = ORIENTED_EDGE ( 'NONE', *, *, #442, .F. ) ;
#1140 = CARTESIAN_POINT ( 'NONE',  ( -0.4000000000000000222, 2.264950330581225302, 4.523072258617639285 ) ) ;
#1141 = EDGE_CURVE ( 'NONE', #4, #734, #772, .T. ) ;
#1142 = CARTESIAN_POINT ( 'NONE',  ( -1.198755117514069601, -3.241663460123300755, -1.606684208626276256 ) ) ;
#1143 = CARTESIAN_POINT ( 'NONE',  ( 1.798366957254945515E-16, -3.174999999999999822, 2.638999999999999790 ) ) ;
#1144 = ORIENTED_EDGE ( 'NONE', *, *, #85, .F. ) ;
#1145 = CARTESIAN_POINT ( 'NONE',  ( -0.4871800118523824663, -2.042738830444500664, 2.470636393497687600 ) ) ;
#1146 = CIRCLE ( 'NONE', #515, 2.299999999999999822 ) ;
#1147 = CIRCLE ( 'NONE', #1014, 1.750000000000000222 ) ;
#1148 = EDGE_CURVE ( 'NONE', #1018, #462, #810, .T. ) ;
#1149 = CARTESIAN_POINT ( 'NONE',  ( 0.4980973490458732167, 2.040073290564206943, 2.595422128626173830 ) ) ;
#1150 = CARTESIAN_POINT ( 'NONE',  ( 0.000000000000000000, 0.000000000000000000, 5.138999999999999346 ) ) ;
#1151 = VERTEX_POINT ( 'NONE', #219 ) ;
#1152 = DIRECTION ( 'NONE',  ( -1.000000000000000000, 0.000000000000000000, 0.000000000000000000 ) ) ;
#1153 = CARTESIAN_POINT ( 'NONE',  ( 2.100000000000000089, 2.571758278209441957E-16, 4.439000000000000057 ) ) ;
#1154 = DIRECTION ( 'NONE',  ( -1.000000000000000000, 0.000000000000000000, 0.000000000000000000 ) ) ;
#1155 = CARTESIAN_POINT ( 'NONE',  ( -2.151169830526912035E-13, -2.717140940582647879, -4.583932990539879349 ) ) ;
#1156 = CARTESIAN_POINT ( 'NONE',  ( -0.4000000000000000222, 2.061552812808830737, 4.439000000000000057 ) ) ;
#1157 = CARTESIAN_POINT ( 'NONE',  ( 0.4980973490458732167, -2.040073290564207831, 2.595422128626173830 ) ) ;
#1158 = ORIENTED_EDGE ( 'NONE', *, *, #837, .T. ) ;
#1159 = EDGE_CURVE ( 'NONE', #1005, #291, #839, .T. ) ;
#1160 = CARTESIAN_POINT ( 'NONE',  ( 0.000000000000000000, 0.000000000000000000, 0.8890000000000000124 ) ) ;
#1161 = DIRECTION ( 'NONE',  ( 1.000000000000000000, 0.000000000000000000, 0.000000000000000000 ) ) ;
#1162 = LOCAL_TIME ( 14, 24, 44.00000000000000000, #110 ) ;
#1163 = VERTEX_POINT ( 'NONE', #1017 ) ;
#1164 = VECTOR ( 'NONE', #874, 1000.000000000000000 ) ;
#1165 = DIRECTION ( 'NONE',  ( -1.224646799147353207E-16, 0.000000000000000000, -1.000000000000000000 ) ) ;
#1166 = AXIS2_PLACEMENT_3D ( 'NONE', #1160, #77, #356 ) ;
#1167 = LINE ( 'NONE', #153, #1016 ) ;
#1168 = CARTESIAN_POINT ( 'NONE',  ( 0.4000000000000000222, -2.061552812808830737, 4.439000000000000057 ) ) ;
#1169 = VERTEX_POINT ( 'NONE', #208 ) ;
#1170 = CARTESIAN_POINT ( 'NONE',  ( 1.990268525010400413, 0.2521306219561799122, -5.706608165007274636 ) ) ;
#1171 = DIRECTION ( 'NONE',  ( -0.000000000000000000, 0.9961946980917455452, -0.08715574274765836016 ) ) ;
#1172 = LINE ( 'NONE', #3, #936 ) ;
#1173 = ORIENTED_EDGE ( 'NONE', *, *, #852, .F. ) ;
#1174 = CARTESIAN_POINT ( 'NONE',  ( -4.112703677319985275E-16, -3.358277407153972938, -2.553262504005645805 ) ) ;
ENDSEC;
END-ISO-10303-21;
