ISO-10303-21;
HEADER;
FILE_DESCRIPTION (( 'STEP AP214' ),
    '1' );
FILE_NAME ('228-2500-168.step',
    '2022-06-13T14:10:16',
    ( '' ),
    ( '' ),
    'SwSTEP 2.0',
    'SolidWorks 2021',
    '' );
FILE_SCHEMA (( 'AUTOMOTIVE_DESIGN' ));
ENDSEC;

DATA;
#1 = EDGE_CURVE ( 'NONE', #932, #1127, #1073, .T. ) ;
#2 = DIRECTION ( 'NONE',  ( 1.776356839400250070E-15, 0.000000000000000000, -1.000000000000000000 ) ) ;
#3 = UNCERTAINTY_MEASURE_WITH_UNIT (LENGTH_MEASURE( 1.000000000000000082E-05 ), #844, 'distance_accuracy_value', 'NONE');
#4 = DIRECTION ( 'NONE',  ( 0.000000000000000000, 1.000000000000000000, 0.000000000000000000 ) ) ;
#5 = ORIENTED_EDGE ( 'NONE', *, *, #845, .T. ) ;
#6 = ORIENTED_EDGE ( 'NONE', *, *, #231, .T. ) ;
#7 = DIRECTION ( 'NONE',  ( 0.000000000000000000, 0.000000000000000000, -1.000000000000000000 ) ) ;
#8 = ADVANCED_FACE ( 'NONE', ( #559 ), #769, .T. ) ;
#9 = DIRECTION ( 'NONE',  ( -1.000000000000000000, 0.000000000000000000, 0.000000000000000000 ) ) ;
#10 = ORIENTED_EDGE ( 'NONE', *, *, #1295, .F. ) ;
#11 = VERTEX_POINT ( 'NONE', #1171 ) ;
#12 = CARTESIAN_POINT ( 'NONE',  ( 0.000000000000000000, 0.000000000000000000, 2.674999999999999822 ) ) ;
#13 = CARTESIAN_POINT ( 'NONE',  ( 2.500000000000000000, 0.000000000000000000, 2.674999999999999822 ) ) ;
#14 = ADVANCED_FACE ( 'NONE', ( #937 ), #779, .T. ) ;
#15 = CIRCLE ( 'NONE', #184, 2.500000000000000000 ) ;
#16 = EDGE_LOOP ( 'NONE', ( #791, #90, #629, #330, #273, #1136, #1180, #304 ) ) ;
#17 = AXIS2_PLACEMENT_3D ( 'NONE', #1130, #1078, #767 ) ;
#18 = CARTESIAN_POINT ( 'NONE',  ( 0.000000000000000000, 3.140000000000000124, 0.000000000000000000 ) ) ;
#19 = ORIENTED_EDGE ( 'NONE', *, *, #456, .F. ) ;
#20 = CLOSED_SHELL ( 'NONE', ( #1239, #492, #858, #29, #1287, #301, #213, #965, #813, #1184, #1230, #910, #533 ) ) ;
#21 = DIRECTION ( 'NONE',  ( 0.000000000000000000, -1.000000000000000000, 0.000000000000000000 ) ) ;
#22 = DIRECTION ( 'NONE',  ( 0.000000000000000000, 0.000000000000000000, -1.000000000000000000 ) ) ;
#23 = EDGE_CURVE ( 'NONE', #132, #225, #1256, .T. ) ;
#24 = ORIENTED_EDGE ( 'NONE', *, *, #432, .T. ) ;
#25 = ORIENTED_EDGE ( 'NONE', *, *, #1268, .T. ) ;
#26 = DIRECTION ( 'NONE',  ( 0.000000000000000000, 0.000000000000000000, -1.000000000000000000 ) ) ;
#27 = EDGE_CURVE ( 'NONE', #508, #70, #690, .T. ) ;
#28 = ORIENTED_EDGE ( 'NONE', *, *, #483, .T. ) ;
#29 = ADVANCED_FACE ( 'NONE', ( #263 ), #847, .F. ) ;
#30 = ORIENTED_EDGE ( 'NONE', *, *, #573, .F. ) ;
#31 = SHAPE_REPRESENTATION ( '228-2500-168', ( #1198, #1071, #734 ), #55 ) ;
#32 = DIRECTION ( 'NONE',  ( 0.000000000000000000, -1.000000000000000000, 0.000000000000000000 ) ) ;
#33 = ORIENTED_EDGE ( 'NONE', *, *, #242, .T. ) ;
#34 = AXIS2_PLACEMENT_3D ( 'NONE', #546, #738, #45 ) ;
#35 = AXIS2_PLACEMENT_3D ( 'NONE', #663, #1281, #946 ) ;
#36 = ORIENTED_EDGE ( 'NONE', *, *, #1100, .T. ) ;
#37 = ADVANCED_FACE ( 'NONE', ( #1157 ), #1237, .T. ) ;
#38 = CARTESIAN_POINT ( 'NONE',  ( 0.000000000000000000, 0.000000000000000000, 2.174999999999999822 ) ) ;
#39 = VERTEX_POINT ( 'NONE', #1178 ) ;
#40 = CARTESIAN_POINT ( 'NONE',  ( 1.734723475976804925E-15, 0.000000000000000000, 2.640000000000000124 ) ) ;
#41 =( NAMED_UNIT ( * ) SI_UNIT ( $, .STERADIAN. ) SOLID_ANGLE_UNIT ( ) );
#42 = FACE_OUTER_BOUND ( 'NONE', #709, .T. ) ;
#43 = LINE ( 'NONE', #849, #684 ) ;
#44 = ORIENTED_EDGE ( 'NONE', *, *, #621, .F. ) ;
#45 = DIRECTION ( 'NONE',  ( 1.000000000000000000, 0.000000000000000000, 0.000000000000000000 ) ) ;
#46 = ITEM_DEFINED_TRANSFORMATION ( 'NONE', 'NONE', #1071,  #307 ) ;
#47 = AXIS2_PLACEMENT_3D ( 'NONE', #18, #411, #124 ) ;
#48 = CARTESIAN_POINT ( 'NONE',  ( 2.500000000000000000, 2.821700278779914139, -3.523130897042499932 ) ) ;
#49 = CARTESIAN_POINT ( 'NONE',  ( 0.000000000000000000, 0.000000000000000000, -2.674999999999999822 ) ) ;
#50 = CARTESIAN_POINT ( 'NONE',  ( -2.500000000000000000, 2.640000000000000124, -3.741657386773939997 ) ) ;
#51 = ORIENTED_EDGE ( 'NONE', *, *, #270, .F. ) ;
#52 = VECTOR ( 'NONE', #1285, 1000.000000000000000 ) ;
#53 = VECTOR ( 'NONE', #339, 1000.000000000000000 ) ;
#54 = CYLINDRICAL_SURFACE ( 'NONE', #933, 4.500000000000000000 ) ;
#55 =( GEOMETRIC_REPRESENTATION_CONTEXT ( 3 ) GLOBAL_UNCERTAINTY_ASSIGNED_CONTEXT ( ( #525 ) ) GLOBAL_UNIT_ASSIGNED_CONTEXT ( ( #652, #1022, #415 ) ) REPRESENTATION_CONTEXT ( 'NONE', 'WORKASPACE' ) );
#56 = DIRECTION ( 'NONE',  ( 1.000000000000000000, 0.000000000000000000, 0.000000000000000000 ) ) ;
#57 = CIRCLE ( 'NONE', #977, 2.500000000000000000 ) ;
#58 =( LENGTH_UNIT ( ) NAMED_UNIT ( * ) SI_UNIT ( .MILLI., .METRE. ) );
#59 = CARTESIAN_POINT ( 'NONE',  ( 1.734723475976804925E-15, 0.000000000000000000, 2.674999999999999822 ) ) ;
#60 = ADVANCED_FACE ( 'NONE', ( #1074 ), #446, .T. ) ;
#61 = FACE_BOUND ( 'NONE', #917, .T. ) ;
#62 = ORIENTED_EDGE ( 'NONE', *, *, #495, .F. ) ;
#63 = DIRECTION ( 'NONE',  ( 0.000000000000000000, 0.000000000000000000, 1.000000000000000000 ) ) ;
#64 = DIRECTION ( 'NONE',  ( 0.000000000000000000, 1.000000000000000000, 0.000000000000000000 ) ) ;
#65 = APPLICATION_PROTOCOL_DEFINITION ( 'draft international standard', 'automotive_design', 1998, #1031 ) ;
#66 = CARTESIAN_POINT ( 'NONE',  ( -2.500000000000000000, 0.000000000000000000, 3.141000000000000014 ) ) ;
#67 = APPLICATION_CONTEXT ( 'automotive_design' ) ;
#68 = SURFACE_STYLE_USAGE ( .BOTH. , #262 ) ;
#69 = CARTESIAN_POINT ( 'NONE',  ( 5.510910596163090542E-16, 2.640000000000000124, 4.500000000000000000 ) ) ;
#70 = VERTEX_POINT ( 'NONE', #542 ) ;
#71 = EDGE_CURVE ( 'NONE', #195, #607, #268, .T. ) ;
#72 = CARTESIAN_POINT ( 'NONE',  ( 0.000000000000000000, 3.140000000000000124, 0.000000000000000000 ) ) ;
#73 = CARTESIAN_POINT ( 'NONE',  ( 0.000000000000000000, 0.000000000000000000, 2.674999999999999822 ) ) ;
#74 = CIRCLE ( 'NONE', #703, 4.500000000000000000 ) ;
#75 = DIRECTION ( 'NONE',  ( 0.000000000000000000, 1.000000000000000000, 0.000000000000000000 ) ) ;
#76 = ORIENTED_EDGE ( 'NONE', *, *, #519, .T. ) ;
#77 = DIRECTION ( 'NONE',  ( 0.000000000000000000, -1.000000000000000000, 0.000000000000000000 ) ) ;
#78 = ADVANCED_FACE ( 'NONE', ( #42 ), #151, .T. ) ;
#79 = FACE_OUTER_BOUND ( 'NONE', #928, .T. ) ;
#80 = AXIS2_PLACEMENT_3D ( 'NONE', #886, #181, #600 ) ;
#81 = AXIS2_PLACEMENT_3D ( 'NONE', #1027, #127, #1225 ) ;
#82 = PRESENTATION_LAYER_ASSIGNMENT (  '', '', ( #1028 ) ) ;
#83 = CLOSED_SHELL ( 'NONE', ( #286, #8, #60, #1046, #821, #1204, #1202, #905, #192, #37, #502, #710, #1260, #1106, #389, #78, #660, #877, #14, #1150, #719 ) ) ;
#84 = CARTESIAN_POINT ( 'NONE',  ( -2.500000000000000000, 3.727611431664075159, 2.651678922598029953 ) ) ;
#85 = DIRECTION ( 'NONE',  ( 1.000000000000000000, 0.000000000000000000, 0.000000000000000000 ) ) ;
#86 = VERTEX_POINT ( 'NONE', #1258 ) ;
#87 = DIRECTION ( 'NONE',  ( 1.000000000000000000, 0.000000000000000000, 0.000000000000000000 ) ) ;
#88 = CARTESIAN_POINT ( 'NONE',  ( -2.500000000000000000, -2.988366945448452938, 3.316744767848619713 ) ) ;
#89 = LINE ( 'NONE', #685, #1218 ) ;
#90 = ORIENTED_EDGE ( 'NONE', *, *, #435, .T. ) ;
#91 = ORIENTED_EDGE ( 'NONE', *, *, #251, .F. ) ;
#92 = DIRECTION ( 'NONE',  ( 0.000000000000000000, 0.000000000000000000, -1.000000000000000000 ) ) ;
#93 = CARTESIAN_POINT ( 'NONE',  ( 0.000000000000000000, -1.639999999999999902, -2.500000000000000000 ) ) ;
#94 = EDGE_CURVE ( 'NONE', #838, #831, #358, .T. ) ;
#95 = CARTESIAN_POINT ( 'NONE',  ( -2.500000000000000000, -4.500000000000000000, -3.141000000000000014 ) ) ;
#96 = ORIENTED_EDGE ( 'NONE', *, *, #1243, .F. ) ;
#97 = CARTESIAN_POINT ( 'NONE',  ( 0.000000000000000000, 0.000000000000000000, -2.174999999999999822 ) ) ;
#98 = ORIENTED_EDGE ( 'NONE', *, *, #593, .T. ) ;
#99 = CARTESIAN_POINT ( 'NONE',  ( 2.500000000000000000, 3.741657386773939997, -2.140000000000000124 ) ) ;
#100 =( GEOMETRIC_REPRESENTATION_CONTEXT ( 3 ) GLOBAL_UNCERTAINTY_ASSIGNED_CONTEXT ( ( #3 ) ) GLOBAL_UNIT_ASSIGNED_CONTEXT ( ( #844, #1132, #230 ) ) REPRESENTATION_CONTEXT ( 'NONE', 'WORKASPACE' ) );
#101 = AXIS2_PLACEMENT_3D ( 'NONE', #762, #4, #606 ) ;
#102 = COLOUR_RGB ( '',0.7921568627450980005, 0.8196078431372548767, 0.9333333333333333481 ) ;
#103 = AXIS2_PLACEMENT_3D ( 'NONE', #1183, #485, #571 ) ;
#104 = CARTESIAN_POINT ( 'NONE',  ( 0.000000000000000000, 3.140000000000000124, 0.000000000000000000 ) ) ;
#105 = PRODUCT_RELATED_PRODUCT_CATEGORY ( 'part', '', ( #110 ) ) ;
#106 = ORIENTED_EDGE ( 'NONE', *, *, #1131, .F. ) ;
#107 = VERTEX_POINT ( 'NONE', #69 ) ;
#108 = CYLINDRICAL_SURFACE ( 'NONE', #162, 1.500000000000000000 ) ;
#109 =( NAMED_UNIT ( * ) PLANE_ANGLE_UNIT ( ) SI_UNIT ( $, .RADIAN. ) );
#110 = PRODUCT ( '228-2500-167.step', '228-2500-167.step', '', ( #224 ) ) ;
#111 = FACE_OUTER_BOUND ( 'NONE', #869, .T. ) ;
#112 = VERTEX_POINT ( 'NONE', #1065 ) ;
#113 = ORIENTED_EDGE ( 'NONE', *, *, #984, .T. ) ;
#114 = CARTESIAN_POINT ( 'NONE',  ( 2.500000000000000000, 2.640000000000000124, -3.741657386773939997 ) ) ;
#115 = ORIENTED_EDGE ( 'NONE', *, *, #921, .F. ) ;
#116 = AXIS2_PLACEMENT_3D ( 'NONE', #228, #630, #131 ) ;
#117 = ORIENTED_EDGE ( 'NONE', *, *, #447, .T. ) ;
#118 = DIRECTION ( 'NONE',  ( 1.000000000000000000, 0.000000000000000000, 0.000000000000000000 ) ) ;
#119 = EDGE_CURVE ( 'NONE', #631, #736, #605, .T. ) ;
#120 = CARTESIAN_POINT ( 'NONE',  ( -2.500000000000000000, 3.741657386773939997, 3.141000000000000014 ) ) ;
#121 = AXIS2_PLACEMENT_3D ( 'NONE', #911, #374, #276 ) ;
#122 = ORIENTED_EDGE ( 'NONE', *, *, #456, .T. ) ;
#123 = AXIS2_PLACEMENT_3D ( 'NONE', #1249, #1163, #664 ) ;
#124 = DIRECTION ( 'NONE',  ( 0.000000000000000000, 0.000000000000000000, 1.000000000000000000 ) ) ;
#125 = VERTEX_POINT ( 'NONE', #293 ) ;
#126 = CIRCLE ( 'NONE', #121, 4.500000000000000000 ) ;
#127 = DIRECTION ( 'NONE',  ( 0.000000000000000000, 1.000000000000000000, 0.000000000000000000 ) ) ;
#128 = DIRECTION ( 'NONE',  ( 0.000000000000000000, 1.000000000000000000, 0.000000000000000000 ) ) ;
#129 = EDGE_CURVE ( 'NONE', #457, #210, #476, .T. ) ;
#130 = ORIENTED_EDGE ( 'NONE', *, *, #135, .F. ) ;
#131 = DIRECTION ( 'NONE',  ( 0.000000000000000000, 0.000000000000000000, 1.000000000000000000 ) ) ;
#132 = VERTEX_POINT ( 'NONE', #919 ) ;
#133 = DIRECTION ( 'NONE',  ( 1.224646799147350002E-16, 1.000000000000000000, 0.000000000000000000 ) ) ;
#134 = ORIENTED_EDGE ( 'NONE', *, *, #175, .F. ) ;
#135 = EDGE_CURVE ( 'NONE', #626, #705, #1006, .T. ) ;
#136 =( REPRESENTATION_RELATIONSHIP ('NONE','NONE', #31, #890 ) REPRESENTATION_RELATIONSHIP_WITH_TRANSFORMATION ( #46 )SHAPE_REPRESENTATION_RELATIONSHIP( ) );
#137 = DIRECTION ( 'NONE',  ( 0.000000000000000000, 0.000000000000000000, 1.000000000000000000 ) ) ;
#138 = ORIENTED_EDGE ( 'NONE', *, *, #417, .T. ) ;
#139 = AXIS2_PLACEMENT_3D ( 'NONE', #314, #1227, #1040 ) ;
#140 = SURFACE_STYLE_FILL_AREA ( #234 ) ;
#141 = ORIENTED_EDGE ( 'NONE', *, *, #1138, .T. ) ;
#142 = AXIS2_PLACEMENT_3D ( 'NONE', #1194, #909, #602 ) ;
#143 = AXIS2_PLACEMENT_3D ( 'NONE', #73, #453, #940 ) ;
#144 = VERTEX_POINT ( 'NONE', #1292 ) ;
#145 = DIRECTION ( 'NONE',  ( 0.000000000000000000, 0.000000000000000000, 1.000000000000000000 ) ) ;
#146 = CARTESIAN_POINT ( 'NONE',  ( 0.000000000000000000, 0.000000000000000000, 2.174999999999999822 ) ) ;
#147 = DIRECTION ( 'NONE',  ( 0.000000000000000000, 0.000000000000000000, 1.000000000000000000 ) ) ;
#148 = EDGE_LOOP ( 'NONE', ( #294, #299, #30, #828 ) ) ;
#149 = EDGE_CURVE ( 'NONE', #344, #673, #414, .T. ) ;
#150 = SHAPE_DEFINITION_REPRESENTATION ( #997, #31 ) ;
#151 = CYLINDRICAL_SURFACE ( 'NONE', #856, 6.100000000000000533 ) ;
#152 = VERTEX_POINT ( 'NONE', #318 ) ;
#153 = DIRECTION ( 'NONE',  ( 0.000000000000000000, 1.000000000000000000, 0.000000000000000000 ) ) ;
#154 = EDGE_CURVE ( 'NONE', #987, #159, #187, .T. ) ;
#155 = STYLED_ITEM ( 'NONE', ( #576 ), #784 ) ;
#156 = LINE ( 'NONE', #750, #243 ) ;
#157 = VERTEX_POINT ( 'NONE', #13 ) ;
#158 = DIRECTION ( 'NONE',  ( 0.000000000000000000, 1.000000000000000000, 0.000000000000000000 ) ) ;
#159 = VERTEX_POINT ( 'NONE', #382 ) ;
#160 = CIRCLE ( 'NONE', #603, 4.500000000000000000 ) ;
#161 = CARTESIAN_POINT ( 'NONE',  ( 0.000000000000000000, 0.000000000000000000, -2.674999999999999822 ) ) ;
#162 = AXIS2_PLACEMENT_3D ( 'NONE', #12, #92, #918 ) ;
#163 = DIRECTION ( 'NONE',  ( 1.000000000000000000, 0.000000000000000000, 0.000000000000000000 ) ) ;
#164 = AXIS2_PLACEMENT_3D ( 'NONE', #38, #947, #872 ) ;
#165 = PLANE ( 'NONE',  #745 ) ;
#166 = DIRECTION ( 'NONE',  ( 1.000000000000000000, 0.000000000000000000, 0.000000000000000000 ) ) ;
#167 = DIRECTION ( 'NONE',  ( 0.000000000000000000, 0.000000000000000000, 1.000000000000000000 ) ) ;
#168 = DIRECTION ( 'NONE',  ( 0.000000000000000000, 1.000000000000000000, 0.000000000000000000 ) ) ;
#169 = ORIENTED_EDGE ( 'NONE', *, *, #1268, .F. ) ;
#170 = DIRECTION ( 'NONE',  ( 0.000000000000000000, -1.000000000000000000, 0.000000000000000000 ) ) ;
#171 = CARTESIAN_POINT ( 'NONE',  ( 2.500000000000000000, -3.741657386773939997, -3.140000000000000124 ) ) ;
#172 = SHAPE_REPRESENTATION_RELATIONSHIP ( 'NONE' , 'NONE' ,  #757, #324 ) ;
#173 = DIRECTION ( 'NONE',  ( 0.000000000000000000, 0.000000000000000000, 1.000000000000000000 ) ) ;
#174 = DIRECTION ( 'NONE',  ( 0.000000000000000000, 0.000000000000000000, 1.000000000000000000 ) ) ;
#175 = EDGE_CURVE ( 'NONE', #550, #132, #715, .T. ) ;
#176 = ORIENTED_EDGE ( 'NONE', *, *, #1168, .F. ) ;
#177 = DIRECTION ( 'NONE',  ( 0.000000000000000000, 0.000000000000000000, 1.000000000000000000 ) ) ;
#178 = DIRECTION ( 'NONE',  ( 0.000000000000000000, -1.000000000000000000, 0.000000000000000000 ) ) ;
#179 = AXIS2_PLACEMENT_3D ( 'NONE', #994, #385, #696 ) ;
#180 = CARTESIAN_POINT ( 'NONE',  ( -2.500000000000000000, 2.140000000000000124, 3.741657386773939997 ) ) ;
#181 = DIRECTION ( 'NONE',  ( 0.000000000000000000, 0.000000000000000000, 1.000000000000000000 ) ) ;
#182 = EDGE_LOOP ( 'NONE', ( #235, #737, #1045, #1098 ) ) ;
#183 = DIRECTION ( 'NONE',  ( 0.000000000000000000, 0.000000000000000000, 1.000000000000000000 ) ) ;
#184 = AXIS2_PLACEMENT_3D ( 'NONE', #896, #396, #118 ) ;
#185 = DIRECTION ( 'NONE',  ( 0.000000000000000000, -1.000000000000000000, 0.000000000000000000 ) ) ;
#186 = MECHANICAL_DESIGN_GEOMETRIC_PRESENTATION_REPRESENTATION (  '', ( #1050 ), #688 ) ;
#187 = LINE ( 'NONE', #120, #1029 ) ;
#188 = DIRECTION ( 'NONE',  ( 0.000000000000000000, 0.000000000000000000, -1.000000000000000000 ) ) ;
#189 = ORIENTED_EDGE ( 'NONE', *, *, #1020, .F. ) ;
#190 = ORIENTED_EDGE ( 'NONE', *, *, #773, .F. ) ;
#191 = LINE ( 'NONE', #504, #537 ) ;
#192 = ADVANCED_FACE ( 'NONE', ( #587 ), #986, .T. ) ;
#193 = DIRECTION ( 'NONE',  ( 1.000000000000000000, 0.000000000000000000, 0.000000000000000000 ) ) ;
#194 = CARTESIAN_POINT ( 'NONE',  ( 1.734723475976804925E-15, 0.000000000000000000, -3.140000000000000124 ) ) ;
#195 = VERTEX_POINT ( 'NONE', #1126 ) ;
#196 = CYLINDRICAL_SURFACE ( 'NONE', #581, 4.500000000000000000 ) ;
#197 = EDGE_CURVE ( 'NONE', #626, #232, #783, .T. ) ;
#198 = AXIS2_PLACEMENT_3D ( 'NONE', #668, #968, #178 ) ;
#199 = CARTESIAN_POINT ( 'NONE',  ( 0.000000000000000000, 0.000000000000000000, 0.000000000000000000 ) ) ;
#200 = CARTESIAN_POINT ( 'NONE',  ( -2.500000000000000000, -3.713555671008029968, -2.663345702823739725 ) ) ;
#201 = EDGE_LOOP ( 'NONE', ( #712, #217, #966, #654, #1151, #656, #1144, #972 ) ) ;
#202 = AXIS2_PLACEMENT_3D ( 'NONE', #1179, #272, #549 ) ;
#203 = CARTESIAN_POINT ( 'NONE',  ( 2.500000000000000000, -3.141000000000000014, 3.741657386773939997 ) ) ;
#204 = CIRCLE ( 'NONE', #445, 4.500000000000000000 ) ;
#205 = VECTOR ( 'NONE', #448, 1000.000000000000000 ) ;
#206 = CIRCLE ( 'NONE', #934, 4.464999999999999858 ) ;
#207 = AXIS2_PLACEMENT_3D ( 'NONE', #146, #744, #454 ) ;
#208 = ORIENTED_EDGE ( 'NONE', *, *, #899, .F. ) ;
#209 = EDGE_CURVE ( 'NONE', #838, #132, #89, .T. ) ;
#210 = VERTEX_POINT ( 'NONE', #615 ) ;
#211 = CARTESIAN_POINT ( 'NONE',  ( -2.500000000000000000, -3.741657386773939997, -3.140000000000000124 ) ) ;
#212 = ORIENTED_EDGE ( 'NONE', *, *, #990, .F. ) ;
#213 = ADVANCED_FACE ( 'NONE', ( #1021 ), #970, .T. ) ;
#214 = ORIENTED_EDGE ( 'NONE', *, *, #333, .T. ) ;
#215 = CARTESIAN_POINT ( 'NONE',  ( 1.734723475976804925E-15, 0.000000000000000000, -3.140000000000000124 ) ) ;
#216 = DIRECTION ( 'NONE',  ( 2.318121752820995359E-16, 0.000000000000000000, 1.000000000000000000 ) ) ;
#217 = ORIENTED_EDGE ( 'NONE', *, *, #1054, .T. ) ;
#218 = LINE ( 'NONE', #1024, #974 ) ;
#219 = VERTEX_POINT ( 'NONE', #517 ) ;
#220 = DIRECTION ( 'NONE',  ( 0.000000000000000000, 0.000000000000000000, -1.000000000000000000 ) ) ;
#221 = EDGE_CURVE ( 'NONE', #1010, #195, #837, .T. ) ;
#222 = LINE ( 'NONE', #627, #1175 ) ;
#223 = EDGE_CURVE ( 'NONE', #70, #86, #594, .T. ) ;
#224 = PRODUCT_CONTEXT ( 'NONE', #376, 'mechanical' ) ;
#225 = VERTEX_POINT ( 'NONE', #93 ) ;
#226 = CYLINDRICAL_SURFACE ( 'NONE', #80, 2.500000000000000000 ) ;
#227 = VECTOR ( 'NONE', #964, 1000.000000000000000 ) ;
#228 = CARTESIAN_POINT ( 'NONE',  ( 0.000000000000000000, 2.640000000000000124, 0.000000000000000000 ) ) ;
#229 = VERTEX_POINT ( 'NONE', #491 ) ;
#230 =( NAMED_UNIT ( * ) SI_UNIT ( $, .STERADIAN. ) SOLID_ANGLE_UNIT ( ) );
#231 = EDGE_CURVE ( 'NONE', #232, #987, #126, .T. ) ;
#232 = VERTEX_POINT ( 'NONE', #1288 ) ;
#233 = EDGE_LOOP ( 'NONE', ( #311, #687, #816, #923 ) ) ;
#234 = FILL_AREA_STYLE ('',( #325 ) ) ;
#235 = ORIENTED_EDGE ( 'NONE', *, *, #400, .F. ) ;
#236 = ORIENTED_EDGE ( 'NONE', *, *, #417, .F. ) ;
#237 = CIRCLE ( 'NONE', #440, 1.500000000000000000 ) ;
#238 = FACE_BOUND ( 'NONE', #567, .T. ) ;
#239 = AXIS2_PLACEMENT_3D ( 'NONE', #1049, #1154, #1238 ) ;
#240 = DIRECTION ( 'NONE',  ( 0.000000000000000000, 0.000000000000000000, -1.000000000000000000 ) ) ;
#241 = CIRCLE ( 'NONE', #1025, 2.500000000000000000 ) ;
#242 = EDGE_CURVE ( 'NONE', #1294, #1222, #370, .T. ) ;
#243 = VECTOR ( 'NONE', #1257, 1000.000000000000000 ) ;
#244 = ORIENTED_EDGE ( 'NONE', *, *, #584, .F. ) ;
#245 = VECTOR ( 'NONE', #259, 1000.000000000000000 ) ;
#246 = DIRECTION ( 'NONE',  ( 0.000000000000000000, 0.000000000000000000, 1.000000000000000000 ) ) ;
#247 = CARTESIAN_POINT ( 'NONE',  ( 2.500000000000000000, 3.699489829692734766, 2.674999999999999822 ) ) ;
#248 = ORIENTED_EDGE ( 'NONE', *, *, #845, .F. ) ;
#249 = CARTESIAN_POINT ( 'NONE',  ( -2.500000000000000000, 3.140000000000000124, 0.000000000000000000 ) ) ;
#250 = EDGE_LOOP ( 'NONE', ( #903, #1283, #1129, #10 ) ) ;
#251 = EDGE_CURVE ( 'NONE', #420, #1294, #340, .T. ) ;
#252 = CARTESIAN_POINT ( 'NONE',  ( 2.500000000000000000, -2.821700278779919024, 3.523130897042493270 ) ) ;
#253 = CYLINDRICAL_SURFACE ( 'NONE', #143, 6.100000000000000533 ) ;
#254 = CARTESIAN_POINT ( 'NONE',  ( 0.000000000000000000, -1.639999999999999902, 0.000000000000000000 ) ) ;
#255 = DIRECTION ( 'NONE',  ( 2.318121752820995359E-16, 1.000000000000000000, 0.000000000000000000 ) ) ;
#256 = ORIENTED_EDGE ( 'NONE', *, *, #149, .T. ) ;
#257 = CARTESIAN_POINT ( 'NONE',  ( 0.000000000000000000, 2.140000000000000124, 0.000000000000000000 ) ) ;
#258 = CARTESIAN_POINT ( 'NONE',  ( -4.914503102615541685, 2.868084350529177762, 1.419983736332757429 ) ) ;
#259 = DIRECTION ( 'NONE',  ( 0.000000000000000000, 0.000000000000000000, -1.000000000000000000 ) ) ;
#260 = EDGE_CURVE ( 'NONE', #987, #420, #1145, .T. ) ;
#261 = AXIS2_PLACEMENT_3D ( 'NONE', #735, #556, #1064 ) ;
#262 = SURFACE_SIDE_STYLE ('',( #1148 ) ) ;
#263 = FACE_OUTER_BOUND ( 'NONE', #320, .T. ) ;
#264 = CARTESIAN_POINT ( 'NONE',  ( 2.285814535593114867E-15, 4.500000000000000000, -3.140000000000000124 ) ) ;
#265 = ORIENTED_EDGE ( 'NONE', *, *, #1070, .T. ) ;
#266 = VECTOR ( 'NONE', #1167, 1000.000000000000000 ) ;
#267 = CARTESIAN_POINT ( 'NONE',  ( 0.000000000000000000, -2.640000000000000124, 0.000000000000000000 ) ) ;
#268 = CIRCLE ( 'NONE', #429, 0.4999999999999995559 ) ;
#269 = CARTESIAN_POINT ( 'NONE',  ( -2.500000000000000000, -2.640000000000000124, 3.741657386773939997 ) ) ;
#270 = EDGE_CURVE ( 'NONE', #39, #1200, #160, .T. ) ;
#271 = DIRECTION ( 'NONE',  ( 0.000000000000000000, 1.000000000000000000, 0.000000000000000000 ) ) ;
#272 = DIRECTION ( 'NONE',  ( 0.000000000000000000, 0.000000000000000000, 1.000000000000000000 ) ) ;
#273 = ORIENTED_EDGE ( 'NONE', *, *, #1090, .T. ) ;
#274 = CARTESIAN_POINT ( 'NONE',  ( -1.500000000000000000, 0.000000000000000000, -2.674999999999999822 ) ) ;
#275 = CARTESIAN_POINT ( 'NONE',  ( -2.500000000000000000, -4.500000000000000000, 1.639999999999999902 ) ) ;
#276 = DIRECTION ( 'NONE',  ( 0.000000000000000000, 1.000000000000000000, 0.000000000000000000 ) ) ;
#277 = PRODUCT_DEFINITION ( 'UNKNOWN', '', #623, #592 ) ;
#278 = ORIENTED_EDGE ( 'NONE', *, *, #739, .T. ) ;
#279 = DIRECTION ( 'NONE',  ( 0.000000000000000000, 0.000000000000000000, 1.000000000000000000 ) ) ;
#280 = DIRECTION ( 'NONE',  ( 0.000000000000000000, 0.000000000000000000, -1.000000000000000000 ) ) ;
#281 = CYLINDRICAL_SURFACE ( 'NONE', #198, 2.500000000000000000 ) ;
#282 = CIRCLE ( 'NONE', #930, 0.5000000000000000000 ) ;
#283 = CARTESIAN_POINT ( 'NONE',  ( 1.734723475976804925E-15, -4.500000000000000000, -3.140000000000000124 ) ) ;
#284 = DIRECTION ( 'NONE',  ( 0.000000000000000000, 0.000000000000000000, 1.000000000000000000 ) ) ;
#285 = ORIENTED_EDGE ( 'NONE', *, *, #773, .T. ) ;
#286 = ADVANCED_FACE ( 'NONE', ( #851 ), #1001, .F. ) ;
#287 = CARTESIAN_POINT ( 'NONE',  ( -2.500000000000000000, 0.000000000000000000, -2.674999999999999822 ) ) ;
#288 = CIRCLE ( 'NONE', #239, 2.500000000000000000 ) ;
#289 = AXIS2_PLACEMENT_3D ( 'NONE', #194, #284, #310 ) ;
#290 = B_SPLINE_CURVE_WITH_KNOTS ( 'NONE', 3,
 ( #772, #1069, #88, #676 ),
 .UNSPECIFIED., .F., .F.,
 ( 4, 4 ),
 ( 0.000000000000000000, 1.000000000000000000 ),
 .UNSPECIFIED. ) ;
#291 = VECTOR ( 'NONE', #75, 1000.000000000000000 ) ;
#292 = AXIS2_PLACEMENT_3D ( 'NONE', #267, #862, #876 ) ;
#293 = CARTESIAN_POINT ( 'NONE',  ( 1.734723475976804925E-15, -2.500000000000000000, 2.674999999999999822 ) ) ;
#294 = ORIENTED_EDGE ( 'NONE', *, *, #23, .T. ) ;
#295 = FACE_OUTER_BOUND ( 'NONE', #201, .T. ) ;
#296 = EDGE_CURVE ( 'NONE', #508, #1143, #801, .T. ) ;
#297 = PRODUCT_DEFINITION_SHAPE ( 'NONE', 'NONE',  #790 ) ;
#298 =( NAMED_UNIT ( * ) PLANE_ANGLE_UNIT ( ) SI_UNIT ( $, .RADIAN. ) );
#299 = ORIENTED_EDGE ( 'NONE', *, *, #362, .T. ) ;
#300 = CARTESIAN_POINT ( 'NONE',  ( 1.734723475976804925E-15, 0.000000000000000000, -2.140000000000000124 ) ) ;
#301 = ADVANCED_FACE ( 'NONE', ( #346 ), #622, .F. ) ;
#302 = CIRCLE ( 'NONE', #510, 0.5000000000000000000 ) ;
#303 = FACE_OUTER_BOUND ( 'NONE', #1119, .T. ) ;
#304 = ORIENTED_EDGE ( 'NONE', *, *, #628, .F. ) ;
#305 = CARTESIAN_POINT ( 'NONE',  ( -2.500000000000000000, -1.639999999999999902, 0.000000000000000000 ) ) ;
#306 = AXIS2_PLACEMENT_3D ( 'NONE', #706, #1219, #596 ) ;
#307 = AXIS2_PLACEMENT_3D ( 'NONE', #466, #865, #437 ) ;
#308 = CIRCLE ( 'NONE', #407, 4.500000000000000000 ) ;
#309 = EDGE_CURVE ( 'NONE', #1300, #626, #1094, .T. ) ;
#310 = DIRECTION ( 'NONE',  ( 0.000000000000000000, -1.000000000000000000, 0.000000000000000000 ) ) ;
#311 = ORIENTED_EDGE ( 'NONE', *, *, #362, .F. ) ;
#312 = DIRECTION ( 'NONE',  ( 0.000000000000000000, 0.000000000000000000, -1.000000000000000000 ) ) ;
#313 = CARTESIAN_POINT ( 'NONE',  ( 0.000000000000000000, 2.140000000000000124, 0.000000000000000000 ) ) ;
#314 = CARTESIAN_POINT ( 'NONE',  ( 0.000000000000000000, 3.140000000000000124, 0.000000000000000000 ) ) ;
#315 = ORIENTED_EDGE ( 'NONE', *, *, #1003, .T. ) ;
#316 = ORIENTED_EDGE ( 'NONE', *, *, #527, .F. ) ;
#317 = CARTESIAN_POINT ( 'NONE',  ( -2.500000000000000000, -3.140000000000000124, 3.122498999199194714 ) ) ;
#318 = CARTESIAN_POINT ( 'NONE',  ( 1.500000000000000000, 1.836970198721030181E-16, 2.674999999999999822 ) ) ;
#319 = DIRECTION ( 'NONE',  ( 1.000000000000000222, 0.000000000000000000, -5.551115123125782702E-17 ) ) ;
#320 = EDGE_LOOP ( 'NONE', ( #843, #590, #776, #256, #601, #24, #384, #236, #106, #689 ) ) ;
#321 = VERTEX_POINT ( 'NONE', #419 ) ;
#322 = EDGE_CURVE ( 'NONE', #360, #496, #288, .T. ) ;
#323 = PRODUCT_DEFINITION_SHAPE ( 'NONE', 'NONE',  #1080 ) ;
#324 = ADVANCED_BREP_SHAPE_REPRESENTATION ( '', ( #784, #307 ), #707 ) ;
#325 = FILL_AREA_STYLE_COLOUR ( '', #1298 ) ;
#326 = SURFACE_STYLE_FILL_AREA ( #526 ) ;
#327 = VECTOR ( 'NONE', #613, 1000.000000000000000 ) ;
#328 = ORIENTED_EDGE ( 'NONE', *, *, #692, .F. ) ;
#329 = EDGE_LOOP ( 'NONE', ( #390, #1134, #1076, #1018, #562 ) ) ;
#330 = ORIENTED_EDGE ( 'NONE', *, *, #614, .F. ) ;
#331 = EDGE_LOOP ( 'NONE', ( #1089, #701, #397, #19 ) ) ;
#332 = CARTESIAN_POINT ( 'NONE',  ( 0.000000000000000000, 3.140000000000000124, -2.500000000000000000 ) ) ;
#333 = EDGE_CURVE ( 'NONE', #810, #210, #1232, .T. ) ;
#334 = DIRECTION ( 'NONE',  ( 1.000000000000000000, 0.000000000000000000, 0.000000000000000000 ) ) ;
#335 = ORIENTED_EDGE ( 'NONE', *, *, #621, .T. ) ;
#336 = VECTOR ( 'NONE', #786, 1000.000000000000000 ) ;
#337 = MANIFOLD_SOLID_BREP ( 'NONE', #20 ) ;
#338 = CARTESIAN_POINT ( 'NONE',  ( 0.000000000000000000, -1.639999999999999902, 0.000000000000000000 ) ) ;
#339 = DIRECTION ( 'NONE',  ( 0.000000000000000000, 1.000000000000000000, 0.000000000000000000 ) ) ;
#340 = CIRCLE ( 'NONE', #1252, 4.464999999999999858 ) ;
#341 = ORIENTED_EDGE ( 'NONE', *, *, #223, .T. ) ;
#342 = EDGE_CURVE ( 'NONE', #1300, #802, #431, .T. ) ;
#343 = FACE_OUTER_BOUND ( 'NONE', #1229, .T. ) ;
#344 = VERTEX_POINT ( 'NONE', #1253 ) ;
#345 = APPLICATION_CONTEXT ( 'automotive_design' ) ;
#346 = FACE_OUTER_BOUND ( 'NONE', #839, .T. ) ;
#347 = SHAPE_DEFINITION_REPRESENTATION ( #297, #757 ) ;
#348 = CARTESIAN_POINT ( 'NONE',  ( 1.734723475976804925E-15, 0.000000000000000000, -2.140000000000000124 ) ) ;
#349 = DIRECTION ( 'NONE',  ( 0.000000000000000000, 0.000000000000000000, -1.000000000000000000 ) ) ;
#350 = CARTESIAN_POINT ( 'NONE',  ( 2.500000000000000000, -3.140000000000000124, 0.000000000000000000 ) ) ;
#351 = FACE_BOUND ( 'NONE', #823, .T. ) ;
#352 = EDGE_LOOP ( 'NONE', ( #1053, #122 ) ) ;
#353 = EDGE_CURVE ( 'NONE', #741, #344, #222, .T. ) ;
#354 = CARTESIAN_POINT ( 'NONE',  ( -2.500000000000000000, 3.140000000000000124, -4.500000000000000000 ) ) ;
#355 = APPLICATION_PROTOCOL_DEFINITION ( 'draft international standard', 'automotive_design', 1998, #67 ) ;
#356 = DIRECTION ( 'NONE',  ( 0.000000000000000000, 0.000000000000000000, 1.000000000000000000 ) ) ;
#357 = FILL_AREA_STYLE_COLOUR ( '', #368 ) ;
#358 = LINE ( 'NONE', #350, #227 ) ;
#359 = CARTESIAN_POINT ( 'NONE',  ( -2.500000000000000000, 2.821700278781799298, -3.523130897040181786 ) ) ;
#360 = VERTEX_POINT ( 'NONE', #929 ) ;
#361 = DIRECTION ( 'NONE',  ( 0.000000000000000000, 0.000000000000000000, 1.000000000000000000 ) ) ;
#362 = EDGE_CURVE ( 'NONE', #225, #386, #1242, .T. ) ;
#363 = CARTESIAN_POINT ( 'NONE',  ( 2.500000000000000000, 0.000000000000000000, -2.674999999999999822 ) ) ;
#364 = DIRECTION ( 'NONE',  ( 0.000000000000000000, 0.000000000000000000, 1.000000000000000000 ) ) ;
#365 = CARTESIAN_POINT ( 'NONE',  ( 2.500000000000000000, 3.140000000000000124, 0.000000000000000000 ) ) ;
#366 = ORIENTED_EDGE ( 'NONE', *, *, #1, .T. ) ;
#367 = CIRCLE ( 'NONE', #142, 2.500000000000000000 ) ;
#368 = COLOUR_RGB ( '',0.7921568627450980005, 0.8196078431372548767, 0.9333333333333333481 ) ;
#369 = LINE ( 'NONE', #458, #1272 ) ;
#370 = B_SPLINE_CURVE_WITH_KNOTS ( 'NONE', 3,
 ( #406, #677, #820, #1086 ),
 .UNSPECIFIED., .F., .F.,
 ( 4, 4 ),
 ( 0.0007410417497504420779, 0.0007958373633501740355 ),
 .UNSPECIFIED. ) ;
#371 = AXIS2_PLACEMENT_3D ( 'NONE', #300, #7, #817 ) ;
#372 = CARTESIAN_POINT ( 'NONE',  ( 2.500000000000000000, 0.000000000000000000, 2.674999999999999822 ) ) ;
#373 = AXIS2_PLACEMENT_3D ( 'NONE', #199, #505, #999 ) ;
#374 = DIRECTION ( 'NONE',  ( 0.000000000000000000, 0.000000000000000000, -1.000000000000000000 ) ) ;
#375 = LINE ( 'NONE', #942, #1247 ) ;
#376 = APPLICATION_CONTEXT ( 'automotive_design' ) ;
#377 = VERTEX_POINT ( 'NONE', #742 ) ;
#378 = CARTESIAN_POINT ( 'NONE',  ( 0.000000000000000000, 0.000000000000000000, 2.674999999999999822 ) ) ;
#379 = LINE ( 'NONE', #372, #266 ) ;
#380 = CARTESIAN_POINT ( 'NONE',  ( 0.000000000000000000, 2.140000000000000124, 0.000000000000000000 ) ) ;
#381 = DIRECTION ( 'NONE',  ( 1.000000000000000000, 0.000000000000000000, 0.000000000000000000 ) ) ;
#382 = CARTESIAN_POINT ( 'NONE',  ( -2.500000000000000000, 3.741657386773939997, -2.140000000000000124 ) ) ;
#383 = CARTESIAN_POINT ( 'NONE',  ( -5.599999999999999645, 7.164183775012020367E-16, 2.674999999999999822 ) ) ;
#384 = ORIENTED_EDGE ( 'NONE', *, *, #1113, .T. ) ;
#385 = DIRECTION ( 'NONE',  ( -0.000000000000000000, 1.000000000000000000, 0.000000000000000000 ) ) ;
#386 = VERTEX_POINT ( 'NONE', #425 ) ;
#387 = DIRECTION ( 'NONE',  ( 0.000000000000000000, 0.000000000000000000, -1.000000000000000000 ) ) ;
#388 = DIRECTION ( 'NONE',  ( 0.000000000000000000, 0.000000000000000000, -1.000000000000000000 ) ) ;
#389 = ADVANCED_FACE ( 'NONE', ( #238, #834, #638 ), #1246, .T. ) ;
#390 = ORIENTED_EDGE ( 'NONE', *, *, #353, .F. ) ;
#391 = DIRECTION ( 'NONE',  ( 0.000000000000000000, 0.000000000000000000, 1.000000000000000000 ) ) ;
#392 = VECTOR ( 'NONE', #659, 1000.000000000000000 ) ;
#393 = AXIS2_PLACEMENT_3D ( 'NONE', #1273, #364, #825 ) ;
#394 = ORIENTED_EDGE ( 'NONE', *, *, #1223, .T. ) ;
#395 = ORIENTED_EDGE ( 'NONE', *, *, #599, .F. ) ;
#396 = DIRECTION ( 'NONE',  ( 0.000000000000000000, 0.000000000000000000, -1.000000000000000000 ) ) ;
#397 = ORIENTED_EDGE ( 'NONE', *, *, #926, .T. ) ;
#398 = ORIENTED_EDGE ( 'NONE', *, *, #1113, .F. ) ;
#399 = CARTESIAN_POINT ( 'NONE',  ( 2.500000000000000000, 3.140000000000000124, -3.741657386773939997 ) ) ;
#400 = EDGE_CURVE ( 'NONE', #152, #1127, #441, .T. ) ;
#401 = AXIS2_PLACEMENT_3D ( 'NONE', #804, #611, #503 ) ;
#402 = DIRECTION ( 'NONE',  ( 0.000000000000000000, 0.000000000000000000, 1.000000000000000000 ) ) ;
#403 = EDGE_LOOP ( 'NONE', ( #138, #943, #895, #988 ) ) ;
#404 = CARTESIAN_POINT ( 'NONE',  ( 2.500000000000000000, -3.741657386773939997, -2.640000000000000124 ) ) ;
#405 = CIRCLE ( 'NONE', #879, 5.599999999999999645 ) ;
#406 = CARTESIAN_POINT ( 'NONE',  ( 2.500000000000000000, 3.699489829692734766, 2.674999999999999822 ) ) ;
#407 = AXIS2_PLACEMENT_3D ( 'NONE', #1105, #1125, #2 ) ;
#408 = B_SPLINE_CURVE_WITH_KNOTS ( 'NONE', 3,
 ( #675, #765, #780, #564 ),
 .UNSPECIFIED., .F., .F.,
 ( 4, 4 ),
 ( 0.0007410417497504430536, 0.0007958373633501709997 ),
 .UNSPECIFIED. ) ;
#409 = AXIS2_PLACEMENT_3D ( 'NONE', #619, #220, #21 ) ;
#410 = ORIENTED_EDGE ( 'NONE', *, *, #1243, .T. ) ;
#411 = DIRECTION ( 'NONE',  ( 0.000000000000000000, 1.000000000000000000, 0.000000000000000000 ) ) ;
#412 = ORIENTED_EDGE ( 'NONE', *, *, #71, .F. ) ;
#413 = CARTESIAN_POINT ( 'NONE',  ( 2.500000000000000000, 0.000000000000000000, 3.141000000000000014 ) ) ;
#414 = LINE ( 'NONE', #795, #291 ) ;
#415 =( NAMED_UNIT ( * ) SI_UNIT ( $, .STERADIAN. ) SOLID_ANGLE_UNIT ( ) );
#416 = VERTEX_POINT ( 'NONE', #1276 ) ;
#417 = EDGE_CURVE ( 'NONE', #377, #494, #967, .T. ) ;
#418 = ORIENTED_EDGE ( 'NONE', *, *, #94, .T. ) ;
#419 = CARTESIAN_POINT ( 'NONE',  ( 2.500000000000000000, 0.000000000000000000, -2.140000000000000124 ) ) ;
#420 = VERTEX_POINT ( 'NONE', #1077 ) ;
#421 = EDGE_CURVE ( 'NONE', #1267, #631, #408, .T. ) ;
#422 = CARTESIAN_POINT ( 'NONE',  ( 5.599999999999999645, 0.000000000000000000, -2.674999999999999822 ) ) ;
#423 = AXIS2_PLACEMENT_3D ( 'NONE', #662, #443, #1170 ) ;
#424 = ORIENTED_EDGE ( 'NONE', *, *, #692, .T. ) ;
#425 = CARTESIAN_POINT ( 'NONE',  ( 0.000000000000000000, -3.140000000000000124, -2.500000000000000000 ) ) ;
#426 = VECTOR ( 'NONE', #632, 1000.000000000000000 ) ;
#427 =( GEOMETRIC_REPRESENTATION_CONTEXT ( 3 ) GLOBAL_UNCERTAINTY_ASSIGNED_CONTEXT ( ( #1147 ) ) GLOBAL_UNIT_ASSIGNED_CONTEXT ( ( #58, #846, #41 ) ) REPRESENTATION_CONTEXT ( 'NONE', 'WORKASPACE' ) );
#428 = ORIENTED_EDGE ( 'NONE', *, *, #242, .F. ) ;
#429 = AXIS2_PLACEMENT_3D ( 'NONE', #866, #941, #1265 ) ;
#430 = ORIENTED_EDGE ( 'NONE', *, *, #1063, .F. ) ;
#431 = LINE ( 'NONE', #944, #1277 ) ;
#432 = EDGE_CURVE ( 'NONE', #1058, #521, #1174, .T. ) ;
#433 = DIRECTION ( 'NONE',  ( 1.000000000000000000, 0.000000000000000000, 0.000000000000000000 ) ) ;
#434 = ORIENTED_EDGE ( 'NONE', *, *, #296, .T. ) ;
#435 = EDGE_CURVE ( 'NONE', #107, #39, #758, .T. ) ;
#436 = DIRECTION ( 'NONE',  ( 1.000000000000000000, 0.000000000000000000, 0.000000000000000000 ) ) ;
#437 = DIRECTION ( 'NONE',  ( 1.000000000000000000, 0.000000000000000000, 0.000000000000000000 ) ) ;
#438 = DIRECTION ( 'NONE',  ( -1.000000000000000000, 0.000000000000000000, 0.000000000000000000 ) ) ;
#439 = EDGE_LOOP ( 'NONE', ( #756, #1159, #117, #770, #514, #190, #830, #248 ) ) ;
#440 = AXIS2_PLACEMENT_3D ( 'NONE', #378, #63, #1083 ) ;
#441 = LINE ( 'NONE', #1141, #833 ) ;
#442 = VECTOR ( 'NONE', #255, 1000.000000000000000 ) ;
#443 = DIRECTION ( 'NONE',  ( 0.000000000000000000, 1.000000000000000000, 0.000000000000000000 ) ) ;
#444 = CARTESIAN_POINT ( 'NONE',  ( 1.734723475976804925E-15, 0.000000000000000000, -2.674999999999999822 ) ) ;
#445 = AXIS2_PLACEMENT_3D ( 'NONE', #257, #64, #575 ) ;
#446 = PLANE ( 'NONE',  #1120 ) ;
#447 = EDGE_CURVE ( 'NONE', #631, #1300, #771, .T. ) ;
#448 = DIRECTION ( 'NONE',  ( 0.000000000000000000, 1.000000000000000000, 0.000000000000000000 ) ) ;
#449 = EDGE_LOOP ( 'NONE', ( #815, #636, #649, #480, #25, #430, #1082, #115, #428, #62 ) ) ;
#450 = TOROIDAL_SURFACE ( 'NONE', #898, 5.599999999999999645, 0.5000000000000000000 ) ;
#451 = CARTESIAN_POINT ( 'NONE',  ( -2.500000000000000000, 3.140000000000000124, -3.122498999199200043 ) ) ;
#452 = CARTESIAN_POINT ( 'NONE',  ( 2.500000000000000000, 0.000000000000000000, 1.639999999999999902 ) ) ;
#453 = DIRECTION ( 'NONE',  ( 0.000000000000000000, 0.000000000000000000, -1.000000000000000000 ) ) ;
#454 = DIRECTION ( 'NONE',  ( 1.000000000000000000, 0.000000000000000000, 0.000000000000000000 ) ) ;
#455 = CARTESIAN_POINT ( 'NONE',  ( 0.000000000000000000, 0.000000000000000000, -2.674999999999999822 ) ) ;
#456 = EDGE_CURVE ( 'NONE', #1143, #416, #405, .T. ) ;
#457 = VERTEX_POINT ( 'NONE', #1269 ) ;
#458 = CARTESIAN_POINT ( 'NONE',  ( 2.500000000000000000, 3.741657386773939997, 3.141000000000000014 ) ) ;
#459 = CARTESIAN_POINT ( 'NONE',  ( 0.000000000000000000, 3.140000000000000124, 0.000000000000000000 ) ) ;
#460 = SURFACE_SIDE_STYLE ('',( #1270 ) ) ;
#461 = PRESENTATION_STYLE_ASSIGNMENT (( #68 ) ) ;
#462 = ORIENTED_EDGE ( 'NONE', *, *, #958, .T. ) ;
#463 = ORIENTED_EDGE ( 'NONE', *, *, #614, .T. ) ;
#464 = CARTESIAN_POINT ( 'NONE',  ( 0.000000000000000000, 0.000000000000000000, -2.174999999999999822 ) ) ;
#465 = CARTESIAN_POINT ( 'NONE',  ( 2.500000000000000000, -3.140000000000000124, 0.000000000000000000 ) ) ;
#466 = CARTESIAN_POINT ( 'NONE',  ( 0.000000000000000000, 0.000000000000000000, 0.000000000000000000 ) ) ;
#467 = DIRECTION ( 'NONE',  ( 0.000000000000000000, -1.000000000000000000, 0.000000000000000000 ) ) ;
#468 = ORIENTED_EDGE ( 'NONE', *, *, #495, .T. ) ;
#469 = AXIS2_PLACEMENT_3D ( 'NONE', #1075, #168, #174 ) ;
#470 = CIRCLE ( 'NONE', #819, 4.000000000000000000 ) ;
#471 = CARTESIAN_POINT ( 'NONE',  ( 0.000000000000000000, -3.140000000000000124, 0.000000000000000000 ) ) ;
#472 = VECTOR ( 'NONE', #173, 1000.000000000000000 ) ;
#473 = DIRECTION ( 'NONE',  ( 0.000000000000000000, 0.000000000000000000, 1.000000000000000000 ) ) ;
#474 = EDGE_CURVE ( 'NONE', #607, #86, #953, .T. ) ;
#475 = CARTESIAN_POINT ( 'NONE',  ( 2.500000000000000000, 0.000000000000000000, -3.141000000000000014 ) ) ;
#476 = LINE ( 'NONE', #180, #1051 ) ;
#477 = SURFACE_SIDE_STYLE ('',( #326 ) ) ;
#478 = CARTESIAN_POINT ( 'NONE',  ( 2.500000000000000000, 3.140000000000000124, -3.122498999199200043 ) ) ;
#479 = ORIENTED_EDGE ( 'NONE', *, *, #755, .F. ) ;
#480 = ORIENTED_EDGE ( 'NONE', *, *, #421, .F. ) ;
#481 = CARTESIAN_POINT ( 'NONE',  ( -6.100000000000000533, 0.000000000000000000, 2.174999999999999822 ) ) ;
#482 = DIRECTION ( 'NONE',  ( 1.000000000000000000, 0.000000000000000000, 0.000000000000000000 ) ) ;
#483 = EDGE_CURVE ( 'NONE', #931, #112, #1262, .T. ) ;
#484 = SHAPE_REPRESENTATION_RELATIONSHIP ( 'NONE' , 'NONE' ,  #890, #863 ) ;
#485 = DIRECTION ( 'NONE',  ( 0.000000000000000000, 0.000000000000000000, 1.000000000000000000 ) ) ;
#486 = DIRECTION ( 'NONE',  ( 0.000000000000000000, -1.000000000000000000, 0.000000000000000000 ) ) ;
#487 = EDGE_LOOP ( 'NONE', ( #412, #1231, #1185, #805 ) ) ;
#488 = DIRECTION ( 'NONE',  ( 0.000000000000000000, 1.000000000000000000, 0.000000000000000000 ) ) ;
#489 =( NAMED_UNIT ( * ) SI_UNIT ( $, .STERADIAN. ) SOLID_ANGLE_UNIT ( ) );
#490 = PRODUCT ( '228-2500-168', '228-2500-168', '', ( #1061 ) ) ;
#491 = CARTESIAN_POINT ( 'NONE',  ( -2.500000000000000000, 0.000000000000000000, -2.674999999999999822 ) ) ;
#492 = ADVANCED_FACE ( 'NONE', ( #1084 ), #624, .T. ) ;
#493 = CARTESIAN_POINT ( 'NONE',  ( 2.500000000000000000, 3.741657386773939997, 2.640000000000000124 ) ) ;
#494 = VERTEX_POINT ( 'NONE', #451 ) ;
#495 = EDGE_CURVE ( 'NONE', #157, #1294, #379, .T. ) ;
#496 = VERTEX_POINT ( 'NONE', #1160 ) ;
#497 = DIRECTION ( 'NONE',  ( 0.000000000000000000, -1.000000000000000000, 0.000000000000000000 ) ) ;
#498 = PRESENTATION_LAYER_ASSIGNMENT (  '', '', ( #1235 ) ) ;
#499 = VECTOR ( 'NONE', #885, 1000.000000000000000 ) ;
#500 = UNCERTAINTY_MEASURE_WITH_UNIT (LENGTH_MEASURE( 1.000000000000000082E-05 ), #884, 'distance_accuracy_value', 'NONE');
#501 = EDGE_LOOP ( 'NONE', ( #826, #922, #424, #1205 ) ) ;
#502 = ADVANCED_FACE ( 'NONE', ( #889 ), #450, .T. ) ;
#503 = DIRECTION ( 'NONE',  ( 1.000000000000000000, 0.000000000000000000, 0.000000000000000000 ) ) ;
#504 = CARTESIAN_POINT ( 'NONE',  ( -6.100000000000000533, 0.000000000000000000, 2.674999999999999822 ) ) ;
#505 = DIRECTION ( 'NONE',  ( 0.000000000000000000, 0.000000000000000000, 1.000000000000000000 ) ) ;
#506 = FACE_OUTER_BOUND ( 'NONE', #1017, .T. ) ;
#507 = ORIENTED_EDGE ( 'NONE', *, *, #731, .F. ) ;
#508 = VERTEX_POINT ( 'NONE', #481 ) ;
#509 = CARTESIAN_POINT ( 'NONE',  ( 0.000000000000000000, -3.140000000000000124, 0.000000000000000000 ) ) ;
#510 = AXIS2_PLACEMENT_3D ( 'NONE', #951, #170, #1166 ) ;
#511 = ORIENTED_EDGE ( 'NONE', *, *, #400, .T. ) ;
#512 = AXIS2_PLACEMENT_3D ( 'NONE', #678, #543, #158 ) ;
#513 = B_SPLINE_CURVE_WITH_KNOTS ( 'NONE', 3,
 ( #1164, #1107, #200, #1114 ),
 .UNSPECIFIED., .F., .F.,
 ( 4, 4 ),
 ( 0.000000000000000000, 5.479561359972810194E-05 ),
 .UNSPECIFIED. ) ;
#514 = ORIENTED_EDGE ( 'NONE', *, *, #197, .T. ) ;
#515 = CARTESIAN_POINT ( 'NONE',  ( -6.100000000000000533, 0.000000000000000000, -2.174999999999999822 ) ) ;
#516 = VECTOR ( 'NONE', #32, 1000.000000000000000 ) ;
#517 = CARTESIAN_POINT ( 'NONE',  ( -2.500000000000000000, 0.000000000000000000, -2.140000000000000124 ) ) ;
#518 = CIRCLE ( 'NONE', #639, 2.500000000000000000 ) ;
#519 = EDGE_CURVE ( 'NONE', #210, #39, #204, .T. ) ;
#520 = AXIS2_PLACEMENT_3D ( 'NONE', #761, #167, #334 ) ;
#521 = VERTEX_POINT ( 'NONE', #552 ) ;
#522 = ORIENTED_EDGE ( 'NONE', *, *, #322, .F. ) ;
#523 = LINE ( 'NONE', #413, #751 ) ;
#524 = DIRECTION ( 'NONE',  ( 0.000000000000000000, 0.000000000000000000, -1.000000000000000000 ) ) ;
#525 = UNCERTAINTY_MEASURE_WITH_UNIT (LENGTH_MEASURE( 1.000000000000000082E-05 ), #652, 'distance_accuracy_value', 'NONE');
#526 = FILL_AREA_STYLE ('',( #1212 ) ) ;
#527 = EDGE_CURVE ( 'NONE', #496, #705, #952, .T. ) ;
#528 = ORIENTED_EDGE ( 'NONE', *, *, #129, .F. ) ;
#529 = ORIENTED_EDGE ( 'NONE', *, *, #728, .T. ) ;
#530 = CARTESIAN_POINT ( 'NONE',  ( -5.599999999999999645, 6.858022075225179538E-16, 2.174999999999999822 ) ) ;
#531 = ORIENTED_EDGE ( 'NONE', *, *, #309, .F. ) ;
#532 = AXIS2_PLACEMENT_3D ( 'NONE', #1015, #145, #436 ) ;
#533 = ADVANCED_FACE ( 'NONE', ( #975 ), #54, .T. ) ;
#534 = ORIENTED_EDGE ( 'NONE', *, *, #119, .T. ) ;
#535 = DIRECTION ( 'NONE',  ( 0.000000000000000000, -1.000000000000000000, 0.000000000000000000 ) ) ;
#536 = AXIS2_PLACEMENT_3D ( 'NONE', #1102, #22, #193 ) ;
#537 = VECTOR ( 'NONE', #387, 1000.000000000000000 ) ;
#538 = CARTESIAN_POINT ( 'NONE',  ( 1.734723475976804925E-15, 0.000000000000000000, 1.639999999999999902 ) ) ;
#539 = EDGE_LOOP ( 'NONE', ( #925, #1005, #1217, #740, #938 ) ) ;
#540 = EDGE_CURVE ( 'NONE', #386, #344, #1135, .T. ) ;
#541 = CARTESIAN_POINT ( 'NONE',  ( 2.500000000000000000, 2.640000000000000124, -3.741657386773939997 ) ) ;
#542 = CARTESIAN_POINT ( 'NONE',  ( 6.100000000000000533, 7.470345474798850348E-16, 2.174999999999999822 ) ) ;
#543 = DIRECTION ( 'NONE',  ( 0.000000000000000000, 0.000000000000000000, 1.000000000000000000 ) ) ;
#544 = ORIENTED_EDGE ( 'NONE', *, *, #867, .F. ) ;
#545 = PRODUCT_RELATED_PRODUCT_CATEGORY ( 'part', '', ( #714 ) ) ;
#546 = CARTESIAN_POINT ( 'NONE',  ( 0.000000000000000000, 0.000000000000000000, 2.674999999999999822 ) ) ;
#547 = SHAPE_DEFINITION_REPRESENTATION ( #323, #890 ) ;
#548 = CARTESIAN_POINT ( 'NONE',  ( 0.000000000000000000, 0.000000000000000000, 2.674999999999999822 ) ) ;
#549 = DIRECTION ( 'NONE',  ( 0.000000000000000000, -1.000000000000000000, 0.000000000000000000 ) ) ;
#550 = VERTEX_POINT ( 'NONE', #1092 ) ;
#551 = PRESENTATION_LAYER_ASSIGNMENT (  '', '', ( #155 ) ) ;
#552 = CARTESIAN_POINT ( 'NONE',  ( -2.500000000000000000, 2.640000000000000124, -3.741657386773939997 ) ) ;
#553 = APPLICATION_PROTOCOL_DEFINITION ( 'draft international standard', 'automotive_design', 1998, #345 ) ;
#554 = LINE ( 'NONE', #66, #245 ) ;
#555 = EDGE_CURVE ( 'NONE', #831, #1124, #1220, .T. ) ;
#556 = DIRECTION ( 'NONE',  ( 0.000000000000000000, 0.000000000000000000, -1.000000000000000000 ) ) ;
#557 = FACE_OUTER_BOUND ( 'NONE', #501, .T. ) ;
#558 = VECTOR ( 'NONE', #488, 1000.000000000000000 ) ;
#559 = FACE_OUTER_BOUND ( 'NONE', #914, .T. ) ;
#560 = AXIS2_PLACEMENT_3D ( 'NONE', #95, #9, #402 ) ;
#561 = DIRECTION ( 'NONE',  ( 0.000000000000000000, 0.000000000000000000, -1.000000000000000000 ) ) ;
#562 = ORIENTED_EDGE ( 'NONE', *, *, #540, .T. ) ;
#563 = DIRECTION ( 'NONE',  ( 0.000000000000000000, 0.000000000000000000, -1.000000000000000000 ) ) ;
#564 = CARTESIAN_POINT ( 'NONE',  ( 2.500000000000000000, -3.741657386773939997, -2.640000000000000124 ) ) ;
#565 = DIRECTION ( 'NONE',  ( 0.000000000000000000, -1.000000000000000000, 0.000000000000000000 ) ) ;
#566 = DIRECTION ( 'NONE',  ( 0.000000000000000000, 0.000000000000000000, -1.000000000000000000 ) ) ;
#567 = EDGE_LOOP ( 'NONE', ( #1241, #1290 ) ) ;
#568 = CARTESIAN_POINT ( 'NONE',  ( -2.500000000000000000, 2.988366945448466261, -3.316744767848602393 ) ) ;
#569 = EDGE_LOOP ( 'NONE', ( #747, #1275, #507, #1047 ) ) ;
#570 = DIRECTION ( 'NONE',  ( 1.000000000000000000, 0.000000000000000000, 0.000000000000000000 ) ) ;
#571 = DIRECTION ( 'NONE',  ( 0.000000000000000000, -1.000000000000000000, 0.000000000000000000 ) ) ;
#572 = VERTEX_POINT ( 'NONE', #583 ) ;
#573 = EDGE_CURVE ( 'NONE', #838, #386, #57, .T. ) ;
#574 = LINE ( 'NONE', #1284, #336 ) ;
#575 = DIRECTION ( 'NONE',  ( 0.000000000000000000, 0.000000000000000000, 1.000000000000000000 ) ) ;
#576 = PRESENTATION_STYLE_ASSIGNMENT (( #983 ) ) ;
#577 = CARTESIAN_POINT ( 'NONE',  ( 0.000000000000000000, 3.140000000000000124, 0.000000000000000000 ) ) ;
#578 = AXIS2_PLACEMENT_3D ( 'NONE', #1186, #361, #87 ) ;
#579 = ORIENTED_EDGE ( 'NONE', *, *, #939, .T. ) ;
#580 = CIRCLE ( 'NONE', #1117, 4.500000000000000000 ) ;
#581 = AXIS2_PLACEMENT_3D ( 'NONE', #215, #995, #1014 ) ;
#582 = CIRCLE ( 'NONE', #17, 4.000000000000000000 ) ;
#583 = CARTESIAN_POINT ( 'NONE',  ( -2.500000000000000000, 0.000000000000000000, 2.674999999999999822 ) ) ;
#584 = EDGE_CURVE ( 'NONE', #705, #11, #811, .T. ) ;
#585 = FILL_AREA_STYLE_COLOUR ( '', #980 ) ;
#586 = DIRECTION ( 'NONE',  ( 0.000000000000000000, 1.000000000000000000, 0.000000000000000000 ) ) ;
#587 = FACE_OUTER_BOUND ( 'NONE', #250, .T. ) ;
#588 = DIRECTION ( 'NONE',  ( 0.000000000000000000, 0.000000000000000000, 1.000000000000000000 ) ) ;
#589 = ORIENTED_EDGE ( 'NONE', *, *, #555, .T. ) ;
#590 = ORIENTED_EDGE ( 'NONE', *, *, #799, .T. ) ;
#591 = CARTESIAN_POINT ( 'NONE',  ( -2.500000000000000000, -3.741657386773939997, 1.639999999999999902 ) ) ;
#592 = PRODUCT_DEFINITION_CONTEXT ( 'detailed design', #913, 'design' ) ;
#593 = EDGE_CURVE ( 'NONE', #125, #572, #15, .T. ) ;
#594 = LINE ( 'NONE', #1282, #1032 ) ;
#595 = ORIENTED_EDGE ( 'NONE', *, *, #342, .T. ) ;
#596 = DIRECTION ( 'NONE',  ( -1.000000000000000000, 0.000000000000000000, 0.000000000000000000 ) ) ;
#597 = PLANE ( 'NONE',  #598 ) ;
#598 = AXIS2_PLACEMENT_3D ( 'NONE', #475, #381, #586 ) ;
#599 = EDGE_CURVE ( 'NONE', #1111, #1041, #1112, .T. ) ;
#600 = DIRECTION ( 'NONE',  ( 0.000000000000000000, -1.000000000000000000, 0.000000000000000000 ) ) ;
#601 = ORIENTED_EDGE ( 'NONE', *, *, #827, .T. ) ;
#602 = DIRECTION ( 'NONE',  ( 0.000000000000000000, 0.000000000000000000, 1.000000000000000000 ) ) ;
#603 = AXIS2_PLACEMENT_3D ( 'NONE', #313, #128, #246 ) ;
#604 = CIRCLE ( 'NONE', #1176, 5.599999999999999645 ) ;
#605 = CIRCLE ( 'NONE', #393, 4.500000000000000000 ) ;
#606 = DIRECTION ( 'NONE',  ( 0.000000000000000000, 0.000000000000000000, -1.000000000000000000 ) ) ;
#607 = VERTEX_POINT ( 'NONE', #515 ) ;
#608 = ORIENTED_EDGE ( 'NONE', *, *, #634, .F. ) ;
#609 = CARTESIAN_POINT ( 'NONE',  ( 2.500000000000000000, 3.140000000000000124, 0.000000000000000000 ) ) ;
#610 = VERTEX_POINT ( 'NONE', #697 ) ;
#611 = DIRECTION ( 'NONE',  ( 0.000000000000000000, 0.000000000000000000, -1.000000000000000000 ) ) ;
#612 = ORIENTED_EDGE ( 'NONE', *, *, #899, .T. ) ;
#613 = DIRECTION ( 'NONE',  ( 0.000000000000000000, 1.000000000000000000, 0.000000000000000000 ) ) ;
#614 = EDGE_CURVE ( 'NONE', #1124, #1200, #691, .T. ) ;
#615 = CARTESIAN_POINT ( 'NONE',  ( -2.500000000000000000, 2.140000000000000124, 3.741657386773939997 ) ) ;
#616 = AXIS2_PLACEMENT_3D ( 'NONE', #97, #147, #927 ) ;
#617 = ORIENTED_EDGE ( 'NONE', *, *, #782, .T. ) ;
#618 = EDGE_LOOP ( 'NONE', ( #1023, #763, #1139, #208, #28, #278, #214, #76 ) ) ;
#619 = CARTESIAN_POINT ( 'NONE',  ( 1.734723475976804925E-15, 0.000000000000000000, 1.639999999999999902 ) ) ;
#620 = VECTOR ( 'NONE', #1181, 1000.000000000000000 ) ;
#621 = EDGE_CURVE ( 'NONE', #1111, #457, #367, .T. ) ;
#622 = PLANE ( 'NONE',  #1201 ) ;
#623 = PRODUCT_DEFINITION_FORMATION_WITH_SPECIFIED_SOURCE ( 'ANY', '', #490, .NOT_KNOWN. ) ;
#624 = CONICAL_SURFACE ( 'NONE', #292, 4.500000000000000000, 0.7853981633974503884 ) ;
#625 = EDGE_LOOP ( 'NONE', ( #981, #511, #1122, #189 ) ) ;
#626 = VERTEX_POINT ( 'NONE', #1099 ) ;
#627 = CARTESIAN_POINT ( 'NONE',  ( -2.500000000000000000, -3.140000000000000124, 3.741657386773939997 ) ) ;
#628 = EDGE_CURVE ( 'NONE', #726, #550, #1121, .T. ) ;
#629 = ORIENTED_EDGE ( 'NONE', *, *, #270, .T. ) ;
#630 = DIRECTION ( 'NONE',  ( 0.000000000000000000, -1.000000000000000000, 0.000000000000000000 ) ) ;
#631 = VERTEX_POINT ( 'NONE', #404 ) ;
#632 = DIRECTION ( 'NONE',  ( 0.000000000000000000, 1.000000000000000000, 0.000000000000000000 ) ) ;
#633 = VERTEX_POINT ( 'NONE', #99 ) ;
#634 = EDGE_CURVE ( 'NONE', #229, #993, #713, .T. ) ;
#635 = CIRCLE ( 'NONE', #261, 6.100000000000000533 ) ;
#636 = ORIENTED_EDGE ( 'NONE', *, *, #342, .F. ) ;
#637 = B_SPLINE_CURVE_WITH_KNOTS ( 'NONE', 3,
 ( #743, #1156, #48, #541 ),
 .UNSPECIFIED., .F., .F.,
 ( 4, 4 ),
 ( 0.000000000000000000, 1.000000000000000000 ),
 .UNSPECIFIED. ) ;
#638 = FACE_OUTER_BOUND ( 'NONE', #352, .T. ) ;
#639 = AXIS2_PLACEMENT_3D ( 'NONE', #1000, #1009, #694 ) ;
#640 = DIRECTION ( 'NONE',  ( 1.000000000000000000, 0.000000000000000000, 0.000000000000000000 ) ) ;
#641 = AXIS2_PLACEMENT_3D ( 'NONE', #1085, #1182, #759 ) ;
#642 = DIRECTION ( 'NONE',  ( 0.000000000000000000, 0.000000000000000000, 1.000000000000000000 ) ) ;
#643 = ORIENTED_EDGE ( 'NONE', *, *, #634, .T. ) ;
#644 = CARTESIAN_POINT ( 'NONE',  ( -2.500000000000000000, -3.141000000000000014, 3.741657386773939997 ) ) ;
#645 = APPLICATION_PROTOCOL_DEFINITION ( 'draft international standard', 'automotive_design', 1998, #913 ) ;
#646 = DIRECTION ( 'NONE',  ( 0.000000000000000000, 0.000000000000000000, -1.000000000000000000 ) ) ;
#647 = ORIENTED_EDGE ( 'NONE', *, *, #955, .F. ) ;
#648 = CARTESIAN_POINT ( 'NONE',  ( 1.734723475976804925E-15, 0.000000000000000000, -2.640000000000000124 ) ) ;
#649 = ORIENTED_EDGE ( 'NONE', *, *, #447, .F. ) ;
#650 = CARTESIAN_POINT ( 'NONE',  ( 0.000000000000000000, 3.140000000000000124, -4.500000000000000000 ) ) ;
#651 = EDGE_CURVE ( 'NONE', #1267, #993, #206, .T. ) ;
#652 =( LENGTH_UNIT ( ) NAMED_UNIT ( * ) SI_UNIT ( .MILLI., .METRE. ) );
#653 = DIRECTION ( 'NONE',  ( 0.000000000000000000, 0.000000000000000000, -1.000000000000000000 ) ) ;
#654 = ORIENTED_EDGE ( 'NONE', *, *, #154, .F. ) ;
#655 = CYLINDRICAL_SURFACE ( 'NONE', #202, 4.500000000000000000 ) ;
#656 = ORIENTED_EDGE ( 'NONE', *, *, #197, .F. ) ;
#657 = CARTESIAN_POINT ( 'NONE',  ( 0.000000000000000000, -1.639999999999999902, -4.500000000000000000 ) ) ;
#658 = AXIS2_PLACEMENT_3D ( 'NONE', #954, #356, #1255 ) ;
#659 = DIRECTION ( 'NONE',  ( 0.000000000000000000, -1.000000000000000000, 0.000000000000000000 ) ) ;
#660 = ADVANCED_FACE ( 'NONE', ( #1203 ), #108, .F. ) ;
#661 = FACE_OUTER_BOUND ( 'NONE', #569, .T. ) ;
#662 = CARTESIAN_POINT ( 'NONE',  ( 0.000000000000000000, -1.639999999999999902, 0.000000000000000000 ) ) ;
#663 = CARTESIAN_POINT ( 'NONE',  ( 0.000000000000000000, 3.140000000000000124, 0.000000000000000000 ) ) ;
#664 = DIRECTION ( 'NONE',  ( 0.000000000000000000, 0.000000000000000000, 1.000000000000000000 ) ) ;
#665 = CIRCLE ( 'NONE', #469, 4.500000000000000000 ) ;
#666 = EDGE_LOOP ( 'NONE', ( #704, #534, #36, #141, #1067 ) ) ;
#667 = CARTESIAN_POINT ( 'NONE',  ( -2.500000000000000000, 3.140000000000000124, -3.741657386773939997 ) ) ;
#668 = CARTESIAN_POINT ( 'NONE',  ( 1.734723475976804925E-15, 0.000000000000000000, -3.140000000000000124 ) ) ;
#669 = FACE_OUTER_BOUND ( 'NONE', #785, .T. ) ;
#670 = DIRECTION ( 'NONE',  ( 0.000000000000000000, 0.000000000000000000, 1.000000000000000000 ) ) ;
#671 = EDGE_CURVE ( 'NONE', #159, #610, #733, .T. ) ;
#672 = CARTESIAN_POINT ( 'NONE',  ( 2.500000000000000000, -2.640000000000000124, 3.741657386773939997 ) ) ;
#673 = VERTEX_POINT ( 'NONE', #305 ) ;
#674 = DIRECTION ( 'NONE',  ( 1.000000000000000000, 0.000000000000000000, 0.000000000000000000 ) ) ;
#675 = CARTESIAN_POINT ( 'NONE',  ( 2.500000000000000000, -3.699489829692740095, -2.674999999999999822 ) ) ;
#676 = CARTESIAN_POINT ( 'NONE',  ( -2.500000000000000000, -3.140000000000000124, 3.122498999199194714 ) ) ;
#677 = CARTESIAN_POINT ( 'NONE',  ( 2.500000000000000000, 3.713555671008029968, 2.663345702823739725 ) ) ;
#678 = CARTESIAN_POINT ( 'NONE',  ( 1.734723475976804925E-15, 0.000000000000000000, -2.140000000000000124 ) ) ;
#679 = EDGE_CURVE ( 'NONE', #550, #931, #308, .T. ) ;
#680 = ORIENTED_EDGE ( 'NONE', *, *, #1131, .T. ) ;
#681 = DIRECTION ( 'NONE',  ( 0.000000000000000000, 0.000000000000000000, 1.000000000000000000 ) ) ;
#682 = CIRCLE ( 'NONE', #116, 4.500000000000000000 ) ;
#683 = CARTESIAN_POINT ( 'NONE',  ( 2.500000000000000000, -3.140000000000000124, 3.122498999199194714 ) ) ;
#684 = VECTOR ( 'NONE', #868, 1000.000000000000000 ) ;
#685 = CARTESIAN_POINT ( 'NONE',  ( 2.500000000000000000, -3.141000000000000014, 0.000000000000000000 ) ) ;
#686 = DIRECTION ( 'NONE',  ( 0.000000000000000000, 0.000000000000000000, 1.000000000000000000 ) ) ;
#687 = ORIENTED_EDGE ( 'NONE', *, *, #1142, .T. ) ;
#688 =( GEOMETRIC_REPRESENTATION_CONTEXT ( 3 ) GLOBAL_UNCERTAINTY_ASSIGNED_CONTEXT ( ( #841 ) ) GLOBAL_UNIT_ASSIGNED_CONTEXT ( ( #969, #1095, #489 ) ) REPRESENTATION_CONTEXT ( 'NONE', 'WORKASPACE' ) );
#689 = ORIENTED_EDGE ( 'NONE', *, *, #129, .T. ) ;
#690 = CIRCLE ( 'NONE', #207, 6.100000000000000533 ) ;
#691 = LINE ( 'NONE', #203, #327 ) ;
#692 = EDGE_CURVE ( 'NONE', #508, #607, #191, .T. ) ;
#693 = DIRECTION ( 'NONE',  ( 0.000000000000000000, 0.000000000000000000, -1.000000000000000000 ) ) ;
#694 = DIRECTION ( 'NONE',  ( 1.000000000000000000, 0.000000000000000000, 0.000000000000000000 ) ) ;
#695 = ORIENTED_EDGE ( 'NONE', *, *, #221, .T. ) ;
#696 = DIRECTION ( 'NONE',  ( 1.000000000000000000, 0.000000000000000000, 0.000000000000000000 ) ) ;
#697 = CARTESIAN_POINT ( 'NONE',  ( 2.285814535593114867E-15, 4.500000000000000000, -2.140000000000000124 ) ) ;
#698 = EDGE_CURVE ( 'NONE', #633, #321, #702, .T. ) ;
#699 = UNCERTAINTY_MEASURE_WITH_UNIT (LENGTH_MEASURE( 1.000000000000000082E-05 ), #891, 'distance_accuracy_value', 'NONE');
#700 = VERTEX_POINT ( 'NONE', #1206 ) ;
#701 = ORIENTED_EDGE ( 'NONE', *, *, #893, .F. ) ;
#702 = LINE ( 'NONE', #904, #1280 ) ;
#703 = AXIS2_PLACEMENT_3D ( 'NONE', #348, #1062, #878 ) ;
#704 = ORIENTED_EDGE ( 'NONE', *, *, #421, .T. ) ;
#705 = VERTEX_POINT ( 'NONE', #591 ) ;
#706 = CARTESIAN_POINT ( 'NONE',  ( 0.000000000000000000, 0.000000000000000000, 2.674999999999999822 ) ) ;
#707 =( GEOMETRIC_REPRESENTATION_CONTEXT ( 3 ) GLOBAL_UNCERTAINTY_ASSIGNED_CONTEXT ( ( #699 ) ) GLOBAL_UNIT_ASSIGNED_CONTEXT ( ( #891, #109, #1034 ) ) REPRESENTATION_CONTEXT ( 'NONE', 'WORKASPACE' ) );
#708 = LINE ( 'NONE', #796, #818 ) ;
#709 = EDGE_LOOP ( 'NONE', ( #1038, #341, #113, #328 ) ) ;
#710 = ADVANCED_FACE ( 'NONE', ( #1210 ), #989, .F. ) ;
#711 = APPLICATION_CONTEXT ( 'automotive_design' ) ;
#712 = ORIENTED_EDGE ( 'NONE', *, *, #1100, .F. ) ;
#713 = LINE ( 'NONE', #287, #1137 ) ;
#714 = PRODUCT ( '228-2500-168-OVERMOLD.step', '228-2500-168-OVERMOLD.step', '', ( #1233 ) ) ;
#715 = LINE ( 'NONE', #723, #472 ) ;
#716 = CONTEXT_DEPENDENT_SHAPE_REPRESENTATION ( #1101, #803 ) ;
#717 = B_SPLINE_CURVE_WITH_KNOTS ( 'NONE', 3,
 ( #50, #359, #568, #777 ),
 .UNSPECIFIED., .F., .F.,
 ( 4, 4 ),
 ( 0.000000000000000000, 1.000000000000000000 ),
 .UNSPECIFIED. ) ;
#718 = ORIENTED_EDGE ( 'NONE', *, *, #782, .F. ) ;
#719 = ADVANCED_FACE ( 'NONE', ( #295 ), #196, .F. ) ;
#720 = LINE ( 'NONE', #1128, #793 ) ;
#721 = EDGE_LOOP ( 'NONE', ( #176, #468, #91, #1002, #1140 ) ) ;
#722 = DIRECTION ( 'NONE',  ( 0.000000000000000000, 0.000000000000000000, -1.000000000000000000 ) ) ;
#723 = CARTESIAN_POINT ( 'NONE',  ( 2.500000000000000000, -1.639999999999999902, 0.000000000000000000 ) ) ;
#724 = VECTOR ( 'NONE', #653, 1000.000000000000000 ) ;
#725 = CARTESIAN_POINT ( 'NONE',  ( 0.000000000000000000, 0.000000000000000000, 0.000000000000000000 ) ) ;
#726 = VERTEX_POINT ( 'NONE', #114 ) ;
#727 = ORIENTED_EDGE ( 'NONE', *, *, #209, .F. ) ;
#728 = EDGE_CURVE ( 'NONE', #802, #360, #1048, .T. ) ;
#729 = VECTOR ( 'NONE', #787, 1000.000000000000000 ) ;
#730 = PRESENTATION_STYLE_ASSIGNMENT (( #1055 ) ) ;
#731 = EDGE_CURVE ( 'NONE', #157, #802, #523, .T. ) ;
#732 = AXIS2_PLACEMENT_3D ( 'NONE', #1079, #640, #271 ) ;
#733 = CIRCLE ( 'NONE', #371, 4.500000000000000000 ) ;
#734 = AXIS2_PLACEMENT_3D ( 'NONE', #258, #565, #319 ) ;
#735 = CARTESIAN_POINT ( 'NONE',  ( 0.000000000000000000, 0.000000000000000000, 2.174999999999999822 ) ) ;
#736 = VERTEX_POINT ( 'NONE', #824 ) ;
#737 = ORIENTED_EDGE ( 'NONE', *, *, #832, .T. ) ;
#738 = DIRECTION ( 'NONE',  ( 0.000000000000000000, 0.000000000000000000, 1.000000000000000000 ) ) ;
#739 = EDGE_CURVE ( 'NONE', #112, #810, #1155, .T. ) ;
#740 = ORIENTED_EDGE ( 'NONE', *, *, #739, .F. ) ;
#741 = VERTEX_POINT ( 'NONE', #317 ) ;
#742 = CARTESIAN_POINT ( 'NONE',  ( -2.500000000000000000, 3.140000000000000124, 0.000000000000000000 ) ) ;
#743 = CARTESIAN_POINT ( 'NONE',  ( 2.500000000000000000, 3.140000000000000124, -3.122498999199200043 ) ) ;
#744 = DIRECTION ( 'NONE',  ( 0.000000000000000000, 0.000000000000000000, -1.000000000000000000 ) ) ;
#745 = AXIS2_PLACEMENT_3D ( 'NONE', #380, #788, #56 ) ;
#746 = VECTOR ( 'NONE', #959, 1000.000000000000000 ) ;
#747 = ORIENTED_EDGE ( 'NONE', *, *, #1223, .F. ) ;
#748 = CARTESIAN_POINT ( 'NONE',  ( 1.734723475976804925E-15, 0.000000000000000000, 1.639999999999999902 ) ) ;
#749 = AXIS2_PLACEMENT_3D ( 'NONE', #471, #882, #681 ) ;
#750 = CARTESIAN_POINT ( 'NONE',  ( 1.734723475976804925E-15, -2.500000000000000000, -3.140000000000000124 ) ) ;
#751 = VECTOR ( 'NONE', #722, 1000.000000000000000 ) ;
#752 = DIRECTION ( 'NONE',  ( 0.000000000000000000, -1.000000000000000000, 0.000000000000000000 ) ) ;
#753 = AXIS2_PLACEMENT_3D ( 'NONE', #49, #642, #433 ) ;
#754 = PLANE ( 'NONE',  #978 ) ;
#755 = EDGE_CURVE ( 'NONE', #494, #1193, #582, .T. ) ;
#756 = ORIENTED_EDGE ( 'NONE', *, *, #1054, .F. ) ;
#757 = SHAPE_REPRESENTATION ( '228-2500-168-OVERMOLD.step', ( #307 ), #707 ) ;
#758 = LINE ( 'NONE', #870, #52 ) ;
#759 = DIRECTION ( 'NONE',  ( 0.000000000000000000, 1.000000000000000000, 0.000000000000000000 ) ) ;
#760 = DIRECTION ( 'NONE',  ( 0.000000000000000000, -1.000000000000000000, 0.000000000000000000 ) ) ;
#761 = CARTESIAN_POINT ( 'NONE',  ( 0.000000000000000000, 0.000000000000000000, 2.174999999999999822 ) ) ;
#762 = CARTESIAN_POINT ( 'NONE',  ( 0.000000000000000000, -1.639999999999999902, 0.000000000000000000 ) ) ;
#763 = ORIENTED_EDGE ( 'NONE', *, *, #1207, .T. ) ;
#764 = EDGE_CURVE ( 'NONE', #741, #831, #470, .T. ) ;
#765 = CARTESIAN_POINT ( 'NONE',  ( 2.500000000000000000, -3.713555671008029968, -2.663345702823739725 ) ) ;
#766 = APPLICATION_PROTOCOL_DEFINITION ( 'draft international standard', 'automotive_design', 1998, #376 ) ;
#767 = DIRECTION ( 'NONE',  ( 0.000000000000000000, 0.000000000000000000, 1.000000000000000000 ) ) ;
#768 = FILL_AREA_STYLE ('',( #357 ) ) ;
#769 = PLANE ( 'NONE',  #956 ) ;
#770 = ORIENTED_EDGE ( 'NONE', *, *, #309, .T. ) ;
#771 = LINE ( 'NONE', #171, #729 ) ;
#772 = CARTESIAN_POINT ( 'NONE',  ( -2.500000000000000000, -2.640000000000000124, 3.741657386773939997 ) ) ;
#773 = EDGE_CURVE ( 'NONE', #1222, #232, #1216, .T. ) ;
#774 = FACE_OUTER_BOUND ( 'NONE', #1240, .T. ) ;
#775 = VECTOR ( 'NONE', #153, 1000.000000000000000 ) ;
#776 = ORIENTED_EDGE ( 'NONE', *, *, #353, .T. ) ;
#777 = CARTESIAN_POINT ( 'NONE',  ( -2.500000000000000000, 3.140000000000000124, -3.122498999199200043 ) ) ;
#778 = ORIENTED_EDGE ( 'NONE', *, *, #1033, .F. ) ;
#779 = TOROIDAL_SURFACE ( 'NONE', #520, 5.599999999999999645, 0.5000000000000000000 ) ;
#780 = CARTESIAN_POINT ( 'NONE',  ( 2.500000000000000000, -3.727611431664089814, -2.651678922598054822 ) ) ;
#781 = PLANE ( 'NONE',  #1296 ) ;
#782 = EDGE_CURVE ( 'NONE', #572, #496, #554, .T. ) ;
#783 = LINE ( 'NONE', #283, #499 ) ;
#784 = MANIFOLD_SOLID_BREP ( 'NONE', #83 ) ;
#785 = EDGE_LOOP ( 'NONE', ( #398, #950, #212, #96, #479 ) ) ;
#786 = DIRECTION ( 'NONE',  ( 0.000000000000000000, -1.000000000000000000, 0.000000000000000000 ) ) ;
#787 = DIRECTION ( 'NONE',  ( 0.000000000000000000, 0.000000000000000000, 1.000000000000000000 ) ) ;
#788 = DIRECTION ( 'NONE',  ( -0.000000000000000000, 1.000000000000000000, 0.000000000000000000 ) ) ;
#789 = CARTESIAN_POINT ( 'NONE',  ( -2.500000000000000000, 3.713555671008029968, 2.663345702823739725 ) ) ;
#790 = PRODUCT_DEFINITION ( 'UNKNOWN', '', #1118, #794 ) ;
#791 = ORIENTED_EDGE ( 'NONE', *, *, #990, .T. ) ;
#792 = DIRECTION ( 'NONE',  ( 2.318121752820995359E-16, -1.000000000000000000, 0.000000000000000000 ) ) ;
#793 = VECTOR ( 'NONE', #137, 1000.000000000000000 ) ;
#794 = PRODUCT_DEFINITION_CONTEXT ( 'detailed design', #345, 'design' ) ;
#795 = CARTESIAN_POINT ( 'NONE',  ( -2.500000000000000000, -3.141000000000000014, 0.000000000000000000 ) ) ;
#796 = CARTESIAN_POINT ( 'NONE',  ( 2.500000000000000000, 2.140000000000000124, 0.000000000000000000 ) ) ;
#797 = AXIS2_PLACEMENT_3D ( 'NONE', #40, #524, #829 ) ;
#798 = ORIENTED_EDGE ( 'NONE', *, *, #27, .F. ) ;
#799 = EDGE_CURVE ( 'NONE', #810, #741, #290, .T. ) ;
#800 = DIRECTION ( 'NONE',  ( 0.000000000000000000, -1.000000000000000000, 0.000000000000000000 ) ) ;
#801 = CIRCLE ( 'NONE', #852, 0.4999999999999995559 ) ;
#802 = VERTEX_POINT ( 'NONE', #452 ) ;
#803 = PRODUCT_DEFINITION_SHAPE ( 'NONE', 'NONE',  #1302 ) ;
#804 = CARTESIAN_POINT ( 'NONE',  ( 0.000000000000000000, 0.000000000000000000, -2.674999999999999822 ) ) ;
#805 = ORIENTED_EDGE ( 'NONE', *, *, #474, .F. ) ;
#806 = CARTESIAN_POINT ( 'NONE',  ( 2.500000000000000000, -2.640000000000000124, 3.741657386773939997 ) ) ;
#807 = CYLINDRICAL_SURFACE ( 'NONE', #139, 2.500000000000000000 ) ;
#808 = PRODUCT_DEFINITION_CONTEXT ( 'detailed design', #1031, 'design' ) ;
#809 = ORIENTED_EDGE ( 'NONE', *, *, #926, .F. ) ;
#810 = VERTEX_POINT ( 'NONE', #269 ) ;
#811 = LINE ( 'NONE', #211, #1152 ) ;
#812 = AXIS2_PLACEMENT_3D ( 'NONE', #161, #279, #674 ) ;
#813 = ADVANCED_FACE ( 'NONE', ( #962 ), #781, .T. ) ;
#814 = CARTESIAN_POINT ( 'NONE',  ( 2.500000000000000000, 2.140000000000000124, 3.741657386773939997 ) ) ;
#815 = ORIENTED_EDGE ( 'NONE', *, *, #731, .T. ) ;
#816 = ORIENTED_EDGE ( 'NONE', *, *, #149, .F. ) ;
#817 = DIRECTION ( 'NONE',  ( 0.000000000000000000, 1.000000000000000000, 0.000000000000000000 ) ) ;
#818 = VECTOR ( 'NONE', #992, 1000.000000000000000 ) ;
#819 = AXIS2_PLACEMENT_3D ( 'NONE', #871, #185, #473 ) ;
#820 = CARTESIAN_POINT ( 'NONE',  ( 2.500000000000000000, 3.727611431664089814, 2.651678922598054822 ) ) ;
#821 = ADVANCED_FACE ( 'NONE', ( #661 ), #281, .T. ) ;
#822 = ORIENTED_EDGE ( 'NONE', *, *, #260, .T. ) ;
#823 = EDGE_LOOP ( 'NONE', ( #608, #1165, #169, #907 ) ) ;
#824 = CARTESIAN_POINT ( 'NONE',  ( 2.285814535593114867E-15, 4.500000000000000000, -2.640000000000000124 ) ) ;
#825 = DIRECTION ( 'NONE',  ( 0.000000000000000000, 1.000000000000000000, 0.000000000000000000 ) ) ;
#826 = ORIENTED_EDGE ( 'NONE', *, *, #223, .F. ) ;
#827 = EDGE_CURVE ( 'NONE', #673, #1058, #976, .T. ) ;
#828 = ORIENTED_EDGE ( 'NONE', *, *, #209, .T. ) ;
#829 = DIRECTION ( 'NONE',  ( 0.000000000000000000, 1.000000000000000000, 0.000000000000000000 ) ) ;
#830 = ORIENTED_EDGE ( 'NONE', *, *, #921, .T. ) ;
#831 = VERTEX_POINT ( 'NONE', #683 ) ;
#832 = EDGE_CURVE ( 'NONE', #152, #700, #897, .T. ) ;
#833 = VECTOR ( 'NONE', #1060, 1000.000000000000000 ) ;
#834 = FACE_BOUND ( 'NONE', #721, .T. ) ;
#835 = AXIS2_PLACEMENT_3D ( 'NONE', #1289, #486, #686 ) ;
#836 = PRODUCT_DEFINITION_FORMATION_WITH_SPECIFIED_SOURCE ( 'ANY', '', #110, .NOT_KNOWN. ) ;
#837 = CIRCLE ( 'NONE', #536, 5.599999999999999645 ) ;
#838 = VERTEX_POINT ( 'NONE', #465 ) ;
#839 = EDGE_LOOP ( 'NONE', ( #900, #861, #1214, #134, #960, #612 ) ) ;
#840 = DIRECTION ( 'NONE',  ( 0.000000000000000000, 1.000000000000000000, 0.000000000000000000 ) ) ;
#841 = UNCERTAINTY_MEASURE_WITH_UNIT (LENGTH_MEASURE( 1.000000000000000082E-05 ), #969, 'distance_accuracy_value', 'NONE');
#842 = CARTESIAN_POINT ( 'NONE',  ( 1.734723475976804925E-15, 0.000000000000000000, -2.140000000000000124 ) ) ;
#843 = ORIENTED_EDGE ( 'NONE', *, *, #333, .F. ) ;
#844 =( LENGTH_UNIT ( ) NAMED_UNIT ( * ) SI_UNIT ( .MILLI., .METRE. ) );
#845 = EDGE_CURVE ( 'NONE', #610, #633, #74, .T. ) ;
#846 =( NAMED_UNIT ( * ) PLANE_ANGLE_UNIT ( ) SI_UNIT ( $, .RADIAN. ) );
#847 = PLANE ( 'NONE',  #123 ) ;
#848 = CIRCLE ( 'NONE', #47, 2.500000000000000000 ) ;
#849 = CARTESIAN_POINT ( 'NONE',  ( -2.500000000000000000, 0.000000000000000000, -3.140000000000000124 ) ) ;
#850 = ORIENTED_EDGE ( 'NONE', *, *, #698, .T. ) ;
#851 = FACE_OUTER_BOUND ( 'NONE', #888, .T. ) ;
#852 = AXIS2_PLACEMENT_3D ( 'NONE', #530, #133, #1043 ) ;
#853 = CONTEXT_DEPENDENT_SHAPE_REPRESENTATION ( #136, #1011 ) ;
#854 = CONICAL_SURFACE ( 'NONE', #289, 4.000000000000000000, 0.7853981633974461696 ) ;
#855 = CARTESIAN_POINT ( 'NONE',  ( 2.500000000000000000, -3.699489829692740095, -2.674999999999999822 ) ) ;
#856 = AXIS2_PLACEMENT_3D ( 'NONE', #548, #857, #438 ) ;
#857 = DIRECTION ( 'NONE',  ( 0.000000000000000000, 0.000000000000000000, -1.000000000000000000 ) ) ;
#858 = ADVANCED_FACE ( 'NONE', ( #79 ), #165, .F. ) ;
#859 = VECTOR ( 'NONE', #1068, 1000.000000000000000 ) ;
#860 = LINE ( 'NONE', #264, #746 ) ;
#861 = ORIENTED_EDGE ( 'NONE', *, *, #1142, .F. ) ;
#862 = DIRECTION ( 'NONE',  ( 0.000000000000000000, 1.000000000000000000, 0.000000000000000000 ) ) ;
#863 = ADVANCED_BREP_SHAPE_REPRESENTATION ( '', ( #337, #307 ), #427 ) ;
#864 = FILL_AREA_STYLE ('',( #585 ) ) ;
#865 = DIRECTION ( 'NONE',  ( 0.000000000000000000, 0.000000000000000000, 1.000000000000000000 ) ) ;
#866 = CARTESIAN_POINT ( 'NONE',  ( -5.599999999999999645, 6.858022075225179538E-16, -2.174999999999999822 ) ) ;
#867 = EDGE_CURVE ( 'NONE', #1010, #86, #282, .T. ) ;
#868 = DIRECTION ( 'NONE',  ( 0.000000000000000000, 0.000000000000000000, -1.000000000000000000 ) ) ;
#869 = EDGE_LOOP ( 'NONE', ( #335, #680, #315, #395 ) ) ;
#870 = CARTESIAN_POINT ( 'NONE',  ( 5.510910596163090542E-16, 3.140000000000000124, 4.500000000000000000 ) ) ;
#871 = CARTESIAN_POINT ( 'NONE',  ( 0.000000000000000000, -3.140000000000000124, 0.000000000000000000 ) ) ;
#872 = DIRECTION ( 'NONE',  ( 1.000000000000000000, 0.000000000000000000, 0.000000000000000000 ) ) ;
#873 = DIRECTION ( 'NONE',  ( 0.000000000000000000, 1.000000000000000000, 0.000000000000000000 ) ) ;
#874 = ORIENTED_EDGE ( 'NONE', *, *, #1191, .F. ) ;
#875 =( GEOMETRIC_REPRESENTATION_CONTEXT ( 3 ) GLOBAL_UNCERTAINTY_ASSIGNED_CONTEXT ( ( #500 ) ) GLOBAL_UNIT_ASSIGNED_CONTEXT ( ( #884, #1278, #1264 ) ) REPRESENTATION_CONTEXT ( 'NONE', 'WORKASPACE' ) );
#876 = DIRECTION ( 'NONE',  ( 0.000000000000000000, 0.000000000000000000, 1.000000000000000000 ) ) ;
#877 = ADVANCED_FACE ( 'NONE', ( #1228 ), #1110, .T. ) ;
#878 = DIRECTION ( 'NONE',  ( 0.000000000000000000, 1.000000000000000000, 0.000000000000000000 ) ) ;
#879 = AXIS2_PLACEMENT_3D ( 'NONE', #961, #177, #570 ) ;
#880 = DIRECTION ( 'NONE',  ( 0.000000000000000000, -1.000000000000000000, 0.000000000000000000 ) ) ;
#881 = ORIENTED_EDGE ( 'NONE', *, *, #1211, .F. ) ;
#882 = DIRECTION ( 'NONE',  ( 0.000000000000000000, 1.000000000000000000, 0.000000000000000000 ) ) ;
#883 = PRODUCT_RELATED_PRODUCT_CATEGORY ( 'part', '', ( #490 ) ) ;
#884 =( LENGTH_UNIT ( ) NAMED_UNIT ( * ) SI_UNIT ( .MILLI., .METRE. ) );
#885 = DIRECTION ( 'NONE',  ( 0.000000000000000000, 0.000000000000000000, 1.000000000000000000 ) ) ;
#886 = CARTESIAN_POINT ( 'NONE',  ( 1.734723475976804925E-15, 0.000000000000000000, -3.140000000000000124 ) ) ;
#887 = ORIENTED_EDGE ( 'NONE', *, *, #1138, .F. ) ;
#888 = EDGE_LOOP ( 'NONE', ( #908, #33, #285, #6, #822 ) ) ;
#889 = FACE_OUTER_BOUND ( 'NONE', #487, .T. ) ;
#890 = SHAPE_REPRESENTATION ( '228-2500-167.step', ( #307 ), #427 ) ;
#891 =( LENGTH_UNIT ( ) NAMED_UNIT ( * ) SI_UNIT ( .MILLI., .METRE. ) );
#892 = DIRECTION ( 'NONE',  ( 0.000000000000000000, 1.000000000000000000, 0.000000000000000000 ) ) ;
#893 = EDGE_CURVE ( 'NONE', #70, #508, #635, .T. ) ;
#894 = SURFACE_STYLE_USAGE ( .BOTH. , #477 ) ;
#895 = ORIENTED_EDGE ( 'NONE', *, *, #1012, .T. ) ;
#896 = CARTESIAN_POINT ( 'NONE',  ( 1.734723475976804925E-15, 0.000000000000000000, 2.674999999999999822 ) ) ;
#897 = CIRCLE ( 'NONE', #658, 1.500000000000000000 ) ;
#898 = AXIS2_PLACEMENT_3D ( 'NONE', #464, #183, #163 ) ;
#899 = EDGE_CURVE ( 'NONE', #931, #1058, #996, .T. ) ;
#900 = ORIENTED_EDGE ( 'NONE', *, *, #827, .F. ) ;
#901 = ORIENTED_EDGE ( 'NONE', *, *, #322, .T. ) ;
#902 = DIRECTION ( 'NONE',  ( 1.000000000000000000, 0.000000000000000000, 0.000000000000000000 ) ) ;
#903 = ORIENTED_EDGE ( 'NONE', *, *, #1070, .F. ) ;
#904 = CARTESIAN_POINT ( 'NONE',  ( 2.500000000000000000, 0.000000000000000000, -2.140000000000000124 ) ) ;
#905 = ADVANCED_FACE ( 'NONE', ( #963 ), #597, .T. ) ;
#906 = PLANE ( 'NONE',  #560 ) ;
#907 = ORIENTED_EDGE ( 'NONE', *, *, #651, .T. ) ;
#908 = ORIENTED_EDGE ( 'NONE', *, *, #251, .T. ) ;
#909 = DIRECTION ( 'NONE',  ( 0.000000000000000000, -1.000000000000000000, 0.000000000000000000 ) ) ;
#910 = ADVANCED_FACE ( 'NONE', ( #985 ), #807, .F. ) ;
#911 = CARTESIAN_POINT ( 'NONE',  ( 1.734723475976804925E-15, 0.000000000000000000, 2.640000000000000124 ) ) ;
#912 = CIRCLE ( 'NONE', #616, 6.100000000000000533 ) ;
#913 = APPLICATION_CONTEXT ( 'automotive_design' ) ;
#914 = EDGE_LOOP ( 'NONE', ( #1108, #1251, #1234, #5, #850 ) ) ;
#915 = MECHANICAL_DESIGN_GEOMETRIC_PRESENTATION_REPRESENTATION (  '', ( #1235 ), #100 ) ;
#916 = CARTESIAN_POINT ( 'NONE',  ( -2.500000000000000000, -3.699489829692740095, -2.674999999999999822 ) ) ;
#917 = EDGE_LOOP ( 'NONE', ( #366, #579 ) ) ;
#918 = DIRECTION ( 'NONE',  ( -1.000000000000000000, 0.000000000000000000, 0.000000000000000000 ) ) ;
#919 = CARTESIAN_POINT ( 'NONE',  ( 2.500000000000000000, -1.639999999999999902, 0.000000000000000000 ) ) ;
#920 = AXIS2_PLACEMENT_3D ( 'NONE', #1226, #1197, #880 ) ;
#921 = EDGE_CURVE ( 'NONE', #1222, #633, #369, .T. ) ;
#922 = ORIENTED_EDGE ( 'NONE', *, *, #893, .T. ) ;
#923 = ORIENTED_EDGE ( 'NONE', *, *, #540, .F. ) ;
#924 = DIRECTION ( 'NONE',  ( 0.000000000000000000, 0.000000000000000000, -1.000000000000000000 ) ) ;
#925 = ORIENTED_EDGE ( 'NONE', *, *, #555, .F. ) ;
#926 = EDGE_CURVE ( 'NONE', #70, #416, #302, .T. ) ;
#927 = DIRECTION ( 'NONE',  ( 1.000000000000000000, 0.000000000000000000, 0.000000000000000000 ) ) ;
#928 = EDGE_LOOP ( 'NONE', ( #44, #881, #51, #957, #528 ) ) ;
#929 = CARTESIAN_POINT ( 'NONE',  ( 1.734723475976804925E-15, -2.500000000000000000, 1.639999999999999902 ) ) ;
#930 = AXIS2_PLACEMENT_3D ( 'NONE', #1093, #1169, #566 ) ;
#931 = VERTEX_POINT ( 'NONE', #657 ) ;
#932 = VERTEX_POINT ( 'NONE', #274 ) ;
#933 = AXIS2_PLACEMENT_3D ( 'NONE', #459, #77, #280 ) ;
#934 = AXIS2_PLACEMENT_3D ( 'NONE', #1007, #1297, #902 ) ;
#935 =( GEOMETRIC_REPRESENTATION_CONTEXT ( 3 ) GLOBAL_UNCERTAINTY_ASSIGNED_CONTEXT ( ( #1188 ) ) GLOBAL_UNIT_ASSIGNED_CONTEXT ( ( #1087, #298, #998 ) ) REPRESENTATION_CONTEXT ( 'NONE', 'WORKASPACE' ) );
#936 = AXIS2_PLACEMENT_3D ( 'NONE', #577, #467, #693 ) ;
#937 = FACE_OUTER_BOUND ( 'NONE', #1013, .T. ) ;
#938 = ORIENTED_EDGE ( 'NONE', *, *, #1090, .F. ) ;
#939 = EDGE_CURVE ( 'NONE', #1127, #932, #1044, .T. ) ;
#940 = DIRECTION ( 'NONE',  ( -1.000000000000000000, 0.000000000000000000, 0.000000000000000000 ) ) ;
#941 = DIRECTION ( 'NONE',  ( 1.224646799147350002E-16, 1.000000000000000000, 0.000000000000000000 ) ) ;
#942 = CARTESIAN_POINT ( 'NONE',  ( 2.500000000000000000, 0.000000000000000000, -3.140000000000000124 ) ) ;
#943 = ORIENTED_EDGE ( 'NONE', *, *, #755, .T. ) ;
#944 = CARTESIAN_POINT ( 'NONE',  ( 2.500000000000000000, 0.000000000000000000, 1.639999999999999902 ) ) ;
#945 = EDGE_CURVE ( 'NONE', #700, #152, #237, .T. ) ;
#946 = DIRECTION ( 'NONE',  ( 0.000000000000000000, 0.000000000000000000, -1.000000000000000000 ) ) ;
#947 = DIRECTION ( 'NONE',  ( 0.000000000000000000, 0.000000000000000000, 1.000000000000000000 ) ) ;
#948 = MECHANICAL_DESIGN_GEOMETRIC_PRESENTATION_REPRESENTATION (  '', ( #155 ), #875 ) ;
#949 = CARTESIAN_POINT ( 'NONE',  ( 2.500000000000000000, 2.140000000000000124, 0.000000000000000000 ) ) ;
#950 = ORIENTED_EDGE ( 'NONE', *, *, #1207, .F. ) ;
#951 = CARTESIAN_POINT ( 'NONE',  ( 5.599999999999999645, 0.000000000000000000, 2.174999999999999822 ) ) ;
#952 = LINE ( 'NONE', #275, #392 ) ;
#953 = CIRCLE ( 'NONE', #578, 6.100000000000000533 ) ;
#954 = CARTESIAN_POINT ( 'NONE',  ( 0.000000000000000000, 0.000000000000000000, 2.674999999999999822 ) ) ;
#955 = EDGE_CURVE ( 'NONE', #420, #572, #574, .T. ) ;
#956 = AXIS2_PLACEMENT_3D ( 'NONE', #842, #240, #752 ) ;
#957 = ORIENTED_EDGE ( 'NONE', *, *, #519, .F. ) ;
#958 = EDGE_CURVE ( 'NONE', #195, #1010, #973, .T. ) ;
#959 = DIRECTION ( 'NONE',  ( 0.000000000000000000, 0.000000000000000000, 1.000000000000000000 ) ) ;
#960 = ORIENTED_EDGE ( 'NONE', *, *, #679, .T. ) ;
#961 = CARTESIAN_POINT ( 'NONE',  ( 0.000000000000000000, 0.000000000000000000, 2.674999999999999822 ) ) ;
#962 = FACE_OUTER_BOUND ( 'NONE', #403, .T. ) ;
#963 = FACE_OUTER_BOUND ( 'NONE', #449, .T. ) ;
#964 = DIRECTION ( 'NONE',  ( -2.318121752820995359E-16, 0.000000000000000000, 1.000000000000000000 ) ) ;
#965 = ADVANCED_FACE ( 'NONE', ( #1109 ), #1123, .F. ) ;
#966 = ORIENTED_EDGE ( 'NONE', *, *, #671, .F. ) ;
#967 = LINE ( 'NONE', #354, #859 ) ;
#968 = DIRECTION ( 'NONE',  ( 0.000000000000000000, 0.000000000000000000, 1.000000000000000000 ) ) ;
#969 =( LENGTH_UNIT ( ) NAMED_UNIT ( * ) SI_UNIT ( .MILLI., .METRE. ) );
#970 = CYLINDRICAL_SURFACE ( 'NONE', #936, 4.500000000000000000 ) ;
#971 = LINE ( 'NONE', #249, #205 ) ;
#972 = ORIENTED_EDGE ( 'NONE', *, *, #584, .T. ) ;
#973 = CIRCLE ( 'NONE', #401, 5.599999999999999645 ) ;
#974 = VECTOR ( 'NONE', #561, 1000.000000000000000 ) ;
#975 = FACE_OUTER_BOUND ( 'NONE', #16, .T. ) ;
#976 = LINE ( 'NONE', #1286, #724 ) ;
#977 = AXIS2_PLACEMENT_3D ( 'NONE', #509, #1019, #391 ) ;
#978 = AXIS2_PLACEMENT_3D ( 'NONE', #455, #1266, #1274 ) ;
#979 = CARTESIAN_POINT ( 'NONE',  ( -2.500000000000000000, 3.741657386773939997, 2.640000000000000124 ) ) ;
#980 = COLOUR_RGB ( '',0.7921568627450980005, 0.8196078431372548767, 0.9333333333333333481 ) ;
#981 = ORIENTED_EDGE ( 'NONE', *, *, #945, .T. ) ;
#982 = CARTESIAN_POINT ( 'NONE',  ( 2.500000000000000000, -3.140000000000000124, 3.122498999199194714 ) ) ;
#983 = SURFACE_STYLE_USAGE ( .BOTH. , #460 ) ;
#984 = EDGE_CURVE ( 'NONE', #86, #607, #912, .T. ) ;
#985 = FACE_OUTER_BOUND ( 'NONE', #148, .T. ) ;
#986 = CYLINDRICAL_SURFACE ( 'NONE', #103, 2.500000000000000000 ) ;
#987 = VERTEX_POINT ( 'NONE', #1037 ) ;
#988 = ORIENTED_EDGE ( 'NONE', *, *, #1003, .F. ) ;
#989 = CYLINDRICAL_SURFACE ( 'NONE', #306, 1.500000000000000000 ) ;
#990 = EDGE_CURVE ( 'NONE', #726, #107, #682, .T. ) ;
#991 = DIRECTION ( 'NONE',  ( 0.000000000000000000, 0.000000000000000000, -1.000000000000000000 ) ) ;
#992 = DIRECTION ( 'NONE',  ( 2.318121752820995359E-16, 0.000000000000000000, -1.000000000000000000 ) ) ;
#993 = VERTEX_POINT ( 'NONE', #916 ) ;
#994 = CARTESIAN_POINT ( 'NONE',  ( 0.000000000000000000, -3.140000000000000124, 0.000000000000000000 ) ) ;
#995 = DIRECTION ( 'NONE',  ( 0.000000000000000000, 0.000000000000000000, 1.000000000000000000 ) ) ;
#996 = CIRCLE ( 'NONE', #423, 4.500000000000000000 ) ;
#997 = PRODUCT_DEFINITION_SHAPE ( 'NONE', 'NONE',  #277 ) ;
#998 =( NAMED_UNIT ( * ) SI_UNIT ( $, .STERADIAN. ) SOLID_ANGLE_UNIT ( ) );
#999 = DIRECTION ( 'NONE',  ( 1.000000000000000000, 0.000000000000000000, 0.000000000000000000 ) ) ;
#1000 = CARTESIAN_POINT ( 'NONE',  ( 1.734723475976804925E-15, 0.000000000000000000, 2.674999999999999822 ) ) ;
#1001 = CONICAL_SURFACE ( 'NONE', #797, 4.500000000000000000, 0.7853981633974503884 ) ;
#1002 = ORIENTED_EDGE ( 'NONE', *, *, #955, .T. ) ;
#1003 = EDGE_CURVE ( 'NONE', #377, #1041, #848, .T. ) ;
#1004 = CONICAL_SURFACE ( 'NONE', #35, 4.000000000000000000, 0.7853981633974461696 ) ;
#1005 = ORIENTED_EDGE ( 'NONE', *, *, #764, .F. ) ;
#1006 = CIRCLE ( 'NONE', #920, 4.500000000000000000 ) ;
#1007 = CARTESIAN_POINT ( 'NONE',  ( 1.734723475976804925E-15, 0.000000000000000000, -2.674999999999999822 ) ) ;
#1008 = CARTESIAN_POINT ( 'NONE',  ( -4.914503102615539909, 2.868084350529177762, 1.419983736332757429 ) ) ;
#1009 = DIRECTION ( 'NONE',  ( 0.000000000000000000, 0.000000000000000000, -1.000000000000000000 ) ) ;
#1010 = VERTEX_POINT ( 'NONE', #422 ) ;
#1011 = PRODUCT_DEFINITION_SHAPE ( 'NONE', 'NONE',  #1301 ) ;
#1012 = EDGE_CURVE ( 'NONE', #1193, #1041, #720, .T. ) ;
#1013 = EDGE_LOOP ( 'NONE', ( #798, #434, #874, #809 ) ) ;
#1014 = DIRECTION ( 'NONE',  ( 0.000000000000000000, -1.000000000000000000, 0.000000000000000000 ) ) ;
#1015 = CARTESIAN_POINT ( 'NONE',  ( 0.000000000000000000, 0.000000000000000000, -2.174999999999999822 ) ) ;
#1016 = DIRECTION ( 'NONE',  ( 0.000000000000000000, 0.000000000000000000, 1.000000000000000000 ) ) ;
#1017 = EDGE_LOOP ( 'NONE', ( #1104, #1245, #778, #265, #643, #887, #244, #316, #718, #647 ) ) ;
#1018 = ORIENTED_EDGE ( 'NONE', *, *, #573, .T. ) ;
#1019 = DIRECTION ( 'NONE',  ( 0.000000000000000000, 1.000000000000000000, 0.000000000000000000 ) ) ;
#1020 = EDGE_CURVE ( 'NONE', #700, #932, #218, .T. ) ;
#1021 = FACE_OUTER_BOUND ( 'NONE', #618, .T. ) ;
#1022 =( NAMED_UNIT ( * ) PLANE_ANGLE_UNIT ( ) SI_UNIT ( $, .RADIAN. ) );
#1023 = ORIENTED_EDGE ( 'NONE', *, *, #435, .F. ) ;
#1024 = CARTESIAN_POINT ( 'NONE',  ( -1.500000000000000000, 0.000000000000000000, 2.674999999999999822 ) ) ;
#1025 = AXIS2_PLACEMENT_3D ( 'NONE', #444, #646, #166 ) ;
#1026 = ORIENTED_EDGE ( 'NONE', *, *, #1012, .F. ) ;
#1027 = CARTESIAN_POINT ( 'NONE',  ( 0.000000000000000000, -2.640000000000000124, 0.000000000000000000 ) ) ;
#1028 = STYLED_ITEM ( 'NONE', ( #1293 ), #324 ) ;
#1029 = VECTOR ( 'NONE', #388, 1000.000000000000000 ) ;
#1030 = DIRECTION ( 'NONE',  ( 3.552713678800500140E-15, -1.000000000000000000, 0.000000000000000000 ) ) ;
#1031 = APPLICATION_CONTEXT ( 'automotive_design' ) ;
#1032 = VECTOR ( 'NONE', #991, 1000.000000000000000 ) ;
#1033 = EDGE_CURVE ( 'NONE', #219, #159, #1088, .T. ) ;
#1034 =( NAMED_UNIT ( * ) SI_UNIT ( $, .STERADIAN. ) SOLID_ANGLE_UNIT ( ) );
#1035 = DIRECTION ( 'NONE',  ( 1.000000000000000000, 0.000000000000000000, 0.000000000000000000 ) ) ;
#1036 = ORIENTED_EDGE ( 'NONE', *, *, #1211, .T. ) ;
#1037 = CARTESIAN_POINT ( 'NONE',  ( -2.500000000000000000, 3.741657386773939997, 2.640000000000000124 ) ) ;
#1038 = ORIENTED_EDGE ( 'NONE', *, *, #27, .T. ) ;
#1039 = DIRECTION ( 'NONE',  ( -2.318121752820995359E-16, 0.000000000000000000, -1.000000000000000000 ) ) ;
#1040 = DIRECTION ( 'NONE',  ( 0.000000000000000000, 0.000000000000000000, -1.000000000000000000 ) ) ;
#1041 = VERTEX_POINT ( 'NONE', #365 ) ;
#1042 = ORIENTED_EDGE ( 'NONE', *, *, #71, .T. ) ;
#1043 = DIRECTION ( 'NONE',  ( -1.000000000000000000, 1.224646799147351482E-16, 0.000000000000000000 ) ) ;
#1044 = CIRCLE ( 'NONE', #812, 1.500000000000000000 ) ;
#1045 = ORIENTED_EDGE ( 'NONE', *, *, #1020, .T. ) ;
#1046 = ADVANCED_FACE ( 'NONE', ( #1172 ), #655, .F. ) ;
#1047 = ORIENTED_EDGE ( 'NONE', *, *, #1168, .T. ) ;
#1048 = CIRCLE ( 'NONE', #409, 2.500000000000000000 ) ;
#1049 = CARTESIAN_POINT ( 'NONE',  ( 1.734723475976804925E-15, 0.000000000000000000, 1.639999999999999902 ) ) ;
#1050 = STYLED_ITEM ( 'NONE', ( #461 ), #863 ) ;
#1051 = VECTOR ( 'NONE', #216, 1000.000000000000000 ) ;
#1052 = DIRECTION ( 'NONE',  ( 0.000000000000000000, 0.000000000000000000, -1.000000000000000000 ) ) ;
#1053 = ORIENTED_EDGE ( 'NONE', *, *, #1191, .T. ) ;
#1054 = EDGE_CURVE ( 'NONE', #736, #610, #860, .T. ) ;
#1055 = SURFACE_STYLE_USAGE ( .BOTH. , #1146 ) ;
#1056 = CARTESIAN_POINT ( 'NONE',  ( 2.500000000000000000, -3.741657386773939997, 1.639999999999999902 ) ) ;
#1057 = EDGE_LOOP ( 'NONE', ( #1261, #130, #531, #595, #529, #901 ) ) ;
#1058 = VERTEX_POINT ( 'NONE', #1081 ) ;
#1059 = EDGE_CURVE ( 'NONE', #321, #219, #1091, .T. ) ;
#1060 = DIRECTION ( 'NONE',  ( 0.000000000000000000, 0.000000000000000000, -1.000000000000000000 ) ) ;
#1061 = PRODUCT_CONTEXT ( 'NONE', #67, 'mechanical' ) ;
#1062 = DIRECTION ( 'NONE',  ( 0.000000000000000000, 0.000000000000000000, -1.000000000000000000 ) ) ;
#1063 = EDGE_CURVE ( 'NONE', #321, #144, #375, .T. ) ;
#1064 = DIRECTION ( 'NONE',  ( 1.000000000000000000, 0.000000000000000000, 0.000000000000000000 ) ) ;
#1065 = CARTESIAN_POINT ( 'NONE',  ( 0.000000000000000000, -2.640000000000000124, -4.500000000000000000 ) ) ;
#1066 = CARTESIAN_POINT ( 'NONE',  ( -2.500000000000000000, 3.741657386773939997, -2.140000000000000124 ) ) ;
#1067 = ORIENTED_EDGE ( 'NONE', *, *, #651, .F. ) ;
#1068 = DIRECTION ( 'NONE',  ( 0.000000000000000000, 0.000000000000000000, -1.000000000000000000 ) ) ;
#1069 = CARTESIAN_POINT ( 'NONE',  ( -2.500000000000000000, -2.821700278781786420, 3.523130897040199550 ) ) ;
#1070 = EDGE_CURVE ( 'NONE', #219, #229, #43, .T. ) ;
#1071 = AXIS2_PLACEMENT_3D ( 'NONE', #1008, #1016, #1161 ) ;
#1072 = PLANE ( 'NONE',  #732 ) ;
#1073 = CIRCLE ( 'NONE', #753, 1.500000000000000000 ) ;
#1074 = FACE_OUTER_BOUND ( 'NONE', #1057, .T. ) ;
#1075 = CARTESIAN_POINT ( 'NONE',  ( 0.000000000000000000, -2.640000000000000124, 0.000000000000000000 ) ) ;
#1076 = ORIENTED_EDGE ( 'NONE', *, *, #94, .F. ) ;
#1077 = CARTESIAN_POINT ( 'NONE',  ( -2.500000000000000000, 3.699489829692734766, 2.674999999999999822 ) ) ;
#1078 = DIRECTION ( 'NONE',  ( 0.000000000000000000, 1.000000000000000000, 0.000000000000000000 ) ) ;
#1079 = CARTESIAN_POINT ( 'NONE',  ( 2.500000000000000000, 3.141000000000000014, 0.000000000000000000 ) ) ;
#1080 = PRODUCT_DEFINITION ( 'UNKNOWN', '', #836, #808 ) ;
#1081 = CARTESIAN_POINT ( 'NONE',  ( -2.500000000000000000, -1.639999999999999902, -3.741657386773939997 ) ) ;
#1082 = ORIENTED_EDGE ( 'NONE', *, *, #698, .F. ) ;
#1083 = DIRECTION ( 'NONE',  ( 1.000000000000000000, 0.000000000000000000, 0.000000000000000000 ) ) ;
#1084 = FACE_OUTER_BOUND ( 'NONE', #539, .T. ) ;
#1085 = CARTESIAN_POINT ( 'NONE',  ( 1.734723475976804925E-15, 0.000000000000000000, 2.640000000000000124 ) ) ;
#1086 = CARTESIAN_POINT ( 'NONE',  ( 2.500000000000000000, 3.741657386773939997, 2.640000000000000124 ) ) ;
#1087 =( LENGTH_UNIT ( ) NAMED_UNIT ( * ) SI_UNIT ( .MILLI., .METRE. ) );
#1088 = LINE ( 'NONE', #1066, #442 ) ;
#1089 = ORIENTED_EDGE ( 'NONE', *, *, #296, .F. ) ;
#1090 = EDGE_CURVE ( 'NONE', #1124, #112, #665, .T. ) ;
#1091 = CIRCLE ( 'NONE', #512, 2.500000000000000000 ) ;
#1092 = CARTESIAN_POINT ( 'NONE',  ( 2.500000000000000000, -1.639999999999999902, -3.741657386773939997 ) ) ;
#1093 = CARTESIAN_POINT ( 'NONE',  ( 5.599999999999999645, 0.000000000000000000, -2.174999999999999822 ) ) ;
#1094 = CIRCLE ( 'NONE', #1195, 4.500000000000000000 ) ;
#1095 =( NAMED_UNIT ( * ) PLANE_ANGLE_UNIT ( ) SI_UNIT ( $, .RADIAN. ) );
#1096 = CIRCLE ( 'NONE', #101, 2.500000000000000000 ) ;
#1097 = DIRECTION ( 'NONE',  ( 1.000000000000000000, 0.000000000000000000, 0.000000000000000000 ) ) ;
#1098 = ORIENTED_EDGE ( 'NONE', *, *, #939, .F. ) ;
#1099 = CARTESIAN_POINT ( 'NONE',  ( 1.734723475976804925E-15, -4.500000000000000000, 1.639999999999999902 ) ) ;
#1100 = EDGE_CURVE ( 'NONE', #736, #11, #580, .T. ) ;
#1101 =( REPRESENTATION_RELATIONSHIP ('NONE','NONE', #31, #757 ) REPRESENTATION_RELATIONSHIP_WITH_TRANSFORMATION ( #1254 )SHAPE_REPRESENTATION_RELATIONSHIP( ) );
#1102 = CARTESIAN_POINT ( 'NONE',  ( 0.000000000000000000, 0.000000000000000000, -2.674999999999999822 ) ) ;
#1103 = CYLINDRICAL_SURFACE ( 'NONE', #1153, 2.500000000000000000 ) ;
#1104 = ORIENTED_EDGE ( 'NONE', *, *, #260, .F. ) ;
#1105 = CARTESIAN_POINT ( 'NONE',  ( 0.000000000000000000, -1.639999999999999902, 0.000000000000000000 ) ) ;
#1106 = ADVANCED_FACE ( 'NONE', ( #61, #351, #343 ), #754, .F. ) ;
#1107 = CARTESIAN_POINT ( 'NONE',  ( -2.500000000000000000, -3.727611431664075159, -2.651678922598029953 ) ) ;
#1108 = ORIENTED_EDGE ( 'NONE', *, *, #1059, .T. ) ;
#1109 = FACE_OUTER_BOUND ( 'NONE', #329, .T. ) ;
#1110 = TOROIDAL_SURFACE ( 'NONE', #532, 5.599999999999999645, 0.5000000000000000000 ) ;
#1111 = VERTEX_POINT ( 'NONE', #949 ) ;
#1112 = LINE ( 'NONE', #609, #558 ) ;
#1113 = EDGE_CURVE ( 'NONE', #521, #494, #717, .T. ) ;
#1114 = CARTESIAN_POINT ( 'NONE',  ( -2.500000000000000000, -3.699489829692740095, -2.674999999999999822 ) ) ;
#1115 = VECTOR ( 'NONE', #800, 1000.000000000000000 ) ;
#1116 = ORIENTED_EDGE ( 'NONE', *, *, #175, .T. ) ;
#1117 = AXIS2_PLACEMENT_3D ( 'NONE', #648, #1250, #873 ) ;
#1118 = PRODUCT_DEFINITION_FORMATION_WITH_SPECIFIED_SOURCE ( 'ANY', '', #714, .NOT_KNOWN. ) ;
#1119 = EDGE_LOOP ( 'NONE', ( #522, #394, #98, #617 ) ) ;
#1120 = AXIS2_PLACEMENT_3D ( 'NONE', #538, #670, #1149 ) ;
#1121 = LINE ( 'NONE', #399, #1115 ) ;
#1122 = ORIENTED_EDGE ( 'NONE', *, *, #1, .F. ) ;
#1123 = PLANE ( 'NONE',  #179 ) ;
#1124 = VERTEX_POINT ( 'NONE', #672 ) ;
#1125 = DIRECTION ( 'NONE',  ( 0.000000000000000000, 1.000000000000000000, 0.000000000000000000 ) ) ;
#1126 = CARTESIAN_POINT ( 'NONE',  ( -5.599999999999999645, 7.164183775012020367E-16, -2.674999999999999822 ) ) ;
#1127 = VERTEX_POINT ( 'NONE', #1158 ) ;
#1128 = CARTESIAN_POINT ( 'NONE',  ( 2.500000000000000000, 3.140000000000000124, 0.000000000000000000 ) ) ;
#1129 = ORIENTED_EDGE ( 'NONE', *, *, #1063, .T. ) ;
#1130 = CARTESIAN_POINT ( 'NONE',  ( 0.000000000000000000, 3.140000000000000124, 0.000000000000000000 ) ) ;
#1131 = EDGE_CURVE ( 'NONE', #457, #377, #971, .T. ) ;
#1132 =( NAMED_UNIT ( * ) PLANE_ANGLE_UNIT ( ) SI_UNIT ( $, .RADIAN. ) );
#1133 = DIRECTION ( 'NONE',  ( 0.000000000000000000, 0.000000000000000000, 1.000000000000000000 ) ) ;
#1134 = ORIENTED_EDGE ( 'NONE', *, *, #764, .T. ) ;
#1135 = CIRCLE ( 'NONE', #749, 2.500000000000000000 ) ;
#1136 = ORIENTED_EDGE ( 'NONE', *, *, #483, .F. ) ;
#1137 = VECTOR ( 'NONE', #497, 1000.000000000000000 ) ;
#1138 = EDGE_CURVE ( 'NONE', #11, #993, #513, .T. ) ;
#1139 = ORIENTED_EDGE ( 'NONE', *, *, #432, .F. ) ;
#1140 = ORIENTED_EDGE ( 'NONE', *, *, #593, .F. ) ;
#1141 = CARTESIAN_POINT ( 'NONE',  ( 1.500000000000000000, 1.836970198721030181E-16, 2.674999999999999822 ) ) ;
#1142 = EDGE_CURVE ( 'NONE', #225, #673, #1096, .T. ) ;
#1143 = VERTEX_POINT ( 'NONE', #383 ) ;
#1144 = ORIENTED_EDGE ( 'NONE', *, *, #135, .T. ) ;
#1145 = B_SPLINE_CURVE_WITH_KNOTS ( 'NONE', 3,
 ( #979, #84, #789, #1189 ),
 .UNSPECIFIED., .F., .F.,
 ( 4, 4 ),
 ( 6.133173666733499634E-19, 5.479561359973270302E-05 ),
 .UNSPECIFIED. ) ;
#1146 = SURFACE_SIDE_STYLE ('',( #140 ) ) ;
#1147 = UNCERTAINTY_MEASURE_WITH_UNIT (LENGTH_MEASURE( 1.000000000000000082E-05 ), #58, 'distance_accuracy_value', 'NONE');
#1148 = SURFACE_STYLE_FILL_AREA ( #768 ) ;
#1149 = DIRECTION ( 'NONE',  ( 1.000000000000000000, 0.000000000000000000, 0.000000000000000000 ) ) ;
#1150 = ADVANCED_FACE ( 'NONE', ( #303 ), #226, .T. ) ;
#1151 = ORIENTED_EDGE ( 'NONE', *, *, #231, .F. ) ;
#1152 = VECTOR ( 'NONE', #312, 1000.000000000000000 ) ;
#1153 = AXIS2_PLACEMENT_3D ( 'NONE', #104, #1208, #188 ) ;
#1154 = DIRECTION ( 'NONE',  ( 0.000000000000000000, 0.000000000000000000, -1.000000000000000000 ) ) ;
#1155 = CIRCLE ( 'NONE', #81, 4.500000000000000000 ) ;
#1156 = CARTESIAN_POINT ( 'NONE',  ( 2.500000000000000000, 2.988366945446580658, -3.316744767850920095 ) ) ;
#1157 = FACE_OUTER_BOUND ( 'NONE', #331, .T. ) ;
#1158 = CARTESIAN_POINT ( 'NONE',  ( 1.500000000000000000, 1.836970198721030181E-16, -2.674999999999999822 ) ) ;
#1159 = ORIENTED_EDGE ( 'NONE', *, *, #119, .F. ) ;
#1160 = CARTESIAN_POINT ( 'NONE',  ( -2.500000000000000000, 0.000000000000000000, 1.639999999999999902 ) ) ;
#1161 = DIRECTION ( 'NONE',  ( 1.000000000000000000, 0.000000000000000000, 0.000000000000000000 ) ) ;
#1162 = LINE ( 'NONE', #363, #53 ) ;
#1163 = DIRECTION ( 'NONE',  ( -1.000000000000000000, 0.000000000000000000, 0.000000000000000000 ) ) ;
#1164 = CARTESIAN_POINT ( 'NONE',  ( -2.500000000000000000, -3.741657386773939997, -2.640000000000000124 ) ) ;
#1165 = ORIENTED_EDGE ( 'NONE', *, *, #1295, .T. ) ;
#1166 = DIRECTION ( 'NONE',  ( 0.000000000000000000, 0.000000000000000000, -1.000000000000000000 ) ) ;
#1167 = DIRECTION ( 'NONE',  ( 0.000000000000000000, 1.000000000000000000, 0.000000000000000000 ) ) ;
#1168 = EDGE_CURVE ( 'NONE', #157, #125, #518, .T. ) ;
#1169 = DIRECTION ( 'NONE',  ( 0.000000000000000000, -1.000000000000000000, 0.000000000000000000 ) ) ;
#1170 = DIRECTION ( 'NONE',  ( 0.000000000000000000, 0.000000000000000000, -1.000000000000000000 ) ) ;
#1171 = CARTESIAN_POINT ( 'NONE',  ( -2.500000000000000000, -3.741657386773939997, -2.640000000000000124 ) ) ;
#1172 = FACE_OUTER_BOUND ( 'NONE', #439, .T. ) ;
#1173 = ORIENTED_EDGE ( 'NONE', *, *, #628, .T. ) ;
#1174 = LINE ( 'NONE', #667, #775 ) ;
#1175 = VECTOR ( 'NONE', #1039, 1000.000000000000000 ) ;
#1176 = AXIS2_PLACEMENT_3D ( 'NONE', #1190, #588, #85 ) ;
#1177 = CYLINDRICAL_SURFACE ( 'NONE', #1196, 2.500000000000000000 ) ;
#1178 = CARTESIAN_POINT ( 'NONE',  ( 5.510910596163090542E-16, 2.140000000000000124, 4.500000000000000000 ) ) ;
#1179 = CARTESIAN_POINT ( 'NONE',  ( 1.734723475976804925E-15, 0.000000000000000000, -3.140000000000000124 ) ) ;
#1180 = ORIENTED_EDGE ( 'NONE', *, *, #679, .F. ) ;
#1181 = DIRECTION ( 'NONE',  ( 0.000000000000000000, -1.000000000000000000, 0.000000000000000000 ) ) ;
#1182 = DIRECTION ( 'NONE',  ( 0.000000000000000000, 0.000000000000000000, -1.000000000000000000 ) ) ;
#1183 = CARTESIAN_POINT ( 'NONE',  ( 1.734723475976804925E-15, 0.000000000000000000, -3.140000000000000124 ) ) ;
#1184 = ADVANCED_FACE ( 'NONE', ( #111 ), #1103, .F. ) ;
#1185 = ORIENTED_EDGE ( 'NONE', *, *, #867, .T. ) ;
#1186 = CARTESIAN_POINT ( 'NONE',  ( 0.000000000000000000, 0.000000000000000000, -2.174999999999999822 ) ) ;
#1187 = DIRECTION ( 'NONE',  ( -0.000000000000000000, 1.000000000000000000, 0.000000000000000000 ) ) ;
#1188 = UNCERTAINTY_MEASURE_WITH_UNIT (LENGTH_MEASURE( 1.000000000000000082E-05 ), #1087, 'distance_accuracy_value', 'NONE');
#1189 = CARTESIAN_POINT ( 'NONE',  ( -2.500000000000000000, 3.699489829692734766, 2.674999999999999822 ) ) ;
#1190 = CARTESIAN_POINT ( 'NONE',  ( 0.000000000000000000, 0.000000000000000000, 2.674999999999999822 ) ) ;
#1191 = EDGE_CURVE ( 'NONE', #416, #1143, #604, .T. ) ;
#1192 = ORIENTED_EDGE ( 'NONE', *, *, #984, .F. ) ;
#1193 = VERTEX_POINT ( 'NONE', #478 ) ;
#1194 = CARTESIAN_POINT ( 'NONE',  ( 0.000000000000000000, 2.140000000000000124, 0.000000000000000000 ) ) ;
#1195 = AXIS2_PLACEMENT_3D ( 'NONE', #748, #26, #1030 ) ;
#1196 = AXIS2_PLACEMENT_3D ( 'NONE', #1271, #760, #349 ) ;
#1197 = DIRECTION ( 'NONE',  ( 0.000000000000000000, 0.000000000000000000, -1.000000000000000000 ) ) ;
#1198 = AXIS2_PLACEMENT_3D ( 'NONE', #725, #1133, #1035 ) ;
#1199 = AXIS2_PLACEMENT_3D ( 'NONE', #254, #1244, #1052 ) ;
#1200 = VERTEX_POINT ( 'NONE', #814 ) ;
#1201 = AXIS2_PLACEMENT_3D ( 'NONE', #338, #535, #924 ) ;
#1202 = ADVANCED_FACE ( 'NONE', ( #506 ), #906, .T. ) ;
#1203 = FACE_OUTER_BOUND ( 'NONE', #625, .T. ) ;
#1204 = ADVANCED_FACE ( 'NONE', ( #1213 ), #854, .F. ) ;
#1205 = ORIENTED_EDGE ( 'NONE', *, *, #474, .T. ) ;
#1206 = CARTESIAN_POINT ( 'NONE',  ( -1.500000000000000000, 0.000000000000000000, 2.674999999999999822 ) ) ;
#1207 = EDGE_CURVE ( 'NONE', #107, #521, #1279, .T. ) ;
#1208 = DIRECTION ( 'NONE',  ( 0.000000000000000000, -1.000000000000000000, 0.000000000000000000 ) ) ;
#1209 = EDGE_LOOP ( 'NONE', ( #1236, #1042, #1192, #544 ) ) ;
#1210 = FACE_OUTER_BOUND ( 'NONE', #182, .T. ) ;
#1211 = EDGE_CURVE ( 'NONE', #1200, #1111, #708, .T. ) ;
#1212 = FILL_AREA_STYLE_COLOUR ( '', #102 ) ;
#1213 = FACE_OUTER_BOUND ( 'NONE', #666, .T. ) ;
#1214 = ORIENTED_EDGE ( 'NONE', *, *, #23, .F. ) ;
#1215 = PRESENTATION_LAYER_ASSIGNMENT (  '', '', ( #1050 ) ) ;
#1216 = CIRCLE ( 'NONE', #641, 4.500000000000000000 ) ;
#1217 = ORIENTED_EDGE ( 'NONE', *, *, #799, .F. ) ;
#1218 = VECTOR ( 'NONE', #892, 1000.000000000000000 ) ;
#1219 = DIRECTION ( 'NONE',  ( 0.000000000000000000, 0.000000000000000000, -1.000000000000000000 ) ) ;
#1220 = B_SPLINE_CURVE_WITH_KNOTS ( 'NONE', 3,
 ( #982, #1291, #252, #806 ),
 .UNSPECIFIED., .F., .F.,
 ( 4, 4 ),
 ( 0.000000000000000000, 1.000000000000000000 ),
 .UNSPECIFIED. ) ;
#1221 = DIRECTION ( 'NONE',  ( 0.000000000000000000, 0.000000000000000000, 1.000000000000000000 ) ) ;
#1222 = VERTEX_POINT ( 'NONE', #493 ) ;
#1223 = EDGE_CURVE ( 'NONE', #360, #125, #156, .T. ) ;
#1224 = ORIENTED_EDGE ( 'NONE', *, *, #599, .T. ) ;
#1225 = DIRECTION ( 'NONE',  ( 0.000000000000000000, 0.000000000000000000, 1.000000000000000000 ) ) ;
#1226 = CARTESIAN_POINT ( 'NONE',  ( 1.734723475976804925E-15, 0.000000000000000000, 1.639999999999999902 ) ) ;
#1227 = DIRECTION ( 'NONE',  ( 0.000000000000000000, -1.000000000000000000, 0.000000000000000000 ) ) ;
#1228 = FACE_OUTER_BOUND ( 'NONE', #1209, .T. ) ;
#1229 = EDGE_LOOP ( 'NONE', ( #695, #462 ) ) ;
#1230 = ADVANCED_FACE ( 'NONE', ( #1248 ), #1177, .F. ) ;
#1231 = ORIENTED_EDGE ( 'NONE', *, *, #221, .F. ) ;
#1232 = LINE ( 'NONE', #644, #426 ) ;
#1233 = PRODUCT_CONTEXT ( 'NONE', #711, 'mechanical' ) ;
#1234 = ORIENTED_EDGE ( 'NONE', *, *, #671, .T. ) ;
#1235 = STYLED_ITEM ( 'NONE', ( #730 ), #337 ) ;
#1236 = ORIENTED_EDGE ( 'NONE', *, *, #958, .F. ) ;
#1237 = TOROIDAL_SURFACE ( 'NONE', #164, 5.599999999999999645, 0.5000000000000000000 ) ;
#1238 = DIRECTION ( 'NONE',  ( 0.000000000000000000, -1.000000000000000000, 0.000000000000000000 ) ) ;
#1239 = ADVANCED_FACE ( 'NONE', ( #669 ), #1004, .T. ) ;
#1240 = EDGE_LOOP ( 'NONE', ( #418, #589, #463, #1036, #1224, #1026, #410, #1173, #1116, #727 ) ) ;
#1241 = ORIENTED_EDGE ( 'NONE', *, *, #945, .F. ) ;
#1242 = LINE ( 'NONE', #332, #516 ) ;
#1243 = EDGE_CURVE ( 'NONE', #1193, #726, #637, .T. ) ;
#1244 = DIRECTION ( 'NONE',  ( 0.000000000000000000, 1.000000000000000000, 0.000000000000000000 ) ) ;
#1245 = ORIENTED_EDGE ( 'NONE', *, *, #154, .T. ) ;
#1246 = PLANE ( 'NONE',  #34 ) ;
#1247 = VECTOR ( 'NONE', #1259, 1000.000000000000000 ) ;
#1248 = FACE_OUTER_BOUND ( 'NONE', #233, .T. ) ;
#1249 = CARTESIAN_POINT ( 'NONE',  ( -2.500000000000000000, 3.141000000000000014, -4.500000000000000000 ) ) ;
#1250 = DIRECTION ( 'NONE',  ( 0.000000000000000000, 0.000000000000000000, 1.000000000000000000 ) ) ;
#1251 = ORIENTED_EDGE ( 'NONE', *, *, #1033, .T. ) ;
#1252 = AXIS2_PLACEMENT_3D ( 'NONE', #59, #1221, #1097 ) ;
#1253 = CARTESIAN_POINT ( 'NONE',  ( -2.500000000000000000, -3.140000000000000124, 5.795304382052489384E-16 ) ) ;
#1254 = ITEM_DEFINED_TRANSFORMATION ( 'NONE', 'NONE', #734,  #307 ) ;
#1255 = DIRECTION ( 'NONE',  ( 1.000000000000000000, 0.000000000000000000, 0.000000000000000000 ) ) ;
#1256 = CIRCLE ( 'NONE', #1199, 2.500000000000000000 ) ;
#1257 = DIRECTION ( 'NONE',  ( 0.000000000000000000, 0.000000000000000000, 1.000000000000000000 ) ) ;
#1258 = CARTESIAN_POINT ( 'NONE',  ( 6.100000000000000533, 7.470345474798850348E-16, -2.174999999999999822 ) ) ;
#1259 = DIRECTION ( 'NONE',  ( 0.000000000000000000, 0.000000000000000000, -1.000000000000000000 ) ) ;
#1260 = ADVANCED_FACE ( 'NONE', ( #557 ), #253, .T. ) ;
#1261 = ORIENTED_EDGE ( 'NONE', *, *, #527, .T. ) ;
#1262 = LINE ( 'NONE', #650, #620 ) ;
#1263 = APPLICATION_PROTOCOL_DEFINITION ( 'draft international standard', 'automotive_design', 1998, #711 ) ;
#1264 =( NAMED_UNIT ( * ) SI_UNIT ( $, .STERADIAN. ) SOLID_ANGLE_UNIT ( ) );
#1265 = DIRECTION ( 'NONE',  ( -1.000000000000000000, 1.224646799147351482E-16, 0.000000000000000000 ) ) ;
#1266 = DIRECTION ( 'NONE',  ( 0.000000000000000000, 0.000000000000000000, 1.000000000000000000 ) ) ;
#1267 = VERTEX_POINT ( 'NONE', #855 ) ;
#1268 = EDGE_CURVE ( 'NONE', #1267, #144, #1162, .T. ) ;
#1269 = CARTESIAN_POINT ( 'NONE',  ( -2.500000000000000000, 2.140000000000000124, 0.000000000000000000 ) ) ;
#1270 = SURFACE_STYLE_FILL_AREA ( #864 ) ;
#1271 = CARTESIAN_POINT ( 'NONE',  ( 0.000000000000000000, 3.140000000000000124, 0.000000000000000000 ) ) ;
#1272 = VECTOR ( 'NONE', #563, 1000.000000000000000 ) ;
#1273 = CARTESIAN_POINT ( 'NONE',  ( 1.734723475976804925E-15, 0.000000000000000000, -2.640000000000000124 ) ) ;
#1274 = DIRECTION ( 'NONE',  ( 1.000000000000000000, 0.000000000000000000, 0.000000000000000000 ) ) ;
#1275 = ORIENTED_EDGE ( 'NONE', *, *, #728, .F. ) ;
#1276 = CARTESIAN_POINT ( 'NONE',  ( 5.599999999999999645, 0.000000000000000000, 2.674999999999999822 ) ) ;
#1277 = VECTOR ( 'NONE', #840, 1000.000000000000000 ) ;
#1278 =( NAMED_UNIT ( * ) PLANE_ANGLE_UNIT ( ) SI_UNIT ( $, .RADIAN. ) );
#1279 = CIRCLE ( 'NONE', #835, 4.500000000000000000 ) ;
#1280 = VECTOR ( 'NONE', #792, 1000.000000000000000 ) ;
#1281 = DIRECTION ( 'NONE',  ( 0.000000000000000000, -1.000000000000000000, 0.000000000000000000 ) ) ;
#1282 = CARTESIAN_POINT ( 'NONE',  ( 6.100000000000000533, 7.470345474798850348E-16, 2.674999999999999822 ) ) ;
#1283 = ORIENTED_EDGE ( 'NONE', *, *, #1059, .F. ) ;
#1284 = CARTESIAN_POINT ( 'NONE',  ( -2.500000000000000000, 0.000000000000000000, 2.674999999999999822 ) ) ;
#1285 = DIRECTION ( 'NONE',  ( 0.000000000000000000, -1.000000000000000000, 0.000000000000000000 ) ) ;
#1286 = CARTESIAN_POINT ( 'NONE',  ( -2.500000000000000000, -1.639999999999999902, -4.500000000000000000 ) ) ;
#1287 = ADVANCED_FACE ( 'NONE', ( #774 ), #1072, .F. ) ;
#1288 = CARTESIAN_POINT ( 'NONE',  ( 1.734723475976804925E-15, -4.500000000000000000, 2.640000000000000124 ) ) ;
#1289 = CARTESIAN_POINT ( 'NONE',  ( 0.000000000000000000, 2.640000000000000124, 0.000000000000000000 ) ) ;
#1290 = ORIENTED_EDGE ( 'NONE', *, *, #832, .F. ) ;
#1291 = CARTESIAN_POINT ( 'NONE',  ( 2.500000000000000000, -2.988366945446585987, 3.316744767850911657 ) ) ;
#1292 = CARTESIAN_POINT ( 'NONE',  ( 2.500000000000000000, 0.000000000000000000, -2.674999999999999822 ) ) ;
#1293 = PRESENTATION_STYLE_ASSIGNMENT (( #894 ) ) ;
#1294 = VERTEX_POINT ( 'NONE', #247 ) ;
#1295 = EDGE_CURVE ( 'NONE', #229, #144, #241, .T. ) ;
#1296 = AXIS2_PLACEMENT_3D ( 'NONE', #72, #1187, #482 ) ;
#1297 = DIRECTION ( 'NONE',  ( 0.000000000000000000, 0.000000000000000000, 1.000000000000000000 ) ) ;
#1298 = COLOUR_RGB ( '',0.7921568627450980005, 0.8196078431372548767, 0.9333333333333333481 ) ;
#1299 = MECHANICAL_DESIGN_GEOMETRIC_PRESENTATION_REPRESENTATION (  '', ( #1028 ), #935 ) ;
#1300 = VERTEX_POINT ( 'NONE', #1056 ) ;
#1301 = NEXT_ASSEMBLY_USAGE_OCCURRENCE ( 'NAUO1', ' ', ' ', #277, #1080, $ ) ;
#1302 = NEXT_ASSEMBLY_USAGE_OCCURRENCE ( 'NAUO2', ' ', ' ', #277, #790, $ ) ;
ENDSEC;
END-ISO-10303-21;
