ISO-10303-21;
HEADER;
FILE_DESCRIPTION (( 'STEP AP203' ),
    '1' );
FILE_NAME ('228-2500-125.step',
    '2022-06-06T19:03:43',
    ( '' ),
    ( '' ),
    'SwSTEP 2.0',
    'SolidWorks 2021',
    '' );
FILE_SCHEMA (( 'CONFIG_CONTROL_DESIGN' ));
ENDSEC;

DATA;
#1 = VERTEX_POINT ( 'NONE', #851 ) ;
#2 = DATE_AND_TIME ( #249, #336 ) ;
#3 = DIRECTION ( 'NONE',  ( -0.000000000000000000, -0.000000000000000000, -1.000000000000000000 ) ) ;
#4 = CARTESIAN_POINT ( 'NONE',  ( -4.000000000000000000, 4.898587196589412829E-16, -6.350999999999999979 ) ) ;
#5 = VERTEX_POINT ( 'NONE', #1005 ) ;
#6 = AXIS2_PLACEMENT_3D ( 'NONE', #617, #400, #530 ) ;
#7 = PERSON_AND_ORGANIZATION_ROLE ( 'classification_officer' ) ;
#8 = EDGE_CURVE ( 'NONE', #767, #650, #492, .T. ) ;
#9 = DIRECTION ( 'NONE',  ( 0.000000000000000000, 0.000000000000000000, 1.000000000000000000 ) ) ;
#10 = EDGE_LOOP ( 'NONE', ( #387, #586, #611, #749 ) ) ;
#11 = CC_DESIGN_SECURITY_CLASSIFICATION ( #254, ( #182 ) ) ;
#12 = CARTESIAN_POINT ( 'NONE',  ( -0.7206315775864664541, -3.174999999999999822, 5.138999999999997570 ) ) ;
#13 = CARTESIAN_POINT ( 'NONE',  ( -0.4282819678817709752, -2.057911970479199937, 2.353224001008317412 ) ) ;
#14 = ORIENTED_EDGE ( 'NONE', *, *, #587, .T. ) ;
#15 = PRODUCT_DEFINITION ( 'UNKNOWN', '', #182, #296 ) ;
#16 = CARTESIAN_POINT ( 'NONE',  ( -2.299999999999999822, 0.000000000000000000, 5.523072258617638397 ) ) ;
#17 = CARTESIAN_POINT ( 'NONE',  ( 0.6477403412507657388, 1.999113491775012852, 4.305849356269923156 ) ) ;
#18 = DIRECTION ( 'NONE',  ( 0.000000000000000000, 0.000000000000000000, 1.000000000000000000 ) ) ;
#19 = EDGE_LOOP ( 'NONE', ( #34, #498, #322, #271, #204, #75, #410, #472, #177, #494, #295, #720 ) ) ;
#20 = AXIS2_PLACEMENT_3D ( 'NONE', #598, #688, #773 ) ;
#21 = DIRECTION ( 'NONE',  ( 0.000000000000000000, 1.000000000000000000, 0.000000000000000000 ) ) ;
#22 =( BOUNDED_CURVE ( )  B_SPLINE_CURVE ( 3, ( #820, #332, #98, #968 ),
 .UNSPECIFIED., .F., .T. ) 
 B_SPLINE_CURVE_WITH_KNOTS ( ( 4, 4 ),
 ( 4.362112093716119077, 4.472917508490047211 ),
 .UNSPECIFIED. ) 
 CURVE ( )  GEOMETRIC_REPRESENTATION_ITEM ( )  RATIONAL_B_SPLINE_CURVE ( ( 1.000000000000000000, 0.9989771083553060649, 0.9989771083553060649, 1.000000000000000000 ) ) 
 REPRESENTATION_ITEM ( '' )  );
#23 = CARTESIAN_POINT ( 'NONE',  ( -0.3999999999999999667, -2.061552812808830293, 5.438999999999999169 ) ) ;
#24 = CARTESIAN_POINT ( 'NONE',  ( 0.4000000000000001887, -2.264950330581225746, 5.523072258617638397 ) ) ;
#25 = ORIENTED_EDGE ( 'NONE', *, *, #215, .F. ) ;
#26 = B_SPLINE_CURVE_WITH_KNOTS ( 'NONE', 3,
 ( #1030, #216, #376, #305, #952, #699, #132, #663, #850, #116 ),
 .UNSPECIFIED., .F., .F.,
 ( 4, 2, 2, 2, 4 ),
 ( 0.000000000000000000, 0.0003704147845104410470, 0.0007408295690208820941, 0.001111244353531323087, 0.001481659138041764188 ),
 .UNSPECIFIED. ) ;
#27 = EDGE_CURVE ( 'NONE', #891, #955, #704, .T. ) ;
#28 = DIRECTION ( 'NONE',  ( -1.000000000000000000, 0.000000000000000000, 0.000000000000000000 ) ) ;
#29 = CARTESIAN_POINT ( 'NONE',  ( 0.4000000000000001887, 2.061552812808830293, 5.438999999999999169 ) ) ;
#30 = AXIS2_PLACEMENT_3D ( 'NONE', #113, #200, #125 ) ;
#31 = ADVANCED_FACE ( 'NONE', ( #1043 ), #395, .T. ) ;
#32 = CARTESIAN_POINT ( 'NONE',  ( 0.4980973490458738828, -2.040073290564207831, 2.595422128626172054 ) ) ;
#33 = ORIENTED_EDGE ( 'NONE', *, *, #938, .T. ) ;
#34 = ORIENTED_EDGE ( 'NONE', *, *, #64, .F. ) ;
#35 = CARTESIAN_POINT ( 'NONE',  ( 0.000000000000000000, 0.000000000000000000, 5.523072258617638397 ) ) ;
#36 = CARTESIAN_POINT ( 'NONE',  ( -2.100000000000000089, 0.000000000000000000, 5.438999999999999169 ) ) ;
#37 = CARTESIAN_POINT ( 'NONE',  ( 0.4000000000000000222, -2.197165961088449748, 5.495012551953919022 ) ) ;
#38 = ORIENTED_EDGE ( 'NONE', *, *, #734, .F. ) ;
#39 = VERTEX_POINT ( 'NONE', #1038 ) ;
#40 = EDGE_CURVE ( 'NONE', #670, #514, #627, .T. ) ;
#41 = CARTESIAN_POINT ( 'NONE',  ( -0.4980973490458723840, -2.040073290564207831, 2.595422128626172054 ) ) ;
#42 = DIRECTION ( 'NONE',  ( 0.000000000000000000, 0.000000000000000000, 1.000000000000000000 ) ) ;
#43 = AXIS2_PLACEMENT_3D ( 'NONE', #1013, #42, #270 ) ;
#44 = ORIENTED_EDGE ( 'NONE', *, *, #651, .T. ) ;
#45 = EDGE_LOOP ( 'NONE', ( #312, #56, #460, #290 ) ) ;
#46 = PRODUCT_DEFINITION_SHAPE ( 'NONE', 'NONE',  #15 ) ;
#47 = APPLICATION_PROTOCOL_DEFINITION ( 'international standard', 'config_control_design', 1994, #184 ) ;
#48 = DIRECTION ( 'NONE',  ( -0.000000000000000000, -0.000000000000000000, 1.000000000000000000 ) ) ;
#49 = CARTESIAN_POINT ( 'NONE',  ( -3.174999999999999822, 0.000000000000000000, 0.8890000000000009006 ) ) ;
#50 = VERTEX_POINT ( 'NONE', #542 ) ;
#51 = VERTEX_POINT ( 'NONE', #1028 ) ;
#52 = CARTESIAN_POINT ( 'NONE',  ( 2.100000000000000089, 2.571758278209441957E-16, 5.438999999999999169 ) ) ;
#53 = DIRECTION ( 'NONE',  ( 0.000000000000000000, 0.000000000000000000, 1.000000000000000000 ) ) ;
#54 = DIRECTION ( 'NONE',  ( 0.000000000000000000, 0.000000000000000000, 1.000000000000000000 ) ) ;
#55 = CARTESIAN_POINT ( 'NONE',  ( 0.000000000000000000, 0.000000000000000000, 5.438999999999999169 ) ) ;
#56 = ORIENTED_EDGE ( 'NONE', *, *, #135, .T. ) ;
#57 = CARTESIAN_POINT ( 'NONE',  ( 0.4000000000000001887, 2.061552812808830737, 5.438999999999999169 ) ) ;
#58 = DIRECTION ( 'NONE',  ( -1.000000000000000000, 0.000000000000000000, 0.000000000000000000 ) ) ;
#59 = CARTESIAN_POINT ( 'NONE',  ( 0.4000000000000001887, -1.636557294430225129, 6.138999999999999346 ) ) ;
#60 = VECTOR ( 'NONE', #722, 1000.000000000000000 ) ;
#61 = ADVANCED_FACE ( 'NONE', ( #379 ), #526, .T. ) ;
#62 = CARTESIAN_POINT ( 'NONE',  ( 0.1236690215010813193, -2.099990463092003878, 2.139040055015564601 ) ) ;
#63 = CIRCLE ( 'NONE', #279, 2.279484136000458516 ) ;
#64 = EDGE_CURVE ( 'NONE', #140, #771, #443, .T. ) ;
#65 = ORIENTED_EDGE ( 'NONE', *, *, #123, .T. ) ;
#66 =( NAMED_UNIT ( * ) PLANE_ANGLE_UNIT ( ) SI_UNIT ( $, .RADIAN. ) );
#67 = DIRECTION ( 'NONE',  ( 1.000000000000000000, 0.000000000000000000, 0.000000000000000000 ) ) ;
#68 = CARTESIAN_POINT ( 'NONE',  ( 0.000000000000000000, 0.000000000000000000, 5.139000000000004675 ) ) ;
#69 = ADVANCED_FACE ( 'NONE', ( #213 ), #454, .T. ) ;
#70 = VERTEX_POINT ( 'NONE', #948 ) ;
#71 = VECTOR ( 'NONE', #1036, 1000.000000000000000 ) ;
#72 = EDGE_CURVE ( 'NONE', #39, #822, #1027, .T. ) ;
#73 = DIRECTION ( 'NONE',  ( 1.000000000000000000, 0.000000000000000000, 8.115498896123205041E-15 ) ) ;
#74 = CARTESIAN_POINT ( 'NONE',  ( 0.4000000000000001887, 2.264950330581225302, 5.523072258617638397 ) ) ;
#75 = ORIENTED_EDGE ( 'NONE', *, *, #734, .T. ) ;
#76 = ADVANCED_FACE ( 'NONE', ( #782 ), #882, .T. ) ;
#77 = DIRECTION ( 'NONE',  ( 1.000000000000000000, 0.000000000000000000, 0.000000000000000000 ) ) ;
#78 = DIRECTION ( 'NONE',  ( -1.000000000000000000, 0.000000000000000000, 0.000000000000000000 ) ) ;
#79 = VECTOR ( 'NONE', #446, 1000.000000000000000 ) ;
#80 = ORIENTED_EDGE ( 'NONE', *, *, #521, .F. ) ;
#81 = CIRCLE ( 'NONE', #462, 2.100000000000000089 ) ;
#82 = AXIS2_PLACEMENT_3D ( 'NONE', #203, #18, #430 ) ;
#83 = DIRECTION ( 'NONE',  ( -0.9961946980917461003, 0.000000000000000000, -0.08715574274765176821 ) ) ;
#84 = CARTESIAN_POINT ( 'NONE',  ( -0.3999999999999999667, 2.061552812808830293, 5.438999999999999169 ) ) ;
#85 = B_SPLINE_CURVE_WITH_KNOTS ( 'NONE', 3,
 ( #564, #201, #190, #23 ),
 .UNSPECIFIED., .F., .F.,
 ( 4, 4 ),
 ( 0.003029541235337105884, 0.003249628748158705192 ),
 .UNSPECIFIED. ) ;
#86 = VERTEX_POINT ( 'NONE', #154 ) ;
#87 = AXIS2_PLACEMENT_3D ( 'NONE', #575, #906, #747 ) ;
#88 = CALENDAR_DATE ( 2022, 6, 6 ) ;
#89 = CARTESIAN_POINT ( 'NONE',  ( 0.000000000000000000, 0.000000000000000000, 5.339000000000000412 ) ) ;
#90 = DIRECTION ( 'NONE',  ( -1.000000000000000000, 0.000000000000000000, 0.000000000000000000 ) ) ;
#91 = ORIENTED_EDGE ( 'NONE', *, *, #436, .F. ) ;
#92 = FACE_OUTER_BOUND ( 'NONE', #340, .T. ) ;
#93 = FACE_OUTER_BOUND ( 'NONE', #911, .T. ) ;
#94 = EDGE_LOOP ( 'NONE', ( #406, #741, #976, #631 ) ) ;
#95 = ORIENTED_EDGE ( 'NONE', *, *, #415, .T. ) ;
#96 = CLOSED_SHELL ( 'NONE', ( #975, #1054, #740, #556, #844, #592, #796, #772, #31, #1035, #76, #625, #61, #69, #550, #678, #404, #824, #256, #930, #285, #606, #331, #222, #444, #780, #636, #465, #294, #231, #188 ) ) ;
#97 = CIRCLE ( 'NONE', #82, 4.000000000000000000 ) ;
#98 = CARTESIAN_POINT ( 'NONE',  ( -0.5734863112436878740, 2.021666578221208432, 3.457121909598164233 ) ) ;
#99 = CARTESIAN_POINT ( 'NONE',  ( -0.3999999999999999667, 2.264950330581225302, 5.523072258617638397 ) ) ;
#100 = ORIENTED_EDGE ( 'NONE', *, *, #483, .T. ) ;
#101 = EDGE_CURVE ( 'NONE', #140, #172, #391, .T. ) ;
#102 = CARTESIAN_POINT ( 'NONE',  ( -4.000000000000000000, 0.000000000000000000, 0.000000000000000000 ) ) ;
#103 = CARTESIAN_POINT ( 'NONE',  ( 0.4980973490458738828, 2.040073290564206943, 2.595422128626172054 ) ) ;
#104 = ORIENTED_EDGE ( 'NONE', *, *, #471, .F. ) ;
#105 = B_SPLINE_CURVE_WITH_KNOTS ( 'NONE', 3,
 ( #282, #830, #759, #29 ),
 .UNSPECIFIED., .F., .F.,
 ( 4, 4 ),
 ( 0.003029541235337106318, 0.003249628748158706060 ),
 .UNSPECIFIED. ) ;
#106 = DIRECTION ( 'NONE',  ( -0.000000000000000000, 0.000000000000000000, 1.000000000000000000 ) ) ;
#107 = EDGE_CURVE ( 'NONE', #186, #551, #942, .T. ) ;
#108 = DIRECTION ( 'NONE',  ( 1.000000000000000000, 0.000000000000000000, 0.000000000000000000 ) ) ;
#109 = VERTEX_POINT ( 'NONE', #302 ) ;
#110 = ORIENTED_EDGE ( 'NONE', *, *, #922, .F. ) ;
#111 = VECTOR ( 'NONE', #693, 1000.000000000000000 ) ;
#112 = CONICAL_SURFACE ( 'NONE', #859, 2.299999999999999822, 0.3141592653589760364 ) ;
#113 = CARTESIAN_POINT ( 'NONE',  ( 0.000000000000000000, 0.000000000000000000, -6.349999999999999645 ) ) ;
#114 = EDGE_CURVE ( 'NONE', #760, #275, #261, .T. ) ;
#115 = DIRECTION ( 'NONE',  ( -0.000000000000000000, -0.000000000000000000, -1.000000000000000000 ) ) ;
#116 = CARTESIAN_POINT ( 'NONE',  ( 0.4980973490458738828, 2.040073290564206943, 2.595422128626172054 ) ) ;
#117 = ORIENTED_EDGE ( 'NONE', *, *, #732, .F. ) ;
#118 = ORIENTED_EDGE ( 'NONE', *, *, #813, .F. ) ;
#119 = DIRECTION ( 'NONE',  ( -0.3090169943749442316, 0.000000000000000000, -0.9510565162951545304 ) ) ;
#120 = DIRECTION ( 'NONE',  ( -1.084202172485504434E-16, 0.000000000000000000, -1.000000000000000000 ) ) ;
#121 = DIRECTION ( 'NONE',  ( -0.000000000000000000, -0.000000000000000000, -1.000000000000000000 ) ) ;
#122 = DIRECTION ( 'NONE',  ( -0.000000000000000000, -0.000000000000000000, -1.000000000000000000 ) ) ;
#123 = EDGE_CURVE ( 'NONE', #5, #608, #788, .T. ) ;
#124 = ORIENTED_EDGE ( 'NONE', *, *, #473, .F. ) ;
#125 = DIRECTION ( 'NONE',  ( 1.000000000000000000, 0.000000000000000000, 0.000000000000000000 ) ) ;
#126 = CARTESIAN_POINT ( 'NONE',  ( 0.3999999999999999667, -3.174999999999999822, 5.139000000000001123 ) ) ;
#127 = CARTESIAN_POINT ( 'NONE',  ( -0.4980973490458723840, -2.040073290564207831, 2.595422128626172054 ) ) ;
#128 = ORIENTED_EDGE ( 'NONE', *, *, #668, .T. ) ;
#129 = LINE ( 'NONE', #848, #79 ) ;
#130 = AXIS2_PLACEMENT_3D ( 'NONE', #226, #965, #475 ) ;
#131 = VECTOR ( 'NONE', #529, 1000.000000000000000 ) ;
#132 = CARTESIAN_POINT ( 'NONE',  ( 0.2470723783330723289, 2.087434397081523674, 2.187282604411544096 ) ) ;
#133 = ORIENTED_EDGE ( 'NONE', *, *, #686, .F. ) ;
#134 = ORIENTED_EDGE ( 'NONE', *, *, #786, .T. ) ;
#135 = EDGE_CURVE ( 'NONE', #543, #607, #886, .T. ) ;
#136 = DIRECTION ( 'NONE',  ( 0.000000000000000000, -0.000000000000000000, 1.000000000000000000 ) ) ;
#137 = CARTESIAN_POINT ( 'NONE',  ( 0.4000000000000001887, 0.000000000000000000, 6.138999999999998458 ) ) ;
#138 = CARTESIAN_POINT ( 'NONE',  ( 1.614999999999999991, -1.615000000000000213, -6.349999999999999645 ) ) ;
#139 = VECTOR ( 'NONE', #352, 1000.000000000000000 ) ;
#140 = VERTEX_POINT ( 'NONE', #1049 ) ;
#141 = COORDINATED_UNIVERSAL_TIME_OFFSET ( 6, 0, .BEHIND. ) ;
#142 = CARTESIAN_POINT ( 'NONE',  ( -3.174999999999999822, 0.000000000000000000, 0.8890000000000009006 ) ) ;
#143 = EDGE_CURVE ( 'NONE', #514, #537, #1018, .T. ) ;
#144 = LINE ( 'NONE', #463, #131 ) ;
#145 = CARTESIAN_POINT ( 'NONE',  ( 0.4286119346557879517, -2.057850353472996385, 2.353605336466520814 ) ) ;
#146 = ORIENTED_EDGE ( 'NONE', *, *, #8, .F. ) ;
#147 = CALENDAR_DATE ( 2022, 6, 6 ) ;
#148 = CARTESIAN_POINT ( 'NONE',  ( 0.4000000000000000222, -1.805457092722226653, 6.086801903958011017 ) ) ;
#149 = AXIS2_PLACEMENT_3D ( 'NONE', #55, #875, #78 ) ;
#150 = DIRECTION ( 'NONE',  ( 1.000000000000000000, 0.000000000000000000, 8.260587980841937794E-15 ) ) ;
#151 = ORIENTED_EDGE ( 'NONE', *, *, #377, .T. ) ;
#152 = CALENDAR_DATE ( 2022, 6, 6 ) ;
#153 = CARTESIAN_POINT ( 'NONE',  ( -1.614999999999999991, -1.615000000000000213, -0.8890000000000000124 ) ) ;
#154 = CARTESIAN_POINT ( 'NONE',  ( -0.3999999999999999667, 2.244114062671002774, 5.586213595499954110 ) ) ;
#155 = VECTOR ( 'NONE', #861, 1000.000000000000000 ) ;
#156 = VERTEX_POINT ( 'NONE', #821 ) ;
#157 = EDGE_CURVE ( 'NONE', #883, #888, #171, .T. ) ;
#158 = CARTESIAN_POINT ( 'NONE',  ( 0.4000000000000001887, -2.244114062671002330, 5.586213595499954110 ) ) ;
#159 = VERTEX_POINT ( 'NONE', #890 ) ;
#160 = CARTESIAN_POINT ( 'NONE',  ( -1.614999999999999991, 1.614999999999999769, -0.8890000000000000124 ) ) ;
#161 = AXIS2_PLACEMENT_3D ( 'NONE', #68, #230, #150 ) ;
#162 = EDGE_LOOP ( 'NONE', ( #260, #733, #803 ) ) ;
#163 = CIRCLE ( 'NONE', #565, 2.299999999999999822 ) ;
#164 = PERSON_AND_ORGANIZATION ( #538, #620 ) ;
#165 = LINE ( 'NONE', #160, #308 ) ;
#166 = FACE_OUTER_BOUND ( 'NONE', #783, .T. ) ;
#167 = EDGE_LOOP ( 'NONE', ( #624, #330, #14, #928 ) ) ;
#168 = CIRCLE ( 'NONE', #30, 4.000000000000000000 ) ;
#169 = APPROVAL_DATE_TIME ( #407, #361 ) ;
#170 = DIRECTION ( 'NONE',  ( -0.000000000000000000, -0.000000000000000000, -1.000000000000000000 ) ) ;
#171 = LINE ( 'NONE', #4, #329 ) ;
#172 = VERTEX_POINT ( 'NONE', #731 ) ;
#173 = CARTESIAN_POINT ( 'NONE',  ( 0.4000000000000001887, -2.244114062671002330, 5.586213595499954110 ) ) ;
#174 = CC_DESIGN_PERSON_AND_ORGANIZATION_ASSIGNMENT ( #729, #255, ( #182 ) ) ;
#175 = FACE_OUTER_BOUND ( 'NONE', #739, .T. ) ;
#176 = EDGE_CURVE ( 'NONE', #580, #955, #371, .T. ) ;
#177 = ORIENTED_EDGE ( 'NONE', *, *, #471, .T. ) ;
#178 = CIRCLE ( 'NONE', #298, 0.8000000000000003775 ) ;
#179 = DIRECTION ( 'NONE',  ( 0.9961946980917461003, 0.000000000000000000, -0.08715574274765176821 ) ) ;
#180 = DIRECTION ( 'NONE',  ( 1.000000000000000000, 0.000000000000000000, 0.000000000000000000 ) ) ;
#181 = VERTEX_POINT ( 'NONE', #578 ) ;
#182 = PRODUCT_DEFINITION_FORMATION_WITH_SPECIFIED_SOURCE ( 'ANY', '', #831, .NOT_KNOWN. ) ;
#183 = LINE ( 'NONE', #991, #671 ) ;
#184 = APPLICATION_CONTEXT ( 'configuration controlled 3d designs of mechanical parts and assemblies' ) ;
#185 = CARTESIAN_POINT ( 'NONE',  ( 1.614999999999999991, -1.615000000000000213, -6.349999999999999645 ) ) ;
#186 = VERTEX_POINT ( 'NONE', #568 ) ;
#187 = VERTEX_POINT ( 'NONE', #744 ) ;
#188 = ADVANCED_FACE ( 'NONE', ( #166 ), #342, .T. ) ;
#189 = CARTESIAN_POINT ( 'NONE',  ( 0.7206315775864680084, 1.972483239316684234, 5.138999999999997570 ) ) ;
#190 = CARTESIAN_POINT ( 'NONE',  ( -0.3999999999999999667, -2.129368206736822700, 5.466985055880803301 ) ) ;
#191 = EDGE_LOOP ( 'NONE', ( #664, #865, #335, #795 ) ) ;
#192 = VERTEX_POINT ( 'NONE', #252 ) ;
#193 = CIRCLE ( 'NONE', #426, 2.100000000000000089 ) ;
#194 = CARTESIAN_POINT ( 'NONE',  ( -2.299999999999999822, 0.000000000000000000, 5.523072258617638397 ) ) ;
#195 = FACE_OUTER_BOUND ( 'NONE', #612, .T. ) ;
#196 = EDGE_CURVE ( 'NONE', #522, #814, #924, .T. ) ;
#197 = CARTESIAN_POINT ( 'NONE',  ( -0.3999999999999999667, 1.465013371386852947, 6.138999999999998458 ) ) ;
#198 = VERTEX_POINT ( 'NONE', #812 ) ;
#199 = ORIENTED_EDGE ( 'NONE', *, *, #983, .F. ) ;
#200 = DIRECTION ( 'NONE',  ( 0.000000000000000000, -0.000000000000000000, -1.000000000000000000 ) ) ;
#201 = CARTESIAN_POINT ( 'NONE',  ( -0.3999999999999999667, -2.197165962000668493, 5.495012552331536071 ) ) ;
#202 = CIRCLE ( 'NONE', #552, 2.100000000000000089 ) ;
#203 = CARTESIAN_POINT ( 'NONE',  ( 0.000000000000000000, 0.000000000000000000, 0.000000000000000000 ) ) ;
#204 = ORIENTED_EDGE ( 'NONE', *, *, #415, .F. ) ;
#205 = PERSON_AND_ORGANIZATION ( #538, #620 ) ;
#206 = LINE ( 'NONE', #916, #413 ) ;
#207 = ORIENTED_EDGE ( 'NONE', *, *, #1001, .F. ) ;
#208 = COORDINATED_UNIVERSAL_TIME_OFFSET ( 6, 0, .BEHIND. ) ;
#209 = DIRECTION ( 'NONE',  ( -0.6802296901192332879, 0.000000000000000000, -0.7329990236557561989 ) ) ;
#210 = AXIS2_PLACEMENT_3D ( 'NONE', #218, #885, #708 ) ;
#211 = VECTOR ( 'NONE', #926, 1000.000000000000000 ) ;
#212 = CARTESIAN_POINT ( 'NONE',  ( 0.4000000000000001887, 2.190295370993047275, 5.749280358628697130 ) ) ;
#213 = FACE_OUTER_BOUND ( 'NONE', #162, .T. ) ;
#214 = ORIENTED_EDGE ( 'NONE', *, *, #27, .F. ) ;
#215 = EDGE_CURVE ( 'NONE', #974, #1029, #561, .T. ) ;
#216 = CARTESIAN_POINT ( 'NONE',  ( -0.4871798639138819054, 2.042738866564660416, 2.470634702552896744 ) ) ;
#217 = B_SPLINE_CURVE_WITH_KNOTS ( 'NONE', 3,
 ( #369, #940, #528, #540, #609, #869 ),
 .UNSPECIFIED., .F., .F.,
 ( 4, 2, 4 ),
 ( 0.000000000000000000, 0.0005075899518848832207, 0.001015179903769766875 ),
 .UNSPECIFIED. ) ;
#218 = CARTESIAN_POINT ( 'NONE',  ( 1.614999999999999991, -1.615000000000000213, -0.8890000000000000124 ) ) ;
#219 = CARTESIAN_POINT ( 'NONE',  ( 0.4871798639138836262, -2.042738866564660416, 2.470634702552897188 ) ) ;
#220 = CONICAL_SURFACE ( 'NONE', #691, 3.174999999999999822, 0.7480759457675709712 ) ;
#221 = ORIENTED_EDGE ( 'NONE', *, *, #40, .T. ) ;
#222 = ADVANCED_FACE ( 'NONE', ( #245 ), #268, .T. ) ;
#223 = PERSON_AND_ORGANIZATION ( #538, #620 ) ;
#224 = PLANE ( 'NONE',  #546 ) ;
#225 = DIRECTION ( 'NONE',  ( -0.000000000000000000, -0.000000000000000000, -1.000000000000000000 ) ) ;
#226 = CARTESIAN_POINT ( 'NONE',  ( 0.000000000000000000, 0.000000000000000000, 5.438999999999999169 ) ) ;
#227 = ORIENTED_EDGE ( 'NONE', *, *, #599, .T. ) ;
#228 = LINE ( 'NONE', #1024, #155 ) ;
#229 = DIRECTION ( 'NONE',  ( 0.000000000000000000, 0.000000000000000000, 1.000000000000000000 ) ) ;
#230 = DIRECTION ( 'NONE',  ( -8.115498896123205041E-15, 0.000000000000000000, 1.000000000000000000 ) ) ;
#231 = ADVANCED_FACE ( 'NONE', ( #497, #93 ), #644, .F. ) ;
#232 = AXIS2_PLACEMENT_3D ( 'NONE', #707, #779, #53 ) ;
#233 = ORIENTED_EDGE ( 'NONE', *, *, #40, .F. ) ;
#234 = B_SPLINE_CURVE_WITH_KNOTS ( 'NONE', 3,
 ( #652, #657, #987, #173 ),
 .UNSPECIFIED., .F., .F.,
 ( 4, 4 ),
 ( 0.002832913685900423535, 0.002899404085514991312 ),
 .UNSPECIFIED. ) ;
#235 = DATE_AND_TIME ( #560, #321 ) ;
#236 = DIRECTION ( 'NONE',  ( 0.000000000000000000, 0.000000000000000000, 1.000000000000000000 ) ) ;
#237 = CARTESIAN_POINT ( 'NONE',  ( 0.6477403412507656277, -1.999113491775012408, 4.305849356269923156 ) ) ;
#238 = AXIS2_PLACEMENT_3D ( 'NONE', #951, #544, #855 ) ;
#239 = ORIENTED_EDGE ( 'NONE', *, *, #310, .F. ) ;
#240 = CARTESIAN_POINT ( 'NONE',  ( -0.3999999999999999667, -1.465013371386852947, 6.138999999999998458 ) ) ;
#241 = LINE ( 'NONE', #573, #905 ) ;
#242 = EDGE_LOOP ( 'NONE', ( #531, #934, #918, #128 ) ) ;
#243 = DATE_TIME_ROLE ( 'classification_date' ) ;
#244 = CARTESIAN_POINT ( 'NONE',  ( -0.3999999999999999667, -2.244114062671030752, 5.586213595499871509 ) ) ;
#245 = FACE_OUTER_BOUND ( 'NONE', #191, .T. ) ;
#246 = AXIS2_PLACEMENT_3D ( 'NONE', #549, #701, #954 ) ;
#247 = ORIENTED_EDGE ( 'NONE', *, *, #702, .T. ) ;
#248 = EDGE_CURVE ( 'NONE', #50, #1029, #909, .T. ) ;
#249 = CALENDAR_DATE ( 2022, 6, 6 ) ;
#250 = EDGE_CURVE ( 'NONE', #670, #974, #241, .T. ) ;
#251 = CARTESIAN_POINT ( 'NONE',  ( 0.000000000000000000, 0.000000000000000000, 5.438999999999999169 ) ) ;
#252 = CARTESIAN_POINT ( 'NONE',  ( -1.615000000000000213, 1.615000000000000213, -6.349999999999999645 ) ) ;
#253 = VERTEX_POINT ( 'NONE', #417 ) ;
#254 = SECURITY_CLASSIFICATION ( '', '', #398 ) ;
#255 = PERSON_AND_ORGANIZATION_ROLE ( 'creator' ) ;
#256 = ADVANCED_FACE ( 'NONE', ( #175 ), #748, .F. ) ;
#257 = EDGE_CURVE ( 'NONE', #156, #974, #713, .T. ) ;
#258 = FACE_OUTER_BOUND ( 'NONE', #304, .T. ) ;
#259 = DIRECTION ( 'NONE',  ( -0.000000000000000000, 0.000000000000000000, 1.000000000000000000 ) ) ;
#260 = ORIENTED_EDGE ( 'NONE', *, *, #628, .F. ) ;
#261 = B_SPLINE_CURVE_WITH_KNOTS ( 'NONE', 3,
 ( #799, #469, #464, #74 ),
 .UNSPECIFIED., .F., .F.,
 ( 4, 4 ),
 ( 0.003692359630608450533, 0.003758849537120531516 ),
 .UNSPECIFIED. ) ;
#262 = CARTESIAN_POINT ( 'NONE',  ( -0.7206315775864664541, -1.972483239316685122, 5.138999999999997570 ) ) ;
#263 = CARTESIAN_POINT ( 'NONE',  ( -0.3999999999999999667, 2.061552812808830737, 5.438999999999999169 ) ) ;
#264 = CARTESIAN_POINT ( 'NONE',  ( -0.4980973490458723840, -2.040073290564207831, 2.595422128626172054 ) ) ;
#265 = ORIENTED_EDGE ( 'NONE', *, *, #157, .T. ) ;
#266 = EDGE_CURVE ( 'NONE', #455, #380, #85, .T. ) ;
#267 = ORIENTED_EDGE ( 'NONE', *, *, #702, .F. ) ;
#268 = CONICAL_SURFACE ( 'NONE', #579, 3.174999999999999822, 0.7480759457675709712 ) ;
#269 = CYLINDRICAL_SURFACE ( 'NONE', #845, 4.000000000000000000 ) ;
#270 = DIRECTION ( 'NONE',  ( 1.000000000000000000, 0.000000000000000000, 0.000000000000000000 ) ) ;
#271 = ORIENTED_EDGE ( 'NONE', *, *, #409, .F. ) ;
#272 = AXIS2_PLACEMENT_3D ( 'NONE', #692, #456, #935 ) ;
#273 = CARTESIAN_POINT ( 'NONE',  ( 0.000000000000000000, 0.000000000000000000, 0.8890000000000009006 ) ) ;
#274 = CARTESIAN_POINT ( 'NONE',  ( 0.000000000000000000, 0.000000000000000000, 0.8890000000000009006 ) ) ;
#275 = VERTEX_POINT ( 'NONE', #826 ) ;
#276 = FACE_OUTER_BOUND ( 'NONE', #476, .T. ) ;
#277 = CARTESIAN_POINT ( 'NONE',  ( 0.000000000000000000, 0.000000000000000000, 5.586213595499954110 ) ) ;
#278 = ORIENTED_EDGE ( 'NONE', *, *, #266, .T. ) ;
#279 = AXIS2_PLACEMENT_3D ( 'NONE', #378, #629, #458 ) ;
#280 = DIRECTION ( 'NONE',  ( -1.000000000000000000, 0.000000000000000000, -0.000000000000000000 ) ) ;
#281 = EDGE_CURVE ( 'NONE', #253, #380, #206, .T. ) ;
#282 = CARTESIAN_POINT ( 'NONE',  ( 0.4000000000000001887, 2.264950330581225302, 5.523072258617638397 ) ) ;
#283 = ORIENTED_EDGE ( 'NONE', *, *, #114, .T. ) ;
#284 = ORIENTED_EDGE ( 'NONE', *, *, #266, .F. ) ;
#285 = ADVANCED_FACE ( 'NONE', ( #440 ), #435, .F. ) ;
#286 = VECTOR ( 'NONE', #21, 1000.000000000000000 ) ;
#287 = DIRECTION ( 'NONE',  ( -0.000000000000000000, -0.000000000000000000, -1.000000000000000000 ) ) ;
#288 = DIRECTION ( 'NONE',  ( 1.000000000000000000, 1.776356839400250465E-15, 0.000000000000000000 ) ) ;
#289 = EDGE_LOOP ( 'NONE', ( #914, #655, #995, #466 ) ) ;
#290 = ORIENTED_EDGE ( 'NONE', *, *, #388, .T. ) ;
#291 =( LENGTH_UNIT ( ) NAMED_UNIT ( * ) SI_UNIT ( .MILLI., .METRE. ) );
#292 = CARTESIAN_POINT ( 'NONE',  ( -2.100000000000000089, 0.000000000000000000, 0.8890000000000009006 ) ) ;
#293 = CARTESIAN_POINT ( 'NONE',  ( 0.4000000000000000777, -2.084619459966333910, 5.890142440417392322 ) ) ;
#294 = ADVANCED_FACE ( 'NONE', ( #195 ), #997, .F. ) ;
#295 = ORIENTED_EDGE ( 'NONE', *, *, #215, .T. ) ;
#296 = DESIGN_CONTEXT ( 'detailed design', #1021, 'design' ) ;
#297 = DIRECTION ( 'NONE',  ( 8.115498896123167176E-15, 0.000000000000000000, 1.000000000000000000 ) ) ;
#298 = AXIS2_PLACEMENT_3D ( 'NONE', #936, #1003, #523 ) ;
#299 = DIRECTION ( 'NONE',  ( 1.000000000000000000, 0.000000000000000000, 0.000000000000000000 ) ) ;
#300 = AXIS2_PLACEMENT_3D ( 'NONE', #12, #83, #643 ) ;
#301 = DIRECTION ( 'NONE',  ( 0.000000000000000000, 0.000000000000000000, 1.000000000000000000 ) ) ;
#302 = CARTESIAN_POINT ( 'NONE',  ( 0.4000000000000001887, -2.244114062671002330, 5.586213595499954110 ) ) ;
#303 = EDGE_CURVE ( 'NONE', #608, #159, #680, .T. ) ;
#304 = EDGE_LOOP ( 'NONE', ( #618, #808, #506, #214 ) ) ;
#305 = CARTESIAN_POINT ( 'NONE',  ( -0.2470917478819843194, 2.087439085565598429, 2.187221323398956585 ) ) ;
#306 = CARTESIAN_POINT ( 'NONE',  ( 0.000000000000000000, 0.000000000000000000, 5.523072258617638397 ) ) ;
#307 = DIRECTION ( 'NONE',  ( 1.000000000000000000, 0.000000000000000000, 0.000000000000000000 ) ) ;
#308 = VECTOR ( 'NONE', #480, 1000.000000000000000 ) ;
#309 = EDGE_LOOP ( 'NONE', ( #334, #118, #828, #872 ) ) ;
#310 = EDGE_CURVE ( 'NONE', #275, #771, #105, .T. ) ;
#311 = CARTESIAN_POINT ( 'NONE',  ( 0.7206315775864680084, -1.972483239316684234, 5.138999999999997570 ) ) ;
#312 = ORIENTED_EDGE ( 'NONE', *, *, #904, .T. ) ;
#313 =( BOUNDED_CURVE ( )  B_SPLINE_CURVE ( 3, ( #41, #364, #1002, #262 ),
 .UNSPECIFIED., .F., .T. ) 
 B_SPLINE_CURVE_WITH_KNOTS ( ( 4, 4 ),
 ( 1.810267798689539021, 1.921073213463466933 ),
 .UNSPECIFIED. ) 
 CURVE ( )  GEOMETRIC_REPRESENTATION_ITEM ( )  RATIONAL_B_SPLINE_CURVE ( ( 1.000000000000000000, 0.9989771083553060649, 0.9989771083553060649, 1.000000000000000000 ) ) 
 REPRESENTATION_ITEM ( '' )  );
#314 = FACE_OUTER_BOUND ( 'NONE', #919, .T. ) ;
#315 = VECTOR ( 'NONE', #316, 1000.000000000000227 ) ;
#316 = DIRECTION ( 'NONE',  ( 0.9218631515885042926, 0.000000000000000000, 0.3875155864520939408 ) ) ;
#317 = ORIENTED_EDGE ( 'NONE', *, *, #370, .F. ) ;
#318 = EDGE_CURVE ( 'NONE', #818, #423, #81, .T. ) ;
#319 = DIRECTION ( 'NONE',  ( 1.000000000000000000, 0.000000000000000000, 0.000000000000000000 ) ) ;
#320 = DIRECTION ( 'NONE',  ( -1.000000000000000000, 0.000000000000000000, 0.000000000000000000 ) ) ;
#321 = LOCAL_TIME ( 14, 3, 43.00000000000000000, #1047 ) ;
#322 = ORIENTED_EDGE ( 'NONE', *, *, #318, .T. ) ;
#323 = CARTESIAN_POINT ( 'NONE',  ( 1.614999999999999991, 1.614999999999999769, -0.8890000000000000124 ) ) ;
#324 = DIRECTION ( 'NONE',  ( 1.000000000000000000, 0.000000000000000000, -8.115498896123167176E-15 ) ) ;
#325 = ORIENTED_EDGE ( 'NONE', *, *, #577, .T. ) ;
#326 = EDGE_CURVE ( 'NONE', #839, #51, #683, .T. ) ;
#327 = APPROVAL_ROLE ( '' ) ;
#328 = DIRECTION ( 'NONE',  ( 1.000000000000000000, 0.000000000000000000, 0.000000000000000000 ) ) ;
#329 = VECTOR ( 'NONE', #653, 1000.000000000000000 ) ;
#330 = ORIENTED_EDGE ( 'NONE', *, *, #893, .F. ) ;
#331 = ADVANCED_FACE ( 'NONE', ( #353 ), #382, .T. ) ;
#332 = CARTESIAN_POINT ( 'NONE',  ( -0.6477403412507650726, 1.999113491775012852, 4.305849356269930261 ) ) ;
#333 = CARTESIAN_POINT ( 'NONE',  ( -6.349999999999998757, -6.222999999999998977, -6.349999999999999645 ) ) ;
#334 = ORIENTED_EDGE ( 'NONE', *, *, #619, .T. ) ;
#335 = ORIENTED_EDGE ( 'NONE', *, *, #437, .T. ) ;
#336 = LOCAL_TIME ( 14, 3, 43.00000000000000000, #477 ) ;
#337 = EDGE_CURVE ( 'NONE', #455, #891, #613, .T. ) ;
#338 = DIRECTION ( 'NONE',  ( -0.000000000000000000, -0.000000000000000000, -1.000000000000000000 ) ) ;
#339 = CARTESIAN_POINT ( 'NONE',  ( 0.5734863112436885402, 2.021666578221208432, 3.457121909598158016 ) ) ;
#340 = EDGE_LOOP ( 'NONE', ( #284, #654, #642, #1011, #95, #227 ) ) ;
#341 = CARTESIAN_POINT ( 'NONE',  ( -0.7206315775864664541, -1.972483239316685122, 5.138999999999997570 ) ) ;
#342 = CYLINDRICAL_SURFACE ( 'NONE', #1045, 4.000000000000000000 ) ;
#343 = CARTESIAN_POINT ( 'NONE',  ( 0.4000000000000001887, -2.061552812808830293, 5.438999999999999169 ) ) ;
#344 = ORIENTED_EDGE ( 'NONE', *, *, #599, .F. ) ;
#345 = EDGE_LOOP ( 'NONE', ( #317, #728, #659, #524 ) ) ;
#346 = AXIS2_PLACEMENT_3D ( 'NONE', #917, #121, #288 ) ;
#347 = DIRECTION ( 'NONE',  ( 1.000000000000000000, 0.000000000000000000, 8.260587980841937794E-15 ) ) ;
#348 = DIRECTION ( 'NONE',  ( 1.000000000000000000, 0.000000000000000000, 0.000000000000000000 ) ) ;
#349 = CARTESIAN_POINT ( 'NONE',  ( -0.3999999999999999667, 2.258005787487189941, 5.544119660093905111 ) ) ;
#350 = EDGE_LOOP ( 'NONE', ( #939, #672, #520, #994 ) ) ;
#351 = CIRCLE ( 'NONE', #933, 2.100000000000000089 ) ;
#352 = DIRECTION ( 'NONE',  ( -0.000000000000000000, 1.000000000000000000, -0.000000000000000000 ) ) ;
#353 = FACE_OUTER_BOUND ( 'NONE', #345, .T. ) ;
#354 = ORIENTED_EDGE ( 'NONE', *, *, #281, .T. ) ;
#355 = ORIENTED_EDGE ( 'NONE', *, *, #1014, .F. ) ;
#356 = EDGE_CURVE ( 'NONE', #888, #70, #632, .T. ) ;
#357 = CARTESIAN_POINT ( 'NONE',  ( -1.614999999999999991, -1.615000000000000213, -6.349999999999999645 ) ) ;
#358 = DIRECTION ( 'NONE',  ( 0.000000000000000000, 1.000000000000000000, -0.000000000000000000 ) ) ;
#359 = FACE_OUTER_BOUND ( 'NONE', #167, .T. ) ;
#360 = EDGE_LOOP ( 'NONE', ( #133, #690, #584, #414, #146 ) ) ;
#361 = APPROVAL ( #797, 'UNSPECIFIED' ) ;
#362 = VECTOR ( 'NONE', #554, 1000.000000000000000 ) ;
#363 = AXIS2_PLACEMENT_3D ( 'NONE', #1010, #932, #73 ) ;
#364 = CARTESIAN_POINT ( 'NONE',  ( -0.5734863112436872079, -2.021666578221208432, 3.457121909598156240 ) ) ;
#365 = DIRECTION ( 'NONE',  ( 0.000000000000000000, 0.000000000000000000, 1.000000000000000000 ) ) ;
#366 = VERTEX_POINT ( 'NONE', #583 ) ;
#367 = FACE_OUTER_BOUND ( 'NONE', #684, .T. ) ;
#368 = VECTOR ( 'NONE', #532, 1000.000000000000000 ) ;
#369 = CARTESIAN_POINT ( 'NONE',  ( -0.3999999999999999667, 2.244114062671002774, 5.586213595499954110 ) ) ;
#370 = EDGE_CURVE ( 'NONE', #181, #839, #178, .T. ) ;
#371 = B_SPLINE_CURVE_WITH_KNOTS ( 'NONE', 3,
 ( #84, #658, #412, #99 ),
 .UNSPECIFIED., .F., .F.,
 ( 4, 4 ),
 ( 0.007647354141962973799, 0.007869202712918556275 ),
 .UNSPECIFIED. ) ;
#372 = CARTESIAN_POINT ( 'NONE',  ( 0.4000000000000001887, -1.465013371386852947, 6.138999999999998458 ) ) ;
#373 = ORIENTED_EDGE ( 'NONE', *, *, #248, .F. ) ;
#374 = ORIENTED_EDGE ( 'NONE', *, *, #656, .F. ) ;
#375 = APPLICATION_PROTOCOL_DEFINITION ( 'international standard', 'config_control_design', 1994, #1021 ) ;
#376 = CARTESIAN_POINT ( 'NONE',  ( -0.4286119346557866194, 2.057850353472996385, 2.353605336466521258 ) ) ;
#377 = EDGE_CURVE ( 'NONE', #760, #181, #647, .T. ) ;
#378 = CARTESIAN_POINT ( 'NONE',  ( 0.000000000000000000, 0.000000000000000000, 5.586213595499954110 ) ) ;
#379 = FACE_OUTER_BOUND ( 'NONE', #682, .T. ) ;
#380 = VERTEX_POINT ( 'NONE', #923 ) ;
#381 = FACE_BOUND ( 'NONE', #1039, .T. ) ;
#382 = TOROIDAL_SURFACE ( 'NONE', #20, 1.518638922964334226, 0.8000000000000000444 ) ;
#383 = PLANE ( 'NONE',  #232 ) ;
#384 = CIRCLE ( 'NONE', #943, 1.518638922964334226 ) ;
#385 = DIRECTION ( 'NONE',  ( 1.000000000000000000, 0.000000000000000000, 0.000000000000000000 ) ) ;
#386 = CARTESIAN_POINT ( 'NONE',  ( -0.1233449203368002373, -2.100009524403047223, 2.138959997505216926 ) ) ;
#387 = ORIENTED_EDGE ( 'NONE', *, *, #1050, .F. ) ;
#388 = EDGE_CURVE ( 'NONE', #366, #187, #129, .T. ) ;
#389 = DATE_TIME_ROLE ( 'creation_date' ) ;
#390 = LINE ( 'NONE', #137, #633 ) ;
#391 = LINE ( 'NONE', #719, #315 ) ;
#392 = AXIS2_PLACEMENT_3D ( 'NONE', #726, #978, #487 ) ;
#393 = ORIENTED_EDGE ( 'NONE', *, *, #64, .T. ) ;
#394 = CARTESIAN_POINT ( 'NONE',  ( 0.4000000000000001887, 1.465013371386852947, 6.138999999999998458 ) ) ;
#395 = PLANE ( 'NONE',  #6 ) ;
#396 = ORIENTED_EDGE ( 'NONE', *, *, #436, .T. ) ;
#397 = EDGE_CURVE ( 'NONE', #846, #70, #589, .T. ) ;
#398 = SECURITY_CLASSIFICATION_LEVEL ( 'unclassified' ) ;
#399 = CARTESIAN_POINT ( 'NONE',  ( 1.614999999999999991, -1.615000000000000213, -0.8890000000000000124 ) ) ;
#400 = DIRECTION ( 'NONE',  ( 0.000000000000000000, 0.000000000000000000, 1.000000000000000000 ) ) ;
#401 = ORIENTED_EDGE ( 'NONE', *, *, #628, .T. ) ;
#402 = CARTESIAN_POINT ( 'NONE',  ( -0.3999999999999999112, -2.083054853492928959, 5.891603799368007266 ) ) ;
#403 = CARTESIAN_POINT ( 'NONE',  ( 0.3999999999999999667, -3.174999999999999822, 5.139000000000001123 ) ) ;
#404 = ADVANCED_FACE ( 'NONE', ( #660 ), #992, .F. ) ;
#405 =( GEOMETRIC_REPRESENTATION_CONTEXT ( 3 ) GLOBAL_UNCERTAINTY_ASSIGNED_CONTEXT ( ( #697 ) ) GLOBAL_UNIT_ASSIGNED_CONTEXT ( ( #291, #66, #450 ) ) REPRESENTATION_CONTEXT ( 'NONE', 'WORKASPACE' ) );
#406 = ORIENTED_EDGE ( 'NONE', *, *, #303, .T. ) ;
#407 = DATE_AND_TIME ( #88, #1034 ) ;
#408 = CARTESIAN_POINT ( 'NONE',  ( 0.4000000000000001887, 2.061552812808830293, 5.438999999999999169 ) ) ;
#409 = EDGE_CURVE ( 'NONE', #800, #423, #835, .T. ) ;
#410 = ORIENTED_EDGE ( 'NONE', *, *, #72, .T. ) ;
#411 = FACE_OUTER_BOUND ( 'NONE', #723, .T. ) ;
#412 = CARTESIAN_POINT ( 'NONE',  ( -0.3999999999999999667, 2.197165961088449304, 5.495012551953918134 ) ) ;
#413 = VECTOR ( 'NONE', #365, 1000.000000000000000 ) ;
#414 = ORIENTED_EDGE ( 'NONE', *, *, #493, .F. ) ;
#415 = EDGE_CURVE ( 'NONE', #580, #800, #193, .T. ) ;
#416 = CARTESIAN_POINT ( 'NONE',  ( -0.4000000000000000222, -2.190295370993047719, 5.749280358628697130 ) ) ;
#417 = CARTESIAN_POINT ( 'NONE',  ( -0.3999999999999999667, -2.061552812808830293, 5.139000000000001123 ) ) ;
#418 = ORIENTED_EDGE ( 'NONE', *, *, #566, .T. ) ;
#419 = CONICAL_SURFACE ( 'NONE', #585, 2.100000000000000089, 1.172861257340199304 ) ;
#420 = EDGE_CURVE ( 'NONE', #607, #366, #534, .T. ) ;
#421 = FACE_OUTER_BOUND ( 'NONE', #19, .T. ) ;
#422 = EDGE_LOOP ( 'NONE', ( #396, #1000, #100, #1033 ) ) ;
#423 = VERTEX_POINT ( 'NONE', #292 ) ;
#424 = CARTESIAN_POINT ( 'NONE',  ( -0.7206315775864664541, 1.972483239316684234, 5.138999999999997570 ) ) ;
#425 = CARTESIAN_POINT ( 'NONE',  ( 6.505213034913026604E-16, -3.174999999999999822, 2.638999999999998902 ) ) ;
#426 = AXIS2_PLACEMENT_3D ( 'NONE', #518, #931, #299 ) ;
#427 = ORIENTED_EDGE ( 'NONE', *, *, #114, .F. ) ;
#428 = AXIS2_PLACEMENT_3D ( 'NONE', #946, #785, #58 ) ;
#429 = CYLINDRICAL_SURFACE ( 'NONE', #87, 2.100000000000000089 ) ;
#430 = DIRECTION ( 'NONE',  ( 1.000000000000000000, 0.000000000000000000, 0.000000000000000000 ) ) ;
#431 = EDGE_CURVE ( 'NONE', #86, #522, #217, .T. ) ;
#432 = ORIENTED_EDGE ( 'NONE', *, *, #250, .T. ) ;
#433 = LOCAL_TIME ( 14, 3, 43.00000000000000000, #141 ) ;
#434 = CARTESIAN_POINT ( 'NONE',  ( 2.100000000000000089, 2.571758278209441957E-16, 0.8890000000000009006 ) ) ;
#435 = PLANE ( 'NONE',  #545 ) ;
#436 = EDGE_CURVE ( 'NONE', #551, #186, #791, .T. ) ;
#437 = EDGE_CURVE ( 'NONE', #551, #888, #621, .T. ) ;
#438 = ORIENTED_EDGE ( 'NONE', *, *, #860, .F. ) ;
#439 = CARTESIAN_POINT ( 'NONE',  ( -0.3999999999999999667, 2.264950330581225302, 5.523072258617638397 ) ) ;
#440 = FACE_OUTER_BOUND ( 'NONE', #949, .T. ) ;
#441 = DIRECTION ( 'NONE',  ( 0.000000000000000000, 0.000000000000000000, 1.000000000000000000 ) ) ;
#442 = ORIENTED_EDGE ( 'NONE', *, *, #1001, .T. ) ;
#443 = CIRCLE ( 'NONE', #130, 2.100000000000000089 ) ;
#444 = ADVANCED_FACE ( 'NONE', ( #1025 ), #224, .F. ) ;
#445 = PERSON_AND_ORGANIZATION ( #538, #620 ) ;
#446 = DIRECTION ( 'NONE',  ( -1.000000000000000000, 0.000000000000000000, 0.000000000000000000 ) ) ;
#447 = DIRECTION ( 'NONE',  ( 1.000000000000000000, 0.000000000000000000, 0.000000000000000000 ) ) ;
#448 = ORIENTED_EDGE ( 'NONE', *, *, #431, .T. ) ;
#449 = ORIENTED_EDGE ( 'NONE', *, *, #511, .T. ) ;
#450 =( NAMED_UNIT ( * ) SI_UNIT ( $, .STERADIAN. ) SOLID_ANGLE_UNIT ( ) );
#451 = CC_DESIGN_APPROVAL ( #849, ( #254 ) ) ;
#452 = CARTESIAN_POINT ( 'NONE',  ( -0.3999999999999999667, -2.264950330581225746, 5.523072258617638397 ) ) ;
#453 = CARTESIAN_POINT ( 'NONE',  ( 1.614999999999999991, -1.615000000000000213, -6.349999999999999645 ) ) ;
#454 = PLANE ( 'NONE',  #595 ) ;
#455 = VERTEX_POINT ( 'NONE', #452 ) ;
#456 = DIRECTION ( 'NONE',  ( 0.000000000000000000, 0.000000000000000000, -1.000000000000000000 ) ) ;
#457 = FACE_OUTER_BOUND ( 'NONE', #242, .T. ) ;
#458 = DIRECTION ( 'NONE',  ( 1.000000000000000000, 0.000000000000000000, 0.000000000000000000 ) ) ;
#459 = DIRECTION ( 'NONE',  ( -0.000000000000000000, -0.000000000000000000, -1.000000000000000000 ) ) ;
#460 = ORIENTED_EDGE ( 'NONE', *, *, #420, .T. ) ;
#461 = DATE_AND_TIME ( #147, #433 ) ;
#462 = AXIS2_PLACEMENT_3D ( 'NONE', #274, #769, #842 ) ;
#463 = CARTESIAN_POINT ( 'NONE',  ( -0.7206315775864664541, -3.174999999999999822, 5.138999999999997570 ) ) ;
#464 = CARTESIAN_POINT ( 'NONE',  ( 0.4000000000000000222, 2.258005787487199267, 5.544119660093877577 ) ) ;
#465 = ADVANCED_FACE ( 'NONE', ( #457 ), #383, .F. ) ;
#466 = ORIENTED_EDGE ( 'NONE', *, *, #499, .F. ) ;
#467 = PERSON_AND_ORGANIZATION ( #538, #620 ) ;
#468 = CARTESIAN_POINT ( 'NONE',  ( 0.4000000000000000777, 1.636596142952232213, 6.138999999999998458 ) ) ;
#469 = CARTESIAN_POINT ( 'NONE',  ( 0.4000000000000000222, 2.251060372992385261, 5.565166775064911420 ) ) ;
#470 = APPROVAL_PERSON_ORGANIZATION ( #571, #849, #327 ) ;
#471 = EDGE_CURVE ( 'NONE', #1, #156, #26, .T. ) ;
#472 = ORIENTED_EDGE ( 'NONE', *, *, #813, .T. ) ;
#473 = EDGE_CURVE ( 'NONE', #877, #140, #925, .T. ) ;
#474 = DIRECTION ( 'NONE',  ( 0.000000000000000000, -0.000000000000000000, -1.000000000000000000 ) ) ;
#475 = DIRECTION ( 'NONE',  ( 1.000000000000000000, 0.000000000000000000, 0.000000000000000000 ) ) ;
#476 = EDGE_LOOP ( 'NONE', ( #775, #265, #823, #695 ) ) ;
#477 = COORDINATED_UNIVERSAL_TIME_OFFSET ( 6, 0, .BEHIND. ) ;
#478 = EDGE_CURVE ( 'NONE', #776, #839, #384, .T. ) ;
#479 = AXIS2_PLACEMENT_3D ( 'NONE', #488, #9, #485 ) ;
#480 = DIRECTION ( 'NONE',  ( -0.000000000000000000, -0.000000000000000000, -1.000000000000000000 ) ) ;
#481 = EDGE_LOOP ( 'NONE', ( #449, #448, #1017, #486, #134, #278, #637, #590, #38, #716 ) ) ;
#482 = APPROVAL_ROLE ( '' ) ;
#483 = EDGE_CURVE ( 'NONE', #70, #888, #97, .T. ) ;
#484 = CARTESIAN_POINT ( 'NONE',  ( -0.3999999999999999667, -2.244114062671030752, 5.586213595499871509 ) ) ;
#485 = DIRECTION ( 'NONE',  ( 1.000000000000000000, 0.000000000000000000, 0.000000000000000000 ) ) ;
#486 = ORIENTED_EDGE ( 'NONE', *, *, #686, .T. ) ;
#487 = DIRECTION ( 'NONE',  ( -1.000000000000000000, 0.000000000000000000, 0.000000000000000000 ) ) ;
#488 = CARTESIAN_POINT ( 'NONE',  ( 0.000000000000000000, 0.000000000000000000, 6.138999999999998458 ) ) ;
#489 = ORIENTED_EDGE ( 'NONE', *, *, #157, .F. ) ;
#490 = EDGE_CURVE ( 'NONE', #366, #608, #505, .T. ) ;
#491 = DIRECTION ( 'NONE',  ( 0.000000000000000000, 0.000000000000000000, -1.000000000000000000 ) ) ;
#492 = CIRCLE ( 'NONE', #959, 2.279484136000458516 ) ;
#493 = EDGE_CURVE ( 'NONE', #650, #86, #755, .T. ) ;
#494 = ORIENTED_EDGE ( 'NONE', *, *, #257, .T. ) ;
#495 = VECTOR ( 'NONE', #798, 1000.000000000000000 ) ;
#496 = CARTESIAN_POINT ( 'NONE',  ( 4.000000000000000000, 0.000000000000000000, -6.349999999999999645 ) ) ;
#497 = FACE_BOUND ( 'NONE', #10, .T. ) ;
#498 = ORIENTED_EDGE ( 'NONE', *, *, #983, .T. ) ;
#499 = EDGE_CURVE ( 'NONE', #877, #198, #900, .T. ) ;
#500 = PLANE ( 'NONE',  #896 ) ;
#501 = DIRECTION ( 'NONE',  ( -0.000000000000000000, -0.000000000000000000, -1.000000000000000000 ) ) ;
#502 = ORIENTED_EDGE ( 'NONE', *, *, #101, .F. ) ;
#503 = CARTESIAN_POINT ( 'NONE',  ( 0.4980973490458738828, -3.174999999999999822, 2.595422128626172054 ) ) ;
#504 = DIRECTION ( 'NONE',  ( 0.000000000000000000, 0.000000000000000000, 1.000000000000000000 ) ) ;
#505 = LINE ( 'NONE', #689, #563 ) ;
#506 = ORIENTED_EDGE ( 'NONE', *, *, #511, .F. ) ;
#507 = AXIS2_PLACEMENT_3D ( 'NONE', #277, #501, #108 ) ;
#508 = ORIENTED_EDGE ( 'NONE', *, *, #786, .F. ) ;
#509 = CIRCLE ( 'NONE', #805, 2.100000000000000089 ) ;
#510 = DIRECTION ( 'NONE',  ( 1.000000000000000000, 0.000000000000000000, 0.000000000000000000 ) ) ;
#511 = EDGE_CURVE ( 'NONE', #955, #86, #980, .T. ) ;
#512 = CARTESIAN_POINT ( 'NONE',  ( 1.614999999999999991, 1.614999999999999769, -0.8890000000000000124 ) ) ;
#513 = CARTESIAN_POINT ( 'NONE',  ( -1.614999999999999991, 1.614999999999999769, -0.8890000000000000124 ) ) ;
#514 = VERTEX_POINT ( 'NONE', #32 ) ;
#515 = ORIENTED_EDGE ( 'NONE', *, *, #876, .T. ) ;
#516 = CIRCLE ( 'NONE', #602, 2.299999999999999822 ) ;
#517 = CARTESIAN_POINT ( 'NONE',  ( 0.4000000000000001887, -2.061552812808830293, 5.438999999999999169 ) ) ;
#518 = CARTESIAN_POINT ( 'NONE',  ( 0.000000000000000000, 0.000000000000000000, 5.438999999999999169 ) ) ;
#519 = CARTESIAN_POINT ( 'NONE',  ( 0.4000000000000001887, -2.061552812808830293, 5.438999999999999169 ) ) ;
#520 = ORIENTED_EDGE ( 'NONE', *, *, #478, .F. ) ;
#521 = EDGE_CURVE ( 'NONE', #877, #50, #1004, .T. ) ;
#522 = VERTEX_POINT ( 'NONE', #197 ) ;
#523 = DIRECTION ( 'NONE',  ( 0.000000000000000000, 0.000000000000000000, -1.000000000000000000 ) ) ;
#524 = ORIENTED_EDGE ( 'NONE', *, *, #326, .F. ) ;
#525 = ORIENTED_EDGE ( 'NONE', *, *, #107, .F. ) ;
#526 = CONICAL_SURFACE ( 'NONE', #246, 2.299999999999999822, 0.3141592653589760364 ) ;
#527 = FACE_OUTER_BOUND ( 'NONE', #422, .T. ) ;
#528 = CARTESIAN_POINT ( 'NONE',  ( -0.4000000000000000222, 2.084619459966333466, 5.890142440417390546 ) ) ;
#529 = DIRECTION ( 'NONE',  ( -0.000000000000000000, 1.000000000000000000, -0.000000000000000000 ) ) ;
#530 = DIRECTION ( 'NONE',  ( 1.000000000000000000, 0.000000000000000000, -0.000000000000000000 ) ) ;
#531 = ORIENTED_EDGE ( 'NONE', *, *, #867, .T. ) ;
#532 = DIRECTION ( 'NONE',  ( 0.000000000000000000, 0.000000000000000000, 1.000000000000000000 ) ) ;
#533 = TOROIDAL_SURFACE ( 'NONE', #866, 1.518638922964334226, 0.8000000000000000444 ) ;
#534 = LINE ( 'NONE', #1020, #111 ) ;
#535 = CARTESIAN_POINT ( 'NONE',  ( 0.4000000000000000777, 1.804720025119730398, 6.086959004245602323 ) ) ;
#536 = DIRECTION ( 'NONE',  ( -0.000000000000000000, -0.000000000000000000, -1.000000000000000000 ) ) ;
#537 = VERTEX_POINT ( 'NONE', #127 ) ;
#538 = PERSON ( 'UNSPECIFIED', 'UNSPECIFIED', 'UNSPECIFIED', ('UNSPECIFIED'), ('UNSPECIFIED'), ('UNSPECIFIED') ) ;
#539 = CARTESIAN_POINT ( 'NONE',  ( 0.3999999999999999667, 2.061552812808831181, 5.139000000000001123 ) ) ;
#540 = CARTESIAN_POINT ( 'NONE',  ( -0.3999999999999998557, 1.805457092722225321, 6.086801903958009241 ) ) ;
#541 = CARTESIAN_POINT ( 'NONE',  ( 0.000000000000000000, 0.000000000000000000, 5.438999999999999169 ) ) ;
#542 = CARTESIAN_POINT ( 'NONE',  ( 0.3999999999999999667, -2.061552812808830293, 5.139000000000001123 ) ) ;
#543 = VERTEX_POINT ( 'NONE', #513 ) ;
#544 = DIRECTION ( 'NONE',  ( 0.000000000000000000, 0.000000000000000000, 1.000000000000000000 ) ) ;
#545 = AXIS2_PLACEMENT_3D ( 'NONE', #126, #913, #120 ) ;
#546 = AXIS2_PLACEMENT_3D ( 'NONE', #862, #136, #615 ) ;
#547 = CC_DESIGN_PERSON_AND_ORGANIZATION_ASSIGNMENT ( #223, #698, ( #15 ) ) ;
#548 = LINE ( 'NONE', #881, #1046 ) ;
#549 = CARTESIAN_POINT ( 'NONE',  ( 0.000000000000000000, 0.000000000000000000, 5.523072258617638397 ) ) ;
#550 = ADVANCED_FACE ( 'NONE', ( #359 ), #681, .F. ) ;
#551 = VERTEX_POINT ( 'NONE', #49 ) ;
#552 = AXIS2_PLACEMENT_3D ( 'NONE', #273, #679, #28 ) ;
#553 = FACE_OUTER_BOUND ( 'NONE', #94, .T. ) ;
#554 = DIRECTION ( 'NONE',  ( -0.000000000000000000, -1.000000000000000000, -0.000000000000000000 ) ) ;
#555 = ORIENTED_EDGE ( 'NONE', *, *, #920, .T. ) ;
#556 = ADVANCED_FACE ( 'NONE', ( #941 ), #685, .T. ) ;
#557 = CARTESIAN_POINT ( 'NONE',  ( -0.4871800118523818002, -2.042738830444500664, 2.470636393497685823 ) ) ;
#558 = ORIENTED_EDGE ( 'NONE', *, *, #318, .F. ) ;
#559 = CC_DESIGN_DATE_AND_TIME_ASSIGNMENT ( #2, #243, ( #254 ) ) ;
#560 = CALENDAR_DATE ( 2022, 6, 6 ) ;
#561 = CIRCLE ( 'NONE', #819, 2.100000000000000089 ) ;
#562 = CARTESIAN_POINT ( 'NONE',  ( -0.3999999999999999667, -2.251060372992385261, 5.565166775064911420 ) ) ;
#563 = VECTOR ( 'NONE', #669, 1000.000000000000000 ) ;
#564 = CARTESIAN_POINT ( 'NONE',  ( -0.3999999999999999667, -2.264950330581225746, 5.523072258617638397 ) ) ;
#565 = AXIS2_PLACEMENT_3D ( 'NONE', #907, #170, #743 ) ;
#566 = EDGE_CURVE ( 'NONE', #51, #760, #1016, .T. ) ;
#567 = CARTESIAN_POINT ( 'NONE',  ( -0.4000000000000000222, -1.804720025119730398, 6.086959004245602323 ) ) ;
#568 = CARTESIAN_POINT ( 'NONE',  ( 3.174999999999999822, 4.393420391941129948E-16, 0.8890000000000009006 ) ) ;
#569 = VECTOR ( 'NONE', #996, 1000.000000000000000 ) ;
#570 = ORIENTED_EDGE ( 'NONE', *, *, #257, .F. ) ;
#571 = PERSON_AND_ORGANIZATION ( #538, #620 ) ;
#572 = PLANE ( 'NONE',  #300 ) ;
#573 = CARTESIAN_POINT ( 'NONE',  ( 0.7206315775864680084, -3.174999999999999822, 5.138999999999997570 ) ) ;
#574 = ORIENTED_EDGE ( 'NONE', *, *, #817, .T. ) ;
#575 = CARTESIAN_POINT ( 'NONE',  ( 0.000000000000000000, 0.000000000000000000, 5.438999999999999169 ) ) ;
#576 = LINE ( 'NONE', #323, #757 ) ;
#577 = EDGE_CURVE ( 'NONE', #109, #776, #789, .T. ) ;
#578 = CARTESIAN_POINT ( 'NONE',  ( 2.279484136000458516, 0.000000000000000000, 5.586213595499954110 ) ) ;
#579 = AXIS2_PLACEMENT_3D ( 'NONE', #979, #816, #90 ) ;
#580 = VERTEX_POINT ( 'NONE', #1031 ) ;
#581 = CONICAL_SURFACE ( 'NONE', #614, 2.100000000000000089, 1.172861257340199304 ) ;
#582 = LINE ( 'NONE', #194, #603 ) ;
#583 = CARTESIAN_POINT ( 'NONE',  ( 1.614999999999999991, -1.615000000000000213, -0.8890000000000000124 ) ) ;
#584 = ORIENTED_EDGE ( 'NONE', *, *, #431, .F. ) ;
#585 = AXIS2_PLACEMENT_3D ( 'NONE', #251, #736, #319 ) ;
#586 = ORIENTED_EDGE ( 'NONE', *, *, #867, .F. ) ;
#587 = EDGE_CURVE ( 'NONE', #903, #822, #144, .T. ) ;
#588 = DIRECTION ( 'NONE',  ( 0.000000000000000000, 1.000000000000000000, 0.000000000000000000 ) ) ;
#589 = LINE ( 'NONE', #765, #661 ) ;
#590 = ORIENTED_EDGE ( 'NONE', *, *, #665, .T. ) ;
#591 = ORIENTED_EDGE ( 'NONE', *, *, #490, .F. ) ;
#592 = ADVANCED_FACE ( 'NONE', ( #314 ), #112, .T. ) ;
#593 = CARTESIAN_POINT ( 'NONE',  ( 0.000000000000000000, 0.000000000000000000, -6.350999999999999979 ) ) ;
#594 = DIRECTION ( 'NONE',  ( 0.000000000000000000, 0.000000000000000000, 1.000000000000000000 ) ) ;
#595 = AXIS2_PLACEMENT_3D ( 'NONE', #630, #802, #957 ) ;
#596 = ORIENTED_EDGE ( 'NONE', *, *, #619, .F. ) ;
#597 = CARTESIAN_POINT ( 'NONE',  ( 0.4980973490458738828, -3.174999999999999822, 2.595422128626172054 ) ) ;
#598 = CARTESIAN_POINT ( 'NONE',  ( 0.000000000000000000, 0.000000000000000000, 5.339000000000000412 ) ) ;
#599 = EDGE_CURVE ( 'NONE', #800, #380, #509, .T. ) ;
#600 = CARTESIAN_POINT ( 'NONE',  ( -0.3999999999999999667, 2.244114062671002774, 5.586213595499954110 ) ) ;
#601 = ORIENTED_EDGE ( 'NONE', *, *, #742, .F. ) ;
#602 = AXIS2_PLACEMENT_3D ( 'NONE', #35, #829, #666 ) ;
#603 = VECTOR ( 'NONE', #119, 1000.000000000000114 ) ;
#604 = DIRECTION ( 'NONE',  ( 1.000000000000000000, 0.000000000000000000, -8.260587980841937794E-15 ) ) ;
#605 = CARTESIAN_POINT ( 'NONE',  ( 0.000000000000000000, 0.000000000000000000, 0.000000000000000000 ) ) ;
#606 = ADVANCED_FACE ( 'NONE', ( #616 ), #705, .T. ) ;
#607 = VERTEX_POINT ( 'NONE', #610 ) ;
#608 = VERTEX_POINT ( 'NONE', #453 ) ;
#609 = CARTESIAN_POINT ( 'NONE',  ( -0.4000000000000001332, 1.636557294430225129, 6.139000000000001123 ) ) ;
#610 = CARTESIAN_POINT ( 'NONE',  ( 1.614999999999999991, 1.614999999999999769, -0.8890000000000000124 ) ) ;
#611 = ORIENTED_EDGE ( 'NONE', *, *, #303, .F. ) ;
#612 = EDGE_LOOP ( 'NONE', ( #910, #267, #1044, #574 ) ) ;
#613 = CIRCLE ( 'NONE', #662, 2.299999999999999822 ) ;
#614 = AXIS2_PLACEMENT_3D ( 'NONE', #718, #236, #385 ) ;
#615 = DIRECTION ( 'NONE',  ( 1.000000000000000000, 0.000000000000000000, -0.000000000000000000 ) ) ;
#616 = FACE_OUTER_BOUND ( 'NONE', #360, .T. ) ;
#617 = CARTESIAN_POINT ( 'NONE',  ( -2.099872945368625121, 0.000000000000000000, 6.138999999999998458 ) ) ;
#618 = ORIENTED_EDGE ( 'NONE', *, *, #876, .F. ) ;
#619 = EDGE_CURVE ( 'NONE', #537, #1, #634, .T. ) ;
#620 = ORGANIZATION ( 'UNSPECIFIED', 'UNSPECIFIED', '' ) ;
#621 = LINE ( 'NONE', #142, #837 ) ;
#622 = DIRECTION ( 'NONE',  ( -0.000000000000000000, 1.000000000000000000, -0.000000000000000000 ) ) ;
#623 = CARTESIAN_POINT ( 'NONE',  ( 0.5734863112436890953, -2.021666578221207988, 3.457121909598164233 ) ) ;
#624 = ORIENTED_EDGE ( 'NONE', *, *, #665, .F. ) ;
#625 = ADVANCED_FACE ( 'NONE', ( #947 ), #581, .T. ) ;
#626 = DIRECTION ( 'NONE',  ( -0.000000000000000000, -0.000000000000000000, -1.000000000000000000 ) ) ;
#627 =( BOUNDED_CURVE ( )  B_SPLINE_CURVE ( 3, ( #311, #237, #623, #635 ),
 .UNSPECIFIED., .F., .T. ) 
 B_SPLINE_CURVE_WITH_KNOTS ( ( 4, 4 ),
 ( 4.362112093716119077, 4.472917508490046323 ),
 .UNSPECIFIED. ) 
 CURVE ( )  GEOMETRIC_REPRESENTATION_ITEM ( )  RATIONAL_B_SPLINE_CURVE ( ( 1.000000000000000000, 0.9989771083553060649, 0.9989771083553060649, 1.000000000000000000 ) ) 
 REPRESENTATION_ITEM ( '' )  );
#628 = EDGE_CURVE ( 'NONE', #776, #51, #390, .T. ) ;
#629 = DIRECTION ( 'NONE',  ( -0.000000000000000000, -0.000000000000000000, -1.000000000000000000 ) ) ;
#630 = CARTESIAN_POINT ( 'NONE',  ( -2.099872945368625121, 0.000000000000000000, 6.138999999999998458 ) ) ;
#631 = ORIENTED_EDGE ( 'NONE', *, *, #490, .T. ) ;
#632 = CIRCLE ( 'NONE', #977, 4.000000000000000000 ) ;
#633 = VECTOR ( 'NONE', #964, 1000.000000000000000 ) ;
#634 = LINE ( 'NONE', #1026, #495 ) ;
#635 = CARTESIAN_POINT ( 'NONE',  ( 0.4980973490458738828, -2.040073290564207831, 2.595422128626172054 ) ) ;
#636 = ADVANCED_FACE ( 'NONE', ( #553 ), #714, .F. ) ;
#637 = ORIENTED_EDGE ( 'NONE', *, *, #281, .F. ) ;
#638 = SHAPE_DEFINITION_REPRESENTATION ( #46, #763 ) ;
#639 = LOCAL_TIME ( 14, 3, 43.00000000000000000, #208 ) ;
#640 = CARTESIAN_POINT ( 'NONE',  ( 0.000000000000000000, 0.000000000000000000, -6.349999999999999645 ) ) ;
#641 = CARTESIAN_POINT ( 'NONE',  ( 0.4980973490458738828, -2.040073290564207831, 2.595422128626172054 ) ) ;
#642 = ORIENTED_EDGE ( 'NONE', *, *, #27, .T. ) ;
#643 = DIRECTION ( 'NONE',  ( -0.08715574274765176821, 0.000000000000000000, 0.9961946980917461003 ) ) ;
#644 = PLANE ( 'NONE',  #857 ) ;
#645 = ORIENTED_EDGE ( 'NONE', *, *, #499, .T. ) ;
#646 = APPROVAL_DATE_TIME ( #235, #849 ) ;
#647 = CIRCLE ( 'NONE', #507, 2.279484136000458516 ) ;
#648 = CARTESIAN_POINT ( 'NONE',  ( 0.4000000000000001887, 2.244114062671030752, 5.586213595499871509 ) ) ;
#649 = DIRECTION ( 'NONE',  ( 8.115498896123167176E-15, 0.000000000000000000, 1.000000000000000000 ) ) ;
#650 = VERTEX_POINT ( 'NONE', #956 ) ;
#651 = EDGE_CURVE ( 'NONE', #181, #109, #63, .T. ) ;
#652 = CARTESIAN_POINT ( 'NONE',  ( 0.4000000000000001887, -2.264950330581225746, 5.523072258617638397 ) ) ;
#653 = DIRECTION ( 'NONE',  ( -0.000000000000000000, -0.000000000000000000, 1.000000000000000000 ) ) ;
#654 = ORIENTED_EDGE ( 'NONE', *, *, #337, .T. ) ;
#655 = ORIENTED_EDGE ( 'NONE', *, *, #101, .T. ) ;
#656 = EDGE_CURVE ( 'NONE', #522, #814, #774, .T. ) ;
#657 = CARTESIAN_POINT ( 'NONE',  ( 0.4000000000000000222, -2.258005787487189497, 5.544119660093905999 ) ) ;
#658 = CARTESIAN_POINT ( 'NONE',  ( -0.3999999999999999667, 2.129368205736810182, 5.466985055468133403 ) ) ;
#659 = ORIENTED_EDGE ( 'NONE', *, *, #566, .F. ) ;
#660 = FACE_OUTER_BOUND ( 'NONE', #986, .T. ) ;
#661 = VECTOR ( 'NONE', #48, 1000.000000000000000 ) ;
#662 = AXIS2_PLACEMENT_3D ( 'NONE', #674, #287, #856 ) ;
#663 = CARTESIAN_POINT ( 'NONE',  ( 0.4282819678817722520, 2.057911970479199049, 2.353224001008316524 ) ) ;
#664 = ORIENTED_EDGE ( 'NONE', *, *, #963, .F. ) ;
#665 = EDGE_CURVE ( 'NONE', #253, #39, #548, .T. ) ;
#666 = DIRECTION ( 'NONE',  ( -1.000000000000000000, 0.000000000000000000, 0.000000000000000000 ) ) ;
#667 = DIRECTION ( 'NONE',  ( -0.000000000000000000, 1.000000000000000000, -0.000000000000000000 ) ) ;
#668 = EDGE_CURVE ( 'NONE', #187, #159, #953, .T. ) ;
#669 = DIRECTION ( 'NONE',  ( -0.000000000000000000, -0.000000000000000000, -1.000000000000000000 ) ) ;
#670 = VERTEX_POINT ( 'NONE', #1053 ) ;
#671 = VECTOR ( 'NONE', #588, 1000.000000000000000 ) ;
#672 = ORIENTED_EDGE ( 'NONE', *, *, #370, .T. ) ;
#673 = CARTESIAN_POINT ( 'NONE',  ( 3.174999999999999822, 3.888253587292846081E-16, 0.8890000000000009006 ) ) ;
#674 = CARTESIAN_POINT ( 'NONE',  ( 0.000000000000000000, 0.000000000000000000, 5.523072258617638397 ) ) ;
#675 = CARTESIAN_POINT ( 'NONE',  ( -0.3999999999999999667, 2.264950330581225302, 5.523072258617638397 ) ) ;
#676 = ORIENTED_EDGE ( 'NONE', *, *, #717, .F. ) ;
#677 = EDGE_LOOP ( 'NONE', ( #199, #124, #746, #442, #221, #1006, #762, #854, #354, #344, #981, #899 ) ) ;
#678 = ADVANCED_FACE ( 'NONE', ( #984 ), #572, .F. ) ;
#679 = DIRECTION ( 'NONE',  ( -0.000000000000000000, -0.000000000000000000, 1.000000000000000000 ) ) ;
#680 = LINE ( 'NONE', #185, #804 ) ;
#681 = PLANE ( 'NONE',  #363 ) ;
#682 = EDGE_LOOP ( 'NONE', ( #427, #151, #44, #676, #117, #966 ) ) ;
#683 = CIRCLE ( 'NONE', #43, 1.518638922964334226 ) ;
#684 = EDGE_LOOP ( 'NONE', ( #91, #525 ) ) ;
#685 = CONICAL_SURFACE ( 'NONE', #960, 2.100000000000000089, 1.172861257340199304 ) ;
#686 = EDGE_CURVE ( 'NONE', #814, #767, #750, .T. ) ;
#687 = CARTESIAN_POINT ( 'NONE',  ( 1.518638922964334448, 0.000000000000000000, 6.138999999999998458 ) ) ;
#688 = DIRECTION ( 'NONE',  ( 0.000000000000000000, 0.000000000000000000, 1.000000000000000000 ) ) ;
#689 = CARTESIAN_POINT ( 'NONE',  ( 1.614999999999999991, -1.615000000000000213, -0.8890000000000000124 ) ) ;
#690 = ORIENTED_EDGE ( 'NONE', *, *, #196, .F. ) ;
#691 = AXIS2_PLACEMENT_3D ( 'NONE', #873, #626, #711 ) ;
#692 = CARTESIAN_POINT ( 'NONE',  ( 0.000000000000000000, 0.000000000000000000, 0.8890000000000009006 ) ) ;
#693 = DIRECTION ( 'NONE',  ( -0.000000000000000000, -1.000000000000000000, -0.000000000000000000 ) ) ;
#694 = CARTESIAN_POINT ( 'NONE',  ( -0.3999999999999999667, 0.000000000000000000, 6.138999999999998458 ) ) ;
#695 = ORIENTED_EDGE ( 'NONE', *, *, #397, .F. ) ;
#696 = ORIENTED_EDGE ( 'NONE', *, *, #248, .T. ) ;
#697 = UNCERTAINTY_MEASURE_WITH_UNIT (LENGTH_MEASURE( 1.000000000000000082E-05 ), #291, 'distance_accuracy_value', 'NONE');
#698 = PERSON_AND_ORGANIZATION_ROLE ( 'creator' ) ;
#699 = CARTESIAN_POINT ( 'NONE',  ( 0.1233449203368022079, 2.100009524403048111, 2.138959997505216926 ) ) ;
#700 = CARTESIAN_POINT ( 'NONE',  ( 0.4000000000000000222, 2.083054853492928515, 5.891603799368007266 ) ) ;
#701 = DIRECTION ( 'NONE',  ( -0.000000000000000000, -0.000000000000000000, -1.000000000000000000 ) ) ;
#702 = EDGE_CURVE ( 'NONE', #607, #5, #576, .T. ) ;
#703 = EDGE_LOOP ( 'NONE', ( #438, #233, #432, #570 ) ) ;
#704 = CIRCLE ( 'NONE', #990, 2.299999999999999822 ) ;
#705 = TOROIDAL_SURFACE ( 'NONE', #737, 1.518638922964334226, 0.8000000000000000444 ) ;
#706 = PLANE ( 'NONE',  #272 ) ;
#707 = CARTESIAN_POINT ( 'NONE',  ( -1.614999999999999991, -1.615000000000000213, -0.8890000000000000124 ) ) ;
#708 = DIRECTION ( 'NONE',  ( 0.000000000000000000, -0.000000000000000000, -1.000000000000000000 ) ) ;
#709 = CARTESIAN_POINT ( 'NONE',  ( -0.2470723783330709133, -2.087434397081524118, 2.187282604411544096 ) ) ;
#710 = ORIENTED_EDGE ( 'NONE', *, *, #742, .T. ) ;
#711 = DIRECTION ( 'NONE',  ( -1.000000000000000000, 0.000000000000000000, 0.000000000000000000 ) ) ;
#712 = CC_DESIGN_APPROVAL ( #361, ( #182 ) ) ;
#713 =( BOUNDED_CURVE ( )  B_SPLINE_CURVE ( 3, ( #103, #339, #17, #973 ),
 .UNSPECIFIED., .F., .T. ) 
 B_SPLINE_CURVE_WITH_KNOTS ( ( 4, 4 ),
 ( 1.810267798689539687, 1.921073213463467599 ),
 .UNSPECIFIED. ) 
 CURVE ( )  GEOMETRIC_REPRESENTATION_ITEM ( )  RATIONAL_B_SPLINE_CURVE ( ( 1.000000000000000000, 0.9989771083553060649, 0.9989771083553060649, 1.000000000000000000 ) ) 
 REPRESENTATION_ITEM ( '' )  );
#714 = PLANE ( 'NONE',  #210 ) ;
#715 = CARTESIAN_POINT ( 'NONE',  ( 0.000000000000000000, 0.000000000000000000, 5.523072258617638397 ) ) ;
#716 = ORIENTED_EDGE ( 'NONE', *, *, #176, .T. ) ;
#717 = EDGE_CURVE ( 'NONE', #198, #109, #234, .T. ) ;
#718 = CARTESIAN_POINT ( 'NONE',  ( 0.000000000000000000, 0.000000000000000000, 5.438999999999999169 ) ) ;
#719 = CARTESIAN_POINT ( 'NONE',  ( 2.100000000000000089, 0.000000000000000000, 5.438999999999999169 ) ) ;
#720 = ORIENTED_EDGE ( 'NONE', *, *, #1014, .T. ) ;
#721 = DIRECTION ( 'NONE',  ( 1.000000000000000000, 0.000000000000000000, 0.000000000000000000 ) ) ;
#722 = DIRECTION ( 'NONE',  ( 1.000000000000000000, -0.000000000000000000, -0.000000000000000000 ) ) ;
#723 = EDGE_LOOP ( 'NONE', ( #65, #591, #944, #247 ) ) ;
#724 = PERSON_AND_ORGANIZATION ( #538, #620 ) ;
#725 = AXIS2_PLACEMENT_3D ( 'NONE', #784, #297, #604 ) ;
#726 = CARTESIAN_POINT ( 'NONE',  ( 0.000000000000000000, 0.000000000000000000, 5.523072258617638397 ) ) ;
#727 = DIRECTION ( 'NONE',  ( -0.000000000000000000, 1.000000000000000000, -0.000000000000000000 ) ) ;
#728 = ORIENTED_EDGE ( 'NONE', *, *, #377, .F. ) ;
#729 = PERSON_AND_ORGANIZATION ( #538, #620 ) ;
#730 = CARTESIAN_POINT ( 'NONE',  ( -0.3999999999999999667, -1.636596142952232213, 6.138999999999998458 ) ) ;
#731 = CARTESIAN_POINT ( 'NONE',  ( 2.300000000000003819, 0.000000000000000000, 5.523072258617638397 ) ) ;
#732 = EDGE_CURVE ( 'NONE', #172, #198, #163, .T. ) ;
#733 = ORIENTED_EDGE ( 'NONE', *, *, #478, .T. ) ;
#734 = EDGE_CURVE ( 'NONE', #580, #39, #901, .T. ) ;
#735 = AXIS2_PLACEMENT_3D ( 'NONE', #871, #459, #320 ) ;
#736 = DIRECTION ( 'NONE',  ( 0.000000000000000000, 0.000000000000000000, 1.000000000000000000 ) ) ;
#737 = AXIS2_PLACEMENT_3D ( 'NONE', #781, #54, #67 ) ;
#738 = DIRECTION ( 'NONE',  ( -0.000000000000000000, -0.000000000000000000, 1.000000000000000000 ) ) ;
#739 = EDGE_LOOP ( 'NONE', ( #895, #207, #696, #25 ) ) ;
#740 = ADVANCED_FACE ( 'NONE', ( #806 ), #533, .T. ) ;
#741 = ORIENTED_EDGE ( 'NONE', *, *, #668, .F. ) ;
#742 = EDGE_CURVE ( 'NONE', #846, #883, #745, .T. ) ;
#743 = DIRECTION ( 'NONE',  ( -1.000000000000000000, 0.000000000000000000, 0.000000000000000000 ) ) ;
#744 = CARTESIAN_POINT ( 'NONE',  ( -1.614999999999999991, -1.615000000000000213, -0.8890000000000000124 ) ) ;
#745 = CIRCLE ( 'NONE', #950, 4.000000000000000000 ) ;
#746 = ORIENTED_EDGE ( 'NONE', *, *, #521, .T. ) ;
#747 = DIRECTION ( 'NONE',  ( -1.000000000000000000, 0.000000000000000000, 0.000000000000000000 ) ) ;
#748 = PLANE ( 'NONE',  #878 ) ;
#749 = ORIENTED_EDGE ( 'NONE', *, *, #123, .F. ) ;
#750 = B_SPLINE_CURVE_WITH_KNOTS ( 'NONE', 3,
 ( #811, #730, #567, #402, #416, #484 ),
 .UNSPECIFIED., .F., .F.,
 ( 4, 2, 4 ),
 ( 0.000000000000000000, 0.0005076236618905670015, 0.001015247323781134003 ),
 .UNSPECIFIED. ) ;
#751 = DIRECTION ( 'NONE',  ( -0.08715574274765176821, 0.000000000000000000, -0.9961946980917461003 ) ) ;
#752 = CC_DESIGN_PERSON_AND_ORGANIZATION_ASSIGNMENT ( #205, #778, ( #831 ) ) ;
#753 = DIRECTION ( 'NONE',  ( 0.000000000000000000, 0.000000000000000000, 1.000000000000000000 ) ) ;
#754 = AXIS2_PLACEMENT_3D ( 'NONE', #512, #358, #594 ) ;
#755 = CIRCLE ( 'NONE', #346, 2.279484136000458516 ) ;
#756 = CARTESIAN_POINT ( 'NONE',  ( 0.4000000000000000222, -2.129368205736811070, 5.466985055468133403 ) ) ;
#757 = VECTOR ( 'NONE', #338, 1000.000000000000000 ) ;
#758 = LINE ( 'NONE', #503, #139 ) ;
#759 = CARTESIAN_POINT ( 'NONE',  ( 0.4000000000000000222, 2.129368206736822255, 5.466985055880803301 ) ) ;
#760 = VERTEX_POINT ( 'NONE', #648 ) ;
#761 = CC_DESIGN_APPROVAL ( #887, ( #15 ) ) ;
#762 = ORIENTED_EDGE ( 'NONE', *, *, #971, .T. ) ;
#763 = ADVANCED_BREP_SHAPE_REPRESENTATION ( '228-2500-125', ( #962, #238 ), #405 ) ;
#764 = CARTESIAN_POINT ( 'NONE',  ( 0.000000000000000000, 0.000000000000000000, 5.139000000000004675 ) ) ;
#765 = CARTESIAN_POINT ( 'NONE',  ( 4.000000000000000000, 0.000000000000000000, -6.350999999999999979 ) ) ;
#766 = CARTESIAN_POINT ( 'NONE',  ( 0.000000000000000000, 0.000000000000000000, 6.138999999999998458 ) ) ;
#767 = VERTEX_POINT ( 'NONE', #897 ) ;
#768 = LINE ( 'NONE', #673, #569 ) ;
#769 = DIRECTION ( 'NONE',  ( -0.000000000000000000, -0.000000000000000000, 1.000000000000000000 ) ) ;
#770 = AXIS2_PLACEMENT_3D ( 'NONE', #425, #667, #504 ) ;
#771 = VERTEX_POINT ( 'NONE', #408 ) ;
#772 = ADVANCED_FACE ( 'NONE', ( #258 ), #810, .T. ) ;
#773 = DIRECTION ( 'NONE',  ( 1.000000000000000000, 0.000000000000000000, 0.000000000000000000 ) ) ;
#774 = LINE ( 'NONE', #694, #908 ) ;
#775 = ORIENTED_EDGE ( 'NONE', *, *, #938, .F. ) ;
#776 = VERTEX_POINT ( 'NONE', #972 ) ;
#777 = APPROVAL_PERSON_ORGANIZATION ( #467, #361, #482 ) ;
#778 = PERSON_AND_ORGANIZATION_ROLE ( 'design_owner' ) ;
#779 = DIRECTION ( 'NONE',  ( -1.000000000000000000, 0.000000000000000000, 0.000000000000000000 ) ) ;
#780 = ADVANCED_FACE ( 'NONE', ( #411 ), #815, .F. ) ;
#781 = CARTESIAN_POINT ( 'NONE',  ( 0.000000000000000000, 0.000000000000000000, 5.339000000000000412 ) ) ;
#782 = FACE_OUTER_BOUND ( 'NONE', #677, .T. ) ;
#783 = EDGE_LOOP ( 'NONE', ( #489, #601, #858, #1051 ) ) ;
#784 = CARTESIAN_POINT ( 'NONE',  ( 0.000000000000000000, 0.000000000000000000, 5.139000000000004675 ) ) ;
#785 = DIRECTION ( 'NONE',  ( -0.000000000000000000, -0.000000000000000000, -1.000000000000000000 ) ) ;
#786 = EDGE_CURVE ( 'NONE', #767, #455, #853, .T. ) ;
#787 = DIRECTION ( 'NONE',  ( -0.000000000000000000, -0.000000000000000000, -1.000000000000000000 ) ) ;
#788 = LINE ( 'NONE', #138, #362 ) ;
#789 = B_SPLINE_CURVE_WITH_KNOTS ( 'NONE', 3,
 ( #158, #874, #293, #148, #59, #372 ),
 .UNSPECIFIED., .F., .F.,
 ( 4, 2, 4 ),
 ( 0.000000000000000000, 0.0005075899518848834375, 0.001015179903769766875 ),
 .UNSPECIFIED. ) ;
#790 = ORIENTED_EDGE ( 'NONE', *, *, #143, .F. ) ;
#791 = CIRCLE ( 'NONE', #428, 3.174999999999999822 ) ;
#792 = APPROVAL_DATE_TIME ( #1012, #887 ) ;
#793 = DIRECTION ( 'NONE',  ( 1.000000000000000000, 0.000000000000000000, 0.000000000000000000 ) ) ;
#794 = DIRECTION ( 'NONE',  ( -1.000000000000000000, 0.000000000000000000, 0.000000000000000000 ) ) ;
#795 = ORIENTED_EDGE ( 'NONE', *, *, #356, .T. ) ;
#796 = ADVANCED_FACE ( 'NONE', ( #92 ), #419, .T. ) ;
#797 = APPROVAL_STATUS ( 'not_yet_approved' ) ;
#798 = DIRECTION ( 'NONE',  ( -0.000000000000000000, 1.000000000000000000, -0.000000000000000000 ) ) ;
#799 = CARTESIAN_POINT ( 'NONE',  ( 0.4000000000000001887, 2.244114062671030752, 5.586213595499871509 ) ) ;
#800 = VERTEX_POINT ( 'NONE', #889 ) ;
#801 = DIRECTION ( 'NONE',  ( 0.000000000000000000, 0.000000000000000000, 1.000000000000000000 ) ) ;
#802 = DIRECTION ( 'NONE',  ( 0.000000000000000000, 0.000000000000000000, 1.000000000000000000 ) ) ;
#803 = ORIENTED_EDGE ( 'NONE', *, *, #326, .T. ) ;
#804 = VECTOR ( 'NONE', #1008, 1000.000000000000000 ) ;
#805 = AXIS2_PLACEMENT_3D ( 'NONE', #863, #301, #793 ) ;
#806 = FACE_OUTER_BOUND ( 'NONE', #350, .T. ) ;
#807 = DIRECTION ( 'NONE',  ( 1.000000000000000000, 0.000000000000000000, 0.000000000000000000 ) ) ;
#808 = ORIENTED_EDGE ( 'NONE', *, *, #493, .T. ) ;
#809 = COORDINATED_UNIVERSAL_TIME_OFFSET ( 6, 0, .BEHIND. ) ;
#810 = CONICAL_SURFACE ( 'NONE', #392, 2.299999999999999822, 0.3141592653589760364 ) ;
#811 = CARTESIAN_POINT ( 'NONE',  ( -0.3999999999999999667, -1.465013371386852947, 6.138999999999998458 ) ) ;
#812 = CARTESIAN_POINT ( 'NONE',  ( 0.4000000000000001887, -2.264950330581225746, 5.523072258617638397 ) ) ;
#813 = EDGE_CURVE ( 'NONE', #822, #1, #22, .T. ) ;
#814 = VERTEX_POINT ( 'NONE', #240 ) ;
#815 = PLANE ( 'NONE',  #884 ) ;
#816 = DIRECTION ( 'NONE',  ( -0.000000000000000000, -0.000000000000000000, -1.000000000000000000 ) ) ;
#817 = EDGE_CURVE ( 'NONE', #543, #192, #165, .T. ) ;
#818 = VERTEX_POINT ( 'NONE', #434 ) ;
#819 = AXIS2_PLACEMENT_3D ( 'NONE', #898, #649, #985 ) ;
#820 = CARTESIAN_POINT ( 'NONE',  ( -0.7206315775864664541, 1.972483239316684234, 5.138999999999997570 ) ) ;
#821 = CARTESIAN_POINT ( 'NONE',  ( 0.4980973490458738828, 2.040073290564206943, 2.595422128626172054 ) ) ;
#822 = VERTEX_POINT ( 'NONE', #424 ) ;
#823 = ORIENTED_EDGE ( 'NONE', *, *, #483, .F. ) ;
#824 = ADVANCED_FACE ( 'NONE', ( #912 ), #929, .F. ) ;
#825 = LINE ( 'NONE', #357, #286 ) ;
#826 = CARTESIAN_POINT ( 'NONE',  ( 0.4000000000000001887, 2.264950330581225302, 5.523072258617638397 ) ) ;
#827 = APPROVAL_PERSON_ORGANIZATION ( #445, #887, #880 ) ;
#828 = ORIENTED_EDGE ( 'NONE', *, *, #587, .F. ) ;
#829 = DIRECTION ( 'NONE',  ( -0.000000000000000000, -0.000000000000000000, -1.000000000000000000 ) ) ;
#830 = CARTESIAN_POINT ( 'NONE',  ( 0.4000000000000000222, 2.197165962000668493, 5.495012552331536959 ) ) ;
#831 = PRODUCT ( '228-2500-125', '228-2500-125', '', ( #868 ) ) ;
#832 = DIRECTION ( 'NONE',  ( 0.000000000000000000, 0.000000000000000000, 1.000000000000000000 ) ) ;
#833 = ORIENTED_EDGE ( 'NONE', *, *, #337, .F. ) ;
#834 = CARTESIAN_POINT ( 'NONE',  ( -4.000000000000000000, 4.898587196589412829E-16, -6.349999999999999645 ) ) ;
#835 = LINE ( 'NONE', #36, #892 ) ;
#836 = VECTOR ( 'NONE', #727, 1000.000000000000000 ) ;
#837 = VECTOR ( 'NONE', #209, 1000.000000000000000 ) ;
#838 = DIRECTION ( 'NONE',  ( 1.000000000000000000, 0.000000000000000000, 0.000000000000000000 ) ) ;
#839 = VERTEX_POINT ( 'NONE', #687 ) ;
#840 = ORIENTED_EDGE ( 'NONE', *, *, #310, .T. ) ;
#841 = LINE ( 'NONE', #52, #71 ) ;
#842 = DIRECTION ( 'NONE',  ( -1.000000000000000000, 0.000000000000000000, 0.000000000000000000 ) ) ;
#843 = CARTESIAN_POINT ( 'NONE',  ( 0.000000000000000000, 0.000000000000000000, 5.586213595499954110 ) ) ;
#844 = ADVANCED_FACE ( 'NONE', ( #421 ), #429, .T. ) ;
#845 = AXIS2_PLACEMENT_3D ( 'NONE', #593, #921, #510 ) ;
#846 = VERTEX_POINT ( 'NONE', #496 ) ;
#847 = DIRECTION ( 'NONE',  ( -8.115498896123205041E-15, 0.000000000000000000, 1.000000000000000000 ) ) ;
#848 = CARTESIAN_POINT ( 'NONE',  ( 1.614999999999999991, -1.615000000000000213, -0.8890000000000000124 ) ) ;
#849 = APPROVAL ( #967, 'UNSPECIFIED' ) ;
#850 = CARTESIAN_POINT ( 'NONE',  ( 0.4871800118523835210, 2.042738830444499332, 2.470636393497685823 ) ) ;
#851 = CARTESIAN_POINT ( 'NONE',  ( -0.4980973490458723840, 2.040073290564207831, 2.595422128626172054 ) ) ;
#852 = CC_DESIGN_PERSON_AND_ORGANIZATION_ASSIGNMENT ( #724, #961, ( #182 ) ) ;
#853 = B_SPLINE_CURVE_WITH_KNOTS ( 'NONE', 3,
 ( #244, #562, #1048, #894 ),
 .UNSPECIFIED., .F., .F.,
 ( 4, 4 ),
 ( 0.003692359630608450533, 0.003758849537120531516 ),
 .UNSPECIFIED. ) ;
#854 = ORIENTED_EDGE ( 'NONE', *, *, #893, .T. ) ;
#855 = DIRECTION ( 'NONE',  ( 1.000000000000000000, 0.000000000000000000, 0.000000000000000000 ) ) ;
#856 = DIRECTION ( 'NONE',  ( -1.000000000000000000, 0.000000000000000000, 0.000000000000000000 ) ) ;
#857 = AXIS2_PLACEMENT_3D ( 'NONE', #333, #259, #180 ) ;
#858 = ORIENTED_EDGE ( 'NONE', *, *, #397, .T. ) ;
#859 = AXIS2_PLACEMENT_3D ( 'NONE', #306, #787, #1042 ) ;
#860 = EDGE_CURVE ( 'NONE', #514, #156, #758, .T. ) ;
#861 = DIRECTION ( 'NONE',  ( 1.000000000000000000, -0.000000000000000000, -0.000000000000000000 ) ) ;
#862 = CARTESIAN_POINT ( 'NONE',  ( -1.614999999999999991, 1.614999999999999769, -0.8890000000000000124 ) ) ;
#863 = CARTESIAN_POINT ( 'NONE',  ( 0.000000000000000000, 0.000000000000000000, 5.438999999999999169 ) ) ;
#864 = CARTESIAN_POINT ( 'NONE',  ( 0.2470917478819859014, -2.087439085565598429, 2.187221323398956585 ) ) ;
#865 = ORIENTED_EDGE ( 'NONE', *, *, #107, .T. ) ;
#866 = AXIS2_PLACEMENT_3D ( 'NONE', #89, #801, #328 ) ;
#867 = EDGE_CURVE ( 'NONE', #159, #192, #825, .T. ) ;
#868 = MECHANICAL_CONTEXT ( 'NONE', #184, 'mechanical' ) ;
#869 = CARTESIAN_POINT ( 'NONE',  ( -0.3999999999999999667, 1.465013371386852947, 6.138999999999998458 ) ) ;
#870 = CARTESIAN_POINT ( 'NONE',  ( 0.4000000000000001887, 2.244114062671030752, 5.586213595499871509 ) ) ;
#871 = CARTESIAN_POINT ( 'NONE',  ( 0.000000000000000000, 0.000000000000000000, 0.8890000000000009006 ) ) ;
#872 = ORIENTED_EDGE ( 'NONE', *, *, #971, .F. ) ;
#873 = CARTESIAN_POINT ( 'NONE',  ( 0.000000000000000000, 0.000000000000000000, 0.8890000000000009006 ) ) ;
#874 = CARTESIAN_POINT ( 'NONE',  ( 0.4000000000000000222, -2.190314098834288181, 5.749223614617238631 ) ) ;
#875 = DIRECTION ( 'NONE',  ( -0.000000000000000000, -0.000000000000000000, -1.000000000000000000 ) ) ;
#876 = EDGE_CURVE ( 'NONE', #650, #891, #582, .T. ) ;
#877 = VERTEX_POINT ( 'NONE', #517 ) ;
#878 = AXIS2_PLACEMENT_3D ( 'NONE', #988, #1055, #324 ) ;
#879 = VECTOR ( 'NONE', #225, 1000.000000000000000 ) ;
#880 = APPROVAL_ROLE ( '' ) ;
#881 = CARTESIAN_POINT ( 'NONE',  ( -0.3999999999999999667, -3.174999999999999822, 5.139000000000001123 ) ) ;
#882 = CYLINDRICAL_SURFACE ( 'NONE', #149, 2.100000000000000089 ) ;
#883 = VERTEX_POINT ( 'NONE', #834 ) ;
#884 = AXIS2_PLACEMENT_3D ( 'NONE', #399, #721, #491 ) ;
#885 = DIRECTION ( 'NONE',  ( 0.000000000000000000, -1.000000000000000000, 0.000000000000000000 ) ) ;
#886 = LINE ( 'NONE', #1032, #60 ) ;
#887 = APPROVAL ( #1019, 'UNSPECIFIED' ) ;
#888 = VERTEX_POINT ( 'NONE', #102 ) ;
#889 = CARTESIAN_POINT ( 'NONE',  ( -2.100000000000000089, 0.000000000000000000, 5.438999999999999169 ) ) ;
#890 = CARTESIAN_POINT ( 'NONE',  ( -1.614999999999999991, -1.615000000000000213, -6.349999999999999645 ) ) ;
#891 = VERTEX_POINT ( 'NONE', #16 ) ;
#892 = VECTOR ( 'NONE', #115, 1000.000000000000000 ) ;
#893 = EDGE_CURVE ( 'NONE', #903, #253, #351, .T. ) ;
#894 = CARTESIAN_POINT ( 'NONE',  ( -0.3999999999999999667, -2.264950330581225746, 5.523072258617638397 ) ) ;
#895 = ORIENTED_EDGE ( 'NONE', *, *, #250, .F. ) ;
#896 = AXIS2_PLACEMENT_3D ( 'NONE', #915, #280, #106 ) ;
#897 = CARTESIAN_POINT ( 'NONE',  ( -0.3999999999999999667, -2.244114062671030752, 5.586213595499871509 ) ) ;
#898 = CARTESIAN_POINT ( 'NONE',  ( 0.000000000000000000, 0.000000000000000000, 5.139000000000004675 ) ) ;
#899 = ORIENTED_EDGE ( 'NONE', *, *, #922, .T. ) ;
#900 = B_SPLINE_CURVE_WITH_KNOTS ( 'NONE', 3,
 ( #343, #756, #37, #24 ),
 .UNSPECIFIED., .F., .F.,
 ( 4, 4 ),
 ( 0.007647354141962971197, 0.007869202712918554540 ),
 .UNSPECIFIED. ) ;
#901 = LINE ( 'NONE', #263, #1052 ) ;
#902 = DIRECTION ( 'NONE',  ( -0.000000000000000000, 1.000000000000000000, -0.000000000000000000 ) ) ;
#903 = VERTEX_POINT ( 'NONE', #341 ) ;
#904 = EDGE_CURVE ( 'NONE', #187, #543, #183, .T. ) ;
#905 = VECTOR ( 'NONE', #902, 1000.000000000000000 ) ;
#906 = DIRECTION ( 'NONE',  ( -0.000000000000000000, -0.000000000000000000, -1.000000000000000000 ) ) ;
#907 = CARTESIAN_POINT ( 'NONE',  ( 0.000000000000000000, 0.000000000000000000, 5.523072258617638397 ) ) ;
#908 = VECTOR ( 'NONE', #1037, 1000.000000000000000 ) ;
#909 = LINE ( 'NONE', #403, #836 ) ;
#910 = ORIENTED_EDGE ( 'NONE', *, *, #1050, .T. ) ;
#911 = EDGE_LOOP ( 'NONE', ( #710, #33 ) ) ;
#912 = FACE_OUTER_BOUND ( 'NONE', #703, .T. ) ;
#913 = DIRECTION ( 'NONE',  ( 1.000000000000000000, 0.000000000000000000, -1.084202172485504434E-16 ) ) ;
#914 = ORIENTED_EDGE ( 'NONE', *, *, #473, .T. ) ;
#915 = CARTESIAN_POINT ( 'NONE',  ( -0.3999999999999999667, -3.174999999999999822, 6.138999999999998458 ) ) ;
#916 = CARTESIAN_POINT ( 'NONE',  ( -0.3999999999999999667, -2.061552812808830293, 5.438999999999999169 ) ) ;
#917 = CARTESIAN_POINT ( 'NONE',  ( 0.000000000000000000, 0.000000000000000000, 5.586213595499954110 ) ) ;
#918 = ORIENTED_EDGE ( 'NONE', *, *, #904, .F. ) ;
#919 = EDGE_LOOP ( 'NONE', ( #989, #515, #833, #508 ) ) ;
#920 = EDGE_CURVE ( 'NONE', #275, #172, #516, .T. ) ;
#921 = DIRECTION ( 'NONE',  ( -0.000000000000000000, -0.000000000000000000, 1.000000000000000000 ) ) ;
#922 = EDGE_CURVE ( 'NONE', #423, #818, #202, .T. ) ;
#923 = CARTESIAN_POINT ( 'NONE',  ( -0.3999999999999999667, -2.061552812808830293, 5.438999999999999169 ) ) ;
#924 = CIRCLE ( 'NONE', #479, 1.518638922964334226 ) ;
#925 = CIRCLE ( 'NONE', #1009, 2.100000000000000089 ) ;
#926 = DIRECTION ( 'NONE',  ( -0.000000000000000000, -0.000000000000000000, -1.000000000000000000 ) ) ;
#927 = EDGE_LOOP ( 'NONE', ( #502, #393, #239, #555 ) ) ;
#928 = ORIENTED_EDGE ( 'NONE', *, *, #72, .F. ) ;
#929 = PLANE ( 'NONE',  #982 ) ;
#930 = ADVANCED_FACE ( 'NONE', ( #1007 ), #500, .F. ) ;
#931 = DIRECTION ( 'NONE',  ( 0.000000000000000000, 0.000000000000000000, 1.000000000000000000 ) ) ;
#932 = DIRECTION ( 'NONE',  ( -8.115498896123205041E-15, 0.000000000000000000, 1.000000000000000000 ) ) ;
#933 = AXIS2_PLACEMENT_3D ( 'NONE', #764, #847, #347 ) ;
#934 = ORIENTED_EDGE ( 'NONE', *, *, #817, .F. ) ;
#935 = DIRECTION ( 'NONE',  ( -1.000000000000000000, 0.000000000000000000, -0.000000000000000000 ) ) ;
#936 = CARTESIAN_POINT ( 'NONE',  ( 1.518638922964334226, 0.000000000000000000, 5.339000000000000412 ) ) ;
#937 = PRODUCT_RELATED_PRODUCT_CATEGORY ( 'detail', '', ( #831 ) ) ;
#938 = EDGE_CURVE ( 'NONE', #883, #846, #168, .T. ) ;
#939 = ORIENTED_EDGE ( 'NONE', *, *, #651, .F. ) ;
#940 = CARTESIAN_POINT ( 'NONE',  ( -0.3999999999999999667, 2.190314098834288625, 5.749223614617237743 ) ) ;
#941 = FACE_OUTER_BOUND ( 'NONE', #289, .T. ) ;
#942 = CIRCLE ( 'NONE', #735, 3.174999999999999822 ) ;
#943 = AXIS2_PLACEMENT_3D ( 'NONE', #766, #441, #447 ) ;
#944 = ORIENTED_EDGE ( 'NONE', *, *, #420, .F. ) ;
#945 = LINE ( 'NONE', #57, #368 ) ;
#946 = CARTESIAN_POINT ( 'NONE',  ( 0.000000000000000000, 0.000000000000000000, 0.8890000000000009006 ) ) ;
#947 = FACE_OUTER_BOUND ( 'NONE', #927, .T. ) ;
#948 = CARTESIAN_POINT ( 'NONE',  ( 4.000000000000000000, 4.898587196589412829E-16, 0.000000000000000000 ) ) ;
#949 = EDGE_LOOP ( 'NONE', ( #999, #325, #401, #418, #283, #840, #355, #373, #80, #645 ) ) ;
#950 = AXIS2_PLACEMENT_3D ( 'NONE', #640, #474, #77 ) ;
#951 = CARTESIAN_POINT ( 'NONE',  ( 0.000000000000000000, 0.000000000000000000, 0.000000000000000000 ) ) ;
#952 = CARTESIAN_POINT ( 'NONE',  ( -0.1236690215010796678, 2.099990463092004322, 2.139040055015564601 ) ) ;
#953 = LINE ( 'NONE', #153, #879 ) ;
#954 = DIRECTION ( 'NONE',  ( -1.000000000000000000, 0.000000000000000000, 0.000000000000000000 ) ) ;
#955 = VERTEX_POINT ( 'NONE', #439 ) ;
#956 = CARTESIAN_POINT ( 'NONE',  ( -2.279484136000458516, 0.000000000000000000, 5.586213595499954110 ) ) ;
#957 = DIRECTION ( 'NONE',  ( 1.000000000000000000, 0.000000000000000000, -0.000000000000000000 ) ) ;
#958 = EDGE_LOOP ( 'NONE', ( #374, #970 ) ) ;
#959 = AXIS2_PLACEMENT_3D ( 'NONE', #843, #122, #307 ) ;
#960 = AXIS2_PLACEMENT_3D ( 'NONE', #541, #229, #1022 ) ;
#961 = PERSON_AND_ORGANIZATION_ROLE ( 'design_supplier' ) ;
#962 = MANIFOLD_SOLID_BREP ( '228-2500-125', #96 ) ;
#963 = EDGE_CURVE ( 'NONE', #186, #70, #768, .T. ) ;
#964 = DIRECTION ( 'NONE',  ( -0.000000000000000000, 1.000000000000000000, 0.000000000000000000 ) ) ;
#965 = DIRECTION ( 'NONE',  ( 0.000000000000000000, 0.000000000000000000, 1.000000000000000000 ) ) ;
#966 = ORIENTED_EDGE ( 'NONE', *, *, #920, .F. ) ;
#967 = APPROVAL_STATUS ( 'not_yet_approved' ) ;
#968 = CARTESIAN_POINT ( 'NONE',  ( -0.4980973490458723840, 2.040073290564207831, 2.595422128626172054 ) ) ;
#969 = CARTESIAN_POINT ( 'NONE',  ( 0.000000000000000000, 0.000000000000000000, -6.350999999999999979 ) ) ;
#970 = ORIENTED_EDGE ( 'NONE', *, *, #196, .T. ) ;
#971 = EDGE_CURVE ( 'NONE', #537, #903, #313, .T. ) ;
#972 = CARTESIAN_POINT ( 'NONE',  ( 0.4000000000000001887, -1.465013371386852947, 6.138999999999998458 ) ) ;
#973 = CARTESIAN_POINT ( 'NONE',  ( 0.7206315775864680084, 1.972483239316684234, 5.138999999999997570 ) ) ;
#974 = VERTEX_POINT ( 'NONE', #189 ) ;
#975 = ADVANCED_FACE ( 'NONE', ( #276 ), #269, .T. ) ;
#976 = ORIENTED_EDGE ( 'NONE', *, *, #388, .F. ) ;
#977 = AXIS2_PLACEMENT_3D ( 'NONE', #605, #753, #348 ) ;
#978 = DIRECTION ( 'NONE',  ( -0.000000000000000000, -0.000000000000000000, -1.000000000000000000 ) ) ;
#979 = CARTESIAN_POINT ( 'NONE',  ( 0.000000000000000000, 0.000000000000000000, 0.8890000000000009006 ) ) ;
#980 = B_SPLINE_CURVE_WITH_KNOTS ( 'NONE', 3,
 ( #675, #349, #993, #600 ),
 .UNSPECIFIED., .F., .F.,
 ( 4, 4 ),
 ( 0.002832913685900423535, 0.002899404085514990445 ),
 .UNSPECIFIED. ) ;
#981 = ORIENTED_EDGE ( 'NONE', *, *, #409, .T. ) ;
#982 = AXIS2_PLACEMENT_3D ( 'NONE', #597, #179, #751 ) ;
#983 = EDGE_CURVE ( 'NONE', #140, #818, #841, .T. ) ;
#984 = FACE_OUTER_BOUND ( 'NONE', #309, .T. ) ;
#985 = DIRECTION ( 'NONE',  ( 1.000000000000000000, 0.000000000000000000, -8.260587980841937794E-15 ) ) ;
#986 = EDGE_LOOP ( 'NONE', ( #596, #790, #1023, #104 ) ) ;
#987 = CARTESIAN_POINT ( 'NONE',  ( 0.4000000000000000222, -2.251060372992367054, 5.565166775064967375 ) ) ;
#988 = CARTESIAN_POINT ( 'NONE',  ( 0.7206315775864680084, -3.174999999999999822, 5.138999999999997570 ) ) ;
#989 = ORIENTED_EDGE ( 'NONE', *, *, #8, .T. ) ;
#990 = AXIS2_PLACEMENT_3D ( 'NONE', #715, #536, #794 ) ;
#991 = CARTESIAN_POINT ( 'NONE',  ( -1.614999999999999991, -1.615000000000000213, -0.8890000000000000124 ) ) ;
#992 = CYLINDRICAL_SURFACE ( 'NONE', #770, 0.5000000000000000000 ) ;
#993 = CARTESIAN_POINT ( 'NONE',  ( -0.3999999999999999667, 2.251060372992367054, 5.565166775064966487 ) ) ;
#994 = ORIENTED_EDGE ( 'NONE', *, *, #577, .F. ) ;
#995 = ORIENTED_EDGE ( 'NONE', *, *, #732, .T. ) ;
#996 = DIRECTION ( 'NONE',  ( 0.6802296901192332879, 8.330411126895150025E-17, -0.7329990236557561989 ) ) ;
#997 = PLANE ( 'NONE',  #754 ) ;
#998 = CARTESIAN_POINT ( 'NONE',  ( 0.000000000000000000, 0.000000000000000000, 5.438999999999999169 ) ) ;
#999 = ORIENTED_EDGE ( 'NONE', *, *, #717, .T. ) ;
#1000 = ORIENTED_EDGE ( 'NONE', *, *, #963, .T. ) ;
#1001 = EDGE_CURVE ( 'NONE', #50, #670, #1015, .T. ) ;
#1002 = CARTESIAN_POINT ( 'NONE',  ( -0.6477403412507644065, -1.999113491775013296, 4.305849356269921380 ) ) ;
#1003 = DIRECTION ( 'NONE',  ( 0.000000000000000000, -1.000000000000000000, 0.000000000000000000 ) ) ;
#1004 = LINE ( 'NONE', #519, #211 ) ;
#1005 = CARTESIAN_POINT ( 'NONE',  ( 1.614999999999999991, 1.614999999999999769, -6.349999999999999645 ) ) ;
#1006 = ORIENTED_EDGE ( 'NONE', *, *, #143, .T. ) ;
#1007 = FACE_OUTER_BOUND ( 'NONE', #481, .T. ) ;
#1008 = DIRECTION ( 'NONE',  ( -1.000000000000000000, 0.000000000000000000, 0.000000000000000000 ) ) ;
#1009 = AXIS2_PLACEMENT_3D ( 'NONE', #998, #832, #838 ) ;
#1010 = CARTESIAN_POINT ( 'NONE',  ( -0.3999999999999999667, -3.174999999999999822, 5.139000000000001123 ) ) ;
#1011 = ORIENTED_EDGE ( 'NONE', *, *, #176, .F. ) ;
#1012 = DATE_AND_TIME ( #152, #639 ) ;
#1013 = CARTESIAN_POINT ( 'NONE',  ( 0.000000000000000000, 0.000000000000000000, 6.138999999999998458 ) ) ;
#1014 = EDGE_CURVE ( 'NONE', #1029, #771, #945, .T. ) ;
#1015 = CIRCLE ( 'NONE', #725, 2.100000000000000089 ) ;
#1016 = B_SPLINE_CURVE_WITH_KNOTS ( 'NONE', 3,
 ( #394, #468, #535, #700, #212, #870 ),
 .UNSPECIFIED., .F., .F.,
 ( 4, 2, 4 ),
 ( 0.000000000000000000, 0.0005076236618905668931, 0.001015247323781133786 ),
 .UNSPECIFIED. ) ;
#1017 = ORIENTED_EDGE ( 'NONE', *, *, #656, .T. ) ;
#1018 = B_SPLINE_CURVE_WITH_KNOTS ( 'NONE', 3,
 ( #641, #219, #145, #864, #62, #386, #709, #13, #557, #264 ),
 .UNSPECIFIED., .F., .F.,
 ( 4, 2, 2, 2, 4 ),
 ( 0.000000000000000000, 0.0003704147845104412639, 0.0007408295690208825278, 0.001111244353531323521, 0.001481659138041764622 ),
 .UNSPECIFIED. ) ;
#1019 = APPROVAL_STATUS ( 'not_yet_approved' ) ;
#1020 = CARTESIAN_POINT ( 'NONE',  ( 1.614999999999999991, -1.615000000000000213, -0.8890000000000000124 ) ) ;
#1021 = APPLICATION_CONTEXT ( 'configuration controlled 3d designs of mechanical parts and assemblies' ) ;
#1022 = DIRECTION ( 'NONE',  ( 1.000000000000000000, 0.000000000000000000, 0.000000000000000000 ) ) ;
#1023 = ORIENTED_EDGE ( 'NONE', *, *, #860, .T. ) ;
#1024 = CARTESIAN_POINT ( 'NONE',  ( 1.614999999999999991, 1.614999999999999769, -6.349999999999999645 ) ) ;
#1025 = FACE_OUTER_BOUND ( 'NONE', #45, .T. ) ;
#1026 = CARTESIAN_POINT ( 'NONE',  ( -0.4980973490458723840, -3.174999999999999822, 2.595422128626172054 ) ) ;
#1027 = CIRCLE ( 'NONE', #161, 2.100000000000000089 ) ;
#1028 = CARTESIAN_POINT ( 'NONE',  ( 0.4000000000000001887, 1.465013371386852947, 6.138999999999998458 ) ) ;
#1029 = VERTEX_POINT ( 'NONE', #539 ) ;
#1030 = CARTESIAN_POINT ( 'NONE',  ( -0.4980973490458723840, 2.040073290564207831, 2.595422128626172054 ) ) ;
#1031 = CARTESIAN_POINT ( 'NONE',  ( -0.3999999999999999667, 2.061552812808830293, 5.438999999999999169 ) ) ;
#1032 = CARTESIAN_POINT ( 'NONE',  ( 1.614999999999999991, 1.614999999999999769, -0.8890000000000000124 ) ) ;
#1033 = ORIENTED_EDGE ( 'NONE', *, *, #437, .F. ) ;
#1034 = LOCAL_TIME ( 14, 3, 43.00000000000000000, #809 ) ;
#1035 = ADVANCED_FACE ( 'NONE', ( #367, #381 ), #706, .F. ) ;
#1036 = DIRECTION ( 'NONE',  ( -0.000000000000000000, -0.000000000000000000, -1.000000000000000000 ) ) ;
#1037 = DIRECTION ( 'NONE',  ( 0.000000000000000000, -1.000000000000000000, 0.000000000000000000 ) ) ;
#1038 = CARTESIAN_POINT ( 'NONE',  ( -0.3999999999999999667, 2.061552812808830737, 5.139000000000001123 ) ) ;
#1039 = EDGE_LOOP ( 'NONE', ( #110, #558 ) ) ;
#1040 = CC_DESIGN_PERSON_AND_ORGANIZATION_ASSIGNMENT ( #164, #7, ( #254 ) ) ;
#1041 = CC_DESIGN_DATE_AND_TIME_ASSIGNMENT ( #461, #389, ( #15 ) ) ;
#1042 = DIRECTION ( 'NONE',  ( -1.000000000000000000, 0.000000000000000000, 0.000000000000000000 ) ) ;
#1043 = FACE_OUTER_BOUND ( 'NONE', #958, .T. ) ;
#1044 = ORIENTED_EDGE ( 'NONE', *, *, #135, .F. ) ;
#1045 = AXIS2_PLACEMENT_3D ( 'NONE', #969, #738, #807 ) ;
#1046 = VECTOR ( 'NONE', #622, 1000.000000000000000 ) ;
#1047 = COORDINATED_UNIVERSAL_TIME_OFFSET ( 6, 0, .BEHIND. ) ;
#1048 = CARTESIAN_POINT ( 'NONE',  ( -0.3999999999999999667, -2.258005787487199267, 5.544119660093877577 ) ) ;
#1049 = CARTESIAN_POINT ( 'NONE',  ( 2.100000000000000089, 2.571758278209441957E-16, 5.438999999999999169 ) ) ;
#1050 = EDGE_CURVE ( 'NONE', #192, #5, #228, .T. ) ;
#1051 = ORIENTED_EDGE ( 'NONE', *, *, #356, .F. ) ;
#1052 = VECTOR ( 'NONE', #3, 1000.000000000000000 ) ;
#1053 = CARTESIAN_POINT ( 'NONE',  ( 0.7206315775864680084, -1.972483239316684234, 5.138999999999997570 ) ) ;
#1054 = ADVANCED_FACE ( 'NONE', ( #527 ), #220, .T. ) ;
#1055 = DIRECTION ( 'NONE',  ( 8.115498896123167176E-15, 0.000000000000000000, 1.000000000000000000 ) ) ;
ENDSEC;
END-ISO-10303-21;
