ISO-10303-21;
HEADER;
FILE_DESCRIPTION (( 'STEP AP203' ),
    '1' );
FILE_NAME ('228-2500-470.step',
    '2022-06-07T14:07:59',
    ( '' ),
    ( '' ),
    'SwSTEP 2.0',
    'SolidWorks 2019',
    '' );
FILE_SCHEMA (( 'CONFIG_CONTROL_DESIGN' ));
ENDSEC;

DATA;
#1 = LOCAL_TIME ( 9, 7, 59.00000000000000000, #66 ) ;
#2 = FACE_OUTER_BOUND ( 'NONE', #117, .T. ) ;
#3 = CALENDAR_DATE ( 2022, 7, 6 ) ;
#4 = ORIENTED_EDGE ( 'NONE', *, *, #168, .T. ) ;
#5 = DIRECTION ( 'NONE',  ( 0.000000000000000000, 0.000000000000000000, 1.000000000000000000 ) ) ;
#6 = APPROVAL_ROLE ( '' ) ;
#7 = AXIS2_PLACEMENT_3D ( 'NONE', #125, #43, #247 ) ;
#8 = EDGE_LOOP ( 'NONE', ( #76, #15 ) ) ;
#9 = ADVANCED_FACE ( 'NONE', ( #62 ), #165, .T. ) ;
#10 = EDGE_LOOP ( 'NONE', ( #140, #4, #228, #92 ) ) ;
#11 = PERSON_AND_ORGANIZATION ( #161, #199 ) ;
#12 = CARTESIAN_POINT ( 'NONE',  ( 6.998856457127124130E-15, -3.149999999999999911, 57.15000000000000568 ) ) ;
#13 = PLANE ( 'NONE',  #194 ) ;
#14 = VECTOR ( 'NONE', #244, 1000.000000000000000 ) ;
#15 = ORIENTED_EDGE ( 'NONE', *, *, #29, .T. ) ;
#16 = LOCAL_TIME ( 9, 7, 59.00000000000000000, #48 ) ;
#17 = DIRECTION ( 'NONE',  ( -0.000000000000000000, -1.000000000000000000, -0.000000000000000000 ) ) ;
#18 = PRODUCT_DEFINITION_SHAPE ( 'NONE', 'NONE',  #23 ) ;
#19 = CALENDAR_DATE ( 2022, 7, 6 ) ;
#20 = DATE_AND_TIME ( #128, #33 ) ;
#21 = CARTESIAN_POINT ( 'NONE',  ( 0.000000000000000000, 3.149999999999999911, 0.000000000000000000 ) ) ;
#22 = CC_DESIGN_SECURITY_CLASSIFICATION ( #119, ( #45 ) ) ;
#23 = PRODUCT_DEFINITION ( 'UNKNOWN', '', #45, #187 ) ;
#24 = COORDINATED_UNIVERSAL_TIME_OFFSET ( 6, 0, .BEHIND. ) ;
#25 = EDGE_CURVE ( 'NONE', #37, #47, #178, .T. ) ;
#26 = MANIFOLD_SOLID_BREP ( '228-2500-470', #49 ) ;
#27 = VECTOR ( 'NONE', #243, 1000.000000000000000 ) ;
#28 = DIRECTION ( 'NONE',  ( 0.000000000000000000, 0.000000000000000000, -1.000000000000000000 ) ) ;
#29 = EDGE_CURVE ( 'NONE', #129, #206, #78, .T. ) ;
#30 = DIRECTION ( 'NONE',  ( -0.000000000000000000, -1.000000000000000000, -0.000000000000000000 ) ) ;
#31 = ORIENTED_EDGE ( 'NONE', *, *, #74, .F. ) ;
#32 = APPLICATION_PROTOCOL_DEFINITION ( 'international standard', 'config_control_design', 1994, #134 ) ;
#33 = LOCAL_TIME ( 9, 7, 59.00000000000000000, #188 ) ;
#34 = CC_DESIGN_PERSON_AND_ORGANIZATION_ASSIGNMENT ( #170, #172, ( #23 ) ) ;
#35 = ORIENTED_EDGE ( 'NONE', *, *, #179, .F. ) ;
#36 = PRODUCT ( '228-2500-470', '228-2500-470', '', ( #200 ) ) ;
#37 = VERTEX_POINT ( 'NONE', #12 ) ;
#38 = CC_DESIGN_PERSON_AND_ORGANIZATION_ASSIGNMENT ( #86, #85, ( #45 ) ) ;
#39 = ORIENTED_EDGE ( 'NONE', *, *, #25, .F. ) ;
#40 = DIRECTION ( 'NONE',  ( 0.000000000000000000, 1.000000000000000000, 0.000000000000000000 ) ) ;
#41 = DIRECTION ( 'NONE',  ( 0.000000000000000000, 1.000000000000000000, 0.000000000000000000 ) ) ;
#42 = CARTESIAN_POINT ( 'NONE',  ( 0.000000000000000000, 3.149999999999999911, 0.000000000000000000 ) ) ;
#43 = DIRECTION ( 'NONE',  ( -0.000000000000000000, -1.000000000000000000, -0.000000000000000000 ) ) ;
#44 = APPROVAL ( #122, 'UNSPECIFIED' ) ;
#45 = PRODUCT_DEFINITION_FORMATION_WITH_SPECIFIED_SOURCE ( 'ANY', '', #36, .NOT_KNOWN. ) ;
#46 = CARTESIAN_POINT ( 'NONE',  ( 6.998856457127124130E-15, 3.149999999999999911, 57.15000000000000568 ) ) ;
#47 = VERTEX_POINT ( 'NONE', #59 ) ;
#48 = COORDINATED_UNIVERSAL_TIME_OFFSET ( 6, 0, .BEHIND. ) ;
#49 = CLOSED_SHELL ( 'NONE', ( #130, #9, #111, #139, #191, #147 ) ) ;
#50 = APPROVAL_PERSON_ORGANIZATION ( #72, #98, #87 ) ;
#51 = CYLINDRICAL_SURFACE ( 'NONE', #181, 57.15000000000000568 ) ;
#52 = EDGE_CURVE ( 'NONE', #216, #47, #109, .T. ) ;
#53 = DIRECTION ( 'NONE',  ( 0.000000000000000000, 0.000000000000000000, 1.000000000000000000 ) ) ;
#54 = APPROVAL_STATUS ( 'not_yet_approved' ) ;
#55 = EDGE_LOOP ( 'NONE', ( #201, #163, #121, #60 ) ) ;
#56 = CARTESIAN_POINT ( 'NONE',  ( 0.000000000000000000, -3.149999999999999911, 0.000000000000000000 ) ) ;
#57 = EDGE_CURVE ( 'NONE', #118, #216, #156, .T. ) ;
#58 = FACE_BOUND ( 'NONE', #8, .T. ) ;
#59 = CARTESIAN_POINT ( 'NONE',  ( 0.000000000000000000, -3.149999999999999911, -57.15000000000000568 ) ) ;
#60 = ORIENTED_EDGE ( 'NONE', *, *, #29, .F. ) ;
#61 = CYLINDRICAL_SURFACE ( 'NONE', #7, 55.64999999999999858 ) ;
#62 = FACE_OUTER_BOUND ( 'NONE', #10, .T. ) ;
#63 = ORIENTED_EDGE ( 'NONE', *, *, #240, .F. ) ;
#64 = ORIENTED_EDGE ( 'NONE', *, *, #114, .F. ) ;
#65 = AXIS2_PLACEMENT_3D ( 'NONE', #142, #53, #219 ) ;
#66 = COORDINATED_UNIVERSAL_TIME_OFFSET ( 6, 0, .BEHIND. ) ;
#67 = CC_DESIGN_PERSON_AND_ORGANIZATION_ASSIGNMENT ( #234, #208, ( #119 ) ) ;
#68 = EDGE_CURVE ( 'NONE', #242, #116, #204, .T. ) ;
#69 = DATE_TIME_ROLE ( 'classification_date' ) ;
#70 = CIRCLE ( 'NONE', #75, 57.15000000000000568 ) ;
#71 = CARTESIAN_POINT ( 'NONE',  ( 0.000000000000000000, 3.149999999999999911, 0.000000000000000000 ) ) ;
#72 = PERSON_AND_ORGANIZATION ( #161, #199 ) ;
#73 =( NAMED_UNIT ( * ) PLANE_ANGLE_UNIT ( ) SI_UNIT ( $, .RADIAN. ) );
#74 = EDGE_CURVE ( 'NONE', #116, #206, #143, .T. ) ;
#75 = AXIS2_PLACEMENT_3D ( 'NONE', #232, #131, #237 ) ;
#76 = ORIENTED_EDGE ( 'NONE', *, *, #240, .T. ) ;
#77 = CARTESIAN_POINT ( 'NONE',  ( 0.000000000000000000, -3.149999999999999911, 0.000000000000000000 ) ) ;
#78 = CIRCLE ( 'NONE', #144, 55.64999999999999858 ) ;
#79 = DIRECTION ( 'NONE',  ( 0.000000000000000000, 0.000000000000000000, 1.000000000000000000 ) ) ;
#80 = DIRECTION ( 'NONE',  ( 0.000000000000000000, 0.000000000000000000, -1.000000000000000000 ) ) ;
#81 = FACE_BOUND ( 'NONE', #89, .T. ) ;
#82 = ORIENTED_EDGE ( 'NONE', *, *, #229, .T. ) ;
#83 = AXIS2_PLACEMENT_3D ( 'NONE', #56, #221, #126 ) ;
#84 = AXIS2_PLACEMENT_3D ( 'NONE', #207, #190, #5 ) ;
#85 = PERSON_AND_ORGANIZATION_ROLE ( 'design_supplier' ) ;
#86 = PERSON_AND_ORGANIZATION ( #161, #199 ) ;
#87 = APPROVAL_ROLE ( '' ) ;
#88 = AXIS2_PLACEMENT_3D ( 'NONE', #42, #167, #182 ) ;
#89 = EDGE_LOOP ( 'NONE', ( #64, #217 ) ) ;
#90 = CIRCLE ( 'NONE', #115, 55.64999999999999858 ) ;
#91 = LOCAL_TIME ( 9, 7, 59.00000000000000000, #238 ) ;
#92 = ORIENTED_EDGE ( 'NONE', *, *, #52, .F. ) ;
#93 = DIRECTION ( 'NONE',  ( 0.000000000000000000, 0.000000000000000000, 1.000000000000000000 ) ) ;
#94 = PERSON_AND_ORGANIZATION_ROLE ( 'design_owner' ) ;
#95 = CARTESIAN_POINT ( 'NONE',  ( 0.000000000000000000, 3.149999999999999911, 0.000000000000000000 ) ) ;
#96 = CARTESIAN_POINT ( 'NONE',  ( 0.000000000000000000, 3.149999999999999911, -55.64999999999999858 ) ) ;
#97 = CARTESIAN_POINT ( 'NONE',  ( 0.000000000000000000, 3.149999999999999911, 0.000000000000000000 ) ) ;
#98 = APPROVAL ( #135, 'UNSPECIFIED' ) ;
#99 = APPROVAL_DATE_TIME ( #20, #44 ) ;
#100 = APPLICATION_CONTEXT ( 'configuration controlled 3d designs of mechanical parts and assemblies' ) ;
#101 = DATE_AND_TIME ( #159, #145 ) ;
#102 = CIRCLE ( 'NONE', #84, 57.15000000000000568 ) ;
#103 = ORIENTED_EDGE ( 'NONE', *, *, #179, .T. ) ;
#104 = ORIENTED_EDGE ( 'NONE', *, *, #158, .T. ) ;
#105 = CC_DESIGN_APPROVAL ( #98, ( #45 ) ) ;
#106 = DIRECTION ( 'NONE',  ( 0.000000000000000000, 0.000000000000000000, 1.000000000000000000 ) ) ;
#107 = ORIENTED_EDGE ( 'NONE', *, *, #52, .T. ) ;
#108 = FACE_OUTER_BOUND ( 'NONE', #185, .T. ) ;
#109 = LINE ( 'NONE', #183, #14 ) ;
#110 = CARTESIAN_POINT ( 'NONE',  ( 6.815159437255019830E-15, -3.149999999999999911, 55.64999999999999858 ) ) ;
#111 = ADVANCED_FACE ( 'NONE', ( #146, #81 ), #13, .T. ) ;
#112 = APPROVAL_ROLE ( '' ) ;
#113 = DIRECTION ( 'NONE',  ( 0.000000000000000000, 0.000000000000000000, 1.000000000000000000 ) ) ;
#114 = EDGE_CURVE ( 'NONE', #116, #242, #90, .T. ) ;
#115 = AXIS2_PLACEMENT_3D ( 'NONE', #97, #154, #113 ) ;
#116 = VERTEX_POINT ( 'NONE', #96 ) ;
#117 = EDGE_LOOP ( 'NONE', ( #202, #35, #107, #82 ) ) ;
#118 = VERTEX_POINT ( 'NONE', #46 ) ;
#119 = SECURITY_CLASSIFICATION ( '', '', #155 ) ;
#120 = DIRECTION ( 'NONE',  ( 0.000000000000000000, 1.000000000000000000, 0.000000000000000000 ) ) ;
#121 = ORIENTED_EDGE ( 'NONE', *, *, #74, .T. ) ;
#122 = APPROVAL_STATUS ( 'not_yet_approved' ) ;
#123 = FACE_OUTER_BOUND ( 'NONE', #55, .T. ) ;
#124 = DIRECTION ( 'NONE',  ( 0.000000000000000000, -0.000000000000000000, 1.000000000000000000 ) ) ;
#125 = CARTESIAN_POINT ( 'NONE',  ( 0.000000000000000000, 3.149999999999999911, 0.000000000000000000 ) ) ;
#126 = DIRECTION ( 'NONE',  ( 0.000000000000000000, 0.000000000000000000, 1.000000000000000000 ) ) ;
#127 = APPROVAL ( #54, 'UNSPECIFIED' ) ;
#128 = CALENDAR_DATE ( 2022, 7, 6 ) ;
#129 = VERTEX_POINT ( 'NONE', #110 ) ;
#130 = ADVANCED_FACE ( 'NONE', ( #153 ), #246, .F. ) ;
#131 = DIRECTION ( 'NONE',  ( 0.000000000000000000, 1.000000000000000000, 0.000000000000000000 ) ) ;
#132 =( GEOMETRIC_REPRESENTATION_CONTEXT ( 3 ) GLOBAL_UNCERTAINTY_ASSIGNED_CONTEXT ( ( #231 ) ) GLOBAL_UNIT_ASSIGNED_CONTEXT ( ( #197, #73, #198 ) ) REPRESENTATION_CONTEXT ( 'NONE', 'WORKASPACE' ) );
#133 = DATE_TIME_ROLE ( 'creation_date' ) ;
#134 = APPLICATION_CONTEXT ( 'configuration controlled 3d designs of mechanical parts and assemblies' ) ;
#135 = APPROVAL_STATUS ( 'not_yet_approved' ) ;
#136 = CC_DESIGN_PERSON_AND_ORGANIZATION_ASSIGNMENT ( #213, #215, ( #45 ) ) ;
#137 = CARTESIAN_POINT ( 'NONE',  ( 6.998856457127124130E-15, 3.149999999999999911, 57.15000000000000568 ) ) ;
#138 = APPROVAL_DATE_TIME ( #101, #98 ) ;
#139 = ADVANCED_FACE ( 'NONE', ( #108, #58 ), #189, .F. ) ;
#140 = ORIENTED_EDGE ( 'NONE', *, *, #57, .F. ) ;
#141 = DIRECTION ( 'NONE',  ( 0.000000000000000000, 1.000000000000000000, 0.000000000000000000 ) ) ;
#142 = CARTESIAN_POINT ( 'NONE',  ( 0.000000000000000000, 0.000000000000000000, 0.000000000000000000 ) ) ;
#143 = LINE ( 'NONE', #227, #27 ) ;
#144 = AXIS2_PLACEMENT_3D ( 'NONE', #77, #120, #106 ) ;
#145 = LOCAL_TIME ( 9, 7, 59.00000000000000000, #24 ) ;
#146 = FACE_OUTER_BOUND ( 'NONE', #218, .T. ) ;
#147 = ADVANCED_FACE ( 'NONE', ( #123 ), #61, .F. ) ;
#148 = CARTESIAN_POINT ( 'NONE',  ( 0.000000000000000000, -3.149999999999999911, 0.000000000000000000 ) ) ;
#149 = DIRECTION ( 'NONE',  ( 0.000000000000000000, 1.000000000000000000, 0.000000000000000000 ) ) ;
#150 = ORIENTED_EDGE ( 'NONE', *, *, #114, .T. ) ;
#151 = LINE ( 'NONE', #193, #211 ) ;
#152 = AXIS2_PLACEMENT_3D ( 'NONE', #21, #17, #80 ) ;
#153 = FACE_OUTER_BOUND ( 'NONE', #225, .T. ) ;
#154 = DIRECTION ( 'NONE',  ( 0.000000000000000000, 1.000000000000000000, 0.000000000000000000 ) ) ;
#155 = SECURITY_CLASSIFICATION_LEVEL ( 'unclassified' ) ;
#156 = CIRCLE ( 'NONE', #186, 57.15000000000000568 ) ;
#157 = CALENDAR_DATE ( 2022, 7, 6 ) ;
#158 = EDGE_CURVE ( 'NONE', #242, #129, #151, .T. ) ;
#159 = CALENDAR_DATE ( 2022, 7, 6 ) ;
#160 = CC_DESIGN_APPROVAL ( #127, ( #119 ) ) ;
#161 = PERSON ( 'UNSPECIFIED', 'UNSPECIFIED', 'UNSPECIFIED', ('UNSPECIFIED'), ('UNSPECIFIED'), ('UNSPECIFIED') ) ;
#162 = DIRECTION ( 'NONE',  ( 0.000000000000000000, 0.000000000000000000, 1.000000000000000000 ) ) ;
#163 = ORIENTED_EDGE ( 'NONE', *, *, #68, .T. ) ;
#164 = CC_DESIGN_APPROVAL ( #44, ( #23 ) ) ;
#165 = CYLINDRICAL_SURFACE ( 'NONE', #88, 57.15000000000000568 ) ;
#166 = PERSON_AND_ORGANIZATION ( #161, #199 ) ;
#167 = DIRECTION ( 'NONE',  ( -0.000000000000000000, -1.000000000000000000, -0.000000000000000000 ) ) ;
#168 = EDGE_CURVE ( 'NONE', #118, #37, #175, .T. ) ;
#169 = CARTESIAN_POINT ( 'NONE',  ( 0.000000000000000000, 3.149999999999999911, 0.000000000000000000 ) ) ;
#170 = PERSON_AND_ORGANIZATION ( #161, #199 ) ;
#171 = CC_DESIGN_PERSON_AND_ORGANIZATION_ASSIGNMENT ( #11, #94, ( #36 ) ) ;
#172 = PERSON_AND_ORGANIZATION_ROLE ( 'creator' ) ;
#173 = DATE_AND_TIME ( #3, #91 ) ;
#174 = CC_DESIGN_DATE_AND_TIME_ASSIGNMENT ( #236, #69, ( #119 ) ) ;
#175 = LINE ( 'NONE', #137, #249 ) ;
#176 = CARTESIAN_POINT ( 'NONE',  ( 0.000000000000000000, -3.149999999999999911, -55.64999999999999858 ) ) ;
#177 = CARTESIAN_POINT ( 'NONE',  ( 6.815159437255019830E-15, 3.149999999999999911, 55.64999999999999858 ) ) ;
#178 = CIRCLE ( 'NONE', #83, 57.15000000000000568 ) ;
#179 = EDGE_CURVE ( 'NONE', #216, #118, #70, .T. ) ;
#180 = AXIS2_PLACEMENT_3D ( 'NONE', #148, #41, #226 ) ;
#181 = AXIS2_PLACEMENT_3D ( 'NONE', #71, #196, #28 ) ;
#182 = DIRECTION ( 'NONE',  ( 0.000000000000000000, 0.000000000000000000, -1.000000000000000000 ) ) ;
#183 = CARTESIAN_POINT ( 'NONE',  ( 0.000000000000000000, 3.149999999999999911, -57.15000000000000568 ) ) ;
#184 = CC_DESIGN_DATE_AND_TIME_ASSIGNMENT ( #173, #133, ( #23 ) ) ;
#185 = EDGE_LOOP ( 'NONE', ( #239, #39 ) ) ;
#186 = AXIS2_PLACEMENT_3D ( 'NONE', #169, #40, #93 ) ;
#187 = DESIGN_CONTEXT ( 'detailed design', #100, 'design' ) ;
#188 = COORDINATED_UNIVERSAL_TIME_OFFSET ( 6, 0, .BEHIND. ) ;
#189 = PLANE ( 'NONE',  #180 ) ;
#190 = DIRECTION ( 'NONE',  ( 0.000000000000000000, 1.000000000000000000, 0.000000000000000000 ) ) ;
#191 = ADVANCED_FACE ( 'NONE', ( #2 ), #51, .T. ) ;
#192 = DATE_AND_TIME ( #19, #1 ) ;
#193 = CARTESIAN_POINT ( 'NONE',  ( 6.815159437255019830E-15, 3.149999999999999911, 55.64999999999999858 ) ) ;
#194 = AXIS2_PLACEMENT_3D ( 'NONE', #224, #149, #124 ) ;
#195 = CIRCLE ( 'NONE', #212, 55.64999999999999858 ) ;
#196 = DIRECTION ( 'NONE',  ( -0.000000000000000000, -1.000000000000000000, -0.000000000000000000 ) ) ;
#197 =( LENGTH_UNIT ( ) NAMED_UNIT ( * ) SI_UNIT ( .MILLI., .METRE. ) );
#198 =( NAMED_UNIT ( * ) SI_UNIT ( $, .STERADIAN. ) SOLID_ANGLE_UNIT ( ) );
#199 = ORGANIZATION ( 'UNSPECIFIED', 'UNSPECIFIED', '' ) ;
#200 = MECHANICAL_CONTEXT ( 'NONE', #134, 'mechanical' ) ;
#201 = ORIENTED_EDGE ( 'NONE', *, *, #158, .F. ) ;
#202 = ORIENTED_EDGE ( 'NONE', *, *, #168, .F. ) ;
#203 = DIRECTION ( 'NONE',  ( 0.000000000000000000, 1.000000000000000000, 0.000000000000000000 ) ) ;
#204 = CIRCLE ( 'NONE', #222, 55.64999999999999858 ) ;
#205 = SHAPE_DEFINITION_REPRESENTATION ( #18, #248 ) ;
#206 = VERTEX_POINT ( 'NONE', #176 ) ;
#207 = CARTESIAN_POINT ( 'NONE',  ( 0.000000000000000000, -3.149999999999999911, 0.000000000000000000 ) ) ;
#208 = PERSON_AND_ORGANIZATION_ROLE ( 'classification_officer' ) ;
#209 = PERSON_AND_ORGANIZATION ( #161, #199 ) ;
#210 = PRODUCT_RELATED_PRODUCT_CATEGORY ( 'detail', '', ( #36 ) ) ;
#211 = VECTOR ( 'NONE', #30, 1000.000000000000000 ) ;
#212 = AXIS2_PLACEMENT_3D ( 'NONE', #220, #141, #162 ) ;
#213 = PERSON_AND_ORGANIZATION ( #161, #199 ) ;
#214 = CARTESIAN_POINT ( 'NONE',  ( 0.000000000000000000, 3.149999999999999911, -57.15000000000000568 ) ) ;
#215 = PERSON_AND_ORGANIZATION_ROLE ( 'creator' ) ;
#216 = VERTEX_POINT ( 'NONE', #214 ) ;
#217 = ORIENTED_EDGE ( 'NONE', *, *, #68, .F. ) ;
#218 = EDGE_LOOP ( 'NONE', ( #103, #241 ) ) ;
#219 = DIRECTION ( 'NONE',  ( 1.000000000000000000, 0.000000000000000000, 0.000000000000000000 ) ) ;
#220 = CARTESIAN_POINT ( 'NONE',  ( 0.000000000000000000, -3.149999999999999911, 0.000000000000000000 ) ) ;
#221 = DIRECTION ( 'NONE',  ( 0.000000000000000000, 1.000000000000000000, 0.000000000000000000 ) ) ;
#222 = AXIS2_PLACEMENT_3D ( 'NONE', #95, #203, #79 ) ;
#223 = APPLICATION_PROTOCOL_DEFINITION ( 'international standard', 'config_control_design', 1994, #100 ) ;
#224 = CARTESIAN_POINT ( 'NONE',  ( 0.000000000000000000, 3.149999999999999911, 0.000000000000000000 ) ) ;
#225 = EDGE_LOOP ( 'NONE', ( #150, #104, #63, #31 ) ) ;
#226 = DIRECTION ( 'NONE',  ( 0.000000000000000000, -0.000000000000000000, 1.000000000000000000 ) ) ;
#227 = CARTESIAN_POINT ( 'NONE',  ( 0.000000000000000000, 3.149999999999999911, -55.64999999999999858 ) ) ;
#228 = ORIENTED_EDGE ( 'NONE', *, *, #25, .T. ) ;
#229 = EDGE_CURVE ( 'NONE', #47, #37, #102, .T. ) ;
#230 = APPROVAL_PERSON_ORGANIZATION ( #166, #44, #112 ) ;
#231 = UNCERTAINTY_MEASURE_WITH_UNIT (LENGTH_MEASURE( 1.000000000000000082E-05 ), #197, 'distance_accuracy_value', 'NONE');
#232 = CARTESIAN_POINT ( 'NONE',  ( 0.000000000000000000, 3.149999999999999911, 0.000000000000000000 ) ) ;
#233 = APPROVAL_DATE_TIME ( #192, #127 ) ;
#234 = PERSON_AND_ORGANIZATION ( #161, #199 ) ;
#235 = DIRECTION ( 'NONE',  ( -0.000000000000000000, -1.000000000000000000, -0.000000000000000000 ) ) ;
#236 = DATE_AND_TIME ( #157, #16 ) ;
#237 = DIRECTION ( 'NONE',  ( 0.000000000000000000, 0.000000000000000000, 1.000000000000000000 ) ) ;
#238 = COORDINATED_UNIVERSAL_TIME_OFFSET ( 6, 0, .BEHIND. ) ;
#239 = ORIENTED_EDGE ( 'NONE', *, *, #229, .F. ) ;
#240 = EDGE_CURVE ( 'NONE', #206, #129, #195, .T. ) ;
#241 = ORIENTED_EDGE ( 'NONE', *, *, #57, .T. ) ;
#242 = VERTEX_POINT ( 'NONE', #177 ) ;
#243 = DIRECTION ( 'NONE',  ( -0.000000000000000000, -1.000000000000000000, -0.000000000000000000 ) ) ;
#244 = DIRECTION ( 'NONE',  ( -0.000000000000000000, -1.000000000000000000, -0.000000000000000000 ) ) ;
#245 = APPROVAL_PERSON_ORGANIZATION ( #209, #127, #6 ) ;
#246 = CYLINDRICAL_SURFACE ( 'NONE', #152, 55.64999999999999858 ) ;
#247 = DIRECTION ( 'NONE',  ( 0.000000000000000000, 0.000000000000000000, -1.000000000000000000 ) ) ;
#248 = ADVANCED_BREP_SHAPE_REPRESENTATION ( '228-2500-470', ( #26, #65 ), #132 ) ;
#249 = VECTOR ( 'NONE', #235, 1000.000000000000000 ) ;
ENDSEC;
END-ISO-10303-21;
