ISO-10303-21;
HEADER;
FILE_DESCRIPTION (( 'STEP AP203' ),
    '1' );
FILE_NAME ('228-2500-468.STEP',
    '2022-06-07T15:02:50',
    ( '' ),
    ( '' ),
    'SwSTEP 2.0',
    'SolidWorks 2021',
    '' );
FILE_SCHEMA (( 'CONFIG_CONTROL_DESIGN' ));
ENDSEC;

DATA;
#1 = APPLICATION_CONTEXT ( 'configuration controlled 3d designs of mechanical parts and assemblies' ) ;
#2 = APPROVAL_PERSON_ORGANIZATION ( #150, #154, #231 ) ;
#3 = CARTESIAN_POINT ( 'NONE',  ( -30.30000000000000071, 3.710679801416480038E-15, 1.575000000000009504 ) ) ;
#4 = FACE_OUTER_BOUND ( 'NONE', #63, .T. ) ;
#5 = AXIS2_PLACEMENT_3D ( 'NONE', #91, #227, #168 ) ;
#6 = FACE_BOUND ( 'NONE', #157, .T. ) ;
#7 = LINE ( 'NONE', #136, #118 ) ;
#8 = DIRECTION ( 'NONE',  ( 0.000000000000000000, -0.000000000000000000, 1.000000000000000000 ) ) ;
#9 = APPROVAL_PERSON_ORGANIZATION ( #126, #11, #77 ) ;
#10 = LOCAL_TIME ( 10, 2, 50.00000000000000000, #110 ) ;
#11 = APPROVAL ( #97, 'UNSPECIFIED' ) ;
#12 = LINE ( 'NONE', #51, #71 ) ;
#13 = DATE_AND_TIME ( #107, #148 ) ;
#14 = APPLICATION_CONTEXT ( 'configuration controlled 3d designs of mechanical parts and assemblies' ) ;
#15 = ORIENTED_EDGE ( 'NONE', *, *, #187, .T. ) ;
#16 = AXIS2_PLACEMENT_3D ( 'NONE', #203, #143, #244 ) ;
#17 = PRODUCT_DEFINITION_SHAPE ( 'NONE', 'NONE',  #70 ) ;
#18 = CARTESIAN_POINT ( 'NONE',  ( -28.30000000000000071, 3.465750441587009741E-15, -1.574999999999991296 ) ) ;
#19 = ORIENTED_EDGE ( 'NONE', *, *, #34, .F. ) ;
#20 = EDGE_CURVE ( 'NONE', #213, #42, #202, .T. ) ;
#21 = CIRCLE ( 'NONE', #156, 28.30000000000000071 ) ;
#22 = DATE_TIME_ROLE ( 'creation_date' ) ;
#23 = EDGE_LOOP ( 'NONE', ( #185, #248 ) ) ;
#24 = VECTOR ( 'NONE', #134, 1000.000000000000000 ) ;
#25 = FACE_OUTER_BOUND ( 'NONE', #58, .T. ) ;
#26 = FACE_OUTER_BOUND ( 'NONE', #230, .T. ) ;
#27 = PRODUCT_RELATED_PRODUCT_CATEGORY ( 'detail', '', ( #36 ) ) ;
#28 = ORIENTED_EDGE ( 'NONE', *, *, #79, .F. ) ;
#29 = CARTESIAN_POINT ( 'NONE',  ( 0.000000000000000000, 30.30000000000000071, 1.575000000000009059 ) ) ;
#30 = PLANE ( 'NONE',  #207 ) ;
#31 = MECHANICAL_CONTEXT ( 'NONE', #14, 'mechanical' ) ;
#32 = CIRCLE ( 'NONE', #239, 28.30000000000000071 ) ;
#33 =( NAMED_UNIT ( * ) SI_UNIT ( $, .STERADIAN. ) SOLID_ANGLE_UNIT ( ) );
#34 = EDGE_CURVE ( 'NONE', #108, #125, #66, .T. ) ;
#35 = FACE_OUTER_BOUND ( 'NONE', #60, .T. ) ;
#36 = PRODUCT ( '228-2500-468', '228-2500-468', '', ( #31 ) ) ;
#37 = ORIENTED_EDGE ( 'NONE', *, *, #198, .T. ) ;
#38 = LOCAL_TIME ( 10, 2, 50.00000000000000000, #127 ) ;
#39 = APPROVAL_STATUS ( 'not_yet_approved' ) ;
#40 = PERSON_AND_ORGANIZATION_ROLE ( 'creator' ) ;
#41 = SHAPE_DEFINITION_REPRESENTATION ( #17, #54 ) ;
#42 = VERTEX_POINT ( 'NONE', #3 ) ;
#43 = PRODUCT_DEFINITION_FORMATION_WITH_SPECIFIED_SOURCE ( 'ANY', '', #36, .NOT_KNOWN. ) ;
#44 = APPROVAL ( #39, 'UNSPECIFIED' ) ;
#45 = AXIS2_PLACEMENT_3D ( 'NONE', #132, #115, #194 ) ;
#46 = DIRECTION ( 'NONE',  ( 1.000000000000000000, 0.000000000000000000, 0.000000000000000000 ) ) ;
#47 = CARTESIAN_POINT ( 'NONE',  ( 0.000000000000000000, 0.000000000000000000, -1.574999999999991296 ) ) ;
#48 = CARTESIAN_POINT ( 'NONE',  ( 28.30000000000000071, 0.000000000000000000, 1.575000000000008837 ) ) ;
#49 = ORGANIZATION ( 'UNSPECIFIED', 'UNSPECIFIED', '' ) ;
#50 = ORIENTED_EDGE ( 'NONE', *, *, #198, .F. ) ;
#51 = CARTESIAN_POINT ( 'NONE',  ( 30.30000000000000071, 0.000000000000000000, 0.000000000000000000 ) ) ;
#52 = CC_DESIGN_APPROVAL ( #44, ( #70 ) ) ;
#53 = APPLICATION_PROTOCOL_DEFINITION ( 'international standard', 'config_control_design', 1994, #14 ) ;
#54 = ADVANCED_BREP_SHAPE_REPRESENTATION ( '228-2500-468', ( #145, #16 ), #228 ) ;
#55 = LINE ( 'NONE', #169, #193 ) ;
#56 = CIRCLE ( 'NONE', #114, 30.30000000000000071 ) ;
#57 = DATE_TIME_ROLE ( 'classification_date' ) ;
#58 = EDGE_LOOP ( 'NONE', ( #128, #83, #37, #101 ) ) ;
#59 = APPROVAL_STATUS ( 'not_yet_approved' ) ;
#60 = EDGE_LOOP ( 'NONE', ( #15, #225, #171, #50 ) ) ;
#61 = CARTESIAN_POINT ( 'NONE',  ( 0.000000000000000000, 30.30000000000000071, -1.574999999999990852 ) ) ;
#62 = ADVANCED_FACE ( 'NONE', ( #4 ), #82, .F. ) ;
#63 = EDGE_LOOP ( 'NONE', ( #28, #191, #133, #173 ) ) ;
#64 = DIRECTION ( 'NONE',  ( 1.000000000000000000, 0.000000000000000000, 0.000000000000000000 ) ) ;
#65 = CARTESIAN_POINT ( 'NONE',  ( 30.30000000000000071, 0.000000000000000000, -1.574999999999990408 ) ) ;
#66 = CIRCLE ( 'NONE', #219, 28.30000000000000071 ) ;
#67 = DIRECTION ( 'NONE',  ( -0.000000000000000000, -0.000000000000000000, 1.000000000000000000 ) ) ;
#68 = PERSON_AND_ORGANIZATION_ROLE ( 'creator' ) ;
#69 = DIRECTION ( 'NONE',  ( 1.000000000000000000, 0.000000000000000000, 0.000000000000000000 ) ) ;
#70 = PRODUCT_DEFINITION ( 'UNKNOWN', '', #43, #221 ) ;
#71 = VECTOR ( 'NONE', #90, 1000.000000000000000 ) ;
#72 = CARTESIAN_POINT ( 'NONE',  ( 0.000000000000000000, 0.000000000000000000, -1.574999999999990408 ) ) ;
#73 = DIRECTION ( 'NONE',  ( -0.000000000000000000, -0.000000000000000000, 1.000000000000000000 ) ) ;
#74 = PERSON ( 'UNSPECIFIED', 'UNSPECIFIED', 'UNSPECIFIED', ('UNSPECIFIED'), ('UNSPECIFIED'), ('UNSPECIFIED') ) ;
#75 = EDGE_CURVE ( 'NONE', #42, #213, #140, .T. ) ;
#76 = ORIENTED_EDGE ( 'NONE', *, *, #113, .T. ) ;
#77 = APPROVAL_ROLE ( '' ) ;
#78 = PERSON_AND_ORGANIZATION ( #74, #49 ) ;
#79 = EDGE_CURVE ( 'NONE', #209, #125, #235, .T. ) ;
#80 = CARTESIAN_POINT ( 'NONE',  ( 0.000000000000000000, 0.000000000000000000, 1.575000000000009504 ) ) ;
#81 = AXIS2_PLACEMENT_3D ( 'NONE', #234, #159, #200 ) ;
#82 = CYLINDRICAL_SURFACE ( 'NONE', #81, 28.30000000000000071 ) ;
#83 = ORIENTED_EDGE ( 'NONE', *, *, #233, .T. ) ;
#84 = CC_DESIGN_PERSON_AND_ORGANIZATION_ASSIGNMENT ( #124, #121, ( #36 ) ) ;
#85 = CARTESIAN_POINT ( 'NONE',  ( -28.30000000000000071, 3.465750441587009741E-15, 1.575000000000008837 ) ) ;
#86 = DIRECTION ( 'NONE',  ( -0.000000000000000000, -0.000000000000000000, 1.000000000000000000 ) ) ;
#87 = CIRCLE ( 'NONE', #223, 30.30000000000000071 ) ;
#88 =( LENGTH_UNIT ( ) NAMED_UNIT ( * ) SI_UNIT ( .MILLI., .METRE. ) );
#89 = EDGE_CURVE ( 'NONE', #119, #108, #7, .T. ) ;
#90 = DIRECTION ( 'NONE',  ( -0.000000000000000000, -0.000000000000000000, 1.000000000000000000 ) ) ;
#91 = CARTESIAN_POINT ( 'NONE',  ( 0.000000000000000000, 0.000000000000000000, 0.000000000000000000 ) ) ;
#92 = LOCAL_TIME ( 10, 2, 50.00000000000000000, #172 ) ;
#93 =( NAMED_UNIT ( * ) PLANE_ANGLE_UNIT ( ) SI_UNIT ( $, .RADIAN. ) );
#94 = CC_DESIGN_PERSON_AND_ORGANIZATION_ASSIGNMENT ( #78, #95, ( #43 ) ) ;
#95 = PERSON_AND_ORGANIZATION_ROLE ( 'design_supplier' ) ;
#96 = ORIENTED_EDGE ( 'NONE', *, *, #233, .F. ) ;
#97 = APPROVAL_STATUS ( 'not_yet_approved' ) ;
#98 = ORIENTED_EDGE ( 'NONE', *, *, #20, .T. ) ;
#99 = CC_DESIGN_PERSON_AND_ORGANIZATION_ASSIGNMENT ( #188, #129, ( #153 ) ) ;
#100 = CLOSED_SHELL ( 'NONE', ( #174, #192, #158, #180, #135, #62 ) ) ;
#101 = ORIENTED_EDGE ( 'NONE', *, *, #75, .F. ) ;
#102 = CYLINDRICAL_SURFACE ( 'NONE', #45, 28.30000000000000071 ) ;
#103 = DIRECTION ( 'NONE',  ( 1.000000000000000000, 0.000000000000000000, 0.000000000000000000 ) ) ;
#104 = DIRECTION ( 'NONE',  ( -0.000000000000000000, -0.000000000000000000, 1.000000000000000000 ) ) ;
#105 = DIRECTION ( 'NONE',  ( 1.000000000000000000, 0.000000000000000000, 0.000000000000000000 ) ) ;
#106 = CARTESIAN_POINT ( 'NONE',  ( 0.000000000000000000, 0.000000000000000000, 0.000000000000000000 ) ) ;
#107 = CALENDAR_DATE ( 2022, 7, 6 ) ;
#108 = VERTEX_POINT ( 'NONE', #48 ) ;
#109 = CC_DESIGN_SECURITY_CLASSIFICATION ( #153, ( #43 ) ) ;
#110 = COORDINATED_UNIVERSAL_TIME_OFFSET ( 6, 0, .BEHIND. ) ;
#111 = SECURITY_CLASSIFICATION_LEVEL ( 'unclassified' ) ;
#112 = APPROVAL_PERSON_ORGANIZATION ( #206, #44, #182 ) ;
#113 = EDGE_CURVE ( 'NONE', #125, #108, #21, .T. ) ;
#114 = AXIS2_PLACEMENT_3D ( 'NONE', #72, #204, #138 ) ;
#115 = DIRECTION ( 'NONE',  ( -0.000000000000000000, -0.000000000000000000, 1.000000000000000000 ) ) ;
#116 = FACE_OUTER_BOUND ( 'NONE', #167, .T. ) ;
#117 = DIRECTION ( 'NONE',  ( 1.000000000000000000, 0.000000000000000000, 0.000000000000000000 ) ) ;
#118 = VECTOR ( 'NONE', #160, 1000.000000000000000 ) ;
#119 = VERTEX_POINT ( 'NONE', #216 ) ;
#120 = CARTESIAN_POINT ( 'NONE',  ( 0.000000000000000000, 0.000000000000000000, -1.574999999999991296 ) ) ;
#121 = PERSON_AND_ORGANIZATION_ROLE ( 'design_owner' ) ;
#122 = AXIS2_PLACEMENT_3D ( 'NONE', #215, #196, #64 ) ;
#123 = EDGE_CURVE ( 'NONE', #119, #209, #246, .T. ) ;
#124 = PERSON_AND_ORGANIZATION ( #74, #49 ) ;
#125 = VERTEX_POINT ( 'NONE', #85 ) ;
#126 = PERSON_AND_ORGANIZATION ( #74, #49 ) ;
#127 = COORDINATED_UNIVERSAL_TIME_OFFSET ( 6, 0, .BEHIND. ) ;
#128 = ORIENTED_EDGE ( 'NONE', *, *, #217, .F. ) ;
#129 = PERSON_AND_ORGANIZATION_ROLE ( 'classification_officer' ) ;
#130 = LOCAL_TIME ( 10, 2, 50.00000000000000000, #212 ) ;
#131 = EDGE_CURVE ( 'NONE', #209, #119, #32, .T. ) ;
#132 = CARTESIAN_POINT ( 'NONE',  ( 0.000000000000000000, 0.000000000000000000, 0.000000000000000000 ) ) ;
#133 = ORIENTED_EDGE ( 'NONE', *, *, #89, .T. ) ;
#134 = DIRECTION ( 'NONE',  ( -0.000000000000000000, -0.000000000000000000, 1.000000000000000000 ) ) ;
#135 = ADVANCED_FACE ( 'NONE', ( #6, #116 ), #30, .F. ) ;
#136 = CARTESIAN_POINT ( 'NONE',  ( 28.30000000000000071, 0.000000000000000000, 0.000000000000000000 ) ) ;
#137 = FACE_BOUND ( 'NONE', #23, .T. ) ;
#138 = DIRECTION ( 'NONE',  ( 1.000000000000000000, 0.000000000000000000, 0.000000000000000000 ) ) ;
#139 = DIRECTION ( 'NONE',  ( 1.000000000000000000, 0.000000000000000000, 0.000000000000000000 ) ) ;
#140 = CIRCLE ( 'NONE', #165, 30.30000000000000071 ) ;
#141 = UNCERTAINTY_MEASURE_WITH_UNIT (LENGTH_MEASURE( 1.000000000000000082E-05 ), #88, 'distance_accuracy_value', 'NONE');
#142 = CYLINDRICAL_SURFACE ( 'NONE', #5, 30.30000000000000071 ) ;
#143 = DIRECTION ( 'NONE',  ( 0.000000000000000000, 0.000000000000000000, 1.000000000000000000 ) ) ;
#144 = ORIENTED_EDGE ( 'NONE', *, *, #75, .T. ) ;
#145 = MANIFOLD_SOLID_BREP ( '228-2500-468', #100 ) ;
#146 = CARTESIAN_POINT ( 'NONE',  ( 0.000000000000000000, 0.000000000000000000, -1.574999999999990408 ) ) ;
#147 = APPROVAL_DATE_TIME ( #249, #154 ) ;
#148 = LOCAL_TIME ( 10, 2, 50.00000000000000000, #222 ) ;
#149 = EDGE_LOOP ( 'NONE', ( #205, #96 ) ) ;
#150 = PERSON_AND_ORGANIZATION ( #74, #49 ) ;
#151 = VERTEX_POINT ( 'NONE', #65 ) ;
#152 = APPROVAL_DATE_TIME ( #210, #11 ) ;
#153 = SECURITY_CLASSIFICATION ( '', '', #111 ) ;
#154 = APPROVAL ( #59, 'UNSPECIFIED' ) ;
#155 = DIRECTION ( 'NONE',  ( -0.000000000000000000, -0.000000000000000000, 1.000000000000000000 ) ) ;
#156 = AXIS2_PLACEMENT_3D ( 'NONE', #176, #155, #105 ) ;
#157 = EDGE_LOOP ( 'NONE', ( #19, #211 ) ) ;
#158 = ADVANCED_FACE ( 'NONE', ( #175, #137 ), #220, .F. ) ;
#159 = DIRECTION ( 'NONE',  ( -0.000000000000000000, -0.000000000000000000, 1.000000000000000000 ) ) ;
#160 = DIRECTION ( 'NONE',  ( -0.000000000000000000, -0.000000000000000000, 1.000000000000000000 ) ) ;
#161 = AXIS2_PLACEMENT_3D ( 'NONE', #61, #8, #240 ) ;
#162 = CARTESIAN_POINT ( 'NONE',  ( 0.000000000000000000, 0.000000000000000000, 1.575000000000008837 ) ) ;
#163 = APPROVAL_DATE_TIME ( #186, #44 ) ;
#164 = CYLINDRICAL_SURFACE ( 'NONE', #242, 30.30000000000000071 ) ;
#165 = AXIS2_PLACEMENT_3D ( 'NONE', #80, #179, #103 ) ;
#166 = CARTESIAN_POINT ( 'NONE',  ( 30.30000000000000071, 0.000000000000000000, 1.575000000000009504 ) ) ;
#167 = EDGE_LOOP ( 'NONE', ( #98, #144 ) ) ;
#168 = DIRECTION ( 'NONE',  ( 1.000000000000000000, 0.000000000000000000, 0.000000000000000000 ) ) ;
#169 = CARTESIAN_POINT ( 'NONE',  ( -30.30000000000000071, 3.710679801416480038E-15, 0.000000000000000000 ) ) ;
#170 = CALENDAR_DATE ( 2022, 7, 6 ) ;
#171 = ORIENTED_EDGE ( 'NONE', *, *, #20, .F. ) ;
#172 = COORDINATED_UNIVERSAL_TIME_OFFSET ( 6, 0, .BEHIND. ) ;
#173 = ORIENTED_EDGE ( 'NONE', *, *, #34, .T. ) ;
#174 = ADVANCED_FACE ( 'NONE', ( #26 ), #102, .F. ) ;
#175 = FACE_OUTER_BOUND ( 'NONE', #149, .T. ) ;
#176 = CARTESIAN_POINT ( 'NONE',  ( 0.000000000000000000, 0.000000000000000000, 1.575000000000008837 ) ) ;
#177 = CC_DESIGN_APPROVAL ( #154, ( #153 ) ) ;
#178 = DIRECTION ( 'NONE',  ( -0.000000000000000000, -0.000000000000000000, 1.000000000000000000 ) ) ;
#179 = DIRECTION ( 'NONE',  ( -0.000000000000000000, -0.000000000000000000, 1.000000000000000000 ) ) ;
#180 = ADVANCED_FACE ( 'NONE', ( #25 ), #142, .T. ) ;
#181 = DIRECTION ( 'NONE',  ( -1.000000000000000000, 0.000000000000000000, -0.000000000000000000 ) ) ;
#182 = APPROVAL_ROLE ( '' ) ;
#183 = CALENDAR_DATE ( 2022, 7, 6 ) ;
#184 = CC_DESIGN_PERSON_AND_ORGANIZATION_ASSIGNMENT ( #247, #40, ( #43 ) ) ;
#185 = ORIENTED_EDGE ( 'NONE', *, *, #123, .T. ) ;
#186 = DATE_AND_TIME ( #183, #10 ) ;
#187 = EDGE_CURVE ( 'NONE', #151, #199, #56, .T. ) ;
#188 = PERSON_AND_ORGANIZATION ( #74, #49 ) ;
#189 = CALENDAR_DATE ( 2022, 7, 6 ) ;
#190 = CC_DESIGN_APPROVAL ( #11, ( #43 ) ) ;
#191 = ORIENTED_EDGE ( 'NONE', *, *, #123, .F. ) ;
#192 = ADVANCED_FACE ( 'NONE', ( #35 ), #164, .T. ) ;
#193 = VECTOR ( 'NONE', #73, 1000.000000000000000 ) ;
#194 = DIRECTION ( 'NONE',  ( 1.000000000000000000, 0.000000000000000000, 0.000000000000000000 ) ) ;
#195 = ORIENTED_EDGE ( 'NONE', *, *, #131, .F. ) ;
#196 = DIRECTION ( 'NONE',  ( -0.000000000000000000, -0.000000000000000000, 1.000000000000000000 ) ) ;
#197 = AXIS2_PLACEMENT_3D ( 'NONE', #120, #178, #46 ) ;
#198 = EDGE_CURVE ( 'NONE', #151, #213, #12, .T. ) ;
#199 = VERTEX_POINT ( 'NONE', #224 ) ;
#200 = DIRECTION ( 'NONE',  ( 1.000000000000000000, 0.000000000000000000, 0.000000000000000000 ) ) ;
#201 = DIRECTION ( 'NONE',  ( -0.000000000000000000, -0.000000000000000000, 1.000000000000000000 ) ) ;
#202 = CIRCLE ( 'NONE', #122, 30.30000000000000071 ) ;
#203 = CARTESIAN_POINT ( 'NONE',  ( 0.000000000000000000, 0.000000000000000000, 0.000000000000000000 ) ) ;
#204 = DIRECTION ( 'NONE',  ( -0.000000000000000000, -0.000000000000000000, 1.000000000000000000 ) ) ;
#205 = ORIENTED_EDGE ( 'NONE', *, *, #187, .F. ) ;
#206 = PERSON_AND_ORGANIZATION ( #74, #49 ) ;
#207 = AXIS2_PLACEMENT_3D ( 'NONE', #29, #238, #181 ) ;
#208 = APPLICATION_PROTOCOL_DEFINITION ( 'international standard', 'config_control_design', 1994, #1 ) ;
#209 = VERTEX_POINT ( 'NONE', #18 ) ;
#210 = DATE_AND_TIME ( #170, #38 ) ;
#211 = ORIENTED_EDGE ( 'NONE', *, *, #113, .F. ) ;
#212 = COORDINATED_UNIVERSAL_TIME_OFFSET ( 6, 0, .BEHIND. ) ;
#213 = VERTEX_POINT ( 'NONE', #166 ) ;
#214 = ORIENTED_EDGE ( 'NONE', *, *, #79, .T. ) ;
#215 = CARTESIAN_POINT ( 'NONE',  ( 0.000000000000000000, 0.000000000000000000, 1.575000000000009504 ) ) ;
#216 = CARTESIAN_POINT ( 'NONE',  ( 28.30000000000000071, 0.000000000000000000, -1.574999999999991296 ) ) ;
#217 = EDGE_CURVE ( 'NONE', #199, #42, #55, .T. ) ;
#218 = DIRECTION ( 'NONE',  ( 1.000000000000000000, 0.000000000000000000, 0.000000000000000000 ) ) ;
#219 = AXIS2_PLACEMENT_3D ( 'NONE', #162, #104, #218 ) ;
#220 = PLANE ( 'NONE',  #161 ) ;
#221 = DESIGN_CONTEXT ( 'detailed design', #1, 'design' ) ;
#222 = COORDINATED_UNIVERSAL_TIME_OFFSET ( 6, 0, .BEHIND. ) ;
#223 = AXIS2_PLACEMENT_3D ( 'NONE', #146, #67, #139 ) ;
#224 = CARTESIAN_POINT ( 'NONE',  ( -30.30000000000000071, 3.710679801416480038E-15, -1.574999999999990408 ) ) ;
#225 = ORIENTED_EDGE ( 'NONE', *, *, #217, .T. ) ;
#226 = CC_DESIGN_DATE_AND_TIME_ASSIGNMENT ( #13, #22, ( #70 ) ) ;
#227 = DIRECTION ( 'NONE',  ( -0.000000000000000000, -0.000000000000000000, 1.000000000000000000 ) ) ;
#228 =( GEOMETRIC_REPRESENTATION_CONTEXT ( 3 ) GLOBAL_UNCERTAINTY_ASSIGNED_CONTEXT ( ( #141 ) ) GLOBAL_UNIT_ASSIGNED_CONTEXT ( ( #88, #93, #33 ) ) REPRESENTATION_CONTEXT ( 'NONE', 'WORKASPACE' ) );
#229 = CALENDAR_DATE ( 2022, 7, 6 ) ;
#230 = EDGE_LOOP ( 'NONE', ( #195, #214, #76, #245 ) ) ;
#231 = APPROVAL_ROLE ( '' ) ;
#232 = DATE_AND_TIME ( #189, #92 ) ;
#233 = EDGE_CURVE ( 'NONE', #199, #151, #87, .T. ) ;
#234 = CARTESIAN_POINT ( 'NONE',  ( 0.000000000000000000, 0.000000000000000000, 0.000000000000000000 ) ) ;
#235 = LINE ( 'NONE', #237, #24 ) ;
#236 = CC_DESIGN_PERSON_AND_ORGANIZATION_ASSIGNMENT ( #241, #68, ( #70 ) ) ;
#237 = CARTESIAN_POINT ( 'NONE',  ( -28.30000000000000071, 3.465750441587009741E-15, 0.000000000000000000 ) ) ;
#238 = DIRECTION ( 'NONE',  ( 0.000000000000000000, 0.000000000000000000, -1.000000000000000000 ) ) ;
#239 = AXIS2_PLACEMENT_3D ( 'NONE', #47, #86, #117 ) ;
#240 = DIRECTION ( 'NONE',  ( 1.000000000000000000, 0.000000000000000000, 0.000000000000000000 ) ) ;
#241 = PERSON_AND_ORGANIZATION ( #74, #49 ) ;
#242 = AXIS2_PLACEMENT_3D ( 'NONE', #106, #201, #69 ) ;
#243 = CC_DESIGN_DATE_AND_TIME_ASSIGNMENT ( #232, #57, ( #153 ) ) ;
#244 = DIRECTION ( 'NONE',  ( 1.000000000000000000, 0.000000000000000000, 0.000000000000000000 ) ) ;
#245 = ORIENTED_EDGE ( 'NONE', *, *, #89, .F. ) ;
#246 = CIRCLE ( 'NONE', #197, 28.30000000000000071 ) ;
#247 = PERSON_AND_ORGANIZATION ( #74, #49 ) ;
#248 = ORIENTED_EDGE ( 'NONE', *, *, #131, .T. ) ;
#249 = DATE_AND_TIME ( #229, #130 ) ;
ENDSEC;
END-ISO-10303-21;
