ISO-10303-21;
HEADER;
FILE_DESCRIPTION (( 'STEP AP203' ),
    '1' );
FILE_NAME ('228-2500-474.step',
    '2022-06-07T14:08:23',
    ( '' ),
    ( '' ),
    'SwSTEP 2.0',
    'SolidWorks 2019',
    '' );
FILE_SCHEMA (( 'CONFIG_CONTROL_DESIGN' ));
ENDSEC;

DATA;
#1 = CIRCLE ( 'NONE', #27, 28.29999999999999716 ) ;
#2 = CARTESIAN_POINT ( 'NONE',  ( 0.000000000000000000, 0.000000000000000000, -3.149999999999994138 ) ) ;
#3 = PLANE ( 'NONE',  #43 ) ;
#4 = DIRECTION ( 'NONE',  ( -0.000000000000000000, -0.000000000000000000, 1.000000000000000000 ) ) ;
#5 = CC_DESIGN_APPROVAL ( #178, ( #166 ) ) ;
#6 = LOCAL_TIME ( 9, 8, 23.00000000000000000, #220 ) ;
#7 = CALENDAR_DATE ( 2022, 7, 6 ) ;
#8 = CARTESIAN_POINT ( 'NONE',  ( 0.000000000000000000, 0.000000000000000000, -3.149999999999994138 ) ) ;
#9 = COORDINATED_UNIVERSAL_TIME_OFFSET ( 6, 0, .BEHIND. ) ;
#10 = CLOSED_SHELL ( 'NONE', ( #153, #215, #87, #79, #55, #106 ) ) ;
#11 = ORIENTED_EDGE ( 'NONE', *, *, #61, .T. ) ;
#12 = SHAPE_DEFINITION_REPRESENTATION ( #64, #93 ) ;
#13 = ORIENTED_EDGE ( 'NONE', *, *, #173, .F. ) ;
#14 = EDGE_LOOP ( 'NONE', ( #23, #75, #72, #11 ) ) ;
#15 = CARTESIAN_POINT ( 'NONE',  ( 29.30000000000000071, 0.000000000000000000, 3.150000000000005240 ) ) ;
#16 = LOCAL_TIME ( 9, 8, 23.00000000000000000, #168 ) ;
#17 = CARTESIAN_POINT ( 'NONE',  ( -28.29999999999999716, 3.465750441587009347E-15, 3.150000000000005684 ) ) ;
#18 = EDGE_CURVE ( 'NONE', #229, #175, #32, .T. ) ;
#19 = CARTESIAN_POINT ( 'NONE',  ( 0.000000000000000000, 0.000000000000000000, 3.150000000000005684 ) ) ;
#20 = DIRECTION ( 'NONE',  ( 1.000000000000000000, 0.000000000000000000, 0.000000000000000000 ) ) ;
#21 = VECTOR ( 'NONE', #231, 1000.000000000000000 ) ;
#22 = CALENDAR_DATE ( 2022, 7, 6 ) ;
#23 = ORIENTED_EDGE ( 'NONE', *, *, #39, .F. ) ;
#24 = APPLICATION_PROTOCOL_DEFINITION ( 'international standard', 'config_control_design', 1994, #189 ) ;
#25 = CC_DESIGN_PERSON_AND_ORGANIZATION_ASSIGNMENT ( #68, #169, ( #144 ) ) ;
#26 = DIRECTION ( 'NONE',  ( -1.000000000000000000, 0.000000000000000000, -0.000000000000000000 ) ) ;
#27 = AXIS2_PLACEMENT_3D ( 'NONE', #141, #100, #179 ) ;
#28 = ORIENTED_EDGE ( 'NONE', *, *, #123, .T. ) ;
#29 = ORIENTED_EDGE ( 'NONE', *, *, #18, .T. ) ;
#30 = EDGE_CURVE ( 'NONE', #170, #228, #151, .T. ) ;
#31 = ORIENTED_EDGE ( 'NONE', *, *, #98, .F. ) ;
#32 = CIRCLE ( 'NONE', #216, 28.29999999999999716 ) ;
#33 = FACE_OUTER_BOUND ( 'NONE', #108, .T. ) ;
#34 = DIRECTION ( 'NONE',  ( 1.000000000000000000, 0.000000000000000000, 0.000000000000000000 ) ) ;
#35 = PRODUCT_RELATED_PRODUCT_CATEGORY ( 'detail', '', ( #144 ) ) ;
#36 = CYLINDRICAL_SURFACE ( 'NONE', #41, 28.29999999999999716 ) ;
#37 = CC_DESIGN_APPROVAL ( #46, ( #164 ) ) ;
#38 = DIRECTION ( 'NONE',  ( 1.000000000000000000, 0.000000000000000000, 0.000000000000000000 ) ) ;
#39 = EDGE_CURVE ( 'NONE', #229, #154, #224, .T. ) ;
#40 = CARTESIAN_POINT ( 'NONE',  ( 0.000000000000000000, 0.000000000000000000, 3.150000000000005240 ) ) ;
#41 = AXIS2_PLACEMENT_3D ( 'NONE', #136, #237, #211 ) ;
#42 = APPROVAL_STATUS ( 'not_yet_approved' ) ;
#43 = AXIS2_PLACEMENT_3D ( 'NONE', #214, #138, #213 ) ;
#44 = PERSON_AND_ORGANIZATION ( #81, #77 ) ;
#45 = PERSON_AND_ORGANIZATION ( #81, #77 ) ;
#46 = APPROVAL ( #223, 'UNSPECIFIED' ) ;
#47 = FACE_OUTER_BOUND ( 'NONE', #192, .T. ) ;
#48 = COORDINATED_UNIVERSAL_TIME_OFFSET ( 6, 0, .BEHIND. ) ;
#49 = CARTESIAN_POINT ( 'NONE',  ( 0.000000000000000000, 29.30000000000000071, 3.150000000000005240 ) ) ;
#50 = AXIS2_PLACEMENT_3D ( 'NONE', #76, #120, #20 ) ;
#51 = ORIENTED_EDGE ( 'NONE', *, *, #30, .F. ) ;
#52 = ORIENTED_EDGE ( 'NONE', *, *, #73, .T. ) ;
#53 = ORIENTED_EDGE ( 'NONE', *, *, #98, .T. ) ;
#54 = APPROVAL_PERSON_ORGANIZATION ( #186, #46, #241 ) ;
#55 = ADVANCED_FACE ( 'NONE', ( #222, #47 ), #127, .F. ) ;
#56 = LINE ( 'NONE', #156, #21 ) ;
#57 = CARTESIAN_POINT ( 'NONE',  ( 0.000000000000000000, 0.000000000000000000, 0.000000000000000000 ) ) ;
#58 = CIRCLE ( 'NONE', #187, 29.30000000000000071 ) ;
#59 = AXIS2_PLACEMENT_3D ( 'NONE', #40, #160, #102 ) ;
#60 = CYLINDRICAL_SURFACE ( 'NONE', #105, 29.30000000000000071 ) ;
#61 = EDGE_CURVE ( 'NONE', #71, #154, #101, .T. ) ;
#62 = CYLINDRICAL_SURFACE ( 'NONE', #50, 29.30000000000000071 ) ;
#63 = APPROVAL_PERSON_ORGANIZATION ( #128, #178, #142 ) ;
#64 = PRODUCT_DEFINITION_SHAPE ( 'NONE', 'NONE',  #139 ) ;
#65 = PERSON_AND_ORGANIZATION ( #81, #77 ) ;
#66 = MECHANICAL_CONTEXT ( 'NONE', #183, 'mechanical' ) ;
#67 = VECTOR ( 'NONE', #149, 1000.000000000000000 ) ;
#68 = PERSON_AND_ORGANIZATION ( #81, #77 ) ;
#69 = CARTESIAN_POINT ( 'NONE',  ( -28.29999999999999716, 3.465750441587009347E-15, 0.000000000000000000 ) ) ;
#70 = PERSON_AND_ORGANIZATION_ROLE ( 'classification_officer' ) ;
#71 = VERTEX_POINT ( 'NONE', #159 ) ;
#72 = ORIENTED_EDGE ( 'NONE', *, *, #247, .T. ) ;
#73 = EDGE_CURVE ( 'NONE', #246, #228, #82, .T. ) ;
#74 = EDGE_LOOP ( 'NONE', ( #31, #155 ) ) ;
#75 = ORIENTED_EDGE ( 'NONE', *, *, #205, .F. ) ;
#76 = CARTESIAN_POINT ( 'NONE',  ( 0.000000000000000000, 0.000000000000000000, 0.000000000000000000 ) ) ;
#77 = ORGANIZATION ( 'UNSPECIFIED', 'UNSPECIFIED', '' ) ;
#78 = FACE_BOUND ( 'NONE', #92, .T. ) ;
#79 = ADVANCED_FACE ( 'NONE', ( #33 ), #60, .T. ) ;
#80 = DIRECTION ( 'NONE',  ( -0.000000000000000000, -0.000000000000000000, 1.000000000000000000 ) ) ;
#81 = PERSON ( 'UNSPECIFIED', 'UNSPECIFIED', 'UNSPECIFIED', ('UNSPECIFIED'), ('UNSPECIFIED'), ('UNSPECIFIED') ) ;
#82 = CIRCLE ( 'NONE', #245, 29.30000000000000071 ) ;
#83 = FACE_OUTER_BOUND ( 'NONE', #74, .T. ) ;
#84 = CC_DESIGN_PERSON_AND_ORGANIZATION_ASSIGNMENT ( #244, #85, ( #166 ) ) ;
#85 = PERSON_AND_ORGANIZATION_ROLE ( 'design_supplier' ) ;
#86 = DATE_AND_TIME ( #238, #129 ) ;
#87 = ADVANCED_FACE ( 'NONE', ( #83, #78 ), #3, .F. ) ;
#88 = DIRECTION ( 'NONE',  ( 1.000000000000000000, 0.000000000000000000, 0.000000000000000000 ) ) ;
#89 = APPROVAL_DATE_TIME ( #86, #163 ) ;
#90 = ORIENTED_EDGE ( 'NONE', *, *, #219, .T. ) ;
#91 = MANIFOLD_SOLID_BREP ( '228-2500-474', #10 ) ;
#92 = EDGE_LOOP ( 'NONE', ( #131, #29 ) ) ;
#93 = ADVANCED_BREP_SHAPE_REPRESENTATION ( '228-2500-474', ( #91, #207 ), #236 ) ;
#94 = ORIENTED_EDGE ( 'NONE', *, *, #171, .F. ) ;
#95 = VECTOR ( 'NONE', #152, 1000.000000000000000 ) ;
#96 = APPROVAL_DATE_TIME ( #111, #46 ) ;
#97 = ORIENTED_EDGE ( 'NONE', *, *, #247, .F. ) ;
#98 = EDGE_CURVE ( 'NONE', #112, #170, #230, .T. ) ;
#99 = CARTESIAN_POINT ( 'NONE',  ( 29.30000000000000071, 0.000000000000000000, -3.149999999999994138 ) ) ;
#100 = DIRECTION ( 'NONE',  ( -0.000000000000000000, -0.000000000000000000, 1.000000000000000000 ) ) ;
#101 = CIRCLE ( 'NONE', #161, 28.29999999999999716 ) ;
#102 = DIRECTION ( 'NONE',  ( 1.000000000000000000, 0.000000000000000000, 0.000000000000000000 ) ) ;
#103 = CYLINDRICAL_SURFACE ( 'NONE', #121, 28.29999999999999716 ) ;
#104 = DIRECTION ( 'NONE',  ( -0.000000000000000000, -0.000000000000000000, 1.000000000000000000 ) ) ;
#105 = AXIS2_PLACEMENT_3D ( 'NONE', #57, #140, #198 ) ;
#106 = ADVANCED_FACE ( 'NONE', ( #119 ), #103, .F. ) ;
#107 = DATE_TIME_ROLE ( 'classification_date' ) ;
#108 = EDGE_LOOP ( 'NONE', ( #51, #90, #134, #13 ) ) ;
#109 = DATE_TIME_ROLE ( 'creation_date' ) ;
#110 = CARTESIAN_POINT ( 'NONE',  ( 0.000000000000000000, 0.000000000000000000, 3.150000000000005684 ) ) ;
#111 = DATE_AND_TIME ( #206, #201 ) ;
#112 = VERTEX_POINT ( 'NONE', #99 ) ;
#113 = ORIENTED_EDGE ( 'NONE', *, *, #173, .T. ) ;
#114 = CC_DESIGN_APPROVAL ( #163, ( #139 ) ) ;
#115 = CC_DESIGN_DATE_AND_TIME_ASSIGNMENT ( #150, #107, ( #164 ) ) ;
#116 = DIRECTION ( 'NONE',  ( -0.000000000000000000, -0.000000000000000000, 1.000000000000000000 ) ) ;
#117 = DIRECTION ( 'NONE',  ( 1.000000000000000000, 0.000000000000000000, 0.000000000000000000 ) ) ;
#118 = DIRECTION ( 'NONE',  ( 1.000000000000000000, 0.000000000000000000, 0.000000000000000000 ) ) ;
#119 = FACE_OUTER_BOUND ( 'NONE', #14, .T. ) ;
#120 = DIRECTION ( 'NONE',  ( -0.000000000000000000, -0.000000000000000000, 1.000000000000000000 ) ) ;
#121 = AXIS2_PLACEMENT_3D ( 'NONE', #197, #116, #249 ) ;
#122 = APPROVAL_STATUS ( 'not_yet_approved' ) ;
#123 = EDGE_CURVE ( 'NONE', #154, #71, #225, .T. ) ;
#124 = APPROVAL_DATE_TIME ( #165, #178 ) ;
#125 = DATE_AND_TIME ( #22, #6 ) ;
#126 = PERSON_AND_ORGANIZATION_ROLE ( 'creator' ) ;
#127 = PLANE ( 'NONE',  #157 ) ;
#128 = PERSON_AND_ORGANIZATION ( #81, #77 ) ;
#129 = LOCAL_TIME ( 9, 8, 23.00000000000000000, #9 ) ;
#130 = DIRECTION ( 'NONE',  ( 0.000000000000000000, 0.000000000000000000, -1.000000000000000000 ) ) ;
#131 = ORIENTED_EDGE ( 'NONE', *, *, #205, .T. ) ;
#132 = DIRECTION ( 'NONE',  ( 1.000000000000000000, 0.000000000000000000, 0.000000000000000000 ) ) ;
#133 = ORIENTED_EDGE ( 'NONE', *, *, #123, .F. ) ;
#134 = ORIENTED_EDGE ( 'NONE', *, *, #171, .T. ) ;
#135 = VECTOR ( 'NONE', #80, 1000.000000000000000 ) ;
#136 = CARTESIAN_POINT ( 'NONE',  ( 0.000000000000000000, 0.000000000000000000, 0.000000000000000000 ) ) ;
#137 = DESIGN_CONTEXT ( 'detailed design', #189, 'design' ) ;
#138 = DIRECTION ( 'NONE',  ( 0.000000000000000000, -0.000000000000000000, 1.000000000000000000 ) ) ;
#139 = PRODUCT_DEFINITION ( 'UNKNOWN', '', #166, #137 ) ;
#140 = DIRECTION ( 'NONE',  ( -0.000000000000000000, -0.000000000000000000, 1.000000000000000000 ) ) ;
#141 = CARTESIAN_POINT ( 'NONE',  ( 0.000000000000000000, 0.000000000000000000, -3.149999999999994138 ) ) ;
#142 = APPROVAL_ROLE ( '' ) ;
#143 = AXIS2_PLACEMENT_3D ( 'NONE', #19, #162, #212 ) ;
#144 = PRODUCT ( '228-2500-474', '228-2500-474', '', ( #66 ) ) ;
#145 =( NAMED_UNIT ( * ) SI_UNIT ( $, .STERADIAN. ) SOLID_ANGLE_UNIT ( ) );
#146 = CALENDAR_DATE ( 2022, 7, 6 ) ;
#147 = LOCAL_TIME ( 9, 8, 23.00000000000000000, #203 ) ;
#148 = CARTESIAN_POINT ( 'NONE',  ( 0.000000000000000000, 0.000000000000000000, 0.000000000000000000 ) ) ;
#149 = DIRECTION ( 'NONE',  ( -0.000000000000000000, -0.000000000000000000, 1.000000000000000000 ) ) ;
#150 = DATE_AND_TIME ( #146, #147 ) ;
#151 = LINE ( 'NONE', #243, #95 ) ;
#152 = DIRECTION ( 'NONE',  ( -0.000000000000000000, -0.000000000000000000, 1.000000000000000000 ) ) ;
#153 = ADVANCED_FACE ( 'NONE', ( #176 ), #36, .F. ) ;
#154 = VERTEX_POINT ( 'NONE', #17 ) ;
#155 = ORIENTED_EDGE ( 'NONE', *, *, #219, .F. ) ;
#156 = CARTESIAN_POINT ( 'NONE',  ( 28.29999999999999716, 0.000000000000000000, 0.000000000000000000 ) ) ;
#157 = AXIS2_PLACEMENT_3D ( 'NONE', #49, #130, #26 ) ;
#158 = CARTESIAN_POINT ( 'NONE',  ( 0.000000000000000000, 0.000000000000000000, -3.149999999999994138 ) ) ;
#159 = CARTESIAN_POINT ( 'NONE',  ( 28.29999999999999716, 0.000000000000000000, 3.150000000000005684 ) ) ;
#160 = DIRECTION ( 'NONE',  ( -0.000000000000000000, -0.000000000000000000, 1.000000000000000000 ) ) ;
#161 = AXIS2_PLACEMENT_3D ( 'NONE', #110, #190, #118 ) ;
#162 = DIRECTION ( 'NONE',  ( -0.000000000000000000, -0.000000000000000000, 1.000000000000000000 ) ) ;
#163 = APPROVAL ( #42, 'UNSPECIFIED' ) ;
#164 = SECURITY_CLASSIFICATION ( '', '', #240 ) ;
#165 = DATE_AND_TIME ( #7, #16 ) ;
#166 = PRODUCT_DEFINITION_FORMATION_WITH_SPECIFIED_SOURCE ( 'ANY', '', #144, .NOT_KNOWN. ) ;
#167 = DIRECTION ( 'NONE',  ( -0.000000000000000000, -0.000000000000000000, 1.000000000000000000 ) ) ;
#168 = COORDINATED_UNIVERSAL_TIME_OFFSET ( 6, 0, .BEHIND. ) ;
#169 = PERSON_AND_ORGANIZATION_ROLE ( 'design_owner' ) ;
#170 = VERTEX_POINT ( 'NONE', #180 ) ;
#171 = EDGE_CURVE ( 'NONE', #112, #246, #177, .T. ) ;
#172 = ORIENTED_EDGE ( 'NONE', *, *, #18, .F. ) ;
#173 = EDGE_CURVE ( 'NONE', #228, #246, #194, .T. ) ;
#174 = ORIENTED_EDGE ( 'NONE', *, *, #30, .T. ) ;
#175 = VERTEX_POINT ( 'NONE', #235 ) ;
#176 = FACE_OUTER_BOUND ( 'NONE', #226, .T. ) ;
#177 = LINE ( 'NONE', #200, #135 ) ;
#178 = APPROVAL ( #122, 'UNSPECIFIED' ) ;
#179 = DIRECTION ( 'NONE',  ( 1.000000000000000000, 0.000000000000000000, 0.000000000000000000 ) ) ;
#180 = CARTESIAN_POINT ( 'NONE',  ( -29.30000000000000071, 3.588215121501744890E-15, -3.149999999999994138 ) ) ;
#181 = PERSON_AND_ORGANIZATION ( #81, #77 ) ;
#182 = CARTESIAN_POINT ( 'NONE',  ( -29.30000000000000071, 3.588215121501744890E-15, 3.150000000000005240 ) ) ;
#183 = APPLICATION_CONTEXT ( 'configuration controlled 3d designs of mechanical parts and assemblies' ) ;
#184 = CC_DESIGN_SECURITY_CLASSIFICATION ( #164, ( #166 ) ) ;
#185 = APPROVAL_ROLE ( '' ) ;
#186 = PERSON_AND_ORGANIZATION ( #81, #77 ) ;
#187 = AXIS2_PLACEMENT_3D ( 'NONE', #2, #104, #117 ) ;
#188 = DIRECTION ( 'NONE',  ( 0.000000000000000000, 0.000000000000000000, 1.000000000000000000 ) ) ;
#189 = APPLICATION_CONTEXT ( 'configuration controlled 3d designs of mechanical parts and assemblies' ) ;
#190 = DIRECTION ( 'NONE',  ( -0.000000000000000000, -0.000000000000000000, 1.000000000000000000 ) ) ;
#191 = EDGE_LOOP ( 'NONE', ( #248, #133 ) ) ;
#192 = EDGE_LOOP ( 'NONE', ( #52, #113 ) ) ;
#193 = CC_DESIGN_DATE_AND_TIME_ASSIGNMENT ( #125, #109, ( #139 ) ) ;
#194 = CIRCLE ( 'NONE', #59, 29.30000000000000071 ) ;
#195 = CARTESIAN_POINT ( 'NONE',  ( -28.29999999999999716, 3.465750441587009347E-15, -3.149999999999994138 ) ) ;
#196 =( LENGTH_UNIT ( ) NAMED_UNIT ( * ) SI_UNIT ( .MILLI., .METRE. ) );
#197 = CARTESIAN_POINT ( 'NONE',  ( 0.000000000000000000, 0.000000000000000000, 0.000000000000000000 ) ) ;
#198 = DIRECTION ( 'NONE',  ( 1.000000000000000000, 0.000000000000000000, 0.000000000000000000 ) ) ;
#199 = CC_DESIGN_PERSON_AND_ORGANIZATION_ASSIGNMENT ( #65, #70, ( #164 ) ) ;
#200 = CARTESIAN_POINT ( 'NONE',  ( 29.30000000000000071, 0.000000000000000000, 0.000000000000000000 ) ) ;
#201 = LOCAL_TIME ( 9, 8, 23.00000000000000000, #48 ) ;
#202 =( NAMED_UNIT ( * ) PLANE_ANGLE_UNIT ( ) SI_UNIT ( $, .RADIAN. ) );
#203 = COORDINATED_UNIVERSAL_TIME_OFFSET ( 6, 0, .BEHIND. ) ;
#204 = PERSON_AND_ORGANIZATION_ROLE ( 'creator' ) ;
#205 = EDGE_CURVE ( 'NONE', #175, #229, #1, .T. ) ;
#206 = CALENDAR_DATE ( 2022, 7, 6 ) ;
#207 = AXIS2_PLACEMENT_3D ( 'NONE', #148, #188, #132 ) ;
#208 = EDGE_LOOP ( 'NONE', ( #53, #174, #210, #94 ) ) ;
#209 = ORIENTED_EDGE ( 'NONE', *, *, #39, .T. ) ;
#210 = ORIENTED_EDGE ( 'NONE', *, *, #73, .F. ) ;
#211 = DIRECTION ( 'NONE',  ( 1.000000000000000000, 0.000000000000000000, 0.000000000000000000 ) ) ;
#212 = DIRECTION ( 'NONE',  ( 1.000000000000000000, 0.000000000000000000, 0.000000000000000000 ) ) ;
#213 = DIRECTION ( 'NONE',  ( 1.000000000000000000, 0.000000000000000000, 0.000000000000000000 ) ) ;
#214 = CARTESIAN_POINT ( 'NONE',  ( 0.000000000000000000, 29.30000000000000071, -3.149999999999994138 ) ) ;
#215 = ADVANCED_FACE ( 'NONE', ( #217 ), #62, .T. ) ;
#216 = AXIS2_PLACEMENT_3D ( 'NONE', #8, #167, #88 ) ;
#217 = FACE_OUTER_BOUND ( 'NONE', #208, .T. ) ;
#218 = UNCERTAINTY_MEASURE_WITH_UNIT (LENGTH_MEASURE( 1.000000000000000082E-05 ), #196, 'distance_accuracy_value', 'NONE');
#219 = EDGE_CURVE ( 'NONE', #170, #112, #58, .T. ) ;
#220 = COORDINATED_UNIVERSAL_TIME_OFFSET ( 6, 0, .BEHIND. ) ;
#221 = APPROVAL_PERSON_ORGANIZATION ( #44, #163, #185 ) ;
#222 = FACE_BOUND ( 'NONE', #191, .T. ) ;
#223 = APPROVAL_STATUS ( 'not_yet_approved' ) ;
#224 = LINE ( 'NONE', #69, #67 ) ;
#225 = CIRCLE ( 'NONE', #143, 28.29999999999999716 ) ;
#226 = EDGE_LOOP ( 'NONE', ( #172, #209, #28, #97 ) ) ;
#227 = APPLICATION_PROTOCOL_DEFINITION ( 'international standard', 'config_control_design', 1994, #183 ) ;
#228 = VERTEX_POINT ( 'NONE', #182 ) ;
#229 = VERTEX_POINT ( 'NONE', #195 ) ;
#230 = CIRCLE ( 'NONE', #242, 29.30000000000000071 ) ;
#231 = DIRECTION ( 'NONE',  ( -0.000000000000000000, -0.000000000000000000, 1.000000000000000000 ) ) ;
#232 = DIRECTION ( 'NONE',  ( -0.000000000000000000, -0.000000000000000000, 1.000000000000000000 ) ) ;
#233 = CARTESIAN_POINT ( 'NONE',  ( 0.000000000000000000, 0.000000000000000000, 3.150000000000005240 ) ) ;
#234 = CC_DESIGN_PERSON_AND_ORGANIZATION_ASSIGNMENT ( #181, #204, ( #139 ) ) ;
#235 = CARTESIAN_POINT ( 'NONE',  ( 28.29999999999999716, 0.000000000000000000, -3.149999999999994138 ) ) ;
#236 =( GEOMETRIC_REPRESENTATION_CONTEXT ( 3 ) GLOBAL_UNCERTAINTY_ASSIGNED_CONTEXT ( ( #218 ) ) GLOBAL_UNIT_ASSIGNED_CONTEXT ( ( #196, #202, #145 ) ) REPRESENTATION_CONTEXT ( 'NONE', 'WORKASPACE' ) );
#237 = DIRECTION ( 'NONE',  ( -0.000000000000000000, -0.000000000000000000, 1.000000000000000000 ) ) ;
#238 = CALENDAR_DATE ( 2022, 7, 6 ) ;
#239 = CC_DESIGN_PERSON_AND_ORGANIZATION_ASSIGNMENT ( #45, #126, ( #166 ) ) ;
#240 = SECURITY_CLASSIFICATION_LEVEL ( 'unclassified' ) ;
#241 = APPROVAL_ROLE ( '' ) ;
#242 = AXIS2_PLACEMENT_3D ( 'NONE', #158, #232, #38 ) ;
#243 = CARTESIAN_POINT ( 'NONE',  ( -29.30000000000000071, 3.588215121501744890E-15, 0.000000000000000000 ) ) ;
#244 = PERSON_AND_ORGANIZATION ( #81, #77 ) ;
#245 = AXIS2_PLACEMENT_3D ( 'NONE', #233, #4, #34 ) ;
#246 = VERTEX_POINT ( 'NONE', #15 ) ;
#247 = EDGE_CURVE ( 'NONE', #175, #71, #56, .T. ) ;
#248 = ORIENTED_EDGE ( 'NONE', *, *, #61, .F. ) ;
#249 = DIRECTION ( 'NONE',  ( 1.000000000000000000, 0.000000000000000000, 0.000000000000000000 ) ) ;
ENDSEC;
END-ISO-10303-21;
