ISO-10303-21;
HEADER;
FILE_DESCRIPTION (( 'STEP AP203' ),
    '1' );
FILE_NAME ('228-2500-475.STEP',
    '2022-06-07T15:03:38',
    ( '' ),
    ( '' ),
    'SwSTEP 2.0',
    'SolidWorks 2021',
    '' );
FILE_SCHEMA (( 'CONFIG_CONTROL_DESIGN' ));
ENDSEC;

DATA;
#1 = SHAPE_DEFINITION_REPRESENTATION ( #157, #195 ) ;
#2 = DIRECTION ( 'NONE',  ( -0.000000000000000000, -0.000000000000000000, 1.000000000000000000 ) ) ;
#3 = CIRCLE ( 'NONE', #216, 30.30000000000000071 ) ;
#4 =( NAMED_UNIT ( * ) SI_UNIT ( $, .STERADIAN. ) SOLID_ANGLE_UNIT ( ) );
#5 = EDGE_LOOP ( 'NONE', ( #144, #215 ) ) ;
#6 = DIRECTION ( 'NONE',  ( -0.000000000000000000, -0.000000000000000000, 1.000000000000000000 ) ) ;
#7 = AXIS2_PLACEMENT_3D ( 'NONE', #205, #2, #64 ) ;
#8 = VERTEX_POINT ( 'NONE', #32 ) ;
#9 = CARTESIAN_POINT ( 'NONE',  ( 0.000000000000000000, 0.000000000000000000, -3.149999999999995026 ) ) ;
#10 = CC_DESIGN_PERSON_AND_ORGANIZATION_ASSIGNMENT ( #61, #170, ( #159 ) ) ;
#11 = CARTESIAN_POINT ( 'NONE',  ( -30.30000000000000071, 3.710679801416480038E-15, 3.150000000000005240 ) ) ;
#12 = APPROVAL_PERSON_ORGANIZATION ( #207, #74, #111 ) ;
#13 = CARTESIAN_POINT ( 'NONE',  ( 0.000000000000000000, 0.000000000000000000, -3.149999999999995470 ) ) ;
#14 = APPROVAL_ROLE ( '' ) ;
#15 = MECHANICAL_CONTEXT ( 'NONE', #118, 'mechanical' ) ;
#16 = EDGE_CURVE ( 'NONE', #101, #223, #3, .T. ) ;
#17 = CIRCLE ( 'NONE', #164, 30.30000000000000071 ) ;
#18 = COORDINATED_UNIVERSAL_TIME_OFFSET ( 6, 0, .BEHIND. ) ;
#19 = CYLINDRICAL_SURFACE ( 'NONE', #138, 30.30000000000000071 ) ;
#20 = CALENDAR_DATE ( 2022, 7, 6 ) ;
#21 =( LENGTH_UNIT ( ) NAMED_UNIT ( * ) SI_UNIT ( .MILLI., .METRE. ) );
#22 = COORDINATED_UNIVERSAL_TIME_OFFSET ( 6, 0, .BEHIND. ) ;
#23 = APPLICATION_CONTEXT ( 'configuration controlled 3d designs of mechanical parts and assemblies' ) ;
#24 = DIRECTION ( 'NONE',  ( -0.000000000000000000, -0.000000000000000000, 1.000000000000000000 ) ) ;
#25 = CIRCLE ( 'NONE', #117, 28.30000000000000071 ) ;
#26 = ORIENTED_EDGE ( 'NONE', *, *, #69, .F. ) ;
#27 = LOCAL_TIME ( 10, 3, 38.00000000000000000, #100 ) ;
#28 = EDGE_LOOP ( 'NONE', ( #26, #196 ) ) ;
#29 = CARTESIAN_POINT ( 'NONE',  ( -30.30000000000000071, 3.710679801416480038E-15, -3.149999999999995026 ) ) ;
#30 = ORIENTED_EDGE ( 'NONE', *, *, #135, .F. ) ;
#31 = VECTOR ( 'NONE', #232, 1000.000000000000000 ) ;
#32 = CARTESIAN_POINT ( 'NONE',  ( 30.30000000000000071, 0.000000000000000000, -3.149999999999995026 ) ) ;
#33 = CYLINDRICAL_SURFACE ( 'NONE', #238, 28.30000000000000071 ) ;
#34 = ORIENTED_EDGE ( 'NONE', *, *, #147, .T. ) ;
#35 = CIRCLE ( 'NONE', #245, 28.30000000000000071 ) ;
#36 = ADVANCED_FACE ( 'NONE', ( #106 ), #33, .F. ) ;
#37 = APPROVAL_DATE_TIME ( #244, #182 ) ;
#38 = LOCAL_TIME ( 10, 3, 38.00000000000000000, #246 ) ;
#39 = CARTESIAN_POINT ( 'NONE',  ( 28.30000000000000071, 0.000000000000000000, 0.000000000000000000 ) ) ;
#40 = APPROVAL_STATUS ( 'not_yet_approved' ) ;
#41 = DIRECTION ( 'NONE',  ( -0.000000000000000000, -0.000000000000000000, 1.000000000000000000 ) ) ;
#42 = PERSON_AND_ORGANIZATION_ROLE ( 'creator' ) ;
#43 = LINE ( 'NONE', #39, #95 ) ;
#44 = DESIGN_CONTEXT ( 'detailed design', #23, 'design' ) ;
#45 = PERSON_AND_ORGANIZATION ( #220, #132 ) ;
#46 = CIRCLE ( 'NONE', #139, 28.30000000000000071 ) ;
#47 = ORIENTED_EDGE ( 'NONE', *, *, #89, .F. ) ;
#48 = VERTEX_POINT ( 'NONE', #162 ) ;
#49 = EDGE_CURVE ( 'NONE', #194, #198, #46, .T. ) ;
#50 = DIRECTION ( 'NONE',  ( 1.000000000000000000, 0.000000000000000000, 0.000000000000000000 ) ) ;
#51 = ORIENTED_EDGE ( 'NONE', *, *, #186, .T. ) ;
#52 = DIRECTION ( 'NONE',  ( 1.000000000000000000, 0.000000000000000000, 0.000000000000000000 ) ) ;
#53 = FACE_OUTER_BOUND ( 'NONE', #28, .T. ) ;
#54 = CC_DESIGN_DATE_AND_TIME_ASSIGNMENT ( #134, #211, ( #159 ) ) ;
#55 = CARTESIAN_POINT ( 'NONE',  ( 0.000000000000000000, 0.000000000000000000, 3.150000000000005240 ) ) ;
#56 = APPROVAL_PERSON_ORGANIZATION ( #113, #122, #14 ) ;
#57 = CC_DESIGN_PERSON_AND_ORGANIZATION_ASSIGNMENT ( #154, #42, ( #206 ) ) ;
#58 = PERSON_AND_ORGANIZATION ( #220, #132 ) ;
#59 = APPROVAL_STATUS ( 'not_yet_approved' ) ;
#60 = CARTESIAN_POINT ( 'NONE',  ( 0.000000000000000000, 0.000000000000000000, 0.000000000000000000 ) ) ;
#61 = PERSON_AND_ORGANIZATION ( #220, #132 ) ;
#62 = ADVANCED_FACE ( 'NONE', ( #108, #219 ), #121, .F. ) ;
#63 = SECURITY_CLASSIFICATION ( '', '', #224 ) ;
#64 = DIRECTION ( 'NONE',  ( 1.000000000000000000, 0.000000000000000000, 0.000000000000000000 ) ) ;
#65 = CALENDAR_DATE ( 2022, 7, 6 ) ;
#66 = CYLINDRICAL_SURFACE ( 'NONE', #169, 30.30000000000000071 ) ;
#67 = PERSON_AND_ORGANIZATION_ROLE ( 'design_supplier' ) ;
#68 = ORIENTED_EDGE ( 'NONE', *, *, #201, .T. ) ;
#69 = EDGE_CURVE ( 'NONE', #8, #126, #17, .T. ) ;
#70 = CIRCLE ( 'NONE', #188, 28.30000000000000071 ) ;
#71 = ORIENTED_EDGE ( 'NONE', *, *, #135, .T. ) ;
#72 = CARTESIAN_POINT ( 'NONE',  ( 0.000000000000000000, 0.000000000000000000, -3.149999999999995026 ) ) ;
#73 = FACE_BOUND ( 'NONE', #242, .T. ) ;
#74 = APPROVAL ( #40, 'UNSPECIFIED' ) ;
#75 = EDGE_LOOP ( 'NONE', ( #85, #236, #68, #88 ) ) ;
#76 = CIRCLE ( 'NONE', #109, 30.30000000000000071 ) ;
#77 = CARTESIAN_POINT ( 'NONE',  ( 0.000000000000000000, 0.000000000000000000, 0.000000000000000000 ) ) ;
#78 = ORIENTED_EDGE ( 'NONE', *, *, #201, .F. ) ;
#79 = EDGE_CURVE ( 'NONE', #48, #193, #70, .T. ) ;
#80 =( NAMED_UNIT ( * ) PLANE_ANGLE_UNIT ( ) SI_UNIT ( $, .RADIAN. ) );
#81 = CARTESIAN_POINT ( 'NONE',  ( -28.30000000000000071, 3.465750441587009741E-15, 3.150000000000004796 ) ) ;
#82 = DIRECTION ( 'NONE',  ( 0.000000000000000000, 0.000000000000000000, 1.000000000000000000 ) ) ;
#83 = CC_DESIGN_SECURITY_CLASSIFICATION ( #63, ( #206 ) ) ;
#84 = CARTESIAN_POINT ( 'NONE',  ( -30.30000000000000071, 3.710679801416480038E-15, 0.000000000000000000 ) ) ;
#85 = ORIENTED_EDGE ( 'NONE', *, *, #247, .F. ) ;
#86 = DIRECTION ( 'NONE',  ( -0.000000000000000000, -0.000000000000000000, 1.000000000000000000 ) ) ;
#87 =( GEOMETRIC_REPRESENTATION_CONTEXT ( 3 ) GLOBAL_UNCERTAINTY_ASSIGNED_CONTEXT ( ( #235 ) ) GLOBAL_UNIT_ASSIGNED_CONTEXT ( ( #21, #80, #4 ) ) REPRESENTATION_CONTEXT ( 'NONE', 'WORKASPACE' ) );
#88 = ORIENTED_EDGE ( 'NONE', *, *, #49, .T. ) ;
#89 = EDGE_CURVE ( 'NONE', #223, #101, #179, .T. ) ;
#90 = DIRECTION ( 'NONE',  ( -0.000000000000000000, -0.000000000000000000, 1.000000000000000000 ) ) ;
#91 = EDGE_LOOP ( 'NONE', ( #163, #104, #34, #78 ) ) ;
#92 = DIRECTION ( 'NONE',  ( 1.000000000000000000, 0.000000000000000000, 0.000000000000000000 ) ) ;
#93 = DIRECTION ( 'NONE',  ( 1.000000000000000000, 0.000000000000000000, 0.000000000000000000 ) ) ;
#94 = APPLICATION_PROTOCOL_DEFINITION ( 'international standard', 'config_control_design', 1994, #23 ) ;
#95 = VECTOR ( 'NONE', #24, 1000.000000000000000 ) ;
#96 = CALENDAR_DATE ( 2022, 7, 6 ) ;
#97 = DIRECTION ( 'NONE',  ( 1.000000000000000000, 0.000000000000000000, 0.000000000000000000 ) ) ;
#98 = DATE_AND_TIME ( #20, #152 ) ;
#99 = FACE_OUTER_BOUND ( 'NONE', #137, .T. ) ;
#100 = COORDINATED_UNIVERSAL_TIME_OFFSET ( 6, 0, .BEHIND. ) ;
#101 = VERTEX_POINT ( 'NONE', #11 ) ;
#102 = APPROVAL_PERSON_ORGANIZATION ( #248, #182, #189 ) ;
#103 = DIRECTION ( 'NONE',  ( 1.000000000000000000, 0.000000000000000000, 0.000000000000000000 ) ) ;
#104 = ORIENTED_EDGE ( 'NONE', *, *, #247, .T. ) ;
#105 = AXIS2_PLACEMENT_3D ( 'NONE', #167, #243, #50 ) ;
#106 = FACE_OUTER_BOUND ( 'NONE', #75, .T. ) ;
#107 = CARTESIAN_POINT ( 'NONE',  ( 0.000000000000000000, 0.000000000000000000, -3.149999999999995470 ) ) ;
#108 = FACE_BOUND ( 'NONE', #5, .T. ) ;
#109 = AXIS2_PLACEMENT_3D ( 'NONE', #72, #229, #112 ) ;
#110 = DIRECTION ( 'NONE',  ( 1.000000000000000000, 0.000000000000000000, 0.000000000000000000 ) ) ;
#111 = APPROVAL_ROLE ( '' ) ;
#112 = DIRECTION ( 'NONE',  ( 1.000000000000000000, 0.000000000000000000, 0.000000000000000000 ) ) ;
#113 = PERSON_AND_ORGANIZATION ( #220, #132 ) ;
#114 = LINE ( 'NONE', #208, #145 ) ;
#115 = CC_DESIGN_DATE_AND_TIME_ASSIGNMENT ( #150, #228, ( #63 ) ) ;
#116 = ORIENTED_EDGE ( 'NONE', *, *, #168, .T. ) ;
#117 = AXIS2_PLACEMENT_3D ( 'NONE', #107, #86, #239 ) ;
#118 = APPLICATION_CONTEXT ( 'configuration controlled 3d designs of mechanical parts and assemblies' ) ;
#119 = ADVANCED_FACE ( 'NONE', ( #53, #73 ), #149, .F. ) ;
#120 = LOCAL_TIME ( 10, 3, 38.00000000000000000, #18 ) ;
#121 = PLANE ( 'NONE',  #214 ) ;
#122 = APPROVAL ( #59, 'UNSPECIFIED' ) ;
#123 = CARTESIAN_POINT ( 'NONE',  ( 0.000000000000000000, 30.30000000000000071, 3.150000000000005240 ) ) ;
#124 = DIRECTION ( 'NONE',  ( -0.000000000000000000, -0.000000000000000000, 1.000000000000000000 ) ) ;
#125 = VECTOR ( 'NONE', #178, 1000.000000000000000 ) ;
#126 = VERTEX_POINT ( 'NONE', #29 ) ;
#127 = DIRECTION ( 'NONE',  ( 1.000000000000000000, 0.000000000000000000, 0.000000000000000000 ) ) ;
#128 = AXIS2_PLACEMENT_3D ( 'NONE', #197, #146, #183 ) ;
#129 = PERSON_AND_ORGANIZATION_ROLE ( 'classification_officer' ) ;
#130 = DATE_AND_TIME ( #187, #176 ) ;
#131 = CYLINDRICAL_SURFACE ( 'NONE', #7, 28.30000000000000071 ) ;
#132 = ORGANIZATION ( 'UNSPECIFIED', 'UNSPECIFIED', '' ) ;
#133 = CARTESIAN_POINT ( 'NONE',  ( 0.000000000000000000, 0.000000000000000000, 0.000000000000000000 ) ) ;
#134 = DATE_AND_TIME ( #65, #38 ) ;
#135 = EDGE_CURVE ( 'NONE', #8, #223, #241, .T. ) ;
#136 = PERSON_AND_ORGANIZATION_ROLE ( 'design_owner' ) ;
#137 = EDGE_LOOP ( 'NONE', ( #166, #51, #71, #213 ) ) ;
#138 = AXIS2_PLACEMENT_3D ( 'NONE', #60, #210, #97 ) ;
#139 = AXIS2_PLACEMENT_3D ( 'NONE', #142, #217, #203 ) ;
#140 = ORIENTED_EDGE ( 'NONE', *, *, #89, .T. ) ;
#141 = CC_DESIGN_PERSON_AND_ORGANIZATION_ASSIGNMENT ( #58, #129, ( #63 ) ) ;
#142 = CARTESIAN_POINT ( 'NONE',  ( 0.000000000000000000, 0.000000000000000000, 3.150000000000004796 ) ) ;
#143 = MANIFOLD_SOLID_BREP ( '228-2500-475', #221 ) ;
#144 = ORIENTED_EDGE ( 'NONE', *, *, #49, .F. ) ;
#145 = VECTOR ( 'NONE', #192, 1000.000000000000000 ) ;
#146 = DIRECTION ( 'NONE',  ( 0.000000000000000000, -0.000000000000000000, 1.000000000000000000 ) ) ;
#147 = EDGE_CURVE ( 'NONE', #198, #194, #35, .T. ) ;
#148 = DIRECTION ( 'NONE',  ( -1.000000000000000000, 0.000000000000000000, -0.000000000000000000 ) ) ;
#149 = PLANE ( 'NONE',  #128 ) ;
#150 = DATE_AND_TIME ( #96, #120 ) ;
#151 = CARTESIAN_POINT ( 'NONE',  ( 30.30000000000000071, 0.000000000000000000, 3.150000000000005240 ) ) ;
#152 = LOCAL_TIME ( 10, 3, 38.00000000000000000, #191 ) ;
#153 = FACE_OUTER_BOUND ( 'NONE', #91, .T. ) ;
#154 = PERSON_AND_ORGANIZATION ( #220, #132 ) ;
#155 = EDGE_LOOP ( 'NONE', ( #140, #175 ) ) ;
#156 = PRODUCT_RELATED_PRODUCT_CATEGORY ( 'detail', '', ( #237 ) ) ;
#157 = PRODUCT_DEFINITION_SHAPE ( 'NONE', 'NONE',  #159 ) ;
#158 = ORIENTED_EDGE ( 'NONE', *, *, #69, .T. ) ;
#159 = PRODUCT_DEFINITION ( 'UNKNOWN', '', #206, #44 ) ;
#160 = CC_DESIGN_APPROVAL ( #122, ( #159 ) ) ;
#161 = CARTESIAN_POINT ( 'NONE',  ( 30.30000000000000071, 0.000000000000000000, 0.000000000000000000 ) ) ;
#162 = CARTESIAN_POINT ( 'NONE',  ( 28.30000000000000071, 0.000000000000000000, -3.149999999999995470 ) ) ;
#163 = ORIENTED_EDGE ( 'NONE', *, *, #168, .F. ) ;
#164 = AXIS2_PLACEMENT_3D ( 'NONE', #9, #90, #103 ) ;
#165 = CC_DESIGN_PERSON_AND_ORGANIZATION_ASSIGNMENT ( #204, #67, ( #206 ) ) ;
#166 = ORIENTED_EDGE ( 'NONE', *, *, #212, .F. ) ;
#167 = CARTESIAN_POINT ( 'NONE',  ( 0.000000000000000000, 0.000000000000000000, 3.150000000000005240 ) ) ;
#168 = EDGE_CURVE ( 'NONE', #193, #48, #25, .T. ) ;
#169 = AXIS2_PLACEMENT_3D ( 'NONE', #133, #41, #110 ) ;
#170 = PERSON_AND_ORGANIZATION_ROLE ( 'creator' ) ;
#171 = CARTESIAN_POINT ( 'NONE',  ( -28.30000000000000071, 3.465750441587009741E-15, -3.149999999999995470 ) ) ;
#172 = APPROVAL_DATE_TIME ( #98, #74 ) ;
#173 = FACE_OUTER_BOUND ( 'NONE', #180, .T. ) ;
#174 = CALENDAR_DATE ( 2022, 7, 6 ) ;
#175 = ORIENTED_EDGE ( 'NONE', *, *, #16, .T. ) ;
#176 = LOCAL_TIME ( 10, 3, 38.00000000000000000, #22 ) ;
#177 = ORIENTED_EDGE ( 'NONE', *, *, #212, .T. ) ;
#178 = DIRECTION ( 'NONE',  ( -0.000000000000000000, -0.000000000000000000, 1.000000000000000000 ) ) ;
#179 = CIRCLE ( 'NONE', #105, 30.30000000000000071 ) ;
#180 = EDGE_LOOP ( 'NONE', ( #158, #177, #47, #30 ) ) ;
#181 = ORIENTED_EDGE ( 'NONE', *, *, #79, .T. ) ;
#182 = APPROVAL ( #209, 'UNSPECIFIED' ) ;
#183 = DIRECTION ( 'NONE',  ( 1.000000000000000000, 0.000000000000000000, 0.000000000000000000 ) ) ;
#184 = CC_DESIGN_APPROVAL ( #74, ( #63 ) ) ;
#185 = DIRECTION ( 'NONE',  ( -0.000000000000000000, -0.000000000000000000, 1.000000000000000000 ) ) ;
#186 = EDGE_CURVE ( 'NONE', #126, #8, #76, .T. ) ;
#187 = CALENDAR_DATE ( 2022, 7, 6 ) ;
#188 = AXIS2_PLACEMENT_3D ( 'NONE', #13, #200, #92 ) ;
#189 = APPROVAL_ROLE ( '' ) ;
#190 = ADVANCED_FACE ( 'NONE', ( #99 ), #19, .T. ) ;
#191 = COORDINATED_UNIVERSAL_TIME_OFFSET ( 6, 0, .BEHIND. ) ;
#192 = DIRECTION ( 'NONE',  ( -0.000000000000000000, -0.000000000000000000, 1.000000000000000000 ) ) ;
#193 = VERTEX_POINT ( 'NONE', #171 ) ;
#194 = VERTEX_POINT ( 'NONE', #249 ) ;
#195 = ADVANCED_BREP_SHAPE_REPRESENTATION ( '228-2500-475', ( #143, #199 ), #87 ) ;
#196 = ORIENTED_EDGE ( 'NONE', *, *, #186, .F. ) ;
#197 = CARTESIAN_POINT ( 'NONE',  ( 0.000000000000000000, 30.30000000000000071, -3.149999999999995026 ) ) ;
#198 = VERTEX_POINT ( 'NONE', #81 ) ;
#199 = AXIS2_PLACEMENT_3D ( 'NONE', #233, #82, #93 ) ;
#200 = DIRECTION ( 'NONE',  ( -0.000000000000000000, -0.000000000000000000, 1.000000000000000000 ) ) ;
#201 = EDGE_CURVE ( 'NONE', #48, #194, #43, .T. ) ;
#202 = CARTESIAN_POINT ( 'NONE',  ( 0.000000000000000000, 0.000000000000000000, 3.150000000000004796 ) ) ;
#203 = DIRECTION ( 'NONE',  ( 1.000000000000000000, 0.000000000000000000, 0.000000000000000000 ) ) ;
#204 = PERSON_AND_ORGANIZATION ( #220, #132 ) ;
#205 = CARTESIAN_POINT ( 'NONE',  ( 0.000000000000000000, 0.000000000000000000, 0.000000000000000000 ) ) ;
#206 = PRODUCT_DEFINITION_FORMATION_WITH_SPECIFIED_SOURCE ( 'ANY', '', #237, .NOT_KNOWN. ) ;
#207 = PERSON_AND_ORGANIZATION ( #220, #132 ) ;
#208 = CARTESIAN_POINT ( 'NONE',  ( -28.30000000000000071, 3.465750441587009741E-15, 0.000000000000000000 ) ) ;
#209 = APPROVAL_STATUS ( 'not_yet_approved' ) ;
#210 = DIRECTION ( 'NONE',  ( -0.000000000000000000, -0.000000000000000000, 1.000000000000000000 ) ) ;
#211 = DATE_TIME_ROLE ( 'creation_date' ) ;
#212 = EDGE_CURVE ( 'NONE', #126, #101, #226, .T. ) ;
#213 = ORIENTED_EDGE ( 'NONE', *, *, #16, .F. ) ;
#214 = AXIS2_PLACEMENT_3D ( 'NONE', #123, #240, #148 ) ;
#215 = ORIENTED_EDGE ( 'NONE', *, *, #147, .F. ) ;
#216 = AXIS2_PLACEMENT_3D ( 'NONE', #55, #185, #52 ) ;
#217 = DIRECTION ( 'NONE',  ( -0.000000000000000000, -0.000000000000000000, 1.000000000000000000 ) ) ;
#218 = ADVANCED_FACE ( 'NONE', ( #173 ), #66, .T. ) ;
#219 = FACE_OUTER_BOUND ( 'NONE', #155, .T. ) ;
#220 = PERSON ( 'UNSPECIFIED', 'UNSPECIFIED', 'UNSPECIFIED', ('UNSPECIFIED'), ('UNSPECIFIED'), ('UNSPECIFIED') ) ;
#221 = CLOSED_SHELL ( 'NONE', ( #227, #218, #119, #190, #62, #36 ) ) ;
#222 = DIRECTION ( 'NONE',  ( 1.000000000000000000, 0.000000000000000000, 0.000000000000000000 ) ) ;
#223 = VERTEX_POINT ( 'NONE', #151 ) ;
#224 = SECURITY_CLASSIFICATION_LEVEL ( 'unclassified' ) ;
#225 = APPLICATION_PROTOCOL_DEFINITION ( 'international standard', 'config_control_design', 1994, #118 ) ;
#226 = LINE ( 'NONE', #84, #31 ) ;
#227 = ADVANCED_FACE ( 'NONE', ( #153 ), #131, .F. ) ;
#228 = DATE_TIME_ROLE ( 'classification_date' ) ;
#229 = DIRECTION ( 'NONE',  ( -0.000000000000000000, -0.000000000000000000, 1.000000000000000000 ) ) ;
#230 = CC_DESIGN_APPROVAL ( #182, ( #206 ) ) ;
#231 = APPROVAL_DATE_TIME ( #130, #122 ) ;
#232 = DIRECTION ( 'NONE',  ( -0.000000000000000000, -0.000000000000000000, 1.000000000000000000 ) ) ;
#233 = CARTESIAN_POINT ( 'NONE',  ( 0.000000000000000000, 0.000000000000000000, 0.000000000000000000 ) ) ;
#234 = CC_DESIGN_PERSON_AND_ORGANIZATION_ASSIGNMENT ( #45, #136, ( #237 ) ) ;
#235 = UNCERTAINTY_MEASURE_WITH_UNIT (LENGTH_MEASURE( 1.000000000000000082E-05 ), #21, 'distance_accuracy_value', 'NONE');
#236 = ORIENTED_EDGE ( 'NONE', *, *, #79, .F. ) ;
#237 = PRODUCT ( '228-2500-475', '228-2500-475', '', ( #15 ) ) ;
#238 = AXIS2_PLACEMENT_3D ( 'NONE', #77, #124, #127 ) ;
#239 = DIRECTION ( 'NONE',  ( 1.000000000000000000, 0.000000000000000000, 0.000000000000000000 ) ) ;
#240 = DIRECTION ( 'NONE',  ( 0.000000000000000000, 0.000000000000000000, -1.000000000000000000 ) ) ;
#241 = LINE ( 'NONE', #161, #125 ) ;
#242 = EDGE_LOOP ( 'NONE', ( #181, #116 ) ) ;
#243 = DIRECTION ( 'NONE',  ( -0.000000000000000000, -0.000000000000000000, 1.000000000000000000 ) ) ;
#244 = DATE_AND_TIME ( #174, #27 ) ;
#245 = AXIS2_PLACEMENT_3D ( 'NONE', #202, #6, #222 ) ;
#246 = COORDINATED_UNIVERSAL_TIME_OFFSET ( 6, 0, .BEHIND. ) ;
#247 = EDGE_CURVE ( 'NONE', #193, #198, #114, .T. ) ;
#248 = PERSON_AND_ORGANIZATION ( #220, #132 ) ;
#249 = CARTESIAN_POINT ( 'NONE',  ( 28.30000000000000071, 0.000000000000000000, 3.150000000000004796 ) ) ;
ENDSEC;
END-ISO-10303-21;
