ISO-10303-21;
HEADER;
FILE_DESCRIPTION (( 'STEP AP203' ),
    '1' );
FILE_NAME ('228-2500-207.step',
    '2022-06-06T19:47:04',
    ( '' ),
    ( '' ),
    'SwSTEP 2.0',
    'SolidWorks 2021',
    '' );
FILE_SCHEMA (( 'CONFIG_CONTROL_DESIGN' ));
ENDSEC;

DATA;
#1 = DIRECTION ( 'NONE',  ( -0.000000000000000000, -0.000000000000000000, -1.000000000000000000 ) ) ;
#2 = ORIENTED_EDGE ( 'NONE', *, *, #35, .T. ) ;
#3 =( BOUNDED_SURFACE ( )  B_SPLINE_SURFACE ( 3, 3, ( 
 ( #400, #670, #658, #340 ),
 ( #593, #270, #275, #209 ),
 ( #738, #91, #350, #29 ),
 ( #589, #541, #521, #281 ) ),
 .UNSPECIFIED., .F., .F., .F. ) 
 B_SPLINE_SURFACE_WITH_KNOTS ( ( 4, 4 ),
 ( 4, 4 ),
 ( 0.000000000000000000, 1.000000000000000000 ),
 ( 0.000000000000000000, 1.000000000000000000 ),
 .UNSPECIFIED. ) 
 GEOMETRIC_REPRESENTATION_ITEM ( )  RATIONAL_B_SPLINE_SURFACE ( (
 ( 1.000000000000000000, 0.3333333333333334259, 0.3333333333333334259, 1.000000000000000000),
 ( 0.9095097998186920663, 0.3031699332728974294, 0.3031699332728974294, 0.9095097998186920663),
 ( 0.9095097998186920663, 0.3031699332728974294, 0.3031699332728974294, 0.9095097998186920663),
 ( 1.000000000000000000, 0.3333333333333334259, 0.3333333333333334259, 1.000000000000000000) ) ) 
 REPRESENTATION_ITEM ( '' )  SURFACE ( )  );
#4 = CARTESIAN_POINT ( 'NONE',  ( 0.000000000000000000, 0.000000000000000000, 2.761824088833462643 ) ) ;
#5 = LINE ( 'NONE', #120, #735 ) ;
#6 = CARTESIAN_POINT ( 'NONE',  ( 15.14404936914098521, -3.709222317209599720E-15, -2.921953471197003882 ) ) ;
#7 = AXIS2_PLACEMENT_3D ( 'NONE', #753, #767, #175 ) ;
#8 = AXIS2_PLACEMENT_3D ( 'NONE', #245, #124, #56 ) ;
#9 = EDGE_CURVE ( 'NONE', #343, #338, #622, .T. ) ;
#10 = CARTESIAN_POINT ( 'NONE',  ( 0.000000000000000000, 0.000000000000000000, -1.924215411476135840 ) ) ;
#11 = CARTESIAN_POINT ( 'NONE',  ( 9.602983972297794324, 19.20596794459558510, 0.8451236329207443276 ) ) ;
#12 = EDGE_LOOP ( 'NONE', ( #171, #698, #679, #354 ) ) ;
#13 = CARTESIAN_POINT ( 'NONE',  ( 14.70929198500000190, 0.000000000000000000, -2.674999999999999822 ) ) ;
#14 = DIRECTION ( 'NONE',  ( -0.000000000000000000, -0.000000000000000000, -1.000000000000000000 ) ) ;
#15 = ORIENTED_EDGE ( 'NONE', *, *, #316, .T. ) ;
#16 = EDGE_CURVE ( 'NONE', #79, #412, #498, .T. ) ;
#17 = FACE_OUTER_BOUND ( 'NONE', #349, .T. ) ;
#18 = CARTESIAN_POINT ( 'NONE',  ( 15.14404936914098521, 30.28809873828196331, -2.921953471197003882 ) ) ;
#19 = CARTESIAN_POINT ( 'NONE',  ( 14.70929198500000190, 0.000000000000000000, -3.174999999999999822 ) ) ;
#20 = ORIENTED_EDGE ( 'NONE', *, *, #673, .F. ) ;
#21 = DIRECTION ( 'NONE',  ( -1.000000000000000000, 0.000000000000000000, -0.000000000000000000 ) ) ;
#22 = CIRCLE ( 'NONE', #485, 0.5000000000000004441 ) ;
#23 = CARTESIAN_POINT ( 'NONE',  ( -14.70929198500000190, 1.080821240829243930E-15, -3.174999999999999822 ) ) ;
#24 = ORIENTED_EDGE ( 'NONE', *, *, #695, .T. ) ;
#25 = CARTESIAN_POINT ( 'NONE',  ( -15.91599999999999859, 31.83199999999999719, 1.030183294398931970 ) ) ;
#26 = FACE_OUTER_BOUND ( 'NONE', #757, .T. ) ;
#27 = ORIENTED_EDGE ( 'NONE', *, *, #695, .F. ) ;
#28 = CALENDAR_DATE ( 2022, 6, 6 ) ;
#29 = CARTESIAN_POINT ( 'NONE',  ( 14.89365404600296650, 1.823946575504555644E-15, 3.174999999999999822 ) ) ;
#30 = ADVANCED_FACE ( 'NONE', ( #815 ), #637, .T. ) ;
#31 = ORIENTED_EDGE ( 'NONE', *, *, #191, .T. ) ;
#32 = FACE_OUTER_BOUND ( 'NONE', #706, .T. ) ;
#33 = PERSON ( 'UNSPECIFIED', 'UNSPECIFIED', 'UNSPECIFIED', ('UNSPECIFIED'), ('UNSPECIFIED'), ('UNSPECIFIED') ) ;
#34 = LOCAL_TIME ( 14, 47, 4.000000000000000000, #153 ) ;
#35 = EDGE_CURVE ( 'NONE', #338, #506, #142, .T. ) ;
#36 = AXIS2_PLACEMENT_3D ( 'NONE', #133, #512, #385 ) ;
#37 = ORIENTED_EDGE ( 'NONE', *, *, #316, .F. ) ;
#38 = CARTESIAN_POINT ( 'NONE',  ( 15.14404936914117528, -3.709222317209647051E-15, 2.921953471196667707 ) ) ;
#39 =( BOUNDED_SURFACE ( )  B_SPLINE_SURFACE ( 3, 3, ( 
 ( #676, #98, #356, #610 ),
 ( #291, #67, #705, #444 ),
 ( #571, #457, #251, #513 ),
 ( #184, #576, #201, #6 ) ),
 .UNSPECIFIED., .F., .F., .F. ) 
 B_SPLINE_SURFACE_WITH_KNOTS ( ( 4, 4 ),
 ( 4, 4 ),
 ( 0.000000000000000000, 1.000000000000000000 ),
 ( 0.000000000000000000, 1.000000000000000000 ),
 .UNSPECIFIED. ) 
 GEOMETRIC_REPRESENTATION_ITEM ( )  RATIONAL_B_SPLINE_SURFACE ( (
 ( 1.000000000000000000, 0.3333333333333334259, 0.3333333333333334259, 1.000000000000000000),
 ( 0.9778856789844163622, 0.3259618929948055466, 0.3259618929948055466, 0.9778856789844163622),
 ( 0.9778856789844163622, 0.3259618929948055466, 0.3259618929948055466, 0.9778856789844163622),
 ( 1.000000000000000000, 0.3333333333333334259, 0.3333333333333334259, 1.000000000000000000) ) ) 
 REPRESENTATION_ITEM ( '' )  SURFACE ( )  );
#40 = FACE_OUTER_BOUND ( 'NONE', #398, .T. ) ;
#41 = ORIENTED_EDGE ( 'NONE', *, *, #16, .F. ) ;
#42 = DIRECTION ( 'NONE',  ( 0.000000000000000000, -1.000000000000000000, 0.000000000000000000 ) ) ;
#43 = CARTESIAN_POINT ( 'NONE',  ( -15.05299166729693461, -3.686919612589392963E-15, 3.082259005948608355 ) ) ;
#44 = CARTESIAN_POINT ( 'NONE',  ( 10.90394390755282927, -21.80788781510566920, -1.924215411476137394 ) ) ;
#45 = CARTESIAN_POINT ( 'NONE',  ( 0.000000000000000000, 0.000000000000000000, 1.924215411476136062 ) ) ;
#46 = DIRECTION ( 'NONE',  ( -0.000000000000000000, -0.000000000000000000, -1.000000000000000000 ) ) ;
#47 = PRODUCT_DEFINITION_FORMATION_WITH_SPECIFIED_SOURCE ( 'ANY', '', #326, .NOT_KNOWN. ) ;
#48 = DIRECTION ( 'NONE',  ( -0.000000000000000000, -0.000000000000000000, -1.000000000000000000 ) ) ;
#49 = CARTESIAN_POINT ( 'NONE',  ( 0.000000000000000000, 0.000000000000000000, 1.924215411476136062 ) ) ;
#50 = CONICAL_SURFACE ( 'NONE', #554, 12.32714593908253597, 0.1745329251994285347 ) ;
#51 = DIRECTION ( 'NONE',  ( -0.000000000000000000, -0.000000000000000000, -1.000000000000000000 ) ) ;
#52 = CARTESIAN_POINT ( 'NONE',  ( 14.70929198500000012, 29.41858397000000380, 3.174999999999999822 ) ) ;
#53 = CARTESIAN_POINT ( 'NONE',  ( -14.89365404600281728, 1.823946575504537106E-15, -3.175000000000000266 ) ) ;
#54 = CARTESIAN_POINT ( 'NONE',  ( 0.000000000000000000, 0.000000000000000000, -3.174999999999999822 ) ) ;
#55 = CARTESIAN_POINT ( 'NONE',  ( -14.70929198500000190, 1.801368734715406747E-15, -2.674999999999999822 ) ) ;
#56 = DIRECTION ( 'NONE',  ( 1.000000000000000000, 0.000000000000000000, 0.000000000000000000 ) ) ;
#57 = DIRECTION ( 'NONE',  ( 1.000000000000000000, 0.000000000000000000, 0.000000000000000000 ) ) ;
#58 = CARTESIAN_POINT ( 'NONE',  ( 15.14404936913980215, -3.709222317209310208E-15, -2.921953471196331975 ) ) ;
#59 = EDGE_CURVE ( 'NONE', #611, #212, #220, .T. ) ;
#60 = DIRECTION ( 'NONE',  ( -1.000000000000000000, 0.000000000000000000, 0.000000000000000000 ) ) ;
#61 = CARTESIAN_POINT ( 'NONE',  ( 0.000000000000000000, 12.50000000000000000, -3.174999999999999822 ) ) ;
#62 = CIRCLE ( 'NONE', #475, 12.32714593908253597 ) ;
#63 = EDGE_LOOP ( 'NONE', ( #20, #568 ) ) ;
#64 = DIRECTION ( 'NONE',  ( -1.000000000000000000, -1.224646799147353454E-16, 0.000000000000000000 ) ) ;
#65 = ORIENTED_EDGE ( 'NONE', *, *, #597, .T. ) ;
#66 = CARTESIAN_POINT ( 'NONE',  ( -12.81954981558864048, 0.000000000000000000, -3.174999999999999822 ) ) ;
#67 = CARTESIAN_POINT ( 'NONE',  ( -15.91600000000000392, -31.83199999999999008, -1.030183294399065419 ) ) ;
#68 = CARTESIAN_POINT ( 'NONE',  ( 9.602983972297794324, 0.000000000000000000, 0.8451236329207443276 ) ) ;
#69 = CARTESIAN_POINT ( 'NONE',  ( -15.14404936914039190, 1.854611158604727285E-15, -2.921953471196666818 ) ) ;
#70 = CIRCLE ( 'NONE', #180, 0.5000000000000004441 ) ;
#71 = AXIS2_PLACEMENT_3D ( 'NONE', #45, #294, #675 ) ;
#72 = CARTESIAN_POINT ( 'NONE',  ( -15.91599999999999504, 31.83199999999999008, -1.030183294399065419 ) ) ;
#73 = CONICAL_SURFACE ( 'NONE', #778, 10.90394390755283460, 1.518436449235069485 ) ;
#74 = CARTESIAN_POINT ( 'NONE',  ( -10.90394390755283283, 1.335348000446685842E-15, 1.924215411476136284 ) ) ;
#75 = ORIENTED_EDGE ( 'NONE', *, *, #310, .T. ) ;
#76 = PERSON_AND_ORGANIZATION ( #33, #341 ) ;
#77 = FACE_OUTER_BOUND ( 'NONE', #616, .T. ) ;
#78 = DIRECTION ( 'NONE',  ( -1.000000000000000000, 0.000000000000000000, 0.000000000000000000 ) ) ;
#79 = VERTEX_POINT ( 'NONE', #108 ) ;
#80 = CALENDAR_DATE ( 2022, 6, 6 ) ;
#81 = EDGE_LOOP ( 'NONE', ( #666, #41 ) ) ;
#82 = APPROVAL_DATE_TIME ( #596, #591 ) ;
#83 = APPROVAL_PERSON_ORGANIZATION ( #141, #170, #736 ) ;
#84 = CIRCLE ( 'NONE', #667, 2.500000000000000444 ) ;
#85 = MANIFOLD_SOLID_BREP ( '228-2500-207', #511 ) ;
#86 = FACE_OUTER_BOUND ( 'NONE', #710, .T. ) ;
#87 = EDGE_LOOP ( 'NONE', ( #575, #592, #766, #96 ) ) ;
#88 = CONICAL_SURFACE ( 'NONE', #185, 12.19134972547525031, 0.1745329251994283126 ) ;
#89 = DATE_TIME_ROLE ( 'classification_date' ) ;
#90 = EDGE_CURVE ( 'NONE', #803, #231, #664, .T. ) ;
#91 = CARTESIAN_POINT ( 'NONE',  ( -14.89365404600296294, 29.78730809200591878, 3.175000000000000266 ) ) ;
#92 = FACE_OUTER_BOUND ( 'NONE', #168, .T. ) ;
#93 = ORIENTED_EDGE ( 'NONE', *, *, #152, .F. ) ;
#94 = DATE_AND_TIME ( #218, #566 ) ;
#95 = EDGE_CURVE ( 'NONE', #747, #547, #70, .T. ) ;
#96 = ORIENTED_EDGE ( 'NONE', *, *, #628, .F. ) ;
#97 = CARTESIAN_POINT ( 'NONE',  ( 15.65286405018203553, -31.30572810036408882, 2.026193882682028935 ) ) ;
#98 = CARTESIAN_POINT ( 'NONE',  ( -15.91600000000000215, -31.83199999999999363, 0.000000000000000000 ) ) ;
#99 = ADVANCED_FACE ( 'NONE', ( #500 ), #751, .T. ) ;
#100 = CIRCLE ( 'NONE', #167, 12.32714593908253597 ) ;
#101 = ORIENTED_EDGE ( 'NONE', *, *, #323, .T. ) ;
#102 = CARTESIAN_POINT ( 'NONE',  ( 12.50000000000000000, 1.530808498934191521E-15, -2.007861166892455529 ) ) ;
#103 = AXIS2_PLACEMENT_3D ( 'NONE', #395, #406, #214 ) ;
#104 = CARTESIAN_POINT ( 'NONE',  ( 14.89365404600296650, 1.823946575504555644E-15, 3.174999999999999822 ) ) ;
#105 = ORIENTED_EDGE ( 'NONE', *, *, #746, .F. ) ;
#106 = EDGE_CURVE ( 'NONE', #739, #562, #357, .T. ) ;
#107 = CARTESIAN_POINT ( 'NONE',  ( -15.91599999999999682, 31.83199999999999363, 0.000000000000000000 ) ) ;
#108 = CARTESIAN_POINT ( 'NONE',  ( 12.81954981558864048, 1.569942064817067149E-15, -3.174999999999999822 ) ) ;
#109 = DIRECTION ( 'NONE',  ( 0.9986295347545740553, 1.222968463271199652E-16, -0.05233595624294107990 ) ) ;
#110 = EDGE_LOOP ( 'NONE', ( #217, #763 ) ) ;
#111 = CARTESIAN_POINT ( 'NONE',  ( 0.000000000000000000, 0.000000000000000000, 1.991685491429513455 ) ) ;
#112 = CARTESIAN_POINT ( 'NONE',  ( 0.000000000000000000, 0.000000000000000000, 3.174999999999999822 ) ) ;
#113 = CARTESIAN_POINT ( 'NONE',  ( -15.91599999999999859, 1.949147845522926944E-15, 1.030183294398931748 ) ) ;
#114 = CIRCLE ( 'NONE', #8, 15.14404936914117350 ) ;
#115 = CARTESIAN_POINT ( 'NONE',  ( -14.70929198500000545, -29.41858397000000025, -3.174999999999999822 ) ) ;
#116 = EDGE_CURVE ( 'NONE', #248, #494, #680, .T. ) ;
#117 = TOROIDAL_SURFACE ( 'NONE', #585, 12.81954981558864048, 0.5000000000000000000 ) ;
#118 =( BOUNDED_CURVE ( )  B_SPLINE_CURVE ( 3, ( #490, #230, #166, #162 ),
 .UNSPECIFIED., .F., .F. ) 
 B_SPLINE_CURVE_WITH_KNOTS ( ( 4, 4 ),
 ( 0.000000000000000000, 1.000000000000000000 ),
 .UNSPECIFIED. ) 
 CURVE ( )  GEOMETRIC_REPRESENTATION_ITEM ( )  RATIONAL_B_SPLINE_CURVE ( ( 1.000000000000000000, 0.3333333333333333703, 0.3333333333333333703, 1.000000000000000000 ) ) 
 REPRESENTATION_ITEM ( '' )  );
#119 = CARTESIAN_POINT ( 'NONE',  ( -9.602983972297794324, 1.176026358393782725E-15, 0.8451236329207443276 ) ) ;
#120 = CARTESIAN_POINT ( 'NONE',  ( -12.32714593908253597, 1.509639981691972157E-15, 2.761824088833462643 ) ) ;
#121 = CARTESIAN_POINT ( 'NONE',  ( 0.000000000000000000, 0.000000000000000000, 0.000000000000000000 ) ) ;
#122 = ADVANCED_FACE ( 'NONE', ( #77 ), #286, .F. ) ;
#123 = CARTESIAN_POINT ( 'NONE',  ( -15.14404936913980215, 1.854611158604655104E-15, -2.921953471196331975 ) ) ;
#124 = DIRECTION ( 'NONE',  ( 0.000000000000000000, 0.000000000000000000, 1.000000000000000000 ) ) ;
#125 = CARTESIAN_POINT ( 'NONE',  ( -14.70929198500000190, -29.41858397000000380, 3.174999999999999822 ) ) ;
#126 = EDGE_LOOP ( 'NONE', ( #441, #65, #482, #800 ) ) ;
#127 = CARTESIAN_POINT ( 'NONE',  ( -14.89365404600281728, 1.823946575504537106E-15, -3.175000000000000266 ) ) ;
#128 = CARTESIAN_POINT ( 'NONE',  ( 14.89365404600281728, 0.000000000000000000, -3.175000000000000266 ) ) ;
#129 = DIRECTION ( 'NONE',  ( -1.000000000000000000, 0.000000000000000000, 0.000000000000000000 ) ) ;
#130 = VECTOR ( 'NONE', #256, 1000.000000000000000 ) ;
#131 = ORIENTED_EDGE ( 'NONE', *, *, #651, .T. ) ;
#132 = CARTESIAN_POINT ( 'NONE',  ( -10.90394390755283460, 1.335348000446686039E-15, 1.924215411476136062 ) ) ;
#133 = CARTESIAN_POINT ( 'NONE',  ( 14.70929198500000190, 1.801368734715406747E-15, 2.674999999999999822 ) ) ;
#134 = ADVANCED_FACE ( 'NONE', ( #380 ), #631, .T. ) ;
#135 = DIRECTION ( 'NONE',  ( 1.000000000000000000, 0.000000000000000000, 0.000000000000000000 ) ) ;
#136 = CARTESIAN_POINT ( 'NONE',  ( 15.65286405018198046, 0.000000000000000000, -2.026193882682281622 ) ) ;
#137 = DIRECTION ( 'NONE',  ( -0.000000000000000000, -0.000000000000000000, -1.000000000000000000 ) ) ;
#138 = FACE_OUTER_BOUND ( 'NONE', #538, .T. ) ;
#139 = CARTESIAN_POINT ( 'NONE',  ( 10.90394390755283283, 21.80788781510566210, 1.924215411476136284 ) ) ;
#140 = ORIENTED_EDGE ( 'NONE', *, *, #707, .F. ) ;
#141 = PERSON_AND_ORGANIZATION ( #33, #341 ) ;
#142 = CIRCLE ( 'NONE', #7, 5.915999999999999481 ) ;
#143 = CIRCLE ( 'NONE', #749, 0.5000000000000000000 ) ;
#144 = DIRECTION ( 'NONE',  ( -0.000000000000000000, -0.000000000000000000, -1.000000000000000000 ) ) ;
#145 = CIRCLE ( 'NONE', #223, 10.90394390755283460 ) ;
#146 = CARTESIAN_POINT ( 'NONE',  ( 0.000000000000000000, 0.000000000000000000, -2.674999999999999822 ) ) ;
#147 = CARTESIAN_POINT ( 'NONE',  ( 0.000000000000000000, 0.000000000000000000, -2.761824088833463531 ) ) ;
#148 = EDGE_LOOP ( 'NONE', ( #293, #674, #360, #503 ) ) ;
#149 = CARTESIAN_POINT ( 'NONE',  ( 15.91599999999999859, 0.000000000000000000, 1.030183294398931748 ) ) ;
#150 = DIRECTION ( 'NONE',  ( -1.000000000000000000, 1.224646799147352961E-16, 0.000000000000000000 ) ) ;
#151 = ORIENTED_EDGE ( 'NONE', *, *, #374, .F. ) ;
#152 = EDGE_CURVE ( 'NONE', #416, #535, #388, .T. ) ;
#153 = COORDINATED_UNIVERSAL_TIME_OFFSET ( 6, 0, .BEHIND. ) ;
#154 = VECTOR ( 'NONE', #297, 1000.000000000000000 ) ;
#155 = CARTESIAN_POINT ( 'NONE',  ( 0.000000000000000000, 14.99183643561999979, 3.174999999999999822 ) ) ;
#156 = ORIENTED_EDGE ( 'NONE', *, *, #176, .T. ) ;
#157 = CIRCLE ( 'NONE', #103, 0.5000000000000004441 ) ;
#158 = EDGE_CURVE ( 'NONE', #343, #473, #697, .T. ) ;
#159 = APPROVAL_DATE_TIME ( #94, #759 ) ;
#160 = ORIENTED_EDGE ( 'NONE', *, *, #519, .T. ) ;
#161 = DIRECTION ( 'NONE',  ( -0.000000000000000000, -0.000000000000000000, -1.000000000000000000 ) ) ;
#162 = CARTESIAN_POINT ( 'NONE',  ( -14.70929198500000190, 1.080821240829243930E-15, -3.174999999999999822 ) ) ;
#163 = EDGE_CURVE ( 'NONE', #412, #452, #143, .T. ) ;
#164 = ORIENTED_EDGE ( 'NONE', *, *, #509, .F. ) ;
#165 = DIRECTION ( 'NONE',  ( -1.000000000000000000, 0.000000000000000000, 0.000000000000000000 ) ) ;
#166 = CARTESIAN_POINT ( 'NONE',  ( -14.70929198500000012, 29.41858397000000380, -3.174999999999999822 ) ) ;
#167 = AXIS2_PLACEMENT_3D ( 'NONE', #758, #764, #704 ) ;
#168 = EDGE_LOOP ( 'NONE', ( #619, #324 ) ) ;
#169 = CARTESIAN_POINT ( 'NONE',  ( 14.70929198500000190, -29.41858397000000380, -3.174999999999999822 ) ) ;
#170 = APPROVAL ( #393, 'UNSPECIFIED' ) ;
#171 = ORIENTED_EDGE ( 'NONE', *, *, #597, .F. ) ;
#172 = CARTESIAN_POINT ( 'NONE',  ( -15.91600000000000215, -31.83199999999999363, 0.000000000000000000 ) ) ;
#173 = VERTEX_POINT ( 'NONE', #552 ) ;
#174 = CARTESIAN_POINT ( 'NONE',  ( 0.000000000000000000, 0.000000000000000000, 1.924215411476136062 ) ) ;
#175 = DIRECTION ( 'NONE',  ( 1.000000000000000000, 0.000000000000000000, 0.000000000000000000 ) ) ;
#176 = EDGE_CURVE ( 'NONE', #248, #810, #539, .T. ) ;
#177 = DIRECTION ( 'NONE',  ( -0.000000000000000000, -0.000000000000000000, -1.000000000000000000 ) ) ;
#178 = ORIENTED_EDGE ( 'NONE', *, *, #152, .T. ) ;
#179 = DIRECTION ( 'NONE',  ( -1.000000000000000000, 0.000000000000000000, 0.000000000000000000 ) ) ;
#180 = AXIS2_PLACEMENT_3D ( 'NONE', #55, #821, #242 ) ;
#181 = CONICAL_SURFACE ( 'NONE', #762, 12.19134972547525031, 0.1745329251994283126 ) ;
#182 = CARTESIAN_POINT ( 'NONE',  ( 15.05299166729669125, 0.000000000000000000, -3.082259005948744690 ) ) ;
#183 = EDGE_CURVE ( 'NONE', #506, #473, #244, .T. ) ;
#184 = CARTESIAN_POINT ( 'NONE',  ( -15.14404936914098521, 1.854611158604799860E-15, -2.921953471197003882 ) ) ;
#185 = AXIS2_PLACEMENT_3D ( 'NONE', #659, #348, #600 ) ;
#186 = CARTESIAN_POINT ( 'NONE',  ( 12.32714593908253597, 1.539791023254519555E-15, 2.761824088833462643 ) ) ;
#187 = CARTESIAN_POINT ( 'NONE',  ( 0.000000000000000000, 0.000000000000000000, -2.921953471196666818 ) ) ;
#188 = ORIENTED_EDGE ( 'NONE', *, *, #465, .T. ) ;
#189 = CARTESIAN_POINT ( 'NONE',  ( 15.91600000000000037, 0.000000000000000000, 0.000000000000000000 ) ) ;
#190 = ORIENTED_EDGE ( 'NONE', *, *, #158, .T. ) ;
#191 = EDGE_CURVE ( 'NONE', #810, #226, #825, .T. ) ;
#192 = DIRECTION ( 'NONE',  ( -0.1736481776669259736, 2.126576849575718297E-17, 0.9848077530122089085 ) ) ;
#193 = ORIENTED_EDGE ( 'NONE', *, *, #777, .F. ) ;
#194 = DIRECTION ( 'NONE',  ( 0.000000000000000000, 0.000000000000000000, 1.000000000000000000 ) ) ;
#195 = CIRCLE ( 'NONE', #639, 12.32714593908253597 ) ;
#196 = EDGE_LOOP ( 'NONE', ( #693, #332, #384, #445 ) ) ;
#197 = VECTOR ( 'NONE', #733, 1000.000000000000000 ) ;
#198 = CARTESIAN_POINT ( 'NONE',  ( -15.91600000000000037, 1.949147845522926944E-15, 0.000000000000000000 ) ) ;
#199 = CC_DESIGN_DATE_AND_TIME_ASSIGNMENT ( #339, #527, ( #429 ) ) ;
#200 = CARTESIAN_POINT ( 'NONE',  ( -15.05299166729668947, 30.10598333459337894, -3.082259005948744246 ) ) ;
#201 = CARTESIAN_POINT ( 'NONE',  ( 15.14404936914097988, -30.28809873828197041, -2.921953471197003882 ) ) ;
#202 = DIRECTION ( 'NONE',  ( -1.224646799147353207E-16, -1.000000000000000000, 0.000000000000000000 ) ) ;
#203 = DIRECTION ( 'NONE',  ( 1.000000000000000000, 0.000000000000000000, 0.000000000000000000 ) ) ;
#204 = AXIS2_PLACEMENT_3D ( 'NONE', #556, #48, #301 ) ;
#205 = AXIS2_PLACEMENT_3D ( 'NONE', #10, #144, #652 ) ;
#206 = CIRCLE ( 'NONE', #685, 12.81954981558864048 ) ;
#207 = CARTESIAN_POINT ( 'NONE',  ( -10.90394390755283105, 21.80788781510566565, -1.924215411476137394 ) ) ;
#208 = PERSON_AND_ORGANIZATION ( #33, #341 ) ;
#209 = CARTESIAN_POINT ( 'NONE',  ( 15.05299166729693638, 1.843459806294696876E-15, 3.082259005948608355 ) ) ;
#210 = ADVANCED_FACE ( 'NONE', ( #422 ), #50, .F. ) ;
#211 = CARTESIAN_POINT ( 'NONE',  ( 10.00000000000000000, 0.000000000000000000, 0.000000000000000000 ) ) ;
#212 = VERTEX_POINT ( 'NONE', #617 ) ;
#213 = PERSON_AND_ORGANIZATION ( #33, #341 ) ;
#214 = DIRECTION ( 'NONE',  ( -1.000000000000000000, -1.224646799147353454E-16, 0.000000000000000000 ) ) ;
#215 = ADVANCED_FACE ( 'NONE', ( #238 ), #262, .F. ) ;
#216 = CARTESIAN_POINT ( 'NONE',  ( 9.602983972297794324, 0.000000000000000000, -0.8451236329207465481 ) ) ;
#217 = ORIENTED_EDGE ( 'NONE', *, *, #59, .T. ) ;
#218 = CALENDAR_DATE ( 2022, 6, 6 ) ;
#219 = CARTESIAN_POINT ( 'NONE',  ( 12.19134972547524498, 0.000000000000000000, 1.991685491429513455 ) ) ;
#220 = CIRCLE ( 'NONE', #243, 12.81954981558864048 ) ;
#221 = TOROIDAL_SURFACE ( 'NONE', #448, 12.81954981558864048, 0.5000000000000000000 ) ;
#222 = ORIENTED_EDGE ( 'NONE', *, *, #366, .T. ) ;
#223 = AXIS2_PLACEMENT_3D ( 'NONE', #831, #765, #761 ) ;
#224 = CARTESIAN_POINT ( 'NONE',  ( -12.19134972547525209, 0.000000000000000000, -1.991685491429513455 ) ) ;
#225 = CARTESIAN_POINT ( 'NONE',  ( 15.65286405018204619, 0.000000000000000000, 2.026193882682028935 ) ) ;
#226 = VERTEX_POINT ( 'NONE', #224 ) ;
#227 = CARTESIAN_POINT ( 'NONE',  ( -15.14404936913999222, -3.709222317209357539E-15, 2.921953471195995800 ) ) ;
#228 = EDGE_LOOP ( 'NONE', ( #515, #313, #790, #131 ) ) ;
#229 = CARTESIAN_POINT ( 'NONE',  ( 0.000000000000000000, 0.000000000000000000, -2.007861166892455529 ) ) ;
#230 = CARTESIAN_POINT ( 'NONE',  ( 14.70929198500000190, 29.41858397000000380, -3.174999999999999822 ) ) ;
#231 = VERTEX_POINT ( 'NONE', #613 ) ;
#232 = CIRCLE ( 'NONE', #682, 10.90394390755283460 ) ;
#233 = CARTESIAN_POINT ( 'NONE',  ( -10.90394390755283638, -21.80788781510566210, 1.924215411476136284 ) ) ;
#234 = CARTESIAN_POINT ( 'NONE',  ( -15.65286405018204619, -31.30572810036408171, 2.026193882682028935 ) ) ;
#235 = CARTESIAN_POINT ( 'NONE',  ( -12.19134972547525031, 0.000000000000000000, -1.991685491429513455 ) ) ;
#236 = ADVANCED_FACE ( 'NONE', ( #32 ), #382, .F. ) ;
#237 = CARTESIAN_POINT ( 'NONE',  ( 10.90394390755283460, -2.670696000893372078E-15, -1.924215411476137394 ) ) ;
#238 = FACE_OUTER_BOUND ( 'NONE', #456, .T. ) ;
#239 = ORIENTED_EDGE ( 'NONE', *, *, #642, .T. ) ;
#240 = CARTESIAN_POINT ( 'NONE',  ( -15.14404936913980215, 1.854611158604655104E-15, -2.921953471196331975 ) ) ;
#241 = CARTESIAN_POINT ( 'NONE',  ( 15.05299166729693816, -30.10598333459385856, 3.082259005948607911 ) ) ;
#242 = DIRECTION ( 'NONE',  ( -1.000000000000000000, 1.224646799147349509E-16, 0.000000000000000000 ) ) ;
#243 = AXIS2_PLACEMENT_3D ( 'NONE', #112, #629, #420 ) ;
#244 = CIRCLE ( 'NONE', #623, 15.91600000000000037 ) ;
#245 = CARTESIAN_POINT ( 'NONE',  ( 0.000000000000000000, 0.000000000000000000, -2.921953471196666818 ) ) ;
#246 = CARTESIAN_POINT ( 'NONE',  ( -14.70929198500000190, 0.000000000000000000, 3.174999999999999822 ) ) ;
#247 = AXIS2_PLACEMENT_3D ( 'NONE', #773, #378, #580 ) ;
#248 = VERTEX_POINT ( 'NONE', #544 ) ;
#249 = CARTESIAN_POINT ( 'NONE',  ( -10.90394390755283283, 1.335348000446685842E-15, 1.924215411476136284 ) ) ;
#250 = FACE_OUTER_BOUND ( 'NONE', #228, .T. ) ;
#251 = CARTESIAN_POINT ( 'NONE',  ( 15.65286405018197335, -31.30572810036395737, -2.026193882682281622 ) ) ;
#252 = EDGE_CURVE ( 'NONE', #312, #603, #806, .T. ) ;
#253 = EDGE_LOOP ( 'NONE', ( #769, #222, #258, #151 ) ) ;
#254 = CARTESIAN_POINT ( 'NONE',  ( 15.14404936914098521, 0.000000000000000000, -2.921953471197003882 ) ) ;
#255 =( BOUNDED_SURFACE ( )  B_SPLINE_SURFACE ( 3, 3, ( 
 ( #443, #708, #771, #240 ),
 ( #182, #449, #200, #714 ),
 ( #128, #320, #646, #53 ),
 ( #383, #454, #495, #641 ) ),
 .UNSPECIFIED., .F., .F., .T. ) 
 B_SPLINE_SURFACE_WITH_KNOTS ( ( 4, 4 ),
 ( 4, 4 ),
 ( 0.000000000000000000, 1.000000000000000000 ),
 ( 0.000000000000000000, 1.000000000000000000 ),
 .UNSPECIFIED. ) 
 GEOMETRIC_REPRESENTATION_ITEM ( )  RATIONAL_B_SPLINE_SURFACE ( (
 ( 1.000000000000000000, 0.3333333333333334259, 0.3333333333333334259, 1.000000000000000000),
 ( 0.9095097998188217403, 0.3031699332729406726, 0.3031699332729406726, 0.9095097998188217403),
 ( 0.9095097998188217403, 0.3031699332729406726, 0.3031699332729406726, 0.9095097998188217403),
 ( 1.000000000000000000, 0.3333333333333334259, 0.3333333333333334259, 1.000000000000000000) ) ) 
 REPRESENTATION_ITEM ( '' )  SURFACE ( )  );
#256 = DIRECTION ( 'NONE',  ( 0.1736481776669257793, 2.126576849575715524E-17, -0.9848077530122089085 ) ) ;
#257 = DIRECTION ( 'NONE',  ( -0.000000000000000000, -0.000000000000000000, -1.000000000000000000 ) ) ;
#258 = ORIENTED_EDGE ( 'NONE', *, *, #628, .T. ) ;
#259 = DIRECTION ( 'NONE',  ( 0.000000000000000000, 0.000000000000000000, 1.000000000000000000 ) ) ;
#260 = CARTESIAN_POINT ( 'NONE',  ( 0.000000000000000000, 0.000000000000000000, -1.991685491429513455 ) ) ;
#261 = AXIS2_PLACEMENT_3D ( 'NONE', #424, #700, #179 ) ;
#262 = CONICAL_SURFACE ( 'NONE', #540, 12.50000000000000000, 1.518436449235069485 ) ;
#263 = AXIS2_PLACEMENT_3D ( 'NONE', #426, #627, #692 ) ;
#264 = CARTESIAN_POINT ( 'NONE',  ( -15.91599999999999682, 31.83199999999999363, 0.000000000000000000 ) ) ;
#265 = ADVANCED_FACE ( 'NONE', ( #483 ), #377, .T. ) ;
#266 = CARTESIAN_POINT ( 'NONE',  ( -9.602983972297792548, 19.20596794459558510, 0.8451236329207443276 ) ) ;
#267 = CARTESIAN_POINT ( 'NONE',  ( 14.89365404600280662, -29.78730809200562391, -3.174999999999999822 ) ) ;
#268 = DIRECTION ( 'NONE',  ( 0.000000000000000000, 1.000000000000000000, 0.000000000000000000 ) ) ;
#269 = EDGE_CURVE ( 'NONE', #603, #358, #365, .T. ) ;
#270 = CARTESIAN_POINT ( 'NONE',  ( -15.05299166729693461, 30.10598333459385856, 3.082259005948607911 ) ) ;
#271 = LOCAL_TIME ( 14, 47, 4.000000000000000000, #732 ) ;
#272 = FACE_OUTER_BOUND ( 'NONE', #126, .T. ) ;
#273 = APPLICATION_PROTOCOL_DEFINITION ( 'international standard', 'config_control_design', 1994, #551 ) ;
#274 = CIRCLE ( 'NONE', #314, 12.81954981558864048 ) ;
#275 = CARTESIAN_POINT ( 'NONE',  ( 15.05299166729692928, 30.10598333459385856, 3.082259005948607911 ) ) ;
#276 = DIRECTION ( 'NONE',  ( -1.000000000000000000, 0.000000000000000000, 0.000000000000000000 ) ) ;
#277 = ORIENTED_EDGE ( 'NONE', *, *, #465, .F. ) ;
#278 = PERSON_AND_ORGANIZATION_ROLE ( 'creator' ) ;
#279 = CARTESIAN_POINT ( 'NONE',  ( -15.91600000000000037, 1.949147845522926944E-15, 0.000000000000000000 ) ) ;
#280 = PERSON_AND_ORGANIZATION ( #33, #341 ) ;
#281 = CARTESIAN_POINT ( 'NONE',  ( 14.70929198500000190, 1.801368734715406747E-15, 3.174999999999999822 ) ) ;
#282 = CC_DESIGN_PERSON_AND_ORGANIZATION_ASSIGNMENT ( #76, #336, ( #429 ) ) ;
#283 = ORIENTED_EDGE ( 'NONE', *, *, #116, .T. ) ;
#284 = CARTESIAN_POINT ( 'NONE',  ( -15.14404936914117528, 1.854611158604823526E-15, 2.921953471196667707 ) ) ;
#285 = CARTESIAN_POINT ( 'NONE',  ( 15.14404936914117705, 30.28809873828234700, 2.921953471196667707 ) ) ;
#286 = CONICAL_SURFACE ( 'NONE', #582, 12.32714593908253597, 0.1745329251994285347 ) ;
#287 = ORIENTED_EDGE ( 'NONE', *, *, #158, .F. ) ;
#288 = EDGE_CURVE ( 'NONE', #416, #312, #526, .T. ) ;
#289 = AXIS2_PLACEMENT_3D ( 'NONE', #368, #696, #614 ) ;
#290 = CARTESIAN_POINT ( 'NONE',  ( 15.91599999999999859, -3.898295691045853887E-15, 1.030183294398931748 ) ) ;
#291 = CARTESIAN_POINT ( 'NONE',  ( -15.91599999999999859, 1.949147845522927732E-15, -1.030183294399065641 ) ) ;
#292 =( BOUNDED_CURVE ( )  B_SPLINE_CURVE ( 3, ( #621, #115, #169, #414 ),
 .UNSPECIFIED., .F., .T. ) 
 B_SPLINE_CURVE_WITH_KNOTS ( ( 4, 4 ),
 ( 0.000000000000000000, 1.000000000000000000 ),
 .UNSPECIFIED. ) 
 CURVE ( )  GEOMETRIC_REPRESENTATION_ITEM ( )  RATIONAL_B_SPLINE_CURVE ( ( 1.000000000000000000, 0.3333333333333333703, 0.3333333333333333703, 1.000000000000000000 ) ) 
 REPRESENTATION_ITEM ( '' )  );
#293 = ORIENTED_EDGE ( 'NONE', *, *, #344, .F. ) ;
#294 = DIRECTION ( 'NONE',  ( 0.000000000000000000, 0.000000000000000000, 1.000000000000000000 ) ) ;
#295 = CARTESIAN_POINT ( 'NONE',  ( -14.70929198499999480, -29.41858397000000025, 3.174999999999999822 ) ) ;
#296 = CARTESIAN_POINT ( 'NONE',  ( 9.602983972297794324, -2.352052716787565451E-15, -0.8451236329207465481 ) ) ;
#297 = DIRECTION ( 'NONE',  ( 0.9986295347545740553, 0.000000000000000000, 0.05233595624294107990 ) ) ;
#298 = CARTESIAN_POINT ( 'NONE',  ( 15.14404936913999578, -30.28809873827997023, 2.921953471195996244 ) ) ;
#299 = EDGE_CURVE ( 'NONE', #173, #358, #62, .T. ) ;
#300 = CIRCLE ( 'NONE', #775, 15.91600000000000037 ) ;
#301 = DIRECTION ( 'NONE',  ( 1.000000000000000000, 0.000000000000000000, 0.000000000000000000 ) ) ;
#302 = DIRECTION ( 'NONE',  ( 0.000000000000000000, 0.000000000000000000, 1.000000000000000000 ) ) ;
#303 = DIRECTION ( 'NONE',  ( -1.000000000000000000, 0.000000000000000000, 0.000000000000000000 ) ) ;
#304 = ADVANCED_FACE ( 'NONE', ( #768 ), #181, .F. ) ;
#305 = CARTESIAN_POINT ( 'NONE',  ( -9.602983972297797877, -19.20596794459558865, -0.8451236329207465481 ) ) ;
#306 = CARTESIAN_POINT ( 'NONE',  ( 10.90394390755283460, 0.000000000000000000, 1.924215411476136062 ) ) ;
#307 = CARTESIAN_POINT ( 'NONE',  ( -15.14404936913998512, -30.28809873827998089, 2.921953471195996244 ) ) ;
#308 = ORIENTED_EDGE ( 'NONE', *, *, #455, .T. ) ;
#309 = CARTESIAN_POINT ( 'NONE',  ( 9.602983972297790771, -19.20596794459559220, -0.8451236329207465481 ) ) ;
#310 = EDGE_CURVE ( 'NONE', #577, #452, #100, .T. ) ;
#311 = DIRECTION ( 'NONE',  ( -0.000000000000000000, -0.000000000000000000, -1.000000000000000000 ) ) ;
#312 = VERTEX_POINT ( 'NONE', #306 ) ;
#313 = ORIENTED_EDGE ( 'NONE', *, *, #793, .F. ) ;
#314 = AXIS2_PLACEMENT_3D ( 'NONE', #376, #823, #60 ) ;
#315 = DIRECTION ( 'NONE',  ( -0.000000000000000000, -0.000000000000000000, -1.000000000000000000 ) ) ;
#316 = EDGE_CURVE ( 'NONE', #535, #173, #5, .T. ) ;
#317 = CARTESIAN_POINT ( 'NONE',  ( 12.19134972547525209, 1.493009741858922743E-15, -1.991685491429513455 ) ) ;
#318 = ORIENTED_EDGE ( 'NONE', *, *, #783, .T. ) ;
#319 = DIRECTION ( 'NONE',  ( 1.000000000000000000, 0.000000000000000000, 0.000000000000000000 ) ) ;
#320 = CARTESIAN_POINT ( 'NONE',  ( 14.89365404600281551, 29.78730809200562391, -3.174999999999999822 ) ) ;
#321 = EDGE_LOOP ( 'NONE', ( #37, #649, #470, #432 ) ) ;
#322 =( NAMED_UNIT ( * ) SI_UNIT ( $, .STERADIAN. ) SOLID_ANGLE_UNIT ( ) );
#323 = EDGE_CURVE ( 'NONE', #810, #577, #565, .T. ) ;
#324 = ORIENTED_EDGE ( 'NONE', *, *, #90, .F. ) ;
#325 = CARTESIAN_POINT ( 'NONE',  ( 14.70929198499999480, -29.41858397000000025, -3.174999999999999822 ) ) ;
#326 = PRODUCT ( '228-2500-207', '228-2500-207', '', ( #464 ) ) ;
#327 = CARTESIAN_POINT ( 'NONE',  ( 15.14404936914117350, 0.000000000000000000, 2.921953471196667707 ) ) ;
#328 = DIRECTION ( 'NONE',  ( 1.000000000000000000, 0.000000000000000000, -0.000000000000000000 ) ) ;
#329 = SECURITY_CLASSIFICATION ( '', '', #517 ) ;
#330 = CARTESIAN_POINT ( 'NONE',  ( 15.05299166729669125, -3.686919612589334588E-15, -3.082259005948744690 ) ) ;
#331 = CARTESIAN_POINT ( 'NONE',  ( -10.00000000000000000, 1.224646799147353256E-15, 0.000000000000000000 ) ) ;
#332 = ORIENTED_EDGE ( 'NONE', *, *, #9, .F. ) ;
#333 = AXIS2_PLACEMENT_3D ( 'NONE', #49, #311, #630 ) ;
#334 = CARTESIAN_POINT ( 'NONE',  ( 14.70929198500000545, -29.41858397000000025, 3.174999999999999822 ) ) ;
#335 = DIRECTION ( 'NONE',  ( -1.000000000000000000, 0.000000000000000000, 0.000000000000000000 ) ) ;
#336 = PERSON_AND_ORGANIZATION_ROLE ( 'creator' ) ;
#337 = CARTESIAN_POINT ( 'NONE',  ( 0.000000000000000000, 0.000000000000000000, 2.674999999999999822 ) ) ;
#338 = VERTEX_POINT ( 'NONE', #327 ) ;
#339 = DATE_AND_TIME ( #80, #34 ) ;
#340 = CARTESIAN_POINT ( 'NONE',  ( 15.14404936913999222, 1.854611158604678770E-15, 2.921953471195995355 ) ) ;
#341 = ORGANIZATION ( 'UNSPECIFIED', 'UNSPECIFIED', '' ) ;
#342 = FACE_OUTER_BOUND ( 'NONE', #253, .T. ) ;
#343 = VERTEX_POINT ( 'NONE', #819 ) ;
#344 = EDGE_CURVE ( 'NONE', #747, #739, #114, .T. ) ;
#345 = PERSON_AND_ORGANIZATION ( #33, #341 ) ;
#346 = CIRCLE ( 'NONE', #811, 12.19134972547525031 ) ;
#347 = CIRCLE ( 'NONE', #828, 12.32714593908253597 ) ;
#348 = DIRECTION ( 'NONE',  ( -0.000000000000000000, -0.000000000000000000, -1.000000000000000000 ) ) ;
#349 = EDGE_LOOP ( 'NONE', ( #287, #743, #2, #567 ) ) ;
#350 = CARTESIAN_POINT ( 'NONE',  ( 14.89365404600295939, 29.78730809200592589, 3.175000000000000266 ) ) ;
#351 = CARTESIAN_POINT ( 'NONE',  ( 12.32714593908253597, 1.539791023254519555E-15, -2.761824088833463531 ) ) ;
#352 = EDGE_LOOP ( 'NONE', ( #644, #190, #808, #726 ) ) ;
#353 = DATE_AND_TIME ( #28, #678 ) ;
#354 = ORIENTED_EDGE ( 'NONE', *, *, #310, .F. ) ;
#355 = CARTESIAN_POINT ( 'NONE',  ( 0.000000000000000000, 0.000000000000000000, 0.000000000000000000 ) ) ;
#356 = CARTESIAN_POINT ( 'NONE',  ( 15.91599999999999149, -31.83199999999999719, 0.000000000000000000 ) ) ;
#357 = CIRCLE ( 'NONE', #461, 0.5000000000000004441 ) ;
#358 = VERTEX_POINT ( 'NONE', #186 ) ;
#359 = CARTESIAN_POINT ( 'NONE',  ( -12.81954981558864048, 0.000000000000000000, -2.674999999999999822 ) ) ;
#360 = ORIENTED_EDGE ( 'NONE', *, *, #673, .T. ) ;
#361 = ORIENTED_EDGE ( 'NONE', *, *, #746, .T. ) ;
#362 = DIRECTION ( 'NONE',  ( -1.224646799147353207E-16, -1.000000000000000000, 0.000000000000000000 ) ) ;
#363 = CARTESIAN_POINT ( 'NONE',  ( -14.89365404600296650, -3.647893151009111288E-15, 3.174999999999999822 ) ) ;
#364 = EDGE_LOOP ( 'NONE', ( #588, #160, #672, #572 ) ) ;
#365 = LINE ( 'NONE', #620, #583 ) ;
#366 = EDGE_CURVE ( 'NONE', #358, #173, #195, .T. ) ;
#367 = CC_DESIGN_SECURITY_CLASSIFICATION ( #329, ( #47 ) ) ;
#368 = CARTESIAN_POINT ( 'NONE',  ( -12.81954981558864048, 0.000000000000000000, 2.674999999999999822 ) ) ;
#369 = CIRCLE ( 'NONE', #36, 0.5000000000000004441 ) ;
#370 = CARTESIAN_POINT ( 'NONE',  ( -14.70929198500000190, 0.000000000000000000, 3.174999999999999822 ) ) ;
#371 = CARTESIAN_POINT ( 'NONE',  ( 10.90394390755282750, -21.80788781510566565, 1.924215411476136284 ) ) ;
#372 = CARTESIAN_POINT ( 'NONE',  ( 12.19134972547525031, 1.493009741858922743E-15, -1.991685491429513455 ) ) ;
#373 = DIRECTION ( 'NONE',  ( 0.000000000000000000, 0.000000000000000000, 1.000000000000000000 ) ) ;
#374 = EDGE_CURVE ( 'NONE', #212, #611, #274, .T. ) ;
#375 = CARTESIAN_POINT ( 'NONE',  ( -15.14404936913980393, -30.28809873827959365, -2.921953471196331975 ) ) ;
#376 = CARTESIAN_POINT ( 'NONE',  ( 0.000000000000000000, 0.000000000000000000, 3.174999999999999822 ) ) ;
#377 =( BOUNDED_SURFACE ( )  B_SPLINE_SURFACE ( 3, 3, ( 
 ( #284, #608, #687, #38 ),
 ( #755, #234, #97, #694 ),
 ( #113, #428, #489, #290 ),
 ( #750, #172, #425, #690 ) ),
 .UNSPECIFIED., .F., .F., .F. ) 
 B_SPLINE_SURFACE_WITH_KNOTS ( ( 4, 4 ),
 ( 4, 4 ),
 ( 0.000000000000000000, 1.000000000000000000 ),
 ( 0.000000000000000000, 1.000000000000000000 ),
 .UNSPECIFIED. ) 
 GEOMETRIC_REPRESENTATION_ITEM ( )  RATIONAL_B_SPLINE_SURFACE ( (
 ( 1.000000000000000000, 0.3333333333333334259, 0.3333333333333334259, 1.000000000000000000),
 ( 0.9778856789844218023, 0.3259618929948073784, 0.3259618929948073784, 0.9778856789844218023),
 ( 0.9778856789844218023, 0.3259618929948073784, 0.3259618929948073784, 0.9778856789844218023),
 ( 1.000000000000000000, 0.3333333333333334259, 0.3333333333333334259, 1.000000000000000000) ) ) 
 REPRESENTATION_ITEM ( '' )  SURFACE ( )  );
#378 = DIRECTION ( 'NONE',  ( 0.000000000000000000, 1.000000000000000000, 0.000000000000000000 ) ) ;
#379 = ORIENTED_EDGE ( 'NONE', *, *, #537, .F. ) ;
#380 = FACE_OUTER_BOUND ( 'NONE', #479, .T. ) ;
#381 = CC_DESIGN_PERSON_AND_ORGANIZATION_ASSIGNMENT ( #601, #474, ( #326 ) ) ;
#382 = CONICAL_SURFACE ( 'NONE', #71, 10.90394390755283460, 1.518436449235069485 ) ;
#383 = CARTESIAN_POINT ( 'NONE',  ( 14.70929198500000190, 0.000000000000000000, -3.174999999999999822 ) ) ;
#384 = ORIENTED_EDGE ( 'NONE', *, *, #777, .T. ) ;
#385 = DIRECTION ( 'NONE',  ( 1.000000000000000000, 1.224646799147349509E-16, 0.000000000000000000 ) ) ;
#386 = EDGE_CURVE ( 'NONE', #358, #212, #22, .T. ) ;
#387 =( NAMED_UNIT ( * ) PLANE_ANGLE_UNIT ( ) SI_UNIT ( $, .RADIAN. ) );
#388 = LINE ( 'NONE', #132, #463 ) ;
#389 = CARTESIAN_POINT ( 'NONE',  ( -9.602983972297794324, 19.20596794459558865, -0.8451236329207465481 ) ) ;
#390 = DIRECTION ( 'NONE',  ( -0.000000000000000000, -0.000000000000000000, -1.000000000000000000 ) ) ;
#391 = CARTESIAN_POINT ( 'NONE',  ( -14.70929198500000190, 1.801368734715406747E-15, -3.174999999999999822 ) ) ;
#392 = AXIS2_PLACEMENT_3D ( 'NONE', #574, #1, #579 ) ;
#393 = APPROVAL_STATUS ( 'not_yet_approved' ) ;
#394 = ADVANCED_FACE ( 'NONE', ( #250 ), #255, .T. ) ;
#395 = CARTESIAN_POINT ( 'NONE',  ( 12.81954981558864048, 1.569942064817067149E-15, -2.674999999999999822 ) ) ;
#396 = EDGE_CURVE ( 'NONE', #535, #603, #419, .T. ) ;
#397 = DIRECTION ( 'NONE',  ( -1.000000000000000000, 0.000000000000000000, 0.000000000000000000 ) ) ;
#398 = EDGE_LOOP ( 'NONE', ( #164, #595, #318, #193 ) ) ;
#399 = COORDINATED_UNIVERSAL_TIME_OFFSET ( 6, 0, .BEHIND. ) ;
#400 = CARTESIAN_POINT ( 'NONE',  ( -15.14404936913999222, 0.000000000000000000, 2.921953471195995355 ) ) ;
#401 = CC_DESIGN_APPROVAL ( #170, ( #429 ) ) ;
#402 = CARTESIAN_POINT ( 'NONE',  ( -12.19134972547524498, 1.493009741858922348E-15, 1.991685491429513455 ) ) ;
#403 = ORIENTED_EDGE ( 'NONE', *, *, #269, .F. ) ;
#404 = CALENDAR_DATE ( 2022, 6, 6 ) ;
#405 = CIRCLE ( 'NONE', #542, 15.14404936914117350 ) ;
#406 = DIRECTION ( 'NONE',  ( -1.224646799147353207E-16, 1.000000000000000000, 0.000000000000000000 ) ) ;
#407 = AXIS2_PLACEMENT_3D ( 'NONE', #715, #257, #129 ) ;
#408 = PLANE ( 'NONE',  #654 ) ;
#409 = EDGE_LOOP ( 'NONE', ( #93, #615, #731, #508 ) ) ;
#410 = SHAPE_DEFINITION_REPRESENTATION ( #827, #754 ) ;
#411 = EDGE_CURVE ( 'NONE', #338, #231, #369, .T. ) ;
#412 = VERTEX_POINT ( 'NONE', #66 ) ;
#413 = DIRECTION ( 'NONE',  ( 1.000000000000000000, 0.000000000000000000, 0.000000000000000000 ) ) ;
#414 = CARTESIAN_POINT ( 'NONE',  ( 14.70929198500000190, 0.000000000000000000, -3.174999999999999822 ) ) ;
#415 = EDGE_CURVE ( 'NONE', #494, #248, #232, .T. ) ;
#416 = VERTEX_POINT ( 'NONE', #433 ) ;
#417 = DIRECTION ( 'NONE',  ( -1.000000000000000000, 0.000000000000000000, 0.000000000000000000 ) ) ;
#418 = CARTESIAN_POINT ( 'NONE',  ( 14.70929198500000545, -29.41858396999998959, 3.174999999999999822 ) ) ;
#419 = CIRCLE ( 'NONE', #392, 12.19134972547525031 ) ;
#420 = DIRECTION ( 'NONE',  ( -1.000000000000000000, 0.000000000000000000, 0.000000000000000000 ) ) ;
#421 = AXIS2_PLACEMENT_3D ( 'NONE', #636, #390, #650 ) ;
#422 = FACE_OUTER_BOUND ( 'NONE', #321, .T. ) ;
#423 = CARTESIAN_POINT ( 'NONE',  ( 15.14404936913999222, 1.854611158604678770E-15, 2.921953471195995800 ) ) ;
#424 = CARTESIAN_POINT ( 'NONE',  ( 0.000000000000000000, 0.000000000000000000, -3.174999999999999822 ) ) ;
#425 = CARTESIAN_POINT ( 'NONE',  ( 15.91599999999999149, -31.83199999999999719, 0.000000000000000000 ) ) ;
#426 = CARTESIAN_POINT ( 'NONE',  ( -12.50000000000000000, 1.530808498934191521E-15, 0.000000000000000000 ) ) ;
#427 = ORIENTED_EDGE ( 'NONE', *, *, #519, .F. ) ;
#428 = CARTESIAN_POINT ( 'NONE',  ( -15.91600000000000037, -31.83199999999999719, 1.030183294398931970 ) ) ;
#429 = PRODUCT_DEFINITION ( 'UNKNOWN', '', #47, #784 ) ;
#430 = DIRECTION ( 'NONE',  ( -1.000000000000000000, 0.000000000000000000, 0.000000000000000000 ) ) ;
#431 = AXIS2_PLACEMENT_3D ( 'NONE', #211, #587, #590 ) ;
#432 = ORIENTED_EDGE ( 'NONE', *, *, #299, .F. ) ;
#433 = CARTESIAN_POINT ( 'NONE',  ( -10.90394390755283460, 1.414178871152804489E-15, 1.924215411476136062 ) ) ;
#434 = CONICAL_SURFACE ( 'NONE', #421, 12.50000000000000000, 1.518436449235069485 ) ;
#435 =( BOUNDED_CURVE ( )  B_SPLINE_CURVE ( 3, ( #632, #334, #125, #246 ),
 .UNSPECIFIED., .F., .F. ) 
 B_SPLINE_CURVE_WITH_KNOTS ( ( 4, 4 ),
 ( 0.000000000000000000, 1.000000000000000000 ),
 .UNSPECIFIED. ) 
 CURVE ( )  GEOMETRIC_REPRESENTATION_ITEM ( )  RATIONAL_B_SPLINE_CURVE ( ( 1.000000000000000000, 0.3333333333333333703, 0.3333333333333333703, 1.000000000000000000 ) ) 
 REPRESENTATION_ITEM ( '' )  );
#436 = ADVANCED_FACE ( 'NONE', ( #272 ), #788, .T. ) ;
#437 = CARTESIAN_POINT ( 'NONE',  ( -9.602983972297796100, -19.20596794459558510, 0.8451236329207443276 ) ) ;
#438 = DIRECTION ( 'NONE',  ( -1.000000000000000000, 0.000000000000000000, 0.000000000000000000 ) ) ;
#439 = FACE_OUTER_BOUND ( 'NONE', #63, .T. ) ;
#440 = CC_DESIGN_PERSON_AND_ORGANIZATION_ASSIGNMENT ( #345, #278, ( #47 ) ) ;
#441 = ORIENTED_EDGE ( 'NONE', *, *, #668, .T. ) ;
#442 = CARTESIAN_POINT ( 'NONE',  ( -15.05299166729669480, -30.10598333459337184, -3.082259005948744246 ) ) ;
#443 = CARTESIAN_POINT ( 'NONE',  ( 15.14404936913980215, 0.000000000000000000, -2.921953471196331975 ) ) ;
#444 = CARTESIAN_POINT ( 'NONE',  ( 15.91599999999999859, -3.898295691045855465E-15, -1.030183294399065641 ) ) ;
#445 = ORIENTED_EDGE ( 'NONE', *, *, #90, .T. ) ;
#446 = CARTESIAN_POINT ( 'NONE',  ( -15.14404936914098165, 30.28809873828197041, -2.921953471197003882 ) ) ;
#447 = PRODUCT_RELATED_PRODUCT_CATEGORY ( 'detail', '', ( #326 ) ) ;
#448 = AXIS2_PLACEMENT_3D ( 'NONE', #337, #657, #276 ) ;
#449 = CARTESIAN_POINT ( 'NONE',  ( 15.05299166729669125, 30.10598333459337894, -3.082259005948744246 ) ) ;
#450 = ORIENTED_EDGE ( 'NONE', *, *, #183, .F. ) ;
#451 = FACE_OUTER_BOUND ( 'NONE', #12, .T. ) ;
#452 = VERTEX_POINT ( 'NONE', #794 ) ;
#453 = CARTESIAN_POINT ( 'NONE',  ( 15.91599999999999682, 31.83199999999999008, -1.030183294399065419 ) ) ;
#454 = CARTESIAN_POINT ( 'NONE',  ( 14.70929198500000012, 29.41858396999999314, -3.174999999999999822 ) ) ;
#455 = EDGE_CURVE ( 'NONE', #226, #810, #346, .T. ) ;
#456 = EDGE_LOOP ( 'NONE', ( #826, #156, #31, #379 ) ) ;
#457 = CARTESIAN_POINT ( 'NONE',  ( -15.65286405018198224, -31.30572810036395381, -2.026193882682281622 ) ) ;
#458 = CARTESIAN_POINT ( 'NONE',  ( -9.602983972297794324, 1.176026358393782725E-15, 0.8451236329207443276 ) ) ;
#459 = ADVANCED_FACE ( 'NONE', ( #342 ), #221, .T. ) ;
#460 = CARTESIAN_POINT ( 'NONE',  ( -15.05299166729669125, 1.843459806294667294E-15, -3.082259005948744690 ) ) ;
#461 = AXIS2_PLACEMENT_3D ( 'NONE', #13, #581, #510 ) ;
#462 = DIRECTION ( 'NONE',  ( 1.000000000000000000, 0.000000000000000000, 0.000000000000000000 ) ) ;
#463 = VECTOR ( 'NONE', #480, 1000.000000000000000 ) ;
#464 = MECHANICAL_CONTEXT ( 'NONE', #691, 'mechanical' ) ;
#465 = EDGE_CURVE ( 'NONE', #248, #312, #84, .T. ) ;
#466 = DIRECTION ( 'NONE',  ( 1.000000000000000000, 0.000000000000000000, 0.000000000000000000 ) ) ;
#467 = APPROVAL_STATUS ( 'not_yet_approved' ) ;
#468 = CARTESIAN_POINT ( 'NONE',  ( -15.14404936914117350, 30.28809873828234700, 2.921953471196667707 ) ) ;
#469 = CARTESIAN_POINT ( 'NONE',  ( 15.91600000000000037, 0.000000000000000000, 0.000000000000000000 ) ) ;
#470 = ORIENTED_EDGE ( 'NONE', *, *, #269, .T. ) ;
#471 = PERSON_AND_ORGANIZATION_ROLE ( 'classification_officer' ) ;
#472 = CARTESIAN_POINT ( 'NONE',  ( 9.602983972297796100, 19.20596794459558865, -0.8451236329207465481 ) ) ;
#473 = VERTEX_POINT ( 'NONE', #279 ) ;
#474 = PERSON_AND_ORGANIZATION_ROLE ( 'design_owner' ) ;
#475 = AXIS2_PLACEMENT_3D ( 'NONE', #501, #560, #505 ) ;
#476 = AXIS2_PLACEMENT_3D ( 'NONE', #111, #51, #303 ) ;
#477 = ORIENTED_EDGE ( 'NONE', *, *, #176, .F. ) ;
#478 = DIRECTION ( 'NONE',  ( 0.1736481776669259736, 0.000000000000000000, 0.9848077530122089085 ) ) ;
#479 = EDGE_LOOP ( 'NONE', ( #427, #450, #531, #525 ) ) ;
#480 = DIRECTION ( 'NONE',  ( -0.9986295347545740553, 1.222968463271199652E-16, 0.05233595624294107990 ) ) ;
#481 = CARTESIAN_POINT ( 'NONE',  ( 15.91599999999999859, 31.83199999999999363, 0.000000000000000000 ) ) ;
#482 = ORIENTED_EDGE ( 'NONE', *, *, #516, .F. ) ;
#483 = FACE_OUTER_BOUND ( 'NONE', #352, .T. ) ;
#484 = DIRECTION ( 'NONE',  ( -1.000000000000000000, 0.000000000000000000, 0.000000000000000000 ) ) ;
#485 = AXIS2_PLACEMENT_3D ( 'NONE', #569, #701, #64 ) ;
#486 = EDGE_CURVE ( 'NONE', #506, #739, #799, .T. ) ;
#487 = EDGE_LOOP ( 'NONE', ( #283, #24, #105, #277 ) ) ;
#488 = ORIENTED_EDGE ( 'NONE', *, *, #366, .F. ) ;
#489 = CARTESIAN_POINT ( 'NONE',  ( 15.91599999999999326, -31.83200000000000074, 1.030183294398931970 ) ) ;
#490 = CARTESIAN_POINT ( 'NONE',  ( 14.70929198500000190, 0.000000000000000000, -3.174999999999999822 ) ) ;
#491 = CARTESIAN_POINT ( 'NONE',  ( 9.602983972297794324, -2.352052716787565451E-15, 0.8451236329207443276 ) ) ;
#492 = DIRECTION ( 'NONE',  ( -0.000000000000000000, -0.000000000000000000, -1.000000000000000000 ) ) ;
#493 = CARTESIAN_POINT ( 'NONE',  ( 15.14404936914039190, 0.000000000000000000, -2.921953471196666818 ) ) ;
#494 = VERTEX_POINT ( 'NONE', #584 ) ;
#495 = CARTESIAN_POINT ( 'NONE',  ( -14.70929198499999657, 29.41858397000000025, -3.174999999999999822 ) ) ;
#496 = EDGE_CURVE ( 'NONE', #473, #506, #300, .T. ) ;
#497 = CC_DESIGN_APPROVAL ( #759, ( #329 ) ) ;
#498 = CIRCLE ( 'NONE', #261, 12.81954981558864048 ) ;
#499 = VECTOR ( 'NONE', #109, 1000.000000000000000 ) ;
#500 = FACE_OUTER_BOUND ( 'NONE', #148, .T. ) ;
#501 = CARTESIAN_POINT ( 'NONE',  ( 0.000000000000000000, 0.000000000000000000, 2.761824088833462643 ) ) ;
#502 = CIRCLE ( 'NONE', #263, 2.500000000000000444 ) ;
#503 = ORIENTED_EDGE ( 'NONE', *, *, #106, .F. ) ;
#504 = ORIENTED_EDGE ( 'NONE', *, *, #516, .T. ) ;
#505 = DIRECTION ( 'NONE',  ( -1.000000000000000000, 0.000000000000000000, 0.000000000000000000 ) ) ;
#506 = VERTEX_POINT ( 'NONE', #469 ) ;
#507 = DIRECTION ( 'NONE',  ( -0.000000000000000000, -0.000000000000000000, -1.000000000000000000 ) ) ;
#508 = ORIENTED_EDGE ( 'NONE', *, *, #396, .F. ) ;
#509 = EDGE_CURVE ( 'NONE', #338, #343, #405, .T. ) ;
#510 = DIRECTION ( 'NONE',  ( 1.000000000000000000, 0.000000000000000000, 0.000000000000000000 ) ) ;
#511 = CLOSED_SHELL ( 'NONE', ( #30, #741, #99, #661, #265, #122, #729, #545, #436, #236, #215, #612, #134, #394, #605, #760, #586, #805, #677, #564, #814, #304, #459, #210 ) ) ;
#512 = DIRECTION ( 'NONE',  ( 1.224646799147353207E-16, -1.000000000000000000, 0.000000000000000000 ) ) ;
#513 = CARTESIAN_POINT ( 'NONE',  ( 15.65286405018198046, -3.833845971308806724E-15, -2.026193882682281622 ) ) ;
#514 = AXIS2_PLACEMENT_3D ( 'NONE', #331, #202, #150 ) ;
#515 = ORIENTED_EDGE ( 'NONE', *, *, #95, .F. ) ;
#516 = EDGE_CURVE ( 'NONE', #452, #577, #347, .T. ) ;
#517 = SECURITY_CLASSIFICATION_LEVEL ( 'unclassified' ) ;
#518 = CARTESIAN_POINT ( 'NONE',  ( 0.000000000000000000, 0.000000000000000000, 0.000000000000000000 ) ) ;
#519 = EDGE_CURVE ( 'NONE', #473, #747, #813, .T. ) ;
#520 = APPROVAL_DATE_TIME ( #353, #170 ) ;
#521 = CARTESIAN_POINT ( 'NONE',  ( 14.70929198499999657, 29.41858397000000025, 3.174999999999999822 ) ) ;
#522 = AXIS2_PLACEMENT_3D ( 'NONE', #121, #373, #57 ) ;
#523 = CARTESIAN_POINT ( 'NONE',  ( -14.70929198500000545, -29.41858396999998959, -3.174999999999999822 ) ) ;
#524 = CARTESIAN_POINT ( 'NONE',  ( 0.000000000000000000, 0.000000000000000000, -1.991685491429513455 ) ) ;
#525 = ORIENTED_EDGE ( 'NONE', *, *, #793, .T. ) ;
#526 = CIRCLE ( 'NONE', #333, 10.90394390755283460 ) ;
#527 = DATE_TIME_ROLE ( 'creation_date' ) ;
#528 = CC_DESIGN_DATE_AND_TIME_ASSIGNMENT ( #669, #89, ( #329 ) ) ;
#529 = CARTESIAN_POINT ( 'NONE',  ( 15.14404936914117528, 0.000000000000000000, 2.921953471196667707 ) ) ;
#530 = CARTESIAN_POINT ( 'NONE',  ( 10.90394390755283460, 21.80788781510566565, -1.924215411476137394 ) ) ;
#531 = ORIENTED_EDGE ( 'NONE', *, *, #486, .T. ) ;
#532 = PERSON_AND_ORGANIZATION ( #33, #341 ) ;
#533 = CARTESIAN_POINT ( 'NONE',  ( -15.91599999999999859, 1.949147845522926944E-15, 1.030183294398931748 ) ) ;
#534 = CARTESIAN_POINT ( 'NONE',  ( -10.90394390755283460, 1.335348000446686039E-15, -1.924215411476137394 ) ) ;
#535 = VERTEX_POINT ( 'NONE', #402 ) ;
#536 = APPROVAL_ROLE ( '' ) ;
#537 = EDGE_CURVE ( 'NONE', #494, #226, #723, .T. ) ;
#538 = EDGE_LOOP ( 'NONE', ( #477, #734, #774, #308 ) ) ;
#539 = LINE ( 'NONE', #102, #499 ) ;
#540 = AXIS2_PLACEMENT_3D ( 'NONE', #229, #492, #417 ) ;
#541 = CARTESIAN_POINT ( 'NONE',  ( -14.70929198500000012, 29.41858396999999314, 3.174999999999999822 ) ) ;
#542 = AXIS2_PLACEMENT_3D ( 'NONE', #665, #730, #466 ) ;
#543 = ORIENTED_EDGE ( 'NONE', *, *, #191, .F. ) ;
#544 = CARTESIAN_POINT ( 'NONE',  ( 10.90394390755283460, 1.414178871152804489E-15, -1.924215411476135840 ) ) ;
#545 = ADVANCED_FACE ( 'NONE', ( #86 ), #88, .F. ) ;
#546 = CARTESIAN_POINT ( 'NONE',  ( 15.05299166729693461, 1.843459806294696482E-15, 3.082259005948608355 ) ) ;
#547 = VERTEX_POINT ( 'NONE', #23 ) ;
#548 = DIRECTION ( 'NONE',  ( -1.000000000000000000, 1.224646799147352961E-16, 0.000000000000000000 ) ) ;
#549 = CARTESIAN_POINT ( 'NONE',  ( -14.70929198500000190, -3.602737469430813494E-15, 3.174999999999999822 ) ) ;
#550 = CARTESIAN_POINT ( 'NONE',  ( 9.602983972297788995, -19.20596794459558865, 0.8451236329207443276 ) ) ;
#551 = APPLICATION_CONTEXT ( 'configuration controlled 3d designs of mechanical parts and assemblies' ) ;
#552 = CARTESIAN_POINT ( 'NONE',  ( -12.32714593908253597, 0.000000000000000000, 2.761824088833462643 ) ) ;
#553 = CARTESIAN_POINT ( 'NONE',  ( -15.05299166729692573, -30.10598333459386211, 3.082259005948607911 ) ) ;
#554 = AXIS2_PLACEMENT_3D ( 'NONE', #816, #681, #413 ) ;
#555 = CIRCLE ( 'NONE', #713, 15.14404936914117350 ) ;
#556 = CARTESIAN_POINT ( 'NONE',  ( 0.000000000000000000, 0.000000000000000000, 2.921953471196667707 ) ) ;
#557 = DIRECTION ( 'NONE',  ( 1.000000000000000000, 0.000000000000000000, 0.000000000000000000 ) ) ;
#558 = FACE_OUTER_BOUND ( 'NONE', #87, .T. ) ;
#559 = CARTESIAN_POINT ( 'NONE',  ( -14.70929198500000190, 29.41858397000000380, 3.174999999999999822 ) ) ;
#560 = DIRECTION ( 'NONE',  ( -0.000000000000000000, -0.000000000000000000, -1.000000000000000000 ) ) ;
#561 = FACE_OUTER_BOUND ( 'NONE', #409, .T. ) ;
#562 = VERTEX_POINT ( 'NONE', #19 ) ;
#563 = CARTESIAN_POINT ( 'NONE',  ( -10.90394390755283816, -21.80788781510566565, -1.924215411476137394 ) ) ;
#564 = ADVANCED_FACE ( 'NONE', ( #26 ), #781, .T. ) ;
#565 = LINE ( 'NONE', #372, #130 ) ;
#566 = LOCAL_TIME ( 14, 47, 4.000000000000000000, #798 ) ;
#567 = ORIENTED_EDGE ( 'NONE', *, *, #183, .T. ) ;
#568 = ORIENTED_EDGE ( 'NONE', *, *, #651, .F. ) ;
#569 = CARTESIAN_POINT ( 'NONE',  ( 12.81954981558864048, 1.569942064817067149E-15, 2.674999999999999822 ) ) ;
#570 = VECTOR ( 'NONE', #807, 1000.000000000000000 ) ;
#571 = CARTESIAN_POINT ( 'NONE',  ( -15.65286405018198046, 1.916922985654403362E-15, -2.026193882682281622 ) ) ;
#572 = ORIENTED_EDGE ( 'NONE', *, *, #486, .F. ) ;
#573 = CARTESIAN_POINT ( 'NONE',  ( -15.65286405018197691, 31.30572810036395381, -2.026193882682281622 ) ) ;
#574 = CARTESIAN_POINT ( 'NONE',  ( 0.000000000000000000, 0.000000000000000000, 1.991685491429513455 ) ) ;
#575 = ORIENTED_EDGE ( 'NONE', *, *, #299, .T. ) ;
#576 = CARTESIAN_POINT ( 'NONE',  ( -15.14404936914098698, -30.28809873828196331, -2.921953471197003882 ) ) ;
#577 = VERTEX_POINT ( 'NONE', #351 ) ;
#578 = CARTESIAN_POINT ( 'NONE',  ( 14.70929198500000190, -3.602737469430813494E-15, -3.174999999999999822 ) ) ;
#579 = DIRECTION ( 'NONE',  ( -1.000000000000000000, 0.000000000000000000, 0.000000000000000000 ) ) ;
#580 = DIRECTION ( 'NONE',  ( -1.000000000000000000, 0.000000000000000000, 0.000000000000000000 ) ) ;
#581 = DIRECTION ( 'NONE',  ( 0.000000000000000000, 1.000000000000000000, 0.000000000000000000 ) ) ;
#582 = AXIS2_PLACEMENT_3D ( 'NONE', #4, #259, #319 ) ;
#583 = VECTOR ( 'NONE', #478, 999.9999999999998863 ) ;
#584 = CARTESIAN_POINT ( 'NONE',  ( -10.90394390755283460, 0.000000000000000000, -1.924215411476135840 ) ) ;
#585 = AXIS2_PLACEMENT_3D ( 'NONE', #756, #177, #430 ) ;
#586 = ADVANCED_FACE ( 'NONE', ( #92, #602 ), #408, .F. ) ;
#587 = DIRECTION ( 'NONE',  ( 0.000000000000000000, 1.000000000000000000, 0.000000000000000000 ) ) ;
#588 = ORIENTED_EDGE ( 'NONE', *, *, #496, .F. ) ;
#589 = CARTESIAN_POINT ( 'NONE',  ( -14.70929198500000190, 0.000000000000000000, 3.174999999999999822 ) ) ;
#590 = DIRECTION ( 'NONE',  ( 1.000000000000000000, 0.000000000000000000, 0.000000000000000000 ) ) ;
#591 = APPROVAL ( #467, 'UNSPECIFIED' ) ;
#592 = ORIENTED_EDGE ( 'NONE', *, *, #386, .T. ) ;
#593 = CARTESIAN_POINT ( 'NONE',  ( -15.05299166729693638, 0.000000000000000000, 3.082259005948608355 ) ) ;
#594 = DIRECTION ( 'NONE',  ( -0.000000000000000000, -0.000000000000000000, -1.000000000000000000 ) ) ;
#595 = ORIENTED_EDGE ( 'NONE', *, *, #411, .T. ) ;
#596 = DATE_AND_TIME ( #662, #635 ) ;
#597 = EDGE_CURVE ( 'NONE', #79, #577, #157, .T. ) ;
#598 = CARTESIAN_POINT ( 'NONE',  ( 15.91600000000000037, 31.83199999999999719, 1.030183294398931970 ) ) ;
#599 =( BOUNDED_SURFACE ( )  B_SPLINE_SURFACE ( 3, 3, ( 
 ( #529, #285, #468, #802 ),
 ( #225, #663, #655, #728 ),
 ( #149, #598, #25, #533 ),
 ( #683, #481, #107, #618 ) ),
 .UNSPECIFIED., .F., .F., .F. ) 
 B_SPLINE_SURFACE_WITH_KNOTS ( ( 4, 4 ),
 ( 4, 4 ),
 ( 0.000000000000000000, 1.000000000000000000 ),
 ( 0.000000000000000000, 1.000000000000000000 ),
 .UNSPECIFIED. ) 
 GEOMETRIC_REPRESENTATION_ITEM ( )  RATIONAL_B_SPLINE_SURFACE ( (
 ( 1.000000000000000000, 0.3333333333333334259, 0.3333333333333334259, 1.000000000000000000),
 ( 0.9778856789844218023, 0.3259618929948073784, 0.3259618929948073784, 0.9778856789844218023),
 ( 0.9778856789844218023, 0.3259618929948073784, 0.3259618929948073784, 0.9778856789844218023),
 ( 1.000000000000000000, 0.3333333333333334259, 0.3333333333333334259, 1.000000000000000000) ) ) 
 REPRESENTATION_ITEM ( '' )  SURFACE ( )  );
#600 = DIRECTION ( 'NONE',  ( -1.000000000000000000, 0.000000000000000000, 0.000000000000000000 ) ) ;
#601 = PERSON_AND_ORGANIZATION ( #33, #341 ) ;
#602 = FACE_BOUND ( 'NONE', #110, .T. ) ;
#603 = VERTEX_POINT ( 'NONE', #219 ) ;
#604 = CARTESIAN_POINT ( 'NONE',  ( -12.81954981558864048, 0.000000000000000000, 3.174999999999999822 ) ) ;
#605 = ADVANCED_FACE ( 'NONE', ( #792 ), #3, .T. ) ;
#606 = CC_DESIGN_APPROVAL ( #591, ( #47 ) ) ;
#607 = ORIENTED_EDGE ( 'NONE', *, *, #415, .T. ) ;
#608 = CARTESIAN_POINT ( 'NONE',  ( -15.14404936914117883, -30.28809873828234345, 2.921953471196667707 ) ) ;
#609 = AXIS2_PLACEMENT_3D ( 'NONE', #748, #362, #548 ) ;
#610 = CARTESIAN_POINT ( 'NONE',  ( 15.91600000000000037, -3.898295691045853887E-15, 0.000000000000000000 ) ) ;
#611 = VERTEX_POINT ( 'NONE', #604 ) ;
#612 = ADVANCED_FACE ( 'NONE', ( #17 ), #599, .T. ) ;
#613 = CARTESIAN_POINT ( 'NONE',  ( 14.70929198500000190, 1.080821240829243930E-15, 3.174999999999999822 ) ) ;
#614 = DIRECTION ( 'NONE',  ( 0.000000000000000000, 0.000000000000000000, -1.000000000000000000 ) ) ;
#615 = ORIENTED_EDGE ( 'NONE', *, *, #288, .T. ) ;
#616 = EDGE_LOOP ( 'NONE', ( #684, #15, #488, #403 ) ) ;
#617 = CARTESIAN_POINT ( 'NONE',  ( 12.81954981558864048, 1.569942064817067149E-15, 3.174999999999999822 ) ) ;
#618 = CARTESIAN_POINT ( 'NONE',  ( -15.91600000000000037, 1.949147845522926944E-15, 0.000000000000000000 ) ) ;
#619 = ORIENTED_EDGE ( 'NONE', *, *, #783, .F. ) ;
#620 = CARTESIAN_POINT ( 'NONE',  ( 12.32714593908253597, 0.000000000000000000, 2.761824088833462643 ) ) ;
#621 = CARTESIAN_POINT ( 'NONE',  ( -14.70929198500000190, 1.080821240829243930E-15, -3.174999999999999822 ) ) ;
#622 = CIRCLE ( 'NONE', #204, 15.14404936914117350 ) ;
#623 = AXIS2_PLACEMENT_3D ( 'NONE', #355, #302, #557 ) ;
#624 = CIRCLE ( 'NONE', #476, 12.19134972547525031 ) ;
#625 = CARTESIAN_POINT ( 'NONE',  ( -9.602983972297794324, 1.176026358393782725E-15, -0.8451236329207465481 ) ) ;
#626 = DIRECTION ( 'NONE',  ( -1.000000000000000000, 0.000000000000000000, 0.000000000000000000 ) ) ;
#627 = DIRECTION ( 'NONE',  ( -1.224646799147353207E-16, -1.000000000000000000, 0.000000000000000000 ) ) ;
#628 = EDGE_CURVE ( 'NONE', #173, #611, #737, .T. ) ;
#629 = DIRECTION ( 'NONE',  ( -0.000000000000000000, -0.000000000000000000, -1.000000000000000000 ) ) ;
#630 = DIRECTION ( 'NONE',  ( -1.000000000000000000, 0.000000000000000000, 0.000000000000000000 ) ) ;
#631 =( BOUNDED_SURFACE ( )  B_SPLINE_SURFACE ( 3, 3, ( 
 ( #189, #776, #264, #198 ),
 ( #640, #453, #72, #716 ),
 ( #136, #656, #573, #833 ),
 ( #254, #18, #446, #712 ) ),
 .UNSPECIFIED., .F., .F., .F. ) 
 B_SPLINE_SURFACE_WITH_KNOTS ( ( 4, 4 ),
 ( 4, 4 ),
 ( 0.000000000000000000, 1.000000000000000000 ),
 ( 0.000000000000000000, 1.000000000000000000 ),
 .UNSPECIFIED. ) 
 GEOMETRIC_REPRESENTATION_ITEM ( )  RATIONAL_B_SPLINE_SURFACE ( (
 ( 1.000000000000000000, 0.3333333333333334259, 0.3333333333333334259, 1.000000000000000000),
 ( 0.9778856789844163622, 0.3259618929948055466, 0.3259618929948055466, 0.9778856789844163622),
 ( 0.9778856789844163622, 0.3259618929948055466, 0.3259618929948055466, 0.9778856789844163622),
 ( 1.000000000000000000, 0.3333333333333334259, 0.3333333333333334259, 1.000000000000000000) ) ) 
 REPRESENTATION_ITEM ( '' )  SURFACE ( )  );
#632 = CARTESIAN_POINT ( 'NONE',  ( 14.70929198500000190, 1.080821240829243930E-15, 3.174999999999999822 ) ) ;
#633 = CARTESIAN_POINT ( 'NONE',  ( 15.14404936913979327, -30.28809873827959720, -2.921953471196331975 ) ) ;
#634 = DIRECTION ( 'NONE',  ( -1.000000000000000000, 0.000000000000000000, 0.000000000000000000 ) ) ;
#635 = LOCAL_TIME ( 14, 47, 4.000000000000000000, #399 ) ;
#636 = CARTESIAN_POINT ( 'NONE',  ( 0.000000000000000000, 0.000000000000000000, -2.007861166892455529 ) ) ;
#637 =( BOUNDED_SURFACE ( )  B_SPLINE_SURFACE ( 3, 3, ( 
 ( #829, #563, #44, #237 ),
 ( #625, #305, #309, #296 ),
 ( #119, #437, #550, #491 ),
 ( #249, #233, #371, #689 ) ),
 .UNSPECIFIED., .F., .F., .F. ) 
 B_SPLINE_SURFACE_WITH_KNOTS ( ( 4, 4 ),
 ( 4, 4 ),
 ( 0.000000000000000000, 1.000000000000000000 ),
 ( 0.000000000000000000, 1.000000000000000000 ),
 .UNSPECIFIED. ) 
 GEOMETRIC_REPRESENTATION_ITEM ( )  RATIONAL_B_SPLINE_SURFACE ( (
 ( 1.000000000000000000, 0.3333333333333334259, 0.3333333333333334259, 1.000000000000000000),
 ( 0.7589482913192446834, 0.2529827637730816536, 0.2529827637730816536, 0.7589482913192446834),
 ( 0.7589482913192446834, 0.2529827637730816536, 0.2529827637730816536, 0.7589482913192446834),
 ( 1.000000000000000000, 0.3333333333333334259, 0.3333333333333334259, 1.000000000000000000) ) ) 
 REPRESENTATION_ITEM ( '' )  SURFACE ( )  );
#638 = EDGE_LOOP ( 'NONE', ( #703, #686, #239, #504 ) ) ;
#639 = AXIS2_PLACEMENT_3D ( 'NONE', #779, #507, #438 ) ;
#640 = CARTESIAN_POINT ( 'NONE',  ( 15.91599999999999859, 0.000000000000000000, -1.030183294399065641 ) ) ;
#641 = CARTESIAN_POINT ( 'NONE',  ( -14.70929198500000190, 1.801368734715406747E-15, -3.174999999999999822 ) ) ;
#642 = EDGE_CURVE ( 'NONE', #226, #452, #812, .T. ) ;
#643 =( LENGTH_UNIT ( ) NAMED_UNIT ( * ) SI_UNIT ( .MILLI., .METRE. ) );
#644 = ORIENTED_EDGE ( 'NONE', *, *, #509, .T. ) ;
#645 = CARTESIAN_POINT ( 'NONE',  ( 15.05299166729668237, -30.10598333459337894, -3.082259005948744246 ) ) ;
#646 = CARTESIAN_POINT ( 'NONE',  ( -14.89365404600281195, 29.78730809200562391, -3.174999999999999822 ) ) ;
#647 = CC_DESIGN_PERSON_AND_ORGANIZATION_ASSIGNMENT ( #532, #796, ( #47 ) ) ;
#648 = CARTESIAN_POINT ( 'NONE',  ( -9.602983972297794324, 1.176026358393783120E-15, -0.8451236329207465481 ) ) ;
#649 = ORIENTED_EDGE ( 'NONE', *, *, #396, .T. ) ;
#650 = DIRECTION ( 'NONE',  ( -1.000000000000000000, 0.000000000000000000, 0.000000000000000000 ) ) ;
#651 = EDGE_CURVE ( 'NONE', #562, #547, #118, .T. ) ;
#652 = DIRECTION ( 'NONE',  ( -1.000000000000000000, 0.000000000000000000, 0.000000000000000000 ) ) ;
#653 = CARTESIAN_POINT ( 'NONE',  ( -10.90394390755282927, 21.80788781510566210, 1.924215411476136284 ) ) ;
#654 = AXIS2_PLACEMENT_3D ( 'NONE', #155, #671, #21 ) ;
#655 = CARTESIAN_POINT ( 'NONE',  ( -15.65286405018204086, 31.30572810036408171, 2.026193882682028935 ) ) ;
#656 = CARTESIAN_POINT ( 'NONE',  ( 15.65286405018197868, 31.30572810036395381, -2.026193882682281622 ) ) ;
#657 = DIRECTION ( 'NONE',  ( -0.000000000000000000, -0.000000000000000000, -1.000000000000000000 ) ) ;
#658 = CARTESIAN_POINT ( 'NONE',  ( 15.14404936913998867, 30.28809873827998089, 2.921953471195995800 ) ) ;
#659 = CARTESIAN_POINT ( 'NONE',  ( 0.000000000000000000, 0.000000000000000000, -1.991685491429513455 ) ) ;
#660 = ORIENTED_EDGE ( 'NONE', *, *, #252, .F. ) ;
#661 = ADVANCED_FACE ( 'NONE', ( #40 ), #721, .T. ) ;
#662 = CALENDAR_DATE ( 2022, 6, 6 ) ;
#663 = CARTESIAN_POINT ( 'NONE',  ( 15.65286405018204441, 31.30572810036408171, 2.026193882682028935 ) ) ;
#664 =( BOUNDED_CURVE ( )  B_SPLINE_CURVE ( 3, ( #370, #559, #52, #818 ),
 .UNSPECIFIED., .F., .F. ) 
 B_SPLINE_CURVE_WITH_KNOTS ( ( 4, 4 ),
 ( 0.000000000000000000, 1.000000000000000000 ),
 .UNSPECIFIED. ) 
 CURVE ( )  GEOMETRIC_REPRESENTATION_ITEM ( )  RATIONAL_B_SPLINE_CURVE ( ( 1.000000000000000000, 0.3333333333333333703, 0.3333333333333333703, 1.000000000000000000 ) ) 
 REPRESENTATION_ITEM ( '' )  );
#665 = CARTESIAN_POINT ( 'NONE',  ( 0.000000000000000000, 0.000000000000000000, 2.921953471196667707 ) ) ;
#666 = ORIENTED_EDGE ( 'NONE', *, *, #668, .F. ) ;
#667 = AXIS2_PLACEMENT_3D ( 'NONE', #782, #268, #462 ) ;
#668 = EDGE_CURVE ( 'NONE', #412, #79, #206, .T. ) ;
#669 = DATE_AND_TIME ( #404, #271 ) ;
#670 = CARTESIAN_POINT ( 'NONE',  ( -15.14404936913999045, 30.28809873827997734, 2.921953471195995800 ) ) ;
#671 = DIRECTION ( 'NONE',  ( 0.000000000000000000, 0.000000000000000000, -1.000000000000000000 ) ) ;
#672 = ORIENTED_EDGE ( 'NONE', *, *, #344, .T. ) ;
#673 = EDGE_CURVE ( 'NONE', #547, #562, #292, .T. ) ;
#674 = ORIENTED_EDGE ( 'NONE', *, *, #95, .T. ) ;
#675 = DIRECTION ( 'NONE',  ( 1.000000000000000000, 0.000000000000000000, 0.000000000000000000 ) ) ;
#676 = CARTESIAN_POINT ( 'NONE',  ( -15.91600000000000037, 1.949147845522926944E-15, 0.000000000000000000 ) ) ;
#677 = ADVANCED_FACE ( 'NONE', ( #561 ), #73, .F. ) ;
#678 = LOCAL_TIME ( 14, 47, 4.000000000000000000, #791 ) ;
#679 = ORIENTED_EDGE ( 'NONE', *, *, #163, .T. ) ;
#680 = CIRCLE ( 'NONE', #205, 10.90394390755283460 ) ;
#681 = DIRECTION ( 'NONE',  ( 0.000000000000000000, 0.000000000000000000, 1.000000000000000000 ) ) ;
#682 = AXIS2_PLACEMENT_3D ( 'NONE', #717, #137, #626 ) ;
#683 = CARTESIAN_POINT ( 'NONE',  ( 15.91600000000000037, 0.000000000000000000, 0.000000000000000000 ) ) ;
#684 = ORIENTED_EDGE ( 'NONE', *, *, #707, .T. ) ;
#685 = AXIS2_PLACEMENT_3D ( 'NONE', #54, #46, #484 ) ;
#686 = ORIENTED_EDGE ( 'NONE', *, *, #455, .F. ) ;
#687 = CARTESIAN_POINT ( 'NONE',  ( 15.14404936914116817, -30.28809873828234700, 2.921953471196667707 ) ) ;
#688 = DIRECTION ( 'NONE',  ( 0.000000000000000000, 0.000000000000000000, 1.000000000000000000 ) ) ;
#689 = CARTESIAN_POINT ( 'NONE',  ( 10.90394390755283283, -2.670696000893371683E-15, 1.924215411476136284 ) ) ;
#690 = CARTESIAN_POINT ( 'NONE',  ( 15.91600000000000037, -3.898295691045853887E-15, 0.000000000000000000 ) ) ;
#691 = APPLICATION_CONTEXT ( 'configuration controlled 3d designs of mechanical parts and assemblies' ) ;
#692 = DIRECTION ( 'NONE',  ( -1.000000000000000000, 1.224646799147353454E-16, 0.000000000000000000 ) ) ;
#693 = ORIENTED_EDGE ( 'NONE', *, *, #411, .F. ) ;
#694 = CARTESIAN_POINT ( 'NONE',  ( 15.65286405018204619, -3.833845971308823290E-15, 2.026193882682028935 ) ) ;
#695 = EDGE_CURVE ( 'NONE', #494, #416, #502, .T. ) ;
#696 = DIRECTION ( 'NONE',  ( 0.000000000000000000, -1.000000000000000000, 0.000000000000000000 ) ) ;
#697 = CIRCLE ( 'NONE', #609, 5.915999999999999481 ) ;
#698 = ORIENTED_EDGE ( 'NONE', *, *, #16, .T. ) ;
#699 = CIRCLE ( 'NONE', #247, 0.5000000000000004441 ) ;
#700 = DIRECTION ( 'NONE',  ( -0.000000000000000000, -0.000000000000000000, -1.000000000000000000 ) ) ;
#701 = DIRECTION ( 'NONE',  ( -1.224646799147353207E-16, 1.000000000000000000, 0.000000000000000000 ) ) ;
#702 = APPLICATION_PROTOCOL_DEFINITION ( 'international standard', 'config_control_design', 1994, #691 ) ;
#703 = ORIENTED_EDGE ( 'NONE', *, *, #323, .F. ) ;
#704 = DIRECTION ( 'NONE',  ( -1.000000000000000000, 0.000000000000000000, 0.000000000000000000 ) ) ;
#705 = CARTESIAN_POINT ( 'NONE',  ( 15.91599999999999149, -31.83199999999999363, -1.030183294399065419 ) ) ;
#706 = EDGE_LOOP ( 'NONE', ( #361, #178, #140, #660 ) ) ;
#707 = EDGE_CURVE ( 'NONE', #603, #535, #624, .T. ) ;
#708 = CARTESIAN_POINT ( 'NONE',  ( 15.14404936913980215, 30.28809873827959720, -2.921953471196331975 ) ) ;
#709 = PLANE ( 'NONE',  #801 ) ;
#710 = EDGE_LOOP ( 'NONE', ( #543, #101, #75, #795 ) ) ;
#711 = AXIS2_PLACEMENT_3D ( 'NONE', #146, #14, #335 ) ;
#712 = CARTESIAN_POINT ( 'NONE',  ( -15.14404936914098521, 1.854611158604799860E-15, -2.921953471197003882 ) ) ;
#713 = AXIS2_PLACEMENT_3D ( 'NONE', #187, #780, #135 ) ;
#714 = CARTESIAN_POINT ( 'NONE',  ( -15.05299166729669125, 1.843459806294667294E-15, -3.082259005948744690 ) ) ;
#715 = CARTESIAN_POINT ( 'NONE',  ( 0.000000000000000000, 0.000000000000000000, -2.674999999999999822 ) ) ;
#716 = CARTESIAN_POINT ( 'NONE',  ( -15.91599999999999859, 1.949147845522927732E-15, -1.030183294399065641 ) ) ;
#717 = CARTESIAN_POINT ( 'NONE',  ( 0.000000000000000000, 0.000000000000000000, -1.924215411476135840 ) ) ;
#718 = CARTESIAN_POINT ( 'NONE',  ( -14.70929198500000190, 0.000000000000000000, 3.174999999999999822 ) ) ;
#719 = CARTESIAN_POINT ( 'NONE',  ( -14.89365404600281906, -29.78730809200562035, -3.174999999999999822 ) ) ;
#720 = CARTESIAN_POINT ( 'NONE',  ( 10.90394390755283283, 0.000000000000000000, 1.924215411476136284 ) ) ;
#721 =( BOUNDED_SURFACE ( )  B_SPLINE_SURFACE ( 3, 3, ( 
 ( #423, #298, #307, #227 ),
 ( #546, #241, #553, #43 ),
 ( #104, #745, #752, #363 ),
 ( #742, #418, #295, #549 ) ),
 .UNSPECIFIED., .F., .F., .F. ) 
 B_SPLINE_SURFACE_WITH_KNOTS ( ( 4, 4 ),
 ( 4, 4 ),
 ( 0.000000000000000000, 1.000000000000000000 ),
 ( 0.000000000000000000, 1.000000000000000000 ),
 .UNSPECIFIED. ) 
 GEOMETRIC_REPRESENTATION_ITEM ( )  RATIONAL_B_SPLINE_SURFACE ( (
 ( 1.000000000000000000, 0.3333333333333334259, 0.3333333333333334259, 1.000000000000000000),
 ( 0.9095097998186921773, 0.3031699332728974849, 0.3031699332728974849, 0.9095097998186921773),
 ( 0.9095097998186921773, 0.3031699332728974849, 0.3031699332728974849, 0.9095097998186921773),
 ( 1.000000000000000000, 0.3333333333333334259, 0.3333333333333334259, 1.000000000000000000) ) ) 
 REPRESENTATION_ITEM ( '' )  SURFACE ( )  );
#722 = AXIS2_PLACEMENT_3D ( 'NONE', #744, #161, #165 ) ;
#723 = LINE ( 'NONE', #797, #197 ) ;
#724 = TOROIDAL_SURFACE ( 'NONE', #407, 12.81954981558864048, 0.5000000000000000000 ) ;
#725 = DIRECTION ( 'NONE',  ( -0.000000000000000000, -0.000000000000000000, -1.000000000000000000 ) ) ;
#726 = ORIENTED_EDGE ( 'NONE', *, *, #35, .F. ) ;
#727 = APPROVAL_ROLE ( '' ) ;
#728 = CARTESIAN_POINT ( 'NONE',  ( -15.65286405018204619, 1.916922985654411645E-15, 2.026193882682028935 ) ) ;
#729 = ADVANCED_FACE ( 'NONE', ( #558 ), #117, .T. ) ;
#730 = DIRECTION ( 'NONE',  ( -0.000000000000000000, -0.000000000000000000, -1.000000000000000000 ) ) ;
#731 = ORIENTED_EDGE ( 'NONE', *, *, #252, .T. ) ;
#732 = COORDINATED_UNIVERSAL_TIME_OFFSET ( 6, 0, .BEHIND. ) ;
#733 = DIRECTION ( 'NONE',  ( -0.9986295347545740553, 0.000000000000000000, -0.05233595624294107990 ) ) ;
#734 = ORIENTED_EDGE ( 'NONE', *, *, #415, .F. ) ;
#735 = VECTOR ( 'NONE', #192, 999.9999999999998863 ) ;
#736 = APPROVAL_ROLE ( '' ) ;
#737 = CIRCLE ( 'NONE', #289, 0.5000000000000000000 ) ;
#738 = CARTESIAN_POINT ( 'NONE',  ( -14.89365404600296650, 0.000000000000000000, 3.174999999999999822 ) ) ;
#739 = VERTEX_POINT ( 'NONE', #493 ) ;
#740 = DIRECTION ( 'NONE',  ( 0.000000000000000000, 0.000000000000000000, -1.000000000000000000 ) ) ;
#741 = ADVANCED_FACE ( 'NONE', ( #820 ), #39, .T. ) ;
#742 = CARTESIAN_POINT ( 'NONE',  ( 14.70929198500000190, 1.801368734715406747E-15, 3.174999999999999822 ) ) ;
#743 = ORIENTED_EDGE ( 'NONE', *, *, #9, .T. ) ;
#744 = CARTESIAN_POINT ( 'NONE',  ( 0.000000000000000000, 0.000000000000000000, -1.991685491429513455 ) ) ;
#745 = CARTESIAN_POINT ( 'NONE',  ( 14.89365404600296827, -29.78730809200591878, 3.174999999999999822 ) ) ;
#746 = EDGE_CURVE ( 'NONE', #312, #416, #145, .T. ) ;
#747 = VERTEX_POINT ( 'NONE', #69 ) ;
#748 = CARTESIAN_POINT ( 'NONE',  ( -10.00000000000000000, 1.224646799147353256E-15, 0.000000000000000000 ) ) ;
#749 = AXIS2_PLACEMENT_3D ( 'NONE', #359, #42, #740 ) ;
#750 = CARTESIAN_POINT ( 'NONE',  ( -15.91600000000000037, 1.949147845522926944E-15, 0.000000000000000000 ) ) ;
#751 =( BOUNDED_SURFACE ( )  B_SPLINE_SURFACE ( 3, 3, ( 
 ( #123, #375, #633, #58 ),
 ( #460, #442, #645, #330 ),
 ( #127, #719, #267, #770 ),
 ( #391, #523, #325, #578 ) ),
 .UNSPECIFIED., .F., .F., .F. ) 
 B_SPLINE_SURFACE_WITH_KNOTS ( ( 4, 4 ),
 ( 4, 4 ),
 ( 0.000000000000000000, 1.000000000000000000 ),
 ( 0.000000000000000000, 1.000000000000000000 ),
 .UNSPECIFIED. ) 
 GEOMETRIC_REPRESENTATION_ITEM ( )  RATIONAL_B_SPLINE_SURFACE ( (
 ( 1.000000000000000000, 0.3333333333333334259, 0.3333333333333334259, 1.000000000000000000),
 ( 0.9095097998188217403, 0.3031699332729406726, 0.3031699332729406726, 0.9095097998188217403),
 ( 0.9095097998188217403, 0.3031699332729406726, 0.3031699332729406726, 0.9095097998188217403),
 ( 1.000000000000000000, 0.3333333333333334259, 0.3333333333333334259, 1.000000000000000000) ) ) 
 REPRESENTATION_ITEM ( '' )  SURFACE ( )  );
#752 = CARTESIAN_POINT ( 'NONE',  ( -14.89365404600295584, -29.78730809200592589, 3.174999999999999822 ) ) ;
#753 = CARTESIAN_POINT ( 'NONE',  ( 10.00000000000000000, 0.000000000000000000, 0.000000000000000000 ) ) ;
#754 = ADVANCED_BREP_SHAPE_REPRESENTATION ( '228-2500-207', ( #85, #522 ), #772 ) ;
#755 = CARTESIAN_POINT ( 'NONE',  ( -15.65286405018204619, 1.916922985654411645E-15, 2.026193882682028935 ) ) ;
#756 = CARTESIAN_POINT ( 'NONE',  ( 0.000000000000000000, 0.000000000000000000, 2.674999999999999822 ) ) ;
#757 = EDGE_LOOP ( 'NONE', ( #27, #607, #188, #832 ) ) ;
#758 = CARTESIAN_POINT ( 'NONE',  ( 0.000000000000000000, 0.000000000000000000, -2.761824088833463531 ) ) ;
#759 = APPROVAL ( #785, 'UNSPECIFIED' ) ;
#760 = ADVANCED_FACE ( 'NONE', ( #439, #824 ), #709, .F. ) ;
#761 = DIRECTION ( 'NONE',  ( -1.000000000000000000, 0.000000000000000000, 0.000000000000000000 ) ) ;
#762 = AXIS2_PLACEMENT_3D ( 'NONE', #260, #315, #634 ) ;
#763 = ORIENTED_EDGE ( 'NONE', *, *, #374, .T. ) ;
#764 = DIRECTION ( 'NONE',  ( -0.000000000000000000, -0.000000000000000000, -1.000000000000000000 ) ) ;
#765 = DIRECTION ( 'NONE',  ( -0.000000000000000000, -0.000000000000000000, -1.000000000000000000 ) ) ;
#766 = ORIENTED_EDGE ( 'NONE', *, *, #59, .F. ) ;
#767 = DIRECTION ( 'NONE',  ( 0.000000000000000000, 1.000000000000000000, 0.000000000000000000 ) ) ;
#768 = FACE_OUTER_BOUND ( 'NONE', #638, .T. ) ;
#769 = ORIENTED_EDGE ( 'NONE', *, *, #386, .F. ) ;
#770 = CARTESIAN_POINT ( 'NONE',  ( 14.89365404600281728, -3.647893151009074211E-15, -3.175000000000000266 ) ) ;
#771 = CARTESIAN_POINT ( 'NONE',  ( -15.14404936913979860, 30.28809873827959720, -2.921953471196331975 ) ) ;
#772 =( GEOMETRIC_REPRESENTATION_CONTEXT ( 3 ) GLOBAL_UNCERTAINTY_ASSIGNED_CONTEXT ( ( #804 ) ) GLOBAL_UNIT_ASSIGNED_CONTEXT ( ( #643, #387, #322 ) ) REPRESENTATION_CONTEXT ( 'NONE', 'WORKASPACE' ) );
#773 = CARTESIAN_POINT ( 'NONE',  ( -14.70929198500000190, 0.000000000000000000, 2.674999999999999822 ) ) ;
#774 = ORIENTED_EDGE ( 'NONE', *, *, #537, .T. ) ;
#775 = AXIS2_PLACEMENT_3D ( 'NONE', #518, #786, #203 ) ;
#776 = CARTESIAN_POINT ( 'NONE',  ( 15.91599999999999859, 31.83199999999999363, 0.000000000000000000 ) ) ;
#777 = EDGE_CURVE ( 'NONE', #343, #803, #699, .T. ) ;
#778 = AXIS2_PLACEMENT_3D ( 'NONE', #174, #688, #817 ) ;
#779 = CARTESIAN_POINT ( 'NONE',  ( 0.000000000000000000, 0.000000000000000000, 2.761824088833462643 ) ) ;
#780 = DIRECTION ( 'NONE',  ( 0.000000000000000000, 0.000000000000000000, 1.000000000000000000 ) ) ;
#781 =( BOUNDED_SURFACE ( )  B_SPLINE_SURFACE ( 3, 3, ( 
 ( #789, #530, #207, #534 ),
 ( #216, #472, #389, #648 ),
 ( #68, #11, #266, #458 ),
 ( #720, #139, #653, #74 ) ),
 .UNSPECIFIED., .F., .F., .F. ) 
 B_SPLINE_SURFACE_WITH_KNOTS ( ( 4, 4 ),
 ( 4, 4 ),
 ( 0.000000000000000000, 1.000000000000000000 ),
 ( 0.000000000000000000, 1.000000000000000000 ),
 .UNSPECIFIED. ) 
 GEOMETRIC_REPRESENTATION_ITEM ( )  RATIONAL_B_SPLINE_SURFACE ( (
 ( 1.000000000000000000, 0.3333333333333334259, 0.3333333333333334259, 1.000000000000000000),
 ( 0.7589482913192446834, 0.2529827637730816536, 0.2529827637730816536, 0.7589482913192446834),
 ( 0.7589482913192446834, 0.2529827637730816536, 0.2529827637730816536, 0.7589482913192446834),
 ( 1.000000000000000000, 0.3333333333333334259, 0.3333333333333334259, 1.000000000000000000) ) ) 
 REPRESENTATION_ITEM ( '' )  SURFACE ( )  );
#782 = CARTESIAN_POINT ( 'NONE',  ( 12.50000000000000000, 0.000000000000000000, 0.000000000000000000 ) ) ;
#783 = EDGE_CURVE ( 'NONE', #231, #803, #435, .T. ) ;
#784 = DESIGN_CONTEXT ( 'detailed design', #551, 'design' ) ;
#785 = APPROVAL_STATUS ( 'not_yet_approved' ) ;
#786 = DIRECTION ( 'NONE',  ( 0.000000000000000000, 0.000000000000000000, 1.000000000000000000 ) ) ;
#787 = APPROVAL_PERSON_ORGANIZATION ( #208, #591, #727 ) ;
#788 = TOROIDAL_SURFACE ( 'NONE', #711, 12.81954981558864048, 0.5000000000000000000 ) ;
#789 = CARTESIAN_POINT ( 'NONE',  ( 10.90394390755283460, 0.000000000000000000, -1.924215411476137394 ) ) ;
#790 = ORIENTED_EDGE ( 'NONE', *, *, #106, .T. ) ;
#791 = COORDINATED_UNIVERSAL_TIME_OFFSET ( 6, 0, .BEHIND. ) ;
#792 = FACE_OUTER_BOUND ( 'NONE', #196, .T. ) ;
#793 = EDGE_CURVE ( 'NONE', #739, #747, #555, .T. ) ;
#794 = CARTESIAN_POINT ( 'NONE',  ( -12.32714593908253597, 0.000000000000000000, -2.761824088833463531 ) ) ;
#795 = ORIENTED_EDGE ( 'NONE', *, *, #642, .F. ) ;
#796 = PERSON_AND_ORGANIZATION_ROLE ( 'design_supplier' ) ;
#797 = CARTESIAN_POINT ( 'NONE',  ( -12.50000000000000000, 0.000000000000000000, -2.007861166892455529 ) ) ;
#798 = COORDINATED_UNIVERSAL_TIME_OFFSET ( 6, 0, .BEHIND. ) ;
#799 = CIRCLE ( 'NONE', #431, 5.915999999999999481 ) ;
#800 = ORIENTED_EDGE ( 'NONE', *, *, #163, .F. ) ;
#801 = AXIS2_PLACEMENT_3D ( 'NONE', #61, #194, #328 ) ;
#802 = CARTESIAN_POINT ( 'NONE',  ( -15.14404936914117528, 1.854611158604823526E-15, 2.921953471196667707 ) ) ;
#803 = VERTEX_POINT ( 'NONE', #718 ) ;
#804 = UNCERTAINTY_MEASURE_WITH_UNIT (LENGTH_MEASURE( 1.000000000000000082E-05 ), #643, 'distance_accuracy_value', 'NONE');
#805 = ADVANCED_FACE ( 'NONE', ( #138 ), #434, .F. ) ;
#806 = LINE ( 'NONE', #809, #154 ) ;
#807 = DIRECTION ( 'NONE',  ( -0.1736481776669257793, 0.000000000000000000, -0.9848077530122089085 ) ) ;
#808 = ORIENTED_EDGE ( 'NONE', *, *, #496, .T. ) ;
#809 = CARTESIAN_POINT ( 'NONE',  ( 10.90394390755283460, 0.000000000000000000, 1.924215411476136062 ) ) ;
#810 = VERTEX_POINT ( 'NONE', #317 ) ;
#811 = AXIS2_PLACEMENT_3D ( 'NONE', #524, #725, #78 ) ;
#812 = LINE ( 'NONE', #235, #570 ) ;
#813 = CIRCLE ( 'NONE', #514, 5.915999999999999481 ) ;
#814 = ADVANCED_FACE ( 'NONE', ( #451 ), #724, .T. ) ;
#815 = FACE_OUTER_BOUND ( 'NONE', #487, .T. ) ;
#816 = CARTESIAN_POINT ( 'NONE',  ( 0.000000000000000000, 0.000000000000000000, 2.761824088833462643 ) ) ;
#817 = DIRECTION ( 'NONE',  ( 1.000000000000000000, 0.000000000000000000, 0.000000000000000000 ) ) ;
#818 = CARTESIAN_POINT ( 'NONE',  ( 14.70929198500000190, 1.080821240829243930E-15, 3.174999999999999822 ) ) ;
#819 = CARTESIAN_POINT ( 'NONE',  ( -15.14404936914117528, 1.901879502063875235E-15, 2.921953471196667707 ) ) ;
#820 = FACE_OUTER_BOUND ( 'NONE', #364, .T. ) ;
#821 = DIRECTION ( 'NONE',  ( -1.224646799147353207E-16, -1.000000000000000000, 0.000000000000000000 ) ) ;
#822 = APPROVAL_PERSON_ORGANIZATION ( #280, #759, #536 ) ;
#823 = DIRECTION ( 'NONE',  ( -0.000000000000000000, -0.000000000000000000, -1.000000000000000000 ) ) ;
#824 = FACE_BOUND ( 'NONE', #81, .T. ) ;
#825 = CIRCLE ( 'NONE', #722, 12.19134972547525031 ) ;
#826 = ORIENTED_EDGE ( 'NONE', *, *, #116, .F. ) ;
#827 = PRODUCT_DEFINITION_SHAPE ( 'NONE', 'NONE',  #429 ) ;
#828 = AXIS2_PLACEMENT_3D ( 'NONE', #147, #594, #397 ) ;
#829 = CARTESIAN_POINT ( 'NONE',  ( -10.90394390755283460, 1.335348000446686039E-15, -1.924215411476137394 ) ) ;
#830 = CC_DESIGN_PERSON_AND_ORGANIZATION_ASSIGNMENT ( #213, #471, ( #329 ) ) ;
#831 = CARTESIAN_POINT ( 'NONE',  ( 0.000000000000000000, 0.000000000000000000, 1.924215411476136062 ) ) ;
#832 = ORIENTED_EDGE ( 'NONE', *, *, #288, .F. ) ;
#833 = CARTESIAN_POINT ( 'NONE',  ( -15.65286405018198046, 1.916922985654403756E-15, -2.026193882682281622 ) ) ;
ENDSEC;
END-ISO-10303-21;
