ISO-10303-21;
HEADER;
FILE_DESCRIPTION (( 'STEP AP203' ),
    '1' );
FILE_NAME ('228-2500-112.step',
    '2022-06-06T18:59:58',
    ( '' ),
    ( '' ),
    'SwSTEP 2.0',
    'SolidWorks 2021',
    '' );
FILE_SCHEMA (( 'CONFIG_CONTROL_DESIGN' ));
ENDSEC;

DATA;
#1 = PLANE ( 'NONE',  #157 ) ;
#2 = EDGE_CURVE ( 'NONE', #18, #249, #19, .T. ) ;
#3 = CARTESIAN_POINT ( 'NONE',  ( -2.100000000000000089, 0.000000000000000000, 0.3810000000000000053 ) ) ;
#4 = DIRECTION ( 'NONE',  ( 0.000000000000000000, 0.000000000000000000, 1.000000000000000000 ) ) ;
#5 = DIRECTION ( 'NONE',  ( -1.000000000000000000, 0.000000000000000000, 0.000000000000000000 ) ) ;
#6 = FACE_OUTER_BOUND ( 'NONE', #230, .T. ) ;
#7 = CARTESIAN_POINT ( 'NONE',  ( 4.000000000000000000, 4.898587196589411843E-16, 0.3810000000000000053 ) ) ;
#8 = DIRECTION ( 'NONE',  ( 0.000000000000000000, 0.000000000000000000, 1.000000000000000000 ) ) ;
#9 = SECURITY_CLASSIFICATION ( '', '', #67 ) ;
#10 = DIRECTION ( 'NONE',  ( 1.000000000000000000, 0.000000000000000000, -0.000000000000000000 ) ) ;
#11 = APPLICATION_CONTEXT ( 'configuration controlled 3d designs of mechanical parts and assemblies' ) ;
#12 = APPROVAL_ROLE ( '' ) ;
#13 = ORIENTED_EDGE ( 'NONE', *, *, #150, .F. ) ;
#14 = DATE_TIME_ROLE ( 'creation_date' ) ;
#15 = APPLICATION_PROTOCOL_DEFINITION ( 'international standard', 'config_control_design', 1994, #11 ) ;
#16 = PERSON_AND_ORGANIZATION_ROLE ( 'creator' ) ;
#17 = DATE_AND_TIME ( #188, #114 ) ;
#18 = VERTEX_POINT ( 'NONE', #234 ) ;
#19 = LINE ( 'NONE', #134, #242 ) ;
#20 = CARTESIAN_POINT ( 'NONE',  ( 0.000000000000000000, 0.000000000000000000, -0.3810000000000000053 ) ) ;
#21 = ORIENTED_EDGE ( 'NONE', *, *, #171, .T. ) ;
#22 = VERTEX_POINT ( 'NONE', #177 ) ;
#23 = DIRECTION ( 'NONE',  ( 1.000000000000000000, 0.000000000000000000, 0.000000000000000000 ) ) ;
#24 = CIRCLE ( 'NONE', #152, 2.100000000000000089 ) ;
#25 = CARTESIAN_POINT ( 'NONE',  ( 0.000000000000000000, 0.000000000000000000, 0.3810000000000000053 ) ) ;
#26 = AXIS2_PLACEMENT_3D ( 'NONE', #30, #109, #241 ) ;
#27 = FACE_OUTER_BOUND ( 'NONE', #87, .T. ) ;
#28 = CIRCLE ( 'NONE', #223, 2.100000000000000089 ) ;
#29 = EDGE_CURVE ( 'NONE', #43, #193, #24, .T. ) ;
#30 = CARTESIAN_POINT ( 'NONE',  ( 0.000000000000000000, 0.000000000000000000, 0.3810000000000000053 ) ) ;
#31 = CALENDAR_DATE ( 2022, 6, 6 ) ;
#32 = APPROVAL_PERSON_ORGANIZATION ( #206, #218, #113 ) ;
#33 = VECTOR ( 'NONE', #222, 1000.000000000000000 ) ;
#34 = PERSON_AND_ORGANIZATION ( #80, #62 ) ;
#35 = ORIENTED_EDGE ( 'NONE', *, *, #2, .T. ) ;
#36 = DATE_AND_TIME ( #70, #53 ) ;
#37 = ORIENTED_EDGE ( 'NONE', *, *, #41, .T. ) ;
#38 = PRODUCT_RELATED_PRODUCT_CATEGORY ( 'detail', '', ( #176 ) ) ;
#39 = DIRECTION ( 'NONE',  ( 0.000000000000000000, 0.000000000000000000, 1.000000000000000000 ) ) ;
#40 = DIRECTION ( 'NONE',  ( -0.000000000000000000, -0.000000000000000000, -1.000000000000000000 ) ) ;
#41 = EDGE_CURVE ( 'NONE', #249, #72, #130, .T. ) ;
#42 = DIRECTION ( 'NONE',  ( 0.000000000000000000, 0.000000000000000000, 1.000000000000000000 ) ) ;
#43 = VERTEX_POINT ( 'NONE', #102 ) ;
#44 = ORIENTED_EDGE ( 'NONE', *, *, #68, .F. ) ;
#45 = CARTESIAN_POINT ( 'NONE',  ( -2.100000000000000089, 0.000000000000000000, -0.3810000000000000053 ) ) ;
#46 = DIRECTION ( 'NONE',  ( -0.000000000000000000, -0.000000000000000000, -1.000000000000000000 ) ) ;
#47 = COORDINATED_UNIVERSAL_TIME_OFFSET ( 6, 0, .BEHIND. ) ;
#48 = PERSON_AND_ORGANIZATION_ROLE ( 'design_supplier' ) ;
#49 = ORIENTED_EDGE ( 'NONE', *, *, #50, .F. ) ;
#50 = EDGE_CURVE ( 'NONE', #193, #43, #212, .T. ) ;
#51 = CC_DESIGN_DATE_AND_TIME_ASSIGNMENT ( #36, #224, ( #9 ) ) ;
#52 = PRODUCT_DEFINITION_SHAPE ( 'NONE', 'NONE',  #120 ) ;
#53 = LOCAL_TIME ( 13, 59, 58.00000000000000000, #143 ) ;
#54 = DESIGN_CONTEXT ( 'detailed design', #11, 'design' ) ;
#55 = AXIS2_PLACEMENT_3D ( 'NONE', #165, #64, #240 ) ;
#56 = DIRECTION ( 'NONE',  ( 0.000000000000000000, 0.000000000000000000, 1.000000000000000000 ) ) ;
#57 = CYLINDRICAL_SURFACE ( 'NONE', #180, 4.000000000000000000 ) ;
#58 = EDGE_LOOP ( 'NONE', ( #226, #13 ) ) ;
#59 = DIRECTION ( 'NONE',  ( 1.000000000000000000, 0.000000000000000000, 0.000000000000000000 ) ) ;
#60 = FACE_BOUND ( 'NONE', #217, .T. ) ;
#61 = CARTESIAN_POINT ( 'NONE',  ( 0.000000000000000000, 0.000000000000000000, 0.3810000000000000053 ) ) ;
#62 = ORGANIZATION ( 'UNSPECIFIED', 'UNSPECIFIED', '' ) ;
#63 = EDGE_CURVE ( 'NONE', #22, #104, #28, .T. ) ;
#64 = DIRECTION ( 'NONE',  ( -0.000000000000000000, -0.000000000000000000, -1.000000000000000000 ) ) ;
#65 = DIRECTION ( 'NONE',  ( 0.000000000000000000, 0.000000000000000000, 1.000000000000000000 ) ) ;
#66 = AXIS2_PLACEMENT_3D ( 'NONE', #239, #56, #99 ) ;
#67 = SECURITY_CLASSIFICATION_LEVEL ( 'unclassified' ) ;
#68 = EDGE_CURVE ( 'NONE', #104, #193, #77, .T. ) ;
#69 = CALENDAR_DATE ( 2022, 6, 6 ) ;
#70 = CALENDAR_DATE ( 2022, 6, 6 ) ;
#71 = CC_DESIGN_PERSON_AND_ORGANIZATION_ASSIGNMENT ( #129, #48, ( #142 ) ) ;
#72 = VERTEX_POINT ( 'NONE', #73 ) ;
#73 = CARTESIAN_POINT ( 'NONE',  ( 4.000000000000000000, 4.898587196589411843E-16, -0.3810000000000000053 ) ) ;
#74 = AXIS2_PLACEMENT_3D ( 'NONE', #125, #85, #205 ) ;
#75 = VERTEX_POINT ( 'NONE', #116 ) ;
#76 = ADVANCED_FACE ( 'NONE', ( #236 ), #57, .T. ) ;
#77 = LINE ( 'NONE', #3, #124 ) ;
#78 = FACE_OUTER_BOUND ( 'NONE', #216, .T. ) ;
#79 = AXIS2_PLACEMENT_3D ( 'NONE', #20, #174, #59 ) ;
#80 = PERSON ( 'UNSPECIFIED', 'UNSPECIFIED', 'UNSPECIFIED', ('UNSPECIFIED'), ('UNSPECIFIED'), ('UNSPECIFIED') ) ;
#81 = EDGE_CURVE ( 'NONE', #18, #75, #166, .T. ) ;
#82 = ORIENTED_EDGE ( 'NONE', *, *, #63, .T. ) ;
#83 = CARTESIAN_POINT ( 'NONE',  ( 0.000000000000000000, 0.000000000000000000, -0.3810000000000000053 ) ) ;
#84 =( LENGTH_UNIT ( ) NAMED_UNIT ( * ) SI_UNIT ( .MILLI., .METRE. ) );
#85 = DIRECTION ( 'NONE',  ( 0.000000000000000000, 0.000000000000000000, 1.000000000000000000 ) ) ;
#86 = COORDINATED_UNIVERSAL_TIME_OFFSET ( 6, 0, .BEHIND. ) ;
#87 = EDGE_LOOP ( 'NONE', ( #198, #21, #136, #156 ) ) ;
#88 = VECTOR ( 'NONE', #105, 1000.000000000000000 ) ;
#89 = DATE_AND_TIME ( #69, #123 ) ;
#90 = ADVANCED_BREP_SHAPE_REPRESENTATION ( '228-2500-112', ( #132, #175 ), #189 ) ;
#91 = APPROVAL_DATE_TIME ( #89, #92 ) ;
#92 = APPROVAL ( #95, 'UNSPECIFIED' ) ;
#93 = UNCERTAINTY_MEASURE_WITH_UNIT (LENGTH_MEASURE( 1.000000000000000082E-05 ), #84, 'distance_accuracy_value', 'NONE');
#94 = ORIENTED_EDGE ( 'NONE', *, *, #63, .F. ) ;
#95 = APPROVAL_STATUS ( 'not_yet_approved' ) ;
#96 = ORIENTED_EDGE ( 'NONE', *, *, #209, .T. ) ;
#97 = CARTESIAN_POINT ( 'NONE',  ( 0.000000000000000000, 0.000000000000000000, -0.3810000000000000053 ) ) ;
#98 = LOCAL_TIME ( 13, 59, 58.00000000000000000, #168 ) ;
#99 = DIRECTION ( 'NONE',  ( 1.000000000000000000, 0.000000000000000000, 0.000000000000000000 ) ) ;
#100 = LOCAL_TIME ( 13, 59, 58.00000000000000000, #248 ) ;
#101 = DIRECTION ( 'NONE',  ( 1.000000000000000000, 0.000000000000000000, -0.000000000000000000 ) ) ;
#102 = CARTESIAN_POINT ( 'NONE',  ( 2.100000000000000089, 2.571758278209441464E-16, -0.3810000000000000053 ) ) ;
#103 = ADVANCED_FACE ( 'NONE', ( #78 ), #158, .F. ) ;
#104 = VERTEX_POINT ( 'NONE', #199 ) ;
#105 = DIRECTION ( 'NONE',  ( -0.000000000000000000, -0.000000000000000000, -1.000000000000000000 ) ) ;
#106 = APPLICATION_PROTOCOL_DEFINITION ( 'international standard', 'config_control_design', 1994, #204 ) ;
#107 = ADVANCED_FACE ( 'NONE', ( #6, #60 ), #196, .T. ) ;
#108 = CC_DESIGN_APPROVAL ( #92, ( #142 ) ) ;
#109 = DIRECTION ( 'NONE',  ( 0.000000000000000000, 0.000000000000000000, 1.000000000000000000 ) ) ;
#110 = APPROVAL_DATE_TIME ( #146, #218 ) ;
#111 = PERSON_AND_ORGANIZATION ( #80, #62 ) ;
#112 = ADVANCED_FACE ( 'NONE', ( #194, #214 ), #1, .F. ) ;
#113 = APPROVAL_ROLE ( '' ) ;
#114 = LOCAL_TIME ( 13, 59, 58.00000000000000000, #86 ) ;
#115 = EDGE_LOOP ( 'NONE', ( #148, #82, #208, #195 ) ) ;
#116 = CARTESIAN_POINT ( 'NONE',  ( 4.000000000000000000, 4.898587196589411843E-16, 0.3810000000000000053 ) ) ;
#117 = DIRECTION ( 'NONE',  ( -1.000000000000000000, 0.000000000000000000, 0.000000000000000000 ) ) ;
#118 = DIRECTION ( 'NONE',  ( 1.000000000000000000, 0.000000000000000000, 0.000000000000000000 ) ) ;
#119 = ORIENTED_EDGE ( 'NONE', *, *, #29, .T. ) ;
#120 = PRODUCT_DEFINITION ( 'UNKNOWN', '', #142, #54 ) ;
#121 = CARTESIAN_POINT ( 'NONE',  ( 0.000000000000000000, 0.000000000000000000, 0.3810000000000000053 ) ) ;
#122 = DIRECTION ( 'NONE',  ( 1.000000000000000000, 0.000000000000000000, 0.000000000000000000 ) ) ;
#123 = LOCAL_TIME ( 13, 59, 58.00000000000000000, #47 ) ;
#124 = VECTOR ( 'NONE', #154, 1000.000000000000000 ) ;
#125 = CARTESIAN_POINT ( 'NONE',  ( 0.000000000000000000, 0.000000000000000000, -0.3810000000000000053 ) ) ;
#126 = DIRECTION ( 'NONE',  ( -1.000000000000000000, 0.000000000000000000, 0.000000000000000000 ) ) ;
#127 = CIRCLE ( 'NONE', #74, 4.000000000000000000 ) ;
#128 = DATE_AND_TIME ( #190, #100 ) ;
#129 = PERSON_AND_ORGANIZATION ( #80, #62 ) ;
#130 = CIRCLE ( 'NONE', #79, 4.000000000000000000 ) ;
#131 = AXIS2_PLACEMENT_3D ( 'NONE', #61, #8, #122 ) ;
#132 = MANIFOLD_SOLID_BREP ( '228-2500-112', #201 ) ;
#133 = DIRECTION ( 'NONE',  ( 1.000000000000000000, 0.000000000000000000, 0.000000000000000000 ) ) ;
#134 = CARTESIAN_POINT ( 'NONE',  ( -4.000000000000000000, 0.000000000000000000, 0.3810000000000000053 ) ) ;
#135 = CC_DESIGN_DATE_AND_TIME_ASSIGNMENT ( #17, #14, ( #120 ) ) ;
#136 = ORIENTED_EDGE ( 'NONE', *, *, #150, .T. ) ;
#137 = ORIENTED_EDGE ( 'NONE', *, *, #169, .T. ) ;
#138 = CARTESIAN_POINT ( 'NONE',  ( 2.100000000000000089, 2.571758278209441464E-16, 0.3810000000000000053 ) ) ;
#139 = CARTESIAN_POINT ( 'NONE',  ( 0.000000000000000000, 0.000000000000000000, 0.000000000000000000 ) ) ;
#140 = CC_DESIGN_PERSON_AND_ORGANIZATION_ASSIGNMENT ( #147, #229, ( #9 ) ) ;
#141 = AXIS2_PLACEMENT_3D ( 'NONE', #121, #42, #118 ) ;
#142 = PRODUCT_DEFINITION_FORMATION_WITH_SPECIFIED_SOURCE ( 'ANY', '', #176, .NOT_KNOWN. ) ;
#143 = COORDINATED_UNIVERSAL_TIME_OFFSET ( 6, 0, .BEHIND. ) ;
#144 = APPROVAL_STATUS ( 'not_yet_approved' ) ;
#145 = EDGE_LOOP ( 'NONE', ( #149, #186, #35, #37 ) ) ;
#146 = DATE_AND_TIME ( #31, #98 ) ;
#147 = PERSON_AND_ORGANIZATION ( #80, #62 ) ;
#148 = ORIENTED_EDGE ( 'NONE', *, *, #245, .F. ) ;
#149 = ORIENTED_EDGE ( 'NONE', *, *, #171, .F. ) ;
#150 = EDGE_CURVE ( 'NONE', #72, #249, #127, .T. ) ;
#151 = CC_DESIGN_APPROVAL ( #218, ( #9 ) ) ;
#152 = AXIS2_PLACEMENT_3D ( 'NONE', #97, #4, #23 ) ;
#153 = DIRECTION ( 'NONE',  ( 0.000000000000000000, 0.000000000000000000, 1.000000000000000000 ) ) ;
#154 = DIRECTION ( 'NONE',  ( -0.000000000000000000, -0.000000000000000000, -1.000000000000000000 ) ) ;
#155 = APPROVAL ( #191, 'UNSPECIFIED' ) ;
#156 = ORIENTED_EDGE ( 'NONE', *, *, #2, .F. ) ;
#157 = AXIS2_PLACEMENT_3D ( 'NONE', #83, #65, #10 ) ;
#158 = CYLINDRICAL_SURFACE ( 'NONE', #237, 2.100000000000000089 ) ;
#159 = CIRCLE ( 'NONE', #26, 2.100000000000000089 ) ;
#160 = ORIENTED_EDGE ( 'NONE', *, *, #81, .T. ) ;
#161 =( NAMED_UNIT ( * ) SI_UNIT ( $, .STERADIAN. ) SOLID_ANGLE_UNIT ( ) );
#162 = DIRECTION ( 'NONE',  ( 0.000000000000000000, 0.000000000000000000, 1.000000000000000000 ) ) ;
#163 = CC_DESIGN_PERSON_AND_ORGANIZATION_ASSIGNMENT ( #172, #16, ( #142 ) ) ;
#164 = DIRECTION ( 'NONE',  ( 1.000000000000000000, 0.000000000000000000, 0.000000000000000000 ) ) ;
#165 = CARTESIAN_POINT ( 'NONE',  ( 0.000000000000000000, 0.000000000000000000, 0.3810000000000000053 ) ) ;
#166 = CIRCLE ( 'NONE', #141, 4.000000000000000000 ) ;
#167 = APPROVAL_ROLE ( '' ) ;
#168 = COORDINATED_UNIVERSAL_TIME_OFFSET ( 6, 0, .BEHIND. ) ;
#169 = EDGE_CURVE ( 'NONE', #75, #18, #247, .T. ) ;
#170 = SHAPE_DEFINITION_REPRESENTATION ( #52, #90 ) ;
#171 = EDGE_CURVE ( 'NONE', #75, #72, #203, .T. ) ;
#172 = PERSON_AND_ORGANIZATION ( #80, #62 ) ;
#173 = CARTESIAN_POINT ( 'NONE',  ( 0.000000000000000000, 0.000000000000000000, 0.3810000000000000053 ) ) ;
#174 = DIRECTION ( 'NONE',  ( 0.000000000000000000, 0.000000000000000000, 1.000000000000000000 ) ) ;
#175 = AXIS2_PLACEMENT_3D ( 'NONE', #139, #162, #164 ) ;
#176 = PRODUCT ( '228-2500-112', '228-2500-112', '', ( #182 ) ) ;
#177 = CARTESIAN_POINT ( 'NONE',  ( 2.100000000000000089, 2.571758278209441464E-16, 0.3810000000000000053 ) ) ;
#178 = CARTESIAN_POINT ( 'NONE',  ( 0.000000000000000000, 0.000000000000000000, 0.3810000000000000053 ) ) ;
#179 = DIRECTION ( 'NONE',  ( -0.000000000000000000, -0.000000000000000000, -1.000000000000000000 ) ) ;
#180 = AXIS2_PLACEMENT_3D ( 'NONE', #215, #40, #5 ) ;
#181 = FACE_OUTER_BOUND ( 'NONE', #115, .T. ) ;
#182 = MECHANICAL_CONTEXT ( 'NONE', #204, 'mechanical' ) ;
#183 = CC_DESIGN_PERSON_AND_ORGANIZATION_ASSIGNMENT ( #34, #210, ( #120 ) ) ;
#184 = LINE ( 'NONE', #138, #88 ) ;
#185 = CYLINDRICAL_SURFACE ( 'NONE', #202, 4.000000000000000000 ) ;
#186 = ORIENTED_EDGE ( 'NONE', *, *, #81, .F. ) ;
#187 = CC_DESIGN_SECURITY_CLASSIFICATION ( #9, ( #142 ) ) ;
#188 = CALENDAR_DATE ( 2022, 6, 6 ) ;
#189 =( GEOMETRIC_REPRESENTATION_CONTEXT ( 3 ) GLOBAL_UNCERTAINTY_ASSIGNED_CONTEXT ( ( #93 ) ) GLOBAL_UNIT_ASSIGNED_CONTEXT ( ( #84, #220, #161 ) ) REPRESENTATION_CONTEXT ( 'NONE', 'WORKASPACE' ) );
#190 = CALENDAR_DATE ( 2022, 6, 6 ) ;
#191 = APPROVAL_STATUS ( 'not_yet_approved' ) ;
#192 = ADVANCED_FACE ( 'NONE', ( #181 ), #200, .F. ) ;
#193 = VERTEX_POINT ( 'NONE', #45 ) ;
#194 = FACE_OUTER_BOUND ( 'NONE', #58, .T. ) ;
#195 = ORIENTED_EDGE ( 'NONE', *, *, #29, .F. ) ;
#196 = PLANE ( 'NONE',  #233 ) ;
#197 = ADVANCED_FACE ( 'NONE', ( #27 ), #185, .T. ) ;
#198 = ORIENTED_EDGE ( 'NONE', *, *, #169, .F. ) ;
#199 = CARTESIAN_POINT ( 'NONE',  ( -2.100000000000000089, 0.000000000000000000, 0.3810000000000000053 ) ) ;
#200 = CYLINDRICAL_SURFACE ( 'NONE', #55, 2.100000000000000089 ) ;
#201 = CLOSED_SHELL ( 'NONE', ( #103, #197, #107, #112, #76, #192 ) ) ;
#202 = AXIS2_PLACEMENT_3D ( 'NONE', #25, #46, #126 ) ;
#203 = LINE ( 'NONE', #7, #33 ) ;
#204 = APPLICATION_CONTEXT ( 'configuration controlled 3d designs of mechanical parts and assemblies' ) ;
#205 = DIRECTION ( 'NONE',  ( 1.000000000000000000, 0.000000000000000000, 0.000000000000000000 ) ) ;
#206 = PERSON_AND_ORGANIZATION ( #80, #62 ) ;
#207 = APPROVAL_PERSON_ORGANIZATION ( #228, #155, #12 ) ;
#208 = ORIENTED_EDGE ( 'NONE', *, *, #68, .T. ) ;
#209 = EDGE_CURVE ( 'NONE', #104, #22, #159, .T. ) ;
#210 = PERSON_AND_ORGANIZATION_ROLE ( 'creator' ) ;
#211 = ORIENTED_EDGE ( 'NONE', *, *, #50, .T. ) ;
#212 = CIRCLE ( 'NONE', #66, 2.100000000000000089 ) ;
#213 = CARTESIAN_POINT ( 'NONE',  ( 0.000000000000000000, 0.000000000000000000, 0.3810000000000000053 ) ) ;
#214 = FACE_BOUND ( 'NONE', #231, .T. ) ;
#215 = CARTESIAN_POINT ( 'NONE',  ( 0.000000000000000000, 0.000000000000000000, 0.3810000000000000053 ) ) ;
#216 = EDGE_LOOP ( 'NONE', ( #96, #243, #49, #44 ) ) ;
#217 = EDGE_LOOP ( 'NONE', ( #235, #94 ) ) ;
#218 = APPROVAL ( #144, 'UNSPECIFIED' ) ;
#219 = CARTESIAN_POINT ( 'NONE',  ( -4.000000000000000000, 0.000000000000000000, -0.3810000000000000053 ) ) ;
#220 =( NAMED_UNIT ( * ) PLANE_ANGLE_UNIT ( ) SI_UNIT ( $, .RADIAN. ) );
#221 = CC_DESIGN_APPROVAL ( #155, ( #120 ) ) ;
#222 = DIRECTION ( 'NONE',  ( -0.000000000000000000, -0.000000000000000000, -1.000000000000000000 ) ) ;
#223 = AXIS2_PLACEMENT_3D ( 'NONE', #178, #153, #133 ) ;
#224 = DATE_TIME_ROLE ( 'classification_date' ) ;
#225 = PERSON_AND_ORGANIZATION_ROLE ( 'design_owner' ) ;
#226 = ORIENTED_EDGE ( 'NONE', *, *, #41, .F. ) ;
#227 = CC_DESIGN_PERSON_AND_ORGANIZATION_ASSIGNMENT ( #246, #225, ( #176 ) ) ;
#228 = PERSON_AND_ORGANIZATION ( #80, #62 ) ;
#229 = PERSON_AND_ORGANIZATION_ROLE ( 'classification_officer' ) ;
#230 = EDGE_LOOP ( 'NONE', ( #160, #137 ) ) ;
#231 = EDGE_LOOP ( 'NONE', ( #211, #119 ) ) ;
#232 = APPROVAL_PERSON_ORGANIZATION ( #111, #92, #167 ) ;
#233 = AXIS2_PLACEMENT_3D ( 'NONE', #213, #39, #101 ) ;
#234 = CARTESIAN_POINT ( 'NONE',  ( -4.000000000000000000, 0.000000000000000000, 0.3810000000000000053 ) ) ;
#235 = ORIENTED_EDGE ( 'NONE', *, *, #209, .F. ) ;
#236 = FACE_OUTER_BOUND ( 'NONE', #145, .T. ) ;
#237 = AXIS2_PLACEMENT_3D ( 'NONE', #173, #179, #117 ) ;
#238 = DIRECTION ( 'NONE',  ( -0.000000000000000000, -0.000000000000000000, -1.000000000000000000 ) ) ;
#239 = CARTESIAN_POINT ( 'NONE',  ( 0.000000000000000000, 0.000000000000000000, -0.3810000000000000053 ) ) ;
#240 = DIRECTION ( 'NONE',  ( -1.000000000000000000, 0.000000000000000000, 0.000000000000000000 ) ) ;
#241 = DIRECTION ( 'NONE',  ( 1.000000000000000000, 0.000000000000000000, 0.000000000000000000 ) ) ;
#242 = VECTOR ( 'NONE', #238, 1000.000000000000000 ) ;
#243 = ORIENTED_EDGE ( 'NONE', *, *, #245, .T. ) ;
#244 = APPROVAL_DATE_TIME ( #128, #155 ) ;
#245 = EDGE_CURVE ( 'NONE', #22, #43, #184, .T. ) ;
#246 = PERSON_AND_ORGANIZATION ( #80, #62 ) ;
#247 = CIRCLE ( 'NONE', #131, 4.000000000000000000 ) ;
#248 = COORDINATED_UNIVERSAL_TIME_OFFSET ( 6, 0, .BEHIND. ) ;
#249 = VERTEX_POINT ( 'NONE', #219 ) ;
ENDSEC;
END-ISO-10303-21;
